<?xml version="1.0" encoding="utf-8"?>
<!-- Generator: Adobe Illustrator 18.1.0, SVG Export Plug-In . SVG Version: 6.00 Build 0)  -->
<!DOCTYPE svg PUBLIC "-//W3C//DTD SVG 1.1//EN" "http://www.w3.org/Graphics/SVG/1.1/DTD/svg11.dtd">
<svg version="1.1" id="Layer_1" xmlns="http://www.w3.org/2000/svg" xmlns:xlink="http://www.w3.org/1999/xlink" x="0px" y="0px"
	 viewBox="0 0 520 389" enable-background="new 0 0 520 389" xml:space="preserve">
<rect x="162.9" y="387" fill="#382216" width="232" height="2"/>
<g>
	<rect x="165.9" y="82" fill="#ECC7A5" width="226" height="302"/>
	<path fill="#9E5C26" d="M388.9,85v296h-220V85H388.9 M394.9,79h-232v308h232V79L394.9,79z"/>
</g>
<g>
	<path fill="#CE9402" d="M75.4,354.9c0,0,8.5-21.2,2.4-36.2c-6.1-15-13.7-57.2-13.7-57.2h56.1c0,0-5.1,41-14.2,56.5
		c-9.1,15.5,2.9,36.9,2.9,36.9l-12,11L75.4,354.9z"/>
	<path fill="#CE9402" d="M77.7,318.7"/>
	<path opacity="7.000000e-02" fill="#00101F" d="M92.1,261.4h28.1c0,0-5.1,41-14.2,56.5c-9.1,15.5,2.9,36.9,2.9,36.9l-16.8,11"/>
	<path fill="#C68900" d="M119.3,374.5l-10.4-19.7c0,0-8.2,1.5-16.8,1.5c-8.6,0-16.8-1.5-16.8-1.5L65,374.5
		C73.5,380.8,110.8,380.8,119.3,374.5z"/>
	<path opacity="9.000000e-02" fill="#00101F" d="M92.1,379.2c11.5,0,22.9-1.6,27.2-4.7l-10.4-19.7c0,0-8.2,1.5-16.8,1.5"/>
	<path fill="#254A21" d="M72.9,359.5c0.1-0.2,17.2,4.2,38.5,0l-2.5-4.7c0,0-8.7,1.5-16.8,1.5c-8.5,0-16.8-1.5-16.8-1.5L72.9,359.5z"
		/>
	<path opacity="0.1" fill="#00101F" d="M92.1,361.3c5.7,0,12.2-0.4,19.2-1.8l-2.5-4.7c0,0-8.7,1.5-16.8,1.5"/>
	<path fill="#254A21" d="M65,374.5l3.1-5.8c0,0,24.1,6.5,48.1-0.1l3.1,5.9c0,0-4.9,4.7-27.2,4.7C69.8,379.2,65,374.5,65,374.5z"/>
	<path opacity="0.1" fill="#00101F" d="M92.1,371.6c7.4,0.1,15.7-0.6,24.1-2.9l3.1,5.9c0,0-4.9,4.7-27.2,4.7"/>
	<circle fill="#D69E00" cx="92.1" cy="257.5" r="28.3"/>
	<path opacity="6.000000e-02" fill="#00101F" d="M92.1,229.2c15.6,0,28.3,12.7,28.3,28.3s-12.7,28.3-28.3,28.3"/>
</g>
<g>
	
		<linearGradient id="SVGID_1_" gradientUnits="userSpaceOnUse" x1="-14851.0342" y1="6042.6543" x2="-14851.0342" y2="6151.0854" gradientTransform="matrix(-0.8009 0.256 -0.3045 -0.9525 -9973.0947 9969.8506)">
		<stop  offset="0" style="stop-color:#FFFFFF"/>
		<stop  offset="1" style="stop-color:#FFFFFF;stop-opacity:0"/>
	</linearGradient>
	<path fill="url(#SVGID_1_)" d="M11.3,306c-16.2-50.8-14.9-96.6,3.1-102.3s45.6,30.8,61.8,81.6s14.9,96.6-3.1,102.3
		S27.6,356.8,11.3,306z"/>
	
		<linearGradient id="SVGID_2_" gradientUnits="userSpaceOnUse" x1="-10858.9561" y1="10619.0957" x2="-10858.9561" y2="10727.5273" gradientTransform="matrix(-0.7473 -0.3853 0.4582 -0.8888 -12933.3828 5659.1309)">
		<stop  offset="0" style="stop-color:#FFFFFF"/>
		<stop  offset="1" style="stop-color:#FFFFFF;stop-opacity:0"/>
	</linearGradient>
	<path fill="url(#SVGID_2_)" d="M73.7,280.1c24.4-47.4,57.8-78.8,74.5-70.2s10.5,54-13.9,101.4s-57.8,78.8-74.5,70.2
		S49.3,327.4,73.7,280.1z"/>
</g>
<g>
	<rect x="35.7" y="380.9" fill="#9E5C26" width="107.4" height="6.9"/>
	<rect x="35.6" y="387" fill="#382216" width="107.5" height="2"/>
	<polygon fill="#7F4921" points="53.1,387.8 35.7,387.8 35.7,380.9 73.1,380.9 	"/>
</g>
<linearGradient id="SVGID_3_" gradientUnits="userSpaceOnUse" x1="892.7412" y1="1541.9128" x2="892.7412" y2="1746.665" gradientTransform="matrix(0.9683 -0.2499 0.2499 0.9683 -1179.8754 -1307.0212)">
	<stop  offset="0" style="stop-color:#FFFFFF"/>
	<stop  offset="1" style="stop-color:#FFFFFF;stop-opacity:0"/>
</linearGradient>
<path fill="url(#SVGID_3_)" d="M201.6,167.4c25.1,97.5,12.4,185-28.5,195.6S78.6,303.1,53.5,205.7S41.1,20.7,82,10.1
	S176.5,70,201.6,167.4z"/>
<linearGradient id="SVGID_4_" gradientUnits="userSpaceOnUse" x1="-1000.9777" y1="-1702.2792" x2="-1000.9777" y2="-1497.527" gradientTransform="matrix(0.959 0.2834 -0.2834 0.959 972.8809 1886.2046)">
	<stop  offset="0" style="stop-color:#FFFFFF"/>
	<stop  offset="1" style="stop-color:#FFFFFF;stop-opacity:0"/>
</linearGradient>
<path fill="url(#SVGID_4_)" d="M503.2,213.2c-28.5,96.5-84.5,165.1-125,153.1c-40.5-12-50.2-99.9-21.7-196.4S441,4.8,481.5,16.8
	S531.8,116.7,503.2,213.2z"/>
<linearGradient id="SVGID_5_" gradientUnits="userSpaceOnUse" x1="-1236.5272" y1="-1872.3397" x2="-1236.5272" y2="-1667.5875" gradientTransform="matrix(0.9495 0.3139 -0.3139 0.9495 1029.886 2121.5891)">
	<stop  offset="0" style="stop-color:#FFFFFF"/>
	<stop  offset="1" style="stop-color:#FFFFFF;stop-opacity:0"/>
</linearGradient>
<path fill="url(#SVGID_5_)" d="M443.7,199.1c-31.6,95.6-89.7,162.3-129.8,149s-47-101.5-15.4-197S388.1-11.2,428.2,2
	S475.3,103.5,443.7,199.1z"/>
<linearGradient id="SVGID_6_" gradientUnits="userSpaceOnUse" x1="1299.5759" y1="3217.8232" x2="1299.5759" y2="3422.5752" gradientTransform="matrix(0.8933 -0.4494 0.4494 0.8933 -2507.3545 -2329.7727)">
	<stop  offset="0" style="stop-color:#FFFFFF"/>
	<stop  offset="1" style="stop-color:#FFFFFF;stop-opacity:0"/>
</linearGradient>
<path fill="url(#SVGID_6_)" d="M271.9,132.7c45.2,89.9,51.3,178.2,13.6,197.2c-37.7,19-105-38.5-150.2-128.4S83.9,23.3,121.6,4.3
	S226.7,42.8,271.9,132.7z"/>
<g>
	<path fill="#F1F2F2" d="M228.5,224.7V323h97v-98.3l8.7,15.3l31.3-17.7L339.2,164c0,0-23-12-43.7-18l-16.7,23.2l-20-23.2
		c0,0-27.7,8.3-43.7,19l-25,57l31,19.3L228.5,224.7z"/>
	<polyline fill="#231F20" points="221.2,241.3 224.3,234.2 192.8,215.9 190.2,222 221.1,241.3 	"/>
	<polyline fill="#231F20" points="331,234.4 334.2,240 365.5,222.3 363.1,216.9 331.1,234.3 	"/>
	<rect x="228.5" y="316.5" fill="#E6E7E8" width="97" height="6.5"/>
	<polygon fill="#231F20" points="258.8,146 279,168.9 295.5,146 300.1,147.4 279.1,175.6 254,147.5 	"/>
	<path fill="#231F20" d="M200.1,199.5l15.3-34.8c0,0,15-9.7,38.9-17.3l1,1.2c0,0-27.3,8.3-38.8,17.9l-14.8,33.6L200.1,199.5z"/>
	<path fill="#231F20" d="M202.6,200.7l15-33.4c0,0,15-9.9,38.9-17.5l0.9,1.2c0,0-27.1,8.4-38.7,18l-14.3,32.5L202.6,200.7z"/>
	<path fill="#231F20" d="M205.6,202.1l14.5-32.3c0,0,14.7-10,38.6-17.5l1.1,1.2c0,0-27.1,8.5-38.7,18.1L207.4,203L205.6,202.1z"/>
	<path fill="#231F20" d="M355.5,199.5l-16.2-35.8c0,0-15.4-8.8-39.3-16.3l-1.1,1c0,0,27.6,8,39.5,16.9l15.6,34.9L355.5,199.5z"/>
	<path fill="#231F20" d="M352.7,200.9l-15-33.4c0,0-15.8-10.3-39.7-17.8l-0.9,1.2c0,0,27.9,8.8,39.5,18.4l14.3,32.5L352.7,200.9z"/>
	<path fill="#231F20" d="M349.6,202.3L335.1,170c0,0-15.3-10.1-39.2-17.6l-1.1,1.2c0,0,27.7,8.6,39.2,18.2l13.8,31.4L349.6,202.3z"
		/>
	<polygon fill="#231F20" points="229.1,179.2 229.1,187.9 277.8,201 326.2,188 326.2,179.2 277.8,188.8 	"/>
	<polygon fill="#77121E" points="229.1,180.9 229.1,189.7 277.8,202.8 326.2,189.8 326.2,180.9 277.8,190.6 	"/>
	<polygon fill="#BE1E2D" points="229.1,189.2 229.1,198 277.8,211 326.2,198 326.2,189.2 277.8,198.8 	"/>
	<polygon fill="#FBB040" points="229.1,199 229.1,207.7 277.8,220.8 326.2,207.8 326.2,199 277.8,208.6 	"/>
	<polygon fill="#FF1A36" points="229.1,197.2 229.1,206 277.8,219 326.2,206 326.2,197.2 277.8,206.8 	"/>
	<circle fill="#231F20" cx="312.2" cy="196.2" r="11.2"/>
	<circle fill="#A7A9AC" cx="312.2" cy="196.2" r="7.3"/>
	<path opacity="0.15" fill="#231F20" d="M278.8,169.2l-20-23.2c0,0-27.7,8.3-43.7,19l-25,57l31,19.3l7.3-16.7V323h48.8"/>
</g>
<g opacity="0.24">
	<linearGradient id="SVGID_7_" gradientUnits="userSpaceOnUse" x1="162.8877" y1="227.9946" x2="394.8877" y2="227.9946">
		<stop  offset="0" style="stop-color:#FFFFFF"/>
		<stop  offset="1" style="stop-color:#FFFFFF;stop-opacity:0"/>
	</linearGradient>
	<polygon fill="url(#SVGID_7_)" points="162.9,377 162.9,79 394.9,79 	"/>
</g>
</svg>
