<?xml version="1.0" encoding="utf-8"?>
<!-- Generator: Adobe Illustrator 18.1.0, SVG Export Plug-In . SVG Version: 6.00 Build 0)  -->
<!DOCTYPE svg PUBLIC "-//W3C//DTD SVG 1.1//EN" "http://www.w3.org/Graphics/SVG/1.1/DTD/svg11.dtd">
<svg version="1.1" id="Layer_1" xmlns="http://www.w3.org/2000/svg" xmlns:xlink="http://www.w3.org/1999/xlink" x="0px" y="0px"
	 viewBox="0 0 55.6 55.1" enable-background="new 0 0 55.6 55.1" xml:space="preserve">
<g>
	<g>
		
			<rect x="17" y="20.2" transform="matrix(0.7071 0.7071 -0.7071 0.7071 30.5553 -4.8006)" fill="#FFFFFF" width="8.2" height="28.6"/>
		<g>
			<path fill="#D49400" d="M46,32.5c0.2-0.1,0.3-0.2,0.5-0.3c0,0,0.1,0,0.1,0c1.4-0.8,2.7-1.7,3.8-2.9c6.7-6.7,6.7-17.5,0-24.2
				s-17.5-6.7-24.2,0c-0.2,0.2-0.4,0.5-0.6,0.7c-0.1,0.1-0.2,0.2-0.3,0.3c-0.1,0.1-0.2,0.3-0.3,0.4c-0.1,0.1-0.2,0.3-0.3,0.4
				c-0.1,0.1-0.1,0.2-0.2,0.3c-0.1,0.2-0.3,0.4-0.4,0.5c0,0-0.2-0.1-0.2,0c-4.9,7.4-2.9,16.4-6.3,19.7l-5.1,5.1
				c-0.3,0.3,0,1,0.3,1.3l8.9,8.9c0.3,0.3,0.5,0,0.8-0.2l5.1-5.1c0,0,0.1,0.1,0.1,0.1C30.8,34.5,39,36.2,46,32.5z"/>
			<g>
				<circle fill="#FFFFFF" cx="6.2" cy="44.6" r="5.6"/>
				<circle fill="#FFFFFF" cx="11" cy="49.4" r="5.6"/>
			</g>
		</g>
	</g>
	<g opacity="0.43">
		<path d="M3.5,47.1c-1-0.1-1.9-0.5-2.7-1.1c0.2,0.9,0.7,1.8,1.4,2.5c0.7,0.7,1.6,1.2,2.5,1.4C4,49.1,3.6,48.1,3.5,47.1z"/>
		<path d="M51.5,6.3c3.4,6.4,2.3,14.6-3.1,20c-1.2,1.2-2.4,2.1-3.8,2.9c0,0-0.1,0-0.1,0c-0.2,0.1-0.3,0.2-0.5,0.3
			c-7.1,3.7-15.2,2-18.3,5c0,0-0.1-0.1-0.1-0.1l-5.1,5.1c-0.3,0.3-0.5,0.5-0.8,0.2l-1.6-1.6L13.4,43c1.7,2.2,1.6,5.4-0.4,7.4
			c-2,2-5.1,2.1-7.3,0.5c0.2,0.9,0.7,1.8,1.4,2.5c2.2,2.2,5.7,2.2,7.9,0c2-2,2.1-5.2,0.4-7.4l4.8-4.8l1.6,1.6c0.3,0.3,0.5,0,0.8-0.2
			l5.1-5.1c0,0,0.1,0.1,0.1,0.1c3.1-3,11.3-1.3,18.3-5c0.2-0.1,0.3-0.2,0.5-0.3c0,0,0.1,0,0.1,0c1.4-0.8,2.7-1.7,3.8-2.9
			C56.7,23.1,57.1,13.1,51.5,6.3z"/>
	</g>
</g>
</svg>
