<?xml version="1.0" encoding="utf-8"?>
<!-- Generator: Adobe Illustrator 18.1.0, SVG Export Plug-In . SVG Version: 6.00 Build 0)  -->
<!DOCTYPE svg PUBLIC "-//W3C//DTD SVG 1.1//EN" "http://www.w3.org/Graphics/SVG/1.1/DTD/svg11.dtd">
<svg version="1.1" id="Layer_1" xmlns="http://www.w3.org/2000/svg" xmlns:xlink="http://www.w3.org/1999/xlink" x="0px" y="0px"
	 viewBox="0 0 520 389" enable-background="new 0 0 520 389" xml:space="preserve">
<g>
	<rect x="165.9" y="81.6" fill="#ECC7A5" width="226" height="302"/>
	<path fill="#9E5C26" d="M388.9,84.6v296h-220v-296L388.9,84.6 M394.9,78.6h-232v308h232V78.6L394.9,78.6z"/>
</g>
<rect x="162.9" y="386.6" fill="#382216" width="232" height="2"/>
<g>
	
		<linearGradient id="SVGID_1_" gradientUnits="userSpaceOnUse" x1="-14848.9521" y1="-5654.2954" x2="-14848.9521" y2="-5762.7266" gradientTransform="matrix(-0.8009 0.256 0.3045 0.9525 -10089.7432 9599.0723)">
		<stop  offset="0" style="stop-color:#FFFFFF"/>
		<stop  offset="1" style="stop-color:#FFFFFF;stop-opacity:0"/>
	</linearGradient>
	<path fill="url(#SVGID_1_)" d="M11.3,305.7c-16.2-50.8-14.9-96.6,3.1-102.3c17.9-5.7,45.6,30.8,61.8,81.6s14.9,96.6-3.1,102.3
		C55.2,393,27.6,356.5,11.3,305.7z"/>
	
		<linearGradient id="SVGID_2_" gradientUnits="userSpaceOnUse" x1="-10857.2646" y1="-10229.9512" x2="-10857.2646" y2="-10338.3828" gradientTransform="matrix(-0.7473 -0.3853 -0.4582 0.8888 -12753.3945 5313.7729)">
		<stop  offset="0" style="stop-color:#FFFFFF"/>
		<stop  offset="1" style="stop-color:#FFFFFF;stop-opacity:0"/>
	</linearGradient>
	<path fill="url(#SVGID_2_)" d="M73.7,279.7c24.4-47.4,57.8-78.8,74.5-70.2s10.5,54-13.9,101.4s-57.8,78.8-74.5,70.2
		S49.3,327.1,73.7,279.7z"/>
</g>
<g>
	<rect x="35.7" y="380.5" fill="#9E5C26" width="107.4" height="6.9"/>
	<rect x="35.6" y="386.6" fill="#382216" width="107.5" height="2"/>
	<polygon fill="#7F4921" points="53.1,387.4 35.7,387.4 35.7,380.5 73.1,380.5 	"/>
</g>
<g>
	<circle fill="#D3D3D3" cx="89.3" cy="274.1" r="22.9"/>
	<path opacity="8.000000e-02" fill="#00101F" enable-background="new    " d="M89.3,251.2c12.7,0,22.9,10.3,22.9,22.9
		S102,297,89.3,297"/>
	<g>
		<path d="M109.1,352.4H89.3H69.6c0,0-6.4,19.3-5.4,22.7c0.9,3.4,25.2,3.9,25.2,3.9s24.3-0.5,25.2-3.9S109.1,352.4,109.1,352.4z"/>
		<ellipse fill="#1E1E1E" cx="89.3" cy="352.4" rx="19.8" ry="2.5"/>
	</g>
	<path fill="#C6C6C6" d="M99,333.1l3.5-41.2c0-16-13.2-13.8-13.2-13.8s-13.2-2.2-13.2,13.8l3.5,41.2l-2.8,11.8v6.3
		c0,0,4.8,1.2,12.4,1.2c7.4,0,12.6-1.2,12.6-1.2v-6.3L99,333.1z"/>
	<path fill="#BABABA" d="M76.9,344.9c0,0,9.3,0.3,12.4,0.3s12.6-0.3,12.6-0.3v6.3c0,0-4.9,1.2-12.2,1.2c-8.3,0-12.8-1.2-12.8-1.2
		V344.9z"/>
	<path opacity="6.000000e-02" fill="#00101F" enable-background="new    " d="M89.3,352.4c7.4,0,12.6-1.2,12.6-1.2v-6.3L99,333.1
		l3.5-41.2c0-16-13.2-13.8-13.2-13.8"/>
</g>
<linearGradient id="SVGID_3_" gradientUnits="userSpaceOnUse" x1="892.8067" y1="-1152.3209" x2="892.8067" y2="-1357.073" gradientTransform="matrix(0.9683 -0.2499 -0.2499 -0.9683 -1082.6326 -930.1027)">
	<stop  offset="0" style="stop-color:#FFFFFF"/>
	<stop  offset="1" style="stop-color:#FFFFFF;stop-opacity:0"/>
</linearGradient>
<path fill="url(#SVGID_3_)" d="M201.6,167.1c25.1,97.5,12.4,185-28.5,195.6S78.6,302.8,53.5,205.3S41.1,20.3,82,9.7
	S176.5,69.6,201.6,167.1z"/>
<linearGradient id="SVGID_4_" gradientUnits="userSpaceOnUse" x1="-1001.079" y1="2091.3345" x2="-1001.079" y2="1886.5824" gradientTransform="matrix(0.959 0.2834 0.2834 -0.959 862.6792 2258.9722)">
	<stop  offset="0" style="stop-color:#FFFFFF"/>
	<stop  offset="1" style="stop-color:#FFFFFF;stop-opacity:0"/>
</linearGradient>
<path fill="url(#SVGID_4_)" d="M503.2,212.9c-28.5,96.5-84.5,165.1-125,153.1s-50.2-99.9-21.7-196.4S441,4.5,481.5,16.4
	S531.8,116.4,503.2,212.9z"/>
<linearGradient id="SVGID_5_" gradientUnits="userSpaceOnUse" x1="-1236.4919" y1="2261.3613" x2="-1236.4919" y2="2056.6091" gradientTransform="matrix(0.9495 0.3139 0.3139 -0.9495 907.8294 2490.6306)">
	<stop  offset="0" style="stop-color:#FFFFFF"/>
	<stop  offset="1" style="stop-color:#FFFFFF;stop-opacity:0"/>
</linearGradient>
<path fill="url(#SVGID_5_)" d="M443.7,198.7c-31.6,95.6-89.7,162.3-129.8,149s-47-101.5-15.4-197s89.7-162.3,129.8-149
	S475.3,103.2,443.7,198.7z"/>
<linearGradient id="SVGID_6_" gradientUnits="userSpaceOnUse" x1="1299.9586" y1="-2828.0581" x2="1299.9586" y2="-3032.8103" gradientTransform="matrix(0.8933 -0.4494 -0.4494 -0.8933 -2332.4312 -1981.8296)">
	<stop  offset="0" style="stop-color:#FFFFFF"/>
	<stop  offset="1" style="stop-color:#FFFFFF;stop-opacity:0"/>
</linearGradient>
<path fill="url(#SVGID_6_)" d="M271.9,132.3c45.2,89.9,51.3,178.2,13.6,197.2s-105-38.5-150.2-128.4S83.9,22.9,121.6,3.9
	S226.7,42.4,271.9,132.3z"/>
<g>
	<path fill="#E2D96D" d="M230.2,223v98.3h97V223l8.7,15.3l31.3-17.7l-26.3-58.3c0,0-23-12-43.7-18l-16.7,23.2l-20-23.2
		c0,0-27.7,8.3-43.7,19l-25,57l31,19.3L230.2,223z"/>
	<polyline fill="#F4EA92" points="222.8,239.2 225.8,232.4 194.4,214.1 191.8,219.9 222.8,239.2 	"/>
	<polyline fill="#F4EA92" points="332.7,232.6 335.8,238.1 367.2,220.5 364.8,215.2 332.7,232.6 	"/>
	<rect x="230.2" y="314.8" fill="#F4EA92" width="97" height="6.5"/>
	<polygon fill="#F4EA92" points="281.7,165.9 293.8,172.2 306,147.2 297.2,144.3 	"/>
	<polygon fill="#F4EA92" points="278.8,165.5 264,172.2 251.8,147.2 260.6,144.3 	"/>
	<polygon fill="#A89E42" points="281.7,165.9 293.8,172.2 306,147.2 294.9,178 	"/>
	<polygon fill="#A89E42" points="278.8,165.5 264,172.2 251.8,147.2 263.9,178 	"/>
	<polygon fill="#F4EA92" points="278.8,165.5 278.8,188.7 282.5,188.7 282.5,164.6 280.5,167.5 	"/>
	<g>
		<circle fill="#262262" cx="309.4" cy="201.4" r="8.6"/>
		<circle fill="#E2D96D" cx="309.4" cy="201.4" r="7.4"/>
	</g>
	<rect x="247.5" y="218.7" fill="#FFFFFF" width="63.3" height="23.7"/>
	<rect x="247.5" y="217" fill="#2B3990" width="63.3" height="3"/>
	<rect x="247.5" y="239.2" fill="#2B3990" width="63.3" height="3"/>
	<rect x="250.2" y="223" fill="#BE1E2D" width="57.2" height="11.8"/>
	<path opacity="0.1" fill="#231F20" d="M280.5,167.4l-20-23.2c0,0-27.7,8.3-43.7,19l-25,57l31,19.3l7.3-16.7v98.3H279"/>
</g>
<g opacity="0.24">
	
		<linearGradient id="SVGID_7_" gradientUnits="userSpaceOnUse" x1="162.9" y1="161.4" x2="394.9" y2="161.4" gradientTransform="matrix(1 0 0 -1 0 389)">
		<stop  offset="0" style="stop-color:#FFFFFF"/>
		<stop  offset="1" style="stop-color:#FFFFFF;stop-opacity:0"/>
	</linearGradient>
	<polygon fill="url(#SVGID_7_)" points="162.9,376.6 162.9,78.6 394.9,78.6 	"/>
</g>
</svg>
