<?xml version="1.0" encoding="utf-8"?>
<!-- Generator: Adobe Illustrator 18.1.0, SVG Export Plug-In . SVG Version: 6.00 Build 0)  -->
<!DOCTYPE svg PUBLIC "-//W3C//DTD SVG 1.1//EN" "http://www.w3.org/Graphics/SVG/1.1/DTD/svg11.dtd">
<svg version="1.1" id="Layer_1" xmlns="http://www.w3.org/2000/svg" xmlns:xlink="http://www.w3.org/1999/xlink" x="0px" y="0px"
	 viewBox="0 0 3024 465" enable-background="new 0 0 3024 465" xml:space="preserve">
<g>
	<path fill="#726658" d="M35.1,6.1c-4.7,0.2-9.4,0.5-13.9,2s-8.6,4.4-10.6,8.7C9.1,19.9,9,23.5,8.9,27C8.4,39.7,8.1,53,13.8,64.4
		c1.5,3,3.4,5.9,6.2,7.9c3.8,2.7,8.6,3.4,13.2,3.9c7.2,0.7,14.3,1,21.5,0.8c4.4-0.1,8.9-0.3,13.1-2c4.7-1.9,8.6-5.4,12.3-8.8
		c1.3-1.2,2.7-2.5,3.3-4.1c0.5-1.1,0.6-2.4,0.7-3.6c0.7-8.8,1.5-17.7-0.3-26.3s-6.5-17.1-14.2-21.3C62.5,6.9,53.9,7,45.9,6
		C43,5.6,40.1,5,37.3,5.7c-2.8,0.6-5.5,2.9-5.6,5.7"/>
	<path fill="#726658" d="M12.9,61.5c0,0-0.4,7.2-2.1,9.6c0,0-0.1,5,10.3,6.3c10.4,1.3,13.7,0.6,13.7-1.8c0,0,0.4-1.9,2.2-3.9"/>
	
		<ellipse transform="matrix(0.9868 0.1617 -0.1617 0.9868 12.2115 -2.6061)" fill="#231F20" cx="22.1" cy="73.7" rx="9.5" ry="2.3"/>
	<ellipse transform="matrix(0.9646 -0.2638 0.2638 0.9646 -4.51 8.977)" fill="#63584C" cx="31.2" cy="21.3" rx="12.4" ry="5.3"/>
	<ellipse transform="matrix(0.9646 -0.2638 0.2638 0.9646 -4.51 8.977)" fill="#231F20" cx="31.2" cy="21.3" rx="9.1" ry="2.5"/>
	<path fill="#726658" d="M35.4,8.2c0,0,3-2,1.3-4.6S41-1.3,49.5-0.6s9.9,2.5,9.4,5.1s-1,5.1,1.6,6.9"/>
	<ellipse fill="#231F20" cx="48" cy="2.8" rx="8.8" ry="2"/>
	<path fill="#726658" d="M83.7,54.4c0,0-0.2,3.6,2.9,3.8c3.2,0.2,1.3,6.4-4.5,12.7c-5.7,6.3-7.9,6.3-9.8,4.4c-1.8-2-3.5-3.9-6.5-2.9
		"/>
	
		<ellipse transform="matrix(-0.6054 0.7959 -0.7959 -0.6054 183.042 44.6703)" fill="#231F20" cx="80.4" cy="67.7" rx="8.8" ry="2"/>
	<path fill="#726658" d="M9.8,42.4c0,0-2.1-2.9-4.7-1.1s-5-4.1-4.5-12.7s2.2-9.9,4.8-9.5s5.2,0.8,6.8-1.8"/>
	
		<ellipse transform="matrix(-3.057413e-02 -0.9995 0.9995 -3.057413e-02 -25.9272 34.9405)" fill="#231F20" cx="4" cy="30" rx="8.8" ry="2"/>
	<path fill="#726658" d="M66.7,10c0,0,3.5,0.7,4.2-2.4c0.6-3.1,6.5-0.4,12,6.1s5.2,8.7,3,10.3c-2.2,1.5-4.3,2.9-3.7,6"/>
	<ellipse transform="matrix(0.708 0.7062 -0.7062 0.708 33.816 -51.7142)" fill="#231F20" cx="79.4" cy="15" rx="8.8" ry="2"/>
	<ellipse fill="#63584C" cx="48.1" cy="60.3" rx="10.7" ry="5"/>
	<ellipse fill="#231F20" cx="48.1" cy="60.3" rx="7.9" ry="2.3"/>
	<ellipse transform="matrix(0.4669 0.8843 -0.8843 0.4669 56.828 11.3943)" fill="#63584C" cx="19" cy="52.8" rx="10.7" ry="5"/>
	<ellipse transform="matrix(0.4669 0.8843 -0.8843 0.4669 56.828 11.3943)" fill="#231F20" cx="19" cy="52.8" rx="7.9" ry="2.3"/>
	
		<ellipse transform="matrix(0.1237 0.9923 -0.9923 0.1237 103.5322 -37.6365)" fill="#63584C" cx="73.1" cy="39.8" rx="10.7" ry="5"/>
	
		<ellipse transform="matrix(0.1237 0.9923 -0.9923 0.1237 103.5322 -37.6365)" fill="#231F20" cx="73.1" cy="39.8" rx="7.9" ry="2.3"/>
	<path fill="#726658" d="M11,14.8c0,0,1.5-2.6-0.7-4s1.5-5.3,8.2-7.8s8.4-1.7,9,0.5c0.6,2.2,1.1,4.2,3.7,4.6"/>
	<ellipse transform="matrix(0.9013 -0.4331 0.4331 0.9013 -0.8231 8.6312)" fill="#231F20" cx="18.5" cy="6.1" rx="7.4" ry="1.7"/>
	<path fill="#726658" d="M60.7,75.5c0,0-1.7,1.5-0.4,2.9c1.3,1.4-2.2,3.3-7.4,3.6s-6.2-0.7-6.1-2.3s0.2-3.2-1.6-4"/>
	
		<ellipse transform="matrix(-0.9908 0.1351 -0.1351 -0.9908 117.457 151.6928)" fill="#231F20" cx="53.6" cy="79.8" rx="5.4" ry="1.2"/>
	<ellipse fill="#63584C" cx="42" cy="42.4" rx="7.3" ry="5.3"/>
	<ellipse fill="#231F20" cx="42" cy="42.4" rx="5.4" ry="2.5"/>
	<path fill="#63584C" d="M81.7,26.1c0,0-11.9-4.5-12.3-12C69.4,14,67.9,23.6,81.7,26.1z"/>
	<path fill="#63584C" d="M39.2,7.5c0,0,3.8,4.9,16.8,1.8C56,9.3,45.6,15.7,39.2,7.5z"/>
	<path fill="#63584C" d="M28.1,8.1c0,0-1.9,5.8-14,5.9C14,14,24.6,12,28.1,8.1z"/>
	<path fill="#63584C" d="M82.2,56.9c0,0-12,3.1-11.6,15.3C70.6,72.1,72.9,62.5,82.2,56.9z"/>
	<path fill="#63584C" d="M58.9,75.5c0,0-6.3-3.8-11.6,0C47.3,75.5,52.1,73.7,58.9,75.5z"/>
	<path fill="#63584C" d="M34.7,73c0,0-4.4-9.5-17.4-7.6C17.3,65.4,28.1,65.8,34.7,73z"/>
	<path fill="#63584C" d="M74.9,28.2c0,0-10-6-9,8.9C65.9,37.1,66.3,25.3,74.9,28.2z"/>
	<path fill="#63584C" d="M19.1,27.4c0,0,13,6.3,26.2-6.8C45.3,20.5,32.8,35.6,19.1,27.4z"/>
	<path fill="#63584C" d="M10.8,38.8c0,0,4.8-10.9,0-17.4C10.8,21.4,17.5,28.3,10.8,38.8z"/>
	<path fill="#63584C" d="M37,37.1c0,0-14.3,7.8,4,12.4C41,49.5,25.3,44.7,37,37.1z"/>
	<path fill="#63584C" d="M56,65.4c0,0,18.1-8.7-5.4-11C50.6,54.4,70.6,57.4,56,65.4z"/>
	<path fill="#63584C" d="M14,41.8c0,0,14.4-1.8,15.2,15C29.2,56.9,26.3,41.5,14,41.8z"/>
	<path fill="#63584C" d="M66.7,11.7c0,0-2.4,5.7,2.6,12.1c0,0-5.3-6.3-5-12.1c0,0-6.8-1.3-7.8-1.1C56.6,10.5,61.2,6.4,66.7,11.7z"/>
	<path fill="#877666" d="M48.6,48.6c0,0,14.3-10.7-3.4-12.6C45.3,36,59.9,37.6,48.6,48.6z"/>
	<path fill="#877666" d="M67.2,45.4c0,0,2,7.8,7.7,6.9s5.5-12.9,5.5-12.9S79.2,69.7,67.2,45.4z"/>
	<path fill="#877666" d="M43.6,15.7c0,0-15.5-6.1-25.1,6.3C18.5,21.9,27.9,7.2,43.6,15.7z"/>
	<path fill="#877666" d="M44.1,75.5c0,0,7.1-6.8,18.6-0.7C62.6,74.8,52.1,65.3,44.1,75.5z"/>
	<path fill="#877666" d="M84.5,59.9c0,0-12.4,7.3-10.7,14.8C73.8,74.7,69.7,66,84.5,59.9z"/>
	<path fill="#877666" d="M74.9,59.2c0,0,4.9-4.1,8.1-4.3c0,0,3.4-14.1-1.4-26.1c0,0,3.3,14.6,0,24.5L74.9,59.2z"/>
	<path fill="#877666" d="M82.2,25.2c0,0,1-1.8,2.4-2c0,0-9.2-3.2-11.9-12.1c0,0,0.9,7.6,9.6,12C82.2,23.1,81.6,24.5,82.2,25.2z"/>
	<path fill="#877666" d="M5.6,21.3c0,0,6.5,12.7-0.5,19C5.1,40.3,17.2,33.3,5.6,21.3z"/>
</g>
<g>
	<path fill="#726658" d="M975.9,241.1c-4.7,0.2-9.4,0.5-13.9,2c-4.4,1.5-8.6,4.4-10.6,8.7c-1.5,3.1-1.6,6.7-1.7,10.2
		c-0.4,12.7-0.8,26.1,4.9,37.5c1.5,3,3.4,5.9,6.2,7.9c3.8,2.7,8.6,3.4,13.2,3.9c7.2,0.7,14.3,1,21.5,0.8c4.4-0.1,8.9-0.3,13.1-2
		c4.7-1.9,8.6-5.4,12.3-8.8c1.3-1.2,2.7-2.5,3.3-4.1c0.5-1.1,0.6-2.4,0.7-3.6c0.7-8.8,1.5-17.7-0.3-26.3
		c-1.8-8.6-6.5-17.1-14.2-21.3c-7.1-3.9-15.7-3.8-23.7-4.9c-2.8-0.4-5.8-0.9-8.5-0.3s-5.5,2.9-5.6,5.7"/>
	<path fill="#726658" d="M953.7,296.5c0,0-0.4,7.2-2.1,9.6c0,0-0.1,5,10.3,6.3c10.4,1.3,13.7,0.6,13.7-1.8c0,0,0.4-1.9,2.2-3.9"/>
	
		<ellipse transform="matrix(0.9868 0.1617 -0.1617 0.9868 62.5869 -151.6601)" fill="#231F20" cx="962.9" cy="308.6" rx="9.5" ry="2.3"/>
	
		<ellipse transform="matrix(0.9646 -0.2638 0.2638 0.9646 -33.1567 265.5029)" fill="#63584C" cx="972" cy="256.2" rx="12.4" ry="5.3"/>
	
		<ellipse transform="matrix(0.9646 -0.2638 0.2638 0.9646 -33.1567 265.5029)" fill="#231F20" cx="972" cy="256.2" rx="9.1" ry="2.5"/>
	<path fill="#726658" d="M976.3,243.1c0,0,3-2,1.3-4.6c-1.8-2.6,4.3-4.9,12.8-4.1s9.9,2.5,9.4,5.1c-0.5,2.7-1,5.1,1.6,6.9"/>
	<ellipse fill="#231F20" cx="988.8" cy="237.7" rx="8.8" ry="2"/>
	<path fill="#726658" d="M1024.5,289.4c0,0-0.2,3.6,2.9,3.8c3.2,0.2,1.3,6.4-4.5,12.7s-7.9,6.3-9.8,4.4c-1.8-2-3.5-3.9-6.5-2.9"/>
	
		<ellipse transform="matrix(-0.6054 0.7959 -0.7959 -0.6054 1880.3907 -327.0219)" fill="#231F20" cx="1021.3" cy="302.6" rx="8.8" ry="2"/>
	<path fill="#726658" d="M950.6,277.3c0,0-2.1-2.9-4.7-1.1c-2.6,1.8-5-4.1-4.5-12.7c0.5-8.5,2.2-9.9,4.8-9.5s5.2,0.8,6.8-1.8"/>
	
		<ellipse transform="matrix(-3.057413e-02 -0.9995 0.9995 -3.057413e-02 708.8384 1217.4253)" fill="#231F20" cx="944.8" cy="265" rx="8.8" ry="2"/>
	<path fill="#726658" d="M1007.5,245c0,0,3.5,0.7,4.2-2.4s6.5-0.4,12,6.1c5.5,6.5,5.2,8.7,3,10.3c-2.2,1.5-4.3,2.9-3.7,6"/>
	
		<ellipse transform="matrix(0.708 0.7062 -0.7062 0.708 474.4434 -647.5334)" fill="#231F20" cx="1020.3" cy="250" rx="8.8" ry="2"/>
	<ellipse fill="#63584C" cx="988.9" cy="295.2" rx="10.7" ry="5"/>
	<ellipse fill="#231F20" cx="988.9" cy="295.2" rx="7.9" ry="2.3"/>
	
		<ellipse transform="matrix(0.4669 0.8843 -0.8843 0.4669 766.1666 -695.351)" fill="#63584C" cx="959.8" cy="287.8" rx="10.7" ry="5"/>
	
		<ellipse transform="matrix(0.4669 0.8843 -0.8843 0.4669 766.1666 -695.351)" fill="#231F20" cx="959.8" cy="287.8" rx="7.9" ry="2.3"/>
	
		<ellipse transform="matrix(0.1237 0.9923 -0.9923 0.1237 1161.0496 -765.3671)" fill="#63584C" cx="1013.9" cy="274.7" rx="10.7" ry="5"/>
	
		<ellipse transform="matrix(0.1237 0.9923 -0.9923 0.1237 1161.0496 -765.3671)" fill="#231F20" cx="1013.9" cy="274.7" rx="7.9" ry="2.3"/>
	<path fill="#726658" d="M951.9,249.7c0,0,1.5-2.6-0.7-4c-2.3-1.4,1.5-5.3,8.2-7.8s8.4-1.7,9,0.5c0.6,2.2,1.1,4.2,3.7,4.6"/>
	
		<ellipse transform="matrix(0.9013 -0.4331 0.4331 0.9013 -9.7549 439.2705)" fill="#231F20" cx="959.4" cy="241" rx="7.4" ry="1.7"/>
	<path fill="#726658" d="M1001.5,310.4c0,0-1.7,1.5-0.4,2.9c1.3,1.4-2.2,3.3-7.4,3.6c-5.2,0.2-6.2-0.7-6.1-2.3s0.2-3.2-1.6-4"/>
	
		<ellipse transform="matrix(-0.9908 0.1351 -0.1351 -0.9908 2022.2042 492.2771)" fill="#231F20" cx="994.4" cy="314.8" rx="5.4" ry="1.2"/>
	<ellipse fill="#63584C" cx="982.8" cy="277.3" rx="7.3" ry="5.3"/>
	<ellipse fill="#231F20" cx="982.8" cy="277.3" rx="5.4" ry="2.5"/>
	<path fill="#63584C" d="M1022.5,261c0,0-11.9-4.5-12.3-12C1010.2,249,1008.7,258.5,1022.5,261z"/>
	<path fill="#63584C" d="M980,242.4c0,0,3.8,4.9,16.8,1.8C996.8,244.2,986.4,250.6,980,242.4z"/>
	<path fill="#63584C" d="M968.9,243.1c0,0-1.9,5.8-14,5.9C954.8,249,965.4,247,968.9,243.1z"/>
	<path fill="#63584C" d="M1023,291.8c0,0-12,3.1-11.6,15.3C1011.4,307.1,1013.7,297.4,1023,291.8z"/>
	<path fill="#63584C" d="M999.7,310.4c0,0-6.3-3.8-11.6,0C988.1,310.4,993,308.6,999.7,310.4z"/>
	<path fill="#63584C" d="M975.5,307.9c0,0-4.4-9.5-17.4-7.6C958.1,300.4,968.9,300.7,975.5,307.9z"/>
	<path fill="#63584C" d="M1015.7,263.1c0,0-10-6-9,8.9C1006.8,272,1007.1,260.2,1015.7,263.1z"/>
	<path fill="#63584C" d="M959.9,262.3c0,0,13,6.3,26.2-6.8C986.1,255.5,973.6,270.6,959.9,262.3z"/>
	<path fill="#63584C" d="M951.6,273.7c0,0,4.8-10.9,0-17.4C951.6,256.3,958.4,263.2,951.6,273.7z"/>
	<path fill="#63584C" d="M977.8,272c0,0-14.3,7.8,4,12.4C981.8,284.4,966.1,279.6,977.8,272z"/>
	<path fill="#63584C" d="M996.8,300.4c0,0,18.1-8.7-5.4-11C991.4,289.4,1011.4,292.3,996.8,300.4z"/>
	<path fill="#63584C" d="M954.8,276.8c0,0,14.4-1.8,15.2,15C970,291.8,967.1,276.4,954.8,276.8z"/>
	<path fill="#63584C" d="M1007.5,246.6c0,0-2.4,5.7,2.6,12.1c0,0-5.3-6.3-5-12.1c0,0-6.8-1.3-7.8-1.1
		C997.4,245.5,1002,241.3,1007.5,246.6z"/>
	<path fill="#877666" d="M989.5,283.6c0,0,14.3-10.7-3.4-12.6C986.1,271,1000.7,272.5,989.5,283.6z"/>
	<path fill="#877666" d="M1008,280.3c0,0,2,7.8,7.7,6.9s5.5-12.9,5.5-12.9S1020,304.6,1008,280.3z"/>
	<path fill="#877666" d="M984.4,250.6c0,0-15.5-6.1-25.1,6.3C959.4,256.8,968.7,242.2,984.4,250.6z"/>
	<path fill="#877666" d="M984.9,310.4c0,0,7.1-6.8,18.6-0.7C1003.4,309.7,993,300.2,984.9,310.4z"/>
	<path fill="#877666" d="M1025.4,294.8c0,0-12.4,7.3-10.7,14.8C1014.6,309.6,1010.5,300.9,1025.4,294.8z"/>
	<path fill="#877666" d="M1015.7,294.1c0,0,4.9-4.1,8.1-4.3c0,0,3.4-14.1-1.4-26.1c0,0,3.3,14.6,0,24.5L1015.7,294.1z"/>
	<path fill="#877666" d="M1023,260.1c0,0,1-1.8,2.4-2c0,0-9.2-3.2-11.9-12.1c0,0,0.9,7.6,9.6,12C1023,258,1022.4,259.5,1023,260.1z"
		/>
	<path fill="#877666" d="M946.5,256.2c0,0,6.5,12.7-0.5,19C946,275.2,958,268.3,946.5,256.2z"/>
</g>
<g>
	<path fill="#726658" d="M1041.2,92.2c-2.5,0.1-5,0.3-7.3,1.1s-4.6,2.3-5.6,4.6c-0.8,1.7-0.8,3.5-0.9,5.4
		c-0.2,6.7-0.4,13.7,2.6,19.8c0.8,1.6,1.8,3.1,3.3,4.2c2,1.4,4.5,1.8,7,2c3.8,0.4,7.6,0.5,11.4,0.4c2.3,0,4.7-0.2,6.9-1
		c2.5-1,4.5-2.8,6.5-4.6c0.7-0.6,1.4-1.3,1.8-2.2c0.2-0.6,0.3-1.3,0.4-1.9c0.4-4.6,0.8-9.3-0.2-13.9c-0.9-4.5-3.4-9-7.5-11.2
		c-3.8-2.1-8.3-2-12.5-2.6c-1.5-0.2-3-0.5-4.5-0.1c-1.5,0.3-2.9,1.5-2.9,3"/>
	<path fill="#726658" d="M1029.5,121.4c0,0-0.2,3.8-1.1,5.1c0,0-0.1,2.6,5.4,3.3c5.5,0.7,7.2,0.3,7.2-1c0,0,0.2-1,1.1-2.1"/>
	
		<ellipse transform="matrix(0.9868 0.1617 -0.1617 0.9868 34.2796 -165.5891)" fill="#231F20" cx="1034.3" cy="127.8" rx="5" ry="1.2"/>
	
		<ellipse transform="matrix(0.9646 -0.2638 0.2638 0.9646 10.3934 277.6841)" fill="#63584C" cx="1039.1" cy="100.1" rx="6.5" ry="2.8"/>
	
		<ellipse transform="matrix(0.9646 -0.2638 0.2638 0.9646 10.3934 277.6841)" fill="#231F20" cx="1039.1" cy="100.1" rx="4.8" ry="1.3"/>
	<path fill="#726658" d="M1041.4,93.3c0,0,1.6-1.1,0.7-2.4c-0.9-1.4,2.3-2.6,6.7-2.2c4.5,0.4,5.2,1.3,4.9,2.7
		c-0.3,1.4-0.5,2.7,0.9,3.6"/>
	<ellipse fill="#231F20" cx="1048" cy="90.4" rx="4.6" ry="1.1"/>
	<path fill="#726658" d="M1066.8,117.6c0,0-0.1,1.9,1.5,2c1.7,0.1,0.7,3.4-2.3,6.7s-4.2,3.3-5.1,2.3c-1-1.1-1.8-2.1-3.4-1.5"/>
	
		<ellipse transform="matrix(-0.6054 0.7959 -0.7959 -0.6054 1809.0626 -647.6911)" fill="#231F20" cx="1065.1" cy="124.6" rx="4.6" ry="1.1"/>
	<path fill="#726658" d="M1027.9,111.3c0,0-1.1-1.6-2.5-0.6c-1.4,1-2.6-2.2-2.4-6.7c0.3-4.5,1.1-5.2,2.6-5s2.7,0.4,3.6-1"/>
	
		<ellipse transform="matrix(-3.057413e-02 -0.9995 0.9995 -3.057413e-02 951.4012 1132.2703)" fill="#231F20" cx="1024.8" cy="104.8" rx="4.6" ry="1.1"/>
	<path fill="#726658" d="M1057.9,94.2c0,0,1.9,0.4,2.2-1.3s3.4-0.2,6.3,3.2c2.9,3.4,2.8,4.6,1.6,5.4c-1.2,0.8-2.3,1.5-2,3.2"/>
	
		<ellipse transform="matrix(0.708 0.7062 -0.7062 0.708 379.2522 -723.5297)" fill="#231F20" cx="1064.6" cy="96.9" rx="4.6" ry="1.1"/>
	<ellipse fill="#63584C" cx="1048" cy="120.7" rx="5.6" ry="2.6"/>
	<ellipse fill="#231F20" cx="1048" cy="120.7" rx="4.2" ry="1.2"/>
	
		<ellipse transform="matrix(0.4669 0.8843 -0.8843 0.4669 653.8308 -850.976)" fill="#63584C" cx="1032.7" cy="116.8" rx="5.6" ry="2.6"/>
	
		<ellipse transform="matrix(0.4669 0.8843 -0.8843 0.4669 653.8308 -850.976)" fill="#231F20" cx="1032.7" cy="116.8" rx="4.2" ry="1.2"/>
	
		<ellipse transform="matrix(0.1237 0.9923 -0.9923 0.1237 1038.9551 -956.744)" fill="#63584C" cx="1061.2" cy="109.9" rx="5.6" ry="2.6"/>
	
		<ellipse transform="matrix(0.1237 0.9923 -0.9923 0.1237 1038.9551 -956.744)" fill="#231F20" cx="1061.2" cy="109.9" rx="4.2" ry="1.2"/>
	<path fill="#726658" d="M1028.5,96.7c0,0,0.8-1.4-0.4-2.1c-1.2-0.7,0.8-2.8,4.3-4.1s4.4-0.9,4.7,0.3c0.3,1.2,0.6,2.2,2,2.4"/>
	
		<ellipse transform="matrix(0.9013 -0.4331 0.4331 0.9013 61.9428 456.243)" fill="#231F20" cx="1032.5" cy="92.2" rx="3.9" ry="0.9"/>
	<path fill="#726658" d="M1054.7,128.7c0,0-0.9,0.8-0.2,1.5s-1.2,1.7-3.9,1.9c-2.7,0.1-3.3-0.4-3.2-1.2c0-0.9,0.1-1.7-0.8-2.1"/>
	
		<ellipse transform="matrix(-0.9908 0.1351 -0.1351 -0.9908 2109.9258 118.8277)" fill="#231F20" cx="1050.9" cy="131" rx="2.8" ry="0.6"/>
	<ellipse fill="#63584C" cx="1044.8" cy="111.3" rx="3.8" ry="2.8"/>
	<ellipse fill="#231F20" cx="1044.8" cy="111.3" rx="2.8" ry="1.3"/>
	<path fill="#63584C" d="M1065.7,102.7c0,0-6.3-2.4-6.5-6.3C1059.3,96.3,1058.5,101.3,1065.7,102.7z"/>
	<path fill="#63584C" d="M1043.4,92.9c0,0,2,2.6,8.8,0.9C1052.2,93.8,1046.7,97.2,1043.4,92.9z"/>
	<path fill="#63584C" d="M1037.5,93.2c0,0-1,3-7.4,3.1C1030.1,96.3,1035.6,95.3,1037.5,93.2z"/>
	<path fill="#63584C" d="M1066,118.9c0,0-6.3,1.7-6.1,8.1C1059.9,127,1061.1,121.9,1066,118.9z"/>
	<path fill="#63584C" d="M1053.7,128.7c0,0-3.3-2-6.1,0C1047.6,128.7,1050.2,127.8,1053.7,128.7z"/>
	<path fill="#63584C" d="M1041,127.4c0,0-2.3-5-9.2-4C1031.8,123.4,1037.5,123.6,1041,127.4z"/>
	<path fill="#63584C" d="M1062.2,103.8c0,0-5.3-3.2-4.7,4.7C1057.4,108.5,1057.6,102.3,1062.2,103.8z"/>
	<path fill="#63584C" d="M1032.8,103.4c0,0,6.8,3.3,13.8-3.6C1046.6,99.8,1040,107.7,1032.8,103.4z"/>
	<path fill="#63584C" d="M1028.4,109.4c0,0,2.5-5.8,0-9.2C1028.4,100.2,1031.9,103.8,1028.4,109.4z"/>
	<path fill="#63584C" d="M1042.2,108.5c0,0-7.5,4.1,2.1,6.5C1044.3,115,1036,112.5,1042.2,108.5z"/>
	<path fill="#63584C" d="M1052.2,123.4c0,0,9.5-4.6-2.8-5.8C1049.4,117.6,1059.9,119.2,1052.2,123.4z"/>
	<path fill="#63584C" d="M1030.1,111c0,0,7.6-0.9,8,7.9C1038.1,118.9,1036.6,110.8,1030.1,111z"/>
	<path fill="#63584C" d="M1057.9,95.1c0,0-1.3,3,1.4,6.4c0,0-2.8-3.3-2.6-6.4c0,0-3.6-0.7-4.1-0.6
		C1052.5,94.5,1054.9,92.3,1057.9,95.1z"/>
	<path fill="#877666" d="M1048.3,114.6c0,0,7.6-5.6-1.8-6.6C1046.6,107.9,1054.2,108.7,1048.3,114.6z"/>
	<path fill="#877666" d="M1058.1,112.9c0,0,1.1,4.1,4.1,3.7c3-0.4,2.9-6.8,2.9-6.8S1064.4,125.7,1058.1,112.9z"/>
	<path fill="#877666" d="M1045.7,97.2c0,0-8.2-3.2-13.2,3.3C1032.5,100.5,1037.4,92.7,1045.7,97.2z"/>
	<path fill="#877666" d="M1045.9,128.7c0,0,3.8-3.6,9.8-0.4C1055.7,128.4,1050.2,123.3,1045.9,128.7z"/>
	<path fill="#877666" d="M1067.3,120.5c0,0-6.5,3.8-5.7,7.8C1061.6,128.3,1059.4,123.7,1067.3,120.5z"/>
	<path fill="#877666" d="M1062.2,120.1c0,0,2.6-2.2,4.3-2.3c0,0,1.8-7.4-0.7-13.7c0,0,1.7,7.7,0,12.9L1062.2,120.1z"/>
	<path fill="#877666" d="M1066,102.2c0,0,0.6-0.9,1.3-1.1c0,0-4.8-1.7-6.3-6.4c0,0,0.5,4,5,6.3C1066,101.1,1065.7,101.9,1066,102.2z
		"/>
	<path fill="#877666" d="M1025.7,100.1c0,0,3.4,6.7-0.3,10C1025.4,110.2,1031.7,106.5,1025.7,100.1z"/>
</g>
<g>
	<path fill="#726658" d="M2989.5,458.7c4.7-0.2,9.4-0.5,13.8-2s8.6-4.4,10.6-8.6c1.5-3.1,1.6-6.7,1.7-10.1
		c0.4-12.7,0.8-25.9-4.9-37.3c-1.5-3-3.4-5.9-6.2-7.8c-3.8-2.7-8.6-3.4-13.2-3.8c-7.1-0.7-14.3-1-21.4-0.8c-4.4,0.1-8.9,0.3-13,2
		c-4.7,1.9-8.5,5.3-12.3,8.8c-1.3,1.2-2.7,2.5-3.3,4.1c-0.5,1.1-0.6,2.4-0.7,3.6c-0.7,8.7-1.5,17.6,0.3,26.2
		c1.8,8.6,6.4,17,14.1,21.2c7.1,3.9,15.6,3.8,23.6,4.9c2.8,0.4,5.7,0.9,8.5,0.3c2.8-0.6,5.4-2.9,5.5-5.7"/>
	<path fill="#726658" d="M3011.6,403.5c0,0,0.4-7.2,2.1-9.6c0,0,0.1-5-10.2-6.2c-10.3-1.2-13.6-0.6-13.7,1.8c0,0-0.4,1.9-2.2,3.9"/>
	
		<ellipse transform="matrix(-0.9868 -0.1617 0.1617 -0.9868 5902.0376 1263.2377)" fill="#231F20" cx="3002.4" cy="391.4" rx="9.4" ry="2.3"/>
	
		<ellipse transform="matrix(-0.9646 0.2638 -0.2638 -0.9646 5997.8159 81.8174)" fill="#63584C" cx="2993.4" cy="443.6" rx="12.3" ry="5.3"/>
	
		<ellipse transform="matrix(-0.9646 0.2638 -0.2638 -0.9646 5997.8159 81.8174)" fill="#231F20" cx="2993.4" cy="443.6" rx="9.1" ry="2.5"/>
	<path fill="#726658" d="M2989.2,456.6c0,0-3,2-1.2,4.6c1.7,2.6-4.3,4.9-12.7,4.1c-8.5-0.7-9.8-2.5-9.3-5.1s1-5.1-1.6-6.9"/>
	<ellipse fill="#231F20" cx="2976.7" cy="462.1" rx="8.7" ry="2"/>
	<path fill="#726658" d="M2941.1,410.6c0,0,0.2-3.6-2.9-3.8c-3.1-0.2-1.3-6.3,4.4-12.6s7.9-6.3,9.7-4.3s3.5,3.9,6.4,2.9"/>
	
		<ellipse transform="matrix(0.6054 -0.7959 0.7959 0.6054 845.616 2500.3574)" fill="#231F20" cx="2944.4" cy="397.4" rx="8.7" ry="2"/>
	<path fill="#726658" d="M3014.7,422.6c0,0,2.1,2.9,4.6,1.1c2.6-1.8,5,4.1,4.5,12.6c-0.5,8.5-2.2,9.9-4.8,9.5s-5.1-0.8-6.8,1.8"/>
	
		<ellipse transform="matrix(3.057404e-02 0.9995 -0.9995 3.057404e-02 3362.8315 -2597.4695)" fill="#231F20" cx="3020.5" cy="434.9" rx="8.7" ry="2"/>
	<path fill="#726658" d="M2958,454.8c0,0-3.5-0.7-4.1,2.4c-0.6,3.1-6.5,0.4-11.9-6.1s-5.2-8.7-3-10.2s4.3-2.9,3.7-6"/>
	
		<ellipse transform="matrix(-0.708 -0.7062 0.7062 -0.708 4712.9736 2848.3767)" fill="#231F20" cx="2945.4" cy="449.8" rx="8.7" ry="2"/>
	<ellipse fill="#63584C" cx="2976.6" cy="404.8" rx="10.7" ry="5"/>
	<ellipse fill="#231F20" cx="2976.6" cy="404.8" rx="7.9" ry="2.3"/>
	
		<ellipse transform="matrix(-0.4669 -0.8843 0.8843 -0.4669 4044.2117 3262.5771)" fill="#63584C" cx="3005.6" cy="412.2" rx="10.7" ry="5"/>
	
		<ellipse transform="matrix(-0.4669 -0.8843 0.8843 -0.4669 4044.2117 3262.5771)" fill="#231F20" cx="3005.6" cy="412.2" rx="7.9" ry="2.3"/>
	
		<ellipse transform="matrix(-0.1237 -0.9923 0.9923 -0.1237 2895.0283 3406.8003)" fill="#63584C" cx="2951.7" cy="425.2" rx="10.7" ry="5"/>
	
		<ellipse transform="matrix(-0.1237 -0.9923 0.9923 -0.1237 2895.0283 3406.8003)" fill="#231F20" cx="2951.7" cy="425.2" rx="7.9" ry="2.3"/>
	<path fill="#726658" d="M3013.5,450.1c0,0-1.5,2.6,0.7,3.9s-1.5,5.2-8.1,7.7c-6.7,2.5-8.3,1.7-8.9-0.5s-1.1-4.2-3.7-4.6"/>
	
		<ellipse transform="matrix(-0.9013 0.4331 -0.4331 -0.9013 5914.1084 -429.706)" fill="#231F20" cx="3006" cy="458.7" rx="7.3" ry="1.7"/>
	<path fill="#726658" d="M2964,389.6c0,0,1.6-1.5,0.4-2.9c-1.3-1.4,2.2-3.3,7.4-3.5s6.1,0.7,6.1,2.3s-0.2,3.2,1.5,4"/>
	
		<ellipse transform="matrix(0.9908 -0.1351 0.1351 0.9908 -24.8187 404.9549)" fill="#231F20" cx="2971.1" cy="385.3" rx="5.3" ry="1.2"/>
	<ellipse fill="#63584C" cx="2982.7" cy="422.6" rx="7.2" ry="5.3"/>
	<ellipse fill="#231F20" cx="2982.7" cy="422.6" rx="5.3" ry="2.5"/>
	<path fill="#63584C" d="M2943.1,438.9c0,0,11.8,4.5,12.2,12C2955.4,450.8,2956.9,441.4,2943.1,438.9z"/>
	<path fill="#63584C" d="M2985.4,457.3c0,0-3.8-4.9-16.7-1.7C2968.7,455.6,2979.1,449.2,2985.4,457.3z"/>
	<path fill="#63584C" d="M2996.5,456.7c0,0,1.9-5.7,14-5.9C3010.5,450.8,3000,452.8,2996.5,456.7z"/>
	<path fill="#63584C" d="M2942.6,408.2c0,0,11.9-3.1,11.5-15.2C2954.2,393,2951.9,402.6,2942.6,408.2z"/>
	<path fill="#63584C" d="M2965.8,389.6c0,0,6.3,3.8,11.5,0C2977.3,389.6,2972.5,391.4,2965.8,389.6z"/>
	<path fill="#63584C" d="M2989.9,392.1c0,0,4.4,9.5,17.3,7.5C3007.2,399.7,2996.5,399.3,2989.9,392.1z"/>
	<path fill="#63584C" d="M2949.9,436.7c0,0,10,6,8.9-8.8C2958.8,427.9,2958.5,439.6,2949.9,436.7z"/>
	<path fill="#63584C" d="M3005.4,437.6c0,0-12.9-6.3-26,6.8C2979.4,444.4,2991.8,429.3,3005.4,437.6z"/>
	<path fill="#63584C" d="M3013.7,426.2c0,0-4.7,10.9,0,17.3C3013.7,443.5,3007,436.7,3013.7,426.2z"/>
	<path fill="#63584C" d="M2987.7,427.9c0,0,14.2-7.7-4-12.4C2983.7,415.6,2999.3,420.3,2987.7,427.9z"/>
	<path fill="#63584C" d="M2968.7,399.7c0,0-18,8.6,5.3,11C2974.1,410.6,2954.2,407.7,2968.7,399.7z"/>
	<path fill="#63584C" d="M3010.5,423.2c0,0-14.3,1.7-15.1-15C2995.4,408.2,2998.3,423.5,3010.5,423.2z"/>
	<path fill="#63584C" d="M2958,453.2c0,0,2.4-5.7-2.6-12.1c0,0,5.3,6.2,4.9,12.1c0,0,6.7,1.3,7.7,1.1
		C2968.1,454.3,2963.5,458.4,2958,453.2z"/>
	<path fill="#877666" d="M2976,416.4c0,0-14.3,10.6,3.3,12.6C2979.4,428.9,2964.8,427.4,2976,416.4z"/>
	<path fill="#877666" d="M2957.6,419.6c0,0-2-7.7-7.7-6.9c-5.7,0.8-5.5,12.8-5.5,12.8S2945.6,395.4,2957.6,419.6z"/>
	<path fill="#877666" d="M2981,449.2c0,0,15.4,6.1,25-6.2C3006,443,2996.7,457.6,2981,449.2z"/>
	<path fill="#877666" d="M2980.6,389.6c0,0-7.1,6.8-18.5,0.7C2962.1,390.3,2972.5,399.8,2980.6,389.6z"/>
	<path fill="#877666" d="M2940.3,405.2c0,0,12.3-7.3,10.7-14.7C2951,390.5,2955.1,399.1,2940.3,405.2z"/>
	<path fill="#877666" d="M2949.9,405.9c0,0-4.9,4.1-8.1,4.3c0,0-3.4,14.1,1.4,26c0,0-3.3-14.5,0-24.4L2949.9,405.9z"/>
	<path fill="#877666" d="M2942.6,439.7c0,0-1,1.8-2.4,2c0,0,9.1,3.2,11.9,12c0,0-0.9-7.5-9.5-11.9
		C2942.6,441.8,2943.2,440.4,2942.6,439.7z"/>
	<path fill="#877666" d="M3018.8,443.6c0,0-6.5-12.7,0.5-18.9C3019.3,424.7,3007.4,431.6,3018.8,443.6z"/>
</g>
<g>
	<path fill="#726658" d="M512.3,207.3c-2.2-1.3-4.5-2.5-7-3.1c-2.5-0.6-5.3-0.5-7.4,0.9c-1.6,1-2.7,2.6-3.8,4.2
		c-3.9,5.7-7.9,11.8-8.7,18.7c-0.2,1.8-0.1,3.7,0.5,5.4c0.9,2.4,3,4.1,5,5.6c3.1,2.4,6.3,4.6,9.7,6.7c2.1,1.3,4.2,2.4,6.6,2.9
		c2.7,0.5,5.5,0,8.2-0.5c1-0.2,1.9-0.4,2.7-0.9c0.5-0.4,1-0.9,1.4-1.5c2.9-3.8,5.8-7.7,7.5-12.2c1.7-4.5,2-9.7-0.3-13.9
		c-2.1-3.9-6.1-6.3-9.5-9.2c-1.2-1-2.4-2.1-3.9-2.6c-1.5-0.5-3.4-0.3-4.2,1"/>
	<path fill="#726658" d="M486,226.3c0,0-2.3,3.2-3.8,3.8c0,0-1.5,2.3,2.9,5.9c4.4,3.6,6.1,4.3,6.9,3.2c0,0,0.7-0.8,2.1-1.2"/>
	
		<ellipse transform="matrix(0.747 0.6648 -0.6648 0.747 279.0583 -264.1973)" fill="#231F20" cx="486.7" cy="234.6" rx="5.2" ry="1.3"/>
	
		<ellipse transform="matrix(0.956 0.2934 -0.2934 0.956 84.804 -139.1289)" fill="#63584C" cx="506.1" cy="213.1" rx="6.8" ry="2.9"/>
	<ellipse transform="matrix(0.956 0.2934 -0.2934 0.956 84.804 -139.1289)" fill="#231F20" cx="506.1" cy="213.1" rx="5" ry="1.3"/>
	<path fill="#726658" d="M511.9,208.3c0,0,2,0,1.9-1.8s3.4-1,7.1,1.8c3.7,2.8,3.8,4,2.8,5.1s-2,2.1-1.3,3.6"/>
	
		<ellipse transform="matrix(0.8447 0.5352 -0.5352 0.8447 192.7533 -245.3925)" fill="#231F20" cx="519.3" cy="209.5" rx="4.8" ry="1.1"/>
	<path fill="#726658" d="M520.6,243.7c0,0-1.2,1.6,0.2,2.6c1.4,1-1.3,3.3-5.7,4.5c-4.5,1.2-5.5,0.6-5.8-0.8
		c-0.3-1.4-0.5-2.8-2.1-3.2"/>
	
		<ellipse transform="matrix(-0.9374 0.3483 -0.3483 -0.9374 1084.9333 302.5824)" fill="#231F20" cx="515.3" cy="248.8" rx="4.8" ry="1.1"/>
	<path fill="#726658" d="M490.1,216.6c0,0-0.1-2-1.8-1.9c-1.7,0.1-1.1-3.4,1.6-7.1c2.7-3.8,3.9-3.9,5-3s2.1,1.9,3.7,1.1"/>
	
		<ellipse transform="matrix(0.5092 -0.8607 0.8607 0.5092 60.9851 525.3324)" fill="#231F20" cx="491.1" cy="209.2" rx="4.8" ry="1.1"/>
	<path fill="#726658" d="M525.8,218.3c0,0,1.4,1.4,2.6,0.1s3.1,1.7,3.7,6.3c0.6,4.6-0.1,5.5-1.6,5.6c-1.5,0.1-2.8,0.1-3.5,1.7"/>
	
		<ellipse transform="matrix(0.2201 0.9755 -0.9755 0.2201 632.2866 -342.2294)" fill="#231F20" cx="530.2" cy="224.3" rx="4.8" ry="1.1"/>
	
		<ellipse transform="matrix(0.8447 0.5352 -0.5352 0.8447 204.3342 -232.3257)" fill="#63584C" cx="502.5" cy="236" rx="5.8" ry="2.7"/>
	
		<ellipse transform="matrix(0.8447 0.5352 -0.5352 0.8447 204.3342 -232.3257)" fill="#231F20" cx="502.5" cy="236" rx="4.3" ry="1.3"/>
	
		<ellipse transform="matrix(-7.896031e-02 0.9969 -0.9969 -7.896031e-02 753.4617 -248.0412)" fill="#63584C" cx="491.3" cy="224.1" rx="5.8" ry="2.7"/>
	
		<ellipse transform="matrix(-7.896031e-02 0.9969 -0.9969 -7.896031e-02 753.4617 -248.0412)" fill="#231F20" cx="491.3" cy="224.1" rx="4.3" ry="1.3"/>
	
		<ellipse transform="matrix(-0.4266 0.9044 -0.9044 -0.4266 953.331 -136.7365)" fill="#63584C" cx="520" cy="233.8" rx="5.8" ry="2.7"/>
	
		<ellipse transform="matrix(-0.4266 0.9044 -0.9044 -0.4266 953.331 -136.7365)" fill="#231F20" cx="520" cy="233.8" rx="4.3" ry="1.3"/>
	<path fill="#726658" d="M498.8,204.2c0,0,1.5-0.7,0.8-2c-0.7-1.3,2.2-2,6-1.2s4.3,1.7,4,2.8c-0.4,1.2-0.7,2.3,0.4,3.2"/>
	
		<ellipse transform="matrix(0.9932 0.1166 -0.1166 0.9932 27.0441 -57.4663)" fill="#231F20" cx="504.7" cy="202.4" rx="4" ry="0.9"/>
	<path fill="#726658" d="M503.9,246.7c0,0-1.2,0.2-1,1.2c0.2,1-2,0.9-4.4-0.5c-2.5-1.4-2.6-2.1-2.1-2.9s1-1.4,0.5-2.3"/>
	
		<ellipse transform="matrix(-0.9093 -0.4162 0.4162 -0.9093 850.8176 678.5992)" fill="#231F20" cx="499.4" cy="246.6" rx="2.9" ry="0.7"/>
	
		<ellipse transform="matrix(0.8447 0.5352 -0.5352 0.8447 199.3545 -235.1721)" fill="#63584C" cx="504.9" cy="226" rx="4" ry="2.9"/>
	
		<ellipse transform="matrix(0.8447 0.5352 -0.5352 0.8447 199.3545 -235.1721)" fill="#231F20" cx="504.9" cy="226" rx="2.9" ry="1.3"/>
	<path fill="#63584C" d="M528,230c0,0-4.2-5.5-2.1-9.1C525.8,220.9,522.4,224.8,528,230z"/>
	<path fill="#63584C" d="M513.8,209.1c0,0,0.3,3.4,7.2,5.7C521,214.8,514.4,214.7,513.8,209.1z"/>
	<path fill="#63584C" d="M508.5,206.1c0,0-2.5,2.1-8.2-1.4C500.4,204.8,505.8,206.9,508.5,206.1z"/>
	<path fill="#63584C" d="M519.2,244.3c0,0-6.4-2.1-9.8,3.7C509.4,248,513.3,244.2,519.2,244.3z"/>
	<path fill="#63584C" d="M503.1,246.1c0,0-1.8-3.6-5.3-3.4C497.8,242.8,500.5,243.3,503.1,246.1z"/>
	<path fill="#63584C" d="M492.7,237.9c0,0,0.8-5.7-5.8-8.6C486.9,229.4,491.7,232.7,492.7,237.9z"/>
	<path fill="#63584C" d="M524.2,229c0,0-2.9-5.7-6.7,1.5C517.5,230.5,521.1,225.2,524.2,229z"/>
	<path fill="#63584C" d="M498.8,212.4c0,0,4.1,6.7,14,4.5C512.8,216.9,502.7,220.2,498.8,212.4z"/>
	<path fill="#63584C" d="M491.6,215.2c0,0,5.4-3.6,5.1-8C496.7,207.2,497.8,212.3,491.6,215.2z"/>
	<path fill="#63584C" d="M504.2,222c0,0-8.8-0.6-1.8,6.9C502.4,228.9,496.6,222.2,504.2,222z"/>
	<path fill="#63584C" d="M504.7,240.6c0,0,10.8,1.3,0.7-6.6C505.4,234,513.7,241.2,504.7,240.6z"/>
	<path fill="#63584C" d="M492.3,217.6c0,0,7.1,3.4,2.6,11.3C494.8,228.9,498,221,492.3,217.6z"/>
	<path fill="#63584C" d="M525.3,219c0,0-2.8,1.9-2.3,6.3c0,0-0.6-4.4,1.3-7c0,0-2.8-2.6-3.2-2.8C521,215.6,524.3,215,525.3,219z"/>
	<path fill="#877666" d="M506.2,230.8c0,0,9.7-0.7,2.1-6.8C508.3,224,514.6,229,506.2,230.8z"/>
	<path fill="#877666" d="M515.7,234.7c0,0-1.3,4.2,1.5,5.4c2.9,1.3,6.3-4.3,6.3-4.3S514.1,249.4,515.7,234.7z"/>
	<path fill="#877666" d="M513.5,214.1c0,0-5.3-7.3-13.4-4.4C500.1,209.7,508.7,205.7,513.5,214.1z"/>
	<path fill="#877666" d="M496.2,241.8c0,0,5.3-1,8.7,5.1C505,246.9,503,239.5,496.2,241.8z"/>
	<path fill="#877666" d="M519.4,246.4c0,0-7.8-0.2-9.2,3.7C510.2,250.1,510.8,244.9,519.4,246.4z"/>
	<path fill="#877666" d="M515.2,243.3c0,0,3.5-0.5,5,0.4c0,0,5.7-5.5,7-12.4c0,0-2.7,7.7-7.2,11.3L515.2,243.3z"/>
	<path fill="#877666" d="M528.4,229.8c0,0,1-0.5,1.7-0.2c0,0-3.3-4.2-2-9c0,0-1.8,3.8,0.9,8.3C529.1,228.8,528.4,229.3,528.4,229.8z
		"/>
	<path fill="#877666" d="M494.4,205.7c0,0-0.7,7.8-5.8,8.6C488.6,214.3,496.2,214.6,494.4,205.7z"/>
</g>
<g>
	<path fill="#726658" d="M189.6,300.3c-1.1-0.6-2.3-1.3-3.6-1.6c-1.3-0.3-2.7-0.3-3.8,0.5c-0.8,0.5-1.4,1.3-1.9,2.1
		c-2,2.9-4.1,6-4.4,9.5c-0.1,0.9-0.1,1.9,0.3,2.8c0.5,1.2,1.5,2.1,2.5,2.9c1.6,1.2,3.2,2.4,4.9,3.4c1,0.6,2.1,1.2,3.4,1.5
		c1.4,0.3,2.8,0,4.2-0.2c0.5-0.1,1-0.2,1.4-0.5c0.3-0.2,0.5-0.5,0.7-0.7c1.5-1.9,3-3.9,3.8-6.2c0.9-2.3,1-5-0.2-7.1
		c-1.1-2-3.1-3.2-4.8-4.7c-0.6-0.5-1.2-1.1-2-1.3c-0.8-0.3-1.7-0.1-2.2,0.5"/>
	<path fill="#726658" d="M176.2,310c0,0-1.2,1.6-1.9,1.9c0,0-0.8,1.2,1.5,3c2.3,1.8,3.1,2.2,3.5,1.6c0,0,0.4-0.4,1.1-0.6"/>
	
		<ellipse transform="matrix(0.747 0.6648 -0.6648 0.747 253.5601 -37.8755)" fill="#231F20" cx="176.5" cy="314.2" rx="2.6" ry="0.6"/>
	
		<ellipse transform="matrix(0.956 0.2934 -0.2934 0.956 97.1972 -41.362)" fill="#63584C" cx="186.5" cy="303.3" rx="3.4" ry="1.5"/>
	
		<ellipse transform="matrix(0.956 0.2934 -0.2934 0.956 97.1972 -41.362)" fill="#231F20" cx="186.5" cy="303.3" rx="2.5" ry="0.7"/>
	<path fill="#726658" d="M189.4,300.9c0,0,1,0,1-0.9s1.7-0.5,3.6,0.9c1.9,1.4,1.9,2,1.4,2.6s-1,1.1-0.6,1.9"/>
	
		<ellipse transform="matrix(0.8447 0.5352 -0.5352 0.8447 191.3344 -56.5694)" fill="#231F20" cx="193.2" cy="301.4" rx="2.4" ry="0.6"/>
	<path fill="#726658" d="M193.8,318.9c0,0-0.6,0.8,0.1,1.3c0.7,0.5-0.6,1.7-2.9,2.3c-2.3,0.6-2.8,0.3-2.9-0.4
		c-0.1-0.7-0.2-1.4-1.1-1.6"/>
	
		<ellipse transform="matrix(-0.9374 0.3483 -0.3483 -0.9374 482.2509 556.2841)" fill="#231F20" cx="191.1" cy="321.5" rx="2.4" ry="0.6"/>
	<path fill="#726658" d="M178.3,305.1c0,0-0.1-1-0.9-1c-0.9,0-0.6-1.7,0.8-3.6c1.4-1.9,2-2,2.6-1.5c0.6,0.5,1.1,1,1.9,0.6"/>
	
		<ellipse transform="matrix(0.5092 -0.8607 0.8607 0.5092 -171.566 301.7665)" fill="#231F20" cx="178.8" cy="301.3" rx="2.4" ry="0.6"/>
	<path fill="#726658" d="M196.5,305.9c0,0,0.7,0.7,1.3,0.1s1.6,0.9,1.9,3.2c0.3,2.3-0.1,2.8-0.8,2.9c-0.7,0-1.5,0-1.8,0.9"/>
	
		<ellipse transform="matrix(0.2201 0.9755 -0.9755 0.2201 456.3987 47.1565)" fill="#231F20" cx="198.7" cy="309" rx="2.4" ry="0.6"/>
	
		<ellipse transform="matrix(0.8447 0.5352 -0.5352 0.8447 197.2369 -49.9097)" fill="#63584C" cx="184.6" cy="314.9" rx="3" ry="1.4"/>
	
		<ellipse transform="matrix(0.8447 0.5352 -0.5352 0.8447 197.2369 -49.9097)" fill="#231F20" cx="184.6" cy="314.9" rx="2.2" ry="0.6"/>
	
		<ellipse transform="matrix(-7.896031e-02 0.9969 -0.9969 -7.896031e-02 500.9431 154.9042)" fill="#63584C" cx="178.9" cy="308.9" rx="3" ry="1.4"/>
	
		<ellipse transform="matrix(-7.896031e-02 0.9969 -0.9969 -7.896031e-02 500.9431 154.9042)" fill="#231F20" cx="178.9" cy="308.9" rx="2.2" ry="0.6"/>
	
		<ellipse transform="matrix(-0.4266 0.9044 -0.9044 -0.4266 559.9613 272.6996)" fill="#63584C" cx="193.5" cy="313.9" rx="3" ry="1.4"/>
	
		<ellipse transform="matrix(-0.4266 0.9044 -0.9044 -0.4266 559.9613 272.6996)" fill="#231F20" cx="193.5" cy="313.9" rx="2.2" ry="0.6"/>
	<path fill="#726658" d="M182.7,298.8c0,0,0.7-0.4,0.4-1c-0.3-0.7,1.1-1,3.1-0.6s2.2,0.8,2,1.4c-0.2,0.6-0.4,1.2,0.2,1.6"/>
	
		<ellipse transform="matrix(0.9932 0.1166 -0.1166 0.9932 35.9933 -19.6253)" fill="#231F20" cx="185.8" cy="297.9" rx="2" ry="0.5"/>
	<path fill="#726658" d="M185.3,320.4c0,0-0.6,0.1-0.5,0.6s-1,0.5-2.3-0.3c-1.3-0.7-1.3-1.1-1.1-1.5s0.5-0.7,0.2-1.2"/>
	
		<ellipse transform="matrix(-0.9093 -0.4162 0.4162 -0.9093 216.1039 687.7971)" fill="#231F20" cx="183" cy="320.3" rx="1.5" ry="0.3"/>
	
		<ellipse transform="matrix(0.8447 0.5352 -0.5352 0.8447 194.6989 -51.3604)" fill="#63584C" cx="185.9" cy="309.8" rx="2" ry="1.5"/>
	
		<ellipse transform="matrix(0.8447 0.5352 -0.5352 0.8447 194.6989 -51.3604)" fill="#231F20" cx="185.9" cy="309.8" rx="1.5" ry="0.7"/>
	<path fill="#63584C" d="M197.6,311.9c0,0-2.1-2.8-1.1-4.6C196.5,307.3,194.7,309.3,197.6,311.9z"/>
	<path fill="#63584C" d="M190.4,301.3c0,0,0.2,1.7,3.7,2.9C194.1,304.2,190.7,304.1,190.4,301.3z"/>
	<path fill="#63584C" d="M187.7,299.7c0,0-1.3,1.1-4.2-0.7C183.5,299,186.3,300.1,187.7,299.7z"/>
	<path fill="#63584C" d="M193.1,319.2c0,0-3.3-1-5,1.9C188.1,321.1,190.1,319.2,193.1,319.2z"/>
	<path fill="#63584C" d="M184.9,320.1c0,0-0.9-1.8-2.7-1.7C182.2,318.4,183.6,318.7,184.9,320.1z"/>
	<path fill="#63584C" d="M179.6,315.9c0,0,0.4-2.9-3-4.4C176.6,311.6,179.1,313.3,179.6,315.9z"/>
	<path fill="#63584C" d="M195.7,311.4c0,0-1.5-2.9-3.4,0.8C192.3,312.2,194.1,309.4,195.7,311.4z"/>
	<path fill="#63584C" d="M182.7,302.9c0,0,2.1,3.4,7.1,2.3C189.9,305.2,184.7,306.9,182.7,302.9z"/>
	<path fill="#63584C" d="M179.1,304.4c0,0,2.7-1.9,2.6-4.1C181.7,300.3,182.2,302.9,179.1,304.4z"/>
	<path fill="#63584C" d="M185.5,307.8c0,0-4.5-0.3-0.9,3.5C184.6,311.4,181.6,307.9,185.5,307.8z"/>
	<path fill="#63584C" d="M185.7,317.3c0,0,5.5,0.7,0.4-3.4C186.1,313.9,190.3,317.6,185.7,317.3z"/>
	<path fill="#63584C" d="M179.4,305.6c0,0,3.6,1.7,1.3,5.8C180.7,311.3,182.3,307.3,179.4,305.6z"/>
	<path fill="#63584C" d="M196.2,306.3c0,0-1.4,1-1.2,3.2c0,0-0.3-2.3,0.6-3.6c0,0-1.4-1.3-1.7-1.4
		C194,304.5,195.7,304.3,196.2,306.3z"/>
	<path fill="#877666" d="M186.5,312.3c0,0,4.9-0.4,1.1-3.5C187.6,308.8,190.8,311.4,186.5,312.3z"/>
	<path fill="#877666" d="M191.3,314.3c0,0-0.7,2.1,0.8,2.8c1.5,0.7,3.2-2.2,3.2-2.2S190.5,321.8,191.3,314.3z"/>
	<path fill="#877666" d="M190.2,303.8c0,0-2.7-3.7-6.8-2.3C183.4,301.6,187.8,299.5,190.2,303.8z"/>
	<path fill="#877666" d="M181.4,317.9c0,0,2.7-0.5,4.5,2.6C185.9,320.5,184.8,316.7,181.4,317.9z"/>
	<path fill="#877666" d="M193.2,320.3c0,0-4-0.1-4.7,1.9C188.5,322.1,188.9,319.5,193.2,320.3z"/>
	<path fill="#877666" d="M191.1,318.7c0,0,1.8-0.2,2.6,0.2c0,0,2.9-2.8,3.5-6.3c0,0-1.4,3.9-3.6,5.8L191.1,318.7z"/>
	<path fill="#877666" d="M197.8,311.8c0,0,0.5-0.3,0.9-0.1c0,0-1.7-2.1-1-4.6c0,0-0.9,1.9,0.5,4.2
		C198.1,311.3,197.8,311.5,197.8,311.8z"/>
	<path fill="#877666" d="M180.5,299.5c0,0-0.4,4-2.9,4.4C177.5,303.9,181.4,304,180.5,299.5z"/>
</g>
<g>
	<path fill="#726658" d="M1277.2,223c-1.4-0.8-2.8-1.5-4.3-1.9c-1.5-0.4-3.2-0.3-4.6,0.5c-1,0.6-1.7,1.6-2.3,2.6
		c-2.4,3.5-4.9,7.2-5.3,11.5c-0.1,1.1-0.1,2.3,0.3,3.3c0.6,1.4,1.8,2.5,3.1,3.5c1.9,1.5,3.9,2.8,5.9,4.1c1.3,0.8,2.6,1.5,4,1.8
		c1.7,0.3,3.4,0,5.1-0.3c0.6-0.1,1.2-0.2,1.7-0.6c0.3-0.2,0.6-0.6,0.8-0.9c1.8-2.3,3.6-4.7,4.6-7.5c1-2.8,1.2-6-0.2-8.6
		c-1.3-2.4-3.7-3.9-5.8-5.6c-0.7-0.6-1.5-1.3-2.4-1.6c-0.9-0.3-2.1-0.2-2.6,0.6"/>
	<path fill="#726658" d="M1261,234.7c0,0-1.4,2-2.3,2.3c0,0-0.9,1.4,1.8,3.6c2.7,2.2,3.8,2.6,4.2,1.9c0,0,0.5-0.5,1.3-0.7"/>
	
		<ellipse transform="matrix(0.747 0.6648 -0.6648 0.747 478.5165 -777.9551)" fill="#231F20" cx="1261.5" cy="239.8" rx="3.2" ry="0.8"/>
	
		<ellipse transform="matrix(0.956 0.2934 -0.2934 0.956 122.5348 -363.6757)" fill="#63584C" cx="1273.4" cy="226.6" rx="4.1" ry="1.8"/>
	
		<ellipse transform="matrix(0.956 0.2934 -0.2934 0.956 122.5348 -363.6757)" fill="#231F20" cx="1273.4" cy="226.6" rx="3.1" ry="0.8"/>
	<path fill="#726658" d="M1277,223.7c0,0,1.2,0,1.2-1.1c0-1.1,2.1-0.6,4.4,1.1c2.3,1.7,2.3,2.5,1.7,3.1c-0.6,0.7-1.2,1.3-0.8,2.2"/>
	
		<ellipse transform="matrix(0.8447 0.5352 -0.5352 0.8447 319.0887 -651.0526)" fill="#231F20" cx="1281.5" cy="224.4" rx="2.9" ry="0.7"/>
	<path fill="#726658" d="M1282.3,245.4c0,0-0.7,1,0.1,1.6c0.9,0.6-0.8,2-3.5,2.8c-2.8,0.8-3.4,0.4-3.5-0.5c-0.2-0.9-0.3-1.7-1.3-2"
		/>
	
		<ellipse transform="matrix(-0.9374 0.3483 -0.3483 -0.9374 2564.5505 35.9863)" fill="#231F20" cx="1279" cy="248.5" rx="2.9" ry="0.7"/>
	<path fill="#726658" d="M1263.6,228.7c0,0-0.1-1.2-1.1-1.2c-1.1,0.1-0.7-2.1,1-4.4c1.7-2.3,2.4-2.4,3.1-1.8
		c0.7,0.6,1.3,1.2,2.3,0.7"/>
	
		<ellipse transform="matrix(0.5092 -0.8607 0.8607 0.5092 427.5612 1198.0807)" fill="#231F20" cx="1264.2" cy="224.2" rx="2.9" ry="0.7"/>
	<path fill="#726658" d="M1285.5,229.8c0,0,0.9,0.8,1.6,0.1c0.7-0.8,1.9,1,2.3,3.9c0.4,2.8-0.1,3.4-1,3.4c-0.9,0-1.8,0.1-2.1,1"/>
	
		<ellipse transform="matrix(0.2201 0.9755 -0.9755 0.2201 1232.4471 -1074.5282)" fill="#231F20" cx="1288.2" cy="233.5" rx="2.9" ry="0.7"/>
	
		<ellipse transform="matrix(0.8447 0.5352 -0.5352 0.8447 326.2054 -643.0228)" fill="#63584C" cx="1271.2" cy="240.6" rx="3.6" ry="1.7"/>
	
		<ellipse transform="matrix(0.8447 0.5352 -0.5352 0.8447 326.2054 -643.0228)" fill="#231F20" cx="1271.2" cy="240.6" rx="2.6" ry="0.8"/>
	
		<ellipse transform="matrix(-7.896031e-02 0.9969 -0.9969 -7.896031e-02 1596.7389 -1008.6405)" fill="#63584C" cx="1264.3" cy="233.3" rx="3.6" ry="1.7"/>
	
		<ellipse transform="matrix(-7.896031e-02 0.9969 -0.9969 -7.896031e-02 1596.7389 -1008.6405)" fill="#231F20" cx="1264.3" cy="233.3" rx="2.6" ry="0.8"/>
	
		<ellipse transform="matrix(-0.4266 0.9044 -0.9044 -0.4266 2045.2811 -818.0409)" fill="#63584C" cx="1282" cy="239.3" rx="3.6" ry="1.7"/>
	
		<ellipse transform="matrix(-0.4266 0.9044 -0.9044 -0.4266 2045.2811 -818.0409)" fill="#231F20" cx="1282" cy="239.3" rx="2.6" ry="0.8"/>
	<path fill="#726658" d="M1268.9,221.1c0,0,0.9-0.5,0.5-1.3s1.4-1.2,3.7-0.7c2.3,0.5,2.7,1,2.4,1.7c-0.2,0.7-0.4,1.4,0.2,2"/>
	
		<ellipse transform="matrix(0.9932 0.1166 -0.1166 0.9932 34.332 -146.8677)" fill="#231F20" cx="1272.6" cy="220" rx="2.5" ry="0.6"/>
	<path fill="#726658" d="M1272.1,247.2c0,0-0.7,0.1-0.6,0.8c0.1,0.6-1.2,0.5-2.7-0.3c-1.5-0.9-1.6-1.3-1.3-1.8
		c0.3-0.5,0.6-0.9,0.3-1.4"/>
	
		<ellipse transform="matrix(-0.9093 -0.4162 0.4162 -0.9093 2320.5295 1000.1409)" fill="#231F20" cx="1269.3" cy="247.1" rx="1.8" ry="0.4"/>
	
		<ellipse transform="matrix(0.8447 0.5352 -0.5352 0.8447 323.1453 -644.772)" fill="#63584C" cx="1272.7" cy="234.5" rx="2.4" ry="1.8"/>
	
		<ellipse transform="matrix(0.8447 0.5352 -0.5352 0.8447 323.1453 -644.772)" fill="#231F20" cx="1272.7" cy="234.5" rx="1.8" ry="0.8"/>
	<path fill="#63584C" d="M1286.8,237c0,0-2.6-3.4-1.3-5.6C1285.5,231.4,1283.4,233.8,1286.8,237z"/>
	<path fill="#63584C" d="M1278.2,224.1c0,0,0.2,2.1,4.4,3.5C1282.6,227.6,1278.5,227.6,1278.2,224.1z"/>
	<path fill="#63584C" d="M1274.9,222.3c0,0-1.6,1.3-5-0.8C1269.9,221.5,1273.2,222.8,1274.9,222.3z"/>
	<path fill="#63584C" d="M1281.5,245.8c0,0-4-1.3-6,2.2C1275.5,248,1277.8,245.7,1281.5,245.8z"/>
	<path fill="#63584C" d="M1271.5,246.9c0,0-1.1-2.2-3.3-2.1C1268.3,244.8,1270,245.2,1271.5,246.9z"/>
	<path fill="#63584C" d="M1265.2,241.8c0,0,0.5-3.5-3.6-5.3C1261.6,236.6,1264.6,238.6,1265.2,241.8z"/>
	<path fill="#63584C" d="M1284.6,236.4c0,0-1.8-3.5-4.1,0.9C1280.4,237.3,1282.6,234,1284.6,236.4z"/>
	<path fill="#63584C" d="M1268.9,226.1c0,0,2.5,4.1,8.6,2.8C1277.5,228.9,1271.3,230.9,1268.9,226.1z"/>
	<path fill="#63584C" d="M1264.5,227.9c0,0,3.3-2.2,3.1-4.9C1267.6,223,1268.3,226.1,1264.5,227.9z"/>
	<path fill="#63584C" d="M1272.2,232.1c0,0-5.4-0.4-1.1,4.2C1271.1,236.3,1267.6,232.2,1272.2,232.1z"/>
	<path fill="#63584C" d="M1272.5,243.5c0,0,6.7,0.8,0.5-4.1C1273,239.4,1278.1,243.8,1272.5,243.5z"/>
	<path fill="#63584C" d="M1264.9,229.3c0,0,4.4,2.1,1.6,7C1266.5,236.3,1268.4,231.4,1264.9,229.3z"/>
	<path fill="#63584C" d="M1285.2,230.2c0,0-1.7,1.2-1.4,3.9c0,0-0.4-2.7,0.8-4.3c0,0-1.7-1.6-2-1.7
		C1282.5,228.1,1284.6,227.8,1285.2,230.2z"/>
	<path fill="#877666" d="M1273.5,237.4c0,0,6-0.5,1.3-4.2C1274.8,233.3,1278.6,236.3,1273.5,237.4z"/>
	<path fill="#877666" d="M1279.3,239.8c0,0-0.8,2.6,0.9,3.3c1.8,0.8,3.9-2.6,3.9-2.6S1278.3,248.9,1279.3,239.8z"/>
	<path fill="#877666" d="M1278,227.2c0,0-3.3-4.5-8.2-2.7C1269.7,224.5,1275,222,1278,227.2z"/>
	<path fill="#877666" d="M1267.4,244.2c0,0,3.2-0.6,5.4,3.1C1272.7,247.3,1271.5,242.8,1267.4,244.2z"/>
	<path fill="#877666" d="M1281.6,247.1c0,0-4.8-0.2-5.7,2.3C1275.9,249.3,1276.3,246.1,1281.6,247.1z"/>
	<path fill="#877666" d="M1279,245.1c0,0,2.1-0.3,3.1,0.2c0,0,3.5-3.4,4.3-7.6c0,0-1.7,4.7-4.4,6.9L1279,245.1z"/>
	<path fill="#877666" d="M1287.1,236.8c0,0,0.6-0.3,1-0.1c0,0-2-2.6-1.2-5.6c0,0-1.1,2.3,0.6,5.1
		C1287.5,236.2,1287.1,236.5,1287.1,236.8z"/>
	<path fill="#877666" d="M1266.2,222c0,0-0.4,4.8-3.5,5.3C1262.7,227.3,1267.3,227.5,1266.2,222z"/>
</g>
</svg>
