<?xml version="1.0" encoding="utf-8"?>
<!-- Generator: Adobe Illustrator 18.1.0, SVG Export Plug-In . SVG Version: 6.00 Build 0)  -->
<!DOCTYPE svg PUBLIC "-//W3C//DTD SVG 1.1//EN" "http://www.w3.org/Graphics/SVG/1.1/DTD/svg11.dtd">
<svg version="1.1" id="Layer_1" xmlns="http://www.w3.org/2000/svg" xmlns:xlink="http://www.w3.org/1999/xlink" x="0px" y="0px"
	 viewBox="0 0 520 389" enable-background="new 0 0 520 389" xml:space="preserve">
<g>
	<rect x="162.9" y="386.6" fill="#382216" width="232" height="2"/>
	<g>
		<rect x="165.9" y="81.6" fill="#ECC7A5" width="226" height="302"/>
		<path fill="#9E5C26" d="M388.9,84.6v296h-220v-296H388.9 M394.9,78.6h-232v308h232V78.6L394.9,78.6z"/>
	</g>
	<g>
		<path fill="#F1F2F2" d="M229.8,223.5v98.3h97v-98.3l8.7,15.3l31.3-17.7l-26.3-58.3c0,0-23-12-43.7-18L280.1,168l-20-23.2
			c0,0-27.7,8.3-43.7,19l-25,57l31,19.3L229.8,223.5z"/>
		<polyline fill="#2B3990" points="222.5,240.1 226.9,230.2 195.5,211.7 191.5,220.8 222.5,240.1 		"/>
		<polyline fill="#2B3990" points="330.6,230.1 362.6,211.7 366.8,221 335.5,238.6 329.5,228.2 		"/>
		<polygon fill="#BE1E2D" points="326.8,223.5 326.8,200.4 342.1,223.5 330.7,230.3 		"/>
		<polygon fill="#BE1E2D" points="340.5,162.8 362.6,211.7 351.5,218.1 329.5,176.3 		"/>
		<polygon fill="#BE1E2D" points="229.8,223.6 229.8,200.5 215,223.1 226.9,230.2 		"/>
		<polygon fill="#BE1E2D" points="216.5,163.8 195.5,211.7 205.8,217.8 227.1,176.4 		"/>
		<g>
			<defs>
				<path id="SVGID_1_" d="M229.8,223.5v98.3h97v-98.3l8.7,15.3l31.3-17.7l-26.3-58.3c0,0-23-12-43.7-18L280.1,168l-20-23.2
					c0,0-27.7,8.3-43.7,19l-25,57l31,19.3L229.8,223.5z"/>
			</defs>
			<clipPath id="SVGID_2_">
				<use xlink:href="#SVGID_1_"  overflow="visible"/>
			</clipPath>
			<g clip-path="url(#SVGID_2_)">
				<rect x="269.9" y="153.6" fill="#BE1E2D" width="18.3" height="168.2"/>
				<rect x="238.1" y="141.4" fill="#BE1E2D" width="18.3" height="180.4"/>
				<rect x="301.7" y="147.7" fill="#BE1E2D" width="18.3" height="174"/>
			</g>
		</g>
		<polygon fill="#2B3990" points="281.3,166.4 293.5,172.7 305.7,147.7 296.8,144.8 		"/>
		<polygon fill="#2B3990" points="278.4,166 263.6,172.7 251.4,147.7 260.3,144.8 		"/>
		<polygon opacity="0.35" fill="#231F20" points="281.3,166.4 293.5,172.7 305.7,147.7 294.6,178.5 		"/>
		<polygon opacity="0.35" fill="#231F20" points="278.4,166 263.6,172.7 251.4,147.7 263.6,178.5 		"/>
		<polygon fill="#2B3990" points="275.7,162.8 280.1,168 285,161.4 286,163.1 280,170.4 275.7,165.5 		"/>
		<g>
			<polygon fill="#FFF200" points="293.5,187.4 313.1,187.4 313.1,205.5 305.1,213.5 293.6,205.9 			"/>
			<polygon fill="#2E3192" points="294.7,188.9 312,188.9 294.7,204 			"/>
			<polygon fill="#FFFFFF" points="296.2,190.3 307.8,190.3 296.2,200.6 			"/>
			<polygon fill="#FFFFFF" points="294.7,204 294.7,205 304.4,211.4 312,204.6 312,188.9 			"/>
			<g>
				<defs>
					<polygon id="SVGID_3_" points="294.7,204 294.7,205 304.4,211.4 312,204.6 312,188.9 					"/>
				</defs>
				<clipPath id="SVGID_4_">
					<use xlink:href="#SVGID_3_"  overflow="visible"/>
				</clipPath>
				<g clip-path="url(#SVGID_4_)">
					<rect x="310.6" y="188.5" fill="#EB1020" width="1.6" height="17.9"/>
					<rect x="306.2" y="192.5" fill="#EB1020" width="1.6" height="17.9"/>
					<rect x="301.2" y="195" fill="#EB1020" width="1.6" height="17.9"/>
					<rect x="296.7" y="195" fill="#EB1020" width="1.6" height="17.9"/>
				</g>
			</g>
		</g>
		<path opacity="0.15" fill="#231F20" d="M280.1,168l-20-23.2c0,0-27.7,8.3-43.7,19l-25,57l31,19.3l7.3-16.7v98.3h48.8"/>
	</g>
	<g opacity="0.24">
		<linearGradient id="SVGID_5_" gradientUnits="userSpaceOnUse" x1="162.8877" y1="227.6413" x2="394.8877" y2="227.6413">
			<stop  offset="0" style="stop-color:#FFFFFF"/>
			<stop  offset="1" style="stop-color:#FFFFFF;stop-opacity:0"/>
		</linearGradient>
		<polygon fill="url(#SVGID_5_)" points="162.9,376.6 162.9,78.6 394.9,78.6 		"/>
	</g>
	<g>
		<g>
			<path d="M60.8,364.3l33,14.1l33-14.1l4.3,10.4v5.8c0,0-8.2,10.4-37.3,10.4s-37.3-10.4-37.3-10.4v-5.8L60.8,364.3z"/>
			<path d="M59.9,367.3c0,7.3,15.2,13.2,33.9,13.2c12.7,0,33.9-5.9,33.9-13.2s-15.2-13.2-33.9-13.2S59.9,360,59.9,367.3z"/>
			<path fill="#1E1E1E" d="M63.2,361.5v-11.2c0-2.6,3.1-6.2,3.1-6.2s27.6,0.8,27.6,0c0,0.8,27.6,0,27.6,0s3.1,3.6,3.1,6.2v11.2
				c0,0,4.2,14.8-30.6,14.8S63.2,361.5,63.2,361.5z"/>
			<path fill="#C6C6C6" d="M82.7,336.5c1.1-0.4,1.7-2.8,1.7-2.8s9.4,0.1,9.4,0c0,0.1,9.4,0,9.4,0s0.6,2.4,1.7,2.8s20.3,2.9,15.8,9.7
				c-1.4,2-9.9,5.1-26.9,5.8c-19.6,0-25.5-3.8-26.9-5.8C62.4,339.4,81.6,336.9,82.7,336.5z"/>
			<path opacity="6.000000e-02" fill="#004B91" d="M93.8,333.6c0,0.1-9.4,0-9.4,0s-0.6,2.4-1.7,2.8s-20.3,2.9-15.8,9.7
				c1.4,2,7.2,5.8,26.9,5.8V333.6z"/>
			<path fill="#C9C9C9" d="M122.4,255.9h20.7c-0.1,0.5-5.7,52.1-37.3,67.2l-1.5-2.8c0,0,28.1-13,28.1-57.6h-11.4L122.4,255.9z"/>
			<path fill="#C9C9C9" d="M65.6,255.9H44.9c0.1,0.5,5.7,52.1,37.3,67.2l1.5-2.8c0,0-28.1-13-28.1-57.6H67L65.6,255.9z"/>
			<path fill="#D3D3D3" d="M62.1,255.9c2.2-2.7,31.9-3,31.9-3s29.7,0.3,31.9,3s-2.9,33.4-11.1,40.7c-8.2,7.3-9.7,19.9-9.7,19.9
				s2.6,14.7-1.5,17.2c0,0-2,1.6-9.7,1.6s-9.7-1.6-9.7-1.6c-4.1-2.6-1.5-17.2-1.5-17.2s-1.5-12.6-9.7-19.9
				C65,289.2,60,258.6,62.1,255.9z"/>
			<path opacity="8.000000e-02" fill="#00101F" d="M94,252.9c0,0-29.7,0.3-31.9,3c-2.2,2.7,2.9,33.4,11.1,40.7
				c8.2,7.3,9.7,19.9,9.7,19.9s-2.6,14.7,1.5,17.2c0,0,2,1.6,9.7,1.6V252.9z"/>
		</g>
	</g>
	<g>
		
			<linearGradient id="SVGID_6_" gradientUnits="userSpaceOnUse" x1="-14849.0293" y1="6043.2954" x2="-14849.0293" y2="6151.7266" gradientTransform="matrix(-0.8009 0.256 -0.3045 -0.9525 -9971.293 9969.5947)">
			<stop  offset="0" style="stop-color:#FFFFFF"/>
			<stop  offset="1" style="stop-color:#FFFFFF;stop-opacity:0"/>
		</linearGradient>
		<path fill="url(#SVGID_6_)" d="M11.3,305.7c-16.2-50.8-14.9-96.6,3.1-102.3c17.9-5.7,45.6,30.8,61.8,81.6s14.9,96.6-3.1,102.3
			C55.2,393,27.6,356.5,11.3,305.7z"/>
		
			<linearGradient id="SVGID_7_" gradientUnits="userSpaceOnUse" x1="-10856.707" y1="10618.9512" x2="-10856.707" y2="10727.3828" gradientTransform="matrix(-0.7473 -0.3853 0.4582 -0.8888 -12931.6348 5659.5161)">
			<stop  offset="0" style="stop-color:#FFFFFF"/>
			<stop  offset="1" style="stop-color:#FFFFFF;stop-opacity:0"/>
		</linearGradient>
		<path fill="url(#SVGID_7_)" d="M73.7,279.7c24.4-47.4,57.8-78.8,74.5-70.2s10.5,54-13.9,101.4s-57.8,78.8-74.5,70.2
			S49.3,327.1,73.7,279.7z"/>
	</g>
	<g>
		<rect x="35.7" y="380.5" fill="#9E5C26" width="107.4" height="6.9"/>
		<rect x="35.6" y="386.6" fill="#382216" width="107.5" height="2"/>
		<polygon fill="#7F4921" points="53.1,387.4 35.7,387.4 35.7,380.5 73.1,380.5 		"/>
	</g>
	
		<linearGradient id="SVGID_8_" gradientUnits="userSpaceOnUse" x1="892.8612" y1="1541.3209" x2="892.8612" y2="1746.073" gradientTransform="matrix(0.9683 -0.2499 0.2499 0.9683 -1179.8436 -1306.7714)">
		<stop  offset="0" style="stop-color:#FFFFFF"/>
		<stop  offset="1" style="stop-color:#FFFFFF;stop-opacity:0"/>
	</linearGradient>
	<path fill="url(#SVGID_8_)" d="M201.6,167.1c25.1,97.5,12.4,185-28.5,195.6S78.6,302.8,53.5,205.3S41.1,20.3,82,9.7
		S176.5,69.6,201.6,167.1z"/>
	
		<linearGradient id="SVGID_9_" gradientUnits="userSpaceOnUse" x1="-1001.0368" y1="-1702.3346" x2="-1001.0368" y2="-1497.5824" gradientTransform="matrix(0.959 0.2834 -0.2834 0.959 972.9218 1885.9211)">
		<stop  offset="0" style="stop-color:#FFFFFF"/>
		<stop  offset="1" style="stop-color:#FFFFFF;stop-opacity:0"/>
	</linearGradient>
	<path fill="url(#SVGID_9_)" d="M503.2,212.9c-28.5,96.5-84.5,165.1-125,153.1c-40.5-12-50.2-99.9-21.7-196.4S441,4.5,481.5,16.4
		S531.8,116.4,503.2,212.9z"/>
	
		<linearGradient id="SVGID_10_" gradientUnits="userSpaceOnUse" x1="-1236.5875" y1="-1872.3612" x2="-1236.5875" y2="-1667.6091" gradientTransform="matrix(0.9495 0.3139 -0.3139 0.9495 1029.9365 2121.2751)">
		<stop  offset="0" style="stop-color:#FFFFFF"/>
		<stop  offset="1" style="stop-color:#FFFFFF;stop-opacity:0"/>
	</linearGradient>
	<path fill="url(#SVGID_10_)" d="M443.7,198.7c-31.6,95.6-89.7,162.3-129.8,149c-40.1-13.3-47-101.5-15.4-197s89.7-162.3,129.8-149
		S475.3,103.2,443.7,198.7z"/>
	
		<linearGradient id="SVGID_11_" gradientUnits="userSpaceOnUse" x1="1299.8413" y1="3217.0581" x2="1299.8413" y2="3421.8103" gradientTransform="matrix(0.8933 -0.4494 0.4494 0.8933 -2507.2478 -2329.3232)">
		<stop  offset="0" style="stop-color:#FFFFFF"/>
		<stop  offset="1" style="stop-color:#FFFFFF;stop-opacity:0"/>
	</linearGradient>
	<path fill="url(#SVGID_11_)" d="M271.9,132.3c45.2,89.9,51.3,178.2,13.6,197.2c-37.7,19-105-38.5-150.2-128.4S83.9,22.9,121.6,3.9
		S226.7,42.4,271.9,132.3z"/>
</g>
</svg>
