<?xml version="1.0" encoding="utf-8"?>
<!-- Generator: Adobe Illustrator 17.1.0, SVG Export Plug-In . SVG Version: 6.00 Build 0)  -->
<!DOCTYPE svg PUBLIC "-//W3C//DTD SVG 1.1//EN" "http://www.w3.org/Graphics/SVG/1.1/DTD/svg11.dtd">
<svg version="1.1" id="Layer_1" xmlns="http://www.w3.org/2000/svg" xmlns:xlink="http://www.w3.org/1999/xlink" x="0px" y="0px"
	 viewBox="0 0 1150.4 175.5" enable-background="new 0 0 1150.4 175.5" xml:space="preserve">
<path fill="#CC7723" d="M1028.5,130.2c0,0,70.7,11.8,100.7,2.3l-27.5-13.3l33.2-24.2c0,0-61-7.2-90.7-19
	C1044.2,76.1,1027.2,115.7,1028.5,130.2z"/>
<g>
	<path fill="#939598" d="M66.7,110.3l0.1,22.1l5.6,0.6l2.5-21.7C75,111.2,73.9,107.8,66.7,110.3z"/>
	<circle fill="#231F20" cx="66.8" cy="146" r="8"/>
	<path fill="#FBB040" d="M90.5,139c0,0-11.4-9-20.8-9c-9.4,0-16.4,4.3-16.3,8.8C53.6,143.3,72.1,154.3,90.5,139z"/>
	<polygon fill="#BCBEC0" points="69.8,109.5 69.7,130 71.2,130 72,109.7 	"/>
	<path fill="#E29B3D" d="M53.4,138.8c0,0,16.9,6.1,37,0.2C90.5,139,67.8,157.7,53.4,138.8z"/>
	<path fill="#FBB040" d="M53.2,72.8l49.9-3.7l4.8-14.3l199.1,9L320.8,16l29.7,3.2l6.4,65.3c0,0-172,38.2-303.7,27.1
		C53.2,111.6,64.3,94,53.2,72.8z"/>
	<path fill="#808285" d="M53.2,111.6c0,0,14.3-20.5,0-38.8c0,0-13.6,9.2-13.6,19.4S53.2,111.6,53.2,111.6z"/>
	<polygon fill="#21409A" points="249.2,61.2 335.1,80.8 337,17.7 320.8,16 307,63.8 	"/>
	<path fill="#21409A" d="M197.8,58.8c0,0,37.6-14.2,48.5-23.7h-64.1L77.8,58.8l28,2.2l2.1-6.3L197.8,58.8z"/>
	<path fill="#132654" d="M246.3,35.1c0,0-46-9.9-66.5-6.7c0,0-3.9,3.9,5,6.7H246.3z"/>
	<path fill="#3C71F7" d="M79.3,58.9l105.4-23.8c0,0-11.1-4.1-2.5-7L79.3,56C79.3,56,76.1,56.9,79.3,58.9z"/>
	<path fill="#F9D7AA" d="M55.3,107.1l181-2.5c0,0-116.7,17.1-183.1,7L55.3,107.1z"/>
	<path fill="#1C75BC" d="M321.6,78.8l72.2,1.9C393.8,80.8,352.7,71.6,321.6,78.8z"/>
	<path fill="#00AEEF" d="M166,58.9V76c0,0,14.6-1.1,22-3.2l-6.6-11.7L166,58.9z"/>
	<polygon fill="#E29B3D" points="119.6,55.3 109.5,106.3 158.1,90 162,57.7 	"/>
	<polygon fill="#00AEEF" points="119.6,76 155.1,78.4 156.5,58.9 122,57.7 	"/>
	<path fill="#BCBEC0" d="M42.6,101.1c0,0,8.3-8.6-0.2-17.4l-17.1,7.2L42.6,101.1z"/>
	<ellipse opacity="0.52" fill="#BCBEC0" cx="38.6" cy="87" rx="24.7" ry="46.9"/>
	<path fill="#00AEEF" d="M86.7,70.3l24.3,5.1l6.1-20.2c0,0-11.8-1.7-17,0.7C94.9,58.3,86.7,70.3,86.7,70.3z"/>
	<path fill="#939598" d="M151.2,106.3l2.7,21.9h5.7v-21.9C159.6,106.3,158.2,103,151.2,106.3z"/>
	<circle fill="#231F20" cx="155.5" cy="141.8" r="8"/>
	<path fill="#FBB040" d="M178.2,132.1c0,0-12.4-7.6-21.7-6.5s-15.8,6.2-15.1,10.6S161.7,149.4,178.2,132.1z"/>
	<polygon fill="#E29B3D" points="307.2,83.1 315.2,92.6 335,88.9 335,81.8 	"/>
	<polygon fill="#BCBEC0" points="154.3,105.2 156.5,125.5 158,125.4 156.5,105.2 	"/>
	<path fill="#E29B3D" d="M141.3,136.2c0,0,17.5,4.1,36.8-4.1C178.2,132.1,157.8,153.3,141.3,136.2z"/>
	<polygon fill="#3C71F7" points="59.4,94.6 356.9,80.8 212.6,72.8 208.1,80.8 59.6,88.9 	"/>
	<polygon fill="#21409A" points="113.5,86 112.2,92.4 158.9,90 158.9,83.7 	"/>
	<polygon fill="#E29B3D" points="307.2,83.1 207.4,87.7 273.4,99.5 316.5,92.4 	"/>
	<polygon fill="#F9C580" points="339.8,18 350.5,19.2 356.1,76 346.8,25.5 	"/>
	<path fill="#F9C580" d="M53.4,73.2l33.2-2.9l14.4,3.1l-43.8,6.7C57.3,80.1,55,74.5,53.4,73.2z"/>
	<path opacity="0.35" fill="#231F20" d="M113.1,54.9l65.1,56.7c0,0,46.2-5.5,56-6.7c9.8-1.2,2.1-0.3,2.1-0.3l-35.8-45.6L113.1,54.9z
		"/>
	<polygon fill="#939598" points="112.2,106.3 152,48.1 159.7,48.1 119.6,106.3 	"/>
	<polygon fill="#BCBEC0" points="154.3,48.1 115.1,106.3 117.6,106.3 157.8,48.1 	"/>
</g>
<path fill="#FBB040" d="M478.7,111.6c0,0,77.3,23.1,162.1-2.2S750.7,72,831,91.3s183.3,30.4,249.2,25.2c0,0,12-23.3,0-58.9
	c0,0-102.3-3.9-147.7-17.5S798.4,2.8,723.4,18S572.7,72.5,436.3,35.1l42.4,40.1l-59.8,31.1C418.9,106.3,456.4,106.7,478.7,111.6z"/>
<path fill="#7A440F" d="M1080.2,116.5l-51.7,13.7c0,0-2.3-3.7-1.2-12.7C1027.4,117.6,1067.6,118.3,1080.2,116.5z"/>
<g>
	<path fill="#21409A" d="M558.9,61.2l19.4-0.9l0.3,5.7l-6.5,0.3l1.5,34.2l-6.3,0.3l-1.5-34.2l-6.5,0.3L558.9,61.2z"/>
	<path fill="#21409A" d="M588.1,76.4l8.6-0.8l0.5,5.7l-8.6,0.8l1,11.6l10.8-1l0.5,5.7l-17,1.5l-3.5-39.7l17-1.5l0.5,5.7l-10.8,1
		L588.1,76.4z"/>
	<path fill="#21409A" d="M617.8,72.9l8.5-1.4l0.9,5.6l-8.5,1.4l1.9,11.5l10.7-1.8l0.9,5.6l-16.9,2.8l-6.5-39.4l16.9-2.8l0.9,5.6
		L616,61.9L617.8,72.9z"/>
	<path fill="#21409A" d="M648.9,49.2l-1.9,20.4L658.4,88l-6.4,1.5l-8.6-14.2L642,91.8l-5.7,1.3l2.1-21.6l-10.8-17.4l6.3-1.5l8,13.2
		l1.3-15.4L648.9,49.2z"/>
	<path fill="#21409A" d="M649.3,49.1l18.4-6l1.8,5.4l-6.2,2l10.6,32.5l-6,1.9l-10.6-32.5l-6.2,2L649.3,49.1z"/>
	<path fill="#21409A" d="M694.8,77c-0.6-0.9-1-1.5-1.8-4.6l-1.5-6.1c-0.9-3.6-2.5-4.6-5.2-3.9l-2.1,0.5l4,15.7l-6.1,1.5l-9.8-38.7
		l9.2-2.3c6.3-1.6,9.7,0.7,11.3,6.6l0.8,3c1,4,0.4,6.9-2,8.9c3.4,0.5,5.1,3.2,6.1,7.2l1.5,6c0.5,1.9,0.9,3.2,1.8,4.5L694.8,77z
		 M679.8,45.5l3,11.9l2.4-0.6c2.3-0.6,3.4-1.9,2.6-5l-1-3.8c-0.7-2.8-1.9-3.7-4.1-3.2L679.8,45.5z"/>
	<path fill="#21409A" d="M723.5,71.8l-6.3,1l-2.2-7l-7.6,1.2l0.1,7.3l-5.7,0.9l0.1-40.4l9.1-1.4L723.5,71.8z M707.4,61.5l6-0.9
		l-6.1-19.5L707.4,61.5z"/>
	<path fill="#21409A" d="M729,42.4l2.3,28.8l-5.6,0.4l-3.1-39.8l7.8-0.6l8.3,23.3l-1.9-23.8l5.6-0.4l3.1,39.8l-6.4,0.5L729,42.4z
		 M736.5,22.6l3.2,1.9c-0.9,3-2.5,4.1-4.5,4.2c-2.4,0.2-3.5-1.2-5.2-1c-1,0.1-1.7,0.4-2.3,1.8l-3.2-1.9c0.8-3,2.5-4.1,4.5-4.2
		c2.4-0.2,3.5,1.2,5.2,1C735.2,24.4,735.9,24.1,736.5,22.6z"/>
	<path fill="#21409A" d="M769.7,69.6l-6.3,0.1l-1.2-7.2l-7.7,0.1l-1,7.3l-5.8,0.1l5.7-40l9.2-0.2L769.7,69.6z M755.2,57.2l6-0.1
		L757.8,37L755.2,57.2z"/>
	<path fill="#21409A" d="M785.8,58.6l5.4-28.1l8.7,0.3l-1.6,39.9l-5.9-0.2l1.1-28.6l-5.5,28.4l-5.9-0.2l-3.5-28.4l-1.1,28.2
		l-5.5-0.2l1.6-39.9l8.7,0.3L785.8,58.6z"/>
	<path fill="#21409A" d="M804.5,40.7c0.5-6.4,4.2-9.7,10.3-9.2c6.1,0.5,9.2,4.4,8.6,10.8L821.7,63c-0.5,6.4-4.2,9.7-10.3,9.2
		c-6.1-0.5-9.2-4.4-8.6-10.8L804.5,40.7z M808.9,62.3c-0.2,2.8,0.9,4,2.9,4.2c2,0.2,3.3-0.8,3.6-3.6l1.8-21.5c0.2-2.8-0.9-4-2.9-4.2
		c-2-0.2-3.3,0.8-3.6,3.6L808.9,62.3z"/>
	<path fill="#21409A" d="M837.6,33.8c6.1,0.7,8.8,4.7,8,11l-0.1,1.2l-5.9-0.7l0.2-1.6c0.3-2.8-0.7-4-2.7-4.3c-2-0.2-3.2,0.7-3.6,3.5
		c-0.9,8.2,11.1,11.1,9.8,22.4c-0.7,6.3-4.3,9.6-10.4,8.9c-6.1-0.7-8.9-4.7-8.1-11l0.3-2.4l5.9,0.7l-0.3,2.8c-0.3,2.8,0.8,4,2.8,4.2
		c2,0.2,3.3-0.6,3.7-3.5c0.9-8.2-11.1-11.1-9.8-22.4C828,36.4,831.6,33.1,837.6,33.8z"/>
	<path fill="#21409A" d="M877,49.6l-0.8,5.1c-0.9,6.3-4.5,9.3-10.7,8.4l-2.9-0.4l-2.2,14.8l-6.2-0.9l5.8-39.5l9.1,1.3
		C875.4,39.4,878,43.3,877,49.6z M865.5,43.7l-2,13.4l2.9,0.4c2,0.3,3.2-0.5,3.6-3.3l0.9-5.9c0.4-2.8-0.5-3.9-2.5-4.2L865.5,43.7z"
		/>
	<path fill="#21409A" d="M888.1,41.4l-5,30.4c-0.5,2.8,0.6,4,2.6,4.4c2,0.3,3.4-0.5,3.8-3.3l5-30.4l5.8,1l-5,30
		c-1,6.3-4.8,9.4-10.9,8.4c-6.1-1-8.6-5.1-7.6-11.4l5-30L888.1,41.4z"/>
	<path fill="#21409A" d="M904.9,44.3l6.2,1.1l-6,33.7l10.2,1.8l-1,5.6l-16.3-2.9L904.9,44.3z"/>
	<path fill="#21409A" d="M924.1,47.8l6.2,1.2L923,88.1l-6.2-1.2L924.1,47.8z"/>
	<path fill="#21409A" d="M934.9,49.8l9.7,1.9c6.2,1.2,8.5,5.2,7.3,11.5l-3.8,19.8c-1.2,6.3-4.9,9.1-11,7.9l-9.7-1.9L934.9,49.8z
		 M940,56.5l-5.4,28l3.5,0.7c2,0.4,3.3-0.4,3.9-3.2l3.9-20.4c0.5-2.8-0.4-4-2.4-4.4L940,56.5z"/>
	<path fill="#21409A" d="M955.5,63.5c1.2-6.3,5.2-9.2,11.3-8c6,1.2,8.6,5.4,7.4,11.7l-4,20.4c-1.2,6.3-5.2,9.2-11.3,8
		c-6-1.2-8.6-5.4-7.4-11.7L955.5,63.5z M957.6,85.5c-0.5,2.8,0.5,4.1,2.4,4.5c2,0.4,3.4-0.4,3.9-3.2l4.1-21.1
		c0.5-2.8-0.5-4.1-2.4-4.5c-2-0.4-3.4,0.4-3.9,3.2L957.6,85.5z"/>
</g>
<polyline fill="none" stroke="#231F20" stroke-miterlimit="10" points="451.9,43.5 356.1,76 444.9,97.9 "/>
<circle fill="#231F20" cx="451.9" cy="44.6" r="3.3"/>
<circle fill="#231F20" cx="445.2" cy="97.9" r="3.3"/>
<path fill="#FFD297" d="M1076.4,111.7c0,0,10-27.7,0-50.5c0,0-63.5-2.1-88.5-6c0,0,78.7,10.4,84,11.9
	C1077.1,68.7,1076.4,111.7,1076.4,111.7z"/>
<path fill="#FFD297" d="M455.2,94.6L490.5,76l-28-28.9c0,0,36.7,8,73.3,7.4c0,0-43,3.6-59.7,0L510.5,76
	C510.5,76,465.2,94.6,455.2,94.6z"/>
<path fill="#FFD297" d="M865.7,94.6c0,0-104.1-41.5-204.2,5.4C661.5,100,754.1,44.7,865.7,94.6z"/>
<path fill="#FFD297" d="M1058.9,111.7c0,0-90-1.2-147-13.8C911.9,97.9,964.4,117.4,1058.9,111.7z"/>
</svg>
