<?xml version="1.0" encoding="utf-8"?>
<!-- Generator: Adobe Illustrator 18.1.0, SVG Export Plug-In . SVG Version: 6.00 Build 0)  -->
<!DOCTYPE svg PUBLIC "-//W3C//DTD SVG 1.1//EN" "http://www.w3.org/Graphics/SVG/1.1/DTD/svg11.dtd">
<svg version="1.1" id="Layer_1" xmlns="http://www.w3.org/2000/svg" xmlns:xlink="http://www.w3.org/1999/xlink" x="0px" y="0px"
	 viewBox="0 129.5 130 33.5" enable-background="new 0 129.5 130 33.5" xml:space="preserve">
<g>
	<path fill="#D1D3D4" d="M3.6,159.6l27,2l90.3-17.2c0,0,9.3-2.9,9-6.3c0,0-7-6.5-16.9-4.4l-84.7,15.5l-23.9,8.5L3.6,159.6z"/>
	<path fill="#808285" d="M3.6,159.6l4.1,0.3c0,0,1.2-2.2-0.5-3.2l-3.2,1.1C4.1,157.7,3.1,158.7,3.6,159.6z"/>
	<path fill="#FFFFFF" d="M8.1,158.2l121.8-20.1c0,0-5.8-5.2-14.3-4.8l-87.3,15.9l-21.1,7.5C7.2,156.7,8.2,157.2,8.1,158.2z"/>
	<polygon fill="#2B3990" points="11.3,155.2 28,149.3 23.7,148.9 4.8,136.1 0.2,136.8 	"/>
	<polygon fill="#A7A9AC" points="57.3,155.1 65.6,153.3 67.7,149.8 54.1,142.4 57.3,142 82.9,146 71.9,148.7 80.8,149.9 82.7,151.7 
			"/>
	<path fill="#FFFFFF" d="M93,144.2c0,0,3.1,3.5,1.3,8.5l-8.2,0.6c0,0,0.7-4.6-0.9-6.1L93,144.2z"/>
	<path fill="#6E6256" d="M86.1,153.3l-2.2-0.8l-0.8-3.8l2.1-1.5C85.2,147.2,87.4,150,86.1,153.3z"/>
	<path fill="#A7A9AC" d="M94.3,152.7l1.8-1c0,0,1.3-4.4-1.1-7.1l-2-0.4C93,144.2,96,147.9,94.3,152.7z"/>
	<path fill="#58595B" d="M83.1,148.7l-4,2.3l4.8,1.5C83.8,152.6,84.1,150.1,83.1,148.7z"/>
	<circle fill="#262262" cx="116.3" cy="137.3" r="0.6"/>
	<circle fill="#262262" cx="113.7" cy="137.8" r="0.6"/>
	<circle fill="#262262" cx="111.1" cy="138.3" r="0.6"/>
	<circle fill="#262262" cx="108.4" cy="138.8" r="0.6"/>
	<circle fill="#262262" cx="105.8" cy="139.3" r="0.6"/>
	<circle fill="#262262" cx="103.1" cy="139.8" r="0.6"/>
	<circle fill="#262262" cx="100.5" cy="140.3" r="0.6"/>
	<circle fill="#262262" cx="97.9" cy="140.8" r="0.6"/>
	<circle fill="#262262" cx="95.2" cy="141.3" r="0.6"/>
	<circle fill="#262262" cx="92.6" cy="141.8" r="0.6"/>
	<circle fill="#262262" cx="89.9" cy="142.3" r="0.6"/>
	<circle fill="#262262" cx="87.3" cy="142.8" r="0.6"/>
	<circle fill="#262262" cx="84.7" cy="143.3" r="0.6"/>
	<circle fill="#262262" cx="82" cy="143.8" r="0.6"/>
	<circle fill="#262262" cx="79.4" cy="144.3" r="0.6"/>
	<circle fill="#262262" cx="62.1" cy="147.6" r="0.6"/>
	<circle fill="#262262" cx="59.4" cy="148.1" r="0.6"/>
	<circle fill="#262262" cx="56.8" cy="148.6" r="0.6"/>
	<circle fill="#262262" cx="54.1" cy="149.1" r="0.6"/>
	<circle fill="#262262" cx="51.5" cy="149.6" r="0.6"/>
	<circle fill="#262262" cx="48.9" cy="150.1" r="0.6"/>
	<circle fill="#262262" cx="46.2" cy="150.6" r="0.6"/>
	<circle fill="#262262" cx="43.6" cy="151.1" r="0.6"/>
	<circle fill="#262262" cx="40.9" cy="151.6" r="0.6"/>
	<circle fill="#262262" cx="38.3" cy="152.1" r="0.6"/>
	<circle fill="#262262" cx="35.7" cy="152.6" r="0.6"/>
	<circle fill="#262262" cx="33" cy="153.1" r="0.6"/>
	<path fill="#262262" d="M124.9,135c0,0-2.9,0-2.5,1.2c0.5,1.2,4.1-0.4,4.1-0.4L124.9,135z"/>
	<polygon fill="#FFFFFF" points="8.2,150 15.5,143.4 4.8,136.1 0.2,136.8 	"/>
	<polygon fill="#BE1E2D" points="7.1,148.3 14.1,142.4 12.6,141.3 6.2,146.6 	"/>
	<polygon fill="#BE1E2D" points="5.3,145.1 11.2,140.5 9.8,139.5 4.3,143.6 	"/>
	<polygon fill="#BE1E2D" points="3.5,142.2 8.4,138.5 7.1,137.7 2.5,140.6 	"/>
	<polygon fill="#BE1E2D" points="1.4,138.8 5.6,136.7 4.8,136.1 0.2,136.8 	"/>
	<polygon fill="#FFFFFF" points="15.9,145.7 16.4,145.2 16.4,145.9 17,146.3 16.3,146.5 16.1,147.1 15.7,146.6 15.1,146.6 
		15.5,146.1 15.3,145.4 	"/>
	<polygon fill="#FFFFFF" points="13.1,147.1 13.7,146.7 13.7,147.4 14.2,147.8 13.6,147.9 13.4,148.6 13,148 12.3,148 12.7,147.5 
		12.5,146.9 	"/>
	<polygon fill="#FFFFFF" points="10.8,149.1 11.4,148.6 11.3,149.3 11.9,149.7 11.2,149.9 11,150.6 10.6,150 10,150 10.4,149.5 
		10.2,148.8 	"/>
	<polygon fill="#FFFFFF" points="17.9,147.2 18.5,146.8 18.5,147.5 19,147.9 18.4,148.1 18.2,148.7 17.8,148.2 17.1,148.2 
		17.5,147.6 17.3,147 	"/>
	<polygon fill="#FFFFFF" points="15.2,148.6 15.7,148.2 15.7,148.9 16.2,149.3 15.6,149.5 15.4,150.2 15,149.6 14.3,149.6 
		14.8,149.1 14.5,148.4 	"/>
	<polygon fill="#FFFFFF" points="12.9,150.6 13.4,150.2 13.4,150.9 13.9,151.3 13.3,151.5 13.1,152.1 12.7,151.6 12,151.6 12.4,151 
		12.2,150.4 	"/>
</g>
</svg>
