<?xml version="1.0" encoding="utf-8"?>
<!-- Generator: Adobe Illustrator 18.1.0, SVG Export Plug-In . SVG Version: 6.00 Build 0)  -->
<!DOCTYPE svg PUBLIC "-//W3C//DTD SVG 1.1//EN" "http://www.w3.org/Graphics/SVG/1.1/DTD/svg11.dtd">
<svg version="1.1" id="Layer_1" xmlns="http://www.w3.org/2000/svg" xmlns:xlink="http://www.w3.org/1999/xlink" x="0px" y="0px"
	 viewBox="0 0 2104 470" enable-background="new 0 0 2104 470" xml:space="preserve">
<rect x="275.5" y="327.4" fill="#1C75BC" width="1620.4" height="142.6"/>
<path fill="#B6D1C3" d="M436.2,470c-14.9-43.2-82.1-164.6-225.1-164.6C103.4,305.4,1.9,390.8,0.5,470H436.2z"/>
<path fill="#B6D1C3" d="M2104.5,470c-14.4-42-79.7-159.8-218.6-159.8c-104.5,0-203.1,82.8-204.4,159.8H2104.5z"/>
<g>
	<g>
		<rect x="899.2" y="61" fill="#0E111D" width="78.6" height="12.9"/>
		<polygon fill="#E6E7E8" points="1010.3,87.4 899.2,87.4 899.2,73.9 1005.9,73.9 		"/>
		<polygon fill="#717E92" points="1027.3,91.4 899.2,91.4 899.2,86.3 1024.4,86.3 		"/>
		<polygon fill="#0E111D" points="1027.3,91.4 1022.8,103.1 899.2,103.1 899.2,91.4 		"/>
		<rect x="899.2" y="57.4" fill="#717E92" width="82.2" height="3.6"/>
		<polygon fill="#E6E7E8" points="1031.9,113 899.2,113 899.2,103.1 1030,103.1 		"/>
		<polygon fill="#2A3B57" points="1017.3,113 1019.1,122.7 1024.5,122.7 1031.9,113 		"/>
		<polygon fill="#2A3B57" points="981.4,61 977.8,70.7 977.8,61 		"/>
		<polygon fill="#E6E7E8" points="899.2,57.4 899.2,49.8 970.7,49.8 981.4,57.4 		"/>
		<rect x="913.4" y="91.4" fill="#E6E7E8" width="2.1" height="11.6"/>
		<rect x="925.1" y="91.4" fill="#E6E7E8" width="2.1" height="11.6"/>
		<rect x="936.9" y="91.4" fill="#E6E7E8" width="2.1" height="11.6"/>
		<rect x="948.6" y="91.4" fill="#E6E7E8" width="2.1" height="11.6"/>
		<rect x="960.4" y="91.4" fill="#E6E7E8" width="2.1" height="11.6"/>
		<rect x="972" y="91.4" fill="#E6E7E8" width="2.1" height="11.6"/>
		<rect x="982.8" y="91.4" fill="#E6E7E8" width="2.1" height="11.6"/>
		<rect x="994.5" y="91.4" fill="#E6E7E8" width="2.1" height="11.6"/>
		<polygon fill="#A6A4A5" points="992.8,147.6 1025.5,147.6 1017.3,113 899.2,113 899.2,137.3 		"/>
		<polygon fill="#2A3B57" points="1022.8,159.8 1025.5,147.6 992.8,147.6 		"/>
		<path fill="#4C6090" d="M916.9,129.7v-3.3c0,0,85.7,20.5,107.6,34.4l-5.4,22.2C1019.1,183,1003.9,158.3,916.9,129.7z"/>
		<path fill="#23353E" d="M899.2,129.2v197.5l17.8-197.1C916.9,129.7,901.7,128.4,899.2,129.2z"/>
		<path fill="#FEFFFF" d="M899.2,129c0,0,16.3,0.3,17.8,0.7l0.2-3.3c0,0-14.8-2.2-18-1.9V129z"/>
		<path fill="#2F465A" d="M899.2,326.1l17.8-196.4c0,0,80,23.8,102.2,52l-39,144.4H899.2z"/>
		<polygon fill="#060E26" points="899.8,318.7 899.2,327.4 980.1,327.4 982.1,318.7 		"/>
		<circle fill="#E6E7E8" cx="967.9" cy="30.8" r="8.1"/>
		<rect x="965.5" y="36.8" fill="#E6E7E8" width="3" height="12.9"/>
		<rect x="928.7" y="36" fill="#E6E7E8" width="2.8" height="15.4"/>
		<rect x="913.4" y="0" fill="#E6E7E8" width="1.1" height="51.4"/>
		<rect x="941.4" y="113" fill="#0E111D" width="9.3" height="9.7"/>
		<rect x="954.5" y="113" fill="#0E111D" width="9.3" height="9.7"/>
		<rect x="966.1" y="113" fill="#0E111D" width="9.3" height="9.7"/>
		<rect x="979.2" y="113" fill="#0E111D" width="9.3" height="9.7"/>
		<polyline fill="#717E92" points="958.4,137.2 1020.5,137.2 1015.4,129.7 932.7,129.7 		"/>
		<rect x="899.2" y="113" fill="#717E92" width="41.1" height="4.9"/>
		<rect x="990.5" y="113" fill="#717E92" width="24.8" height="6.8"/>
		<rect x="901.6" y="30.8" fill="#E6E7E8" width="1.9" height="22.7"/>
		<rect x="821" y="60.9" fill="#0E111D" width="78.6" height="12.9"/>
		<polygon fill="#E6E7E8" points="788.4,87.4 899.6,87.4 899.6,73.8 792.9,73.8 		"/>
		<polygon fill="#717E92" points="771.5,91.4 899.6,91.4 899.6,86.3 774.4,86.3 		"/>
		<polygon fill="#0E111D" points="771.5,91.4 775.9,103 899.6,103 899.6,91.4 		"/>
		<rect x="817.4" y="57.3" fill="#717E92" width="82.2" height="3.6"/>
		<polygon fill="#E6E7E8" points="766.8,113 899.6,113 899.6,103 768.7,103 		"/>
		<polygon fill="#2A3B57" points="781.4,113 779.6,122.7 774.2,122.7 766.8,113 		"/>
		<polygon fill="#2A3B57" points="817.4,60.9 821,70.6 821,60.9 		"/>
		<polygon fill="#E6E7E8" points="899.6,57.3 899.6,49.7 828,49.7 817.4,57.3 		"/>
		<rect x="883.2" y="91.4" fill="#E6E7E8" width="2.1" height="11.6"/>
		<rect x="871.6" y="91.4" fill="#E6E7E8" width="2.1" height="11.6"/>
		<rect x="859.7" y="91.4" fill="#E6E7E8" width="2.1" height="11.6"/>
		<rect x="848.1" y="91.4" fill="#E6E7E8" width="2.1" height="11.6"/>
		<rect x="836.2" y="91.4" fill="#E6E7E8" width="2.1" height="11.6"/>
		<rect x="824.6" y="91.4" fill="#E6E7E8" width="2.1" height="11.6"/>
		<rect x="813.8" y="91.4" fill="#E6E7E8" width="2.1" height="11.6"/>
		<rect x="802.2" y="91.4" fill="#E6E7E8" width="2.1" height="11.6"/>
		<polygon fill="#A6A4A5" points="805.9,147.6 773.3,147.6 781.4,113 899.6,113 899.6,137.3 		"/>
		<polygon fill="#2A3B57" points="776,159.7 773.3,147.6 805.9,147.6 		"/>
		<path fill="#EDE9E5" d="M881.8,129.7v-3.3c0,0-85.7,20.5-107.6,34.4l5.4,22.2C779.6,183,794.9,158.2,881.8,129.7z"/>
		<path fill="#878C8C" d="M899.6,129.2v197.5l-17.8-197.1C881.8,129.7,897.1,128.4,899.6,129.2z"/>
		<path fill="#FEFFFF" d="M899.6,128.9c0,0-16.3,0.3-17.8,0.7l-0.2-3.3c0,0,14.8-2.2,18-1.9V128.9z"/>
		<path fill="#CBC9C4" d="M899.6,326.1l-17.8-196.4c0,0-80,23.8-102.2,52l39,144.4H899.6z"/>
		<polygon fill="#1F3752" points="898.9,318.6 899.7,327.4 818.7,327.4 816.7,318.6 		"/>
		<circle fill="#E6E7E8" cx="830.8" cy="30.8" r="8.1"/>
		<rect x="830.2" y="36.8" fill="#E6E7E8" width="3" height="12.9"/>
		<rect x="867.3" y="35.9" fill="#E6E7E8" width="2.8" height="15.4"/>
		<rect x="884.3" y="0" fill="#E6E7E8" width="1.1" height="51.4"/>
		<rect x="848.1" y="113" fill="#0E111D" width="9.3" height="9.7"/>
		<rect x="835" y="113" fill="#0E111D" width="9.3" height="9.7"/>
		<rect x="823.4" y="113" fill="#0E111D" width="9.3" height="9.7"/>
		<rect x="810.2" y="113" fill="#0E111D" width="9.3" height="9.7"/>
		<polyline fill="#717E92" points="840.4,137.1 778.3,137.1 783.3,129.7 866.1,129.7 		"/>
		<rect x="858.5" y="113" fill="#717E92" width="41.1" height="4.9"/>
		<rect x="783.6" y="113" fill="#717E92" width="24.8" height="6.8"/>
		<rect x="895.2" y="30.8" fill="#E6E7E8" width="1.9" height="22.7"/>
	</g>
	<path opacity="0.35" fill="#231F20" d="M982.7,91.4L927.4,129l-27.8-4.6l-18,1.9c0,0-39.9,7.5-71.4,19.6c0,0-17.7-36.9-14.3-54.5
		H982.7z"/>
</g>
</svg>
