<?xml version="1.0" encoding="utf-8"?>
<!-- Generator: Adobe Illustrator 18.1.0, SVG Export Plug-In . SVG Version: 6.00 Build 0)  -->
<!DOCTYPE svg PUBLIC "-//W3C//DTD SVG 1.1//EN" "http://www.w3.org/Graphics/SVG/1.1/DTD/svg11.dtd">
<svg version="1.1" id="Layer_1" xmlns="http://www.w3.org/2000/svg" xmlns:xlink="http://www.w3.org/1999/xlink" x="0px" y="0px"
	 viewBox="0 0 520 389" enable-background="new 0 0 520 389" xml:space="preserve">
<g>
	<g>
		<rect x="165.9" y="82" fill="#ECC7A5" width="226" height="302"/>
		<path fill="#9E5C26" d="M388.9,85v296h-220V85H388.9 M394.9,79h-232v308h232V79L394.9,79z"/>
	</g>
	<rect x="162.9" y="387" fill="#382216" width="232" height="2"/>
	<g>
		<path fill="#BE1E2D" d="M229.3,222.8v98.3h97v-98.3l8.7,15.3l31.3-17.7L340,162.1c0,0-23-12-43.7-18c0,0-3.7,10.3-18.3,10.3
			s-18.3-10.3-18.3-10.3s-27.7,8.3-43.7,19l-25,57l31,19.3L229.3,222.8z"/>
		<g>
			<defs>
				<path id="SVGID_1_" d="M229.3,222.8v98.3h97v-98.3l8.7,15.3l31.3-17.7L340,162.1c0,0-23-12-43.7-18c0,0-3.7,10.3-18.3,10.3
					s-18.3-10.3-18.3-10.3s-27.7,8.3-43.7,19l-25,57l31,19.3L229.3,222.8z"/>
			</defs>
			<clipPath id="SVGID_2_">
				<use xlink:href="#SVGID_1_"  overflow="visible"/>
			</clipPath>
			<g clip-path="url(#SVGID_2_)">
				<rect x="229.3" y="142" fill="#2B3990" width="20.7" height="184"/>
				<rect x="267.9" y="144.1" fill="#2B3990" width="20.7" height="184"/>
				<rect x="305.5" y="137.1" fill="#2B3990" width="20.7" height="184"/>
			</g>
		</g>
		<path fill="#E6E7E8" d="M259.7,144.1c0,0,4,10.3,19,10.3c0,0,13,0,17.7-10.3l7.6,2.4c0,0-6.3,14.4-25.3,14.4s-25.9-14.6-25.9-14.6
			S258.1,144.4,259.7,144.1z"/>
		<path fill="#E6E7E8" d="M200.7,197.9l15.3-34.8c0,0,12.8-9.2,36.7-16.7l0.7,1.3c0,0-24.8,7.6-36.3,17.2l-14.8,33.6L200.7,197.9z"
			/>
		<path fill="#E6E7E8" d="M203.2,199.1l15-33.4c0,0,12.3-9.1,36.2-16.6l0.9,1.2c0,0-24.4,7.5-36,17.1l-14.3,32.5L203.2,199.1z"/>
		<path fill="#E6E7E8" d="M206.3,200.4l14.5-32.3c0,0,11.9-8.9,35.8-16.4l1.1,1.2c0,0-24.3,7.5-35.9,17.1l-13.8,31.4L206.3,200.4z"
			/>
		<path fill="#E6E7E8" d="M356.2,197.9L340,162.1c0,0-12.1-8-36-15.6l-0.7,1.4c0,0,24,6.9,35.8,15.7l15.6,34.9L356.2,197.9z"/>
		<path fill="#E6E7E8" d="M353.3,199.3l-15-33.4c0,0-12.3-9.1-36.2-16.6l-0.9,1.2c0,0,24.4,7.5,36,17.1l14.3,32.5L353.3,199.3z"/>
		<path fill="#E6E7E8" d="M350.2,200.7l-14.5-32.3c0,0-11.9-8.9-35.8-16.4l-1.1,1.2c0,0,24.3,7.5,35.9,17.1l13.8,31.4L350.2,200.7z"
			/>
		<polygon fill="#2B3990" points="258.5,321.1 257.7,321.1 257.7,152.9 258.5,153.6 		"/>
		<polygon fill="#2B3990" points="297.7,321.1 298.5,321.1 298.5,153.6 297.7,154.4 		"/>
		<g>
			<circle fill="#BE1E2D" stroke="#FFFFFF" stroke-miterlimit="10" cx="311.5" cy="194.8" r="10.4"/>
			<circle fill="#2B3990" stroke="#FFFFFF" stroke-miterlimit="10" cx="311.5" cy="194.8" r="7.3"/>
		</g>
		<polygon fill="#FBB040" points="300.1,182.2 301.1,180.2 302.1,182.2 304.3,182.6 302.7,184.1 303,186.3 301.1,185.2 299.1,186.2 
			299.5,184 298,182.5 		"/>
		<polygon fill="#FBB040" points="306.5,179.6 307.5,177.7 308.4,179.6 310.6,180 309,181.5 309.3,183.7 307.4,182.6 305.4,183.6 
			305.8,181.5 304.3,179.9 		"/>
		<polygon fill="#FBB040" points="313.7,179.6 314.7,177.7 315.6,179.6 317.8,180 316.2,181.5 316.5,183.7 314.6,182.6 312.6,183.6 
			313,181.5 311.5,179.9 		"/>
		<polygon fill="#FBB040" points="320,182.2 321,180.2 321.9,182.2 324.1,182.6 322.5,184.1 322.9,186.3 320.9,185.2 319,186.2 
			319.4,184 317.8,182.5 		"/>
		<polyline fill="#E6E7E8" points="222,239.5 225.9,230.5 194.5,212.1 191,220.1 222,239.5 		"/>
		<polyline fill="#E6E7E8" points="330.8,231 334.8,238.3 366.3,220.5 363,213.4 330.8,231 		"/>
		<path opacity="0.2" fill="#231F20" d="M278,154.4c-14.7,0-18.3-10.3-18.3-10.3s-27.7,8.3-43.7,19l-25,57l31,19.3l7.3-16.7v98.3
			h49.3"/>
	</g>
	<g opacity="0.24">
		<linearGradient id="SVGID_3_" gradientUnits="userSpaceOnUse" x1="162.8877" y1="227.9946" x2="394.8877" y2="227.9946">
			<stop  offset="0" style="stop-color:#FFFFFF"/>
			<stop  offset="1" style="stop-color:#FFFFFF;stop-opacity:0"/>
		</linearGradient>
		<polygon fill="url(#SVGID_3_)" points="162.9,377 162.9,79 394.9,79 		"/>
	</g>
	<g>
		<g>
			<g>
				<ellipse fill="#DCDCDC" cx="87.6" cy="316.7" rx="63" ry="63"/>
			</g>
		</g>
		<path fill="#D3D3D3" d="M124.9,279.6c9.9,9.9,15.4,23.2,15.4,37.2s-5.5,27.3-15.4,37.2c-9.9,9.9-23.2,15.4-37.2,15.4
			s-27.3-5.5-37.2-15.4c-9.9-9.9-15.4-23.2-15.4-37.2s5.5-27.3,15.4-37.2c9.9-9.9,23.2-15.4,37.2-15.4S114.9,269.7,124.9,279.6z"/>
		<g id="XMLID_1_">
			<g>
				<g>
					<path fill="#C6C6C6" d="M126,278.5c10.2,10.3,15.9,23.9,15.9,38.4s-5.6,28.1-15.9,38.4c-10.3,10.2-23.9,15.9-38.4,15.9
						s-28.1-5.6-38.4-15.9C39,345,33.4,331.4,33.4,316.9s5.6-28.1,15.9-38.4c10.3-10.2,23.9-15.9,38.4-15.9S115.8,268.2,126,278.5z
						 M140.3,316.9c0-14.1-5.5-27.3-15.4-37.2c-9.9-9.9-23.2-15.4-37.2-15.4s-27.3,5.5-37.2,15.4c-9.9,9.9-15.4,23.2-15.4,37.2
						s5.5,27.3,15.4,37.2c9.9,9.9,23.2,15.4,37.2,15.4s27.3-5.5,37.2-15.4C134.8,344.2,140.3,330.9,140.3,316.9z"/>
				</g>
			</g>
		</g>
		<g>
			<circle fill="#C49726" cx="87.5" cy="316.9" r="24.5"/>
		</g>
		<g>
			<g>
				<circle fill="#CCCCCC" cx="87.5" cy="316.9" r="23.7"/>
			</g>
		</g>
		<g>
			<circle fill="#C6C6C6" cx="87.5" cy="316.9" r="10.8"/>
		</g>
		<g>
			<path fill="#C6C6C6" d="M87.5,349.3c-17.9,0-32.4-14.6-32.4-32.4c0-17.9,14.6-32.4,32.4-32.4S120,299,120,316.9
				C120,334.8,105.4,349.3,87.5,349.3z M87.5,286c-17,0-30.8,13.8-30.8,30.8s13.8,30.8,30.8,30.8s30.8-13.8,30.8-30.8
				S104.5,286,87.5,286z"/>
		</g>
		<g>
			<g>
				<circle fill="#C6C6C6" cx="87.6" cy="274.6" r="6.4"/>
			</g>
		</g>
		<g>
			<g>
				<path fill="#C49726" d="M87.5,278.9c-2.4,0-4.3-1.9-4.3-4.3s1.9-4.3,4.3-4.3s4.3,1.9,4.3,4.3S89.9,278.9,87.5,278.9z
					 M87.5,271.1c-1.9,0-3.5,1.6-3.5,3.5s1.6,3.5,3.5,3.5s3.5-1.6,3.5-3.5S89.5,271.1,87.5,271.1z"/>
			</g>
		</g>
		<g>
			<g>
				<circle fill="#00843F" cx="87.5" cy="274.6" r="2.7"/>
			</g>
		</g>
		<g>
			<g>
				<path fill="#C6C6C6" d="M87.6,286c-6.3,0-11.4-5.1-11.4-11.4s5.1-11.4,11.4-11.4c6.3,0,11.4,5.1,11.4,11.4S94,286,87.6,286z
					 M87.6,264.7c-5.4,0-9.8,4.4-9.8,9.8s4.4,9.8,9.8,9.8c5.4,0,9.8-4.4,9.8-9.8S93.1,264.7,87.6,264.7z"/>
			</g>
		</g>
		<g>
			<g>
				<circle fill="#C6C6C6" cx="47.7" cy="301.4" r="6.4"/>
			</g>
		</g>
		<g>
			<g>
				<path fill="#C49726" d="M47.7,305.7c-2.4,0-4.3-1.9-4.3-4.3s1.9-4.3,4.3-4.3c2.4,0,4.3,1.9,4.3,4.3S50,305.7,47.7,305.7z
					 M47.7,297.9c-1.9,0-3.5,1.6-3.5,3.5s1.6,3.5,3.5,3.5s3.5-1.6,3.5-3.5S49.6,297.9,47.7,297.9z"/>
			</g>
		</g>
		<g>
			<g>
				<circle fill="#00843F" cx="47.7" cy="301.4" r="2.7"/>
			</g>
		</g>
		<g>
			<g>
				<path fill="#C6C6C6" d="M47.8,312.8c-6.3,0-11.4-5.1-11.4-11.4c0-6.3,5.1-11.4,11.4-11.4s11.4,5.1,11.4,11.4
					C59.2,307.7,54.1,312.8,47.8,312.8z M47.8,291.5c-5.4,0-9.8,4.4-9.8,9.8s4.4,9.8,9.8,9.8s9.8-4.4,9.8-9.8S53.2,291.5,47.8,291.5
					z"/>
			</g>
		</g>
		<g>
			<g>
				<circle fill="#C6C6C6" cx="58.8" cy="348" r="6.4"/>
			</g>
		</g>
		<g>
			<g>
				<path fill="#C49726" d="M58.8,352.3c-2.4,0-4.3-1.9-4.3-4.3c0-2.4,1.9-4.3,4.3-4.3c2.4,0,4.3,1.9,4.3,4.3
					C63,350.4,61.1,352.3,58.8,352.3z M58.8,344.6c-1.9,0-3.5,1.6-3.5,3.5s1.6,3.5,3.5,3.5s3.5-1.6,3.5-3.5S60.7,344.6,58.8,344.6z"
					/>
			</g>
		</g>
		<g>
			<g>
				<circle fill="#00843F" cx="58.8" cy="348" r="2.7"/>
			</g>
		</g>
		<g>
			<g>
				<path fill="#C6C6C6" d="M58.8,359.5c-6.3,0-11.4-5.1-11.4-11.4c0-6.3,5.1-11.4,11.4-11.4s11.4,5.1,11.4,11.4
					C70.2,354.3,65.1,359.5,58.8,359.5z M58.8,338.2c-5.4,0-9.8,4.4-9.8,9.8c0,5.4,4.4,9.8,9.8,9.8c5.4,0,9.8-4.4,9.8-9.8
					C68.6,342.6,64.2,338.2,58.8,338.2z"/>
			</g>
		</g>
		<g>
			<g>
				<circle fill="#C6C6C6" cx="116.4" cy="348" r="6.4"/>
			</g>
		</g>
		<g>
			<g>
				<path fill="#C49726" d="M116.3,352.3c-2.4,0-4.3-1.9-4.3-4.3s1.9-4.3,4.3-4.3s4.3,1.9,4.3,4.3S118.7,352.3,116.3,352.3z
					 M116.3,344.6c-1.9,0-3.5,1.6-3.5,3.5s1.6,3.5,3.5,3.5s3.5-1.6,3.5-3.5S118.2,344.6,116.3,344.6z"/>
			</g>
		</g>
		<g>
			<g>
				<circle fill="#00843F" cx="116.3" cy="348" r="2.7"/>
			</g>
		</g>
		<g>
			<g>
				<path fill="#C6C6C6" d="M116.3,359.5c-6.3,0-11.4-5.1-11.4-11.4s5.1-11.4,11.4-11.4c6.3,0,11.4,5.1,11.4,11.4
					S122.6,359.5,116.3,359.5z M116.3,338.2c-5.4,0-9.8,4.4-9.8,9.8s4.4,9.8,9.8,9.8c5.4,0,9.8-4.4,9.8-9.8S121.8,338.2,116.3,338.2
					z"/>
			</g>
		</g>
		<g>
			<g>
				<circle fill="#C6C6C6" cx="127.4" cy="301.4" r="6.4"/>
			</g>
		</g>
		<g>
			<g>
				<path fill="#C49726" d="M127.3,305.7c-2.4,0-4.3-1.9-4.3-4.3s1.9-4.3,4.3-4.3s4.3,1.9,4.3,4.3S129.6,305.7,127.3,305.7z
					 M127.3,297.9c-1.9,0-3.5,1.6-3.5,3.5s1.6,3.5,3.5,3.5s3.5-1.6,3.5-3.5S129.2,297.9,127.3,297.9z"/>
			</g>
		</g>
		<g>
			<g>
				<circle fill="#00843F" cx="127.3" cy="301.4" r="2.7"/>
			</g>
		</g>
		<g>
			<g>
				<path fill="#C6C6C6" d="M127.3,312.8c-6.3,0-11.4-5.1-11.4-11.4c0-6.3,5.1-11.4,11.4-11.4s11.4,5.1,11.4,11.4
					C138.7,307.7,133.6,312.8,127.3,312.8z M127.3,291.5c-5.4,0-9.8,4.4-9.8,9.8s4.4,9.8,9.8,9.8s9.8-4.4,9.8-9.8
					S132.7,291.5,127.3,291.5z"/>
			</g>
		</g>
		<g>
			<g>
				<g>
					<circle fill="#C6C6C6" cx="87.6" cy="375.4" r="2.3"/>
				</g>
			</g>
			<g>
				<g>
					<circle fill="#00843F" cx="87.6" cy="375.4" r="1.6"/>
				</g>
			</g>
		</g>
		<g>
			<g>
				<g>
					<circle fill="#C6C6C6" cx="142.6" cy="336.8" r="2.3"/>
				</g>
			</g>
			<g>
				<g>
					<circle fill="#00843F" cx="142.6" cy="336.8" r="1.6"/>
				</g>
			</g>
		</g>
		<g>
			<g>
				<g>
					<circle fill="#C6C6C6" cx="125.1" cy="271.9" r="2.3"/>
				</g>
			</g>
			<g>
				<g>
					<circle fill="#00843F" cx="125.1" cy="271.9" r="1.6"/>
				</g>
			</g>
		</g>
		<g>
			<g>
				<g>
					<circle fill="#C6C6C6" cx="32.7" cy="336.8" r="2.3"/>
				</g>
			</g>
			<g>
				<g>
					<circle fill="#00843F" cx="32.7" cy="336.8" r="1.6"/>
				</g>
			</g>
		</g>
		<g>
			<g>
				<g>
					<circle fill="#C6C6C6" cx="50.2" cy="271.9" r="2.3"/>
				</g>
			</g>
			<g>
				<g>
					<circle fill="#00843F" cx="50.2" cy="271.9" r="1.6"/>
				</g>
			</g>
		</g>
	</g>
	<g>
		
			<linearGradient id="SVGID_4_" gradientUnits="userSpaceOnUse" x1="-14848.9014" y1="6042.959" x2="-14848.9014" y2="6151.3901" gradientTransform="matrix(-0.8009 0.256 -0.3045 -0.9525 -9971.293 9969.5947)">
			<stop  offset="0" style="stop-color:#FFFFFF"/>
			<stop  offset="1" style="stop-color:#FFFFFF;stop-opacity:0"/>
		</linearGradient>
		<path fill="url(#SVGID_4_)" d="M11.3,306c-16.2-50.8-14.9-96.6,3.1-102.3s45.6,30.8,61.8,81.6s14.9,96.6-3.1,102.3
			C55.2,393.3,27.6,356.8,11.3,306z"/>
		
			<linearGradient id="SVGID_5_" gradientUnits="userSpaceOnUse" x1="-10856.8994" y1="10618.6377" x2="-10856.8994" y2="10727.0684" gradientTransform="matrix(-0.7473 -0.3853 0.4582 -0.8888 -12931.6348 5659.5161)">
			<stop  offset="0" style="stop-color:#FFFFFF"/>
			<stop  offset="1" style="stop-color:#FFFFFF;stop-opacity:0"/>
		</linearGradient>
		<path fill="url(#SVGID_5_)" d="M73.7,280.1c24.4-47.4,57.8-78.8,74.5-70.2s10.5,54-13.9,101.4s-57.8,78.8-74.5,70.2
			C43,372.8,49.3,327.4,73.7,280.1z"/>
	</g>
	<g>
		<rect x="35.7" y="380.9" fill="#9E5C26" width="107.4" height="6.9"/>
		<rect x="35.6" y="387" fill="#382216" width="107.5" height="2"/>
		<polygon fill="#7F4921" points="53.1,387.8 35.7,387.8 35.7,380.9 73.1,380.9 		"/>
	</g>
	
		<linearGradient id="SVGID_6_" gradientUnits="userSpaceOnUse" x1="892.7729" y1="1541.663" x2="892.7729" y2="1746.4152" gradientTransform="matrix(0.9683 -0.2499 0.2499 0.9683 -1179.8436 -1306.7714)">
		<stop  offset="0" style="stop-color:#FFFFFF"/>
		<stop  offset="1" style="stop-color:#FFFFFF;stop-opacity:0"/>
	</linearGradient>
	<path fill="url(#SVGID_6_)" d="M201.6,167.4c25.1,97.5,12.4,185-28.5,195.6S78.6,303.1,53.5,205.7S41.1,20.7,82,10.1
		S176.5,70,201.6,167.4z"/>
	
		<linearGradient id="SVGID_7_" gradientUnits="userSpaceOnUse" x1="-1000.9367" y1="-1701.9957" x2="-1000.9367" y2="-1497.2437" gradientTransform="matrix(0.959 0.2834 -0.2834 0.959 972.9218 1885.9211)">
		<stop  offset="0" style="stop-color:#FFFFFF"/>
		<stop  offset="1" style="stop-color:#FFFFFF;stop-opacity:0"/>
	</linearGradient>
	<path fill="url(#SVGID_7_)" d="M503.2,213.2c-28.5,96.5-84.5,165.1-125,153.1c-40.5-12-50.2-99.9-21.7-196.4S441,4.8,481.5,16.8
		S531.8,116.7,503.2,213.2z"/>
	
		<linearGradient id="SVGID_8_" gradientUnits="userSpaceOnUse" x1="-1236.4767" y1="-1872.0258" x2="-1236.4767" y2="-1667.2737" gradientTransform="matrix(0.9495 0.3139 -0.3139 0.9495 1029.9365 2121.2751)">
		<stop  offset="0" style="stop-color:#FFFFFF"/>
		<stop  offset="1" style="stop-color:#FFFFFF;stop-opacity:0"/>
	</linearGradient>
	<path fill="url(#SVGID_8_)" d="M443.7,199.1c-31.6,95.6-89.7,162.3-129.8,149s-47-101.5-15.4-197S388.1-11.2,428.2,2
		S475.3,103.5,443.7,199.1z"/>
	
		<linearGradient id="SVGID_9_" gradientUnits="userSpaceOnUse" x1="1299.6826" y1="3217.3738" x2="1299.6826" y2="3422.126" gradientTransform="matrix(0.8933 -0.4494 0.4494 0.8933 -2507.2478 -2329.3232)">
		<stop  offset="0" style="stop-color:#FFFFFF"/>
		<stop  offset="1" style="stop-color:#FFFFFF;stop-opacity:0"/>
	</linearGradient>
	<path fill="url(#SVGID_9_)" d="M271.9,132.7c45.2,89.9,51.3,178.2,13.6,197.2c-37.7,19-105-38.5-150.2-128.4S83.9,23.3,121.6,4.3
		S226.7,42.8,271.9,132.7z"/>
</g>
</svg>
