<?xml version="1.0" encoding="utf-8"?>
<!-- Generator: Adobe Illustrator 18.1.0, SVG Export Plug-In . SVG Version: 6.00 Build 0)  -->
<!DOCTYPE svg PUBLIC "-//W3C//DTD SVG 1.1//EN" "http://www.w3.org/Graphics/SVG/1.1/DTD/svg11.dtd">
<svg version="1.1" id="Layer_1" xmlns="http://www.w3.org/2000/svg" xmlns:xlink="http://www.w3.org/1999/xlink" x="0px" y="0px"
	 viewBox="0 0 646 647.3" enable-background="new 0 0 646 647.3" xml:space="preserve">
<g>
	<rect x="48.2" y="128.4" fill="#CFCFCF" width="568.8" height="276.4"/>
	<rect x="3.7" y="391.4" fill="#82827D" width="641.5" height="6"/>
	<rect x="3.7" y="406" fill="#333331" width="641.5" height="7.9"/>
	<rect x="3.7" y="397" fill="#73736E" width="641.5" height="3.5"/>
	<rect x="48.2" y="358.7" opacity="0.55" fill="#333331" width="568.8" height="10.4"/>
	<g>
		<polygon fill="#A8A8A1" points="36.2,380 54.2,380 56.5,387.3 33.7,387.3 		"/>
		<path fill="#73736E" d="M33.7,387.3l2.8,7.8h17.8l2.3-7.8C56.5,387.3,33.3,387.7,33.7,387.3z"/>
	</g>
	<g>
		<g>
			<g>
				<polygon fill="#333331" points="36.2,406.1 54.2,406.1 56.5,413.3 33.7,413.3 				"/>
			</g>
			<g>
				<path fill="#333331" d="M33.7,413.3l2.8,7.8h17.8l2.3-7.8C56.5,413.3,33.3,413.7,33.7,413.3z"/>
			</g>
		</g>
	</g>
	<g>
		<polygon fill="#A8A8A1" points="172.4,380 190.5,380 192.7,387.3 169.9,387.3 		"/>
		<path fill="#73736E" d="M169.9,387.3l2.8,7.8h17.8l2.3-7.8C192.7,387.3,169.5,387.7,169.9,387.3z"/>
	</g>
	<g>
		<g>
			<g>
				<polygon fill="#333331" points="157.4,406.1 175.4,406.1 177.7,413.3 154.9,413.3 				"/>
			</g>
			<g>
				<path fill="#333331" d="M154.9,413.3l2.8,7.8h17.8l2.3-7.8C177.7,413.3,154.5,413.7,154.9,413.3z"/>
			</g>
		</g>
	</g>
	<g>
		<g>
			<g>
				<polygon fill="#333331" points="420.8,406.1 438.8,406.1 441.1,413.3 418.3,413.3 				"/>
			</g>
			<g>
				<path fill="#333331" d="M418.3,413.3l2.8,7.8h17.8l2.3-7.8C441.1,413.3,417.9,413.7,418.3,413.3z"/>
			</g>
		</g>
	</g>
	<g>
		<g>
			<g>
				<polygon fill="#333331" points="563,406.1 581.1,406.1 583.3,413.3 560.5,413.3 				"/>
			</g>
			<g>
				<path fill="#333331" d="M560.5,413.3l2.8,7.8h17.8l2.3-7.8C583.3,413.3,560.2,413.7,560.5,413.3z"/>
			</g>
		</g>
	</g>
	<g>
		<polygon fill="#A8A8A1" points="307.1,380 325.2,380 327.4,387.3 304.6,387.3 		"/>
		<path fill="#73736E" d="M304.6,387.3l2.8,7.8h17.8l2.3-7.8C327.4,387.3,304.3,387.7,304.6,387.3z"/>
	</g>
	<g>
		<polygon fill="#A8A8A1" points="450.6,380 468.6,380 470.9,387.3 448.1,387.3 		"/>
		<path fill="#73736E" d="M448.1,387.3l2.8,7.8h17.8l2.3-7.8C470.9,387.3,447.7,387.7,448.1,387.3z"/>
	</g>
	<g>
		<polygon fill="#A8A8A1" points="594.8,380 612.9,380 615.1,387.3 592.3,387.3 		"/>
		<path fill="#73736E" d="M592.3,387.3l2.8,7.8h17.8l2.3-7.8C615.1,387.3,591.9,387.7,592.3,387.3z"/>
	</g>
	<rect x="291.6" y="401.8" fill="#73736E" width="37.1" height="252.1"/>
	<polygon opacity="0.5" points="291.6,400.2 291.6,461.9 291.6,462.3 291.6,509.6 328.3,462.3 328.7,462.3 328.7,400.2 	"/>
	<rect x="358.8" y="413.3" fill="#333331" width="2.8" height="51"/>
	<rect x="387.2" y="413.5" fill="#333331" width="2.8" height="41.2"/>
	<rect x="387.2" y="457.4" fill="#333331" width="2.8" height="4.6"/>
	<rect x="367" y="401.3" width="2.8" height="5"/>
	<polygon points="367,408.9 367,406.2 369.7,406.2 	"/>
	<rect x="361.3" y="433.6" fill="#333331" width="5.7" height="1.9"/>
	<rect x="369.8" y="433.6" fill="#333331" width="17.5" height="1.9"/>
	<polygon fill="#545451" points="396.6,445 390,450.3 390,448.5 396.6,443.2 	"/>
	<rect x="369.8" y="426.4" fill="#82827D" width="28.8" height="1.9"/>
	<rect x="369.1" y="441.5" fill="#82827D" width="28.8" height="1.9"/>
	<polygon fill="#545451" points="396.6,430.2 390,435.5 390,433.6 396.6,428.3 	"/>
	<polygon fill="#333331" points="369.2,457.2 359.7,464.8 359.7,462.1 369.2,454.5 	"/>
	<polygon fill="#333331" points="369.2,443.3 359.7,451 359.7,448.3 369.2,440.6 	"/>
	<polygon fill="#333331" points="369.2,427.5 359.7,435.1 359.7,432.4 369.2,424.8 	"/>
	<polygon fill="#333331" points="399,457.2 389.5,464.8 389.5,462.1 399,454.5 	"/>
	<rect x="369.8" y="449" fill="#333331" width="20.2" height="1.9"/>
	<rect x="361.3" y="449" fill="#333331" width="5.8" height="1.9"/>
	<rect x="3.7" y="3.2" fill="#FF250A" width="641" height="355.5"/>
	<rect x="367" y="400.5" fill="#82827D" width="2.8" height="56.9"/>
	<rect x="367" y="454.7" fill="#82827D" width="31.8" height="2.6"/>
	<rect x="396.5" y="400.5" fill="#82827D" width="2.8" height="56.9"/>
	<rect x="358.8" y="461.9" fill="#333331" width="31.2" height="2.8"/>
</g>
</svg>
