<?xml version="1.0" encoding="utf-8"?>
<!-- Generator: Adobe Illustrator 18.1.0, SVG Export Plug-In . SVG Version: 6.00 Build 0)  -->
<!DOCTYPE svg PUBLIC "-//W3C//DTD SVG 1.1//EN" "http://www.w3.org/Graphics/SVG/1.1/DTD/svg11.dtd">
<svg version="1.1" id="Layer_1" xmlns="http://www.w3.org/2000/svg" xmlns:xlink="http://www.w3.org/1999/xlink" x="0px" y="0px"
	 viewBox="0 0 48 12" enable-background="new 0 0 48 12" xml:space="preserve">
<g>
	<path fill-rule="evenodd" clip-rule="evenodd" fill="#002A5E" d="M48.1,6c-0.2,0.3-0.4,0.6-0.6,1l-2.7,0l0,0l-2.3,3.7l0,0l-3.6,0
		l2.3-3.8l-0.7,0l-2,0l0.6-1l0,0L48.1,6L48.1,6z M21.2,6.1c-2.2,0.1-4.5,0.4-6,1.4C14.3,8.1,14,8.7,14,9.4c0.2,1.1,2.2,1.6,4.2,1.7
		c2,0,4.2-0.2,6.1-0.7L25.2,9l0.5-0.9l-5.1,0.1l0,0c-0.2,0.3-0.4,0.7-0.6,1c0.5,0,1,0,1.6,0L21,10c-0.8,0.2-1.7,0.3-2.4,0.1
		C18,10,17.7,9.7,17.7,9.4c0-0.6,0.4-1.1,1-1.6c0.5-0.4,1.4-0.7,2.2-0.7c1.2-0.1,2.3,0,2.9,0.5l2-0.7l0.1,0
		c-0.1-0.1-0.2-0.1-0.3-0.1C24.4,6.2,22.9,6.1,21.2,6.1L21.2,6.1z M14.7,6.3l-3.6,0l0,0l-2.9,4.7l0,0l3.6,0L14.7,6.3L14.7,6.3
		L14.7,6.3z M6.5,6.4l-3.6,0l0,0l-2.8,4.6L0,11.2l6.3-0.1l1.3,0l0.6-1l-3.9,0l0,0L6.5,6.4L6.5,6.4z M31.6,6.2l-3.6,0l-2.9,4.7l3.6,0
		l1.1-1.8L30,8.8l3,0l0,0l-1.3,2.1l2.6,0l1,0l2.4-4l0.4-0.7l-2.6,0l-1,0l-1,1.6l-0.1,0.1l-3,0l0,0L31.6,6.2L31.6,6.2L31.6,6.2z"/>
	<path fill-rule="evenodd" clip-rule="evenodd" fill="#002A5E" d="M25,0.1l-3.6,0l0,0l-2.1,3.4C19,3.9,19,4.3,19.5,4.5
		C20.1,4.8,21,4.9,21.9,5c1.4,0,3.3,0.1,4.8-0.3c0.8-0.2,1.5-0.6,1.8-1.1l2.2-3.5l-0.4,0l-2.2,0l-2.1,3.4l-0.1,0.1
		c-0.2,0.2-0.7,0.3-1.1,0.3C24.2,4,23.5,4,23,3.9c-0.1-0.1-0.2-0.1-0.2-0.2L24.4,1L25,0.1L25,0.1z M10,0.3L10,0.3L8.1,3.4L7.2,4.8
		L7.1,5l7.4-0.1c1.1,0,2.1-0.2,3-0.6c0.7-0.3,1.1-0.8,0.9-1.2c-0.2-0.5-1.1-0.7-2-0.7c0.8,0,1.6-0.1,2.2-0.4c0.6-0.4,1-0.9,0.7-1.3
		c-0.5-0.5-1.5-0.5-2.6-0.6L10,0.3L10,0.3z M14.8,1.1c0.3,0,0.7,0.1,0.8,0.2c0.1,0.1-0.1,0.3-0.3,0.4C15.1,1.9,14.7,2,14.4,2l-1.8,0
		c0.2-0.3,0.4-0.6,0.6-0.9L14.8,1.1L14.8,1.1z M13.9,3c0.4,0,0.8,0.1,0.8,0.3c0,0.2-0.1,0.5-0.6,0.7c-0.3,0.1-0.7,0.1-1,0.1l-1.8,0
		C11.5,3.7,11.8,3.3,12,3C12.6,3,13.3,3,13.9,3L13.9,3z M32.2,0.1l-2.7,4.4l-0.2,0.3l6.3-0.1c0.9,0,1.9-0.1,2.8-0.3
		c1.3-0.3,2.3-0.8,2.9-1.5c0.5-0.6,1-1.2,0.7-1.7C41.5,0.4,39.8,0,38.1,0L32.2,0.1L32.2,0.1z M36.9,0.9c0.6,0,1.2,0.2,1.3,0.5
		c0.1,0.4-0.1,0.7-0.4,1.1c-0.4,0.4-1,1-2,1.1c-0.2,0-0.4,0.1-0.6,0.1l-1.6,0L35.3,1L36.9,0.9L36.9,0.9z"/>
</g>
</svg>
