<?xml version="1.0" encoding="utf-8"?>
<!-- Generator: Adobe Illustrator 18.1.0, SVG Export Plug-In . SVG Version: 6.00 Build 0)  -->
<!DOCTYPE svg PUBLIC "-//W3C//DTD SVG 1.1//EN" "http://www.w3.org/Graphics/SVG/1.1/DTD/svg11.dtd">
<svg version="1.1" id="Layer_1" xmlns="http://www.w3.org/2000/svg" xmlns:xlink="http://www.w3.org/1999/xlink" x="0px" y="0px"
	 viewBox="0 128.8 130 37.2" enable-background="new 0 128.8 130 37.2" xml:space="preserve">
<g>
	<path fill="#B57D1A" d="M1,139.7h0.9v-6.6H1v-1.9h5.1v1.9H4.8v6.6h1.9v-2.4h2.4v4.3H1V139.7z"/>
	<path fill="#B57D1A" d="M10.2,140v-7.2l1.6-1.6h5.7l1.6,1.6v7.2l-1.6,1.6h-5.7L10.2,140z M15.7,139.5l0.5-0.5v-5.2l-0.5-0.5h-2.2
		l-0.5,0.5v5.2l0.5,0.5L15.7,139.5L15.7,139.5z"/>
	<path fill="#B57D1A" d="M20.3,140.1v-1.8h2.8v0.9l0.3,0.3h2.3l0.3-0.3v-1.5l-0.2-0.2h-4.2l-1.3-1.3v-3.5l1.5-1.5h5.6l1.5,1.5v1.8
		h-2.8v-0.9l-0.3-0.3h-2.2l-0.3,0.3v1.4l0.2,0.3h4.2l1.3,1.3v3.6l-1.5,1.5h-5.7L20.3,140.1z"/>
	<path fill="#B57D1A" d="M34.4,140v-7.2l1.6-1.6h5.4l1.6,1.6v2.2h-2.9v-1.2l-0.5-0.5h-1.9l-0.5,0.5v5.3l0.5,0.5h1.9l0.5-0.5v-1.3H43
		v2.2l-1.6,1.6H36L34.4,140z"/>
	<path fill="#B57D1A" d="M43.8,139.7h0.6l1.9-6.6h-1.1v-1.9h7.6v1.9h-1.2l1.9,6.6H54v1.9h-4.2v-1.9h0.8l-0.3-1.2h-3l-0.3,1.2h0.8
		v1.9h-4L43.8,139.7L43.8,139.7z M47.7,136.7h2.1l-0.9-3.7h-0.3L47.7,136.7z"/>
	<path fill="#B57D1A" d="M54.8,139.7h0.9v-6.6h-0.9v-1.9h5.3l1.7,7.2l1.9-7.2h5.1v1.9h-0.9v6.6h0.9v1.9h-4.4v-1.9h0.8v-6.6l-2,7.7
		h-3l-2-7.7v6.6h1v1.9h-4.2L54.8,139.7L54.8,139.7z"/>
	<path fill="#B57D1A" d="M69.5,139.7h0.9v-6.6h-0.9v-1.9h8l1.6,1.6v3.7l-1.6,1.6h-4.2v1.6h1.3v1.9h-5.1V139.7z M75.9,136.1l0.4-0.4
		v-2.2l-0.4-0.4h-2.6v3H75.9z"/>
	<path fill="#B57D1A" d="M79.8,139.7h0.9v-6.6h-0.9v-1.9h8.8v3.1h-2.4v-1.2h-2.6v2.1h3.9v2.1h-3.9v2.3h2.6v-1.3h2.4v3.1h-8.8V139.7z
		"/>
	<path fill="#B57D1A" d="M89.7,140v-7.2l1.6-1.6H97l1.6,1.6v7.2l-1.6,1.6h-5.7L89.7,140z M95.3,139.5l0.5-0.5v-5.2l-0.5-0.5h-2.2
		l-0.5,0.5v5.2l0.5,0.5H95.3z"/>
	<path fill="#B57D1A" d="M99.7,139.6h0.9v-6.5h-0.9v-1.9h3.8l3.3,6.1v-4.2h-1v-1.9h4.4v1.9h-0.8v8.5h-2.9l-3.3-6.2v4.2h1v1.9h-4.4
		V139.6z"/>
	<path fill="#B57D1A" d="M111,139.7h0.9v-6.6H111v-1.9h8.8v3.1h-2.4v-1.2h-2.6v2.1h3.9v2.1h-3.9v2.3h2.6v-1.3h2.4v3.1H111L111,139.7
		L111,139.7z"/>
	<path fill="#B57D1A" d="M120.8,140.1v-1.8h2.8v0.9l0.3,0.3h2.3l0.3-0.3v-1.5l-0.2-0.2h-4.2l-1.3-1.3v-3.5l1.5-1.5h5.6l1.5,1.5v1.8
		h-2.8v-0.9l-0.3-0.3H124l-0.3,0.3v1.4l0.2,0.3h4.2l1.3,1.3v3.6l-1.5,1.5h-5.7L120.8,140.1z"/>
</g>
<g>
	<path fill="#FFD28A" d="M1,139.2h0.9v-6.6H1v-1.9h5.1v1.9H4.8v6.6h1.9v-2.4h2.4v4.3H1V139.2z"/>
	<path fill="#FFD28A" d="M10.2,139.6v-7.2l1.6-1.6h5.7l1.6,1.6v7.2l-1.6,1.6h-5.7L10.2,139.6z M15.7,139.1l0.5-0.5v-5.2l-0.5-0.5
		h-2.2l-0.5,0.5v5.2l0.5,0.5L15.7,139.1L15.7,139.1z"/>
	<path fill="#FFD28A" d="M20.3,139.7v-1.8h2.8v0.9l0.3,0.3h2.3l0.3-0.3v-1.5l-0.2-0.2h-4.2l-1.3-1.3v-3.5l1.5-1.5h5.6l1.5,1.5v1.8
		h-2.8v-0.9l-0.3-0.3h-2.2l-0.3,0.3v1.4l0.2,0.3h4.2l1.3,1.3v3.6l-1.5,1.5h-5.7L20.3,139.7z"/>
	<path fill="#FFD28A" d="M34.4,139.6v-7.2l1.6-1.6h5.4l1.6,1.6v2.2h-2.9v-1.2l-0.5-0.5h-1.9l-0.5,0.5v5.3l0.5,0.5h1.9l0.5-0.5v-1.3
		H43v2.2l-1.6,1.6H36L34.4,139.6z"/>
	<path fill="#FFD28A" d="M43.8,139.2h0.6l1.9-6.6h-1.1v-1.9h7.6v1.9h-1.2l1.9,6.6H54v1.9h-4.2v-1.9h0.8l-0.3-1.2h-3l-0.3,1.2h0.8
		v1.9h-4L43.8,139.2L43.8,139.2z M47.7,136.3h2.1l-0.9-3.7h-0.3L47.7,136.3z"/>
	<path fill="#FFD28A" d="M54.8,139.2h0.9v-6.6h-0.9v-1.9h5.3l1.7,7.2l1.9-7.2h5.1v1.9h-0.9v6.6h0.9v1.9h-4.4v-1.9h0.8v-6.6l-2,7.7
		h-3l-2-7.7v6.6h1v1.9h-4.2L54.8,139.2L54.8,139.2z"/>
	<path fill="#FFD28A" d="M69.5,139.2h0.9v-6.6h-0.9v-1.9h8l1.6,1.6v3.7l-1.6,1.6h-4.2v1.6h1.3v1.9h-5.1V139.2z M75.9,135.7l0.4-0.4
		v-2.2l-0.4-0.4h-2.6v3H75.9z"/>
	<path fill="#FFD28A" d="M79.8,139.2h0.9v-6.6h-0.9v-1.9h8.8v3.1h-2.4v-1.2h-2.6v2.1h3.9v2.1h-3.9v2.3h2.6V138h2.4v3.1h-8.8V139.2z"
		/>
	<path fill="#FFD28A" d="M89.7,139.6v-7.2l1.6-1.6H97l1.6,1.6v7.2l-1.6,1.6h-5.7L89.7,139.6z M95.3,139.1l0.5-0.5v-5.2l-0.5-0.5
		h-2.2l-0.5,0.5v5.2l0.5,0.5H95.3z"/>
	<path fill="#FFD28A" d="M99.7,139.2h0.9v-6.5h-0.9v-1.9h3.8l3.3,6.1v-4.2h-1v-1.9h4.4v1.9h-0.8v8.5h-2.9l-3.3-6.2v4.2h1v1.9h-4.4
		V139.2z"/>
	<path fill="#FFD28A" d="M111,139.2h0.9v-6.6H111v-1.9h8.8v3.1h-2.4v-1.2h-2.6v2.1h3.9v2.1h-3.9v2.3h2.6V138h2.4v3.1H111L111,139.2
		L111,139.2z"/>
	<path fill="#FFD28A" d="M120.8,139.7v-1.8h2.8v0.9l0.3,0.3h2.3l0.3-0.3v-1.5l-0.2-0.2h-4.2l-1.3-1.3v-3.5l1.5-1.5h5.6l1.5,1.5v1.8
		h-2.8v-0.9l-0.3-0.3H124l-0.3,0.3v1.4l0.2,0.3h4.2l1.3,1.3v3.6l-1.5,1.5h-5.7L120.8,139.7z"/>
</g>
<g>
	<path fill="#E69F21" d="M1,138.8h0.9v-6.6H1v-1.9h5.1v1.9H4.8v6.6h1.9v-2.4h2.4v4.3H1V138.8z"/>
	<path fill="#E69F21" d="M10.2,139.1v-7.2l1.6-1.6h5.7l1.6,1.6v7.2l-1.6,1.6h-5.7L10.2,139.1z M15.7,138.6l0.5-0.5V133l-0.5-0.5
		h-2.2l-0.5,0.5v5.2l0.5,0.5L15.7,138.6L15.7,138.6z"/>
	<path fill="#E69F21" d="M20.3,139.3v-1.8h2.8v0.9l0.3,0.3h2.3l0.3-0.3v-1.5l-0.2-0.2h-4.2l-1.3-1.3v-3.5l1.5-1.5h5.6l1.5,1.5v1.8
		h-2.8v-0.9l-0.3-0.3h-2.2l-0.3,0.3v1.4l0.2,0.3h4.2l1.3,1.3v3.6l-1.5,1.5h-5.7L20.3,139.3z"/>
	<path fill="#E69F21" d="M34.4,139.1v-7.2l1.6-1.6h5.4l1.6,1.6v2.2h-2.9v-1.2l-0.5-0.5h-1.9l-0.5,0.5v5.3l0.5,0.5h1.9l0.5-0.5v-1.3
		H43v2.2l-1.6,1.6H36L34.4,139.1z"/>
	<path fill="#E69F21" d="M43.8,138.8h0.6l1.9-6.6h-1.1v-1.9h7.6v1.9h-1.2l1.9,6.6H54v1.9h-4.2v-1.9h0.8l-0.3-1.2h-3l-0.3,1.2h0.8
		v1.9h-4L43.8,138.8L43.8,138.8z M47.7,135.9h2.1l-0.9-3.7h-0.3L47.7,135.9z"/>
	<path fill="#E69F21" d="M54.8,138.8h0.9v-6.6h-0.9v-1.9h5.3l1.7,7.2l1.9-7.2h5.1v1.9h-0.9v6.6h0.9v1.9h-4.4v-1.9h0.8v-6.6l-2,7.7
		h-3l-2-7.7v6.6h1v1.9h-4.2L54.8,138.8L54.8,138.8z"/>
	<path fill="#E69F21" d="M69.5,138.8h0.9v-6.6h-0.9v-1.9h8l1.6,1.6v3.7l-1.6,1.6h-4.2v1.6h1.3v1.9h-5.1V138.8z M75.9,135.3l0.4-0.4
		v-2.2l-0.4-0.4h-2.6v3H75.9z"/>
	<path fill="#E69F21" d="M79.8,138.8h0.9v-6.6h-0.9v-1.9h8.8v3.1h-2.4v-1.2h-2.6v2.1h3.9v2.1h-3.9v2.3h2.6v-1.3h2.4v3.1h-8.8V138.8z
		"/>
	<path fill="#E69F21" d="M89.7,139.1v-7.2l1.6-1.6H97l1.6,1.6v7.2l-1.6,1.6h-5.7L89.7,139.1z M95.3,138.6l0.5-0.5V133l-0.5-0.5h-2.2
		l-0.5,0.5v5.2l0.5,0.5H95.3z"/>
	<path fill="#E69F21" d="M99.7,138.8h0.9v-6.5h-0.9v-1.9h3.8l3.3,6.1v-4.2h-1v-1.9h4.4v1.9h-0.8v8.5h-2.9l-3.3-6.2v4.2h1v1.9h-4.4
		V138.8z"/>
	<path fill="#E69F21" d="M111,138.8h0.9v-6.6H111v-1.9h8.8v3.1h-2.4v-1.2h-2.6v2.1h3.9v2.1h-3.9v2.3h2.6v-1.3h2.4v3.1H111L111,138.8
		L111,138.8z"/>
	<path fill="#E69F21" d="M120.8,139.3v-1.8h2.8v0.9l0.3,0.3h2.3l0.3-0.3v-1.5l-0.2-0.2h-4.2l-1.3-1.3v-3.5l1.5-1.5h5.6l1.5,1.5v1.8
		h-2.8v-0.9l-0.3-0.3H124l-0.3,0.3v1.4l0.2,0.3h4.2l1.3,1.3v3.6l-1.5,1.5h-5.7L120.8,139.3z"/>
</g>
<g>
	<path fill="#B57D1A" d="M1.5,160.9h1.7v-12.1H1.5v-3.5h14.6l2.9,2.9v13.2l-2.9,2.9H1.5V160.9z M12.9,160.6l0.9-0.9V150l-0.9-0.9
		H8.4v11.5H12.9z"/>
	<path fill="#B57D1A" d="M21,160.9h1.7v-12.1H21v-3.5h16.1v5.6h-4.4v-2.2h-4.7v3.9h7.2v3.9h-7.2v4.3h4.8v-2.3h4.4v5.8H21L21,160.9
		L21,160.9z"/>
	<path fill="#B57D1A" d="M38.7,160.9h1.7v-12.1h-1.7v-3.5H48v3.5h-2.3v12.1h3.5v-4.4h4.4v7.8H38.8L38.7,160.9L38.7,160.9z"/>
	<path fill="#B57D1A" d="M62.2,155.8l2.3-2.4H72l0.4-0.4v-3.5l-0.4-0.4h-4.2l-0.4,0.4v1.8h-5.3V148l2.7-2.7h10l2.8,2.8v7l-2.4,2.3
		h-7.4l-0.4,0.4v2.4h10.3v4H62.2C62.2,164.4,62.2,155.8,62.2,155.8z"/>
	<path fill="#B57D1A" d="M79.8,161.5v-13.2l2.9-2.9h10.4l2.9,2.9v13.2l-2.9,2.9H82.8L79.8,161.5z M90,160.6l0.9-0.9v-9.5l-0.9-0.9
		h-4l-0.9,0.9v9.5l0.9,0.9H90z"/>
	<path fill="#B57D1A" d="M98.1,160.5h3.6v-11.4h-3.6v-3.8h8.9v15.2h3.6v3.9H98.2L98.1,160.5L98.1,160.5z"/>
	<path fill="#B57D1A" d="M119.2,160.9h1.9v-1.7h-10.4v-3.1l3.6-10.7h4.9l-2.9,9.8h4.8v-9.8h5.2v9.8h1.8v4h-1.8v1.7h1.8v3.5h-9
		L119.2,160.9L119.2,160.9z"/>
</g>
<g>
	<g>
		<path fill="#FFD28A" d="M1.5,160.3h1.7v-12.1H1.5v-3.5h14.6l2.9,2.9v13.2l-2.9,2.9H1.5V160.3z M12.9,160l0.9-0.9v-9.7l-0.9-0.9
			H8.4V160H12.9z"/>
		<path fill="#FFD28A" d="M21,160.3h1.7v-12.1H21v-3.5h16.1v5.6h-4.4v-2.2h-4.7v3.9h7.2v3.9h-7.2v4.3h4.8V158h4.4v5.8H21L21,160.3
			L21,160.3z"/>
		<path fill="#FFD28A" d="M38.7,160.3h1.7v-12.1h-1.7v-3.5H48v3.5h-2.3v12.1h3.5v-4.4h4.4v7.8H38.8L38.7,160.3L38.7,160.3z"/>
		<path fill="#FFD28A" d="M62.2,155.2l2.3-2.4H72l0.4-0.4v-3.5l-0.4-0.4h-4.2l-0.4,0.4v1.8h-5.3v-3.3l2.7-2.7h10l2.8,2.8v7l-2.4,2.3
			h-7.4l-0.4,0.4v2.4h10.3v4H62.2C62.2,163.8,62.2,155.2,62.2,155.2z"/>
		<path fill="#FFD28A" d="M79.8,160.8v-13.2l2.9-2.9h10.4l2.9,2.9v13.2l-2.9,2.9H82.8L79.8,160.8z M90,159.9l0.9-0.9v-9.5l-0.9-0.9
			h-4l-0.9,0.9v9.5l0.9,0.9C86,159.9,90,159.9,90,159.9z"/>
		<path fill="#FFD28A" d="M98.1,159.9h3.6v-11.4h-3.6v-3.8h8.9v15.2h3.6v3.9H98.2L98.1,159.9L98.1,159.9z"/>
		<path fill="#FFD28A" d="M119.2,160.3h1.9v-1.7h-10.4v-3.1l3.6-10.7h4.9l-2.9,9.8h4.8v-9.8h5.2v9.8h1.8v4h-1.8v1.7h1.8v3.5h-9
			L119.2,160.3L119.2,160.3z"/>
	</g>
</g>
<g>
	<g>
		<path fill="#E69F21" d="M1.5,159.7h1.7v-12.1H1.5v-3.5h14.6L19,147v13.2l-2.9,2.9H1.5V159.7z M12.9,159.4l0.9-0.9v-9.7l-0.9-0.9
			H8.4v11.5H12.9z"/>
		<path fill="#E69F21" d="M21,159.7h1.7v-12.1H21v-3.5h16.1v5.6h-4.4v-2.2h-4.7v3.9h7.2v3.9h-7.2v4.3h4.8v-2.3h4.4v5.8H21L21,159.7
			L21,159.7z"/>
		<path fill="#E69F21" d="M38.7,159.7h1.7v-12.1h-1.7v-3.5H48v3.5h-2.3v12.1h3.5v-4.4h4.4v7.8H38.8L38.7,159.7L38.7,159.7z"/>
		<path fill="#E69F21" d="M62.2,154.5l2.3-2.4H72l0.4-0.4v-3.5l-0.4-0.4h-4.2l-0.4,0.4v1.8h-5.3v-3.3l2.7-2.7h10l2.8,2.8v7l-2.4,2.3
			h-7.4l-0.4,0.4v2.4h10.3v4H62.2C62.2,163.1,62.2,154.5,62.2,154.5z"/>
		<path fill="#E69F21" d="M79.8,160.2V147l2.9-2.9h10.4l2.9,2.9v13.2l-2.9,2.9H82.8L79.8,160.2z M90,159.3l0.9-0.9v-9.5l-0.9-0.9h-4
			l-0.9,0.9v9.5l0.9,0.9C86,159.3,90,159.3,90,159.3z"/>
		<path fill="#E69F21" d="M98.1,159.3h3.6v-11.4h-3.6v-3.8h8.9v15.2h3.6v3.9H98.2L98.1,159.3L98.1,159.3z"/>
		<path fill="#E69F21" d="M119.2,159.7h1.9v-1.7h-10.4v-3.1l3.6-10.7h4.9l-2.9,9.8h4.8v-9.8h5.2v9.8h1.8v4h-1.8v1.7h1.8v3.5h-9
			L119.2,159.7L119.2,159.7z"/>
	</g>
</g>
</svg>
