<?xml version="1.0" encoding="utf-8"?>
<!-- Generator: Adobe Illustrator 18.1.0, SVG Export Plug-In . SVG Version: 6.00 Build 0)  -->
<!DOCTYPE svg PUBLIC "-//W3C//DTD SVG 1.1//EN" "http://www.w3.org/Graphics/SVG/1.1/DTD/svg11.dtd">
<svg version="1.1" id="Layer_1" xmlns="http://www.w3.org/2000/svg" xmlns:xlink="http://www.w3.org/1999/xlink" x="0px" y="0px"
	 viewBox="0 0 345 468" enable-background="new 0 0 345 468" xml:space="preserve">
<g>
	<g>
		<path fill="#808386" d="M111.3,437.8v13.6c0,0,15.2,16.1,77.6,16.1s72.6-22.6,72.6-22.6V421C261.5,421,122.8,389.3,111.3,437.8z"
			/>
		<path fill="none" stroke="#CBCBCB" stroke-miterlimit="10" d="M114.7,383.2l-27.9,15.5c0,0-6.5,11.6,37.8,25.8V442
			c0,0,80.4,17.1,122.4-4.2v-14.2c0,0,24.5-8.7,33.9-26.8c0,0-20.6-9.7-24.9-13.5C251.8,379.3,181,361.6,114.7,383.2z"/>
		<ellipse fill="#3C688E" cx="186.6" cy="404.5" rx="68.3" ry="22.3"/>
		<ellipse fill="#F2EFE5" cx="187.3" cy="407.2" rx="65.1" ry="22"/>
		<path fill="#9B9DA4" d="M250.8,412.1c0,0,17.1-14.3,11.8-23.5c-5.3-9.2-30-21.8-75.3-21.8s-81.6,16.9-84,27.6
			c-2.4,10.7,18.9,17.7,18.9,17.7s-16.6-29.8,64.4-29.8C269.9,382.2,250.8,412.1,250.8,412.1z"/>
		<path fill="#95989B" d="M124.6,442.4c0,0-33.6-8.5-38.1-22.7V400c0,0,4.5,14.5,38.1,24.5V442.4z"/>
		<path fill="#95989B" d="M246.9,438.4v-14.8c0,0,24.2-9,33.9-26.8v22C280.8,418.7,268.9,433.6,246.9,438.4z"/>
		<path fill="#CBCBCB" d="M236.2,407.2l10.7,16.4c0,0,23.1-7.7,33.9-26.8l-19.4-11.6C261.5,385.1,259.9,403.1,236.2,407.2z"/>
		<path fill="#CBCBCB" d="M124.6,424.5l12.1-13.7c0,0-39.1-7.2-27.8-23.7l-22.1,11.6C86.8,398.7,88.5,416.5,124.6,424.5z"/>
		<polygon fill="#808386" points="242.5,440.3 242.5,424.5 234.3,414 236.2,407.2 246.9,423.6 246.9,438.4 		"/>
		<polygon fill="#808386" points="124.6,442.4 124.6,424.5 136.7,410.8 136.7,417.3 129.2,426.8 129.4,443.4 		"/>
		<path fill="#6C6C74" d="M136.7,417.3c0,0,61.7,8.8,98.4-2.2l7.4,9.5v15.8c0,0-25.9,18-113.1,3.1l-0.3-16.6L136.7,417.3z"/>
	</g>
	<g>
		<g>
			<path fill="#E1B278" d="M124.6,131.6c-11,9.1-20.1,21.7-27,34.2c-15,27.3-18.7,58.6-10,88.5c2.9,10,18.5,5.7,15.6-4.3
				c-7.7-26.6-4.3-54,9.5-78c6.3-10.9,13.5-20.7,23.4-28.9C144.1,136.4,132.6,125,124.6,131.6L124.6,131.6z"/>
		</g>
		<path opacity="0.25" fill="#1D1D1B" d="M125.4,130.5c-8.7,7.2-16.3,16.6-22.4,26.4l13.1,9.7c5.7-9.2,12.3-17.5,20.8-24.6
			C144.9,135.3,133.3,123.9,125.4,130.5z"/>
		<g>
			<path fill="#E1B278" d="M224,143.1c9.8,8.2,17.1,18,23.4,28.9c13.8,24,17.2,51.4,9.5,78c-2.9,10,12.7,14.3,15.6,4.3
				c8.7-30,5-61.3-10-88.5c-6.9-12.4-16-25-27-34.2C227.5,125,216,136.4,224,143.1L224,143.1z"/>
		</g>
		<rect x="145.2" y="256.5" fill="#ECECEC" width="29.2" height="59.4"/>
		<rect x="145.2" y="370" fill="#F5FAFC" width="29.2" height="45.4"/>
		<rect x="188.4" y="256.5" fill="#ECECEC" width="29.2" height="59.4"/>
		<rect x="188.4" y="370" fill="#F5FAFC" width="29.2" height="45.4"/>
		<rect x="145.2" y="315.9" fill="#E1B278" width="29.2" height="54"/>
		<rect x="188.4" y="315.9" fill="#E1B278" width="29.2" height="54"/>
		<rect x="145" y="406" fill="#222329" width="29" height="9"/>
		<rect x="188" y="406" fill="#222329" width="29" height="9"/>
		
			<ellipse transform="matrix(0.9723 0.2336 -0.2336 0.9723 66.9137 -54.4284)" fill="#E1B278" cx="263.2" cy="255.3" rx="9.1" ry="10.9"/>
		
			<ellipse transform="matrix(-0.9723 0.2336 -0.2336 -0.9723 250.2892 479.8026)" fill="#E1B278" cx="96.7" cy="254.7" rx="9.1" ry="10.9"/>
		<path opacity="0.25" fill="#1D1D1B" d="M143.9,252.6l2.6-0.1l-4.5,0c0,0,1.1,5.3,3.2,8.2l-0.1,21.7l29.2,0.1l0.1-15.9
			c0,0-12.7,0.3-19.3-2.5C146.6,260.5,143.9,252.6,143.9,252.6z"/>
		<g>
			<path fill="#1D1D1B" d="M199.2,269.5c0.4,0,0.8,0,1.1-0.1c0.3-0.1,0.5-0.2,0.7-0.4c0.2-0.2,0.3-0.4,0.4-0.6
				c0.1-0.2,0.2-0.5,0.3-0.7h1.6v14.7H201v-11.2h-1.8V269.5z"/>
			<path fill="#1D1D1B" d="M205.6,277.6l4.2-9.9h2.5v9.9h1.1v2.1h-1.1v2.7H210v-2.7h-4.4V277.6z M210,277.6V272l-2.3,5.5H210z"/>
		</g>
		<rect x="145" y="369.6" fill="#3C3C3B" width="29.4" height="1.8"/>
		<rect x="145" y="372.1" fill="#3C3C3B" width="29.4" height="1.8"/>
		<rect x="188.4" y="369.6" fill="#3C3C3B" width="29.4" height="1.8"/>
		<rect x="188.4" y="372.1" fill="#3C3C3B" width="29.4" height="1.8"/>
		<rect x="145.2" y="260.5" fill="#1D1D1B" width="1.1" height="53.2"/>
		<rect x="216.5" y="260.5" fill="#1D1D1B" width="1.1" height="53.2"/>
		<g>
			<rect x="155" y="71" fill="#E1B278" width="47" height="71"/>
			<ellipse fill="#E1B278" cx="179.4" cy="72.1" rx="23.4" ry="23.6"/>
			<path fill="#575756" d="M156.5,80.8c0,0-1.6-21.1,7.6-18.4c9.2,2.7,13.5,2.7,19.5-0.5c5.9-3.2,3.8,9.2,10.3,11.3
				c6.5,2.2,9.2,9.7,9.2,9.7s9.2-37.3-24.3-37.3S156.5,80.8,156.5,80.8z"/>
		</g>
		<g>
			<path fill="#F5FAFC" d="M152.3,124.8h-6h-5.1h-5.6h-0.3c-6.8,0-12.3,5.5-12.3,12.3l18.4,112.3c0,0.9,0.1,1.9,0.3,3h0.3h15.7h0.8
				h54c0-0.1,0-0.1,0-0.2h9.3h0.3c0.2-1,0.3-2,0.3-3l15.3-112c0-6.7-5.5-12.3-12.3-12.3l-0.4,0l-3.7,0c0-0.1,0-0.1,0-0.2l-15,0
				c0,0.1,0,0.1,0,0.2l-3.9,0v0.2c-2.9,10.4-31,16.2-31,16.2c-9.7-6.8-15.5-16.2-15.5-16.2l0.2-0.2h-3.7"/>
			<path fill="#ECECEC" d="M153.3,266.8h56.2c5.8,0,11.2-7.8,12.6-14.3H142C143.1,258.9,147.5,266.8,153.3,266.8z"/>
			<path fill="#F5FAFC" d="M138.2,124.6c0,0-15.5-2.3-27.7,19.6l22,22.7L138.2,124.6z"/>
			<path fill="#F5FAFC" d="M223.4,124.6c0,0,15.5-2.3,27.7,19.6l-22,22.7L223.4,124.6z"/>
			<path fill="#1D1D1B" d="M156.3,126h-19.5c0,0-10.3,0.5-15.4,8.4l1.6,0.8c0,0,5.9-7.6,13.8-7.6s19.7-0.3,19.7-0.3L156.3,126z"/>
			<path fill="#1D1D1B" d="M156.3,128.4h-18.4c0,0-9.7,0.5-14.6,8.4l1.5,0.8c0,0,5.6-7.6,13-7.6s18.7-0.3,18.7-0.3L156.3,128.4z"/>
			<path fill="#1D1D1B" d="M204.1,126h19.5c0,0,10.3,0.5,15.4,8.4l-1.6,0.8c0,0-5.9-7.6-13.8-7.6s-19.7-0.3-19.7-0.3L204.1,126z"/>
			<path fill="#1D1D1B" d="M204.1,128.4h18.4c0,0,9.7,0.5,14.6,8.4l-1.5,0.8c0,0-5.6-7.6-13-7.6s-18.7-0.3-18.7-0.3L204.1,128.4z"/>
			<g>
				<path fill-rule="evenodd" clip-rule="evenodd" fill="#3C3C3B" d="M175.2,182.6c-0.2,0-0.7-0.7-0.7-1.4l0-3.7c0,0,0.4,0,0.9,0
					c0.5,0,1.2-0.1,1.8,0.3c0,0-0.4-1.3-1.8-1.3h-0.9c0,0,0-0.1,0-0.5v-0.4c0,0,0-0.8-0.2-1.1c0,0,1.2,0,1.3,0c1.1,0,1.9,0,2.9,0.6
					c0,0-0.2-1.6-2.4-1.6c-1.3,0-4,0-4.2,0c0,0,0.8,0.7,0.7,2l0.1,5.6c0,1.4,0.5,1.4,0.5,1.4C173.3,182.6,175.2,182.6,175.2,182.6
					L175.2,182.6z M189.1,175.3c0,0-1.2,0-1.2,0s0.5,0.3,0.2,1.8l0,0l-1,4.3c0,0-0.1,0.6-0.3,0.6c-0.6,0-0.9-1-1-1.4
					c-0.1-0.2-0.8-4.2-0.8-4.4c-0.2-0.9-0.8-0.9-1.1-0.9c0,0,0,0,0,0h-1.2c0,0,0.3,0.2,0.5,0.9c0,0.1,0.8,4.4,0.8,4.4
					s0.2,0.9,0.7,1.4c0.6,0.5,1.2,0.6,1.6,0.6c0.3,0,0.5-0.2,0.5-0.2l-0.2,0.6c-0.3,1.2-1.2,1.8-1.2,1.8s1.9,0,1.9,0
					c0.1,0,0.6-0.2,1-1.7l1.4-5.9C190.2,175.4,189.5,175.4,189.1,175.3L189.1,175.3z M181.6,180.8c0,1.2,0.7,1.8,0.7,1.8
					s-0.9,0-1.9,0c0,0-0.6,0.1-0.6-1.8v-5.4c0-1.5-0.6-1.8-0.6-1.8h1.1c0.4,0,1.2,0,1.2,2V180.8L181.6,180.8z"/>
				<path fill-rule="evenodd" clip-rule="evenodd" fill="#3C3C3B" d="M206.6,199.6c1.4-0.2,1.9-0.8,1.9-0.8V197
					c-1.1,2-3,1.3-3.4,1.1c-1.3-0.5-1.4-2.3-1.4-2.3c1-1.2,2.3-0.9,3.9-2.7c2-2.2,0.5-4.5-2.4-4.5c-3,0-4.6,2.8-4.6,5.7
					c0,2.6,1.5,4.7,3.8,5.1C205,199.7,206,199.7,206.6,199.6L206.6,199.6z M188.4,198.3c-0.6,0-1.1-0.6-1.1-1.3
					c0-2.7,2.3-3.1,2.9-3.8v4.5C189.9,198,189.7,198.3,188.4,198.3L188.4,198.3L188.4,198.3z M153.5,198.1c-0.3,0-2.9,0-3.2,0
					c-1,0-0.9-0.8-1-1.5V192c0,0,0.7,0,1.5,0c0.8,0,1.9-0.1,3,0.5c0,0-0.7-1.9-3-1.9h-1.5c0,0,0-0.2,0-0.8v-0.6c0,0,0-1.2-0.3-1.6
					c0,0,1.9,0,2.1,0c1.7,0,3.2,0,4.7,0.9c0,0-0.3-2.4-3.9-2.4c-2,0-6.6,0-6.9,0c0,0,1.2,1,1.1,3.1l0.1,8.4c0,1.4,0.4,1.9,0.6,2.1
					h7.6c1.1-0.3,1.5-1.1,1.5-1.7v-0.8C156.1,197.1,155.6,198.1,153.5,198.1L153.5,198.1z M213.9,196.7c0,0.7-0.7,1.7-2.1,1.7
					c-1.5,0-2-1.5-2-1.5v1.9c0,0,0.7,0.5,1.8,0.7h1.6c1.6-0.3,3-1.6,3.1-3.2v-0.3c0-0.7-0.2-1.3-0.6-1.9c-0.7-0.8-1.9-1.4-2.9-2
					c-0.5-0.3-0.8-0.9-0.8-1.1c0-0.4,0.2-1.1,1.6-1.1c1.4,0,2,1.5,2,1.5v-1.8c0,0-1.1-0.8-2.8-0.8c-1.7,0-3.3,1.1-3.3,2.6
					c0.1,1.3,0.6,2.1,1.6,2.9c0.4,0.3,0.9,0.6,1.5,0.9C213.6,195.6,213.9,196.1,213.9,196.7L213.9,196.7z M190.2,192.2
					c-0.7,1.1-5.8,1.3-5,5.4c0.2,1.2,0.9,1.8,1.8,2h1.5c0.9-0.2,1.4-0.8,1.6-1.3c0.2,1.2,0.8,1.2,0.8,1.2c1.5,0,2.9,0,2.9,0
					s-1.1-0.7-1.1-2.1v-6c0-1.4-1.6-2.7-3.3-2.7c-1.6,0-2.8,0.8-2.8,0.8c0,0.5,0,1.9,0,1.9s0.6-1.5,2.1-1.5c1.4,0,1.5,0.7,1.5,1.1
					C190.4,191.1,190.5,191.5,190.2,192.2L190.2,192.2z M175.3,187.9c0.7,0,1.3-0.6,1.3-1.3c0-0.7-0.6-1.3-1.3-1.3
					c-0.7,0-1.3,0.6-1.3,1.3C174,187.3,174.6,187.9,175.3,187.9L175.3,187.9z M205.8,192.6c0.4-0.9,0.8-3.2-0.8-3.1
					c-1.8,0.2-1.5,5.2-1.5,5.2C204.1,194,205.1,193.9,205.8,192.6L205.8,192.6z M198.9,189.9c0.9,0,1.6,0.5,1.6,0.5v-1.6h-2.4v-2.6
					c0,0-0.6,1.1-1.9,2.1c-0.8,0.7-2.6,1.5-2.6,1.5h1.8v7.6c0,2,0.9,2,0.9,2c1.5,0,2.9,0,2.9,0s-1.1-0.7-1.1-2v-7.6
					C198.9,189.9,198.4,189.9,198.9,189.9L198.9,189.9z M185.5,189.6c0,0-0.2-0.8-1.4-0.8c-1.8,0-2.3,2.1-2.3,2.1
					c-0.1-1.7-0.6-2.3-1.8-2.3h-1.7c0,0,1,0.4,1,2.3v6.4c0,2.1,0.8,2.1,0.8,2.1h2.9c-0.1,0-1.1-0.7-1.1-2.1v-5.3
					c0.1-0.5,0.4-0.8,0.7-1.1c0.9-0.6,2.3-0.4,3,0.4C185.5,191.4,185.5,190.2,185.5,189.6L185.5,189.6z M176.7,197.4
					c0,1.4,1.1,2.1,1.1,2.1s-1.4,0-2.9,0c0,0-0.9,0.1-0.9-2.1V191c0-1.7-0.9-2.1-0.9-2.1h1.7c0.6,0,1.8,0,1.8,2.4V197.4L176.7,197.4
					z M171.7,197.4v-5.8c0-2.3-1.8-2.9-3.3-2.9c-1.7,0-2.4,1.5-2.6,2c-0.4-1.4-1.8-2-3-2c-2.3,0-2.8,2-2.8,2s-0.1-1.9-1.8-1.9h-1.7
					c0,0,1,0.4,1,2.1v6.4c0,1.5,0.4,2,0.6,2.2h2.9c-0.3-0.2-1-0.9-1-2.2v-5.7c0.1-0.3,0.5-1.1,1.7-1.1c0.7,0,1.4,0.7,1.4,1.5v5.3
					c0,2.1,0.8,2.1,0.8,2.1h2.9c0,0-1-0.7-1-2.1v-5.7c0.1-0.3,0.4-1.1,1.5-1.1c0.8,0,1.5,0.7,1.5,1.5c0,0,0,4.9,0,5.3
					c0,2.3,0.9,2.1,0.9,2.1c1.4,0,2.9,0,2.9,0S171.7,198.8,171.7,197.4L171.7,197.4z"/>
			</g>
			<g>
				<path d="M157.3,156.7c-0.2,0-0.3,0-0.4,0c-1.5,0-2.9,0-4.4,0c-0.2,0-0.4-0.1-0.5-0.3c-1.6-2.5-3.3-5-4.9-7.5
					c0-0.1-0.1-0.1-0.1-0.2c1.2-0.7,2.5-1.3,3.7-2C152.9,150.1,155.1,153.4,157.3,156.7z"/>
				<path d="M150.5,158.2c0-0.5,0-1,0-1.4c-1.3,0-2.5,0-3.8,0c0,0.3,0,0.6,0,0.9c-0.4,0-0.7,0-1.1,0c0,0,0,0,0-0.1
					c0.1-0.7-0.2-1.1-0.6-1.7c-0.8-1.2-1.6-2.4-2.4-3.6c1.2-0.7,2.4-1.3,3.7-2c0.1,0.2,0.2,0.3,0.3,0.4c1.2,1.9,2.5,3.8,3.7,5.7
					c0.2,0.2,0.3,0.4,0.6,0.3c0.2,0,0.4,0,0.6,0c0,1.8,0,3.5,0,5.3c-0.4,0-0.7,0.1-1.2-0.1c-1.1,0.5-2.3,0.1-2.9-0.6
					c-0.6-0.7-0.6-1.6-0.1-2.3C147.9,158.1,148.9,157.8,150.5,158.2z M150.5,160c0.1-0.5-0.5-1.1-1.2-1.1c-0.7,0-1.3,0.5-1.3,1.1
					c0,0.6,0.5,1.1,1.2,1.1C149.9,161.2,150.6,160.7,150.5,160z"/>
				<path d="M143.9,158.3c0-0.5,0-1,0-1.5c0.3,0,0.7,0,1,0c0,1.7,0,3.5,0,5.3c-0.4,0-0.7,0.1-1.2-0.1c-1.1,0.4-2.2,0.2-2.9-0.6
					c-0.6-0.7-0.6-1.6-0.1-2.3C141.4,158,142.4,157.8,143.9,158.3z M143.9,160c0-0.6-0.5-1.1-1.2-1.1c-0.7,0-1.2,0.5-1.2,1.1
					c0,0.6,0.5,1.1,1.2,1.1C143.4,161.2,143.9,160.7,143.9,160z"/>
				<path d="M155.3,158.2c0.4-0.3,0.7-0.1,1.1-0.2c0,1.3,0,2.6,0,3.9c-0.4-0.1-0.7,0.1-1.1-0.1c-1.4,0.6-2.5,0.1-3-0.7
					c-0.5-0.7-0.5-1.6,0-2.4C152.9,158,154,157.8,155.3,158.2z M155.4,160c0-0.6-0.5-1.1-1.2-1.1c-0.7,0-1.2,0.5-1.2,1.1
					c0,0.6,0.6,1.1,1.3,1.1C154.8,161.2,155.4,160.6,155.4,160z"/>
				<path d="M138.9,161.9c-0.6,0.3-1.3,0.3-1.9,0.1c-0.9-0.3-1.5-1.1-1.4-2c0-0.9,0.7-1.6,1.6-1.9c0.5-0.1,0.9-0.1,1.4,0.1
					c0.2,0.1,0.3,0.1,0.5,0c0.2-0.1,0.6,0,0.9,0c0,1.3,0,2.6,0,3.9C139.7,162,139.3,162.1,138.9,161.9z M139,160
					c0-0.6-0.5-1.1-1.2-1.1c-0.7,0-1.2,0.5-1.2,1.1c0,0.6,0.6,1.1,1.2,1.1C138.5,161.2,139,160.7,139,160z"/>
				<path d="M156.9,160.7c0.4,0,0.7,0,1,0c0.1,0,0.2,0.1,0.2,0.1c0.1,0.3,0.3,0.4,0.5,0.4c0.3,0,0.5,0,0.8,0c0.1,0,0.2-0.2,0.2-0.3
					c0-0.1-0.1-0.2-0.2-0.3c-0.4-0.1-0.8-0.2-1.2-0.3c-0.1,0-0.3-0.1-0.4-0.1c-0.4-0.1-0.7-0.4-0.8-0.9c0-0.5,0.1-0.8,0.5-1.1
					c0.7-0.4,2.1-0.4,2.7,0.1c0.3,0.2,0.4,0.5,0.4,0.9c-0.3,0-0.7,0-1,0c-0.1,0-0.1-0.1-0.2-0.2c-0.2-0.3-1-0.5-1.3-0.2
					c-0.2,0.2-0.1,0.3,0.1,0.4c0.4,0.1,0.8,0.2,1.2,0.3c0.2,0.1,0.4,0.1,0.6,0.2c0.4,0.2,0.6,0.5,0.6,0.9c0,0.4-0.2,0.8-0.5,1
					c-0.6,0.4-1.2,0.4-1.8,0.3c-0.4-0.1-0.7-0.2-1.1-0.4C157,161.5,156.9,161.2,156.9,160.7z"/>
				<path d="M141.8,153.9c0.6,1,1.2,1.9,1.9,2.9c-0.2,0-0.3,0-0.3,0c-1.5,0-2.9,0-4.4,0c-0.2,0-0.4-0.1-0.5-0.3
					c-0.1-0.2-0.2-0.4-0.4-0.6C139.4,155.2,140.6,154.6,141.8,153.9z"/>
				<path d="M146.6,162c-0.4,0-0.7,0-1.1,0c0-1.3,0-2.6,0-4c0.4,0,0.7,0,1.1,0C146.6,159.3,146.6,160.6,146.6,162z"/>
			</g>
			<g>
				<g>
					<g>
						<path fill="#FFFFFF" d="M210.9,146.7c-0.1,0-0.2-0.1-0.2-0.2c0-0.1,0.1-0.2,0.2-0.2s0.2,0.1,0.2,0.2
							C211.1,146.6,211,146.7,210.9,146.7 M207.9,147.5c-0.1,0-0.2-0.1-0.2-0.2c0-0.1,0.1-0.2,0.2-0.2c0.1,0,0.2,0.1,0.2,0.2
							C208.2,147.4,208.1,147.5,207.9,147.5 M213.9,146.7c-0.1,0-0.2-0.1-0.2-0.2c0-0.1,0.1-0.2,0.2-0.2c0.1,0,0.2,0.1,0.2,0.2
							C214.1,146.6,214,146.7,213.9,146.7 M219.4,145.4c0.2,0.1,0.3,0.4,0.2,0.6c-0.1,0.2-0.4,0.3-0.6,0.2c-0.2-0.1-0.3-0.4-0.2-0.6
							C218.9,145.4,219.2,145.3,219.4,145.4 M211.6,140.4c-0.1,0-0.2-0.1-0.2-0.2c0-0.1,0.1-0.2,0.2-0.2c0.1,0,0.2,0.1,0.2,0.2
							C211.9,140.3,211.8,140.4,211.6,140.4 M212.4,141.2c-0.1,0-0.2-0.1-0.2-0.2c0-0.1,0.1-0.2,0.2-0.2c0.1,0,0.2,0.1,0.2,0.2
							C212.6,141,212.5,141.2,212.4,141.2 M212.4,142c-0.1,0-0.2-0.1-0.2-0.2c0-0.1,0.1-0.2,0.2-0.2c0.1,0,0.2,0.1,0.2,0.2
							C212.6,141.9,212.5,142,212.4,142 M212.4,142.9c-0.1,0-0.2-0.1-0.2-0.2s0.1-0.2,0.2-0.2c0.1,0,0.2,0.1,0.2,0.2
							C212.6,142.8,212.5,142.9,212.4,142.9 M210.9,140.6c-0.1,0-0.2-0.1-0.2-0.2c0-0.1,0.1-0.2,0.2-0.2c0.1,0,0.2,0.1,0.2,0.2
							C211.1,140.4,211,140.6,210.9,140.6 M210.1,140.8c-0.1,0-0.2-0.1-0.2-0.2c0-0.1,0.1-0.2,0.2-0.2c0.1,0,0.2,0.1,0.2,0.2
							C210.3,140.7,210.2,140.8,210.1,140.8 M209.4,141.3c-0.1,0-0.2-0.1-0.2-0.2c0-0.1,0.1-0.2,0.2-0.2c0.1,0,0.2,0.1,0.2,0.2
							C209.6,141.2,209.5,141.3,209.4,141.3 M208.8,142c-0.1,0-0.2-0.1-0.2-0.2c0-0.1,0.1-0.2,0.2-0.2c0.1,0,0.2,0.1,0.2,0.2
							C209.1,141.8,209,142,208.8,142 M208.1,141.9c-0.1,0-0.2-0.1-0.2-0.2c0-0.1,0.1-0.2,0.2-0.2c0.1,0,0.2,0.1,0.2,0.2
							C208.3,141.8,208.2,141.9,208.1,141.9 M207.3,142.2c-0.1,0-0.2-0.1-0.2-0.2c0-0.1,0.1-0.2,0.2-0.2c0.1,0,0.2,0.1,0.2,0.2
							C207.6,142.1,207.5,142.2,207.3,142.2 M206.6,142.7c-0.1,0-0.2-0.1-0.2-0.2c0-0.1,0.1-0.2,0.2-0.2c0.1,0,0.2,0.1,0.2,0.2
							C206.9,142.6,206.8,142.7,206.6,142.7 M206.1,143.3c-0.1,0-0.2-0.1-0.2-0.2s0.1-0.2,0.2-0.2c0.1,0,0.2,0.1,0.2,0.2
							S206.2,143.3,206.1,143.3 M205.7,144.1c-0.1,0-0.2-0.1-0.2-0.2c0-0.1,0.1-0.2,0.2-0.2c0.1,0,0.2,0.1,0.2,0.2
							C206,144,205.9,144.1,205.7,144.1 M205.5,144.9c-0.1,0-0.2-0.1-0.2-0.2c0-0.1,0.1-0.2,0.2-0.2c0.1,0,0.2,0.1,0.2,0.2
							C205.8,144.8,205.7,144.9,205.5,144.9 M208.5,142.7c-0.1,0-0.2-0.1-0.2-0.2c0-0.1,0.1-0.2,0.2-0.2c0.1,0,0.2,0.1,0.2,0.2
							C208.7,142.6,208.6,142.7,208.5,142.7 M208.3,143.5c-0.1,0-0.2-0.1-0.2-0.2c0-0.1,0.1-0.2,0.2-0.2c0.1,0,0.2,0.1,0.2,0.2
							C208.5,143.4,208.4,143.5,208.3,143.5 M212.4,144.3c-0.2,0-0.4-0.2-0.4-0.4c0-0.2,0.2-0.4,0.4-0.4c0.2,0,0.4,0.2,0.4,0.4
							C212.8,144.1,212.6,144.3,212.4,144.3 M208.9,144.7c-0.2,0.1-0.5-0.1-0.5-0.3c-0.1-0.2,0.1-0.5,0.3-0.5
							c0.2-0.1,0.5,0.1,0.5,0.3C209.2,144.4,209.1,144.7,208.9,144.7 M205.8,146.2c-0.2,0.1-0.5,0-0.6-0.2c-0.1-0.2,0-0.5,0.2-0.6
							c0.2-0.1,0.5,0,0.6,0.2C206.1,145.8,206,146.1,205.8,146.2 M213.1,139.9c0.1,0,0.2,0.1,0.2,0.2c0,0.1-0.1,0.2-0.2,0.2
							c-0.1,0-0.2-0.1-0.2-0.2C212.9,140,213,139.9,213.1,139.9 M213.9,140.1c0.1,0,0.2,0.1,0.2,0.2c0,0.1-0.1,0.2-0.2,0.2
							c-0.1,0-0.2-0.1-0.2-0.2C213.7,140.2,213.8,140.1,213.9,140.1 M214.7,140.4c0.1,0,0.2,0.1,0.2,0.2c0,0.1-0.1,0.2-0.2,0.2
							c-0.1,0-0.2-0.1-0.2-0.2C214.4,140.5,214.5,140.4,214.7,140.4 M215.4,140.8c0.1,0,0.2,0.1,0.2,0.2c0,0.1-0.1,0.2-0.2,0.2
							c-0.1,0-0.2-0.1-0.2-0.2C215.2,140.9,215.3,140.8,215.4,140.8 M215.9,141.5c0.1,0,0.2,0.1,0.2,0.2c0,0.1-0.1,0.2-0.2,0.2
							c-0.1,0-0.2-0.1-0.2-0.2C215.7,141.6,215.8,141.5,215.9,141.5 M216.7,141.4c0.1,0,0.2,0.1,0.2,0.2c0,0.1-0.1,0.2-0.2,0.2
							c-0.1,0-0.2-0.1-0.2-0.2C216.5,141.5,216.6,141.4,216.7,141.4 M217.4,141.7c0.1,0,0.2,0.1,0.2,0.2c0,0.1-0.1,0.2-0.2,0.2
							c-0.1,0-0.2-0.1-0.2-0.2C217.2,141.8,217.3,141.7,217.4,141.7 M218.1,142.2c0.1,0,0.2,0.1,0.2,0.2c0,0.1-0.1,0.2-0.2,0.2
							c-0.1,0-0.2-0.1-0.2-0.2C217.9,142.3,218,142.2,218.1,142.2 M218.7,142.9c0.1,0,0.2,0.1,0.2,0.2s-0.1,0.2-0.2,0.2
							c-0.1,0-0.2-0.1-0.2-0.2C218.5,143,218.6,142.9,218.7,142.9 M219,143.6c0.1,0,0.2,0.1,0.2,0.2c0,0.1-0.1,0.2-0.2,0.2
							c-0.1,0-0.2-0.1-0.2-0.2C218.8,143.7,218.9,143.6,219,143.6 M219.2,144.5c0.1,0,0.2,0.1,0.2,0.2c0,0.1-0.1,0.2-0.2,0.2
							c-0.1,0-0.2-0.1-0.2-0.2C219,144.6,219.1,144.5,219.2,144.5 M216.3,142.2c0.1,0,0.2,0.1,0.2,0.2c0,0.1-0.1,0.2-0.2,0.2
							c-0.1,0-0.2-0.1-0.2-0.2C216.1,142.3,216.2,142.2,216.3,142.2 M216.5,143.1c0.1,0,0.2,0.1,0.2,0.2c0,0.1-0.1,0.2-0.2,0.2
							c-0.1,0-0.2-0.1-0.2-0.2C216.3,143.2,216.4,143.1,216.5,143.1 M216.1,143.9c0.2,0.1,0.4,0.3,0.3,0.5c-0.1,0.2-0.3,0.4-0.5,0.3
							c-0.2-0.1-0.4-0.3-0.3-0.5C215.7,144,215.9,143.8,216.1,143.9 M202.9,158.5c0-5.3,4.3-9.5,9.5-9.5c5.2,0,9.5,4.3,9.5,9.5
							c0,5.2-4.3,9.5-9.5,9.5C207.1,168,202.9,163.7,202.9,158.5 M216.8,147.5c-0.1,0-0.2-0.1-0.2-0.2c0-0.1,0.1-0.2,0.2-0.2
							c0.1,0,0.2,0.1,0.2,0.2C217.1,147.4,217,147.5,216.8,147.5"/>
						<g>
							<path fill="#EE334E" d="M216.7,143.8c0.2-0.1,0.3-0.2,0.3-0.4c0.3,0.1,0.5,0.1,0.8,0.2c0.2,0.1,0.4,0.2,0.5,0.3
								c0.1,0.3,0.2,0.7,0.2,1.2c-0.2,0.1-0.3,0.2-0.3,0.4c-0.1,0.2-0.1,0.5,0.2,0.7c-0.2,0-0.5-0.2-0.4-0.4c0-0.1,0.1-0.1,0.1-0.2
								c0.1-0.3-0.1-0.6-0.4-0.6c-0.3-0.1-0.6,0.1-0.6,0.4c0,0,0,0.1,0,0.1c-0.2,0.3-0.7,0.1-0.7-0.2c0.4,0.1,0.6-0.1,0.7-0.4
								c0.1-0.3,0-0.5-0.3-0.7C216.8,143.9,216.7,143.9,216.7,143.8 M216,145.6c-0.2-0.1-0.4-0.1-0.6-0.1c0.2-0.1,0.3-0.2,0.4-0.3
								C215.8,145.4,215.9,145.5,216,145.6 M217.3,145.8c0,0,0.1,0.1,0.2,0.1l0,0c0,0.1,0.1,0.2,0.1,0.3c-0.2-0.1-0.4-0.2-0.6-0.2
								C217.1,145.9,217.2,145.9,217.3,145.8 M212.4,144.8c0.1,0.2,0.2,0.3,0.3,0.4c-0.1,0-0.2,0-0.3,0c-0.1,0-0.2,0-0.3,0
								C212.2,145.1,212.3,144.9,212.4,144.8 M207.2,146.2c0.1-0.1,0.1-0.2,0.1-0.3l0,0c0.1,0,0.1,0,0.2-0.1
								c0.1,0.1,0.2,0.1,0.3,0.1C207.6,146,207.4,146.1,207.2,146.2 M209.4,145.5c-0.2,0-0.4,0.1-0.6,0.1c0.1-0.1,0.2-0.3,0.2-0.5
								C209.1,145.3,209.2,145.4,209.4,145.5 M210.6,145c0,0,0.1,0,0.1,0c0.1,0.1,0.2,0.2,0.3,0.3c-0.2,0-0.4,0-0.7,0.1
								C210.5,145.2,210.6,145.1,210.6,145 M214.1,145c0.1,0.1,0.1,0.3,0.2,0.3c-0.2,0-0.4-0.1-0.7-0.1c0.1-0.1,0.2-0.2,0.3-0.3
								C214.1,145,214.1,145,214.1,145"/>
							<path fill="#EE334E" d="M217.3,147.4l0.3-0.1l0,0.1l0.1,0.3l-0.2,0.1l-0.1,0l0-0.1L217.3,147.4z M207.4,147.4l-0.1,0.3l0,0.1
								l-0.1,0l-0.2-0.1l0.1-0.3l0-0.1l0.1,0L207.4,147.4z M213.1,146.4l-0.8,0.3l-0.8-0.3l0.8-0.3L213.1,146.4z M207,143.6
								c0.2-0.1,0.5-0.2,0.8-0.2c0,0.2,0.2,0.3,0.3,0.4c0,0.1,0,0.1,0,0.2c-0.3,0.2-0.3,0.4-0.3,0.7c0.1,0.3,0.3,0.5,0.7,0.4
								c0,0.4-0.5,0.5-0.7,0.2c0,0,0-0.1,0-0.1c-0.1-0.3-0.4-0.5-0.6-0.4c-0.3,0.1-0.5,0.4-0.4,0.6c0,0.1,0.1,0.1,0.1,0.2
								c0,0.2-0.1,0.3-0.2,0.4c-0.1,0-0.2,0.1-0.2,0.1c0.3-0.2,0.3-0.4,0.2-0.7c-0.1-0.2-0.2-0.3-0.3-0.4c0-0.5,0.1-0.8,0.2-1.2
								C206.6,143.8,206.7,143.7,207,143.6 M212.8,142.3c0.9-0.1,2,0,2.8,0.4c0.1,0.2,0.1,0.5,0.2,0.7c-0.1,0-0.2,0.1-0.2,0.2
								c-0.3,0-0.5,0.2-0.5,0.5c-0.1,0.3,0,0.6,0.4,0.7c-0.1,0.2-0.3,0.2-0.5,0.2c-0.2,0-0.3-0.2-0.3-0.4c0-0.1,0.1-0.2,0.1-0.3
								c0-0.3-0.2-0.5-0.5-0.5c-0.3,0-0.5,0.2-0.5,0.5c0,0,0,0.1,0,0.1c-0.1,0.2-0.2,0.3-0.4,0.3c-0.2,0-0.3-0.1-0.4-0.3
								c0.5,0,0.6-0.3,0.6-0.6c0-0.3-0.1-0.5-0.4-0.6c0-0.2-0.2-0.3-0.3-0.4c0.1-0.1,0.2-0.2,0.2-0.4
								C212.9,142.5,212.8,142.5,212.8,142.3L212.8,142.3z M209.2,142.7c0.8-0.5,2-0.6,2.8-0.4v0.1c0,0.1-0.1,0.2-0.1,0.3
								c0,0.1,0.1,0.3,0.2,0.4c-0.2,0.1-0.3,0.2-0.3,0.4c-0.3,0.1-0.4,0.3-0.4,0.6c0,0.3,0.1,0.6,0.6,0.6c-0.1,0.2-0.2,0.3-0.4,0.3
								c-0.2,0-0.3-0.1-0.4-0.3c0,0,0-0.1,0-0.1c0-0.3-0.2-0.5-0.5-0.5c-0.3,0-0.5,0.2-0.5,0.5c0,0.1,0,0.2,0.1,0.3
								c0,0.2-0.1,0.3-0.3,0.4c-0.2,0-0.4,0-0.5-0.2c0.4-0.1,0.5-0.4,0.4-0.7c-0.1-0.3-0.2-0.5-0.5-0.5c-0.1-0.1-0.1-0.2-0.2-0.2
								C209,143.2,209.1,143,209.2,142.7"/>
							<path fill="#FEBE10" d="M214.7,152.8l2.1-2.2c2.7,1.6,4.5,4.5,4.5,7.8c0,2.2-0.8,4.2-2.1,5.7l-1-1c1.1-1.3,1.8-2.7,1.8-4.8
								c0-2.3-1.2-4.8-3.1-6.2l-1.3,1.3c0.6,0.5,1.2,1,1.6,1.7l-1,0.8c-0.4-0.7-0.9-1.1-1.5-1.6l-2.5,2.6l-2.6-2.7
								c-1.3,0.9-2.1,2.3-2.2,4c0,2.2,1.4,3.8,3.4,4.4v-4.5h3.1v0.9h-1.9v1.2h1.9v1h-1.9v1.5c1.4,0.1,2.8-0.7,3.7-1.7l0.9,0.9
								c-1.2,1.4-2.9,2.1-4.7,2.1v1.4H211v-1.5c-2.7-0.7-4.7-3.1-4.6-5.9c0-2,1.1-3.6,2.6-4.7l-1.3-1.3c-2,1.6-3,3.6-3.1,6.2
								c-0.1,2.3,1.1,4.1,1.8,4.9l-0.9,0.9c-1.3-1.5-2.1-3.5-2.1-5.6c0-3.3,1.8-6.2,4.5-7.8l2.1,2.2c0.8-0.3,1.5-0.4,2.3-0.4
								C213.2,152.4,213.9,152.6,214.7,152.8L214.7,152.8z M211,153.8l1.4,1.5l1.3-1.4c-0.5-0.1-0.9-0.2-1.4-0.2
								C211.9,153.6,211.4,153.7,211,153.8 M223.3,158.5c0,6-4.9,10.9-10.9,10.9c-6,0-10.9-4.9-10.9-10.9c0-6,4.9-10.9,10.9-10.9
								C218.4,147.5,223.3,152.4,223.3,158.5 M202.5,158.5c0,5.4,4.4,9.9,9.9,9.9c5.4,0,9.9-4.4,9.9-9.9c0-5.4-4.4-9.9-9.9-9.9
								C207,148.6,202.5,153,202.5,158.5 M213.3,146.4l-1-0.4l-1,0.4l1,0.4L213.3,146.4z M215.3,147l0.9-0.1l-0.7-0.5l-0.9,0.1
								L215.3,147z M213.9,146.7c0.2,0,0.3-0.1,0.3-0.3c0-0.2-0.1-0.3-0.3-0.3c-0.2,0-0.3,0.1-0.3,0.3
								C213.6,146.6,213.7,146.7,213.9,146.7 M207.9,147.5c0.2,0,0.3-0.1,0.3-0.3c0-0.2-0.1-0.3-0.3-0.3c-0.2,0-0.3,0.1-0.3,0.3
								C207.6,147.4,207.8,147.5,207.9,147.5 M210.9,146.7c0.2,0,0.3-0.1,0.3-0.3c0-0.2-0.1-0.3-0.3-0.3c-0.2,0-0.3,0.1-0.3,0.3
								C210.6,146.6,210.7,146.7,210.9,146.7 M216.8,147.5c0.2,0,0.3-0.1,0.3-0.3c0-0.2-0.1-0.3-0.3-0.3c-0.2,0-0.3,0.1-0.3,0.3
								C216.5,147.4,216.7,147.5,216.8,147.5 M209.5,147l0.7-0.5l-0.9-0.1l-0.7,0.5L209.5,147z M207.5,147.3l-0.3-0.1l0-0.1
								c0,0-0.1,0-0.1,0c-0.1,0-0.1-0.1,0-0.1c1.6-0.8,3.4-1.2,5.4-1.2c1.9,0,3.7,0.4,5.4,1.2c0,0,0.1,0.1,0,0.1c0,0,0,0-0.1,0
								l0,0.1l-0.4,0.1l0.1,0.4l0,0.1c0.2,0.1,0.1,0.2,0,0.2c-1.5-0.7-3.2-1.1-4.9-1.1c-1.8,0-3.4,0.4-4.9,1.1c0,0-0.1,0-0.1,0
								c0,0,0-0.1,0-0.1c0,0,0,0,0.1,0l0-0.1L207.5,147.3z M217.8,146.9c-1.6-0.8-3.5-1.2-5.4-1.2c-1.9,0-3.8,0.4-5.4,1.2
								c-0.1,0.1-0.2,0-0.3-0.1c-0.1-0.1,0-0.2,0-0.3c-0.3,0.1-0.6,0.1-0.9-0.1c-0.5,0.4-1.2-0.4-0.8-0.7c-0.2-0.3-0.2-0.5,0.1-0.7
								c-0.1-0.1-0.1-0.2-0.1-0.3c0-0.3,0.2-0.4,0.4-0.4c-0.1-0.1-0.3-0.2-0.3-0.4c0-0.3,0.2-0.4,0.5-0.4c-0.1-0.1-0.1-0.2-0.1-0.3
								c0-0.2,0.2-0.4,0.4-0.4c0.1,0,0.1,0,0.2,0c0-0.1-0.1-0.2-0.1-0.3c0-0.2,0.2-0.4,0.4-0.4c0.1,0,0.2,0,0.3,0.1
								c0-0.1,0-0.1,0-0.2c0-0.2,0.2-0.4,0.4-0.4c0.1,0,0.2,0.1,0.3,0.1c0-0.2,0.2-0.4,0.4-0.4c0.2,0,0.3,0.1,0.4,0.3
								c0.1-0.1,0.2-0.2,0.4-0.2c0.1,0,0.1,0,0.2,0c0-0.1-0.1-0.2-0.1-0.2c0-0.2,0.2-0.4,0.4-0.4c0.1,0,0.2,0.1,0.3,0.1
								c0-0.1,0-0.1,0-0.2c0-0.2,0.2-0.4,0.4-0.4c0.1,0,0.2,0.1,0.3,0.1c0-0.2,0.2-0.4,0.4-0.4c0.2,0,0.2,0.1,0.4,0.2
								c0.1-0.2,0.2-0.3,0.4-0.3c0.1,0,0.1,0,0.2,0c0.1-0.2,0.3-0.2,0.4-0.3v-0.5h-0.4v-0.3h0.4v-0.3h0.3v0.3h0.4v0.3h-0.4v0.5
								c0.2,0,0.3,0.1,0.4,0.3c0.1,0,0.1,0,0.2,0c0.2,0,0.3,0.1,0.4,0.3c0.1-0.1,0.2-0.2,0.4-0.2c0.3,0,0.4,0.2,0.4,0.4
								c0.1-0.1,0.2-0.1,0.3-0.1c0.2,0,0.4,0.2,0.4,0.4c0,0.1,0,0.1,0,0.2c0.1-0.1,0.2-0.1,0.3-0.1c0.2,0,0.4,0.2,0.4,0.4
								c0,0.1,0,0.2-0.1,0.2c0.1,0,0.1,0,0.2,0c0.2,0,0.3,0.1,0.4,0.2c0.1-0.1,0.2-0.3,0.4-0.3c0.3,0,0.4,0.2,0.4,0.4
								c0.1-0.1,0.2-0.1,0.3-0.1c0.2,0,0.4,0.2,0.4,0.4c0,0.1,0,0.1,0,0.2c0.1-0.1,0.2-0.1,0.3-0.1c0.2,0,0.4,0.2,0.4,0.4
								c0,0.1,0,0.2-0.1,0.3c0.1,0,0.1,0,0.2,0c0.2,0,0.4,0.2,0.4,0.4c0,0.1-0.1,0.2-0.1,0.3c0.2,0,0.5,0.1,0.5,0.4
								c0,0.2-0.1,0.3-0.3,0.4c0.2,0,0.4,0.2,0.4,0.4c0,0.1,0,0.2-0.1,0.3c0.3,0.2,0.3,0.4,0.1,0.7c0.2,0.2,0.1,0.5-0.1,0.7
								c-0.2,0.2-0.4,0.2-0.7,0c-0.3,0.2-0.5,0.2-0.9,0.1l0.1,0.1C218.2,146.8,218,147,217.8,146.9 M206.4,145.5
								c0.1,0.4,0,0.5-0.3,0.7c0.2,0.1,0.3,0.1,0.5,0c0.2-0.1,0.3-0.3,0.3-0.5c-0.1-0.1-0.1-0.1-0.1-0.2c-0.1-0.2,0.1-0.5,0.3-0.5
								c0.2-0.1,0.5,0.1,0.5,0.3c0,0,0,0.1,0,0.1c0.3,0.4,1,0.2,0.9-0.4c-0.4,0.1-0.6,0.1-0.7-0.3c-0.1-0.3,0-0.4,0.3-0.6
								c0-0.2,0-0.2,0.1-0.3c-0.2-0.1-0.4-0.2-0.4-0.4c0-0.3,0.2-0.4,0.4-0.4c-0.1-0.1-0.3-0.2-0.3-0.4c0,0,0,0-0.1-0.1
								c-1.3,0.7-1.7,1.3-1.8,2.8C206.3,145.2,206.4,145.4,206.4,145.5 M212,140.9C212,140.9,212,140.9,212,140.9
								c-1.7-0.2-2.9,1-3.1,2.6c0.2,0.1,0.2,0.1,0.3,0.3c0.3,0,0.4,0.1,0.5,0.4c0.1,0.4-0.1,0.5-0.5,0.6c0.1,0.3,0.3,0.4,0.6,0.3
								c0.2-0.1,0.4-0.3,0.4-0.5c0-0.1-0.1-0.1-0.1-0.2c0-0.2,0.2-0.4,0.4-0.4c0.2,0,0.4,0.2,0.4,0.4c0,0,0,0.1,0,0.1
								c0.1,0.2,0.3,0.4,0.5,0.4c0.3,0,0.5-0.2,0.5-0.5c-0.4,0-0.6-0.1-0.6-0.5c0-0.3,0.1-0.4,0.4-0.5c0.1-0.4,0.2-0.4,0.5-0.4
								c0.3,0,0.5,0.1,0.5,0.4c0.3,0.1,0.4,0.2,0.4,0.5c0,0.4-0.2,0.5-0.6,0.5c0,0.3,0.2,0.5,0.5,0.5c0.2,0,0.4-0.2,0.5-0.4
								c0,0,0-0.1,0-0.1c0-0.2,0.2-0.4,0.4-0.4c0.2,0,0.4,0.2,0.4,0.4c0,0.1,0,0.2-0.1,0.2c0,0.2,0.2,0.4,0.4,0.5
								c0.3,0.1,0.5-0.1,0.6-0.3c-0.4-0.1-0.6-0.2-0.5-0.6c0.1-0.3,0.2-0.4,0.5-0.4c0.1-0.2,0.1-0.2,0.3-0.3
								c-0.2-1.7-1.4-2.8-3.1-2.7c0,0,0,0.1,0,0.1c0,0.1,0,0.2-0.1,0.2v0.4c0,0.1,0.1,0.1,0.1,0.2c0,0.1,0,0.2-0.1,0.2l0,0.4
								c0,0.1,0.1,0.1,0.1,0.2c0,0.2-0.2,0.3-0.4,0.4c-0.2-0.1-0.4-0.2-0.4-0.4c0-0.1,0-0.2,0.1-0.2V142c0-0.1-0.1-0.1-0.1-0.2
								c0-0.1,0-0.2,0.1-0.2v-0.4C212,141.1,212,141,212,140.9 M218.1,146.2c0.2,0.1,0.4,0.1,0.5,0c-0.3-0.2-0.5-0.3-0.3-0.7
								c0.1-0.2,0.1-0.3,0.3-0.3c-0.1-1.5-0.5-2.1-1.8-2.8l-0.1,0c0,0,0,0,0,0.1c0,0.2-0.1,0.3-0.3,0.4c0.2,0,0.4,0.2,0.4,0.4
								c0,0.2-0.2,0.4-0.4,0.4c0.1,0.1,0.1,0.2,0.1,0.3c0.3,0.1,0.3,0.3,0.3,0.6c-0.1,0.4-0.3,0.4-0.7,0.3c-0.1,0.6,0.6,0.8,0.9,0.4
								c0,0,0-0.1,0-0.1c0.1-0.2,0.3-0.4,0.5-0.3c0.2,0.1,0.4,0.3,0.3,0.5c0,0.1-0.1,0.1-0.1,0.2
								C217.9,145.9,217.9,146.1,218.1,146.2 M211.6,140.4c0.1,0,0.2-0.1,0.2-0.2c0-0.1-0.1-0.2-0.2-0.2c-0.1,0-0.2,0.1-0.2,0.2
								C211.4,140.3,211.5,140.4,211.6,140.4 M212.4,141.2c0.1,0,0.2-0.1,0.2-0.2c0-0.1-0.1-0.2-0.2-0.2c-0.1,0-0.2,0.1-0.2,0.2
								C212.1,141,212.3,141.2,212.4,141.2 M212.4,142c0.1,0,0.2-0.1,0.2-0.2c0-0.1-0.1-0.2-0.2-0.2c-0.1,0-0.2,0.1-0.2,0.2
								C212.1,141.9,212.3,142,212.4,142 M212.4,142.9c0.1,0,0.2-0.1,0.2-0.2c0-0.1-0.1-0.2-0.2-0.2c-0.1,0-0.2,0.1-0.2,0.2
								C212.1,142.8,212.3,142.9,212.4,142.9 M210.9,140.6c0.1,0,0.2-0.1,0.2-0.2c0-0.1-0.1-0.2-0.2-0.2c-0.1,0-0.2,0.1-0.2,0.2
								C210.6,140.4,210.7,140.6,210.9,140.6 M210.1,140.8c0.1,0,0.2-0.1,0.2-0.2c0-0.1-0.1-0.2-0.2-0.2c-0.1,0-0.2,0.1-0.2,0.2
								C209.9,140.7,210,140.8,210.1,140.8 M209.4,141.3c0.1,0,0.2-0.1,0.2-0.2c0-0.1-0.1-0.2-0.2-0.2c-0.1,0-0.2,0.1-0.2,0.2
								C209.1,141.2,209.3,141.3,209.4,141.3 M208.8,142c0.1,0,0.2-0.1,0.2-0.2c0-0.1-0.1-0.2-0.2-0.2c-0.1,0-0.2,0.1-0.2,0.2
								C208.6,141.8,208.7,142,208.8,142 M208.1,141.9c0.1,0,0.2-0.1,0.2-0.2c0-0.1-0.1-0.2-0.2-0.2c-0.1,0-0.2,0.1-0.2,0.2
								C207.8,141.8,207.9,141.9,208.1,141.9 M207.3,142.2c0.1,0,0.2-0.1,0.2-0.2c0-0.1-0.1-0.2-0.2-0.2c-0.1,0-0.2,0.1-0.2,0.2
								C207.1,142.1,207.2,142.2,207.3,142.2 M206.6,142.7c0.1,0,0.2-0.1,0.2-0.2c0-0.1-0.1-0.2-0.2-0.2c-0.1,0-0.2,0.1-0.2,0.2
								C206.4,142.6,206.5,142.7,206.6,142.7 M206.1,143.3c0.1,0,0.2-0.1,0.2-0.2c0-0.1-0.1-0.2-0.2-0.2c-0.1,0-0.2,0.1-0.2,0.2
								C205.8,143.2,205.9,143.3,206.1,143.3 M205.7,144.1c0.1,0,0.2-0.1,0.2-0.2c0-0.1-0.1-0.2-0.2-0.2c-0.1,0-0.2,0.1-0.2,0.2
								C205.5,144,205.6,144.1,205.7,144.1 M205.5,144.9c0.1,0,0.2-0.1,0.2-0.2c0-0.1-0.1-0.2-0.2-0.2c-0.1,0-0.2,0.1-0.2,0.2
								C205.3,144.8,205.4,144.9,205.5,144.9 M208.5,142.7c0.1,0,0.2-0.1,0.2-0.2c0-0.1-0.1-0.2-0.2-0.2c-0.1,0-0.2,0.1-0.2,0.2
								C208.2,142.6,208.3,142.7,208.5,142.7 M208.3,143.5c0.1,0,0.2-0.1,0.2-0.2c0-0.1-0.1-0.2-0.2-0.2c-0.1,0-0.2,0.1-0.2,0.2
								C208,143.4,208.1,143.5,208.3,143.5 M212.4,144.3c0.2,0,0.4-0.2,0.4-0.4c0-0.2-0.2-0.4-0.4-0.4c-0.2,0-0.4,0.2-0.4,0.4
								C212,144.1,212.2,144.3,212.4,144.3 M208.9,144.7c0.2-0.1,0.4-0.3,0.3-0.5c-0.1-0.2-0.3-0.4-0.5-0.3
								c-0.2,0.1-0.4,0.3-0.3,0.5C208.4,144.7,208.6,144.8,208.9,144.7 M205.8,146.2c0.2-0.1,0.3-0.4,0.2-0.6
								c-0.1-0.2-0.4-0.3-0.6-0.2c-0.2,0.1-0.3,0.4-0.2,0.6C205.4,146.2,205.6,146.3,205.8,146.2 M213.1,139.9
								c-0.1,0-0.2,0.1-0.2,0.2c0,0.1,0.1,0.2,0.2,0.2c0.1,0,0.2-0.1,0.2-0.2C213.4,140,213.3,139.9,213.1,139.9 M213.9,140.1
								c-0.1,0-0.2,0.1-0.2,0.2c0,0.1,0.1,0.2,0.2,0.2c0.1,0,0.2-0.1,0.2-0.2C214.1,140.2,214,140.1,213.9,140.1 M214.7,140.4
								c-0.1,0-0.2,0.1-0.2,0.2c0,0.1,0.1,0.2,0.2,0.2c0.1,0,0.2-0.1,0.2-0.2C214.9,140.5,214.8,140.4,214.7,140.4 M215.4,140.8
								c-0.1,0-0.2,0.1-0.2,0.2c0,0.1,0.1,0.2,0.2,0.2s0.2-0.1,0.2-0.2C215.6,140.9,215.5,140.8,215.4,140.8 M215.9,141.5
								c-0.1,0-0.2,0.1-0.2,0.2c0,0.1,0.1,0.2,0.2,0.2c0.1,0,0.2-0.1,0.2-0.2C216.2,141.6,216.1,141.5,215.9,141.5 M216.7,141.4
								c-0.1,0-0.2,0.1-0.2,0.2c0,0.1,0.1,0.2,0.2,0.2c0.1,0,0.2-0.1,0.2-0.2C216.9,141.5,216.8,141.4,216.7,141.4 M217.4,141.7
								c-0.1,0-0.2,0.1-0.2,0.2c0,0.1,0.1,0.2,0.2,0.2c0.1,0,0.2-0.1,0.2-0.2C217.7,141.8,217.6,141.7,217.4,141.7 M218.1,142.2
								c-0.1,0-0.2,0.1-0.2,0.2c0,0.1,0.1,0.2,0.2,0.2c0.1,0,0.2-0.1,0.2-0.2C218.4,142.3,218.3,142.2,218.1,142.2 M218.7,142.9
								c-0.1,0-0.2,0.1-0.2,0.2c0,0.1,0.1,0.2,0.2,0.2c0.1,0,0.2-0.1,0.2-0.2C218.9,143,218.8,142.9,218.7,142.9 M219,143.6
								c-0.1,0-0.2,0.1-0.2,0.2c0,0.1,0.1,0.2,0.2,0.2c0.1,0,0.2-0.1,0.2-0.2C219.3,143.7,219.2,143.6,219,143.6 M219.2,144.5
								c-0.1,0-0.2,0.1-0.2,0.2c0,0.1,0.1,0.2,0.2,0.2c0.1,0,0.2-0.1,0.2-0.2C219.5,144.6,219.4,144.5,219.2,144.5 M216.3,142.2
								c-0.1,0-0.2,0.1-0.2,0.2c0,0.1,0.1,0.2,0.2,0.2c0.1,0,0.2-0.1,0.2-0.2C216.6,142.3,216.4,142.2,216.3,142.2 M216.5,143.1
								c-0.1,0-0.2,0.1-0.2,0.2c0,0.1,0.1,0.2,0.2,0.2c0.1,0,0.2-0.1,0.2-0.2C216.7,143.2,216.6,143.1,216.5,143.1 M216.1,143.9
								c-0.2-0.1-0.5,0.1-0.5,0.3c-0.1,0.2,0.1,0.5,0.3,0.5c0.2,0.1,0.5-0.1,0.5-0.3C216.5,144.2,216.4,144,216.1,143.9
								 M219.4,145.4c-0.2-0.1-0.5,0-0.6,0.2c-0.1,0.2,0,0.5,0.2,0.6c0.2,0.1,0.5,0,0.6-0.2C219.6,145.8,219.6,145.5,219.4,145.4
								 M214.1,145c0,0-0.1,0-0.1,0c-0.1,0.1-0.2,0.2-0.3,0.3c0.2,0,0.4,0,0.7,0.1C214.3,145.2,214.2,145.1,214.1,145L214.1,145z
								 M210.6,145c-0.1,0.1-0.1,0.2-0.2,0.3c0.2,0,0.4-0.1,0.7-0.1c-0.1-0.1-0.2-0.2-0.3-0.3C210.7,145,210.7,145,210.6,145
								 M209.4,145.5c-0.2-0.1-0.3-0.2-0.4-0.3c0,0.2-0.1,0.3-0.2,0.5C209,145.6,209.2,145.5,209.4,145.5 M207.2,146.2
								c0.2-0.1,0.4-0.2,0.6-0.2c-0.1,0-0.2-0.1-0.3-0.1c0,0-0.1,0.1-0.2,0.1l0,0C207.3,146,207.2,146.1,207.2,146.2 M212.4,144.8
								c-0.1,0.2-0.2,0.3-0.3,0.4c0.1,0,0.2,0,0.3,0c0.1,0,0.2,0,0.3,0C212.6,145.1,212.4,144.9,212.4,144.8 M217.3,145.8
								c-0.1,0.1-0.2,0.1-0.3,0.1c0.2,0.1,0.4,0.2,0.6,0.2c-0.1-0.1-0.1-0.2-0.1-0.3l0,0C217.4,145.9,217.3,145.9,217.3,145.8
								 M216,145.6c-0.1-0.1-0.2-0.3-0.2-0.5c-0.1,0.1-0.2,0.2-0.4,0.3C215.6,145.5,215.8,145.6,216,145.6"/>
						</g>
					</g>
					<g>
						<circle fill="none" cx="213.9" cy="140.3" r="0.2"/>
						<polygon fill="none" points="207.4,147.4 207.2,147.3 207.1,147.3 207,147.6 207.3,147.7 207.4,147.6 						"/>
						<circle fill="none" cx="213.1" cy="140.2" r="0.2"/>
						<polygon fill="none" points="217.3,147.4 217.4,147.6 217.4,147.7 217.7,147.6 217.7,147.3 						"/>
						<circle fill="none" cx="215.4" cy="141.1" r="0.2"/>
						<circle fill="none" cx="210.9" cy="146.4" r="0.2"/>
						<circle fill="none" cx="215.9" cy="141.7" r="0.2"/>
						<circle fill="none" cx="208.5" cy="142.5" r="0.2"/>
						<circle fill="none" cx="212.4" cy="140.9" r="0.2"/>
						<circle fill="none" cx="207.9" cy="147.2" r="0.2"/>
						<circle fill="none" cx="216.3" cy="142.5" r="0.2"/>
						<path fill="none" d="M212,142.2V142c0-0.1-0.1-0.2-0.1-0.3c0-0.1,0-0.2,0.1-0.3v-0.4c0-0.1-0.1-0.2-0.1-0.3
							c-1.3-0.1-2.3,0.7-2.7,1.7C210,142.2,211.1,142.1,212,142.2z"/>
						<path fill="none" d="M213,143.4c0.3,0.1,0.4,0.3,0.4,0.6c0,0.3-0.1,0.6-0.6,0.6c0.1,0.2,0.2,0.3,0.4,0.3
							c0.2,0,0.3-0.1,0.4-0.3c0,0,0-0.1,0-0.1c0-0.3,0.2-0.5,0.5-0.5c0.3,0,0.5,0.2,0.5,0.5c0,0.1,0,0.2-0.1,0.3
							c0,0.2,0.1,0.3,0.3,0.4c0.2,0,0.4,0,0.5-0.2c-0.4-0.1-0.5-0.4-0.4-0.7c0.1-0.3,0.2-0.5,0.5-0.5c0.1-0.1,0.1-0.2,0.2-0.2
							c0-0.2-0.1-0.5-0.2-0.7c-0.8-0.5-2-0.6-2.8-0.4v0.1c0,0.1,0.1,0.2,0.1,0.3c0,0.1-0.1,0.3-0.2,0.4
							C212.8,143.1,213,143.2,213,143.4z"/>
						<path fill="none" d="M209.2,143.7c0.3,0,0.5,0.2,0.5,0.5c0.1,0.3,0,0.6-0.4,0.7c0.1,0.2,0.3,0.2,0.5,0.2
							c0.2,0,0.3-0.2,0.3-0.4c0-0.1-0.1-0.2-0.1-0.3c0-0.3,0.2-0.5,0.5-0.5c0.3,0,0.5,0.2,0.5,0.5c0,0,0,0.1,0,0.1
							c0.1,0.2,0.2,0.3,0.4,0.3c0.2,0,0.3-0.1,0.4-0.3c-0.5,0-0.6-0.3-0.6-0.6c0-0.3,0.1-0.5,0.4-0.6c0-0.2,0.2-0.3,0.3-0.4
							c-0.1-0.1-0.2-0.2-0.2-0.4c0-0.1,0-0.2,0.1-0.3v-0.1c-0.9-0.1-2,0-2.8,0.4c-0.1,0.2-0.1,0.5-0.2,0.7
							C209.1,143.5,209.2,143.6,209.2,143.7z"/>
						<circle fill="none" cx="209.4" cy="141.1" r="0.2"/>
						<circle fill="none" cx="208.8" cy="141.7" r="0.2"/>
						<path fill="none" d="M215.6,142.6c-0.4-1.1-1.4-1.8-2.7-1.7c0,0.1,0,0.2-0.1,0.3v0.4c0,0.1,0.1,0.2,0.1,0.3
							c0,0.1,0,0.2-0.1,0.3v0.2C213.7,142.1,214.7,142.2,215.6,142.6z"/>
						<circle fill="none" cx="212.4" cy="142.6" r="0.2"/>
						<circle fill="none" cx="212.4" cy="141.8" r="0.2"/>
						<circle fill="none" cx="211.6" cy="140.2" r="0.2"/>
						<circle fill="none" cx="210.1" cy="140.6" r="0.2"/>
						<circle fill="none" cx="210.9" cy="140.3" r="0.2"/>
						<circle fill="none" cx="214.7" cy="140.6" r="0.2"/>
						<circle fill="none" cx="216" cy="144.3" r="0.4"/>
						<path fill="none" d="M215.4,145.5c0.2,0,0.4,0.1,0.6,0.1c-0.1-0.1-0.2-0.3-0.2-0.5C215.7,145.3,215.6,145.4,215.4,145.5z"/>
						<path fill="none" d="M207.3,145.9c-0.1,0.1-0.1,0.2-0.2,0.3c0.2-0.1,0.4-0.2,0.6-0.2c-0.1,0-0.2-0.1-0.3-0.1
							C207.4,145.9,207.4,145.9,207.3,145.9z"/>
						<path fill="none" d="M217.3,145.8c-0.1,0.1-0.2,0.1-0.3,0.1c0.2,0.1,0.4,0.2,0.6,0.2c-0.1-0.1-0.1-0.2-0.1-0.3
							C217.4,145.9,217.3,145.9,217.3,145.8z"/>
						<path fill="none" d="M209,145.2c0,0.2-0.1,0.3-0.2,0.5c0.2-0.1,0.4-0.1,0.6-0.1C209.2,145.4,209.1,145.3,209,145.2z"/>
						<circle fill="none" cx="216.5" cy="143.3" r="0.2"/>
						<path fill="none" d="M217.7,147.1c-1.6-0.8-3.4-1.2-5.4-1.2c-1.9,0-3.7,0.4-5.4,1.2c0,0-0.1,0.1,0,0.1c0,0,0,0,0.1,0l0.4,0.2
							l-0.1,0.4l0,0.1c0,0,0,0-0.1,0c0,0-0.1,0.1,0,0.1c0,0,0.1,0.1,0.1,0c1.5-0.7,3.2-1.1,4.9-1.1c1.8,0,3.4,0.4,4.9,1.1
							c0.1,0,0.2-0.1,0-0.2l0-0.1l-0.1-0.4l0.4-0.1c0.1,0,0.1,0,0.1,0C217.8,147.2,217.8,147.1,217.7,147.1z M207.9,147.5
							c-0.2,0-0.3-0.1-0.3-0.3c0-0.2,0.1-0.3,0.3-0.3c0.2,0,0.3,0.1,0.3,0.3C208.2,147.4,208.1,147.5,207.9,147.5z M209.5,147
							l-0.9-0.1l0.7-0.5l0.9,0.1L209.5,147z M210.9,146.7c-0.2,0-0.3-0.1-0.3-0.3c0-0.2,0.1-0.3,0.3-0.3c0.2,0,0.3,0.1,0.3,0.3
							C211.2,146.6,211,146.7,210.9,146.7z M212.4,146.7l-1-0.4l1-0.4l1,0.4L212.4,146.7z M213.9,146.7c-0.2,0-0.3-0.1-0.3-0.3
							c0-0.2,0.1-0.3,0.3-0.3c0.2,0,0.3,0.1,0.3,0.3C214.2,146.6,214.1,146.7,213.9,146.7z M215.3,147l-0.7-0.5l0.9-0.1l0.7,0.5
							L215.3,147z M216.8,147.5c-0.2,0-0.3-0.1-0.3-0.3c0-0.2,0.1-0.3,0.3-0.3c0.2,0,0.3,0.1,0.3,0.3
							C217.1,147.4,217,147.5,216.8,147.5z"/>
						<path fill="none" d="M210.7,144.9c0,0-0.1,0-0.1,0c-0.1,0.1-0.1,0.2-0.2,0.3c0.2,0,0.4-0.1,0.7-0.1
							C210.9,145.2,210.8,145.1,210.7,144.9z"/>
						<path fill="none" d="M212.4,144.8c-0.1,0.2-0.2,0.3-0.3,0.4l0.3,0l0.3,0C212.6,145.1,212.4,144.9,212.4,144.8z"/>
						<circle fill="none" cx="212.4" cy="143.9" r="0.4"/>
						<circle fill="none" cx="208.8" cy="144.3" r="0.4"/>
						<path fill="none" d="M214.1,145c0,0-0.1,0-0.1,0c-0.1,0.1-0.2,0.2-0.3,0.3c0.2,0,0.4,0,0.7,0.1
							C214.3,145.2,214.2,145.1,214.1,145L214.1,145z"/>
						<polygon fill="none" points="211.6,146.4 212.4,146.6 213.1,146.4 212.4,146.1 						"/>
						<circle fill="none" cx="217.4" cy="141.9" r="0.2"/>
						<circle fill="none" cx="216.7" cy="141.7" r="0.2"/>
						<path fill="none" d="M217,143.3c0.3,0.1,0.5,0.2,0.8,0.3c0.2,0.1,0.3,0.2,0.4,0.2c-0.3-0.5-0.7-0.9-1.4-1.3
							c0,0.1-0.1,0.2-0.1,0.3C216.9,142.9,217,143.1,217,143.3z"/>
						<circle fill="none" cx="218.1" cy="142.4" r="0.2"/>
						<path fill="none" d="M217,143.4c0,0.2-0.2,0.3-0.3,0.4c0,0.1,0,0.1,0,0.2c0.3,0.2,0.3,0.4,0.3,0.7c-0.1,0.3-0.3,0.5-0.7,0.4
							c0,0.4,0.5,0.5,0.7,0.2c0,0,0-0.1,0-0.1c0.1-0.3,0.4-0.5,0.6-0.4c0.3,0.1,0.5,0.4,0.4,0.6c0,0.1-0.1,0.1-0.1,0.2
							c0,0.3,0.2,0.5,0.4,0.4c-0.3-0.2-0.3-0.4-0.2-0.7c0.1-0.2,0.2-0.3,0.3-0.4c0-0.5-0.1-0.8-0.2-1.2c-0.1-0.1-0.3-0.2-0.5-0.3
							C217.6,143.5,217.3,143.5,217,143.4z"/>
						<circle fill="none" cx="219" cy="143.8" r="0.2"/>
						<circle fill="none" cx="219.2" cy="144.7" r="0.2"/>
						<circle fill="none" cx="213.9" cy="146.4" r="0.2"/>
						<circle fill="none" cx="208.3" cy="143.3" r="0.2"/>
						<circle fill="none" cx="219.2" cy="145.8" r="0.4"/>
						<circle fill="none" cx="218.7" cy="143.1" r="0.2"/>
						<circle fill="none" cx="216.8" cy="147.2" r="0.2"/>
						<path fill="none" d="M217.1,152.6l-0.8,0.8c0.6,0.5,1.1,1.1,1.5,1.8l-1.5,1.3c-0.4-0.7-0.7-1.2-1.4-1.7l-1.4,1.5l5.3,5.5
							c0.6-1,0.9-2,0.9-3.4C219.8,155.9,218.4,153.6,217.1,152.6z"/>
						<circle fill="none" cx="206.1" cy="143.1" r="0.2"/>
						<path fill="none" d="M216.8,150.6l-2.1,2.2l-0.1,0.1c-0.7-0.3-1.4-0.4-2.2-0.4c-0.8,0-1.6,0.2-2.3,0.4l-2.1-2.2
							c-2.7,1.6-4.5,4.5-4.5,7.8c0,2.2,0.8,4.1,2.1,5.6l0.9-0.9c-0.7-0.8-1.9-2.6-1.8-4.9c0.1-2.6,1.2-4.5,3.1-6.2l1.3,1.3
							c-1.5,1.1-2.5,2.7-2.6,4.7c0,2.8,1.9,5.2,4.6,5.9v1.5h1.2v-1.4c1.8,0,3.5-0.7,4.7-2.1l-0.9-0.9c-0.9,1-2.4,1.8-3.7,1.7v-1.5
							h1.9v-1h-1.9v-1.2h1.9v-0.9H211v4.5c-2-0.7-3.5-2.2-3.4-4.4c0-1.7,0.8-3,2.2-4l2.6,2.7l2.5-2.6c0.6,0.4,1.1,0.9,1.5,1.6l1-0.8
							c-0.4-0.7-0.9-1.2-1.6-1.7l1.3-1.3c1.9,1.3,3.1,3.9,3.1,6.2c0,2.1-0.7,3.5-1.8,4.8l1,1c1.3-1.6,2.1-3.5,2.1-5.7
							C221.3,155.1,219.5,152.2,216.8,150.6z M212.4,155.3l-1.4-1.5c0.4-0.1,0.9-0.2,1.4-0.2c0.5,0,0.9,0.1,1.4,0.2L212.4,155.3z"/>
						<circle fill="none" cx="206.6" cy="142.4" r="0.2"/>
						<circle fill="none" cx="205.6" cy="145.8" r="0.4"/>
						<circle fill="none" cx="205.7" cy="143.8" r="0.2"/>
						<circle fill="none" cx="205.5" cy="144.7" r="0.2"/>
						<path fill="none" d="M211.6,154l0.8,0.8l0.7-0.8c-0.3-0.1-0.5-0.1-0.8-0.1C212.1,153.9,211.9,154,211.6,154z"/>
						<path fill="none" d="M212.4,147.5c-6,0-10.9,4.9-10.9,10.9c0,6,4.9,10.9,10.9,10.9c6,0,10.9-4.9,10.9-10.9
							C223.3,152.4,218.4,147.5,212.4,147.5z M212.4,168.3c-5.4,0-9.9-4.4-9.9-9.9c0-5.4,4.4-9.9,9.9-9.9c5.4,0,9.9,4.4,9.9,9.9
							C222.2,163.9,217.8,168.3,212.4,168.3z"/>
						<path fill="none" d="M205.8,146.4c0.3,0.2,0.5,0.2,0.9,0.1c0,0.1-0.1,0.2,0,0.3c0.1,0.1,0.2,0.2,0.3,0.1
							c1.6-0.8,3.5-1.2,5.4-1.2c1.9,0,3.8,0.4,5.4,1.2c0.2,0.1,0.4-0.1,0.3-0.3l0-0.1c0.3,0.1,0.6,0.1,0.9-0.1
							c0.2,0.2,0.5,0.1,0.7,0c0.2-0.2,0.3-0.5,0.1-0.7c0.2-0.3,0.2-0.5-0.1-0.7c0.1-0.1,0.1-0.2,0.1-0.3c0-0.3-0.2-0.4-0.4-0.4
							c0.1-0.1,0.3-0.2,0.3-0.4c0-0.3-0.2-0.4-0.5-0.4c0.1-0.1,0.1-0.2,0.1-0.3c0-0.2-0.2-0.4-0.4-0.4c-0.1,0-0.1,0-0.2,0
							c0-0.1,0.1-0.2,0.1-0.3c0-0.2-0.2-0.4-0.4-0.4c-0.1,0-0.2,0-0.3,0.1c0-0.1,0-0.1,0-0.2c0-0.2-0.2-0.4-0.4-0.4
							c-0.1,0-0.2,0.1-0.3,0.1c0-0.2-0.2-0.4-0.4-0.4c-0.2,0-0.3,0.1-0.4,0.3c-0.1-0.1-0.2-0.2-0.4-0.2c-0.1,0-0.1,0-0.2,0
							c0-0.1,0.1-0.2,0.1-0.2c0-0.2-0.2-0.4-0.4-0.4c-0.1,0-0.2,0.1-0.3,0.1c0-0.1,0-0.1,0-0.2c0-0.2-0.2-0.4-0.4-0.4
							c-0.1,0-0.2,0.1-0.3,0.1c0-0.2-0.2-0.4-0.4-0.4c-0.2,0-0.2,0.1-0.4,0.2c-0.1-0.2-0.2-0.3-0.4-0.3c-0.1,0-0.1,0-0.2,0
							c-0.1-0.2-0.2-0.2-0.4-0.3v-0.5h0.4v-0.3h-0.4v-0.3h-0.3v0.3h-0.4v0.3h0.4v0.5c-0.2,0-0.3,0.1-0.4,0.3c-0.1,0-0.1,0-0.2,0
							c-0.2,0-0.3,0.1-0.4,0.3c-0.1-0.1-0.2-0.2-0.4-0.2c-0.3,0-0.4,0.2-0.4,0.4c-0.1-0.1-0.2-0.1-0.3-0.1c-0.2,0-0.4,0.2-0.4,0.4
							c0,0.1,0,0.1,0,0.2c-0.1-0.1-0.2-0.1-0.3-0.1c-0.2,0-0.4,0.2-0.4,0.4c0,0.1,0,0.2,0.1,0.2c-0.1,0-0.1,0-0.2,0
							c-0.2,0-0.3,0.1-0.4,0.2c-0.1-0.1-0.2-0.3-0.4-0.3c-0.3,0-0.4,0.2-0.4,0.4c-0.1-0.1-0.2-0.1-0.3-0.1c-0.2,0-0.4,0.2-0.4,0.4
							c0,0.1,0,0.1,0,0.2c-0.1,0-0.2-0.1-0.3-0.1c-0.2,0-0.4,0.2-0.4,0.4c0,0.1,0,0.2,0.1,0.3c-0.1,0-0.1,0-0.2,0
							c-0.2,0-0.4,0.2-0.4,0.4c0,0.1,0.1,0.2,0.1,0.3c-0.2,0-0.5,0.1-0.5,0.4c0,0.2,0.1,0.3,0.3,0.4c-0.2,0-0.4,0.2-0.4,0.4
							c0,0.1,0,0.2,0.1,0.3c-0.3,0.2-0.3,0.5-0.1,0.7C204.7,146,205.3,146.7,205.8,146.4z M207,146.4L207,146.4
							c0.1-0.2,0.1-0.4,0.2-0.6c0.1,0,0.2,0,0.3-0.1c0.2,0.1,0.3,0.2,0.5,0.2l0,0.1C207.7,146.1,207.4,146.2,207,146.4z
							 M209.6,145.6c-0.3,0.1-0.6,0.1-0.9,0.2l0-0.1c0.2-0.2,0.3-0.4,0.3-0.7l0.1,0C209.1,145.2,209.3,145.4,209.6,145.6
							L209.6,145.6z M208.6,143.8c0.3-0.1,0.5,0.1,0.6,0.4c0.1,0.3-0.1,0.5-0.4,0.6c-0.3,0.1-0.5-0.1-0.6-0.4
							C208.2,144.2,208.4,143.9,208.6,143.8z M208.3,143.6c-0.2,0-0.3-0.1-0.3-0.3c0-0.2,0.1-0.3,0.3-0.3c0.2,0,0.3,0.1,0.3,0.3
							C208.6,143.5,208.4,143.6,208.3,143.6z M211.2,145.3c-0.3,0-0.7,0.1-1,0.1l0-0.1c0.2-0.1,0.3-0.3,0.4-0.5l0.1,0
							c0.1,0,0.1,0,0.2,0C210.9,145,211.1,145.1,211.2,145.3L211.2,145.3z M212.9,145.3c-0.2,0-0.3,0-0.5,0c-0.2,0-0.3,0-0.5,0
							l0-0.1c0.2-0.1,0.4-0.3,0.5-0.6h0.1C212.5,144.8,212.7,145.1,212.9,145.3L212.9,145.3z M211.9,143.9c0-0.3,0.2-0.5,0.5-0.5
							c0.3,0,0.5,0.2,0.5,0.5c0,0.3-0.2,0.5-0.5,0.5C212.1,144.4,211.9,144.1,211.9,143.9z M214.6,145.4c-0.3-0.1-0.7-0.1-1-0.1
							l0-0.1c0.2-0.1,0.4-0.2,0.5-0.4c0.1,0,0.1,0,0.2,0l0.1,0C214.3,145.1,214.4,145.2,214.6,145.4L214.6,145.4z M216.1,145.8
							c-0.3-0.1-0.6-0.2-0.9-0.2v-0.1c0.3-0.1,0.5-0.2,0.6-0.5l0.1,0C215.9,145.3,216,145.5,216.1,145.8L216.1,145.8z M216.5,144.4
							c-0.1,0.3-0.3,0.4-0.6,0.4c-0.3-0.1-0.4-0.3-0.4-0.6c0.1-0.3,0.3-0.4,0.6-0.4C216.4,143.9,216.6,144.2,216.5,144.4z
							 M216.2,143.3c0-0.2,0.1-0.3,0.3-0.3c0.2,0,0.3,0.1,0.3,0.3c0,0.2-0.1,0.3-0.3,0.3C216.3,143.6,216.2,143.5,216.2,143.3z
							 M217.7,146.4c-0.3-0.1-0.6-0.3-1-0.4l0-0.1c0.2,0,0.3-0.1,0.5-0.2c0.1,0,0.1,0.1,0.2,0.1c0,0,0.1,0,0.1,0
							C217.6,146,217.7,146.2,217.7,146.4L217.7,146.4z M219.6,146c-0.1,0.2-0.4,0.3-0.7,0.2c-0.2-0.1-0.3-0.4-0.2-0.7
							c0.1-0.2,0.4-0.3,0.7-0.2C219.6,145.5,219.7,145.8,219.6,146z M219.2,144.4c0.2,0,0.3,0.1,0.3,0.3c0,0.2-0.1,0.3-0.3,0.3
							c-0.2,0-0.3-0.1-0.3-0.3C218.9,144.5,219.1,144.4,219.2,144.4z M219,143.5c0.2,0,0.3,0.1,0.3,0.3c0,0.2-0.1,0.3-0.3,0.3
							c-0.2,0-0.3-0.1-0.3-0.3C218.7,143.7,218.9,143.5,219,143.5z M218.7,142.8c0.2,0,0.3,0.1,0.3,0.3c0,0.2-0.1,0.3-0.3,0.3
							c-0.2,0-0.3-0.1-0.3-0.3C218.4,142.9,218.5,142.8,218.7,142.8z M218.1,142.1c0.2,0,0.3,0.1,0.3,0.3c0,0.2-0.1,0.3-0.3,0.3
							c-0.2,0-0.3-0.1-0.3-0.3C217.8,142.3,218,142.1,218.1,142.1z M217.4,141.6c0.2,0,0.3,0.1,0.3,0.3c0,0.2-0.1,0.3-0.3,0.3
							c-0.2,0-0.3-0.1-0.3-0.3C217.1,141.8,217.3,141.6,217.4,141.6z M218.7,145.2c-0.2,0.1-0.3,0.2-0.3,0.3c-0.1,0.4,0,0.5,0.3,0.7
							c-0.2,0.1-0.3,0.1-0.5,0c-0.2-0.1-0.3-0.3-0.3-0.5c0-0.1,0.1-0.1,0.1-0.2c0.1-0.2-0.1-0.5-0.3-0.5c-0.2-0.1-0.5,0.1-0.5,0.3
							c0,0,0,0.1,0,0.1c-0.3,0.4-1,0.2-0.9-0.4c0.4,0.1,0.6,0.1,0.7-0.3c0.1-0.3,0-0.4-0.3-0.6c0-0.2,0-0.2-0.1-0.3
							c0.2-0.1,0.4-0.2,0.4-0.4c0-0.3-0.2-0.4-0.4-0.4c0.1-0.1,0.3-0.2,0.3-0.4l0.1-0.1C218.2,143,218.6,143.7,218.7,145.2z
							 M216.7,141.3c0.2,0,0.3,0.1,0.3,0.3c0,0.2-0.1,0.3-0.3,0.3c-0.2,0-0.3-0.1-0.3-0.3C216.4,141.5,216.5,141.3,216.7,141.3z
							 M216.3,142.2c0.2,0,0.3,0.1,0.3,0.3c0,0.2-0.1,0.3-0.3,0.3c-0.2,0-0.3-0.1-0.3-0.3C216,142.3,216.1,142.2,216.3,142.2z
							 M215.9,141.4c0.2,0,0.3,0.1,0.3,0.3s-0.1,0.3-0.3,0.3c-0.2,0-0.3-0.1-0.3-0.3S215.8,141.4,215.9,141.4z M215.4,140.8
							c0.2,0,0.3,0.1,0.3,0.3c0,0.2-0.1,0.3-0.3,0.3c-0.2,0-0.3-0.1-0.3-0.3C215.1,140.9,215.2,140.8,215.4,140.8z M214.7,140.3
							c0.2,0,0.3,0.1,0.3,0.3c0,0.2-0.1,0.3-0.3,0.3c-0.2,0-0.3-0.1-0.3-0.3C214.4,140.4,214.5,140.3,214.7,140.3z M213.9,140
							c0.2,0,0.3,0.1,0.3,0.3c0,0.2-0.1,0.3-0.3,0.3c-0.2,0-0.3-0.1-0.3-0.3C213.6,140.1,213.7,140,213.9,140z M213.1,139.9
							c0.2,0,0.3,0.1,0.3,0.3c0,0.2-0.1,0.3-0.3,0.3c-0.2,0-0.3-0.1-0.3-0.3C212.8,140,213,139.9,213.1,139.9z M212.4,140.6
							c0.2,0,0.3,0.1,0.3,0.3c0,0.2-0.1,0.3-0.3,0.3c-0.2,0-0.3-0.1-0.3-0.3C212.1,140.7,212.2,140.6,212.4,140.6z M212.4,142.1
							c-0.2,0-0.3-0.1-0.3-0.3c0-0.2,0.1-0.3,0.3-0.3c0.2,0,0.3,0.1,0.3,0.3C212.7,141.9,212.6,142.1,212.4,142.1z M212.7,142.6
							c0,0.2-0.1,0.3-0.3,0.3c-0.2,0-0.3-0.1-0.3-0.3c0-0.2,0.1-0.3,0.3-0.3C212.6,142.3,212.7,142.5,212.7,142.6z M211.6,139.9
							c0.2,0,0.3,0.1,0.3,0.3c0,0.2-0.1,0.3-0.3,0.3c-0.2,0-0.3-0.1-0.3-0.3C211.3,140,211.5,139.9,211.6,139.9z M210.9,140
							c0.2,0,0.3,0.1,0.3,0.3c0,0.2-0.1,0.3-0.3,0.3c-0.2,0-0.3-0.1-0.3-0.3C210.6,140.1,210.7,140,210.9,140z M210.1,140.3
							c0.2,0,0.3,0.1,0.3,0.3c0,0.2-0.1,0.3-0.3,0.3c-0.2,0-0.3-0.1-0.3-0.3C209.8,140.4,209.9,140.3,210.1,140.3z M212,140.8
							C212,140.9,212,140.9,212,140.8c0,0.2,0,0.2,0.1,0.3v0.4c0,0.1-0.1,0.1-0.1,0.2c0,0.1,0,0.2,0.1,0.2v0.4
							c0,0.1-0.1,0.1-0.1,0.2c0,0.2,0.2,0.3,0.4,0.4c0.2-0.1,0.4-0.2,0.4-0.4c0-0.1,0-0.1-0.1-0.2l0-0.4c0-0.1,0.1-0.1,0.1-0.2
							c0-0.1,0-0.2-0.1-0.2v-0.4c0-0.1,0.1-0.1,0.1-0.2c0,0,0-0.1,0-0.1c1.7-0.1,3,1,3.1,2.7c-0.2,0.1-0.2,0.1-0.3,0.3
							c-0.3,0-0.4,0.1-0.5,0.4c-0.1,0.4,0.1,0.5,0.5,0.6c-0.1,0.3-0.3,0.4-0.6,0.3c-0.2-0.1-0.4-0.3-0.4-0.5c0-0.1,0.1-0.1,0.1-0.2
							c0-0.2-0.2-0.4-0.4-0.4c-0.2,0-0.4,0.2-0.4,0.4c0,0,0,0.1,0,0.1c-0.1,0.2-0.3,0.4-0.5,0.4c-0.3,0-0.5-0.2-0.5-0.5
							c0.4,0,0.6-0.1,0.6-0.5c0-0.3-0.1-0.4-0.4-0.5c-0.1-0.4-0.2-0.4-0.5-0.4c-0.3,0-0.5,0.1-0.5,0.4c-0.3,0.1-0.4,0.2-0.4,0.5
							c0,0.4,0.2,0.5,0.6,0.5c0,0.3-0.2,0.5-0.5,0.5c-0.2,0-0.4-0.2-0.5-0.4c0,0,0-0.1,0-0.1c0-0.2-0.2-0.4-0.4-0.4
							c-0.2,0-0.4,0.2-0.4,0.4c0,0.1,0,0.2,0.1,0.2c0,0.2-0.2,0.4-0.4,0.5c-0.3,0.1-0.5-0.1-0.6-0.3c0.4-0.1,0.6-0.2,0.5-0.6
							c-0.1-0.3-0.2-0.4-0.5-0.4c-0.1-0.2-0.1-0.2-0.3-0.3C209.1,141.9,210.3,140.7,212,140.8z M209.4,140.8c0.2,0,0.3,0.1,0.3,0.3
							c0,0.2-0.1,0.3-0.3,0.3c-0.2,0-0.3-0.1-0.3-0.3C209.1,140.9,209.2,140.8,209.4,140.8z M208.8,141.4c0.2,0,0.3,0.1,0.3,0.3
							s-0.1,0.3-0.3,0.3c-0.2,0-0.3-0.1-0.3-0.3S208.7,141.4,208.8,141.4z M208.8,142.5c0,0.2-0.1,0.3-0.3,0.3
							c-0.2,0-0.3-0.1-0.3-0.3c0-0.2,0.1-0.3,0.3-0.3C208.6,142.2,208.8,142.3,208.8,142.5z M208.1,141.3c0.2,0,0.3,0.1,0.3,0.3
							c0,0.2-0.1,0.3-0.3,0.3c-0.2,0-0.3-0.1-0.3-0.3C207.8,141.5,207.9,141.3,208.1,141.3z M207.9,142.4c0.1,0,0.1,0.1,0.1,0.1
							c0,0.2,0.1,0.3,0.3,0.4c-0.2,0-0.4,0.2-0.4,0.4c0,0.2,0.2,0.4,0.4,0.4c-0.1,0.1-0.1,0.2-0.1,0.3c-0.3,0.1-0.3,0.3-0.3,0.6
							c0.1,0.4,0.3,0.4,0.7,0.3c0.1,0.6-0.6,0.8-0.9,0.4c0,0,0-0.1,0-0.1c-0.1-0.2-0.3-0.4-0.5-0.3c-0.2,0.1-0.4,0.3-0.3,0.5
							c0,0.1,0.1,0.1,0.1,0.2c0,0.2-0.1,0.4-0.3,0.5c-0.2,0.1-0.3,0.1-0.5,0c0.3-0.2,0.5-0.3,0.3-0.7c-0.1-0.2-0.1-0.3-0.3-0.3
							C206.2,143.7,206.6,143.1,207.9,142.4z M207.3,141.6c0.2,0,0.3,0.1,0.3,0.3c0,0.2-0.1,0.3-0.3,0.3c-0.2,0-0.3-0.1-0.3-0.3
							C207,141.8,207.2,141.6,207.3,141.6z M206.6,142.1c0.2,0,0.3,0.1,0.3,0.3c0,0.2-0.1,0.3-0.3,0.3c-0.2,0-0.3-0.1-0.3-0.3
							C206.3,142.3,206.5,142.1,206.6,142.1z M206.1,142.8c0.2,0,0.3,0.1,0.3,0.3c0,0.2-0.1,0.3-0.3,0.3c-0.2,0-0.3-0.1-0.3-0.3
							C205.8,142.9,205.9,142.8,206.1,142.8z M205.4,143.8c0-0.2,0.1-0.3,0.3-0.3c0.2,0,0.3,0.1,0.3,0.3c0,0.2-0.1,0.3-0.3,0.3
							C205.6,144.2,205.4,144,205.4,143.8z M205.5,144.4c0.2,0,0.3,0.1,0.3,0.3c0,0.2-0.1,0.3-0.3,0.3c-0.2,0-0.3-0.1-0.3-0.3
							C205.2,144.5,205.4,144.4,205.5,144.4z M205.4,145.4c0.2-0.1,0.5,0,0.7,0.2c0.1,0.2,0,0.5-0.2,0.7c-0.2,0.1-0.5,0-0.7-0.2
							C205.1,145.8,205.1,145.5,205.4,145.4z"/>
						<path fill="none" d="M207,143.6c-0.2,0.1-0.4,0.2-0.5,0.3c-0.1,0.3-0.2,0.7-0.2,1.2c0.2,0.1,0.3,0.2,0.3,0.4
							c0.1,0.2,0.1,0.5-0.2,0.7c0.1,0,0.2,0,0.2-0.1c0.1-0.1,0.2-0.2,0.2-0.4c0-0.1-0.1-0.1-0.1-0.2c-0.1-0.3,0.1-0.6,0.4-0.6
							c0.3-0.1,0.6,0.1,0.6,0.4c0,0,0,0.1,0,0.1c0.2,0.3,0.7,0.1,0.7-0.2c-0.4,0.1-0.6-0.1-0.7-0.4c-0.1-0.3,0-0.5,0.3-0.7
							c0-0.1,0-0.2,0-0.2c-0.2-0.1-0.3-0.2-0.3-0.4C207.5,143.5,207.2,143.5,207,143.6z"/>
						<path fill="none" d="M212.4,148.9c-5.2,0-9.5,4.3-9.5,9.5c0,5.2,4.3,9.5,9.5,9.5c5.2,0,9.5-4.3,9.5-9.5
							C221.9,153.2,217.6,148.9,212.4,148.9z M220.3,163.3c-1,1.6-2.4,2.9-4.2,3.7l-0.9-0.9l-1.6-1.6c-0.4,0.1-0.7,0.1-1.1,0.1v1.4
							h-1.8v-1.6c-2.8-0.8-4.7-3.3-4.6-6.2c0-0.5,0.1-0.9,0.2-1.4l-0.9-0.9c-0.3,0.8-0.4,1.6-0.5,2.4c-0.1,1.7,0.7,3.6,2,4.8
							l-1.3,1.4c-1.6-1.8-2.4-3.7-2.4-6.1c0-3.5,1.9-6.5,4.9-8.2l2.1,2.2c0.7-0.3,1.5-0.4,2.3-0.4c0.8,0,1.5,0.2,2.2,0.4l2.2-2.3
							c3,1.7,4.9,4.7,4.9,8.2C221.7,160.2,221.2,161.8,220.3,163.3z"/>
						<circle fill="none" cx="208.1" cy="141.7" r="0.2"/>
						<path fill="none" d="M210.7,162.3v-0.9l-2.8-2.8C208,160.1,209,161.6,210.7,162.3z"/>
						<circle fill="none" cx="207.3" cy="141.9" r="0.2"/>
						<path fill="none" d="M206.9,143.6c0.2-0.1,0.5-0.2,0.8-0.2c0-0.3,0.1-0.5,0.3-0.5c-0.1-0.1-0.1-0.2-0.1-0.3
							c-0.7,0.4-1.2,0.8-1.4,1.3C206.6,143.7,206.8,143.6,206.9,143.6z"/>
						<path fill="#244A95" d="M208.8,142c0.2,0,0.3-0.1,0.3-0.3s-0.1-0.3-0.3-0.3c-0.2,0-0.3,0.1-0.3,0.3S208.7,142,208.8,142z
							 M208.8,141.5c0.1,0,0.2,0.1,0.2,0.2c0,0.1-0.1,0.2-0.2,0.2c-0.1,0-0.2-0.1-0.2-0.2C208.6,141.6,208.7,141.5,208.8,141.5z"/>
						<path fill="#244A95" d="M206.1,145.2c0.2,0.1,0.3,0.2,0.3,0.3c0.1,0.4,0,0.5-0.3,0.7c0.2,0.1,0.3,0.1,0.5,0
							c0.2-0.1,0.3-0.3,0.3-0.5c0-0.1-0.1-0.1-0.1-0.2c-0.1-0.2,0.1-0.5,0.3-0.5c0.2-0.1,0.5,0.1,0.5,0.3c0,0,0,0.1,0,0.1
							c0.3,0.4,1,0.2,0.9-0.4c-0.4,0.1-0.6,0.1-0.7-0.3c-0.1-0.3,0-0.4,0.3-0.6c0-0.2,0-0.2,0.1-0.3c-0.2-0.1-0.4-0.2-0.4-0.4
							c0-0.3,0.2-0.4,0.4-0.4c-0.1-0.1-0.3-0.2-0.3-0.4c0,0,0,0-0.1-0.1C206.6,143.1,206.2,143.7,206.1,145.2z M208.1,143.8
							c0,0.1,0,0.1,0,0.2c-0.3,0.2-0.3,0.4-0.3,0.7c0.1,0.3,0.3,0.5,0.7,0.4c0,0.4-0.5,0.5-0.7,0.2c0,0,0-0.1,0-0.1
							c-0.1-0.3-0.4-0.5-0.6-0.4c-0.3,0.1-0.5,0.4-0.4,0.6c0,0.1,0.1,0.1,0.1,0.2c0,0.2-0.1,0.3-0.2,0.4c-0.1,0-0.2,0.1-0.2,0.1
							c0.3-0.2,0.3-0.4,0.2-0.7c-0.1-0.2-0.2-0.3-0.3-0.4c0-0.5,0.1-0.8,0.2-1.2c0.1-0.1,0.3-0.2,0.5-0.3c0.2-0.1,0.5-0.2,0.8-0.2
							C207.8,143.6,207.9,143.7,208.1,143.8z M207.9,142.5c0,0.1,0.1,0.2,0.1,0.3c-0.2,0.1-0.3,0.3-0.3,0.5
							c-0.3,0.1-0.6,0.1-0.8,0.2c-0.2,0.1-0.3,0.1-0.4,0.2C206.8,143.3,207.2,142.9,207.9,142.5z"/>
						<path fill="#244A95" d="M208.2,142.5c0,0.2,0.1,0.3,0.3,0.3c0.2,0,0.3-0.1,0.3-0.3c0-0.2-0.1-0.3-0.3-0.3
							C208.3,142.2,208.2,142.3,208.2,142.5z M208.5,142.2c0.1,0,0.2,0.1,0.2,0.2c0,0.1-0.1,0.2-0.2,0.2c-0.1,0-0.2-0.1-0.2-0.2
							C208.2,142.3,208.3,142.2,208.5,142.2z"/>
						<path fill="#244A95" d="M206,143.8c0-0.2-0.1-0.3-0.3-0.3c-0.2,0-0.3,0.1-0.3,0.3c0,0.2,0.1,0.3,0.3,0.3
							C205.9,144.2,206,144,206,143.8z M205.5,143.8c0-0.1,0.1-0.2,0.2-0.2c0.1,0,0.2,0.1,0.2,0.2c0,0.1-0.1,0.2-0.2,0.2
							C205.6,144.1,205.5,144,205.5,143.8z"/>
						<path fill="#244A95" d="M208.1,142c0.2,0,0.3-0.1,0.3-0.3c0-0.2-0.1-0.3-0.3-0.3c-0.2,0-0.3,0.1-0.3,0.3
							C207.8,141.8,207.9,142,208.1,142z M208.1,141.4c0.1,0,0.2,0.1,0.2,0.2c0,0.1-0.1,0.2-0.2,0.2c-0.1,0-0.2-0.1-0.2-0.2
							C207.8,141.5,207.9,141.4,208.1,141.4z"/>
						<path fill="#244A95" d="M207.3,142.2c0.2,0,0.3-0.1,0.3-0.3c0-0.2-0.1-0.3-0.3-0.3c-0.2,0-0.3,0.1-0.3,0.3
							C207,142.1,207.2,142.2,207.3,142.2z M207.3,141.7c0.1,0,0.2,0.1,0.2,0.2c0,0.1-0.1,0.2-0.2,0.2c-0.1,0-0.2-0.1-0.2-0.2
							C207.1,141.8,207.2,141.7,207.3,141.7z"/>
						<path fill="#244A95" d="M206.1,143.4c0.2,0,0.3-0.1,0.3-0.3c0-0.2-0.1-0.3-0.3-0.3c-0.2,0-0.3,0.1-0.3,0.3
							C205.8,143.3,205.9,143.4,206.1,143.4z M206.1,142.9c0.1,0,0.2,0.1,0.2,0.2c0,0.1-0.1,0.2-0.2,0.2c-0.1,0-0.2-0.1-0.2-0.2
							C205.8,143,205.9,142.9,206.1,142.9z"/>
						<path fill="#244A95" d="M206.6,142.7c0.2,0,0.3-0.1,0.3-0.3c0-0.2-0.1-0.3-0.3-0.3c-0.2,0-0.3,0.1-0.3,0.3
							C206.3,142.6,206.5,142.7,206.6,142.7z M206.6,142.2c0.1,0,0.2,0.1,0.2,0.2c0,0.1-0.1,0.2-0.2,0.2c-0.1,0-0.2-0.1-0.2-0.2
							C206.4,142.3,206.5,142.2,206.6,142.2z"/>
						<path fill="#244A95" d="M212.1,142.6c0,0.2,0.1,0.3,0.3,0.3c0.2,0,0.3-0.1,0.3-0.3c0-0.2-0.1-0.3-0.3-0.3
							C212.2,142.3,212.1,142.5,212.1,142.6z M212.6,142.6c0,0.1-0.1,0.2-0.2,0.2c-0.1,0-0.2-0.1-0.2-0.2c0-0.1,0.1-0.2,0.2-0.2
							C212.5,142.4,212.6,142.5,212.6,142.6z"/>
						<path fill="#244A95" d="M210.9,140.6c0.2,0,0.3-0.1,0.3-0.3c0-0.2-0.1-0.3-0.3-0.3c-0.2,0-0.3,0.1-0.3,0.3
							C210.6,140.5,210.7,140.6,210.9,140.6z M210.9,140.1c0.1,0,0.2,0.1,0.2,0.2c0,0.1-0.1,0.2-0.2,0.2c-0.1,0-0.2-0.1-0.2-0.2
							C210.6,140.2,210.7,140.1,210.9,140.1z"/>
						<path fill="#244A95" d="M211.6,140.5c0.2,0,0.3-0.1,0.3-0.3c0-0.2-0.1-0.3-0.3-0.3c-0.2,0-0.3,0.1-0.3,0.3
							C211.3,140.3,211.5,140.5,211.6,140.5z M211.6,139.9c0.1,0,0.2,0.1,0.2,0.2c0,0.1-0.1,0.2-0.2,0.2c-0.1,0-0.2-0.1-0.2-0.2
							C211.4,140,211.5,139.9,211.6,139.9z"/>
						<path fill="#244A95" d="M205.5,145c0.2,0,0.3-0.1,0.3-0.3c0-0.2-0.1-0.3-0.3-0.3c-0.2,0-0.3,0.1-0.3,0.3
							C205.2,144.9,205.4,145,205.5,145z M205.5,144.5c0.1,0,0.2,0.1,0.2,0.2c0,0.1-0.1,0.2-0.2,0.2c-0.1,0-0.2-0.1-0.2-0.2
							C205.3,144.6,205.4,144.5,205.5,144.5z"/>
						<path fill="#244A95" d="M210.1,140.9c0.2,0,0.3-0.1,0.3-0.3c0-0.2-0.1-0.3-0.3-0.3c-0.2,0-0.3,0.1-0.3,0.3
							C209.8,140.8,209.9,140.9,210.1,140.9z M210.1,140.4c0.1,0,0.2,0.1,0.2,0.2c0,0.1-0.1,0.2-0.2,0.2c-0.1,0-0.2-0.1-0.2-0.2
							C209.9,140.5,210,140.4,210.1,140.4z"/>
						<path fill="#244A95" d="M209.2,143.8c0.3,0,0.4,0.1,0.5,0.4c0.1,0.4-0.1,0.5-0.5,0.6c0.1,0.3,0.3,0.4,0.6,0.3
							c0.2-0.1,0.4-0.3,0.4-0.5c0-0.1-0.1-0.1-0.1-0.2c0-0.2,0.2-0.4,0.4-0.4c0.2,0,0.4,0.2,0.4,0.4c0,0,0,0.1,0,0.1
							c0.1,0.2,0.3,0.4,0.5,0.4c0.3,0,0.5-0.2,0.5-0.5c-0.4,0-0.6-0.1-0.6-0.5c0-0.3,0.1-0.4,0.4-0.5c0.1-0.4,0.2-0.4,0.5-0.4
							c-0.2-0.1-0.4-0.2-0.4-0.4c0-0.1,0-0.2,0.1-0.2V142c0-0.1-0.1-0.1-0.1-0.2c0-0.1,0-0.2,0.1-0.2v-0.4c0-0.1-0.1-0.1-0.1-0.2
							c0,0,0-0.1,0-0.1c-1.7-0.1-3,1-3.1,2.7C209.1,143.6,209.1,143.6,209.2,143.8z M211.9,140.9c0,0.1,0,0.2,0.1,0.3v0.4
							c0,0.1-0.1,0.2-0.1,0.3c0,0.1,0,0.2,0.1,0.3v0.2c-0.9-0.1-2,0-2.8,0.4C209.6,141.6,210.6,140.8,211.9,140.9z M212,142.3
							L212,142.3c0,0.1-0.1,0.2-0.1,0.3c0,0.1,0.1,0.3,0.2,0.4c-0.2,0.1-0.3,0.2-0.3,0.4c-0.3,0.1-0.4,0.3-0.4,0.6
							c0,0.3,0.1,0.6,0.6,0.6c-0.1,0.2-0.2,0.3-0.4,0.3c-0.2,0-0.3-0.1-0.4-0.3c0,0,0-0.1,0-0.1c0-0.3-0.2-0.5-0.5-0.5
							c-0.3,0-0.5,0.2-0.5,0.5c0,0.1,0,0.2,0.1,0.3c0,0.2-0.1,0.3-0.3,0.4c-0.2,0-0.4,0-0.5-0.2c0.4-0.1,0.5-0.4,0.4-0.7
							c-0.1-0.3-0.2-0.5-0.5-0.5c-0.1-0.1-0.1-0.2-0.2-0.2c0-0.2,0.1-0.5,0.2-0.7C210,142.3,211.1,142.2,212,142.3z"/>
						<path fill="#244A95" d="M212.9,143.5c0.3,0.1,0.4,0.2,0.4,0.5c0,0.4-0.2,0.5-0.6,0.5c0,0.3,0.2,0.5,0.5,0.5
							c0.2,0,0.4-0.2,0.5-0.4c0,0,0-0.1,0-0.1c0-0.2,0.2-0.4,0.4-0.4c0.2,0,0.4,0.2,0.4,0.4c0,0.1,0,0.2-0.1,0.2
							c0,0.2,0.2,0.4,0.4,0.5c0.3,0.1,0.5-0.1,0.6-0.3c-0.4-0.1-0.6-0.2-0.5-0.6c0.1-0.3,0.2-0.4,0.5-0.4c0.1-0.2,0.1-0.2,0.3-0.3
							c-0.2-1.7-1.4-2.8-3.1-2.7c0,0,0,0.1,0,0.1c0,0.1,0,0.2-0.1,0.2v0.4c0,0.1,0.1,0.1,0.1,0.2c0,0.1,0,0.2-0.1,0.2l0,0.4
							c0,0.1,0.1,0.1,0.1,0.2c0,0.2-0.2,0.3-0.4,0.4C212.7,143.1,212.9,143.1,212.9,143.5z M212.8,142c0-0.1,0.1-0.2,0.1-0.3
							c0-0.1,0-0.2-0.1-0.3v-0.4c0-0.1,0.1-0.2,0.1-0.3c1.3-0.1,2.3,0.7,2.7,1.7c-0.8-0.4-1.9-0.5-2.8-0.4V142z M212.9,142.6
							c0-0.1,0-0.2-0.1-0.3v-0.1c0.9-0.1,2,0,2.8,0.4c0.1,0.2,0.1,0.5,0.2,0.7c-0.1,0-0.2,0.1-0.2,0.2c-0.3,0-0.5,0.2-0.5,0.5
							c-0.1,0.3,0,0.6,0.4,0.7c-0.1,0.2-0.3,0.2-0.5,0.2c-0.2,0-0.3-0.2-0.3-0.4c0-0.1,0.1-0.2,0.1-0.3c0-0.3-0.2-0.5-0.5-0.5
							c-0.3,0-0.5,0.2-0.5,0.5c0,0,0,0.1,0,0.1c-0.1,0.2-0.2,0.3-0.4,0.3c-0.2,0-0.3-0.1-0.4-0.3c0.5,0,0.6-0.3,0.6-0.6
							c0-0.3-0.1-0.5-0.4-0.6c0-0.2-0.2-0.3-0.3-0.4C212.8,142.9,212.9,142.8,212.9,142.6z"/>
						<path fill="#244A95" d="M209.4,141.4c0.2,0,0.3-0.1,0.3-0.3c0-0.2-0.1-0.3-0.3-0.3c-0.2,0-0.3,0.1-0.3,0.3
							C209.1,141.2,209.2,141.4,209.4,141.4z M209.4,140.8c0.1,0,0.2,0.1,0.2,0.2c0,0.1-0.1,0.2-0.2,0.2c-0.1,0-0.2-0.1-0.2-0.2
							C209.1,140.9,209.3,140.8,209.4,140.8z"/>
						<path fill="#244A95" d="M212.4,141.5c-0.2,0-0.3,0.1-0.3,0.3c0,0.2,0.1,0.3,0.3,0.3c0.2,0,0.3-0.1,0.3-0.3
							C212.7,141.6,212.6,141.5,212.4,141.5z M212.4,142c-0.1,0-0.2-0.1-0.2-0.2c0-0.1,0.1-0.2,0.2-0.2c0.1,0,0.2,0.1,0.2,0.2
							C212.6,141.9,212.5,142,212.4,142z"/>
						<path fill="#244A95" d="M212.4,148.6c-5.4,0-9.9,4.4-9.9,9.9c0,5.4,4.4,9.9,9.9,9.9c5.4,0,9.9-4.4,9.9-9.9
							C222.2,153,217.8,148.6,212.4,148.6z M212.4,168c-5.2,0-9.5-4.3-9.5-9.5c0-5.3,4.3-9.5,9.5-9.5c5.2,0,9.5,4.3,9.5,9.5
							C221.9,163.7,217.6,168,212.4,168z"/>
						<path fill="#244A95" d="M211,153.8l1.4,1.5l1.3-1.4c-0.5-0.1-0.9-0.2-1.4-0.2C211.9,153.6,211.4,153.7,211,153.8z
							 M212.4,154.8l-0.8-0.8c0.3,0,0.5-0.1,0.7-0.1c0.3,0,0.5,0,0.8,0.1L212.4,154.8z"/>
						<path fill="#244A95" d="M205.9,146.2c0.2-0.1,0.3-0.4,0.2-0.7c-0.1-0.2-0.4-0.3-0.7-0.2c-0.2,0.1-0.3,0.4-0.2,0.7
							C205.3,146.3,205.6,146.4,205.9,146.2z M205.4,145.4c0.2-0.1,0.5,0,0.6,0.2c0.1,0.2,0,0.5-0.2,0.6c-0.2,0.1-0.5,0-0.6-0.2
							C205.1,145.8,205.2,145.5,205.4,145.4z"/>
						<path fill="#244A95" d="M205.8,146.5c0.2,0.1,0.5,0.2,0.7,0.2c0,0.1,0,0.1,0,0.2c0.1,0.1,0.2,0.2,0.3,0.2
							c-0.1,0.1,0,0.2,0.1,0.3l-0.1,0.3l0.3,0.2c0,0.1-0.1,0.1,0,0.2c0,0.1,0.1,0.1,0.2,0.1c1.5-0.7,3.1-1.1,4.9-1.1
							c1.7,0,3.4,0.4,4.9,1.1c0.1,0,0.2,0,0.2-0.1c0-0.1,0-0.1,0-0.2l0.3-0.2l-0.1-0.3c0.1,0,0.2-0.2,0.1-0.3c0.2,0,0.4-0.2,0.4-0.4
							c0.2,0.1,0.5,0,0.7-0.2c0.3,0.2,0.5,0.1,0.7-0.1c0.2-0.2,0.4-0.5,0.2-0.8c0.2-0.2,0.1-0.6-0.1-0.7c0-0.1,0.1-0.1,0.1-0.2
							c0-0.2-0.1-0.4-0.3-0.5c0.1-0.1,0.1-0.2,0.1-0.4c0-0.2-0.2-0.5-0.4-0.5c0-0.1,0.1-0.1,0.1-0.2c0-0.3-0.2-0.5-0.6-0.5
							c0,0,0-0.1,0-0.1c0-0.3-0.2-0.5-0.5-0.5c-0.1,0-0.1,0-0.2,0c0-0.3-0.2-0.5-0.5-0.5c-0.1,0-0.2,0-0.2,0.1
							c-0.1-0.2-0.3-0.4-0.5-0.4c-0.2,0-0.3,0.1-0.4,0.2c-0.1-0.1-0.2-0.1-0.4-0.1c0,0,0-0.1,0-0.1c0-0.3-0.2-0.5-0.5-0.5
							c-0.1,0-0.1,0-0.2,0c0-0.3-0.2-0.5-0.5-0.5c-0.1,0-0.2,0-0.3,0.1c-0.1-0.2-0.3-0.3-0.5-0.3c-0.1,0-0.2,0-0.3,0.1
							c-0.1-0.1-0.3-0.2-0.4-0.2c0,0-0.1,0-0.1,0c-0.1-0.1-0.2-0.2-0.4-0.2v-0.3h0.4v-0.5h-0.4v-0.3h-0.5v0.3h-0.4v0.5h0.4l-0.1,0.3
							c-0.1,0-0.2,0.1-0.3,0.2c0,0-0.1,0-0.1,0c-0.2,0-0.4,0.1-0.4,0.2c-0.1-0.1-0.2-0.1-0.3-0.1c-0.2,0-0.4,0.1-0.5,0.3
							c-0.1,0-0.2-0.1-0.3-0.1c-0.3,0-0.5,0.2-0.5,0.5c-0.1,0-0.1,0-0.2,0c-0.3,0-0.5,0.2-0.5,0.5c0,0,0,0.1,0,0.1
							c-0.1,0-0.3,0-0.3,0.1c-0.1-0.1-0.2-0.2-0.4-0.2c-0.2,0-0.4,0.1-0.5,0.4c-0.1,0-0.2-0.1-0.2-0.1c-0.3,0-0.5,0.2-0.5,0.5
							c0,0-0.1,0-0.2,0c-0.3,0-0.5,0.2-0.5,0.5c0,0,0,0.1,0,0.1c-0.3,0-0.5,0.2-0.5,0.5c0,0.1,0,0.2,0.1,0.2
							c-0.2,0.1-0.4,0.3-0.4,0.5c0,0.1,0.1,0.3,0.1,0.4c-0.2,0.1-0.3,0.3-0.3,0.5c0,0.1,0,0.2,0,0.2c-0.2,0.2-0.3,0.5-0.1,0.7
							C204.6,146,205.3,146.9,205.8,146.5z M207.3,147.7l-0.2-0.1l0.1-0.3l0.1,0l0.2,0.1L207.3,147.7L207.3,147.7z M217.7,147.6
							l-0.3,0.2l0-0.1l-0.1-0.3l0.3-0.1L217.7,147.6z M217.7,147.2C217.7,147.2,217.7,147.2,217.7,147.2l-0.4,0.2l0.1,0.4l0,0.1
							c0.2,0.1,0.1,0.2,0,0.2c-1.5-0.7-3.2-1.1-4.9-1.1c-1.8,0-3.4,0.4-4.9,1.1c0,0-0.1,0-0.1,0c0,0,0-0.1,0-0.1c0,0,0,0,0.1,0
							l0-0.1l0.1-0.4l-0.4-0.2c0,0-0.1,0-0.1,0c-0.1,0-0.1-0.1,0-0.1c1.6-0.8,3.4-1.2,5.4-1.2c1.9,0,3.7,0.4,5.4,1.2
							C217.8,147.1,217.8,147.2,217.7,147.2z M205.2,144.9c-0.1-0.1-0.1-0.2-0.1-0.3c0-0.3,0.2-0.4,0.4-0.4
							c-0.1-0.1-0.3-0.2-0.3-0.4c0-0.3,0.2-0.4,0.5-0.4c-0.1-0.1-0.1-0.2-0.1-0.3c0-0.2,0.2-0.4,0.4-0.4c0.1,0,0.1,0,0.2,0
							c0-0.1-0.1-0.2-0.1-0.3c0-0.2,0.2-0.4,0.4-0.4c0.1,0,0.2,0,0.3,0.1c0-0.1,0-0.1,0-0.2c0-0.2,0.2-0.4,0.4-0.4
							c0.1,0,0.2,0.1,0.3,0.1c0-0.2,0.2-0.4,0.4-0.4c0.2,0,0.3,0.1,0.4,0.3c0.1-0.1,0.2-0.2,0.4-0.2c0.1,0,0.1,0,0.2,0
							c0-0.1-0.1-0.2-0.1-0.2c0-0.2,0.2-0.4,0.4-0.4c0.1,0,0.2,0.1,0.3,0.1c0-0.1,0-0.1,0-0.2c0-0.2,0.2-0.4,0.4-0.4
							c0.1,0,0.2,0.1,0.3,0.1c0-0.2,0.2-0.4,0.4-0.4c0.2,0,0.2,0.1,0.4,0.2c0.1-0.2,0.2-0.3,0.4-0.3c0.1,0,0.1,0,0.2,0
							c0.1-0.2,0.2-0.2,0.4-0.3v-0.5h-0.4v-0.3h0.4v-0.3h0.3v0.3h0.4v0.3h-0.4v0.5c0.2,0,0.3,0.1,0.4,0.3c0.1,0,0.1,0,0.2,0
							c0.2,0,0.3,0.1,0.4,0.3c0.1-0.1,0.2-0.2,0.4-0.2c0.3,0,0.4,0.2,0.4,0.4c0.1-0.1,0.2-0.1,0.3-0.1c0.2,0,0.4,0.2,0.4,0.4
							c0,0.1,0,0.1,0,0.2c0.1-0.1,0.2-0.1,0.3-0.1c0.2,0,0.4,0.2,0.4,0.4c0,0.1,0,0.2-0.1,0.2c0.1,0,0.1,0,0.2,0
							c0.2,0,0.3,0.1,0.4,0.2c0.1-0.1,0.2-0.3,0.4-0.3c0.3,0,0.4,0.2,0.4,0.4c0.1-0.1,0.2-0.1,0.3-0.1c0.2,0,0.4,0.2,0.4,0.4
							c0,0.1,0,0.1,0,0.2c0.1-0.1,0.2-0.1,0.3-0.1c0.2,0,0.4,0.2,0.4,0.4c0,0.1,0,0.2-0.1,0.3c0.1,0,0.1,0,0.2,0
							c0.2,0,0.4,0.2,0.4,0.4c0,0.1-0.1,0.2-0.1,0.3c0.2,0,0.5,0.1,0.5,0.4c0,0.2-0.1,0.3-0.3,0.4c0.2,0,0.4,0.2,0.4,0.4
							c0,0.1,0,0.2-0.1,0.3c0.3,0.2,0.3,0.4,0.1,0.7c0.2,0.2,0.1,0.5-0.1,0.7c-0.2,0.2-0.4,0.2-0.7,0c-0.3,0.2-0.5,0.2-0.9,0.1
							l0,0.1c0.1,0.2-0.1,0.4-0.3,0.3c-1.6-0.8-3.5-1.2-5.4-1.2c-1.9,0-3.8,0.4-5.4,1.2c-0.1,0.1-0.2,0-0.3-0.1
							c-0.1-0.1,0-0.2,0-0.3c-0.3,0.1-0.6,0.1-0.9-0.1c-0.5,0.4-1.2-0.4-0.8-0.7C204.9,145.4,204.9,145.1,205.2,144.9z"/>
						<path fill="#244A95" d="M216.7,150.2l-2.2,2.3c-0.6-0.2-1.4-0.4-2.2-0.4c-0.7,0-1.5,0.1-2.3,0.4l-2.1-2.2
							c-3,1.7-4.9,4.7-4.9,8.2c0,2.4,0.9,4.4,2.4,6.1l1.3-1.4c-1.3-1.2-2-3.1-2-4.8c0-0.9,0.2-1.7,0.5-2.4l0.9,0.9
							c-0.1,0.4-0.2,0.9-0.2,1.4c0,2.8,1.9,5.4,4.6,6.2v1.6h1.8v-1.4c0.4,0,0.8-0.1,1.1-0.1l1.6,1.6l0.9,0.9
							c1.7-0.8,3.2-2.1,4.2-3.7c0.9-1.4,1.4-3,1.4-4.8C221.7,154.9,219.8,151.9,216.7,150.2z M219.3,164.1l-1-1
							c1.1-1.3,1.8-2.7,1.8-4.8c0-2.3-1.2-4.8-3.1-6.2l-1.3,1.3c0.6,0.5,1.2,1,1.6,1.7l-1,0.8c-0.4-0.7-0.9-1.1-1.5-1.6l-2.5,2.6
							l-2.6-2.7c-1.3,0.9-2.1,2.3-2.2,4c0,2.2,1.4,3.8,3.4,4.4v-4.5h3.1v0.9h-1.9v1.2h1.9v1h-1.9v1.5c1.4,0.1,2.8-0.7,3.7-1.7
							l0.9,0.9c-1.2,1.4-2.9,2.1-4.7,2.1v1.4H211v-1.5c-2.7-0.7-4.7-3.1-4.6-5.9c0-2,1.1-3.5,2.6-4.7l-1.3-1.3c-2,1.6-3,3.6-3.1,6.2
							c-0.1,2.3,1.1,4.1,1.8,4.9l-0.9,0.9c-1.3-1.5-2.1-3.5-2.1-5.6c0-3.3,1.8-6.2,4.5-7.8l2.1,2.2c0.8-0.3,1.5-0.4,2.3-0.4
							c0.8,0,1.5,0.2,2.2,0.4l0.1-0.1l2.1-2.2c2.7,1.6,4.5,4.5,4.5,7.8C221.3,160.6,220.6,162.6,219.3,164.1z M213.5,156.3l1.4-1.5
							c0.6,0.5,1,1,1.4,1.7l1.5-1.3c-0.4-0.7-0.9-1.2-1.5-1.8l0.8-0.8c1.3,1,2.7,3.3,2.7,5.7c0,1.4-0.3,2.4-0.9,3.4L213.5,156.3z
							 M210.7,161.4v0.9c-1.7-0.7-2.7-2.1-2.8-3.7L210.7,161.4z"/>
						<path fill="#244A95" d="M212.4,147.2c-6.2,0-11.3,5.1-11.3,11.3c0,6.2,5.1,11.3,11.3,11.3c6.2,0,11.3-5.1,11.3-11.3
							C223.6,152.3,218.6,147.2,212.4,147.2z M212.4,169.4c-6,0-10.9-4.9-10.9-10.9c0-6,4.9-10.9,10.9-10.9c6,0,10.9,4.9,10.9,10.9
							C223.3,164.5,218.4,169.4,212.4,169.4z"/>
						<path fill="#244A95" d="M215.4,141.4c0.2,0,0.3-0.1,0.3-0.3c0-0.2-0.1-0.3-0.3-0.3c-0.2,0-0.3,0.1-0.3,0.3
							C215.1,141.2,215.2,141.4,215.4,141.4z M215.4,140.8c0.1,0,0.2,0.1,0.2,0.2c0,0.1-0.1,0.2-0.2,0.2s-0.2-0.1-0.2-0.2
							C215.2,140.9,215.3,140.8,215.4,140.8z"/>
						<path fill="#244A95" d="M207.5,145.7c-0.1,0.1-0.2,0.1-0.3,0.1c0,0.2-0.1,0.3-0.2,0.5l0.1,0.1c0.3-0.1,0.6-0.3,1-0.4l0-0.1
							C207.8,145.9,207.6,145.8,207.5,145.7z M207.2,146.2c0.1-0.1,0.1-0.2,0.2-0.3c0.1,0,0.1,0,0.2-0.1c0.1,0.1,0.2,0.1,0.3,0.1
							C207.6,146,207.4,146.1,207.2,146.2z"/>
						<path fill="#244A95" d="M208.6,143.3c0-0.2-0.1-0.3-0.3-0.3c-0.2,0-0.3,0.1-0.3,0.3c0,0.2,0.1,0.3,0.3,0.3
							C208.4,143.6,208.6,143.5,208.6,143.3z M208.3,143.5c-0.1,0-0.2-0.1-0.2-0.2c0-0.1,0.1-0.2,0.2-0.2c0.1,0,0.2,0.1,0.2,0.2
							C208.5,143.4,208.4,143.5,208.3,143.5z"/>
						<path fill="#244A95" d="M208.9,144.8c0.3-0.1,0.4-0.3,0.4-0.6c-0.1-0.3-0.3-0.4-0.6-0.4c-0.3,0.1-0.4,0.3-0.4,0.6
							C208.3,144.7,208.6,144.9,208.9,144.8z M208.6,143.9c0.2-0.1,0.5,0.1,0.5,0.3c0.1,0.2-0.1,0.5-0.3,0.5
							c-0.2,0.1-0.5-0.1-0.5-0.3C208.3,144.2,208.4,144,208.6,143.9z"/>
						<path fill="#244A95" d="M209,145L209,145c-0.1,0.3-0.2,0.6-0.4,0.7l0,0.1c0.3-0.1,0.6-0.2,0.9-0.2v-0.1
							C209.3,145.4,209.1,145.2,209,145z M208.8,145.6c0.1-0.1,0.2-0.3,0.2-0.5c0.1,0.1,0.2,0.2,0.4,0.3
							C209.2,145.5,209,145.6,208.8,145.6z"/>
						<path fill="#244A95" d="M210.8,144.8c-0.1,0-0.1,0-0.2,0l-0.1,0c-0.1,0.2-0.2,0.4-0.4,0.5l0,0.1c0.3-0.1,0.7-0.1,1-0.1l0-0.1
							C211.1,145.1,210.9,145,210.8,144.8z M210.4,145.3c0.1-0.1,0.2-0.2,0.2-0.3c0,0,0.1,0,0.1,0c0.1,0.1,0.2,0.2,0.3,0.3
							C210.8,145.2,210.6,145.3,210.4,145.3z"/>
						<path fill="#244A95" d="M214.2,144.9L214.2,144.9c-0.1,0-0.2,0-0.2,0c-0.1,0.2-0.3,0.3-0.5,0.4l0,0.1c0.3,0,0.7,0.1,1,0.1
							l0-0.1C214.4,145.2,214.3,145.1,214.2,144.9z M213.7,145.2c0.1-0.1,0.2-0.2,0.3-0.3c0,0,0.1,0,0.1,0l0,0
							c0.1,0.1,0.1,0.2,0.2,0.3C214.2,145.3,213.9,145.2,213.7,145.2z"/>
						<path fill="#244A95" d="M212.9,143.9c0-0.3-0.2-0.5-0.5-0.5c-0.3,0-0.5,0.2-0.5,0.5c0,0.3,0.2,0.5,0.5,0.5
							C212.7,144.4,212.9,144.1,212.9,143.9z M212,143.9c0-0.2,0.2-0.4,0.4-0.4c0.2,0,0.4,0.2,0.4,0.4c0,0.2-0.2,0.4-0.4,0.4
							C212.2,144.3,212,144.1,212,143.9z"/>
						<path fill="#244A95" d="M212.4,144.5L212.4,144.5c-0.1,0.3-0.3,0.5-0.6,0.6l0,0.1c0.2,0,0.3,0,0.5,0c0.2,0,0.3,0,0.5,0l0-0.1
							C212.7,145.1,212.5,144.8,212.4,144.5z M212.4,145.2l-0.3,0c0.1-0.1,0.2-0.2,0.3-0.4c0.1,0.2,0.2,0.3,0.3,0.4L212.4,145.2z"/>
						<path fill="#244A95" d="M216.8,146.9c-0.2,0-0.3,0.1-0.3,0.3c0,0.2,0.1,0.3,0.3,0.3c0.2,0,0.3-0.1,0.3-0.3
							C217.1,147.1,217,146.9,216.8,146.9z M216.8,147.5c-0.1,0-0.2-0.1-0.2-0.2c0-0.1,0.1-0.2,0.2-0.2c0.1,0,0.2,0.1,0.2,0.2
							C217.1,147.4,217,147.5,216.8,147.5z"/>
						<path fill="#244A95" d="M210.9,146.1c-0.2,0-0.3,0.1-0.3,0.3c0,0.2,0.1,0.3,0.3,0.3c0.2,0,0.3-0.1,0.3-0.3
							C211.2,146.3,211,146.1,210.9,146.1z M210.9,146.7c-0.1,0-0.2-0.1-0.2-0.2c0-0.1,0.1-0.2,0.2-0.2s0.2,0.1,0.2,0.2
							C211.1,146.6,211,146.7,210.9,146.7z"/>
						<polygon fill="#244A95" points="208.6,146.9 209.5,147 210.2,146.5 209.3,146.4 						"/>
						<path fill="#244A95" d="M207.9,146.9c-0.2,0-0.3,0.1-0.3,0.3c0,0.2,0.1,0.3,0.3,0.3c0.2,0,0.3-0.1,0.3-0.3
							C208.2,147.1,208.1,146.9,207.9,146.9z M207.9,147.5c-0.1,0-0.2-0.1-0.2-0.2c0-0.1,0.1-0.2,0.2-0.2c0.1,0,0.2,0.1,0.2,0.2
							C208.2,147.4,208.1,147.5,207.9,147.5z"/>
						<path fill="#244A95" d="M215.9,145L215.9,145c-0.2,0.2-0.4,0.4-0.7,0.5v0.1c0.3,0.1,0.6,0.1,0.9,0.2l0-0.1
							C216,145.5,215.9,145.3,215.9,145z M215.4,145.5c0.2-0.1,0.3-0.2,0.4-0.3c0,0.2,0.1,0.3,0.2,0.5
							C215.8,145.6,215.6,145.5,215.4,145.5z"/>
						<polygon fill="#244A95" points="214.6,146.5 215.3,147 216.2,146.9 215.5,146.4 						"/>
						<path fill="#244A95" d="M211.4,146.4l1,0.4l1-0.4l-1-0.4L211.4,146.4z M212.4,146.6l-0.8-0.3l0.8-0.3l0.8,0.3L212.4,146.6z"/>
						<path fill="#244A95" d="M213.9,146.1c-0.2,0-0.3,0.1-0.3,0.3c0,0.2,0.1,0.3,0.3,0.3c0.2,0,0.3-0.1,0.3-0.3
							C214.2,146.3,214.1,146.1,213.9,146.1z M213.9,146.7c-0.1,0-0.2-0.1-0.2-0.2c0-0.1,0.1-0.2,0.2-0.2c0.1,0,0.2,0.1,0.2,0.2
							C214.1,146.6,214,146.7,213.9,146.7z"/>
						<path fill="#244A95" d="M218.7,143.8c0,0.2,0.1,0.3,0.3,0.3c0.2,0,0.3-0.1,0.3-0.3c0-0.2-0.1-0.3-0.3-0.3
							C218.9,143.5,218.7,143.7,218.7,143.8z M219,143.6c0.1,0,0.2,0.1,0.2,0.2c0,0.1-0.1,0.2-0.2,0.2c-0.1,0-0.2-0.1-0.2-0.2
							C218.8,143.7,218.9,143.6,219,143.6z"/>
						<path fill="#244A95" d="M215.9,142c0.2,0,0.3-0.1,0.3-0.3s-0.1-0.3-0.3-0.3c-0.2,0-0.3,0.1-0.3,0.3S215.8,142,215.9,142z
							 M215.9,141.5c0.1,0,0.2,0.1,0.2,0.2c0,0.1-0.1,0.2-0.2,0.2c-0.1,0-0.2-0.1-0.2-0.2C215.7,141.6,215.8,141.5,215.9,141.5z"/>
						<path fill="#244A95" d="M216.7,142c0.2,0,0.3-0.1,0.3-0.3c0-0.2-0.1-0.3-0.3-0.3c-0.2,0-0.3,0.1-0.3,0.3
							C216.4,141.8,216.5,142,216.7,142z M216.7,141.4c0.1,0,0.2,0.1,0.2,0.2c0,0.1-0.1,0.2-0.2,0.2c-0.1,0-0.2-0.1-0.2-0.2
							C216.5,141.5,216.6,141.4,216.7,141.4z"/>
						<path fill="#244A95" d="M217.4,142.2c0.2,0,0.3-0.1,0.3-0.3c0-0.2-0.1-0.3-0.3-0.3c-0.2,0-0.3,0.1-0.3,0.3
							C217.1,142.1,217.3,142.2,217.4,142.2z M217.4,141.7c0.1,0,0.2,0.1,0.2,0.2c0,0.1-0.1,0.2-0.2,0.2c-0.1,0-0.2-0.1-0.2-0.2
							C217.2,141.8,217.3,141.7,217.4,141.7z"/>
						<path fill="#244A95" d="M216.7,142.5c0,0.2-0.1,0.3-0.3,0.4c0.2,0,0.4,0.2,0.4,0.4c0,0.2-0.2,0.4-0.4,0.4
							c0.1,0.1,0.1,0.2,0.1,0.3c0.3,0.1,0.3,0.3,0.3,0.6c-0.1,0.4-0.3,0.4-0.7,0.3c-0.1,0.6,0.6,0.8,0.9,0.4c0,0,0-0.1,0-0.1
							c0.1-0.2,0.3-0.4,0.5-0.3c0.2,0.1,0.4,0.3,0.3,0.5c0,0.1-0.1,0.1-0.1,0.2c0,0.2,0.1,0.4,0.3,0.5c0.2,0.1,0.4,0.1,0.5,0
							c-0.3-0.2-0.5-0.3-0.3-0.7c0.1-0.2,0.1-0.3,0.3-0.3C218.6,143.7,218.2,143,216.7,142.5L216.7,142.5z M218.6,145.1
							c-0.2,0.1-0.3,0.2-0.3,0.4c-0.1,0.2-0.1,0.5,0.2,0.7c-0.2,0-0.5-0.2-0.4-0.4c0-0.1,0.1-0.1,0.1-0.2c0.1-0.3-0.1-0.6-0.4-0.6
							c-0.3-0.1-0.6,0.1-0.6,0.4c0,0,0,0.1,0,0.1c-0.2,0.3-0.7,0.1-0.7-0.2c0.4,0.1,0.6-0.1,0.7-0.4c0.1-0.3,0-0.5-0.3-0.7
							c0-0.1,0-0.2,0-0.2c0.2-0.1,0.3-0.2,0.3-0.4c0.3,0.1,0.5,0.1,0.8,0.2c0.2,0.1,0.4,0.2,0.5,0.3
							C218.5,144.3,218.5,144.7,218.6,145.1z M218.3,143.8c-0.1-0.1-0.3-0.2-0.4-0.2c-0.2-0.1-0.5-0.2-0.8-0.3
							c0-0.2-0.1-0.4-0.3-0.5c0.1-0.1,0.1-0.2,0.1-0.3C217.6,142.9,218,143.3,218.3,143.8z"/>
						<path fill="#244A95" d="M216,142.5c0,0.2,0.1,0.3,0.3,0.3c0.2,0,0.3-0.1,0.3-0.3c0-0.2-0.1-0.3-0.3-0.3
							C216.1,142.2,216,142.3,216,142.5z M216.3,142.2c0.1,0,0.2,0.1,0.2,0.2c0,0.1-0.1,0.2-0.2,0.2c-0.1,0-0.2-0.1-0.2-0.2
							C216.1,142.3,216.2,142.2,216.3,142.2z"/>
						<path fill="#244A95" d="M213.1,140.5c0.2,0,0.3-0.1,0.3-0.3c0-0.2-0.1-0.3-0.3-0.3c-0.2,0-0.3,0.1-0.3,0.3
							C212.8,140.3,213,140.5,213.1,140.5z M213.1,139.9c0.1,0,0.2,0.1,0.2,0.2c0,0.1-0.1,0.2-0.2,0.2c-0.1,0-0.2-0.1-0.2-0.2
							C212.9,140,213,139.9,213.1,139.9z"/>
						<path fill="#244A95" d="M214.7,140.9c0.2,0,0.3-0.1,0.3-0.3c0-0.2-0.1-0.3-0.3-0.3c-0.2,0-0.3,0.1-0.3,0.3
							C214.4,140.8,214.5,140.9,214.7,140.9z M214.7,140.4c0.1,0,0.2,0.1,0.2,0.2c0,0.1-0.1,0.2-0.2,0.2c-0.1,0-0.2-0.1-0.2-0.2
							C214.4,140.5,214.5,140.4,214.7,140.4z"/>
						<path fill="#244A95" d="M213.9,140.6c0.2,0,0.3-0.1,0.3-0.3c0-0.2-0.1-0.3-0.3-0.3c-0.2,0-0.3,0.1-0.3,0.3
							C213.6,140.5,213.7,140.6,213.9,140.6z M213.9,140.1c0.1,0,0.2,0.1,0.2,0.2c0,0.1-0.1,0.2-0.2,0.2c-0.1,0-0.2-0.1-0.2-0.2
							C213.7,140.2,213.8,140.1,213.9,140.1z"/>
						<path fill="#244A95" d="M212.4,141.2c0.2,0,0.3-0.1,0.3-0.3c0-0.2-0.1-0.3-0.3-0.3c-0.2,0-0.3,0.1-0.3,0.3
							C212.1,141.1,212.2,141.2,212.4,141.2z M212.4,140.7c0.1,0,0.2,0.1,0.2,0.2c0,0.1-0.1,0.2-0.2,0.2c-0.1,0-0.2-0.1-0.2-0.2
							C212.1,140.8,212.3,140.7,212.4,140.7z"/>
						<path fill="#244A95" d="M218.1,142.7c0.2,0,0.3-0.1,0.3-0.3c0-0.2-0.1-0.3-0.3-0.3c-0.2,0-0.3,0.1-0.3,0.3
							C217.8,142.6,218,142.7,218.1,142.7z M218.1,142.2c0.1,0,0.2,0.1,0.2,0.2c0,0.1-0.1,0.2-0.2,0.2c-0.1,0-0.2-0.1-0.2-0.2
							C217.9,142.3,218,142.2,218.1,142.2z"/>
						<path fill="#244A95" d="M219.4,145.4c-0.2-0.1-0.5,0-0.7,0.2c-0.1,0.2,0,0.5,0.2,0.7c0.2,0.1,0.5,0,0.7-0.2
							C219.7,145.8,219.6,145.5,219.4,145.4z M219.5,146c-0.1,0.2-0.4,0.3-0.6,0.2c-0.2-0.1-0.3-0.4-0.2-0.6
							c0.1-0.2,0.4-0.3,0.6-0.2C219.6,145.5,219.6,145.8,219.5,146z"/>
						<path fill="#244A95" d="M216.8,143.3c0-0.2-0.1-0.3-0.3-0.3c-0.2,0-0.3,0.1-0.3,0.3c0,0.2,0.1,0.3,0.3,0.3
							C216.7,143.6,216.8,143.5,216.8,143.3z M216.3,143.3c0-0.1,0.1-0.2,0.2-0.2c0.1,0,0.2,0.1,0.2,0.2c0,0.1-0.1,0.2-0.2,0.2
							C216.4,143.5,216.3,143.4,216.3,143.3z"/>
						<path fill="#244A95" d="M217.5,145.8c-0.1,0-0.1-0.1-0.2-0.1c-0.1,0.1-0.3,0.2-0.5,0.2l0,0.1c0.3,0.1,0.6,0.2,1,0.4l0.1-0.1
							C217.7,146.2,217.6,146,217.5,145.8C217.5,145.8,217.5,145.8,217.5,145.8z M217,146c0.1,0,0.2-0.1,0.3-0.1
							c0,0,0.1,0.1,0.2,0.1c0,0.1,0.1,0.2,0.1,0.3C217.4,146.1,217.2,146,217,146z"/>
						<path fill="#244A95" d="M218.9,144.7c0,0.2,0.1,0.3,0.3,0.3c0.2,0,0.3-0.1,0.3-0.3c0-0.2-0.1-0.3-0.3-0.3
							C219.1,144.4,218.9,144.5,218.9,144.7z M219.2,144.5c0.1,0,0.2,0.1,0.2,0.2c0,0.1-0.1,0.2-0.2,0.2c-0.1,0-0.2-0.1-0.2-0.2
							C219,144.6,219.1,144.5,219.2,144.5z"/>
						<path fill="#244A95" d="M218.7,143.4c0.2,0,0.3-0.1,0.3-0.3c0-0.2-0.1-0.3-0.3-0.3c-0.2,0-0.3,0.1-0.3,0.3
							C218.4,143.3,218.5,143.4,218.7,143.4z M218.7,142.9c0.1,0,0.2,0.1,0.2,0.2c0,0.1-0.1,0.2-0.2,0.2c-0.1,0-0.2-0.1-0.2-0.2
							C218.5,143,218.6,142.9,218.7,142.9z"/>
						<path fill="#244A95" d="M215.5,144.2c-0.1,0.3,0.1,0.5,0.4,0.6c0.3,0.1,0.5-0.1,0.6-0.4c0.1-0.3-0.1-0.5-0.4-0.6
							C215.9,143.8,215.6,143.9,215.5,144.2z M216.4,144.4c-0.1,0.2-0.3,0.4-0.5,0.3c-0.2-0.1-0.4-0.3-0.3-0.5
							c0.1-0.2,0.3-0.4,0.5-0.3C216.4,144,216.5,144.2,216.4,144.4z"/>
					</g>
				</g>
			</g>
		</g>
	</g>
	<linearGradient id="SVGID_1_" gradientUnits="userSpaceOnUse" x1="172.1455" y1="420.5644" x2="172.1455" y2="-1.409717e-09">
		<stop  offset="0" style="stop-color:#2484C6"/>
		<stop  offset="0.7539" style="stop-color:#2484C6;stop-opacity:0"/>
	</linearGradient>
	<path opacity="0.7" fill="url(#SVGID_1_)" d="M136.7,418.2L0,27.4c0,0,201.9-57.3,344.3-6.4L235.1,416.5
		C235.1,416.5,211.7,424.4,136.7,418.2z"/>
</g>
</svg>
