<?xml version="1.0" encoding="utf-8"?>
<!-- Generator: Adobe Illustrator 18.1.0, SVG Export Plug-In . SVG Version: 6.00 Build 0)  -->
<!DOCTYPE svg PUBLIC "-//W3C//DTD SVG 1.1//EN" "http://www.w3.org/Graphics/SVG/1.1/DTD/svg11.dtd">
<svg version="1.1" id="Layer_1" xmlns="http://www.w3.org/2000/svg" xmlns:xlink="http://www.w3.org/1999/xlink" x="0px" y="0px"
	 viewBox="0 0 35 35" enable-background="new 0 0 35 35" xml:space="preserve">
<path fill="#002A5E" d="M27.9,22.2c-1.3,0-2.6,0.4-3.6,1.2l-11.8-6.1l11.7-6.1c1,0.8,2.3,1.3,3.7,1.3c3.4,0,6.2-2.8,6.2-6.2
	c0-3.4-2.8-6.2-6.2-6.2c-3.4,0-6.2,2.8-6.2,6.2c0,0.1,0,0.1,0,0.2L10,12.5c-1-0.8-2.3-1.3-3.7-1.3c-3.4,0-6.2,2.8-6.2,6.2
	c0,3.4,2.8,6.2,6.2,6.2c1.6,0,3-0.6,4.1-1.6l11.4,5.9c0,0.1,0,0.3,0,0.4c0,3.4,2.8,6.2,6.2,6.2c3.4,0,6.2-2.8,6.2-6.2
	C34.1,25,31.3,22.2,27.9,22.2z"/>
</svg>
