<?xml version="1.0" encoding="utf-8"?>
<!-- Generator: Adobe Illustrator 18.1.0, SVG Export Plug-In . SVG Version: 6.00 Build 0)  -->
<!DOCTYPE svg PUBLIC "-//W3C//DTD SVG 1.1//EN" "http://www.w3.org/Graphics/SVG/1.1/DTD/svg11.dtd">
<svg version="1.1" id="Layer_1" xmlns="http://www.w3.org/2000/svg" xmlns:xlink="http://www.w3.org/1999/xlink" x="0px" y="0px"
	 viewBox="0 0 362 199" enable-background="new 0 0 362 199" xml:space="preserve">
<path fill="#603913" d="M53.9,180.2c0,0-46.8,12.8,37.8,17.5c84.6,4.7,29.4-10.6,29.4-10.6s71.1,0.6,25.4-7.8c0,0,14.9-2.8,28.3,1.9
	c13.4,4.7,10.3,17.4,46,13.4c35.7-4,6.5-10.8-5.3-10.7c0,0,12.5-3.9,35.6,0.4c23.1,4.3,63.2-2.2,30.9-4.7c0,0,12.5-0.1,23.9-1.4
	H35.7C40,179.2,45.9,179.9,53.9,180.2z"/>
<ellipse fill="#754C29" cx="211.7" cy="189.9" rx="11.5" ry="2.8"/>
</svg>
