<?xml version="1.0" encoding="utf-8"?>
<!-- Generator: Adobe Illustrator 18.1.0, SVG Export Plug-In . SVG Version: 6.00 Build 0)  -->
<!DOCTYPE svg PUBLIC "-//W3C//DTD SVG 1.1//EN" "http://www.w3.org/Graphics/SVG/1.1/DTD/svg11.dtd">
<svg version="1.1" id="Layer_1" xmlns="http://www.w3.org/2000/svg" xmlns:xlink="http://www.w3.org/1999/xlink" x="0px" y="0px"
	 viewBox="0 0 362 199" enable-background="new 0 0 362 199" xml:space="preserve">
<g>
	<path fill="#603913" d="M10.6,118.3c0,0-21.7,11.5-3.1,17.2s27.3,3.5,17.9,7.3c-9.5,3.9-23.3,12.6,10.3,13.5c0,0,7.7,8.2-1.1,10.3
		s-19.8,12.2,19.1,13.8c0,0-46.8,12.9,37.9,17.5c84.7,4.7,29.4-10.6,29.4-10.6s71.1,0.6,25.4-7.8c0,0,14.9-2.8,28.3,1.9
		c13.4,4.7,10.3,17.4,46,13.4s6.6-10.8-5.3-10.7c0,0,12.5-3.9,35.6,0.4c23.1,4.3,63.2-2.2,30.9-4.7c0,0,42.9-0.2,41.7-8.6
		s-11.3-7.5-29-8.4s-22.1-6.8,11.4-8.3c33.5-1.4,53.1-7.9,20-11c0,0-5.9-2.8,10-3.4c15.9-0.6,30.9-5,15.2-6.4c0,0,30.7-7-11.8-15.5
		H10.6z"/>
	<g>
		<polygon fill="#C1BD98" points="180.2,27.4 289.8,27.4 285.6,23.1 180.2,0 		"/>
		<rect x="180.2" y="27.4" fill="#231F20" width="109.6" height="14"/>
		<rect x="180.2" y="44.8" fill="#414042" width="108.8" height="78.8"/>
		<rect x="284.9" y="7.3" fill="#939598" width="8.9" height="116.4"/>
		<rect x="284.9" y="20.6" fill="#939598" width="67" height="5.8"/>
		<rect x="344.9" y="5.7" fill="#939598" width="6.9" height="119.8"/>
		<rect x="180.2" y="107.1" fill="#C1BD98" width="104.7" height="16.6"/>
		<rect x="292.2" y="28.2" fill="#939598" width="53.5" height="1.1"/>
		<rect x="294.7" y="30.8" fill="#B6FFDA" width="49.3" height="92.9"/>
		<circle fill="#FFFFE1" cx="183.2" cy="4.2" r="2.4"/>
		<circle fill="#F6D070" cx="188.9" cy="5.6" r="2.4"/>
		<circle fill="#A7EEC9" cx="194.2" cy="6.6" r="2.4"/>
		<circle fill="#E24B6E" cx="199.5" cy="7.6" r="2.4"/>
		<circle fill="#FFFFE1" cx="205.6" cy="9" r="2.4"/>
		<circle fill="#F6D070" cx="211.3" cy="10.3" r="2.4"/>
		<circle fill="#A7EEC9" cx="216.5" cy="11.3" r="2.4"/>
		<circle fill="#E24B6E" cx="221.9" cy="12.3" r="2.4"/>
		<circle fill="#FFFFE1" cx="226.9" cy="13.7" r="2.4"/>
		<circle fill="#F6D070" cx="232.6" cy="15" r="2.4"/>
		<circle fill="#A7EEC9" cx="237.8" cy="16" r="2.4"/>
		<circle fill="#E24B6E" cx="243.2" cy="17" r="2.4"/>
		<circle fill="#FFFFE1" cx="248.4" cy="18.2" r="2.4"/>
		<circle fill="#F6D070" cx="254.1" cy="19.5" r="2.4"/>
		<circle fill="#A7EEC9" cx="259.4" cy="20.5" r="2.4"/>
		<circle fill="#E24B6E" cx="264.7" cy="21.5" r="2.4"/>
		<circle fill="#FFFFE1" cx="270.6" cy="22.4" r="2.4"/>
		<circle fill="#F6D070" cx="276.4" cy="23.8" r="2.4"/>
		<circle fill="#A7EEC9" cx="281.6" cy="24.8" r="2.4"/>
		<circle fill="#91DBB3" cx="320.6" cy="70.9" r="23.8"/>
		<circle fill="#FFFFE1" cx="300" cy="37.8" r="2.4"/>
		<circle fill="#F6D070" cx="306" cy="37.8" r="2.4"/>
		<circle fill="#A7EEC9" cx="311.3" cy="37.8" r="2.4"/>
		<circle fill="#E24B6E" cx="316.6" cy="37.8" r="2.4"/>
		<circle fill="#FFFFE1" cx="323.2" cy="37.8" r="2.4"/>
		<circle fill="#F6D070" cx="328.9" cy="37.8" r="2.4"/>
		<circle fill="#A7EEC9" cx="334.2" cy="37.8" r="2.4"/>
		<circle fill="#E24B6E" cx="339.5" cy="37.8" r="2.4"/>
		<circle fill="#FFFFE1" cx="338.9" cy="43.7" r="2.4"/>
		<circle fill="#F6D070" cx="333.2" cy="43.7" r="2.4"/>
		<circle fill="#A7EEC9" cx="327.9" cy="43.7" r="2.4"/>
		<circle fill="#E24B6E" cx="322.6" cy="43.7" r="2.4"/>
		<circle fill="#FFFFE1" cx="316" cy="43.7" r="2.4"/>
		<circle fill="#F6D070" cx="310.3" cy="43.7" r="2.4"/>
		<circle fill="#A7EEC9" cx="305.1" cy="43.7" r="2.4"/>
		<circle fill="#E24B6E" cx="300" cy="43.7" r="2.4"/>
		<circle fill="#FFFFE1" cx="300.5" cy="112.4" r="2.4"/>
		<circle fill="#F6D070" cx="306.5" cy="112.4" r="2.4"/>
		<circle fill="#A7EEC9" cx="311.8" cy="112.4" r="2.4"/>
		<circle fill="#E24B6E" cx="317.1" cy="112.4" r="2.4"/>
		<circle fill="#FFFFE1" cx="323.7" cy="112.4" r="2.4"/>
		<circle fill="#F6D070" cx="329.4" cy="112.4" r="2.4"/>
		<circle fill="#A7EEC9" cx="334.6" cy="112.4" r="2.4"/>
		<circle fill="#E24B6E" cx="340" cy="112.4" r="2.4"/>
		<circle fill="#FFFFE1" cx="339.4" cy="118.3" r="2.4"/>
		<circle fill="#F6D070" cx="333.7" cy="118.3" r="2.4"/>
		<circle fill="#A7EEC9" cx="328.4" cy="118.3" r="2.4"/>
		<circle fill="#E24B6E" cx="323.1" cy="118.3" r="2.4"/>
		<circle fill="#FFFFE1" cx="316.5" cy="118.3" r="2.4"/>
		<circle fill="#F6D070" cx="310.8" cy="118.3" r="2.4"/>
		<circle fill="#A7EEC9" cx="305.5" cy="118.3" r="2.4"/>
		<circle fill="#E24B6E" cx="300.5" cy="118.3" r="2.4"/>
		<rect x="180.2" y="38.6" fill="#BCBEC0" width="62.2" height="6.3"/>
		<g>
			<polygon fill="#C1BD98" points="181,27.4 71.3,27.4 75.6,23.2 181,0 			"/>
			<rect x="71.3" y="27.4" fill="#231F20" width="109.6" height="14"/>
			<rect x="72.2" y="44.9" fill="#414042" width="108.8" height="78.8"/>
			<rect x="67.4" y="7.3" fill="#939598" width="8.9" height="116.4"/>
			<rect x="9.3" y="20.7" fill="#939598" width="67" height="5.8"/>
			<rect x="9.3" y="5.7" fill="#939598" width="6.9" height="119.8"/>
			<rect x="76.3" y="107.1" fill="#C1BD98" width="104.7" height="16.6"/>
			<rect x="15.5" y="28.2" fill="#939598" width="53.5" height="1.1"/>
			<rect x="17.2" y="30.8" fill="#B6FFDA" width="49.3" height="92.9"/>
			<circle fill="#FFFFE1" cx="177.9" cy="4.3" r="2.4"/>
			<circle fill="#F6D070" cx="172.2" cy="5.6" r="2.4"/>
			<circle fill="#A7EEC9" cx="167" cy="6.6" r="2.4"/>
			<circle fill="#E24B6E" cx="161.6" cy="7.6" r="2.4"/>
			<circle fill="#FFFFE1" cx="155.6" cy="9" r="2.4"/>
			<circle fill="#F6D070" cx="149.9" cy="10.3" r="2.4"/>
			<circle fill="#A7EEC9" cx="144.6" cy="11.3" r="2.4"/>
			<circle fill="#E24B6E" cx="139.3" cy="12.3" r="2.4"/>
			<circle fill="#FFFFE1" cx="134.3" cy="13.7" r="2.4"/>
			<circle fill="#F6D070" cx="128.6" cy="15" r="2.4"/>
			<circle fill="#A7EEC9" cx="123.3" cy="16" r="2.4"/>
			<circle fill="#E24B6E" cx="118" cy="17" r="2.4"/>
			<circle fill="#FFFFE1" cx="112.8" cy="18.2" r="2.4"/>
			<circle fill="#F6D070" cx="107.1" cy="19.5" r="2.4"/>
			<circle fill="#A7EEC9" cx="101.8" cy="20.6" r="2.4"/>
			<circle fill="#E24B6E" cx="96.5" cy="21.5" r="2.4"/>
			<circle fill="#FFFFE1" cx="90.5" cy="22.5" r="2.4"/>
			<circle fill="#F6D070" cx="84.8" cy="23.8" r="2.4"/>
			<circle fill="#A7EEC9" cx="79.5" cy="24.8" r="2.4"/>
			<circle fill="#91DBB3" cx="40.5" cy="70.9" r="23.8"/>
			<circle fill="#FFFFE1" cx="61.1" cy="37.8" r="2.4"/>
			<circle fill="#F6D070" cx="55.1" cy="37.8" r="2.4"/>
			<circle fill="#A7EEC9" cx="49.8" cy="37.8" r="2.4"/>
			<circle fill="#E24B6E" cx="44.5" cy="37.8" r="2.4"/>
			<circle fill="#FFFFE1" cx="38" cy="37.8" r="2.4"/>
			<circle fill="#F6D070" cx="32.3" cy="37.8" r="2.4"/>
			<circle fill="#A7EEC9" cx="27" cy="37.8" r="2.4"/>
			<circle fill="#E24B6E" cx="21.7" cy="37.8" r="2.4"/>
			<circle fill="#FFFFE1" cx="22.3" cy="43.8" r="2.4"/>
			<circle fill="#F6D070" cx="28" cy="43.8" r="2.4"/>
			<circle fill="#A7EEC9" cx="33.3" cy="43.8" r="2.4"/>
			<circle fill="#E24B6E" cx="38.6" cy="43.8" r="2.4"/>
			<circle fill="#FFFFE1" cx="45.1" cy="43.8" r="2.4"/>
			<circle fill="#F6D070" cx="50.8" cy="43.8" r="2.4"/>
			<circle fill="#A7EEC9" cx="56.1" cy="43.8" r="2.4"/>
			<circle fill="#E24B6E" cx="61.1" cy="43.8" r="2.4"/>
			<circle fill="#FFFFE1" cx="60.6" cy="112.4" r="2.4"/>
			<circle fill="#F6D070" cx="54.6" cy="112.4" r="2.4"/>
			<circle fill="#A7EEC9" cx="49.4" cy="112.4" r="2.4"/>
			<circle fill="#E24B6E" cx="44.1" cy="112.4" r="2.4"/>
			<circle fill="#FFFFE1" cx="37.5" cy="112.4" r="2.4"/>
			<circle fill="#F6D070" cx="31.8" cy="112.4" r="2.4"/>
			<circle fill="#A7EEC9" cx="26.5" cy="112.4" r="2.4"/>
			<circle fill="#E24B6E" cx="21.2" cy="112.4" r="2.4"/>
			<circle fill="#FFFFE1" cx="21.8" cy="118.4" r="2.4"/>
			<circle fill="#F6D070" cx="27.5" cy="118.4" r="2.4"/>
			<circle fill="#A7EEC9" cx="32.8" cy="118.4" r="2.4"/>
			<circle fill="#E24B6E" cx="38.1" cy="118.4" r="2.4"/>
			<circle fill="#FFFFE1" cx="44.6" cy="118.4" r="2.4"/>
			<circle fill="#F6D070" cx="50.3" cy="118.4" r="2.4"/>
			<circle fill="#A7EEC9" cx="55.6" cy="118.4" r="2.4"/>
			<circle fill="#E24B6E" cx="60.6" cy="118.4" r="2.4"/>
			<rect x="118.8" y="38.6" fill="#BCBEC0" width="62.2" height="6.3"/>
		</g>
		<rect x="170.8" y="38.6" fill="#BCBEC0" width="34.3" height="6.3"/>
		<rect x="157" y="107.1" fill="#C1BD98" width="54.4" height="16.6"/>
	</g>
	<polygon opacity="0.35" fill="#231F20" points="351.8,20.7 284.9,20.7 284.9,72.7 	"/>
	<polygon opacity="0.35" fill="#231F20" points="75.8,21.1 8.8,21.1 8.8,73.1 	"/>
	<polygon opacity="0.35" fill="#231F20" points="217.2,107.1 284.2,107.1 284.2,55.1 	"/>
	<polygon opacity="0.35" fill="#231F20" points="142.9,44.9 75.9,44.9 75.9,96.9 	"/>
	<ellipse fill="#3C2415" cx="173.6" cy="138.8" rx="86" ry="11.8"/>
	<ellipse fill="#3C2415" cx="58.4" cy="133" rx="15.7" ry="3.8"/>
	<ellipse fill="#3C2415" cx="289.3" cy="142.4" rx="21" ry="5.6"/>
	<ellipse fill="#3C2415" cx="314.9" cy="131.4" rx="14.4" ry="1.6"/>
	<ellipse fill="#3C2415" cx="60.3" cy="156.7" rx="11.9" ry="2"/>
	<ellipse fill="#754C29" cx="211.7" cy="190.3" rx="11.6" ry="2.8"/>
	<ellipse fill="#754C29" cx="271.7" cy="130.4" rx="10" ry="2.6"/>
	<ellipse fill="#754C29" cx="67.3" cy="145.1" rx="9.8" ry="2.8"/>
	<ellipse fill="#754C29" cx="121.1" cy="135.2" rx="8.4" ry="2.2"/>
	<ellipse fill="#603913" cx="150.1" cy="144.6" rx="9.6" ry="2.2"/>
	<ellipse fill="#603913" cx="186.3" cy="135.2" rx="7.5" ry="2.2"/>
	<ellipse fill="#754C29" cx="218.4" cy="144.6" rx="11.2" ry="2.2"/>
	<g>
		<path fill="#231F20" d="M221.5,144.5v-12.1c0-2.3-1.9-4.2-4.2-4.2h-0.3c-2.3,0-4.2,1.9-4.2,4.2v12.1H221.5z"/>
		<circle fill="#231F20" cx="217.4" cy="125.1" r="3.5"/>
		<path fill="#231F20" d="M215.3,131.5c0.2,0.8-0.1,1.6-0.8,1.8l0,0c-0.7,0.2-1.4-0.2-1.7-1l-3.5-11.1c-0.2-0.8,0.1-1.6,0.8-1.8l0,0
			c0.7-0.2,1.4,0.2,1.7,1L215.3,131.5z"/>
		<path fill="#231F20" d="M219.2,131.5c-0.2,0.8,0.1,1.6,0.8,1.8l0,0c0.7,0.2,1.4-0.2,1.7-1l3.5-11.1c0.2-0.8-0.1-1.6-0.8-1.8l0,0
			c-0.7-0.2-1.4,0.2-1.7,1L219.2,131.5z"/>
	</g>
	<g>
		<path fill="#231F20" d="M154.1,145.6v-12.1c0-2.3-1.9-4.2-4.2-4.2h-0.3c-2.3,0-4.2,1.9-4.2,4.2v12.1H154.1z"/>
		<circle fill="#231F20" cx="150" cy="126.1" r="3.5"/>
		<path fill="#231F20" d="M147.9,132.6c0.2,0.8-0.1,1.6-0.8,1.8l0,0c-0.7,0.2-1.4-0.2-1.7-1l-3.5-11.1c-0.2-0.8,0.1-1.6,0.8-1.8l0,0
			c0.7-0.2,1.4,0.2,1.7,1L147.9,132.6z"/>
		<path fill="#231F20" d="M151.8,132.6c-0.2,0.8,0.1,1.6,0.8,1.8l0,0c0.7,0.2,1.4-0.2,1.7-1l3.5-11.1c0.2-0.8-0.1-1.6-0.8-1.8l0,0
			c-0.7-0.2-1.4,0.2-1.7,1L151.8,132.6z"/>
	</g>
	<g>
		<path fill="#231F20" d="M190.1,135.6v-12.1c0-2.3-1.9-4.2-4.2-4.2h-0.3c-2.3,0-4.2,1.9-4.2,4.2v12.1H190.1z"/>
		<circle fill="#231F20" cx="186" cy="116.2" r="3.5"/>
		<path fill="#231F20" d="M183.9,122.6c0.2,0.8-0.1,1.6-0.8,1.8l0,0c-0.7,0.2-1.4-0.2-1.7-1l-3.5-11.1c-0.2-0.8,0.1-1.6,0.8-1.8l0,0
			c0.7-0.2,1.4,0.2,1.7,1L183.9,122.6z"/>
		<path fill="#231F20" d="M187.8,122.6c-0.2,0.8,0.1,1.6,0.8,1.8l0,0c0.7,0.2,1.4-0.2,1.7-1l3.5-11.1c0.2-0.8-0.1-1.6-0.8-1.8l0,0
			c-0.7-0.2-1.4,0.2-1.7,1L187.8,122.6z"/>
	</g>
	<g>
		<path fill="#231F20" d="M124.9,135.2v-12.1c0-2.3-1.9-4.2-4.2-4.2h-0.3c-2.3,0-4.2,1.9-4.2,4.2v12.1H124.9z"/>
		<circle fill="#231F20" cx="120.8" cy="115.8" r="3.5"/>
		<path fill="#231F20" d="M118.7,122.2c0.2,0.8-0.1,1.6-0.8,1.8l0,0c-0.7,0.2-1.4-0.2-1.7-1l-3.5-11.1c-0.2-0.8,0.1-1.6,0.8-1.8l0,0
			c0.7-0.2,1.4,0.2,1.7,1L118.7,122.2z"/>
		<path fill="#231F20" d="M122.6,122.2c-0.2,0.8,0.1,1.6,0.8,1.8l0,0c0.7,0.2,1.4-0.2,1.7-1l3.5-11.1c0.2-0.8-0.1-1.6-0.8-1.8l0,0
			c-0.7-0.2-1.4,0.2-1.7,1L122.6,122.2z"/>
	</g>
</g>
</svg>
