<?xml version="1.0" encoding="utf-8"?>
<!-- Generator: Adobe Illustrator 18.1.0, SVG Export Plug-In . SVG Version: 6.00 Build 0)  -->
<!DOCTYPE svg PUBLIC "-//W3C//DTD SVG 1.1//EN" "http://www.w3.org/Graphics/SVG/1.1/DTD/svg11.dtd">
<svg version="1.1" id="Layer_1" xmlns="http://www.w3.org/2000/svg" xmlns:xlink="http://www.w3.org/1999/xlink" x="0px" y="0px"
	 viewBox="0 0 362 199" enable-background="new 0 0 362 199" xml:space="preserve">
<ellipse fill="#3C2415" cx="58.6" cy="132.7" rx="15.7" ry="3.8"/>
<ellipse fill="#3C2415" cx="315" cy="131.1" rx="14.4" ry="1.6"/>
<ellipse fill="#754C29" cx="271.7" cy="130.1" rx="9.9" ry="2.6"/>
<path fill="#603913" d="M339.4,118H10.9c0,0-21.7,11.5-3.1,17.2c18.6,5.8,27.3,3.4,17.9,7.3c-2.4,1-5,2.2-7.1,3.6h40.5
	c-0.8-0.4-1.3-0.9-1.3-1.4c0-1.5,4.4-2.8,9.8-2.8s9.8,1.2,9.8,2.8c0,0.5-0.5,1-1.3,1.4h32.8c-13.1-2.1-21.1-4.8-21.1-7.7
	c0-6.5,38.5-11.8,86-11.8s86,5.3,86,11.8c0,3-8,5.7-21.1,7.7h36.8c-4.3-1-7.1-2.5-7.1-4.2c0-3.1,9.4-5.6,21-5.6
	c11.6,0,21,2.5,21,5.6c0,1.7-2.7,3.1-7.1,4.2h38.2c-2.3-1.1-7.3-2-15.5-2.8c0,0-5.9-2.8,10-3.4c15.9-0.6,30.9-5,15.2-6.4
	C351.2,133.6,381.8,126.6,339.4,118z"/>
<path fill="#754C29" d="M77.3,144.8c0-1.5-4.4-2.8-9.8-2.8s-9.8,1.2-9.8,2.8c0,0.5,0.5,1,1.3,1.4h17.1
	C76.9,145.8,77.3,145.3,77.3,144.8z"/>
<path fill="#603913" d="M53.9,180.2c0,0-46.8,12.8,37.8,17.5c84.6,4.7,29.4-10.6,29.4-10.6s71.1,0.6,25.4-7.8c0,0,14.9-2.8,28.3,1.9
	c13.4,4.7,10.3,17.4,46,13.4c35.7-4,6.5-10.8-5.3-10.7c0,0,12.5-3.9,35.6,0.4c23.1,4.3,63.2-2.2,30.9-4.7c0,0,12.5-0.1,23.9-1.4
	H35.7C40,179.2,45.9,179.9,53.9,180.2z"/>
<path fill="#3C2415" d="M310.3,142c0-3.1-9.4-5.6-21-5.6c-11.6,0-21,2.5-21,5.6c0,1.7,2.7,3.1,7.1,4.2h27.9
	C307.6,145.2,310.3,143.7,310.3,142z"/>
<ellipse fill="#754C29" cx="211.7" cy="189.9" rx="11.5" ry="2.8"/>
<g>
	<polygon fill="#C1BD98" points="180.3,27.2 289.8,27.2 285.6,22.9 180.3,-0.2 	"/>
	<rect x="180.3" y="27.2" fill="#231F20" width="109.5" height="14"/>
	<rect x="180.3" y="44.6" fill="#414042" width="108.7" height="78.8"/>
	<rect x="284.9" y="7.1" fill="#939598" width="8.9" height="116.3"/>
	<rect x="284.9" y="20.4" fill="#939598" width="66.9" height="5.8"/>
	<rect x="344.9" y="5.4" fill="#939598" width="6.9" height="119.7"/>
	<rect x="180.3" y="106.8" fill="#C1BD98" width="104.6" height="16.6"/>
	<rect x="292.2" y="27.9" fill="#939598" width="53.4" height="1.1"/>
	<rect x="294.7" y="30.5" fill="#B6FFDA" width="49.2" height="92.9"/>
	<circle fill="#FFFFE1" cx="183.3" cy="4" r="2.4"/>
	<circle fill="#F6D070" cx="189" cy="5.4" r="2.4"/>
	<circle fill="#A7EEC9" cx="194.3" cy="6.4" r="2.4"/>
	<circle fill="#E24B6E" cx="199.6" cy="7.3" r="2.4"/>
	<circle fill="#FFFFE1" cx="205.6" cy="8.7" r="2.4"/>
	<circle fill="#F6D070" cx="211.4" cy="10.1" r="2.4"/>
	<circle fill="#A7EEC9" cx="216.6" cy="11.1" r="2.4"/>
	<circle fill="#E24B6E" cx="221.9" cy="12" r="2.4"/>
	<circle fill="#FFFFE1" cx="226.9" cy="13.4" r="2.4"/>
	<circle fill="#F6D070" cx="232.6" cy="14.8" r="2.4"/>
	<circle fill="#A7EEC9" cx="237.9" cy="15.8" r="2.4"/>
	<circle fill="#E24B6E" cx="243.2" cy="16.8" r="2.4"/>
	<circle fill="#FFFFE1" cx="248.4" cy="17.9" r="2.4"/>
	<circle fill="#F6D070" cx="254.2" cy="19.3" r="2.4"/>
	<circle fill="#A7EEC9" cx="259.4" cy="20.3" r="2.4"/>
	<circle fill="#E24B6E" cx="264.7" cy="21.3" r="2.4"/>
	<circle fill="#FFFFE1" cx="270.7" cy="22.2" r="2.4"/>
	<circle fill="#F6D070" cx="276.4" cy="23.5" r="2.4"/>
	<circle fill="#A7EEC9" cx="281.7" cy="24.6" r="2.4"/>
	<circle fill="#91DBB3" cx="320.6" cy="70.6" r="23.8"/>
	<circle fill="#FFFFE1" cx="300.1" cy="37.6" r="2.4"/>
	<circle fill="#F6D070" cx="306.1" cy="37.6" r="2.4"/>
	<circle fill="#A7EEC9" cx="311.3" cy="37.6" r="2.4"/>
	<circle fill="#E24B6E" cx="316.6" cy="37.6" r="2.4"/>
	<circle fill="#FFFFE1" cx="323.2" cy="37.6" r="2.4"/>
	<circle fill="#F6D070" cx="328.9" cy="37.6" r="2.4"/>
	<circle fill="#A7EEC9" cx="334.2" cy="37.6" r="2.4"/>
	<circle fill="#E24B6E" cx="339.5" cy="37.6" r="2.4"/>
	<circle fill="#FFFFE1" cx="338.9" cy="43.5" r="2.4"/>
	<circle fill="#F6D070" cx="333.2" cy="43.5" r="2.4"/>
	<circle fill="#A7EEC9" cx="327.9" cy="43.5" r="2.4"/>
	<circle fill="#E24B6E" cx="322.6" cy="43.5" r="2.4"/>
	<circle fill="#FFFFE1" cx="316.1" cy="43.5" r="2.4"/>
	<circle fill="#F6D070" cx="310.3" cy="43.5" r="2.4"/>
	<circle fill="#A7EEC9" cx="305.1" cy="43.5" r="2.4"/>
	<circle fill="#E24B6E" cx="300.1" cy="43.5" r="2.4"/>
	<circle fill="#FFFFE1" cx="300.5" cy="112.1" r="2.4"/>
	<circle fill="#F6D070" cx="306.5" cy="112.1" r="2.4"/>
	<circle fill="#A7EEC9" cx="311.8" cy="112.1" r="2.4"/>
	<circle fill="#E24B6E" cx="317.1" cy="112.1" r="2.4"/>
	<circle fill="#FFFFE1" cx="323.7" cy="112.1" r="2.4"/>
	<circle fill="#F6D070" cx="329.4" cy="112.1" r="2.4"/>
	<circle fill="#A7EEC9" cx="334.6" cy="112.1" r="2.4"/>
	<circle fill="#E24B6E" cx="340" cy="112.1" r="2.4"/>
	<circle fill="#FFFFE1" cx="339.4" cy="118" r="2.4"/>
	<circle fill="#F6D070" cx="333.7" cy="118" r="2.4"/>
	<circle fill="#A7EEC9" cx="328.4" cy="118" r="2.4"/>
	<circle fill="#E24B6E" cx="323.1" cy="118" r="2.4"/>
	<circle fill="#FFFFE1" cx="316.5" cy="118" r="2.4"/>
	<circle fill="#F6D070" cx="310.8" cy="118" r="2.4"/>
	<circle fill="#A7EEC9" cx="305.6" cy="118" r="2.4"/>
	<circle fill="#E24B6E" cx="300.5" cy="118" r="2.4"/>
	<rect x="180.3" y="38.3" fill="#BCBEC0" width="62.1" height="6.3"/>
	<g>
		<polygon fill="#C1BD98" points="181.1,27.2 71.5,27.2 75.8,22.9 181.1,-0.2 		"/>
		<rect x="71.5" y="27.2" fill="#231F20" width="109.5" height="14"/>
		<rect x="72.4" y="44.6" fill="#414042" width="108.7" height="78.8"/>
		<rect x="67.6" y="7.1" fill="#939598" width="8.9" height="116.3"/>
		<rect x="9.5" y="20.4" fill="#939598" width="66.9" height="5.8"/>
		<rect x="9.5" y="5.5" fill="#939598" width="6.9" height="119.7"/>
		<rect x="76.5" y="106.8" fill="#C1BD98" width="104.6" height="16.6"/>
		<rect x="15.7" y="28" fill="#939598" width="53.4" height="1.1"/>
		<rect x="17.4" y="30.5" fill="#B6FFDA" width="49.2" height="92.9"/>
		<circle fill="#FFFFE1" cx="178.1" cy="4" r="2.4"/>
		<circle fill="#F6D070" cx="172.3" cy="5.4" r="2.4"/>
		<circle fill="#A7EEC9" cx="167.1" cy="6.4" r="2.4"/>
		<circle fill="#E24B6E" cx="161.8" cy="7.4" r="2.4"/>
		<circle fill="#FFFFE1" cx="155.7" cy="8.7" r="2.4"/>
		<circle fill="#F6D070" cx="150" cy="10.1" r="2.4"/>
		<circle fill="#A7EEC9" cx="144.7" cy="11.1" r="2.4"/>
		<circle fill="#E24B6E" cx="139.4" cy="12.1" r="2.4"/>
		<circle fill="#FFFFE1" cx="134.4" cy="13.5" r="2.4"/>
		<circle fill="#F6D070" cx="128.7" cy="14.8" r="2.4"/>
		<circle fill="#A7EEC9" cx="123.5" cy="15.8" r="2.4"/>
		<circle fill="#E24B6E" cx="118.1" cy="16.8" r="2.4"/>
		<circle fill="#FFFFE1" cx="112.9" cy="18" r="2.4"/>
		<circle fill="#F6D070" cx="107.2" cy="19.3" r="2.4"/>
		<circle fill="#A7EEC9" cx="101.9" cy="20.3" r="2.4"/>
		<circle fill="#E24B6E" cx="96.6" cy="21.3" r="2.4"/>
		<circle fill="#FFFFE1" cx="90.7" cy="22.2" r="2.4"/>
		<circle fill="#F6D070" cx="85" cy="23.6" r="2.4"/>
		<circle fill="#A7EEC9" cx="79.7" cy="24.6" r="2.4"/>
		<circle fill="#91DBB3" cx="40.7" cy="70.6" r="23.8"/>
		<circle fill="#FFFFE1" cx="61.3" cy="37.6" r="2.4"/>
		<circle fill="#F6D070" cx="55.3" cy="37.6" r="2.4"/>
		<circle fill="#A7EEC9" cx="50" cy="37.6" r="2.4"/>
		<circle fill="#E24B6E" cx="44.7" cy="37.6" r="2.4"/>
		<circle fill="#FFFFE1" cx="38.2" cy="37.6" r="2.4"/>
		<circle fill="#F6D070" cx="32.5" cy="37.6" r="2.4"/>
		<circle fill="#A7EEC9" cx="27.2" cy="37.6" r="2.4"/>
		<circle fill="#E24B6E" cx="21.9" cy="37.6" r="2.4"/>
		<circle fill="#FFFFE1" cx="22.5" cy="43.5" r="2.4"/>
		<circle fill="#F6D070" cx="28.2" cy="43.5" r="2.4"/>
		<circle fill="#A7EEC9" cx="33.5" cy="43.5" r="2.4"/>
		<circle fill="#E24B6E" cx="38.8" cy="43.5" r="2.4"/>
		<circle fill="#FFFFE1" cx="45.3" cy="43.5" r="2.4"/>
		<circle fill="#F6D070" cx="51" cy="43.5" r="2.4"/>
		<circle fill="#A7EEC9" cx="56.3" cy="43.5" r="2.4"/>
		<circle fill="#E24B6E" cx="61.3" cy="43.5" r="2.4"/>
		<circle fill="#FFFFE1" cx="60.8" cy="112.1" r="2.4"/>
		<circle fill="#F6D070" cx="54.8" cy="112.1" r="2.4"/>
		<circle fill="#A7EEC9" cx="49.6" cy="112.1" r="2.4"/>
		<circle fill="#E24B6E" cx="44.3" cy="112.1" r="2.4"/>
		<circle fill="#FFFFE1" cx="37.7" cy="112.1" r="2.4"/>
		<circle fill="#F6D070" cx="32" cy="112.1" r="2.4"/>
		<circle fill="#A7EEC9" cx="26.7" cy="112.1" r="2.4"/>
		<circle fill="#E24B6E" cx="21.4" cy="112.1" r="2.4"/>
		<circle fill="#FFFFE1" cx="22" cy="118.1" r="2.4"/>
		<circle fill="#F6D070" cx="27.7" cy="118.1" r="2.4"/>
		<circle fill="#A7EEC9" cx="33" cy="118.1" r="2.4"/>
		<circle fill="#E24B6E" cx="38.3" cy="118.1" r="2.4"/>
		<circle fill="#FFFFE1" cx="44.8" cy="118.1" r="2.4"/>
		<circle fill="#F6D070" cx="50.5" cy="118.1" r="2.4"/>
		<circle fill="#A7EEC9" cx="55.8" cy="118.1" r="2.4"/>
		<circle fill="#E24B6E" cx="60.8" cy="118.1" r="2.4"/>
		<rect x="118.9" y="38.4" fill="#BCBEC0" width="62.1" height="6.3"/>
	</g>
	<rect x="170.9" y="38.3" fill="#BCBEC0" width="34.3" height="6.3"/>
	<rect x="157.1" y="106.8" fill="#C1BD98" width="54.3" height="16.6"/>
</g>
<polygon opacity="0.35" fill="#231F20" points="351.8,20.4 284.9,20.4 284.9,72.4 "/>
<polygon opacity="0.35" fill="#231F20" points="75.9,20.8 9,20.8 9,72.8 "/>
<polygon opacity="0.35" fill="#231F20" points="217.3,106.8 284.3,106.8 284.3,54.8 "/>
<polygon opacity="0.35" fill="#231F20" points="143,44.6 76.1,44.6 76.1,96.6 "/>
<path fill="#3C2415" d="M259.7,138.5c0-6.5-38.5-11.8-86-11.8s-86,5.3-86,11.8c0,3,8,5.7,21.1,7.7h129.8
	C251.7,144.1,259.7,141.4,259.7,138.5z"/>
<ellipse fill="#754C29" cx="121.2" cy="134.9" rx="8.4" ry="2.2"/>
<ellipse fill="#603913" cx="150.2" cy="144.2" rx="9.6" ry="2.2"/>
<ellipse fill="#603913" cx="186.4" cy="134.9" rx="7.5" ry="2.2"/>
<ellipse fill="#754C29" cx="218.5" cy="144.2" rx="11.2" ry="2.2"/>
<g>
	<path fill="#231F20" d="M221.6,144.2v-12.1c0-2.3-1.9-4.2-4.2-4.2h-0.3c-2.3,0-4.2,1.9-4.2,4.2v12.1H221.6z"/>
	<circle fill="#231F20" cx="217.4" cy="124.8" r="3.5"/>
	<path fill="#231F20" d="M215.4,131.2c0.2,0.8-0.1,1.6-0.8,1.8l0,0c-0.7,0.2-1.4-0.2-1.7-1l-3.5-11.1c-0.2-0.8,0.1-1.6,0.8-1.8l0,0
		c0.7-0.2,1.4,0.2,1.7,1L215.4,131.2z"/>
	<path fill="#231F20" d="M219.2,131.2c-0.2,0.8,0.1,1.6,0.8,1.8l0,0c0.7,0.2,1.4-0.2,1.7-1l3.5-11.1c0.2-0.8-0.1-1.6-0.8-1.8l0,0
		c-0.7-0.2-1.4,0.2-1.7,1L219.2,131.2z"/>
</g>
<g>
	<path fill="#231F20" d="M154.2,145.2v-12.1c0-2.3-1.9-4.2-4.2-4.2h-0.3c-2.3,0-4.2,1.9-4.2,4.2v12.1H154.2z"/>
	<circle fill="#231F20" cx="150.1" cy="125.8" r="3.5"/>
	<path fill="#231F20" d="M148.1,132.3c0.2,0.8-0.1,1.6-0.8,1.8l0,0c-0.7,0.2-1.4-0.2-1.7-1l-3.5-11.1c-0.2-0.8,0.1-1.6,0.8-1.8l0,0
		c0.7-0.2,1.4,0.2,1.7,1L148.1,132.3z"/>
	<path fill="#231F20" d="M151.9,132.3c-0.2,0.8,0.1,1.6,0.8,1.8l0,0c0.7,0.2,1.4-0.2,1.7-1l3.5-11.1c0.2-0.8-0.1-1.6-0.8-1.8l0,0
		c-0.7-0.2-1.4,0.2-1.7,1L151.9,132.3z"/>
</g>
<g>
	<path fill="#231F20" d="M190.2,135.3v-12.1c0-2.3-1.9-4.2-4.2-4.2h-0.3c-2.3,0-4.2,1.9-4.2,4.2v12.1H190.2z"/>
	<circle fill="#231F20" cx="186.1" cy="115.9" r="3.5"/>
	<path fill="#231F20" d="M184,122.3c0.2,0.8-0.1,1.6-0.8,1.8l0,0c-0.7,0.2-1.4-0.2-1.7-1l-3.5-11.1c-0.2-0.8,0.1-1.6,0.8-1.8l0,0
		c0.7-0.2,1.4,0.2,1.7,1L184,122.3z"/>
	<path fill="#231F20" d="M187.9,122.3c-0.2,0.8,0.1,1.6,0.8,1.8l0,0c0.7,0.2,1.4-0.2,1.7-1l3.5-11.1c0.2-0.8-0.1-1.6-0.8-1.8l0,0
		c-0.7-0.2-1.4,0.2-1.7,1L187.9,122.3z"/>
</g>
<g>
	<path fill="#231F20" d="M125,134.9v-12.1c0-2.3-1.9-4.2-4.2-4.2h-0.3c-2.3,0-4.2,1.9-4.2,4.2v12.1H125z"/>
	<circle fill="#231F20" cx="120.9" cy="115.5" r="3.5"/>
	<path fill="#231F20" d="M118.9,121.9c0.2,0.8-0.1,1.6-0.8,1.8l0,0c-0.7,0.2-1.4-0.2-1.7-1l-3.5-11.1c-0.2-0.8,0.1-1.6,0.8-1.8l0,0
		c0.7-0.2,1.4,0.2,1.7,1L118.9,121.9z"/>
	<path fill="#231F20" d="M122.7,121.9c-0.2,0.8,0.1,1.6,0.8,1.8l0,0c0.7,0.2,1.4-0.2,1.7-1l3.5-11.1c0.2-0.8-0.1-1.6-0.8-1.8l0,0
		c-0.7-0.2-1.4,0.2-1.7,1L122.7,121.9z"/>
</g>
</svg>
