<?xml version="1.0" encoding="utf-8"?>
<!-- Generator: Adobe Illustrator 18.1.0, SVG Export Plug-In . SVG Version: 6.00 Build 0)  -->
<!DOCTYPE svg PUBLIC "-//W3C//DTD SVG 1.1//EN" "http://www.w3.org/Graphics/SVG/1.1/DTD/svg11.dtd">
<svg version="1.1" id="Layer_1" xmlns="http://www.w3.org/2000/svg" xmlns:xlink="http://www.w3.org/1999/xlink" x="0px" y="0px"
	 viewBox="0 0 480.8 617.2" enable-background="new 0 0 480.8 617.2" xml:space="preserve">
<g>
	<g>
		<polygon fill="#3C2417" points="311.4,444.7 336.7,452 336.7,467 347.3,469.9 361.9,617.1 131.5,617.1 147,470.6 156.9,468.1 
			156.7,454.7 179,444.7 		"/>
	</g>
	<g>
		<path fill="#E6E6E6" d="M268.2,74.6l-3.3-59.3c0,0-5.6-13.1-18.5-13.1c-12.9,0-19.1,9.6-21.6,29.3c-2.5,19.7-3.6,40.6-3.6,40.6
			L268.2,74.6z"/>
	</g>
	<g>
		<path fill="#E6E6E6" d="M65.7,82.2h70.2l11.3-4l94-7.9l74.1,11.9l102.2,3.1c0,0-6.2,48.5-23.8,53.8l-89.2,19l13.7,124l-6.6,14.1
			l2.2,51.2l-7.1,4l-6.6-34.4l-111.7-39.3l-4-54.7H177l2.2-66.6l-39.3-15l-42.4-2.2C97.5,139.1,64.9,109.1,65.7,82.2z"/>
	</g>
	<g>
		<path fill="#BCBDBF" d="M243.9,70.7l12.5-16.5l-6.3,1.5l-5-3.1l-1.3,2.6L233,40.5l2.2-5.7l-2.2-8.6l3.5-4.4l5.1,3.8v7.3l-4.2,6
			l2.2,2.2l7.9-2.2l3.3,2.9l-5.3-7.5l2.9-0.9l-1.1-4.6l-2.6-0.4v-9.7l-4.4-3.3l-7.3,0.7V7.4c0,0-5.7,3.1-7.5,17.9s-6,46.8-6,46.8
			l18.4-1.6L243.9,70.7z"/>
	</g>
	<g>
		<path fill="#BCBDBF" d="M179,156.3l2.6-39.3l5.1,43.7l-2.9-43.7l11.7,5.5l9.7,1.1l64-3.5l-58.7-0.7l-71.7-34.2l37.3,39.3v9.5
			L85.7,94.3l45.5,29.8l2.6,8.4l-34,3.3l-1.8-7.7L65.6,86.6c0,0,0.3,26.4,32,52.5l42.2,2.2l39.2,16.1"/>
	</g>
	<g>
		<path fill="#BCBDBF" d="M304.5,158.1v-15.2l52.7-13.7l34.4-2.9c0,0-4.2,9.7,2,12.8L304.5,158.1z"/>
	</g>
	<g>
		<path fill="#BCBDBF" d="M177.5,207.3c0,0,39.2,0.9,29.3,16.8c-9.9,15.9-13.8,29.6-13.8,29.6v20.3l86,35.6l-90.5-31.8l-4-54.7H177
			L177.5,207.3z"/>
	</g>
	<g>
		<path fill="#BCBDBF" d="M269.4,78.2c1.2,2,0,194.6,0,194.6l7.5,8.3v27.6l2-27.3l39.2,0.7l-39.2-6.3l-3.7-4.3L269.4,78.2z"/>
	</g>
	<g>
		<path fill="#BCBDBF" d="M248.3,17.3v6l12.1,3C260.4,26.2,258.1,13.2,248.3,17.3z"/>
	</g>
	<g>
		<polygon fill="#BCBDBF" points="264.8,74.1 263,30.4 259.2,54 257.9,73 		"/>
	</g>
	<g>
		<path fill="#E6E6E6" d="M458.3,75.8v2.4h16.6l5.3,4l-10.9,9.3l-54.4,8.5l2.4-13.1l4.6-1.6c0,0,15-7.3,15.7-7.9s20.3-3.3,20.3-3.3
			L458.3,75.8z"/>
	</g>
	<g>
		<path fill="#BCBDBF" d="M412.3,110.1l8.1-6.3l24.5-2.6l27.1-6.6l8.2-12.4l-11.9,9.4l-53,7.4C415.3,99,406.1,101.1,412.3,110.1z"/>
	</g>
	<g>
		<polygon fill="#BCBDBF" points="462.5,78.2 452.4,83.3 439.8,82.2 458.1,75 458.3,78.2 		"/>
	</g>
	<g>
		<polygon fill="#E6E6E6" points="65.7,85.3 59.1,84.2 44.8,75.3 20.7,74.1 24,82 5.5,79.7 0.6,85.3 34.6,97.4 68.2,99.4 		"/>
	</g>
	<g>
		<polygon fill="#BCBDBF" points="67.1,95.2 55.4,92.3 32.9,92.3 0.6,85.3 27.6,97.8 63.1,101.8 69.8,103.6 		"/>
	</g>
	<g>
		<polygon fill="#BCBDBF" points="24,82 40.2,82 21.6,76.2 		"/>
	</g>
	<g>
		<polygon fill="#E6E6E6" points="192.4,276.6 180.9,448.1 309.8,445.4 305.8,346.7 299.2,316.6 		"/>
	</g>
	<g>
		<polygon fill="#BCBDBF" points="306.1,354 313.8,347.4 300.1,317 214.2,286.7 294.8,325.1 		"/>
	</g>
	<g>
		<polygon fill="#BCBDBF" points="234.8,296.6 237.9,439.9 241.6,296.8 		"/>
	</g>
	<g>
		<polygon fill="#BCBDBF" points="221.5,289.2 222.4,434.8 226.7,291.2 		"/>
	</g>
	<g>
		<polygon fill="#BCBDBF" points="205.4,283.7 203.9,437 211.8,283.7 		"/>
	</g>
	<g>
		<polygon fill="#BCBDBF" points="256.8,307 264,439 263,308.7 		"/>
	</g>
	<g>
		<polygon fill="#BCBDBF" points="277.8,315.4 286,439 284.4,317.9 		"/>
	</g>
	<g>
		<path fill="#FFFFFF" d="M69.8,84.4c1.2,0,61.9,0,61.9,0l27.6,28.7l-39.7-24.5L109,89l41.9,28L94.7,89L69.8,84.4z"/>
	</g>
	<g>
		<polygon fill="#FFFFFF" points="303.4,83.3 346.7,87 411.5,87 350,95.2 318.2,119.5 342.7,94.5 		"/>
	</g>
	<g>
		<polygon fill="#FFFFFF" points="241.6,44.9 244.7,50.2 250.5,52.2 254.3,46.2 245.6,42.9 		"/>
	</g>
	<g>
		<path fill="#FFFFFF" d="M250.7,14c0,0,6.2,0.9,9.7,5.1c0,0,0-12.1-10.6-14.6L250.7,14z"/>
	</g>
	<g>
		<path fill="#FFFFFF" d="M281.9,272.2c1-0.2,22.8,3.1,22.8,3.1l-16.6-117.2L281.9,272.2z"/>
	</g>
	<g>
		<polygon fill="#FFFFFF" points="205.7,166 224.1,275.3 254.9,287.8 214.2,180.4 259.7,266.2 260.8,245.7 212.7,172.9 265.5,225.6 
			264,193.5 		"/>
	</g>
	<g>
		<rect x="179" y="444.7" fill="#5F3A16" width="133.3" height="16.6"/>
	</g>
	<g>
		<polygon fill="#5F3A16" points="175.4,461.3 317.5,461.3 327.4,617.1 166.6,617.1 		"/>
	</g>
</g>
</svg>
