<?xml version="1.0" encoding="utf-8"?>
<!-- Generator: Adobe Illustrator 18.1.0, SVG Export Plug-In . SVG Version: 6.00 Build 0)  -->
<!DOCTYPE svg PUBLIC "-//W3C//DTD SVG 1.1//EN" "http://www.w3.org/Graphics/SVG/1.1/DTD/svg11.dtd">
<svg version="1.1" xmlns="http://www.w3.org/2000/svg" xmlns:xlink="http://www.w3.org/1999/xlink" x="0px" y="0px"
	 viewBox="0 0 520 389" enable-background="new 0 0 520 389" xml:space="preserve">
<g id="Layer_1">
	<g>
		<rect x="165.9" y="81.6" fill="#ECC7A5" width="226" height="302"/>
		<path fill="#9E5C26" d="M388.9,84.6v296h-220v-296L388.9,84.6 M394.9,78.6h-232v308h232V78.6L394.9,78.6z"/>
	</g>
	<rect x="162.9" y="386.6" fill="#382216" width="232" height="2"/>
	
		<linearGradient id="SVGID_1_" gradientUnits="userSpaceOnUse" x1="892.8067" y1="-1152.3209" x2="892.8067" y2="-1357.073" gradientTransform="matrix(0.9683 -0.2499 -0.2499 -0.9683 -1082.6326 -930.1027)">
		<stop  offset="0" style="stop-color:#FFFFFF"/>
		<stop  offset="1" style="stop-color:#FFFFFF;stop-opacity:0"/>
	</linearGradient>
	<path fill="url(#SVGID_1_)" d="M201.6,167.1c25.1,97.5,12.4,185-28.5,195.6S78.6,302.8,53.5,205.3S41.1,20.3,82,9.7
		S176.5,69.6,201.6,167.1z"/>
	
		<linearGradient id="SVGID_2_" gradientUnits="userSpaceOnUse" x1="-1001.079" y1="2091.3345" x2="-1001.079" y2="1886.5824" gradientTransform="matrix(0.959 0.2834 0.2834 -0.959 862.6792 2258.9722)">
		<stop  offset="0" style="stop-color:#FFFFFF"/>
		<stop  offset="1" style="stop-color:#FFFFFF;stop-opacity:0"/>
	</linearGradient>
	<path fill="url(#SVGID_2_)" d="M503.2,212.9c-28.5,96.5-84.5,165.1-125,153.1s-50.2-99.9-21.7-196.4S441,4.5,481.5,16.4
		S531.8,116.4,503.2,212.9z"/>
	
		<linearGradient id="SVGID_3_" gradientUnits="userSpaceOnUse" x1="-1236.4919" y1="2261.3613" x2="-1236.4919" y2="2056.6091" gradientTransform="matrix(0.9495 0.3139 0.3139 -0.9495 907.8294 2490.6306)">
		<stop  offset="0" style="stop-color:#FFFFFF"/>
		<stop  offset="1" style="stop-color:#FFFFFF;stop-opacity:0"/>
	</linearGradient>
	<path fill="url(#SVGID_3_)" d="M443.7,198.7c-31.6,95.6-89.7,162.3-129.8,149s-47-101.5-15.4-197s89.7-162.3,129.8-149
		S475.3,103.2,443.7,198.7z"/>
	
		<linearGradient id="SVGID_4_" gradientUnits="userSpaceOnUse" x1="1299.9586" y1="-2828.0581" x2="1299.9586" y2="-3032.8103" gradientTransform="matrix(0.8933 -0.4494 -0.4494 -0.8933 -2332.4312 -1981.8296)">
		<stop  offset="0" style="stop-color:#FFFFFF"/>
		<stop  offset="1" style="stop-color:#FFFFFF;stop-opacity:0"/>
	</linearGradient>
	<path fill="url(#SVGID_4_)" d="M271.9,132.3c45.2,89.9,51.3,178.2,13.6,197.2s-105-38.5-150.2-128.4S83.9,22.9,121.6,3.9
		S226.7,42.4,271.9,132.3z"/>
	<g>
		<path fill="#2B3990" d="M230.3,223v98.3h97V223l8.7,15.3l31.3-17.7L341,162.3c0,0-23-12-43.7-18c0,0-3.7,10.3-18.3,10.3
			s-18.3-10.3-18.3-10.3s-27.7,8.3-43.7,19l-25,57l31,19.3L230.3,223z"/>
		<polyline fill="#E01226" points="223,239.2 226,232.4 194.5,214.1 192,219.9 223,239.2 		"/>
		<polyline fill="#E01226" points="332.9,232.6 336,238.1 367.3,220.5 365,215.2 332.9,232.6 		"/>
		<path fill="#23327C" d="M260.7,144.3c0,0,4,10.3,19,10.3c0,0,13,0,17.7-10.3l7.6,2.4c0,0-6.3,14.4-25.3,14.4s-25.9-14.6-25.9-14.6
			S259.1,144.6,260.7,144.3z"/>
		<path fill="#BE1E2D" d="M217,163.3l11.8,25.4c0,0,0.1-21.7-1.8-31.1C226.9,157.6,218.2,162.3,217,163.3z"/>
		<path fill="#BE1E2D" d="M340.9,162.4l-11.8,25.4c0,0-0.2-21,1.7-30.4C330.9,157.4,339.7,161.3,340.9,162.4z"/>
		<path fill="#FFFFFF" d="M270.6,153.1c0,0,8.3,3.4,16.9,0C287.4,153.1,279.7,172,270.6,153.1z"/>
		<rect x="264.4" y="201" fill="#BE1E2D" width="33" height="43.3"/>
		<circle fill="#FFFFFF" cx="280.9" cy="222.6" r="13"/>
		<rect x="278.1" y="212.6" fill="#2B3990" width="5.5" height="20.1"/>
		<rect x="270.8" y="219.9" fill="#2B3990" width="20.1" height="5.5"/>
		<circle fill="#0E2156" cx="306.2" cy="184.9" r="9.8"/>
		<circle fill="#FFFFFF" cx="306.2" cy="184.9" r="7.5"/>
		<rect x="302.5" y="179.7" fill="#BE1E2D" width="7.4" height="10.5"/>
		<circle fill="#FFFFFF" cx="306.2" cy="184.9" r="2.6"/>
		<path opacity="0.2" fill="#231F20" d="M279,154.6c-14.7,0-18.3-10.3-18.3-10.3s-27.7,8.3-43.7,19l-25,57l31,19.3l7.3-16.7v98.3
			h49.3"/>
	</g>
	<g opacity="0.24">
		
			<linearGradient id="SVGID_5_" gradientUnits="userSpaceOnUse" x1="162.9" y1="161.4" x2="394.9" y2="161.4" gradientTransform="matrix(1 0 0 -1 0 389)">
			<stop  offset="0" style="stop-color:#FFFFFF"/>
			<stop  offset="1" style="stop-color:#FFFFFF;stop-opacity:0"/>
		</linearGradient>
		<polygon fill="url(#SVGID_5_)" points="162.9,376.6 162.9,78.6 394.9,78.6 		"/>
	</g>
	<g>
		<polygon fill="#C98C02" points="59.5,366.8 57.8,372.1 72.1,375.4 95.5,374 102.3,372.4 100.6,366.8 88.1,372.7 		"/>
		<ellipse fill="#C98C02" cx="80" cy="372.7" rx="22.3" ry="5.9"/>
		<path fill="#1E1E1E" d="M47.7,250.9l8.4,6.7c0,0,12.9,27.7,16.6,64.2c0,0-0.7-33.3-12.5-61.2c0,0,24.6,17.3,65.1,22.4
			c0,0-18.8,28.4-23.9,51.7c0,0,7.8-26.3,27.2-51.3l5.8,0.7c0,0-38,45-37,81.2l-8.9-1.9L71,348.3C71,348.3,71.4,295.7,47.7,250.9z"
			/>
		<circle fill="#D69E00" cx="92.2" cy="297.2" r="18.5"/>
		<path opacity="8.000000e-02" fill="#00101F" d="M92.2,278.7c10.2,0,18.5,8.3,18.5,18.5c0,10.2-8.3,18.5-18.5,18.5"/>
		<path fill="#D19F00" d="M59.6,365.9"/>
		<ellipse fill="#CE9402" cx="80" cy="366.8" rx="20.6" ry="5.9"/>
		<path fill="#D69E00" d="M90.9,317.7c0,0,5.6,0.2,9.3-1.3c0,0-16,20.9-6.7,51.2c0,0-8.8,3.7-26.7,0
			C66.8,367.5,70.2,331.8,90.9,317.7z"/>
		<path opacity="8.000000e-02" fill="#00101F" d="M93.5,367.5c0,0-3.4,1.4-10.3,1.6c0,0-0.8-27.2,11.3-51.6c0,0,3.7-0.3,5.7-1.2
			C100.1,316.4,84.3,337.8,93.5,367.5z"/>
	</g>
	<g>
		
			<linearGradient id="SVGID_6_" gradientUnits="userSpaceOnUse" x1="-14848.9521" y1="-5654.2954" x2="-14848.9521" y2="-5762.7266" gradientTransform="matrix(-0.8009 0.256 0.3045 0.9525 -10089.7432 9599.0723)">
			<stop  offset="0" style="stop-color:#FFFFFF"/>
			<stop  offset="1" style="stop-color:#FFFFFF;stop-opacity:0"/>
		</linearGradient>
		<path fill="url(#SVGID_6_)" d="M11.3,305.7c-16.2-50.8-14.9-96.6,3.1-102.3c17.9-5.7,45.6,30.8,61.8,81.6s14.9,96.6-3.1,102.3
			C55.2,393,27.6,356.5,11.3,305.7z"/>
		
			<linearGradient id="SVGID_7_" gradientUnits="userSpaceOnUse" x1="-10857.2646" y1="-10229.9512" x2="-10857.2646" y2="-10338.3828" gradientTransform="matrix(-0.7473 -0.3853 -0.4582 0.8888 -12753.3945 5313.7729)">
			<stop  offset="0" style="stop-color:#FFFFFF"/>
			<stop  offset="1" style="stop-color:#FFFFFF;stop-opacity:0"/>
		</linearGradient>
		<path fill="url(#SVGID_7_)" d="M73.7,279.7c24.4-47.4,57.8-78.8,74.5-70.2s10.5,54-13.9,101.4s-57.8,78.8-74.5,70.2
			S49.3,327.1,73.7,279.7z"/>
	</g>
	<g>
		<rect x="35.7" y="380.5" fill="#9E5C26" width="107.4" height="6.9"/>
		<rect x="35.6" y="386.6" fill="#382216" width="107.5" height="2"/>
		<polygon fill="#7F4921" points="53.1,387.4 35.7,387.4 35.7,380.5 73.1,380.5 		"/>
	</g>
</g>
<g id="Layer_2">
</g>
</svg>
