<?xml version="1.0" encoding="utf-8"?>
<!-- Generator: Adobe Illustrator 18.1.0, SVG Export Plug-In . SVG Version: 6.00 Build 0)  -->
<!DOCTYPE svg PUBLIC "-//W3C//DTD SVG 1.1//EN" "http://www.w3.org/Graphics/SVG/1.1/DTD/svg11.dtd">
<svg version="1.1" id="Layer_1" xmlns="http://www.w3.org/2000/svg" xmlns:xlink="http://www.w3.org/1999/xlink" x="0px" y="0px"
	 viewBox="0 0 70 290" enable-background="new 0 0 70 290" xml:space="preserve">
<linearGradient id="SVGID_1_" gradientUnits="userSpaceOnUse" x1="29.1152" y1="62.6875" x2="29.1152" y2="201.6172">
	<stop  offset="0" style="stop-color:#FFFFFF"/>
	<stop  offset="1" style="stop-color:#FFFFFF;stop-opacity:0"/>
</linearGradient>
<rect x="8.6" y="62.7" fill="url(#SVGID_1_)" width="41" height="138.9"/>
<g>
	<circle opacity="0.2" fill="#FFFFFF" cx="28.7" cy="28.2" r="28"/>
	<circle opacity="0.5" fill="#FFFFFF" cx="28.7" cy="28.2" r="21"/>
	<g>
		<path fill="#7CD1F1" d="M63,51.5c-1.5,0-2.9,0.4-4.1,1.2c-1-2.8-3.8-4.9-7-4.9c-1.5,0-2.9,0.4-4.1,1.2c-1-2.8-3.8-4.9-7-4.9
			c-1.4,0-2.6,0.4-3.7,1V28.9c0-4-3.3-7.2-7.4-7.2c-4,0-7.4,3.3-7.4,7.2v30.4L16.9,54c-2.7-2.7-7.6-2.6-10.3,0.2
			C3.9,56.8,3.8,61,6.2,64.4c1.6,2.3,3.6,6.6,5.7,11.1c5.5,12,11.8,25.6,20.6,25.6h21c0.2,0,0.5,0,0.7-0.1
			c0.7-0.3,16.3-6.7,16.3-22.2V58.7C70.4,54.8,67,51.5,63,51.5z"/>
		<path fill="#FFFFFF" d="M53.4,101.1h-21c-8.8,0-15.1-13.6-20.6-25.6C9.8,71,7.8,66.7,6.2,64.4C3.8,61,3.9,56.8,6.5,54.2
			c2.8-2.8,7.7-2.9,10.3-0.2l5.3,5.4V29c0-3.9,3.4-7.2,7.4-7.2c4.1,0,7.4,3.2,7.4,7.2V45c1.1-0.6,2.4-1,3.7-1c3.2,0,6,2.1,7,4.9
			c1.2-0.8,2.6-1.2,4.1-1.2c3.2,0,6,2.1,7,4.9c1.2-0.8,2.6-1.2,4.1-1.2c4,0,7.4,3.3,7.4,7.2v20.1c0,15.5-15.6,22-16.3,22.2
			C53.9,101.1,53.7,101.1,53.4,101.1z M11.9,55.7c-1,0-2,0.4-2.7,1.1c-1.5,1.5-1,3.9,0.1,5.4c1.8,2.6,3.8,6.8,6,11.7
			c4.5,9.9,10.8,23.4,17.2,23.4H53c2.1-0.9,13.6-6.6,13.6-18.6V58.7c0-1.9-1.7-3.5-3.7-3.5c-2,0-3.7,1.6-3.7,3.4
			c0,1-0.8,1.9-1.9,1.9c-1,0-1.9-0.8-1.9-1.9V55c0-1.9-1.7-3.5-3.7-3.5c-2,0-3.7,1.6-3.7,3.5c0,1-0.8,1.9-1.9,1.9
			c-1,0-1.9-0.8-1.9-1.9v-3.6c0-1.9-1.7-3.5-3.7-3.5c-2,0-3.7,1.6-3.7,3.4c0,1-0.8,1.9-1.9,1.9s-1.9-0.8-1.9-1.9V28.9
			c0-1.9-1.7-3.4-3.7-3.4s-3.7,1.6-3.7,3.5v35c0,0.8-0.5,1.4-1.2,1.7c-0.7,0.3-1.5,0.1-2-0.4l-8.4-8.6
			C13.6,56.1,12.8,55.7,11.9,55.7z"/>
	</g>
</g>
<g opacity="0.3">
	<circle opacity="0.2" fill="#FFFFFF" cx="28.7" cy="216.9" r="28"/>
	<circle opacity="0.5" fill="#FFFFFF" cx="28.7" cy="216.9" r="21"/>
	<g>
		<path fill="#7CD1F1" d="M63,240.3c-1.5,0-2.9,0.4-4.1,1.2c-1-2.8-3.8-4.9-7-4.9c-1.5,0-2.9,0.4-4.1,1.2c-1-2.8-3.8-4.9-7-4.9
			c-1.4,0-2.6,0.4-3.7,1v-16.1c0-4-3.3-7.2-7.4-7.2c-4,0-7.4,3.3-7.4,7.2v30.4l-5.3-5.4c-2.7-2.7-7.6-2.6-10.3,0.2
			c-2.6,2.6-2.7,6.8-0.3,10.2c1.6,2.3,3.6,6.6,5.7,11.1c5.5,12,11.8,25.6,20.6,25.6h21c0.2,0,0.5,0,0.7-0.1
			c0.7-0.3,16.3-6.7,16.3-22.2v-20.1C70.4,243.6,67,240.3,63,240.3z"/>
		<path fill="#FFFFFF" d="M53.4,289.9h-21c-8.8,0-15.1-13.6-20.6-25.6c-2.1-4.5-4.1-8.8-5.7-11.1c-2.4-3.4-2.3-7.6,0.3-10.2
			c2.8-2.8,7.7-2.9,10.3-0.2l5.3,5.4v-30.4c0-3.9,3.4-7.2,7.4-7.2c4.1,0,7.4,3.2,7.4,7.2v16.1c1.1-0.6,2.4-1,3.7-1
			c3.2,0,6,2.1,7,4.9c1.2-0.8,2.6-1.2,4.1-1.2c3.2,0,6,2.1,7,4.9c1.2-0.8,2.6-1.2,4.1-1.2c4,0,7.4,3.3,7.4,7.2v20.1
			c0,15.5-15.6,22-16.3,22.2C53.9,289.9,53.7,289.9,53.4,289.9z M11.9,244.5c-1,0-2,0.4-2.7,1.1c-1.5,1.5-1,3.9,0.1,5.4
			c1.8,2.6,3.8,6.8,6,11.7c4.5,9.9,10.8,23.4,17.2,23.4H53c2.1-0.9,13.6-6.6,13.6-18.6v-20.1c0-1.9-1.7-3.5-3.7-3.5
			c-2,0-3.7,1.6-3.7,3.4c0,1-0.8,1.9-1.9,1.9c-1,0-1.9-0.8-1.9-1.9v-3.6c0-1.9-1.7-3.5-3.7-3.5c-2,0-3.7,1.6-3.7,3.5
			c0,1-0.8,1.9-1.9,1.9c-1,0-1.9-0.8-1.9-1.9v-3.6c0-1.9-1.7-3.5-3.7-3.5c-2,0-3.7,1.6-3.7,3.4c0,1-0.8,1.9-1.9,1.9
			c-1,0-1.9-0.8-1.9-1.9v-22.3c0-1.9-1.7-3.4-3.7-3.4s-3.7,1.6-3.7,3.5v35c0,0.8-0.5,1.4-1.2,1.7c-0.7,0.3-1.5,0.1-2-0.4l-8.4-8.6
			C13.6,244.8,12.8,244.5,11.9,244.5z"/>
	</g>
</g>
</svg>
