<?xml version="1.0" encoding="utf-8"?>
<!-- Generator: Adobe Illustrator 18.1.0, SVG Export Plug-In . SVG Version: 6.00 Build 0)  -->
<!DOCTYPE svg PUBLIC "-//W3C//DTD SVG 1.1//EN" "http://www.w3.org/Graphics/SVG/1.1/DTD/svg11.dtd">
<svg version="1.1" id="Layer_1" xmlns="http://www.w3.org/2000/svg" xmlns:xlink="http://www.w3.org/1999/xlink" x="0px" y="0px"
	 viewBox="0 0 430 636" enable-background="new 0 0 430 636" xml:space="preserve">
<g>
	<rect x="13.5" y="-0.3" fill="#989A9C" width="404" height="636.4"/>
	<polygon opacity="0.23" points="13.5,519.1 13.5,500.4 417.5,500.4 	"/>
	<rect x="0.9" y="50.8" fill="#989A9C" width="429.1" height="14.2"/>
	<rect x="0.9" y="64.2" fill="#666769" width="429.1" height="2.6"/>
	<rect x="0.9" y="484.4" fill="#989A9C" width="429.1" height="14.2"/>
	<rect x="0.9" y="497.9" fill="#666769" width="429.1" height="2.6"/>
	<polygon opacity="0.23" points="13.5,85.8 13.5,67 417.5,67 	"/>
	<rect x="10.2" y="111.3" width="2.7" height="64"/>
	<rect x="10.2" y="197.8" width="2.7" height="64"/>
	<rect x="10.2" y="284.2" width="2.7" height="64"/>
	<rect x="10.2" y="370.7" width="2.7" height="64"/>
	<rect x="417.5" y="111.3" width="2.7" height="64"/>
	<rect x="417.5" y="197.8" width="2.7" height="64"/>
	<rect x="417.5" y="284.2" width="2.7" height="64"/>
	<rect x="417.5" y="370.7" width="2.7" height="64"/>
</g>
</svg>
