<?xml version="1.0" encoding="utf-8"?>
<!-- Generator: Adobe Illustrator 18.1.0, SVG Export Plug-In . SVG Version: 6.00 Build 0)  -->
<!DOCTYPE svg PUBLIC "-//W3C//DTD SVG 1.1//EN" "http://www.w3.org/Graphics/SVG/1.1/DTD/svg11.dtd">
<svg version="1.1" id="Layer_1" xmlns="http://www.w3.org/2000/svg" xmlns:xlink="http://www.w3.org/1999/xlink" x="0px" y="0px"
	 viewBox="0 0 546.5 321" enable-background="new 0 0 546.5 321" xml:space="preserve">
<g>
	<path fill="#FFFFFF" d="M21.1,28.1v7.4h9.2v-6.2h11.6v17.7H2.4V35.5h3.8V13.8H2.5V2.3h39.4v16.4H30.4v-4.8h-9.2v6.1h9.2v8.2H21.1z"
		/>
	<path fill="#FFFFFF" d="M49.6,2.3h22.5v11.6h-3.8v21.7h7.3v-6.2h11.6v17.7H49.6V35.5h3.8V13.8h-3.8V2.3z"/>
	<path fill="#FFFFFF" d="M114.8,18.7V2.3h45.4v16.4h-11.6v-4.8H145v21.7h3.8v11.6h-22.5V35.5h3.8V13.8h-3.7v4.8H114.8z"/>
	<path fill="#FFFFFF" d="M188.9,47.1h-22.7V35.5h3.8V13.8h-3.7V2.3H188c6.2,0,18.9,1.3,18.9,11.6c0,8.9-12.9,9.7-11.8,9.7
		c17-0.5,7.3,13.3,15.5,11.9v11.6c-16.8,2.3-19.7-8.3-19.7-15.4c0-1.8-1.3-3.6-3.9-3.6l-2.2,0.1v7.4h4V47.1z M184.9,13.8v6.1h3.4
		c2.5,0,3.9-1,3.9-3.1c0-1.5-1.3-3-3.9-3H184.9z"/>
	<path fill="#FFFFFF" d="M234.7,28.1v7.4h9.2v-6.2h11.6v17.7H216V35.5h3.8V13.8h-3.7V2.3h39.4v16.4H244v-4.8h-9.2v6.1h9.2v8.2H234.7
		z"/>
	<path fill="#FFFFFF" d="M263.2,2.3h18.1l14.9,25.4V13.8h-3.8V2.3h22.5v11.6h-3.8v21.7h3.7v11.6h-18.3l-14.6-25v13.4h3.7v11.6h-22.4
		V35.5h3.8V13.8h-3.8V2.3z"/>
	<path fill="#FFFFFF" d="M2.7,103.9H7V79.1H2.8V65.9h23c15,0,25.4,10.6,25.4,25.6s-10.4,25.6-25.4,25.6H2.7V103.9z M24.1,79.2v24.7
		c4.6-0.5,10.1-4,10.1-12.4S29,79.6,24.1,79.2z"/>
	<path fill="#FFFFFF" d="M81.3,95.4v8.5h10.6v-7h13.2v20.2H60v-13.2h4.3V79.1h-4.2V65.9h45v18.7H91.9v-5.5H81.3v7h10.6v9.4H81.3z"/>
	<path fill="#FFFFFF" d="M113.9,65.9h25.7v13.2h-4.3v24.8h8.3v-7h13.2v20.2h-42.9v-13.2h4.3V79.1h-4.3V65.9z"/>
	<path fill="#FFFFFF" d="M190.4,65.9h33.7v13.2h-2.6l8.5,23.1l8.6-23.1h-2.6V65.9h33.7v13.2h-4.3v24.8h4.2v13.2h-25.6v-13.2h4.3
		V84.3L235.7,118h-11.6l-12.4-33.7v19.6h4.2v13.2h-25.6v-13.2h4.3V79.1h-4.3V65.9z"/>
	<path fill="#FFFFFF" d="M326.3,104h1.8v13.2h-21.4V104h2.5l-1.3-3.3h-10.7l-1.3,3.3h2.6v13.2h-21.7V104h1.9L294,65.1h17.1
		L326.3,104z M302.5,87l-3.3,8.3h6.6L302.5,87z"/>
	<path fill="#FFFFFF" d="M335.7,65.9h33.7v13.2h-2.6l8.5,23.1l8.6-23.1h-2.6V65.9h33.7v13.2h-4.3v24.8h4.2v13.2h-25.6v-13.2h4.3
		V84.3L381,118h-11.6L357,84.3v19.6h4.2v13.2h-25.6v-13.2h4.3V79.1h-4.3V65.9z"/>
	<path fill="#FFFFFF" d="M444.9,95.4v8.5h10.6v-7h13.2v20.2h-45.1v-13.2h4.3V79.1h-4.2V65.9h45v18.7h-13.2v-5.5h-10.6v7h10.6v9.4
		H444.9z"/>
</g>
<g>
	<path fill="#FFFFFF" d="M11.4,246.6c0,0,68.6-25.6,68.6-63.1c0-10.7-7.2-17.1-17.1-17.1c-22.3,0-21.8,24.8-5.5,26.7l-6.6,25.4
		c0,0-50.2,2.8-50.2-41.6c0-28.1,23.4-48.2,67.5-48.2c35.8,0,59.8,20.4,59.8,46.3c0,43.3-62,62.8-72.8,65.9
		c6.1-1.4,31.7-6.9,71.7-6.9v44.9H11.4V246.6z"/>
	<path fill="#FFFFFF" d="M216.8,128.7c42.7,0,77.4,31.1,77.4,77.4c0,45.5-34.7,77.4-77.4,77.4c-43,0-77.4-32-77.4-77.4
		C139.3,159.5,173.8,128.7,216.8,128.7z M216.8,240.8c18.2,0,32.8-16.5,32.8-34.7c0-18.2-14.6-34.7-32.8-34.7
		c-18.2,0-32.8,16.5-32.8,34.7C184,224.3,198.6,240.8,216.8,240.8z"/>
	<path fill="#FFFFFF" d="M319.6,191.2h-14.3V159c34.7,1.4,37.8-26.2,37.8-26.2h28.4v100.6h13v45.5h-78.8v-45.5h14.1V191.2z"/>
	<path fill="#FFFFFF" d="M473.6,319.1v-40.2h-79.1v-45.5l84.6-100.6h47.7v100.6h16.8v45.5h-16.8v40.2H473.6z M473.6,238.1v-46
		l-36.1,46H473.6z"/>
</g>
</svg>
