<?xml version="1.0" encoding="utf-8"?>
<!-- Generator: Adobe Illustrator 18.1.0, SVG Export Plug-In . SVG Version: 6.00 Build 0)  -->
<!DOCTYPE svg PUBLIC "-//W3C//DTD SVG 1.1//EN" "http://www.w3.org/Graphics/SVG/1.1/DTD/svg11.dtd">
<svg version="1.1" id="Layer_1" xmlns="http://www.w3.org/2000/svg" xmlns:xlink="http://www.w3.org/1999/xlink" x="0px" y="0px"
	 viewBox="0 0 203 273" enable-background="new 0 0 203 273" xml:space="preserve">
<rect x="19" y="114.9" width="69.2" height="11.8"/>
<rect x="22.3" y="126.7" fill="#8D8F93" width="157.4" height="23.4"/>
<rect x="25.7" y="130.9" fill="#B0B8EA" width="16.5" height="19.2"/>
<rect x="45.1" y="130.9" fill="#B0B8EA" width="16.5" height="19.2"/>
<rect x="64.4" y="130.9" fill="#B0B8EA" width="16.5" height="19.2"/>
<polygon fill="#C8D1FC" points="46,150.1 57.7,130.9 60.3,130.9 48.9,150.1 "/>
<polygon fill="#C8D1FC" points="65.5,150.1 77.2,130.9 79.8,130.9 68.5,150.1 "/>
<polygon fill="#C8D1FC" points="26.4,150.1 38.1,130.9 40.7,130.9 29.4,150.1 "/>
<rect x="177.8" y="130.9" fill="#ACADAF" width="0.8" height="19.1"/>
<rect x="83.9" y="130.9" fill="#B0B8EA" width="16.5" height="19.2"/>
<polygon fill="#C8D1FC" points="85,150.1 96.7,130.9 99.3,130.9 88,150.1 "/>
<rect x="103.2" y="130.9" fill="#B0B8EA" width="16.5" height="19.2"/>
<polygon fill="#C8D1FC" points="104.3,150.1 116,130.9 118.6,130.9 107.2,150.1 "/>
<g>
	<path fill="#808285" d="M9.2,150v-10.5c0-1.1,1-2,2.3-2h0.3c1.3,0,2.3,0.9,2.3,2V150H9.2z"/>
	<circle fill="#A7A9AC" cx="11.6" cy="139.9" r="2"/>
	<circle fill="#BCBEC0" cx="11.6" cy="139.9" r="0.6"/>
	<polygon opacity="0.35" fill="#231F20" enable-background="new    " points="9.2,150 9.2,144.1 14,150 	"/>
	<path opacity="0.35" fill="#231F20" enable-background="new    " d="M11.1,141.1l-1,2.3c0,0,0.3,0.6,0.9,0.2l1-2.3L11.1,141.1z"/>
	<path opacity="0.35" fill="#231F20" enable-background="new    " d="M9.2,142.5c0.1,0,0.3,0,0.5-0.1l1-2.3l-1-0.3l-0.5,1.3"/>
	<path opacity="0.35" fill="#231F20" enable-background="new    " d="M12.4,139.6l-1,2.3c0,0,0.3,0.6,0.9,0.2l1-2.3L12.4,139.6z"/>
	<path opacity="0.35" fill="#231F20" enable-background="new    " d="M11.1,138.4l-1,2.3c0,0,0.3,0.6,0.9,0.2l1-2.3L11.1,138.4z"/>
	<circle fill="#D1D3D4" cx="11.6" cy="138.6" r="0.5"/>
	<circle fill="#D1D3D4" cx="11.6" cy="141.3" r="0.5"/>
	<circle fill="#D1D3D4" cx="12.9" cy="139.8" r="0.5"/>
	<circle fill="#D1D3D4" cx="10.3" cy="139.8" r="0.5"/>
</g>
<rect x="27.8" y="145.3" fill="#ACAEB5" width="18" height="1.8"/>
<path fill="#97989E" d="M34.1,145.4c0,0.2-0.2,0.4-0.3,0.4h-4.5c-0.2,0-0.3-0.2-0.3-0.4l0,0c0-0.2,0.2-0.4,0.3-0.4h4.5
	C34,144.9,34.1,145.1,34.1,145.4L34.1,145.4z"/>
<path fill="#97989E" d="M39.7,145.3c0,0.2-0.2,0.4-0.3,0.4h-4.5c-0.2,0-0.3-0.2-0.3-0.4l0,0c0-0.2,0.2-0.4,0.3-0.4h4.5
	C39.6,144.9,39.7,145.1,39.7,145.3L39.7,145.3z"/>
<path fill="#97989E" d="M45.3,145.3c0,0.2-0.2,0.4-0.3,0.4h-4.5c-0.2,0-0.3-0.2-0.3-0.4l0,0c0-0.2,0.2-0.4,0.3-0.4H45
	C45.1,144.9,45.3,145.1,45.3,145.3L45.3,145.3z"/>
<rect x="27.8" y="145.3" fill="#97989E" width="1.1" height="4.7"/>
<rect x="45.5" y="145.3" fill="#97989E" width="1.1" height="4.7"/>
<polygon opacity="0.35" fill="#231F20" enable-background="new    " points="29,147.1 45.6,147.1 29,150 "/>
<rect x="63.7" y="145.3" fill="#ACAEB5" width="18" height="1.8"/>
<path fill="#97989E" d="M70,145.4c0,0.2-0.2,0.4-0.3,0.4h-4.5c-0.2,0-0.3-0.2-0.3-0.4l0,0c0-0.2,0.2-0.4,0.3-0.4h4.5
	C69.8,144.9,70,145.1,70,145.4L70,145.4z"/>
<path fill="#97989E" d="M75.6,145.3c0,0.2-0.2,0.4-0.3,0.4h-4.5c-0.2,0-0.3-0.2-0.3-0.4l0,0c0-0.2,0.2-0.4,0.3-0.4h4.5
	C75.4,144.9,75.6,145.1,75.6,145.3L75.6,145.3z"/>
<path fill="#97989E" d="M81.1,145.3c0,0.2-0.2,0.4-0.3,0.4h-4.5c-0.2,0-0.3-0.2-0.3-0.4l0,0c0-0.2,0.2-0.4,0.3-0.4h4.5
	C81,144.9,81.1,145.1,81.1,145.3L81.1,145.3z"/>
<rect x="63.7" y="145.3" fill="#97989E" width="1.1" height="4.7"/>
<rect x="81.3" y="145.3" fill="#97989E" width="1.1" height="4.7"/>
<polygon opacity="0.35" fill="#231F20" enable-background="new    " points="64.8,147.1 81.4,147.1 64.8,150 "/>
<g>
	<rect x="97.8" y="145.4" fill="#ACAEB5" width="18" height="1.8"/>
	<path fill="#97989E" d="M104.1,145.4c0,0.2-0.2,0.4-0.3,0.4h-4.5c-0.2,0-0.3-0.2-0.3-0.4l0,0c0-0.2,0.2-0.4,0.3-0.4h4.5
		C104,145,104.1,145.2,104.1,145.4L104.1,145.4z"/>
	<path fill="#97989E" d="M109.7,145.4c0,0.2-0.2,0.4-0.3,0.4h-4.5c-0.2,0-0.3-0.2-0.3-0.4l0,0c0-0.2,0.2-0.4,0.3-0.4h4.5
		C109.6,145,109.7,145.1,109.7,145.4L109.7,145.4z"/>
	<path fill="#97989E" d="M115.3,145.4c0,0.2-0.2,0.4-0.3,0.4h-4.5c-0.2,0-0.3-0.2-0.3-0.4l0,0c0-0.2,0.2-0.4,0.3-0.4h4.5
		C115.1,145,115.3,145.1,115.3,145.4L115.3,145.4z"/>
	<rect x="97.8" y="145.4" fill="#97989E" width="1.1" height="4.7"/>
	<rect x="115.5" y="145.4" fill="#97989E" width="1.1" height="4.7"/>
	<polygon opacity="0.35" fill="#231F20" enable-background="new    " points="99,147.1 115.5,147.1 99,150.1 	"/>
</g>
<rect x="0.1" y="150" fill="#808285" width="203" height="8"/>
<polyline fill="#6D6E71" points="32.9,150.1 31.4,151.4 30.3,155.3 31.6,151.6 34.4,150 32.8,150 "/>
<polygon fill="#6D6E71" points="123.8,150 126.8,151.5 126.1,153.6 123.6,155.5 126.3,153.8 127,151.6 130.2,152.7 132.6,157.5 
	130.4,152.6 127.1,151.4 125.1,150 "/>
<rect x="122.4" y="130.8" fill="#B0B8EA" width="16.5" height="19.2"/>
<polygon fill="#C8D1FC" points="123.5,150 135.2,130.8 137.8,130.8 126.5,150 "/>
<rect x="141.4" y="130.8" fill="#B0B8EA" width="16.5" height="19.2"/>
<polygon fill="#C8D1FC" points="142.5,150 154.2,130.8 156.8,130.8 145.5,150 "/>
<rect x="160.2" y="130.9" fill="#B0B8EA" width="16.5" height="19.2"/>
<polygon fill="#C8D1FC" points="161.3,150.1 172.9,130.9 175.6,130.9 164.2,150.1 "/>
<polygon opacity="0.35" fill="#231F20" enable-background="new    " points="22.3,129.4 178.7,129.4 22.3,142.6 "/>
<polygon fill="#FFF8B8" points="51.9,130.2 30,130.2 29.5,129.4 52.3,129.4 "/>
<polygon fill="#FFF8B8" points="83.5,130.2 61.6,130.2 61.1,129.4 83.9,129.4 "/>
<polygon fill="#FFF8B8" points="115.1,130.2 93.2,130.2 92.7,129.4 115.5,129.4 "/>
<polygon fill="#FFF8B8" points="146.7,130.2 124.8,130.2 124.4,129.4 147.1,129.4 "/>
<polygon fill="#FFF8B8" points="178.3,130.2 156.4,130.2 156,129.4 178.7,129.4 "/>
<g>
	<rect x="128.2" y="145.2" fill="#ACAEB5" width="18" height="1.8"/>
	<path fill="#97989E" d="M134.5,145.2c0,0.2-0.2,0.4-0.3,0.4h-4.5c-0.2,0-0.3-0.2-0.3-0.4l0,0c0-0.2,0.2-0.4,0.3-0.4h4.5
		C134.3,144.8,134.5,145,134.5,145.2L134.5,145.2z"/>
	<path fill="#97989E" d="M140.1,145.2c0,0.2-0.2,0.4-0.3,0.4h-4.5c-0.2,0-0.3-0.2-0.3-0.4l0,0c0-0.2,0.2-0.4,0.3-0.4h4.5
		C139.9,144.7,140.1,144.9,140.1,145.2L140.1,145.2z"/>
	<path fill="#97989E" d="M145.6,145.2c0,0.2-0.2,0.4-0.3,0.4h-4.5c-0.2,0-0.3-0.2-0.3-0.4l0,0c0-0.2,0.2-0.4,0.3-0.4h4.5
		C145.5,144.7,145.6,144.9,145.6,145.2L145.6,145.2z"/>
	<rect x="128.2" y="145.2" fill="#97989E" width="1.1" height="4.7"/>
	<rect x="145.9" y="145.2" fill="#97989E" width="1.1" height="4.7"/>
	<polygon opacity="0.35" fill="#231F20" enable-background="new    " points="129.3,146.9 145.9,146.9 129.3,149.9 	"/>
</g>
<g>
	<rect x="157.4" y="145.3" fill="#ACAEB5" width="18" height="1.8"/>
	<path fill="#97989E" d="M163.7,145.3c0,0.2-0.2,0.4-0.3,0.4h-4.5c-0.2,0-0.3-0.2-0.3-0.4l0,0c0-0.2,0.2-0.4,0.3-0.4h4.5
		C163.6,144.9,163.7,145.1,163.7,145.3L163.7,145.3z"/>
	<path fill="#97989E" d="M169.3,145.3c0,0.2-0.2,0.4-0.3,0.4h-4.5c-0.2,0-0.3-0.2-0.3-0.4l0,0c0-0.2,0.2-0.4,0.3-0.4h4.5
		C169.2,144.8,169.3,145,169.3,145.3L169.3,145.3z"/>
	<path fill="#97989E" d="M174.9,145.3c0,0.2-0.2,0.4-0.3,0.4h-4.5c-0.2,0-0.3-0.2-0.3-0.4l0,0c0-0.2,0.2-0.4,0.3-0.4h4.5
		C174.8,144.8,174.9,145,174.9,145.3L174.9,145.3z"/>
	<rect x="157.4" y="145.3" fill="#97989E" width="1.1" height="4.7"/>
	<rect x="175.1" y="145.3" fill="#97989E" width="1.1" height="4.7"/>
	<polygon opacity="0.35" fill="#231F20" enable-background="new    " points="158.6,147.1 175.1,147.1 158.6,150 	"/>
</g>
<g>
	<rect x="30.7" y="114.9" fill="#9E9E9E" width="0" height="11.8"/>
</g>
<line fill="none" stroke="#9E9E9E" stroke-width="0.25" stroke-miterlimit="10" x1="30.7" y1="114.9" x2="30.7" y2="126.6"/>
<rect x="19.1" y="114.9" width="68.5" height="11.7"/>
<g>
	<rect x="30.7" y="114.9" fill="#9E9E9E" width="0" height="11.7"/>
</g>
<g>
	<circle fill="#E8B831" cx="24.9" cy="120.8" r="3.8"/>
	<g>
		<path fill="#FFFFFF" d="M26.6,118.3c0-0.1-0.1-0.1-0.1-0.1c-0.6-0.2-1.2-0.2-1.6-0.2c-0.4,0-0.9,0-1.6,0.2c-0.1,0-0.1,0.1-0.1,0.1
			c0,0.1-0.4,1.9-0.4,2.7c0,0.8,0.4,2.3,0.4,2.4c0,0,0,0.1,0.1,0.1c0,0,0.4,0.3,1.6,0.3c1.1,0,1.5-0.3,1.6-0.3c0,0,0.1-0.1,0.1-0.1
			c0-0.1,0.4-1.6,0.4-2.4C26.9,120.1,26.6,118.3,26.6,118.3z M23.5,122.7c0-0.1,0-0.1,0-0.1h2.9c0,0.1,0,0.1,0,0.1H23.5z
			 M26.4,122.3h-3c-0.1-0.5-0.2-1-0.2-1.4c0-0.4,0.1-1.1,0.2-1.6h3.1l0,0c0.1,0.6,0.2,1.3,0.2,1.6C26.6,121.3,26.5,121.8,26.4,122.3
			z M26.4,118.8c0,0.1,0,0.1,0,0.1h-3c0-0.1,0-0.1,0-0.1H26.4z M26.3,118.5H26v-0.2c0.1,0,0.2,0,0.3,0.1
			C26.3,118.4,26.3,118.5,26.3,118.5z M25.7,118.3v0.2h-1.7v-0.2c0.3-0.1,0.6-0.1,0.8-0.1C25.1,118.2,25.4,118.3,25.7,118.3z
			 M23.8,118.4v0.2h-0.3c0-0.1,0-0.1,0-0.1C23.6,118.4,23.7,118.4,23.8,118.4z M23.6,123h0.2v0.2c-0.1,0-0.2-0.1-0.2-0.1
			C23.6,123.1,23.6,123.1,23.6,123z M24.1,123.3V123h1.7v0.2c-0.2,0-0.5,0.1-0.8,0.1C24.6,123.3,24.3,123.3,24.1,123.3z M26,123.2
			V123h0.2c0,0,0,0.1,0,0.1C26.2,123.1,26.1,123.2,26,123.2z"/>
		<path fill="#FFFFFF" d="M23.9,120.6c-0.1,0-0.2,0.1-0.2,0.2v1.2c0,0.1,0.1,0.2,0.2,0.2s0.2-0.1,0.2-0.2v-1.2
			C24.1,120.7,24,120.6,23.9,120.6z"/>
		<path fill="#FFFFFF" d="M23.9,119.5c-0.1,0-0.2,0.1-0.2,0.2v0.5c0,0.1,0.1,0.2,0.2,0.2s0.2-0.1,0.2-0.2v-0.5
			C24.1,119.5,24,119.5,23.9,119.5z"/>
		<path fill="#FFFFFF" d="M25.9,120.6c-0.1,0-0.2,0.1-0.2,0.2v1.2c0,0.1,0.1,0.2,0.2,0.2c0.1,0,0.2-0.1,0.2-0.2v-1.2
			C26,120.7,26,120.6,25.9,120.6z"/>
		<path fill="#FFFFFF" d="M25.9,119.5c-0.1,0-0.2,0.1-0.2,0.2v0.5c0,0.1,0.1,0.2,0.2,0.2c0.1,0,0.2-0.1,0.2-0.2v-0.5
			C26,119.5,26,119.5,25.9,119.5z"/>
		<path fill="#FFFFFF" d="M24.9,119.5c-0.1,0-0.2,0.1-0.2,0.2v1.2c0,0.1,0.1,0.2,0.2,0.2c0.1,0,0.2-0.1,0.2-0.2v-1.2
			C25.1,119.5,25,119.5,24.9,119.5z"/>
		<path fill="#FFFFFF" d="M24.9,121.2c-0.1,0-0.2,0.1-0.2,0.2v0.6c0,0.1,0.1,0.2,0.2,0.2c0.1,0,0.2-0.1,0.2-0.2v-0.6
			C25.1,121.3,25,121.2,24.9,121.2z"/>
	</g>
</g>
<g enable-background="new    ">
	<path fill="#FFFFFF" d="M36.1,120.6H34v1.5h2.4v0.6h-3.2V118h3.1v0.6H34v1.3h2.1V120.6z"/>
	<path fill="#FFFFFF" d="M37.8,122.7H37v-5h0.8V122.7z"/>
	<path fill="#FFFFFF" d="M41.8,122.2c0.2,0,0.4-0.1,0.5-0.2c0.1-0.1,0.2-0.3,0.2-0.4h0.7l0,0c0,0.3-0.1,0.6-0.4,0.8
		c-0.3,0.2-0.6,0.4-1,0.4c-0.5,0-0.9-0.2-1.2-0.5c-0.3-0.3-0.4-0.7-0.4-1.3v-0.1c0-0.5,0.1-0.9,0.4-1.3c0.3-0.3,0.7-0.5,1.2-0.5
		c0.4,0,0.8,0.1,1,0.4c0.3,0.2,0.4,0.6,0.4,0.9l0,0h-0.7c0-0.2-0.1-0.4-0.2-0.5c-0.1-0.1-0.3-0.2-0.5-0.2c-0.3,0-0.5,0.1-0.6,0.3
		c-0.1,0.2-0.2,0.5-0.2,0.8v0.1c0,0.3,0.1,0.6,0.2,0.8C41.3,122,41.5,122.2,41.8,122.2z"/>
	<path fill="#FFFFFF" d="M44.6,119.7c0.1-0.2,0.3-0.3,0.4-0.4s0.4-0.1,0.6-0.1c0.4,0,0.7,0.1,0.9,0.3c0.2,0.2,0.3,0.6,0.3,1.1v2.1
		h-0.8v-2.1c0-0.3-0.1-0.5-0.2-0.6c-0.1-0.1-0.3-0.2-0.5-0.2c-0.2,0-0.3,0-0.4,0.1c-0.1,0.1-0.2,0.2-0.3,0.3v2.6h-0.8v-5h0.8V119.7z
		"/>
	<path fill="#FFFFFF" d="M49.6,122.7c0-0.1-0.1-0.2-0.1-0.3c0-0.1,0-0.2,0-0.3c-0.1,0.2-0.2,0.3-0.4,0.4c-0.2,0.1-0.4,0.2-0.6,0.2
		c-0.4,0-0.6-0.1-0.8-0.3c-0.2-0.2-0.3-0.4-0.3-0.8c0-0.3,0.1-0.6,0.4-0.8c0.3-0.2,0.6-0.3,1.1-0.3h0.6v-0.3c0-0.2-0.1-0.3-0.2-0.4
		s-0.3-0.2-0.5-0.2c-0.2,0-0.3,0-0.4,0.1c-0.1,0.1-0.2,0.2-0.2,0.3h-0.8l0,0c0-0.3,0.1-0.5,0.4-0.7c0.3-0.2,0.6-0.3,1-0.3
		c0.4,0,0.7,0.1,1,0.3c0.2,0.2,0.4,0.5,0.4,0.9v1.5c0,0.1,0,0.3,0,0.4c0,0.1,0.1,0.3,0.1,0.4H49.6z M48.7,122.2c0.2,0,0.4,0,0.5-0.1
		c0.2-0.1,0.3-0.2,0.3-0.3v-0.5h-0.6c-0.2,0-0.4,0.1-0.5,0.2s-0.2,0.2-0.2,0.4c0,0.1,0,0.2,0.1,0.3S48.5,122.2,48.7,122.2z"/>
	<path fill="#FFFFFF" d="M51.8,119.2l0,0.5c0.1-0.2,0.3-0.3,0.4-0.4c0.2-0.1,0.4-0.1,0.6-0.1c0.4,0,0.6,0.1,0.8,0.3
		c0.2,0.2,0.3,0.6,0.3,1v2.2h-0.8v-2.2c0-0.3-0.1-0.4-0.2-0.6s-0.3-0.2-0.5-0.2c-0.2,0-0.3,0-0.4,0.1s-0.2,0.2-0.3,0.3v2.5h-0.8
		v-3.5H51.8z"/>
	<path fill="#FFFFFF" d="M55.1,122.7v-2.9h-0.5v-0.6h0.5v-0.4c0-0.4,0.1-0.7,0.3-0.9s0.5-0.3,0.9-0.3c0.1,0,0.2,0,0.2,0
		c0.1,0,0.2,0,0.3,0.1l-0.1,0.6c0,0-0.1,0-0.1,0c-0.1,0-0.1,0-0.2,0c-0.2,0-0.3,0-0.4,0.1s-0.1,0.2-0.1,0.4v0.4h0.7v0.6h-0.7v2.9
		H55.1z"/>
	<path fill="#FFFFFF" d="M58,122.7h-0.8v-5H58V122.7z"/>
	<path fill="#FFFFFF" d="M60.4,122.8c-0.5,0-0.9-0.2-1.2-0.5c-0.3-0.3-0.4-0.7-0.4-1.2v-0.1c0-0.5,0.1-0.9,0.4-1.3
		c0.3-0.3,0.7-0.5,1.1-0.5c0.5,0,0.8,0.1,1.1,0.4c0.2,0.3,0.4,0.7,0.4,1.1v0.5h-2.2l0,0c0,0.3,0.1,0.5,0.2,0.7
		c0.1,0.2,0.4,0.3,0.6,0.3c0.2,0,0.4,0,0.5-0.1c0.2-0.1,0.3-0.1,0.4-0.2l0.3,0.5c-0.1,0.1-0.3,0.2-0.5,0.3
		C60.9,122.7,60.7,122.8,60.4,122.8z M60.3,119.8c-0.2,0-0.4,0.1-0.5,0.2c-0.1,0.2-0.2,0.3-0.2,0.6l0,0H61v-0.1
		c0-0.2-0.1-0.4-0.2-0.5S60.5,119.8,60.3,119.8z"/>
</g>
<path fill="none" stroke="#FCC792" stroke-width="5" stroke-linecap="round" stroke-miterlimit="10" d="M107.7,135.8
	c0,0-3,2.5-1.9,6.3"/>
<path fill="none" stroke="#FCC792" stroke-width="5" stroke-linecap="round" stroke-miterlimit="10" d="M112.2,135.8
	c0,0,2.7,2.4,1.7,6.1"/>
<path fill="#688599" d="M107.9,136.1c0,0-1.1,1.1-1.6,2.1l-0.7-0.4c0,0,1-2.4,2.2-2.5C107.9,135.3,108.5,135.6,107.9,136.1z"/>
<path fill="#688599" d="M112.1,136.3c0,0,0.9,1.2,1.3,2.3l0.7-0.3c0,0-0.7-2.5-1.9-2.7C112.3,135.6,111.6,135.8,112.1,136.3z"/>
<path fill="none" stroke="#FFF200" stroke-width="5" stroke-linecap="round" stroke-miterlimit="10" d="M35.3,134.6
	c0,0,2.8,2.5,1.8,6.3"/>
<path fill="none" stroke="#FCC792" stroke-width="5" stroke-linecap="round" stroke-miterlimit="10" d="M37.2,140.6
	c0,0.1-0.1,0.2-0.1,0.4"/>
<path fill="none" stroke="#FFF200" stroke-width="5" stroke-linecap="round" stroke-miterlimit="10" d="M31.6,134.4
	c0,0-2.8,2.5-1.8,6.3"/>
<path fill="none" stroke="#FCC792" stroke-width="5" stroke-linecap="round" stroke-miterlimit="10" d="M29.7,140.4
	c0,0.1,0.1,0.2,0.1,0.4"/>
<circle fill="#FFF200" cx="120.9" cy="144.8" r="5.2"/>
<ellipse fill="#FCF6C3" cx="121.8" cy="141.8" rx="1.4" ry="1"/>
<rect x="108.5" y="132.3" fill="#FCC792" width="2.4" height="3.6"/>
<ellipse fill="#FCC792" cx="109.7" cy="132.3" rx="1.2" ry="1.2"/>
<g>
	<path fill="#688599" d="M112.5,135.1c0,0-0.7,0-1.5,0c0,0,0,0-0.1,0l-0.8,0.7l-1.5-0.7c-0.1,0-0.1,0-0.1,0c-0.3,0-1.1,0-1.1,0
		c-0.2,0-0.3,0.2-0.3,0.4l1.3,7.8c0,0.3,0.1,0.5,0.3,0.5h2.9c0.2,0,0.3-0.2,0.3-0.5l0.9-7.8C112.8,135.3,112.6,135.1,112.5,135.1z"
		/>
</g>
<rect x="108.3" y="142.1" fill="#0F3854" width="1.5" height="8.1"/>
<rect x="110.5" y="142.1" fill="#0F3854" width="1.5" height="8.1"/>
<polygon fill="#0F3854" points="108.1,141.8 112,141.8 112,142.6 110.5,143.9 109.7,143.9 108.2,142.7 "/>
<rect x="108.3" y="149.4" fill="#FFFFFF" width="1.5" height="0.8"/>
<rect x="110.5" y="149.4" fill="#FFFFFF" width="1.5" height="0.8"/>
<path fill="#231F20" d="M109,134.2c0,0,0.7-0.4,1.5,0c0,0-0.2-0.6-0.7-0.6C109.2,133.6,109,134.2,109,134.2z"/>
<path fill="#95D8EF" d="M108.5,132l2.4-0.1l0.7,0.5c0,0-1.9,0.8-3.6,0.3L108.5,132z"/>
<path fill="#7ABCCE" d="M108.5,132l2.4-0.1c0,0-0.3-1.1-1.1-1.1C109.1,130.8,108.5,131.3,108.5,132z"/>
<g>
	<path fill="#80431D" d="M87.3,149.3l0.6-0.7c0,0,1.8-3.5,0.3-7.3l-0.6,0.2L87.3,149.3z"/>
	<path fill="#F09933" d="M81,140.6c0,0-1.9,4.6,0.6,9h0.7c0,0-1-4.4,0-8.3L81,140.6z"/>
	<path fill="#80431D" d="M82.3,149.6l1.4,0.4c0,0-0.4-6.1,0-8.4l-1.4-0.2C82.3,141.3,81.2,144.7,82.3,149.6z"/>
	<path fill="#F09933" d="M83.6,141.6c0,0-0.3,3.9,0.1,8.4h1.5c0,0,0.6-3.6,0.2-8.3L83.6,141.6z"/>
	<path fill="#80431D" d="M85.4,141.6c0,0,0.4,6.3-0.3,8.3l1.5-0.4c0,0,1.3-4.9,0.1-8.3L85.4,141.6z"/>
	<path fill="#F09933" d="M86.6,149.6c0,0,1.1-4.5,0.2-7.8h0.9c0,0,1.5,3.5-0.4,7.5L86.6,149.6z"/>
	<path fill="#534843" d="M80.6,141.6c0,0,1.3,0.6,4.1,0.6c2.9,0,3.7-0.6,3.7-0.6l-0.3-1.1c0,0,0.4,0.5-3.4,0.5s-3.6-0.5-3.6-0.5
		S80.6,141.2,80.6,141.6z"/>
	<path fill="#534843" d="M80.4,143c0,0-0.5,0.6-0.1,1.3c0,0,0.7,0.8,4.5,0.8c3.8,0,4-0.9,4-0.9s0.3-0.7-0.2-1.2c0,0,0.3,1.1-3.9,1.1
		S80.4,143,80.4,143z"/>
	<path fill="#534843" d="M80.4,146c0,0,0.2,1.5,4.2,1.5c4,0,4.1-1.6,4.1-1.6s0.2,0.9-0.3,1.4c0,0-0.7,1-3.8,1c-3.1,0-4-1-4-1
		S80.2,147,80.4,146z"/>
	<path fill="#534843" d="M81.1,148.6c0,0,0.7,1.2,3.4,1.2s3.5-1.3,3.5-1.3s-0.3,0.9-0.5,1.1c0,0-0.7,0.8-3,0.8c-2.2,0-3.1-1-3.1-1
		S81.1,149.1,81.1,148.6z"/>
	<ellipse fill="#F09933" cx="84.5" cy="140.5" rx="3.5" ry="0.5"/>
	<ellipse fill="#80431D" cx="84.6" cy="140.6" rx="2.9" ry="0.4"/>
	<path fill="#7D6C64" d="M84,142.1v-1.1l-1.2-0.1v1.1C82.7,142,83.4,142.2,84,142.1z"/>
	<path fill="#7D6C64" d="M82.6,144v1c0,0,0.7,0.1,1.3,0.1v-1L82.6,144z"/>
	<path fill="#7D6C64" d="M82.8,147.4l0.1,0.8c0,0,0.4,0.1,1,0.1v-0.8C84,147.5,83.2,147.5,82.8,147.4z"/>
	<path fill="#7D6C64" d="M83,149.6l0.2,0.7c0,0,0.4,0.1,0.9,0.1v-0.7C84,149.7,83.3,149.7,83,149.6z"/>
	<path fill="#7D6C64" d="M88.4,143.4c0,0,0.2,0.4,0.2,1c0,0,0.2-0.1,0.2-0.3c0,0,0.3-0.8-0.2-1.2C88.7,143,88.6,143.3,88.4,143.4z"
		/>
	<path fill="#7D6C64" d="M88.5,146.4c0,0,0.1,0.6-0.2,1c0,0,0.7-0.3,0.5-1.6C88.7,145.9,88.7,146.3,88.5,146.4z"/>
</g>
<g>
	<circle fill="#FFFFFF" cx="24.9" cy="147.7" r="2.2"/>
	<path fill="#231F20" d="M25,147l0.9,0.3l0.4-0.6c0,0-0.4-0.5-0.6-0.6c0,0-0.6,0-0.8,0.2L25,147z"/>
	<path fill="#231F20" d="M23.8,148.9l0.7-0.3c0,0-0.2-0.8-0.2-0.9l-0.8-0.2c0,0-0.3,0.3-0.3,0.7C23.2,148.2,23.3,148.6,23.8,148.9z"
		/>
	<path fill="#231F20" d="M25.6,149.5l-0.2-0.6c0,0,0.6-0.4,0.7-0.6l0.6,0.3c0,0-0.1,0.5-0.3,0.7C26.3,149.4,25.7,149.4,25.6,149.5z"
		/>
	<path fill="#231F20" d="M24.9,149.9l0-0.1c0,0-0.6-0.1-0.9-0.3c0,0-0.2,0.1-0.3,0C23.7,149.5,24.1,149.9,24.9,149.9z"/>
	<path fill="#231F20" d="M26.9,146.8l-0.1,0.1c0,0,0.3,0.4,0.2,1h0.1C27.1,147.8,27.2,147.2,26.9,146.8z"/>
	<path fill="#231F20" d="M23,146.6c0,0,0.2-0.1,0.4,0c0,0,0.2-0.4,0.7-0.6v-0.4C24.1,145.6,23.5,145.8,23,146.6z"/>
</g>
<rect x="32" y="130.6" fill="#FCC792" width="2.3" height="3.9"/>
<ellipse fill="#FCC792" cx="33.2" cy="130.6" rx="1.2" ry="1.3"/>
<g>
	<path fill="#FFF200" d="M35.1,133.6c0,0,0,0-0.8,0c0,0,0,0-0.1,0l-0.8,0.1l-1.5-0.1c-0.1,0-0.1,0-0.1,0c-0.3,0-0.4,0-0.4,0
		c-0.2,0-0.3,0.2-0.3,0.5l0.6,8.5c0,0.3,0.1,0.5,0.3,0.5h2.8c0.2,0,0.3-0.2,0.3-0.5l0.2-8.5C35.4,133.8,35.3,133.6,35.1,133.6z"/>
</g>
<rect x="31.7" y="141.2" fill="#939598" width="1.4" height="8.8"/>
<rect x="33.8" y="141.2" fill="#939598" width="1.4" height="8.8"/>
<polygon fill="#939598" points="31.6,140.9 35.3,140.8 35.3,141.8 33.8,143.2 33.2,143.2 31.7,142.1 "/>
<rect x="31.9" y="133" fill="#FFF200" width="2.6" height="0.7"/>
<rect x="31.7" y="149.2" fill="#3C2415" width="1.4" height="0.9"/>
<rect x="33.8" y="149.2" fill="#3C2415" width="1.4" height="0.9"/>
<path fill="#231F20" d="M34.4,130.5v1.2l0.2-0.2c0,0-0.1-0.5-0.1-0.6c0-0.1,0.3-0.5,0-0.6"/>
<path fill="#231F20" d="M32.1,130.3l-0.1,1.3l-0.2-0.2c0,0,0.1-0.5,0.1-0.6c0-0.1-0.2-0.6,0.1-0.7"/>
<path fill="#754C29" d="M31.7,130.3c0,0-0.3,0.4,1.6,0.4c1.8,0,1.9-0.4,1.1-0.5C34.4,130.2,32.3,130,31.7,130.3z"/>
<path fill="#603913" d="M31.7,130.3c0,0,1.7,0.3,2.6,0c0,0,0.8-1.1-0.5-1.2C32.6,129,31.5,129.4,31.7,130.3z"/>
<g>
	<path fill="#FFF100" d="M34.4,134.7c0.4,0,0.7,0.3,0.7,0.7s-0.3,0.7-0.7,0.7s-0.7-0.3-0.7-0.7C33.7,135,34,134.7,34.4,134.7
		L34.4,134.7z"/>
	<path fill="#2E3191" d="M34.4,134.7c-0.4,0-0.7,0.3-0.7,0.7s0.3,0.7,0.7,0.7s0.7-0.3,0.7-0.7S34.7,134.7,34.4,134.7z"/>
	<path fill="#FFF100" d="M35,135.4h-0.1c0,0,0,0,0-0.1c0-0.1-0.1-0.1-0.1-0.2h0h0c0,0,0,0,0,0c0,0,0-0.1,0-0.1l0.1-0.1
		C34.9,135.1,35,135.2,35,135.4z"/>
	<path fill="#FFF100" d="M34.4,134.8c0.2,0,0.3,0.1,0.4,0.2l-0.1,0.1c0,0-0.1,0-0.1,0v0l0,0c0,0,0,0,0,0v0v0l0,0l0,0l0,0h0h0l0,0
		l0,0v0c0,0,0,0,0,0c0,0,0,0,0,0l0,0c0,0,0,0,0,0l0,0c0,0,0,0,0,0v0l0,0l0,0l0,0v0l0,0c0,0,0,0,0,0c0,0,0,0,0,0l0,0v0c0,0,0,0,0,0
		c0,0,0,0,0,0l0,0c0,0,0,0,0,0l0,0l0,0v0c0,0,0,0,0.1,0c0,0,0,0.1,0,0.1c0,0-0.1,0.1-0.1,0.2c0,0.1-0.1,0.2-0.1,0.3l0,0l0,0
		c0,0,0,0,0,0l0,0h0h0c0,0,0,0,0,0c0,0,0,0,0,0l0,0l0,0v0c0,0,0,0,0,0c0,0,0,0,0,0c0,0,0,0,0,0l0,0l0,0h0l0,0l0,0v0l0,0v0l0,0
		c0,0,0,0,0,0l0,0v0h0l0,0h0l0,0v0c0,0,0,0,0,0c0,0,0,0,0,0c0,0,0,0,0,0v0l0,0c0,0,0,0,0,0v0c0,0,0,0,0,0h0l0,0h0l0,0c0,0,0,0,0,0h0
		l0,0h0l0,0l0,0l0,0l0,0c0,0,0,0,0,0l0,0l0,0h0c0,0,0,0,0,0v0l0,0c0,0,0,0,0,0l0,0l0,0c0,0,0,0,0,0l0,0l0,0c0,0,0,0,0,0s0,0,0,0v0h0
		l0,0c0,0,0,0,0,0h0c0,0,0,0,0,0l0,0l0,0l0,0c0,0,0,0,0,0.1l0,0v0l0,0c0,0,0,0,0,0v0h0v0c0,0,0,0,0,0v0l0,0l0,0l0,0c0,0,0,0,0,0
		c0,0,0,0,0,0c0,0,0,0,0,0v0l0,0l0,0c0,0,0,0,0,0c0,0,0,0,0,0h0c0,0,0,0,0,0c0,0,0,0,0,0l0,0l0,0h0h0h0h0l0,0h0v0l0,0c0,0,0,0,0,0
		c0,0-0.1,0-0.1,0l0,0c0,0,0,0,0,0l0,0c0,0,0,0,0,0c0,0,0,0,0,0v0l0,0v0l0,0h0v0l0,0v0l0,0v0c0,0,0,0,0,0s0,0,0,0l0,0l0,0l0,0
		c0,0,0,0,0,0l0,0l0,0h0c0,0,0,0,0,0l0,0h0l-0.1-0.1C34,134.8,34.2,134.8,34.4,134.8z"/>
	<path fill="#FFF100" d="M34.3,135.6L34.3,135.6C34.4,135.6,34.4,135.6,34.3,135.6L34.3,135.6L34.3,135.6L34.3,135.6l0,0.1v0l0,0
		c0,0,0,0,0,0c-0.1,0-0.2,0-0.3-0.1c0,0,0-0.1,0-0.1c0,0,0.1,0,0.1,0c0,0,0.1,0,0.1-0.1l0,0l0,0l-0.1-0.1l0,0c0,0,0,0,0,0
		c0,0,0,0-0.1,0s0,0,0,0c0-0.1,0-0.1,0-0.2c0,0,0,0,0,0s0,0,0.1,0c0,0,0,0,0,0l0,0l0.1-0.1l0,0c0,0-0.1,0-0.1-0.1c0,0-0.1,0-0.1,0
		c0,0,0-0.1,0-0.1c0,0,0,0,0.1,0c0,0,0,0,0,0c0,0,0,0,0.1,0l0,0c0,0,0,0,0,0.1c0,0,0,0,0,0.1c0,0,0,0.1,0,0.1l0,0v0c0,0,0,0,0,0.1
		c0,0,0,0,0,0c0,0,0,0,0,0c0,0,0,0,0-0.1l0,0v0l0,0l0,0v0c0,0,0,0,0,0v0v0c0,0,0,0.1,0.1,0l0,0c0,0,0,0,0,0l0,0c0,0,0,0,0,0l0,0
		L34.3,135.6L34.3,135.6L34.3,135.6C34.4,135.5,34.4,135.5,34.3,135.6C34.4,135.6,34.3,135.5,34.3,135.6
		C34.3,135.6,34.3,135.6,34.3,135.6z"/>
	<path fill="#FFF100" d="M33.9,134.9l0.1,0.1c0,0,0,0.1,0,0.1c-0.1,0-0.1,0-0.1,0.1c0,0-0.1,0.1-0.1,0.2h-0.1
		C33.7,135.2,33.8,135.1,33.9,134.9z"/>
	<path fill="#FFF100" d="M34,135.4L34,135.4C33.9,135.4,34,135.3,34,135.4C34,135.3,34,135.3,34,135.4C34,135.3,34,135.4,34,135.4z"
		/>
	<path fill="#FFF100" d="M34,135.5C34,135.5,34,135.5,34,135.5C34,135.5,33.9,135.4,34,135.5L34,135.5C34,135.4,34,135.5,34,135.5z"
		/>
	<path fill="#FFF100" d="M33.7,135.4L33.7,135.4c0.1,0.1,0.1,0.1,0.2,0.2c0,0,0.1,0.1,0.1,0.1c0,0,0,0.1,0,0.1l-0.1,0.1
		C33.8,135.7,33.7,135.6,33.7,135.4z"/>
	<path fill="#FFF100" d="M34.4,136c-0.2,0-0.3-0.1-0.5-0.2l0.1-0.1c0.1,0,0.2,0.1,0.2,0.1c0,0,0,0,0,0l0,0c0,0,0,0,0,0.1l0,0l0,0v0
		l0,0h0l0,0v0l0,0l0,0l0,0l0,0l0,0v0l0,0c0.1,0,0.2,0,0.3-0.1l0.1,0.1C34.7,136,34.5,136,34.4,136z"/>
	<path fill="#FFF100" d="M34.8,135.8l-0.1-0.1c0-0.1,0-0.1,0-0.1h0.1c0,0,0,0,0,0c0,0,0,0,0,0v0h0.1v0c0-0.1,0-0.1,0-0.2H35
		C35,135.6,35,135.7,34.8,135.8z"/>
	<path fill="#EC1C24" d="M34,135.2c0.1,0,0.1,0,0.2,0.1l-0.1,0.1C34.1,135.3,34.1,135.2,34,135.2c-0.1,0.1-0.1,0.1-0.1,0.2
		s0.1,0.1,0.1,0.1c0,0,0.1,0,0.1-0.1l0.1,0.1c0,0-0.1,0.1-0.2,0.1c-0.1,0-0.2-0.1-0.2-0.2C33.8,135.3,33.9,135.2,34,135.2L34,135.2z
		"/>
	<path fill="#EC1C24" d="M34.8,135.2c-0.1,0.1-0.2,0.2-0.2,0.4h0.1c0,0,0,0,0-0.1h0.2c0,0,0,0,0,0.1h0.1
		C34.9,135.4,34.8,135.2,34.8,135.2L34.8,135.2z"/>
	<path fill="#FFF100" d="M34.6,135.6L34.6,135.6C34.6,135.6,34.6,135.6,34.6,135.6l0.1,0v0c0,0,0,0,0,0c0,0,0,0,0,0h0
		c0,0.1,0,0.1,0,0.1c-0.1,0-0.2,0.1-0.3,0.1l0,0h0l0,0v0L34.6,135.6C34.5,135.7,34.5,135.7,34.6,135.6L34.6,135.6L34.6,135.6
		L34.6,135.6L34.6,135.6L34.6,135.6L34.6,135.6L34.6,135.6C34.6,135.7,34.6,135.6,34.6,135.6z"/>
	<path fill="#2E3191" d="M34.4,134.9L34.4,134.9C34.4,134.9,34.4,134.9,34.4,134.9C34.4,134.9,34.4,135,34.4,134.9
		C34.4,135,34.4,135,34.4,134.9L34.4,134.9C34.5,134.9,34.5,134.9,34.4,134.9C34.5,134.9,34.5,134.9,34.4,134.9
		C34.4,134.9,34.4,134.9,34.4,134.9z"/>
	<path fill="#2E3191" d="M34.4,134.9L34.4,134.9L34.4,134.9L34.4,134.9C34.4,134.9,34.4,134.9,34.4,134.9L34.4,134.9
		C34.3,134.9,34.4,134.9,34.4,134.9z"/>
	<path fill="#2E3191" d="M34.8,135.3c0,0,0,0.1-0.1,0.1h0.1C34.8,135.4,34.8,135.4,34.8,135.3L34.8,135.3z"/>
	<path fill="#FFF100" d="M34.8,135.4L34.8,135.4C34.8,135.4,34.8,135.4,34.8,135.4L34.8,135.4L34.8,135.4z"/>
	<path fill="#FFF100" d="M34.7,135.4L34.7,135.4L34.7,135.4L34.7,135.4z"/>
</g>
<g>
	<g>
		<path d="M77.8,106.1c0.3,0,0.3-0.5,0-0.5C77.4,105.6,77.4,106.1,77.8,106.1L77.8,106.1z"/>
	</g>
</g>
</svg>
