<?xml version="1.0" encoding="utf-8"?>
<!-- Generator: Adobe Illustrator 18.1.0, SVG Export Plug-In . SVG Version: 6.00 Build 0)  -->
<!DOCTYPE svg PUBLIC "-//W3C//DTD SVG 1.1//EN" "http://www.w3.org/Graphics/SVG/1.1/DTD/svg11.dtd">
<svg version="1.1" id="Layer_1" xmlns="http://www.w3.org/2000/svg" xmlns:xlink="http://www.w3.org/1999/xlink" x="0px" y="0px"
	 viewBox="0 0 1347 312" enable-background="new 0 0 1347 312" xml:space="preserve">
<g>
	<g>
		<rect x="184.5" y="40.4" width="435.7" height="74.2"/>
	</g>
	<g>
		<rect x="205.5" y="114.5" fill="#8D8F93" width="991.6" height="147.6"/>
	</g>
	<g>
		<rect x="226.5" y="141.2" fill="#B0B8EA" width="104.1" height="120.9"/>
	</g>
	<g>
		<rect x="349" y="141.2" fill="#B0B8EA" width="104.1" height="120.9"/>
	</g>
	<g>
		<rect x="470.6" y="141.2" fill="#B0B8EA" width="104.1" height="120.9"/>
	</g>
	<g>
		<polygon fill="#C8D1FC" points="354.4,262.1 428,141.2 444.5,141.2 373.2,262.1 		"/>
	</g>
	<g>
		<polygon fill="#C8D1FC" points="477.7,262.1 551.2,141.2 567.7,141.2 496.4,262.1 		"/>
	</g>
	<g>
		<polygon fill="#C8D1FC" points="231.2,262.1 304.7,141.2 321.2,141.2 249.9,262.1 		"/>
	</g>
	<g>
		<rect x="1184.9" y="141.5" fill="#ACADAF" width="4.9" height="120.4"/>
	</g>
	<g>
		<rect x="593.1" y="141.2" fill="#B0B8EA" width="104.1" height="120.9"/>
	</g>
	<g>
		<polygon fill="#C8D1FC" points="600.2,262.1 673.7,141.2 690.2,141.2 618.9,262.1 		"/>
	</g>
	<g>
		<rect x="714.7" y="141.2" fill="#B0B8EA" width="104.1" height="120.9"/>
	</g>
	<g>
		<polygon fill="#C8D1FC" points="721.7,262.1 795.3,141.2 811.7,141.2 740.4,262.1 		"/>
	</g>
	<g>
		<g>
			<path fill="#808285" d="M122.6,261.7v-65.9c0-7,6.4-12.6,14.2-12.6h1.7c7.9,0,14.2,5.6,14.2,12.6v65.9H122.6z"/>
		</g>
		<g>
			<circle fill="#A7A9AC" cx="138.1" cy="198.1" r="12.7"/>
		</g>
		<g>
			<circle fill="#BCBEC0" cx="138.1" cy="198.1" r="3.8"/>
		</g>
		<g opacity="0.35">
			<polygon fill="#231F20" points="122.6,261.7 122.6,224.5 152.8,261.7 			"/>
		</g>
		<g opacity="0.35">
			<path fill="#231F20" d="M134.9,205.4l-6.2,14.8c0,0,1.7,3.5,6,1.4l6.6-14.5L134.9,205.4z"/>
		</g>
		<g opacity="0.35">
			<path fill="#231F20" d="M122.6,214.4c0.8,0.1,1.9,0,3.2-0.7l6.6-14.5l-6.4-1.6l-3.5,8.3"/>
		</g>
		<g opacity="0.35">
			<path fill="#231F20" d="M143.1,196.3l-6.2,14.8c0,0,1.7,3.5,6,1.4l6.6-14.5L143.1,196.3z"/>
		</g>
		<g opacity="0.35">
			<path fill="#231F20" d="M134.9,188.5l-6.2,14.8c0,0,1.7,3.5,6,1.4l6.6-14.5L134.9,188.5z"/>
		</g>
		<g>
			<circle fill="#D1D3D4" cx="138" cy="189.9" r="3.3"/>
		</g>
		<g>
			<circle fill="#D1D3D4" cx="138" cy="206.5" r="3.3"/>
		</g>
		<g>
			<circle fill="#D1D3D4" cx="146.2" cy="197.6" r="3.3"/>
		</g>
		<g>
			<circle fill="#D1D3D4" cx="129.5" cy="197.6" r="3.3"/>
		</g>
	</g>
	<g>
		<rect x="240.2" y="232" fill="#ACAEB5" width="113.7" height="11.1"/>
	</g>
	<g>
		<path fill="#97989E" d="M279.9,232.4c0,1.5-1,2.7-2.1,2.7h-28.1c-1.2,0-2.1-1.2-2.1-2.7l0,0c0-1.5,1-2.7,2.1-2.7h28.1
			C278.9,229.6,279.9,230.9,279.9,232.4L279.9,232.4z"/>
	</g>
	<g>
		<path fill="#97989E" d="M315,232c0,1.5-1,2.7-2.1,2.7h-28.1c-1.2,0-2.1-1.2-2.1-2.7l0,0c0-1.5,1-2.7,2.1-2.7h28.1
			C314.1,229.3,315,230.5,315,232L315,232z"/>
	</g>
	<g>
		<path fill="#97989E" d="M350.2,232c0,1.5-1,2.7-2.1,2.7H320c-1.2,0-2.1-1.2-2.1-2.7l0,0c0-1.5,1-2.7,2.1-2.7h28.1
			C349.2,229.3,350.2,230.5,350.2,232L350.2,232z"/>
	</g>
	<g>
		<rect x="240.2" y="232" fill="#97989E" width="7.1" height="29.7"/>
	</g>
	<g>
		<rect x="351.5" y="232" fill="#97989E" width="7.1" height="29.7"/>
	</g>
	<g opacity="0.35">
		<polygon fill="#231F20" points="247.3,243.2 351.7,243.2 247.3,261.7 		"/>
	</g>
	<g>
		<rect x="465.9" y="232" fill="#ACAEB5" width="113.7" height="11.1"/>
	</g>
	<g>
		<path fill="#97989E" d="M505.6,232.4c0,1.5-1,2.7-2.1,2.7h-28.1c-1.2,0-2.1-1.2-2.1-2.7l0,0c0-1.5,1-2.7,2.1-2.7h28.1
			C504.6,229.6,505.6,230.9,505.6,232.4L505.6,232.4z"/>
	</g>
	<g>
		<path fill="#97989E" d="M540.7,232c0,1.5-1,2.7-2.1,2.7h-28.1c-1.2,0-2.1-1.2-2.1-2.7l0,0c0-1.5,1-2.7,2.1-2.7h28.1
			C539.8,229.3,540.7,230.5,540.7,232L540.7,232z"/>
	</g>
	<g>
		<path fill="#97989E" d="M575.9,232c0,1.5-1,2.7-2.1,2.7h-28.1c-1.2,0-2.1-1.2-2.1-2.7l0,0c0-1.5,1-2.7,2.1-2.7h28.1
			C574.9,229.3,575.9,230.5,575.9,232L575.9,232z"/>
	</g>
	<g>
		<rect x="465.9" y="232" fill="#97989E" width="7.1" height="29.7"/>
	</g>
	<g>
		<rect x="577.2" y="232" fill="#97989E" width="7.1" height="29.7"/>
	</g>
	<g opacity="0.35">
		<polygon fill="#231F20" points="473,243.2 577.4,243.2 473,261.7 		"/>
	</g>
	<g>
		<g>
			<rect x="681.1" y="232.4" fill="#ACAEB5" width="113.7" height="11.1"/>
		</g>
		<g>
			<path fill="#97989E" d="M720.8,232.8c0,1.5-1,2.7-2.1,2.7h-28.1c-1.2,0-2.1-1.2-2.1-2.7l0,0c0-1.5,1-2.7,2.1-2.7h28.1
				C719.8,230.1,720.8,231.3,720.8,232.8L720.8,232.8z"/>
		</g>
		<g>
			<path fill="#97989E" d="M755.9,232.4c0,1.5-1,2.7-2.1,2.7h-28.1c-1.2,0-2.1-1.2-2.1-2.7l0,0c0-1.5,1-2.7,2.1-2.7h28.1
				C755,229.7,755.9,230.9,755.9,232.4L755.9,232.4z"/>
		</g>
		<g>
			<path fill="#97989E" d="M791.1,232.4c0,1.5-1,2.7-2.1,2.7h-28.1c-1.2,0-2.1-1.2-2.1-2.7l0,0c0-1.5,1-2.7,2.1-2.7h28.1
				C790.1,229.7,791.1,230.9,791.1,232.4L791.1,232.4z"/>
		</g>
		<g>
			<rect x="681.1" y="232.4" fill="#97989E" width="7.1" height="29.7"/>
		</g>
		<g>
			<rect x="792.4" y="232.4" fill="#97989E" width="7.1" height="29.7"/>
		</g>
		<g opacity="0.35">
			<polygon fill="#231F20" points="688.2,243.6 792.6,243.6 688.2,262.1 			"/>
		</g>
	</g>
	<g>
		<rect x="65.3" y="261.7" fill="#808285" width="1278.8" height="50.1"/>
	</g>
	<g>
		<polyline fill="#6D6E71" points="271.8,262.1 262.6,270.3 255.9,295 263.9,271.8 281.5,261.7 271.6,261.7 		"/>
	</g>
	<g>
		<polygon fill="#6D6E71" points="844.5,261.7 863.6,271.1 859.4,284.3 843.5,295.9 860.7,285.5 864.5,271.4 885.2,278.8 
			900.3,308.9 886.5,278.2 865.5,270.4 852.9,261.7 		"/>
	</g>
	<g>
		<rect x="835.7" y="140.6" fill="#B0B8EA" width="104.1" height="120.9"/>
	</g>
	<g>
		<polygon fill="#C8D1FC" points="842.8,261.5 916.3,140.6 932.8,140.6 861.5,261.5 		"/>
	</g>
	<g>
		<rect x="955.3" y="140.6" fill="#B0B8EA" width="104.1" height="120.9"/>
	</g>
	<g>
		<polygon fill="#C8D1FC" points="962.4,261.5 1035.9,140.6 1052.4,140.6 981.1,261.5 		"/>
	</g>
	<g>
		<rect x="1073.6" y="141.2" fill="#B0B8EA" width="104.1" height="120.9"/>
	</g>
	<g>
		<polygon fill="#C8D1FC" points="1080.7,262.1 1154.2,141.2 1170.7,141.2 1099.4,262.1 		"/>
	</g>
	<g opacity="0.35">
		<polygon fill="#231F20" points="205.5,132 1190.8,132 205.5,214.6 		"/>
	</g>
	<g>
		<polygon fill="#FFF8B8" points="391.8,137 253.4,137 250.9,132 394.3,132 		"/>
	</g>
	<g>
		<polygon fill="#FFF8B8" points="590.9,137 452.5,137 450,132 593.4,132 		"/>
	</g>
	<g>
		<polygon fill="#FFF8B8" points="790,137 651.6,137 649.1,132 792.5,132 		"/>
	</g>
	<g>
		<polygon fill="#FFF8B8" points="989.1,137 850.7,137 848.2,132 991.6,132 		"/>
	</g>
	<g>
		<polygon fill="#FFF8B8" points="1188.2,137 1049.8,137 1047.3,132 1190.8,132 		"/>
	</g>
	<g>
		<g>
			<rect x="872.3" y="231" fill="#ACAEB5" width="113.7" height="11.1"/>
		</g>
		<g>
			<path fill="#97989E" d="M912,231.3c0,1.5-1,2.7-2.1,2.7h-28.1c-1.2,0-2.1-1.2-2.1-2.7l0,0c0-1.5,1-2.7,2.1-2.7h28.1
				C911.1,228.6,912,229.8,912,231.3L912,231.3z"/>
		</g>
		<g>
			<path fill="#97989E" d="M947.2,231c0,1.5-1,2.7-2.1,2.7H917c-1.2,0-2.1-1.2-2.1-2.7l0,0c0-1.5,1-2.7,2.1-2.7H945
				C946.2,228.2,947.2,229.5,947.2,231L947.2,231z"/>
		</g>
		<g>
			<path fill="#97989E" d="M982.3,231c0,1.5-1,2.7-2.1,2.7h-28.1c-1.2,0-2.1-1.2-2.1-2.7l0,0c0-1.5,1-2.7,2.1-2.7h28.1
				C981.4,228.2,982.3,229.5,982.3,231L982.3,231z"/>
		</g>
		<g>
			<rect x="872.3" y="231" fill="#97989E" width="7.1" height="29.7"/>
		</g>
		<g>
			<rect x="983.6" y="231" fill="#97989E" width="7.1" height="29.7"/>
		</g>
		<g opacity="0.35">
			<polygon fill="#231F20" points="879.4,242.2 983.9,242.2 879.4,260.6 			"/>
		</g>
	</g>
	<g>
		<g>
			<rect x="1056.6" y="231.8" fill="#ACAEB5" width="113.7" height="11.1"/>
		</g>
		<g>
			<path fill="#97989E" d="M1096.3,232.2c0,1.5-1,2.7-2.1,2.7H1066c-1.2,0-2.1-1.2-2.1-2.7l0,0c0-1.5,1-2.7,2.1-2.7h28.1
				C1095.3,229.5,1096.3,230.7,1096.3,232.2L1096.3,232.2z"/>
		</g>
		<g>
			<path fill="#97989E" d="M1131.4,231.8c0,1.5-1,2.7-2.1,2.7h-28.1c-1.2,0-2.1-1.2-2.1-2.7l0,0c0-1.5,1-2.7,2.1-2.7h28.1
				C1130.5,229.1,1131.4,230.3,1131.4,231.8L1131.4,231.8z"/>
		</g>
		<g>
			<path fill="#97989E" d="M1166.6,231.8c0,1.5-1,2.7-2.1,2.7h-28.1c-1.2,0-2.1-1.2-2.1-2.7l0,0c0-1.5,1-2.7,2.1-2.7h28.1
				C1165.6,229.1,1166.6,230.3,1166.6,231.8L1166.6,231.8z"/>
		</g>
		<g>
			<rect x="1056.6" y="231.8" fill="#97989E" width="7.1" height="29.7"/>
		</g>
		<g>
			<rect x="1167.9" y="231.8" fill="#97989E" width="7.1" height="29.7"/>
		</g>
		<g opacity="0.35">
			<polygon fill="#231F20" points="1063.7,243 1168.1,243 1063.7,261.5 			"/>
		</g>
	</g>
	<g>
		<g>
			<rect x="258.2" y="40.4" fill="#9E9E9E" width="0.2" height="74.1"/>
		</g>
	</g>
	<g>
		<g>
			<circle fill="#0072BC" cx="221.3" cy="77.5" r="24.2"/>
		</g>
		<g>
			<g>
				<path fill="#FFFFFF" d="M220.3,74.6c0.1,0,0.3,0,0.3,0c0.4,0,0.7-0.3,0.7-0.7c0-0.2-0.1-0.3-0.1-0.4c-0.6-1.5,0.6-3.3,1.5-4.6
					c0.2-0.3,0.4-0.6,0.5-0.8c1.1-1.7,1.3-3.3,0.9-4.9c-0.9-3-4.2-4.7-4.4-4.7c-0.3-0.1-0.6-0.1-0.8,0.1c-0.2,0.2-0.3,0.5-0.3,0.8
					c0.6,2.5-0.9,4.1-2.1,5.4c-0.2,0.2-0.4,0.4-0.6,0.7c-1.3,1.6-1.8,3.1-1.4,4.6C215.5,73,220.1,74.5,220.3,74.6z M217.2,66.4
					c0.2-0.2,0.4-0.4,0.6-0.6c1.1-1.1,2.6-2.8,2.7-5.1c0.9,0.6,1.9,1.6,2.2,2.9c0.3,1.1,0.1,2.4-0.7,3.7c-0.1,0.2-0.3,0.5-0.5,0.7
					c-0.8,1.2-2,2.9-2,4.6c-1.3-0.6-3-1.7-3.4-3.1C215.8,68.6,216.2,67.5,217.2,66.4z"/>
			</g>
			<g>
				<path fill="#FFFFFF" d="M224,69.6c-0.1,0.1-0.2,0.2-0.3,0.3c-0.7,0.8-1,1.7-0.7,2.5c0.5,1.6,2.7,2.4,3,2.5
					c0.1,0,0.1,0.1,0.2,0.1c0,0,0,0,0,0c0.3,0,0.6-0.3,0.6-0.6c0-0.1,0-0.3-0.1-0.4c-0.2-0.6,0.3-1.4,0.8-2c0.1-0.1,0.2-0.3,0.3-0.4
					c0.6-0.9,0.7-1.8,0.5-2.6c-0.5-1.6-2.2-2.4-2.3-2.5c-0.2-0.1-0.5-0.1-0.6,0.1c-0.2,0.1-0.3,0.4-0.2,0.6
					C225.3,68.3,224.6,69,224,69.6z M226.3,68.1c0.3,0.3,0.6,0.7,0.8,1.1c0.2,0.5,0,1.1-0.3,1.6c-0.1,0.1-0.1,0.2-0.2,0.3
					c-0.4,0.5-0.9,1.3-1,2.1c-0.6-0.3-1.1-0.7-1.3-1.3c-0.1-0.4,0-0.8,0.5-1.3c0.1-0.1,0.2-0.2,0.3-0.3
					C225.4,69.9,226.1,69.2,226.3,68.1z"/>
			</g>
			<g>
				<path fill="#FFFFFF" d="M227,75.7h-3.6c-0.4,0-0.8,0.4-0.8,0.8c0,0.4,0.4,0.8,0.8,0.8h2.8v1.2h-9.5v-1.2h4
					c0.4,0,0.8-0.4,0.8-0.8c0-0.4-0.4-0.8-0.8-0.8h-4.8c-0.4,0-0.8,0.4-0.8,0.8v2.8c0,0.4,0.4,0.8,0.8,0.8h0.3
					c0.1,1.5,1,2.7,2.5,3.4c0,0,0,0.1,0,0.1v11.1c0,0.2,0,0.7,0.4,1.2c0.5,0.6,1.3,0.8,2.4,0.8c2.2,0,2.8-1.3,2.8-2V83.7
					c0,0,0-0.1,0-0.1c1.4-0.7,2.4-2,2.5-3.4h0.3c0.4,0,0.8-0.4,0.8-0.8v-2.8C227.8,76.1,227.4,75.7,227,75.7z M222.6,94.7
					c0,0.2-0.3,0.4-1.2,0.4c-0.9,0-1.2-0.2-1.2-0.3c0,0,0-0.1,0-0.1V84.4h2.4V94.7z M221.4,82.6c-1.9,0-3.5-1.1-3.6-2.5h7.3
					C225,81.5,223.4,82.6,221.4,82.6z"/>
			</g>
		</g>
	</g>
	<g>
		<path fill="#FFFFFF" d="M290.5,82.1c0-1.2-0.5-2.3-1.4-3c-0.9-0.8-2.6-1.5-4.9-2.1c-3.3-0.9-5.9-2-7.7-3.5s-2.7-3.3-2.7-5.7
			c0-2.4,1-4.4,3-5.9c2-1.6,4.6-2.3,7.7-2.3c3.3,0,5.9,0.9,7.9,2.7c2,1.8,2.9,3.9,2.9,6.4l0,0.1h-4.8c0-1.5-0.5-2.8-1.6-3.7
			c-1-0.9-2.5-1.4-4.4-1.4c-1.8,0-3.2,0.4-4.2,1.2c-1,0.8-1.5,1.8-1.5,3.1c0,1.1,0.5,2.1,1.6,2.8c1.1,0.7,2.8,1.5,5.3,2.1
			c3.2,0.9,5.6,2,7.3,3.6c1.7,1.5,2.5,3.4,2.5,5.8c0,2.5-1,4.5-3,5.9c-2,1.5-4.6,2.2-7.8,2.2c-3.1,0-5.8-0.8-8.2-2.5
			c-2.3-1.7-3.5-3.9-3.4-6.8l0-0.1h4.8c0,1.8,0.6,3.2,1.9,4.1c1.3,0.9,2.9,1.3,4.9,1.3c1.8,0,3.3-0.4,4.3-1.1
			C290,84.4,290.5,83.4,290.5,82.1z"/>
		<path fill="#FFFFFF" d="M299.2,78.5c0-3.3,0.9-6,2.7-8.1c1.8-2.1,4.3-3.2,7.4-3.2c3.2,0,5.7,1.1,7.5,3.2c1.8,2.1,2.7,4.8,2.7,8.1
			v0.4c0,3.3-0.9,6.1-2.7,8.2c-1.8,2.1-4.3,3.1-7.4,3.1c-3.2,0-5.7-1.1-7.5-3.2c-1.8-2.1-2.7-4.8-2.7-8.1V78.5z M304.2,78.9
			c0,2.2,0.4,3.9,1.3,5.3c0.8,1.4,2.1,2,3.9,2c1.7,0,3-0.7,3.9-2c0.9-1.4,1.3-3.1,1.3-5.3v-0.4c0-2.1-0.4-3.9-1.3-5.2
			c-0.9-1.4-2.2-2.1-3.9-2.1c-1.7,0-3,0.7-3.9,2.1c-0.8,1.4-1.3,3.1-1.3,5.2V78.9z"/>
		<path fill="#FFFFFF" d="M333,86.2c1.2,0,2.2-0.4,3.1-1.1c0.8-0.7,1.2-1.6,1.2-2.7h4.5l0,0.1c0.1,2.1-0.8,3.9-2.5,5.4
			c-1.8,1.5-3.9,2.3-6.3,2.3c-3.3,0-5.8-1.1-7.5-3.2c-1.7-2.1-2.6-4.8-2.6-8v-0.7c0-3.2,0.9-5.9,2.6-8c1.7-2.1,4.2-3.2,7.5-3.2
			c2.7,0,4.8,0.8,6.5,2.3c1.7,1.5,2.5,3.5,2.4,5.9l0,0.1h-4.5c0-1.2-0.4-2.2-1.2-3.1c-0.8-0.8-1.8-1.3-3.1-1.3c-1.9,0-3.2,0.7-4,2
			s-1.2,3.1-1.2,5.1v0.7c0,2.1,0.4,3.8,1.2,5.1C329.8,85.6,331.2,86.2,333,86.2z"/>
		<path fill="#FFFFFF" d="M350.8,70.5c0.7-1,1.6-1.8,2.7-2.4c1.1-0.6,2.2-0.9,3.5-0.9c2.3,0,4.2,0.7,5.5,2.2c1.3,1.5,2,3.8,2,6.9
			v13.5h-5V76.2c0-1.7-0.3-3-1-3.8c-0.7-0.8-1.7-1.2-3.1-1.2c-1,0-1.8,0.2-2.6,0.6c-0.8,0.4-1.4,1-1.9,1.7v16.2h-5v-32h5V70.5z"/>
		<path fill="#FFFFFF" d="M375,62.2h-5v-4.4h5V62.2z M375,89.8h-5V67.6h5V89.8z"/>
	</g>
	<g>
		<g>
			<path fill="#D9F0F9" d="M843.5,104.1c-6.9,0.4-13.7,3.5-18.6,8.5c-0.8,0.8-1.6,2.1-0.9,3c0.4,0.5,1.1,0.6,1.7,0.7
				c1.8,0.2,3.5,0.4,5.3,0.6c1,0.1,2.2,0.3,2.9,1.1c0.5,0.5,0.7,1.3,0.8,2c0.5,2.6,0.6,5.2,0.5,7.8c-0.1,1.7-0.3,3.5,0.6,5
				c1.5,2.7,5.7,2.7,8.3,1c2.6-1.7,4.3-4.5,6.4-6.8c2.1-2.3,5.2-4.2,8.2-3.3c3.8,1.1,5.9,6.4,9.8,6c4.2-0.4,5.4-7,9.6-7.8
				c1.4-0.2,2.8,0.2,4.1,0.7c2.9,1.1,6.2,2.2,8.9,0.7c1.2-0.7,2-1.7,3.2-2.5c1.9-1.2,4.2-1.3,6.4-1.6c2.2-0.2,4.6-0.7,6.1-2.4
				c1.5-1.7,1.3-4.8-0.8-5.6c-1.2-0.4-2.5,0-3.8,0.2c-3.1,0.3-6-1.4-8.9-2.6c-9.5-4-20.3-2.4-30.5-2c-2.5,0.1-5.2,0.1-7.2-1.3
				c-1.1-0.7-1.9-1.8-3-2.6c-2.2-1.5-5.3-1.5-7.8-0.5c-2.5,1-4.7,2.7-6.7,4.5"/>
		</g>
		<g>
			<path fill="#A7BFC6" d="M862.1,115.3c-1.6,0.1-2.8,1.7-4.4,1.6c-1.7-0.1-3.1-2.1-4.8-1.8c-0.9,0.1-1.5,0.8-2.3,1.3
				c-0.7,0.5-1.8,0.8-2.4,0.2c-0.6-0.5-0.5-1.5-1-2.2c-0.7-0.9-2.1-0.6-3.2-0.9c-0.8-0.3-1.4-0.9-2-1.4c-2.9-2.1-7-0.8-10.2,0.9
				c2-1,4.5,0.1,5.8,2c1.2,1.9,1.4,4.2,1.5,6.4c0.1,2.2,0.2,4.5,1.1,6.5c0.2,0.3,0.4,0.6,0.7,0.8c0.4,0.1,0.8-0.1,1.2-0.3
				c3.3-1.9,6.3-4.2,9-6.9c0.7-0.7,1.3-1.3,2.1-1.7c2.3-1,4.8,0.8,6.7,2.4c1.9,1.6,4.7,3.2,6.8,1.9c1.6-1,2.1-3.4,3.9-4.2
				c1-0.5,2.2-0.3,3.4-0.2c2.2,0.1,4.4-0.5,6.3-1.6c0.3-0.2,0.5-0.3,0.7-0.6c0.5-0.8,0-1.9-0.8-2.4c-1.9-1.2-4.4-0.2-6.4,0.9
				s-4.2,2.5-6.3,1.8C865.5,117.1,864.1,115.1,862.1,115.3z"/>
		</g>
	</g>
	<g>
		<g>
			<path fill="#D9F0F9" d="M626.4,42.3c0.2,12.6-0.8,25.2-3.2,37.6c-0.7,3.7-1.7,7.8-4.9,9.9c-1.9-1.3-2.9-3.6-3.5-5.8
				c-2.4-7.8-2.6-16.4-6.9-23.4c-0.8-1.4-2.1-2.8-3.7-2.6c-3.3,0.4-3.4,6.6-6.7,6.5c-0.8,0-1.6-0.5-2.2-1.1c-1.5-1.5-2-3.7-3-5.6
				s-2.7-3.8-4.9-3.5c-1.4,0.2-2.5,1.2-3.5,2.2c-1.7,1.7-3.3,3.5-5.5,4.4c-2.2,0.9-5.1,0.6-6.4-1.4c-1.2-1.9-0.9-5-3-5.9
				c-1.1-0.5-2.3-0.1-3.4,0.4c-2.4,1.1-4.6,2.8-7.1,3.8c-2.5,1-5.6,1.3-7.7-0.4c-1.9-1.4-3.1-4.2-5.5-4.3c-0.8,0-1.6,0.4-2.5,0.6
				c-3,0.8-6.5-0.7-8-3.4c-0.8-1.4-1.1-3.2-2.3-4.3c-0.7-0.7-1.6-1-2.5-1.4c-2.7-1.3-5.1-3.2-7-5.5c11-2.3,22-4.7,33.2-4.6
				c2.5,0,5,0.2,7.5-0.1c3.5-0.4,6.9-1.6,10.4-1.7c3.2-0.1,6.4,0.7,9.5,0.3c3.2-0.4,6.2-2.2,9.5-2.2c2.4-0.1,4.8,0.8,7.2,1.1
				c3.4,0.4,6.9-0.4,10.3,0c4.5,0.6,8.4,3.4,12,6c1.1,0.8,2.2,1.6,2.8,2.8c0.4,0.8,0.6,1.8,0.7,2.7c0.2,2.4,0.1,4.9-0.5,7.3"/>
		</g>
		<g>
			<path fill="#A7BFC6" d="M620.3,51.4c1.5,7.8,1.7,15.9,0.7,23.8c-0.1,1.1-0.8,2.6-1.9,2.3c-0.7-0.2-1-0.9-1.2-1.6
				c-1.5-4.8-3.1-9.6-4.6-14.4c-0.8-2.5-1.6-5-2.9-7.3c-0.8-1.3-1.9-2.7-3.4-2.9c-3.3-0.4-4.7,4.5-7.8,5.5c-0.9-3.1-2.8-5.9-5.3-7.9
				c-0.2-0.2-0.5-0.4-0.5-0.7c0-0.2,0.1-0.3,0.1-0.4c1-1.8,4.2-1.5,4.9,0.4c0.1,0.4,0.2,0.8,0.4,1.1c0.6,0.9,2,0.7,3.1,0.3
				c1.5-0.7,2.9-1.7,4.4-2.3s3.4-1,4.8-0.2c2.3,1.2,3,4.3,5.3,5.5c1.1-0.4,1.2-1.8,1.5-2.9c0.3-1.1,1.6-2.3,2.4-1.5
				c0.2,0.2,0.3,0.6,0.4,0.9c0.6,2.6,0.8,5.2,0.7,7.8"/>
		</g>
		<g>
			<path fill="#A7BFC6" d="M547.5,46.8c-1.4-0.7-3.1-0.4-4.6-0.8s-2.9-2.3-1.8-3.4c3.3-0.5,6.8,0.1,9.8,1.6c1,0.5,2,1.1,3.1,1.3
				c2,0.2,4-1.1,6-0.8c2.4,0.4,4.3,3,6.6,2.4c1.2-0.3,2-1.4,3.1-1.9c1.4-0.6,3.1-0.3,4.6,0.1c3.4,0.9,6.7,1.7,10.1,2.6
				c-0.7,2.7-1.9,5.2-3.6,7.5c-0.3,0.5-0.7,0.9-1.2,1.1c-1.6,0.7-3.1-1.2-3.6-2.8c-0.5-1.7-0.8-3.7-2.3-4.4
				c-2.9-1.4-5.9,3.3-8.9,2.4c-0.7-0.2-1.3-0.8-2.1-0.9c-0.9-0.1-1.7,0.5-2.6,0.9c-3.4,1.6-7.6-0.3-10.3-2.9
				C549.1,48,548.4,47.3,547.5,46.8z"/>
		</g>
	</g>
	<g>
		<g>
			<path fill="#D9F0F9" d="M1192.6,104.6c-3.2,0.5-6.5,1.1-9.7,1.6c-4.7,0.8-9.8,1.8-13,5.3c-0.6,0.7-1.2,1.6-1.3,2.5
				c-0.1,1,0.6,2,1.5,2.1c0.7,0.1,1.5-0.4,2.2-0.2c0.9,0.2,1.3,1.4,1.4,2.3c0.5,4.3,0,9,1.9,12.9c0.4,0.9,1.2,1.8,2.2,1.5
				c0.5-0.1,0.8-0.5,1-0.9c1.6-2.2,2.8-4.7,3.5-7.3c0.5-1.7,1-3.6,2.5-4.4c2.3,3.7,1.2,8.7,2.9,12.8c0.2,0.4,0.5,0.9,0.9,0.9
				c0.4,0,0.8-0.3,1.1-0.6c1.1-0.7,2.7-0.2,3.5,0.8c0.9,1,1.2,2.3,1.5,3.6c1.1,4.5,2.2,8.9,3.4,13.4c0.2,0.7,0.6,1.6,1.3,1.5
				c0.7-0.1,0.9-1,0.9-1.7c0.1-3.3,0.2-6.6,0.3-10c0.1-3,0.2-6.1,0.3-9.1c0.2-7.3,0.4-14.8-2.1-21.7c-0.9-2.5-2.6-5.2-5.3-5.5
				c-2.4-0.3-5.1,1.4-7.1-0.1"/>
		</g>
		<g>
			<path fill="#A7BFC6" d="M1181.7,116.8c-0.3,0.4-0.7,0.7-1.2,0.7c-0.9,0-1.3-1.1-1.4-1.9s0-1.9-0.6-2.5c-0.8-0.6-1.9,0-2.4,0.8
				c-0.4,0.8-0.4,1.8-0.2,2.8c0.4,3.2,1.1,6.3,2.1,9.3c1.6-2.8,3.1-5.7,4.7-8.5c0.2-0.4,0.5-0.8,0.9-1c0.9-0.4,1.8,0.4,2.3,1.1
				c1.7,2.5,2.3,5.5,2.8,8.4c0.1,0.6,0.3,1.4,0.9,1.5c1.2,0.2,1.4-2.1,2.6-2.2c0.7,0,1.1,0.8,1.4,1.5c0.9,2.9,1.9,5.7,2.8,8.6
				c0.4,1.1,1.2,2.4,2.3,2.1c0.4-5.3-0.3-10.6-2-15.7c-0.9,0-1.2,1.2-2,1.5c-0.8,0.3-1.7-0.2-2.1-0.9s-0.5-1.6-0.8-2.4
				c-0.5-1.9-1.8-3.6-3-5.2c-0.4-0.6-0.9-1.1-1.5-1.4c-1.1-0.5-2.4,0-3.3,0.7C1183.1,115,1182.5,116,1181.7,116.8z"/>
		</g>
		<g>
			<path fill="#FFFFFF" d="M1188.7,107.3c-0.9-0.4-2,0.2-2.8,0.7c-1.5,1-3,1.9-4.5,2.9c-0.1,0.5,0.5,0.8,0.9,1
				c1.1,0.4,2.3,0.4,3.5,0.2c0.7-0.1,1.3-0.3,2-0.4c2.8-0.3,5.6,1.7,6.7,4.3c0.5,1.2,0.7,2.6,1.8,3.4c0.2,0.1,0.4,0.2,0.6,0.2
				c0.4-0.1,0.6-0.6,0.6-1c0.3-3.4-0.6-6.9-2.7-9.7c-0.2-0.3-0.4-0.6-0.7-0.8c-0.5-0.4-1.3-0.4-1.9-0.4
				C1189.7,107.9,1190.9,106.3,1188.7,107.3z"/>
		</g>
	</g>
	<g>
		<path fill="#D9F0F9" d="M573.2,252.3c5.6,0.4,11,2.8,14.9,6.8c0.6,0.7,1.3,1.7,0.7,2.4c-0.3,0.4-0.9,0.5-1.4,0.5
			c-1.4,0.2-2.8,0.3-4.3,0.5c-0.8,0.1-1.7,0.2-2.3,0.9c-0.4,0.4-0.5,1-0.6,1.6c-0.4,2-0.5,4.1-0.4,6.2c0.1,1.3,0.2,2.8-0.5,4
			c-1.2,2.2-4.5,2.2-6.6,0.8c-2.1-1.4-3.4-3.6-5.1-5.4s-4.2-3.4-6.6-2.7c-3,0.9-4.7,5.1-7.9,4.8c-3.4-0.3-4.4-5.6-7.7-6.2
			c-1.1-0.2-2.2,0.2-3.3,0.6c-2.3,0.9-5,1.8-7.1,0.6c-0.9-0.5-1.6-1.4-2.5-2c-1.5-1-3.4-1.1-5.1-1.2c-1.8-0.2-3.7-0.6-4.9-1.9
			c-1.2-1.3-1-3.9,0.6-4.5c1-0.3,2,0,3,0.1c2.5,0.3,4.8-1.1,7.2-2.1c7.6-3.2,16.2-2,24.5-1.6c2,0.1,4.1,0.1,5.8-1.1
			c0.9-0.6,1.5-1.5,2.4-2.1c1.8-1.2,4.2-1.2,6.2-0.4s3.7,2.2,5.4,3.6"/>
	</g>
	<g>
		<path fill="#A7BFC6" d="M558.3,261.2c1.3,0.1,2.3,1.3,3.5,1.3c1.4-0.1,2.5-1.7,3.8-1.5c0.7,0.1,1.2,0.7,1.8,1.1
			c0.6,0.4,1.4,0.6,1.9,0.2c0.5-0.4,0.4-1.2,0.8-1.7c0.6-0.7,1.7-0.5,2.5-0.8c0.6-0.2,1.1-0.8,1.6-1.1c2.4-1.7,5.6-0.6,8.2,0.7
			c-1.6-0.8-3.6,0.1-4.6,1.6c-1,1.5-1.1,3.4-1.2,5.2c-0.1,1.8-0.1,3.6-0.9,5.2c-0.1,0.3-0.3,0.5-0.6,0.6c-0.3,0.1-0.6-0.1-0.9-0.2
			c-2.6-1.5-5.1-3.4-7.2-5.5c-0.5-0.5-1-1.1-1.7-1.4c-1.9-0.8-3.9,0.6-5.4,1.9c-1.6,1.3-3.7,2.6-5.5,1.5c-1.3-0.8-1.7-2.7-3.1-3.4
			c-0.8-0.4-1.8-0.2-2.7-0.2c-1.7,0.1-3.5-0.4-5-1.3c-0.2-0.1-0.4-0.3-0.6-0.5c-0.4-0.6,0-1.5,0.7-1.9c1.5-1,3.5-0.2,5.1,0.7
			s3.3,2,5.1,1.4C555.6,262.7,556.7,261.1,558.3,261.2z"/>
	</g>
	<g>
		<g>
			<path fill="#D9F0F9" d="M1338.3,254.5c-4.2,0.2-8.5,0.5-12.7,0.7c-6.2,0.3-12.9,0.8-17.3,4.1c-0.9,0.6-1.7,1.4-1.8,2.4
				c-0.1,1,0.6,2.1,1.8,2.3c1,0.2,2-0.2,2.9,0c1.2,0.3,1.6,1.5,1.6,2.5c0.4,4.4-0.6,8.9,1.5,13.1c0.5,0.9,1.5,1.9,2.7,1.7
				c0.6-0.1,1-0.5,1.4-0.8c2.2-2.1,3.9-4.4,5.1-7c0.7-1.6,1.5-3.5,3.6-4.1c2.8,3.9,0.9,8.8,2.9,13c0.2,0.4,0.5,0.9,1.1,1
				c0.5,0.1,1-0.3,1.5-0.5c1.5-0.6,3.5,0,4.5,1.1c1.1,1.1,1.4,2.4,1.7,3.7c1.1,4.6,2.3,9.1,3.4,13.7c0.2,0.7,0.6,1.6,1.6,1.6
				c0.9,0,1.2-0.9,1.3-1.6c0.4-3.3,0.7-6.6,1.1-9.9c0.3-3,0.7-6.1,1-9.1c0.8-7.3,1.6-14.7-1.2-21.8c-1-2.6-3-5.4-6.5-6
				c-3.1-0.5-6.8,0.9-9.2-0.7"/>
		</g>
		<g>
			<path fill="#A7BFC6" d="M1323.3,265.7c-0.5,0.3-1,0.6-1.7,0.6c-1.1-0.1-1.7-1.2-1.7-2.1c0-0.9,0.2-1.9-0.6-2.5
				c-0.9-0.6-2.5-0.2-3.1,0.6s-0.6,1.8-0.5,2.7c0.3,3.2,1,6.4,2.1,9.5c2.2-2.7,4.5-5.4,6.7-8.1c0.3-0.4,0.6-0.8,1.2-0.9
				c1.1-0.3,2.3,0.5,3,1.4c2,2.6,2.7,5.7,3,8.7c0.1,0.6,0.3,1.4,1.1,1.6c1.5,0.3,2-2,3.5-1.9c0.9,0,1.4,0.9,1.7,1.6
				c1,2.9,2.1,5.9,3.1,8.8c0.4,1.1,1.4,2.5,2.8,2.3c0.9-5.2,0.4-10.6-1.4-15.8c-1.1,0-1.7,1.1-2.7,1.3c-1,0.3-2.2-0.3-2.7-1.1
				c-0.5-0.8-0.6-1.6-0.8-2.4c-0.6-2-2-3.7-3.5-5.4c-0.5-0.6-1-1.2-1.8-1.6c-1.4-0.6-3.1-0.3-4.3,0.4S1324.4,264.9,1323.3,265.7z"/>
		</g>
		<g>
			<path fill="#FFFFFF" d="M1333.1,256.9c-1.2-0.5-2.6,0-3.7,0.4c-2,0.8-4.1,1.7-6.1,2.5c-0.2,0.5,0.5,0.9,1.1,1.1
				c1.4,0.5,3,0.7,4.5,0.6c0.9-0.1,1.8-0.2,2.7-0.2c3.7-0.1,7.2,2.2,8.3,5c0.5,1.2,0.8,2.7,2.1,3.5c0.2,0.1,0.5,0.2,0.8,0.2
				c0.6,0,0.8-0.5,0.9-1c0.7-3.4-0.3-6.9-2.8-9.9c-0.3-0.3-0.5-0.6-0.9-0.8c-0.7-0.4-1.6-0.5-2.5-0.5
				C1334.4,257.6,1336,256.1,1333.1,256.9z"/>
		</g>
	</g>
	<g>
		<g>
			<g>
				
					<rect x="734.3" y="182.8" transform="matrix(0.9378 -0.3471 0.3471 0.9378 -17.1903 274.6184)" fill="#EA0100" width="47.3" height="5.1"/>
			</g>
			<g>
				
					<rect x="736.1" y="187.3" transform="matrix(0.9378 -0.3471 0.3471 0.9378 -18.7721 275.5488)" fill="#EE7F00" width="47.3" height="5.7"/>
			</g>
			<g>
				
					<rect x="738.1" y="192.8" transform="matrix(0.9378 -0.3471 0.3471 0.9378 -20.4567 276.5398)" fill="#FEFF00" width="47.3" height="5.2"/>
			</g>
			<g>
				
					<rect x="739.9" y="197.6" transform="matrix(0.9378 -0.3471 0.3471 0.9378 -22.033 277.467)" fill="#67EB00" width="47.3" height="5.2"/>
			</g>
			<g>
				
					<rect x="741.6" y="202.5" transform="matrix(0.9378 -0.3471 0.3471 0.9378 -23.5979 278.3875)" fill="#2653B5" width="47.3" height="5.2"/>
			</g>
			<g>
				
					<rect x="743.4" y="207.2" transform="matrix(0.9378 -0.3471 0.3471 0.9378 -25.1309 279.2893)" fill="#4A00D5" width="47.3" height="5.2"/>
			</g>
		</g>
		<g>
			
				<rect x="736.5" y="185.2" transform="matrix(-0.9182 -0.3961 0.3961 -0.9182 1339.1171 662.0043)" fill="#F9E8A2" width="2.8" height="15"/>
		</g>
		<g>
			
				<rect x="785.2" y="194.2" transform="matrix(-0.9182 -0.3961 0.3961 -0.9182 1429.0095 698.4336)" fill="#F9E8A2" width="2.8" height="15"/>
		</g>
	</g>
	<g>
		<circle fill="#D9F0F9" cx="887.8" cy="57.6" r="8.1"/>
	</g>
	<g>
		<circle fill="#D9F0F9" cx="298.9" cy="194.4" r="8.1"/>
	</g>
	<g>
		<circle fill="#D9F0F9" cx="714.7" cy="134.5" r="8.1"/>
	</g>
	<g>
		<circle fill="#D9F0F9" cx="1015.6" cy="199.1" r="8.1"/>
	</g>
	<g>
		<circle fill="#D9F0F9" cx="1139.5" cy="74.6" r="8.1"/>
	</g>
	<g>
		<circle fill="#D9F0F9" cx="662.2" cy="16.4" r="8.1"/>
	</g>
	<g>
		<circle fill="#D9F0F9" cx="94.1" cy="82.7" r="8.1"/>
	</g>
	<g>
		<circle fill="#D9F0F9" cx="197.1" cy="196.4" r="8.1"/>
	</g>
	<g>
		<circle fill="#D9F0F9" cx="744" cy="16.4" r="8.1"/>
	</g>
	<g>
		<circle fill="#D9F0F9" cx="1289.7" cy="205.1" r="8.1"/>
	</g>
	<g>
		<circle fill="#D9F0F9" cx="1289.7" cy="46.6" r="8.1"/>
	</g>
	<g>
		<circle fill="#D9F0F9" cx="461.2" cy="231.3" r="8.1"/>
	</g>
	<g>
		<circle fill="#D9F0F9" cx="426.1" cy="8.3" r="8.1"/>
	</g>
	<g>
		<circle fill="#D9F0F9" cx="8.9" cy="240.3" r="8.1"/>
	</g>
	<g>
		<circle fill="#D9F0F9" cx="1139.5" cy="228.2" r="8.1"/>
	</g>
	<g>
		<circle fill="#D9F0F9" cx="1036.3" cy="24.5" r="8.1"/>
	</g>
	<g>
		<circle fill="#D9F0F9" cx="895.8" cy="214.9" r="8.1"/>
	</g>
	<g>
		<circle fill="#D9F0F9" cx="516.5" cy="134.5" r="8.1"/>
	</g>
	<g>
		<g>
			<path fill="#326EBE" d="M296.7,303.2c-5.5,0-10.3-3.7-11.8-8.9c-0.9-3.2-0.5-6.5,1.1-9.4c1.6-2.9,4.2-5,7.4-5.9
				c1.1-0.3,2.2-0.5,3.4-0.5c5.5,0,10.3,3.7,11.8,8.9c0.9,3.2,0.5,6.5-1.1,9.4c-1.6,2.9-4.2,5-7.4,5.9
				C299,303.1,297.8,303.2,296.7,303.2z M296.7,281.2c-0.9,0-1.8,0.1-2.7,0.4c-2.5,0.7-4.6,2.4-5.8,4.6c-1.3,2.3-1.6,4.9-0.8,7.4
				c1.2,4.2,5,7,9.3,7c0.9,0,1.8-0.1,2.7-0.4c2.5-0.7,4.6-2.4,5.8-4.6c1.3-2.3,1.6-4.9,0.8-7.4C304.8,284.1,301,281.2,296.7,281.2z"
				/>
		</g>
		<g>
			<path fill="#BE1E2D" d="M343.4,289.9c-5.5,0-10.3-3.7-11.8-8.9c-1.9-6.5,1.9-13.3,8.4-15.2c1.1-0.3,2.2-0.5,3.4-0.5
				c5.5,0,10.3,3.7,11.8,8.9c1.9,6.5-1.9,13.3-8.4,15.2C345.7,289.7,344.5,289.9,343.4,289.9z M343.4,267.9c-0.9,0-1.8,0.1-2.7,0.4
				c-5.2,1.5-8.1,6.9-6.7,12c1.2,4.2,5,7,9.3,7c0.9,0,1.8-0.1,2.7-0.4c5.2-1.5,8.1-6.9,6.7-12C351.6,270.7,347.7,267.9,343.4,267.9z
				"/>
		</g>
		<g>
			<path fill="#231F20" d="M320.1,296.5c-5.5,0-10.3-3.7-11.8-8.9c-0.9-3.2-0.5-6.5,1.1-9.4c1.6-2.9,4.2-5,7.4-5.9
				c1.1-0.3,2.2-0.5,3.4-0.5c5.5,0,10.3,3.7,11.8,8.9c0.9,3.2,0.5,6.5-1.1,9.4c-1.6,2.9-4.2,5-7.4,5.9
				C322.4,296.4,321.2,296.5,320.1,296.5z M320.1,274.5c-0.9,0-1.8,0.1-2.7,0.4c-2.5,0.7-4.6,2.4-5.8,4.6c-1.3,2.3-1.6,4.9-0.8,7.4
				c1.2,4.2,5,7,9.3,7c0.9,0,1.8-0.1,2.7-0.4c2.5-0.7,4.6-2.4,5.8-4.6c1.3-2.3,1.6-4.9,0.8-7.4C328.3,277.4,324.4,274.5,320.1,274.5
				z"/>
		</g>
		<g>
			<path fill="#006838" d="M334.7,303.2c-5.5,0-10.3-3.7-11.8-8.9c-1.9-6.5,1.9-13.3,8.4-15.2c1.1-0.3,2.2-0.5,3.4-0.5
				c5.5,0,10.3,3.7,11.8,8.9c0.9,3.2,0.5,6.5-1.1,9.4c-1.6,2.9-4.2,5-7.4,5.9C337,303,335.9,303.2,334.7,303.2z M334.7,281.2
				c-0.9,0-1.8,0.1-2.7,0.4c-5.2,1.5-8.1,6.9-6.7,12c1.2,4.2,5,7,9.3,7c0.9,0,1.8-0.1,2.7-0.4c2.5-0.7,4.6-2.4,5.8-4.6
				c1.3-2.3,1.6-4.9,0.8-7.4C342.9,284.1,339.1,281.2,334.7,281.2z"/>
		</g>
		<g>
			<path fill="#FBB040" d="M311,310.6c-5.5,0-10.3-3.7-11.8-8.9c-1.9-6.5,1.9-13.3,8.4-15.2c1.1-0.3,2.2-0.5,3.4-0.5
				c5.5,0,10.3,3.7,11.8,8.9c0.9,3.2,0.5,6.5-1.1,9.4c-1.6,2.9-4.2,5-7.4,5.9C313.2,310.4,312.1,310.6,311,310.6z M311,288.6
				c-0.9,0-1.8,0.1-2.7,0.4c-5.2,1.5-8.1,6.9-6.7,12c1.2,4.2,5,7,9.3,7c0.9,0,1.8-0.1,2.7-0.4c2.5-0.7,4.6-2.4,5.8-4.6
				c1.3-2.3,1.6-4.9,0.8-7.4C319.1,291.5,315.3,288.6,311,288.6z"/>
		</g>
	</g>
	<g id="_x32_itx2R.tif">
		<g>
			<g>
				<path fill="#FFFFFF" d="M1152.8,183.8c0,1.5,0,3,0,4.4c-20.8,0-41.6,0-62.5,0c0-9,0-18,0-27.1c8.7,0,17.3,0,26,0
					c0,0.3,0,0.5,0,0.8c0,3.7,0,7.5,0,11.2c0,0.2,0,0.5,0,0.7c1.2,0,2.4,0,3.6,0c0-2.1,0-4.1,0-6.2c0.5,0,1,0,1.5,0
					c0,2.1,0,4.1,0,6.2c1.2,0,2.3,0,3.5,0c0-0.1,0.1-0.2,0.1-0.2c0-2.2,0.1-4.4,0-6.5c-0.1-2-1.1-2.9-3.2-2.9c-0.3,0-0.6,0-0.8,0
					c-0.3,0-0.7,0-1,0c0-1.1,0-2.1,0-3c10.9,0,21.9,0,32.8,0c0,7.5,0,15,0,22.5c-0.3-0.7-0.5-1.4-0.8-2.1c0.2,1.9-0.3,2.7-2.1,3.2
					c-1.7,0.5-3.3,0.3-4.8-0.5c-0.8-0.4-1.5-0.9-2.3-1.3c1,1.3,2.3,2,3.7,2.6c0.9,0.3,1.9,0.6,2.8,0.7
					C1151.2,186.3,1152,185.7,1152.8,183.8z M1125,181.7c0-2.1,0-4.2,0-6.2c-1.2,0-2.4,0-3.5,0c0,2.4,0,4.7,0,7
					c0,1.5,1.1,2.5,2.6,2.6c0.5,0,1.1,0.1,1.6,0c0.7-0.1,0.9,0.2,0.8,0.8c-0.1,0.7,0,1.4,0,2.1c1.2,0,2.3,0,3.5,0
					c0-4.2,0-8.4,0-12.6c-1.2,0-2.3,0-3.5,0c0,2.1,0,4.1,0,6.2C1126,181.7,1125.6,181.7,1125,181.7z M1144.1,164.3c0,2.4,0,4.7,0,7
					c0,1.5,0.9,2.5,2.5,2.6c1.1,0.1,2.3,0.1,3.4,0.1c1.7-0.1,2.6-1,2.7-2.5c0.1-2.3,0-4.7,0-7c0-0.1,0-0.1-0.1-0.2
					c-1.1,0-2.2,0-3.5,0c0,2.1,0,4.1,0,6.2c-0.5,0-1,0-1.5,0c0-2.1,0-4.1,0-6.2C1146.5,164.3,1145.3,164.3,1144.1,164.3z
					 M1097,164.3c-1.7,0-3.3-0.1-4.9,0c-1,0.1-1.6,0.8-1.6,1.8c0,0.9,0.2,1.7,0.8,2.3c0.6,0.6,1.1,1.3,1.8,2c-0.9,0-1.7,0-2.4,0
					c0,1.2,0,2.3,0,3.3c1.7,0,3.3,0.1,5,0c0.9-0.1,1.5-0.8,1.5-1.8c0.1-0.9-0.2-1.6-0.8-2.3c-0.6-0.7-1.1-1.3-1.8-2.1
					c0.9,0,1.7,0,2.4,0c0-1,0-2,0-2.9C1097,164.6,1097,164.4,1097,164.3z M1100.8,178.8c-0.3,0.3-0.5,0.5-0.6,0.7
					c-0.5,0.6-1.1,1.2-1.5,1.8c-1,1.6-0.4,3.5,1.3,3.6c1.6,0.1,3.2,0,4.7,0c0-1.1,0-2.2,0-3.4c-0.8,0-1.5,0-2.4,0
					c0.4-0.5,0.7-0.8,1-1.2c0.4-0.5,0.8-0.9,1.1-1.4c0.9-1.5,0.4-3.3-1.2-3.5c-1.6-0.2-3.3,0-4.9,0c0,1.1,0,2.2,0,3.3
					C1099.2,178.8,1099.9,178.8,1100.8,178.8z M1114.9,164.3c-1.4,0-2.8-0.1-4.1,0c-1.3,0.1-2.2,1.1-2.2,2.4c0,1.5,0,3.1,0,4.6
					c0,1.2,0.8,2.2,1.9,2.3c1.5,0.2,2.9,0.2,4.4,0.2c0-1.2,0-2.3,0-3.5c-0.9,0-1.8,0-2.8,0c0-1,0-1.9,0-2.8c1,0,1.9,0,2.8,0
					C1114.9,166.5,1114.9,165.4,1114.9,164.3z M1098.4,169.1c0,0.7,0,1.4,0,2.1c0.1,1.5,0.9,2.5,2.4,2.7c1.3,0.1,2.6,0.1,3.8,0
					c1.6-0.1,2.4-0.9,2.5-2.4c0.1-1.5,0.1-3.1,0-4.6c-0.1-1.6-0.9-2.4-2.6-2.5c-1.2-0.1-2.5-0.1-3.8,0c-1.5,0.2-2.4,1.2-2.4,2.7
					C1098.3,167.7,1098.4,168.4,1098.4,169.1z M1114.9,180.3C1114.9,180.3,1114.9,180.3,1114.9,180.3c-0.1-0.7,0-1.5-0.1-2.2
					c-0.1-1.5-1-2.5-2.5-2.6c-1.2-0.1-2.5-0.1-3.7,0c-1.4,0.1-2.4,1-2.5,2.5c-0.1,1.6-0.1,3.1,0,4.7c0.1,1.4,1.1,2.4,2.5,2.4
					c1.2,0.1,2.4,0.1,3.7,0c1.3-0.1,2.2-0.8,2.5-2.1C1114.9,182.1,1114.9,181.2,1114.9,180.3z M1140.3,173.9c0-2.1,0-4.1,0-6.3
					c0.8,0,1.5,0,2.3,0c0-1.2,0-2.3,0-3.4c-0.9,0-1.8,0-2.7,0c-2.1,0-3.2,1.1-3.2,3.2c0,1.9,0,3.9,0,5.8c0,0.2,0,0.5,0,0.7
					C1137.9,173.9,1139,173.9,1140.3,173.9z M1126.6,164.2c0,3.3,0,6.4,0,9.7c1.2,0,2.3,0,3.4,0c0-3.2,0-6.4,0-9.7
					C1128.9,164.2,1127.7,164.2,1126.6,164.2z M1119.9,185c0-3.2,0-6.4,0-9.6c-1.2,0-2.3,0-3.5,0c0,3.2,0,6.4,0,9.6
					C1117.6,185,1118.8,185,1119.9,185z M1139.9,184.5c0-0.1,0-0.1,0-0.2c-1.6-0.5-2.1-1.4-1.7-3c0.3-1.1,0.8-2.2,1.7-2.9
					c1-0.7,2.1-1.3,3.2-1.9c0.3-0.1,0.5-0.3,1-0.5c-2.2,0-5.3,1.7-6.6,3.5c-0.3,0.4-0.6,0.9-0.7,1.4c-0.4,1.4,0.1,2.7,1.4,3.2
					C1138.7,184.4,1139.3,184.4,1139.9,184.5z M1142.4,178c-1.1,1.7-1.6,3.5-1.6,5.4c0,1.1,0,2.2,0.6,3.2c0.5,0.9,1.2,1.5,2.3,1.5
					c0.9,0,2-0.7,2.5-1.6c-1.2,0.8-2.1,0.8-2.9-0.1c-1.3-1.3-1.9-3-1.6-4.8C1141.8,180.5,1142.1,179.3,1142.4,178z M1131.7,173.9
					c1.2,0,2.3,0,3.4,0c0-1.1,0-2.2,0-3.4c-1.2,0-2.3,0-3.4,0C1131.7,171.7,1131.7,172.8,1131.7,173.9z"/>
			</g>
			<g>
				<path fill="#1C75BC" d="M1120,161.2c0,1,0,2,0,3c0.3,0,0.7,0,1,0c0.3,0,0.6,0,0.8,0c2,0,3.1,0.9,3.2,2.9c0.1,2.2,0,4.4,0,6.5
					c0,0.1,0,0.1-0.1,0.2c-1.1,0-2.3,0-3.5,0c0-2.1,0-4.1,0-6.2c-0.5,0-1,0-1.5,0c0,2,0,4.1,0,6.2c-1.2,0-2.4,0-3.6,0
					c0-0.2,0-0.5,0-0.7c0-3.7,0-7.5,0-11.2c0-0.3,0-0.5,0-0.8C1117.6,161.2,1118.8,161.2,1120,161.2z M1124.4,173.2
					c0-1.8-0.1-3.5,0-5.3c0.1-2.7-1-3.1-3.1-3.1c-0.6,0-1.3,0-2,0c0-1,0-2,0-2.9c-0.8,0-1.5,0-2.2,0c0,0.3,0,0.6,0,0.9
					c0,2.9,0,5.8,0,8.7c0,1.7,0,1.7,1.7,1.7c0.6,0,0.6-0.2,0.6-0.7c0-1.6,0-3.2,0-4.8c0-0.3,0-0.5,0-0.8c0.9,0,1.8,0,2.8,0
					c0,2.1,0,4.1,0,6.2C1122.9,173.2,1123.6,173.2,1124.4,173.2z"/>
			</g>
			<g>
				<path fill="#009444" d="M1152.8,183.8c-0.8,2-1.6,2.6-3.5,2.4c-1-0.1-1.9-0.3-2.8-0.7c-1.4-0.5-2.7-1.3-3.7-2.6
					c0.8,0.4,1.5,0.9,2.3,1.3c1.5,0.8,3.1,1,4.8,0.5c1.8-0.5,2.3-1.4,2.1-3.2c0.3,0.7,0.5,1.4,0.8,2.1
					C1152.8,183.7,1152.8,183.7,1152.8,183.8z"/>
			</g>
			<g>
				<path fill="#1C75BC" d="M1125,181.7c0.6,0,1,0,1.5,0c0-2.1,0-4.1,0-6.2c1.2,0,2.3,0,3.5,0c0,4.2,0,8.3,0,12.6
					c-1.1,0-2.3,0-3.5,0c0-0.7,0-1.4,0-2.1c0-0.6-0.1-0.9-0.8-0.8c-0.5,0.1-1.1,0-1.6,0c-1.5-0.1-2.6-1-2.6-2.6c-0.1-2.3,0-4.7,0-7
					c1.2,0,2.3,0,3.5,0C1125,177.5,1125,179.6,1125,181.7z M1124.3,182.3c0-2.1,0-4.2,0-6.3c-0.6,0-1.1,0-1.7,0
					c-0.5,0-0.6,0.1-0.6,0.6c0,1.7,0,3.5,0,5.2c0,1.8,0.8,2.6,2.6,2.6c0.8,0,1.6,0,2.5,0c0,1,0,2,0,2.9c0.8,0,1.5,0,2.2,0
					c0-3.8,0-7.5,0-11.3c-0.6,0-1.1,0-1.6,0c-0.5,0-0.7,0.1-0.7,0.7c0,1.3,0,2.6,0,3.9c0,0.6,0,1.1,0,1.7
					C1126.2,182.3,1125.4,182.3,1124.3,182.3z"/>
			</g>
			<g>
				<path fill="#1C75BC" d="M1144.1,164.3c1.2,0,2.4,0,3.6,0c0,2.1,0,4.1,0,6.2c0.5,0,0.9,0,1.5,0c0-2.1,0-4.1,0-6.2
					c1.2,0,2.3,0,3.5,0c0,0.1,0.1,0.1,0.1,0.2c0,2.3,0,4.7,0,7c0,1.5-1,2.3-2.7,2.5c-1.1,0.1-2.3,0.1-3.4-0.1
					c-1.6-0.2-2.4-1.1-2.5-2.6C1144.1,168.9,1144.1,166.6,1144.1,164.3z M1144.8,164.9c0,2.2-0.1,4.3,0,6.4c0,1.2,0.8,1.8,2,1.9
					c0.9,0,1.8,0,2.7,0c1.7,0,2.5-0.7,2.5-2.5c0-1.8,0-3.6,0-5.4c0-0.2,0-0.3-0.1-0.5c-0.8,0-1.5,0-2.2,0c0,2.1,0,4.1,0,6.2
					c-1,0-1.8,0-2.8,0c0-2.1,0-4.2,0-6.2C1146.2,164.9,1145.5,164.9,1144.8,164.9z"/>
			</g>
			<g>
				<path fill="#1C75BC" d="M1097,164.3c0,0.1,0,0.2,0,0.4c0,1,0,1.9,0,2.9c-0.8,0-1.5,0-2.4,0c0.7,0.8,1.2,1.5,1.8,2.1
					c0.6,0.7,0.8,1.4,0.8,2.3c-0.1,0.9-0.6,1.7-1.5,1.8c-1.6,0.1-3.3,0-5,0c0-1,0-2.1,0-3.3c0.8,0,1.5,0,2.4,0
					c-0.7-0.8-1.2-1.4-1.8-2c-0.6-0.7-0.9-1.4-0.8-2.3c0.1-1,0.6-1.8,1.6-1.8C1093.7,164.3,1095.3,164.3,1097,164.3z M1096.4,166.9
					c0-0.6,0-1.2,0-1.7c0-0.1-0.2-0.3-0.4-0.3c-1.3,0-2.5,0-3.8,0.1c-0.7,0-1.1,0.6-1.1,1.3c0,0.7,0.2,1.3,0.7,1.8
					c0.9,1,1.8,2,2.8,3.2c-1.2,0-2.2,0-3.2,0c0,0.7,0,1.4,0,2.1c1.2,0,2.4,0,3.5,0c1.6,0,2.2-1.3,1.4-2.6c-0.1-0.2-0.3-0.4-0.5-0.6
					c-0.7-0.9-1.5-1.7-2.2-2.6c-0.1-0.1-0.2-0.3-0.3-0.5C1094.3,166.9,1095.3,166.9,1096.4,166.9z"/>
			</g>
			<g>
				<path fill="#1C75BC" d="M1100.8,178.8c-0.9,0-1.7,0-2.4,0c0-1.1,0-2.2,0-3.3c1.6,0,3.3-0.1,4.9,0c1.6,0.2,2.1,2,1.2,3.5
					c-0.3,0.5-0.8,1-1.1,1.4c-0.3,0.4-0.6,0.7-1,1.2c0.9,0,1.6,0,2.4,0c0,1.2,0,2.3,0,3.4c-1.6,0-3.2,0.1-4.7,0
					c-1.7-0.1-2.4-2.1-1.3-3.6c0.4-0.7,1-1.2,1.5-1.8C1100.4,179.3,1100.5,179.2,1100.8,178.8z M1100.8,182.4c1-1.1,1.8-2.1,2.6-3
					c0.2-0.3,0.5-0.6,0.6-0.9c0.5-1.5,0-2.3-1.5-2.3c-0.7,0-1.4,0-2.2,0c-1.6,0-1.5,0-1.5,1.6c0,0.5,0.2,0.6,0.6,0.6
					c0.8,0,1.7,0,2.7,0c-0.7,0.8-1.2,1.4-1.8,2.1c-0.4,0.5-0.9,1-1.3,1.6c-0.7,1-0.4,2.4,0.6,2.5c1.4,0.1,2.8,0,4.3,0
					c0-0.6,0-1.3,0-2C1103,182.4,1102,182.4,1100.8,182.4z"/>
			</g>
			<g>
				<path fill="#1C75BC" d="M1114.9,164.3c0,1.1,0,2.2,0,3.3c-0.9,0-1.8,0-2.8,0c0,1,0,1.9,0,2.8c0.9,0,1.8,0,2.8,0
					c0,1.2,0,2.3,0,3.5c-1.5-0.1-2.9,0-4.4-0.2c-1.1-0.1-1.9-1.2-1.9-2.3c-0.1-1.5-0.1-3.1,0-4.6c0-1.3,0.9-2.3,2.2-2.4
					C1112.1,164.2,1113.5,164.3,1114.9,164.3z M1111.4,166.9c0.9,0,1.9,0,2.8,0c0-0.7,0-1.3,0-2c-1,0-2.1,0-3.1,0
					c-1.2,0.1-2,0.8-2,2c0,1.4,0,2.8,0,4.2c0,0.9,0.4,1.7,1.3,1.8c1.2,0.2,2.5,0.2,3.8,0.3c0-0.8,0-1.4,0-2.1c-1,0-1.9,0-2.8,0
					C1111.4,169.7,1111.4,168.4,1111.4,166.9z"/>
			</g>
			<g>
				<path fill="#1C75BC" d="M1098.4,169.1c0-0.7,0-1.3,0-2c0-1.6,0.9-2.6,2.4-2.7c1.2-0.1,2.5-0.1,3.8,0c1.6,0.1,2.4,0.9,2.6,2.5
					c0.1,1.5,0.1,3.1,0,4.6c-0.1,1.5-0.9,2.3-2.5,2.4c-1.3,0.1-2.6,0.1-3.8,0c-1.5-0.1-2.4-1.2-2.4-2.7
					C1098.3,170.5,1098.4,169.8,1098.4,169.1z M1106.5,169.1C1106.5,169.1,1106.5,169.1,1106.5,169.1c0-0.8,0-1.6,0-2.3
					c-0.1-1.1-0.8-1.8-1.8-1.9c-1.2-0.1-2.5-0.1-3.7,0c-1.1,0.1-1.8,0.7-1.8,1.8c-0.1,1.5-0.1,3,0,4.6c0.1,1.4,0.8,2,2.2,2
					c1,0,2,0,3.1,0c1.3,0,2.1-0.8,2.1-2.1C1106.5,170.4,1106.5,169.8,1106.5,169.1z"/>
			</g>
			<g>
				<path fill="#1C75BC" d="M1114.9,180.3c0,0.9,0,1.8-0.2,2.7c-0.2,1.3-1.1,2.1-2.5,2.1c-1.2,0.1-2.4,0.1-3.7,0
					c-1.4-0.1-2.4-1-2.5-2.4c-0.1-1.6-0.1-3.1,0-4.7c0.1-1.5,1-2.4,2.5-2.5c1.2-0.1,2.5-0.1,3.7,0c1.5,0.1,2.4,1.1,2.5,2.6
					C1114.9,178.8,1114.9,179.5,1114.9,180.3C1114.9,180.3,1114.9,180.3,1114.9,180.3z M1106.8,180.2
					C1106.8,180.2,1106.8,180.2,1106.8,180.2c0,0.7,0,1.3,0,2c0,1.5,0.8,2.2,2.3,2.3c1,0,2,0,2.9,0c1.4,0,2.2-0.7,2.3-2.1
					c0.1-1.4,0.1-2.8,0-4.2c-0.1-1.3-0.7-2-2-2.1c-1.2-0.1-2.4-0.1-3.6,0c-1.2,0.1-1.8,0.9-1.9,2.1
					C1106.8,178.9,1106.8,179.5,1106.8,180.2z"/>
			</g>
			<g>
				<path fill="#1C75BC" d="M1140.3,173.9c-1.2,0-2.4,0-3.6,0c0-0.2,0-0.5,0-0.7c0-1.9,0-3.9,0-5.8c0-2.1,1.1-3.2,3.2-3.2
					c0.9,0,1.8,0,2.7,0c0,1.1,0,2.2,0,3.4c-0.7,0-1.5,0-2.3,0C1140.3,169.8,1140.3,171.8,1140.3,173.9z M1142,167c0-0.6,0-1.2,0-1.7
					c0-0.1-0.3-0.4-0.4-0.4c-0.8,0-1.6,0-2.4,0.1c-0.9,0.1-1.7,0.7-1.7,1.7c-0.1,2.1,0,4.3,0,6.4c0,0,0,0.1,0.1,0.1
					c0.7,0,1.4,0,2.1,0c0-0.3,0-0.5,0-0.7c0-1.6,0-3.3,0-4.9c0-0.5,0.1-0.7,0.6-0.6C1140.7,167,1141.3,167,1142,167z"/>
			</g>
			<g>
				<path fill="#1C75BC" d="M1126.6,164.2c1.2,0,2.3,0,3.4,0c0,3.2,0,6.4,0,9.7c-1.1,0-2.3,0-3.4,0
					C1126.6,170.7,1126.6,167.5,1126.6,164.2z M1127.2,164.9c0,2.8,0,5.5,0,8.3c0.7,0,1.4,0,2.2,0c0-2.8,0-5.5,0-8.3
					C1128.7,164.9,1128,164.9,1127.2,164.9z"/>
			</g>
			<g>
				<path fill="#1C75BC" d="M1119.9,185c-1.2,0-2.3,0-3.5,0c0-3.2,0-6.3,0-9.6c1.2,0,2.3,0,3.5,0
					C1119.9,178.7,1119.9,181.8,1119.9,185z M1119.3,176.1c-0.6,0-1.1,0-1.5,0c-0.6-0.1-0.8,0.1-0.8,0.7c0,2.3,0,4.6,0,6.9
					c0,0.2,0,0.5,0.1,0.7c0.5,0,1,0,1.4,0c0.6,0.1,0.9-0.1,0.9-0.8c0-2.1,0-4.2,0-6.3C1119.3,177,1119.3,176.6,1119.3,176.1z"/>
			</g>
			<g>
				<path fill="#BE1E2D" d="M1139.9,184.5c-0.6-0.1-1.2-0.2-1.8-0.4c-1.3-0.5-1.8-1.7-1.4-3.2c0.2-0.5,0.4-1,0.7-1.4
					c1.3-1.7,4.5-3.4,6.6-3.5c-0.4,0.2-0.7,0.3-1,0.5c-1.1,0.6-2.2,1.2-3.2,1.9c-0.9,0.7-1.4,1.7-1.7,2.9c-0.4,1.6,0.1,2.5,1.7,3
					C1139.9,184.4,1139.9,184.5,1139.9,184.5z"/>
			</g>
			<g>
				<path fill="#2B3990" d="M1142.4,178c-0.3,1.3-0.7,2.4-0.8,3.6c-0.2,1.8,0.3,3.5,1.6,4.8c0.8,0.9,1.8,0.9,2.9,0.1
					c-0.5,0.9-1.6,1.6-2.5,1.6c-1.1,0-1.8-0.6-2.3-1.5c-0.6-1-0.6-2.1-0.6-3.2C1140.9,181.5,1141.3,179.8,1142.4,178z"/>
			</g>
			<g>
				<path fill="#1C75BC" d="M1131.7,173.9c0-1.1,0-2.2,0-3.4c1.2,0,2.3,0,3.4,0c0,1.1,0,2.2,0,3.4
					C1134,173.9,1132.8,173.9,1131.7,173.9z M1132.3,173.2c0.8,0,1.5,0,2.2,0c0-0.7,0-1.3,0-2c-0.8,0-1.5,0-2.2,0
					C1132.3,171.9,1132.3,172.5,1132.3,173.2z"/>
			</g>
			<g>
				<path fill="#FFFFFF" d="M1124.4,173.2c-0.8,0-1.5,0-2.2,0c0-2.1,0-4.1,0-6.2c-0.9,0-1.8,0-2.8,0c0,0.3,0,0.5,0,0.8
					c0,1.6,0,3.2,0,4.8c0,0.5-0.1,0.7-0.6,0.7c-1.7,0-1.7,0-1.7-1.7c0-2.9,0-5.8,0-8.7c0-0.3,0-0.6,0-0.9c0.8,0,1.5,0,2.2,0
					c0,0.9,0,1.9,0,2.9c0.7,0,1.3,0,2,0c2.1,0,3.2,0.4,3.1,3.1C1124.3,169.7,1124.4,171.4,1124.4,173.2z"/>
			</g>
			<g>
				<path fill="#FFFFFF" d="M1124.3,182.3c1,0,1.9,0,2.8,0c0-0.6,0-1.1,0-1.7c0-1.3,0-2.6,0-3.9c0-0.5,0.2-0.7,0.7-0.7
					c0.5,0,1,0,1.6,0c0,3.8,0,7.6,0,11.3c-0.7,0-1.4,0-2.2,0c0-1,0-1.9,0-2.9c-0.9,0-1.7,0-2.5,0c-1.8,0-2.6-0.8-2.6-2.6
					c0-1.7,0-3.5,0-5.2c0-0.5,0.1-0.6,0.6-0.6c0.5,0,1,0,1.7,0C1124.3,178.2,1124.3,180.2,1124.3,182.3z"/>
			</g>
			<g>
				<path fill="#FFFFFF" d="M1144.8,164.9c0.7,0,1.4,0,2.2,0c0,2.1,0,4.1,0,6.2c1,0,1.9,0,2.8,0c0-2.1,0-4.1,0-6.2
					c0.8,0,1.5,0,2.2,0c0,0.2,0.1,0.3,0.1,0.5c0,1.8,0,3.6,0,5.4c0,1.7-0.8,2.5-2.5,2.5c-0.9,0-1.8,0-2.7,0c-1.2,0-2-0.7-2-1.9
					C1144.7,169.2,1144.8,167.1,1144.8,164.9z"/>
			</g>
			<g>
				<path fill="#FFFFFF" d="M1096.4,166.9c-1.1,0-2.1,0-3.2,0c0.2,0.2,0.2,0.4,0.3,0.5c0.7,0.9,1.5,1.7,2.2,2.6
					c0.2,0.2,0.3,0.4,0.5,0.6c0.9,1.4,0.2,2.6-1.4,2.6c-1.2,0-2.3,0-3.5,0c0-0.7,0-1.3,0-2.1c1,0,2.1,0,3.2,0
					c-1-1.1-1.9-2.2-2.8-3.2c-0.5-0.5-0.7-1.1-0.7-1.8c0-0.7,0.4-1.3,1.1-1.3c1.3-0.1,2.5-0.1,3.8-0.1c0.1,0,0.4,0.2,0.4,0.3
					C1096.4,165.8,1096.4,166.3,1096.4,166.9z"/>
			</g>
			<g>
				<path fill="#FFFFFF" d="M1100.8,182.4c1.2,0,2.2,0,3.2,0c0,0.7,0,1.3,0,2c-1.4,0-2.9,0.1-4.3,0c-1-0.1-1.3-1.5-0.6-2.5
					c0.4-0.6,0.8-1,1.3-1.6c0.6-0.7,1.1-1.3,1.8-2.1c-1,0-1.8,0-2.7,0c-0.4,0-0.6-0.1-0.6-0.6c0-1.6,0-1.6,1.5-1.6
					c0.7,0,1.4,0,2.2,0c1.4,0.1,1.9,0.8,1.5,2.3c-0.1,0.3-0.4,0.6-0.6,0.9C1102.6,180.3,1101.8,181.3,1100.8,182.4z"/>
			</g>
			<g>
				<path fill="#FFFFFF" d="M1111.4,166.9c0,1.4,0,2.8,0,4.2c0.9,0,1.8,0,2.8,0c0,0.7,0,1.3,0,2.1c-1.3-0.1-2.6,0-3.8-0.3
					c-0.9-0.2-1.3-1-1.3-1.8c0-1.4,0-2.8,0-4.2c0-1.2,0.8-2,2-2c1,0,2,0,3.1,0c0,0.7,0,1.3,0,2
					C1113.3,166.9,1112.4,166.9,1111.4,166.9z"/>
			</g>
			<g>
				<path fill="#FFFFFF" d="M1106.5,169.1c0,0.7,0,1.3,0,2c0,1.3-0.8,2.1-2.1,2.1c-1,0-2,0-3.1,0c-1.4,0-2.1-0.6-2.2-2
					c-0.1-1.5-0.1-3,0-4.6c0.1-1.1,0.8-1.7,1.8-1.8c1.2-0.1,2.5-0.1,3.7,0c1.1,0.1,1.8,0.8,1.8,1.9
					C1106.5,167.6,1106.4,168.4,1106.5,169.1C1106.5,169.1,1106.5,169.1,1106.5,169.1z M1104.2,167c-1,0-1.9,0-2.9,0
					c0,1.3,0,2.6,0,3.9c0,0.1,0.2,0.3,0.2,0.3c0.9,0,1.8,0,2.7,0C1104.2,169.7,1104.2,168.4,1104.2,167z"/>
			</g>
			<g>
				<path fill="#FFFFFF" d="M1106.8,180.2c0-0.7,0-1.3,0-2c0-1.2,0.7-2,1.9-2.1c1.2-0.1,2.4-0.1,3.6,0c1.3,0.1,1.9,0.8,2,2.1
					c0.1,1.4,0.1,2.8,0,4.2c-0.1,1.4-0.9,2.1-2.3,2.1c-1,0-2,0-2.9,0c-1.5,0-2.2-0.8-2.3-2.3
					C1106.8,181.5,1106.8,180.9,1106.8,180.2C1106.8,180.2,1106.8,180.2,1106.8,180.2z M1109.1,182.3c1,0,2,0,2.9,0c0-1.4,0-2.7,0-4
					c-1,0-1.9,0-2.9,0C1109.1,179.6,1109.1,180.9,1109.1,182.3z"/>
			</g>
			<g>
				<path fill="#FFFFFF" d="M1142,167c-0.7,0-1.2,0-1.7,0c-0.5,0-0.6,0.1-0.6,0.6c0,1.6,0,3.3,0,4.9c0,0.2,0,0.5,0,0.7
					c-0.7,0-1.4,0-2.1,0c0-0.1-0.1-0.1-0.1-0.1c0-2.1,0-4.3,0-6.4c0-0.9,0.8-1.6,1.7-1.7c0.8-0.1,1.6-0.1,2.4-0.1
					c0.2,0,0.4,0.2,0.4,0.4C1142,165.8,1142,166.3,1142,167z"/>
			</g>
			<g>
				<path fill="#FFFFFF" d="M1127.2,164.9c0.7,0,1.4,0,2.2,0c0,2.8,0,5.5,0,8.3c-0.7,0-1.4,0-2.2,0
					C1127.2,170.4,1127.2,167.7,1127.2,164.9z"/>
			</g>
			<g>
				<path fill="#FFFFFF" d="M1119.3,176.1c0,0.5,0,0.9,0,1.3c0,2.1,0,4.2,0,6.3c0,0.7-0.2,0.9-0.9,0.8c-0.4,0-0.9,0-1.4,0
					c0-0.3-0.1-0.5-0.1-0.7c0-2.3,0-4.6,0-6.9c0-0.6,0.2-0.8,0.8-0.7C1118.3,176.1,1118.7,176.1,1119.3,176.1z"/>
			</g>
			<g>
				<path fill="#FFFFFF" d="M1132.3,173.2c0-0.7,0-1.3,0-2c0.7,0,1.4,0,2.2,0c0,0.6,0,1.3,0,2
					C1133.8,173.2,1133.1,173.2,1132.3,173.2z"/>
			</g>
			<g>
				<path fill="#1C75BC" d="M1104.2,167c0,1.4,0,2.7,0,4.2c-0.9,0-1.8,0-2.7,0c-0.1,0-0.2-0.2-0.2-0.3c0-1.3,0-2.5,0-3.9
					C1102.2,167,1103.2,167,1104.2,167z M1101.9,167.7c0,1,0,1.9,0,2.8c0.6,0,1.1,0,1.6,0c0-0.9,0-1.8,0-2.8
					C1103,167.7,1102.5,167.7,1101.9,167.7z"/>
			</g>
			<g>
				<path fill="#1C75BC" d="M1109.1,182.3c0-1.3,0-2.7,0-4c0.9,0,1.9,0,2.9,0c0,1.3,0,2.6,0,4C1111,182.3,1110.1,182.3,1109.1,182.3
					z M1111.3,181.7c0-1,0-1.9,0-2.8c-0.6,0-1.1,0-1.6,0c0,1,0,1.9,0,2.8C1110.3,181.7,1110.8,181.7,1111.3,181.7z"/>
			</g>
			<g>
				<path fill="#FFFFFF" d="M1101.9,167.7c0.6,0,1.1,0,1.6,0c0,0.9,0,1.8,0,2.8c-0.5,0-1.1,0-1.6,0
					C1101.9,169.5,1101.9,168.6,1101.9,167.7z"/>
			</g>
			<g>
				<path fill="#FFFFFF" d="M1111.3,181.7c-0.5,0-1,0-1.6,0c0-0.9,0-1.9,0-2.8c0.5,0,1,0,1.6,0
					C1111.3,179.8,1111.3,180.7,1111.3,181.7z"/>
			</g>
		</g>
	</g>
	<g>
		
			<rect x="1144.7" y="161.3" transform="matrix(0.832 0.5547 -0.5547 0.832 283.25 -610.8842)" fill="#F9E8A2" width="11.4" height="2"/>
	</g>
	<g>
		
			<rect x="1144.7" y="186.4" transform="matrix(0.8583 -0.5131 0.5131 0.8583 66.833 616.8357)" fill="#F9E8A2" width="11.4" height="2"/>
	</g>
	<g>
		
			<rect x="1088.1" y="186.2" transform="matrix(-0.832 -0.5547 0.5547 -0.832 1900.0499 949.6001)" fill="#F9E8A2" width="11.4" height="2"/>
	</g>
	<g>
		
			<rect x="1088.1" y="161.1" transform="matrix(-0.8583 0.5131 -0.5131 -0.8583 2115.7549 -260.1133)" fill="#F9E8A2" width="11.4" height="2"/>
	</g>
</g>
</svg>
