<?xml version="1.0" encoding="utf-8"?>
<!-- Generator: Adobe Illustrator 18.1.0, SVG Export Plug-In . SVG Version: 6.00 Build 0)  -->
<!DOCTYPE svg PUBLIC "-//W3C//DTD SVG 1.1//EN" "http://www.w3.org/Graphics/SVG/1.1/DTD/svg11.dtd">
<svg version="1.1" id="Layer_1" xmlns="http://www.w3.org/2000/svg" xmlns:xlink="http://www.w3.org/1999/xlink" x="0px" y="0px"
	 viewBox="0 0 1202 255" enable-background="new 0 0 1202 255" xml:space="preserve">
<rect x="112.4" y="-0.3" width="409.2" height="69.7"/>
<rect x="132.2" y="69.3" fill="#8D8F93" width="931.3" height="138.7"/>
<rect x="151.9" y="94.3" fill="#B0B8EA" width="97.8" height="113.6"/>
<rect x="266.9" y="94.3" fill="#B0B8EA" width="97.8" height="113.6"/>
<rect x="381.2" y="94.3" fill="#B0B8EA" width="97.8" height="113.6"/>
<polygon fill="#C8D1FC" points="272,207.9 341.1,94.3 356.6,94.3 289.6,207.9 "/>
<polygon fill="#C8D1FC" points="387.8,207.9 456.8,94.3 472.3,94.3 405.4,207.9 "/>
<polygon fill="#C8D1FC" points="156.3,207.9 225.4,94.3 240.8,94.3 173.9,207.9 "/>
<rect x="1052" y="94.6" fill="#ACADAF" width="4.6" height="113.1"/>
<rect x="496.2" y="94.3" fill="#B0B8EA" width="97.8" height="113.6"/>
<polygon fill="#C8D1FC" points="502.8,207.9 571.9,94.3 587.4,94.3 520.4,207.9 "/>
<rect x="610.3" y="94.3" fill="#B0B8EA" width="97.8" height="113.6"/>
<polygon fill="#C8D1FC" points="617,207.9 686,94.3 701.5,94.3 634.5,207.9 "/>
<g>
	<path fill="#808285" d="M54.3,207.5v-61.9c0-6.5,6-11.8,13.4-11.8h1.6c7.4,0,13.4,5.3,13.4,11.8v61.9H54.3z"/>
	<circle fill="#A7A9AC" cx="68.8" cy="147.8" r="11.9"/>
	<circle fill="#BCBEC0" cx="68.8" cy="147.8" r="3.5"/>
	<polygon opacity="0.35" fill="#231F20" points="54.3,207.5 54.3,172.6 82.7,207.5 	"/>
	<path opacity="0.35" fill="#231F20" d="M65.8,154.6L60,168.5c0,0,1.6,3.3,5.6,1.3l6.2-13.6L65.8,154.6z"/>
	<path opacity="0.35" fill="#231F20" d="M54.3,163.1c0.8,0.1,1.8,0,3-0.6l6.2-13.6l-6-1.5l-3.2,7.8"/>
	<path opacity="0.35" fill="#231F20" d="M73.5,146.1L67.7,160c0,0,1.6,3.3,5.6,1.3l6.2-13.6L73.5,146.1z"/>
	<path opacity="0.35" fill="#231F20" d="M65.8,138.8L60,152.7c0,0,1.6,3.3,5.6,1.3l6.2-13.6L65.8,138.8z"/>
	<circle fill="#D1D3D4" cx="68.8" cy="140.1" r="3.1"/>
	<circle fill="#D1D3D4" cx="68.8" cy="155.7" r="3.1"/>
	<circle fill="#D1D3D4" cx="76.4" cy="147.3" r="3.1"/>
	<circle fill="#D1D3D4" cx="60.7" cy="147.3" r="3.1"/>
</g>
<rect x="164.7" y="179.6" fill="#ACAEB5" width="106.7" height="10.4"/>
<path fill="#97989E" d="M202,180c0,1.4-0.9,2.6-2,2.6h-26.4c-1.1,0-2-1.1-2-2.6l0,0c0-1.4,0.9-2.6,2-2.6H200
	C201.1,177.4,202,178.6,202,180L202,180z"/>
<path fill="#97989E" d="M235,179.6c0,1.4-0.9,2.6-2,2.6h-26.4c-1.1,0-2-1.1-2-2.6l0,0c0-1.4,0.9-2.6,2-2.6H233
	C234.1,177.1,235,178.2,235,179.6L235,179.6z"/>
<path fill="#97989E" d="M268,179.6c0,1.4-0.9,2.6-2,2.6h-26.4c-1.1,0-2-1.1-2-2.6l0,0c0-1.4,0.9-2.6,2-2.6H266
	C267.1,177.1,268,178.2,268,179.6L268,179.6z"/>
<rect x="164.7" y="179.6" fill="#97989E" width="6.7" height="27.9"/>
<rect x="269.2" y="179.6" fill="#97989E" width="6.7" height="27.9"/>
<polygon opacity="0.35" fill="#231F20" points="171.4,190.1 269.5,190.1 171.4,207.5 "/>
<rect x="376.7" y="179.6" fill="#ACAEB5" width="106.7" height="10.4"/>
<path fill="#97989E" d="M414,180c0,1.4-0.9,2.6-2,2.6h-26.4c-1.1,0-2-1.1-2-2.6l0,0c0-1.4,0.9-2.6,2-2.6H412
	C413.1,177.4,414,178.6,414,180L414,180z"/>
<path fill="#97989E" d="M447,179.6c0,1.4-0.9,2.6-2,2.6h-26.4c-1.1,0-2-1.1-2-2.6l0,0c0-1.4,0.9-2.6,2-2.6H445
	C446.1,177.1,447,178.2,447,179.6L447,179.6z"/>
<path fill="#97989E" d="M480,179.6c0,1.4-0.9,2.6-2,2.6h-26.4c-1.1,0-2-1.1-2-2.6l0,0c0-1.4,0.9-2.6,2-2.6H478
	C479.1,177.1,480,178.2,480,179.6L480,179.6z"/>
<rect x="376.7" y="179.6" fill="#97989E" width="6.7" height="27.9"/>
<rect x="481.2" y="179.6" fill="#97989E" width="6.7" height="27.9"/>
<polygon opacity="0.35" fill="#231F20" points="383.4,190.1 481.4,190.1 383.4,207.5 "/>
<g>
	<rect x="578.8" y="180" fill="#ACAEB5" width="106.7" height="10.4"/>
	<path fill="#97989E" d="M616.1,180.4c0,1.4-0.9,2.6-2,2.6h-26.4c-1.1,0-2-1.1-2-2.6l0,0c0-1.4,0.9-2.6,2-2.6h26.4
		C615.2,177.8,616.1,179,616.1,180.4L616.1,180.4z"/>
	<path fill="#97989E" d="M649.1,180c0,1.4-0.9,2.6-2,2.6h-26.4c-1.1,0-2-1.1-2-2.6l0,0c0-1.4,0.9-2.6,2-2.6h26.4
		C648.2,177.5,649.1,178.6,649.1,180L649.1,180z"/>
	<path fill="#97989E" d="M682.1,180c0,1.4-0.9,2.6-2,2.6h-26.4c-1.1,0-2-1.1-2-2.6l0,0c0-1.4,0.9-2.6,2-2.6h26.4
		C681.2,177.5,682.1,178.6,682.1,180L682.1,180z"/>
	<rect x="578.8" y="180" fill="#97989E" width="6.7" height="27.9"/>
	<rect x="683.3" y="180" fill="#97989E" width="6.7" height="27.9"/>
	<polygon opacity="0.35" fill="#231F20" points="585.5,190.5 683.6,190.5 585.5,207.9 	"/>
</g>
<rect x="0.5" y="207.5" fill="#808285" width="1201.1" height="47.1"/>
<polyline fill="#6D6E71" points="194.4,207.9 185.7,215.6 179.5,238.8 187,217 203.5,207.5 194.2,207.5 "/>
<polygon fill="#6D6E71" points="732.3,207.5 750.2,216.3 746.2,228.8 731.4,239.7 747.5,229.8 751.1,216.6 770.5,223.6 784.7,251.8 
	771.7,223 752,215.7 740.2,207.5 "/>
<rect x="724" y="93.7" fill="#B0B8EA" width="97.8" height="113.6"/>
<polygon fill="#C8D1FC" points="730.6,207.3 799.7,93.7 815.2,93.7 748.2,207.3 "/>
<rect x="836.4" y="93.7" fill="#B0B8EA" width="97.8" height="113.6"/>
<polygon fill="#C8D1FC" points="843,207.3 912,93.7 927.5,93.7 860.6,207.3 "/>
<rect x="947.5" y="94.3" fill="#B0B8EA" width="97.8" height="113.6"/>
<polygon fill="#C8D1FC" points="954.1,207.9 1023.2,94.3 1038.7,94.3 971.7,207.9 "/>
<polygon opacity="0.35" fill="#231F20" points="132.2,85.7 1057.5,85.7 132.2,163.3 "/>
<polygon fill="#FFF8B8" points="307.1,90.4 177.2,90.4 174.7,85.7 309.5,85.7 "/>
<polygon fill="#FFF8B8" points="494.1,90.4 364.2,90.4 361.7,85.7 496.5,85.7 "/>
<polygon fill="#FFF8B8" points="681.1,90.4 551.2,90.4 548.7,85.7 683.5,85.7 "/>
<polygon fill="#FFF8B8" points="868.1,90.4 738.2,90.4 735.7,85.7 870.5,85.7 "/>
<polygon fill="#FFF8B8" points="1055.1,90.4 925.1,90.4 922.7,85.7 1057.5,85.7 "/>
<g>
	<rect x="758.4" y="178.7" fill="#ACAEB5" width="106.7" height="10.4"/>
	<path fill="#97989E" d="M795.7,179c0,1.4-0.9,2.6-2,2.6h-26.4c-1.1,0-2-1.1-2-2.6l0,0c0-1.4,0.9-2.6,2-2.6h26.4
		C794.8,176.4,795.7,177.6,795.7,179L795.7,179z"/>
	<path fill="#97989E" d="M828.7,178.7c0,1.4-0.9,2.6-2,2.6h-26.4c-1.1,0-2-1.1-2-2.6l0,0c0-1.4,0.9-2.6,2-2.6h26.4
		C827.8,176.1,828.7,177.2,828.7,178.7L828.7,178.7z"/>
	<path fill="#97989E" d="M861.7,178.7c0,1.4-0.9,2.6-2,2.6h-26.4c-1.1,0-2-1.1-2-2.6l0,0c0-1.4,0.9-2.6,2-2.6h26.4
		C860.8,176.1,861.7,177.2,861.7,178.7L861.7,178.7z"/>
	<rect x="758.4" y="178.7" fill="#97989E" width="6.7" height="27.9"/>
	<rect x="862.9" y="178.7" fill="#97989E" width="6.7" height="27.9"/>
	<polygon opacity="0.35" fill="#231F20" points="765.1,189.2 863.2,189.2 765.1,206.5 	"/>
</g>
<g>
	<rect x="931.5" y="179.4" fill="#ACAEB5" width="106.7" height="10.4"/>
	<path fill="#97989E" d="M968.7,179.8c0,1.4-0.9,2.6-2,2.6h-26.4c-1.1,0-2-1.1-2-2.6l0,0c0-1.4,0.9-2.6,2-2.6h26.4
		C967.8,177.2,968.7,178.4,968.7,179.8L968.7,179.8z"/>
	<path fill="#97989E" d="M1001.8,179.4c0,1.4-0.9,2.6-2,2.6h-26.4c-1.1,0-2-1.1-2-2.6l0,0c0-1.4,0.9-2.6,2-2.6h26.4
		C1000.9,176.9,1001.8,178,1001.8,179.4L1001.8,179.4z"/>
	<path fill="#97989E" d="M1034.8,179.4c0,1.4-0.9,2.6-2,2.6h-26.4c-1.1,0-2-1.1-2-2.6l0,0c0-1.4,0.9-2.6,2-2.6h26.4
		C1033.9,176.9,1034.8,178,1034.8,179.4L1034.8,179.4z"/>
	<rect x="931.5" y="179.4" fill="#97989E" width="6.7" height="27.9"/>
	<rect x="1036" y="179.4" fill="#97989E" width="6.7" height="27.9"/>
	<polygon opacity="0.35" fill="#231F20" points="938.1,190 1036.2,190 938.1,207.3 	"/>
</g>
<g>
	<rect x="181.7" y="-0.3" fill="#9E9E9E" width="0.2" height="69.6"/>
</g>
<rect x="181.3" y="0" fill="#9E9E9E" width="0.2" height="69"/>
<rect x="113.1" y="0" width="405.4" height="69.1"/>
<g>
	<rect x="181.7" y="0" fill="#9E9E9E" width="0.2" height="69"/>
</g>
<g>
	<circle fill="#E8B831" cx="147.4" cy="34.5" r="22.5"/>
	<g>
		<path fill="#FFFFFF" d="M157.2,19.6c-0.1-0.3-0.3-0.6-0.7-0.7c-3.6-1-7-1.2-9.2-1.2s-5.6,0.2-9.2,1.2c-0.3,0.1-0.6,0.4-0.7,0.7
			c-0.1,0.4-2.1,11-2.1,15.7c0,4.6,2.3,13.6,2.4,14c0.1,0.2,0.2,0.4,0.4,0.5c0.2,0.2,2.5,1.6,9.2,1.6c6.6,0,8.9-1.5,9.2-1.6
			c0.2-0.1,0.3-0.3,0.4-0.5c0.1-0.4,2.4-9.3,2.4-14C159.4,30.7,157.3,20.1,157.2,19.6z M139,46.1c-0.1-0.3-0.1-0.6-0.2-0.8h17.1
			c-0.1,0.3-0.1,0.6-0.2,0.8H139z M156.3,43.5h-17.9c-0.6-2.8-1.1-6.1-1.2-8.3c0-2.3,0.5-6.3,1.1-9.7h18.1c0,0,0,0,0,0
			c0.5,3.3,1.1,7.4,1.1,9.7C157.5,37.5,156.9,40.8,156.3,43.5z M156,23c0,0.3,0.1,0.6,0.1,0.8h-17.5c0-0.3,0.1-0.6,0.1-0.8H156z
			 M155.7,21.3H154v-1.1c0.5,0.1,1,0.2,1.5,0.3C155.6,20.7,155.6,21,155.7,21.3z M152.3,19.9v1.4h-9.8v-1.4c1.9-0.3,3.6-0.4,4.9-0.4
			C148.7,19.5,150.4,19.6,152.3,19.9z M140.7,20.2v1.1h-1.7c0.1-0.3,0.1-0.5,0.1-0.7C139.7,20.4,140.2,20.3,140.7,20.2z M139.4,47.9
			h1.3v1c-0.6-0.2-1-0.3-1.2-0.4C139.5,48.3,139.5,48.1,139.4,47.9z M142.5,49.2v-1.3h9.8v1.3c-1.2,0.2-2.8,0.4-4.9,0.4
			C145.3,49.6,143.7,49.4,142.5,49.2z M154,48.8v-1h1.3c-0.1,0.2-0.1,0.4-0.1,0.5C155,48.5,154.6,48.7,154,48.8z"/>
		<path fill="#FFFFFF" d="M141.6,33.4c-0.5,0-0.9,0.4-0.9,0.9v7.2c0,0.5,0.4,0.9,0.9,0.9c0.5,0,0.9-0.4,0.9-0.9v-7.2
			C142.5,33.8,142.1,33.4,141.6,33.4z"/>
		<path fill="#FFFFFF" d="M141.6,26.8c-0.5,0-0.9,0.4-0.9,0.9v3.1c0,0.5,0.4,0.9,0.9,0.9c0.5,0,0.9-0.4,0.9-0.9v-3.1
			C142.5,27.2,142.1,26.8,141.6,26.8z"/>
		<path fill="#FFFFFF" d="M153.2,33.4c-0.5,0-0.9,0.4-0.9,0.9v7.2c0,0.5,0.4,0.9,0.9,0.9c0.5,0,0.9-0.4,0.9-0.9v-7.2
			C154,33.8,153.6,33.4,153.2,33.4z"/>
		<path fill="#FFFFFF" d="M153.2,26.8c-0.5,0-0.9,0.4-0.9,0.9v3.1c0,0.5,0.4,0.9,0.9,0.9c0.5,0,0.9-0.4,0.9-0.9v-3.1
			C154,27.2,153.6,26.8,153.2,26.8z"/>
		<path fill="#FFFFFF" d="M147.4,26.8c-0.5,0-0.9,0.4-0.9,0.9v6.9c0,0.5,0.4,0.9,0.9,0.9s0.9-0.4,0.9-0.9v-6.9
			C148.3,27.2,147.9,26.8,147.4,26.8z"/>
		<path fill="#FFFFFF" d="M147.4,37.2c-0.5,0-0.9,0.4-0.9,0.9v3.5c0,0.5,0.4,0.9,0.9,0.9s0.9-0.4,0.9-0.9V38
			C148.3,37.5,147.9,37.2,147.4,37.2z"/>
	</g>
</g>
<g>
	<path fill="#FFFFFF" d="M213.5,33.5h-12.1v8.8h14.1V46h-18.7V18.2h18.6v3.7h-14v7.8h12.1V33.5z"/>
	<path fill="#FFFFFF" d="M223.7,46h-4.6V16.2h4.6V46z"/>
	<path fill="#FFFFFF" d="M247.1,42.6c1.1,0,2.1-0.3,2.9-1c0.8-0.7,1.2-1.5,1.2-2.5h4.2l0,0.1c0.1,1.9-0.7,3.6-2.4,5
		c-1.6,1.4-3.6,2.1-5.9,2.1c-3,0-5.4-1-7-2.9c-1.6-2-2.4-4.4-2.4-7.4v-0.7c0-3,0.8-5.5,2.4-7.4c1.6-2,3.9-2.9,7-2.9
		c2.5,0,4.5,0.7,6,2.2c1.5,1.4,2.3,3.3,2.2,5.5l0,0.1h-4.2c0-1.1-0.4-2.1-1.1-2.9c-0.7-0.8-1.7-1.2-2.9-1.2c-1.7,0-3,0.6-3.7,1.9
		c-0.7,1.3-1.1,2.8-1.1,4.7V36c0,1.9,0.4,3.5,1.1,4.8C244.2,42,245.4,42.6,247.1,42.6z"/>
	<path fill="#FFFFFF" d="M263.7,28c0.7-1,1.5-1.7,2.5-2.2s2.1-0.8,3.3-0.8c2.2,0,3.9,0.7,5.1,2.1s1.8,3.5,1.8,6.4V46h-4.6V33.4
		c0-1.6-0.3-2.8-1-3.5c-0.6-0.7-1.6-1.1-2.9-1.1c-0.9,0-1.7,0.2-2.4,0.6c-0.7,0.4-1.3,0.9-1.8,1.6V46h-4.6V16.2h4.6V28z"/>
	<path fill="#FFFFFF" d="M293.6,46c-0.2-0.5-0.3-1-0.4-1.5c-0.1-0.5-0.2-1-0.2-1.5c-0.6,1-1.5,1.8-2.5,2.4c-1,0.7-2.2,1-3.5,1
		c-2.1,0-3.8-0.6-4.9-1.7c-1.2-1.1-1.7-2.6-1.7-4.6c0-2,0.8-3.5,2.4-4.7c1.6-1.1,3.8-1.7,6.7-1.7h3.6V32c0-1.1-0.3-1.9-1-2.5
		c-0.6-0.6-1.5-0.9-2.7-0.9c-1.1,0-1.9,0.3-2.5,0.8c-0.6,0.5-0.9,1.2-0.9,2h-4.5l0-0.1c-0.1-1.6,0.6-3.1,2.2-4.3
		c1.5-1.3,3.6-1.9,6-1.9c2.4,0,4.3,0.6,5.8,1.8s2.2,3,2.2,5.3v9.2c0,0.9,0.1,1.7,0.2,2.5c0.1,0.8,0.3,1.5,0.6,2.3H293.6z M288,42.6
		c1.2,0,2.2-0.3,3.2-0.9c0.9-0.6,1.6-1.3,1.9-2v-3.1h-3.7c-1.3,0-2.4,0.3-3.2,1c-0.8,0.7-1.1,1.5-1.1,2.4c0,0.8,0.3,1.4,0.8,1.9
		S287,42.6,288,42.6z"/>
	<path fill="#FFFFFF" d="M306.7,25.3l0.3,3c0.7-1.1,1.5-1.9,2.5-2.5s2.2-0.9,3.5-0.9c2.1,0,3.8,0.7,5,2c1.2,1.3,1.8,3.3,1.8,6.1v13
		h-4.6V33c0-1.6-0.3-2.7-1-3.3s-1.6-1-2.9-1c-0.9,0-1.7,0.2-2.4,0.6c-0.7,0.4-1.3,1-1.8,1.6v15h-4.6V25.3H306.7z"/>
	<path fill="#FFFFFF" d="M326.1,46V28.8h-3.1v-3.4h3.1v-2.4c0-2.3,0.6-4,1.9-5.3c1.2-1.2,3-1.8,5.2-1.8c0.4,0,0.9,0,1.4,0.1
		c0.5,0.1,1,0.2,1.5,0.3l-0.5,3.6c-0.3-0.1-0.5-0.1-0.8-0.1c-0.3,0-0.6-0.1-1-0.1c-1,0-1.8,0.3-2.3,0.9c-0.5,0.6-0.8,1.4-0.8,2.5
		v2.4h4.2v3.4h-4.2V46H326.1z"/>
	<path fill="#FFFFFF" d="M343.2,46h-4.6V16.2h4.6V46z"/>
	<path fill="#FFFFFF" d="M357.3,46.4c-2.9,0-5.3-1-7-2.9c-1.7-1.9-2.6-4.4-2.6-7.4v-0.8c0-3,0.9-5.5,2.6-7.5c1.7-2,3.9-3,6.5-2.9
		c2.8,0,4.9,0.8,6.4,2.5c1.5,1.7,2.2,3.9,2.2,6.8V37h-12.9l0,0.1c0.1,1.6,0.6,3,1.4,4c0.9,1,2.1,1.6,3.7,1.6c1.2,0,2.3-0.2,3.2-0.5
		s1.7-0.7,2.6-1.3l1.5,3c-0.8,0.7-1.8,1.3-3.1,1.7S358.9,46.4,357.3,46.4z M356.7,28.7c-1.1,0-2.1,0.5-2.8,1.4
		c-0.7,0.9-1.2,2.1-1.4,3.5l0,0.1h8.2v-0.5c0-1.3-0.3-2.4-1-3.2C359.1,29.1,358.1,28.7,356.7,28.7z"/>
</g>
<path fill="#FCC792" d="M626,163.1c-1.1,0-2.1-0.7-2.4-1.8c-6.9-23.8,11.1-39.5,11.8-40.1c1.1-0.9,2.6-0.8,3.5,0.3
	c0.9,1,0.8,2.6-0.3,3.5l0,0c-0.7,0.6-16.2,14.3-10.3,34.9c0.4,1.3-0.4,2.7-1.7,3.1C626.4,163.1,626.2,163.1,626,163.1z"/>
<path fill="#FCC792" d="M673.8,161.8c-0.2,0-0.4,0-0.7-0.1c-1.3-0.4-2.1-1.7-1.8-3.1c5.4-20-8.7-33.2-9.3-33.7
	c-1-0.9-1.1-2.5-0.2-3.5c0.9-1,2.5-1.1,3.5-0.2c0.7,0.6,16.9,15.7,10.7,38.7C675.9,161.1,674.9,161.8,673.8,161.8z"/>
<path fill="#688599" d="M638.6,124.9c0,0-6.3,6.4-9.2,12.7l-4.2-2.2c0,0,6-14.4,13-14.8C638.2,120.6,642,122.2,638.6,124.9z"/>
<path fill="#688599" d="M663.5,126.2c0,0,5.6,7.1,7.7,13.6l4.4-1.7c0,0-4.4-15-11.3-16.2C664.4,122,660.4,123.2,663.5,126.2z"/>
<path fill="#FFF200" d="M219.6,156.2c-0.2,0-0.4,0-0.7-0.1c-1.3-0.4-2.1-1.7-1.7-3.1c5.7-20.7-9.2-34.3-9.8-34.9
	c-1-0.9-1.1-2.5-0.2-3.5c0.9-1,2.5-1.1,3.5-0.2c0.7,0.7,17.9,16.2,11.3,40C221.7,155.5,220.7,156.2,219.6,156.2z"/>
<path fill="#FCC792" d="M219.6,156.3c-0.2,0-0.4,0-0.7-0.1c-1.3-0.4-2.1-1.7-1.7-3.1c0.2-0.7,0.3-1.3,0.5-1.9c0.3-1.3,1.6-2.2,3-1.9
	c1.3,0.3,2.2,1.6,1.9,3c-0.2,0.7-0.3,1.5-0.5,2.2C221.7,155.6,220.7,156.3,219.6,156.3z"/>
<path fill="#FFF200" d="M176.1,155.2c-1.1,0-2.1-0.7-2.4-1.8c-6.6-23.7,10.6-39.3,11.3-40c1-0.9,2.6-0.8,3.5,0.2
	c0.9,1,0.8,2.6-0.2,3.5l0,0c-0.6,0.6-15.5,14.2-9.8,34.9c0.4,1.3-0.4,2.7-1.7,3.1C176.5,155.2,176.3,155.2,176.1,155.2z"/>
<path fill="#FCC792" d="M176.1,155.3c-1.1,0-2.1-0.7-2.4-1.8c-0.2-0.7-0.4-1.5-0.5-2.2c-0.3-1.3,0.5-2.7,1.9-3
	c1.3-0.3,2.7,0.5,3,1.9c0.1,0.6,0.3,1.3,0.5,1.9c0.4,1.3-0.4,2.7-1.7,3.1C176.6,155.2,176.3,155.3,176.1,155.3z"/>
<circle fill="#FFF200" cx="715.5" cy="176.6" r="30.7"/>
<ellipse fill="#FCF6C3" cx="720.4" cy="158.8" rx="8.2" ry="5.7"/>
<rect x="641.9" y="102.8" fill="#FCC792" width="14.3" height="21.5"/>
<ellipse fill="#FCC792" cx="649" cy="102.8" rx="7.2" ry="7.2"/>
<g>
	<path fill="#688599" d="M665.3,119c0,0-4,0-8.9,0c-0.1,0-0.2,0-0.3,0l-4.6,4.4l-9.1-4.4c-0.3,0-0.5,0-0.8,0c-1.6,0-6.4,0-6.4,0
		c-1,0-1.9,1.1-1.9,2.6l7.7,46.1c0,1.5,0.8,2.7,1.9,2.7h17.2c1,0,1.8-1.2,1.8-2.7l5.2-46.1C667.1,120.2,666.3,119,665.3,119z"/>
</g>
<rect x="640.6" y="160.7" fill="#0F3854" width="8.8" height="47.8"/>
<rect x="653.6" y="160.7" fill="#0F3854" width="8.8" height="47.8"/>
<polygon fill="#0F3854" points="639.5,158.7 662.9,158.9 662.4,163.5 653.6,171.5 649.3,171.5 640.3,164.1 "/>
<rect x="640.6" y="203.9" fill="#FFFFFF" width="8.8" height="4.6"/>
<rect x="653.6" y="203.9" fill="#FFFFFF" width="8.8" height="4.6"/>
<path fill="#231F20" d="M644.9,114c0,0,4-2.3,8.8,0c0,0-1.2-3.6-4.4-3.6S644.9,114,644.9,114z"/>
<path fill="#95D8EF" d="M641.9,100.7l14.3-0.3l4,3.1c0,0-11.2,5-21.4,1.7L641.9,100.7z"/>
<path fill="#7ABCCE" d="M641.9,100.7l14.3-0.3c0,0-2-6.5-6.5-6.5S641.8,96.5,641.9,100.7z"/>
<g>
	<path fill="#80431D" d="M516.6,203.4l3.5-4c0,0,10.8-21,1.5-43.3l-3.7,1.4L516.6,203.4z"/>
	<path fill="#F09933" d="M479.2,151.8c0,0-11.4,27.4,3.6,53.1h3.9c0,0-6-26.1,0-48.9L479.2,151.8z"/>
	<path fill="#80431D" d="M486.8,204.9l8.3,2.2c0,0-2.1-36.3,0-49.7l-8.3-1.4C486.8,156,480.5,175.9,486.8,204.9z"/>
	<path fill="#F09933" d="M494.8,157.4c0,0-1.8,23.1,0.3,49.7h8.6c0,0,3.7-21.1,1.3-49.2L494.8,157.4z"/>
	<path fill="#80431D" d="M505,157.9c0,0,2.2,37-1.7,49.2l8.9-2.2c0,0,7.6-29.2,0.6-48.9L505,157.9z"/>
	<path fill="#F09933" d="M512.2,204.9c0,0,6.5-26.9,1.4-46.3h5.6c0,0,8.6,20.5-2.1,44.6L512.2,204.9z"/>
	<path fill="#534843" d="M476.9,157.4c0,0,7.4,3.3,24.4,3.3c17.1,0,21.7-3.3,21.7-3.3l-2-6.6c0,0,2.3,2.9-20,2.9
		c-22.3,0-21.3-2.9-21.3-2.9S476.9,155.2,476.9,157.4z"/>
	<path fill="#534843" d="M475.7,165.8c0,0-2.7,3.5-0.7,7.9c0,0,4.1,4.7,26.8,4.7s23.5-5.5,23.5-5.5s1.6-4.4-0.9-7
		c0,0,1.5,6.8-23.1,6.8S475.7,165.8,475.7,165.8z"/>
	<path fill="#534843" d="M475.6,183.8c0,0,1.3,9.1,24.9,9.1s24.2-9.7,24.2-9.7s1.1,5.1-1.8,8.5c0,0-4.2,5.8-22.7,5.8
		c-18.4,0-23.4-5.8-23.4-5.8S474.3,189.4,475.6,183.8z"/>
	<path fill="#534843" d="M479.8,198.9c0,0,4,6.9,20,6.9s20.7-7.4,20.7-7.4s-1.6,5.6-3.2,6.5c0,0-4.3,4.9-17.5,4.9
		c-13.2,0-18.1-5.7-18.1-5.7S479.8,201.8,479.8,198.9z"/>
	<ellipse fill="#F09933" cx="500.2" cy="151.2" rx="20.9" ry="2.7"/>
	<ellipse fill="#80431D" cx="500.5" cy="151.6" rx="17.4" ry="2.2"/>
	<path fill="#7D6C64" d="M496.7,160.6v-6.8l-7.2-0.4v6.6C489.5,160.1,493.6,161,496.7,160.6z"/>
	<path fill="#7D6C64" d="M488.9,172.1v5.7c0,0,4.1,0.4,7.5,0.5v-5.8L488.9,172.1z"/>
	<path fill="#7D6C64" d="M490,192.1l0.5,4.7c0,0,2.3,0.6,6.2,0.6v-4.7C496.7,192.8,492.1,192.5,490,192.1z"/>
	<path fill="#7D6C64" d="M490.9,204.9l1,4.1c0,0,2.6,0.6,5.2,0.7v-4C497.2,205.7,493,205.4,490.9,204.9z"/>
	<path fill="#7D6C64" d="M523,168.6c0,0,1.2,2.4,1,5.9c0,0,1.1-0.7,1.4-1.7c0,0,1.6-4.5-0.9-7C524.5,165.8,524.4,167.7,523,168.6z"
		/>
	<path fill="#7D6C64" d="M523.3,186.3c0,0,0.8,3.8-1.2,6.2c0,0,4.1-2,2.7-9.4C524.8,183.1,524.8,185.3,523.3,186.3z"/>
</g>
<g>
	<circle fill="#FFFFFF" cx="147.3" cy="194" r="13.2"/>
	<path fill="#231F20" d="M148.2,189.6l5.3,1.7l2.3-3.8c0,0-2.1-3.1-3.5-3.7c0,0-3.3,0-4.8,1.2L148.2,189.6z"/>
	<path fill="#231F20" d="M140.8,200.9l4.4-2c0,0-1.2-4.9-1.2-5.5l-4.8-1.1c0,0-1.7,2-2,4.3C137.3,196.6,137.9,198.9,140.8,200.9z"/>
	<path fill="#231F20" d="M151.4,204.2l-1-3.6c0,0,3.6-2.3,4.2-3.8l3.4,1.5c0,0-0.6,2.9-1.6,4.3C155.4,204,152.3,204.1,151.4,204.2z"
		/>
	<path fill="#231F20" d="M147.1,206.9l-0.1-0.6c0,0-3.5-0.4-5.1-1.8c0,0-0.9,0.3-2,0C140,204.4,142.3,206.6,147.1,206.9z"/>
	<path fill="#231F20" d="M159.3,188.2l-0.6,0.7c0,0,1.5,2.4,1.3,5.7h0.5C160.5,194.6,160.7,191,159.3,188.2z"/>
	<path fill="#231F20" d="M135.9,187.4c0,0,1.3-0.4,2.6,0c0,0,1.4-2.4,4.3-3.6v-2.2C142.8,181.6,138.9,182.6,135.9,187.4z"/>
</g>
<rect x="189.5" y="92.7" fill="#FCC792" width="13.9" height="23.3"/>
<ellipse fill="#FCC792" cx="196.4" cy="92.7" rx="7" ry="7.8"/>
<g>
	<path fill="#FFF200" d="M207.6,110.3c0,0,0.2,0-4.5,0c-0.1,0-0.2,0-0.3,0l-4.6,0.6l-8.7-0.6c-0.3,0-0.5,0-0.7,0c-1.5,0-2.1,0-2.1,0
		c-1,0-1.8,1.2-1.8,2.9l3.3,50c0,1.7,0.8,2.9,1.8,2.9h16.6c1,0,1.7-1.3,1.7-2.9l1-50C209.3,111.6,208.6,110.3,207.6,110.3z"/>
</g>
<rect x="187.8" y="155.5" fill="#939598" width="8.4" height="51.9"/>
<rect x="200.2" y="155.5" fill="#939598" width="8.4" height="51.9"/>
<polygon fill="#939598" points="187.1,153.4 209,153 208.8,158.6 200.2,167.3 196.2,167.3 187.8,160.7 "/>
<rect x="188.5" y="106.8" fill="#FFF200" width="15.3" height="4.4"/>
<rect x="187.7" y="202.4" fill="#3C2415" width="8.5" height="5.1"/>
<rect x="200.2" y="202.4" fill="#3C2415" width="8.4" height="5.1"/>
<path fill="#231F20" d="M203.4,91.9l0,6.9l1-1c0,0-0.5-2.8-0.5-3.4c0-0.7,1.8-3.2-0.1-3.5"/>
<path fill="#231F20" d="M190.1,90.8l-0.3,7.6l-1-1c0,0,0.5-2.8,0.5-3.4c0-0.7-1.3-3.7,0.6-4.1"/>
<path fill="#754C29" d="M187.8,90.8c0,0-1.5,2.4,9.2,2.5c10.7,0.1,11.5-2.6,6.7-3C203.8,90.3,190.8,88.9,187.8,90.8z"/>
<path fill="#603913" d="M187.8,90.8c0,0,10.1,1.7,15.5,0c0,0,5-6.5-2.7-7.1C192.8,83.1,186.3,85.3,187.8,90.8z"/>
<g>
	<path fill="#FFF100" d="M203.4,116.9c2.3,0,4.1,1.8,4.1,4.1c0,2.3-1.8,4.1-4.1,4.1c-2.3,0-4.1-1.8-4.1-4.1
		C199.3,118.7,201.1,116.9,203.4,116.9L203.4,116.9z"/>
	<path fill="#2E3191" d="M203.4,117c-2.2,0-4,1.8-4,4s1.8,4,4,4c2.2,0,4-1.8,4-4S205.5,117,203.4,117z"/>
	<path fill="#FFF100" d="M207.2,120.9h-0.7c0-0.1-0.1-0.2-0.1-0.3c-0.2-0.5-0.4-0.8-0.7-1l-0.1,0l-0.1,0c0,0,0,0-0.1,0
		c0-0.2-0.1-0.3-0.2-0.5l0.8-0.8C206.7,119,207.2,119.9,207.2,120.9z"/>
	<path fill="#FFF100" d="M203.4,117.2c1,0,2,0.4,2.6,1.1l-0.8,0.8c-0.1-0.1-0.3-0.1-0.4-0.1l0-0.2l0,0c0,0-0.1,0-0.1-0.1
		c0,0,0-0.1,0-0.1l0-0.1l0,0l-0.1-0.1l0,0c0,0-0.1,0-0.1,0c0,0-0.1,0-0.1,0l0,0l0,0l0,0.1c0,0,0,0,0,0.1c0,0,0,0.1,0.1,0.1l0,0
		c0,0,0.1,0,0.1,0.1l0,0c0,0,0,0,0,0.1l0,0.1l0,0l0,0l0,0c0,0,0,0.2,0,0.2l0,0c0,0-0.1,0-0.1,0.1c0,0,0,0.1,0.1,0.1
		c0,0,0.1,0.1,0.1,0.1l0,0.1c0,0.1,0.1,0.1,0.2,0.1c0,0,0,0,0-0.1l0,0c0-0.1,0-0.2,0.1-0.1l0,0l0,0l0-0.1c0.1,0,0.2,0.1,0.3,0.1
		c0.1,0.2,0.1,0.4,0.2,0.6c-0.2,0.2-0.4,0.5-0.6,0.9c-0.2,0.5-0.3,1-0.3,1.6l0,0l0,0c0,0,0-0.1-0.1-0.1c0,0,0,0,0,0l-0.1,0l-0.1,0
		c0,0,0,0,0-0.1c0,0,0,0,0.1,0l0,0l0,0c0,0,0-0.1,0-0.1c0,0-0.1-0.1-0.2-0.2c0,0,0-0.1-0.1-0.1c0,0-0.1,0-0.1-0.1c0,0,0,0,0,0
		l-0.1-0.1c0,0-0.1,0-0.1,0l-0.1,0.1l-0.1-0.1l0-0.1c0,0,0,0,0,0l0-0.1l-0.1-0.1c0,0,0-0.1,0.1-0.1l0,0l0-0.1l-0.1,0l0,0l-0.1,0l0,0
		c0,0,0-0.1,0-0.1c0-0.1,0-0.2,0.1-0.2c0.1-0.1,0.1,0,0.1,0c0.1,0,0-0.1,0.2,0l0,0.2l0,0c0,0,0,0,0.1,0l0-0.1c0,0,0,0,0-0.1
		c0,0,0.1,0,0.1,0l0,0c0,0,0.1,0,0.1,0c0,0,0,0,0,0c0,0,0,0,0-0.1l0.1,0l0,0l0.1,0l0,0c0,0,0.1-0.1,0.1-0.1l0.2,0.1
		c0,0,0.1-0.1,0.1-0.1c0,0-0.1,0,0-0.1l0,0l0,0l0.1,0c0,0.1,0,0.1-0.1,0.1c0,0,0,0.1,0,0.1l0,0c0,0,0.1,0,0.1,0.1c0,0,0,0,0,0
		c0,0,0.1-0.1,0.1-0.1c0-0.1,0-0.1-0.1-0.2c0,0,0.1-0.1,0.1-0.1c0,0-0.1-0.1-0.1-0.1c0-0.1-0.1-0.1-0.1-0.2c0-0.1,0-0.1,0-0.2l0-0.1
		l-0.1,0l0,0c0,0,0-0.1-0.1-0.1c0,0-0.1,0-0.1,0c-0.1,0-0.1,0-0.2,0l0,0l0,0l0,0c-0.1,0.1-0.1,0.2-0.1,0.3l0,0l0,0.2l0,0
		c0,0,0-0.2-0.1-0.2c0,0,0-0.1,0-0.1l-0.1,0l0-0.1c0,0,0-0.2-0.1-0.2c0,0,0-0.1,0-0.1l0.1-0.1l0,0l0,0c0,0,0.1-0.2,0.2-0.2
		c0-0.1,0.1-0.1,0.2-0.1c0,0,0-0.1,0.1-0.1l0-0.2l-0.1,0.1c0,0,0,0,0,0c0,0-0.1-0.1-0.1-0.2c0,0,0.1-0.1,0-0.1l-0.1,0
		c-0.1,0-0.1,0.1,0,0.2c0,0,0,0.1-0.1,0.1l0,0l0,0c0,0-0.1,0-0.1,0l-0.1,0c0,0-0.1,0-0.1,0l-0.1,0l-0.1-0.1c0,0-0.1,0-0.1,0l0-0.1
		c0,0-0.1-0.1-0.1-0.1c-0.1,0,0-0.1-0.1-0.1c-0.2,0-0.4,0-0.5-0.2l0,0c0,0-0.1-0.1-0.2-0.1l0,0c-0.1,0-0.1,0-0.2,0
		c0,0-0.1,0.1-0.2,0.1c0,0,0,0.1,0,0.1l0,0c0,0,0,0.1,0,0.1l0,0c0,0-0.1,0-0.1,0l0,0.1l0,0l0,0.1l0,0l0,0.1c0,0.1-0.2,0.1-0.2,0.1
		c0,0-0.1,0.1,0,0.1c0,0,0.1,0.1,0.1,0.1l0.1,0.1c0,0,0,0,0,0c0,0,0,0-0.1,0c0,0,0,0,0,0c0,0,0,0,0,0c0,0-0.1,0-0.1,0
		c-0.1,0-0.1,0-0.1,0l0,0c0,0-0.1,0-0.1,0l-0.8-0.8C201.4,117.6,202.3,117.2,203.4,117.2z"/>
	<path fill="#FFF100" d="M203.2,122.1l0.1,0.2c0,0,0,0.1,0.1,0.1c0,0,0,0.1,0,0.1l0,0l0,0.1c0,0-0.1,0.2-0.1,0.2c0,0,0,0.1,0,0.1
		l0,0c0,0,0,0.1-0.1,0.1c-0.5,0-1-0.2-1.5-0.4c-0.1-0.1-0.1-0.3-0.2-0.4c0.2,0,0.4,0,0.5-0.1c0.2-0.1,0.3-0.2,0.5-0.3l0.1-0.1
		l-0.1-0.1l-0.4-0.4l-0.1,0.1c-0.1,0.1-0.1,0.1-0.2,0.2c-0.1,0-0.2,0.1-0.3,0.1c-0.1,0-0.1,0-0.2,0c-0.1-0.4-0.1-0.8,0-1.3
		c0.1,0,0.1,0,0.2,0c0.1,0,0.2,0,0.3,0.1c0.1,0,0.2,0.1,0.2,0.2l0.1,0.1l0.5-0.5l-0.1-0.1c-0.1-0.1-0.3-0.2-0.5-0.3
		c-0.2-0.1-0.3-0.1-0.5-0.1c0-0.1,0.1-0.3,0.2-0.4c0.1,0,0.2-0.1,0.3-0.1c0.1,0,0.2,0,0.2-0.1c0.1,0,0.2-0.1,0.3-0.1c0,0,0,0,0,0
		c0,0.1,0,0.2,0,0.3c0.1,0.1,0.1,0.2,0.1,0.4c0,0.1-0.1,0.4,0,0.4l0,0c0,0,0,0.2,0,0.2c0.1,0.1,0.1,0.2,0.1,0.3c0,0,0,0.1,0.1,0.1
		c0,0.2,0.1,0.1,0.1,0.1c0-0.1,0-0.2,0-0.3l0,0l0-0.1l0,0c0,0,0,0,0,0c0,0,0,0.1,0,0.1c0,0,0,0.1,0,0.2l0,0.1l0,0.1
		c0.1,0.1,0.2,0.3,0.3,0.2l0.1,0.1c0,0.1,0,0.1,0.1,0.2l0,0c0,0,0,0.1,0.1,0.1c0,0,0,0,0,0l0,0.1l0,0l-0.1,0c0,0-0.1,0-0.1,0.1
		c0,0.2-0.1,0.1-0.1,0.2C203.1,122,203.2,122.1,203.2,122.1z"/>
	<path fill="#FFF100" d="M200.6,118.3l0.8,0.8c-0.1,0.2-0.1,0.3-0.2,0.5c-0.3,0-0.6,0.2-0.8,0.4c-0.2,0.2-0.4,0.5-0.4,0.9h-0.5
		C199.6,119.9,200,119,200.6,118.3z"/>
	<path fill="#FFF100" d="M201.1,120.9h-0.3c0-0.2,0.1-0.3,0.2-0.4c0,0,0.1-0.1,0.2-0.1C201.1,120.5,201.1,120.7,201.1,120.9z"/>
	<path fill="#FFF100" d="M201.1,121.5c-0.1,0-0.1-0.1-0.1-0.1c-0.1-0.1-0.2-0.2-0.2-0.4h0.3C201.1,121.2,201.1,121.4,201.1,121.5z"
		/>
	<path fill="#FFF100" d="M199.6,121h0.5c0,0.3,0.2,0.6,0.4,0.9c0.2,0.2,0.5,0.4,0.8,0.4c0,0.2,0.1,0.3,0.2,0.5l-0.8,0.8
		C200,122.9,199.6,122,199.6,121z"/>
	<path fill="#FFF100" d="M203.4,124.8c-1,0-2-0.4-2.7-1.1l0.8-0.8c0.5,0.2,0.9,0.3,1.4,0.4c0,0,0,0,0,0.1l0,0c0,0.1,0,0.2,0,0.3l0,0
		l0,0l0,0.1l0,0c0,0,0.1,0,0.1,0c0,0,0.1-0.1,0.1-0.1l0-0.1l0,0l0,0c0,0,0.1-0.1,0.1-0.1l0,0l0,0c0,0,0-0.1,0-0.1c0,0,0,0,0,0
		c0.6,0,1.3-0.1,1.9-0.4l0.8,0.8C205.3,124.4,204.4,124.8,203.4,124.8z"/>
	<path fill="#FFF100" d="M206.1,123.6l-0.8-0.8c0.1-0.3,0.2-0.5,0.2-0.8l0.5,0c0,0,0,0,0,0.1c0,0.1,0,0.1,0,0.2v0.1h0.7l0-0.1
		c0-0.4-0.1-0.8-0.2-1.1h0.7C207.2,122,206.8,122.9,206.1,123.6z"/>
	<path fill="#EC1C24" d="M201.4,119.7c0.4,0,0.7,0.2,0.9,0.4l-0.3,0.3c-0.1-0.2-0.4-0.3-0.6-0.3c-0.4,0-0.8,0.4-0.8,0.8
		c0,0.4,0.4,0.8,0.8,0.8c0.2,0,0.4-0.1,0.6-0.3l0.3,0.3c-0.2,0.2-0.5,0.4-0.9,0.4c-0.7,0-1.2-0.6-1.2-1.2
		C200.2,120.3,200.7,119.7,201.4,119.7L201.4,119.7z"/>
	<path fill="#EC1C24" d="M205.6,119.7c-0.5,0.3-1,1.4-1,2.5h0.4c0-0.1,0-0.2,0-0.3l1.1,0c0,0.1,0,0.2,0,0.3h0.4
		C206.5,121.1,206.1,120,205.6,119.7L205.6,119.7z"/>
	<path fill="#FFF100" d="M204.6,122.4L204.6,122.4C204.5,122.4,204.5,122.3,204.6,122.4l0.6-0.1l0-0.1c0-0.1,0-0.1,0-0.2
		c0,0,0,0,0-0.1l0.2,0c-0.1,0.3-0.1,0.5-0.2,0.8c-0.5,0.2-1,0.4-1.5,0.4c0,0,0.1-0.1,0.1-0.1c0,0,0.1,0,0.1,0c0,0,0,0,0,0l0-0.1
		c0,0,0.2-0.1,0.2-0.1c0.1,0,0.1,0,0.2,0c0,0,0.1-0.1,0.1-0.1c0,0,0,0,0,0c0,0,0,0,0,0l0,0l0,0c0,0,0.1-0.1,0.1-0.1l0,0
		C204.6,122.5,204.6,122.4,204.6,122.4z"/>
	<path fill="#2E3191" d="M203.4,118.1l0,0.1c0.1,0,0.1,0.1,0.1,0.1c0,0,0,0.1,0.1,0.1c0.1,0.1,0.2,0.1,0.3,0l0-0.2c0,0,0-0.1,0-0.2
		c0-0.1,0-0.1-0.1-0.2C203.6,118,203.5,118,203.4,118.1z"/>
	<path fill="#2E3191" d="M203.3,118.2l0.2-0.1l0-0.2c0,0-0.1,0-0.1,0c0,0.1-0.1,0.1-0.1,0.2l0,0.1
		C203.2,118.2,203.3,118.2,203.3,118.2z"/>
	<path fill="#2E3191" d="M205.6,120.6c-0.1,0.2-0.2,0.4-0.3,0.7h0.6C205.8,120.9,205.7,120.7,205.6,120.6L205.6,120.6z"/>
	<path fill="#FFF100" d="M205.7,121.1L205.7,121.1C205.6,121.1,205.6,121.1,205.7,121.1L205.7,121.1
		C205.7,121.1,205.7,121.1,205.7,121.1z"/>
	<path fill="#FFF100" d="M205.5,121c0,0,0,0.1,0,0.1h0C205.5,121.1,205.5,121,205.5,121z"/>
</g>
</svg>
