<?xml version="1.0" encoding="utf-8"?>
<!-- Generator: Adobe Illustrator 18.1.0, SVG Export Plug-In . SVG Version: 6.00 Build 0)  -->
<!DOCTYPE svg PUBLIC "-//W3C//DTD SVG 1.1//EN" "http://www.w3.org/Graphics/SVG/1.1/DTD/svg11.dtd">
<svg version="1.1" id="Layer_1" xmlns="http://www.w3.org/2000/svg" xmlns:xlink="http://www.w3.org/1999/xlink" x="0px" y="0px"
	 viewBox="0 0 1274 271" enable-background="new 0 0 1274 271" xml:space="preserve">
<rect x="140.6" y="74.2" fill="#8D8F93" width="987.9" height="147"/>
<rect x="161.6" y="101.2" fill="#B0B8EA" width="103" height="120"/>
<rect x="283.6" y="101.2" fill="#B0B8EA" width="103" height="120"/>
<rect x="404.6" y="101.2" fill="#B0B8EA" width="104" height="120"/>
<polygon fill="#C8D1FC" points="288.7,221.2 361.9,101.2 378.4,101.2 307.3,221.2 "/>
<polygon fill="#C8D1FC" points="411.5,221.2 484.8,101.2 501.2,101.2 430.1,221.2 "/>
<polygon fill="#C8D1FC" points="165.8,221.2 239.1,101.2 255.6,101.2 184.5,221.2 "/>
<rect x="1116.5" y="101.2" fill="#ACADAF" width="5" height="120"/>
<rect x="526.6" y="101.2" fill="#B0B8EA" width="104" height="120"/>
<polygon fill="#C8D1FC" points="533.6,221.2 606.9,101.2 623.3,101.2 552.2,221.2 "/>
<rect x="647.6" y="101.2" fill="#B0B8EA" width="104" height="120"/>
<polygon fill="#C8D1FC" points="654.7,221.2 727.9,101.2 744.4,101.2 673.3,221.2 "/>
<g>
	<path fill="#808285" d="M57.6,221.2v-66c0-6.9,6.3-13,14.2-13h1.7c7.8,0,14.1,6.1,14.1,13v66H57.6z"/>
	<circle fill="#A7A9AC" cx="73.1" cy="157.6" r="12.6"/>
	<circle fill="#BCBEC0" cx="73.1" cy="157.6" r="3.8"/>
	<polygon opacity="0.35" fill="#231F20" points="57.6,221.2 57.6,183.9 87.7,221.2 	"/>
	<path opacity="0.35" fill="#231F20" d="M69.9,164.8l-6.1,14.7c0,0,1.7,3.5,5.9,1.4l6.6-14.5L69.9,164.8z"/>
	<path opacity="0.35" fill="#231F20" d="M57.6,173.8c0.8,0.1,1.9,0,3.2-0.7l6.6-14.5l-6.4-1.6l-3.4,8.3"/>
	<path opacity="0.35" fill="#231F20" d="M78,155.8l-6.1,14.7c0,0,1.7,3.5,5.9,1.4l6.6-14.5L78,155.8z"/>
	<path opacity="0.35" fill="#231F20" d="M69.9,148l-6.1,14.7c0,0,1.7,3.5,5.9,1.4l6.6-14.5L69.9,148z"/>
	<circle fill="#D1D3D4" cx="73" cy="149.4" r="3.3"/>
	<circle fill="#D1D3D4" cx="73" cy="166" r="3.3"/>
	<circle fill="#D1D3D4" cx="81.1" cy="157.1" r="3.3"/>
	<circle fill="#D1D3D4" cx="64.4" cy="157.1" r="3.3"/>
</g>
<rect x="174.6" y="191.2" fill="#ACAEB5" width="113" height="11"/>
<path fill="#97989E" d="M214.4,191.7c0,1.5-1,2.5-2.1,2.5h-28c-1.2,0-2.1-1-2.1-2.5l0,0c0-1.5,1-2.5,2.1-2.5h28
	C213.4,189.2,214.4,190.2,214.4,191.7L214.4,191.7z"/>
<path fill="#97989E" d="M249.4,191.2c0,1.5-1,3-2.1,3h-28c-1.2,0-2.1-1.5-2.1-3l0,0c0-1.5,1-3,2.1-3h28
	C248.4,188.2,249.4,189.7,249.4,191.2L249.4,191.2z"/>
<path fill="#97989E" d="M284.4,191.2c0,1.5-1,3-2.1,3h-28c-1.2,0-2.1-1.5-2.1-3l0,0c0-1.5,1-3,2.1-3h28
	C283.5,188.2,284.4,189.7,284.4,191.2L284.4,191.2z"/>
<rect x="174.6" y="191.2" fill="#97989E" width="7" height="30"/>
<rect x="285.6" y="191.2" fill="#97989E" width="7" height="30"/>
<polygon opacity="0.35" fill="#231F20" points="181.6,202.2 286,202.2 181.6,220.9 "/>
<rect x="399.6" y="191.2" fill="#ACAEB5" width="113" height="11"/>
<path fill="#97989E" d="M439.3,191.7c0,1.5-1,2.5-2.1,2.5h-28c-1.2,0-2.1-1-2.1-2.5l0,0c0-1.5,1-2.5,2.1-2.5h28
	C438.3,189.2,439.3,190.2,439.3,191.7L439.3,191.7z"/>
<path fill="#97989E" d="M474.3,191.2c0,1.5-1,3-2.1,3h-28c-1.2,0-2.1-1.5-2.1-3l0,0c0-1.5,1-3,2.1-3h28
	C473.3,188.2,474.3,189.7,474.3,191.2L474.3,191.2z"/>
<path fill="#97989E" d="M509.3,191.2c0,1.5-1,3-2.1,3h-28c-1.2,0-2.1-1.5-2.1-3l0,0c0-1.5,1-3,2.1-3h28
	C508.4,188.2,509.3,189.7,509.3,191.2L509.3,191.2z"/>
<rect x="399.6" y="191.2" fill="#97989E" width="7" height="30"/>
<rect x="510.6" y="191.2" fill="#97989E" width="7" height="30"/>
<polygon opacity="0.35" fill="#231F20" points="406.6,202.2 510.9,202.2 406.6,220.9 "/>
<g>
	<rect x="614.6" y="192.2" fill="#ACAEB5" width="113" height="11"/>
	<path fill="#97989E" d="M653.7,192.2c0,1.5-1,3-2.1,3h-28c-1.2,0-2.1-1.5-2.1-3l0,0c0-1.5,1-3,2.1-3h28
		C652.8,189.2,653.7,190.7,653.7,192.2L653.7,192.2z"/>
	<path fill="#97989E" d="M688.8,191.7c0,1.5-1,2.5-2.1,2.5h-28c-1.2,0-2.1-1-2.1-2.5l0,0c0-1.5,1-2.5,2.1-2.5h28
		C687.8,189.2,688.8,190.2,688.8,191.7L688.8,191.7z"/>
	<path fill="#97989E" d="M723.8,191.7c0,1.5-1,2.5-2.1,2.5h-28c-1.2,0-2.1-1-2.1-2.5l0,0c0-1.5,1-2.5,2.1-2.5h28
		C722.8,189.2,723.8,190.2,723.8,191.7L723.8,191.7z"/>
	<rect x="614.6" y="192.2" fill="#97989E" width="7" height="29"/>
	<rect x="725.6" y="192.2" fill="#97989E" width="7" height="29"/>
	<polygon opacity="0.35" fill="#231F20" points="621.6,203.2 725.3,203.2 621.6,221.3 	"/>
</g>
<rect x="0.6" y="221.2" fill="#808285" width="1273.9" height="50"/>
<polyline fill="#6D6E71" points="206.1,221.6 197,229.6 190.4,254.2 198.4,231.2 216,221.2 205.6,221.2 "/>
<polygon fill="#6D6E71" points="777,221.2 796,230.4 791.8,243.6 776.1,255.1 793.1,244.6 797,230.7 817.6,238 832.7,268 
	818.8,237.4 797.9,229.8 785.4,221.2 "/>
<rect x="768.6" y="100.2" fill="#B0B8EA" width="103" height="121"/>
<polygon fill="#C8D1FC" points="775.3,221.2 848.6,100.2 865,100.2 793.9,221.2 "/>
<rect x="887.6" y="100.2" fill="#B0B8EA" width="104" height="121"/>
<polygon fill="#C8D1FC" points="894.5,221.2 967.8,100.2 984.2,100.2 913.1,221.2 "/>
<rect x="1005.5" y="101.2" fill="#B0B8EA" width="104" height="120"/>
<polygon fill="#C8D1FC" points="1012.4,221.2 1085.7,101.2 1102.1,101.2 1031.1,221.2 "/>
<polygon opacity="0.35" fill="#231F20" points="140.6,91.2 1122.1,91.2 140.6,174.1 "/>
<polygon fill="#FFF8B8" points="325.8,96.2 188,96.2 185.4,91.2 328.4,91.2 "/>
<polygon fill="#FFF8B8" points="524.3,96.2 386.4,96.2 383.8,91.2 526.8,91.2 "/>
<polygon fill="#FFF8B8" points="722.7,96.2 584.8,96.2 582.3,91.2 725.2,91.2 "/>
<polygon fill="#FFF8B8" points="921.1,96.2 783.2,96.2 780.7,91.2 923.7,91.2 "/>
<polygon fill="#FFF8B8" points="1119.5,96.2 981.7,96.2 979.1,91.2 1122.1,91.2 "/>
<g>
	<rect x="804.6" y="190.2" fill="#ACAEB5" width="113" height="11"/>
	<path fill="#97989E" d="M844.3,190.7c0,1.5-1,2.5-2.1,2.5h-28c-1.2,0-2.1-1-2.1-2.5l0,0c0-1.5,1-2.5,2.1-2.5h28
		C843.4,188.2,844.3,189.2,844.3,190.7L844.3,190.7z"/>
	<path fill="#97989E" d="M879.3,190.2c0,1.5-1,3-2.1,3h-28c-1.2,0-2.1-1.5-2.1-3l0,0c0-1.5,1-3,2.1-3h28
		C878.4,187.2,879.3,188.7,879.3,190.2L879.3,190.2z"/>
	<path fill="#97989E" d="M914.4,190.2c0,1.5-1,3-2.1,3h-28c-1.2,0-2.1-1.5-2.1-3l0,0c0-1.5,1-3,2.1-3h28
		C913.4,187.2,914.4,188.7,914.4,190.2L914.4,190.2z"/>
	<rect x="804.6" y="190.2" fill="#97989E" width="7" height="30"/>
	<rect x="915.5" y="190.2" fill="#97989E" width="7" height="30"/>
	<polygon opacity="0.35" fill="#231F20" points="811.6,201.2 915.9,201.2 811.6,219.9 	"/>
</g>
<g>
	<rect x="988.5" y="191.2" fill="#ACAEB5" width="113" height="11"/>
	<path fill="#97989E" d="M1027.9,191.7c0,1.5-1,2.5-2.1,2.5h-28c-1.2,0-2.1-1-2.1-2.5l0,0c0-1.5,1-2.5,2.1-2.5h28
		C1027,189.2,1027.9,190.2,1027.9,191.7L1027.9,191.7z"/>
	<path fill="#97989E" d="M1062.9,191.2c0,1.5-1,3-2.1,3h-28c-1.2,0-2.1-1.5-2.1-3l0,0c0-1.5,1-3,2.1-3h28
		C1062,188.2,1062.9,189.7,1062.9,191.2L1062.9,191.2z"/>
	<path fill="#97989E" d="M1098,191.2c0,1.5-1,3-2.1,3h-28c-1.2,0-2.1-1.5-2.1-3l0,0c0-1.5,1-3,2.1-3h28
		C1097,188.2,1098,189.7,1098,191.2L1098,191.2z"/>
	<rect x="988.5" y="191.2" fill="#97989E" width="7" height="30"/>
	<rect x="1099.5" y="191.2" fill="#97989E" width="7" height="30"/>
	<polygon opacity="0.35" fill="#231F20" points="995.5,202.2 1099.5,202.2 995.5,220.7 	"/>
</g>
<g>
	<path d="M920.4,236.3c0.5,0,0.8-0.2,1-0.7c0.2,0.1,0.4,0.3,0.3,0.6l0.2,0.1l0.1-0.3c0.2,0,0.3,0.1,0.3,0.3c0.6-0.3,1.3-0.3,2.1,0
		c0-0.2,0.1-0.3,0.3-0.3c0,0.2,0.1,0.3,0.3,0.3c0.1-0.3,0.3-0.4,0.7-0.3c0.2,0.4,0.5,0.5,1,0.3c0.1,0.3,0.3,0.4,0.7,0.3
		c0,0.3,0.1,0.6,0.3,0.8l-0.5,0.3c0.1,0.1,0.2,0.2,0.2,0.2v2.1v0.5v0.3c1,0.5,0.6,1,0.5,1.8c0.5,0.4,1,1.6,1.2,1.6h0.3l-0.3,0.6
		c-0.1,0.3,0,0.6,0.3,0.7c-0.3,1.2-0.3,2,0,2.3c-0.2,0.1-0.3,0.3-0.3,0.5c0.2,0,0.3,0.1,0.3,0.4c-0.2,0.7-0.2,1.5,0,2.3l-0.4,0.3
		c-0.1,0.5,0.3,0.9,0.3,1.3v1.5v0.3c0,0.8-0.5,1.5,0,1.9c-0.3,0.3-0.3,0.8-0.3,1.3l0.7,0.3c0.2-1-0.1-1.7-0.5-2.2l0.1-0.3v-3.7
		c0,0,0-0.1,0-0.3c0.2-0.1,1-0.4,1-0.8v-2.3c0,0,0,0,0-0.1v-2.6c0-0.1,0.5-0.3,0.4-0.7c-0.3,0-0.2-0.6,0-1.7c0.2,0,0.3-0.1,0.4-0.3
		c-0.6-0.2-0.7-0.7-0.3-1.4c-0.2,0-0.3-0.1-0.3-0.3c0.2,0.2,0.4,0.3,0.7,0.2c0-0.5-0.4-0.9-0.9-1.3c0-0.2,0.1-0.3,0.1-0.3v-3.1
		c1-0.1,0.7-0.5,0.9-0.9c0.3,0.1,0.8,0.4,0.9-0.6h0.6c0.5,1,1.2,0.7,2.2,0.6c-0.1,0.5,0.1,0.8,0.7,0.8l-0.3-0.6l0.6,0.4
		c0.6-0.8,1.1-1.2,1.5-0.6c0.5,0,0.8,0.5,1,0.5h0.7l-0.3,0.7c0.2,0.6-0.3,1.2-0.3,1.5v0.6v1.3v1.1c-1,0.5-0.7,1.1-0.4,1.7
		c-0.3,0.2-0.3,0.5,0,0.9c-0.3,0.3-0.3,0.5,0,0.8l-0.7,0.1l0.3,0.7c-0.3,0.1-0.3,0.3,0,0.7c-0.3,0.1-0.5,0.3-0.7,0.7
		c0.3,0.1,0.4,0.3,0.3,0.7l0.3,0.1c-0.4,0.5-0.7,1.1-0.7,1.9c-0.5,0.2-0.8,0.7-0.7,1.4c-0.3,0.1-0.5,0.3-0.7,0.6
		c-0.1,0.7,0,1.4,0.3,2.3c-0.5,0.8-0.7,1.8-0.7,3c-0.2,0-0.3,0.1-0.3,0.2l0.3,0.4c-0.3,0.1-0.5,0.7-0.7,0.7h-0.3l0.3,0.7
		c-0.6,0.3-0.7,0.7-0.3,1.3c-0.3,0.3-0.5,0.7-0.7,1.1c-0.4,0-0.8,0.2-1.1,0.3c-0.4-0.6-0.9-0.7-1.6-0.3c-0.1-0.3-0.4-0.3-1,0
		l-0.3-0.8c0.3-0.5,0.3-1,0-1.6c-0.9,0.4-1,0.9-0.3,1.4c-0.3,0.3-0.3,0.8,0,1.4c-1.6-0.7-2.2-0.7-2.1,0c-0.5-0.3-1.1-0.3-1.7,0
		c-0.2-0.3-0.5-0.6-1-0.7c0.2-0.3,0.2-0.9,0-1.2c0.6-0.4,0.7-0.6,0.3-2.6h-0.3c0.2,0,0.1-0.5,0.1-0.7v-1.4c-1,0.3-1.4,0.1-1.4-0.9
		h-0.6v-1.8c0-0.1-0.3-0.3-0.2-0.6l0.4-0.9c0-0.4-0.2-0.7-0.7-0.9l0.4-0.6c-0.6-0.7-0.6-1.3,0-1.8c-0.4-1.1-0.4-1.8,0-2.1
		c-0.2-0.4-0.3-0.8-0.3-1.4c-0.4-0.3-0.6-0.9-0.7-2.1c-0.3-0.1-0.4-0.3-0.3-0.6l-0.2-0.1l-0.1-0.3h0.8v-0.4c-1,0-1.4-0.5-1.3-1.5
		c0.1-0.3,0.3-0.5-0.7-0.6V238c1-0.2,0.6-0.5,0.2-0.9C920,237,920.3,236.7,920.4,236.3z M920.5,238.7c0-0.1,0-0.2,0-0.3V238.7z
		 M920.5,240.1c1-0.2,1-0.4,0-0.7V240.1z M921,236.3h0.1H921c0.3,0.3,0.3,0.3,0.1,0H921z M929.5,258.6c1,0.4,1,0.2,0-0.7V258.6z
		 M930.3,260.2c0.1,1,0.2,1,0.3,0H930.3z M931,240.1c0.3-0.1,0.3-0.2,0.1-0.3L931,240.1z M931.5,238.4c0-0.1,0-0.2,0-0.3V238.4z
		 M931.7,239.1c0-0.2-0.1-0.3-0.3-0.3C931.3,238.9,931.4,239,931.7,239.1z M931.5,240.8c0-0.1,0-0.2,0-0.3V240.8z M936.8,247.2
		c0.1,0,0.2,0,0.3,0H936.8z"/>
	<path d="M944.3,235.4c0.6,0.1,0.8-0.2,0.8-0.8c0.9,0.2,1.4,0.6,1.4,1.6h0.3c0.1,1,0,1.1-0.3,1.6c0.1,0.1,0.2,0.2,0.3,0.3
		c-0.2,0.4-0.2,0.9,0,1.4c-0.4,0.2-0.5,0.6-0.3,1.2c-0.3,0.3-0.4,0.8-0.3,1.3c0.3,0.2,0.5,0.5,0.3,1c0.3,0,0.7-0.1,1-0.3
		c-0.3,0.5-0.7,0.6-1.4,0.5c0.3,0.3,0.3,1.2,0,1.2h0.7c-0.2,1,0,1.2,0.3,1.7c-0.3,0.3-0.3,0.6,0,0.9c-0.3,0.2-0.3,0.4,0,0.6
		c-0.2,0.4-0.2,0.9,0,1.3c-0.4,0.3-0.5,0.8-0.3,1.7c-0.2,0-0.3,0.1-0.3,0.3c0.4-0.1,0.7,0.1,0.7,0.6c-0.3,0.3-0.6,0.7-0.7,1.3
		c0,0.4,0.2,0.7,0.7,0.9c-0.2,0.6-0.2,1.1,0,1.7c-0.5,0.3-0.5,0.7,0,1.4c-0.3-0.1-0.5,0-0.7,0.3c0.2,0,0.5,0,0.7,0.2
		c-0.5,0.3-0.7,0.7-0.3,1.1c-0.4,0.2-0.3,0.5-0.2,1c0.1,0.3-0.1,0.4,0.9,0.3v0.3l-0.7,0.3c-0.3-1-0.5-0.9-0.5,0.3l-1.8-0.6
		c0,0.3,0.1,0.1,0.3,1.1h-0.3c-0.1-1-0.9-0.9-0.9-0.9v-0.1h-0.8c-0.5,1-1.4,0.7-2.7,0.2c0-0.5-0.3-0.9-0.7-1.2
		c-0.2-0.6,0.3-1.2,0.3-1.8v-1.3h0.5c0,0-0.1-0.3-0.3-0.3c0.1-0.3,0-0.5-0.3-0.7c0.3-0.8,0.2-1.6-0.3-2.4c0.7-0.4,0.7-0.9,0-1.4
		c0.2-0.4,0.2-0.8,0-1.3c0.3-0.2,0.4-0.6,0.3-1.1c0.4-0.2,0.3-0.4-0.3-0.3c0.4-0.5,0.4-0.8,0-1c0.6-0.9,0.6-1.6,0-2.1
		c0.6-0.8,0.6-1.3,0-1.7c0.5-0.8,0.5-1.5,0-2.2c0.3-0.6,0.3-1.3,0-1.9c0.3-0.2,0.6-0.3,1-0.3c-0.1-0.5-0.5-0.7-1-0.7
		c0.2-0.3,0.2-0.8,0-1.1c0.4-0.2,0.5-0.4,0.3-1.4h0.7l-0.3-0.6c0.4-0.1,0.8-0.3,1.1-0.6c0.4,0.2,0.8,0.3,1.3,0
		c0.2,0.6,0.7,0.7,1.4,0.4C943.6,235.7,943.9,235.7,944.3,235.4z M939.3,239.8h0.1H939.3v0.3c0.7-0.1,0.8-0.2,0.1-0.3H939.3z
		 M939.3,241.9c0.8-0.3,0.9-0.6,0.3-1C939.5,241.1,939.4,241.5,939.3,241.9z M939.5,244.3c0-0.1,0-0.2,0-0.3V244.3z M939.7,245.2
		c0.1,0,0.2,0,0.3,0H939.7z M939.7,247.2c0.1,0,0.2,0,0.3,0H939.7z M943.5,260c0-0.1,0-0.2,0-0.3V260z M944.8,248.2
		c0.1,1,0.2,1,0.3,0H944.8z M944.8,249.7c1.4,0.1,1.6-0.2,0.7-0.7v0.3C945.2,249.3,944.9,249.4,944.8,249.7z M944.5,250.4
		c1-0.1,1-0.2,0-0.3V250.4z M945.1,259.2c0.1,1,0.2,1,0.3,0H945.1z M945.8,248.2c0.1,0,0.2,0,0.3,0H945.8z M947.9,243.9
		c-0.3,0.7-0.7,0.7-1,0C947.2,244.1,947.5,244.1,947.9,243.9z M946.5,259c1,0.1,1,0.2,0,0.3V259z M948.6,243.2
		c-0.6,0.4-0.7,0.3-0.3-0.3C948.4,242.9,948.5,243,948.6,243.2z"/>
	<path d="M948.6,236.3c0.5,0,0.8-0.2,1-0.7c0.2,0.1,0.4,0.3,0.3,0.6l0.2,0.1l0.1-0.3c0.2,0,0.3,0.1,0.3,0.3c0.6-0.3,1.3-0.3,2.1,0
		c0-0.2,0.1-0.3,0.3-0.3c0,0.2,0.1,0.3,0.3,0.3c0.1-0.3,0.3-0.4,0.7-0.3c0.2,0.4,0.5,0.5,1,0.3c0.1,0.3,0.3,0.4,0.7,0.3
		c0,0.3,0.1,0.6,0.3,0.8l-0.1,0.3c0.1,0.1-0.4,0.2,0.6,0.2v2.1v0.5v0.3c0,0.5,0.2,1,0.1,1.8c0.5,0.4,0.6,1.6,0.8,1.6h0.3l-0.3,0.6
		c-0.1,0.3,0,0.6,0.3,0.7c-0.3,1.2-0.3,2,0,2.3c-0.2,0.1-0.3,0.3-0.3,0.5c0.2,0,0.3,0.1,0.3,0.4c-0.2,0.7-0.2,1.5,0,2.3l-0.5,0.3
		c-0.1,0.5,0.2,0.9,0.2,1.3v1.5v0.3c0,0.8-0.4,1.5,0.1,1.9c-0.3,0.3-0.3,0.8-0.3,1.3l0.7,0.3c0.2-1,0.3-1.7-0.1-2.2l0.5-0.3v-3.7
		c-1,0-0.5-0.1-0.5-0.3c0.2-0.1,0.5-0.4,0.5-0.8v-2.3c0,0,0,0,0-0.1v-2.6c1-0.1,0.6-0.3,0.5-0.7c-0.3,0-0.2-0.6,0.1-1.7
		c0.2,0,0.3-0.1,0.4-0.3c-0.6-0.2-0.7-0.7-0.3-1.4c-0.2,0-0.3-0.1-0.3-0.3c0.2,0.2,0.4,0.3,0.7,0.2c0-0.5-0.1-0.9-0.5-1.3
		c0-0.2-0.5-0.3,0.5-0.3v-3.1c0-0.1,0.4-0.5,0.5-0.9c0.3,0.1,0.4,0.4,0.5-0.6h0.6c0.5,1,1.2,0.7,2.2,0.6c-0.1,0.5,0.1,0.8,0.7,0.8
		l-0.3-0.6l0.6,0.4c0.6-0.8,1.1-1.2,1.5-0.6c0.5,0,0.8,0.5,1,0.5h0.7l-0.4,0.7c0.2,0.6,0.6,1.2-0.4,1.5v0.6v1.3v1.1
		c0,0.5-0.6,1.1-0.2,1.7c-0.3,0.2-0.2,0.5,0,0.9c-0.3,0.3-0.2,0.5,0,0.8l-0.7,0.1l0.3,0.7c-0.3,0.1-0.3,0.3,0,0.7
		c-0.3,0.1-0.5,0.3-0.7,0.7c0.3,0.1,0.4,0.3,0.3,0.7l0.3,0.1c-0.4,0.5-0.7,1.1-0.7,1.9c-0.5,0.2-0.8,0.7-0.7,1.4
		c-0.3,0.1-0.5,0.3-0.7,0.6c-0.1,0.7,0,1.4,0.3,2.3c-0.5,0.8-0.7,1.8-0.7,3c-0.2,0-0.3,0.1-0.3,0.2l0.3,0.4
		c-0.3,0.1-0.5,0.7-0.7,0.7h-0.3l0.3,0.7c-0.6,0.3-0.7,0.7-0.3,1.3c-0.3,0.3-0.5,0.7-0.7,1.1c-0.4,0-0.8,0.2-1.1,0.3
		c-0.4-0.6-0.9-0.7-1.6-0.3c-0.1-0.3-0.4-0.3-1,0l-0.3-0.8c0.3-0.5,0.3-1,0-1.6c-0.9,0.4-1,0.9-0.3,1.4c-0.3,0.3-0.3,0.8,0,1.4
		c-1.6-0.7-2.2-0.7-2.1,0c-0.5-0.3-1.1-0.3-1.7,0c-0.2-0.3-0.5-0.6-1-0.7c0.2-0.3,0.2-0.9,0-1.2c0.6-0.4,0.7-0.6,0.3-2.6h-0.3
		c0.2,0-0.1-0.5-0.1-0.7v-1.4c-1,0.3-1.2,0.1-1.2-0.9h-0.8v-1.8c0-0.1-0.1-0.3-0.1-0.6l0.5-0.9c0-0.4-0.2-0.7-0.6-0.9l0.4-0.6
		c-0.6-0.7-0.6-1.3,0-1.8c-0.4-1.1-0.4-1.8,0-2.1c-0.2-0.4-0.3-0.8-0.3-1.4c-0.4-0.3-0.6-0.9-0.7-2.1c-0.3-0.1-0.4-0.3-0.3-0.6
		l-0.2-0.1l-0.1-0.3h0.6v-0.4c-1,0-0.9-0.5-0.8-1.5c0.1-0.3-0.2-0.5-0.2-0.6V238c0-0.2,0.2-0.5-0.2-0.9
		C948.6,237,948.6,236.7,948.6,236.3z M948.5,238.7c0-0.1,0-0.2,0-0.3V238.7z M948.5,240.1c1-0.2,1-0.4,0-0.7V240.1z M949.3,236.3
		h0.1H949.3c0.2,0.3,0.3,0.3,0.1,0H949.3z M957.5,258.6c1,0.4,1,0.2,0-0.7V258.6z M958.5,260.2c0.1,1,0.2,1,0.3,0H958.5z
		 M959.2,240.1c0.3-0.1,0.3-0.2,0.1-0.3L959.2,240.1z M959.5,238.4c0-0.1,0-0.2,0-0.3V238.4z M959.9,239.1c0-0.2-0.1-0.3-0.3-0.3
		C959.6,238.9,959.7,239,959.9,239.1z M959.5,240.8c0-0.1,0-0.2,0-0.3V240.8z M965,247.2c0.1,0,0.2,0,0.3,0H965z"/>
	<path d="M976.9,234.9c0.4,0.2,0.8,0,0.9-0.3c0.7,0.5,1.4,0.5,2.3,0c0.3,0.4,1,0.4,2.2,0c0.3,0.4,0.7,0.7,1.4,0.7
		c-0.1,0.5,0.1,0.7,0.6,0.7c-0.2,0.7,0.3,1.1,0.3,1.4v0.7c0,0.1-0.4,0.3-0.6,0.3h0.7c-0.1,1,0.1,0.9,0.7,0.9c0,0.2,0.1,0.4,0.3,0.4
		c-0.1,0.3,0,0.5,0.3,0.7c-0.2,0.3-0.3,1-0.3,1h-0.3c0,0,0.2,0.5,0.2,0.5v2.1l0.4,0.1c-0.3,0.5-0.3,1.1,0,1.7l-0.3,0.6
		c0.2,0,0.3,0.2,0.3,0.5c-0.7,0.7-0.7,1.4,0,2.2c-0.6,0.1-0.7,0.4-0.3,0.8c-0.3,0.1-0.3,0.2,0,0.3c-0.3,0.5-0.2,0.8,0.3,1
		c-0.4,1-0.4,1.8,0,2.4c-0.7,0.3-0.8,0.9-0.3,1.6c-0.2,0.2-0.3,0.4-0.3,0.8c-0.5,0.2-0.8,0.7-0.7,1.4c-0.3,0.1-0.4,0.3-0.3,0.7
		c-0.3-0.1-0.6,0-0.7,0.3c-1.2-0.5-1.9,0-2.1,1.4c-0.3,0-0.3-0.1-0.6-0.3c-0.4,0.3-1.4,0.4-1.4,0.3v0.3c-1,0-0.9,0.1-1.2,0.3
		c-0.5,0-1-0.1-1.5-0.3c0,0.2-0.2,0.3-0.4,0.3c0-0.2-0.1-0.3-0.3-0.3c-0.3,0.3-0.7,0.4-1.2,0.3c-0.1-0.6,0-1.2,0.3-1.9l-0.3-0.5
		c-0.4,0.2-0.5,1-0.3,2.4c-0.5-0.3-1.1-0.3-1.7,0c-0.1-0.5-0.5-0.7-1-0.7c0.2-0.7-0.4-1-1.7-1c-0.2-0.6-0.7-0.9-1.4-1
		c0.3-0.5,0.2-0.8-0.3-1c-0.1-0.3-0.3-0.5-0.7-0.7c0-0.3-0.1-0.7-0.3-0.9l0.3-0.1c0-0.3-0.1-0.7-0.3-0.9c0.5-0.4,0-0.8,0-1.1v-1.3
		c0-0.8,0.5-1.3,0-1.5c0.2-0.3,0.2-0.7,0-1c0.4-0.2,0.5-0.7,0.3-1.4c0.5-0.3,0.5-0.7,0-1.3c0.2-0.4,0.2-0.7,0-1.1
		c0.4-0.2,0.4-0.5,0-0.8c0.5-0.6,0.7-1.3,0.7-2.3c0.4-0.2,0.5-0.9,0.3-2.1c0.4-0.2,0.5-0.5,0.3-1c0.4-0.3,0.7-0.7,0.7-1.4
		c0.6-0.1,1-0.5,1.4-1c0.5,0.1,0.7-0.1,0.7-0.7c0.7,0,1.5-0.2,2.3-0.7l0.2,0.3c0.4-0.3,0.8-0.5,1.4-0.7c0.2,0.2,0.5,0.3,0.9,0.3
		L976.9,234.9z M967.5,252c1-0.1,1-0.2,0-0.3V252z M975.5,235.2c-0.4,1-0.3,1.7,0.2,2.1c-0.3,0.5-0.2,1.1,0.1,1.8l-0.3,0.2v2.3v0.3
		v0.5c0,0.2-0.2,0.3-0.4,0.3c0.3,0.6,0.4,1.2,0.3,1.9c-0.2,0.1-0.3,0.3-0.4,0.5c0.1,0,0.2,0.1,0.3,0.2c-0.3,0.2-0.3,0.5,0,0.8
		c-0.3,0.1-0.4,0.3-0.3,0.7c0.1,0.3,0.3,0.3,0.6,0l0.1,0.2c-0.5,0.3-0.7,0.8-0.7,1.5c-0.4,0.2-0.4,0.5,0,0.9c-0.3,0.2-0.3,0.4,0,0.7
		c-0.3,0.2-0.3,0.4,0,0.6c-0.3,0.3-0.3,0.4,0,0.6c-0.1,0.3-0.3,0.5-0.7,0.7c0.3,0.3,0.3,0.8,0,1.4l0.9,0.3c0,0.8,0.3,1.1,1.3,0.7
		v0.7c0-0.1,0.5-0.9,0.9-0.9h1.1v-1.5c0-0.4,0.4-0.9-0.2-1.6c0.6-0.7,0.5-1.5-0.1-2.3c0.3-0.6,0.3-1.2-0.1-1.9
		c0.3-0.1,0.4-0.7,0.3-0.7h-0.3c0,0-0.1-0.5-0.3-0.7c0.3,0,0.5-0.3,0.7-0.3h-0.9v-0.8c1,0.1,0.8-0.2,0.9-0.2h-1
		c0.1,0,0.3-0.5,0.7-0.4c-0.1-0.3-0.3-0.5-0.7-0.7l0.3-0.7c-0.3,0-0.7-0.2-1-0.3c0-0.2,0-0.3,0.2-0.3c-0.1-0.6,0.6-1.1,0.6-1.4V240
		c0-0.3-0.7-0.3-1.3,0c0-0.2-0.1-0.3-0.3-0.3c0.1-0.5,0-1.1-0.3-1.7c0.3-0.1,0.4-0.4,0.4-0.8c-0.1-0.1-0.2-0.2-0.3-0.2
		c0.3-0.3,0.3-0.5,0-0.8c0.2-0.2,0.3-0.9,0.3-0.9H975.5z M975,256.5c0.3-0.5,0.2-0.8-0.3-1C974.6,256.6,974.7,257,975,256.5z
		 M975.4,255.4c0-0.5-0.2-0.8-0.7-1C974.6,254.9,974.9,255.2,975.4,255.4z M974.7,257.1c0.7,0.8,0.8,0.7,0.5-0.3L974.7,257.1z
		 M975.7,248.9c-0.2,0-0.3-0.1-0.3-0.3C975.6,248.6,975.7,248.7,975.7,248.9z M977.1,242.1c0.3-0.1,0.3-0.2,0.1-0.3L977.1,242.1z
		 M979.1,235.2c0.1,0,0.2,0,0.3,0H979.1z M984.5,252c1-0.1,1-0.2,0-0.3V252z M985.6,244.1c0-0.2-0.1-0.3-0.3-0.3
		C985.3,244,985.4,244.1,985.6,244.1z"/>
	<path d="M991.6,236.3c0.5,0.1,0.8-0.1,1-0.5l0.4,0.1c-0.4,0.8-0.2,1.3,0.6,1.5c-0.1-0.3-0.2-0.7-0.5-1c0.3-0.1,0.5-0.4,0.6-0.8
		l1-0.1c0.3,0.4,0.7,0.4,1.4,0.1c0.3,0.5,1.1,0.3,2.4-0.3c0.2,0.4,0.6,0.7,1.2,0.9c0.2,0.8,0.9,1.2,1.9,1.1l0.1,0.7l0.3,0l0.1,0.7
		l0.3,0c0,0.4,0.2,0.8,0.5,1.2l0.2,1.5c-0.3,0.2-0.4,0.6-0.2,1.1l-0.7,0.1l0.4,0.6c-0.2,0-0.3,0.1-0.3,0.4c-0.5-0.1-0.8,0.1-1,0.5
		c-0.9-0.2-1.3-0.2-1.5,0.2c-0.6-0.3-1.3-0.1-1.9,0.6l-0.2-0.7c-0.2,0.2-0.5,0.4-0.8,0.5c0.1-0.3,0.2-0.7,0.2-1.1l-0.6,0.4l0.3-0.5
		c-0.3-0.4-0.5-0.9-0.6-1.5c-0.5-0.1-0.8,0.1-1,0.5l-0.7,0.1c-0.2-0.4-0.4-1-0.6-1.6l-0.7,0.1l0.4,0.6c-0.3,0.1-0.3,0.4,0.1,0.7
		c-0.3,0.2-0.5,0.4-0.6,0.8c0.8,0.3,1.3,0.9,1.3,1.9c0.5,0.3,1.1,0.4,1.8,0.4c0.1,0.3,0.3,0.3,0.6,0.3l0.1,0.2l0.2,0.1l0.3,0
		l0.2,0.3l1.3-0.5c0.2,0.3,0.4,0.3,0.7-0.1c0.2,0.3,0.4,0.4,0.7,0.2c0.1,0.3,0.4,0.5,0.8,0.6c0.2,0.8,0.8,1.3,1.6,1.5
		c0.1,0.3,0.2,0.7,0.5,1l0.3,0c0,0.2,0.1,0.5,0.3,0.7c0.1,0.1,0.3,0.2,0.5,0.3c-0.1,0.3,0.1,0.5,0.4,0.6c-0.2,0.7,0,1.5,0.7,2.2
		c-0.2,0.6-0.1,1.2,0.3,1.8c-0.4,0.2-0.6,0.6-0.5,1.1c-0.5,0.3-0.8,0.7-0.8,1.4l-0.3,0.2l-0.2,0.7c-0.8,0.1-1.2,0.7-1.2,1.5
		c-0.4,0.2-0.6,0.6-0.5,1.1c-0.5,0.1-0.9,0.4-1.3,0.9c0.3-1-0.3-1.1-1.6-0.1c-0.6-0.5-1.2-0.5-1.9-0.1c0.4-0.7,0.3-1.1-0.2-1.4
		l0.1,0.7l-0.7-0.2l0.1,0.7c-1.3,0.6-2.6,0.7-4.1,0.2l-0.1-0.7c-0.2,0.2-0.5,0.4-1,0.5c-0.1-0.3-0.4-0.5-0.8-0.6
		c0-0.6-0.4-0.8-1.1-0.5c0.1-0.3-0.1-0.5-0.4-0.6c0.3-0.5,0.2-0.8-0.4-0.6c0.3-0.7,0.1-0.8-0.8-0.6c0.3-0.6,0.1-1-0.5-1.3
		c-0.1-0.3-0.2-0.7-0.5-1c0.6,0,0.8-0.4,0.5-1.1c0.2,0,0.3-0.2,0.3-0.4l1.4-0.2l0.3,0l1.9-0.3l0.4-0.1l1.5-0.2l0.6-0.1l0.5,0
		l0.6-0.1c0.4,0.5,0.6,1.2,0.6,2c0.4,0.1,0.6,0.8,0.6,2l0.6-0.4l-0.4-0.6c0.5-0.5,0.7-1.2,0.4-2.1c0.3-0.2,0.4-0.6,0.2-1.1
		c-0.2,0-0.3-0.1-0.4-0.3c-0.8,0.2-1.3,0-1.5-0.8c-0.7,0.3-1,0.1-1.1-0.5l-1.4,0.2l0-0.3l-0.7,0.1l-0.4-0.6l-0.7,0.1
		c-0.4-0.8-1.1-1.4-2-1.8c-0.1-0.6-0.5-1-1.1-1.2c-0.1-0.5-0.4-0.9-1-1.2l-0.1-0.6l-0.4-0.1c0.2-0.3,0.2-0.6-0.1-0.8
		c0.2-0.3,0.2-0.6,0.2-0.9l-0.3,0c-0.1-0.3,0-0.6,0.2-0.7c0-0.2-0.2-0.3-0.4-0.3c0-0.2,0.1-0.3,0.3-0.4c-0.3-2.2,0.6-3.7,2.8-4.6
		c-0.1-0.6,0.2-1,0.9-1.2l0-0.3C990.7,237,991.3,236.9,991.6,236.3z M988.3,257.2c0.3-0.2,0.3-0.3,0-0.3L988.3,257.2z M991.6,260.5
		c0.3-0.2,0.3-0.3,0-0.3L991.6,260.5z M993.3,238.5c0.3-0.5,0.1-0.9-0.5-1c-0.1,0.7,0.1,1.1,0.5,1.3c-0.2,0.3-0.2,0.6,0.1,0.8
		c-0.2,0.3-0.2,0.6-0.2,0.9l0.7-0.1C993.9,239.3,993.7,238.7,993.3,238.5z M993.7,244c0.2,0.3,0.3,0.3,0.3,0L993.7,244z
		 M994.4,253.6c0.2,0.8,0.3,0.7,0.3,0L994.4,253.6z M996.8,258.7c0-0.2-0.2-0.3-0.4-0.3C996.5,258.6,996.6,258.7,996.8,258.7z
		 M996.7,258.1c0.4-0.3,0.4-0.7,0-1L996.7,258.1z M997,259.8c0.4-0.3,0.4-0.7,0-1L997,259.8z M999.4,259.8c0.2,0.3,0.3,0.3,0.3,0
		L999.4,259.8z M1001.5,242.9c0.2,0.3,0.3,0.3,0.3,0L1001.5,242.9z M1003.5,257.1c0.2,0.3,0.3,0.3,0.3,0L1003.5,257.1z"/>
	<path d="M1014,234.4c0.5,0.1,0.8-0.2,1-0.7c0.5,0.3,1.1,0.3,1.7,0c-0.2,0.8,0.3,0.6,1.3-0.2c0.6,0.8,1.3,0.8,1.8-0.2h1
		c0.2,1,0.5,0.8,1,0.9c0,0.4,0.2,0.9,0.3,1.3c-0.3,0.5-0.5,1.2-0.3,2c-0.7,0.4-0.7,0.9,0,1.4c0,0.3-0.1,0.5-0.3,0.8
		c0.3,0.4,0.4,1,0.3,1.6c-0.2,0-0.3,0.1-0.3,0.3c0.3,0.1,0.4,0.1,0.3,0.5c-0.2,0-0.3,0.1-0.3,0.1h0.7c-0.3,1-0.3,0.8,0,1.3
		c-0.3,0.1-0.4,0.7-0.3,0.7h-0.3c0.5,1,0.5,1.8,0,2.4c0.2,0.2,0.3,0.7,0.3,1c-0.2,0-0.3,0.2-0.3,0.4c0.3,0.1,0.5,0.3,0.7,0.6
		c-0.3,0.7-0.4,1.6-0.3,2.5c-0.2,0-0.3,0.1-0.3,0.2l0.3,0.5c-0.4,0.2-0.3,0.9-0.3,2.1v0.3c1,0.3,1,0.2,0.3-0.3c0.2-0.3,0.2-0.7,0-1
		c0.3,0,0.6-0.1,0.8-0.3l0.3,0.3c0.5-0.3,1.2-0.3,1.9,0c0.2-0.3,0.5-0.3,1-0.2c0,0.2,0.1,0.5,0.3,0.5h0.6c0.4,0,0.7-0.2,0.8-0.5
		c0.3,0.3,0.5,0.2,0.7-0.1l1.4,0.3c-0.2,0.6,0.1,1,0.7,1.1l-0.3,0.2c0,0.4-0.2,1-0.3,1.7c0.2,0,0.3,0.1,0.3,0.3
		c-0.1,0-0.2,0-0.3,0.1c0.3,0.4,0.4,1,0.3,1.6c-0.3,0.1-0.4,0.3-0.3,0.7c-0.5-0.1-0.8,0.2-1,0.7c-0.2,0-0.3-0.1-0.3-0.3
		c-0.2,0-0.2,0.1-0.2,0.3c-0.4-0.2-1.6-0.2-1.6,0v-0.2h-1.6c-0.3,1-1.4,0.7-2.4,0.2v-0.2l0,0v-0.8c-1,0.2-0.6,0.5-0.5,1
		c-0.5-0.3-1.1-0.3-1.7,0c-0.4-0.4-0.9-0.4-1.5,0l-0.4-0.7c-0.5-0.1-1,0.2-1.4,0.7c-0.5-0.3-0.9-0.3-1.1,0c-0.3-0.1-0.7-0.3-1.3-0.3
		l0.5,0.7c-0.5-0.3-1.6-0.3-1.6,0v-0.3c-1,0-1.2-0.2-1.3-1.2h-0.3c0.2-1,0.7-1.3,1.4-1.4c0.4-0.6,0.7-0.6,1,0.4h0.7
		c-0.4-1-0.7-1-0.7-2h0.1h-0.1h0.1c0.2-1,0.1-1.2-0.1-1.7c0.4-0.5,0.4-1.2,0-1.8c0.4-0.2,0.7-0.6,0.7-1.2c-0.2,0.2-0.4,0.2-0.7,0.1
		l0.7-0.5c-0.3-0.7-0.4-1.5-0.3-2.4c-0.2,0-0.3-0.1-0.3-0.3c0.1,0,0.2,0,0.3-0.1c-0.2-0.4-0.3-0.8-0.3-1.3c-0.2,0-0.3,0-0.3-0.2
		c0.3-0.1,0.4-0.6,0.3-0.6h0.3c-0.1,0-0.4-0.7-0.7-1c0.3-0.2,0.3-0.5,0-0.9c0.2,0.1,0.5,0,0.7-0.3c-0.1-0.4-0.2-0.5-0.5-0.1
		c-0.1,0-0.2-0.1-0.2-0.2c0.2-0.3,0.2-0.7,0-1c0.7-0.7,0.7-1.3,0-1.8c0.3-0.2,0.3-0.5,0-0.9c0-0.2,0.1-0.4,0.3-0.6
		c-0.2-0.3-0.4-0.8-0.3-1.4l0.3-0.5c-0.2-0.3-0.5-0.8-0.7-1.5C1014.4,235.5,1014.5,235.3,1014,234.4z M1014.5,240.6
		c0-0.1,0-0.2,0-0.3V240.6z M1015,241.3c0-0.2-0.1-0.3-0.3-0.3C1014.7,241.1,1014.8,241.2,1015,241.3z M1014.7,251.9
		c0.3-0.1,0.3-0.2,0.1-0.3L1014.7,251.9z M1016.5,234.7c0-0.1,0-0.2,0-0.3V234.7z M1018.5,259.1c1-0.1,1-0.2,0-0.3V259.1z
		 M1021.5,254.6c-0.2,1.2-0.1,1.9,0.3,2.1c-0.2,0.3-0.3,0.5-0.3,1.5h0.7c0.1-1,0-1.7-0.3-2.5l0.3-0.7L1021.5,254.6z M1024.3,253.2
		c0.1,0,0.2,0,0.3,0H1024.3z M1026.5,259.1c0-0.1,0-0.2,0-0.3V259.1z M1028,253.6c0-0.2-0.1-0.3-0.3-0.3
		C1027.7,253.4,1027.8,253.6,1028,253.6z M1029.4,254.2c0.1,0,0.2,0,0.3,0H1029.4z"/>
	<path d="M1039.8,234.9c0.4,0.2,0.8,0,0.9-0.3c0.7,0.5,1.4,0.5,2.3,0c0.3,0.4,1,0.4,2.2,0c0.3,0.4,0.7,0.7,1.4,0.7
		c-0.1,0.5,0.1,0.7,0.7,0.7c-0.2,0.7,0.3,1.1,0.3,1.4v0.7c0,0.1-0.5,0.3-0.7,0.3h0.7c-0.1,1,0.1,0.9,0.7,0.9c0,0.2,0.1,0.4,0.3,0.4
		c-0.1,0.3,0,0.5,0.3,0.7c-0.2,0.3-0.3,1-0.3,1h-0.3c0,0,0.3,0.5,0.3,0.5v2.1l0.4,0.1c-0.3,0.5-0.3,1.1,0,1.7l-0.3,0.6
		c0.2,0,0.3,0.2,0.3,0.5c-0.7,0.7-0.7,1.4,0,2.2c-0.6,0.1-0.7,0.4-0.3,0.8c-0.3,0.1-0.3,0.2,0,0.3c-0.3,0.5-0.2,0.8,0.3,1
		c-0.4,1-0.4,1.8,0,2.4c-0.7,0.3-0.8,0.9-0.3,1.6c-0.2,0.2-0.3,0.4-0.3,0.8c-0.5,0.2-0.8,0.7-0.7,1.4c-0.3,0.1-0.4,0.3-0.3,0.7
		c-0.3-0.1-0.6,0-0.7,0.3c-1.2-0.5-1.9,0-2.1,1.4c-0.3,0-0.3-0.1-0.6-0.3c-0.4,0.3-1.4,0.4-1.4,0.3v0.3c-1,0-0.9,0.1-1.3,0.3
		c-0.5,0-1-0.1-1.5-0.3c0,0.2-0.2,0.3-0.4,0.3c0-0.2-0.1-0.3-0.3-0.3c-0.3,0.3-0.7,0.4-1.2,0.3c-0.1-0.6,0-1.2,0.3-1.9l-0.3-0.5
		c-0.4,0.2-0.5,1-0.3,2.4c-0.5-0.3-1.1-0.3-1.7,0c-0.1-0.5-0.5-0.7-1-0.7c0.2-0.7-0.4-1-1.7-1c-0.2-0.6-0.7-0.9-1.4-1
		c0.3-0.5,0.2-0.8-0.3-1c-0.1-0.3-0.3-0.5-0.7-0.7c0-0.3-0.1-0.7-0.3-0.9l0.3-0.1c0-0.3-0.1-0.7-0.3-0.9c0.5-0.4,0.1-0.8,0.1-1.1
		v-1.3c0-0.8,0.4-1.3-0.1-1.5c0.2-0.3,0.2-0.7,0-1c0.4-0.2,0.5-0.7,0.3-1.4c0.5-0.3,0.5-0.7,0-1.3c0.2-0.4,0.2-0.7,0-1.1
		c0.4-0.2,0.4-0.5,0-0.8c0.5-0.6,0.7-1.3,0.7-2.3c0.4-0.2,0.5-0.9,0.3-2.1c0.4-0.2,0.5-0.5,0.3-1c0.4-0.3,0.7-0.7,0.7-1.4
		c0.6-0.1,1-0.5,1.4-1c0.5,0.1,0.7-0.1,0.7-0.7c0.7,0,1.5-0.2,2.3-0.7l0.2,0.3c0.4-0.3,0.8-0.5,1.4-0.7c0.2,0.2,0.5,0.3,0.9,0.3
		L1039.8,234.9z M1030.5,252c1-0.1,1-0.2,0-0.3V252z M1038.4,235.2c-0.4,1-0.3,1.7,0.2,2.1c-0.3,0.5-0.2,1.1,0.1,1.8l-0.2,0.2v2.3
		v0.3v0.5c0,0.2-0.3,0.3-0.5,0.3c0.3,0.6,0.4,1.2,0.3,1.9c-0.2,0.1-0.3,0.3-0.4,0.5c0.1,0,0.2,0.1,0.3,0.2c-0.3,0.2-0.3,0.5,0,0.8
		c-0.3,0.1-0.4,0.3-0.3,0.7c0.1,0.3,0.3,0.3,0.6,0l0.1,0.2c-0.5,0.3-0.7,0.8-0.7,1.5c-0.4,0.2-0.4,0.5,0,0.9c-0.3,0.2-0.3,0.4,0,0.7
		c-0.3,0.2-0.3,0.4,0,0.6c-0.3,0.3-0.3,0.4,0,0.6c-0.1,0.3-0.3,0.5-0.7,0.7c0.3,0.3,0.3,0.8,0,1.4l0.5,0.3c0,0.8,0.8,1.1,0.8,0.7
		v0.7c1-0.1,1.5-0.9,1.8-0.9h1.2v-1.5c0-0.4,0.3-0.9-0.2-1.6c0.6-0.7,0.5-1.5-0.1-2.3c0.3-0.6,0.3-1.2-0.1-1.9
		c0.3-0.1,0.4-0.7,0.3-0.7h-0.3c0,0-0.1-0.5-0.3-0.7c0.3,0,0.5-0.3,0.7-0.3h-0.9v-0.8c0,0.1,0.7-0.2,0.9-0.2h-1
		c0.1,0,0.3-0.5,0.7-0.4c-0.1-0.3-0.3-0.5-0.7-0.7l0.3-0.7c-0.3,0-0.7-0.2-1-0.3c0-0.2,0-0.3,0.3-0.3c-0.1-0.6,0.6-1.1,0.6-1.4V240
		c0-0.3-0.7-0.3-1.3,0c0-0.2-0.1-0.3-0.3-0.3c0.1-0.5,0-1.1-0.3-1.7c0.3-0.1,0.4-0.4,0.4-0.8c-0.1-0.1-0.2-0.2-0.3-0.2
		c0.3-0.3,0.3-0.5,0-0.8c0.2-0.2,0.3-0.9,0.3-0.9H1038.4z M1038,256.5c0.3-0.5,0.2-0.8-0.3-1C1037.5,256.6,1037.7,257,1038,256.5z
		 M1038.3,255.4c0-0.5-0.2-0.8-0.7-1C1037.6,254.9,1037.8,255.2,1038.3,255.4z M1037.6,257.1c0.7,0.8,0.8,0.7,0.5-0.3L1037.6,257.1z
		 M1038.7,248.9c-0.2,0-0.3-0.1-0.3-0.3C1038.5,248.6,1038.6,248.7,1038.7,248.9z M1040,242.1c0.3-0.1,0.3-0.2,0.1-0.3L1040,242.1z
		 M1042.1,235.2c0.1,0,0.2,0,0.3,0H1042.1z M1047.5,252c1-0.1,1-0.2,0-0.3V252z M1048.6,244.1c0-0.2-0.1-0.3-0.3-0.3
		C1048.3,244,1048.4,244.1,1048.6,244.1z"/>
	<path d="M1054.5,236.3c0.5,0.1,0.8-0.1,1-0.5l0.4,0.1c-0.4,0.8-0.2,1.3,0.6,1.5c-0.1-0.3-0.2-0.7-0.5-1c0.3-0.1,0.5-0.4,0.6-0.8
		l1-0.1c0.3,0.4,0.7,0.4,1.4,0.1c0.3,0.5,1.1,0.3,2.4-0.3c0.2,0.4,0.6,0.7,1.2,0.9c0.2,0.8,0.9,1.2,1.9,1.1l0.1,0.7l0.3,0l0.1,0.7
		l0.3,0c0,0.4,0.2,0.8,0.5,1.2l0.2,1.5c-0.3,0.2-0.4,0.6-0.2,1.1l-0.7,0.1l0.4,0.6c-0.2,0-0.3,0.1-0.3,0.4c-0.5-0.1-0.8,0.1-1,0.5
		c-0.9-0.2-1.3-0.2-1.5,0.2c-0.6-0.3-1.3-0.1-1.9,0.6l-0.2-0.7c-0.2,0.2-0.5,0.4-0.8,0.5c0.1-0.3,0.2-0.7,0.2-1.1l-0.6,0.4l0.3-0.5
		c-0.3-0.4-0.5-0.9-0.6-1.5c-0.5-0.1-0.8,0.1-1,0.5l-0.7,0.1c-0.2-0.4-0.4-1-0.6-1.6l-0.7,0.1l0.4,0.6c-0.3,0.1-0.3,0.4,0.1,0.7
		c-0.3,0.2-0.5,0.4-0.6,0.8c0.8,0.3,1.3,0.9,1.3,1.9c0.5,0.3,1.1,0.4,1.8,0.4c0.1,0.3,0.3,0.3,0.6,0.3l0.1,0.2l0.2,0.1l0.3,0
		l0.2,0.3l1.3-0.5c0.2,0.3,0.4,0.3,0.7-0.1c0.2,0.3,0.4,0.4,0.7,0.2c0.1,0.3,0.4,0.5,0.8,0.6c0.2,0.8,0.8,1.3,1.6,1.5
		c0.1,0.3,0.2,0.7,0.5,1l0.3,0c0,0.2,0.1,0.5,0.3,0.7c0.1,0.1,0.3,0.2,0.5,0.3c-0.1,0.3,0.1,0.5,0.4,0.6c-0.2,0.7,0,1.5,0.7,2.2
		c-0.2,0.6-0.1,1.2,0.3,1.8c-0.4,0.2-0.6,0.6-0.5,1.1c-0.5,0.3-0.8,0.7-0.8,1.4l-0.3,0.2l-0.2,0.7c-0.8,0.1-1.2,0.7-1.2,1.5
		c-0.4,0.2-0.6,0.6-0.5,1.1c-0.5,0.1-0.9,0.4-1.3,0.9c0.3-1-0.3-1.1-1.6-0.1c-0.6-0.5-1.2-0.5-1.9-0.1c0.4-0.7,0.3-1.1-0.2-1.4
		l0.1,0.7l-0.7-0.2l0.1,0.7c-1.3,0.6-2.6,0.7-4.1,0.2l-0.1-0.7c-0.2,0.2-0.5,0.4-1,0.5c-0.1-0.3-0.4-0.5-0.8-0.6
		c0-0.6-0.4-0.8-1.1-0.5c0.1-0.3-0.1-0.5-0.4-0.6c0.3-0.5,0.2-0.8-0.4-0.6c0.3-0.7,0.1-0.8-0.8-0.6c0.3-0.6,0.1-1-0.5-1.3
		c-0.1-0.3-0.2-0.7-0.5-1c0.6,0,0.8-0.4,0.5-1.1c0.2,0,0.3-0.2,0.3-0.4l1.4-0.2l0.3,0l1.9-0.3l0.4-0.1l1.5-0.2l0.6-0.1l0.5,0
		l0.6-0.1c0.4,0.5,0.6,1.2,0.6,2c0.4,0.1,0.6,0.8,0.6,2l0.6-0.4l-0.4-0.6c0.5-0.5,0.7-1.2,0.4-2.1c0.3-0.2,0.4-0.6,0.2-1.1
		c-0.2,0-0.3-0.1-0.4-0.3c-0.8,0.2-1.3,0-1.5-0.8c-0.7,0.3-1,0.1-1.1-0.5l-1.4,0.2l0-0.3l-0.7,0.1l-0.4-0.6l-0.7,0.1
		c-0.4-0.8-1.1-1.4-2-1.8c-0.1-0.6-0.5-1-1.1-1.2c-0.1-0.5-0.4-0.9-1-1.2l-0.1-0.6l-0.4-0.1c0.3-0.3,0.2-0.6-0.1-0.8
		c0.2-0.3,0.2-0.6,0.2-0.9l-0.3,0c-0.1-0.3,0-0.6,0.2-0.7c0-0.2-0.2-0.3-0.4-0.3c0-0.2,0.1-0.3,0.3-0.4c-0.3-2.2,0.6-3.7,2.8-4.6
		c-0.1-0.6,0.2-1,0.9-1.2l0-0.3C1053.7,237,1054.2,236.9,1054.5,236.3z M1051.2,257.2c0.3-0.2,0.3-0.3,0-0.3L1051.2,257.2z
		 M1054.5,260.5c0.3-0.2,0.3-0.3,0-0.3L1054.5,260.5z M1056.2,238.5c0.3-0.5,0.1-0.9-0.5-1c-0.1,0.7,0.1,1.1,0.5,1.3
		c-0.2,0.3-0.2,0.6,0.1,0.8c-0.2,0.3-0.2,0.6-0.2,0.9l0.7-0.1C1056.9,239.3,1056.6,238.7,1056.2,238.5z M1056.6,244
		c0.2,0.3,0.3,0.3,0.3,0L1056.6,244z M1057.3,253.6c0.2,0.8,0.3,0.7,0.3,0L1057.3,253.6z M1059.8,258.7c0-0.2-0.2-0.3-0.4-0.3
		C1059.4,258.6,1059.6,258.7,1059.8,258.7z M1059.7,258.1c0.4-0.3,0.4-0.7,0-1L1059.7,258.1z M1059.9,259.8c0.4-0.3,0.4-0.7,0-1
		L1059.9,259.8z M1062.3,259.8c0.2,0.3,0.3,0.3,0.3,0L1062.3,259.8z M1064.4,242.9c0.2,0.3,0.3,0.3,0.3,0L1064.4,242.9z
		 M1066.5,257.1c0.2,0.3,0.3,0.3,0.3,0L1066.5,257.1z"/>
	<path d="M1079.9,229.4c0.5,0.2,0.8,0,1-0.3c0.3,0.1,0.4,0.3,0.3,0.7l0.7-0.4c0,0.4,0.5,0.9,1.4-0.1h0.3c-0.1,1,0.1,0.9,0.3,1.3
		l-0.6,0.2c-0.2,0.9,0.1,1.5,0.1,1.8v0.8v1.3v0.5c0,0.5,0.2,1.3,0.1,2.3h-0.7c0,0,0.2,0.2,0.6,0.2l0.1,0.2c-0.6,0.9-0.7,1.4-0.3,1.6
		l-0.3,0.2c0,0.5,0.2,0.8,0.7,1.1c-0.3,0.3-0.3,0.5,0,0.8c-0.5,0.7-0.8,1.6-0.7,2.5l0.7-0.3c-0.3,0.3-0.3,0.6,0,0.7
		c-0.2,0.3-0.2,1.1,0,1.1h-0.3c-0.4,1-0.4,1.6,0,1.7c-0.1,0.8,0,1.4,0.3,2.2c-0.2,0-0.3,0.1-0.3,0.1h0.3c0,1-0.1,0.7-0.1,0.7v1.4
		v0.3v1.9l-0.4,0.2l0.3,0.6c-0.4-0.2-0.7-0.5-0.7-1c-0.4,0.2-0.5,0.5-0.4,1c-1.8,0-2.8-0.8-3.1-2.4l-0.7,0.3
		c-0.1-0.3-0.3-0.5-0.7-0.7c0.1-0.5-0.2-0.9-0.7-1l-0.3-1.4h-0.3c-0.1,0,0-0.6,0.3-0.7c-0.3-0.3-0.3-0.8,0-1.4
		c-0.2,0-0.3-0.1-0.3-0.3c0.2,0,0.3-0.1,0.3-0.3c-0.3-0.2-0.5-0.3-0.3-0.8c-0.6-0.4-0.7-1.5-0.3-1.5h-0.3c0-1-0.3-1.4-0.3-1.8v-1
		c0-0.4,0.5-0.9,0-1.6c0.2-0.5,0.2-1.1,0-1.7l0.3-0.5c-0.3-0.3-0.5-0.3-0.7-1.3h0.7c-0.4,0-0.3-0.9,0.3-1.2c0-0.2-0.3-0.2-0.5-0.3
		c0.2-0.6,0.9-0.9,0.9-1.3v-0.3h1v-0.8c0-0.1,0.4-0.3,0.3-0.7C1078.7,231.3,1079.4,230.5,1079.9,229.4z M1075.5,242.7
		c1-0.1,1-0.2,0-0.3V242.7z M1080.3,229.2c0.1,1,0.2,1,0.3,0H1080.3z M1083,244.2c0.1,0,0.2,0,0.3,0H1083z M1084.4,229.4
		c0.3,0.1,0.6,0,0.7-0.3c0.3,0,0.5,0.1,0.8,0.3c0.5-0.2,1.2-0.3,1.9-0.3c0.5,0.9,1.3,1.2,2.4,0.7c-0.1,0.6,0.2,0.7,1,0.3
		c0.1,0.3,0.3,0.4,0.7,0.3c-0.2,0.7,0,1.3,0.7,1.2c0,0.5-0.1,0.6-0.3,1.6h0.7c-0.1,0,0,0.3,0.3,0.5c-0.2,0.5,0.3,0.6,0.3,0.8v0.7
		v0.3c0,0-0.2-0.3-0.3,0.7h0.7c-0.1,0,0.1,0.7,0.3,1.1c-0.4,0.7-0.4,1,0,1.1c-0.3,0.3-0.3,0.5,0,0.6c-0.3,0.5-0.3,1,0,1.7
		c-0.3,0.3-0.3,0.5,0,0.8c-0.2,0.3-0.2,0.5,0,0.8c-0.4,0.5-0.6,1.2-0.7,2.1l0.3,0.8c0,0.2-0.4,0.3-0.4,0.3v2.3v0.3v0.5
		c0,0.1-0.4,0.4-0.3,0.9c-0.3,0.2-0.5,0.4-0.7,0.8c0.3,0.2,0.6,0.3,1,0.3c-0.2,0.3-0.4,0.7-0.2,1c-0.4,0.3,0.1,0.5,0.1,0.7v-0.7
		c1,0.1,0.6,0.3,0.6,0.6l0.3,0.1c0,0.5,0.3,0.7,0.9,0.7c-0.3,0.6-0.2,1.3,0.3,1.9c-0.8,0.6-1,1.2,0,1.8v0.3c0-0.1-0.6,0.1-0.2,1.1
		h-0.3c-0.1-1-0.3-0.7-0.7-0.9c0,0.5-0.2,0.7-0.7,0.9c0.3-0.5,0.4-1.3,0.3-1.9c-0.4,0.2-0.5,0.9-0.3,0.9h-0.3l-0.1-0.6
		c-0.5,0.3-0.6,0.7-0.3,1.3c-0.1,0.6,0.6,0.9,0.6,0.9v0.2v-0.2v0.2c-1,0.2-1.6,0.3-0.6,0.5l0.4,0.7c-0.8-0.7-1.4-0.7-1.7,0
		c-0.4-0.2-0.8-0.2-1.4,0c0.4-0.5,0.3-0.7-0.3-0.7c0-0.2,0.1-0.3-0.1-0.3c-0.3,0.5-1.2,0.8-1.2,0.7v0.3c-1-0.2-1-0.2-1,0v-0.1v0.1
		v-0.1c0-0.6,1-0.8,1.9-0.6c-0.1-0.3-0.9-0.5-0.9-0.7v-0.6c0-0.3,0.2-0.5-0.4-0.5c0.1,0.3,0,0.5-0.4,0.7c-0.2-0.5-0.7-0.8-1.4-0.7
		c0.8-1.7,0.6-2.8-0.3-3.4c0.1,0.3,0,0.5-0.3,0.7c-0.3-0.6-0.7-0.7-1.4-0.3c0-0.2-0.1-0.3-0.3-0.3c0.2-0.5,0-0.8-0.3-1
		c0.5-0.6,0.5-1.1,0-1.4c0.3-0.3,0.3-0.8,0-1.4c0.4-0.3,0.5-0.8,0.3-1.7c0.5,0.3,1.1,0.3,1.7,0c0-0.5,0.2-0.8,0.7-1
		c-0.1-0.4,0-0.8,0.3-1.1c0-0.4-0.3-0.6-0.8-0.6c0.2-0.5,0.6-0.8-0.4-1v-1c1-0.4,0.9-0.9,0.8-1.7c0.6-0.4,0.7-1.2,0.1-2.4
		c0.7-0.6,0.7-1.1,0-1.7c0.3-0.5,0.3-1.1,0-1.7c0.2,0,0.3-0.3,0.3-0.5c-0.7-0.5-1.3,0.2-1.7,0.2h-0.3l-0.2-0.1v-3.9h-0.5
		c0.4-1,0.4-1.9,0-2.5C1084.2,229.8,1084.3,229.6,1084.4,229.4z M1084.5,257.5c1,0.1,1,0.2,0,0.3V257.5z M1084.5,256.1
		c1,0.1,1,0.2,0,0.3V256.1z M1085.5,255.4c1,0.1,1,0.2,0,0.3V255.4z M1086.1,256.2c-0.1,0-0.2,0-0.3,0H1086.1z M1085.5,260.9
		c1,0.1,1,0.2,0,0.3V260.9z M1086.5,258.8c0,0.5,0,0.6,0,0.3V258.8z M1086.4,244.1c0.4-0.2,0.4-0.4,0.1-0.7L1086.4,244.1z
		 M1086.5,258.5c1,0.1,1,0.2,0,0.3V258.5z M1087.5,256.8c0-0.3,0-0.7,0-1V256.8z M1087.4,261.2c-0.1,0-0.2,0-0.3,0H1087.4z
		 M1087.5,260.6c1,0.2,1,0.4,0,0.7V260.6z M1088.5,257.5c0-0.1,0-0.2,0-0.3V257.5z M1088.8,260.6c0.5,0.1,0.7-0.1,0.7-0.7
		c0.7,0.5,0.4,0.8-0.7,1V260.6z M1089.2,261.2c-0.1,0-0.2,0-0.3,0H1089.2z M1089.7,258.5c-0.2-0.2-0.5-0.3-0.8-0.3
		c-0.2,0.5,0,0.8,0.7,0.7c0.4,0.4,0.6,0.3,0.6-0.3c0.2,0,0.3-0.1,0.3-0.3C1090.2,258.1,1089.9,258.2,1089.7,258.5z M1089.5,258.2
		c0-0.2,0-0.5,0-0.7V258.2z M1089.8,260.9c0.2,0,0.3-0.1,0.3-0.3h0.7C1090.5,261.3,1090.2,261.4,1089.8,260.9z M1091.2,259.9
		c0-0.5-0.2-1-0.6-1.4C1090.4,259.1,1090.6,259.6,1091.2,259.9z M1090.5,258.5c1-0.1,1-0.2,0-0.3V258.5z M1091.5,258.2
		c0-0.2,0-0.5,0-0.7V258.2z M1091.2,259.2c0.3,0,0.7,0,1,0H1091.2z M1092.4,258.8c0.4-0.6,0.2-1.1-0.5-1.4c0,0.3-0.2,0.7-0.3,1
		C1091.9,258.5,1092.1,258.6,1092.4,258.8z M1091.6,261.6c0.2-0.3,0.3-0.6,0.3-1C1092.5,260.9,1092.3,261.3,1091.6,261.6z
		 M1091.9,251.3c1.3,0,1.4-0.4,0.3-1c0,0.6-0.1,0.7-0.5,0.3C1091.5,250.9,1091.5,251.1,1091.9,251.3z M1091.9,257.2
		c0.1,0,0.2,0,0.3,0H1091.9z M1092.6,256.2c0.1,1,0.2,1,0.3,0H1092.6z M1094.3,253.4c0-0.2-0.1-0.3-0.3-0.3
		C1094,253.2,1094.1,253.3,1094.3,253.4z M1093.5,254.4c1-0.1,1-0.2,0-0.3V254.4z M1094.6,255.8c0-0.2-0.1-0.3-0.3-0.3
		C1094.3,255.6,1094.4,255.7,1094.6,255.8z M1094.5,259.2c0,0.1,0,0.2,0,0.3V259.2z M1095,257c0.1-0.3-0.1-0.5-0.3-0.6
		C1094.5,256.9,1094.7,257,1095,257z M1095,254c0-0.2-0.1-0.3-0.3-0.3C1094.7,253.9,1094.8,254,1095,254z M1095,255.2
		c0.1,0,0.2,0,0.3,0H1095z M1095.7,244.2c-0.1,0-0.2,0-0.3,0H1095.7z M1096.4,242.7c-0.2,0-0.3-0.1-0.3-0.3
		C1096.2,242.4,1096.3,242.5,1096.4,242.7z"/>
	<path d="M1112.9,235.7c0.5,0.2,0.8,0.5,1-0.5h0.2l0.1,0.6c0.6,0,0.9,0.4,1,1.4h0.3l0,0.6c-0.4,0.2-0.4,0.4,0,0.9
		c-0.3,0.2-0.3,0.4,0,0.8c-0.3,0.1-0.3,0.2,0,0.3c-0.3,0.3-0.3,0.8,0,1.4c-0.3,0-0.4,0.2-0.4,0.6l0.3,0.1l0,0.6
		c-0.3,0.3-0.5,0.8-0.4,1.5c0.1,0,0.3,0.1,0.3,0.2l-0.7,0.2c0.2,0.1,0.4,0.2,0.7,0.2c-0.5,0.6-0.5,1,0,1.4c-0.1,0.3-0.4,0.5-0.7,0.7
		c-0.1,0.5,0.1,0.7,0.7,0.8c-0.3,0.4-0.3,0.8,0,1.3l-0.3,0c-0.2,1.1-0.1,1.8,0.3,2.1c-0.3,0.5-0.3,0.9,0,1.1
		c-0.3,0.2-0.5,0.5-0.7,0.9c0.5,0.2,0.6,0.6,0.3,1c0.2,0,0.3,0.2,0.3,0.5c-0.3,0.2-0.3,0.5,0,0.9c-0.6,0.3-0.6,0.9-0.1,1.7
		c-0.1,0-0.2,0-0.3,0.1c0,0.5-0.2,1-0.7,1.3l0.3,0.6c-0.6,0.2-1,0.7-1.4,1.3l-1.4,0c0.1,0.5-0.2,0.7-0.7,0.7l0,0.7
		c-0.3,0-0.7,0.1-1,0.3c-0.1-0.3-0.3-0.3-0.7,0c-0.3-0.2-0.6-0.3-1-0.4l0,0.3c-0.3,0-0.6,0.1-0.8,0.3c-0.3-0.3-0.8-0.4-1.2-0.4
		c0.1-0.3,0-0.5-0.3-0.7c0.5-0.6,0.5-1.1,0-1.4c0.2-0.4,0.2-0.8,0-1.4l-0.3,0l-0.1,2.1c-0.1,0-0.2,0-0.3,0.1
		c0.2,0.2,0.3,0.5,0.3,0.9c-0.6,0.4-1.1,0.4-1.4,0l-1,0l0-0.3c-0.4,0.2-0.8,0.3-1.4,0.3l0-0.7l-1,0c-0.2-0.4-0.5-0.8-1-1.1
		c0-0.7-0.3-1.3-1-1.7c0.2-0.7,0-1.3-0.6-1.7l0-1l-0.3,0c0.2-0.3,0.3-0.7,0-1l0.4-0.7l-0.3,0c-0.1-0.3-0.3-0.5-0.7-0.7
		c0.3-0.6,0.3-1.4,0.1-2.4c0.2,0,0.3-0.1,0.4-0.3c-0.2-0.1-0.3-0.2-0.3-0.5l0.4-0.2l-0.3-0.7l0.7,0c-0.1-0.3-0.3-0.4-0.7-0.4
		c0.2-0.5,0.3-1,0.1-1.5c0.6-0.6,0.6-1.2,0-1.6c0.3-0.3,0.3-0.5,0-0.8c0.2-0.5,0.4-1.2,0.4-1.9l0.3-0.1c-0.1-0.3-0.3-0.5-0.7-0.6
		c0.3-0.3,0.4-0.8,0-1.3l0-0.5c0.8-0.4,0.8-1,0.1-2c0.6,0.1,0.8-0.1,0.4-0.6c0.3-0.2,0.3-0.5,0-0.8l0.5-0.3c0.4,0.4,0.7,0.3,0.9-0.3
		c0.5,0.2,0.8,0.1,1-0.3c0.3,0.2,0.7,0.3,1,0c0.2,0.4,0.5,0.4,0.9,0c0.2,0.3,0.8,0.3,1.7,0.1c0.5,0.4,1.1,0.8,1.8,1.1
		c-0.4,0.5-0.3,0.7,0.3,0.7l0,0.3c-0.3,0.1-0.4,0.6-0.4,0.6h-0.3c0.4,1,0.3,1.2-0.4,1.4c-0.3,1.3-0.1,2.3,0.6,2.9
		c-0.3,0.4-0.3,1-0.1,1.6c-0.1,0-0.2,0-0.3,0.1c0.1,0.1,0.2,0.2,0.3,0.2c-0.3,0.5-0.4,1.3-0.1,2.4c-0.7,0.4-0.7,0.9,0,1.4l0,1.4
		c-0.3,0.3-0.3,0.8,0,1.4c-0.4,0.2-0.4,0.5,0,0.9c-0.5,0.7-0.4,1.4,0.3,1.8l-0.1,2.3l0.3,0.5c-0.3,0.1-0.3,0.3,0,0.7
		c0.3-0.1,0.5-0.4,0.4-0.9c0.3,0,0.5-0.1,0.7-0.4c0.8,0,0.9-0.3,0.4-1l0.7,0c-0.1-0.2-0.3-0.4-0.7-0.5l0.7-0.4l-0.3-0.5
		c0.1,0,0.2,0,0.3-0.1c-0.1-0.1-0.2-0.2-0.3-0.2c0.4-0.5,0.4-1,0-1.6c0.3-0.2,0.3-0.8,0.1-1.7c0.2-0.3,0.3-0.7,0.4-1.1
		c-0.2,0-0.3-0.2-0.3-0.5l0.4-0.5c-0.4-0.4-0.5-1-0.3-1.8c0.2-0.1,0.3-0.2,0.4-0.5l-0.3-0.6c0.2,0,0.3-0.1,0.3-0.3
		c-0.3-0.1-0.4-0.3-0.3-0.7c0.2-0.1,0.3-0.2,0.4-0.4c0.1-0.4,0-0.7-0.3-1l0.4-0.2c-0.2-0.5-0.3-1-0.3-1.7c0.2,0,0.3-0.1,0.3-0.2
		c-0.3-0.3-0.2-0.8,0.1-1.6c0-0.3-0.1-0.6-0.3-0.8c0.4-0.4,0.5-1,0.4-1.8c0.3,0,0.7-0.1,0.9-0.3c0.5-0.2,0.9,0,1.1,0.4l0.7,0
		c0-0.1,0.1-0.3,0.2-0.4C1112.2,236.2,1112.7,236.2,1112.9,235.7z M1097.6,241.5c0.3-0.1,0.3-0.2,0.1-0.3L1097.6,241.5z
		 M1097.8,244.6c0.1,0.4,0.2,0.4,0.3,0L1097.8,244.6z M1097.8,243.2c0.5-0.2,0.5-0.6,0.2-1L1097.8,243.2z M1097.9,241.8
		c0.3-0.1,0.3-0.2,0.1-0.3L1097.9,241.8z M1100.2,236.4c0.3-0.1,0.3-0.2,0-0.3L1100.2,236.4z M1101.6,260.8c0.3-0.1,0.3-0.2,0-0.3
		L1101.6,260.8z M1104.8,251c0-0.2-0.1-0.3-0.3-0.4C1104.4,250.8,1104.5,250.9,1104.8,251z M1105,243.8c0-0.2-0.1-0.3-0.3-0.3
		C1104.7,243.6,1104.8,243.8,1105,243.8z M1105.4,261.6c-0.1,0.3-0.2,0.3-0.3,0L1105.4,261.6z M1105.4,241.7c-0.2,0-0.3-0.1-0.3-0.3
		C1105.3,241.4,1105.4,241.5,1105.4,241.7z M1105.2,257.8c1.1,0.4,1.1,0.2,0-0.7L1105.2,257.8z M1114.4,248.3c0.1,0.4,0.2,0.4,0.3,0
		L1114.4,248.3z M1114.5,245.9c0.1,0.4,0.2,0.4,0.3,0L1114.5,245.9z M1114.9,236.6c0-0.2-0.1-0.3-0.3-0.4
		C1114.6,236.5,1114.7,236.6,1114.9,236.6z M1114.7,242.2c0.1,0,0.2,0,0.3,0H1114.7z"/>
	<path d="M1117.3,232.7c0.3,0.1,0.5,0.5,0.7-0.5h0.6v0.7c1,0.3,2.1,0.2,3.1-0.3c0,0.7,0.3,0.9,0.9,0.3c0.2,0.4,0.9,0.5,0.9,0.3v1
		h0.6c0,0,0.1-0.9,0.3-1.5c0.4,0.2,0.8,0.3,1.4,0.1c0.1,0.9,0.5,1,1.1,0.4c0.2,0.7,0.5,0.7,0.8,0c0.2,0.3,0.8,0.3,0.8,0v0.7
		c1-0.4,1.7-0.4,2.5,0c0-0.2,0.5-0.3,0.5-0.3v0.7c1,0.2,1.4,0.9,0.9,2.1c0.2,0,0.3,0.1,0.3,0.3c-0.3,0.1-0.5,0.3-0.7,0.7l0.7,0.3
		c-0.3,0.5-0.3,1.1,0,1.7c-0.3,0.1-0.5,0.3-0.7,0.7c-0.5-0.1-0.6,0.1-0.6,0.7c-0.3-0.2-0.9-0.2-0.9,0v-0.3c-2-0.5-2.8-0.4-2.9,0.3
		c-0.8-0.4-1.2-0.3-1.1,0.3c-0.5-0.3-1.1-0.6-1.7-0.7l0.3,0.7c-0.5-0.3-1.1-0.2-1.7,0.3c0.1,0.3,0.3,0.4,0.7,0.3
		c-0.1,0.3-0.3,0.4-0.7,0.3l0.3,0.7c-0.4,0-0.4,0.5,0,1.4c0.4-0.2,0.9-0.5,1.2-1c0.4,0.2,0.5,0.4,1.5,0.3v0.3l0.2-0.6h0.8
		c0.9,1,2,0.6,3.2,0.5l0.5,0.4c0.1,0.2,0,0.3,0.2,0.4c-0.2,0.5,0.1,0.9,0.1,1.1v0.7c0,0.1-0.2,0-0.2,1h-0.8v1.1c0,0-0.8,0-1.3,0.5
		c-0.6,0-0.9,0.5-1.5,0.5h-0.9c-0.4,0-1.2-0.4-2.4,0.2c0-0.2-0.1-0.2-0.3-0.2c0,0.3,0.1,0.7,0.3,1.1c-0.3,0.1-0.4,0.4-0.3,0.7
		c-0.6,0.4-0.8,1.1-0.7,2.1c0.9-0.3,2.1-0.4,3.4-0.3c0,0.1,0,0.2,0.1,0.3c0.4-0.4,0.9-0.4,1.4,0c0.5-0.5,1-0.5,1.3,0l1-0.7
		c-0.4,0.7,0,0.9,1,0.7v0.7c0-0.2,0.7-0.3,1.1-0.3c-0.1,0.3-0.3,0.4-0.6,0.3c-0.1,0.5,0.1,1.1,0.4,1.7c-0.2,0.3-0.2,0.7,0,1.1
		l-0.3,0.6c0.2,0,0.3,0.1,0.3,0.3c-0.3,0.2-0.8,0.5-0.9,1l-0.9-0.3v0.7c0,0.3-0.9,0.3-1.5,0c0,0.1,0,0.2-0.1,0.3l-0.3-0.3
		c-0.3,0.3-0.8,0.5-1.5,0.3c-0.1-0.3-0.2-0.4-0.5-0.3c0.1-0.3-0.2-0.5-0.2-0.7v0.3c-1-0.4-1.5-0.4-1.7,0.6h-0.7c-0.4-1-0.6-1-0.7,0
		h-0.3c-0.2-1-0.5-0.6-1-0.5c-0.2-0.4-0.5-0.5-0.9-0.1c-0.7-0.5-1.3-0.5-1.8,0.3c-0.3-0.2-0.7-0.2-1,0c-0.1-0.3-0.4-0.4-0.9-0.4
		c-0.2-0.3-0.4-0.5-0.8-0.7c-0.2-0.7-0.2-1.5,0-2.4c-0.3-0.3-0.4-0.3-0.3-1.3h0.3c-0.2,0-0.4-0.9-0.4-1.5l0.3-0.1v-0.6
		c0-0.2-0.5-0.8-0.3-1.7c0.2,0,0.3-0.1,0.4-0.3l-0.3-0.1c0.2-0.4,0.3-0.8,0-1.3c0.3,0.1,0.6,0,0.7-0.3l-0.7-0.3c0-0.5,0.3-1,0.5-1.5
		c0-0.4-0.2-0.8-0.2-1.1v-2.1h0.1c-0.1-1-0.3-0.6-0.7-0.5c0.2-0.4,0.2-1.5,0-1.5h0.3c0-1,0.2-0.9,0.7-1.1c0-0.5-0.1-0.9-0.3-1.3
		c0.3-0.1,0.3-0.6,0-0.6h0.3c-0.2-1-0.3-0.9-0.3-1.5c0.4-0.2,0.5-0.6,0.3-1.1c0.1,0,0.2-0.1,0.3-0.1l-0.3-0.6c0.1,0,0.2,0,0.3-0.1
		c-0.2-0.2-0.5-0.6-0.7-1C1117.4,233.8,1117.6,233.4,1117.3,232.7z M1116.3,241.5c0.3-0.1,0.3-0.2,0.1-0.3L1116.3,241.5z
		 M1116.9,251.4c0-0.2-0.1-0.3-0.3-0.3C1116.6,251.2,1116.7,251.4,1116.9,251.4z M1118,232.9h0.1H1118c0.2,0.3,0.3,0.3,0.1,0H1118z
		 M1122.8,233.2c0.2,1,0.4,1,0.7,0H1122.8z M1123.5,235.2c-0.2,1-0.1,1.3,0.3,1.9l-0.3,0.4c0.2,0.3,0.2,0.5,0,0.9
		c0.8,0.8,0.9-0.1,0.3-3.1H1123.5z M1123.8,234.2c-0.1,1-0.2,1-0.3,0H1123.8z M1123.9,239.7c0.3-0.5,0.7-0.8-0.3-1v2.1v0.3
		C1124.5,240.7,1124.6,240.2,1123.9,239.7z M1123.5,244.2c0.1,0,0.2,0,0.3,0H1123.5z M1123.5,244.9c0.7,0.8,0.8,0.7,0.5-0.3
		L1123.5,244.9z M1123.8,247.8c0.5-0.8,0.7-1.6-0.3-2.2v2.1v0.6h0.6C1124.1,248.2,1124.1,247.8,1123.8,247.8z M1123.5,248.2
		c0.1,1,0.2,1,0.3,0H1123.5z M1123.5,254.5c0-0.3,0-0.7,0-1V254.5z M1123.8,254.8l-0.3,0.7c0.6,0.4,0.8,0.2,0.7-0.7H1123.8z
		 M1123.9,256.9c0.6-0.4,0.7-0.7-0.3-1v2.1C1123.5,257.7,1124,257.4,1123.9,256.9z M1123.8,234.9h0.1H1123.8c0.3,0.3,0.3,0.3,0.1,0
		H1123.8z M1123.5,248.6c1-0.1,1-0.2,0-0.3V248.6z M1125.5,240.1c0-0.2-0.1-0.3-0.3-0.3C1125.2,239.9,1125.3,240,1125.5,240.1z
		 M1125.5,240.1h0.1H1125.5c0.3,0.3,0.3,0.3,0.1,0H1125.5z M1127.5,258.9c0-0.1,0-0.2,0-0.3V258.9z M1128.6,234.3
		c0-0.2-0.1-0.3-0.3-0.3C1128.3,234.1,1128.4,234.2,1128.6,234.3z M1130.5,252.1c1,0.4,1,0.6,0,0.7V252.1z"/>
	<path d="M1132.5,254.3c1,0.2,1,0.3,0,0.5V254.3z M1133.1,236.4c-0.3,0-0.5-0.2-0.4-0.6C1133,235.8,1133.1,236,1133.1,236.4z
		 M1134.7,231.4c0.4,0.2,0.4,0,0.5-0.5c0.2,0.4,0.3,0.7-0.7,0.7v0.5c1,0.2,1.3,0,1.3-0.8l2,0.2c-0.4-0.4-0.3-0.7,0.2-0.7
		c0.2,0,0.3,0.1,0.4,0.4c0.3,0.1,0.5,0.2,0.7,0.4c-0.2-0.1-0.4,0-0.7,0.3c0.6,0.5,0.9,0.4,1-0.5c0.7,0.2,1.1,0.1,1.2-0.5
		c0.1,0,0.2,0.1,0.3,0.2l0.2,0.2c-1.7,0.4-1.7,0.6-0.7,0.8v0.1v-0.1v0.4c1-0.1,1-0.2,1.4-0.4c0,0.2,0.6,0.3,0.6,0.4v-0.4
		c0-0.1,0.5,0.1-0.1-0.9h0.6h0.6l0,0.4v0.9c1,0.2,1.5-0.1,1.8-0.6c0.6,0.4,0.9,0.3,1.2-0.7h0.5c0.1,1,0.4,0.8,0.9,0.7l0.1-0.4
		c0,0.4,0,1,0,1.5c0.5,0,0.7-0.3,0.6-1c0.4,0.1,0.7,0.5,0.8,1c0.4,0.1,0.9,0.1,1.5,0l0.1,0.7c-0.2-0.9,0-1.3,0.6-1.4
		c0,0.5,0.2,0.7,0.8,0.6c-0.2,0.8,0,1.1,0.7,1.1c0,0.3-0.1,0.4-0.4,0.5c0.3,0.6,0.7,1,1.3,1.1c-0.1,1.1,0.1,1.6,0.7,1.7
		c-0.1,0.3-0.3,0.7-0.6,0.7h0.5v2.3v0.5v0.4l0.3,0.8c-0.3,0.1-0.3,0.4,0,1.1c-0.3-0.1-0.6,0-0.9,0.2c0,0.3,0.5,0.4,0.5,0.4v0.4
		c0-0.1-0.6,0.1-0.7,0.5c-0.8,0.1-1.3,0.7-1.5,1.7c-0.9-0.2-1.3-0.2-1.4,0.5c-0.3-0.1-0.5,0.2-0.6,0.2h0.7c0.1,1,0.6,0.9,1.3,0.9
		c-0.1,0.4-0.3,0.7-0.8,0.6c0,0.2,0.2,0.4,0.4,0.4c-0.1,0.4-0.5,0.7,0.5,0.8v2.2v0.1v1.6v0.5v0.4l1,0.2v0.5c-1,0.1-1.5,0.5-0.7,1.2
		c-0.5,0.2-0.5,0.5-0.3,1.5h0.4c-0.1-1,0.5-1.1,0.5-0.9v0.9c0-0.1-0.4,1.1-0.2,2.1h0.2v1h-1.8h-0.3h-0.4h-0.3h-0.6h-0.3h-0.4h-1.2
		c0.1-1,0.2-1.3-0.4-1.4c0.2-0.5-0.1-0.8-0.1-1v-6.7h-0.9c0.1,0,0.1-0.8-0.4-0.9c-0.1-0.6-0.6-0.7-0.6-0.7V250c-1-0.1-2,0.1-3.1,0.2
		l-0.6,0.1h-0.3h-0.6c0.1-1,0-0.7-0.3-0.8c0.2-0.6,0-1.2-0.6-1.6c-0.1,0.5,0,0.8,0.3,1.2l-0.4,0.2c0,0.3-0.2,0.7-0.1,1.2
		c-0.1,0.4-0.3,0.8-0.3,1.3v1l0.3,0.5l0.2,0.6l0.4,0.6v0.5l-0.3,0.5l0,0.4c0.2,0,0.2,0.2,0.3,0.4l-0.4,0.8l-0.1,2
		c0,0.3,0.4,0.4,0.7,0.5l-0.1,0.6v0.9c-1-0.1-1.3,0.2-1.7,0.8c-0.4-0.2-1.1-0.3-1.7-0.3c0-0.3,0.4-0.5,0.4-0.5v-0.4
		c-1,0.1-1.4,0.5-0.6,1.1c-0.4-0.1-0.7,0.2-1,0.6c-0.3-0.2-0.5-1.1-0.5-1.1h-0.4c-0.1,0-0.5,0.4-0.5,0.3v-5.9c-1,0.2-1.1,0-1.2-0.5
		l0.9-0.2l0-2.2l0.3-0.2v-5.1c-1,0-0.7,0-0.9-0.2c0.1-0.2,0.2-0.4,0.5-0.5c-0.3,0.1-0.5-0.1-0.6-0.4c0.2-0.2,0.4-0.2,0.6-0.2
		c0-0.4-0.1-1-0.1-1.6c0.1-0.5,0.1-1.1,0.1-1.7l0.1-0.4c0.1-0.4,0.3-1.1,0.3-2v-0.5v-1.1c0-0.3-1-0.5-1-0.5v-0.9l0.7,0.3
		c0.1-0.6-0.7-0.9-0.7-0.9v-0.7c1-0.1,0.6-0.3,0-0.4c0-0.3-0.1-0.2-0.3-0.3c0.3-0.3,0.2-0.9,0-0.9h0.9c0.2-1-0.5-1.2-0.5-1.1v-0.6
		C1134.5,232.5,1134.6,232.2,1134.7,231.4z M1134,231.2c-0.2,1-0.4,1-0.6,0H1134z M1136.4,259.9c0-0.5-0.3-0.7-0.8-0.6
		C1135.6,259.8,1135.9,260,1136.4,259.9z M1135.7,235.2c0.1,0,0.3,0,0.4,0H1135.7z M1136.1,234.2c0.1,1,0.2,1,0.3,0H1136.1z
		 M1136.5,233.1c1-0.3,1-0.7,0-1V233.1z M1136.5,234.2c1-0.1,1-0.2,0-0.4V234.2z M1137.5,232.5c0-0.1,0-0.3,0-0.4V232.5z
		 M1137.1,236.2c0.2,1,0.4,1,0.6,0H1137.1z M1137.1,242.2c0.2,1,0.4,1,0.6,0H1137.1z M1137.6,234.2c0.1,0,0.2,0,0.3,0H1137.6z
		 M1137.6,236.2c0.1,0,0.2,0,0.3,0H1137.6z M1137.6,242.2c0.1,0,0.2,0,0.3,0H1137.6z M1138.4,234.7l-0.4,0.3c0.2,1.3,0.5,1.3,1.1,0
		L1138.4,234.7z M1137.5,242.2c1-0.2,1-0.4,0-0.5V242.2z M1140.6,238.2c-0.2,0-0.4,0.3-0.7,0.3c-0.1,0.8,0.1,0.7,0.7,1.7h-0.6
		l0.3,0.3c-0.2,0.6-0.2,1,0,1.5c-0.3,0.3-0.4,0.8-0.4,1.4c0.1,0.4,0.2,0.7,0.4,1.1c-0.4,0.3-0.5,0.6-0.3,1.6h0.6c-0.1,0-0.1-1.2,0-2
		c0.4,0,0.6-0.1,0.8-0.4l0.2,0.5c0.4-0.4,0.8-0.4,1.2-0.1c0.1-0.1,0.2-0.2,0.2-0.4c1,0.6,2.1,0.7,3.3,0.4c0.2,0.1,0.4,0.2,0.7,0.5
		c0.1-0.4,0.4-0.6,0.9-0.5l0.1-1h0.6c0.6-2,0.4-2.7-0.6-2.7c0-0.4,0.2-0.6,0.6-0.7c-0.5,0-0.7-0.3-0.7-1c-0.7,0.2-1.2,0.1-1.3-0.5
		c-0.3,0-0.6,0.1-0.9,0c-1.3-0.1-1.9,0-2.1,1h-0.1v-0.9c-1,0-1.7-0.1-2.6-0.1H1140.6z M1141.5,230.9c1,0.2,1,0.3,0,0.5V230.9z
		 M1142.4,239.2c-0.2,0-0.3-0.1-0.3-0.4C1142.3,238.8,1142.4,238.9,1142.4,239.2z M1142.5,230.5c0,0.1,0,0.2,0,0.4V230.5z
		 M1142.5,246.5c0-0.1,0-0.3,0-0.4V246.5z M1143.1,237.2c0.2,1,0.4,1,0.6,0H1143.1z M1143.6,239.2c-0.2,1-0.4,1-0.6,0H1143.6z
		 M1146.4,254.2c-0.1,0-0.3,0-0.4,0H1146.4z M1145.9,255.5c0.5-0.1,0.5-0.4,0-0.8c0.7,0.1,0.8,0.7,0.4,1.7c0.1-0.4-0.1-0.6-0.4-0.6
		V255.5z M1150.5,259.9c1-0.3,1-0.7,0-1V259.9z M1151.9,259.2c0.1,1,0.3,1,0.4,0H1151.9z"/>
	<path d="M1152.7,232.7c0.3,0.1,0.5,0.5,0.7-0.5h1.1v0.7c1,0.3,1.8,0.2,2.9-0.3c0,0.7,0.4,0.9,1.1,0.3c0.2,0.4,0.1,0.5,1.1,0.3v1
		h0.1c0,0,0.1-0.9,0.3-1.5c0.4,0.2,0.8,0.3,1.4,0.1c0.1,0.9,0.5,1,1.1,0.4c0.3,0.7,0.8,0.7,1,0c0.2,0.3,0,0.3,1,0v0.7
		c0-0.4,1.2-0.4,2,0c0-0.2,0-0.3,0-0.3v0.7c1,0.2,1.6,0.9,1.2,2.1c0.2,0,0.4,0.1,0.4,0.3c-0.3,0.1-0.5,0.3-0.7,0.7l0.7,0.3
		c-0.3,0.5-0.3,1.1,0,1.7c-0.3,0.1-0.5,0.3-0.7,0.7c-0.5-0.1-0.8,0.1-0.8,0.7c-0.3-0.2-0.1-0.2-1.1,0v-0.3c-2-0.5-2.6-0.4-2.6,0.3
		c-0.8-0.4-1.1-0.3-1,0.3c-0.5-0.3-1-0.6-1.7-0.7l0.4,0.7c-0.5-0.3-1-0.2-1.7,0.3c0.1,0.3,0.3,0.4,0.7,0.3c-0.1,0.3-0.3,0.4-0.7,0.3
		l0.3,0.7c-0.4,0-0.4,0.5,0,1.4c0.4-0.2,0.7-0.5,1-1c0.4,0.2,1.3,0.4,1.3,0.3v0.3l0.7-0.6h0.8c0.9,1,2,0.6,3.2,0.5l0.5,0.4
		c0.1,0.2,0.3,0.3,0.5,0.4c-0.2,0.5,0.4,0.9,0.4,1.1v0.7c-1,0.1-0.7,0-0.7,1h-0.3v1.1c-1,0-1.1,0-1.5,0.5c-0.6,0-1.2,0.5-1.8,0.5
		h-0.9c-0.4,0-1.2-0.4-2.4,0.2c0-0.2-0.1-0.2-0.3-0.2c0,0.3,0.1,0.7,0.3,1.1c-0.3,0.1-0.4,0.4-0.3,0.7c-0.6,0.4-0.8,1.1-0.7,2.1
		c0.9-0.3,2.1-0.4,3.4-0.3c0,0.1,0,0.2,0.1,0.3c0.4-0.4,0.9-0.4,1.4,0c0.5-0.5,1-0.5,1.3,0l1.2-0.7c-0.4,0.7-0.8,0.9,1.2,0.7v0.7
		c0-0.2,0.4-0.3,0.8-0.3c-0.1,0.3-0.4,0.4-0.8,0.3c-0.1,0.5,0,1.1,0.3,1.7c-0.2,0.3-0.3,0.7,0,1.1l-0.4,0.6c0.2,0,0.3,0.1,0.3,0.3
		c-0.3,0.2-0.5,0.5-0.6,1l-0.6-0.3v0.7c-1,0.3-1.2,0.3-1.8,0c0,0.1-0.1,0.2-0.2,0.3l-0.4-0.3c-0.3,0.3-0.8,0.5-1.5,0.3
		c-0.1-0.3-0.4-0.4-0.7-0.3c0.1-0.3-0.4-0.5-0.4-0.7v0.3c-1-0.4-1-0.4-1.2,0.6h-0.7c-0.4-1-0.6-1-0.7,0h-0.3c-0.2-1-0.5-0.6-1-0.5
		c-0.2-0.4-0.5-0.5-0.9-0.1c-0.7-0.5-1.3-0.5-1.8,0.3c-0.3-0.2-0.7-0.2-1,0c-0.1-0.3-0.4-0.4-0.9-0.4c-0.2-0.3-0.4-0.5-0.8-0.7
		c-0.3-0.7-0.3-1.5,0-2.4c-0.3-0.3-0.4-0.3-0.3-1.3h0.3c-0.2,0-0.1-0.9-0.1-1.5l0.6-0.1v-0.6c-1-0.2-0.7-0.8-0.6-1.7
		c0.2,0,0.2-0.1,0.2-0.3l-0.4-0.1c0.2-0.4,0.2-0.8,0-1.3c0.3,0.1,0.5,0,0.7-0.3l-0.7-0.3c0-0.5,0-1,0.2-1.5c0-0.4-0.4-0.8-0.4-1.1
		v-2.1h0.5c-0.1-1-0.3-0.6-0.7-0.5c0.2-0.4,0.2-1.5,0-1.5h0.3c0-1,0.2-0.9,0.7-1.1c0-0.5-0.1-0.9-0.3-1.3c0.3-0.1,0.3-0.6,0-0.6h0.3
		c-0.2-1-0.3-0.9-0.3-1.5c0.4-0.2,0.5-0.6,0.3-1.1c0.1,0,0.2-0.1,0.3-0.1l-0.3-0.6c0.1,0,0.2,0,0.3-0.1c-0.3-0.2-0.5-0.6-0.7-1
		C1152.9,233.8,1153.1,233.4,1152.7,232.7z M1151.7,241.5c0.3-0.1,0.3-0.2,0.1-0.3L1151.7,241.5z M1152.4,251.4
		c0-0.2-0.1-0.3-0.3-0.3C1152.1,251.2,1152.2,251.4,1152.4,251.4z M1153.4,232.9h0.1H1153.4c0.3,0.3,0.3,0.3,0.1,0H1153.4z
		 M1158.2,233.2c0.2,1,0.4,1,0.7,0H1158.2z M1158.9,235.2c-0.2,1-0.1,1.3,0.3,1.9l-0.3,0.4c0.2,0.3,0.2,0.5,0,0.9
		c0.8,0.8,0.9-0.1,0.3-3.1H1158.9z M1159.2,234.2c-0.1,1-0.2,1-0.3,0H1159.2z M1158.9,239.7c0.3-0.5,0.7-0.8-0.3-1v2.1v0.3
		C1159.5,240.7,1159.6,240.2,1158.9,239.7z M1158.9,244.2c0.1,0,0.2,0,0.3,0H1158.9z M1158.9,244.9c0.7,0.8,0.8,0.7,0.5-0.3
		L1158.9,244.9z M1159.1,247.8c0.5-0.8,0.5-1.6-0.5-2.2v2.1v0.6h1.1C1159.6,248.2,1159.3,247.8,1159.1,247.8z M1158.9,248.2
		c0.1,1,0.2,1,0.3,0H1158.9z M1158.5,254.5c1-0.3,1-0.7,0-1V254.5z M1159.2,254.8l-0.3,0.7c0.6,0.4,0.8,0.2,0.7-0.7H1159.2z
		 M1158.9,256.9c0.6-0.4,0.7-0.7-0.3-1v2.1C1159.5,257.7,1159,257.4,1158.9,256.9z M1159.2,234.9h0.1H1159.2c0.3,0.3,0.3,0.3,0.1,0
		H1159.2z M1159.5,248.6c0-0.1,0-0.2,0-0.3V248.6z M1161,240.1c0-0.2-0.1-0.3-0.3-0.3C1160.6,239.9,1160.7,240,1161,240.1z
		 M1161,240.1h0.1H1161c0.3,0.3,0.3,0.3,0.1,0H1161z M1162.5,258.9c1-0.1,1-0.2,0-0.3V258.9z M1164,234.3c0-0.2-0.1-0.3-0.3-0.3
		C1163.7,234.1,1163.8,234.2,1164,234.3z M1166.5,252.1c1,0.4,1,0.6,0,0.7V252.1z"/>
	<path d="M1165,238.2c0.7,0.4,0.9,0.1,0.7-1c0.3,0.3,0.5,0.3,0.8,0c0.2,0.6,0.5,0.7,0.9,0.3c0.1,0.3,0.3,0.3,0.7,0.2l-0.3,0.5h0.7
		v1.8v0.3v0.9c-1,0.2-1.4,0.8-1.7,1.6c0.2,1-0.1,1.4-0.7,1.3c0.2-2.2,0-3.1-0.7-2.9c0.1-0.4-0.1-0.8-0.3-1.3
		C1165.5,239.5,1165.5,238.9,1165,238.2z M1178.5,227.2h1v2v0.3v0.7h-0.1c0.2,0,0.1,0.5,0.1,0.9v2.1h0.6c-0.1,0,0.4,0.4,0.4,0.5v1.4
		v0.3v1.9c0,0.2,0.3,0.4,0.3,0.8c-0.2,0-0.3,0.1-0.4,0.2l0.3,0.2l-0.3,0.5l0.7,0.5c-0.4,0.6-0.6,1,0.4,1.4v1c1,0,1.2-0.5,1.4-1.4
		c-0.5,0.4-0.9,0.4-1,0c0.4-0.3,0.7-0.4,0.7-1.4h0.3c-0.1,0-0.3-0.5-0.7-0.7c0.6-0.7,0.7-1.5,0.3-2.4c0.4-0.2,0.4-0.6,0-1
		c0.3-0.1,0.3-0.3,0-0.7c0.3-0.1,0.2-0.3,0.2-0.7c0.3-0.2,0.8-0.2,0.8,0v-0.7c1,0,1.1-0.1,1.6-0.3c0,0.1,0.1,0.2,0.2,0.3
		c0.5-0.3,1.2-0.4,2-0.3c0-0.1,0.1-0.2,0.3-0.3l0.4,0.3c0.6-0.4,1.4-0.4,2.5,0c0.1-0.2,0.3-0.4,0.6-0.3c0.2,0.5,0.4,0.7,0.8,0.6
		c0.5,0,1-0.7,1.4-0.7h0.3c-0.1,0,0.1,0.6,0.7,0.6c0.1,0.3,0.3,0.5,0.7,0.6l-0.3,1.9l0.3,0.1c0,0.3,0.1,0.6,0.3,0.8
		c0,0.5-0.1,0.9-0.3,1.3c0.1,0,0.2,0.1,0.3,0.2c-0.2,0.4-0.3,0.5-0.3,1.5h0.3c-0.5,1-0.5,1.6,0,2.4c-0.3,0.3-0.5,0.6-0.3,1.6h-0.7
		c0.1,0,0.3,0.3,0.7,0.2c0,0.5,0.1,0.9,0.3,1.3c-0.4,0.2-0.5,0.5-0.3,1c-0.2,0-0.3,0.1-0.3,0.3c0.3,0.2,0.5,0.5,0.7,1
		c-1.2-0.4-1.2-0.2,0,0.7c-0.2,0.3-0.2,0.7-0.1,1c-0.2,0.5-0.1,0.9,0.1,1.4c-0.6,0.3-0.7,0.7-0.3,1.4c-0.3,0.6-0.2,1.3,0.3,2.1
		c-0.4,0.2-0.5,0.5-0.3,1c-0.5-0.1-0.7,0.1-0.7,0.7c-0.2,0-0.3,0.1-0.3,0.3c0.5,0.1,0.7-0.1,0.7-0.7c0.4,0.2,0.4,0.4,0,0.7
		c0.1,0.3,0.3,0.5,0.7,0.7c-0.5,0.9-1.3,1.3-2.4,1.4l-0.3,0.7c-0.6-0.1-1,0.1-1.3,0.7c-0.8-0.3-1.3-0.3-1.7,0
		c-0.2-0.3-0.8-0.3-1.8,0c-0.3-0.6-0.7-1-1.4-1.4c0.1-0.4,0.2-0.7,0.3-1l-0.3-0.1c0.3-1.1,0.3-1.8,0-2.1c0.1-0.3,0.3-0.7,0.3-1.3
		c-0.4-0.3-0.5-0.7-0.6-1.4c-0.5,0.3-0.6,0.8-0.6,1.5v1.1c-1,0.6-0.6,1.3-0.1,2.2c-0.5,0.2-0.8,0.7-0.8,1.4c-0.2,0-0.4,0.1-0.4,0.3
		c-0.5,0.1-1,0-1.6-0.3l-0.5,0.3c-0.5-0.3-1.1-0.3-1.7,0c-0.1-0.3-0.3-0.4-0.7-0.3c-0.1-0.3-0.3-0.5-0.7-0.7
		c-0.3-0.7-0.5-1.4-0.1-1.9l-0.5-0.1v-2.1c0-0.2,0-0.3-0.1-0.3c-0.1-0.2-0.2-0.5-0.2-0.9c0-0.2,0.3-0.3,0.3-0.5v-3l0.5-0.1
		c0-0.2-0.1-0.3-0.3-0.3c0-0.3,0.1-0.5,0.4-0.8c-0.1-0.1-0.2-0.2-0.3-0.2c0.2-0.4,0.4-0.8,0.3-1.4l0.7-0.5c-0.2-0.5-0.3-1.2-0.3-1.9
		l-0.3-0.1c0-0.5,0.1-1.2,0.3-1.9c-0.2,0-0.3-0.1-0.3-0.3c0.3-0.1,0.3-0.3,0-0.7c0.3-0.1,0.6-0.6,0.6-1.4c0-0.2-0.1-0.3-0.1-0.3v1.4
		c-1,0.1-1,0.4-1,0.9v0.3v0.6v1.5v0.3v0.9v0.3v0.3v0.3c0,0.2,0,0.4,0,0.6v2.3v0.3v0.5h-0.8c0.2-1-0.2-1.6-1.2-1.8v2.3v0.3v0.5v0.3
		v0.6v0.3v0.3l0.4,0.1c0,0.2,0,0.3-0.2,0.3c0.1,0.4-0.2,0.8,0.8,1.1v0.7v0.6c-1,0.2-0.6,0.5-0.4,1c-0.9,0-1.1,0.4-0.7,1.1
		c-0.3,0.4-0.3,0.8,0,1.3c-0.3-0.1-0.5-0.4-0.7-0.7c-0.2,0-0.3,0.1-0.3,0.3c-0.4-0.2-0.9-0.2-1.4,0c-0.2-0.4-0.5-0.4-0.7,0
		c-0.5-0.1-0.7,0.1-1.7,0.3v-0.3c-1,0-1.5-0.9-1.7-1.9h-0.3c0.2,0,0.2-0.6,0-1.1c0.3-0.6,0.3-0.8,0-0.9c0.2-0.3,0.2-0.6,0-1
		c0.3-0.1,0.4-0.3,0.3-0.7c0.3,0.1,0.5-0.3,0.7-0.3h-1c0.2,0,0.2-1,0-1.6c0.4-0.4,0.5-1,0.3-1.7l0.3-0.2c-0.2-0.1-0.4-0.2-0.7-0.2
		c0.1-0.2,0.3-0.4,0.7-0.5c-0.6-0.6-0.8-1.3-0.7-2.3l0.7-0.1c-1-1.1-1-1.7,0-2.1c-0.2-0.1-0.4-0.2-0.7-0.2c0.3-0.2,0.3-0.5,0-0.9
		c0.3-0.2,0.3-0.4,0-0.6c0.2-0.2,0.2-0.5,0-0.9c0.3-0.1,0.4-0.3,0.3-0.7c-0.3-0.2-0.7-0.2-1,0c0.3-0.3,0.3-0.6,0-0.7l0.1-0.3
		c0.4,0.2,0.7,0.1,0.9-0.3c-0.9-0.1-1.3-0.7-1.4-1.7h-0.7c0.2-1-0.3-1.9-0.3-2.1v-0.7c0,0.1,0.5,0,0.6-0.3c-0.6-0.3-1-0.6-1-1.3
		c-0.3-0.1-0.5-0.6-0.7-0.6h0.1v-0.5c0-0.1,0.3-0.3,0.5-0.7c0.5,0.1,0.6-0.1,0.6-0.7c0.2,0,0.3-0.1,0.3-0.3c0.2,0,0.3-0.1,0.3-0.4
		c0.5,0.3,0.8,0.6,1-0.4h0.4v0.4c1,0,1,0.4,0.7,1.1c1.2-0.4,1.5-0.5,1,0.5h1l-0.3,0.6c0.8,0.1,0.7,0.2,0.2,0.6
		c0-0.2,0.5-0.4-0.5-0.4v0.7c1,0,1.2,0.3,1.2,1c0.3-0.1,0.6-0.3,0.8-0.7c0.3,0.2,0.7,0.2,1.1,0c0.3,0.5,0.7,0.4,1.2-0.3
		c0.4,0.2,0.9,0.2,1.3,0c0,0.2,0.1,0.3,0.3,0.3l0.1-0.3c0.4,0.2,0.8,0.2,1.3,0c0.3-0.6,0.4-1.2,0.3-1.9l0.3-0.1
		c-0.2-0.4-0.3-0.8-0.3-1.4c0.2,0,0.3-0.2,0.3-0.4c-0.7,0-0.9,0.3-0.7,1.3h-0.3c0.2-1,0.1-1,0.1-1.3v-0.7c0,0.5,0.6,1,0.9,0h-0.9
		v-0.3C1179.5,227.7,1179.5,227.5,1178.5,227.2L1178.5,227.2z M1166.8,231.7c0.7-0.1,0.8-0.2,0.1-0.3L1166.8,231.7z M1167.5,238.5
		c0-0.1,0-0.2,0-0.3V238.5z M1167.8,233.1c0-0.2-0.1-0.3-0.3-0.3C1167.4,232.9,1167.6,233,1167.8,233.1z M1167.5,231.4
		c1-0.1,1-0.2,0-0.3V231.4z M1167.5,235.1c1-0.1,1-0.2,0-0.3V235.1z M1167.5,239.2c1-0.1,1-0.2,0-0.3V239.2z M1168.5,230.7
		c0-0.2-0.1-0.3-0.3-0.3C1168.1,230.5,1168.2,230.6,1168.5,230.7z M1168.5,234.4c1-0.1,1-0.2,0-0.3V234.4z M1169.1,230.2
		c0.1,0,0.2,0,0.3,0H1169.1z M1169.1,230.2c0.1,1,0.2,1,0.3,0H1169.1z M1169.1,231.2c0.1,0,0.2,0,0.3,0H1169.1z M1169.5,232.2
		c0.1,0,0.2,0,0.3,0H1169.5z M1169.5,239.9c1-0.1,1-0.2,0-0.3V239.9z M1169.8,230.2c0.1,0,0.2,0,0.3,0H1169.8z M1170.2,231
		c0-0.2-0.1-0.3-0.3-0.3C1169.8,230.9,1170,231,1170.2,231z M1169.5,231.7c1-0.1,1-0.2,0-0.3V231.7z M1169.8,232.4
		c0.3-0.1,0.3-0.2,0.1-0.3L1169.8,232.4z M1170.5,239.6c0-0.1,0-0.2,0-0.3V239.6z M1170.5,231.7c0-0.2,0-0.4,0-0.7V231.7z
		 M1171.5,232c0-0.1,0-0.2,0-0.3V232z M1177.5,226.9c1,0.1,1,0.2,0,0.3V226.9z M1178.5,227.6c0,0.1,0,0.2,0,0.3V227.6z
		 M1179.1,235.8c0.5-0.3,0.5-0.7,0-1c-0.3,0.6-0.4,1.2-0.3,2.1C1179.5,236.8,1179.6,236.5,1179.1,235.8z M1178.7,238.5
		c0.9-0.4,1-0.9,0.3-1.4L1178.7,238.5z M1179.1,226.6c0-0.5,0.1-1.1,0.3-1.7C1180.2,225.4,1180,226,1179.1,226.6z M1179.1,233.2
		c0.1,1,0.2,1,0.3,0H1179.1z M1179.8,234.2c0.1,0,0.2,0,0.3,0H1179.8z M1180.5,229.6c0,0.1,0,0.2,0,0.3V229.6z M1180.5,227.2
		c0,0.1,0,0.2,0,0.3V227.2z M1180.5,228.6c0,0.1,0,0.2,0,0.3V228.6z M1180.5,241.6c1-0.1,1-0.2,0-0.3V241.6z M1182.2,242.3
		c-0.3,0-0.7-0.1-1-0.3C1181.6,243.8,1182,243.9,1182.2,242.3z M1181.5,244c1-0.1,1-0.2,0-0.3V244z M1182.2,244.7
		c0.4-0.2,0.4-0.4,0.1-0.7L1182.2,244.7z M1182.5,242.2c0.1,1,0.2,1,0.3,0H1182.5z M1182.5,238.2c1-0.1,1-0.2,0-0.3V238.2z
		 M1183.2,238.2c0.1,1,0.2,1,0.3,0H1183.2z M1185.5,251.6c0-0.1,0-0.2,0-0.3V251.6z M1187,250.2c0-0.2-0.1-0.3-0.3-0.3
		C1186.6,250,1186.7,250.2,1187,250.2z M1186.5,249.5c1-0.1,1-0.2,0-0.3V249.5z M1193.5,242.2c0.1,1,0.2,1,0.3,0H1193.5z
		 M1193.5,253.2c0.1,1,0.2,1,0.3,0H1193.5z M1193.5,256.2c0.1,0,0.2,0,0.3,0H1193.5z M1193.5,253.6c1-0.3,1-0.7,0-1V253.6z
		 M1194.5,246.8c0-0.1,0-0.2,0-0.3V246.8z M1194.2,256.2c0.1,0,0.2,0,0.3,0H1194.2z M1194.5,244.2c0.1,1,0.2,1,0.3,0H1194.5z
		 M1194.5,249.2c0.1,0,0.2,0,0.3,0H1194.5z M1194.5,250.2c0.1,0,0.2,0,0.3,0H1194.5z"/>
	<path d="M1204.9,234.9c0.4,0.2,0.8,0,0.9-0.3c0.7,0.5,1.4,0.5,2.3,0c0.3,0.4,1,0.4,2.2,0c0.3,0.4,0.7,0.7,1.4,0.7
		c-0.1,0.5,0.1,0.7,0.6,0.7c-0.2,0.7,0.3,1.1,0.3,1.4v0.7c0,0.1-0.4,0.3-0.5,0.3h0.7c-0.1,1,0.1,0.9,0.7,0.9c0,0.2,0.1,0.4,0.3,0.4
		c-0.1,0.3,0,0.5,0.3,0.7c-0.2,0.3-0.3,1-0.3,1h-0.3c0,0,0.2,0.5,0.2,0.5v2.1l0.4,0.1c-0.3,0.5-0.2,1.1,0,1.7l-0.3,0.6
		c0.2,0,0.4,0.2,0.4,0.5c-0.7,0.7-0.7,1.4,0,2.2c-0.6,0.1-0.7,0.4-0.3,0.8c-0.3,0.1-0.3,0.2,0,0.3c-0.3,0.5-0.2,0.8,0.3,1
		c-0.4,1-0.4,1.8,0,2.4c-0.7,0.3-0.8,0.9-0.3,1.6c-0.2,0.2-0.3,0.4-0.3,0.8c-0.5,0.2-0.8,0.7-0.7,1.4c-0.3,0.1-0.4,0.3-0.3,0.7
		c-0.3-0.1-0.6,0-0.7,0.3c-1.2-0.5-1.9,0-2.1,1.4c-0.3,0-0.4-0.1-0.6-0.3c-0.4,0.3-1.4,0.4-1.4,0.3v0.3c-1,0-0.9,0.1-1.2,0.3
		c-0.5,0-1-0.1-1.5-0.3c0,0.2-0.2,0.3-0.4,0.3c0-0.2-0.1-0.3-0.2-0.3c-0.3,0.3-0.7,0.4-1.2,0.3c-0.1-0.6,0-1.2,0.3-1.9l-0.3-0.5
		c-0.4,0.2-0.5,1-0.3,2.4c-0.5-0.3-1.1-0.3-1.7,0c-0.1-0.5-0.5-0.7-1-0.7c0.2-0.7-0.4-1-1.7-1c-0.2-0.6-0.7-0.9-1.4-1
		c0.3-0.5,0.2-0.8-0.3-1c-0.1-0.3-0.3-0.5-0.7-0.7c0-0.3-0.1-0.7-0.3-0.9l0.3-0.1c0-0.3-0.1-0.7-0.4-0.9c0.5-0.4,1-0.8,0-1.1v-1.3
		c1-0.8,0.5-1.3,0-1.5c0.2-0.3,0.2-0.7,0-1c0.4-0.2,0.5-0.7,0.3-1.4c0.5-0.3,0.5-0.7,0-1.3c0.2-0.4,0.2-0.7,0-1.1
		c0.4-0.2,0.4-0.5,0-0.8c0.5-0.6,0.7-1.3,0.7-2.3c0.4-0.2,0.5-0.9,0.3-2.1c0.4-0.2,0.5-0.5,0.3-1c0.4-0.3,0.7-0.7,0.7-1.4
		c0.6-0.1,1-0.5,1.4-1c0.5,0.1,0.7-0.1,0.7-0.7c0.7,0,1.5-0.2,2.3-0.7l0.2,0.3c0.4-0.3,0.8-0.5,1.4-0.7c0.2,0.2,0.5,0.3,0.9,0.3
		L1204.9,234.9z M1195.5,252c1-0.1,1-0.2,0-0.3V252z M1203.5,235.2c-0.4,1-0.3,1.7,0.2,2.1c-0.3,0.5-0.3,1.1,0,1.8l-0.3,0.2v2.3v0.3
		v0.5c0,0.2-0.2,0.3-0.4,0.3c0.3,0.6,0.4,1.2,0.3,1.9c-0.2,0.1-0.3,0.3-0.4,0.5c0.1,0,0.2,0.1,0.3,0.2c-0.3,0.2-0.3,0.5,0,0.8
		c-0.3,0.1-0.4,0.3-0.3,0.7c0.1,0.3,0.3,0.3,0.6,0l0.1,0.2c-0.5,0.3-0.7,0.8-0.7,1.5c-0.4,0.2-0.4,0.5,0,0.9c-0.3,0.2-0.3,0.4,0,0.7
		c-0.3,0.2-0.3,0.4,0,0.6c-0.3,0.3-0.3,0.4,0,0.6c-0.1,0.3-0.3,0.5-0.7,0.7c0.3,0.3,0.3,0.8,0,1.4l0.9,0.3c0,0.8,0.2,1.1,1.2,0.7
		v0.7c0-0.1,0.6-0.9,1-0.9h1v-1.5c0-0.4,0.4-0.9-0.2-1.6c0.6-0.7,0.5-1.5-0.1-2.3c0.3-0.6,0.3-1.2,0-1.9c0.3-0.1,0.4-0.7,0.3-0.7
		h-0.3c0,0-0.1-0.5-0.3-0.7c0.3,0,0.5-0.3,0.7-0.3h-1v-0.8c1,0.1,0.8-0.2,1-0.2h-1c0.1,0,0.3-0.5,0.7-0.4c-0.1-0.3-0.3-0.5-0.7-0.7
		l0.3-0.7c-0.3,0-0.7-0.2-1-0.3c0-0.2,0-0.3,0.2-0.3c-0.1-0.6,0.5-1.1,0.5-1.4V240c0-0.3-0.7-0.3-1.2,0c0-0.2,0-0.3-0.3-0.3
		c0.1-0.5,0-1.1-0.3-1.7c0.3-0.1,0.4-0.4,0.4-0.8c-0.1-0.1-0.2-0.2-0.3-0.2c0.3-0.3,0.3-0.5,0-0.8c0.2-0.2,0.3-0.9,0.3-0.9H1203.5z
		 M1203.1,256.5c0.3-0.5,0.2-0.8-0.3-1C1202.7,256.6,1202.8,257,1203.1,256.5z M1203.4,255.4c0-0.5-0.2-0.8-0.7-1
		C1202.7,254.9,1202.9,255.2,1203.4,255.4z M1202.7,257.1c0.7,0.8,0.8,0.7,0.5-0.3L1202.7,257.1z M1203.8,248.9
		c-0.2,0-0.3-0.1-0.3-0.3C1203.6,248.6,1203.7,248.7,1203.8,248.9z M1205.1,242.1c0.3-0.1,0.3-0.2,0.1-0.3L1205.1,242.1z
		 M1207.2,235.2c0.1,0,0.2,0,0.3,0H1207.2z M1212.5,252c1-0.1,1-0.2,0-0.3V252z M1213.7,244.1c0-0.2-0.1-0.3-0.3-0.3
		C1213.4,244,1213.5,244.1,1213.7,244.1z"/>
	<path d="M1219.6,236.3c0.5,0.1,0.8-0.1,1-0.5l0.4,0.1c-0.4,0.8-0.2,1.3,0.6,1.5c-0.1-0.3-0.2-0.7-0.5-1c0.3-0.1,0.5-0.4,0.6-0.8
		l1-0.1c0.3,0.4,0.7,0.4,1.4,0.1c0.3,0.5,1.1,0.3,2.4-0.3c0.2,0.4,0.6,0.7,1.2,0.9c0.2,0.8,0.9,1.2,1.9,1.1l0.1,0.7l0.3,0l0.1,0.7
		l0.3,0c0,0.4,0.2,0.8,0.5,1.2l0.2,1.5c-0.3,0.2-0.4,0.6-0.2,1.1l-0.7,0.1l0.4,0.6c-0.2,0-0.3,0.1-0.3,0.4c-0.5-0.1-0.8,0.1-1,0.5
		c-0.9-0.2-1.3-0.2-1.5,0.2c-0.6-0.3-1.3-0.1-1.9,0.6l-0.2-0.7c-0.2,0.2-0.5,0.4-0.8,0.5c0.1-0.3,0.2-0.7,0.2-1.1l-0.6,0.4l0.3-0.5
		c-0.3-0.4-0.5-0.9-0.6-1.5c-0.5-0.1-0.8,0.1-1,0.5l-0.7,0.1c-0.2-0.4-0.4-1-0.6-1.6l-0.7,0.1l0.4,0.6c-0.3,0.1-0.3,0.4,0.1,0.7
		c-0.3,0.2-0.5,0.4-0.6,0.8c0.8,0.3,1.3,0.9,1.3,1.9c0.5,0.3,1.1,0.4,1.8,0.4c0.1,0.3,0.3,0.3,0.6,0.3l0.1,0.2l0.2,0.1l0.3,0
		l0.2,0.3l1.3-0.5c0.2,0.3,0.4,0.3,0.7-0.1c0.2,0.3,0.4,0.4,0.7,0.2c0.1,0.3,0.4,0.5,0.8,0.6c0.2,0.8,0.8,1.3,1.6,1.5
		c0.1,0.3,0.2,0.7,0.5,1l0.3,0c0,0.2,0.1,0.5,0.3,0.7c0.1,0.1,0.3,0.2,0.5,0.3c-0.1,0.3,0.1,0.5,0.4,0.6c-0.2,0.7,0,1.5,0.7,2.2
		c-0.2,0.6-0.1,1.2,0.3,1.8c-0.4,0.2-0.6,0.6-0.5,1.1c-0.5,0.3-0.8,0.7-0.8,1.4l-0.3,0.2l-0.2,0.7c-0.8,0.1-1.2,0.7-1.2,1.5
		c-0.4,0.2-0.6,0.6-0.5,1.1c-0.5,0.1-0.9,0.4-1.3,0.9c0.3-1-0.3-1.1-1.6-0.1c-0.6-0.5-1.2-0.5-1.9-0.1c0.4-0.7,0.3-1.1-0.2-1.4
		l0.1,0.7l-0.7-0.2l0.1,0.7c-1.3,0.6-2.6,0.7-4.1,0.2l-0.1-0.7c-0.2,0.2-0.5,0.4-1,0.5c-0.1-0.3-0.4-0.5-0.8-0.6
		c0-0.6-0.4-0.8-1.1-0.5c0.1-0.3-0.1-0.5-0.4-0.6c0.3-0.5,0.2-0.8-0.4-0.6c0.3-0.7,0.1-0.8-0.8-0.6c0.3-0.6,0.1-1-0.5-1.3
		c-0.1-0.3-0.2-0.7-0.5-1c0.6,0,0.8-0.4,0.5-1.1c0.2,0,0.3-0.2,0.3-0.4l1.4-0.2l0.3,0l1.9-0.3l0.4-0.1l1.5-0.2l0.6-0.1l0.5,0
		l0.6-0.1c0.4,0.5,0.6,1.2,0.6,2c0.4,0.1,0.6,0.8,0.6,2l0.6-0.4l-0.4-0.6c0.5-0.5,0.7-1.2,0.4-2.1c0.3-0.2,0.4-0.6,0.2-1.1
		c-0.2,0-0.3-0.1-0.4-0.3c-0.8,0.2-1.3,0-1.5-0.8c-0.7,0.3-1,0.1-1.1-0.5l-1.4,0.2l0-0.3l-0.7,0.1l-0.4-0.6l-0.7,0.1
		c-0.4-0.8-1.1-1.4-2-1.8c-0.1-0.6-0.5-1-1.1-1.2c-0.1-0.5-0.4-0.9-1-1.2l-0.1-0.6l-0.4-0.1c0.3-0.3,0.2-0.6-0.1-0.8
		c0.2-0.3,0.2-0.6,0.2-0.9l-0.3,0c-0.1-0.3,0-0.6,0.2-0.7c0-0.2-0.2-0.3-0.4-0.3c0-0.2,0.1-0.3,0.3-0.4c-0.3-2.2,0.6-3.7,2.8-4.6
		c-0.1-0.6,0.2-1,0.9-1.2l0-0.3C1218.8,237,1219.3,236.9,1219.6,236.3z M1216.4,257.2c0.3-0.2,0.3-0.3,0-0.3L1216.4,257.2z
		 M1219.6,260.5c0.3-0.2,0.3-0.3,0-0.3L1219.6,260.5z M1221.3,238.5c0.3-0.5,0.1-0.9-0.5-1c-0.1,0.7,0.1,1.1,0.5,1.3
		c-0.2,0.3-0.2,0.6,0.1,0.8c-0.2,0.3-0.2,0.6-0.2,0.9l0.7-0.1C1222,239.3,1221.8,238.7,1221.3,238.5z M1221.8,244
		c0.2,0.3,0.3,0.3,0.3,0L1221.8,244z M1222.4,253.6c0.2,0.8,0.3,0.7,0.3,0L1222.4,253.6z M1224.9,258.7c0-0.2-0.2-0.3-0.4-0.3
		C1224.5,258.6,1224.7,258.7,1224.9,258.7z M1224.8,258.1c0.4-0.3,0.4-0.7,0-1L1224.8,258.1z M1225,259.8c0.4-0.3,0.4-0.7,0-1
		L1225,259.8z M1227.5,259.8c0.2,0.3,0.3,0.3,0.3,0L1227.5,259.8z M1229.6,242.9c0.2,0.3,0.3,0.3,0.3,0L1229.6,242.9z M1231.6,257.1
		c0.2,0.3,0.3,0.3,0.3,0L1231.6,257.1z"/>
</g>
<g>
	<path fill="#FFF200" d="M1192.4,180.1c2.1-3.3-0.3-7.8-3.5-10c-3.2-2.3-7.1-3.4-10.1-5.9c-3-2.5-4.7-6.2-6.4-9.7
		c-2-4.4-4-8.9-3.7-13.7c1.7,2.1,4.5,3.3,7.2,3.1c-1.1-0.7-1.5-2.1-1.9-3.4c-1.8-6.4-5.5-12-8.7-17.9c-3.2-5.8-5.9-12.2-5.5-18.9
		c1.4,6.9,8.3,10.9,13.3,15.8c0.8,0.8,1.7,1.9,1.4,3c-5.2-9.6-2.7-21.5-5.6-31.9c-0.8-2.7-1.9-5.4-2.5-8.1c2.3,3.7,4.6,7.4,6.9,11
		c1.4,2.2,2.8,4.5,4.5,6.5c2.1,2.5,5,4.9,5,8.2c0.5-3.5,0-7.1-1.4-10.3c2.3,6.5,5.3,12.7,8.9,18.5c0.4,0.7,0.9,1.4,1.5,1.8
		c0.6,0.4,1.3,0.5,1.9,0.7c4.7,1.1,9.5,2.1,14.2,3.2c1.5,0.3,3,0.6,4.4,0.3c1.8-0.4,3.2-1.7,4.6-2.9c2.8-2.3,5.9-4.3,9.1-5.8
		c3-1.4,6.3-2.6,8.3-5.3c2.2-3,2.2-7.3,4.3-10.4c-0.6,11.1-3.7,22-9.1,31.7c4-4.6,8-9.2,11.9-13.9c-1.9,9.9-6.6,19.3-13.5,26.8
		c-3.3,3.6-7.2,7-8.2,11.8c7.2-3.3,13.5-8.5,18.1-14.9c-2.4,8.9-6.9,17.2-12.9,24.2c-1.5,1.7-3.1,3.4-3.7,5.6
		c-0.6,2.1-0.1,4.4-0.4,6.5c-0.5,3.7-3.3,6.6-6.2,9c-2.9,2.4-6,4.5-8,7.7c-0.6,1-1.2,2.1-2.2,2.5c-0.5,0.2-1,0.2-1.5,0.4
		c-0.5,0.2-0.8,0.7-1.1,1.1c-1.2,1.5-2.3,3.1-3.5,4.6c-1.1-6.2-2.1-12.6-4.8-18.3c-2.3-5-5.9-10.1-5.1-15.5"/>
	<path fill="#F7941E" d="M1215.8,171.5c4-4.1,4.9-10.8,9.6-14c-3.6,1.2-7,3.2-9.9,5.7c1.3-6.5,3.4-12.9,6.3-18.9
		c1.6-3.4,3.5-6.7,3.9-10.5c-2.1,2.5-4.5,4.8-7.1,6.8c0.8-0.9,0.9-2.2,0.9-3.4c0.2-5.3,0.5-10.6,0.7-15.9c-1.8,1.5-4.2,2.1-6.5,2.3
		c-3.6,0.4-7.2,0.1-10.7-0.8c-1.5-0.4-3-0.9-4.5-1.4c-1.7-0.6-3.5-1.2-5.2-1.9c-0.8-0.3-1.7-0.6-2.4-1.1c-0.5-0.4-1-0.8-1.4-1.3
		c-1.8-1.8-3.6-3.7-5.3-5.5c-2.3-2.4-8.4-7.9-9.6-11c-0.4,7.7,5.3,18.2,7.7,25.5c0.4,1.3,0.7,3.2-0.6,3.7c-0.6,0.2-1.3,0-2-0.3
		c-2.5-1.1-4.7-2.8-6.5-4.9c1.6,3.9,3.6,7.6,6.2,10.9c0,1.2,0.9,2.1,1.5,3.1c1,1.8,1,3.9,0.5,5.9c-0.5,2-1.5,3.8-2.4,5.5
		c-0.2,0.5-0.6,1-1.1,1c-0.3,0-0.6-0.1-0.8-0.2c-1.5-0.7-2.9-2-3.7-3.4c1.5,4.4,4.4,8.3,8.2,11c0.9,0.6,1.8,1.2,2.6,1.9
		c1.4,1.2,2.3,2.9,3.8,3.9c1,0.7,2.2,1,3.2,1.7c1.7,1.2,2.6,3.2,4.1,4.7c2.1,2.1,5.1,2.9,8,3.7c1.9,0.5,3.9,0.9,5.7,0.3
		c2-0.7,3.3-2.7,3.8-4.8c0.5-2.1,0.3-4.2,0.2-6.3"/>
	<path fill="#FFF200" d="M1248.2,57c-1.8,4.6-6,7.7-10.1,10.4c-3.9,2.7-7.8,5.2-11.8,7.8c4.7-3.4,7.6-9.2,7.6-15
		c0-2.7-0.6-5.4-0.7-8.1c-0.1-6.1,2.7-11.9,4.1-17.8c0.9-3.7,1.2-7.6,1-11.4c0.1,8.5-4,17-10.8,22.2c2.7-2.5,3.5-6.6,3.1-10.3
		s-1.6-7.3-2.2-10.9c-1.5-8.5,0.3-1.6-1.2-10.1c-1.4,6.2-2.7-3.2-4.1,3c-0.3,1.5-0.7,3-1.4,4.4c-0.6,1.3-1.6,2.3-2.4,3.5
		c-4.4,5.6-7.1,12.5-7.8,19.6c-0.7-9.1-3.3-18.1-7.6-26.1c1.5,5.7-1.8,11.4-3.5,17c-2.8,9.3-0.9,19.4-2.4,29
		c-2.9-6.1-4.5-12.9-4.7-19.6c-1.8,3.2-3.7,6.6-4,10.3c-0.2,2.6,0.5,5.1,0.8,7.7c0.5,4.1,0,8.2-1.3,12.1c-2.5-5.3-4-11.2-4.1-17
		c-2.7,2.6-5.6,6-4.7,9.7c0.3,1.3,1.1,2.3,1.7,3.5c1.8,3.2,2.8,6.9,2.8,10.5c-1.6-1.5-2.9-3.2-3.9-5.2c-1,0.5-1.1,1.9-1,3
		c0.3,3.3,0.6,6.6,2,9.5s4,5.5,7.3,5.9c2.4,0.3,5.5-0.3,6.5,1.9c0.3,0.7,0.3,1.5,0.6,2.2c0.4,0.9,1.4,1.5,2.3,2
		c2.7,1.5,5.4,2.9,8.1,4.4c2.3,1.3,4.7,2.5,7.2,3.3c3.2,0.9,6.7,1,10,0.5c1.8-0.3,3.5-0.7,5.1-1.6c4.5-2.5,6.5-7.7,8.5-12.5
		s4.6-9.9,9.5-11.5c-4.5,1.6-8.8,3.8-12.6,6.7C1243,81.4,1239.5,65.3,1248.2,57z"/>
	<path fill="#F7941E" d="M1229.2,97.6c0.2,0.6,1,0.6,1.5,0.4c3.3-1,5.1-4.3,6.7-7.4c-1.9,1.4-4.3,2.1-6.6,1.9
		c3.9-5.2,6-11.6,5.9-18.1c-1.1,4.2-4.9,7-8.5,9.3c-3.8,2.4-8,4.6-12.5,4.3c3.2-4.7,6.5-9.4,9.3-14.4c1.6-2.8,3-5.8,3.3-8.9
		c0.4-3.3-0.4-6.8,0.6-10c-1.8,4.3-4,9-8.3,11c2.3-2.5,3-6.1,3.4-9.6c0.4-3.9,0.5-7.9,0.6-11.8c0.2-7.7,0.4-15.4,0.6-23.1
		c-0.3,4.6-3.5,8.4-5.3,12.6c-0.7,1.5-1.2,3.2-1.9,4.7c-1.2,2.5-3.1,4.5-4.6,6.8c-1.5,2.3-2.7,5-2.4,7.7c-2.4-6.4-4-13.1-4.8-19.9
		c-4.3,12.6-5.2,26.3-2.7,39.4c-1.3,0.1-2.3-1.2-3-2.3c-1.9-2.9-3.7-5.9-5.6-8.8c-0.8,1.6-0.5,3.6-0.2,5.4c1,5.9,2,11.8,3,17.8
		c-1.9,0.3-3.8-0.9-5-2.4s-1.8-3.4-2.6-5.1c-0.2-0.5-0.7-1.1-1.2-1c-0.6,0.2-0.6,1-0.4,1.6c0.7,2.4,2,4.8,1.5,7.3
		c-0.1,0.4-0.2,0.8-0.1,1.3c0.1,0.5,0.5,1,0.8,1.4c3.2,3.3,7.2,5.7,11.2,8c1.5,0.8,3,1.7,4.7,1.9c2.6,0.2,5.5-1.3,7.8,0
		c1,0.5,1.7,1.5,2.8,1.9c0.8,0.3,1.6,0.4,2.5,0.4C1224.9,100,1225.6,101.4,1229.2,97.6z"/>
	<rect x="1185.5" y="22.3" fill="#603913" width="14" height="200"/>
	<rect x="1185.5" y="22.3" fill="#8B5E3C" width="6" height="200"/>
	<polygon fill="#FCC792" points="1197.5,65.2 1197.5,85.4 1219.6,86.7 1228.7,49.2 1197.5,49.2 	"/>
	<path fill="#231F20" d="M1197.5,62.4v8.8h5V58.5l5.8-9.2l18.8,5.8c0,0,9.4-23.5-5.5-24.3c-14.8-0.9-24.2,18.6-24.2,18.6V62.4z"/>
	<polygon fill="#231F20" points="1178.9,86.8 1197.3,83.6 1233.6,88.2 1218.1,151.8 1220.9,221.2 1206.5,221.2 1206.5,162.1 
		1202.2,221.2 1190.6,221.2 1192.3,151.8 	"/>
	<polygon fill="#231F20" points="1233.5,88.2 1233.5,152.6 1223.3,154 1224.7,104.2 	"/>
	<path fill="#231F20" d="M1178.9,87l-2.5,72.3h11.7l-1.4-51.9C1186.7,107.4,1181.4,87,1178.9,87z"/>
	<polygon fill="#FFFFFF" points="1191.8,84.5 1206.3,136.8 1222.3,86.8 1197.3,83.6 	"/>
	<polygon fill="#FCC792" points="1223.4,154 1225.9,163 1231.5,161.6 1233.6,152.6 	"/>
	<polygon fill="#FCC792" points="1176.4,159.2 1178.9,164.2 1185.5,164.2 1188.1,159.2 	"/>
	<polygon fill="#BE1E2D" points="1207.1,84.8 1203.1,89.1 1205.1,92.2 1211.4,92.2 1214,89.6 1211.7,85.3 	"/>
	<polygon fill="#ED1C24" points="1205.1,92.2 1201.3,107.8 1207.2,122.7 1213,107.2 1211.4,92.2 	"/>
	<polygon fill="#009444" points="1198.2,107.7 1220.1,93.6 1217.9,100.6 1199.9,113.8 	"/>
	<polygon fill="#FFFFFF" points="1199.9,113.8 1217.9,100.6 1215.8,107.2 1201.3,118.9 	"/>
	<polygon fill="#BE1E2D" points="1201.3,118.9 1215.8,107.2 1214,112.7 1202.6,123.3 	"/>
	<polygon fill="#EAAD75" points="1217.1,52 1207.2,59.6 1207.2,84.8 1197.5,83.6 1197.5,71.2 1202.5,71.2 1202.5,58.5 1208.4,49.3 	
		"/>
	<polygon fill="#EAAD75" points="1176.4,159.2 1178.9,164.2 1183.2,164.2 1181.4,159.2 	"/>
	<polygon fill="#EAAD75" points="1223.4,154 1225.9,163 1228.7,162.3 1228.5,153.3 	"/>
	<polygon fill="#414042" points="1222.3,86.8 1233.5,88.2 1233.5,136.8 1230,91.2 1221.3,89.7 	"/>
	<polygon fill="#414042" points="1188.1,159.2 1186.8,112.2 1183.2,159.2 	"/>
	<polygon fill="#414042" points="1215.8,221.2 1217.9,140.3 1220.9,221.2 	"/>
	<polygon fill="#414042" points="1202.2,221.2 1206.3,158.5 1195.7,221.2 	"/>
	<polygon fill="#BCBEC0" points="1207.1,84.8 1197.3,83.1 1191.8,84.5 1198.2,107.7 1196.8,88.7 1204.1,88.2 	"/>
</g>
<rect x="119.6" width="434" height="74"/>
<path fill="#FFFFFF" d="M224.2,42h-10.5l-2.3,7h-5.1l10.4-29h4.7l10.2,29h-5.1L224.2,42z M215.1,38h7.8l-3.8-11h-0.1L215.1,38z"/>
<path fill="#FFFFFF" d="M241.1,40.5l0.5,2.5h0.1l4.8-16h5.4l-9.1,25.6c-0.6,1.5-1.4,2.9-2.5,4c-1.1,1.1-2.6,1.7-4.5,1.7
	c-0.4,0-0.8,0-1.3-0.1c-0.5-0.1-0.9-0.2-1.4-0.3l0.6-3.8c0.2,0,0.4,0,0.8,0.1c0.3,0,0.6,0,0.7,0c0.9,0,1.6-0.3,2.2-0.9
	c0.5-0.6,1-1.3,1.3-2.1l0.8-2.2l-8-22h5.4L241.1,40.5z"/>
<path fill="#FFFFFF" d="M253.6,38.1c0-3.3,0.9-6,2.8-8.1c1.8-2.1,4.3-3.2,7.4-3.2c3.2,0,5.5,1.1,7.3,3.2c1.8,2.1,2.5,4.8,2.5,8.1
	v0.4c0,3.3-0.7,6-2.5,8.1c-1.8,2.1-4.2,3.1-7.3,3.1c-3.2,0-5.6-1-7.4-3.1c-1.8-2.1-2.7-4.8-2.7-8.1V38.1z M258.6,38.6
	c0,2.2,0.5,3.9,1.3,5.3c0.8,1.3,2.2,2,3.9,2c1.7,0,2.8-0.7,3.7-2c0.9-1.4,1.1-3.1,1.1-5.3v-0.4c0-2.1-0.2-3.8-1.1-5.2
	c-0.9-1.4-2.1-2.1-3.8-2.1c-1.7,0-3,0.7-3.8,2.1c-0.9,1.4-1.3,3.1-1.3,5.2V38.6z"/>
<path fill="#FFFFFF" d="M284.6,22v5h4v4h-4v12.2c0,0.9,0.2,1.6,0.6,1.9c0.4,0.4,0.9,0.6,1.6,0.6c0.3,0,0.5,0,0.8-0.1
	c0.3,0,0.5-0.1,0.7-0.2l0.5,3.6c-0.4,0.2-0.9,0.4-1.5,0.5c-0.6,0.1-1.2,0.2-1.8,0.2c-1.8,0-3.3-0.5-4.4-1.6c-1-1.1-1.6-2.7-1.6-5V31
	h-3v-4h3v-5H284.6z"/>
<path fill="#FFFFFF" d="M321.6,22h-5v-4h5V22z M321.6,49h-5V27h5V49z"/>
<path fill="#FFFFFF" d="M299.4,45h12.2v4h-18v-2.9L304.4,31h-10.8v-4h17v3.4L299.4,45z"/>
<path fill="#FFFFFF" d="M361.6,49c-0.2,0-0.3-0.9-0.4-1.4c-0.1-0.5-0.2-1-0.2-1.5c-0.7,1-1.6,2-2.7,2.7c-1.1,0.7-2.4,1.1-3.7,1.1
	c-2.3,0-4.1-0.6-5.3-1.8c-1.2-1.2-1.8-2.8-1.8-4.9c0-2.1,0.8-4,2.5-5.2c1.7-1.2,4.1-2,7.1-2h3.5v-1.6c0-1.2-0.2-2.1-0.8-2.7
	c-0.7-0.7-1.6-1-2.8-1c-1.1,0-2,0.3-2.7,0.8c-0.7,0.5-1,1.2-1,2.1l-4.8,0l0-0.1c-0.1-1.7,0.7-3.3,2.3-4.6c1.7-1.3,3.8-2,6.5-2
	c2.6,0,4.5,0.7,6.1,2c1.6,1.3,2.2,3.2,2.2,5.6v9.8c0,0.9,0.2,1.6,0.3,2.4c0.1,0.8,0.5,2.3,0.7,2.3H361.6z M355.6,45.8
	c1.2,0,2.2-0.3,3.2-0.9c1-0.6,1.8-1.3,1.8-2.1V39H357c-1.4,0-2.6,0.6-3.4,1.3c-0.8,0.7-1.2,1.7-1.2,2.6c0,0.8,0.3,1.6,0.8,2.1
	C353.8,45.5,354.5,45.8,355.6,45.8z"/>
<path fill="#FFFFFF" d="M390.6,39.1c0,3.2-0.8,5.8-2.4,7.8c-1.5,2-3.7,3-6.4,3c-1.3,0-2.6-0.2-3.6-0.7c-1-0.4-1.7-1.1-2.7-2V58h-5
	V27h4.7l0.5,2.9c0.7-1,1.6-1.7,2.6-2.3c1-0.5,2.2-0.8,3.5-0.8c2.7,0,4.9,1.1,6.4,3.3c1.5,2.2,2.4,5,2.4,8.5V39.1z M385.6,38.7
	c0-2.3-0.5-4.1-1.3-5.5c-0.9-1.4-2.1-2.2-3.8-2.2c-1,0-2.1,0.2-2.9,0.7c-0.7,0.4-1,1.1-2,1.8v10c1,0.8,1.2,1.4,1.9,1.8
	c0.7,0.4,1.7,0.6,2.8,0.6c1.7,0,3.1-0.6,3.9-1.9c0.8-1.2,1.4-2.9,1.4-4.9V38.7z"/>
<path fill="#FFFFFF" d="M408.1,49c-0.2,0-0.3-0.9-0.4-1.4s-0.2-1-0.2-1.5c-0.7,1-1.6,2-2.7,2.7c-1.1,0.7-2.4,1.1-3.7,1.1
	c-2.3,0-4.1-0.6-5.3-1.8c-1.2-1.2-1.8-2.8-1.8-4.9c0-2.1,0.8-4,2.5-5.2c1.7-1.2,4.1-2,7.1-2h4.1v-1.6c0-1.2-0.5-2.1-1.1-2.7
	c-0.7-0.7-1.7-1-3-1c-1.1,0-2.1,0.3-2.7,0.8c-0.7,0.5-1,1.2-1,2.1l-4.8,0l0-0.1c-0.1-1.7,0.7-3.3,2.3-4.6c1.7-1.3,3.8-2,6.5-2
	c2.6,0,4.8,0.7,6.4,2c1.6,1.3,2.5,3.2,2.5,5.6v9.8c0,0.9-0.1,1.6,0,2.4c0.1,0.8,0.2,2.3,0.4,2.3H408.1z M402,45.8
	c1.2,0,2.5-0.3,3.5-0.9c1-0.6,1.1-1.3,2.1-2.1V39h-4.2c-1.4,0-2.6,0.6-3.4,1.3c-0.8,0.7-1.2,1.7-1.2,2.6c0,0.8,0.3,1.6,0.8,2.1
	C400.2,45.5,401,45.8,402,45.8z"/>
<path fill="#FFFFFF" d="M330.6,27l0.3,3.3c0.7-1.1,1.6-1.9,2.7-2.6c1.1-0.6,2.3-0.9,3.7-0.9c2.3,0,4.3,0.7,5.6,2.1
	c1.3,1.4,2.2,3.6,2.2,6.7V49h-5V35.7c0-1.7-0.6-2.9-1.2-3.7c-0.7-0.7-1.8-1.1-3.1-1.1c-1.1,0-2,0.2-2.8,0.6c-0.8,0.4-1.9,1-1.9,1.7
	V49h-5V27H330.6z"/>
<g>
	<rect x="192.6" y="0.3" fill="#9E9E9E" width="0" height="74"/>
</g>
<g>
	<circle fill="#CE3944" cx="156" cy="37.4" r="24.1"/>
	<g>
		<g>
			<path fill="#FFFFFF" d="M154.8,40.2h-14.5c-0.4,0-0.8-0.1-1-0.5c-0.2-0.4-0.2-0.8,0.1-1.1l11-14.5c0.3-0.4,0.9-0.5,1.4-0.4
				c0.5,0.2,0.9,0.6,0.9,1.1V36c0,0.6-0.4,1.2-1,1.2c-0.6,0-1-0.5-1-1.2v-7.6l-8,9.9h12.2c0.6,0,1.2,0.4,1.2,1
				C156,39.9,155.5,40.2,154.8,40.2z"/>
		</g>
		<g>
			<path fill="#FFFFFF" d="M151.6,51.1c-0.6,0-1-0.5-1-1.2v-7.1c0-0.6,0.4-1.2,1-1.2c0.6,0,1,0.5,1,1.2v7.1
				C152.6,50.6,152.3,51.1,151.6,51.1z"/>
		</g>
		<g>
			<g>
				<path fill="#FFFFFF" d="M162.2,51.1c-3.6,0-7.3-2.2-7.3-6.4c0-0.6,0.5-1.2,1.2-1.2c0.6,0,1.2,0.5,1.2,1.2c0,2.8,2.6,4.1,5,4.1
					c1.5,0,3-0.5,4-1.3c1.2-1,1.8-2.3,1.8-4c0-7-7.2-7.2-7.5-7.2c-0.4,0-0.8-0.3-1-0.7c-0.2-0.4-0.1-0.9,0.2-1.2l5.7-6.8
					c0.4-0.5,1.1-0.6,1.6-0.1c0.5,0.4,0.6,1.1,0.1,1.6l-4.3,5.2c3.4,0.8,7.6,3.3,7.6,9.3c0,2.4-0.9,4.4-2.6,5.8
					C166.2,50.4,164.3,51.1,162.2,51.1z"/>
			</g>
			<g>
				<path fill="#FFFFFF" d="M167,26.3h-11.6c-0.6,0-1.2-0.4-1.2-1c0-0.6,0.5-1,1.2-1H167c0.6,0,1.2,0.4,1.2,1
					C168.2,25.9,167.6,26.3,167,26.3z"/>
			</g>
		</g>
	</g>
</g>
</svg>
