<?xml version="1.0" encoding="utf-8"?>
<!-- Generator: Adobe Illustrator 18.1.0, SVG Export Plug-In . SVG Version: 6.00 Build 0)  -->
<!DOCTYPE svg PUBLIC "-//W3C//DTD SVG 1.1//EN" "http://www.w3.org/Graphics/SVG/1.1/DTD/svg11.dtd">
<svg version="1.1" id="Layer_1" xmlns="http://www.w3.org/2000/svg" xmlns:xlink="http://www.w3.org/1999/xlink" x="0px" y="0px"
	 viewBox="0 0 16 14" enable-background="new 0 0 16 14" xml:space="preserve">
<path d="M15.8,7.3C15.8,7.3,15.8,7.2,15.8,7.3c0.1-0.1,0.1-0.1,0.1-0.2c0,0,0,0,0,0c0,0,0,0,0,0c0,0,0-0.1,0-0.1c0,0,0,0,0-0.1
	c0,0,0-0.1,0-0.1c0,0,0-0.1,0-0.1c0,0,0-0.1,0-0.1c0,0,0-0.1,0-0.1c0,0,0-0.1,0-0.1c0,0,0,0,0-0.1c0,0,0-0.1,0-0.1c0,0,0,0,0-0.1
	c0,0,0,0,0,0c0,0,0,0,0-0.1c0,0,0,0,0-0.1c0,0,0-0.1-0.1-0.1c0,0,0,0,0-0.1c0,0,0,0-0.1-0.1c0,0,0,0,0,0l-5.5-5.5
	C9.7-0.1,9-0.1,8.5,0.3C8.1,0.8,8.1,1.5,8.5,2L12,5.5H1.2c-0.4,0-0.8,0.2-1,0.5C0.1,6.2,0,6.4,0,6.6C0,7,0.1,7.3,0.3,7.5
	c0.2,0.2,0.5,0.3,0.8,0.3l0,0H12l-3.5,3.5c-0.5,0.5-0.5,1.2,0,1.7c0.2,0.2,0.5,0.3,0.8,0.3c0.3,0,0.6-0.1,0.8-0.3l5.5-5.5
	c0,0,0,0,0,0C15.7,7.4,15.7,7.4,15.8,7.3C15.8,7.3,15.8,7.3,15.8,7.3z"/>
</svg>
