<?xml version="1.0" encoding="utf-8"?>
<!-- Generator: Adobe Illustrator 18.1.0, SVG Export Plug-In . SVG Version: 6.00 Build 0)  -->
<!DOCTYPE svg PUBLIC "-//W3C//DTD SVG 1.1//EN" "http://www.w3.org/Graphics/SVG/1.1/DTD/svg11.dtd">
<svg version="1.1" id="Layer_1" xmlns="http://www.w3.org/2000/svg" xmlns:xlink="http://www.w3.org/1999/xlink" x="0px" y="0px"
	 viewBox="0 0 215.7 593.7" enable-background="new 0 0 215.7 593.7" xml:space="preserve">
<g>
	<g>
		<rect x="82" y="0.8" fill="#547A6F" width="91.8" height="567.6"/>
		<path fill="#7DAA9B" d="M82,0.8h91.8v67.8C173.8,68.5,135.2,91.6,82,0.8z"/>
		<path fill="#384C46" d="M89.7,568.4c0,0,18.2-78.1,84.1-78.1v78.1H89.7z"/>
		<polygon fill="#AFC6BE" points="161.4,491.5 152.2,491.5 152.2,70.2 161.4,71.4 		"/>
		<polygon fill="#466057" points="123.5,509.8 106.1,530.3 106.1,36 123.5,54 		"/>
		<polygon fill="#DFEDE6" points="168.7,490.3 164.5,490.8 164.5,71 168.7,70 		"/>
		<g>
			<rect x="82" y="135.8" fill="#1B2622" width="91.8" height="2.6"/>
			<rect x="82" y="261.7" fill="#1B2622" width="91.8" height="2.6"/>
			<rect x="82" y="200.6" fill="#1B2622" width="91.8" height="2.6"/>
			<rect x="82" y="326.7" fill="#1B2622" width="91.8" height="2.6"/>
			<rect x="82" y="452.6" fill="#1B2622" width="91.8" height="2.6"/>
			<rect x="82" y="391.5" fill="#1B2622" width="91.8" height="2.6"/>
		</g>
		<rect x="51.9" y="52.7" fill="#A8A09E" width="30.1" height="459.6"/>
		<rect x="74.1" y="7.1" fill="#1B2622" width="7.9" height="45.5"/>
		<rect x="16.6" y="510.5" fill="#938987" width="65.4" height="32.2"/>
		<rect x="1.5" y="540.9" fill="#7C6F6D" width="80.5" height="52.2"/>
		<rect x="78" y="567" fill="#7C6F6D" width="137.4" height="26.1"/>
		<g>
			<rect x="53.6" y="57" fill="#75605E" width="7.5" height="7.5"/>
			<rect x="63.3" y="57" fill="#75605E" width="7.5" height="7.5"/>
			<rect x="72.2" y="57" fill="#75605E" width="7.5" height="7.5"/>
		</g>
		<g>
			<rect x="53.6" y="68.7" fill="#75605E" width="7.5" height="7.5"/>
			<rect x="63.3" y="68.7" fill="#75605E" width="7.5" height="7.5"/>
			<rect x="72.2" y="68.7" fill="#75605E" width="7.5" height="7.5"/>
		</g>
		<g>
			<rect x="53.6" y="80.4" fill="#75605E" width="7.5" height="7.5"/>
			<rect x="63.3" y="80.4" fill="#75605E" width="7.5" height="7.5"/>
			<rect x="72.2" y="80.4" fill="#75605E" width="7.5" height="7.5"/>
		</g>
		<g>
			<rect x="53.6" y="92.1" fill="#75605E" width="7.5" height="7.5"/>
			<rect x="63.3" y="92.1" fill="#75605E" width="7.5" height="7.5"/>
			<rect x="72.2" y="92.1" fill="#75605E" width="7.5" height="7.5"/>
		</g>
		<g>
			<rect x="53.6" y="103.8" fill="#75605E" width="7.5" height="7.5"/>
			<rect x="63.3" y="103.8" fill="#75605E" width="7.5" height="7.5"/>
			<rect x="72.2" y="103.8" fill="#75605E" width="7.5" height="7.5"/>
		</g>
		<g>
			<rect x="53.6" y="115.5" fill="#75605E" width="7.5" height="7.5"/>
			<rect x="63.3" y="115.5" fill="#75605E" width="7.5" height="7.5"/>
			<rect x="72.2" y="115.5" fill="#75605E" width="7.5" height="7.5"/>
		</g>
		<g>
			<rect x="53.6" y="127.2" fill="#75605E" width="7.5" height="7.5"/>
			<rect x="63.3" y="127.2" fill="#75605E" width="7.5" height="7.5"/>
			<rect x="72.2" y="127.2" fill="#75605E" width="7.5" height="7.5"/>
		</g>
		<g>
			<rect x="53.6" y="138.8" fill="#75605E" width="7.5" height="7.5"/>
			<rect x="63.3" y="138.8" fill="#75605E" width="7.5" height="7.5"/>
			<rect x="72.2" y="138.8" fill="#75605E" width="7.5" height="7.5"/>
		</g>
		<g>
			<rect x="53.6" y="150.5" fill="#75605E" width="7.5" height="7.5"/>
			<rect x="63.3" y="150.5" fill="#75605E" width="7.5" height="7.5"/>
			<rect x="72.2" y="150.5" fill="#75605E" width="7.5" height="7.5"/>
		</g>
		<g>
			<rect x="53.6" y="162.2" fill="#75605E" width="7.5" height="7.5"/>
			<rect x="63.3" y="162.2" fill="#75605E" width="7.5" height="7.5"/>
			<rect x="72.2" y="162.2" fill="#75605E" width="7.5" height="7.5"/>
		</g>
		<g>
			<rect x="53.6" y="173.9" fill="#75605E" width="7.5" height="7.5"/>
			<rect x="63.3" y="173.9" fill="#75605E" width="7.5" height="7.5"/>
			<rect x="72.2" y="173.9" fill="#75605E" width="7.5" height="7.5"/>
		</g>
		<g>
			<rect x="53.6" y="185.6" fill="#75605E" width="7.5" height="7.5"/>
			<rect x="63.3" y="185.6" fill="#75605E" width="7.5" height="7.5"/>
			<rect x="72.2" y="185.6" fill="#75605E" width="7.5" height="7.5"/>
		</g>
		<g>
			<rect x="53.6" y="197.3" fill="#75605E" width="7.5" height="7.5"/>
			<rect x="63.3" y="197.3" fill="#75605E" width="7.5" height="7.5"/>
			<rect x="72.2" y="197.3" fill="#75605E" width="7.5" height="7.5"/>
		</g>
		<g>
			<rect x="53.6" y="209" fill="#75605E" width="7.5" height="7.5"/>
			<rect x="63.3" y="209" fill="#75605E" width="7.5" height="7.5"/>
			<rect x="72.2" y="209" fill="#75605E" width="7.5" height="7.5"/>
		</g>
		<g>
			<rect x="53.6" y="220.7" fill="#75605E" width="7.5" height="7.5"/>
			<rect x="63.3" y="220.7" fill="#75605E" width="7.5" height="7.5"/>
			<rect x="72.2" y="220.7" fill="#75605E" width="7.5" height="7.5"/>
		</g>
		<g>
			<rect x="53.6" y="232.3" fill="#75605E" width="7.5" height="7.5"/>
			<rect x="63.3" y="232.3" fill="#75605E" width="7.5" height="7.5"/>
			<rect x="72.2" y="232.3" fill="#75605E" width="7.5" height="7.5"/>
		</g>
		<g>
			<rect x="53.6" y="244" fill="#75605E" width="7.5" height="7.5"/>
			<rect x="63.3" y="244" fill="#75605E" width="7.5" height="7.5"/>
			<rect x="72.2" y="244" fill="#75605E" width="7.5" height="7.5"/>
		</g>
		<g>
			<rect x="53.6" y="255.7" fill="#75605E" width="7.5" height="7.5"/>
			<rect x="63.3" y="255.7" fill="#75605E" width="7.5" height="7.5"/>
			<rect x="72.2" y="255.7" fill="#75605E" width="7.5" height="7.5"/>
		</g>
		<g>
			<rect x="53.6" y="267.4" fill="#75605E" width="7.5" height="7.5"/>
			<rect x="63.3" y="267.4" fill="#75605E" width="7.5" height="7.5"/>
			<rect x="72.2" y="267.4" fill="#75605E" width="7.5" height="7.5"/>
		</g>
		<g>
			<rect x="53.6" y="279.1" fill="#75605E" width="7.5" height="7.5"/>
			<rect x="63.3" y="279.1" fill="#75605E" width="7.5" height="7.5"/>
			<rect x="72.2" y="279.1" fill="#75605E" width="7.5" height="7.5"/>
		</g>
		<g>
			<rect x="53.6" y="290.8" fill="#75605E" width="7.5" height="7.5"/>
			<rect x="63.3" y="290.8" fill="#75605E" width="7.5" height="7.5"/>
			<rect x="72.2" y="290.8" fill="#75605E" width="7.5" height="7.5"/>
		</g>
		<g>
			<rect x="53.6" y="302.5" fill="#75605E" width="7.5" height="7.5"/>
			<rect x="63.3" y="302.5" fill="#75605E" width="7.5" height="7.5"/>
			<rect x="72.2" y="302.5" fill="#75605E" width="7.5" height="7.5"/>
		</g>
		<g>
			<rect x="53.6" y="314.2" fill="#75605E" width="7.5" height="7.5"/>
			<rect x="63.3" y="314.2" fill="#75605E" width="7.5" height="7.5"/>
			<rect x="72.2" y="314.2" fill="#75605E" width="7.5" height="7.5"/>
		</g>
		<g>
			<rect x="53.6" y="325.8" fill="#75605E" width="7.5" height="7.5"/>
			<rect x="63.3" y="325.8" fill="#75605E" width="7.5" height="7.5"/>
			<rect x="72.2" y="325.8" fill="#75605E" width="7.5" height="7.5"/>
		</g>
		<g>
			<rect x="53.6" y="337.5" fill="#75605E" width="7.5" height="7.5"/>
			<rect x="63.3" y="337.5" fill="#75605E" width="7.5" height="7.5"/>
			<rect x="72.2" y="337.5" fill="#75605E" width="7.5" height="7.5"/>
		</g>
		<g>
			<rect x="53.6" y="349.2" fill="#75605E" width="7.5" height="7.5"/>
			<rect x="63.3" y="349.2" fill="#75605E" width="7.5" height="7.5"/>
			<rect x="72.2" y="349.2" fill="#75605E" width="7.5" height="7.5"/>
		</g>
		<g>
			<rect x="53.6" y="360.9" fill="#75605E" width="7.5" height="7.5"/>
			<rect x="63.3" y="360.9" fill="#75605E" width="7.5" height="7.5"/>
			<rect x="72.2" y="360.9" fill="#75605E" width="7.5" height="7.5"/>
		</g>
		<g>
			<rect x="53.6" y="372.6" fill="#75605E" width="7.5" height="7.5"/>
			<rect x="63.3" y="372.6" fill="#75605E" width="7.5" height="7.5"/>
			<rect x="72.2" y="372.6" fill="#75605E" width="7.5" height="7.5"/>
		</g>
		<g>
			<rect x="53.6" y="384.3" fill="#75605E" width="7.5" height="7.5"/>
			<rect x="63.3" y="384.3" fill="#75605E" width="7.5" height="7.5"/>
			<rect x="72.2" y="384.3" fill="#75605E" width="7.5" height="7.5"/>
		</g>
		<g>
			<rect x="53.6" y="396" fill="#75605E" width="7.5" height="7.5"/>
			<rect x="63.3" y="396" fill="#75605E" width="7.5" height="7.5"/>
			<rect x="72.2" y="396" fill="#75605E" width="7.5" height="7.5"/>
		</g>
		<g>
			<rect x="53.6" y="407.7" fill="#75605E" width="7.5" height="7.5"/>
			<rect x="63.3" y="407.7" fill="#75605E" width="7.5" height="7.5"/>
			<rect x="72.2" y="407.7" fill="#75605E" width="7.5" height="7.5"/>
		</g>
		<g>
			<rect x="53.6" y="419.3" fill="#75605E" width="7.5" height="7.5"/>
			<rect x="63.3" y="419.3" fill="#75605E" width="7.5" height="7.5"/>
			<rect x="72.2" y="419.3" fill="#75605E" width="7.5" height="7.5"/>
		</g>
		<g>
			<rect x="53.6" y="431" fill="#75605E" width="7.5" height="7.5"/>
			<rect x="63.3" y="431" fill="#75605E" width="7.5" height="7.5"/>
			<rect x="72.2" y="431" fill="#75605E" width="7.5" height="7.5"/>
		</g>
		<g>
			<rect x="53.6" y="442.7" fill="#75605E" width="7.5" height="7.5"/>
			<rect x="63.3" y="442.7" fill="#75605E" width="7.5" height="7.5"/>
			<rect x="72.2" y="442.7" fill="#75605E" width="7.5" height="7.5"/>
		</g>
		<g>
			<rect x="53.6" y="454.4" fill="#75605E" width="7.5" height="7.5"/>
			<rect x="63.3" y="454.4" fill="#75605E" width="7.5" height="7.5"/>
			<rect x="72.2" y="454.4" fill="#75605E" width="7.5" height="7.5"/>
		</g>
		<g>
			<rect x="53.6" y="466.1" fill="#75605E" width="7.5" height="7.5"/>
			<rect x="63.3" y="466.1" fill="#75605E" width="7.5" height="7.5"/>
			<rect x="72.2" y="466.1" fill="#75605E" width="7.5" height="7.5"/>
		</g>
		<g>
			<rect x="53.6" y="477.8" fill="#75605E" width="7.5" height="7.5"/>
			<rect x="63.3" y="477.8" fill="#75605E" width="7.5" height="7.5"/>
			<rect x="72.2" y="477.8" fill="#75605E" width="7.5" height="7.5"/>
		</g>
		<g>
			<rect x="53.6" y="489.5" fill="#75605E" width="7.5" height="7.5"/>
			<rect x="63.3" y="489.5" fill="#75605E" width="7.5" height="7.5"/>
			<rect x="72.2" y="489.5" fill="#75605E" width="7.5" height="7.5"/>
		</g>
		<g>
			<rect x="53.6" y="501.2" fill="#75605E" width="7.5" height="7.5"/>
			<rect x="63.3" y="501.2" fill="#75605E" width="7.5" height="7.5"/>
			<rect x="72.2" y="501.2" fill="#75605E" width="7.5" height="7.5"/>
		</g>
	</g>
	<rect x="82" y="264.3" fill="#547A6F" width="91.8" height="62.4"/>
	<g>
		<g>
			<path fill="#F6FBFC" d="M163.5,287.3c1.7,1.4,2.9,3.1,4,5c2.4,4.1,3,8.8,1.6,13.4c-0.5,1.7,2.2,2.5,2.7,0.7
				c1.5-5.1,0.9-10.5-1.7-15.2c-1.2-2.1-2.7-4.3-4.6-5.9C164.1,284.2,162.1,286.2,163.5,287.3L163.5,287.3z"/>
		</g>
		<g>
			<path fill="#F6FBFC" d="M146.4,285.3c-1.9,1.6-3.5,3.7-4.6,5.9c-2.6,4.7-3.2,10.1-1.7,15.2c0.5,1.7,3.2,1,2.7-0.7
				c-1.3-4.6-0.7-9.3,1.6-13.4c1.1-1.9,2.3-3.6,4-5C149.7,286.2,147.8,284.2,146.4,285.3L146.4,285.3z"/>
		</g>
		<path opacity="0.25" fill="#1D1D1B" d="M146.5,285.2c-1.5,1.2-2.8,2.9-3.9,4.5l2.3,1.7c1-1.6,2.1-3,3.6-4.2
			C149.9,286,147.9,284,146.5,285.2z"/>
		<rect x="149.9" y="306.8" fill="#F5FAFC" width="5" height="10.2"/>
		<rect x="149.9" y="326.3" fill="#F5FAFC" width="5" height="7.8"/>
		<rect x="157.4" y="306.8" fill="#F5FAFC" width="5" height="10.2"/>
		<rect x="157.4" y="326.3" fill="#F5FAFC" width="5" height="7.8"/>
		<rect x="149.9" y="315.5" fill="#F5FAFC" width="5" height="12.4"/>
		<rect x="157.4" y="315.5" fill="#F5FAFC" width="5" height="13.1"/>
		<rect x="150" y="332" fill="#222329" width="5" height="2"/>
		<rect x="157" y="332" fill="#222329" width="6" height="2"/>
		
			<ellipse transform="matrix(0.9723 0.2336 -0.2336 0.9723 76.3331 -31.2817)" fill="#E1B278" cx="170.2" cy="306.6" rx="1.6" ry="1.9"/>
		
			<ellipse transform="matrix(-0.9723 0.2336 -0.2336 -0.9723 350.8736 571.4592)" fill="#E1B278" cx="141.6" cy="306.5" rx="1.6" ry="1.9"/>
		<g>
			<path fill="#F5FAFC" d="M150,309.1c0.1,0,0.2,0,0.2,0c0.1,0,0.1,0,0.1-0.1c0,0,0.1-0.1,0.1-0.1c0,0,0-0.1,0.1-0.1h0.3v2.9h-0.5
				v-2.2H150V309.1z"/>
			<path fill="#F5FAFC" d="M151.1,309.1c0.1,0,0.2,0,0.2,0c0.1,0,0.1,0,0.1-0.1c0,0,0.1-0.1,0.1-0.1c0,0,0-0.1,0.1-0.1h0.3v2.9h-0.5
				v-2.2h-0.4V309.1z"/>
		</g>
		<path opacity="0.25" fill="#2D2D2D" d="M149.7,306.1l0.4,0l-0.8,0c0,0,0.2,0.9,0.5,1.4l0,3.7l5,0l0-2.7c0,0-2.2,0-3.3-0.4
			C150.2,307.5,149.7,306.1,149.7,306.1z"/>
		<g>
			<polygon fill="#444643" points="120.8,309.8 134.5,313 136.9,307.9 137,306.6 126.5,305.1 121.2,307.7 120.8,308.1 			"/>
			<polygon fill="#373737" points="120.8,310 134.5,313.2 134.5,311.5 120.6,308.5 			"/>
			<polygon fill="#949499" points="120.6,308.5 134.5,311.5 134.5,310.9 120.5,308.1 			"/>
			<polygon fill="#949499" points="137,306.6 137,307 134.5,311.5 134.5,310.9 			"/>
			<polygon fill="#373737" points="134.5,313.2 137,308.1 137,307 134.5,311.5 			"/>
			<polygon fill="#1E1F1F" points="120.5,308.1 121,308.2 126.3,305.4 126.3,305.1 			"/>
			<polygon fill="#272728" points="136.3,299.3 136.4,298.8 122.6,298.5 122.3,298.9 			"/>
			<polygon fill="#949499" points="136.2,299.8 136.3,299.3 122.3,298.9 122.1,299.3 			"/>
			<polygon fill="#949499" points="137,306.3 136.2,299.8 136.3,299.3 137.2,305.8 			"/>
			<polygon fill="#373737" points="137.2,305.4 137.1,304.9 136.4,298.8 136.3,299.3 137.2,305.8 			"/>
			<path fill="#373737" d="M136.9,305.5l-10.2-1.2c0,0-0.4,0.6-0.3,0.7c0.1,0.1,8.6,1.1,10.3,1.3c0.2,0,0.3,0,0.3,0"/>
			<polygon fill="#555353" points="136.7,306.6 126.6,305.3 126.8,305 136.7,306.3 			"/>
			<path fill="#555353" d="M126.3,305"/>
			<polygon fill="#252623" points="126.3,305 122.1,299.3 123.2,299.3 126.8,304.3 			"/>
			<polygon fill="#444643" points="123.2,299.3 136.2,299.8 136.9,305.5 126.8,304.3 			"/>
			<path fill="#C7C6C9" d="M129.4,310.1v0.6l-0.7-0.1l-0.4,0.1c0,0-0.4,0-0.5-0.1c-0.1-0.1,0-0.2,0-0.2l-2.7-0.6
				c0,0-0.4,0.1-0.5,0.1c-0.1,0-0.4-0.1-0.4-0.1c0,0,0-0.3,0-0.3H124v-0.7h0.1l5.3,1V310.1z"/>
			<path fill="#262727" d="M127.8,310.1l-0.2-0.1l-0.1,0.1l-0.1,0.9c0,0,0,0.3-0.4,0.3c-0.4,0-1.4-0.3-1.5-0.4
				c-0.1-0.1-0.4-0.3-0.4-0.6s-0.1-0.8-0.1-0.8l-0.3-0.1l-0.2,0.1l0.1,1.2c0,0,0,0.4,0.3,0.6c0.3,0.2,0.5,0.5,1.7,0.7
				c1.1,0.1,1.1-0.1,1.1-0.1l0-1.6"/>
			<polygon fill="#212121" points="127.4,312 127.6,311.9 127.9,311.7 127.9,310.7 127.6,310.6 127.4,311.9 			"/>
			<polyline fill="#5C6354" points="135.7,308.4 134.4,310.8 131.8,310.3 133.7,308 			"/>
			<polyline fill="#5C6354" points="133.5,308 131.6,307.6 129.5,309.6 131.8,310.1 			"/>
			<polygon fill="#5C6354" points="131.4,307.6 129.3,309.7 127.2,309.3 129.6,307.3 			"/>
			<polyline fill="#5C6354" points="127,309.3 125,308.9 127.7,307 129.5,307.3 			"/>
			<polygon fill="#5C6354" points="127.4,307 124.8,308.8 122.9,308.5 125.8,306.8 			"/>
			<polyline fill="#5C6354" points="125.6,306.7 122.8,308.4 121.1,308 124.2,306.4 			"/>
			<polyline fill="#5C6354" points="127.8,305.5 125.8,306.6 124.3,306.4 126.5,305.3 			"/>
			<polyline fill="#5C6354" points="129.5,305.7 128.1,305.5 126,306.6 127.6,306.9 			"/>
			<polyline fill="#5C6354" points="131.1,305.9 129.6,305.7 127.7,306.9 129.4,307.2 			"/>
			<path fill="#5C6354" d="M133,306.1l-1.7-0.2c0,0-1.7,1.4-1.7,1.4c0,0,1.9,0.3,1.9,0.3"/>
			<polygon fill="#5C6354" points="134.8,306.4 133.1,306.2 131.7,307.6 133.6,307.9 			"/>
			<path fill="#5C6354" d="M136.8,306.6c0,0-1.8-0.3-1.8-0.3l-1.2,1.5l2.1,0.4L136.8,306.6z"/>
			<polyline fill="#AEB4A8" points="134.5,310.8 134.5,310.9 131.9,310.4 132,310.3 			"/>
			<polyline fill="#AEB4A8" points="131.8,310.2 131.8,310.4 129.4,309.9 129.4,309.7 131.7,310.1 			"/>
			<polyline fill="#AEB4A8" points="129.3,309.7 129.3,309.8 127.2,309.4 127.2,309.3 			"/>
			<polyline fill="#AEB4A8" points="127,309.4 124.9,309 124.9,308.9 127,309.3 			"/>
			<polygon fill="#AEB4A8" points="124.8,308.8 124.8,308.9 122.8,308.6 122.9,308.4 			"/>
			<polygon fill="#AEB4A8" points="122.8,308.4 122.8,308.6 121,308.2 121,308 			"/>
		</g>
		<rect x="151.8" y="275.1" fill="#E1B278" width="8" height="12"/>
		<ellipse fill="#E1B278" cx="155.8" cy="275.1" rx="4" ry="4.1"/>
		<g>
			<path fill="#F5FAFC" d="M151.8,275.1c0,0-3.5,3.5-3.1,4.7c0.5,1.2,2.7,2.9,2.1,3.5c-0.7,0.6-3.3,3.2-2.1,3.6
				c1.3,0.4,2.4,0,2.8-0.6c0.3-0.6,0.3-2.2,0.3-2.2V275.1z"/>
			<path opacity="0.31" fill="#A1A3A4" d="M151.8,276.7C151.8,276.7,151.8,276.8,151.8,276.7c-0.5,0.6-2.5,3.3,0,5"/>
		</g>
		<path opacity="0.31" fill="#A1A3A4" d="M150.8,284.1c-0.7,0.6-3.3,3.2-2.1,3.6s2.4,0,2.8-0.6c0.3-0.6,0.3-2.2,0.3-2.2v-2.2"/>
		<g>
			<path fill="#F5FAFC" d="M159.8,275.5c0,0,3.5,3.5,3.1,4.7s-2.7,2.9-2.1,3.5c0.7,0.6,3.3,3.2,2.1,3.6s-2.4,0-2.8-0.6
				c-0.3-0.6-0.3-2.2-0.3-2.2V275.5z"/>
			<path opacity="0.31" fill="#A1A3A4" d="M159.8,277.2C159.8,277.2,159.8,277.2,159.8,277.2c0.5,0.6,2.5,3.3,0,5"/>
		</g>
		<path fill="#F5FAFC" d="M151.1,284.2h-1h-0.9h-1h0c-1.2,0-2.1,1-2.1,2.1l3.2,19.3c0,0.2,0,0.3,0,0.5h0h2.7h0.1h9.3c0,0,0,0,0,0
			h1.6h0c0-0.2,0.1-0.4,0.1-0.5l2.6-19.3c0-1.2-0.9-2.1-2.1-2.1l-0.1,0l-0.6,0c0,0,0,0,0,0l-2.6,0c0,0,0,0,0,0l-0.7,0v0
			c-0.5,1.8-5.3,2.8-5.3,2.8c-1.7-1.2-2.7-2.8-2.7-2.8l0,0L151.1,284.2"/>
		<path fill="#CCCBCB" d="M151.3,308.6h9.7c1,0,1.9-1.3,2.2-2.5h-13.8C149.6,307.2,150.3,308.6,151.3,308.6z"/>
		<path fill="#F5FAFC" d="M148.7,284.1c0,0-2.7-0.4-4.8,3.4l3.8,3.9L148.7,284.1z"/>
		<path fill="#F5FAFC" d="M163.4,284.1c0,0,2.7-0.4,4.8,3.4l-3.8,3.9L163.4,284.1z"/>
	</g>
	<g>
		<g>
			<rect x="96" y="275" fill="#FCC792" width="9" height="12"/>
			<ellipse fill="#FCC792" cx="100.3" cy="275" rx="4" ry="4.1"/>
			<path fill="#ADA8A8" d="M101.5,271.1c0,0,1.3,1.3,1.4,1.3c0.1,0,1.5,1.6,1.4,2.5S105,271.5,101.5,271.1z"/>
			<path fill="#ADA8A8" d="M97.8,272.5c0,0-1,0.4-1.6,2.5c0,0-0.4-2.8,2.6-3.8"/>
			<polyline fill="#EDB98A" points="96,278 96,285 99,285 			"/>
			<g opacity="0.29">
				<path fill="#D39E6E" d="M100.4,277.8c-0.9,0.4-1.2,1.5-0.8,2.3c0.2,0.3,0.6,0,0.5-0.3c-0.3-0.6,0-1.3,0.6-1.6
					C101,278.2,100.7,277.7,100.4,277.8L100.4,277.8z"/>
			</g>
			<g opacity="0.29">
				<path fill="#D39E6E" d="M102.3,278.2c0.4,0.5,0.6,1.1,0.8,1.7c0.1,0.3,0.6,0.2,0.5-0.1c-0.2-0.7-0.5-1.3-0.9-1.9
					C102.6,277.7,102.1,278,102.3,278.2L102.3,278.2z"/>
			</g>
			<g>
				<path fill="#333333" d="M123,295c-4,0-8-1.2-11.5-3.4c-3.7-2.4-5.7-5.1-5.8-5.2c-0.4-0.6-0.3-1.4,0.3-1.8
					c0.6-0.4,1.4-0.3,1.8,0.3c0,0,1.9,2.5,5.2,4.6c4.4,2.8,9.1,3.6,14.1,2.6c0.7-0.1,1.4,0.3,1.5,1c0.1,0.7-0.3,1.4-1,1.5
					C126,294.8,124.5,295,123,295z"/>
			</g>
			<g>
				<path fill="#FCC792" d="M126.2,294.7c-0.6,0-1.2-0.4-1.3-1.1c-0.1-0.7,0.4-1.4,1.1-1.5c0.3-0.1,0.7-0.1,1-0.2
					c0.7-0.1,1.4,0.3,1.5,1c0.1,0.7-0.3,1.4-1,1.5c-0.4,0.1-0.8,0.2-1.2,0.2C126.3,294.7,126.2,294.7,126.2,294.7z"/>
			</g>
			<rect x="123.8" y="293" transform="matrix(-0.1422 -0.9898 0.9898 -0.1422 -147.458 459.1157)" width="2.8" height="1"/>
			<g>
				<path fill="#282828" d="M114.2,292.8c-0.2,0-0.4,0-0.6-0.1c-4.8-2.5-7.4-6-7.5-6.2c-0.4-0.6-0.3-1.4,0.3-1.8
					c0.6-0.4,1.4-0.3,1.8,0.3l0,0c0,0,2.4,3.2,6.6,5.4c0.6,0.3,0.9,1.1,0.5,1.7C115.1,292.6,114.7,292.8,114.2,292.8z"/>
			</g>
			<rect x="100.5" y="307.5" fill="#333333" stroke="#333333" stroke-miterlimit="10" width="4" height="27"/>
			<rect x="92.5" y="307.5" fill="#333333" stroke="#333333" stroke-miterlimit="10" width="6" height="27"/>
			<line x1="105.3" y1="308.2" x2="105.3" y2="308.2"/>
			<polyline fill="#303030" stroke="#333333" stroke-miterlimit="10" points="104.5,325 104.5,310.5 100.5,310.5 100.5,321 			"/>
			<rect x="100.2" y="330.2" fill="#0A0A0A" width="4.9" height="4.2"/>
			<rect x="92.7" y="330.2" fill="#0A0A0A" width="5.1" height="4.2"/>
			<g>
				<path fill="#FFFFFF" d="M91.1,285c0,0,2.3,0,5,0c0.1,0,0.1,0,0.2,0l2.6,2.4l5.1-2.4c0.1,0,0.3,0,0.4,0c0.9,0,3.6,0,3.6,0
					c0.6,0,1,0.2,1,1l-4.3,25.7c0,0.9-0.5,1.3-1,1.3h-9.7c-0.6,0-1-0.6-1-1.5L90.1,286C90.1,285.2,90.5,285,91.1,285z"/>
			</g>
			<g>
				<path fill="#333333" stroke="#333333" stroke-miterlimit="10" d="M91.1,284.5c0,0,2.3,0,5,0c0.1,0,0.1,0,0.2,0h3h4.7
					c0.1,0,0.3,0,0.4,0c0.9,0,3.6,0,3.6,0c0.6,0,1,0.3,1,1.2l-4.3,26.1c0,0.9-0.5,1.7-1,1.7h-9.7c-0.6,0-1-1-1-1.8l-2.9-25.8
					C90.1,285,90.5,284.5,91.1,284.5z"/>
			</g>
			<polygon fill="#FFFFFF" points="105.1,284.3 95.3,284.2 100.3,297.7 			"/>
			<polyline fill="#0F3BA8" points="100.7,286.6 102.4,290.1 100.3,297.7 97.8,290.9 			"/>
			<polyline fill="#0A0A0A" points="104,284.2 100.2,298.1 105.4,288.5 104.3,287 106.6,284.2 			"/>
			<polyline fill="#0A0A0A" points="96.3,284.2 100.3,297.9 94.9,288.5 95.9,287 93.7,284.2 			"/>
			<polygon fill="#103889" points="100.6,284.6 101.7,285.8 100.6,287.1 99.9,285.9 			"/>
			<polyline fill="#103889" points="100.2,287.5 100.7,286.8 102.4,290.3 101.9,292.2 			"/>
			<g>
				<circle fill="#FCFCFC" cx="103.7" cy="290.5" r="1.1"/>
				<path fill="#E5BB07" d="M104,290.6C104,290.6,104,290.6,104,290.6c0.1-0.2,0.1-0.3,0.2-0.5c0,0,0,0,0,0c0,0,0.1,0,0.1,0
					c0,0,0,0,0,0c0.1,0.2,0.1,0.3,0.2,0.5c0,0,0,0,0,0c0,0,0,0,0,0c0,0-0.1,0-0.1,0c0,0,0,0,0,0c0,0,0,0,0,0c0,0,0,0,0,0
					c-0.1,0-0.1,0-0.2,0c0,0,0,0,0,0c0,0,0,0,0,0.1c0,0,0,0,0,0C104.1,290.6,104,290.6,104,290.6z M104.2,290.2
					C104.2,290.2,104.2,290.2,104.2,290.2c0,0.1,0,0.1-0.1,0.2c0,0,0,0,0,0c0,0,0.1,0,0.1,0c0,0,0,0,0,0c0,0,0,0,0-0.1
					C104.2,290.3,104.2,290.3,104.2,290.2z"/>
				<path fill="#E5BB07" d="M103.6,290.4c0-0.1,0-0.2,0-0.2c0,0,0,0,0,0c0.1,0,0.2,0,0.4,0c0,0,0,0,0,0c0,0,0,0.1,0,0.1c0,0,0,0,0,0
					c-0.1,0-0.1,0-0.2,0c0,0,0,0,0,0c0,0,0,0.1,0,0.1c0,0,0,0,0,0c0,0,0.1,0,0.1,0c0,0,0,0,0,0c0,0,0,0.1,0,0.1c0,0,0,0,0,0
					c0,0-0.1,0-0.1,0c0,0,0,0,0,0c0,0.1,0,0.1,0,0.2c0,0,0,0,0,0c0,0-0.1,0-0.1,0c0,0,0,0,0,0C103.6,290.5,103.6,290.4,103.6,290.4z
					"/>
				<path fill="#E5BB07" d="M103.3,290.1C103.3,290.1,103.3,290.2,103.3,290.1c0,0.1,0,0.1,0,0.1c0,0,0,0,0,0c0,0-0.1,0-0.1,0
					c0,0,0,0,0,0c0,0,0,0.1,0,0.1c0,0,0,0,0,0c0,0,0.1,0,0.1,0c0,0,0,0,0,0c0,0,0,0,0,0.1c0,0,0,0,0,0c0,0-0.1,0-0.1,0c0,0,0,0,0,0
					c0,0.1,0,0.1,0,0.2c0,0,0,0,0,0c0,0-0.1,0-0.1,0c0,0,0,0,0,0c0-0.2,0-0.3,0-0.5c0,0,0,0,0,0
					C103.1,290.1,103.2,290.1,103.3,290.1C103.3,290.1,103.3,290.1,103.3,290.1z"/>
				<path fill="#E5BB07" d="M103.5,290.4c0,0.1,0,0.2,0,0.2c0,0,0,0,0,0c0,0-0.1,0-0.1,0c0,0,0,0,0,0c0-0.2,0-0.3,0-0.5c0,0,0,0,0,0
					c0,0,0.1,0,0.1,0c0,0,0,0,0,0C103.5,290.2,103.5,290.3,103.5,290.4z"/>
				<path opacity="0.48" fill="#B2B2B2" d="M102.9,289.7c0,0,1.4-0.2,1.7,1.4c0,0,0.2-0.5,0.2-0.9c-0.1-0.3-0.4-0.9-1.1-0.9
					C103,289.3,103,289.6,102.9,289.7z"/>
			</g>
			<g>
				<path fill="#C96A00" d="M132.3,285.1c-0.1,0-0.1,0.1-0.2,0.1c-0.1,0.1-0.3,0.2-0.4,0.3c-0.2,0-0.4,0-0.5-0.1
					c-0.1-0.1-0.1-0.2-0.1-0.4c0-0.1,0-0.2,0.1-0.4c0.1-0.2,0.3-0.3,0.5-0.4c0.1,0,0.3-0.1,0.4-0.1c0.1,0,0.3,0,0.3,0.1
					c0,0,0,0.1,0,0.1c0,0.1,0,0.2-0.1,0.3C132.3,284.9,132.3,285,132.3,285.1"/>
				<path fill="#9D8300" d="M127.5,282.2c0.1-0.9,0.7-1.8,1.5-2.3c0.2-0.1,0.3-0.2,0.5-0.3c0.2-0.1,0.4-0.1,0.7-0.1
					c0.6,0,1.3,0.2,1.8,0.6c0.3,0.2,0.5,0.5,0.7,0.8c0.1,0.2,0.1,0.4,0.2,0.6c0.1,0.5,0.2,1.1,0.1,1.7c-0.1,0.3-0.2,0.6-0.3,0.9
					c-0.1,0.2-0.2,0.3-0.3,0.4c-0.1,0.1-0.3,0.2-0.4,0.2c-0.6,0.2-1.3,0.2-2,0.2c-0.4,0-0.9,0-1.2-0.2c-0.6-0.3-1.1-0.9-1.2-1.6
					C127.4,282.8,127.4,282.5,127.5,282.2"/>
				<path fill="#300000" d="M130.9,283.4c-0.1,0.2-0.2,0.5-0.4,0.7c-0.2,0.2-0.4,0.4-0.6,0.4c-0.1,0-0.3,0-0.4,0
					c-0.3,0-0.6,0-0.9-0.1c-0.2-0.1-0.3-0.2-0.4-0.3c-0.1-0.1-0.2-0.2-0.3-0.3c-0.1-0.1-0.1-0.2-0.1-0.3c0-0.1-0.1-0.2-0.1-0.3
					c0-0.1-0.1-0.3-0.2-0.4c-0.1,0.2-0.1,0.4-0.1,0.5c0,0.4,0.1,0.8,0.1,1.2c0,0.2,0,0.4,0.2,0.5c0.2,0.2,0.4,0.2,0.7,0.3
					c0.4,0,0.9,0,1.3-0.1c0.3-0.1,0.5-0.2,0.7-0.4c0.1-0.1,0.1-0.2,0.2-0.3C130.6,284.2,130.9,283.8,130.9,283.4"/>
				<path fill="#BCA408" d="M130.9,283.5c0.1-0.1,0.2-0.1,0.3,0s0,0.2,0,0.3c-0.1,0.7-0.2,1.4-0.4,2.1c-0.1,0.5-0.1,0.9-0.2,1.4
					c-0.1,0.4-0.3,0.9-0.6,1.2c-0.1,0.1-0.2,0.2-0.4,0.3c-0.2,0-0.4,0-0.5-0.1c-0.2-0.1-0.4-0.3-0.5-0.5c-0.3-0.4-0.4-1-0.5-1.5
					c-0.1-0.6-0.2-1.1-0.4-1.7c-0.1-0.2-0.1-0.4-0.1-0.6c0.5,0.5,1.3,0.6,1.9,0.4C130.2,284.7,130.7,284.1,130.9,283.5"/>
				<path fill="#B69107" d="M127.4,282.2c-0.1-0.1-0.2-0.1-0.4-0.1c-0.1,0.1,0.1,0.2,0.1,0.3c0,0,0,0.1-0.1,0.1
					c-0.1,0.2,0,0.4,0,0.6c0.1,0.4,0,0.8,0,1.1c-0.1,1.1,0.3,2.3,0.3,3.4c0,0.3,0,0.7,0.1,1c0.1,0.3,0.3,0.5,0.4,0.8
					c0,0.2,0,0.5-0.1,0.7c0,0.2,0,0.4,0.2,0.4c0.2,0.1,0.4-0.1,0.5-0.3c0.2-0.3,0.4-0.6,0.6-0.9c0.2-0.2,0.3-0.4,0.6-0.6
					c0.1,0,0.2-0.1,0.2-0.2c0-0.1-0.1-0.1-0.2-0.2c-0.4-0.1-0.8-0.3-1-0.6c-0.3-0.4-0.5-0.9-0.6-1.4c-0.2-0.7-0.3-1.4-0.5-2.1
					c-0.1-0.2-0.1-0.5-0.1-0.7c-0.1-0.4,0-0.7,0-1.1C127.4,282.6,127.4,282.4,127.4,282.2C127.4,282.2,127.4,282.2,127.4,282.2
					C127.5,282.2,127.5,282.2,127.4,282.2"/>
				<path fill="#EAD683" d="M130.5,293.7c0,0.3-0.1,0.5-0.3,0.7s-0.5,0.2-0.7,0.3c-0.8,0.1-1.6-0.1-2.4-0.4
					c-0.2-0.1-0.5-0.2-0.7-0.5c-0.2-0.2-0.2-0.5-0.1-0.8c0,0,0,0,0.1,0c0,0,0,0,0.1,0c0.4,0.5,1,0.9,1.7,1c0.5,0,1-0.1,1.5-0.1
					c0.1,0,0.2,0,0.4,0C130.1,293.8,130.3,293.7,130.5,293.7C130.4,293.7,130.5,293.6,130.5,293.7
					C130.5,293.7,130.5,293.7,130.5,293.7"/>
				<path fill="#3C6835" d="M130.4,293c0,0.2,0.1,0.5,0.1,0.7c0,0.2-0.1,0.3-0.3,0.4c-0.1,0.1-0.2,0.2-0.4,0.2
					c-0.3,0.1-0.5,0.1-0.8,0.1c-0.4,0-0.9,0-1.3-0.2c-0.1,0-0.2-0.1-0.3-0.1c-0.1,0-0.2-0.1-0.3-0.1c-0.2-0.1-0.4-0.2-0.6-0.4
					c-0.2-0.2-0.2-0.5-0.1-0.8c0-0.1,0.1-0.2,0.2-0.2c0.1,0,0.2,0.1,0.3,0.2c0.2,0.2,0.4,0.4,0.7,0.5c0.5,0.2,1,0.2,1.5,0.2
					c0.2,0,0.5,0,0.7-0.1c0.2-0.1,0.3-0.2,0.5-0.3C130.3,293,130.3,293,130.4,293C130.4,293,130.5,293,130.4,293"/>
				<path fill="#7B4700" d="M130.2,292.3c0.1,0.1,0.1,0.3,0.2,0.4c0.1,0.2,0.1,0.3,0,0.5c-0.1,0.1-0.1,0.1-0.2,0.2
					c-0.1,0.1-0.3,0.2-0.4,0.2c-0.3,0.1-0.7,0.1-1.1,0.1c-0.3,0-0.6-0.1-0.8-0.2c-0.2-0.1-0.5-0.2-0.7-0.3c-0.2-0.1-0.4-0.3-0.5-0.5
					c0,0,0-0.1,0-0.1c0,0,0-0.1,0-0.1c0.1-0.2,0.3-0.4,0.4-0.6c0,0,0.1-0.1,0.1-0.1c0,0,0.1,0,0.1,0.1c0.3,0.3,0.6,0.4,1,0.5
					c0.5,0.1,1,0.2,1.4,0C129.9,292.4,130,292.3,130.2,292.3"/>
				<path fill="#073400" d="M130.1,291.8c0,0.1,0,0.3,0,0.4c0,0.1,0,0.1,0,0.1c0,0-0.1,0.1-0.1,0.1c-0.1,0.1-0.2,0.1-0.3,0.1
					c-0.7,0.2-1.5,0.1-2.2-0.2c-0.1,0-0.1-0.1-0.2-0.1c0,0-0.1-0.1-0.1-0.1c0,0,0,0,0-0.1c0,0,0-0.1,0-0.1c0-0.1,0-0.2,0-0.3
					c0-0.1,0-0.1,0.1-0.2c0,0,0.1,0,0.1,0c0,0,0.1,0.1,0.1,0.1c0.1,0.2,0.3,0.3,0.5,0.4c0.2,0.1,0.4,0.1,0.6,0.2
					c0.4,0.1,0.8,0.1,1.1,0C129.8,292,130,291.9,130.1,291.8"/>
				<path fill="#825700" d="M129.8,290.3c0.1,0.1,0.2,0.2,0.2,0.4c0,0.1,0,0.2,0,0.3c0,0.3,0.2,0.5,0.2,0.8c0,0.1,0,0.1,0,0.2
					c0,0.1-0.1,0.1-0.1,0.1c-0.2,0.1-0.4,0.2-0.7,0.2c-0.2,0-0.5-0.1-0.7-0.1c-0.1,0-0.3-0.1-0.4-0.1c-0.2,0-0.3-0.1-0.5-0.1
					c-0.1,0-0.1-0.1-0.2-0.1c0-0.1,0-0.1,0.1-0.2c0,0,0.1-0.1,0.2-0.1c0.6-0.2,1.1-0.6,1.6-0.9C129.6,290.5,129.6,290.2,129.8,290.3
					"/>
				<path fill="#EDB92B" d="M131,283.8c0.1-0.2,0-0.3-0.1-0.5c-0.1-0.1-0.1-0.2-0.1-0.3c0,0,0-0.1,0.1-0.1c0.1-0.1,0.2-0.2,0.3-0.3
					c0,0,0,0,0.1,0c0.1,0,0.1,0,0.2,0.1s0,0.1,0,0.2c-0.1,0.8,0,1.7,0.3,2.5c0-0.1,0-0.3,0.1-0.4c0.1-0.1,0.3,0,0.3,0.1
					c0.2-0.2,0.3-0.4,0.4-0.6c0.2-0.4,0.3-0.7,0.4-1.1c0-0.1,0.1-0.3,0.2-0.3c0.1,0,0.1,0.1,0.1,0.2s0,0.2-0.1,0.3
					c-0.5,1-0.6,2.1-0.9,3.1c-0.1,0.2-0.1,0.4-0.2,0.6c-0.1,0.2-0.3,0.5-0.5,0.7c-0.4,0.6-0.4,1.5-0.9,2.1c-0.2,0.2-0.4,0.4-0.6,0.5
					c-0.8,0.6-1.6,1.1-2.5,1.3c0,0,0,0,0,0c-0.2-0.2-0.1-0.6,0.1-0.9c0.8-1.3,2.4-2,2.9-3.4c0.1-0.3,0.2-0.5,0.2-0.8
					c0.1-0.8,0.2-1.5,0.2-2.3C130.8,284.2,130.8,283.9,131,283.8"/>
				<path fill="#B69200" d="M127.5,282c0.1-0.1,0.1-0.1,0.2-0.1c0,0,0.1,0,0.1,0c0,0,0.1,0,0.1,0c0.1,0,0.2,0.1,0.2,0.3
					c0,0.1-0.1,0.2,0,0.3c0,0.1,0.2,0.3,0.2,0.4c0,0.1-0.1,0.1-0.1,0.2c0,0,0,0.1,0,0.1c0,0,0,0.1,0,0.2c0,0.1,0.1,0.2,0.1,0.3
					c0.1,0.1,0.2,0.3,0.3,0.4c0,0,0,0.1,0.1,0.1c0,0,0-0.1,0.1-0.1c0,0,0.1,0,0.1,0c0.1,0,0.1-0.1,0.1-0.2c0-0.1,0-0.2,0-0.2
					c0,0,0.1,0,0.1-0.1c0.1,0,0.1-0.1,0.1-0.2c0-0.1,0-0.2-0.1-0.2c0.1,0,0.2-0.1,0.2-0.2c0-0.1,0-0.2,0-0.3s-0.1-0.2-0.1-0.3
					c0-0.2,0.1-0.3,0.2-0.4c0.1-0.1,0.1-0.1,0.2-0.2c0,0,0,0,0.1,0c0,0,0.1,0,0.1,0c0.1,0,0.1-0.1,0.1-0.2c0,0,0.1,0,0.1-0.1
					c0,0,0.1-0.1,0-0.1c0,0-0.1,0-0.1,0c-0.1,0-0.1,0-0.2,0.1c0,0-0.1,0-0.1,0c0-0.1,0.1,0,0.2-0.1c0,0,0-0.1,0-0.1c0,0-0.1,0-0.1,0
					c0,0-0.1-0.1-0.1-0.1c-0.1-0.1-0.2-0.3-0.1-0.4c0-0.1,0.1-0.1,0.1-0.1c0.1,0,0.1,0.1,0,0.2c0,0.1,0,0.1,0,0.2c0,0,0,0,0.1,0
					c0.1,0.1,0,0.2,0,0.3c0,0.1,0.1,0.1,0.2,0.1c0.1,0,0.2-0.1,0.2-0.1c0,0,0.1,0,0.1,0c0.1,0,0.1-0.1,0.1-0.2c0-0.1,0-0.1-0.1-0.2
					c-0.1,0-0.1,0-0.2,0c-0.1,0-0.1-0.1-0.1-0.1c0,0,0,0,0.1,0c0.1,0,0.1,0,0.2,0.1c0,0.1,0.1,0.1,0.1,0.2c0.1,0,0.1,0.1,0.2,0.1
					c0.1,0,0.1,0.1,0.2,0.1c0,0.1,0,0.1,0,0.2s0,0.1,0.1,0.1c0,0,0.1,0,0.1-0.1c0,0,0,0.1,0,0.1c0.1-0.1,0.1-0.4,0.2-0.5
					c0.1-0.1,0.1-0.1,0.2-0.2c0.1-0.1,0.2-0.3,0.2-0.5c0-0.1,0.1-0.2,0-0.3c0-0.1-0.2-0.2-0.3-0.2c-0.3-0.1-0.6-0.2-0.9-0.2
					c0,0-0.1,0-0.1,0c-0.1,0-0.1,0.1-0.1,0.1c-0.1,0.1-0.2,0.1-0.3,0.1c0,0-0.1,0-0.1,0s0-0.1,0-0.1c-0.2,0.1-0.3,0.1-0.5,0.2
					c-0.2,0.1-0.3,0.1-0.5,0.2c-0.2,0.1-0.4,0.3-0.6,0.5C127.9,280.9,127.6,281.4,127.5,282"/>
				<path fill="#350000" d="M129.2,282.8c-0.1-0.1-0.1-0.1-0.2-0.1c-0.1,0-0.2,0-0.2,0.1s-0.2,0-0.2,0c-0.1-0.1-0.1-0.2,0-0.3
					s0.1-0.2,0.1-0.3c0-0.1,0-0.1,0-0.1c0-0.1,0-0.2,0-0.3c0.1-0.1,0.2-0.1,0.4-0.2c0.1-0.1,0.2-0.2,0.3-0.3c0.2-0.1,0.4,0,0.5,0
					c0,0-0.1,0-0.1,0c0,0,0,0.1,0,0.1c0,0,0.1,0,0.2,0c0.1,0,0.1-0.1,0.2,0c0,0,0,0,0,0c0,0,0,0.1-0.1,0.1c-0.1,0.1-0.2,0.2-0.3,0.3
					c0,0-0.1,0-0.1,0c-0.1,0-0.1,0.1-0.2,0.1c-0.1,0.1-0.2,0.2-0.2,0.4C129.2,282.5,129.3,282.7,129.2,282.8
					C129.2,282.8,129.2,282.8,129.2,282.8C129.2,282.8,129.2,282.8,129.2,282.8"/>
				<path fill="#D1B012" d="M130.9,281.1c0.1,0.1,0.1,0.3,0.1,0.4c0,0.2,0,0.3,0,0.5c0,0.1,0,0.1,0.1,0.1c0.2,0,0-0.3,0.1-0.4
					c0-0.2,0.3-0.3,0.4-0.3c0,0,0.1,0,0.1,0c0.1,0,0.1,0.1,0.1,0.2c0,0.1-0.1,0.1-0.1,0.2c0.1,0,0.1,0,0.2,0c0,0.1,0,0.1-0.1,0.2
					c0,0.1,0,0.2,0,0.2c0,0.1,0.1,0.2,0.1,0.3c0.1,0,0.1-0.1,0.1-0.2c0-0.1,0-0.1,0-0.2c0-0.1-0.1-0.2-0.1-0.4c0,0,0.1,0,0.1,0.1
					c0,0,0,0.1,0.1,0.1c0,0,0,0,0,0c0.1-0.1,0.1-0.3,0-0.4c0-0.1-0.1-0.1,0-0.2c0,0,0.1,0.1,0.1,0.1c0,0,0,0.1,0,0.1
					c0,0,0.1,0,0.1-0.1c0,0,0-0.1,0-0.1c0,0,0,0,0.1,0c0.1,0,0.1-0.1,0.1-0.2c0-0.1-0.1-0.2-0.1-0.2c-0.1-0.1-0.2-0.2-0.2-0.4
					c0.1,0,0.1,0,0.2,0c0-0.2-0.2-0.3-0.4-0.4c-0.1-0.1-0.3-0.2-0.4-0.3c-0.1,0-0.1-0.1-0.2-0.1s-0.2,0-0.2,0.1c0,0.1,0,0.2,0,0.3
					C131.2,280.6,130.9,280.8,130.9,281.1c0,0.1,0.1,0.2,0.1,0.3"/>
				<path fill="#FFFFF9" d="M131.1,282.1c0-0.2-0.1-0.4,0-0.5c0,0,0.1-0.1,0.2-0.1c0.1-0.1,0.1-0.2,0.2-0.3c0.1-0.2,0.3-0.3,0.5-0.3
					c0.2,0,0.4,0.2,0.4,0.4c0,0.1-0.1,0.2-0.1,0.2c0-0.1,0-0.1,0-0.2c0-0.1-0.1-0.1-0.1-0.1c0.1,0.2,0.1,0.4,0,0.6c0,0,0,0,0,0
					c0,0-0.1,0-0.1,0c0,0,0-0.1,0-0.1c0,0.2,0.1,0.4,0,0.6c0,0,0,0.1-0.1,0c0,0,0,0,0,0c0-0.1-0.1-0.1-0.1-0.2c0-0.1,0-0.2,0-0.2
					c0,0,0.1-0.1,0.1-0.2c0-0.1-0.1,0-0.2-0.1c0.1-0.1,0.1-0.2,0-0.3c0,0,0,0,0,0c0,0,0,0-0.1,0c-0.2,0.1-0.3,0.1-0.4,0.3
					C131.2,281.9,131.2,282,131.1,282.1C131.1,282.2,131.1,282.1,131.1,282.1"/>
			</g>
			<g>
				<path fill="#333333" d="M86.8,306.4c-0.6,0-1.1-0.4-1.2-0.9c-1.5-5.1-0.9-10.3,1.8-15.1c2-3.6,4.5-5.6,4.6-5.7
					c0.5-0.5,1.4-0.4,1.8,0.2c0.4,0.5,0.4,1.4-0.2,1.8c0,0-2.2,1.9-4,5.1c-2.3,4.2-2.8,8.6-1.5,13c0.2,0.7-0.2,1.4-0.9,1.6
					C87.1,306.4,86.9,306.4,86.8,306.4z"/>
			</g>
			<g>
				<path fill="#FCC792" d="M86.8,306.4c-0.6,0-1.1-0.4-1.2-0.9c-0.1-0.4-0.2-0.8-0.3-1.2c-0.2-0.7,0.3-1.4,1-1.5
					c0.7-0.2,1.4,0.3,1.5,1c0.1,0.3,0.2,0.7,0.3,1c0.2,0.7-0.2,1.4-0.9,1.6C87,306.4,86.9,306.4,86.8,306.4z"/>
			</g>
			<rect x="84.9" y="302.5" transform="matrix(0.9778 -0.2095 0.2095 0.9778 -61.5662 24.7994)" width="2.8" height="1"/>
		</g>
	</g>
	<rect x="82" y="329.3" fill="#547A6F" width="24.1" height="10"/>
	<rect x="123.5" y="329.3" fill="#547A6F" width="28.7" height="10"/>
	<rect x="152.2" y="329.3" fill="#AFC6BE" width="9.2" height="10"/>
	<rect x="161.4" y="329.3" fill="#547A6F" width="3.1" height="10"/>
	<rect x="82" y="326.7" fill="#1B2622" width="91.8" height="2.6"/>
	<linearGradient id="SVGID_1_" gradientUnits="userSpaceOnUse" x1="81.9965" y1="295.5233" x2="173.8207" y2="295.5233">
		<stop  offset="1.893335e-03" style="stop-color:#BCD7E2"/>
		<stop  offset="1" style="stop-color:#76C1E2"/>
	</linearGradient>
	<rect x="82" y="264.3" opacity="0.2" fill="url(#SVGID_1_)" width="91.8" height="62.4"/>
	<rect x="106.1" y="261.7" opacity="0.15" fill="#466057" width="17.4" height="67.9"/>
	<rect x="152.2" y="261.7" opacity="0.15" fill="#466057" width="9.2" height="67.6"/>
	<rect x="164.5" y="261.7" opacity="0.15" fill="#466057" width="4.3" height="67.6"/>
</g>
</svg>
