<?xml version="1.0" encoding="utf-8"?>
<!-- Generator: Adobe Illustrator 18.1.0, SVG Export Plug-In . SVG Version: 6.00 Build 0)  -->
<!DOCTYPE svg PUBLIC "-//W3C//DTD SVG 1.1//EN" "http://www.w3.org/Graphics/SVG/1.1/DTD/svg11.dtd">
<svg version="1.1" id="Layer_1" xmlns="http://www.w3.org/2000/svg" xmlns:xlink="http://www.w3.org/1999/xlink" x="0px" y="0px"
	 viewBox="0 0 375 278" enable-background="new 0 0 375 278" xml:space="preserve">
<g>
	<path fill="#4A5148" d="M7.3,71.2c0,0-8.1-1.8-7.3-9.2l7.8-7.8l-2.8-1.4c0,0,9.2-25.6,44.2-36.5S132,30.8,154.7,49.7
		s58.7,83,68.4,99.8c9.6,16.8,35.8,58.3,86,35.2S317.4,19.5,205,12c0,0,78-10.1,137.1,45.3s30.6,209.7-35.6,213
		c-66.3,3.4-1.7,0-1.7,0s-23.5-0.8-22.6,7.1H162.2l-15.1-10.1l-22.6,10.1H24.2c0,0,19.3-39.8,62.9-86l2.9-22.2
		c0,0-67.9-56.6-38.2-81.8c0,0-2.5-14.3-15.1-13l-17.6,9.2c0,0-8.4-0.4-4.6-9.2c0,0,10.9,1.7,17.2-17.2L7.3,71.2z"/>
	<path fill="#2D332B" d="M6.8,53.6l9.5-1.8c0,0,24.5-30.3,57.3-29.6c0,0-27.1,2.7-47.2,22.4c0,0-0.4,10.2-9.1,9.1H6.8z"/>
	<path fill="#2D332B" d="M27.2,59.8c0,0,12.2-25,47.2-28.9c0,0-29.2,5-36.8,25.2c0,0,36.8-26.2,92.4-10.7c0,0-52.3-10-71.8,12.4
		c0,0,0.6,15.2-21.4,16.6l-12.3,6.4c0,0,3.3-5.5,10.2-8.8c6.8-3.4,15.8-12.2,17.9-19.2c0,0-11.9,7-18.3,15.5c0,0,1.7-9-2.8-10.4
		L27.2,59.8z"/>
	<path fill="#2D332B" d="M48.2,91.4c0,0,8.1,19.8,36.7,22c0,0-23.9-15.7-25.9-26.7c0,0-4.6-12.3-19.7-12.2c0,0,8.8-1.2,12.6,12.9
		C51.9,87.4,48.7,90.6,48.2,91.4z"/>
	<path fill="#2D332B" d="M106.2,102.7c0,0,23.1,27.9,52.8,17.2C159.1,119.9,112.7,145.9,106.2,102.7z"/>
	<path fill="#2D332B" d="M119.4,124.9c0,0,30.3,35.3,30.9,36.3c0.6,1,6.1,43.2,6.1,43.2s-22.6,15.9-14.7,44.5
		c0,0-0.8-32.5,19.7-42.6c0,0-11.5-46,16.8-62c0,0-17.6,6-24.3,12.3L137.3,126L119.4,124.9z"/>
	<path fill="#2D332B" d="M132.6,65.6c0,0,23-2.2,31.7,41.1c0.3,1.4,22.8,43.6,22.8,43.6s-3.8,67.7-3.8,66.8
		c0-0.8,13.7-65.7,13.7-65.7s-20.7-27.3-23.2-48.7C173.8,102.7,175.1,62,132.6,65.6z"/>
	<path fill="#2D332B" d="M266.3,277.4c0,0-9.2-57.2-29.6-93c0,0,15.9,70.5,8.1,93H266.3z"/>
	<path fill="#2D332B" d="M51.9,126.1c0,0,32.5,46.9,87.8,45.5c0,0-28.1,3.7-33.5,0c0,0,30.4,35.9,29,59.3c0,0-19-30.5-50.3-37.1
		l2.4-3.6l2.8-21.1C90.1,169.2,74.5,159.1,51.9,126.1z"/>
	<path fill="#070707" d="M14.6,74.4c0,0,3.2-4,5-7.1L9.1,70.2l22.3-12.9C31.4,57.3,28.6,73.8,14.6,74.4z"/>
	<path fill="#2D332B" d="M45.1,109.8c0,0-4.7,21.4,12.5,35.5l-20.8,59.3c0,0-8,10.8,0,26.3L49,202.5c0,0,11.2,4.9,11.3,12.4
		c0,0,6.3-5.7,0-18.7c0,0,0.2-18.2,20.8-35C81.1,161.2,52.5,136.2,45.1,109.8z"/>
	<path fill="#21261F" d="M42.7,217.2c0,0,1.9,7.4,13.2,9.1l-6.6-12.8c0,0,2.6,5.2,11.6,5.2c0,0-7.5-7.1-6.4-12.8l-5.6-3.4
		L42.7,217.2z"/>
	<path fill="#21261F" d="M7.7,58.6c0,0-5.6,3.2-1.6,7.3C6.1,65.9,5.9,63.6,7.7,58.6z"/>
	<path fill="#2D332B" d="M143.1,247.6l4.2-16.7c0,0,8.2,12.1,5.5,30.3l-4.5-15.2L143.1,247.6z"/>
	<path fill="#2D332B" d="M153.3,260.4c0,0,12.2-10.9,13.5-26.8l1.5,8.2c0,0,13.7-4.6,14.9-23.3c0,0,0,25.6-14.9,30.4
		C168.3,248.9,160.6,259.2,153.3,260.4z"/>
	<path fill="#2D332B" d="M53.3,68.5c0,0,25.1,4.4,42.5,25.5c0,0-11.4-22.8-39.9-31.7L53.3,68.5z"/>
	<path fill="#2D332B" d="M256.8,235.6c0,0,90.8,36.1,113.8-48.7c0,0-11.3,108.5-107.8,83.4L256.8,235.6z"/>
	<path fill="#FBB040" d="M18.5,51.5l5.3-5C23.8,46.5,23.7,52.5,18.5,51.5z"/>
	<path fill="#878E85" d="M53.3,15.2c0,0,3.2-4.7,7-7.2c0,0-1.4,2.5-0.8,6.2C59.5,14.1,55.7,14.6,53.3,15.2z"/>
	<path fill="#878E85" d="M62.1,13.9c0,0,4.7-7.4,15.2-9c0,0-4.3,3.8-4,9C73.3,13.9,66.7,13.3,62.1,13.9z"/>
	<path fill="#878E85" d="M90.8,16.8c0,0,6.1-10.9,16.5-16.8c0,0-5.5,10.6-4.7,20.4C102.6,20.4,95,17.8,90.8,16.8z"/>
	<path fill="#878E85" d="M106.2,21.7c0,0,10.5-15.6,19.3-21.7c0,0-0.6,24.9,0,30.5C125.5,30.5,114.8,24.9,106.2,21.7z"/>
	<path fill="#878E85" d="M128.8,32.2l13.7-19.5l0.8,7.6c0,0,13-16.4,23.3-20.4c0,0-20.1,25.8-20.1,43.4
		C146.5,43.4,134.2,35.1,128.8,32.2z"/>
	<path fill="#878E85" d="M151.2,46.9l15.5-17.3l-3.8,8.7L185.3,17c0,0-8.6,29.3-14,36.7l6.9-5c0,0-4.1,14-8.9,16.8
		C169.3,65.4,158.9,52.4,151.2,46.9z"/>
	<path fill="#878E85" d="M170.4,66.8l48.4-23.4l-27,29.8l10.1-2.3l-17.2,15.7C184.7,86.6,172.7,69.9,170.4,66.8z"/>
	<polyline fill="#878E85" points="185.3,87.5 202,82.2 191.8,94 218.8,80.9 200.8,102.7 211.5,100.6 204.1,112 213.6,109.8 
		207.1,116.4 211.9,116.4 207.9,123.5 	"/>
	<polygon fill="#ADB5AA" points="8.1,71.4 10.1,72.5 10.1,70.6 11.5,71.5 11.7,69.5 13.5,71 13.5,68.6 16.1,69.7 15.8,67.3 
		17.3,67.9 17.3,66.5 19.1,67.5 19.1,65.6 20.5,65.9 20.2,63.8 7.7,71 	"/>
	<polygon fill="#ADB5AA" points="21.5,63 23.3,64.8 22.9,62.2 	"/>
	<path fill="#ADB5AA" d="M14.6,74.4V72l1.5,2.4l1.1-2l1.3,1.3v-2.3l1.7,1.2v-2l1.3,1.2l0.4-2.4l1.4,1.1l0.5-1.5h1v-2.5l1,0.7v-1.3
		h1.3l-0.3-2l1.5,1.3C28.3,65.2,23.8,75.4,14.6,74.4z"/>
	<path fill="#21261F" d="M81.1,161.2c0,0-22.3-19-36-51.4c0,0,14,37.8,22.3,45.1c0,0-8.4,24.9-6.5,36.8
		C60.9,191.7,62.2,178.4,81.1,161.2z"/>
	<polygon fill="#60685E" points="112.3,88.8 121,109.8 156.5,116.8 137.2,74.6 134.4,99.5 	"/>
	<path fill="#60685E" d="M5.1,52.8l7.6-1.2c0,0,9.4-29.3,64.6-37.7C77.3,13.9,23.5,8.7,5.1,52.8z"/>
	<path fill="#60685E" d="M0,63.5c0,0,4.7-6.6,17.5-7.6L7.1,55l-7,7L0,63.8"/>
	<path fill="#60685E" d="M240.6,277.4c0,0,2-44.6-8.7-94.9c0,0-5,54.8-24,71.8l-8.9-71.8l-11.8,94.9H240.6z"/>
	<path fill="#60685E" d="M70.4,277.4c0,0,5-44,14.5-69.8c0,0-40.5,51.4-42.2,69.8H70.4z"/>
	<path fill="#60685E" d="M323.9,170.4c0,0,27.5-45.8,15.7-83.8c-11.7-38-74.9-56.1-74.9-56.1s26.1,13.7,51.1,57.6
		S323.9,170.4,323.9,170.4z"/>
	<path fill="#2D332B" d="M53.3,86.6c0,0-21.2,11.8,0.9,42c0,0-8.5-17.1,6.8-28.1L53.3,86.6z"/>
	<circle fill="#60685E" cx="109.1" cy="65.2" r="1.7"/>
	<circle fill="#60685E" cx="39.3" cy="37.9" r="1.7"/>
	<circle fill="#60685E" cx="220.5" cy="172.1" r="1.7"/>
	<circle fill="#60685E" cx="205.7" cy="141.3" r="1.7"/>
	<circle fill="#60685E" cx="310.1" cy="204.3" r="1.7"/>
	<circle fill="#60685E" cx="282.5" cy="214.4" r="1.7"/>
	<circle fill="#60685E" cx="350.1" cy="131.8" r="1.7"/>
	<circle fill="#60685E" cx="363.8" cy="170.4" r="1.7"/>
	<circle fill="#60685E" cx="333.6" cy="62.2" r="1.7"/>
	<circle fill="#60685E" cx="194.6" cy="118.5" r="1.7"/>
	<circle fill="#2D332B" cx="115.9" cy="54.5" r="1.7"/>
	<circle fill="#2D332B" cx="137.8" cy="58.6" r="1.7"/>
	<circle fill="#2D332B" cx="187.1" cy="104.5" r="1.7"/>
	<circle fill="#2D332B" cx="360.3" cy="95.7" r="1.7"/>
	<circle fill="#2D332B" cx="291.3" cy="30.1" r="1.7"/>
	<circle fill="#2D332B" cx="340.8" cy="178.5" r="1.7"/>
	<circle fill="#2D332B" cx="262.9" cy="202.5" r="1.7"/>
	<circle fill="#2D332B" cx="313.7" cy="226.2" r="1.7"/>
	<circle fill="#2D332B" cx="324" cy="188.6" r="1.7"/>
	<circle fill="#2D332B" cx="218.8" cy="188.6" r="1.7"/>
	<circle fill="#2D332B" cx="214" cy="155.4" r="1.7"/>
	<circle fill="#2D332B" cx="125.5" cy="80.9" r="1.7"/>
	<circle fill="#2D332B" cx="35" cy="43.4" r="1.7"/>
	<circle fill="#2D332B" cx="107.3" cy="31.4" r="1.7"/>
	<circle fill="#2D332B" cx="96" cy="52.8" r="1.7"/>
	<circle fill="#2D332B" cx="155.1" cy="97.4" r="1.7"/>
	<circle fill="#2D332B" cx="100.8" cy="80.9" r="1.7"/>
	<circle fill="#2D332B" cx="153.3" cy="57.3" r="1.7"/>
	<circle fill="#2D332B" cx="217.1" cy="212.7" r="1.7"/>
	<circle fill="#2D332B" cx="342.5" cy="153.7" r="1.7"/>
	<circle fill="#2D332B" cx="168.2" cy="68.2" r="1.7"/>
	<circle fill="#2D332B" cx="75.6" cy="37.9" r="1.7"/>
	<circle fill="#60685E" cx="94.3" cy="64" r="1.7"/>
	<circle fill="#60685E" cx="77.3" cy="58.6" r="1.7"/>
	<circle fill="#60685E" cx="134.4" cy="50.8" r="1.7"/>
	<circle fill="#60685E" cx="310.1" cy="46.5" r="1.7"/>
	<circle fill="#60685E" cx="92.5" cy="31" r="1.7"/>
	<circle fill="#60685E" cx="58.9" cy="28.7" r="1.7"/>
</g>
</svg>
