<?xml version="1.0" encoding="utf-8"?>
<!-- Generator: Adobe Illustrator 18.1.0, SVG Export Plug-In . SVG Version: 6.00 Build 0)  -->
<!DOCTYPE svg PUBLIC "-//W3C//DTD SVG 1.1//EN" "http://www.w3.org/Graphics/SVG/1.1/DTD/svg11.dtd">
<svg version="1.1" id="Layer_1" xmlns="http://www.w3.org/2000/svg" xmlns:xlink="http://www.w3.org/1999/xlink" x="0px" y="0px"
	 viewBox="0 0 1202 160" enable-background="new 0 0 1202 160" xml:space="preserve">
<g>
	<g>
		<path fill="#FFFFFF" d="M356.7,41.9H380v27.1c0,0-9.3,4.2-20.4,4.2c-15.1,0-29.1-7.1-29.1-30.7c0-20.6,12.7-28.9,26.9-28.9
			c15,0,21.9,6.5,21.9,6.5v13.5h-14.7c0,0-1-5.3-6.7-5.3c-5,0-8.3,4.3-8.3,14.3c0,11.8,4.4,18,15.2,15.9v-5.1h-8.2V41.9z"/>
		<path fill="#FFFFFF" d="M421.2,41.4c-10.2-1.2-13.5,3.1-13.5,7.4V57h5.9v14.6h-29.6V57h4.9V39.3h-4.9V24.7h23.6v6.4
			c2.7-4.1,6.9-7.7,13.5-7.7h2.8v18.4L421.2,41.4z"/>
		<path fill="#FFFFFF" d="M426.8,49.6c0-19.4,13.1-26.2,28.9-26.2c12.2,0,22.7,5,22.7,5v25.5c0,3.5,2.3,3.7,4.8,3.2v14.2
			c0,0-3.6,1.9-10.2,1.9c-5.8,0-9.2-2.2-11.2-5.1c-4.3,3.5-9.4,5.1-14.2,5.1C436.8,73.1,426.8,66,426.8,49.6z M459.4,37.3
			c0,0-2.5-1.2-5.4-1.2c-3.9,0-8.4,2.4-8.4,11.9c0,9.6,3.7,12.1,7.8,12.1c2,0,4.2-0.6,6-1.3V37.3z"/>
		<path fill="#FFFFFF" d="M509.9,23.4c14,0,22.4,5.9,22.4,5.9v13.5h-14.7c0,0-0.4-5.9-5.8-5.9c-4.3,0-6.4,3.9-6.4,10.3
			c0,7.4,5.1,11.3,10.5,11.3c7.2,0,14.1-4.1,14.1-4.1l3.7,12.7c0,0-7.8,6.1-21.2,6.1c-15.1,0-26-8.7-26-24.9
			C486.6,32.7,496,23.4,509.9,23.4z"/>
		<path fill="#FFFFFF" d="M537.7,57h4.8V39.3h-4.8V24.7h23.6V57h4.8v14.6h-28.4V57z M551.8,0C558,0,563,5,563,11.2
			c0,6.3-5,11.1-11.2,11.1c-6,0-10.9-4.8-10.9-11.1C540.9,5,545.8,0,551.8,0z"/>
		<path fill="#FFFFFF" d="M568.5,49.6c0-19.4,13.1-26.2,28.9-26.2c12.2,0,22.7,5,22.7,5v25.5c0,3.5,2.3,3.7,4.8,3.2v14.2
			c0,0-3.6,1.9-10.2,1.9c-5.8,0-9.2-2.2-11.2-5.1c-4.3,3.5-9.4,5.1-14.2,5.1C578.5,73.1,568.5,66,568.5,49.6z M601.1,37.3
			c0,0-2.5-1.2-5.4-1.2c-3.9,0-8.4,2.4-8.4,11.9c0,9.6,3.7,12.1,7.8,12.1c2,0,4.2-0.6,6-1.3V37.3z"/>
		<path fill="#FFFFFF" d="M653.1,73.2c-13.5,0-23-4.2-23-4.2V57.3h15.6c0,0,0.8,4.8,6.4,4.8c3,0,5-1.9,5-3.9
			c0-8.8-27.1,0.4-27.1-19.6c0-9.8,10.4-15.1,20.8-15.1c9.6,0,23,2.8,23,2.8V39h-15.6c0,0-0.3-4.8-5.6-4.8c-3,0-5,1.9-5,3.5
			c0,8.4,27.5,0.4,27.5,20.1C675.2,67.3,665.9,73.2,653.1,73.2z"/>
		<path fill="#FFFFFF" d="M704,61.2c0,0,22-8.2,22-20.3c0-3.5-2.3-5.5-5.5-5.5c-7.2,0-7,8-1.8,8.6l-2.1,8.1c0,0-16.1,0.9-16.1-13.4
			c0-9,7.5-15.5,21.7-15.5c11.5,0,19.2,6.5,19.2,14.9c0,13.9-19.9,20.2-23.4,21.2c1.9-0.4,10.2-2.2,23-2.2v14.4H704V61.2z"/>
		<path fill="#FFFFFF" d="M770,23.4c13.7,0,24.9,10,24.9,24.9c0,14.6-11.2,24.9-24.9,24.9c-13.8,0-24.9-10.3-24.9-24.9
			C745.1,33.3,756.2,23.4,770,23.4z M770,59.4c5.8,0,10.5-5.3,10.5-11.2s-4.7-11.2-10.5-11.2c-5.8,0-10.5,5.3-10.5,11.2
			S764.1,59.4,770,59.4z"/>
		<path fill="#FFFFFF" d="M803,43.5h-4.6V33.1c11.2,0.4,12.1-8.4,12.1-8.4h9.1V57h4.2v14.6h-25.3V57h4.5V43.5z"/>
		<path fill="#FFFFFF" d="M852.4,84.5V71.6H827V57l27.2-32.3h15.3V57h5.4v14.6h-5.4v12.9H852.4z M852.4,58.5V43.7l-11.6,14.8H852.4z
			"/>
	</g>
	<g>
		<path fill="#FFFFFF" d="M248.3,143h4.8v-27.4h-4.7V101h27.5c7.8,0,23.9,1.7,23.9,14.7c0,11.2-13.5,12.3-14.9,12.3
			c1.9,0.3,14.9,2.3,14.9,13.6c0,14.5-15.9,16-23.5,16h-28V143z M271.9,115.6v7.7h4.2c3.2,0,4.9-1.3,4.9-3.9c0-1.9-1.7-3.8-4.9-3.8
			H271.9z M271.9,133.6v9.4h4.2c3.2,0,4.9-1.9,4.9-4.8c0-2.6-1.7-4.6-4.9-4.6H271.9z"/>
		<path fill="#FFFFFF" d="M304.2,143h4.8v-17.7h-4.8v-14.6h23.6V143h4.8v14.6h-28.4V143z M318.3,86c6.2,0,11.2,5,11.2,11.2
			c0,6.3-5,11.1-11.2,11.1c-6,0-10.9-4.8-10.9-11.1C307.4,91,312.3,86,318.3,86z"/>
		<path fill="#FFFFFF" d="M382.2,139.5l3.3,12.9c0,0-7.4,6.8-22.7,6.8c-16,0-27.9-7.2-27.9-25c0-18.2,11.9-24.9,25-24.9
			c19.1,0,25.6,9.5,25.6,22.7c0,1.3-0.1,2.7-0.2,4h-31.2c1.2,6.4,6.2,8.2,12.1,8.2C374.7,144.3,382.2,139.5,382.2,139.5z
			 M366.5,130.3c0-6.2-2.5-8.2-6-8.2c-3.5,0-6,1.9-6.5,8.2H366.5z"/>
		<path fill="#FFFFFF" d="M425.2,129.7c0-2.7-1.8-4.2-4.2-4.2c-3.1,0-6.4,2-7.8,3V143h5v14.6h-28.7V143h4.9v-17.7h-4.9v-14.6h23.6
			v5.4c3.5-3.2,9.1-6.7,17.1-6.7c10,0,13.8,8.9,13.8,15.9V143h4.8v14.6h-28.7V143h5V129.7z"/>
		<path fill="#FFFFFF" d="M479.9,125.3H477v-14.6h24v14.6h-2.1l-13.4,34.1h-18.9l-13.4-34.1h-2v-14.6h23.7v14.6h-2.7l3.9,9.9
			L479.9,125.3z"/>
		<path fill="#FFFFFF" d="M550.3,139.5l3.3,12.9c0,0-7.4,6.8-22.7,6.8c-16,0-27.9-7.2-27.9-25c0-18.2,11.9-24.9,25-24.9
			c19.1,0,25.6,9.5,25.6,22.7c0,1.3-0.1,2.7-0.2,4h-31.2c1.2,6.4,6.2,8.2,12.1,8.2C542.7,144.3,550.3,139.5,550.3,139.5z
			 M534.5,130.3c0-6.2-2.5-8.2-6-8.2c-3.5,0-6,1.9-6.5,8.2H534.5z"/>
		<path fill="#FFFFFF" d="M593.3,129.7c0-2.7-1.8-4.2-4.2-4.2c-3.1,0-6.4,2-7.8,3V143h5v14.6h-28.7V143h4.9v-17.7h-4.9v-14.6h23.6
			v5.4c3.5-3.2,9.1-6.7,17.1-6.7c10,0,13.8,8.9,13.8,15.9V143h4.8v14.6h-28.7V143h5V129.7z"/>
		<path fill="#FFFFFF" d="M621.4,143h4.8v-17.7h-4.8v-14.6H645V143h4.8v14.6h-28.4V143z M635.5,86c6.2,0,11.2,5,11.2,11.2
			c0,6.3-5,11.1-11.2,11.1c-6,0-10.9-4.8-10.9-11.1C624.6,91,629.5,86,635.5,86z"/>
		<path fill="#FFFFFF" d="M703.4,139.8c0,3.5,2.3,3.7,4.8,3.2v14.2c0,0-3.6,1.9-10.2,1.9c-6.1,0-9.6-2.5-11.4-5.7
			c-4.8,4.3-11.3,5.7-15.1,5.7c-9.9,0-19.3-7.1-19.3-24.9s9.5-24.9,19.4-24.9c4.5,0,9.1,1.5,13,4.1v-8.8h-4.8V90h23.6V139.8z
			 M684.5,144.9v-21.3c-4.2-1.9-13.5-4.2-13.5,10.7C671,147.8,679.1,147.4,684.5,144.9z"/>
		<path fill="#FFFFFF" d="M738.1,109.5c14.6,0,26.5,7.8,26.5,24.8c0,16.5-11.9,25-26.5,25c-14.6,0-26.5-8.6-26.5-25
			C711.7,117.6,723.5,109.5,738.1,109.5z M738,146.1c4.2,0,7.7-3.6,7.7-11.9c0-8.4-3.2-12-7.7-12c-4.2,0-7.6,3.6-7.6,12
			C730.4,142.5,733.7,146.1,738,146.1z"/>
		<path fill="#FFFFFF" d="M791.7,147.2c0,0,22-8.2,22-20.3c0-3.5-2.3-5.5-5.5-5.5c-7.2,0-7,8-1.8,8.6l-2.1,8.1
			c0,0-16.1,0.9-16.1-13.4c0-9,7.5-15.5,21.7-15.5c11.5,0,19.2,6.5,19.2,14.9c0,13.9-19.9,20.2-23.4,21.2c1.9-0.4,10.2-2.2,23-2.2
			v14.4h-37.1V147.2z"/>
		<path fill="#FFFFFF" d="M857.6,109.4c13.7,0,24.9,10,24.9,24.9c0,14.6-11.2,24.9-24.9,24.9c-13.8,0-24.9-10.3-24.9-24.9
			C832.8,119.3,843.8,109.4,857.6,109.4z M857.6,145.4c5.8,0,10.5-5.3,10.5-11.2s-4.7-11.2-10.5-11.2c-5.8,0-10.5,5.3-10.5,11.2
			S851.8,145.4,857.6,145.4z"/>
		<path fill="#FFFFFF" d="M890.6,129.5H886v-10.4c11.2,0.4,12.1-8.4,12.1-8.4h9.1V143h4.2v14.6h-25.3V143h4.5V129.5z"/>
		<path fill="#FFFFFF" d="M934.9,159.1c-13.5,0-22.5-5.2-22.5-5.2l3.7-11c0,0,8.2,3.8,15.1,3.8c6.5,0,9-1.2,9-4.2
			c0-2.2-2-3.7-8.2-3.7h-16.2v-28.1h39v14.6H933v3.9h6.5c10.4,0,17.7,4.8,17.7,13.9C957.3,153.7,950.7,159.1,934.9,159.1z"/>
	</g>
</g>
<rect y="76.7" fill="#FFFFFF" width="180" height="6"/>
<rect x="1021.8" y="76.7" fill="#FFFFFF" width="180" height="6"/>
</svg>
