<?xml version="1.0" encoding="utf-8"?>
<!-- Generator: Adobe Illustrator 17.1.0, SVG Export Plug-In . SVG Version: 6.00 Build 0)  -->
<!DOCTYPE svg PUBLIC "-//W3C//DTD SVG 1.1//EN" "http://www.w3.org/Graphics/SVG/1.1/DTD/svg11.dtd">
<svg version="1.1" xmlns="http://www.w3.org/2000/svg" xmlns:xlink="http://www.w3.org/1999/xlink" x="0px" y="0px"
	 viewBox="0 0 900 900" enable-background="new 0 0 900 900" xml:space="preserve">
<g id="Layer_5">
	<rect fill="#636362" width="900" height="900"/>
</g>
<g id="cabeza">
	<rect x="204" y="180" fill="#FCC792" width="80" height="149"/>
	<ellipse fill="#FCC792" cx="244.4" cy="179.6" rx="40.4" ry="40.7"/>
	<path fill="#9B7A4E" d="M204,185c0,0,13.6-48.6,48.2-24.8c0,0,9.9-18.8,26.6-1.8c0,0-1.2-19.5-34.4-19.5S200.6,167.1,204,185z"/>
	<path fill="#9B7A4E" d="M210.4,155.2c0,0-16.3-64.3-51.7-30.8s25.7,115.2-38.1,112.9c0,0,47.5,17,44.9-28.4s-7.7-63.3,41.4-43.6"/>
	<rect x="622" y="189" fill="#FCC792" width="80" height="149"/>
	<ellipse fill="#FCC792" cx="661.7" cy="188.6" rx="40.4" ry="40.7"/>
	<path fill="#9B7A4E" d="M702.1,194c0,0-13.6-48.6-48.2-24.8c0,0-9.9-18.8-26.6-1.8c0,0,1.2-19.5,34.4-19.5
		C695,147.9,705.5,176.1,702.1,194z"/>
	<path fill="#9B7A4E" d="M695.6,164.2c0,0,16.3-64.3,51.7-30.8s-25.7,115.2,38.1,112.9c0,0-47.5,17-44.9-28.4s7.7-63.3-41.4-43.6"/>
	<path fill="none" stroke="#FCC792" stroke-width="17" stroke-linecap="round" stroke-miterlimit="10" d="M586,296.4
		c0,0-116.5,221.4-134,32.6"/>
	<path fill="none" stroke="#FCC792" stroke-width="17" stroke-linecap="round" stroke-miterlimit="10" d="M721.6,298
		c0,0,99.1,84.4,62.4,211.7"/>
	<path fill="none" stroke="#FCC792" stroke-width="14" stroke-linecap="round" stroke-miterlimit="10" d="M786.9,498.7
		c-0.8,3.6-1.8,7.3-2.9,11"/>
	<g>
		<path fill="#FFFFFF" d="M591.8,282c0,0,0.7,0,28.1,0c0.6,0,1.1,0,1.7,0l0.4,70l77.1-70c1.5,0,2.9,0,4.3,0c9,0,17.7,0,17.7,0
			c5.8,0,5,5.4,5,14L699,444.2l9.8,70.9c0,8.6-6.7,56.9-12.5,56.9h-97c-5.8,0-13.5-48.3-13.5-56.9l10.9-76.4l-15.1-142.3
			C581.6,287.8,586,282,591.8,282z"/>
	</g>
	<rect x="586" y="515.2" fill="#808285" width="122.8" height="56.9"/>
	<path fill="#FFFFFF" d="M562.4,347.5c0,19.1,15.5,34.6,34.6,34.6s34.6-15.5,34.6-34.6c0-9.2-3.6-17.6-9.5-23.8
		c-6.3-6.7-15.2-10.8-25.1-10.8C577.9,313,562.4,328.4,562.4,347.5z"/>
	<circle fill="#DDDDDD" cx="664.7" cy="355.5" r="36.1"/>
	<path fill="#FCC792" d="M658,319.4c-14.8,1.8-25,11.8-28.6,26"/>
	<path fill="#E8BB91" d="M655.2,320.5L631.5,342C631.5,342,644.4,320.5,655.2,320.5z"/>
	<path fill="#FCC792" d="M621.9,322.6"/>
	<path fill="#FCC792" d="M622.1,352"/>
	<path fill="#FCC792" d="M622.1,352l9.5-8.6c0,0-3.1-16-9.5-19.6L622.1,352z"/>
	<path fill="#E8BB91" d="M622.1,327.3l6.5,18.1C628.6,345.4,630.2,330,622.1,327.3z"/>
	<g>
		<path fill="#7D4904" d="M630.6,381.6c0.6,0.4,0.8,1,0.9,1.7c0.1,0.5,0.1,1.1,0,1.6c0,0.2-0.1,0.4,0.1,0.6c0.1,0.1,0.1,0.2,0,0.3
			c-0.2,0.4,0,0.8,0,1.2c0.2,1.6-0.1,3.2-0.4,4.7c0,0.3-0.1,0.6,0,0.8c0.6,2.7,0.1,5.2-1.9,7.2c-0.2,0.2-0.1,0.3,0,0.5
			c1.3,2.5,2.2,5.1,2.7,7.9c0.7,3.9,0.6,7.7-0.6,11.4c-0.1,0.4-0.1,0.8-0.7,1c0,0-0.1,0.1-0.1,0.2c-0.5,1.8-1.4,3.3-2.6,4.7
			c-0.1,0.1-0.2,0.3-0.4,0.1c-0.1-0.2-0.2,0-0.3,0.1c-0.7,0.6-1.4,1.3-2.1,1.9c-0.1,0.1-0.2,0.2-0.3,0.2c-0.1-0.1-0.1-0.2-0.1-0.3
			c0-0.6,0.2-1.1,0.3-1.7c-0.2,0.1-0.2,0.2-0.3,0.3c-1.9,2-4.3,3.3-7.1,3.4c-0.2,0-0.3,0-0.5,0.2c-0.3,0.2-0.4,0.2-0.7-0.1
			c-0.2,0.5-0.4,0.9-0.6,1.3c-0.4,0.8-0.7,1.5-1.2,2.2c-0.2,0.2-0.3,0.5-0.7,0.4c-0.2,0-0.2,0.2-0.3,0.3c-0.2,0.2-0.4,0.7-0.7,0.7
			c-0.3,0-0.3-0.6-0.4-0.9c-0.1-0.3-0.2-0.6-0.3-0.8c-0.1-0.2,0-0.4-0.4-0.3c-0.2,0-0.2-0.2-0.3-0.4c-0.4-0.9-0.8-1.9-1.1-2.9
			c-0.1-0.2-0.1-0.4-0.4-0.3c-0.2,0-0.3-0.2-0.3-0.4c-0.1-0.2-0.1-0.5-0.4-0.5c0,0-0.1-0.1-0.1-0.2c-1.6-3.6-3-7.3-3.6-11.2
			c-0.5-3.6-0.5-7.2,0.5-10.8c0.6-2,1.5-3.8,2.9-5.5c0.1-0.1,0.2-0.2,0-0.4c-1.9-1.7-2.4-3.9-2.1-6.3c0.1-0.7,0.3-1.4,0.5-2.1
			c0.1-0.2,0.1-0.4,0-0.6c-0.4-1.2-0.7-2.5-0.4-3.8c0-0.3,0.1-0.5,0-0.8c0-0.1-0.1-0.3,0-0.3c0.3-0.3,0.1-0.6,0.1-0.9
			c-0.1-0.7-0.1-1.5,0.2-2.2c0.1-0.2,0.2-0.3,0.3-0.5c0.4-0.6,0.8-0.5,1.1,0.1c0.4,0.9,0.9,1.7,1.6,2.4c1,1,2.2,1.7,3.6,2.2
			c2.7,0.8,3.7,1.5,5.4,3.7c1.2-2.1,3.1-3.2,5.4-3.9c2.4-0.7,4.2-2.2,5.2-4.6c0.1-0.2,0.3-0.3,0.4-0.5
			C630.4,381.6,630.5,381.6,630.6,381.6z M609,389C609,389,609,389,609,389c-0.1,0.1-0.1,0.1-0.1,0.1
			C608.9,389.1,608.9,389.1,609,389C609,389,609,389,609,389C609.1,389,609.1,388.9,609,389c0.1-0.1,0.2-0.1,0.2-0.1
			c1.5-1.2,3.2-1.4,5-0.9c0.2,0,0.3,0.1,0.5,0.1c-0.2-0.2-0.4-0.2-0.6-0.3c-1.5-0.6-3-0.6-4.4,0.4C609.6,388.4,609.2,388.6,609,389
			C609.1,388.9,609.1,389,609,389z M630.1,391C630.1,391,630.1,391,630.1,391C630.1,391,630.1,391,630.1,391
			C630.1,391,630.1,391,630.1,391c0,0,0,0.1,0,0.1C630.1,391.1,630.1,391.1,630.1,391C630.1,391.1,630.1,391.1,630.1,391z
			 M623.5,388.6c0.8,0,1.5-0.2,2.3-0.1c1.1,0.1,2.1,0.5,3,1.2c0.4,0.3,0.8,0.8,1.2,1.1c-0.2-0.6-0.6-1.2-1.1-1.6
			c-1.1-0.9-2.4-1.2-3.8-1C624.5,388.3,624,388.3,623.5,388.6c-0.1,0-0.1,0-0.2,0c0,0,0,0,0,0C623.4,388.7,623.5,388.7,623.5,388.6z
			 M608,423.2c0,0.1,0,0.1,0,0.2c0,0,0,0,0,0C608.1,423.3,608.1,423.2,608,423.2c0-0.6-0.2-1.1-0.3-1.6c-0.4-2.1-0.6-4.1-0.7-6.2
			c-0.1-2.3,0.1-4.7,0.5-7c0.4-2.1,0.9-4.2,1.7-6.2c0.2-0.6,0.5-1.1,0.7-1.7c0,0,0.1,0,0-0.1c0,0,0,0,0,0c-0.1,0.1-0.2,0.2-0.2,0.2
			c-1,1.4-1.9,2.9-2.4,4.5c-1,2.9-1.3,5.9-1.1,9c0.1,2.1,0.5,4.1,1,6.1C607.4,421.3,607.6,422.3,608,423.2z M619.4,401.3
			c0,0-0.1,0.1-0.1,0.1c-0.2,0.3-0.3,0.3-0.5,0c-0.4-0.6-0.8-1.1-1.3-1.6c-0.2-0.2-0.3-0.5-0.5-0.6c-0.2-0.1-0.4,0.3-0.7,0.4
			c-0.3,0.1-0.3,0.3-0.1,0.5c0.9,1.2,1.8,2.3,2.7,3.6c2.3,3.3,3.6,6.9,3.7,10.9c0,1.8-0.2,3.6-0.6,5.3c-0.8,3.3-2.2,6.3-4.2,9.1
			c0.1,0,0.2,0,0.2,0c1.3-0.1,2.5-0.5,3.6-1.1c2-1.1,3.4-2.7,4.5-4.6c3.4-5.8,4.6-12,3.6-18.6c-0.2-1.5-0.6-3-1.3-4.5
			c0-0.1,0-0.4-0.3-0.2c-1.4,0.7-2.9,1-4.5,0.7c-1.1-0.2-2-0.6-2.9-1.3c-0.1-0.2-0.2-0.1-0.3,0C620.2,400.1,619.8,400.7,619.4,401.3
			z M607.8,394.7c0,0.4,0,0.7,0.1,1.1c0.3,2.5,2,4.2,4.5,4.6c2.1,0.4,4.6-0.9,5.6-2.9c0.9-1.8,0.8-3.7,0.1-5.6
			c-0.6-1.5-1.6-2.5-3.1-3.1c-1.1-0.4-2.2-0.4-3.3-0.2c-1.4,0.3-2.3,1-3,2.2C608,392,607.8,393.3,607.8,394.7z M619.6,395.4
			c0,0.3,0,0.5,0,0.8c0.2,1.5,0.7,2.8,2,3.6c1.4,0.9,3,1.1,4.6,0.8c1.5-0.3,2.8-1,3.6-2.3c0.7-1.1,0.9-2.3,0.9-3.5
			c0-1.7-0.6-3.1-1.9-4.2c-1-1-2.3-1.5-3.7-1.5c-1.5,0.1-2.8,0.7-3.8,1.8C620.1,392,619.6,393.6,619.6,395.4z M611.2,402.3
			c-0.3,0.5-0.5,1-0.7,1.5c-1,2.5-1.6,5.1-1.8,7.8c-0.1,2,0,3.9,0.4,5.9c0.6,3.5,1.8,6.7,3.5,9.8c0.2,0.4,0.5,0.9,0.8,1.3
			c1.7-2.3,2.9-4.7,3.7-7.3c0.8-2.6,1.1-5.3,0.9-8c-0.3,1.9-0.7,3.9-1.2,5.7c-0.6,2.1-1.4,4.2-2.6,6c-0.3,0.5-0.4,0.5-0.6,0
			c-1.1-2-2-4.1-2.5-6.3c-0.4-1.4-0.6-2.8-0.7-4.3c-0.2-1.5-0.1-3.1-0.1-4.6c0-0.3,0-0.5,0.1-0.8c0.1,2.2,0.4,4.4,1,6.5
			c0.6,2.1,1.3,4.2,2.3,6.3c1.7-4.2,2.8-8.4,1.9-12.9c-0.1,3.4-0.6,6.7-1.7,10C611.5,413.6,611.2,408,611.2,402.3z M614,400.6
			c0.1,0.1,0.1,0.2,0.2,0.3c2.2,2.9,3.9,6,4.9,9.5c0.6,2.2,1,4.4,0.8,6.7c-0.2,2-0.7,3.9-1.4,5.8c-0.3,0.8-0.9,1.6-0.8,2.5
			c0,0.3,0,0.5-0.1,0.8c-0.1,0.5-0.1,1-0.2,1.5c0.2-0.4,0.3-0.7,0.4-1.1c0.3-0.8,0.4-1.6,0.9-2.3c0.9-1.1,1.3-2.4,1.7-3.7
			c0.5-1.7,0.8-3.4,0.9-5.1c0-1-0.1-2-0.2-3c-0.3-2.3-1-4.6-2-6.7c-1-2-2.3-3.7-3.5-5.6c-0.1-0.2-0.2-0.2-0.4-0.1
			C614.8,400.4,614.4,400.5,614,400.6z M616.5,424.6C616.5,424.6,616.4,424.6,616.5,424.6c-0.1,0.1-0.2,0.3-0.2,0.4
			c-0.5,1.6-1,3.3-1.6,4.9c-0.3,0.7-0.6,1.4-1,2c-0.1,0.1-0.1,0.2-0.2,0.2c-0.1,0-0.1-0.1-0.1-0.2c-0.1-0.4-0.3-0.9-0.4-1.3
			c0-0.2-0.1-0.3-0.2-0.1c-0.2,0.2-0.3,0-0.4-0.1c-0.3-0.7-0.5-1.4-0.8-2.2c-0.3-0.9-0.6-1.7-1-2.7c-0.1,0.4-0.1,0.7-0.2,1
			c-0.7-1.5-1.4-2.8-2-4.2c0.3,1.6,0.7,3.1,1.3,4.7c0.1-0.1,0-0.2,0.2-0.2c0.2,0.4,0.3,0.8,0.5,1.2c0.1-0.1,0.1-0.3,0.2-0.3
			c0.1,0.1,0.1,0.3,0.2,0.4c0.4,1.1,0.9,2.3,1.4,3.4c0,0.1,0,0.3,0.2,0.2c0.4-0.3,0.3,0.1,0.4,0.2c0.2,0.6,0.4,1.1,0.7,1.7
			c0.2-0.3,0.3-0.5,0.5-0.7c0.1-0.1,0.1-0.2,0.3-0.2c0.2,0.1,0.3,0,0.4-0.2c0.4-0.6,0.8-1.3,1.1-2
			C616.2,428.6,616.6,426.6,616.5,424.6z M619,396.2c-0.2,0-0.4,0-0.4,0.3c-0.2,0.9-0.6,1.7-1.3,2.3c-0.1,0.1-0.1,0.2,0,0.3
			c0.5,0.7,1,1.3,1.5,2c0.1,0.2,0.2,0.2,0.3,0c0.4-0.6,0.9-1.2,1.3-1.8c0.1-0.2,0.1-0.2,0-0.4c-0.5-0.7-0.9-1.5-1-2.4
			C619.4,396.3,619.2,396.2,619,396.2z M624.1,387.4c0.3,0.1,0.5,0,0.7,0c2.4-0.5,4.3-1.7,5.5-3.9c0.1-0.1,0.1-0.4,0.3-0.3
			c0.2,0,0.2,0.3,0.2,0.4c0,0.1,0,0.2,0,0.3c0,0.7-0.2,1.3-0.5,1.9c-0.1,0.2-0.1,0.3,0.2,0.3c0.2,0,0.4,0.1,0.3,0.3
			c-0.2,0.3,0,0.6,0,0.8c0.2,1.1,0.2,2.1,0.2,3.2c0,0.2,0,0.5,0,0.7c0.1-0.3,0.2-0.6,0.2-0.9c0.1-0.8,0.2-1.6,0.1-2.4
			c0-0.4-0.2-0.8-0.2-1.3c0-0.3,0.2-0.6-0.1-0.8c-0.1-0.1,0-0.2,0-0.3c0.1-0.6,0.2-1.1,0.2-1.7c0-0.4-0.1-0.7-0.3-1
			c-0.3-0.3-0.5-0.3-0.7,0c-0.1,0.2-0.2,0.4-0.4,0.6c-0.8,1.4-1.9,2.6-3.4,3.3C625.8,386.9,625,387.1,624.1,387.4z M612,386.6
			c0-0.2-0.1-0.2-0.1-0.2c-0.6-0.3-1.1-0.7-1.6-1.2c-0.7-0.6-1.2-1.4-1.5-2.3c-0.1-0.2-0.2-0.4-0.4-0.4c-0.2,0-0.4,0.2-0.5,0.4
			c-0.3,0.5-0.3,1.1-0.2,1.6c0,0.5,0.4,1,0,1.5c-0.1,0.1,0,0.2,0,0.3c0.1,0.2,0,0.4,0,0.6c-0.1,0.9,0,1.8,0.2,2.7c0-0.7,0-1.5,0-2.2
			c0-0.2,0-0.4,0.1-0.6c0.1-0.1,0.1-0.3,0-0.4c-0.1-0.2-0.1-0.4,0.2-0.4c0.3,0,0.3-0.1,0.2-0.3c-0.2-0.5-0.3-1.1-0.4-1.6
			c0-0.4,0-0.9,0.3-1.3C609,384.6,610.3,385.8,612,386.6z M607.9,390.1C607.9,390.1,607.8,390,607.9,390.1
			C607.8,390,607.8,390.1,607.9,390.1C607.8,390.1,607.8,390.1,607.9,390.1C607.8,390.1,607.8,390.1,607.9,390.1z M617.3,428
			C617.3,428,617.3,428.1,617.3,428c0,0.1,0,0.1,0,0.1C617.3,428.1,617.3,428.1,617.3,428C617.3,428.1,617.3,428,617.3,428z
			 M611.4,402.1C611.3,402.1,611.3,402.1,611.4,402.1C611.3,402.2,611.3,402.2,611.4,402.1C611.4,402.2,611.4,402.1,611.4,402.1
			C611.4,402.1,611.4,402.1,611.4,402.1z M612.1,386.6C612.1,386.6,612.1,386.6,612.1,386.6C612.2,386.6,612.2,386.6,612.1,386.6
			C612.2,386.6,612.2,386.6,612.1,386.6C612.2,386.6,612.1,386.6,612.1,386.6z"/>
		<path fill="#844E0F" d="M595.4,388.8c0.2-0.5,0.5-1,1.1-1.1c0.9-0.1,1.9-0.2,2.8,0c0.6,0.1,0.9,0.5,0.9,1.1c0,1.1,0.1,2.2,0.1,3.3
			c0,0.4,0.1,0.5,0.5,0.4c0.2,0,0.4,0,0.7,0c0.3,0,0.3-0.1,0.3-0.3c0-0.9-0.1-1.9-0.1-2.8c0-0.9,0.5-1.6,1.5-1.7
			c0.9-0.1,1.7-0.1,2.6,0.1c0.6,0.2,0.9,0.5,0.9,1.1c0.1,3.6,0.1,7.2,0.2,10.8c0,1.1-0.3,1.4-1.3,1.7c-0.7,0.2-1.5,0.2-2.2,0.1
			c-0.9-0.1-1.2-0.5-1.2-1.5c0-1-0.1-2-0.1-3c0-0.4-0.1-0.5-0.5-0.4c-0.3,0.1-0.6,0.1-0.9,0.1c-0.3,0-0.3,0.1-0.3,0.4
			c0,1-0.1,2.1-0.2,3.1c-0.1,0.9-0.5,1.3-1.5,1.4c-0.5,0-1.1,0-1.6,0c-0.7,0-1.3-0.2-1.6-0.9c0-0.4,0-0.8,0-1.3c0.1-0.3,0.1-0.7,0-1
			C595.4,395.2,595.4,392,595.4,388.8z M595.7,394.7C595.7,394.7,595.7,394.7,595.7,394.7c0,1.8,0,3.7,0,5.5c0,0.7,0.3,1.1,1,1.1
			c0.7,0,1.5,0,2.2,0c0.5,0,0.8-0.3,0.9-0.8c0.1-0.4,0.1-0.7,0.1-1.1c0.1-0.8,0.1-1.7,0.1-2.5c0-0.2,0-0.3,0.2-0.3
			c0.6,0,1.1-0.1,1.7-0.2c0.2,0,0.3,0,0.3,0.2c0,0.3,0,0.7,0.1,1c0,0.8,0,1.6,0,2.5c0,0.7,0.3,1.1,0.9,1.2c0.9,0.2,1.8,0.1,2.6-0.1
			c0.6-0.2,0.8-0.4,0.7-1c0-1.2,0-2.5-0.1-3.7c-0.1-2.4-0.1-4.8-0.1-7.3c0-0.7-0.3-1-0.9-1.1c-0.8-0.2-1.6-0.2-2.4-0.1
			c-0.6,0.1-1.2,0.7-1.1,1.3c0.1,1,0,2.1,0.1,3.1c0,0.2-0.1,0.4-0.3,0.4c-0.4,0-0.8,0-1.2,0.1c-0.2,0-0.3,0-0.3-0.3
			c-0.1-1.2-0.1-2.3-0.1-3.5c0-0.9-0.5-1.2-1.2-1.2c-0.5,0-1.1,0-1.6,0c-1.1,0-1.6,0.4-1.6,1.6C595.7,391.2,595.7,393,595.7,394.7z"
			/>
		<path fill="#844F10" d="M595.4,398.5c0.1,0.3,0.1,0.7,0,1C595.4,399.1,595.4,398.8,595.4,398.5z"/>
		<path fill="#834E0F" d="M665.5,397.7c0-0.3-0.2-0.4-0.4-0.6c-0.6-0.4-1.1-0.7-1.7-1.1c-0.8-0.5-1.4-1.1-2-1.9
			c-1.8-2.2-0.5-5.2,1.4-6.1c1.6-0.8,3.3-0.9,5.1-0.3c1.2,0.4,1.9,1.3,2.2,2.5c0.4,1.6-0.7,2.8-2.3,2.5c-0.6-0.1-1.2-0.4-1.7-0.7
			c-0.2-0.1-0.5-0.4-0.7-0.1c-0.2,0.3,0.1,0.5,0.4,0.6c0.5,0.3,1,0.5,1.5,0.8c1.9,0.9,3,3,2.6,5.1c-0.2,1.2-0.9,2-2,2.5
			c-1.7,0.7-3.4,0.8-5.1,0.2c-1.3-0.4-2-1.4-2.2-2.8c-0.1-0.8,0.3-1.4,0.9-1.8c0.7-0.4,1.4-0.5,2.1,0
			C664.3,396.9,664.9,397.3,665.5,397.7z M665.1,401.3c0.5,0,1,0,1.4-0.1c1-0.2,2-0.5,2.6-1.4c1-1.4,0.7-3.7-0.6-5
			c-0.5-0.6-1.1-1-1.9-1.3c-0.5-0.2-0.9-0.4-1.3-0.7c-0.3-0.2-0.4-0.6-0.2-0.8c0.2-0.3,0.5-0.2,0.8-0.1c0.1,0,0.2,0.1,0.2,0.1
			c0.7,0.4,1.4,0.7,2.2,0.6c1-0.1,1.6-0.7,1.6-1.7c-0.1-1.3-0.7-2.2-1.9-2.8c-1.6-0.7-3.2-0.6-4.8,0c-1.6,0.6-2.5,2.1-2.5,3.8
			c0,1,0.5,1.8,1.2,2.5c0.9,1.1,2.1,1.8,3.3,2.5c0.2,0.1,0.3,0.2,0.4,0.4c0.1,0.2,0.2,0.4,0.1,0.6c-0.2,0.2-0.4,0-0.5-0.1
			c-0.5-0.4-1-0.7-1.6-1c-1-0.6-2.5,0.1-2.6,1.3c-0.1,1,0.3,1.8,1,2.4C662.9,401.2,664,401.3,665.1,401.3z"/>
		<path fill="#98785F" d="M623.5,386.6c-0.5,0.2-0.9,0.4-1.3,0.6c-1.1,0.6-2.1,1.3-2.8,2.4c-0.1,0.2-0.2,0.3-0.4,0
			c-0.9-1.1-2-2-3.4-2.5C616.8,386,621.6,385.7,623.5,386.6z"/>
		<path fill="#834E0F" d="M641.3,394.4c0-1.8,0-3.7,0.3-5.5c0-0.3,0.1-0.5,0.2-0.7c0.2-0.4,0.5-0.6,1-0.6c1.8,0,3.7,0,5.5,0
			c0.7,0,1.1,0.4,1.3,1.1c0.1,0.7,0.1,1.3,0.1,2c-0.1,0.9-0.5,1.3-1.4,1.4c-0.7,0-1.3,0-2,0c-0.2,0-0.4,0-0.3,0.3
			c0,0.2,0,0.3,0.3,0.3c0.5,0,1.1,0,1.6,0.1c0.6,0,0.9,0.3,0.9,0.9c0,0.6,0,1.1-0.1,1.7c-0.1,0.7-0.4,0.9-1,1.1
			c-0.5,0.1-0.9,0.1-1.4,0.1c-0.2,0-0.3,0.1-0.3,0.3c0,0.1,0,0.1,0,0.2c0,0.8,0,0.8,0.8,0.8c0.6,0,1.1-0.1,1.7-0.1
			c0.6,0,1,0.3,1,0.9c0,0.6,0,1.2,0,1.8c0,0.6-0.4,1.1-1.1,1.2c-1.6,0.2-3.3,0.3-5,0.1c-1.1-0.1-1.7-0.8-1.8-1.9
			C641.5,397.9,641.3,396.2,641.3,394.4z M645.6,387.8c-0.8,0-1.7,0-2.5,0c-0.8,0-1.1,0.3-1.2,1.1c-0.2,1.4-0.3,2.9-0.3,4.3
			c0,2.1,0.1,4.2,0.3,6.3c0.1,1.2,0.8,1.8,1.8,1.8c1.5,0.1,3,0,4.5-0.1c0.6,0,1-0.4,1.1-0.9c0.1-0.6,0.1-1.2,0-1.8
			c-0.1-0.6-0.3-0.8-0.8-0.7c-0.8,0-1.6,0.1-2.4,0.1c-0.3,0-0.4-0.1-0.3-0.3c0.1-0.3,0-0.7,0-1.1c0-0.3,0.1-0.3,0.3-0.3
			c0.5,0,1.1,0,1.6-0.1c0.4-0.1,0.8-0.3,0.8-0.7c0.1-0.6,0.1-1.2,0.1-1.8c0-0.4-0.3-0.7-0.6-0.7c-0.6,0-1.1-0.1-1.7-0.1
			c-0.4,0-0.5-0.1-0.5-0.5c0-0.4,0.1-0.5,0.6-0.6c0.7,0,1.3,0,2,0c0.7,0,1.1-0.3,1.1-1c0.1-0.7,0-1.4-0.1-2.1
			c-0.1-0.6-0.5-0.9-1.1-0.9C647.4,387.8,646.5,387.8,645.6,387.8z"/>
		<path fill="#844F10" d="M654.9,398.2c0,0.7,0,1.3-0.1,2c-0.1,0.9-0.4,1.2-1.3,1.3c-0.7,0-1.3,0-1.9-0.1c-0.8-0.2-1.1-0.5-1.1-1.3
			c0-3.6-0.1-7.2-0.1-10.8c0-0.7,0.4-1.3,1.2-1.4c1.7-0.3,3.4-0.3,5.1,0.1c2.7,0.7,4.4,4,2.5,6.7c-0.2,0.4-0.5,0.7-0.8,1
			c-0.2,0.2-0.2,0.3,0,0.5c0.9,0.9,1.6,1.9,2,3.1c0.1,0.2,0.1,0.5,0.1,0.7c0,0.7-0.2,1.1-0.9,1.4c-0.6,0.2-1.3,0.3-1.9,0.3
			c-0.9,0-1.6-0.5-1.9-1.4c-0.1-0.4-0.3-0.8-0.4-1.2C655.2,398.7,655.2,398.5,654.9,398.2z M654.7,397.5c0.1,0.1,0.2,0.2,0.3,0.3
			c0.5,0.7,0.6,1.5,0.9,2.2c0.2,0.7,0.7,1.2,1.5,1.3c0.8,0.1,1.6,0,2.3-0.3c0.4-0.1,0.6-0.5,0.6-0.9c0-0.8-0.4-1.5-0.7-2.2
			c-0.4-0.7-1-1.3-1.5-1.9c-0.2-0.2-0.2-0.2,0-0.4c0.3-0.2,0.5-0.5,0.7-0.7c2.1-2.5,0.9-6.1-2.3-6.8c-1.5-0.3-3-0.3-4.5-0.1
			c-1,0.1-1.3,0.5-1.2,1.5c0,1.3,0,2.5,0.1,3.8c0,2.2,0,4.4,0,6.6c0,0.8,0.2,1.1,1,1.3c0.6,0.1,1.2,0.1,1.9,0.1c0.7-0.1,0.9-0.3,1-1
			c0.1-0.8,0.1-1.6,0.1-2.4C654.7,397.7,654.6,397.6,654.7,397.5z"/>
		<path fill="#834D0D" d="M636.3,387.6c1.1,0,2.1,0,3.2,0c0.9,0,1.4,0.4,1.6,1.3c0.1,0.7,0,1.4-0.1,2.1c-0.1,0.5-0.5,0.8-1,0.9
			c-0.3,0.1-0.5,0.1-0.8,0.1c-0.3,0-0.3,0.1-0.3,0.4c0,2.5,0.1,5,0,7.4c0,1.1-0.3,1.4-1.3,1.5c-0.7,0.1-1.5,0.1-2.2,0
			c-0.7-0.1-0.9-0.4-1-1.1c-0.1-2.5-0.1-5-0.2-7.5c0-0.4-0.1-0.4-0.4-0.4c-0.2,0-0.5,0-0.7,0c-0.4,0-0.6-0.2-0.7-0.6
			c-0.1-1-0.3-2-0.2-3c0-0.8,0.4-1.2,1.3-1.2C634.2,387.7,635.3,387.6,636.3,387.6z M636.3,401.3c0.5,0,1,0,1.5-0.2
			c0.4-0.1,0.7-0.4,0.7-0.8c0-1.2,0.1-2.3,0.1-3.5c-0.1-1.6,0-3.1-0.1-4.7c0-0.2,0.1-0.3,0.3-0.3c0.2,0,0.4,0,0.6,0
			c0.7-0.1,1.2-0.3,1.3-0.8c0.1-0.7,0.2-1.5,0.1-2.2c-0.1-0.5-0.4-0.8-0.9-0.9c-0.4-0.1-0.7,0-1.1,0c-1.9,0-3.7,0.1-5.6-0.1
			c-0.7,0-1,0.2-1,1c0,0.8,0.1,1.6,0.2,2.5c0.1,0.8,0.1,0.9,0.9,0.9c1,0,1,0,1,1c0.1,2.4,0.1,4.9,0.2,7.3c0,0.4,0.2,0.6,0.6,0.8
			C635.4,401.3,635.9,401.3,636.3,401.3z"/>
		<path fill="#844F10" d="M672.9,389.5c0.1-0.3,0.2-0.4,0.3-0.6c0-0.1,0.1-0.1,0.2-0.1c0.1,0,0.1,0.1,0.1,0.2c0,0.3,0,0.6-0.1,0.9
			c-0.2-0.2,0-0.5-0.1-0.7c-0.1,0.2-0.2,0.4-0.3,0.7c-0.2-0.2-0.2-0.5-0.4-0.7c0,0.3,0,0.5,0,0.7c0,0-0.1,0-0.1,0
			c-0.1-0.3-0.1-0.6,0-0.9c0-0.1,0.2-0.1,0.2,0.1C672.7,389.1,672.8,389.2,672.9,389.5z"/>
		<path fill="#844F10" d="M672.1,388.8c-0.6,0.2-0.1,0.7-0.4,1c-0.3-0.2,0.2-0.8-0.4-0.9C671.6,388.7,671.9,388.8,672.1,388.8z"/>
		<path fill="#DFD9CE" d="M622,420c0.4-1.7,0.6-3.5,0.6-5.3c-0.1-4-1.4-7.6-3.7-10.9c-0.8-1.2-1.8-2.4-2.7-3.6
			c-0.2-0.2-0.2-0.4,0.1-0.5c0.2-0.1,0.4-0.5,0.7-0.4c0.2,0.1,0.3,0.4,0.5,0.6c0.4,0.5,0.9,1.1,1.3,1.6c0.2,0.3,0.3,0.2,0.5,0
			c0-0.1,0.1-0.1,0.1-0.1c0.1,0.1,0.2,0.3,0.3,0.4c0.1,0.2,0.2,0.2,0.3,0c0.3-0.7,0.6-1.5,0.9-2.2c0.9,0.6,1.8,1.1,2.9,1.3
			c1.6,0.3,3.1,0,4.5-0.7c0.7,2.4,1,4.8,0.8,7.2c-0.1,1.8-0.5,3.5-1.1,5.2c-1,2.7-2.7,5-4.9,6.8C622.7,419.6,622.4,419.9,622,420z"
			/>
		<path fill="#F3783D" d="M607.8,394.7c0-1.3,0.2-2.7,0.9-3.9c0.6-1.2,1.6-2,3-2.2c1.1-0.2,2.3-0.2,3.3,0.2c1.5,0.5,2.5,1.6,3.1,3.1
			c0.7,1.9,0.8,3.8-0.1,5.6c-1,2-3.5,3.3-5.6,2.9c-2.5-0.5-4.2-2.2-4.5-4.6C607.8,395.4,607.8,395,607.8,394.7z M615.5,394.1
			c0-1.1-0.8-2-2-2c-1.1,0-2,0.9-2,2c0,1.1,0.9,2,2,2C614.7,396.1,615.5,395.3,615.5,394.1z"/>
		<path fill="#F3783D" d="M619.6,395.4c0-1.8,0.5-3.3,1.7-4.6c1.1-1,2.3-1.7,3.8-1.8c1.4-0.1,2.7,0.5,3.7,1.5
			c1.2,1.1,1.8,2.6,1.9,4.2c0,1.3-0.2,2.4-0.9,3.5c-0.8,1.3-2.1,2-3.6,2.3c-1.6,0.3-3.2,0.1-4.6-0.8c-1.3-0.8-1.9-2.1-2-3.6
			C619.6,395.9,619.6,395.6,619.6,395.4z M624.9,396.4c1.1,0,2-0.8,2-2c0-1.1-0.9-2-1.9-2c-1.1,0-2,0.9-2,2
			C622.9,395.5,623.7,396.4,624.9,396.4z"/>
		<path fill="#D0C4BA" d="M622,420c0.5-0.1,0.7-0.4,1.1-0.7c2.2-1.9,3.9-4.1,4.9-6.8c0.6-1.7,1-3.4,1.1-5.2c0.2-2.5-0.1-4.9-0.8-7.2
			c0.3-0.1,0.2,0.1,0.3,0.2c0.6,1.4,1.1,2.9,1.3,4.5c0.9,6.6-0.3,12.8-3.6,18.6c-1.1,1.9-2.6,3.5-4.5,4.6c-1.1,0.6-2.3,1-3.6,1.1
			c-0.1,0-0.1,0-0.2,0C619.8,426.3,621.2,423.3,622,420z"/>
		<path fill="#96765C" d="M611.2,402.3c-0.1,5.7,0.2,11.2,2.5,16.5c1.1-3.2,1.6-6.6,1.7-10c0.9,4.5-0.2,8.7-1.9,12.9
			c-1-2.1-1.7-4.2-2.3-6.3c-0.6-2.1-0.9-4.3-1-6.5c-0.1,0.3-0.1,0.5-0.1,0.8c0,1.5-0.1,3.1,0.1,4.6c0.1,1.5,0.4,2.9,0.7,4.3
			c0.6,2.2,1.4,4.3,2.5,6.3c0.3,0.5,0.3,0.5,0.6,0c1.3-1.8,2-3.9,2.6-6c0.5-1.9,0.9-3.8,1.2-5.7c0.3,2.7-0.1,5.4-0.9,8
			c-0.8,2.6-2,5.1-3.7,7.3c-0.4-0.4-0.6-0.9-0.8-1.3c-1.7-3.1-2.9-6.3-3.5-9.8c-0.3-2-0.5-3.9-0.4-5.9c0.2-2.7,0.7-5.3,1.8-7.8
			C610.7,403.4,610.9,402.8,611.2,402.3z"/>
		<path fill="#96765C" d="M614,400.6c0.4-0.1,0.8-0.2,1.2-0.4c0.2-0.1,0.3-0.1,0.4,0.1c1.2,1.9,2.5,3.6,3.5,5.6c1,2.1,1.7,4.3,2,6.7
			c0.1,1,0.2,2,0.2,3c-0.1,1.7-0.4,3.4-0.9,5.1c-0.4,1.3-0.8,2.6-1.7,3.7c-0.6,0.7-0.7,1.5-0.9,2.3c-0.1,0.4-0.2,0.7-0.4,1.1
			c0.1-0.5,0.1-1,0.2-1.5c0-0.3,0.1-0.5,0.1-0.8c-0.1-1,0.5-1.7,0.8-2.5c0.8-1.9,1.3-3.8,1.4-5.8c0.2-2.3-0.2-4.5-0.8-6.7
			c-1-3.5-2.6-6.7-4.9-9.5C614.1,400.8,614.1,400.7,614,400.6z"/>
		<path fill="#96765B" d="M610,400.5c-0.2,0.6-0.5,1.1-0.7,1.7c-0.8,2-1.4,4.1-1.7,6.2c-0.4,2.3-0.5,4.6-0.5,7
			c0.1,2.1,0.3,4.2,0.7,6.2c0.1,0.5,0.3,1.1,0.3,1.6l0,0c-0.4-0.9-0.6-1.9-0.9-2.8c-0.5-2-0.8-4.1-1-6.1c-0.2-3.1,0.1-6.1,1.1-9
			c0.6-1.6,1.4-3.1,2.4-4.5C609.8,400.6,609.9,400.6,610,400.5C610,400.5,610,400.5,610,400.5z"/>
		<path fill="#96765B" d="M616.5,424.6c0.1,2-0.3,3.9-1,5.8c-0.3,0.7-0.6,1.4-1.1,2c-0.1,0.1-0.2,0.3-0.4,0.2
			c-0.1-0.1-0.2,0.1-0.3,0.2c-0.1,0.2-0.3,0.4-0.5,0.7c-0.2-0.6-0.4-1.2-0.7-1.7c-0.1-0.1,0-0.5-0.4-0.2c-0.1,0.1-0.1-0.1-0.2-0.2
			c-0.5-1.1-0.9-2.2-1.4-3.4c-0.1-0.1-0.1-0.3-0.2-0.4c-0.1,0.1-0.1,0.2-0.2,0.3c-0.2-0.4-0.4-0.8-0.5-1.2c-0.2,0-0.1,0.2-0.2,0.2
			c-0.5-1.5-1-3.1-1.3-4.7c0.7,1.4,1.3,2.7,2,4.2c0.1-0.4,0.1-0.6,0.2-1c0.4,1,0.7,1.8,1,2.7c0.3,0.7,0.5,1.4,0.8,2.2
			c0.1,0.2,0.1,0.4,0.4,0.1c0.2-0.2,0.2-0.1,0.2,0.1c0.1,0.4,0.2,0.9,0.4,1.3c0,0.1,0,0.2,0.1,0.2c0.1,0,0.2-0.1,0.2-0.2
			c0.4-0.6,0.7-1.3,1-2c0.6-1.6,1.1-3.2,1.6-4.9C616.3,424.9,616.4,424.7,616.5,424.6C616.4,424.6,616.5,424.6,616.5,424.6z"/>
		<path fill="#957559" d="M624.1,387.4c0.9-0.2,1.7-0.5,2.4-0.9c1.5-0.7,2.6-1.9,3.4-3.3c0.1-0.2,0.2-0.4,0.4-0.6
			c0.2-0.3,0.4-0.3,0.7,0c0.2,0.3,0.3,0.7,0.3,1c0,0.6-0.1,1.2-0.2,1.7c0,0.1-0.1,0.2,0,0.3c0.3,0.2,0.2,0.5,0.1,0.8
			c0,0.4,0.1,0.8,0.2,1.3c0.1,0.8-0.1,1.6-0.1,2.4c0,0.3-0.1,0.6-0.2,0.9c0-0.2,0-0.5,0-0.7c0-1.1,0.1-2.1-0.2-3.2
			c-0.1-0.3-0.3-0.5,0-0.8c0.1-0.2-0.1-0.3-0.3-0.3c-0.3,0-0.2-0.1-0.2-0.3c0.3-0.6,0.5-1.2,0.5-1.9c0-0.1,0-0.2,0-0.3
			c-0.1-0.2-0.1-0.4-0.2-0.4c-0.2,0-0.2,0.2-0.3,0.3c-1.2,2.2-3.1,3.5-5.5,3.9C624.6,387.4,624.4,387.5,624.1,387.4z"/>
		<path fill="#957559" d="M612,386.6c-1.7-0.8-3-2-3.8-3.7c-0.3,0.4-0.4,0.8-0.3,1.3c0.1,0.6,0.2,1.1,0.4,1.6
			c0.1,0.2,0.1,0.3-0.2,0.3c-0.2,0-0.3,0.2-0.2,0.4c0.1,0.2,0.1,0.3,0,0.4c-0.1,0.2-0.1,0.4-0.1,0.6c0,0.7,0,1.5,0,2.2
			c-0.2-0.9-0.3-1.8-0.2-2.7c0-0.2,0.1-0.4,0-0.6c0-0.1-0.1-0.3,0-0.3c0.5-0.5,0-1,0-1.5c0-0.6,0-1.1,0.2-1.6
			c0.1-0.2,0.3-0.4,0.5-0.4c0.2,0,0.3,0.2,0.4,0.4c0.3,0.9,0.8,1.6,1.5,2.3c0.5,0.5,1,0.9,1.6,1.2C611.9,386.4,612,386.4,612,386.6z
			"/>
		<path fill="#957559" d="M623.5,388.6c0.5-0.3,1-0.3,1.5-0.4c1.4-0.1,2.7,0.1,3.8,1c0.5,0.4,0.9,1,1.1,1.6
			c-0.4-0.4-0.7-0.8-1.2-1.1c-0.9-0.7-1.9-1-3-1.2C625,388.4,624.3,388.6,623.5,388.6L623.5,388.6z"/>
		<path fill="#957559" d="M609.1,388.9c0.1-0.4,0.4-0.5,0.7-0.7c1.4-1,2.9-1,4.4-0.4c0.2,0.1,0.4,0.1,0.6,0.3c-0.2,0-0.4,0-0.5-0.1
			c-1.8-0.5-3.5-0.3-5,0.9C609.2,388.9,609.2,388.9,609.1,388.9L609.1,388.9z"/>
		<path fill="#98785F" d="M620.9,399.5c-0.3,0.7-0.6,1.5-0.9,2.2c-0.1,0.2-0.2,0.2-0.3,0c-0.1-0.2-0.2-0.3-0.3-0.4
			c0.4-0.6,0.8-1.2,1.2-1.7C620.7,399.4,620.8,399.3,620.9,399.5z"/>
		<path fill="#957559" d="M607.9,390.1C607.8,390.1,607.8,390.1,607.9,390.1C607.8,390.1,607.8,390.1,607.9,390.1
			C607.8,390.1,607.8,390,607.9,390.1C607.8,390,607.9,390.1,607.9,390.1z"/>
		<path fill="#957559" d="M623.5,388.6c0,0.1-0.1,0.1-0.2,0.1c0,0,0,0,0,0C623.4,388.6,623.5,388.6,623.5,388.6L623.5,388.6z"/>
		<path fill="#96765B" d="M608,423.2c0.1,0,0.1,0.1,0.1,0.2c0,0,0,0,0,0C608,423.3,608,423.2,608,423.2L608,423.2z"/>
		<path fill="#96765C" d="M617.3,428C617.3,428,617.3,428.1,617.3,428c0,0.1,0,0.1,0,0.1C617.3,428.1,617.3,428.1,617.3,428
			C617.3,428.1,617.3,428,617.3,428z"/>
		<path fill="#96765C" d="M611.4,402.1C611.4,402.1,611.4,402.1,611.4,402.1C611.4,402.1,611.4,402.2,611.4,402.1
			C611.3,402.2,611.3,402.2,611.4,402.1C611.3,402.1,611.3,402.1,611.4,402.1z"/>
		<path fill="#957559" d="M630.1,391C630.1,391.1,630.1,391.1,630.1,391c0,0.1,0,0.1,0,0.1C630.1,391.1,630.1,391.1,630.1,391
			L630.1,391z"/>
		<path fill="#957559" d="M612.1,386.6C612.1,386.6,612.2,386.6,612.1,386.6C612.2,386.6,612.2,386.6,612.1,386.6
			C612.2,386.6,612.2,386.6,612.1,386.6C612.1,386.6,612.1,386.6,612.1,386.6z"/>
		<path fill="#957559" d="M609,389.1C609,389,609,389,609,389.1C609,389,609,389,609,389.1C609,389,609,389,609,389.1L609,389.1z"/>
		<path fill="#957559" d="M609.1,388.9C609.1,388.9,609.1,389,609.1,388.9C609,389,609,389,609.1,388.9
			C609.1,389,609.1,388.9,609.1,388.9L609.1,388.9z"/>
		<path fill="#957559" d="M609,389.1C608.9,389.1,608.9,389.1,609,389.1C608.9,389.1,608.9,389.1,609,389.1L609,389.1z"/>
		<path fill="#96765B" d="M610,400.5C610,400.5,610,400.4,610,400.5C610.1,400.5,610,400.5,610,400.5C610,400.5,610,400.5,610,400.5
			z"/>
		<path fill="#957559" d="M630.1,391C630.1,391,630.1,391,630.1,391C630.1,391,630.1,391,630.1,391C630.1,391,630.1,391,630.1,391
			L630.1,391z"/>
		<path fill="#F3783D" d="M595.7,394.7c0-1.8,0-3.6,0-5.4c0-1.1,0.5-1.6,1.6-1.6c0.5,0,1.1,0,1.6,0c0.7,0,1.2,0.3,1.2,1.2
			c0,1.2,0,2.3,0.1,3.5c0,0.2,0.1,0.3,0.3,0.3c0.4-0.1,0.8-0.1,1.2-0.1c0.3,0,0.4-0.1,0.3-0.4c-0.1-1,0-2.1-0.1-3.1
			c-0.1-0.6,0.5-1.2,1.1-1.3c0.8-0.1,1.6-0.1,2.4,0.1c0.7,0.1,0.9,0.4,0.9,1.1c0,2.4,0,4.8,0.1,7.3c0,1.2,0,2.5,0.1,3.7
			c0,0.6-0.2,0.9-0.7,1c-0.9,0.3-1.7,0.3-2.6,0.1c-0.7-0.1-0.9-0.5-0.9-1.2c0-0.8,0-1.6,0-2.5c0-0.3,0-0.7-0.1-1
			c0-0.2-0.1-0.2-0.3-0.2c-0.6,0.1-1.1,0.1-1.7,0.2c-0.2,0-0.2,0.2-0.2,0.3c0,0.8,0,1.7-0.1,2.5c0,0.4-0.1,0.7-0.1,1.1
			c-0.1,0.5-0.4,0.8-0.9,0.8c-0.7,0-1.5,0-2.2,0c-0.7,0-1-0.4-1-1.1C595.7,398.4,595.7,396.6,595.7,394.7
			C595.7,394.7,595.7,394.7,595.7,394.7z"/>
		<path fill="#F3783D" d="M665.1,401.3c-1.1,0-2.2-0.1-3.2-0.9c-0.7-0.6-1.1-1.4-1-2.4c0.1-1.2,1.6-1.9,2.6-1.3
			c0.5,0.3,1.1,0.6,1.6,1c0.2,0.1,0.4,0.3,0.5,0.1c0.2-0.2,0-0.4-0.1-0.6c-0.1-0.2-0.3-0.3-0.4-0.4c-1.2-0.7-2.3-1.4-3.3-2.5
			c-0.6-0.7-1.2-1.5-1.2-2.5c0-1.7,0.9-3.2,2.5-3.8c1.6-0.6,3.2-0.7,4.8,0c1.2,0.5,1.8,1.5,1.9,2.8c0.1,1-0.5,1.6-1.6,1.7
			c-0.8,0.1-1.5-0.2-2.2-0.6c-0.1,0-0.1-0.1-0.2-0.1c-0.3-0.1-0.6-0.2-0.8,0.1c-0.2,0.3-0.1,0.6,0.2,0.8c0.4,0.3,0.9,0.5,1.3,0.7
			c0.7,0.3,1.3,0.7,1.9,1.3c1.2,1.3,1.5,3.6,0.6,5c-0.6,0.9-1.6,1.3-2.6,1.4C666.1,401.3,665.6,401.3,665.1,401.3z"/>
		<path fill="#F3783D" d="M645.6,387.8c0.9,0,1.8,0,2.7,0c0.6,0,1,0.3,1.1,0.9c0.1,0.7,0.1,1.4,0.1,2.1c-0.1,0.6-0.4,1-1.1,1
			c-0.7,0-1.3,0-2,0c-0.5,0-0.6,0.1-0.6,0.6c0,0.4,0.1,0.5,0.5,0.5c0.6,0,1.1,0,1.7,0.1c0.3,0,0.6,0.3,0.6,0.7c0,0.6,0,1.2-0.1,1.8
			c0,0.5-0.4,0.7-0.8,0.7c-0.5,0.1-1.1,0.1-1.6,0.1c-0.3,0-0.3,0.1-0.3,0.3c0,0.4,0,0.7,0,1.1c-0.1,0.2,0,0.4,0.3,0.3
			c0.8,0,1.6-0.1,2.4-0.1c0.6,0,0.8,0.2,0.8,0.7c0.1,0.6,0,1.2,0,1.8c-0.1,0.5-0.5,0.8-1.1,0.9c-1.5,0.1-3,0.2-4.5,0.1
			c-0.9-0.1-1.7-0.6-1.8-1.8c-0.1-2.1-0.3-4.2-0.3-6.3c0-1.4,0.1-2.9,0.3-4.3c0.1-0.8,0.4-1.1,1.2-1.1
			C643.9,387.8,644.8,387.8,645.6,387.8z"/>
		<path fill="#F3783D" d="M654.7,397.5c-0.1,0.1,0,0.3-0.1,0.4c0,0.8,0,1.6-0.1,2.4c-0.1,0.7-0.3,0.9-1,1c-0.6,0.1-1.2,0-1.9-0.1
			c-0.8-0.2-1-0.4-1-1.3c0-2.2,0-4.4,0-6.6c0-1.3,0-2.5-0.1-3.8c0-1,0.3-1.4,1.2-1.5c1.5-0.2,3.1-0.2,4.5,0.1
			c3.1,0.7,4.3,4.3,2.3,6.8c-0.2,0.3-0.4,0.5-0.7,0.7c-0.2,0.2-0.2,0.3,0,0.4c0.6,0.6,1.1,1.1,1.5,1.9c0.4,0.7,0.7,1.4,0.7,2.2
			c0,0.4-0.2,0.8-0.6,0.9c-0.7,0.3-1.5,0.4-2.3,0.3c-0.7-0.1-1.2-0.6-1.5-1.3c-0.3-0.8-0.4-1.6-0.9-2.2
			C654.9,397.7,654.9,397.5,654.7,397.5z M654.4,393c0,0.2,0,0.5,0,0.7c0,0.1,0,0.2,0.1,0.2c0.4,0.1,0.9-0.1,1.1-0.5
			c0.1-0.3,0.1-0.7,0-1c-0.1-0.3-0.6-0.5-1-0.4c-0.3,0.1-0.1,0.4-0.1,0.6C654.4,392.7,654.4,392.9,654.4,393z"/>
		<path fill="#F3783D" d="M636.3,401.3c-0.4,0-0.8,0-1.2-0.1c-0.4-0.1-0.6-0.3-0.6-0.8c0-2.4-0.1-4.9-0.2-7.3c0-1,0-1-1-1
			c-0.8,0-0.9-0.1-0.9-0.9c-0.1-0.8-0.2-1.6-0.2-2.5c0-0.7,0.3-1,1-1c1.9,0.1,3.7,0,5.6,0.1c0.4,0,0.7-0.1,1.1,0
			c0.5,0.1,0.8,0.4,0.9,0.9c0.1,0.8,0,1.5-0.1,2.2c-0.1,0.5-0.6,0.8-1.3,0.8c-0.2,0-0.4,0-0.6,0c-0.2,0-0.3,0.1-0.3,0.3
			c0,1.6,0,3.1,0.1,4.7c0.1,1.2,0,2.3-0.1,3.5c0,0.4-0.2,0.7-0.7,0.8C637.3,401.3,636.8,401.3,636.3,401.3z"/>
		<path fill="#844F10" d="M615.5,394.1c0,1.1-0.9,2-2,2c-1.1,0-2-0.9-2-2c0-1.1,0.9-2,2-2C614.7,392.1,615.6,393,615.5,394.1z
			 M611.8,394.1c0,1,0.8,1.8,1.8,1.8c1,0,1.8-0.8,1.8-1.8c0-1-0.8-1.8-1.8-1.8C612.6,392.3,611.8,393.1,611.8,394.1z"/>
		<path fill="#844F10" d="M624.9,396.4c-1.1,0-2-0.9-2-2c0-1.1,0.9-2,2-2c1.1,0,1.9,0.9,1.9,2C626.9,395.6,626,396.4,624.9,396.4z
			 M623.1,394.4c0,1,0.8,1.8,1.8,1.8c1,0,1.8-0.8,1.8-1.8c0-1-0.8-1.8-1.8-1.8C623.9,392.7,623.1,393.5,623.1,394.4z"/>
		<path fill="#DFD9CE" d="M619.3,400.2c-0.1-0.9,0.1-1.7,0.1-2.5c0.2,0,0.1,0.1,0.2,0.2c0.1,0.4,0.1,0.8,0.4,1
			c0.2,0.2,0.1,0.3,0,0.5C619.8,399.7,619.6,399.9,619.3,400.2z"/>
		<path fill="#844F10" d="M654.4,393c0-0.1,0-0.3,0-0.4c0-0.2-0.2-0.5,0.1-0.6c0.4-0.1,0.9,0.1,1,0.4c0.1,0.3,0.1,0.7,0,1
			c-0.1,0.4-0.7,0.6-1.1,0.5c-0.1,0-0.1-0.1-0.1-0.2C654.4,393.5,654.4,393.2,654.4,393z M654.7,393c0,0.2,0,0.3,0,0.5
			c0,0.2,0.1,0.3,0.3,0.2c0.3,0,0.5-0.2,0.5-0.5c0-0.4,0.1-0.7-0.3-0.9c-0.3-0.2-0.5,0-0.5,0.3C654.7,392.7,654.7,392.9,654.7,393z"
			/>
		<path fill="#7D4904" d="M614.3,394.3c0,0.4-0.4,0.7-0.7,0.6c-0.4,0-0.7-0.4-0.6-0.7c0-0.4,0.3-0.7,0.7-0.6
			C614.1,393.6,614.3,393.9,614.3,394.3z"/>
		<path fill="#834D0D" d="M625.6,394.5c0,0.4-0.3,0.7-0.7,0.7c-0.4,0-0.7-0.3-0.7-0.7c0-0.4,0.3-0.7,0.7-0.7
			C625.3,393.8,625.6,394.1,625.6,394.5z"/>
	</g>
	<rect x="660" y="515" fill="#FCC792" width="49" height="270"/>
	<rect x="587" y="515" fill="#FCC792" width="49" height="270"/>
	<rect x="586" y="515.2" fill="#F47D08" width="122.8" height="56.9"/>
	<polyline fill="#EAB788" fill-opacity="0.42" points="636.1,654 636.1,572 587.1,572 587.1,619 	"/>
	<polyline fill="#F47D08" points="636,597 636,563 587,563 587,597 	"/>
	<polyline fill="#F47D08" points="709,598 709,564 660,564 660,598 	"/>
</g>
<g id="Layer_6">
	<g>
		<ellipse fill="#898989" cx="452.2" cy="318.8" rx="56.5" ry="7.3"/>
		<ellipse fill="#A8A8A8" cx="452.2" cy="311.4" rx="86.2" ry="7.3"/>
		<ellipse fill="#B7B6B6" cx="452.5" cy="309.9" rx="73.9" ry="3.7"/>
	</g>
</g>
<g id="Layer_7">
	<g>
		<path fill="#DA8031" d="M403.7,297.6c0,0,6.3-6.9,12.1-6.4c0,0,4.6,3.1,5.9,2.4c1.4-0.7,2.5,8.1,1.2,8.5c-1.3,0.4-1.7,4.4-1.7,4.4
			s-2.5,4-6,3.5c-3.5-0.5-2.7,1.2-2.7,1.2s-6.8-1.8-7.5-1.8c-0.7,0-9-1.1-10.2,1.7c-1.2,2.8-4.9,1.1-5.5,0.9
			c-0.6-0.2-2.5-0.4-2.6-3.7c-0.1-3.3-1.1-3.3-1.1-3.3s0.9-2.5,3.9-1.8c2.9,0.7,1.5,1.7,4.6,1.8c3.1,0,4.9-5.5,4.9-5.5L403.7,297.6z
			"/>
		<polygon fill="#C84430" points="390.5,311.7 394.1,307.5 396.8,307.3 398.6,307.7 400.8,307.2 402.7,307.6 403.4,304.7 
			405.5,306.1 407.3,308.7 409,310 403.5,308.5 398.1,308.5 393.8,310 		"/>
		<g>
			<g opacity="0.32">
				<path fill="#C84430" d="M413.7,296.1c2-0.3,3.9,0.4,5.5,1.6c1.5,1.2,3-1.4,1.5-2.6c-2.3-1.7-5-2.3-7.8-1.9
					C411,293.4,411.8,296.3,413.7,296.1L413.7,296.1z"/>
			</g>
		</g>
	</g>
	<g>
		<path fill="#DA8031" d="M429.9,292.9c0,0,9.2-1.5,13.5,2.5c0,0,1.6,5.3,3.2,5.6c1.5,0.3-3.1,8-4.3,7.5s-4.1,2.4-4.1,2.4
			s-4.4,1.6-6.9-0.9s-2.9-0.7-2.9-0.7s-4.2-5.6-4.8-6c-0.5-0.4-6.4-6.4-9-5s-4.5-2.2-4.9-2.7s-1.7-1.9,0.3-4.5
			c2-2.6,1.2-3.3,1.2-3.3s2.3-1.4,4.2,1c1.9,2.4,0.1,2.3,2.5,4.2c2.4,1.9,7.3-1.3,7.3-1.3L429.9,292.9z"/>
		<polygon fill="#C84430" points="410.8,295.8 416.1,294.7 418.5,296.2 419.6,297.6 421.6,298.6 422.9,300.2 425.2,298.3 426,300.6 
			425.8,303.8 426.4,305.9 423,301.4 418.7,297.9 414.4,296.4 		"/>
		<g>
			<g opacity="0.32">
				<path fill="#C84430" d="M438.5,297.8c1.8,1,2.9,2.6,3.4,4.6c0.5,1.9,3.4,1.1,2.9-0.8c-0.7-2.7-2.4-5-4.8-6.4
					C438.3,294.2,436.8,296.8,438.5,297.8L438.5,297.8z"/>
			</g>
		</g>
	</g>
	<g>
		<path fill="#DA8031" d="M463.5,304.9c0,0-5.5,7.5-11.4,7.6c0,0-4.9-2.6-6.2-1.8s-3.4-7.8-2.1-8.3c1.2-0.5,1.3-4.6,1.3-4.6
			s2.1-4.3,5.6-4.2s2.5-1.5,2.5-1.5s6.9,1,7.6,1c0.7-0.1,9.1,0.2,9.9-2.8c0.9-2.9,4.7-1.6,5.4-1.5s2.5,0.1,2.9,3.4
			c0.4,3.2,1.4,3.2,1.4,3.2s-0.7,2.6-3.6,2.2c-3-0.4-1.7-1.6-4.7-1.3c-3.1,0.3-4.3,6-4.3,6L463.5,304.9z"/>
		<polygon fill="#C84430" points="475.1,289.4 472.1,294 469.4,294.5 467.6,294.3 465.4,295 463.5,294.8 463.1,297.7 460.9,296.6 
			458.8,294.2 457,293.1 462.6,294 468,293.5 472.1,291.5 		"/>
		<g>
			<g opacity="0.32">
				<path fill="#C84430" d="M453.9,307.4c-2,0.5-3.9,0.2-5.6-0.9c-1.7-1-3.2,1.6-1.5,2.6c2.4,1.5,5.2,1.8,7.9,1.2
					C456.6,309.8,455.8,306.9,453.9,307.4L453.9,307.4z"/>
			</g>
		</g>
	</g>
	<g>
		<path fill="#DA8031" d="M486.5,306.9c0,0-5.5,7.5-11.4,7.6c0,0-4.9-2.6-6.2-1.8s-3.4-7.8-2.1-8.3c1.2-0.5,1.3-4.6,1.3-4.6
			s2.1-4.3,5.6-4.2s2.5-1.5,2.5-1.5s6.9,1,7.6,1c0.7-0.1,9.1,0.2,9.9-2.8c0.9-2.9,4.7-1.6,5.4-1.5s2.5,0.1,2.9,3.4
			c0.4,3.2,1.4,3.2,1.4,3.2s-0.7,2.6-3.6,2.2c-3-0.4-1.7-1.6-4.7-1.3c-3.1,0.3-4.3,6-4.3,6L486.5,306.9z"/>
		<polygon fill="#C84430" points="498.1,291.4 495.1,296 492.4,296.5 490.6,296.3 488.4,297 486.5,296.8 486.1,299.7 483.9,298.6 
			481.8,296.2 480,295.1 485.6,296 491,295.5 495.1,293.5 		"/>
		<g>
			<g opacity="0.32">
				<path fill="#C84430" d="M476.9,309.4c-2,0.5-3.9,0.2-5.6-0.9c-1.7-1-3.2,1.6-1.5,2.6c2.4,1.5,5.2,1.8,7.9,1.2
					C479.6,311.8,478.8,308.9,476.9,309.4L476.9,309.4z"/>
			</g>
		</g>
	</g>
	<g>
		<path fill="#DA8031" d="M513.7,291.4c0,0,9.3,0.3,12.7,5.2c0,0,0.5,5.5,2,6.1c1.4,0.6-4.6,7.2-5.7,6.4c-1.1-0.7-4.5,1.5-4.5,1.5
			s-4.7,0.7-6.6-2.3c-1.9-3-2.7-1.3-2.7-1.3s-3-6.3-3.4-6.8c-0.4-0.5-4.9-7.6-7.8-6.7c-2.9,0.9-4-3-4.3-3.6
			c-0.3-0.6-1.3-2.2,1.2-4.3s1.9-3,1.9-3s2.5-0.9,3.9,1.8c1.3,2.7-0.4,2.2,1.6,4.6c1.9,2.4,7.4,0.2,7.4,0.2L513.7,291.4z"/>
		<polygon fill="#C84430" points="494.5,290.4 499.9,290.4 501.9,292.3 502.7,294 504.5,295.3 505.4,297.1 508.1,295.7 508.4,298.2 
			507.5,301.3 507.7,303.4 505.3,298.3 501.8,294.1 497.9,291.7 		"/>
		<g>
			<g opacity="0.32">
				<path fill="#C84430" d="M521.1,297.9c1.5,1.4,2.4,3.1,2.5,5.1c0.1,1.9,3.1,1.9,3,0c-0.1-2.8-1.3-5.4-3.4-7.2
					C521.8,294.5,519.7,296.6,521.1,297.9L521.1,297.9z"/>
			</g>
		</g>
	</g>
	<g>
		<path fill="#DA8031" d="M454.1,279.5c0,0,6.8-6.4,12.6-5.4c0,0,4.3,3.5,5.7,2.9c1.4-0.6,1.9,8.3,0.6,8.6s-2.1,4.3-2.1,4.3
			s-2.8,3.8-6.2,3.1c-3.4-0.7-2.8,1-2.8,1s-6.6-2.3-7.3-2.3c-0.7,0-8.9-1.8-10.3,0.9c-1.4,2.7-4.9,0.7-5.6,0.5
			c-0.6-0.2-2.4-0.6-2.3-3.9c0.2-3.3-0.8-3.4-0.8-3.4s1.1-2.4,4-1.5s1.3,1.8,4.4,2.1c3.1,0.3,5.3-5.1,5.3-5.1L454.1,279.5z"/>
		<polygon fill="#C84430" points="439.9,292.6 443.7,288.7 446.5,288.7 448.2,289.2 450.4,288.9 452.3,289.5 453.2,286.6 
			455.2,288.1 456.8,290.9 458.4,292.3 453.1,290.4 447.6,289.9 443.2,291.1 		"/>
		<g>
			<g opacity="0.32">
				<path fill="#C84430" d="M463.8,278.8c2-0.1,3.9,0.4,5.4,1.8c1.4,1.3,3.6-0.8,2.1-2.1c-2.1-1.9-4.7-2.8-7.5-2.7
					C461.9,275.9,461.9,278.9,463.8,278.8L463.8,278.8z"/>
			</g>
		</g>
	</g>
	<g>
		<path fill="#DA8031" d="M422.7,275.4c0,0,9.3,0.3,12.7,5.2c0,0,0.5,5.5,2,6.1s-4.6,7.2-5.7,6.4c-1.1-0.7-4.5,1.5-4.5,1.5
			s-4.7,0.7-6.6-2.3s-2.7-1.3-2.7-1.3s-3-6.3-3.4-6.8c-0.4-0.5-4.9-7.6-7.8-6.7c-2.9,0.9-4-3-4.3-3.6c-0.3-0.6-1.3-2.2,1.2-4.3
			s1.9-3,1.9-3s2.5-0.9,3.9,1.8c1.3,2.7-0.4,2.2,1.6,4.6c1.9,2.4,7.4,0.2,7.4,0.2L422.7,275.4z"/>
		<polygon fill="#C84430" points="403.5,274.4 408.9,274.4 410.9,276.3 411.7,278 413.5,279.3 414.4,281.1 417.1,279.7 417.4,282.2 
			416.5,285.3 416.7,287.4 414.3,282.3 410.8,278.1 406.9,275.7 		"/>
		<g>
			<g opacity="0.32">
				<path fill="#C84430" d="M430.1,281.9c1.5,1.4,2.4,3.1,2.5,5.1c0.1,1.9,3.1,1.9,3,0c-0.1-2.8-1.3-5.4-3.4-7.2
					C430.8,278.5,428.7,280.6,430.1,281.9L430.1,281.9z"/>
			</g>
		</g>
	</g>
	<g>
		<path fill="#DA8031" d="M404.8,297.2c0,0-0.4,9.3-5.3,12.6c0,0-5.5,0.5-6.1,1.9c-0.6,1.4-7.1-4.7-6.4-5.8c0.8-1.1-1.5-4.5-1.5-4.5
			s-0.6-4.7,2.3-6.5c3-1.9,1.3-2.7,1.3-2.7s6.3-3,6.9-3.4s7.6-4.9,6.7-7.8c-0.9-2.9,3.1-3.9,3.7-4.2s2.2-1.3,4.3,1.2
			c2.2,2.5,3,1.9,3,1.9s0.9,2.5-1.8,3.9c-2.7,1.3-2.2-0.4-4.6,1.5c-2.4,1.9-0.3,7.4-0.3,7.4L404.8,297.2z"/>
		<polygon fill="#C84430" points="405.9,277.9 405.9,283.4 403.9,285.3 402.3,286.1 400.9,287.9 399.1,288.8 400.5,291.5 398,291.8 
			395,290.9 392.8,291 397.9,288.7 402.2,285.2 404.5,281.3 		"/>
		<g>
			<g opacity="0.32">
				<path fill="#C84430" d="M398.2,304.5c-1.4,1.5-3.1,2.4-5.1,2.4c-1.9,0.1-1.9,3.1,0,3c2.8-0.1,5.4-1.3,7.3-3.3
					C401.7,305.2,399.5,303.1,398.2,304.5L398.2,304.5z"/>
			</g>
		</g>
	</g>
	<g>
		<path fill="#DA8031" d="M477.7,272.4c0,0,9.3,0.3,12.7,5.2c0,0,0.5,5.5,2,6.1s-4.6,7.2-5.7,6.4c-1.1-0.7-4.5,1.5-4.5,1.5
			s-4.7,0.7-6.6-2.3s-2.7-1.3-2.7-1.3s-3-6.3-3.4-6.8c-0.4-0.5-4.9-7.6-7.8-6.7c-2.9,0.9-4-3-4.3-3.6c-0.3-0.6-1.3-2.2,1.2-4.3
			s1.9-3,1.9-3s2.5-0.9,3.9,1.8c1.3,2.7-0.4,2.2,1.6,4.6c1.9,2.4,7.4,0.2,7.4,0.2L477.7,272.4z"/>
		<polygon fill="#C84430" points="458.5,271.4 463.9,271.4 465.9,273.3 466.7,275 468.5,276.3 469.4,278.1 472.1,276.7 472.4,279.2 
			471.5,282.3 471.7,284.4 469.3,279.3 465.8,275.1 461.9,272.7 		"/>
		<g>
			<g opacity="0.32">
				<path fill="#C84430" d="M485.1,278.9c1.5,1.4,2.4,3.1,2.5,5.1c0.1,1.9,3.1,1.9,3,0c-0.1-2.8-1.3-5.4-3.4-7.2
					C485.8,275.5,483.7,277.6,485.1,278.9L485.1,278.9z"/>
			</g>
		</g>
	</g>
</g>
<g id="brazos">
	<path fill="none" stroke="#FCC792" stroke-width="17" stroke-linecap="round" stroke-miterlimit="10" d="M320.1,287.4
		c0,0,94.2,77.8,59.3,195"/>
	<path fill="none" stroke="#FCC792" stroke-width="17" stroke-linecap="round" stroke-miterlimit="10" d="M184.4,289
		c0,0-99.1,84.4-62.4,211.7"/>
	<path fill="none" stroke="#FCC792" stroke-width="14" stroke-linecap="round" stroke-miterlimit="10" d="M119.2,489.7
		c0.8,3.6,1.8,7.3,2.9,11"/>
</g>
<g id="torso">
	<g>
		<path fill="#FFFFFF" d="M314.3,273c0,0-0.7,0-28.1,0c-0.6,0-1.1,0-1.7,0l-0.4,70l-77.1-70c-1.5,0-2.9,0-4.3,0c-9,0-17.7,0-17.7,0
			c-5.8,0-5,5.4-5,14l27.1,148.2l-9.8,70.9c0,8.6,6.7,56.9,12.5,56.9h97c5.8,0,13.5-48.3,13.5-56.9l-10.9-76.4l15.1-142.3
			C324.4,278.8,320,273,314.3,273z"/>
	</g>
	<rect x="197.3" y="506.2" fill="#808285" width="122.8" height="56.9"/>
	<path fill="#FFFFFF" d="M343.7,338.5c0,19.1-15.5,34.6-34.6,34.6c-19.1,0-34.6-15.5-34.6-34.6c0-9.2,3.6-17.6,9.5-23.8
		c6.3-6.7,15.2-10.8,25.1-10.8C328.2,304,343.7,319.4,343.7,338.5z"/>
	<circle fill="#DDDDDD" cx="241.4" cy="346.5" r="36.1"/>
	<path fill="#FCC792" d="M248.1,310.4c14.8,1.8,25,11.8,28.6,26"/>
	<path fill="#E8BB91" d="M250.8,311.5l23.7,21.5C274.5,333,261.7,311.5,250.8,311.5z"/>
	<path fill="#FCC792" d="M284.2,313.6"/>
	<path fill="#FCC792" d="M284,343"/>
	<path fill="#FCC792" d="M284,343l-9.5-8.6c0,0,3.1-16,9.5-19.6L284,343z"/>
	<path fill="#E8BB91" d="M284,318.3l-6.5,18.1C277.5,336.4,275.8,321,284,318.3z"/>
	<g>
		<path fill="#7D4904" d="M274.2,365.1c0.6,0.4,0.8,1,0.9,1.7c0.1,0.5,0.1,1.1,0,1.6c0,0.2-0.1,0.4,0.1,0.6c0.1,0.1,0.1,0.2,0,0.3
			c-0.2,0.4,0,0.8,0,1.2c0.2,1.6-0.1,3.2-0.4,4.7c0,0.3-0.1,0.6,0,0.8c0.6,2.7,0.1,5.2-1.9,7.2c-0.2,0.2-0.1,0.3,0,0.5
			c1.3,2.5,2.2,5.1,2.7,7.9c0.7,3.9,0.6,7.7-0.6,11.4c-0.1,0.4-0.1,0.8-0.7,1c0,0-0.1,0.1-0.1,0.2c-0.5,1.8-1.4,3.3-2.6,4.7
			c-0.1,0.1-0.2,0.3-0.4,0.1c-0.1-0.2-0.2,0-0.3,0.1c-0.7,0.6-1.4,1.3-2.1,1.9c-0.1,0.1-0.2,0.2-0.3,0.2c-0.1-0.1-0.1-0.2-0.1-0.3
			c0-0.6,0.2-1.1,0.3-1.7c-0.2,0.1-0.2,0.2-0.3,0.3c-1.9,2-4.3,3.3-7.1,3.4c-0.2,0-0.3,0-0.5,0.2c-0.3,0.2-0.4,0.2-0.7-0.1
			c-0.2,0.5-0.4,0.9-0.6,1.3c-0.4,0.8-0.7,1.5-1.2,2.2c-0.2,0.2-0.3,0.5-0.7,0.4c-0.2,0-0.2,0.2-0.3,0.3c-0.2,0.2-0.4,0.7-0.7,0.7
			c-0.3,0-0.3-0.6-0.4-0.9c-0.1-0.3-0.2-0.6-0.3-0.8c-0.1-0.2,0-0.4-0.4-0.3c-0.2,0-0.2-0.2-0.3-0.4c-0.4-0.9-0.8-1.9-1.1-2.9
			c-0.1-0.2-0.1-0.4-0.4-0.3c-0.2,0-0.3-0.2-0.3-0.4c-0.1-0.2-0.1-0.5-0.4-0.5c0,0-0.1-0.1-0.1-0.2c-1.6-3.6-3-7.3-3.6-11.2
			c-0.5-3.6-0.5-7.2,0.5-10.8c0.6-2,1.5-3.8,2.9-5.5c0.1-0.1,0.2-0.2,0-0.4c-1.9-1.7-2.4-3.9-2.1-6.3c0.1-0.7,0.3-1.4,0.5-2.1
			c0.1-0.2,0.1-0.4,0-0.6c-0.4-1.2-0.7-2.5-0.4-3.8c0-0.3,0.1-0.5,0-0.8c0-0.1-0.1-0.3,0-0.3c0.3-0.3,0.1-0.6,0.1-0.9
			c-0.1-0.7-0.1-1.5,0.2-2.2c0.1-0.2,0.2-0.3,0.3-0.5c0.4-0.6,0.8-0.5,1.1,0.1c0.4,0.9,0.9,1.7,1.6,2.4c1,1,2.2,1.7,3.6,2.2
			c2.7,0.8,3.7,1.5,5.4,3.7c1.2-2.1,3.1-3.2,5.4-3.9c2.4-0.7,4.2-2.2,5.2-4.6c0.1-0.2,0.3-0.3,0.4-0.5
			C274,365.1,274.1,365.1,274.2,365.1z M252.6,372.5C252.6,372.5,252.5,372.5,252.6,372.5c-0.1,0.1-0.1,0.1-0.1,0.1
			C252.5,372.6,252.5,372.6,252.6,372.5C252.6,372.5,252.6,372.5,252.6,372.5C252.6,372.5,252.7,372.4,252.6,372.5
			c0.1-0.1,0.2-0.1,0.2-0.1c1.5-1.2,3.2-1.4,5-0.9c0.2,0,0.3,0.1,0.5,0.1c-0.2-0.2-0.4-0.2-0.6-0.3c-1.5-0.6-3-0.6-4.4,0.4
			C253.1,371.9,252.8,372.1,252.6,372.5C252.6,372.4,252.6,372.5,252.6,372.5z M273.7,374.5C273.7,374.5,273.6,374.5,273.7,374.5
			C273.6,374.5,273.6,374.5,273.7,374.5C273.6,374.5,273.6,374.5,273.7,374.5c0,0,0,0.1,0,0.1C273.7,374.6,273.7,374.6,273.7,374.5
			C273.7,374.6,273.7,374.6,273.7,374.5z M267.1,372.1c0.8,0,1.5-0.2,2.3-0.1c1.1,0.1,2.1,0.5,3,1.2c0.4,0.3,0.8,0.8,1.2,1.1
			c-0.2-0.6-0.6-1.2-1.1-1.6c-1.1-0.9-2.4-1.2-3.8-1C268.1,371.8,267.6,371.8,267.1,372.1c-0.1,0-0.1,0-0.2,0c0,0,0,0,0,0
			C267,372.2,267,372.2,267.1,372.1z M251.6,406.7c0,0.1,0,0.1,0,0.2c0,0,0,0,0,0C251.7,406.8,251.7,406.7,251.6,406.7
			c0-0.6-0.2-1.1-0.3-1.6c-0.4-2.1-0.6-4.1-0.7-6.2c-0.1-2.3,0.1-4.7,0.5-7c0.4-2.1,0.9-4.2,1.7-6.2c0.2-0.6,0.5-1.1,0.7-1.7
			c0,0,0.1,0,0-0.1c0,0,0,0,0,0c-0.1,0.1-0.2,0.2-0.2,0.2c-1,1.4-1.9,2.9-2.4,4.5c-1,2.9-1.3,5.9-1.1,9c0.1,2.1,0.5,4.1,1,6.1
			C251,404.8,251.2,405.8,251.6,406.7z M262.9,384.8c0,0-0.1,0.1-0.1,0.1c-0.2,0.3-0.3,0.3-0.5,0c-0.4-0.6-0.8-1.1-1.3-1.6
			c-0.2-0.2-0.3-0.5-0.5-0.6c-0.2-0.1-0.4,0.3-0.7,0.4c-0.3,0.1-0.3,0.3-0.1,0.5c0.9,1.2,1.8,2.3,2.7,3.6c2.3,3.3,3.6,6.9,3.7,10.9
			c0,1.8-0.2,3.6-0.6,5.3c-0.8,3.3-2.2,6.3-4.2,9.1c0.1,0,0.2,0,0.2,0c1.3-0.1,2.5-0.5,3.6-1.1c2-1.1,3.4-2.7,4.5-4.6
			c3.4-5.8,4.6-12,3.6-18.6c-0.2-1.5-0.6-3-1.3-4.5c0-0.1,0-0.4-0.3-0.2c-1.4,0.7-2.9,1-4.5,0.7c-1.1-0.2-2-0.6-2.9-1.3
			c-0.1-0.2-0.2-0.1-0.3,0C263.7,383.6,263.3,384.2,262.9,384.8z M251.3,378.2c0,0.4,0,0.7,0.1,1.1c0.3,2.5,2,4.2,4.5,4.6
			c2.1,0.4,4.6-0.9,5.6-2.9c0.9-1.8,0.8-3.7,0.1-5.6c-0.6-1.5-1.6-2.5-3.1-3.1c-1.1-0.4-2.2-0.4-3.3-0.2c-1.4,0.3-2.3,1-3,2.2
			C251.6,375.5,251.4,376.8,251.3,378.2z M263.2,378.9c0,0.3,0,0.5,0,0.8c0.2,1.5,0.7,2.8,2,3.6c1.4,0.9,3,1.1,4.6,0.8
			c1.5-0.3,2.8-1,3.6-2.3c0.7-1.1,0.9-2.3,0.9-3.5c0-1.7-0.6-3.1-1.9-4.2c-1-1-2.3-1.5-3.7-1.5c-1.5,0.1-2.8,0.7-3.8,1.8
			C263.6,375.5,263.1,377.1,263.2,378.9z M254.8,385.8c-0.3,0.5-0.5,1-0.7,1.5c-1,2.5-1.6,5.1-1.8,7.8c-0.1,2,0,3.9,0.4,5.9
			c0.6,3.5,1.8,6.7,3.5,9.8c0.2,0.4,0.5,0.9,0.8,1.3c1.7-2.3,2.9-4.7,3.7-7.3c0.8-2.6,1.1-5.3,0.9-8c-0.3,1.9-0.7,3.9-1.2,5.7
			c-0.6,2.1-1.4,4.2-2.6,6c-0.3,0.5-0.4,0.5-0.6,0c-1.1-2-2-4.1-2.5-6.3c-0.4-1.4-0.6-2.8-0.7-4.3c-0.2-1.5-0.1-3.1-0.1-4.6
			c0-0.3,0-0.5,0.1-0.8c0.1,2.2,0.4,4.4,1,6.5c0.6,2.1,1.3,4.2,2.3,6.3c1.7-4.2,2.8-8.4,1.9-12.9c-0.1,3.4-0.6,6.7-1.7,10
			C255,397.1,254.7,391.5,254.8,385.8z M257.6,384.1c0.1,0.1,0.1,0.2,0.2,0.3c2.2,2.9,3.9,6,4.9,9.5c0.6,2.2,1,4.4,0.8,6.7
			c-0.2,2-0.7,3.9-1.4,5.8c-0.3,0.8-0.9,1.6-0.8,2.5c0,0.3-0.1,0.5-0.1,0.8c-0.1,0.5-0.1,1-0.2,1.5c0.2-0.4,0.3-0.7,0.4-1.1
			c0.3-0.8,0.4-1.6,0.9-2.3c0.9-1.1,1.3-2.4,1.7-3.7c0.5-1.7,0.8-3.4,0.9-5.1c0-1-0.1-2-0.2-3c-0.3-2.3-1-4.6-2-6.7
			c-1-2-2.3-3.7-3.5-5.6c-0.1-0.2-0.2-0.2-0.4-0.1C258.4,383.9,258,384,257.6,384.1z M260.1,408.1C260,408.1,260,408.1,260.1,408.1
			c-0.1,0.1-0.2,0.3-0.2,0.4c-0.5,1.6-1,3.3-1.6,4.9c-0.3,0.7-0.6,1.4-1,2c-0.1,0.1-0.1,0.2-0.2,0.2c-0.1,0-0.1-0.1-0.1-0.2
			c-0.1-0.4-0.3-0.9-0.4-1.3c0-0.2-0.1-0.3-0.2-0.1c-0.2,0.2-0.3,0-0.4-0.1c-0.3-0.7-0.5-1.4-0.8-2.2c-0.3-0.9-0.6-1.7-1-2.7
			c-0.1,0.4-0.1,0.7-0.2,1c-0.7-1.5-1.4-2.8-2-4.2c0.3,1.6,0.7,3.1,1.3,4.7c0.1-0.1,0-0.2,0.2-0.2c0.2,0.4,0.3,0.8,0.5,1.2
			c0.1-0.1,0.1-0.3,0.2-0.3c0.1,0.1,0.1,0.3,0.2,0.4c0.4,1.1,0.9,2.3,1.4,3.4c0,0.1,0,0.3,0.2,0.2c0.4-0.3,0.3,0.1,0.4,0.2
			c0.2,0.6,0.4,1.1,0.7,1.7c0.2-0.3,0.3-0.5,0.5-0.7c0.1-0.1,0.1-0.2,0.3-0.2c0.2,0.1,0.3,0,0.4-0.2c0.4-0.6,0.8-1.3,1.1-2
			C259.8,412.1,260.2,410.1,260.1,408.1z M262.6,379.7c-0.2,0-0.4,0-0.4,0.3c-0.2,0.9-0.6,1.7-1.3,2.3c-0.1,0.1-0.1,0.2,0,0.3
			c0.5,0.7,1,1.3,1.5,2c0.1,0.2,0.2,0.2,0.3,0c0.4-0.6,0.9-1.2,1.3-1.8c0.1-0.2,0.1-0.2,0-0.4c-0.5-0.7-0.9-1.5-1-2.4
			C263,379.8,262.8,379.7,262.6,379.7z M267.7,370.9c0.3,0.1,0.5,0,0.7,0c2.4-0.5,4.3-1.7,5.5-3.9c0.1-0.1,0.1-0.4,0.3-0.3
			c0.2,0,0.2,0.3,0.2,0.4c0,0.1,0,0.2,0,0.3c0,0.7-0.2,1.3-0.5,1.9c-0.1,0.2-0.1,0.3,0.2,0.3c0.2,0,0.4,0.1,0.3,0.3
			c-0.2,0.3,0,0.6,0,0.8c0.2,1.1,0.2,2.1,0.2,3.2c0,0.2,0,0.5,0,0.7c0.1-0.3,0.2-0.6,0.2-0.9c0.1-0.8,0.2-1.6,0.1-2.4
			c0-0.4-0.2-0.8-0.2-1.3c0-0.3,0.2-0.6-0.1-0.8c-0.1-0.1,0-0.2,0-0.3c0.1-0.6,0.2-1.1,0.2-1.7c0-0.4-0.1-0.7-0.3-1
			c-0.3-0.3-0.5-0.3-0.7,0c-0.1,0.2-0.2,0.4-0.4,0.6c-0.8,1.4-1.9,2.6-3.4,3.3C269.3,370.4,268.5,370.6,267.7,370.9z M255.5,370.1
			c0-0.2-0.1-0.2-0.1-0.2c-0.6-0.3-1.1-0.7-1.6-1.2c-0.7-0.6-1.2-1.4-1.5-2.3c-0.1-0.2-0.2-0.4-0.4-0.4c-0.2,0-0.4,0.2-0.5,0.4
			c-0.3,0.5-0.3,1.1-0.2,1.6c0,0.5,0.4,1,0,1.5c-0.1,0.1,0,0.2,0,0.3c0.1,0.2,0,0.4,0,0.6c-0.1,0.9,0,1.8,0.2,2.7c0-0.7,0-1.5,0-2.2
			c0-0.2,0-0.4,0.1-0.6c0.1-0.1,0.1-0.3,0-0.4c-0.1-0.2-0.1-0.4,0.2-0.4c0.3,0,0.3-0.1,0.2-0.3c-0.2-0.5-0.3-1.1-0.4-1.6
			c0-0.4,0-0.9,0.3-1.3C252.5,368.1,253.8,369.3,255.5,370.1z M251.4,373.6C251.4,373.6,251.4,373.5,251.4,373.6
			C251.4,373.5,251.4,373.6,251.4,373.6C251.4,373.6,251.4,373.6,251.4,373.6C251.4,373.6,251.4,373.6,251.4,373.6z M260.9,411.5
			C260.9,411.5,260.8,411.6,260.9,411.5c0,0.1,0,0.1,0,0.1C260.9,411.6,260.9,411.6,260.9,411.5
			C260.9,411.6,260.9,411.5,260.9,411.5z M254.9,385.6C254.9,385.6,254.9,385.6,254.9,385.6C254.9,385.7,254.9,385.7,254.9,385.6
			C254.9,385.7,254.9,385.6,254.9,385.6C254.9,385.6,254.9,385.6,254.9,385.6z M255.7,370.1C255.7,370.1,255.7,370.1,255.7,370.1
			C255.7,370.1,255.7,370.1,255.7,370.1C255.8,370.1,255.8,370.1,255.7,370.1C255.7,370.1,255.7,370.1,255.7,370.1z"/>
		<path fill="#844E0F" d="M239,372.3c0.2-0.5,0.5-1,1.1-1.1c0.9-0.1,1.9-0.2,2.8,0c0.6,0.1,0.9,0.5,0.9,1.1c0,1.1,0.1,2.2,0.1,3.3
			c0,0.4,0.1,0.5,0.5,0.4c0.2,0,0.4,0,0.7,0c0.3,0,0.3-0.1,0.3-0.3c0-0.9-0.1-1.9-0.1-2.8c0-0.9,0.5-1.6,1.5-1.7
			c0.9-0.1,1.7-0.1,2.6,0.1c0.6,0.2,0.9,0.5,0.9,1.1c0.1,3.6,0.1,7.2,0.2,10.8c0,1.1-0.3,1.4-1.3,1.7c-0.7,0.2-1.5,0.2-2.2,0.1
			c-0.9-0.1-1.2-0.5-1.2-1.5c0-1-0.1-2-0.1-3c0-0.4-0.1-0.5-0.5-0.4c-0.3,0.1-0.6,0.1-0.9,0.1c-0.3,0-0.3,0.1-0.3,0.4
			c0,1-0.1,2.1-0.2,3.1c-0.1,0.9-0.5,1.3-1.5,1.4c-0.5,0-1.1,0-1.6,0c-0.7,0-1.3-0.2-1.6-0.9c0-0.4,0-0.8,0-1.3c0.1-0.3,0.1-0.7,0-1
			C239,378.7,239,375.5,239,372.3z M239.2,378.2C239.2,378.2,239.2,378.2,239.2,378.2c0,1.8,0,3.7,0,5.5c0,0.7,0.3,1.1,1,1.1
			c0.7,0,1.5,0,2.2,0c0.5,0,0.8-0.3,0.9-0.8c0.1-0.4,0.1-0.7,0.1-1.1c0.1-0.8,0.1-1.7,0.1-2.5c0-0.2,0-0.3,0.2-0.3
			c0.6,0,1.1-0.1,1.7-0.2c0.2,0,0.3,0,0.3,0.2c0,0.3,0,0.7,0.1,1c0,0.8,0,1.6,0,2.5c0,0.7,0.3,1.1,0.9,1.2c0.9,0.2,1.8,0.1,2.6-0.1
			c0.6-0.2,0.8-0.4,0.7-1c0-1.2,0-2.5-0.1-3.7c-0.1-2.4-0.1-4.8-0.1-7.3c0-0.7-0.3-1-0.9-1.1c-0.8-0.2-1.6-0.2-2.4-0.1
			c-0.6,0.1-1.2,0.7-1.1,1.3c0.1,1,0,2.1,0.1,3.1c0,0.2-0.1,0.4-0.3,0.4c-0.4,0-0.8,0-1.2,0.1c-0.2,0-0.3,0-0.3-0.3
			c-0.1-1.2-0.1-2.3-0.1-3.5c0-0.9-0.5-1.2-1.2-1.2c-0.5,0-1.1,0-1.6,0c-1.1,0-1.6,0.4-1.6,1.6C239.2,374.7,239.2,376.5,239.2,378.2
			z"/>
		<path fill="#844F10" d="M239,382c0.1,0.3,0.1,0.7,0,1C239,382.6,239,382.3,239,382z"/>
		<path fill="#834E0F" d="M309,381.2c0-0.3-0.2-0.4-0.4-0.6c-0.6-0.4-1.1-0.7-1.7-1.1c-0.8-0.5-1.4-1.1-2-1.9
			c-1.8-2.2-0.5-5.2,1.4-6.1c1.6-0.8,3.3-0.9,5.1-0.3c1.2,0.4,1.9,1.3,2.2,2.5c0.4,1.6-0.7,2.8-2.3,2.5c-0.6-0.1-1.2-0.4-1.7-0.7
			c-0.2-0.1-0.5-0.4-0.7-0.1c-0.2,0.3,0.1,0.5,0.4,0.6c0.5,0.3,1,0.5,1.5,0.8c1.9,0.9,3,3,2.6,5.1c-0.2,1.2-0.9,2-2,2.5
			c-1.7,0.7-3.4,0.8-5.1,0.2c-1.3-0.4-2-1.4-2.2-2.8c-0.1-0.8,0.3-1.4,0.9-1.8c0.7-0.4,1.4-0.5,2.1,0
			C307.9,380.4,308.5,380.8,309,381.2z M308.7,384.8c0.5,0,1,0,1.4-0.1c1-0.2,2-0.5,2.6-1.4c1-1.4,0.7-3.7-0.6-5
			c-0.5-0.6-1.1-1-1.9-1.3c-0.5-0.2-0.9-0.4-1.3-0.7c-0.3-0.2-0.4-0.6-0.2-0.8c0.2-0.3,0.5-0.2,0.8-0.1c0.1,0,0.2,0.1,0.2,0.1
			c0.7,0.4,1.4,0.7,2.2,0.6c1-0.1,1.6-0.7,1.6-1.7c-0.1-1.3-0.7-2.2-1.9-2.8c-1.6-0.7-3.2-0.6-4.8,0c-1.6,0.6-2.5,2.1-2.5,3.8
			c0,1,0.5,1.8,1.2,2.5c0.9,1.1,2.1,1.8,3.3,2.5c0.2,0.1,0.3,0.2,0.4,0.4c0.1,0.2,0.2,0.4,0.1,0.6c-0.2,0.2-0.4,0-0.5-0.1
			c-0.5-0.4-1-0.7-1.6-1c-1-0.6-2.5,0.1-2.6,1.3c-0.1,1,0.3,1.8,1,2.4C306.4,384.7,307.5,384.8,308.7,384.8z"/>
		<path fill="#98785F" d="M267.1,370.1c-0.5,0.2-0.9,0.4-1.3,0.6c-1.1,0.6-2.1,1.3-2.8,2.4c-0.1,0.2-0.2,0.3-0.4,0
			c-0.9-1.1-2-2-3.4-2.5C260.4,369.5,265.2,369.2,267.1,370.1z"/>
		<path fill="#834E0F" d="M284.9,377.9c0-1.8,0-3.7,0.3-5.5c0-0.3,0.1-0.5,0.2-0.7c0.2-0.4,0.5-0.6,1-0.6c1.8,0,3.7,0,5.5,0
			c0.7,0,1.1,0.4,1.3,1.1c0.1,0.7,0.1,1.3,0.1,2c-0.1,0.9-0.5,1.3-1.4,1.4c-0.7,0-1.3,0-2,0c-0.2,0-0.4,0-0.3,0.3
			c0,0.2,0,0.3,0.3,0.3c0.5,0,1.1,0,1.6,0.1c0.6,0,0.9,0.3,0.9,0.9c0,0.6,0,1.1-0.1,1.7c-0.1,0.7-0.4,0.9-1,1.1
			c-0.5,0.1-0.9,0.1-1.4,0.1c-0.2,0-0.3,0.1-0.3,0.3c0,0.1,0,0.1,0,0.2c0,0.8,0,0.8,0.8,0.8c0.6,0,1.1-0.1,1.7-0.1
			c0.6,0,1,0.3,1,0.9c0,0.6,0,1.2,0,1.8c0,0.6-0.4,1.1-1.1,1.2c-1.6,0.2-3.3,0.3-5,0.1c-1.1-0.1-1.7-0.8-1.8-1.9
			C285,381.4,284.9,379.7,284.9,377.9z M289.2,371.3c-0.8,0-1.7,0-2.5,0c-0.8,0-1.1,0.3-1.2,1.1c-0.2,1.4-0.3,2.9-0.3,4.3
			c0,2.1,0.1,4.2,0.3,6.3c0.1,1.2,0.8,1.8,1.8,1.8c1.5,0.1,3,0,4.5-0.1c0.6,0,1-0.4,1.1-0.9c0.1-0.6,0.1-1.2,0-1.8
			c-0.1-0.6-0.3-0.8-0.8-0.7c-0.8,0-1.6,0.1-2.4,0.1c-0.3,0-0.4-0.1-0.3-0.3c0.1-0.3,0-0.7,0-1.1c0-0.3,0.1-0.3,0.3-0.3
			c0.5,0,1.1,0,1.6-0.1c0.4-0.1,0.8-0.3,0.8-0.7c0.1-0.6,0.1-1.2,0.1-1.8c0-0.4-0.3-0.7-0.6-0.7c-0.6,0-1.1-0.1-1.7-0.1
			c-0.4,0-0.5-0.1-0.5-0.5c0-0.4,0.1-0.5,0.6-0.6c0.7,0,1.3,0,2,0c0.7,0,1.1-0.3,1.1-1c0.1-0.7,0-1.4-0.1-2.1
			c-0.1-0.6-0.5-0.9-1.1-0.9C291,371.3,290.1,371.3,289.2,371.3z"/>
		<path fill="#844F10" d="M298.5,381.7c0,0.7,0,1.3-0.1,2c-0.1,0.9-0.4,1.2-1.3,1.3c-0.7,0-1.3,0-1.9-0.1c-0.8-0.2-1.1-0.5-1.1-1.3
			c0-3.6-0.1-7.2-0.1-10.8c0-0.7,0.4-1.3,1.2-1.4c1.7-0.3,3.4-0.3,5.1,0.1c2.7,0.7,4.4,4,2.5,6.7c-0.2,0.4-0.5,0.7-0.8,1
			c-0.2,0.2-0.2,0.3,0,0.5c0.9,0.9,1.6,1.9,2,3.1c0.1,0.2,0.1,0.5,0.1,0.7c0,0.7-0.2,1.1-0.9,1.4c-0.6,0.2-1.3,0.3-1.9,0.3
			c-0.9,0-1.6-0.5-1.9-1.4c-0.1-0.4-0.3-0.8-0.4-1.2C298.8,382.2,298.7,382,298.5,381.7z M298.3,381c0.1,0.1,0.2,0.2,0.3,0.3
			c0.5,0.7,0.6,1.5,0.9,2.2c0.2,0.7,0.7,1.2,1.5,1.3c0.8,0.1,1.6,0,2.3-0.3c0.4-0.1,0.6-0.5,0.6-0.9c0-0.8-0.4-1.5-0.7-2.2
			c-0.4-0.7-1-1.3-1.5-1.9c-0.2-0.2-0.2-0.2,0-0.4c0.3-0.2,0.5-0.5,0.7-0.7c2.1-2.5,0.9-6.1-2.3-6.8c-1.5-0.3-3-0.3-4.5-0.1
			c-1,0.1-1.3,0.5-1.2,1.5c0,1.3,0,2.5,0.1,3.8c0,2.2,0,4.4,0,6.6c0,0.8,0.2,1.1,1,1.3c0.6,0.1,1.2,0.1,1.9,0.1c0.7-0.1,0.9-0.3,1-1
			c0.1-0.8,0.1-1.6,0.1-2.4C298.3,381.2,298.2,381.1,298.3,381z"/>
		<path fill="#834D0D" d="M279.8,371.1c1.1,0,2.1,0,3.2,0c0.9,0,1.4,0.4,1.6,1.3c0.1,0.7,0,1.4-0.1,2.1c-0.1,0.5-0.5,0.8-1,0.9
			c-0.3,0.1-0.5,0.1-0.8,0.1c-0.3,0-0.3,0.1-0.3,0.4c0,2.5,0.1,5,0,7.4c0,1.1-0.3,1.4-1.3,1.5c-0.7,0.1-1.5,0.1-2.2,0
			c-0.7-0.1-0.9-0.4-1-1.1c-0.1-2.5-0.1-5-0.2-7.5c0-0.4-0.1-0.4-0.4-0.4c-0.2,0-0.5,0-0.7,0c-0.4,0-0.6-0.2-0.7-0.6
			c-0.1-1-0.3-2-0.2-3c0-0.8,0.4-1.2,1.3-1.2C277.8,371.2,278.8,371.1,279.8,371.1z M279.8,384.8c0.5,0,1,0,1.5-0.2
			c0.4-0.1,0.7-0.4,0.7-0.8c0-1.2,0.1-2.3,0.1-3.5c-0.1-1.6,0-3.1-0.1-4.7c0-0.2,0.1-0.3,0.3-0.3c0.2,0,0.4,0,0.6,0
			c0.7-0.1,1.2-0.3,1.3-0.8c0.1-0.7,0.2-1.5,0.1-2.2c-0.1-0.5-0.4-0.8-0.9-0.9c-0.4-0.1-0.7,0-1.1,0c-1.9,0-3.7,0.1-5.6-0.1
			c-0.7,0-1,0.2-1,1c0,0.8,0.1,1.6,0.2,2.5c0.1,0.8,0.1,0.9,0.9,0.9c1,0,1,0,1,1c0.1,2.4,0.1,4.9,0.2,7.3c0,0.4,0.2,0.6,0.6,0.8
			C279,384.8,279.4,384.8,279.8,384.8z"/>
		<path fill="#844F10" d="M316.5,373c0.1-0.3,0.2-0.4,0.3-0.6c0-0.1,0.1-0.1,0.2-0.1c0.1,0,0.1,0.1,0.1,0.2c0,0.3,0,0.6-0.1,0.9
			c-0.2-0.2,0-0.5-0.1-0.7c-0.1,0.2-0.2,0.4-0.3,0.7c-0.2-0.2-0.2-0.5-0.4-0.7c0,0.3,0,0.5,0,0.7c0,0-0.1,0-0.1,0
			c-0.1-0.3-0.1-0.6,0-0.9c0-0.1,0.2-0.1,0.2,0.1C316.3,372.6,316.4,372.7,316.5,373z"/>
		<path fill="#844F10" d="M315.7,372.3c-0.6,0.2-0.1,0.7-0.4,1c-0.3-0.2,0.2-0.8-0.4-0.9C315.2,372.2,315.4,372.3,315.7,372.3z"/>
		<path fill="#DFD9CE" d="M265.6,403.5c0.4-1.7,0.6-3.5,0.6-5.3c-0.1-4-1.4-7.6-3.7-10.9c-0.8-1.2-1.8-2.4-2.7-3.6
			c-0.2-0.2-0.2-0.4,0.1-0.5c0.2-0.1,0.4-0.5,0.7-0.4c0.2,0.1,0.3,0.4,0.5,0.6c0.4,0.5,0.9,1.1,1.3,1.6c0.2,0.3,0.3,0.2,0.5,0
			c0-0.1,0.1-0.1,0.1-0.1c0.1,0.1,0.2,0.3,0.3,0.4c0.1,0.2,0.2,0.2,0.3,0c0.3-0.7,0.6-1.5,0.9-2.2c0.9,0.6,1.8,1.1,2.9,1.3
			c1.6,0.3,3.1,0,4.5-0.7c0.7,2.4,1,4.8,0.8,7.2c-0.1,1.8-0.5,3.5-1.1,5.2c-1,2.7-2.7,5-4.9,6.8C266.3,403.1,266,403.4,265.6,403.5z
			"/>
		<path fill="#F3783D" d="M251.3,378.2c0-1.3,0.2-2.7,0.9-3.9c0.6-1.2,1.6-2,3-2.2c1.1-0.2,2.3-0.2,3.3,0.2c1.5,0.5,2.5,1.6,3.1,3.1
			c0.7,1.9,0.8,3.8-0.1,5.6c-1,2-3.5,3.3-5.6,2.9c-2.5-0.5-4.2-2.2-4.5-4.6C251.4,378.9,251.3,378.5,251.3,378.2z M259.1,377.6
			c0-1.1-0.8-2-2-2c-1.1,0-2,0.9-2,2c0,1.1,0.9,2,2,2C258.2,379.6,259.1,378.8,259.1,377.6z"/>
		<path fill="#F3783D" d="M263.2,378.9c0-1.8,0.5-3.3,1.7-4.6c1.1-1,2.3-1.7,3.8-1.8c1.4-0.1,2.7,0.5,3.7,1.5
			c1.2,1.1,1.8,2.6,1.9,4.2c0,1.3-0.2,2.4-0.9,3.5c-0.8,1.3-2.1,2-3.6,2.3c-1.6,0.3-3.2,0.1-4.6-0.8c-1.3-0.8-1.9-2.1-2-3.6
			C263.1,379.4,263.2,379.1,263.2,378.9z M268.4,379.9c1.1,0,2-0.8,2-2c0-1.1-0.9-2-1.9-2c-1.1,0-2,0.9-2,2
			C266.4,379.1,267.3,379.9,268.4,379.9z"/>
		<path fill="#D0C4BA" d="M265.6,403.5c0.5-0.1,0.7-0.4,1.1-0.7c2.2-1.9,3.9-4.1,4.9-6.8c0.6-1.7,1-3.4,1.1-5.2
			c0.2-2.5-0.1-4.9-0.8-7.2c0.3-0.1,0.2,0.1,0.3,0.2c0.6,1.4,1.1,2.9,1.3,4.5c0.9,6.6-0.3,12.8-3.6,18.6c-1.1,1.9-2.6,3.5-4.5,4.6
			c-1.1,0.6-2.3,1-3.6,1.1c-0.1,0-0.1,0-0.2,0C263.4,409.8,264.7,406.8,265.6,403.5z"/>
		<path fill="#96765C" d="M254.8,385.8c-0.1,5.6,0.2,11.2,2.5,16.5c1.1-3.2,1.6-6.6,1.7-10c0.9,4.5-0.2,8.7-1.9,12.9
			c-1-2.1-1.7-4.2-2.3-6.3c-0.6-2.1-0.9-4.3-1-6.5c-0.1,0.3-0.1,0.5-0.1,0.8c0,1.5-0.1,3.1,0.1,4.6c0.1,1.5,0.4,2.9,0.7,4.3
			c0.6,2.2,1.4,4.3,2.5,6.3c0.3,0.5,0.3,0.5,0.6,0c1.3-1.8,2-3.9,2.6-6c0.5-1.9,0.9-3.8,1.2-5.7c0.3,2.7-0.1,5.4-0.9,8
			c-0.8,2.6-2,5.1-3.7,7.3c-0.4-0.4-0.6-0.9-0.8-1.3c-1.7-3.1-2.9-6.3-3.5-9.8c-0.3-2-0.5-3.9-0.4-5.9c0.2-2.7,0.7-5.3,1.8-7.8
			C254.3,386.9,254.5,386.3,254.8,385.8z"/>
		<path fill="#96765C" d="M257.6,384.1c0.4-0.1,0.8-0.2,1.2-0.4c0.2-0.1,0.3-0.1,0.4,0.1c1.2,1.9,2.5,3.6,3.5,5.6
			c1,2.1,1.7,4.3,2,6.7c0.1,1,0.2,2,0.2,3c-0.1,1.7-0.4,3.4-0.9,5.1c-0.4,1.3-0.8,2.6-1.7,3.7c-0.6,0.7-0.7,1.5-0.9,2.3
			c-0.1,0.4-0.2,0.7-0.4,1.1c0.1-0.5,0.1-1,0.2-1.5c0-0.3,0.1-0.5,0.1-0.8c-0.1-1,0.5-1.7,0.8-2.5c0.8-1.9,1.3-3.8,1.4-5.8
			c0.2-2.3-0.2-4.5-0.8-6.7c-1-3.5-2.6-6.7-4.9-9.5C257.7,384.3,257.6,384.2,257.6,384.1z"/>
		<path fill="#96765B" d="M253.6,384c-0.2,0.6-0.5,1.1-0.7,1.7c-0.8,2-1.4,4.1-1.7,6.2c-0.4,2.3-0.5,4.6-0.5,7
			c0.1,2.1,0.3,4.2,0.7,6.2c0.1,0.5,0.3,1.1,0.3,1.6l0,0c-0.4-0.9-0.6-1.9-0.9-2.8c-0.5-2-0.8-4.1-1-6.1c-0.2-3.1,0.1-6.1,1.1-9
			c0.6-1.6,1.4-3.1,2.4-4.5C253.4,384.1,253.4,384.1,253.6,384C253.5,384,253.5,384,253.6,384z"/>
		<path fill="#96765B" d="M260.1,408.1c0.1,2-0.3,3.9-1,5.8c-0.3,0.7-0.6,1.4-1.1,2c-0.1,0.1-0.2,0.3-0.4,0.2
			c-0.1-0.1-0.2,0.1-0.3,0.2c-0.1,0.2-0.3,0.4-0.5,0.7c-0.2-0.6-0.4-1.2-0.7-1.7c-0.1-0.1,0-0.5-0.4-0.2c-0.1,0.1-0.1-0.1-0.2-0.2
			c-0.5-1.1-0.9-2.2-1.4-3.4c-0.1-0.1-0.1-0.3-0.2-0.4c-0.1,0.1-0.1,0.2-0.2,0.3c-0.2-0.4-0.4-0.8-0.5-1.2c-0.2,0-0.1,0.2-0.2,0.2
			c-0.5-1.5-1-3.1-1.3-4.7c0.7,1.4,1.3,2.7,2,4.2c0.1-0.4,0.1-0.6,0.2-1c0.4,1,0.7,1.8,1,2.7c0.3,0.7,0.5,1.4,0.8,2.2
			c0.1,0.2,0.1,0.4,0.4,0.1c0.2-0.2,0.2-0.1,0.2,0.1c0.1,0.4,0.2,0.9,0.4,1.3c0,0.1,0,0.2,0.1,0.2c0.1,0,0.2-0.1,0.2-0.2
			c0.4-0.6,0.7-1.3,1-2c0.6-1.6,1.1-3.2,1.6-4.9C259.9,408.4,259.9,408.3,260.1,408.1C260,408.1,260,408.1,260.1,408.1z"/>
		<path fill="#957559" d="M267.7,370.9c0.9-0.2,1.7-0.5,2.4-0.9c1.5-0.7,2.6-1.9,3.4-3.3c0.1-0.2,0.2-0.4,0.4-0.6
			c0.2-0.3,0.4-0.3,0.7,0c0.2,0.3,0.3,0.7,0.3,1c0,0.6-0.1,1.2-0.2,1.7c0,0.1-0.1,0.2,0,0.3c0.3,0.2,0.2,0.5,0.1,0.8
			c0,0.4,0.1,0.8,0.2,1.3c0.1,0.8-0.1,1.6-0.1,2.4c0,0.3-0.1,0.6-0.2,0.9c0-0.2,0-0.5,0-0.7c0-1.1,0.1-2.1-0.2-3.2
			c-0.1-0.3-0.3-0.5,0-0.8c0.1-0.2-0.1-0.3-0.3-0.3c-0.3,0-0.2-0.1-0.2-0.3c0.3-0.6,0.5-1.2,0.5-1.9c0-0.1,0-0.2,0-0.3
			c-0.1-0.2-0.1-0.4-0.2-0.4c-0.2,0-0.2,0.2-0.3,0.3c-1.2,2.2-3.1,3.5-5.5,3.9C268.2,370.9,267.9,371,267.7,370.9z"/>
		<path fill="#957559" d="M255.5,370.1c-1.7-0.8-3-2-3.8-3.7c-0.3,0.4-0.4,0.8-0.3,1.3c0.1,0.6,0.2,1.1,0.4,1.6
			c0.1,0.2,0.1,0.3-0.2,0.3c-0.2,0-0.3,0.2-0.2,0.4c0.1,0.2,0.1,0.3,0,0.4c-0.1,0.2-0.1,0.4-0.1,0.6c0,0.7,0,1.5,0,2.2
			c-0.2-0.9-0.3-1.8-0.2-2.7c0-0.2,0.1-0.4,0-0.6c0-0.1-0.1-0.3,0-0.3c0.5-0.5,0-1,0-1.5c0-0.6,0-1.1,0.2-1.6
			c0.1-0.2,0.3-0.4,0.5-0.4c0.2,0,0.3,0.2,0.4,0.4c0.3,0.9,0.8,1.6,1.5,2.3c0.5,0.5,1,0.9,1.6,1.2
			C255.5,369.9,255.6,369.9,255.5,370.1z"/>
		<path fill="#957559" d="M267.1,372.1c0.5-0.3,1-0.3,1.5-0.4c1.4-0.1,2.7,0.1,3.8,1c0.5,0.4,0.9,1,1.1,1.6
			c-0.4-0.4-0.7-0.8-1.2-1.1c-0.9-0.7-1.9-1-3-1.2C268.6,371.9,267.9,372.1,267.1,372.1L267.1,372.1z"/>
		<path fill="#957559" d="M252.7,372.4c0.1-0.4,0.4-0.5,0.7-0.7c1.4-1,2.9-1,4.4-0.4c0.2,0.1,0.4,0.1,0.6,0.3c-0.2,0-0.4,0-0.5-0.1
			c-1.8-0.5-3.5-0.3-5,0.9C252.8,372.4,252.7,372.4,252.7,372.4L252.7,372.4z"/>
		<path fill="#98785F" d="M264.5,383c-0.3,0.7-0.6,1.5-0.9,2.2c-0.1,0.2-0.2,0.2-0.3,0c-0.1-0.2-0.2-0.3-0.3-0.4
			c0.4-0.6,0.8-1.2,1.2-1.7C264.3,382.9,264.4,382.8,264.5,383z"/>
		<path fill="#957559" d="M251.4,373.6C251.4,373.6,251.4,373.6,251.4,373.6C251.4,373.6,251.4,373.6,251.4,373.6
			C251.4,373.6,251.4,373.5,251.4,373.6C251.4,373.5,251.4,373.6,251.4,373.6z"/>
		<path fill="#957559" d="M267.1,372.1c0,0.1-0.1,0.1-0.2,0.1c0,0,0,0,0,0C267,372.1,267,372.1,267.1,372.1L267.1,372.1z"/>
		<path fill="#96765B" d="M251.6,406.7c0.1,0,0.1,0.1,0.1,0.2c0,0,0,0,0,0C251.6,406.8,251.6,406.8,251.6,406.7L251.6,406.7z"/>
		<path fill="#96765C" d="M260.9,411.5C260.9,411.5,260.9,411.6,260.9,411.5c0,0.1,0,0.1,0,0.1C260.8,411.6,260.8,411.6,260.9,411.5
			C260.8,411.6,260.9,411.5,260.9,411.5z"/>
		<path fill="#96765C" d="M254.9,385.6C254.9,385.6,254.9,385.6,254.9,385.6C254.9,385.6,254.9,385.7,254.9,385.6
			C254.9,385.7,254.9,385.7,254.9,385.6C254.9,385.6,254.9,385.6,254.9,385.6z"/>
		<path fill="#957559" d="M273.7,374.5C273.7,374.6,273.7,374.6,273.7,374.5c0,0.1,0,0.1,0,0.1C273.7,374.6,273.7,374.6,273.7,374.5
			L273.7,374.5z"/>
		<path fill="#957559" d="M255.7,370.1C255.7,370.1,255.7,370.1,255.7,370.1C255.8,370.1,255.8,370.1,255.7,370.1
			C255.7,370.1,255.7,370.1,255.7,370.1C255.7,370.1,255.7,370.1,255.7,370.1z"/>
		<path fill="#957559" d="M252.5,372.6C252.5,372.5,252.6,372.5,252.5,372.6C252.6,372.5,252.6,372.5,252.5,372.6
			C252.6,372.5,252.6,372.5,252.5,372.6L252.5,372.6z"/>
		<path fill="#957559" d="M252.7,372.4C252.7,372.4,252.6,372.5,252.7,372.4C252.6,372.5,252.6,372.5,252.7,372.4
			C252.6,372.5,252.6,372.4,252.7,372.4L252.7,372.4z"/>
		<path fill="#957559" d="M252.5,372.6C252.5,372.6,252.5,372.6,252.5,372.6C252.5,372.6,252.5,372.6,252.5,372.6L252.5,372.6z"/>
		<path fill="#96765B" d="M253.5,384C253.5,384,253.6,383.9,253.5,384C253.6,384,253.6,384,253.5,384C253.5,384,253.5,384,253.5,384
			z"/>
		<path fill="#957559" d="M273.7,374.5C273.6,374.5,273.6,374.5,273.7,374.5C273.6,374.5,273.6,374.5,273.7,374.5
			C273.6,374.5,273.7,374.5,273.7,374.5L273.7,374.5z"/>
		<path fill="#F3783D" d="M239.2,378.2c0-1.8,0-3.6,0-5.4c0-1.1,0.5-1.6,1.6-1.6c0.5,0,1.1,0,1.6,0c0.7,0,1.2,0.3,1.2,1.2
			c0,1.2,0,2.3,0.1,3.5c0,0.2,0.1,0.3,0.3,0.3c0.4-0.1,0.8-0.1,1.2-0.1c0.3,0,0.4-0.1,0.3-0.4c-0.1-1,0-2.1-0.1-3.1
			c-0.1-0.6,0.5-1.2,1.1-1.3c0.8-0.1,1.6-0.1,2.4,0.1c0.7,0.1,0.9,0.4,0.9,1.1c0,2.4,0,4.8,0.1,7.3c0,1.2,0,2.5,0.1,3.7
			c0,0.6-0.2,0.9-0.7,1c-0.9,0.3-1.7,0.3-2.6,0.1c-0.7-0.1-0.9-0.5-0.9-1.2c0-0.8,0-1.6,0-2.5c0-0.3,0-0.7-0.1-1
			c0-0.2-0.1-0.2-0.3-0.2c-0.6,0.1-1.1,0.1-1.7,0.2c-0.2,0-0.2,0.2-0.2,0.3c0,0.8,0,1.7-0.1,2.5c0,0.4-0.1,0.7-0.1,1.1
			c-0.1,0.5-0.4,0.8-0.9,0.8c-0.7,0-1.5,0-2.2,0c-0.7,0-1-0.4-1-1.1C239.2,381.9,239.2,380.1,239.2,378.2
			C239.2,378.2,239.2,378.2,239.2,378.2z"/>
		<path fill="#F3783D" d="M308.7,384.8c-1.1,0-2.2-0.1-3.2-0.9c-0.7-0.6-1.1-1.4-1-2.4c0.1-1.2,1.6-1.9,2.6-1.3
			c0.5,0.3,1.1,0.6,1.6,1c0.2,0.1,0.4,0.3,0.5,0.1c0.2-0.2,0-0.4-0.1-0.6c-0.1-0.2-0.3-0.3-0.4-0.4c-1.2-0.7-2.3-1.4-3.3-2.5
			c-0.6-0.7-1.2-1.5-1.2-2.5c0-1.7,0.9-3.2,2.5-3.8c1.6-0.6,3.2-0.7,4.8,0c1.2,0.5,1.8,1.5,1.9,2.8c0.1,1-0.5,1.6-1.6,1.7
			c-0.8,0.1-1.5-0.2-2.2-0.6c-0.1,0-0.1-0.1-0.2-0.1c-0.3-0.1-0.6-0.2-0.8,0.1c-0.2,0.3-0.1,0.6,0.2,0.8c0.4,0.3,0.9,0.5,1.3,0.7
			c0.7,0.3,1.3,0.7,1.9,1.3c1.2,1.3,1.5,3.6,0.6,5c-0.6,0.9-1.6,1.3-2.6,1.4C309.6,384.8,309.2,384.8,308.7,384.8z"/>
		<path fill="#F3783D" d="M289.2,371.3c0.9,0,1.8,0,2.7,0c0.6,0,1,0.3,1.1,0.9c0.1,0.7,0.1,1.4,0.1,2.1c-0.1,0.6-0.4,1-1.1,1
			c-0.7,0-1.3,0-2,0c-0.5,0-0.6,0.1-0.6,0.6c0,0.4,0.1,0.5,0.5,0.5c0.6,0,1.1,0,1.7,0.1c0.3,0,0.6,0.3,0.6,0.7c0,0.6,0,1.2-0.1,1.8
			c0,0.5-0.4,0.7-0.8,0.7c-0.5,0.1-1.1,0.1-1.6,0.1c-0.3,0-0.3,0.1-0.3,0.3c0,0.4,0,0.7,0,1.1c-0.1,0.2,0,0.4,0.3,0.3
			c0.8,0,1.6-0.1,2.4-0.1c0.6,0,0.8,0.2,0.8,0.7c0.1,0.6,0,1.2,0,1.8c-0.1,0.5-0.5,0.8-1.1,0.9c-1.5,0.1-3,0.2-4.5,0.1
			c-0.9-0.1-1.7-0.6-1.8-1.8c-0.1-2.1-0.3-4.2-0.3-6.3c0-1.4,0.1-2.9,0.3-4.3c0.1-0.8,0.4-1.1,1.2-1.1
			C287.5,371.3,288.3,371.3,289.2,371.3z"/>
		<path fill="#F3783D" d="M298.3,381c-0.1,0.1,0,0.3-0.1,0.4c0,0.8,0,1.6-0.1,2.4c-0.1,0.7-0.3,0.9-1,1c-0.6,0.1-1.2,0-1.9-0.1
			c-0.8-0.2-1-0.4-1-1.3c0-2.2,0-4.4,0-6.6c0-1.3,0-2.5-0.1-3.8c0-1,0.3-1.4,1.2-1.5c1.5-0.2,3.1-0.2,4.5,0.1
			c3.1,0.7,4.3,4.3,2.3,6.8c-0.2,0.3-0.4,0.5-0.7,0.7c-0.2,0.2-0.2,0.3,0,0.4c0.6,0.6,1.1,1.1,1.5,1.9c0.4,0.7,0.7,1.4,0.7,2.2
			c0,0.4-0.2,0.8-0.6,0.9c-0.7,0.3-1.5,0.4-2.3,0.3c-0.7-0.1-1.2-0.6-1.5-1.3c-0.3-0.8-0.4-1.6-0.9-2.2
			C298.5,381.2,298.4,381.1,298.3,381z M298,376.5c0,0.2,0,0.5,0,0.7c0,0.1,0,0.2,0.1,0.2c0.4,0.1,0.9-0.1,1.1-0.5
			c0.1-0.3,0.1-0.7,0-1c-0.1-0.3-0.6-0.5-1-0.4c-0.3,0.1-0.1,0.4-0.1,0.6C298,376.2,298,376.4,298,376.5z"/>
		<path fill="#F3783D" d="M279.8,384.8c-0.4,0-0.8,0-1.2-0.1c-0.4-0.1-0.6-0.3-0.6-0.8c0-2.4-0.1-4.9-0.2-7.3c0-1,0-1-1-1
			c-0.8,0-0.9-0.1-0.9-0.9c-0.1-0.8-0.2-1.6-0.2-2.5c0-0.7,0.3-1,1-1c1.9,0.1,3.7,0,5.6,0.1c0.4,0,0.7-0.1,1.1,0
			c0.5,0.1,0.8,0.4,0.9,0.9c0.1,0.8,0,1.5-0.1,2.2c-0.1,0.5-0.6,0.8-1.3,0.8c-0.2,0-0.4,0-0.6,0c-0.2,0-0.3,0.1-0.3,0.3
			c0,1.6,0,3.1,0.1,4.7c0.1,1.2,0,2.3-0.1,3.5c0,0.4-0.2,0.7-0.7,0.8C280.9,384.8,280.4,384.8,279.8,384.8z"/>
		<path fill="#844F10" d="M259.1,377.6c0,1.1-0.9,2-2,2c-1.1,0-2-0.9-2-2c0-1.1,0.9-2,2-2C258.3,375.6,259.1,376.5,259.1,377.6z
			 M255.3,377.6c0,1,0.8,1.8,1.8,1.8c1,0,1.8-0.8,1.8-1.8c0-1-0.8-1.8-1.8-1.8C256.1,375.8,255.3,376.6,255.3,377.6z"/>
		<path fill="#844F10" d="M268.4,379.9c-1.1,0-2-0.9-2-2c0-1.1,0.9-2,2-2c1.1,0,1.9,0.9,1.9,2C270.5,379.1,269.6,379.9,268.4,379.9z
			 M266.7,378c0,1,0.8,1.8,1.8,1.8c1,0,1.8-0.8,1.8-1.8c0-1-0.8-1.8-1.8-1.8C267.5,376.2,266.7,377,266.7,378z"/>
		<path fill="#DFD9CE" d="M262.9,383.8c-0.1-0.9,0.1-1.7,0.1-2.5c0.2,0,0.1,0.1,0.2,0.2c0.1,0.4,0.1,0.8,0.4,1
			c0.2,0.2,0.1,0.3,0,0.5C263.3,383.2,263.1,383.5,262.9,383.8z"/>
		<path fill="#844F10" d="M298,376.5c0-0.1,0-0.3,0-0.4c0-0.2-0.2-0.5,0.1-0.6c0.4-0.1,0.9,0.1,1,0.4c0.1,0.3,0.1,0.7,0,1
			c-0.1,0.4-0.7,0.6-1.1,0.5c-0.1,0-0.1-0.1-0.1-0.2C298,377,298,376.8,298,376.5z M298.2,376.5c0,0.2,0,0.3,0,0.5
			c0,0.2,0.1,0.3,0.3,0.2c0.3,0,0.5-0.2,0.5-0.5c0-0.4,0.1-0.7-0.3-0.9c-0.3-0.2-0.5,0-0.5,0.3C298.2,376.3,298.2,376.4,298.2,376.5
			z"/>
		<path fill="#7D4904" d="M257.9,377.8c0,0.4-0.4,0.7-0.7,0.6c-0.4,0-0.7-0.4-0.6-0.7c0-0.4,0.3-0.7,0.7-0.6
			C257.6,377.1,257.9,377.5,257.9,377.8z"/>
		<path fill="#834D0D" d="M269.2,378c0,0.4-0.3,0.7-0.7,0.7c-0.4,0-0.7-0.3-0.7-0.7c0-0.4,0.3-0.7,0.7-0.7
			C268.8,377.3,269.2,377.6,269.2,378z"/>
	</g>
</g>
<g id="piernas">
	<rect x="197" y="506" fill="#FCC792" width="49" height="270"/>
	<rect x="270" y="506" fill="#FCC792" width="49" height="270"/>
	<rect x="197.3" y="506.2" fill="#F47D08" width="122.8" height="56.9"/>
	<polyline fill="#EAB788" fill-opacity="0.42" points="270,645 270,563 319,563 319,610 	"/>
	<polyline fill="#F47D08" points="270,588 270,554 319,554 319,588 	"/>
	<polyline fill="#F47D08" points="197,589 197,555 246,555 246,589 	"/>
</g>
</svg>
