<?xml version="1.0" encoding="utf-8"?>
<!-- Generator: Adobe Illustrator 17.1.0, SVG Export Plug-In . SVG Version: 6.00 Build 0)  -->
<!DOCTYPE svg PUBLIC "-//W3C//DTD SVG 1.1//EN" "http://www.w3.org/Graphics/SVG/1.1/DTD/svg11.dtd">
<svg version="1.1" id="cabeza" xmlns="http://www.w3.org/2000/svg" xmlns:xlink="http://www.w3.org/1999/xlink" x="0px" y="0px"
	 viewBox="0 0 720 720" enable-background="new 0 0 720 720" xml:space="preserve">
<rect x="399" y="201" fill="#FCC792" width="62" height="92"/>
<ellipse fill="#FCC792" cx="430.1" cy="200.7" rx="30.7" ry="30.9"/>
<path d="M430.1,169.8c0,0-10.4,11.2-11,11.1c-0.6-0.2-20.5,12.9-19.7,19.9C400.3,207.7,391.8,173.4,430.1,169.8z"/>
<path d="M440.3,180.9c0,0,16,4.2,20.5,19.9c0,0,1.9-23.2-25.4-30.9"/>
<path d="M448.4,179.4c0,0-9.7,8.1-13.7,6.7c-15.5-5.3-7.9-0.2-15.1-9.3c-7.2-9.1,31.9-13.2,31.9-13.2"/>
<path d="M411.9,178.4c0,0,15.5-18.3,30.8-16c0,0-11.9,4.1-9.8,4.6c0,0,15.8-3.4,18.3-2.8c0,0-16.4,4.3-13.5,5.1s11-0.4,11-0.4
	l-7,13.2C441.6,182.1,422.7,184.8,411.9,178.4z"/>
<path fill="none" stroke="#000000" stroke-width="14" stroke-linecap="round" stroke-miterlimit="10" d="M487.6,282.5
	c0,0-28,82.2,78.5,116"/>
<path fill="none" stroke="#FCC792" stroke-width="14" stroke-linecap="round" stroke-miterlimit="10" d="M572.7,397.8
	c2.8,0.6,5.5,1.4,8.4,2.2"/>
<rect x="554.8" y="392.3" transform="matrix(-0.2095 0.9778 -0.9778 -0.2095 1071.4915 -73.8817)" width="21.6" height="7.7"/>
<g>
	<path d="M499.9,270c0,0-17.3,0-38.1,0c-0.4,0-0.9,0-1.3,0l-19.7,18.6L401.7,270c-1.1,0-2.2,0-3.2,0c-6.8,0-27.4,0-27.4,0
		c-4.4,0-8,4.9-8,11.4l32.9,197.8c0,6.5,3.6,11.8,8,11.8h73.6c4.4,0,7.7-5.2,7.7-11.7l22.3-197.7C507.6,275,504.3,270,499.9,270z"/>
</g>
<rect x="394" y="449" width="38" height="205"/>
<rect x="450" y="449" width="37" height="205"/>
<path fill="none" stroke="#000000" stroke-width="14" stroke-linecap="round" stroke-miterlimit="10" d="M373.5,283.8
	c0,0-75.3,64.1-47.4,160.7"/>
<path fill="none" stroke="#FCC792" stroke-width="14" stroke-linecap="round" stroke-miterlimit="10" d="M323.9,436.2
	c0.6,2.8,1.4,5.5,2.2,8.4"/>
<rect x="311.4" y="425.3" transform="matrix(0.9778 -0.2095 0.2095 0.9778 -82.7486 77.0352)" width="21.6" height="7.7"/>
<path fill="none" stroke="#FCC792" stroke-width="14" stroke-linecap="round" stroke-miterlimit="10" d="M263.3,296.5
	c0,0,85.5,63.5,59,152.5"/>
<rect x="170" y="463" fill="#FCC792" width="37" height="191"/>
<rect x="225" y="463" fill="#FCC792" width="38" height="191"/>
<path fill="none" stroke="#FCC792" stroke-width="14" stroke-linecap="round" stroke-miterlimit="10" d="M160.2,297.7
	c0,0-75.3,64.1-47.4,160.7"/>
<path fill="none" stroke="#FCC792" stroke-width="14" stroke-linecap="round" stroke-miterlimit="10" d="M110.7,450.1
	c0.6,2.8,1.4,5.5,2.2,8.4"/>
<rect x="170" y="462.6" fill="#808285" width="93.2" height="43.2"/>
<polygon fill="#006838" points="177.3,285.6 216.5,304.3 236.2,285.6 241.8,285.6 216.7,309.1 168.4,285.6 "/>
<path fill="#9B7A4E" d="M175.1,218.7c0,0,10.3-36.9,36.6-18.8c0,0,7.6-14.3,20.2-1.4c0,0-0.9-14.8-26.2-14.8
	S172.5,205.2,175.1,218.7z"/>
<path d="M399.2,204.8c0,0,8.2-19.1,21.2-23.2c0,0,12,4.6,14.3,4.6s11.6-3.5,11.6-3.5s12.5,6.8,14.3,16.4c0.1,0.5,0.2,1.1,0.2,1.6
	c2.2-6,4.1-15.2,1.7-21.2c-1.1,1.1-2.1,2.3-3.2,3.4c1.1-8.4,0.5-16.9-1.7-25.1c-0.1,4.5-2.6,8.8-6.4,11.1c2.7-7.9,2.6-16.7-0.2-24.5
	c-4.2,5.9-8.3,11.9-12.5,17.8c-0.2-3.9,0.3-7.9,1.5-11.6c-5.6,3.5-11,7.3-16.1,11.6c1-3.7,1.5-7.5,1.5-11.3
	c-5.8,5-10.5,11.3-13.6,18.3c-0.7-3.8-1.4-7.6-2.1-11.4c-2.4,5.7-4.2,11.7-5.3,17.8c-2.5-3-3.7-7-3.5-10.9
	c-4.1,11.9-5.3,24.8-3.4,37.3C397.9,203.7,397.9,205.7,399.2,204.8z"/>
<polygon fill="#FFFFFF" points="401.7,270.3 401.7,459.1 469,459.1 466.2,270.3 460.5,270.3 440.9,288.9 "/>
<path fill="#231F20" d="M435.4,288.1l-3.8,12.6l3.8,4.9H448l3.5-4.9l-7.5-14.8C444.1,285.9,436.7,283.6,435.4,288.1z"/>
<polyline fill="#231F20" points="435.4,305.6 418.7,387.4 435.4,421.2 455.3,383.2 448,305.6 "/>
<path fill="#3C2415" d="M211.7,199.9c0,0-16.6-16-18.3,0c-1.7,16,11.8,113.7-41.5,83.9c0,0,18.8-2,13.2-32.3
	c-5.6-30.3,2.1-77.3,40.6-67.7C205.8,183.7,212.6,183.2,211.7,199.9z"/>
<path fill="#FFF200" d="M579.5,34.2L553.9,85l157.7,22.7c0,0-40.5-54.1-57.8-62.7C653.8,45.1,602.1,31.6,579.5,34.2z"/>
<path fill="#FFF466" d="M711.5,107.8l58.2,21.1c0,0-62.3-73.7-112.2-81.4L711.5,107.8z"/>
<path fill="#FFF466" d="M553.9,85l-125.8-8.3c0,0,70-56.4,151.4-42.5L553.9,85z"/>
<path fill="#B2A50B" d="M428.1,76.8c0,0,10.1,10.4,3,17.6l77.4,17.4l110,15.9l99.2,7.4l50.2-6.5L713.3,108L554.9,83.1L428.1,76.8z"
	/>
<rect x="586.8" y="92.1" transform="matrix(0.9923 0.1239 -0.1239 0.9923 34.9697 -71.3892)" fill="#444339" width="9.8" height="306.9"/>
<path fill="#3C2415" d="M244.9,335.2c0.3,0.5,0.6,0.9,0.9,1.4c-3.6-0.6-6.6-3.4-8.3-6.6c-1.7-3.2-2.4-6.9-3-10.5
	c-0.1-0.4-0.1-0.8,0.2-1c0.3-0.2,0.8,0.2,0.5,0.4c-2.1-1.7-3.2-4.6-2.7-7.3c0.4-2.7,2.4-5,5-6c-3.4-1-6.3-3.7-7.5-7.1
	c2.9-1.6,3.4-6.3,0.9-8.5c-2.7-2.4-3.5-6.4-3.6-10c-0.1-3.6,0.3-7.3-0.5-10.9c-0.7-2.9-0.5-6-0.4-9c1.1-19,1.5-38,1.3-57.1
	c0-2.5-0.2-5.3-2.2-6.8c-1.2-0.9-2.7-1.1-4.2-1.1c-4.6,0.1-9.2,2.2-12.4,5.6c1.3-4.3,2.7-8.6,5.1-12.4c2.4-3.8,5.8-7.1,10.1-8.4
	c4.3-1.3,9-0.5,13,1.4c4,1.9,7.5,4.9,10.7,8c2.9,2.8,5.6,5.8,7.7,9.2c6.4,10.1,7,23.6,1.6,34.2c-1.4,2.9,1,6,2.6,8.8
	c3.2,5.9,2.1,13.8-2.6,18.5c5.4,5.5,6.6,14.6,2.9,21.3c-0.6,1.1-1.3,2.4-0.6,3.4c1.7,2.5,2.6,5.5,2.8,8.5c0.1,1.6-0.1,3.4-1,4.7
	c-0.9,1.4-2.5,2.4-4.1,2c-1.4,8.1,0.4,16.7,5.1,23.5c-4.7-0.6-9-4.3-10.1-8.9c-1.5,10,3,20.6,11.1,26.6c-3.6-0.2-7.1-0.4-10.7-0.6
	c-6.4-0.3-12.2-5.3-13.6-11.5"/>
<rect x="175" y="215" fill="#FCC792" width="61" height="92"/>
<ellipse fill="#FCC792" cx="205.8" cy="214.7" rx="30.7" ry="30.9"/>
<g>
	<path d="M258.8,286c0,0-0.5,0-21.3,0c-0.4,0-0.9,0-1.3,0l-19.7,18.6L177.3,286c-1.1,0-2.2,0-3.2,0c-6.8,0-13.4,0-13.4,0
		c-4.4,0-3.8,3.9-3.8,10.4l20.6,112.4l-7.4,54.3c0,6.5-8.6,88.9-4.2,88.9h105.9c4.4,0-8.4-82.4-8.4-88.9l-8.3-58.3l11.4-107.9
		C266.5,290.3,263.2,286,258.8,286z"/>
</g>
<path fill="#3C2415" d="M176.2,335.2c-0.3,0.5-0.6,0.9-0.9,1.4c3.6-0.6,6.6-3.4,8.3-6.6c1.7-3.2,2.4-6.9,3-10.5
	c0.1-0.4,0.1-0.8-0.2-1c-0.3-0.2-0.8,0.2-0.5,0.4c2.1-1.7,3.2-4.6,2.7-7.3c-0.4-2.7-2.4-5-5-6c3.4-1,6.3-3.7,7.5-7.1
	c-2.9-1.6-3.4-6.3-0.9-8.5c2.7-2.4,3.5-6.4,3.6-10c0.1-3.6-0.3-7.3,0.5-10.9c0.7-2.9,0.5-6,0.4-9c-1.1-19-1.5-38-1.3-57.1
	c0-2.5,0.2-5.3,2.2-6.8c1.2-0.9,2.7-1.1,4.2-1.1c4.6,0.1,9.2,2.2,12.4,5.6c-1.3-4.3-2.7-8.6-5.1-12.4c-2.4-3.8-5.8-7.1-10.1-8.4
	c-4.3-1.3-9-0.5-13,1.4c-4,1.9-7.5,4.9-10.7,8c-2.9,2.8-5.6,5.8-7.7,9.2c-6.4,10.1-7,23.6-1.6,34.2c1.4,2.9-1,6-2.6,8.8
	c-3.2,5.9-2.1,13.8,2.6,18.5c-5.4,5.5-6.6,14.6-2.9,21.3c0.6,1.1,1.3,2.4,0.6,3.4c-1.7,2.5-2.6,5.5-2.8,8.5c-0.1,1.6,0.1,3.4,1,4.7
	c0.9,1.4,2.5,2.4,4.1,2c1.4,8.1-0.4,16.7-5.1,23.5c4.7-0.6,9-4.3,10.1-8.9c1.5,10-3,20.6-11.1,26.6c3.6-0.2,7.1-0.4,10.7-0.6
	c6.4-0.3,12.2-5.3,13.6-11.5"/>
<path fill="#3C2415" d="M211.7,199.9c0,0,1.3-9.2,9.2-8.7c7.9,0.5,19.2,2.4,15.5,72.5l0.7,18.9c0,0,11.3,13.9,23.8-1.8
	c0,0-11.5,1.4-11.1-15.3c0.3-16.7,7.4-96.5-44.1-81.7L211.7,199.9z"/>
<path fill="#3C2415" d="M211.7,199.9c0,0,7.4-14.9,24.7-0.9l5.4-14.9c0,0-20.8-14-40.7-2.2l11,18.8"/>
</svg>
