<?xml version="1.0" encoding="utf-8"?>
<!-- Generator: Adobe Illustrator 18.1.0, SVG Export Plug-In . SVG Version: 6.00 Build 0)  -->
<!DOCTYPE svg PUBLIC "-//W3C//DTD SVG 1.1//EN" "http://www.w3.org/Graphics/SVG/1.1/DTD/svg11.dtd">
<svg version="1.1" id="cabeza" xmlns="http://www.w3.org/2000/svg" xmlns:xlink="http://www.w3.org/1999/xlink" x="0px" y="0px"
	 viewBox="0 0 90 107" enable-background="new 0 0 90 107" xml:space="preserve">
<g>
	<rect x="38" y="34" fill="#FCC792" width="7" height="11"/>
	<ellipse fill="#FCC792" cx="41.9" cy="33.6" rx="3.8" ry="3.9"/>
	<path d="M41.9,29.7c0,0-1.3,1.4-1.4,1.4c-0.1,0-2.6,1.6-2.5,2.5C38.2,34.4,37.1,30.2,41.9,29.7z"/>
	<path d="M43.2,31.1c0,0,2,0.5,2.5,2.5c0,0,0.2-2.9-3.2-3.9"/>
	<path d="M44.2,30.9c0,0-1.2,1-1.7,0.8c-1.9-0.7-1,0-1.9-1.2c-0.9-1.1,4-1.6,4-1.6"/>
	<path d="M39.6,30.8c0,0,1.9-2.3,3.8-2c0,0-1.5,0.5-1.2,0.6c0,0,2-0.4,2.3-0.3c0,0-2,0.5-1.7,0.6c0.4,0.1,1.4,0,1.4,0l-0.9,1.6
		C43.3,31.2,41,31.6,39.6,30.8z"/>
	<path d="M58.8,59.1c-0.1,0-0.2,0-0.3,0c-4.7-1.5-8-3.9-9.6-7.2c-2.1-4.2-0.8-8.2-0.7-8.4c0.2-0.5,0.6-0.7,1.1-0.5
		c0.5,0.2,0.7,0.6,0.5,1.1c0,0.1-1.1,3.5,0.7,7.1c1.4,2.8,4.3,4.9,8.6,6.3c0.5,0.1,0.7,0.6,0.6,1.1C59.5,58.9,59.2,59.1,58.8,59.1z"
		/>
	<path fill="#FCC792" d="M60.7,59.3c-0.1,0-0.2,0-0.2,0c-0.3-0.1-0.7-0.2-1-0.3c-0.5-0.1-0.8-0.6-0.7-1c0.1-0.5,0.6-0.8,1-0.7
		c0.4,0.1,0.7,0.2,1.1,0.3c0.5,0.1,0.7,0.6,0.6,1.1C61.4,59,61.1,59.3,60.7,59.3z"/>
	<rect x="57.4" y="57.5" transform="matrix(-0.2095 0.9778 -0.9778 -0.2095 127.725 12.6105)" width="2.7" height="1"/>
	<g>
		<path d="M50.6,43c0,0-2.2,0-4.7,0c-0.1,0-0.1,0-0.2,0l-2.5,2.3L38.3,43c-0.1,0-0.3,0-0.4,0c-0.9,0-3.4,0-3.4,0c-0.5,0-1,0.2-1,1
			l4.1,24.1c0,0.8,0.4,0.9,1,0.9h9.2c0.5,0,1-0.3,1-1.1l2.8-24.1C51.5,43,51.1,43,50.6,43z"/>
	</g>
	<rect x="38" y="64" width="4" height="26"/>
	<rect x="44" y="64" width="4" height="26"/>
	<path d="M28.9,64.8c-0.4,0-0.7-0.2-0.8-0.6c-3.6-12.4,6.1-20.9,6.2-20.9c0.4-0.3,0.9-0.3,1.2,0.1c0.3,0.4,0.3,0.9-0.1,1.2l0,0
		c-0.4,0.3-8.9,7.8-5.6,19.1c0.1,0.5-0.1,0.9-0.6,1.1C29.1,64.8,29,64.8,28.9,64.8z"/>
	<path fill="#FCC792" d="M28.9,64.8c-0.4,0-0.7-0.2-0.8-0.6c-0.1-0.4-0.2-0.7-0.3-1.1c-0.1-0.5,0.2-0.9,0.7-1c0.5-0.1,0.9,0.2,1,0.7
		c0.1,0.3,0.2,0.7,0.3,1c0.1,0.5-0.1,0.9-0.6,1.1C29.1,64.8,29,64.8,28.9,64.8z"/>
	<rect x="27.1" y="61.6" transform="matrix(0.9778 -0.2095 0.2095 0.9778 -12.3666 7.333)" width="2.7" height="1"/>
	<path fill="#FCC792" d="M28.4,65.4c-0.1,0-0.2,0-0.2,0c-0.5-0.1-0.7-0.6-0.6-1.1c3.1-10.4-6.9-18-7-18.1c-0.4-0.3-0.5-0.8-0.2-1.2
		c0.3-0.4,0.8-0.5,1.2-0.2c0.1,0.1,11.1,8.4,7.7,20C29.2,65.1,28.8,65.4,28.4,65.4z"/>
	<rect x="9" y="66" fill="#FCC792" width="5" height="24"/>
	<rect x="16" y="66" fill="#FCC792" width="5" height="24"/>
	<path fill="#FCC792" d="M2.3,66.6c-0.4,0-0.7-0.2-0.8-0.6C-2.1,53.5,7.6,45.1,7.7,45c0.4-0.3,0.9-0.3,1.2,0.1
		c0.3,0.4,0.3,0.9-0.1,1.2h0c-0.4,0.3-8.9,7.8-5.6,19.1c0.1,0.5-0.1,0.9-0.6,1.1C2.5,66.6,2.4,66.6,2.3,66.6z"/>
	<path fill="#FCC792" d="M2.3,66.6c-0.4,0-0.7-0.2-0.8-0.6c-0.1-0.4-0.2-0.7-0.3-1.1c-0.1-0.5,0.2-0.9,0.7-1c0.5-0.1,0.9,0.2,1,0.7
		c0.1,0.3,0.2,0.7,0.3,1c0.1,0.5-0.1,0.9-0.6,1.1C2.5,66.6,2.4,66.6,2.3,66.6z"/>
	<rect x="9.5" y="66.2" fill="#808285" width="11.6" height="5.4"/>
	<polygon fill="#006838" points="10.4,44.2 15.2,46.5 17.7,44.2 18.4,44.2 15.3,47.1 9.3,44.2 	"/>
	<path fill="#9B7A4E" d="M10.1,35.8c0,0,1.3-4.6,4.6-2.3c0,0,0.9-1.8,2.5-0.2c0,0-0.1-1.8-3.3-1.8S9.8,34.1,10.1,35.8z"/>
	<path d="M38,34.1c0,0,1-2.4,2.6-2.9c0,0,1.5,0.6,1.8,0.6s1.4-0.4,1.4-0.4s1.6,0.8,1.8,2.1c0,0.1,0,0.1,0,0.2
		c0.3-0.8,0.5-1.9,0.2-2.6c-0.1,0.1-0.3,0.3-0.4,0.4c0.1-1,0.1-2.1-0.2-3.1c0,0.6-0.3,1.1-0.8,1.4c0.3-1,0.3-2.1,0-3.1
		c-0.5,0.7-1,1.5-1.6,2.2c0-0.5,0-1,0.2-1.4c-0.7,0.4-1.4,0.9-2,1.4c0.1-0.5,0.2-0.9,0.2-1.4c-0.7,0.6-1.3,1.4-1.7,2.3
		c-0.1-0.5-0.2-1-0.3-1.4c-0.3,0.7-0.5,1.5-0.7,2.2c-0.3-0.4-0.5-0.9-0.4-1.4c-0.5,1.5-0.7,3.1-0.4,4.6C37.9,33.9,37.9,34.2,38,34.1
		z"/>
	<polygon fill="#FFFFFF" points="38.3,42.2 38.3,65.8 46.7,65.8 46.4,42.2 45.7,42.2 43.2,44.6 	"/>
	<path fill="#231F20" d="M42.5,44.5L42.1,46l0.5,0.6h1.6l0.4-0.6l-0.9-1.8C43.6,44.2,42.7,43.9,42.5,44.5z"/>
	<polyline fill="#231F20" points="42.5,46.6 40.5,56.8 42.5,61.1 45,56.3 44.1,46.6 	"/>
	<path fill="#3C2415" d="M14.6,33.5c0,0-2.1-2-2.3,0c-0.2,2,1.5,14.2-5.2,10.5c0,0,2.3-0.2,1.7-4c-0.7-3.8,0.3-9.6,5.1-8.4
		C13.9,31.5,14.8,31.4,14.6,33.5z"/>
	<path fill="#FFF200" d="M60.5,12.8l-3.2,6.3L77,22c0,0-5-6.7-7.2-7.8C69.8,14.2,63.3,12.5,60.5,12.8z"/>
	<path fill="#FFF466" d="M77,22l7.2,2.6c0,0-7.8-9.2-14-10.1L77,22z"/>
	<path fill="#FFF466" d="M57.3,19.1l-15.7-1c0,0,8.7-7,18.9-5.3L57.3,19.1z"/>
	<path fill="#B2A50B" d="M41.6,18.1c0,0,1.3,1.3,0.4,2.2l9.7,2.2l13.7,2l12.4,0.9l6.3-0.8L77.2,22l-19.7-3.1L41.6,18.1z"/>
	<rect x="61.4" y="20" transform="matrix(0.9923 0.1239 -0.1239 0.9923 5.3277 -7.379)" fill="#444339" width="1.2" height="38.3"/>
	<path fill="#3C2415" d="M18.8,50.3c0,0.1,0.1,0.1,0.1,0.2c-0.5-0.1-0.8-0.4-1-0.8c-0.2-0.4-0.3-0.9-0.4-1.3c0,0,0-0.1,0-0.1
		c0,0,0.1,0,0.1,0.1c-0.3-0.2-0.4-0.6-0.3-0.9c0.1-0.3,0.3-0.6,0.6-0.7c-0.4-0.1-0.8-0.5-0.9-0.9c0.4-0.2,0.4-0.8,0.1-1.1
		c-0.3-0.3-0.4-0.8-0.4-1.2s0-0.9-0.1-1.4c-0.1-0.4-0.1-0.7,0-1.1c0.1-2.4,0.2-4.7,0.2-7.1c0-0.3,0-0.7-0.3-0.8
		c-0.1-0.1-0.3-0.1-0.5-0.1c-0.6,0-1.2,0.3-1.5,0.7c0.2-0.5,0.3-1.1,0.6-1.5c0.3-0.5,0.7-0.9,1.3-1c0.5-0.2,1.1-0.1,1.6,0.2
		c0.5,0.2,0.9,0.6,1.3,1c0.4,0.3,0.7,0.7,1,1.1c0.8,1.3,0.9,2.9,0.2,4.3c-0.2,0.4,0.1,0.7,0.3,1.1c0.4,0.7,0.3,1.7-0.3,2.3
		c0.7,0.7,0.8,1.8,0.4,2.7c-0.1,0.1-0.2,0.3-0.1,0.4c0.2,0.3,0.3,0.7,0.3,1.1c0,0.2,0,0.4-0.1,0.6c-0.1,0.2-0.3,0.3-0.5,0.3
		c-0.2,1,0.1,2.1,0.6,2.9c-0.6-0.1-1.1-0.5-1.3-1.1c-0.2,1.2,0.4,2.6,1.4,3.3c-0.4,0-0.9,0-1.3-0.1c-0.8,0-1.5-0.7-1.7-1.4"/>
	<rect x="10" y="35" fill="#FCC792" width="8" height="12"/>
	<ellipse fill="#FCC792" cx="13.9" cy="35.3" rx="3.8" ry="3.9"/>
	<g>
		<path d="M20.5,44c0,0-0.1,0-2.7,0c-0.1,0-0.1,0-0.2,0l-2.5,2.3L10.4,44c-0.1,0-0.3,0-0.4,0c-0.9,0-1.7,0-1.7,0
			c-0.5,0-0.5,0.6-0.5,1.4l2.6,14.1l-0.9,6.6C9.5,66.9,8.4,77,8.9,77h13.2c0.5,0-1-10.1-1-10.9l-1-7.2l1.4-13.5
			C21.5,44.6,21.1,44,20.5,44z"/>
	</g>
	<path fill="#3C2415" d="M10.2,50.3c0,0.1-0.1,0.1-0.1,0.2c0.5-0.1,0.8-0.4,1-0.8c0.2-0.4,0.3-0.9,0.4-1.3c0,0,0-0.1,0-0.1
		c0,0-0.1,0-0.1,0.1c0.3-0.2,0.4-0.6,0.3-0.9c-0.1-0.3-0.3-0.6-0.6-0.7c0.4-0.1,0.8-0.5,0.9-0.9c-0.4-0.2-0.4-0.8-0.1-1.1
		c0.3-0.3,0.4-0.8,0.4-1.2s0-0.9,0.1-1.4c0.1-0.4,0.1-0.7,0-1.1c-0.1-2.4-0.2-4.7-0.2-7.1c0-0.3,0-0.7,0.3-0.8
		c0.1-0.1,0.3-0.1,0.5-0.1c0.6,0,1.2,0.3,1.5,0.7c-0.2-0.5-0.3-1.1-0.6-1.5c-0.3-0.5-0.7-0.9-1.3-1c-0.5-0.2-1.1-0.1-1.6,0.2
		c-0.5,0.2-0.9,0.6-1.3,1c-0.4,0.3-0.7,0.7-1,1.1c-0.8,1.3-0.9,2.9-0.2,4.3c0.2,0.4-0.1,0.7-0.3,1.1C8,39.4,8.1,40.4,8.7,41
		c-0.7,0.7-0.8,1.8-0.4,2.7c0.1,0.1,0.2,0.3,0.1,0.4c-0.2,0.3-0.3,0.7-0.3,1.1c0,0.2,0,0.4,0.1,0.6c0.1,0.2,0.3,0.3,0.5,0.3
		c0.2,1-0.1,2.1-0.6,2.9c0.6-0.1,1.1-0.5,1.3-1.1C9.5,49,9,50.3,7.9,51.1c0.4,0,0.9,0,1.3-0.1c0.8,0,1.5-0.7,1.7-1.4"/>
	<path fill="#3C2415" d="M14.6,33.5c0,0,0.2-1.1,1.1-1.1s2.4,0.3,1.9,9l0.1,2.4c0,0,1.4,1.7,3-0.2c0,0-1.4,0.2-1.4-1.9
		c0-2.1,0.9-12-5.5-10.2L14.6,33.5z"/>
	<path fill="#3C2415" d="M14.6,33.5c0,0,0.9-1.9,3.1-0.1l0.7-1.9c0,0-2.6-1.7-5.1-0.3l1.4,2.3"/>
</g>
</svg>
