<?xml version="1.0" encoding="utf-8"?>
<!-- Generator: Adobe Illustrator 18.1.0, SVG Export Plug-In . SVG Version: 6.00 Build 0)  -->
<!DOCTYPE svg PUBLIC "-//W3C//DTD SVG 1.1//EN" "http://www.w3.org/Graphics/SVG/1.1/DTD/svg11.dtd">
<svg version="1.1" id="Layer_1" xmlns="http://www.w3.org/2000/svg" xmlns:xlink="http://www.w3.org/1999/xlink" x="0px" y="0px"
	 viewBox="0 0 61.5 52.2" enable-background="new 0 0 61.5 52.2" xml:space="preserve">
<pattern  x="0.5" y="1.2" width="29.3" height="29.3" patternUnits="userSpaceOnUse" id="Unnamed_Pattern" viewBox="0 -29.3 29.3 29.3" overflow="visible">
	<g>
		<polygon fill="none" points="0,0 29.3,0 29.3,-29.3 0,-29.3 		"/>
		<path fill="#657FAD" d="M29.3-14.7C29.3-6.6,22.8,0,14.7,0S0-6.6,0-14.7s6.6-14.7,14.7-14.7S29.3-22.8,29.3-14.7z"/>
	</g>
</pattern>
<g>
	<pattern  id="SVGID_1_" xlink:href="#Unnamed_Pattern" patternTransform="matrix(1 0 0 1 0.5432 -0.1358)">
	</pattern>
	<polygon opacity="0.41" fill="#657FAD" stroke="url(#SVGID_1_)" points="4,34.7 9.4,34.7 21.8,3.7 4,3.7 	"/>
	<g>
		<g>
			<path fill="#FFFFFF" d="M61,2.1c-0.1-0.8-0.7-1.4-1.5-1.4H2.6c-0.8,0-1.4,0.6-1.5,1.4l0,38.5c0,0.8,0.7,1.5,1.5,1.5h56.9
				c0.8,0,1.5-0.7,1.5-1.5L61,2.1z M58.6,34.8H3.5V3.1h55.2V34.8z"/>
			<path fill="#FFFFFF" d="M40.6,49.2c-2.4-0.6-3-2.4-3-4.8v-0.6H31h-6.6v0.6c0,2.4-0.6,4.2-3,4.8c-0.6,0.1-0.6,1.2,0,1.2H31h9.6
				C41.2,50.4,41.2,49.4,40.6,49.2z"/>
		</g>
	</g>
</g>
</svg>
