<?xml version="1.0" encoding="utf-8"?>
<!-- Generator: Adobe Illustrator 18.1.0, SVG Export Plug-In . SVG Version: 6.00 Build 0)  -->
<!DOCTYPE svg PUBLIC "-//W3C//DTD SVG 1.1//EN" "http://www.w3.org/Graphics/SVG/1.1/DTD/svg11.dtd">
<svg version="1.1" id="Layer_1" xmlns="http://www.w3.org/2000/svg" xmlns:xlink="http://www.w3.org/1999/xlink" x="0px" y="0px"
	 viewBox="0 0 345 468" enable-background="new 0 0 345 468" xml:space="preserve">
<g>
	<g>
		<path fill="#808386" d="M111.3,437.8v13.6c0,0,15.2,16.1,77.6,16.1s72.6-22.6,72.6-22.6V421C261.5,421,122.8,389.3,111.3,437.8z"
			/>
		<path fill="none" stroke="#CBCBCB" stroke-miterlimit="10" d="M114.7,383.2l-27.9,15.5c0,0-6.5,11.6,37.8,25.8V442
			c0,0,80.4,17.1,122.4-4.2v-14.2c0,0,24.5-8.7,33.9-26.8c0,0-20.6-9.7-24.9-13.5C251.8,379.3,181,361.6,114.7,383.2z"/>
		<ellipse fill="#3C688E" cx="186.6" cy="404.5" rx="68.3" ry="22.3"/>
		<ellipse fill="#F2EFE5" cx="187.3" cy="407.2" rx="65.1" ry="22"/>
		<path fill="#9B9DA4" d="M250.8,412.1c0,0,17.1-14.3,11.8-23.5c-5.3-9.2-30-21.8-75.3-21.8s-81.6,16.9-84,27.6
			c-2.4,10.7,18.9,17.7,18.9,17.7s-16.6-29.8,64.4-29.8C269.9,382.2,250.8,412.1,250.8,412.1z"/>
		<path fill="#95989B" d="M124.6,442.4c0,0-33.6-8.5-38.1-22.7V400c0,0,4.5,14.5,38.1,24.5V442.4z"/>
		<path fill="#95989B" d="M246.9,438.4v-14.8c0,0,24.2-9,33.9-26.8v22C280.8,418.7,268.9,433.6,246.9,438.4z"/>
		<path fill="#CBCBCB" d="M236.2,407.2l10.7,16.4c0,0,23.1-7.7,33.9-26.8l-19.4-11.6C261.5,385.1,259.9,403.1,236.2,407.2z"/>
		<path fill="#CBCBCB" d="M124.6,424.5l12.1-13.7c0,0-39.1-7.2-27.8-23.7l-22.1,11.6C86.8,398.7,88.5,416.5,124.6,424.5z"/>
		<polygon fill="#808386" points="242.5,440.3 242.5,424.5 234.3,414 236.2,407.2 246.9,423.6 246.9,438.4 		"/>
		<polygon fill="#808386" points="124.6,442.4 124.6,424.5 136.7,410.8 136.7,417.3 129.2,426.8 129.4,443.4 		"/>
		<path fill="#6C6C74" d="M136.7,417.3c0,0,61.7,8.8,98.4-2.2l7.4,9.5v15.8c0,0-25.9,18-113.1,3.1l-0.3-16.6L136.7,417.3z"/>
	</g>
	<g>
		<g>
			<path fill="#E1B278" d="M215.5,150.8c9.6,7.9,16.6,17.5,22.7,28.1c13.4,23.3,16.7,49.9,9.2,75.8c-2.8,9.8,12.4,13.9,15.2,4.2
				c8.4-29.1,4.8-59.6-9.7-86c-6.7-12.1-15.5-24.3-26.2-33.2C218.9,133.2,207.7,144.3,215.5,150.8L215.5,150.8z"/>
		</g>
		<g>
			<path fill="#E1B278" d="M118.9,139.6c-10.7,8.9-19.6,21.1-26.2,33.2c-14.6,26.5-18.2,56.9-9.7,86c2.8,9.7,18,5.6,15.2-4.2
				c-7.5-25.9-4.2-52.5,9.2-75.8c6.1-10.6,13.1-20.2,22.7-28.1C137.9,144.3,126.7,133.2,118.9,139.6L118.9,139.6z"/>
		</g>
		<path opacity="0.25" fill="#1D1D1B" d="M119.6,138.6c-8.5,7-15.8,16.2-21.8,25.6l12.7,9.4c5.5-8.9,11.9-17,20.2-23.9
			C138.6,143.2,127.4,132.1,119.6,138.6z"/>
		<rect x="138.9" y="261" fill="#3659A4" width="28.4" height="57.8"/>
		<rect x="138.9" y="371.3" fill="#DF454D" width="28.4" height="44.1"/>
		<rect x="180.9" y="261" fill="#3659A4" width="28.4" height="57.8"/>
		<rect x="180.9" y="371.3" fill="#DF454D" width="28.4" height="44.1"/>
		<rect x="138.9" y="318.7" fill="#E1B278" width="28.4" height="52.5"/>
		<rect x="180.9" y="318.7" fill="#E1B278" width="28.4" height="52.5"/>
		<rect x="138" y="407" fill="#222329" width="28" height="8"/>
		<rect x="180" y="407" fill="#222329" width="28" height="8"/>
		
			<ellipse transform="matrix(0.9723 0.2336 -0.2336 0.9723 67.7031 -52.0583)" fill="#E1B278" cx="253.6" cy="259.8" rx="8.9" ry="10.6"/>
		
			<ellipse transform="matrix(-0.9723 0.2336 -0.2336 -0.9723 241.6581 489.8905)" fill="#E1B278" cx="91.8" cy="259.3" rx="8.9" ry="10.6"/>
		<g>
			<path fill="#F5FAFC" d="M139.1,273.9c0.5,0,0.9-0.1,1.2-0.2c0.3-0.1,0.6-0.3,0.8-0.4c0.2-0.2,0.4-0.4,0.5-0.7
				c0.1-0.3,0.2-0.5,0.3-0.8h1.7v16.5h-2.6v-12.6h-2V273.9z"/>
			<path fill="#F5FAFC" d="M145.3,273.9c0.5,0,0.9-0.1,1.2-0.2c0.3-0.1,0.6-0.3,0.8-0.4c0.2-0.2,0.4-0.4,0.5-0.7
				c0.1-0.3,0.2-0.5,0.3-0.8h1.7v16.5h-2.6v-12.6h-2V273.9z"/>
		</g>
		<path opacity="0.25" fill="#1D1D1B" d="M137.7,257.2l2.5-0.1l-4.4,0c0,0,1,5.2,3.1,8l-0.1,21.1l28.4,0.1l0.1-15.5
			c0,0-12.4,0.3-18.8-2.5C140.3,264.8,137.7,257.2,137.7,257.2z"/>
		<g>
			<rect x="148" y="81" fill="#E1B278" width="45" height="68"/>
			<ellipse fill="#E1B278" cx="172.2" cy="81.8" rx="22.8" ry="23"/>
			<path fill="#575756" d="M194.2,93.6c0,0-16.8-11.9-16.8-34.3c0,0,10.9,0.4,16.1,11.2S194.2,93.6,194.2,93.6z"/>
			<path fill="#575756" d="M156.1,71.2c0,0-4.9,11.6-6.7,19.3c0,0-4.6-13.7,1.1-20.7L156.1,71.2z"/>
			<path fill="#222329" d="M150.8,72.2c0,0-4.1-1.9-0.4-14c4.7-15.3,7.1-5,7.1-5s8.1-17.9,16,0.8c0,0,2.6-11.6,9.5,1.8
				c0,0,3.2-1.1,8.8,12.9l-12.6,3.9c0,0-17.6-4.6-24.2,0.7C154.1,74,150.8,72.2,150.8,72.2z"/>
		</g>
		<g>
			<path fill="#F5FAFC" d="M145.8,133H140h-5h-5.4h-0.3c-6.6,0-11.9,5.4-11.9,11.9l17.9,109.2c0,0.9,0.1,1.9,0.3,2.9h0.3h15.2h0.8
				h52.5c0-0.1,0-0.1,0-0.2h9h0.3c0.2-1,0.3-2,0.3-2.9l14.9-108.9c0-6.6-5.4-11.9-11.9-11.9l-0.4,0l-3.6,0c0-0.1,0-0.1,0-0.2
				l-14.6,0c0,0.1,0,0.1,0,0.2l-3.8,0v0.2c-2.8,10.2-30.1,15.8-30.1,15.8c-9.5-6.7-15.1-15.8-15.1-15.8l0.2-0.2H146"/>
			<path fill="#3659A4" d="M146.8,270.9h54.6c5.6,0,10.9-7.6,12.2-13.9h-77.8C136.9,263.3,141.2,270.9,146.8,270.9z"/>
			<path fill="#F5FAFC" d="M132.1,132.8c0,0-15.1-2.3-27,19.1l21.4,22.1L132.1,132.8z"/>
			<path fill="#F5FAFC" d="M214.9,132.8c0,0,15.1-2.3,27,19.1L220.5,174L214.9,132.8z"/>
			<polygon fill="#DF454D" points="158.3,145.4 158.3,257 174.1,257 174.1,147.3 164.5,149.1 			"/>
			<path fill="#3659A4" d="M164.5,149.1c0,0,26.7-5.2,30.1-16c0,0,5.5,6,0,18.4C194.6,151.5,194.5,143.5,164.5,149.1z"/>
			<path fill="#3659A4" d="M149.4,133.3c0,0,8.1,10.7,15.1,15.8c0,0-16.9-12.1-20.6,1.3C143.9,150.4,141.5,136.8,149.4,133.3z"/>
			<path fill="#DF454D" d="M200.1,132.8V257h12.3V133.2C212.4,133.2,200.1,132.6,200.1,132.8z"/>
			<path fill="#DF454D" d="M129.7,132.8l0.5,89.3l5.3,34.7l6.6,0.3V133.2C142.1,133.2,129.7,132.6,129.7,132.8z"/>
			<polygon fill="#DF454D" points="225.9,164.7 225.6,149.9 231.6,159.1 			"/>
			<polygon fill="#DF454D" points="121,164.7 119.7,152.5 116.3,160.4 			"/>
			<polygon fill="#3659A4" points="121.6,169.2 121,164.7 106.5,149.6 105.1,151.9 			"/>
			<polygon fill="#3659A4" points="225.4,169.2 225.9,164.7 240.4,149.6 241.8,151.9 			"/>
			<g id="ddyDE6.tif">
				<g>
					<path fill="#424793" d="M195.3,179.2C195.3,179.2,195.4,179.2,195.3,179.2c0.1,0,0.1,0.1,0.1,0.1c0,0,0,0,0,0
						c0.1,0.2,0.2,0.4,0.3,0.6c0,0.2,0,0.3,0,0.5c-0.2,0.1-0.3,0.3-0.4,0.6l0,0c-0.2,0.1-0.2,0.3-0.2,0.4c0,1.2,0,2.4,0,3.6
						c0,0.4,0,0.8,0,1.2c0,0.5-0.8,1.1-1.2,0.8c-0.7-0.4-1.5-0.3-2.3-0.3c-0.3,0-0.5,0-0.8,0.2c-0.2,0.1-0.3,0.1-0.5,0.1
						c-1.2,0-2.4,0-3.6,0c-0.3,0-0.6-0.1-0.9-0.2c-0.4-0.2-0.9-0.2-1.4,0c-0.3,0.1-0.6,0.2-0.9,0.2c-0.3,0-0.5,0-0.8,0
						c-0.2,0-0.4,0.1-0.4,0.3c-0.1,0.7-0.3,1.3-0.7,1.8l0,0c-0.1,0-0.1,0.1-0.1,0.1l0,0c-0.1,0-0.1,0.1-0.1,0.1l0,0
						c-0.2,0-0.2,0.1-0.4,0.2c-0.4,0.3-0.8,0.7-1.3,0.6c-0.1,0-0.2,0-0.3,0.1c-0.2,0.4-0.5,0.5-0.9,0.5c-0.9,0-1.8,0-2.6,0
						c0,0-0.1,0-0.1,0c-0.1-0.3-0.3-0.2-0.4-0.1c-0.2,0.2-0.5,0.2-0.7,0.2c-0.3,0-0.7,0-1,0c-0.1,0-0.1,0-0.2,0c0,0-0.1,0-0.2,0
						c-0.5,0-1.1,0.2-1.6-0.1c-0.2-0.1-0.5-0.1-0.7,0c-0.2,0.1-0.4,0.1-0.6,0.1c-0.5,0-1-0.1-1.5-0.2c-0.6-0.1-1.2,0-1.9,0
						c-0.1,0-0.2,0-0.3,0c-0.2,0.2-0.5,0.2-0.7,0.2c-0.3,0-0.7,0-1,0l0,0c-0.2-0.2-0.8-0.3-1.1-0.1c-0.5,0.2-1,0.3-1.5,0.1
						c-0.5-0.2-0.9-0.2-1.4-0.2c-0.8,0-1.5,0-2.3,0c-0.1,0-0.2,0-0.3,0c-0.9,0.4-1.9,0.3-2.8,0c-0.1,0-0.1,0-0.2,0
						c-0.4,0.2-0.7,0.2-1.1,0c-0.1,0-0.2,0-0.3,0c-0.4-0.1-0.8,0.2-1.2,0.2c-0.6,0-1.2,0-1.8,0c-0.2,0-0.4,0-0.7-0.1
						c-0.2-0.1-0.4-0.2-0.6,0.1c0,0,0,0-0.1,0c-1,0-2,0-3.1,0c-0.8,0-1.1-0.5-0.8-1.1c0,0,0-0.1,0-0.1c0,0,0,0,0-0.1
						c0.1-0.4,0.1-0.8,0-1.3c0-0.1,0-0.1,0-0.2c0.1-0.2,0-0.2-0.2-0.2c0,0-0.1,0-0.1,0c0,0,0,0,0,0c0-0.1-0.1-0.1-0.2-0.1
						c0.1-0.1,0.1-0.2,0-0.3c-0.2-0.1-0.3-0.4-0.4-0.6c0,0-0.1-0.1-0.1-0.1l0,0c0-0.4,0.5,0,0.6-0.3c-0.4,0-0.7,0-1.1,0l0,0
						c0,0,0,0,0-0.1c0,0,0,0,0,0c0.2,0,0.5,0,0.7,0.1c0.2,0.1,0.4,0,0.5-0.2c0.1-0.2-0.1-0.3-0.2-0.4c0.1-0.2,0-0.3,0-0.5
						c-0.1,0.1,0,0.2-0.1,0.2c0-0.5,0.3-0.9,0.4-1.4c0-0.2,0.2-0.2,0.4-0.2c0.4,0,0.8,0,1.2,0c0.1,0,0.2,0,0.3,0.1
						c0.4,0.5,0.5,1.2,0.7,1.7c0,0.1,0,0.2,0,0.2c-0.1,0.2,0,0.3,0.2,0.3c0.2,0,0.4,0.1,0.7,0.1c0.3,0,0.6,0,0.8,0
						c0.1,0,0.4,0,0.4-0.3c0-0.2-0.2-0.3-0.3-0.3c-0.4,0-0.6-0.3-0.7-0.6c-0.3-0.7-0.6-1.5-0.9-2.2c0.2-0.3,0-0.5-0.1-0.8
						c0-0.2-0.1-0.2-0.3-0.2c-0.2-0.4-0.4-0.9-0.6-1.4c-0.2-0.4-0.3-0.9-0.5-1.3c-0.1-0.3-0.3-0.2-0.5,0c-0.1,0.2-0.1,0.4-0.2,0.6
						c-0.4,0.9-0.7,1.8-1,2.7c-0.3,0.9-0.7,1.9-1,2.8c-0.1,0.2-0.2,0.4-0.4,0.4c-0.2,0-0.3,0.1-0.5,0.1c-0.1,0-0.2,0-0.3,0
						c0,0,0,0-0.1,0c-0.1,0-0.2,0-0.3-0.1c0,0,0,0-0.1-0.1l0,0c0,0,0,0-0.1,0c0,0-0.1,0-0.1,0c0-0.3-0.3-0.4-0.5-0.6
						c-0.6-0.5-1.3-0.8-2.1-0.9c-0.4-0.1-0.9-0.2-1.3,0.1c-0.1,0.1-0.3,0.1-0.2,0.2c0,0.2,0.2,0,0.3,0c0.1,0,0.2,0,0.2,0.1
						c0,0.1-0.1,0.2-0.1,0.2c-0.1,0-0.1,0.1-0.2,0.1c-0.5,0.1-1.1,0.1-1.6-0.2c-0.1,0-0.1-0.1-0.2,0c-0.1,0.1,0,0.2,0,0.2
						c0.1,0.2,0.3,0.3,0.5,0.5c0.3,0.3,0.7,0.5,1.1,0.5c0.6,0,1.1-0.1,1.6-0.2c0.2-0.1,0.4-0.2,0.7-0.1c-0.1,0.1-0.1,0.1-0.2,0.2
						c-1,0.3-1.1,0.7-1.1,1.3c0,0.2,0,0.3,0.2,0.2c0.1,0,0.1-0.1,0.2,0c0.1,0.1,0,0.2,0,0.2c-0.1,0.1-0.1,0.1-0.2,0.2
						c-0.3,0.3-0.6,0.5-1,0.6c1,0.1,1.9,0,2.7-0.7c0,0.1,0.2,0,0.2,0.2c0,0,0,0,0,0c-0.1,0-0.2,0.1-0.2,0.2
						c-0.1,0.3-0.3,0.6-0.3,0.9c-0.1,0.5,0.1,1,0.3,1.4c0.1-0.4,0.2-0.8,0.4-1.2c0.1-0.1,0.2-0.3,0.3-0.3c0.2,0,0,0.2,0.1,0.3
						c-0.1,0.2,0.1,0.1,0.1,0.2c-0.1,0.3-0.2,0.6-0.1,0.9c0,0.1-0.1,0.2-0.1,0.3c-0.3,0.3-0.8,0.4-1.2,0.3c-0.3-0.1-0.4-0.3-0.5-0.6
						c0-0.1-0.1-0.3-0.1-0.4c-0.1-0.1,0-0.2-0.1-0.3c0-0.1,0-0.3,0-0.4c0-0.1,0-0.2,0-0.3c0.2-0.1,0.2-0.2,0.1-0.3
						c-0.1-0.1-0.2-0.1-0.3,0c-0.7,0.2-1.4,0.2-2.1,0.1c-0.2,0-0.4-0.1-0.4-0.3c0-0.2,0.1-0.3,0.3-0.4c0.2-0.1,0.3-0.2,0.5-0.2
						c0.1,0,0.2,0,0.2-0.1c0.1,0,0.1-0.1,0.1-0.1c0.1,0,0.1-0.1,0-0.1c0-0.1,0-0.1,0-0.2c0-0.2,0-0.3,0-0.5c0,0,0-0.1,0-0.1
						c0.2,0,0.2-0.2,0.1-0.3c0-0.1-0.1-0.1-0.2-0.1c-0.2,0-0.4,0-0.6,0c0,0-0.1,0-0.1,0c-0.4-0.2-0.7-0.3-1.1-0.5l0,0
						c-0.1-0.2-0.2-0.4-0.4-0.4l0,0c-0.1-0.2-0.2-0.4-0.4-0.5l0,0c-0.2-0.5-0.1-0.6,0.4-0.8c0.3-0.1,0.7-0.1,1,0l0,0
						c0.1,0.1,0.1,0.2,0.3,0.1c0.1,0,0.1,0,0.2,0c0.2-0.1,0.5-0.2,0.6-0.4c0,0,0.1,0,0.1,0c0.3,0.1,0.5-0.1,0.8-0.1
						c0.4,0,0.5-0.1,0.3-0.5c-0.2-0.3-0.3-0.6-0.3-0.9c0-0.1,0-0.2-0.1-0.3c0,0,0-0.1,0-0.1c0.1-0.2,0-0.4-0.1-0.5
						c-0.1-0.1-0.4-0.2-0.3-0.4c0.1-0.2,0.4-0.3,0.7-0.3c0,0,0,0,0.1,0c0.6-0.1,1.2,0.2,1.7,0.5c0.2,0.1,0.4,0.2,0.5-0.1
						c0,0,0,0,0-0.1c0.3-0.2,0.4-0.4,0.6-0.6c0.3-0.3,0.7-0.5,1.1-0.4c0.3,0,0.4,0.2,0.3,0.5c-0.1,0.1-0.1,0.3-0.1,0.5
						c0,0.1,0.1,0.1,0.1,0.2l0,0c0.2,0.2,0.6,0.4,0.8,0.7c0,0.1,0,0.2,0.2,0.2c0.1,0,0.2-0.1,0.2-0.3c0.2-0.4,0.3-0.9,0.5-1.3
						c0.1-0.2,0.3-0.4,0.2-0.6c0,0,0-0.1,0-0.1c0.2-0.2,0.2-0.5,0.3-0.7c0.2-0.4,0.8-0.8,1.1-0.7c0.5,0.1,0.9,0.5,1,1
						c0.1,0.3,0.2,0.4,0.5,0.4c0.5,0,1,0,1.5,0c0.3,0,0.5-0.1,0.8-0.2c0.2-0.1,0.4-0.3,0.7-0.2c0.3,0.1,0.6,0.1,0.9,0.1
						c1.6,0,3.3,0,4.9,0c0.9,0,1.7-0.1,2.6,0c0.6,0.1,1.2,0.1,1.9,0c0.6-0.1,1.3,0,1.9,0.1c0.2,0,0.3,0.2,0.5,0.1c0.5,0,1,0,1.5,0
						c0.1,0,0.3,0,0.4-0.1c0.4-0.3,0.8-0.3,1.2-0.2c0.3,0,0.6,0,1,0c0.4-0.1,0.8,0,1.2,0.1c0.5,0.2,0.9,0.3,1.4,0.2c0.5,0,1,0,1.5,0
						c0.3,0,0.5-0.1,0.7-0.2c0.4-0.3,0.8-0.4,1.2-0.1c0.4,0.3,0.7,0.3,1.1,0.3c0.3,0,0.5,0,0.8,0c0.3,0,0.7,0,1-0.2
						c0.2-0.2,0.5-0.2,0.8-0.1c0.6,0.1,1.2-0.1,1.8,0.1c0,0,0.1,0,0.2,0c0.7-0.1,1.4,0,2.2,0c0.1,0,0.2,0,0.3,0.1
						c0.4,0.3,0.9,0.2,1.4,0.2c0.3,0,0.4-0.1,0.7-0.2c0.5-0.4,0.9-0.4,1.4,0c0.1,0.1,0.2,0.2,0.4,0.2c0.7,0,1.4,0,2,0
						c0.1,0,0.3,0,0.3-0.2l0,0c0.1,0,0.2-0.1,0.3-0.1c0.3-0.2,0.7-0.2,1,0c0.3,0.3,0.7,0.3,1.2,0.3c0.3,0,0.5,0,0.8,0
						c0.3,0,0.5,0,0.7-0.2c0.2-0.1,0.4-0.2,0.6-0.2C193.9,179.2,194.6,179,195.3,179.2z M194.3,186.1
						C194.3,186.1,194.4,186.1,194.3,186.1c0.2-0.5,0.1-0.9,0.1-1.3c0,0,0-0.1,0-0.1c0.1-1.1,0-2.3,0.1-3.4c0-0.3-0.1-0.7,0.2-1
						c0.1,0,0.2,0,0.2-0.1c0,0,0,0,0.1-0.1l0,0c0.1,0,0.2,0,0.1-0.1c-0.1-0.1,0-0.3-0.2-0.2c-0.1,0-0.1,0-0.2,0
						c-0.1-0.1-0.2-0.1-0.2,0c-0.2,0-0.4,0-0.6,0c-0.2-0.2-0.4-0.1-0.6,0c-0.1,0-0.1,0-0.2,0c0,0,0-0.1-0.1-0.1
						c-0.1,0.1-0.2,0.2-0.2,0.3c0,0.2,0.1,0.2,0.3,0.2c0,0,0.1,0,0.1,0c0.3,0.1,0.4,0.3,0.4,0.6c0.1,0.5,0,1,0,1.5
						c-0.1,0.3,0,0.7-0.1,1c0,0.1,0.1,0.2-0.1,0.3c-0.1,0-0.2-0.1-0.2-0.2c-0.2-0.3-0.5-0.5-0.7-0.8c-0.1-0.2-0.2-0.1-0.4-0.1
						c-0.1-0.1-0.3-0.2-0.4-0.5c0-0.3-0.5-0.9-0.8-1c-0.1-0.2-0.4-0.2-0.5-0.5c0,0,0.1-0.1,0-0.1c0-0.1-0.1,0-0.1,0l0,0
						c0-0.2-0.4-0.8-0.6-0.8c0,0-0.1,0.1-0.1,0.1c-0.1-0.1-0.2-0.2-0.4,0c-0.1,0.2-0.1,0.3-0.1,0.5c0,1.6,0,3.3,0,4.9
						c0,0.3,0,0.4-0.3,0.4c-0.2,0-0.2,0.1-0.2,0.3c0,0.1,0.1,0.2,0.2,0.2c0.6,0,1.1,0,1.7,0c0.1,0,0.2-0.1,0.2-0.2
						c0-0.1-0.1-0.2-0.2-0.2c-0.1,0-0.3,0.1-0.3-0.1c0.1,0,0.3,0,0.4-0.1c-0.2,0-0.3-0.1-0.3-0.3c0-0.8,0-1.5-0.2-2.3
						c0,0.9,0,1.8,0,2.7c0,0-0.1-0.1,0-0.1c0-0.3-0.1-0.6-0.1-1c0-0.6,0-1.1,0-1.7c0-0.5,0-0.5,0.4-0.4c0.1,0,0.2,0.1,0.3,0.2
						c0.2,0.2,0.3,0.5,0.5,0.7c0,0.1,0,0.2,0.1,0.3c0.3,0.3,0.7,0.7,0.9,1c0.1,0.1,0.2,0.1,0.3,0.1c0.4,0.3,0.7,0.6,1,1
						c0.1,0.2,0.3,0.4,0.5,0.4C194.1,186.3,194.2,186.3,194.3,186.1L194.3,186.1z M148.5,189.7C148.5,189.7,148.6,189.7,148.5,189.7
						C148.6,189.7,148.5,189.7,148.5,189.7c0-0.2,0-0.3-0.1-0.3c-0.1,0-0.2,0-0.2,0.1c0,0,0,0,0,0.1c0,0-0.1,0-0.1,0
						c-0.3,0-0.7,0-0.8-0.4c0-0.5,0-1.1,0-1.6c0-0.1,0-0.3,0.2-0.3c0.1,0,0.1-0.1,0.1-0.2c0-0.1-0.1-0.1-0.2-0.1c-0.2,0-0.5,0-0.7,0
						c-0.1,0-0.2,0-0.3,0.1c-0.1,0.2,0.1,0.1,0.2,0.2c-0.1,0-0.1,0.1-0.1,0.2c0,0.7,0,1.4,0,2.1c0,0.1,0.1,0.1,0.1,0.1
						c0,0,0,0,0,0.1c-0.1,0-0.1,0-0.1,0.1l0,0c-0.3,0.1,0.1,0.2,0,0.3c0,0.1,0.1,0.2,0.2,0.2c0.5,0,1,0,1.5,0c0.1,0,0.2,0,0.2-0.2
						c0-0.1,0.1-0.1,0.1-0.2c0,0,0,0,0-0.1c0,0,0.1,0,0.1,0c0,0,0,0,0,0.1c0,0.1,0,0.1,0.1,0.2c0,0,0,0.1,0,0.1
						c0.3,0.1,0.6,0.1,0.9,0c0,0-0.1-0.1-0.1-0.1c0.1-0.1,0.2-0.1,0.1-0.2c-0.2-0.2-0.2-0.5,0-0.7c0,0,0-0.1,0-0.1
						c0.3,0,0.6,0,0.8,0c0.2,0.3,0.1,0.7,0.4,0.9c0,0-0.1,0.1-0.1,0.1c0,0.1,0.1,0.1,0.1,0.1c0.2,0,0.4,0,0.5,0c0.1,0,0.2,0,0.2-0.2
						c0.1-0.2,0.1-0.3-0.1-0.3c-0.1,0-0.2-0.1-0.2-0.2c-0.1-0.4-0.4-0.7-0.5-1.2c0,0,0.1,0,0.1,0c0,0,0,0,0,0c0,0,0,0,0,0
						c0-0.3-0.2-0.5-0.3-0.8c-0.1,0.1-0.1,0.2-0.1,0.2c-0.1,0-0.1-0.1-0.1-0.2c-0.1-0.2-0.2-0.4-0.3-0.7c-0.1-0.2-0.2-0.1-0.3,0
						c-0.1,0.1-0.2,0.3-0.2,0.4c-0.2,0.7-0.5,1.3-0.8,2c-0.1,0.2-0.2,0.4-0.5,0.4C148.5,189.8,148.5,189.8,148.5,189.7L148.5,189.7z
						 M159.4,180.9L159.4,180.9L159.4,180.9L159.4,180.9c0.1,0,0,0.2,0.2,0.2c0.1,0,0.1-0.1,0.1-0.2c-0.1-0.2,0-0.3-0.1-0.5
						c0,0,0-0.1,0-0.1c0,0,0-0.1,0-0.1c0.1-0.1,0.1-0.2,0-0.2c0,0,0,0,0-0.1c-0.1-0.3-0.1-0.3-0.4,0c-0.9,0-1.8,0-2.7,0
						c0-0.1-0.1-0.1-0.1,0c-0.1,0-0.2,0-0.3,0.1c-0.1,0.1-0.3,0.1,0,0.2c0,0,0,0.1,0.1,0.1c0,0.1,0,0.1,0.1,0.1
						c0.5,0.1,0.5,0.1,0.5,0.5c0,1.4,0,2.8,0,4.2c0,0.3-0.1,0.5-0.4,0.6c-0.2,0-0.2,0.2-0.2,0.2c0,0.1,0,0.2,0.2,0.2
						c0.1,0,0.2,0,0.2,0c0.9,0,1.8,0,2.7,0c0.4,0,0.6-0.1,0.6-0.6c0-0.2,0-0.3,0-0.5c0-0.1,0-0.3-0.2-0.3c-0.2,0-0.2,0.2-0.3,0.3
						c-0.1,0.1,0,0.2-0.2,0.3c-0.3,0.2-1.1,0.2-1.4,0c-0.1,0-0.1-0.1-0.1-0.1c0.2-0.7,0.1-1.3,0.1-2c0.3-0.1,0.6,0,0.9,0
						c0.1,0,0.2,0.1,0.2,0.2c0,0.2,0.1,0.4,0.3,0.3c0.2-0.1,0.4-0.2,0.3-0.4c-0.1-0.2-0.1-0.5,0-0.7c0.1-0.1,0-0.2-0.1-0.3
						c-0.1-0.1-0.1-0.1-0.2,0c-0.4,0.3-0.8,0.2-1.3,0.2c-0.2,0-0.3-0.1-0.3-0.3c0-0.3,0-0.6,0-0.9c0-0.9,0-0.9,0.9-0.7
						c0.2,0,0.5,0.1,0.5,0.4c0,0.2,0.2,0.2,0.4,0.2C159.4,181.1,159.5,181,159.4,180.9z M169.4,190.2c0,0.1,0,0.1,0.1,0.1
						c0.3,0,0.7,0,1,0c0.1,0,0.1-0.1,0.1-0.1c0-0.1,0.1-0.1,0.1-0.2c-0.3-0.1-0.4-0.4-0.3-0.7c0-0.1,0-0.1,0-0.2
						c0-0.1-0.1-0.4,0.1-0.4c0.2-0.1,0.4,0,0.5,0.2c0,0.1,0.1,0.1,0.2,0.1c0.2-0.2,0.2-0.4,0.1-0.6c0-0.2-0.2-0.1-0.3,0
						c-0.1,0.1-0.3,0-0.4,0c-0.1-0.4,0.1-0.6,0.5-0.7c0.1,0.1,0.2,0.1,0.3,0c0.1-0.1,0.1-0.3,0.1-0.5c0-0.1-0.1-0.1-0.2-0.1
						c-0.6,0.1-1.1,0-1.7,0c-0.2,0-0.2,0.1-0.1,0.2c0,0.2,0.2,0.1,0.2,0.3c0,0.6,0,1.2,0,1.8c0,0.2,0,0.4-0.1,0.5c0,0,0,0.1-0.1,0.1
						C169.4,190.1,169.4,190.1,169.4,190.2z M165.6,185.5L165.6,185.5c-0.3-0.5-0.8-0.9-1.1-1.4c-0.1-0.1-0.1,0-0.1,0.1
						c-0.2-0.3-0.4-0.5-0.6-0.8c-0.1-0.2-0.1-0.3,0.1-0.5c0.4-0.3,0.6-0.8,0.7-1.3c0.1-0.7-0.3-1.5-0.9-1.7c-1-0.4-2-0.1-3.1-0.2
						c-0.2,0-0.3,0.1-0.3,0.2c0,0.2,0.1,0.2,0.3,0.3c0.1,0,0.2,0,0.3,0.1c-0.1,0-0.2,0.1-0.1,0.2c0.1,0.2,0,0.3,0,0.5
						c0,1.2,0,2.5,0,3.7c0,0.2,0,0.3-0.1,0.5c-0.1,0.2,0.1,0.1,0.2,0.1c0,0.1,0,0.1-0.1,0.1c-0.2,0-0.3,0.1-0.3,0.3
						c0,0.2,0.2,0.2,0.4,0.2c0.5,0,1,0,1.5,0c0.2,0,0.4-0.1,0.4-0.2c0-0.2-0.2-0.3-0.4-0.3c-0.2,0-0.3-0.1-0.3-0.4
						c0-0.4,0-0.8,0-1.2c0-0.1,0-0.2,0.1-0.3c0.3,0,0.5,0,0.6,0.3c0.1,0.1,0.2,0,0.2,0c0,0,0,0,0,0.1c0,0,0,0,0.1,0.1c0,0,0,0,0,0.1
						c-0.1,0.2,0,0.3,0.1,0.4c0.1,0.1,0.1,0,0.1-0.1c0.2,0.2,0.3,0.4,0.5,0.6c0.3,0.4,0.6,0.9,1.2,1c0,0,0,0,0,0.1c0,0,0,0,0-0.1
						c0.1,0,0.2,0,0.3,0c0.2,0.1,0.5,0.1,0.7,0c0.4,0,0.4-0.1,0.3-0.5C166,185.5,165.8,185.6,165.6,185.5z M141.9,182.8
						C141.9,182.8,141.9,182.7,141.9,182.8l-0.1-0.1c0-0.1,0-0.1-0.1-0.1l0,0l0,0c0,0,0-0.1-0.1-0.1c-1.3-1.4-1.6-1.6-2-1.6
						c0.2,0.4,0.2,0.8,0.3,1.2c0.2,0.7,0.5,1.2,1,1.6c0.1,0.1,0.1,0.1,0.2,0.2c0,0.2,0.2,0.3,0.3,0.4c0.4,0.2,0.8,0.5,1.1,0.9
						c0.1,0.1,0.2,0.3,0.3,0c0.1-0.1,0.2-0.3,0.3-0.4c0.3-0.7,0.5-1.4,0.7-2.1c0.1-0.3,0-0.7-0.2-0.9c0-0.1-0.1-0.2-0.2-0.1
						c-0.1,0,0,0.2,0,0.2c0,0.1,0,0.2,0,0.2c0,0.1,0,0.2-0.1,0.2c-0.1,0-0.2-0.1-0.2-0.1c-0.3-0.4-0.5-0.9-0.3-1.5
						c0-0.1,0.1-0.1,0-0.2c0,0-0.1,0-0.1,0.1c-0.4,0.5-0.8,1-0.7,1.7c0,0.1,0,0.3,0,0.4C142,182.7,142,182.7,141.9,182.8
						L141.9,182.8z M181.8,180.5c0.1-0.1,0.3,0,0.3-0.2c0,0,0.1-0.1,0.1-0.1l0,0c0,0,0-0.1,0-0.1c0-0.1,0-0.2-0.1-0.2
						c0,0,0,0.1,0,0.1c-0.1,0-0.1,0-0.2,0c-0.1-0.1-0.2-0.1-0.3,0c-0.4,0-0.7,0-1.1,0c-0.1-0.1-0.2-0.1-0.2,0c0,0-0.1,0-0.1,0
						c0,0,0-0.1-0.1,0c0,0,0.1,0,0.1,0c-0.3,0.1-0.2,0.3-0.1,0.5c0.2,0.1,0.5,0.2,0.5,0.5c0,1.7,0,3.4,0,5.1c0,0.6,0,1.1,0,1.7
						c-0.1,0.1-0.1,0.2-0.1,0.4c0,0,0,0-0.1,0c0-0.1,0-0.2-0.1-0.2c0,0.2-0.2,0.3-0.3,0.5c-0.1,0.1-0.1,0.2,0,0.2
						c-0.1,0.1-0.1,0.2-0.2,0.3c-0.2,0.1-0.3,0.3-0.2,0.5c0,0.1,0.5,0.1,0.6,0c0.1-0.2,0.3-0.3,0.5-0.5c0.2-0.3,0.5-0.5,0.7-0.9
						c0.1-0.4,0.1-0.7,0.3-1.1c0.1,0.2,0,0.5,0.1,0.7c0-0.6,0-1.2,0-1.8c0-1.7,0-3.4,0-5.1C181.9,180.5,181.8,180.5,181.8,180.5z
						 M172,187.4c0,0.7,0,1.5,0,2.2c0,0.1,0,0.2,0.1,0.2c-0.1,0.1-0.2,0.2-0.1,0.4c0,0.1,0,0.2,0.1,0.2c0.3,0,0.6,0,0.8,0
						c0.1,0,0.1-0.1,0-0.2c0.1-0.1,0.2-0.2,0.1-0.4c-0.1-0.8-0.1-1.5,0-2.3c0-0.1-0.1-0.1-0.1-0.2c0.2-0.2,0.1-0.3-0.2-0.3
						c-0.2,0-0.3,0-0.5,0C172,187,171.9,187.1,172,187.4z M166.5,188.8c0.1,0,0.1,0.2,0.3,0.1c0.1-0.1,0.1-0.2,0.1-0.3
						c0-0.1,0-0.1,0-0.2c0-0.2-0.1-0.3-0.2-0.2c-0.2,0.1-0.4,0.1-0.6,0c0.1-0.1,0.2-0.1,0.1-0.3c-0.1-0.2,0-0.3,0.2-0.3
						c0.1,0,0.2,0.1,0.2,0c0.1,0.1,0.3,0.1,0.3-0.1c0-0.2,0.2-0.5-0.2-0.5c-0.5,0-1,0-1.5,0c-0.1,0-0.2,0-0.2,0.1
						c0,0.1,0,0.2,0.1,0.2c0.1,0.1,0.2,0.2,0.2,0.3c0,0.6,0,1.2,0,1.9c0,0.1,0,0.3-0.1,0.3c-0.2,0.1-0.1,0.2-0.1,0.4
						c0,0.1-0.1,0.2,0.1,0.2c0.3,0,0.5,0,0.8,0c0.2,0,0.1-0.1,0.1-0.2c0.2-0.2,0.1-0.3,0-0.4c0,0,0.1-0.1,0.1-0.1c0-0.2,0-0.4,0-0.5
						C166.2,188.8,166.5,189,166.5,188.8z M178.6,188.2c-0.5,0-0.5,0-0.5-0.4c0-0.4,0.3-0.1,0.5-0.2c0.4,0.1,0.3-0.2,0.3-0.4
						c0-0.1,0-0.3-0.2-0.3c-0.5,0.1-1,0-1.5,0c-0.1,0-0.2,0-0.2,0.1c0,0.1,0,0.2,0.1,0.2c0.3,0.1,0.2,0.4,0.2,0.6c0,0.5,0,1,0,1.5
						c0,0.1,0,0.2-0.1,0.3c-0.1,0.1-0.2,0.1-0.1,0.2c0.1,0.1,0.2,0.1,0.3,0.1c0.3,0,0.6-0.1,0.9,0.1c-0.4,0.1-0.8,0-1.1,0.1
						c0.5,0,1,0,1.6,0c-0.1-0.1-0.3,0-0.3-0.1c0.3,0,0.5-0.2,0.5-0.5c0-0.1,0-0.2-0.1-0.2c-0.1,0-0.2,0-0.2,0.1
						c-0.1,0.3-0.4,0.2-0.7,0.2c-0.2,0-0.1-0.3-0.1-0.4c0-0.1,0-0.1,0-0.2c0-0.2-0.1-0.4,0.1-0.4c0.2-0.1,0.4,0,0.5,0.2
						c0.1,0.2,0.2,0.1,0.2,0c0-0.1,0-0.2,0.1-0.3C178.9,188.2,178.8,188.1,178.6,188.2z M163.2,190.2c0.5-0.2,0.9-0.4,1.2-0.9
						c0.2-0.5,0.2-0.9,0-1.4c-0.3-0.8-1.4-1.1-2.2-0.8c-1,0.4-1.4,1.5-0.7,2.5c0.2,0.3,0.6,0.5,0.9,0.6c-0.1,0-0.2,0-0.2,0.1
						c0.4,0,0.8,0,1.2,0c0,0,0,0,0-0.1C163.4,190.2,163.3,190.2,163.2,190.2z M174,189.8c-0.1,0.1-0.2,0.3,0,0.4
						c0,0.1-0.1,0.2,0.1,0.2c0.3,0,0.6,0,0.8,0c0.2,0,0.1-0.1,0.1-0.2c-0.1-0.1,0.2-0.2,0-0.2c-0.4-0.2-0.3-0.5-0.3-0.8
						c0-0.2,0.1-0.2,0.2-0.2c0.2,0,0.3,0.1,0.3,0.2c0.3,0.5,0.6,0.8,1.1,1c-0.1,0.1-0.2,0-0.2,0.1c0.2,0,0.4,0.1,0.6,0
						c-0.1-0.1-0.3,0-0.3-0.1c0.1-0.1,0.2,0,0.3-0.1c0.1-0.1,0.2-0.2,0-0.2c-0.5-0.1-0.7-0.6-1-0.9c-0.2-0.2-0.3-0.4,0-0.6
						c0.2-0.3,0.3-0.6,0.1-0.9c-0.2-0.3-0.4-0.4-0.7-0.4c-0.3,0-0.6,0-1,0c-0.2,0-0.4,0-0.5,0.1c0.1,0.1,0.2,0.1,0.2,0.2
						c0,0.7,0,1.4,0,2.1C173.9,189.6,173.9,189.7,174,189.8z M156,190.2c-0.1,0.2,0,0.2,0.1,0.2c0.4,0,0.9,0,1.3,0
						c0.2,0,0.3,0,0.5,0c-0.1-0.1-0.2-0.1-0.3-0.1c0.1,0,0.2-0.1,0.3-0.1c0.9-0.2,1.3-1.2,1.1-2c-0.1-0.4-0.4-0.7-0.7-0.8
						c-0.7-0.3-1.5-0.2-2.2-0.2c-0.1,0-0.2,0-0.2,0.1c0,0.1,0,0.1,0.1,0.2c0.2,0.1,0.2,0.3,0.2,0.5c0,0.6,0,1.1,0,1.7
						c0,0.1,0,0.3-0.1,0.4C155.8,189.9,155.9,190,156,190.2z M152.8,189.7c0.1,0,0.3,0.1,0.2-0.2c-0.1-0.3-0.1-0.6,0-0.8
						c0.2,0,0.3,0.3,0.5,0.2c0.1,0.1,0.1,0.2,0.2,0.3c0,0.3,0.4,0.7,0.7,0.8c0.1,0,0.3,0.1,0.3,0.1c0.2,0.2,0.3,0,0.3-0.1
						c0-0.1,0-0.1,0-0.2c0-0.7,0-1.4,0-2c0-0.1-0.1-0.2,0.1-0.3c0,0.9,0,1.7,0,2.6c0.1-0.8,0-1.7,0.1-2.5c0,0-0.1-0.1-0.1-0.1
						c0.2-0.3,0.1-0.3-0.2-0.3c-0.2,0-0.4,0-0.6,0c-0.1,0-0.1,0-0.2,0.1c0,0.1,0,0.1,0.1,0.2c0.3,0.1,0.3,0.3,0.3,0.5
						c0,0.3,0,0.6,0,1c-0.1,0.1-0.3-0.2-0.3,0.1c-0.5-0.5-1-1-1.4-1.5c-0.1-0.2-0.3-0.4-0.5-0.4c-0.2,0-0.1,0.3-0.1,0.5
						c0,0.7,0,1.3,0,2c0,0.1,0,0.3-0.1,0.3c-0.2,0.1-0.1,0.2-0.1,0.3c0,0,0,0.1,0,0.1c0.1,0.1,0.9,0.1,1,0c0,0,0-0.1,0-0.1
						C153.2,189.9,152.9,189.9,152.8,189.7z M178,186.1c0.2,0,0.4,0,0.6,0c0.3,0.1,0.5,0.1,0.8,0c0.1-0.1,0.2-0.1,0.3-0.2
						c-0.1-0.1-0.2-0.3-0.4-0.3c-0.3,0-0.4-0.2-0.4-0.4c0-1.5,0-3,0-4.5c0-0.2,0-0.3,0.3-0.4c0.2,0,0.2-0.1,0.2-0.3
						c0-0.2-0.1-0.2-0.3-0.2c-0.5,0-1,0-1.4,0c-0.3,0-0.4,0.1-0.3,0.5c0,0.2,0.3,0.3,0.3,0.6c0,1.4,0,2.7,0,4.1c0,0.1-0.1,0.3,0,0.4
						c0,0.1-0.1,0.2-0.2,0.2c-0.1,0-0.2,0.1-0.2,0.2c0,0.1,0.1,0.2,0.3,0.3C177.7,186.2,177.9,186.2,178,186.1z M170.5,185.8
						c0,0.2,0.1,0.3,0.3,0.3c0.5,0,1,0,1.5,0c0.2,0,0.3-0.1,0.3-0.2c0-0.2-0.1-0.2-0.2-0.3c-0.2,0-0.2-0.1-0.1-0.3
						c0.1-0.4,0.3-0.7,0.4-1.1c0.1-0.3,0.2-0.3,0.4-0.3c0.3,0,0.6,0,0.9,0c0.3,0,0.5,0.1,0.6,0.4c0.1,0.4,0.3,0.7,0.4,1.1
						c0,0.1,0.1,0.2,0,0.3c-0.1,0.3,0,0.4,0.3,0.4c0.4,0,0.7,0,1.1,0c0.2,0,0.4,0,0.6-0.2c0,0.1,0,0.2,0.1,0.1
						c0.1-0.1,0.2-0.1,0-0.2c-0.1,0,0-0.3-0.2-0.1c-0.1,0-0.1-0.1-0.2-0.1c-0.4,0-0.6-0.3-0.8-0.6c-0.3-0.7-0.6-1.5-0.8-2.2
						c0.1-0.4,0-0.8-0.4-1.1c-0.1-0.1-0.1-0.2-0.2-0.3c-0.2-0.5-0.3-1-0.6-1.5c-0.1-0.1-0.1-0.3-0.3-0.3c-0.2,0-0.2,0.2-0.3,0.3
						c0,0.1,0,0.2-0.1,0.3c-0.4,1-0.8,2-1.1,3c-0.2,0.6-0.4,1.1-0.6,1.7c-0.2,0.5-0.3,0.6-0.9,0.6c0-0.1-0.1-0.1-0.1-0.1
						c0.2-0.3,0.4-0.7,0.5-1c0,0.1,0,0.3,0.1,0.4c0-0.4,0-0.7,0-1.1c0-0.1-0.1-0.2-0.2-0.1c0,0-0.1,0-0.1-0.1c-0.2-0.4-0.5-0.7-1-1
						c-0.2-0.1-0.1-0.2,0-0.2c0.4-0.4,0.6-0.8,0.5-1.4c0.1-0.1,0.2-0.2,0.1-0.3c-0.2-0.3-0.4-0.6-0.8-0.8c-0.2-0.1-0.1,0.1-0.1,0.1
						c-0.3,0-0.6-0.2-0.9-0.2c-0.6,0-1.1,0-1.7,0c-0.2,0-0.4,0-0.4,0.2c0,0.2,0.2,0.2,0.3,0.3c0,1.6,0,3.2,0,4.8
						c0,0.1,0,0.3,0.1,0.3c0,0,0,0.1,0,0.1c-0.2,0-0.4,0.1-0.4,0.3c0,0.2,0.3,0.2,0.5,0.2c0.9-0.1,1.7,0.1,2.6-0.1
						C170,186.3,170.2,185.9,170.5,185.8z M187.9,185.6c0-0.1-0.2,0.1-0.1-0.1c0,0-0.1-0.4-0.3-0.2c-0.1,0-0.1-0.1-0.1-0.2
						c-0.3-0.8-0.6-1.6-1-2.5c-0.1-0.3-0.2-0.7-0.3-0.9c-0.2-0.5-0.4-1-0.6-1.5c-0.1-0.2-0.2-0.4-0.4-0.5c-0.3-0.1-0.4,0.3-0.4,0.4
						c-0.2,0.6-0.4,1.2-0.6,1.8c-0.4,1.1-0.8,2.1-1.1,3.2c-0.1,0.3-0.3,0.6-0.7,0.6c-0.1,0-0.2,0.1-0.2,0.2c0,0.2,0.1,0.2,0.3,0.3
						c0.5,0,1,0,1.5,0c0.1,0,0.2-0.1,0.3-0.2c0-0.1-0.1-0.2-0.2-0.3c-0.2,0-0.2-0.2-0.1-0.3c0.1-0.4,0.3-0.7,0.4-1.1
						c0.1-0.2,0.2-0.3,0.4-0.3c0.4,0,0.7,0,1.1,0c0.2,0,0.3,0.1,0.4,0.2c0.1,0.3,0.3,0.6,0.3,0.9c0,0.3,0.5,0.6,0,0.9
						c0.2,0,0.2,0.2,0.4,0.2c0.1,0.1,0.2,0.1,0.3,0c0,0,0.1,0,0.1,0c0.3,0.1,0.7,0.1,1,0c0.1,0,0.3-0.1,0.3-0.2
						c0-0.2-0.2-0.2-0.3-0.2C188,185.6,188,185.6,187.9,185.6z M154,180.7c-0.7,0-1.3,0-2,0c0.4,0.1,0.9,0.1,1.3,0.1
						c0.2,0,0.4,0.1,0.6,0c0,0.1,0,0.2-0.1,0.3c-0.3,0.5-0.6,1.1-1,1.6c-0.3,0.4-0.5,0.9-0.9,1.3c-0.1-0.1-0.1-0.2-0.2-0.1
						c-0.1,0.2-0.3,0.3-0.3,0.6c0,0.1-0.1,0.2-0.1,0.3c-0.3,0.1-0.4,0.3-0.4,0.6c0,0.1,0,0.2,0,0.3c-0.2,0.2-0.1,0.4,0,0.6
						c-0.1,0.2,0,0.2,0.1,0.2c0.6,0,1.2-0.1,1.8-0.1c-0.2-0.1-0.4,0-0.5-0.1c0.1,0,0.2,0,0.4,0c0.7,0,1.5,0,2.2,0
						c0.2,0,0.4-0.1,0.4-0.3c0.1-0.3,0.2-0.7,0.2-1c0-0.1,0-0.3-0.2-0.3c-0.2,0-0.3,0.1-0.3,0.3c-0.1,0.2-0.2,0.5-0.4,0.5
						c-0.8,0.1-1.5,0.1-2.3,0c0.7-0.1,1.4,0,2-0.1c-0.5,0-0.9,0-1.4,0c-0.2,0-0.4,0-0.5-0.1c0.2-0.4,0.5-0.8,0.8-1.2
						c0,0,0,0.1,0.1,0.1c0,0,0,0,0,0c0-0.1,0-0.1-0.1-0.1c0-0.1,0-0.1,0.1-0.1c0,0,0.1,0.1,0.1,0c0-0.1,0-0.1-0.1-0.1
						c0,0,0-0.1,0-0.1c0.5-0.6,0.8-1.4,1.4-2c0.2-0.3,0.4-0.7,0.6-1.1c0.1-0.1,0.2-0.3,0.1-0.4c-0.1-0.2-0.3-0.1-0.4-0.1
						c-1.2,0-2.4,0.1-3.5-0.1c-0.2,0-0.3,0-0.3,0.2c-0.1,0.3-0.1,0.6-0.2,1c0,0.1-0.1,0.3,0.1,0.4c0.2,0.1,0.3-0.1,0.4-0.2
						c0.1,0,0.1,0.1,0.1,0.1c0-0.2,0.3-0.3,0.2-0.6c0-0.2,0.2-0.1,0.3-0.2c0.6,0,1.2,0,1.8-0.1C154,180.6,154,180.6,154,180.7z
						 M169.4,186.8c0.6,0,1.2,0,1.9,0C171,186.7,169.7,186.7,169.4,186.8z M178.9,186.9C178.9,186.8,178.9,186.8,178.9,186.9
						c-0.6-0.1-1.1-0.1-1.7-0.1c0,0,0,0,0,0.1C177.7,186.9,178.3,186.9,178.9,186.9z M167,186.8c-0.6,0-1.2-0.2-1.8,0
						C165.8,186.8,166.4,186.8,167,186.8z M156,186.8C156,186.8,156,186.8,156,186.8c0.5,0.1,1.1,0.1,1.7,0.1
						C157.1,186.6,156.5,186.9,156,186.8z M175.2,186.9c-0.2-0.1-1.1-0.1-1.3,0C174.3,186.9,174.8,186.9,175.2,186.9z M146.5,186.8
						C146.5,186.8,146.5,186.8,146.5,186.8c0.3,0.1,0.6,0.1,1,0.1C147.1,186.7,146.8,186.7,146.5,186.8z M173,186.9
						C173,186.8,173,186.8,173,186.9c-0.3-0.1-0.6-0.2-0.9,0C172.4,186.9,172.7,186.9,173,186.9z M150.3,186.3
						C150.3,186.2,150.3,186.2,150.3,186.3c-0.6,0-1.2,0-1.8,0c0,0,0,0,0,0C149.1,186.3,149.7,186.3,150.3,186.3z M155.2,186.9
						c-0.3-0.2-0.7-0.1-0.9,0C154.6,186.9,154.9,186.9,155.2,186.9z M164.6,181.9c0-0.3,0.1-0.6,0-0.9
						C164.5,181.3,164.5,181.6,164.6,181.9z M159.3,188.2c-0.2,0.2-0.2,0.4,0,0.6C159.3,188.6,159.3,188.4,159.3,188.2z
						 M159.9,185.5c0-0.2,0.1-0.4-0.1-0.6C159.8,185.1,159.8,185.2,159.9,185.5z M177.3,179.9c-0.1,0-0.2,0-0.2,0.2
						c0,0,0,0.1,0.1,0.1C177.2,180.1,177.2,180.1,177.3,179.9z M177.3,179.8C177.3,179.8,177.4,179.8,177.3,179.8
						c0.1,0.1,0.1,0,0.1,0C177.5,179.8,177.5,179.7,177.3,179.8C177.4,179.7,177.4,179.8,177.3,179.8z"/>
					<path fill="#424793" d="M143,189.1C143,189.1,143,189.1,143,189.1c-0.2,0-0.2,0-0.3,0c0-0.1,0-0.1,0-0.2l0,0
						c0.2,0,0.3-0.1,0.3-0.3l0,0c0.2,0,0.2-0.1,0.2-0.2l0,0c0.1,0,0.1,0,0.2-0.1c0.2-0.4,0.1-0.9,0.1-1.3c0-0.2,0-0.3,0.2-0.3l0,0
						c0,0.3,0.3,0.6,0.6,0.6l0,0c0,0.2,0.2,0.2,0.3,0.2l0,0c0,0.2,0.1,0.2,0.2,0.2c0.1,0,0.2,0,0.3-0.1l0,0c0,0.2,0.1,0.1,0.2,0.2
						c-0.3,0-0.7,0-1,0c-0.1,0-0.2,0-0.3,0c-0.1,0-0.1,0.1-0.1,0.2c0,0,0,0.1,0,0.1c-0.2,0.1-0.2,0.2-0.1,0.4c0,0,0,0,0,0.1
						c-0.1,0.1-0.3,0.2-0.3,0.4l0,0c-0.1,0-0.2,0-0.1,0.1c0,0,0,0,0,0C143.1,188.9,143.1,189,143,189.1z"/>
					<path fill="#2E3279" d="M142.7,188.9c0,0.1,0,0.1,0,0.2c-0.1,0-0.1,0.1-0.1,0.1c0,0-0.1,0-0.1,0c0-0.1-0.2,0-0.1-0.2
						C142.5,189,142.6,189,142.7,188.9z"/>
					<path fill="#F1F1F8" d="M194,186.1c-0.2-0.1-0.4-0.2-0.5-0.4c-0.3-0.4-0.6-0.7-1-1c0-0.1,0-0.1-0.1-0.2c-0.3-0.3-0.7-0.6-0.9-1
						c-0.1-0.1-0.2-0.3-0.4-0.3c-0.2-0.2-0.3-0.5-0.5-0.7c-0.1-0.1-0.1-0.2-0.3-0.2c-0.1-0.2-0.3-0.4-0.4-0.6c0,0.1,0,0.1,0,0.2
						c0,1,0,2.1,0,3.1c0,0.1,0,0.2,0.1,0.3c0,0,0,0.1,0,0.1l0,0c0,0.2,0.2,0.1,0.3,0.1c0.1,0,0.2,0.1,0.2,0.2c0,0.1-0.1,0.2-0.2,0.2
						c-0.6,0-1.1,0-1.7,0c-0.1,0-0.2-0.1-0.2-0.2c0-0.1,0.1-0.3,0.2-0.3c0.3,0,0.3-0.2,0.3-0.4c0-1.6,0-3.3,0-4.9
						c0-0.2,0-0.3,0.1-0.5c0.2-0.2,0.2-0.1,0.4,0c0.3,0.2,0.4,0.5,0.7,0.7l0,0c0,0,0,0,0,0.1c0,0.1,0,0.1,0.1,0.1l0,0
						c0.1,0.3,0.4,0.3,0.5,0.5c0.2,0.4,0.5,0.7,0.8,1c0.1,0.2,0.2,0.3,0.4,0.5c0.4,0.4,0.8,0.9,1.2,1.3c0,0.1,0,0.1,0.1,0.1l0,0
						c0,0.1,0.1,0.1,0.1,0.2c0,0,0,0,0,0.1c0.1,0.1,0.3,0.1,0.2-0.1c-0.1-0.3,0-0.6-0.1-0.9c0-0.2,0-0.4,0-0.5c0.1-0.7,0-1.4,0-2.1
						c0-0.3-0.2-0.4-0.5-0.3c0,0-0.1,0-0.1,0c-0.1-0.1-0.1-0.3,0-0.4c0.1,0,0.1,0,0.2,0c0.2,0.1,0.4,0.1,0.6,0c0.2,0,0.4,0,0.6,0
						c0.1,0,0.2,0,0.2,0c0.1,0,0.1,0,0.2,0c0,0.1,0.1,0.2,0.1,0.3l0,0c0,0-0.1,0-0.1,0.1c0,0.1-0.1,0.1-0.2,0.1
						c-0.3,0-0.3,0.2-0.3,0.4c0,1.3,0,2.5,0,3.8c0,0.1,0,0.2,0,0.3c0,0.4,0,0.8,0,1.2c0,0,0,0-0.1,0.1l0,0
						C194.2,186.1,194.1,186.1,194,186.1z"/>
					<path fill="#F1F1F8" d="M160.7,180.5c0-0.2-0.2-0.1-0.3-0.1c-0.2,0-0.3-0.1-0.3-0.3c0-0.1,0.1-0.2,0.3-0.2
						c1,0.1,2.1-0.2,3.1,0.2c0.6,0.2,1,1,0.9,1.7c-0.1,0.5-0.3,0.9-0.7,1.3c-0.2,0.1-0.2,0.3-0.1,0.5c0.2,0.3,0.4,0.5,0.6,0.8
						c0.3,0.4,0.6,0.8,0.9,1.1c0.1,0.1,0.2,0.2,0.3,0.2l0,0c0.1,0.2,0.4,0.1,0.5,0.1c0.2,0.4,0.1,0.4-0.3,0.5c-0.2,0-0.5,0-0.7,0
						c-0.1,0-0.2,0-0.3,0c0,0,0,0,0,0c-0.6-0.1-0.8-0.6-1.2-1c-0.2-0.2-0.3-0.4-0.5-0.6l0,0c0,0,0,0,0-0.1c-0.1-0.1-0.1-0.2-0.3-0.3
						c0,0,0,0,0-0.1c0,0,0-0.1-0.1-0.1c0,0,0,0,0-0.1c-0.2-0.4-0.4-0.5-0.9-0.3c-0.1,0.1-0.1,0.2-0.1,0.3c0,0.4,0,0.8,0,1.2
						c0,0.2,0.1,0.4,0.3,0.4c0.2,0,0.4,0.1,0.4,0.3c0,0.2-0.2,0.3-0.4,0.2c-0.5,0-1,0-1.5,0c-0.2,0-0.3,0-0.4-0.2
						c0-0.2,0.1-0.3,0.3-0.3c0.1,0,0.1,0,0.1-0.1c0.1-0.1,0.1-0.3,0-0.4c0-0.1,0-0.1,0-0.2c0-1.4,0-2.7,0-4.1
						C160.8,180.7,160.8,180.6,160.7,180.5C160.7,180.5,160.7,180.5,160.7,180.5z M162.6,180.6c-0.6-0.2-0.8-0.1-0.8,0.5
						c0,0.6,0,1.1,0,1.7c0,0.1,0,0.2,0.1,0.2c0.3,0,0.6,0.1,0.9-0.1c0.2-0.1,0.4-0.1,0.4-0.4c0.1-0.1,0.1-0.2,0.1-0.4
						c0.1-0.2,0.1-0.4,0-0.5c0.1,0,0-0.1,0-0.1C163.3,181,163.1,180.7,162.6,180.6L162.6,180.6z"/>
					<path fill="#F1F1F8" d="M148.6,182.7c0.3,0.7,0.6,1.5,0.9,2.2c0.1,0.3,0.3,0.6,0.7,0.6c0.1,0,0.3,0,0.3,0.3
						c0,0.2-0.3,0.2-0.4,0.3c-0.3,0-0.6,0-0.8,0c-0.2,0-0.4-0.1-0.7-0.1c-0.2,0-0.3-0.1-0.2-0.3c0-0.1,0.1-0.2,0-0.2
						c-0.2-0.6-0.4-1.2-0.7-1.7c-0.1-0.1-0.2-0.1-0.3-0.1c-0.4,0-0.8,0-1.2,0c-0.2,0-0.3,0.1-0.4,0.2c-0.1,0.5-0.4,0.9-0.4,1.4
						c-0.1,0-0.1,0.1-0.1,0.2c0,0.1,0.2,0.1,0.3,0.1c0.1,0.1,0.3,0.2,0.2,0.4c-0.1,0.1-0.3,0.2-0.5,0.2c-0.2-0.1-0.5-0.1-0.7-0.1
						c-0.1,0-0.2,0-0.4,0c-0.3,0-0.5,0.1-0.7-0.2c0-0.1,0.1-0.1,0.1-0.2c0.2,0,0.3-0.1,0.5-0.1c0.3,0,0.4-0.2,0.4-0.4
						c0.3-0.9,0.7-1.9,1-2.8c0.3-0.9,0.6-1.8,1-2.7c0.1-0.2,0.1-0.4,0.2-0.6c0.2-0.2,0.4-0.3,0.5,0c0.2,0.4,0.4,0.9,0.5,1.3
						c0.2,0.5,0.3,0.9,0.6,1.4C148.3,182.1,148.5,182.4,148.6,182.7z M146.3,182.8c0.3,0.1,0.7,0,1,0c0.1,0,0.1-0.1,0-0.1
						c-0.2-0.6-0.3-1.1-0.6-1.7c-0.2,0.6-0.4,1.2-0.6,1.7C146.1,182.9,146.3,182.7,146.3,182.8z"/>
					<path fill="#F1F1F8" d="M170.9,184.5c-0.1,0.4-0.2,0.7-0.5,1l0,0c-0.1,0-0.1,0.1-0.1,0.1c-0.2,0.1-0.4,0.3-0.7,0.4
						c-0.9,0.3-1.7,0-2.6,0.1c-0.2,0-0.4,0-0.5-0.2c-0.1-0.2,0.2-0.3,0.4-0.3c0,0,0,0,0-0.1c0,0,0,0,0-0.1c0.2,0,0.1-0.2,0.1-0.3
						c0-1.5,0-3,0-4.5c0-0.1,0-0.2-0.1-0.3c0-0.1-0.1-0.1-0.2-0.1c-0.2,0-0.4-0.1-0.3-0.3c0-0.2,0.2-0.2,0.4-0.2c0.6,0,1.1,0,1.7,0
						c0.3,0,0.6,0.2,0.9,0.2c0.4,0.2,0.7,0.5,0.8,1c0.1,0.6-0.1,1-0.5,1.4c-0.1,0.1-0.1,0.2,0,0.2c0.4,0.2,0.7,0.5,1,1
						c0,0,0.1,0.1,0.1,0.1C170.8,183.9,170.9,184.2,170.9,184.5z M169.5,183.7c0-0.1,0-0.1-0.1-0.1c-0.1-0.2-0.2-0.3-0.4-0.3
						c-0.2-0.3-0.4-0.1-0.7-0.2c-0.2,0-0.3,0.1-0.3,0.3c0,0.6,0,1.2,0,1.8c0,0.1,0,0.3,0.2,0.3l0,0c0.1,0.2,0.3,0.2,0.5,0.1
						c0.4,0,0.8-0.1,1-0.5C169.9,184.5,169.9,184.1,169.5,183.7L169.5,183.7z M168.3,180.5L168.3,180.5c-0.2,0-0.2,0.1-0.2,0.2
						c0,0.5,0,1,0,1.5c0,0.1,0,0.2,0.2,0.2c0.4,0,0.8,0.1,1-0.4c0.2-0.2,0.2-0.7,0-0.9c0-0.1,0-0.1-0.1-0.2c0-0.1-0.1-0.1-0.1-0.2
						c0-0.1-0.1-0.1-0.1-0.1C168.7,180.4,168.5,180.4,168.3,180.5z"/>
					<path fill="#F1F1F8" d="M151.5,181.3c-0.1,0.1-0.2,0.3-0.4,0.2c-0.1-0.1-0.1-0.3-0.1-0.4c0-0.3,0-0.7,0.2-1
						c0.1-0.2,0.2-0.2,0.3-0.2c1.2,0.1,2.4,0,3.5,0.1c0.2,0,0.3,0,0.4,0.1c0.1,0.2,0,0.3-0.1,0.4c-0.2,0.4-0.4,0.8-0.6,1.1
						c-0.5,0.7-0.9,1.4-1.4,2c0,0,0,0.1,0,0.1c0,0,0,0,0,0.1c-0.1,0-0.1,0.1-0.1,0.1c0,0,0,0,0,0.1c-0.3,0.4-0.5,0.8-0.8,1.2l0,0
						c0,0-0.1,0.1-0.1,0.1c0,0,0,0,0,0c-0.1,0-0.1,0,0,0.1l0,0l0,0c0.8,0.1,1.5,0.1,2.3,0c0.3,0,0.3-0.3,0.4-0.5
						c0.1-0.2,0.1-0.3,0.3-0.3c0.2,0,0.2,0.2,0.2,0.3c0,0.3-0.1,0.7-0.2,1c-0.1,0.2-0.2,0.3-0.4,0.3c-0.7,0-1.5,0-2.2,0
						c-0.1,0-0.2,0-0.4,0c-0.5,0-1,0-1.5,0c-0.1-0.2-0.1-0.4,0-0.6c0.1-0.1,0.1-0.2,0-0.3c0.3-0.1,0.4-0.3,0.4-0.6
						c0-0.1,0.1-0.2,0.1-0.3c0,0,0.1,0,0.1,0c0,0,0-0.1,0.1-0.1c0.1-0.1,0.1-0.2,0.2-0.4c0.4-0.4,0.6-0.8,0.9-1.3
						c0.4-0.5,0.7-1,1-1.6c0-0.1,0.1-0.2,0.1-0.3c0.1,0,0.1,0,0.1-0.1c0-0.1,0-0.2-0.1-0.2c-0.6,0-1.2,0-1.8,0.1
						c-0.1,0-0.3,0-0.3,0.2C151.6,180.9,151.5,181,151.5,181.3z"/>
					<path fill="#F1F1F8" d="M186.6,186.1c-0.2,0-0.2-0.2-0.4-0.2c0.5-0.3,0-0.6,0-0.9c0-0.3-0.2-0.6-0.3-0.9
						c-0.1-0.2-0.2-0.3-0.4-0.2c-0.4,0-0.7,0-1.1,0c-0.2,0-0.3,0.1-0.4,0.3c-0.1,0.4-0.2,0.7-0.4,1.1c-0.1,0.2-0.1,0.3,0.1,0.3
						c0.1,0,0.2,0.1,0.2,0.3c0,0.1-0.1,0.2-0.3,0.2c-0.5,0-1,0-1.5,0c-0.2,0-0.3-0.1-0.3-0.3c0-0.1,0.1-0.2,0.2-0.2
						c0.4,0,0.6-0.3,0.7-0.6c0.3-1.1,0.8-2.1,1.1-3.2c0.2-0.6,0.5-1.2,0.6-1.8c0-0.1,0.1-0.5,0.4-0.4c0.2,0.1,0.3,0.2,0.4,0.5
						c0.2,0.5,0.3,1,0.6,1.5c0.1,0.3,0.2,0.6,0.3,0.9c0.3,0.8,0.6,1.6,1,2.5c0,0.1,0.1,0.1,0.1,0.2c0.1,0.2,0.2,0.3,0.4,0.3
						c0,0,0.1,0,0.1,0c0.1,0,0.3,0.1,0.3,0.2c0,0.1-0.1,0.2-0.3,0.2c-0.3,0-0.7,0-1,0c0,0-0.1,0-0.1,0
						C186.8,186.1,186.7,186.1,186.6,186.1z M185.1,182.2c0-0.2,0-0.3-0.2-0.5c-0.1,0.1-0.1,0.2-0.1,0.3c-0.2,0.3-0.2,0.6-0.3,1
						c-0.1,0-0.1,0.1-0.1,0.2c0,0.1,0.1,0.1,0.2,0.1c0.2,0,0.4,0,0.6,0c0.1,0,0.2,0.1,0.2-0.1c0-0.3-0.2-0.5-0.2-0.7
						C185.3,182.4,185.2,182.3,185.1,182.2z"/>
					<path fill="#F1F1F8" d="M175,182.8c0.3,0.7,0.5,1.5,0.8,2.2c0.2,0.4,0.3,0.6,0.8,0.6c0.1,0,0.1,0,0.2,0.1c0,0.1,0,0.2,0,0.2
						c-0.2,0.1-0.4,0.2-0.6,0.2c-0.4,0-0.7,0-1.1,0c-0.3,0-0.4-0.1-0.3-0.4c0-0.1,0-0.2,0-0.3c-0.1-0.4-0.3-0.7-0.4-1.1
						c-0.1-0.3-0.2-0.4-0.6-0.4c-0.3,0-0.6,0-0.9,0c-0.2,0-0.4,0.1-0.4,0.3c-0.1,0.4-0.2,0.7-0.4,1.1c-0.1,0.2-0.1,0.3,0.1,0.3
						c0.2,0,0.3,0.1,0.2,0.3c0,0.1-0.1,0.2-0.3,0.2c-0.5,0-1,0-1.5,0c-0.2,0-0.3-0.1-0.3-0.3c0,0,0-0.1,0-0.1c0,0,0,0,0.1-0.1l0,0
						c0.6,0,0.7-0.1,0.9-0.6c0.2-0.6,0.4-1.1,0.6-1.7c0.3-1,0.7-2,1.1-3c0-0.1,0-0.2,0.1-0.3c0-0.1,0.1-0.3,0.3-0.3
						c0.2,0,0.3,0.1,0.3,0.3c0.2,0.5,0.4,1,0.6,1.5c0,0.1,0.1,0.2,0.2,0.3C174.7,182.2,174.9,182.5,175,182.8z M173.9,182.8
						L173.9,182.8c0-0.2,0-0.3-0.2-0.4c-0.1,0-0.1-0.1-0.1-0.2c0.2-0.2-0.2-0.3-0.1-0.5c-0.1,0.3-0.2,0.5-0.3,0.8
						c-0.3,0.7-0.3,0.7,0.5,0.7c0.1,0,0.3,0.1,0.3-0.1C174.1,183.1,174,182.9,173.9,182.8z"/>
					<path fill="#F1F1F8" d="M157.6,185.2c0,0.1,0,0.1,0.1,0.1c0.3,0.2,1.1,0.2,1.4,0c0.1-0.1,0.1-0.2,0.2-0.3
						c0.1-0.1,0.1-0.3,0.3-0.3c0.2,0,0.2,0.2,0.2,0.3c0,0.2,0,0.3,0,0.5c-0.1,0.5-0.2,0.6-0.6,0.6c-0.9,0-1.8,0-2.7,0
						c-0.1,0-0.2,0-0.2,0c-0.1,0-0.2-0.1-0.2-0.2c0-0.1,0-0.2,0.2-0.2c0.3-0.1,0.4-0.3,0.4-0.6c0-1.4,0-2.8,0-4.2
						c0-0.5,0-0.5-0.5-0.5c0,0-0.1-0.1-0.1-0.1c0,0,0-0.1-0.1-0.1c0-0.1,0-0.1,0-0.2c0.1-0.1,0.2-0.1,0.3-0.1c0,0,0.1,0,0.1,0
						c0.9,0,1.8,0,2.7,0c0.1,0,0.3,0,0.4,0c0,0,0,0,0,0.1c0,0.1,0,0.2,0,0.2c0,0,0,0.1,0,0.1c-0.1,0.2,0,0.4,0,0.6l0,0
						c-0.1,0-0.1,0.1-0.1,0.2c-0.2,0.1-0.3,0.1-0.4-0.2c0-0.3-0.3-0.4-0.5-0.4c-0.9-0.1-0.9-0.1-0.9,0.7c0,0.3,0,0.6,0,0.9
						c0,0.2,0.1,0.3,0.3,0.3c0.4,0,0.9,0.1,1.3-0.2c0.1,0,0.2,0,0.2,0c0,0.1,0.2,0.1,0.1,0.3c-0.1,0.2-0.1,0.5,0,0.7
						c0.1,0.3-0.1,0.4-0.3,0.4c-0.2,0.1-0.3-0.1-0.3-0.3c0-0.1-0.1-0.2-0.2-0.2c-0.3,0-0.6-0.1-0.9,0c-0.1,0-0.2,0.1-0.2,0.2
						C157.6,184,157.6,184.6,157.6,185.2z"/>
					<path fill="#F1F1F8" d="M180.1,179.9c0,0,0.1,0,0.1,0c0.1,0,0.2,0,0.2,0c0.4,0,0.7,0,1.1,0c0.1,0,0.2,0,0.3,0
						c0.1,0,0.1,0,0.2,0c0,0.1,0,0.1,0.1,0.1c0,0,0,0.1,0,0.1l0,0c0,0-0.1,0.1-0.1,0.1c-0.1,0.1-0.4-0.1-0.4,0.2c0,2.1,0,4.2,0,6.3
						c-0.1,0.3-0.1,0.7-0.3,1.1c-0.2,0.4-0.5,0.6-0.7,0.9c-0.1,0.2-0.4,0.2-0.5,0.5c0,0.1-0.5,0.1-0.6,0c-0.1-0.2,0-0.3,0.2-0.5
						c0.1-0.1,0.2-0.2,0.2-0.3c0.2-0.1,0.3-0.3,0.4-0.5c0,0,0,0,0.1,0c0.2-0.1,0.1-0.2,0.1-0.4c0.1-0.6,0-1.1,0-1.7
						c0-1.7,0-3.4,0-5.1c0.1-0.4,0-0.5-0.5-0.5C179.9,180.1,179.9,180,180.1,179.9L180.1,179.9z"/>
					<path fill="#F1F1F8" d="M177.4,180.4c-0.1-0.3,0-0.5,0.3-0.5c0.5,0,1,0,1.4,0c0.2,0,0.3,0,0.3,0.2c0,0.1-0.1,0.3-0.2,0.3
						c-0.2,0-0.3,0.2-0.3,0.4c0,1.5,0,3,0,4.5c0,0.3,0.1,0.4,0.4,0.4c0.2,0,0.3,0.2,0.4,0.3c-0.1,0.1-0.2,0.1-0.3,0.2
						c-0.3,0-0.5,0-0.8,0c-0.2,0-0.4,0-0.6,0c-0.2,0-0.3,0-0.5,0c-0.2,0-0.2-0.1-0.3-0.3c0-0.1,0.1-0.2,0.2-0.2
						c0.1,0,0.1-0.1,0.2-0.2c0.1,0,0.1-0.2,0.1-0.3c0.1-0.1,0.1-0.2,0.1-0.3c0-1.4,0-2.8,0-4.2c0-0.1,0-0.2-0.1-0.3c0,0,0,0,0-0.1
						c-0.1-0.1-0.2-0.1-0.3-0.1C177.5,180.4,177.4,180.4,177.4,180.4z"/>
					<path fill="#DF9434" d="M143.4,185.8c0.2,0.2,0.5,0.2,0.7,0.2c0.1,0,0.2,0,0.4,0c0,0,0,0,0,0c0,0,0,0,0,0c0,0,0,0,0.1,0l0,0
						c0.1,0.2,0.4,0.2,0.5,0.4l0,0c0,0.1,0,0.1,0.1,0.1c0.1,0.2,0.2,0.5,0.4,0.6c0.1,0.1,0.1,0.2,0,0.3c-0.1,0-0.2-0.1-0.3,0l0,0
						c-0.2-0.1-0.4-0.1-0.6-0.2l0,0c-0.1-0.1-0.2-0.1-0.3-0.2l0,0c-0.2-0.2-0.4-0.4-0.6-0.6l0,0c0-0.1-0.1-0.2-0.2-0.3
						c0-0.1-0.1-0.1-0.1-0.1c-0.1,0-0.1,0.1,0,0.2c0.1,0.7,0,1.3-0.1,2l0,0c-0.1,0-0.1,0.1-0.2,0.2l0,0c-0.1,0.1-0.2,0.2-0.3,0.3
						l0,0c-0.1,0.1-0.3,0.1-0.4,0.2c-0.1-0.1,0-0.3-0.1-0.3c-0.2,0-0.2,0.2-0.3,0.3c-0.2,0.4-0.3,0.7-0.4,1.2
						c-0.2-0.5-0.4-0.9-0.3-1.4c0-0.3,0.2-0.6,0.3-0.9c0.1,0,0.2-0.1,0.2-0.2c0,0,0,0,0,0c0.4-0.3,0.6-0.7,0.9-1.2
						c0.2-0.3,0.3-0.6,0.6-0.8c0,0,0,0,0.1,0C143.2,185.8,143.3,185.8,143.4,185.8z"/>
					<path fill="#DF9434" d="M141.5,187.4c-0.8,0.7-1.7,0.8-2.7,0.7c0.4-0.2,0.7-0.4,1-0.6c0.1-0.1,0.1-0.1,0.2-0.2
						c0-0.1,0.1-0.1,0-0.2c-0.1-0.1-0.1,0-0.2,0c-0.2,0.1-0.2,0-0.2-0.2c0-0.6,0.1-1,1.1-1.3c0.7-0.1,1.4-0.1,2.1-0.1c0,0,0,0,0.1,0
						l0,0c0,0,0,0,0.1,0.1C142.4,186.2,141.9,186.8,141.5,187.4z"/>
					<path fill="#9191C3" d="M140.9,185.4c-0.2-0.1-0.5,0-0.7,0.1c-0.5,0.1-1.1,0.2-1.6,0.2c-0.5,0-0.8-0.2-1.1-0.5
						c-0.2-0.2-0.3-0.3-0.5-0.5c0,0-0.1-0.1,0-0.2c0.1-0.1,0.1,0,0.2,0c0.5,0.3,1,0.3,1.6,0.2c0.1,0,0.1-0.1,0.2-0.1
						c0.1,0,0.2-0.1,0.1-0.2c0-0.1-0.1-0.1-0.2-0.1c-0.1,0-0.2,0.1-0.3,0c0-0.2,0.1-0.2,0.2-0.2c0.4-0.3,0.9-0.2,1.3-0.1
						c0.7,0.2,1.4,0.5,2.1,0.9c0.2,0.1,0.4,0.3,0.5,0.6c-0.1,0-0.3,0-0.4,0c0,0,0-0.1,0-0.1c-0.3,0-0.7-0.2-1,0
						C141.1,185.4,141,185.4,140.9,185.4z"/>
					<path fill="#DF9434" d="M142.7,185.1c-0.3-0.4-0.7-0.6-1.1-0.9c-0.2-0.1-0.3-0.2-0.3-0.4c0-0.1-0.1-0.2-0.2-0.2
						c-0.6-0.4-0.9-1-1-1.6c-0.1-0.4-0.1-0.8-0.3-1.2c0.5,0,0.7,0.2,2,1.6c0,0.1,0,0.1,0.1,0.1l0,0l0,0c0,0.1,0,0.1,0.1,0.1l0,0
						c0,0.1,0,0.1,0.1,0.1l0,0c0.3,0.6,0.6,1.2,0.8,1.9C142.8,184.8,142.9,185,142.7,185.1z"/>
					<path fill="#F1F1F8" d="M155.1,187.4c-0.1,0.1-0.1,0.2-0.1,0.3c0,0.7,0,1.4,0,2c0,0.1,0,0.1,0,0.2c-0.1,0.1-0.1,0.4-0.3,0.1
						c-0.1-0.1-0.2-0.1-0.3-0.1c-0.2-0.3-0.4-0.6-0.7-0.8c-0.1-0.1-0.1-0.2-0.2-0.3c-0.1-0.3-0.4-0.5-0.6-0.7c0,0-0.1-0.1-0.1,0
						c-0.1,0-0.1,0.1-0.1,0.1c0.1,0.5,0,1,0.1,1.5c0.1,0.1,0.4,0.2,0.2,0.4c-0.1,0-0.2,0-0.3,0c0,0,0,0,0,0l0,0
						c-0.2-0.1-0.4-0.1-0.6,0c0,0-0.1,0-0.1,0c0-0.1-0.1-0.3,0.1-0.3c0.1-0.1,0.1-0.2,0.1-0.3c0-0.7,0-1.3,0-2
						c0-0.2-0.1-0.5,0.1-0.5c0.2,0,0.4,0.2,0.5,0.4c0.4,0.5,1,1,1.4,1.5c0.1,0.1,0.1,0.2,0.2,0.3c0.1-0.1,0.1-0.2,0-0.3
						c0-0.3,0-0.6,0-1c0-0.2,0-0.5-0.3-0.5c-0.1,0-0.1-0.1-0.1-0.2c0-0.1,0.1-0.1,0.2-0.1c0.2,0,0.4,0,0.6,0
						C155.3,187,155.3,187.1,155.1,187.4L155.1,187.4z"/>
					<path fill="#F1F1F8" d="M156,190.2c-0.1-0.1-0.1-0.2,0-0.3c0.1-0.1,0.1-0.2,0.1-0.4c0-0.6,0-1.1,0-1.7c0-0.2,0-0.4-0.2-0.5
						c-0.1,0-0.1-0.1-0.1-0.2c0-0.1,0.1-0.1,0.2-0.1c0.7,0,1.5-0.1,2.2,0.2c0.3,0.1,0.6,0.5,0.7,0.8c0.3,0.9-0.2,1.8-1.1,2
						c-0.1,0-0.2,0.1-0.3,0.1c-0.2,0-0.4,0-0.7,0c-0.3-0.1-0.6-0.2-0.8,0C156.1,190.2,156,190.2,156,190.2z M158.2,188
						c-0.1-0.2-0.3-0.3-0.5-0.4c0,0-0.1,0-0.1,0c-0.1-0.3-0.3-0.2-0.5-0.2c0,0-0.1,0-0.1,0c-0.2,0-0.2,0.1-0.2,0.2
						c0,0.6,0,1.2,0,1.9c0,0.1,0,0.3,0.2,0.2c0.2,0.1,0.4,0.1,0.6,0c0.1,0,0.1,0,0.1,0c0.1,0,0.2-0.1,0.3-0.1c0.1,0,0.2,0,0.1-0.1
						c0,0,0,0,0,0c0.1,0,0.1-0.1,0.1-0.2c0-0.1,0-0.1,0-0.2C158.6,188.7,158.5,188.2,158.2,188z"/>
					<path fill="#DF9434" d="M142.1,182.6c0-0.1,0-0.3,0-0.4c-0.2-0.7,0.2-1.2,0.7-1.7c0,0,0.1-0.1,0.1-0.1c0.1,0,0.1,0.1,0,0.2
						c-0.2,0.6,0,1,0.3,1.5c0.1,0.1,0.1,0.2,0.2,0.1c0.1,0,0.1-0.2,0.1-0.2c0-0.1,0-0.2,0-0.2c0-0.1-0.1-0.2,0-0.2
						c0.1,0,0.2,0.1,0.2,0.1c0.2,0.3,0.3,0.6,0.2,0.9c-0.1,0.7-0.3,1.4-0.7,2.1c-0.1,0.1-0.2,0.3-0.3,0.4
						C142.9,184.2,142.5,183.4,142.1,182.6z"/>
					<path fill="#F1F1F8" d="M173.9,187.4c0-0.1-0.1-0.1-0.2-0.2c0.1-0.2,0.3-0.1,0.5-0.1c0.3,0,0.6,0,1,0c0.3,0,0.6,0.2,0.7,0.4
						c0.2,0.3,0.1,0.7-0.1,0.9c-0.2,0.2-0.2,0.4,0,0.6c0.3,0.3,0.5,0.7,1,0.9c0.1,0,0.1,0.2,0,0.2c-0.1,0.1-0.2,0-0.3,0.1
						c0,0,0,0-0.1,0l0,0l0,0c-0.5-0.2-0.8-0.6-1.1-1c-0.1-0.1-0.2-0.2-0.3-0.2c-0.1,0-0.2,0.1-0.2,0.2c0,0.3-0.1,0.6,0.3,0.8
						c0.2,0.1-0.1,0.1,0,0.2c0,0-0.1,0-0.1,0c-0.1-0.1-0.3-0.1-0.4,0c-0.1-0.1-0.3,0-0.4,0c-0.1-0.1-0.1-0.3,0-0.4c0,0,0,0,0-0.1
						c0.1-0.2,0.1-0.4,0.1-0.5c0-0.6,0.1-1.2,0-1.8C174,187.4,174,187.4,173.9,187.4z M174.7,188.5c0.2,0.2,0.3,0.1,0.5,0
						c0,0,0-0.1,0-0.1c0.2-0.2,0.2-0.5,0-0.7c0-0.1,0-0.1-0.1-0.1c-0.2-0.2-0.5-0.2-0.5,0C174.7,187.8,174.6,188.2,174.7,188.5
						L174.7,188.5z"/>
					<path fill="#F1F1F8" d="M162.5,190.2c-0.3-0.2-0.7-0.3-0.9-0.6c-0.7-0.9-0.3-2,0.7-2.5c0.8-0.3,1.8,0,2.2,0.8
						c0.2,0.4,0.2,0.9,0,1.4c-0.2,0.5-0.7,0.7-1.2,0.9c0,0-0.1,0-0.1,0C162.9,190.2,162.8,190.2,162.5,190.2
						C162.6,190.2,162.5,190.2,162.5,190.2z M163,189.8c0.6,0,0.9-0.4,0.9-1.1c0-0.8-0.4-1.3-1.1-1.3c-0.6,0-1,0.4-1,1.1
						C161.9,189.3,162.3,189.8,163,189.8z"/>
					<path fill="#F1F1F8" d="M148.5,189.9c0.3,0,0.4-0.1,0.5-0.4c0.2-0.7,0.6-1.3,0.8-2c0-0.1,0.1-0.3,0.2-0.4
						c0.1-0.1,0.2-0.2,0.3,0c0.1,0.2,0.2,0.4,0.3,0.7c0,0.1,0,0.2,0.1,0.2c0,0.1,0,0.2,0.1,0.3c0,0.1,0,0.1,0.1,0.2c0,0,0,0.1,0,0.1
						c0.1,0.4,0.3,0.8,0.5,1.2c0,0.1,0.1,0.2,0.2,0.2c0.3,0,0.2,0.2,0.1,0.3c-0.1,0-0.2,0-0.4,0c-0.1-0.1-0.1-0.1-0.2,0c0,0,0,0,0,0
						c-0.1-0.1-0.1-0.1-0.2,0l0,0c-0.3-0.2-0.2-0.7-0.4-0.9c-0.1-0.2-0.7-0.2-0.8-0.1c0,0,0,0,0,0.1c0,0,0,0.1,0,0.1
						c-0.2,0.2-0.3,0.4,0,0.7c-0.2,0.1-0.5-0.1-0.8,0.1c0,0-0.1,0-0.1,0c0-0.1-0.1-0.1-0.2-0.1C148.5,190,148.5,190,148.5,189.9
						C148.5,189.9,148.5,189.9,148.5,189.9z M150.3,188.5c-0.1-0.1,0-0.4-0.2-0.4c-0.2,0-0.1,0.3-0.2,0.5c0,0.1,0.1,0.2,0.2,0.2
						C150.2,188.7,150.3,188.7,150.3,188.5z"/>
					<path fill="#F1F1F8" d="M178.3,190.2c-0.3-0.1-0.6-0.1-0.9-0.1c-0.1,0-0.2,0-0.3-0.1c-0.1-0.1,0-0.2,0.1-0.2
						c0.1-0.1,0.1-0.2,0.1-0.3c0-0.5,0-1,0-1.5c0-0.2,0.1-0.5-0.2-0.6c-0.1,0-0.1-0.1-0.1-0.2c0-0.1,0.1-0.1,0.2-0.1
						c0.5,0,1,0,1.5,0c0.2,0,0.2,0.1,0.2,0.3c0,0.2,0,0.5-0.3,0.4c0,0,0-0.1,0-0.1c0-0.2-0.1-0.2-0.2-0.1c0,0,0,0-0.1,0
						c-0.1-0.1-0.2-0.1-0.3,0l0,0c-0.2,0.2-0.2,0.7,0,0.9c0.2,0,0.4,0.1,0.6-0.1c0.2-0.1,0.3,0,0.3,0.2c0,0.1,0,0.2-0.1,0.3
						c0,0.1-0.1,0.3-0.2,0c-0.1-0.2-0.3-0.2-0.5-0.2c-0.2,0.1-0.1,0.3-0.1,0.4c0,0.1,0,0.1,0,0.2c0,0.2-0.1,0.4,0.1,0.4
						c0.2,0,0.5,0.1,0.7-0.2c0-0.1,0.1-0.2,0.2-0.1c0.1,0,0.1,0.1,0.1,0.2c0,0.3-0.2,0.5-0.5,0.5
						C178.5,190.2,178.5,190.2,178.3,190.2C178.4,190.2,178.4,190.2,178.3,190.2L178.3,190.2z"/>
					<path fill="#F1F1F8" d="M166.1,189.8c0.1,0.1,0.3,0.2,0,0.4c0,0-0.1,0-0.1,0c-0.2-0.1-0.3-0.1-0.5,0c0,0,0,0,0,0c0,0,0,0,0,0
						c-0.1,0-0.2,0-0.3,0c-0.1-0.1-0.1-0.2,0-0.3c0.1-0.1,0.1-0.2,0.1-0.3c0-0.6,0-1.2,0-1.9c0-0.1,0-0.2-0.2-0.3
						c-0.1,0-0.1-0.1-0.1-0.2c0-0.1,0.1-0.1,0.2-0.1c0.5,0,1,0,1.5,0c0.4,0,0.1,0.3,0.2,0.5c0,0.3-0.2,0.2-0.3,0.1c0,0,0-0.1,0-0.1
						c-0.2-0.2-0.4-0.2-0.6-0.1c-0.2,0.1-0.1,0.6,0,0.8l0,0c0.2,0.1,0.4,0.1,0.6,0c0.2-0.1,0.3,0,0.2,0.2c0,0.1,0,0.1,0,0.2
						c0,0.1,0,0.3-0.1,0.3c-0.1,0.1-0.2-0.1-0.3-0.1c0,0,0,0-0.1,0c-0.1-0.1-0.2-0.1-0.3,0c0,0-0.1,0-0.1,0c-0.1,0-0.1,0-0.1,0.1
						c0,0.2,0,0.5,0,0.7C165.9,189.7,166,189.8,166.1,189.8L166.1,189.8z"/>
					<path fill="#F1F1F8" d="M170.5,188.3c0.1,0,0.3,0.1,0.4,0c0.1-0.1,0.2-0.2,0.3,0c0.1,0.2,0.1,0.5-0.1,0.6
						c-0.1,0.1-0.1,0-0.2-0.1c-0.1-0.2-0.3-0.2-0.5-0.2c-0.2,0.1-0.1,0.3-0.1,0.4c0,0.1,0,0.1,0,0.2c0,0.3,0,0.6,0.3,0.7
						c-0.4,0.1-0.8,0-1.2,0c0,0,0-0.1,0.1-0.1c0.3,0,0.2-0.2,0.2-0.4c0-0.6,0-1.2,0-1.9c0-0.2-0.1-0.3-0.3-0.4
						c-0.1-0.1-0.1-0.2,0.1-0.2c0.6,0,1.1,0,1.7,0c0.1,0,0.2,0,0.2,0.1c0,0.2,0,0.4-0.1,0.5c-0.1,0.1-0.2,0-0.3,0c0,0,0,0,0-0.1
						c-0.1-0.1-0.5-0.2-0.6-0.1C170.2,187.6,170.2,188.2,170.5,188.3C170.4,188.3,170.4,188.3,170.5,188.3z"/>
					<path fill="#F1F1F8" d="M173.1,189.8c0.2,0.2,0,0.3-0.1,0.4c-0.1,0-0.1,0-0.2,0c-0.2-0.1-0.4-0.1-0.6,0c-0.1,0-0.1,0-0.2,0
						c-0.1-0.2,0-0.3,0.1-0.4c0.1-0.7,0-1.5,0-2.2c0-0.1,0-0.2-0.1-0.2c-0.1-0.2,0-0.4,0.3-0.3c0.2,0,0.3,0,0.5,0
						c0.3,0,0.4,0.1,0.2,0.3l0,0c-0.1,0-0.1,0.1-0.1,0.2c0,0.6,0,1.3,0,1.9c0,0.1,0,0.2,0.1,0.3C173,189.8,173,189.8,173.1,189.8z"
						/>
					<path fill="#F1F1F8" d="M148.1,189.6C148.1,189.6,148.1,189.6,148.1,189.6c0.1,0,0.1,0,0.1,0c0,0,0,0,0-0.1
						c0-0.1,0.1-0.1,0.2-0.1c0.1,0,0.1,0.2,0.1,0.3c0,0,0,0,0,0.1l0,0c-0.1,0-0.1,0.1-0.1,0.2c0,0,0,0,0,0.1c-0.6,0.1-1.2,0-1.8,0
						c-0.1,0-0.1-0.1-0.1-0.1l0,0c0.1,0,0.1,0,0.1-0.1c0,0,0,0,0-0.1c0,0,0,0,0-0.1c0.1,0,0.1-0.1,0.1-0.1c0.1-0.7,0-1.3,0.1-2
						c0-0.1-0.1-0.1-0.2-0.1c0,0,0,0-0.1,0c0-0.1-0.2-0.1-0.2-0.2c0.1-0.1,0.2-0.1,0.3-0.1c0.2,0,0.5,0,0.7,0c0.1,0,0.1,0,0.2,0.1
						c0,0.1,0,0.1-0.1,0.2c-0.2,0-0.2,0.2-0.2,0.3c0,0.5,0,1.1,0,1.6c0,0.4,0.1,0.6,0.4,0.5C147.8,189.7,148,189.7,148.1,189.6z"/>
					<path fill="#2E3279" d="M181.7,186.8c0-2.1,0-4.2,0-6.3c0,0,0,0,0.1,0c0.1,0,0.1,0.1,0.1,0.2c-0.1,1.7,0,3.4,0,5.1
						c0,0.6,0,1.2,0,1.8C181.7,187.3,181.8,187,181.7,186.8z"/>
					<path fill="#2E3279" d="M141.5,187.4c0.4-0.7,1-1.2,1.4-1.8c0.1,0,0.2,0,0.3,0.1c-0.3,0.2-0.4,0.5-0.6,0.8
						c-0.2,0.4-0.5,0.8-0.9,1.2C141.7,187.5,141.5,187.6,141.5,187.4z"/>
					<path fill="#2E3279" d="M177.4,180.4c0,0,0.1,0,0.1,0c0.1,0.1,0.2,0.1,0.3,0.1c0,0,0,0,0,0.1c0,1.1,0,2.2,0,3.3
						c0,0.5,0,0.9,0,1.4c0,0.1,0,0.2-0.1,0.3c-0.2-0.1,0-0.3,0-0.4c0-1.4,0-2.7,0-4.1C177.6,180.7,177.4,180.6,177.4,180.4z"/>
					<path fill="#2E3279" d="M167,185.5C167,185.5,167,185.6,167,185.5c-0.2,0-0.2-0.2-0.2-0.3c0-1.6,0-3.2,0-4.8
						c0.1,0,0.1,0,0.2,0.1C167,182.1,167,183.8,167,185.5z"/>
					<path fill="#9191C3" d="M194.4,184.8c-0.1-0.1,0-0.2,0-0.3c0-1.3,0-2.5,0-3.8c0-0.2,0-0.4,0.3-0.4c-0.2,0.3-0.2,0.6-0.2,1
						c0,1.1,0,2.3-0.1,3.4C194.4,184.7,194.4,184.8,194.4,184.8z"/>
					<path fill="#2E3279" d="M193.2,183.9c-0.4-0.4-0.8-0.8-1.2-1.3c0.1,0,0.3,0,0.4,0.1c0.2,0.3,0.5,0.6,0.7,0.8
						c0.1,0.1,0.1,0.2,0.2,0.2c0.1,0,0.1-0.2,0.1-0.3c0-0.3-0.1-0.7,0.1-1c0,0.1,0,0.2,0.1,0.3c0,0.2,0,0.4,0,0.5
						c-0.1,0.2,0,0.3-0.1,0.5c0,0.2,0.1,0.3-0.1,0.5c0,0,0,0,0-0.1C193.5,184,193.4,184,193.2,183.9L193.2,183.9
						C193.3,183.9,193.3,183.9,193.2,183.9z"/>
					<path fill="#2E3279" d="M142.1,182.6c0.4,0.8,0.8,1.6,0.9,2.5c-0.1,0.4-0.2,0.1-0.3,0c0.3-0.1,0.1-0.3,0.1-0.4
						c-0.2-0.7-0.5-1.3-0.8-1.9C142,182.7,142,182.7,142.1,182.6z"/>
					<path fill="#2E3279" d="M152.8,189.7c-0.1-0.5,0-1-0.1-1.5c0,0,0-0.1,0.1-0.1c0,0,0.1,0,0.1,0c0.1,0.3,0.5,0.4,0.6,0.7
						c-0.2,0.1-0.3-0.2-0.5-0.2c0,0.3-0.1,0.6,0,0.8C153.1,189.8,152.9,189.7,152.8,189.7z"/>
					<path fill="#2E3279" d="M160.7,185.1c0,0.1,0,0.3,0,0.4c-0.1,0-0.3,0-0.2-0.1c0.1-0.2,0.1-0.3,0.1-0.5c0-1.2,0-2.5,0-3.7
						c0-0.2,0-0.3,0-0.5c-0.1-0.1,0-0.2,0.1-0.2c0,0,0,0,0,0c0,0.1,0,0.1,0,0.2c0,1.4,0,2.8,0,4.2C160.7,185,160.7,185,160.7,185.1z
						"/>
					<path fill="#2E3279" d="M190,185.4c-0.1-0.1-0.1-0.2-0.1-0.3c0-1,0-2.1,0-3.1c0,0,0-0.1,0-0.2c0.2,0.2,0.4,0.3,0.4,0.6
						c-0.4,0-0.4,0-0.4,0.4c0,0.6,0,1.1,0,1.7C189.9,184.8,189.9,185.1,190,185.4z"/>
					<path fill="#9191C3" d="M146.5,189.9c0,0.1,0,0.1,0.1,0.1c0.6,0,1.2,0,1.8,0c0,0.1,0,0.1-0.1,0.2c-0.3,0-0.6,0-0.9,0
						c-0.2-0.1-0.4-0.1-0.6,0c-0.1,0-0.2,0-0.3,0C146.5,190.1,146.1,190,146.5,189.9z"/>
					<path fill="#2E3279" d="M191.1,183.3c0.2,0,0.3,0.1,0.4,0.3c0.3,0.4,0.6,0.7,0.9,1c0.1,0.1,0.1,0.1,0.1,0.2
						c-0.1,0-0.2,0-0.3-0.1c-0.3-0.4-0.6-0.7-0.9-1C191.1,183.5,191.1,183.4,191.1,183.3z"/>
					<path fill="#9191C3" d="M169.4,187.3c0.2,0,0.3,0.2,0.3,0.4c0,0.6,0,1.2,0,1.9c0,0.2,0,0.4-0.2,0.4c0.1-0.2,0.1-0.3,0.1-0.5
						c0-0.6,0-1.2,0-1.8C169.6,187.4,169.4,187.4,169.4,187.3z"/>
					<path fill="#2E3279" d="M190,185.5L190,185.5c0-0.9,0-1.8,0-2.7c0.1,0.8,0.2,1.5,0.2,2.3c0,0.2,0,0.3,0.3,0.3
						C190.3,185.6,190.2,185.5,190,185.5z"/>
					<path fill="#2E3279" d="M165.6,185.5c-0.2,0.1-0.2-0.1-0.3-0.2c-0.4-0.3-0.7-0.7-0.9-1.1c0-0.1,0-0.2,0.1-0.1
						C164.8,184.6,165.3,185,165.6,185.5z"/>
					<path fill="#2E3279" d="M150.9,186.1c0.5,0,1,0,1.5,0c0.1,0.1,0.3,0,0.5,0.1c-0.7,0-1.2,0.1-1.8,0.1
						C150.9,186.3,150.8,186.3,150.9,186.1z"/>
					<path fill="#2E3279" d="M172,187.4c0.1,0,0.1,0.1,0.1,0.2c0,0.7,0,1.5,0,2.2c-0.1,0-0.1-0.1-0.1-0.2
						C172,188.8,172,188.1,172,187.4z"/>
					<path fill="#2E3279" d="M173.9,187.4c0.1,0,0.1,0,0.2,0.1c-0.1,0.8-0.1,1.5,0,2.3c0,0,0,0,0,0.1c-0.1-0.1-0.1-0.2-0.1-0.3
						C173.9,188.8,173.9,188.1,173.9,187.4z"/>
					<path fill="#2E3279" d="M146.6,189.7C146.6,189.7,146.6,189.7,146.6,189.7c-0.1,0-0.2,0-0.2,0c0-0.7,0-1.4,0-2.1
						c0-0.1,0-0.1,0.1-0.2c0,0,0,0,0.1,0C146.6,188.2,146.6,188.9,146.6,189.7z"/>
					<path fill="#2E3279" d="M170.3,181c-0.1-0.5-0.4-0.8-0.8-1c0-0.1,0-0.2,0.1-0.1c0.4,0.2,0.6,0.5,0.8,0.8
						C170.5,180.8,170.4,181,170.3,181z"/>
					<path fill="#2E3279" d="M156,190.2c0,0,0.1,0,0.1,0c0.3,0,0.6,0,0.8,0c0.2,0,0.4,0,0.7,0c0.1,0.1,0.2,0,0.3,0.1
						c-0.2,0.1-0.3,0-0.5,0c-0.4,0-0.9,0-1.3,0C156,190.4,155.9,190.3,156,190.2z"/>
					<path fill="#2E3279" d="M169.4,186.8c0.3-0.1,1.6-0.1,1.9,0C170.7,186.8,170,186.8,169.4,186.8z"/>
					<path fill="#2E3279" d="M191.7,182.1c-0.3-0.3-0.7-0.6-0.8-1C191.2,181.2,191.7,181.8,191.7,182.1z"/>
					<path fill="#2E3279" d="M147.4,190.2c0.3,0,0.6,0,0.9,0c0,0.1-0.1,0.2-0.2,0.2c-0.5,0-1,0-1.5,0c-0.1,0-0.2,0-0.2-0.2
						c0.1,0,0.2,0,0.3,0C147,190.2,147.2,190.2,147.4,190.2z"/>
					<path fill="#2E3279" d="M157.6,185.2c0-0.6,0-1.2,0-1.8c0-0.1,0-0.2,0.2-0.2C157.7,183.9,157.8,184.6,157.6,185.2z"/>
					<path fill="#9191C3" d="M193.6,182.7c-0.1-0.1,0-0.2-0.1-0.3c0-0.5,0-1,0-1.5c0-0.3-0.1-0.5-0.4-0.6c0.3-0.1,0.5,0,0.5,0.3
						C193.6,181.3,193.7,182,193.6,182.7z"/>
					<path fill="#2E3279" d="M178.9,186.9c-0.6,0-1.1,0-1.7,0c0,0,0,0,0-0.1C177.7,186.8,178.3,186.8,178.9,186.9
						C178.9,186.8,178.9,186.8,178.9,186.9z"/>
					<path fill="#2E3279" d="M178.6,187.6c0,0,0,0.1,0,0.1c-0.2,0.1-0.4-0.2-0.5,0.2c0,0.3,0,0.4,0.5,0.4c-0.2,0.1-0.4,0-0.6,0.1
						c0-0.3,0-0.6,0-0.9l0,0c0.1,0,0.2,0.2,0.3,0c0,0,0,0,0.1,0C178.4,187.6,178.5,187.5,178.6,187.6z"/>
					<path fill="#2E3279" d="M167,186.8c-0.6,0-1.2,0-1.8,0C165.8,186.7,166.4,186.8,167,186.8z"/>
					<path fill="#9191C3" d="M169.4,190c0.4,0,0.8,0.1,1.2,0c0,0.1,0,0.1-0.1,0.2c-0.4,0-0.8,0-1.1,0
						C169.4,190.1,169.4,190.1,169.4,190z"/>
					<path fill="#2E3279" d="M170.9,184.5c0-0.3-0.1-0.5-0.1-0.8c0.1-0.1,0.2,0,0.2,0.1c0,0.4,0,0.7,0,1.1
						C170.9,184.7,171,184.6,170.9,184.5z"/>
					<path fill="#2E3279" d="M148.6,182.7c-0.1-0.3-0.3-0.6-0.3-1c0.1,0,0.2,0,0.3,0.2C148.6,182.2,148.8,182.5,148.6,182.7z"/>
					<path fill="#2E3279" d="M178.3,190.2L178.3,190.2C178.4,190.2,178.4,190.2,178.3,190.2C178.4,190.2,178.4,190.2,178.3,190.2
						c0.1,0,0.1,0,0.2,0c0.1,0.1,0.2,0,0.3,0.1c-0.5,0-1.1,0-1.6,0C177.6,190.2,178,190.3,178.3,190.2z"/>
					<path fill="#2E3279" d="M170.5,185.7c0,0,0,0.1,0,0.1c-0.3,0.1-0.5,0.4-0.9,0.2c0.3,0,0.4-0.3,0.7-0.4
						C170.4,185.7,170.5,185.7,170.5,185.7z"/>
					<path fill="#2E3279" d="M155.1,187.4L155.1,187.4c0,0,0.1,0.1,0.1,0.1c-0.1,0.8,0,1.7-0.1,2.5
						C155.1,189.1,155.1,188.3,155.1,187.4z"/>
					<path fill="#2E3279" d="M175,182.8c-0.1-0.4-0.3-0.7-0.4-1.1C175,182,175.1,182.4,175,182.8z"/>
					<path fill="#2E3279" d="M173.1,189.8c-0.1,0-0.1,0-0.1,0c0-0.8,0-1.6,0-2.4l0,0c0.1,0,0.1,0.1,0.1,0.2
						C173,188.3,173,189,173.1,189.8z"/>
					<path fill="#2E3279" d="M190.3,180.5c-0.3-0.2-0.4-0.5-0.7-0.7c0,0,0.1-0.1,0.1-0.1C189.9,179.8,190.3,180.3,190.3,180.5z"/>
					<path fill="#2E3279" d="M153.7,189.2c0.4,0.1,0.5,0.5,0.7,0.8C154.1,189.9,153.7,189.5,153.7,189.2z"/>
					<path fill="#2E3279" d="M145,186.5c-0.2-0.1-0.4-0.2-0.5-0.4c0.4,0,0.7,0.1,1.1,0C145.5,186.5,145,186.1,145,186.5z"/>
					<path fill="#2E3279" d="M140.9,185.4c0.1,0,0.2,0,0.3,0c0.3,0.2,0.7,0.1,1,0.1c0.1,0,0.3,0,0.4,0c0,0,0.1,0,0.1,0
						c-0.7,0-1.4,0-2.1,0.1C140.7,185.5,140.8,185.4,140.9,185.4z"/>
					<path fill="#2E3279" d="M166.5,188.8C166.5,188.8,166.5,188.8,166.5,188.8c0.1,0.3-0.3,0.1-0.2,0.4c0,0.2,0,0.4,0,0.5
						c0,0-0.1,0.1-0.1,0.1l0,0c0-0.3,0-0.7,0-1c0,0,0.1,0,0.1,0C166.3,188.8,166.4,188.8,166.5,188.8z"/>
					<path fill="#2E3279" d="M156,186.8c0.5,0.1,1.1-0.2,1.7,0.1C157.1,186.9,156.5,186.9,156,186.8C156,186.8,156,186.8,156,186.8z
						"/>
					<path fill="#2E3279" d="M170.5,188.3C170.4,188.3,170.4,188.3,170.5,188.3c-0.3-0.6-0.2-0.7,0.4-0.7c0,0,0,0,0,0c0,0,0,0,0,0.1
						C170.5,187.7,170.4,187.9,170.5,188.3z"/>
					<path fill="#2E3279" d="M152.3,185.2C152.3,185.2,152.4,185.2,152.3,185.2c0.1,0,0.1-0.1,0.1-0.1l0,0c0.1,0.1,0.3,0.1,0.5,0.1
						c0.5,0,0.9,0,1.4,0c-0.7,0.1-1.4,0-2,0.1l0,0L152.3,185.2C152.3,185.3,152.3,185.3,152.3,185.2z"/>
					<path fill="#2E3279" d="M169.4,190.2c0.4,0,0.8,0,1.1,0c0,0.1,0,0.1-0.1,0.1c-0.3,0-0.7,0-1,0
						C169.4,190.3,169.4,190.3,169.4,190.2z"/>
					<path fill="#2E3279" d="M154,180.7c0,0.1,0,0.1-0.1,0.1c-0.2,0.1-0.4,0-0.6,0c-0.4,0-0.9,0-1.3-0.1
						C152.7,180.7,153.3,180.7,154,180.7z"/>
					<path fill="#2E3279" d="M174,190.2c0.1,0,0.3-0.1,0.4,0c0.1,0,0.3,0,0.4,0c0,0,0.1,0,0.1,0c0,0.1,0.1,0.2-0.1,0.2
						c-0.3,0-0.6,0-0.8,0C173.9,190.4,173.9,190.3,174,190.2z"/>
					<path fill="#2E3279" d="M172,190.2c0.1,0,0.1,0,0.2,0c0.2,0,0.4,0,0.6,0c0.1,0,0.1,0,0.2,0c0,0.1,0.1,0.2,0,0.2
						c-0.3,0-0.6,0-0.8,0C172,190.3,172,190.3,172,190.2z"/>
					<path fill="#2E3279" d="M175.2,186.9c-0.4,0-0.8,0-1.3,0C174.1,186.8,175,186.8,175.2,186.9z"/>
					<path fill="#2E3279" d="M146.5,186.8c0.3,0,0.6,0,1,0.1C147.1,186.8,146.8,186.8,146.5,186.8
						C146.5,186.8,146.5,186.8,146.5,186.8z"/>
					<path fill="#2E3279" d="M150.9,188.5C150.9,188.5,150.9,188.5,150.9,188.5c0-0.2,0-0.2-0.1-0.3c-0.1-0.1-0.1-0.2-0.1-0.3
						c0-0.1,0-0.2,0.1-0.2c0.1,0.3,0.3,0.5,0.3,0.8l0,0C151,188.5,151,188.5,150.9,188.5z"/>
					<path fill="#2E3279" d="M162.5,190.2C162.5,190.2,162.6,190.2,162.5,190.2c0.3,0.1,0.4,0.1,0.6,0c0,0,0.1,0,0.1,0
						c0.1,0,0.2,0,0.3,0.1c0,0,0,0,0,0.1c-0.4,0-0.8,0-1.2,0C162.3,190.2,162.4,190.2,162.5,190.2z"/>
					<path fill="#2E3279" d="M165.5,190.2C165.5,190.2,165.5,190.2,165.5,190.2c0.2,0.1,0.4,0.1,0.5,0c0,0,0.1,0,0.1,0
						c0,0.1,0.1,0.2-0.1,0.2c-0.3,0-0.5,0-0.8,0c-0.2,0-0.1-0.1-0.1-0.2C165.3,190.2,165.4,190.2,165.5,190.2
						C165.5,190.2,165.5,190.2,165.5,190.2C165.5,190.2,165.5,190.2,165.5,190.2z"/>
					<path fill="#2E3279" d="M166.6,187.6C166.7,187.6,166.7,187.6,166.6,187.6c0,0.2-0.1,0.1-0.2,0.1c-0.2,0-0.3,0.1-0.2,0.3
						c0.1,0.2,0,0.2-0.1,0.3l0,0c0-0.1,0.1-0.2,0-0.3c0-0.3,0.1-0.5,0.4-0.4C166.5,187.6,166.6,187.6,166.6,187.6z"/>
					<path fill="#2E3279" d="M152,190.2C152,190.2,152.1,190.2,152,190.2c0.3,0.1,0.5,0.1,0.7,0l0,0c0,0,0,0,0,0.1c0,0,0,0,0-0.1
						c0.1,0,0.2,0,0.3,0c0,0,0,0.1,0,0.1c-0.1,0.1-0.9,0.1-1,0C152,190.3,152,190.2,152,190.2z"/>
					<path fill="#2E3279" d="M173,186.9c-0.3,0-0.6,0-0.9,0C172.4,186.7,172.7,186.7,173,186.9C173,186.8,173,186.8,173,186.9z"/>
					<path fill="#2E3279" d="M150.3,186.3c-0.6,0-1.2,0-1.8,0c0,0,0,0,0,0C149.1,186.2,149.7,186.2,150.3,186.3
						C150.3,186.2,150.3,186.2,150.3,186.3z"/>
					<path fill="#2E3279" d="M149.5,190.2c0,0.1,0.1,0.1,0.1,0.1c-0.3,0-0.6,0.1-0.9,0c0,0,0-0.1,0-0.1c0,0,0.1,0,0.1,0
						c0.2,0,0.3,0,0.5,0C149.3,190.2,149.4,190.2,149.5,190.2z"/>
					<path fill="#2E3279" d="M161.9,183.7c0.4-0.2,0.7-0.1,0.9,0.3c-0.1,0-0.2,0.1-0.2,0C162.5,183.7,162.2,183.7,161.9,183.7z"/>
					<path fill="#2E3279" d="M155.2,186.9c-0.3,0-0.6,0-0.9,0C154.5,186.7,154.9,186.7,155.2,186.9z"/>
					<path fill="#2E3279" d="M180.5,188c-0.1,0.2-0.2,0.3-0.4,0.5c-0.1-0.1-0.1-0.1,0-0.2c0.1-0.1,0.2-0.3,0.3-0.5
						C180.5,187.8,180.4,187.9,180.5,188z"/>
					<path fill="#2E3279" d="M164.6,181.9c-0.1-0.3-0.1-0.6,0-0.9C164.7,181.3,164.6,181.6,164.6,181.9z"/>
					<path fill="#2E3279" d="M151,190.2L151,190.2c0.1,0,0.1,0,0.2,0c0,0,0,0,0,0c0.1,0,0.1,0,0.2,0c0.1,0,0.2,0,0.4,0
						c0,0.2-0.1,0.2-0.2,0.2c-0.2,0-0.4,0-0.5,0c-0.1,0-0.2,0-0.1-0.1C150.9,190.2,150.9,190.2,151,190.2z"/>
					<path fill="#2E3279" d="M152,183.9c-0.1,0.1-0.1,0.2-0.2,0.4c-0.1,0-0.1,0-0.1,0.1c0,0-0.1,0-0.1,0c0-0.2,0.2-0.4,0.3-0.6
						C151.8,183.8,151.9,183.8,152,183.9z"/>
					<path fill="#2E3279" d="M151.5,181.3c0-0.2,0.1-0.4,0.3-0.5c0.1,0.3-0.2,0.4-0.2,0.6C151.6,181.4,151.5,181.3,151.5,181.3z"/>
					<path fill="#2E3279" d="M148.1,189.6c-0.1,0.1-0.3,0.1-0.4,0.1c-0.3,0-0.4-0.1-0.4-0.5C147.4,189.6,147.7,189.6,148.1,189.6z"
						/>
					<path fill="#9191C3" d="M149.5,190.2c-0.1,0-0.2,0-0.3,0c-0.1-0.1-0.3,0-0.4-0.1c0.2-0.2,0.5,0,0.8-0.1
						C149.6,190.1,149.5,190.2,149.5,190.2z"/>
					<path fill="#9191C3" d="M180.1,180.3c0.6,0,0.6,0.1,0.5,0.5C180.6,180.5,180.3,180.4,180.1,180.3z"/>
					<path fill="#2E3279" d="M151.4,184.7c0,0.3-0.1,0.5-0.4,0.6C151,185,151.1,184.8,151.4,184.7z"/>
					<path fill="#2E3279" d="M149.7,189.3C149.7,189.2,149.7,189.2,149.7,189.3c0.2-0.2,0.7-0.2,0.8,0
						C150.3,189.3,150,189.3,149.7,189.3z"/>
					<path fill="#9191C3" d="M193,179.9c-0.1,0.1-0.1,0.3,0,0.4c-0.1,0-0.2-0.1-0.3-0.2c0-0.1,0.1-0.2,0.2-0.3
						C193,179.8,193,179.9,193,179.9z"/>
					<path fill="#2E3279" d="M159.3,188.2c0,0.2,0,0.4,0,0.6C159.1,188.6,159.1,188.4,159.3,188.2z"/>
					<path fill="#2E3279" d="M187.9,185.6c-0.2,0-0.4-0.1-0.4-0.3c0.3-0.2,0.3,0.2,0.3,0.2C187.7,185.7,187.9,185.5,187.9,185.6z"/>
					<path fill="#2E3279" d="M145.5,185.5c-0.1,0-0.2,0-0.3-0.1c0-0.1,0-0.2,0.1-0.2c0.1,0,0.1-0.2,0.1-0.2
						C145.5,185.2,145.6,185.4,145.5,185.5z"/>
					<path fill="#2E3279" d="M176.9,186c0-0.1,0-0.2,0-0.2c0.2-0.2,0.1,0.1,0.2,0.1c0.1,0.1,0,0.2,0,0.2
						C176.9,186.2,176.9,186,176.9,186z"/>
					<path fill="#9191C3" d="M159.5,179.9c-0.1,0-0.3,0-0.4,0C159.3,179.6,159.4,179.6,159.5,179.9z"/>
					<path fill="#2E3279" d="M154.6,188.8c0,0.1,0.1,0.2,0,0.3c-0.1-0.1-0.2-0.2-0.2-0.3C154.3,188.5,154.5,188.9,154.6,188.8z"/>
					<path fill="#2E3279" d="M159.9,185.5c-0.2-0.2-0.1-0.4-0.1-0.6C160,185,159.9,185.2,159.9,185.5z"/>
					<path fill="#2E3279" d="M145.2,187.5c0.1,0,0.2,0,0.3,0c0.1,0,0.2,0,0.2,0.1c-0.1,0-0.2,0-0.3,0
						C145.3,187.6,145.2,187.6,145.2,187.5z"/>
					<path fill="#2E3279" d="M162.9,184.2c0.1,0.1,0.2,0.2,0.3,0.3c-0.1,0-0.1,0,0,0.1l0,0c0,0.1,0,0.2-0.1,0.1
						C163,184.5,162.9,184.4,162.9,184.2z"/>
					<path fill="#2E3279" d="M176.4,190.2C176.4,190.2,176.4,190.2,176.4,190.2c0.1,0.2,0.3,0,0.4,0.1c-0.2,0.1-0.4,0-0.6,0
						C176.2,190.2,176.3,190.2,176.4,190.2L176.4,190.2C176.4,190.2,176.4,190.2,176.4,190.2C176.4,190.2,176.4,190.2,176.4,190.2z"
						/>
					<path fill="#9191C3" d="M187,186.1c0.3,0,0.7,0,1,0C187.7,186.2,187.4,186.2,187,186.1z"/>
					<path fill="#9191C3" d="M193.8,179.9c-0.2,0-0.4,0-0.6,0C193.4,179.8,193.6,179.7,193.8,179.9z"/>
					<path fill="#2E3279" d="M159.5,180.4c0.1,0.1,0.1,0.3,0.1,0.5c0,0.1,0,0.2-0.1,0.2c-0.1,0-0.1-0.1-0.1-0.2
						C159.5,180.8,159.5,180.6,159.5,180.4z"/>
					<path fill="#9191C3" d="M194.9,180.2c0-0.1-0.1-0.2-0.1-0.3c0.2-0.1,0.1,0.1,0.2,0.2C195.1,180.2,195,180.2,194.9,180.2z"/>
					<path fill="#2E3279" d="M177.3,179.9c0,0.1,0,0.2-0.2,0.2c0,0-0.1,0-0.1-0.1C177,180,177.1,179.9,177.3,179.9z"/>
					<path fill="#9191C3" d="M181.8,180.5C181.8,180.5,181.7,180.5,181.8,180.5c0-0.3,0.2-0.1,0.3-0.2
						C182.1,180.5,181.9,180.4,181.8,180.5z"/>
					<path fill="#9191C3" d="M178.6,186.1c0.3,0,0.5,0,0.8,0C179.2,186.2,178.9,186.2,178.6,186.1z"/>
					<path fill="#2E3279" d="M166.1,185.6c-0.2-0.1-0.4,0.1-0.5-0.1C165.8,185.6,166,185.5,166.1,185.6z"/>
					<path fill="#9191C3" d="M165.2,186.1c0.2,0,0.5,0,0.7,0C165.6,186.2,165.4,186.2,165.2,186.1z"/>
					<path fill="#9191C3" d="M180.6,187.6c0,0.1,0.1,0.3-0.1,0.4C180.5,187.8,180.5,187.7,180.6,187.6z"/>
					<path fill="#9191C3" d="M159.5,180.4c0,0.2,0,0.3,0,0.5l0,0l0,0c0-0.2,0-0.4,0-0.6C159.5,180.4,159.5,180.4,159.5,180.4z"/>
					<path fill="#9191C3" d="M148.7,190.2c0,0-0.1,0-0.1,0c0-0.1-0.1-0.1-0.1-0.2C148.6,190,148.7,190,148.7,190.2
						C148.7,190.2,148.7,190.2,148.7,190.2z"/>
					<path fill="#9191C3" d="M181.9,179.9c-0.1,0-0.2,0-0.3,0C181.7,179.7,181.8,179.8,181.9,179.9z"/>
					<path fill="#9191C3" d="M177.6,186.1c0.2,0,0.3,0,0.5,0C177.9,186.2,177.7,186.2,177.6,186.1z"/>
					<path fill="#9191C3" d="M182.2,180.1c-0.1,0-0.1-0.1-0.1-0.1c0,0,0-0.1,0-0.1C182.1,179.9,182.2,180,182.2,180.1z"/>
					<path fill="#9191C3" d="M148.4,190c0-0.1,0-0.2,0.1-0.2c0,0.1,0,0.1,0,0.2c0,0,0,0,0,0.1C148.5,190,148.4,190,148.4,190z"/>
					<path fill="#9191C3" d="M180.5,179.9c-0.1,0-0.2,0-0.2,0C180.4,179.8,180.4,179.8,180.5,179.9z"/>
					<path fill="#9191C3" d="M194.7,179.9c-0.1,0-0.2,0-0.2,0C194.5,179.8,194.6,179.8,194.7,179.9z"/>
					<path fill="#9191C3" d="M159.3,181.1c0-0.1,0-0.2,0.1-0.2C159.5,181,159.4,181.1,159.3,181.1z"/>
					<path fill="#9191C3" d="M159.5,180.2c0-0.1,0-0.2,0-0.2C159.6,180,159.6,180.1,159.5,180.2z"/>
					<path fill="#9191C3" d="M194,186.1c0.1,0,0.2,0,0.3,0C194.2,186.3,194.1,186.3,194,186.1z"/>
					<path fill="#2E3279" d="M143.4,185.8c-0.1,0-0.2-0.1-0.2-0.2c0.1,0,0.2,0,0.3,0C143.4,185.7,143.4,185.8,143.4,185.8z"/>
					<path fill="#9191C3" d="M155.9,180c0,0.1,0,0.1,0,0.2C155.6,180.1,155.8,180,155.9,180z"/>
					<path fill="#2E3279" d="M153.2,183.9C153.2,183.9,153.2,183.9,153.2,183.9c0.1,0,0.1,0,0.1,0.1c0,0,0,0,0,0
						C153.2,184,153.2,184,153.2,183.9z"/>
					<path fill="#2E3279" d="M177.3,179.8C177.4,179.8,177.4,179.7,177.3,179.8c0.1,0,0.1,0,0.1,0
						C177.4,179.8,177.4,179.8,177.3,179.8C177.4,179.8,177.3,179.8,177.3,179.8z"/>
					<path fill="#9191C3" d="M186.6,186.1c0.1,0,0.2,0,0.3,0C186.8,186.2,186.7,186.2,186.6,186.1z"/>
					<path fill="#2E3279" d="M153.4,183.7C153.4,183.7,153.4,183.7,153.4,183.7c0.1-0.1,0.2,0,0.1,0
						C153.4,183.8,153.4,183.8,153.4,183.7z"/>
					<path fill="#9191C3" d="M155.9,180.3c0,0,0.1,0,0.1,0.1C156,180.4,155.9,180.4,155.9,180.3z"/>
					<path fill="#2E3279" d="M141.7,187.6c0,0.1-0.1,0.2-0.2,0.2C141.5,187.8,141.5,187.6,141.7,187.6z"/>
					<path fill="#2E3279" d="M170.4,185.5c0.1,0,0.1,0.1,0.1,0.1l0,0C170.5,185.6,170.4,185.6,170.4,185.5L170.4,185.5z"/>
					<path fill="#9191C3" d="M180.1,179.9L180.1,179.9C180.1,179.8,180.1,179.8,180.1,179.9C180.1,179.8,180.1,179.8,180.1,179.9z"
						/>
					<path fill="#2E3279" d="M190.3,180.6C190.3,180.6,190.3,180.6,190.3,180.6c0-0.1,0.1-0.1,0.1,0
						C190.4,180.6,190.4,180.6,190.3,180.6L190.3,180.6C190.4,180.6,190.4,180.6,190.3,180.6z"/>
					<path fill="#9191C3" d="M146.6,189.8c0,0.1-0.1,0.1-0.1,0.1C146.5,189.8,146.5,189.8,146.6,189.8z"/>
					<path fill="#2E3279" d="M141.9,182.7c-0.1,0-0.1,0-0.1-0.1C141.8,182.6,141.9,182.6,141.9,182.7z"/>
					<path fill="#9191C3" d="M156.3,179.9c0,0-0.1,0-0.1,0C156.3,179.8,156.3,179.8,156.3,179.9z"/>
					<path fill="#9191C3" d="M164.9,186.1C164.9,186.1,164.9,186.1,164.9,186.1C164.9,186.1,164.9,186.1,164.9,186.1
						C164.9,186.1,164.9,186.1,164.9,186.1z"/>
					<path fill="#2E3279" d="M141.7,182.5c-0.1,0-0.1,0-0.1-0.1C141.7,182.5,141.7,182.5,141.7,182.5z"/>
					<path fill="#9191C3" d="M182.2,180.2L182.2,180.2L182.2,180.2z"/>
					<path fill="#2E3279" d="M145.1,186.6C145,186.6,145,186.6,145.1,186.6C145,186.5,145.1,186.6,145.1,186.6z"/>
					<path fill="#9191C3" d="M194.9,180.3C194.9,180.2,194.9,180.2,194.9,180.3C194.9,180.2,194.9,180.2,194.9,180.3z"/>
					<path fill="#2E3279" d="M141.9,182.8C141.9,182.8,141.9,182.8,141.9,182.8C141.9,182.7,141.9,182.8,141.9,182.8z"/>
					<path fill="#2E3279" d="M162.9,184.1C162.9,184.1,162.9,184.1,162.9,184.1C162.9,184.1,162.9,184.1,162.9,184.1z"/>
					<path fill="#9191C3" d="M148.2,189.5C148.2,189.5,148.2,189.6,148.2,189.5C148.2,189.6,148.2,189.6,148.2,189.5
						C148.2,189.6,148.2,189.6,148.2,189.5z"/>
					<path fill="#9191C3" d="M148.5,189.7C148.5,189.7,148.5,189.7,148.5,189.7C148.5,189.7,148.6,189.7,148.5,189.7
						C148.6,189.7,148.5,189.7,148.5,189.7z"/>
					<path fill="#2E3279" d="M151.1,188.5C151.1,188.5,151.1,188.5,151.1,188.5C151.1,188.5,151.1,188.5,151.1,188.5L151.1,188.5z"
						/>
					<path fill="#2E3279" d="M142.8,185.5L142.8,185.5L142.8,185.5z"/>
					<path fill="#2E3279" d="M144.5,186.1C144.5,186.1,144.4,186.1,144.5,186.1C144.4,186.1,144.5,186.1,144.5,186.1
						C144.5,186.1,144.5,186.1,144.5,186.1z"/>
					<path fill="#9191C3" d="M194.3,186.1C194.3,186.1,194.3,186.1,194.3,186.1C194.4,186.1,194.3,186.1,194.3,186.1z"/>
					<path fill="#2E3279" d="M143.2,188.4c0.2-0.7,0.2-1.3,0.1-2c0-0.1,0-0.1,0-0.2c0.1,0,0.1,0,0.1,0.1c0.1,0.1,0.2,0.2,0.2,0.3
						c-0.2,0-0.2,0.1-0.2,0.3c0,0.4,0,0.9-0.1,1.3C143.3,188.3,143.3,188.4,143.2,188.4z"/>
					<path fill="#2E3279" d="M143.7,186.6c0.2,0.2,0.4,0.4,0.6,0.6C144,187.2,143.7,186.9,143.7,186.6z"/>
					<path fill="#2E3279" d="M144.6,187.3c0.2,0,0.4,0,0.6,0.2c-0.1,0-0.2,0-0.3,0.1C144.7,187.6,144.6,187.5,144.6,187.3z"/>
					<path fill="#2E3279" d="M142.7,188.9c0.1-0.1,0.2-0.2,0.3-0.3C143,188.8,142.9,188.9,142.7,188.9z"/>
					<path fill="#2E3279" d="M144.3,187.2c0.1,0,0.2,0.1,0.3,0.2C144.5,187.4,144.3,187.4,144.3,187.2z"/>
					<path fill="#2E3279" d="M143,188.6c0-0.1,0-0.2,0.2-0.2C143.2,188.5,143.2,188.6,143,188.6z"/>
					<path fill="#9191C3" d="M193.5,184.2c0.2-0.1,0.1-0.3,0.1-0.5c0-0.2-0.1-0.3,0.1-0.5c0.1,0.3,0,0.6,0.1,0.9
						C193.7,184.3,193.6,184.3,193.5,184.2z"/>
					<path fill="#424793" d="M193.3,183.9c0.1,0,0.2,0.1,0.1,0.2C193.4,184.1,193.3,184.1,193.3,183.9z"/>
					<path fill="#424793" d="M190.3,180.6C190.4,180.6,190.4,180.6,190.3,180.6C190.3,180.7,190.3,180.6,190.3,180.6z"/>
					<path fill="#424793" d="M193.2,183.9C193.3,183.9,193.3,183.9,193.2,183.9C193.3,183.9,193.2,183.9,193.2,183.9z"/>
					<path fill="#424793" d="M162.8,182.9c-0.3,0.2-0.6,0.1-0.9,0.1c-0.1,0-0.1-0.1-0.1-0.2c0-0.6,0-1.1,0-1.7
						c0.1-0.4,0.3-0.6,0.8-0.5l0,0c0,0.1-0.2,0.2,0.1,0.2c0.2,0.1,0.4,0.2,0.4,0.5C163,181.8,163.3,182.4,162.8,182.9
						C162.8,182.8,162.8,182.9,162.8,182.9z"/>
					<path fill="#2E3279" d="M162.8,182.9C162.8,182.9,162.8,182.8,162.8,182.9c0.5-0.5,0.2-1.1,0.3-1.6c0-0.2-0.2-0.4-0.4-0.5
						c-0.2-0.1,0-0.2-0.1-0.2c0.5,0.2,0.7,0.4,0.7,0.9l0,0c-0.1,0-0.1,0,0,0.1l0,0c0.1,0.2,0.1,0.4,0,0.5c-0.2,0.1-0.1,0.2-0.1,0.4
						C163.2,182.8,163,182.9,162.8,182.9z"/>
					<path fill="#424793" d="M160.7,185.1c0-0.1,0-0.1,0-0.2c0-1.4,0-2.8,0-4.2c0-0.1,0-0.1,0-0.2c0.1,0.1,0,0.1,0,0.2
						c0,1.4,0,2.7,0,4.1C160.8,185,160.7,185,160.7,185.1z"/>
					<path fill="#2E3279" d="M162.6,180.6c-0.4-0.1-0.6,0.1-0.8,0.5C161.8,180.5,162,180.4,162.6,180.6z"/>
					<path fill="#424793" d="M163.2,182.5c0-0.1-0.1-0.3,0.1-0.4C163.3,182.2,163.3,182.4,163.2,182.5z"/>
					<path fill="#424793" d="M163.2,184.5C163.2,184.5,163.2,184.5,163.2,184.5C163.2,184.5,163.2,184.5,163.2,184.5z"/>
					<path fill="#2E3279" d="M163.3,181.5C163.3,181.5,163.3,181.5,163.3,181.5L163.3,181.5C163.3,181.5,163.3,181.5,163.3,181.5
						L163.3,181.5z"/>
					<path fill="#424793" d="M146.3,182.8c0,0-0.2,0.1-0.2-0.1c0.2-0.5,0.4-1.1,0.6-1.7c0.3,0.6,0.4,1.2,0.6,1.7
						c-0.1,0-0.1-0.1-0.2-0.2c-0.1,0.2-0.3,0.2-0.5,0.2C146.6,182.8,146.4,182.7,146.3,182.8z"/>
					<path fill="#2E3279" d="M146.3,182.8c0.1-0.1,0.2,0,0.3,0c0.2,0,0.4,0,0.5-0.2c0.1,0.1,0.1,0.2,0.2,0.2c0.1,0.1,0.1,0.1,0,0.1
						C147,182.8,146.7,182.9,146.3,182.8z"/>
					<path fill="#424793" d="M169.5,183.7c0.3,0.4,0.4,0.9,0.2,1.4c-0.2,0.5-0.5,0.5-1,0.5c-0.2,0-0.3-0.1-0.5-0.1l0,0
						c-0.1-0.6,0-1.2-0.1-1.7c0-0.2-0.1-0.3,0-0.5c0,0.1,0.1,0.1,0.2,0.1c0.4,0,0.7,0,1,0.4C169.5,183.9,169.5,183.7,169.5,183.7z"
						/>
					<path fill="#424793" d="M168.3,182.4c-0.2,0-0.2-0.1-0.2-0.2c0-0.5,0-1,0-1.5c0-0.1,0-0.2,0.2-0.2c0,0.1,0,0.2,0.2,0.2
						c0.2,0,0.4,0.1,0.5,0.3c0.2,0.3,0.1,0.6,0.1,0.8c0,0.4-0.2,0.5-0.6,0.4C168.2,182.1,168.3,182.2,168.3,182.4z"/>
					<path fill="#9191C3" d="M167,185.5c0-1.7,0-3.4,0-5.1c0.2,0,0.1,0.2,0.1,0.3c0,1.5,0,3,0,4.5
						C167.1,185.4,167.2,185.5,167,185.5z"/>
					<path fill="#9191C3" d="M168.2,183.2c-0.1,0.2-0.1,0.3,0,0.5c0,0.6-0.1,1.2,0.1,1.7c-0.2,0-0.2-0.1-0.2-0.3c0-0.6,0-1.2,0-1.8
						c0-0.2,0.1-0.3,0.3-0.3c0.2,0,0.5-0.1,0.7,0.2c-0.2,0-0.4,0-0.6-0.1C168.3,183,168.3,183.1,168.2,183.2z"/>
					<path fill="#2E3279" d="M168.3,182.4c0-0.1-0.1-0.3,0.2-0.2c0.3,0.1,0.5,0,0.6-0.4c0-0.3,0.1-0.6-0.1-0.8
						c-0.1-0.2-0.3-0.3-0.5-0.3c-0.2,0-0.1-0.1-0.2-0.2l0,0c0.2,0,0.4,0.2,0.6,0.1c0.1,0,0.1,0,0.1,0.1c0,0.1,0,0.1,0.1,0.2
						c0,0.1,0,0.1,0.1,0.2c0,0.1,0,0.2,0,0.3c0,0.1,0,0.1,0,0.2c0,0.1,0,0.2,0,0.3C169,182.5,168.7,182.4,168.3,182.4z"/>
					<path fill="#2E3279" d="M168.2,183.2c0-0.1,0.1-0.1,0.2-0.1c0.2,0.1,0.4,0.1,0.6,0.1c0.2,0.1,0.3,0.2,0.4,0.3
						c0,0.1,0,0.1,0.1,0.1l0,0c0,0.1-0.1,0.2-0.1,0.1c-0.2-0.4-0.6-0.4-1-0.4C168.3,183.3,168.3,183.3,168.2,183.2z"/>
					<path fill="#9191C3" d="M169.2,182c0-0.1,0-0.2,0-0.3c0.1-0.1,0.1-0.1,0-0.2c0-0.1,0-0.2,0-0.3
						C169.4,181.3,169.4,181.7,169.2,182z"/>
					<path fill="#424793" d="M168.9,180.7c-0.2,0-0.4-0.2-0.6-0.1C168.5,180.4,168.7,180.4,168.9,180.7z"/>
					<path fill="#9191C3" d="M168.3,185.4c0.2,0,0.3,0.1,0.5,0.1C168.6,185.5,168.4,185.6,168.3,185.4z"/>
					<path fill="#424793" d="M170.4,185.5c0,0.1,0.1,0.1,0.1,0.1c0,0,0,0-0.1,0.1c-0.1,0-0.1,0-0.2-0.1
						C170.3,185.6,170.4,185.5,170.4,185.5z"/>
					<path fill="#424793" d="M169.2,180.9c-0.1,0-0.1-0.1-0.1-0.2C169.1,180.8,169.2,180.8,169.2,180.9z"/>
					<path fill="#424793" d="M169.5,183.7c-0.1,0-0.1-0.1-0.1-0.1C169.5,183.5,169.5,183.6,169.5,183.7z"/>
					<path fill="#424793" d="M151.7,184.4C151.7,184.3,151.7,184.3,151.7,184.4C151.7,184.3,151.7,184.3,151.7,184.4z"/>
					<path fill="#424793" d="M152.5,185.1C152.5,185.2,152.4,185.2,152.5,185.1C152.4,185.2,152.4,185.1,152.5,185.1z"/>
					<path fill="#424793" d="M152.3,185.2C152.3,185.3,152.3,185.3,152.3,185.2C152.3,185.3,152.3,185.3,152.3,185.2z"/>
					<path fill="#424793" d="M185.3,182.5c0,0.2,0.2,0.4,0.2,0.7c-0.2,0-0.5,0-0.7,0c-0.2,0-0.2-0.1-0.2-0.2c0.1-0.3,0.1-0.7,0.3-1
						c0,0.1,0,0.3,0.1,0.4c0,0,0,0.1,0.1,0c0,0,0-0.1,0-0.1C185.2,182.4,185.2,182.5,185.3,182.5z"/>
					<path fill="#9191C3" d="M184.5,183c0,0.2,0,0.2,0.2,0.2c0.2,0,0.5,0,0.7,0c0,0.2-0.1,0.1-0.2,0.1c-0.2,0-0.4,0-0.6,0
						c-0.1,0-0.2,0-0.2-0.1C184.4,183.1,184.4,183,184.5,183z"/>
					<path fill="#2E3279" d="M185.1,182.4c0,0,0,0.1,0,0.1C185,182.5,185,182.5,185.1,182.4c-0.2,0-0.2-0.2-0.2-0.4
						c0-0.1,0-0.2,0.1-0.3c0.1,0.1,0.2,0.3,0.2,0.5C185.1,182.3,185.1,182.3,185.1,182.4z"/>
					<path fill="#9191C3" d="M185.1,182.4c0,0,0-0.1,0-0.1c0.2,0,0.2,0.2,0.2,0.3C185.2,182.5,185.2,182.4,185.1,182.4z"/>
					<path fill="#424793" d="M173.9,182.8c0.1,0.1,0.2,0.2,0.1,0.4c-0.1,0.2-0.2,0.1-0.3,0.1c-0.8,0-0.8,0-0.5-0.7
						c0.1-0.3,0.2-0.5,0.3-0.8c0,0.2,0.3,0.2,0.1,0.5c-0.1,0.1,0,0.2,0.1,0.2C173.9,182.5,173.9,182.7,173.9,182.8c0,0-0.1,0-0.1,0
						c0,0.3-0.2,0.2-0.4,0.2c-0.1,0-0.1-0.1-0.2,0.1c0.2,0,0.3,0,0.5,0C173.9,183.2,173.9,183.1,173.9,182.8z"/>
					<path fill="#9191C3" d="M177.8,185.2c-0.1-0.5,0-0.9,0-1.4c0-1.1,0-2.2,0-3.3c0.1,0.1,0.1,0.2,0.1,0.3c0,1.4,0,2.8,0,4.2
						C177.9,185,177.9,185.1,177.8,185.2z"/>
					<path fill="#9191C3" d="M177.8,180.4c-0.1,0-0.2,0-0.3-0.1C177.6,180.4,177.7,180.3,177.8,180.4z"/>
					<path fill="#424793" d="M142.2,185.4c-0.3,0-0.7,0.1-1-0.1c0.3-0.2,0.7-0.1,1,0C142.2,185.3,142.2,185.4,142.2,185.4z"/>
					<path fill="#424793" d="M152.7,190.2c-0.2,0-0.4,0-0.6,0C152.3,190.1,152.5,190.1,152.7,190.2z"/>
					<path fill="#424793" d="M152.8,190.2C152.7,190.2,152.7,190.2,152.8,190.2C152.7,190.2,152.7,190.2,152.8,190.2
						C152.7,190.2,152.7,190.2,152.8,190.2z"/>
					<path fill="#424793" d="M157.6,187.6c0,0,0.1,0,0.1,0c0,0.1,0,0.2,0.1,0.2c0.3,0.2,0.4,0.5,0.4,0.9c0,0.1,0,0.3,0.1,0.4
						c0,0.1-0.1,0.1-0.1,0.2c0,0,0,0,0,0c-0.1,0-0.1,0.1-0.1,0.1c-0.1,0-0.2,0.1-0.3,0.1c-0.1-0.1-0.3-0.1-0.4-0.1
						c-0.3,0-0.4-0.1-0.4-0.4c0-0.1,0-0.2,0-0.3c0-0.5,0.1-1,0-1.4c0,0,0.1,0,0.1,0C157.2,187.5,157.4,187.7,157.6,187.6z"/>
					<path fill="#2E3279" d="M156.9,187.4c0.1,0.5,0,1,0,1.4c0,0.1,0,0.2,0,0.3c0,0.3,0.1,0.5,0.4,0.4c0.1,0,0.3-0.1,0.4,0.1
						c0,0.1-0.1,0-0.1,0c-0.2-0.1-0.4-0.1-0.6,0c-0.2,0-0.2-0.1-0.2-0.2c0-0.6,0-1.2,0-1.9C156.8,187.5,156.8,187.4,156.9,187.4z"/>
					<path fill="#2E3279" d="M158.3,189.2c-0.1-0.1-0.1-0.3-0.1-0.4c0.1-0.4-0.1-0.7-0.4-0.9c-0.1-0.1-0.1-0.1-0.1-0.2
						c0.2,0,0.4,0.1,0.5,0.4c0.1,0.3,0.1,0.7,0.2,1C158.4,189.1,158.4,189.1,158.3,189.2C158.3,189.2,158.3,189.2,158.3,189.2z"/>
					<path fill="#9191C3" d="M158.4,189c0-0.3,0-0.7-0.2-1C158.5,188.2,158.6,188.7,158.4,189z"/>
					<path fill="#2E3279" d="M157.6,187.6c-0.2,0.1-0.4-0.1-0.5-0.2C157.3,187.4,157.5,187.3,157.6,187.6z"/>
					<path fill="#424793" d="M157,190.2c-0.3,0-0.6,0-0.8,0C156.4,190.1,156.7,190.1,157,190.2z"/>
					<path fill="#424793" d="M157,189.7c0.2-0.1,0.4-0.1,0.6,0C157.4,189.8,157.2,189.8,157,189.7z"/>
					<path fill="#9191C3" d="M158.3,189.2C158.3,189.2,158.3,189.2,158.3,189.2c0.1,0.1,0.1,0.2-0.1,0.2
						C158.2,189.3,158.3,189.3,158.3,189.2z"/>
					<path fill="#9191C3" d="M158.1,189.6c0-0.1,0.1-0.1,0.1-0.1C158.2,189.6,158.2,189.6,158.1,189.6z"/>
					<path fill="#424793" d="M175.3,187.7c0.2,0.2,0.2,0.5,0,0.7c0-0.1,0-0.2-0.1-0.2c-0.1,0.2-0.4,0-0.5,0.2
						c-0.1-0.3-0.1-0.6,0-0.9c0-0.2,0.3-0.2,0.5,0c-0.1,0-0.2,0-0.3,0.1c0.1,0.1,0.2,0,0.3,0.1C175.3,187.9,175.3,187.8,175.3,187.7
						z"/>
					<path fill="#424793" d="M174,189.7c0-0.8-0.1-1.5,0-2.3c0.1,0.6,0,1.2,0,1.8C174.1,189.4,174.1,189.6,174,189.7z"/>
					<path fill="#2E3279" d="M175.3,187.7c0,0.1,0,0.3-0.2,0.1c-0.1-0.1-0.2,0-0.3-0.1c0.1-0.1,0.2,0,0.3-0.1
						C175.3,187.5,175.3,187.6,175.3,187.7z"/>
					<path fill="#2E3279" d="M174.7,188.5c0.1-0.2,0.4-0.1,0.5-0.2c0,0,0,0.1,0.1,0.2c0,0,0,0.1,0,0.1
						C175.1,188.4,174.9,188.4,174.7,188.5L174.7,188.5z"/>
					<path fill="#424793" d="M174.7,188.5c0.2,0,0.3,0,0.5,0C175.1,188.6,174.9,188.6,174.7,188.5z"/>
					<path fill="#424793" d="M174.8,190.2c-0.1,0-0.3,0-0.4,0C174.5,190.1,174.7,190.1,174.8,190.2z"/>
					<path fill="#424793" d="M176.4,190.2C176.4,190.2,176.4,190.2,176.4,190.2C176.4,190.2,176.4,190.2,176.4,190.2L176.4,190.2z"
						/>
					<path fill="#424793" d="M163,189.8c-0.7,0-1.1-0.5-1.1-1.3c0-0.7,0.4-1.1,1-1.1c0.7,0,1.1,0.5,1.1,1.3
						C163.9,189.4,163.6,189.8,163,189.8z"/>
					<path fill="#424793" d="M163.1,190.2c-0.2,0.1-0.3,0.1-0.5,0C162.8,190.2,162.9,190.2,163.1,190.2z"/>
					<path fill="#424793" d="M150.3,188.5c0,0.1-0.1,0.2-0.2,0.2c-0.1,0-0.3-0.1-0.2-0.2c0.1-0.1,0-0.4,0.2-0.5
						C150.3,188.1,150.2,188.4,150.3,188.5z"/>
					<path fill="#424793" d="M148.7,190.2C148.7,190.2,148.7,190.2,148.7,190.2c0.1-0.1,0.1-0.1,0.1-0.1c0.1,0.1,0.3,0,0.4,0.1
						C149.1,190.2,148.9,190.2,148.7,190.2z"/>
					<path fill="#424793" d="M150.8,188.3c0.1,0,0.1,0.1,0.1,0.2C150.8,188.4,150.8,188.3,150.8,188.3z"/>
					<path fill="#424793" d="M151.2,190.2c-0.1,0-0.1,0-0.2,0C151.1,190.1,151.1,190.1,151.2,190.2z"/>
					<path fill="#424793" d="M151.4,190.2c-0.1,0-0.1,0-0.2,0C151.3,190.1,151.3,190.1,151.4,190.2z"/>
					<path fill="#9191C3" d="M178,187.4c0,0.3,0,0.6,0,0.9C177.8,188.1,177.8,187.6,178,187.4z"/>
					<path fill="#9191C3" d="M178.3,187.4c-0.1,0.2-0.2,0-0.3,0C178.1,187.3,178.2,187.3,178.3,187.4z"/>
					<path fill="#9191C3" d="M178.6,187.6c-0.1,0-0.2,0-0.2-0.1C178.5,187.3,178.6,187.4,178.6,187.6z"/>
					<path fill="#424793" d="M178.4,190.2C178.4,190.2,178.4,190.2,178.4,190.2C178.4,190.2,178.4,190.2,178.4,190.2
						C178.4,190.2,178.4,190.2,178.4,190.2z"/>
					<path fill="#424793" d="M166.6,187.6c0,0-0.1,0-0.1,0c-0.3-0.1-0.5,0.1-0.4,0.4c0,0.1,0,0.2,0,0.3c-0.1-0.2-0.2-0.7,0-0.8
						C166.2,187.4,166.4,187.3,166.6,187.6z"/>
					<path fill="#424793" d="M166.1,188.8c0,0.3,0,0.7,0,1c-0.1,0-0.1-0.1-0.1-0.2c0-0.2,0-0.5,0-0.7
						C165.9,188.8,166,188.8,166.1,188.8z"/>
					<path fill="#424793" d="M166.1,190.2c-0.2,0-0.3,0-0.5,0C165.7,190.1,165.9,190.1,166.1,190.2z"/>
					<path fill="#424793" d="M166.5,188.8c-0.1,0-0.2,0-0.3,0C166.3,188.7,166.4,188.7,166.5,188.8z"/>
					<path fill="#424793" d="M165.5,190.2C165.5,190.2,165.5,190.2,165.5,190.2C165.5,190.2,165.5,190.2,165.5,190.2
						C165.5,190.2,165.5,190.2,165.5,190.2z"/>
					<path fill="#424793" d="M170.9,187.6C170.9,187.6,170.9,187.6,170.9,187.6c-0.7,0-0.7,0.1-0.5,0.7c-0.1-0.1-0.2-0.7-0.1-0.8
						C170.4,187.4,170.8,187.4,170.9,187.6z"/>
					<path fill="#424793" d="M173,187.4c0,0.8,0,1.6,0,2.4c-0.1,0-0.1-0.2-0.1-0.3c0-0.6,0-1.3,0-1.9
						C172.8,187.5,172.8,187.4,173,187.4z"/>
					<path fill="#424793" d="M172.8,190.2c-0.2,0-0.4,0-0.6,0C172.4,190.1,172.6,190.1,172.8,190.2z"/>
					<path fill="#9191C3" d="M146.6,189.7c-0.1-0.8,0-1.5,0-2.3c0.1,0,0.2,0,0.2,0.1c0,0.7,0.1,1.3-0.1,2
						C146.7,189.6,146.7,189.7,146.6,189.7z"/>
					<path fill="#424793" d="M147.4,190.2c-0.2,0-0.4,0-0.6,0C147,190.1,147.2,190.1,147.4,190.2z"/>
					<path fill="#424793" d="M163.3,181.5C163.3,181.5,163.3,181.5,163.3,181.5C163.2,181.5,163.2,181.5,163.3,181.5z"/>
					<path fill="#424793" d="M169.2,181.4c0.1,0.1,0.1,0.1,0,0.2C169.2,181.6,169.2,181.5,169.2,181.4z"/>
					<path fill="#2E3279" d="M173.9,182.8c0,0.2,0,0.3-0.3,0.3c-0.1,0-0.3,0-0.5,0c0.1-0.2,0.2-0.1,0.2-0.1c0.2,0,0.4,0.1,0.4-0.2
						C173.7,182.8,173.8,182.8,173.9,182.8L173.9,182.8z"/>
				</g>
			</g>
			<g>
				<path fill="#FFCB00" d="M207.1,172.1c3.7-2.8,3.7-2.8,4.7-3.6c1.5-1.2,2.4-1.4,2.4-3.3v-11.1h-14.1v11.1c0,1.9,0.9,2.1,2.4,3.3
					C203.1,169.1,207.1,172.1,207.1,172.1z"/>
				<path fill="#E52E1F" d="M213.8,154.5c0,0,0,10.4,0,10.8c0,1.3-0.5,1.7-1.3,2.3c-0.8,0.6-5.3,4-5.3,4s-4.5-3.4-5.3-4
					c-0.8-0.6-1.3-1-1.3-2.3c0-0.4,0-10.8,0-10.8H213.8z"/>
				<path fill="#2D2E82" d="M213.8,154.5h-13.3c0,0,0,10.4,0,10.8c0,1,0.3,1.5,0.8,1.9L213.8,154.5z"/>
				<path fill="#F6F4F4" d="M202.1,155.2c0,0-0.2,0-0.5,0c-0.1-0.3-0.2-0.5-0.2-0.5c0,0-0.1,0.2-0.2,0.5c-0.3,0-0.5,0-0.5,0
					c0,0,0.2,0.2,0.4,0.3c-0.1,0.3-0.1,0.5-0.1,0.5c0,0,0.2-0.1,0.4-0.3c0.2,0.2,0.4,0.3,0.4,0.3c0,0-0.1-0.2-0.1-0.5
					C201.9,155.4,202.1,155.2,202.1,155.2z"/>
				<path fill="#F6F4F4" d="M207.1,155.2c0,0-0.2,0-0.5,0c-0.1-0.3-0.2-0.5-0.2-0.5c0,0-0.1,0.2-0.2,0.5c-0.3,0-0.5,0-0.5,0
					c0,0,0.2,0.2,0.4,0.3c-0.1,0.3-0.1,0.5-0.1,0.5c0,0,0.2-0.1,0.4-0.3c0.2,0.2,0.4,0.3,0.4,0.3c0,0-0.1-0.2-0.1-0.5
					C206.9,155.4,207.1,155.2,207.1,155.2z"/>
				<path fill="#F6F4F4" d="M212.2,155.2c0,0-0.2,0-0.5,0c-0.1-0.3-0.2-0.5-0.2-0.5c0,0-0.1,0.2-0.2,0.5c-0.3,0-0.5,0-0.5,0
					c0,0,0.2,0.2,0.4,0.3c-0.1,0.3-0.1,0.5-0.1,0.5c0,0,0.2-0.1,0.4-0.3c0.2,0.2,0.4,0.3,0.4,0.3c0,0-0.1-0.2-0.1-0.5
					C212,155.4,212.2,155.2,212.2,155.2z"/>
				<path fill="#F6F4F4" d="M208.8,158.7c0,0-0.2,0-0.5,0c-0.1-0.3-0.2-0.5-0.2-0.5c0,0-0.1,0.2-0.2,0.5c-0.3,0-0.5,0-0.5,0
					c0,0,0.2,0.2,0.4,0.3c-0.1,0.3-0.1,0.5-0.1,0.5c0,0,0.2-0.1,0.4-0.3c0.2,0.2,0.4,0.3,0.4,0.3c0,0-0.1-0.2-0.1-0.5
					C208.6,158.8,208.8,158.7,208.8,158.7z"/>
				<path fill="#F6F4F4" d="M205.5,162.1c0,0-0.2,0-0.5,0c-0.1-0.3-0.2-0.5-0.2-0.5c0,0-0.1,0.2-0.2,0.5c-0.3,0-0.5,0-0.5,0
					c0,0,0.2,0.2,0.4,0.3c-0.1,0.3-0.1,0.5-0.1,0.5c0,0,0.2-0.1,0.4-0.3c0.2,0.2,0.4,0.3,0.4,0.3c0,0-0.1-0.2-0.1-0.5
					C205.3,162.3,205.5,162.1,205.5,162.1z"/>
				<path fill="#F6F4F4" d="M202.1,165.6c0,0-0.2,0-0.5,0c-0.1-0.3-0.2-0.5-0.2-0.5c0,0-0.1,0.2-0.2,0.5c-0.3,0-0.5,0-0.5,0
					c0,0,0.2,0.2,0.4,0.3c-0.1,0.3-0.1,0.5-0.1,0.5c0,0,0.2-0.1,0.4-0.3c0.2,0.2,0.4,0.3,0.4,0.3c0,0-0.1-0.2-0.1-0.5
					C201.9,165.7,202.1,165.6,202.1,165.6z"/>
				<path fill="#F6F4F4" d="M202.1,160.4c0,0-0.2,0-0.5,0c-0.1-0.3-0.2-0.5-0.2-0.5c0,0-0.1,0.2-0.2,0.5c-0.3,0-0.5,0-0.5,0
					c0,0,0.2,0.2,0.4,0.3c-0.1,0.3-0.1,0.5-0.1,0.5c0,0,0.2-0.1,0.4-0.3c0.2,0.2,0.4,0.3,0.4,0.3c0,0-0.1-0.2-0.1-0.5
					C201.9,160.5,202.1,160.4,202.1,160.4z"/>
				<polygon fill="#F6F4F4" points="202.3,156.4 209.3,156.4 202.3,163.5 				"/>
				<path fill="#009751" d="M203.5,156.6c0.7,0,1.2,0.4,1.2,0.8c0,0.4-0.4,0.8-1.2,0.8c-0.6,0-1.2-0.4-1.2-0.8
					C202.4,157,203,156.6,203.5,156.6z"/>
				<circle fill="#E52E1F" cx="203.4" cy="157" r="0.1"/>
				<circle fill="#E52E1F" cx="203.7" cy="157.4" r="0.1"/>
				<circle fill="#E52E1F" cx="204.3" cy="157.2" r="0.1"/>
				<circle fill="#E52E1F" cx="204.1" cy="157.7" r="0.1"/>
				<circle fill="#E52E1F" cx="203.3" cy="157.7" r="0.1"/>
				<circle fill="#E52E1F" cx="202.9" cy="157.2" r="0.1"/>
				<path fill="#7D361E" d="M204,160.8c-0.2,0-0.2,0-0.2-0.2c0-0.2,0-2.2,0-2.2c0,0,0-0.1,0-0.1c-0.1,0-0.1,0-0.2,0c0,0-0.1,0-0.1,0
					c0,0,0,0,0,0.1c0,0.1,0,2.1,0,2.2c0,0.2-0.1,0.2-0.1,0.2c-0.1,0-0.6,0-0.6,0.1c0,0,0,0,0.1,0c0,0,1.5,0,2,0l0.1-0.1
					C204.7,160.8,204.1,160.8,204,160.8z"/>
				<path fill="#131309" d="M204.9,159.9c0-0.2-0.3-0.3-0.3-0.9c0-0.3,0.2-0.4,0.2-0.5c0-0.1-0.1-0.1-0.2-0.1c0,0-0.1-0.1-0.2-0.1
					c-0.1,0-0.1,0-0.1,0c-0.1,0-0.2-0.1-0.2-0.1c0,0-0.1,0.1-0.1,0.1c0,0.1,0.1,0.1,0.1,0.2c0,0.1-0.1,0.3-0.1,0.4
					c0,0.1,0,0.1-0.1,0.1c-0.1,0-0.1-0.1-0.2-0.2c0,0-0.1-0.1-0.1-0.2c0,0.2,0,0.6,0,0.9c0,0,0.1,0.1,0.2,0.1
					c0.1,0.3,0.3,0.4,0.3,0.5s0,0.1,0,0.2c0,0.3,0.2,0.3,0.2,0.5c0,0,0,0.1-0.1,0.1c0.1,0,0.1,0,0.2,0c0,0,0-0.1,0-0.1c0,0,0,0,0,0
					c0,0,0,0,0,0c0,0,0,0.1,0,0.1c0.1,0,0.1,0,0.2,0c0-0.1-0.1-0.2-0.1-0.3c0-0.1,0.1-0.2,0.1-0.2c0.1,0,0.2,0,0.2-0.1
					C205,160,204.9,160,204.9,159.9z M203.9,159.3C203.9,159.3,203.8,159.3,203.9,159.3C203.8,159.2,203.9,159.2,203.9,159.3
					C203.9,159.2,203.9,159.3,203.9,159.3C203.9,159.3,203.9,159.3,203.9,159.3z"/>
				<g>
					<path fill="#F6F4F4" d="M201.3,167.2c0.2,0.1,0.3,0.3,0.5,0.4c0.2,0.2,0.8,0.6,1.4,1.1v-3.4L201.3,167.2z"/>
				</g>
				<path fill="#F6F4F4" d="M204.5,163.9v5.8c0.6,0.5,1.2,0.9,1.7,1.3h0v-8.8L204.5,163.9z"/>
				<path fill="#F6F4F4" d="M207.6,160.8v10.5c0.4-0.3,1.1-0.8,1.7-1.3V159L207.6,160.8z"/>
				<path fill="#F6F4F4" d="M210.7,168.9c0.8-0.6,1.4-1.1,1.7-1.3v-11.7l-1.7,1.8V168.9z"/>
			</g>
			<path fill="#3659A4" d="M148.3,159.8C148.3,159.8,148.2,159.8,148.3,159.8c-0.4,0.1-0.8,0.2-1.1,0.3c-0.8,0.2-1.7,0.5-2.5,0.7
				c-0.8,0.2-1.7,0.5-2.5,0.7c-0.8,0.2-1.7,0.5-2.5,0.7c-1,0.3-2.1,0.6-3.1,0.9c-0.3,0.1-0.7,0.2-1,0.2c-0.2,0-0.3,0-0.5,0
				c-0.2,0-0.4,0-0.7-0.1c-0.2,0-0.4-0.1-0.6-0.3c-0.3-0.2-0.5-0.5-0.6-0.8c0-0.1,0-0.3,0-0.4c0-0.2,0-0.3,0.1-0.5
				c0.1-0.3,0.1-0.5,0.2-0.8c0.1-0.2,0.2-0.5,0.3-0.7c0,0,0,0,0,0c0,0,0,0-0.1,0.1c-0.3,0.3-0.5,0.5-0.8,0.8
				c-0.3,0.4-0.6,0.8-0.9,1.2c-0.2,0.4-0.4,0.7-0.6,1.1c-0.1,0.3-0.2,0.6-0.2,0.9c0,0.3,0,0.5,0.1,0.8c0.1,0.3,0.3,0.6,0.5,0.8
				c0.2,0.1,0.4,0.3,0.6,0.3c0.3,0.1,0.5,0.1,0.8,0.1c0.2,0,0.4,0,0.6,0c0.2,0,0.5-0.1,0.7-0.1c0.4-0.1,0.8-0.2,1.2-0.4
				c0.2-0.1,0.5-0.2,0.7-0.3c1.6-0.7,3.1-1.4,4.7-2.1C143.5,161.9,145.8,160.9,148.3,159.8C148.2,159.8,148.3,159.8,148.3,159.8
				C148.3,159.8,148.3,159.8,148.3,159.8C148.3,159.8,148.3,159.8,148.3,159.8C148.3,159.8,148.3,159.8,148.3,159.8z"/>
		</g>
	</g>
	<linearGradient id="SVGID_1_" gradientUnits="userSpaceOnUse" x1="172.1455" y1="420.5644" x2="172.1455" y2="-1.409717e-09">
		<stop  offset="0" style="stop-color:#2484C6"/>
		<stop  offset="0.7539" style="stop-color:#2484C6;stop-opacity:0"/>
	</linearGradient>
	<path opacity="0.7" fill="url(#SVGID_1_)" d="M136.7,418.2L0,27.4c0,0,201.9-57.3,344.3-6.4L235.1,416.5
		C235.1,416.5,211.7,424.4,136.7,418.2z"/>
</g>
</svg>
