<?xml version="1.0" encoding="utf-8"?>
<!-- Generator: Adobe Illustrator 18.1.0, SVG Export Plug-In . SVG Version: 6.00 Build 0)  -->
<!DOCTYPE svg PUBLIC "-//W3C//DTD SVG 1.1//EN" "http://www.w3.org/Graphics/SVG/1.1/DTD/svg11.dtd">
<svg version="1.1" id="Layer_1" xmlns="http://www.w3.org/2000/svg" xmlns:xlink="http://www.w3.org/1999/xlink" x="0px" y="0px"
	 viewBox="0 0 285 334" enable-background="new 0 0 285 334" xml:space="preserve">
<path fill="#648E4C" d="M281.5,47.3c0,0-9.6,6.1-16,21.4c-2.6,1.4-5,3.2-7.1,5.1c2.3-12.9-0.6-19.4-3.2-22.5c0.4-1.1,0.9-2.1,1.4-3
	c-1,0.5-1.9,1.1-2.8,1.6c-1-0.8-1.7-1.1-1.7-1.1c0.2,0.6,0.4,1.2,0.6,1.9c-3.3,2.2-6,4.8-8.1,7.5C248.2,39,260,29.4,260,29.4
	c-13,6.3-19.1,18.8-22,29.9c-2.6-3.3-5.7-6.5-9.7-9.4c0,0,1.6,3.4,3,8.7c-1.5-0.9-3-1.5-4.5-1.5c0.8,1,1.6,2.2,2.5,3.5
	c-1.5,0.8-3.2,1.9-5,3.5c-0.9-0.4-1.9-0.7-2.9-1c1.3-2.4,2.6-4.4,3.9-5.9c-1,0-2.1,0.3-3.2,0.7c3.2-10.9,8.4-23.2,16.5-33
	c0,0-19.8,12.5-27.4,45.3c-0.6,1.1-1.1,2.3-1.6,3.4c-0.1-1.8-0.4-3.7-0.7-5.6c0.5-0.3,1-0.6,1.5-0.8c-0.5-0.3-1.1-0.4-1.8-0.5
	c-2-9.9-7.2-20.8-18.8-29.4c0,0,5.3,11.2,5.3,25.1c-1.3,0.7-2.7,1.5-4,2.5c-0.3,0-0.6,0-0.9,0.1c-0.6-0.7-1.3-1.3-2-1.9
	c1.5-2.9,3-5.5,4.6-7.3c-2.7-0.1-5.5,1.7-8.1,4.5c-0.8-0.6-1.7-1.2-2.6-1.7c3.7-8.6,7.9-14.2,7.9-14.2c-1.2,0.6-2.4,1.4-3.5,2.1
	c0.1-0.2,0.3-0.4,0.4-0.6c-4.4,2.8-8,6.3-10.9,10.1c-0.6-0.2-1.1-0.4-1.7-0.5c0,0,0.5,0.5,1.3,1.1c-1.1,1.5-2,3-2.8,4.5
	c-1.6,2.6-2.9,5.2-4,7.8c-0.3-0.8-0.6-1.6-0.9-2.3c0.5-3.3,0.8-6.5,0.8-9.6c0.3-0.4,0.6-0.8,0.9-1.1c-0.3,0-0.6,0.1-0.8,0.1
	c0.2-19.8-7-33.8-7-33.8c2.3,11.8,1.6,23.1-0.4,33c-2.7-3.5-6.1-6.6-10.2-9.2c2.9,3.5,6.1,9.9,7.8,17.1c-1.7-1.9-3.5-3.4-5.2-4.8
	c0.6-0.8,1.2-1.7,1.9-2.5c-1.3,0.3-2.4,0.8-3.5,1.3c-6.1-4.4-11.4-5.8-11.4-5.8c2.7,2.7,5.1,5.5,7.1,8.2c-5.7,4.1-8.7,10.2-9.7,16.2
	c-1.1,1-2.2,2.1-3.2,3.2c0.5-2.3,0.9-4.5,1.1-6.6c1.9-6.3,5.2-13,8.3-16.6c-2.7-0.1-5.5,1.7-8.1,4.4c-1.6-12.3-8.6-15.1-8.6-15.1
	c1.4,4,2,7.9,2,11.5c-4,1.9-7.1,5-9.3,8.5c-3.6-19.6,11.6-32.6,11.6-32.6c-10,5.5-15.5,12.4-18.2,19.4c-1.1-1.2-2.4-2.2-3.9-3.2
	c1.7,1.9,2.5,4.4,2.6,7.3c-0.7,2.7-1,5.4-1.1,7.9c-0.9,3.2-2.2,6.4-3.8,9.3c-0.2-0.7-0.4-1.4-0.6-2.2c-0.2-1.2-0.5-2.4-0.8-3.7
	c-0.1-0.6-0.3-1.2-0.4-1.9c1.5-2.2,3.1-4.4,5.3-6.6c0,0-2.5,0.8-5.7,2.7c-0.3-4.2,0-8.9,1.1-13.9c0,0-2.9,2.8-5.6,7.5
	c-1.1-1.6-2.3-3.2-3.7-4.7c3.2-8.8,7.7-18,14.1-25.6c0,0-9.9,6.4-18.4,21.7c-1.7-1.3-3.5-2.5-5.6-3.5c1.3,2.4,2.3,5.3,3.1,8.4
	c-1.2,2.6-2.4,5.3-3.4,8.3c-0.2-0.5-0.6-1-0.8-1.5c0.4-0.4,0.9-0.7,1.4-1c-0.7-0.1-1.3-0.2-2-0.2c-0.8-1.4-1.7-2.9-2.7-4.3
	c3-3,5.1-4.8,5.1-4.8c-2.4,0.6-4.6,1.4-6.8,2.4c-2.5-3.1-5.5-6.1-9.3-8.8c0,0,2.2,4.7,3.8,11.7c-2.4,1.5-4.7,3.2-6.8,5
	c-1.5,0.9-3,2.4-4.4,4.2c-0.1,0.1-0.2,0.2-0.3,0.3c-1.6-1.5-3.4-2.8-5.4-4c0.6-2.4,1.5-4.3,3-5.5c-0.6,0-1.2,0.1-1.8,0.2
	c1.3-2.2,2.7-4.3,4.4-6.3c0,0-3.6,2.3-7.8,7.5c-0.8,0.5-1.6,1-2.4,1.7c-1.2-0.5-2.5-1-3.9-1.3c0,0,1.1,0.9,2.7,2.4
	c-1.7,1.8-3.2,4.1-4.4,6.5C36.6,21.4,10.6,5,10.6,5c11,13.4,18.2,29.9,22.8,44.8c-0.8-0.5-1.7-1-2.5-1.5c2.4,4.6,4,11,4.8,17.2
	c-7.8-9.6-17.8-12.4-17.8-12.4c8.8,8.8,13,17.8,15.1,24.7c-4.4-4.9-10.7-10.2-17.5-11.5c3.5,2.6,8.3,8.5,11.8,14.7H16.7v252.4h0.7
	v0.9h252.4V81.9h-0.7V81h-9c0.8-1.4,1.7-2.8,2.6-4.2c-0.4,1.3-0.7,2.7-1,4.2h5.6c0.7-3.9,1.9-8.8,3.6-13.8c0.3-0.3,0.7-0.6,1-0.8
	c-0.3,0.1-0.5,0.1-0.8,0.2C273.5,59.9,276.8,53,281.5,47.3 M35.6,81L35.6,81L35.6,81L35.6,81L35.6,81 M220,66.1c0-0.1,0-0.1,0.1-0.1
	c0.4,0.5,0.7,1.1,1,1.6c-0.1,0.1-0.2,0.2-0.3,0.3c-0.4,0.2-0.9,0.4-1.3,0.6C219.6,67.7,219.8,66.9,220,66.1 M194.4,69.7
	c0.1,0.1,0.1,0.2,0.2,0.2c0,0,0,0,0,0.1C194.5,69.9,194.4,69.8,194.4,69.7C194.3,69.7,194.3,69.7,194.4,69.7 M185.7,68.7
	c0.1,0.1,0.2,0.3,0.2,0.4c-0.2,0.2-0.4,0.4-0.6,0.6C185.4,69.4,185.6,69.1,185.7,68.7 M180.7,61.7c0.4,0.5,0.8,1,1.3,1.6
	c-1.3,1.8-2.5,3.7-3.5,5.8C179.1,66.5,179.9,64,180.7,61.7 M150.6,63.5c0.7,1.1,1.4,2.3,2,3.4c-1.1,0.3-2.3,0.6-3.4,1.1
	C149.5,66.5,150,65,150.6,63.5 M154.2,70.1c0.1,0.2,0.2,0.3,0.3,0.5c-1.7,3.6-2.8,7.2-3.2,10.4h-1c-0.9-2-1.4-4.1-1.6-6.4
	C150.5,72.9,152.4,71.4,154.2,70.1 M128.8,63c-0.3,1-0.5,2.1-0.7,3.2C128.3,65.1,128.5,64,128.8,63 M92.1,66.5c0.1,3.7,0,7-0.5,9.2
	c-0.2-0.3-0.5-0.7-0.8-1c-0.1-0.4-0.1-0.8-0.1-1.2C91.1,71.4,91.5,69,92.1,66.5 M76.3,59.8c0,0.3,0.1,0.7,0.1,1
	C76,61.2,75.5,61.6,75,62c-0.1,0-0.2-0.1-0.3-0.1C75.3,61.2,75.8,60.5,76.3,59.8 M73.9,63.1C73.9,63.2,73.9,63.2,73.9,63.1
	c-0.2,0.3-0.4,0.6-0.6,0.8C73.5,63.7,73.7,63.4,73.9,63.1 M79.4,145.3c8.7,0,15.8,7,15.8,15.7c0,8.7-7,15.8-15.7,15.8
	c-8.7,0-15.8-7-15.8-15.7C63.7,152.4,70.7,145.3,79.4,145.3 M58.1,70.1c-0.3-2.2-0.4-4.4-0.3-6.4c0.8,1.1,1.7,2.2,2.5,3.4
	C59.5,68.1,58.8,69.1,58.1,70.1 M61,221.9l160.5-0.3C221.6,310.1,61.1,309.5,61,221.9 M206.2,176.5c-8.7,0-15.8-7-15.8-15.7
	c0-8.7,7-15.8,15.7-15.8c8.7,0,15.8,7,15.8,15.7C221.9,169.5,214.9,176.5,206.2,176.5 M222.4,78.3c0.4-1.4,0.9-3,1.5-4.8
	c0.9,2.5,1.5,4.8,1.5,6.4C224.6,79.4,223.6,78.8,222.4,78.3 M229.8,67.3c0.2-0.1,0.5-0.3,0.7-0.4c-0.6-0.3-1.2-0.4-1.8-0.5
	c-0.2-0.2-0.5-0.3-0.8-0.5c0.7-1.1,1.6-2.3,2.5-3.4c1.1,1.9,2.1,4,2.9,6.2c0.1,0.8,0.2,1.6,0.2,2.4
	C232.5,69.8,231.3,68.5,229.8,67.3 M251.9,81L251.9,81C251.8,81,251.8,80.9,251.9,81L251.9,81C251.9,81,251.9,81,251.9,81
	 M251.4,69.7c0.3-4.4,1-9.1,2.2-13.4C254,61.3,252.9,65.9,251.4,69.7"/>
</svg>
