<?xml version="1.0" encoding="utf-8"?>
<!-- Generator: Adobe Illustrator 18.1.0, SVG Export Plug-In . SVG Version: 6.00 Build 0)  -->
<!DOCTYPE svg PUBLIC "-//W3C//DTD SVG 1.1//EN" "http://www.w3.org/Graphics/SVG/1.1/DTD/svg11.dtd">
<svg version="1.1" id="Layer_1" xmlns="http://www.w3.org/2000/svg" xmlns:xlink="http://www.w3.org/1999/xlink" x="0px" y="0px"
	 viewBox="0 0 520 389" enable-background="new 0 0 520 389" xml:space="preserve">
<g>
	<rect x="165.9" y="81.6" fill="#ECC7A5" width="226" height="302"/>
	<path fill="#9E5C26" d="M388.9,84.6v296h-220v-296H388.9 M394.9,78.6h-232v308h232V78.6L394.9,78.6z"/>
</g>
<rect x="162.9" y="386.6" fill="#382216" width="232" height="2"/>
<g>
	<path fill="#F1F2F2" d="M229.6,222.4v98.3h97v-98.3l8.7,15.3l31.3-17.7l-26.3-58.3c0,0-23-12-43.7-18l-16.7,23.2l-20-23.2
		c0,0-27.7,8.3-43.7,19l-25,57l31,19.3L229.6,222.4z"/>
	<polyline fill="#231F20" points="222.3,239.1 226.7,229.1 195.3,210.6 191.3,219.8 222.3,239.1 	"/>
	<polyline fill="#231F20" points="330.4,229 362.4,210.7 366.6,219.9 335.3,237.6 329.3,227.2 	"/>
	<polygon fill="#231F20" points="326.6,222.4 326.6,199.3 341.9,222.4 330.5,229.3 	"/>
	<polygon fill="#231F20" points="340.3,161.8 362.4,210.7 351.3,217 329.3,175.3 	"/>
	<polygon fill="#231F20" points="229.6,222.5 229.6,199.4 214.8,222.1 226.7,229.1 	"/>
	<polygon fill="#231F20" points="216.3,162.8 195.3,210.6 205.6,216.7 226.9,175.4 	"/>
	<polygon fill="#231F20" points="281.1,165.3 293.3,171.7 305.5,146.6 296.6,143.8 	"/>
	<polygon fill="#231F20" points="278.2,164.9 263.4,171.7 251.2,146.6 260.1,143.8 	"/>
	<polygon opacity="0.35" fill="#231F20" points="281.1,165.3 293.3,171.7 305.5,146.6 294.4,177.4 	"/>
	<polygon opacity="0.35" fill="#231F20" points="278.2,164.9 263.4,171.7 251.2,146.6 263.4,177.4 	"/>
	<polygon fill="#231F20" points="275.5,161.8 279.9,166.9 284.8,160.4 285.8,162 279.8,169.3 275.5,164.4 	"/>
	<g>
		<defs>
			<path id="SVGID_1_" d="M229.6,222.4v98.3h97v-98.3l8.7,15.3l31.3-17.7l-26.3-58.3c0,0-23-12-43.7-18l-16.7,23.2l-20-23.2
				c0,0-27.7,8.3-43.7,19l-25,57l31,19.3L229.6,222.4z"/>
		</defs>
		<clipPath id="SVGID_2_">
			<use xlink:href="#SVGID_1_"  overflow="visible"/>
		</clipPath>
		<g clip-path="url(#SVGID_2_)">
			<rect x="269.7" y="152.6" fill="#231F20" width="18.3" height="168.2"/>
			<rect x="237.9" y="140.3" fill="#231F20" width="18.3" height="180.4"/>
			<rect x="301.5" y="146.6" fill="#231F20" width="18.3" height="174"/>
		</g>
	</g>
	<rect x="243.3" y="202.9" fill="#231F20" width="72" height="26.3"/>
	<path fill="#006838" d="M269.7,189.7H288c0,0-0.5,20.9-9.2,20.9S269.7,189.7,269.7,189.7z"/>
	<g>
		<defs>
			<path id="SVGID_3_" d="M269.7,189.7H288c0,0-0.5,20.9-9.2,20.9S269.7,189.7,269.7,189.7z"/>
		</defs>
		<clipPath id="SVGID_4_">
			<use xlink:href="#SVGID_3_"  overflow="visible"/>
		</clipPath>
		<g clip-path="url(#SVGID_4_)">
			<rect x="276" y="187.7" fill="#FFFFFF" width="5.9" height="27.3"/>
			<rect x="281.9" y="187.2" fill="#ED1C24" width="6.1" height="27.3"/>
		</g>
	</g>
	<ellipse fill="#FFFFFF" stroke="#231F20" stroke-width="2" stroke-miterlimit="10" cx="311.3" cy="185.6" rx="9.6" ry="12.7"/>
	<path fill="#F9ED32" d="M302.9,187.7c0,0,7.6-3.5,17-0.1c0,0,0.1-0.3,0-1.9c0,0-8.7-3.9-17.1,0C302.7,185.6,302.7,187,302.9,187.7z
		"/>
	<path opacity="0.13" fill="#231F20" d="M279.9,166.9l-20-23.2c0,0-27.7,8.3-43.7,19l-25,57l31,19.3l7.3-16.7v98.3h48.8"/>
</g>
<linearGradient id="SVGID_5_" gradientUnits="userSpaceOnUse" x1="892.8612" y1="1541.3209" x2="892.8612" y2="1746.073" gradientTransform="matrix(0.9683 -0.2499 0.2499 0.9683 -1179.8436 -1306.7714)">
	<stop  offset="0" style="stop-color:#FFFFFF"/>
	<stop  offset="1" style="stop-color:#FFFFFF;stop-opacity:0"/>
</linearGradient>
<path fill="url(#SVGID_5_)" d="M201.6,167.1c25.1,97.5,12.4,185-28.5,195.6S78.6,302.8,53.5,205.3S41.1,20.3,82,9.7
	S176.5,69.6,201.6,167.1z"/>
<linearGradient id="SVGID_6_" gradientUnits="userSpaceOnUse" x1="-1001.0368" y1="-1702.3346" x2="-1001.0368" y2="-1497.5824" gradientTransform="matrix(0.959 0.2834 -0.2834 0.959 972.9218 1885.9211)">
	<stop  offset="0" style="stop-color:#FFFFFF"/>
	<stop  offset="1" style="stop-color:#FFFFFF;stop-opacity:0"/>
</linearGradient>
<path fill="url(#SVGID_6_)" d="M503.2,212.9c-28.5,96.5-84.5,165.1-125,153.1s-50.2-99.9-21.7-196.4S441,4.5,481.5,16.4
	S531.8,116.4,503.2,212.9z"/>
<linearGradient id="SVGID_7_" gradientUnits="userSpaceOnUse" x1="-1236.5875" y1="-1872.3612" x2="-1236.5875" y2="-1667.6091" gradientTransform="matrix(0.9495 0.3139 -0.3139 0.9495 1029.9365 2121.2751)">
	<stop  offset="0" style="stop-color:#FFFFFF"/>
	<stop  offset="1" style="stop-color:#FFFFFF;stop-opacity:0"/>
</linearGradient>
<path fill="url(#SVGID_7_)" d="M443.7,198.7c-31.6,95.6-89.7,162.3-129.8,149c-40.1-13.3-47-101.5-15.4-197s89.7-162.3,129.8-149
	S475.3,103.2,443.7,198.7z"/>
<linearGradient id="SVGID_8_" gradientUnits="userSpaceOnUse" x1="1299.8414" y1="3217.0581" x2="1299.8414" y2="3421.8103" gradientTransform="matrix(0.8933 -0.4494 0.4494 0.8933 -2507.2478 -2329.3232)">
	<stop  offset="0" style="stop-color:#FFFFFF"/>
	<stop  offset="1" style="stop-color:#FFFFFF;stop-opacity:0"/>
</linearGradient>
<path fill="url(#SVGID_8_)" d="M271.9,132.3c45.2,89.9,51.3,178.2,13.6,197.2c-37.7,19-105-38.5-150.2-128.4S83.9,22.9,121.6,3.9
	S226.7,42.4,271.9,132.3z"/>
<g opacity="0.24">
	<linearGradient id="SVGID_9_" gradientUnits="userSpaceOnUse" x1="162.8877" y1="227.6413" x2="394.8877" y2="227.6413">
		<stop  offset="0" style="stop-color:#FFFFFF"/>
		<stop  offset="1" style="stop-color:#FFFFFF;stop-opacity:0"/>
	</linearGradient>
	<polygon fill="url(#SVGID_9_)" points="162.9,376.6 162.9,78.6 394.9,78.6 	"/>
</g>
<path fill="#00568B" d="M63.1,369v18.5c0,0,0,2.8,29.1,2.8s29.1-2.8,29.1-2.8V369"/>
<path fill="#CE9402" d="M63.1,365.1v18.5c0,0,0,3.1,29.1,3.1s29.1-3.1,29.1-3.1v-18.5"/>
<path fill="#D69E00" d="M121.2,365.1c0,1.3-13,3.9-29.1,3.9s-29.1-2.6-29.1-3.9s13-2.4,29.1-2.4S121.2,363.7,121.2,365.1z"/>
<path fill="#CE9402" d="M92.1,295.9l-12.1,7.3l5.3,61.9c0,0,5.3,0.4,6.8,0.4c1.6,0,7.6-0.4,7.6-0.4l4.4-61.9L92.1,295.9z"/>
<path opacity="8.000000e-02" fill="#00101F" d="M92.1,295.9l12.1,7.3l-4.4,61.9c0,0-6.1,0.4-7.6,0.4V295.9"/>
<path fill="#D69E00" d="M92.1,253.6c-31.6-0.9-44.9,8.8-45.8,8.6l33.8,40.9c0,0,6-2.5,12.1-2.5c6.6,0,12.1,2.5,12.1,2.5l33.8-40.9
	C137,262.5,123.7,252.7,92.1,253.6z"/>
<path opacity="6.000000e-02" fill="#00101F" d="M92.1,300.6c6.6,0,12.1,2.5,12.1,2.5l33.8-40.9c-0.9,0.2-14.2-9.5-45.8-8.6V300.6z"
	/>
<path fill="#C98C02" d="M101,355c0,0-3.5,0.4-8.9,0.4c-5.4,0-8.9-0.4-8.9-0.4c-1.4,0-2.5-1-2.5-2.3v-13.4c0-1.3,1.1-2.3,2.5-2.3H101
	c1.4,0,2.5,1,2.5,2.3v13.4C103.5,353.9,102.3,355,101,355z"/>
<path opacity="8.000000e-02" fill="#00101F" d="M92.1,355.4c5.3,0,8.9-0.4,8.9-0.4c1.4,0,2.5-1,2.5-2.3v-13.4c0-1.3-1.1-2.3-2.5-2.3
	h-8.9V355.4z"/>
<g>
	
		<linearGradient id="SVGID_10_" gradientUnits="userSpaceOnUse" x1="-14849.0293" y1="6043.2954" x2="-14849.0293" y2="6151.7266" gradientTransform="matrix(-0.8009 0.256 -0.3045 -0.9525 -9971.293 9969.5947)">
		<stop  offset="0" style="stop-color:#FFFFFF"/>
		<stop  offset="1" style="stop-color:#FFFFFF;stop-opacity:0"/>
	</linearGradient>
	<path fill="url(#SVGID_10_)" d="M11.3,305.7c-16.2-50.8-14.9-96.6,3.1-102.3c17.9-5.7,45.6,30.8,61.8,81.6s14.9,96.6-3.1,102.3
		C55.2,393,27.6,356.5,11.3,305.7z"/>
	
		<linearGradient id="SVGID_11_" gradientUnits="userSpaceOnUse" x1="-10856.707" y1="10618.9512" x2="-10856.707" y2="10727.3828" gradientTransform="matrix(-0.7473 -0.3853 0.4582 -0.8888 -12931.6348 5659.5161)">
		<stop  offset="0" style="stop-color:#FFFFFF"/>
		<stop  offset="1" style="stop-color:#FFFFFF;stop-opacity:0"/>
	</linearGradient>
	<path fill="url(#SVGID_11_)" d="M73.7,279.7c24.4-47.4,57.8-78.8,74.5-70.2s10.5,54-13.9,101.4s-57.8,78.8-74.5,70.2
		S49.3,327.1,73.7,279.7z"/>
</g>
<g>
	<rect x="35.7" y="380.5" fill="#9E5C26" width="107.4" height="6.9"/>
	<rect x="35.6" y="386.6" fill="#382216" width="107.5" height="2"/>
	<polygon fill="#7F4921" points="53.1,387.4 35.7,387.4 35.7,380.5 73.1,380.5 	"/>
</g>
</svg>
