<?xml version="1.0" encoding="utf-8"?>
<!-- Generator: Adobe Illustrator 17.1.0, SVG Export Plug-In . SVG Version: 6.00 Build 0)  -->
<!DOCTYPE svg PUBLIC "-//W3C//DTD SVG 1.1//EN" "http://www.w3.org/Graphics/SVG/1.1/DTD/svg11.dtd">
<svg version="1.1" xmlns="http://www.w3.org/2000/svg" xmlns:xlink="http://www.w3.org/1999/xlink" x="0px" y="0px"
	 viewBox="0 0 720 720" enable-background="new 0 0 720 720" xml:space="preserve">
<g id="cabeza">
</g>
<g id="Brazos">
</g>
<g id="torso">
</g>
<g id="piernas">
	<g>
		<path fill="none" stroke="#FCC792" stroke-width="22" stroke-linecap="round" stroke-miterlimit="10" d="M638.6,194.2
			c0,0,104.9,80.4,66.1,201.7"/>
		<path fill="none" stroke="#FCC792" stroke-width="22" stroke-linecap="round" stroke-miterlimit="10" d="M487.5,195.9
			c0,0-110.4,87.4-69.5,219"/>
		<rect x="508" y="81" fill="#FCC792" width="88" height="131"/>
		<ellipse fill="#FCC792" cx="552.1" cy="82.7" rx="45" ry="42.1"/>
		<g>
			<path fill="#BE1E2D" d="M632,179c0,0-0.8,0-31.3,0c-0.6,0-1.3,0-1.9,0L570,204.4L512.5,179c-1.6,0-3.2,0-4.7,0
				c-10,0-19.7,0-19.7,0c-6.5,0-5.6,5.8-5.6,14.6l30.2,153.4l-10.9,70.7c0,8.9,7.5,56.2,13.9,56.2h108c6.5,0,15-47.3,15-56.1
				l-12.2-77.7l16.8-146.7C643.4,184.5,638.5,179,632,179z"/>
		</g>
		<rect x="502" y="419" fill="#808285" width="52" height="284"/>
		<rect x="584" y="419" fill="#808285" width="53" height="284"/>
		<polygon fill="#808285" points="637,479.5 501.8,479.5 502.4,419.1 639.1,419.1 		"/>
		<path fill="#C1910A" d="M507.1,88.3c0,0,15.1-50.3,53.6-25.6c0,0,11.1-19.5,29.7-1.9c0,0-1.3-20.1-38.4-20.1
			C515,40.6,503.3,69.7,507.1,88.3z"/>
		<path fill="#C1910A" d="M510.6,73.1c0,0,0-28.4-39.8-19.8c-36.3,7.8,19.8,74.1-29.3,72.6c0,0,36.6,10.9,34.5-18.3
			c-2-29.2-5.9-40.8,31.9-28.1"/>
		<ellipse fill="#BE1E2D" cx="617.8" cy="241.2" rx="30" ry="37.9"/>
	</g>
	<rect x="103" y="86.4" fill="#FCC792" width="89.7" height="125"/>
	<ellipse fill="#FCC792" cx="147.8" cy="86.5" rx="44.8" ry="42"/>
	<path fill="none" stroke="#FFFFFF" stroke-width="22" stroke-linecap="round" stroke-miterlimit="10" d="M239.2,199.3
		c0,0,31.8,131.3,123.5,193.4"/>
	<g>
		<path fill="#FCC792" d="M249.9,181c0,0-25.2,0-55.7,0c-0.6,0-1.3,0-1.9,0l-28.8,25.3L106.2,181c-1.6,0-3.2,0-4.7,0
			c-10,0-40,0-40,0c-6.4,0-11.6,6.5-11.6,15.3l48,268.3c0,8.9,5.2,15.6,11.6,15.6h107.7c6.4,0,11.3-6.7,11.3-15.6l32.7-268.3
			C261.2,187.5,256.3,181,249.9,181z"/>
	</g>
	<rect x="94.9" y="423.4" fill="#FCC792" width="55" height="278.3"/>
	<rect x="176.4" y="423.4" fill="#FCC792" width="55" height="278.3"/>
	<path fill="none" stroke="#FFFFFF" stroke-width="22" stroke-linecap="round" stroke-miterlimit="10" d="M71.7,199.3
		c0,0-104.9,76.4-12.1,221.9"/>
	<path fill="#FFFFFF" d="M101.5,181l66.7,117.9L192.3,181h57.6c0,0,14.1-1.7,11.3,18.3l-29.8,246.4l12.5,144.8H83.6l11.2-142.6
		l-45-244.6c0,0-6.9-17.3,11.6-22.3H101.5z"/>
	<path fill="none" stroke="#FCC792" stroke-width="22" stroke-linecap="round" stroke-miterlimit="10" d="M357.6,386.9
		c3,2.6,6,5.3,9,8.2"/>
	<path fill="none" stroke="#FCC792" stroke-width="22" stroke-linecap="round" stroke-miterlimit="10" d="M57.9,413.6
		c0.9,3.7,2,7.5,3.2,11.3"/>
	<polygon fill="#D1D3D4" points="94.9,447.9 231.4,447.9 234.2,417.7 88.6,417.7 	"/>
	<polyline fill="#D1D3D4" points="225.5,417.7 110.8,181 85.1,181 203.9,417.7 	"/>
	<polyline fill="#D1D3D4" points="166.7,299.3 192.3,181 212.2,181 176.4,316.3 	"/>
	<rect x="145.1" y="417.7" fill="#D1D3D4" width="16.3" height="157.1"/>
	<rect x="180.4" y="417.7" fill="#D1D3D4" width="15.7" height="107.5"/>
	<rect x="155.1" y="417.7" fill="#FFFFFF" width="31.5" height="31.8"/>
	<path fill="#3C2415" d="M151.7,120.7c0,0,27.1-1.5,31.7,14.1c0,0-10.3-4.5-28.3-3.4C155.1,131.4,149.8,124.8,151.7,120.7z"/>
	<path fill="#3C2415" d="M189.5,103.7c0,0-1.5,7.9,6.6,9.2l-3.4-9.2l11.5,4.6l-11.5-10.1l9.7,3.1l-9.2-8.2c0,0,9.2-15.4,1.1-34.1
		c0,0,9.2,2,9.9,10.2c0,0-5.1-32.4-37.5-32.1c0,0-13.2-20.8-53.8-4.3c0,0,10.7-3.8,18.4-1.9c0,0-23.7,0.2-32.1,18.6
		c0,0,6.2-8.1,16.3-6.8c0,0-15.3,1.1-20.5,19.6l6.2-1.4c0,0-4.7,13.3-1.5,32.1L95,98.5l7.3-1.1l-3.7,7.6l4.3-3.4l-2.5,8.2
		c0,0,9.6-5.8,11-14.7c0,0-3.3-24.9,11.4-33.8c0,0,0.8,7.3-4,9.2c0,0,12.5-2.4,16.2-12.3c0,0-4.4,18.4-17.3,19.5
		c0,0,16.9-0.1,31.8-22.2c0,0-8.3,21.5-21.9,25.6c0,0,21.7-1.4,34.2-23.9c0,0,17.4-4.8,20.3,4.8C185.1,71.6,180.7,98.5,189.5,103.7z
		"/>
	<path fill="#3C2415" d="M192.7,117.3v33c0,0,3.4-8.6,3.4-19.3c0,0,2.5,3.8,2.2,11.8c0,0,5.4-7.7,1.7-18c0,0,4.2,9.3,4.2,10
		c0,0,4.9-18.6-11.5-23.2V117.3z"/>
	<path fill="#3C2415" d="M103,107.8v41.1c0,0-3.9-8.7-4.7-19.3l-3,7.4C95.3,136.9,83.2,120.7,103,107.8z"/>
	<path fill="#544943" d="M189.5,103.7l3.5,6.1l-1.7-9l5.1,2.7l-5-7l5,1.9l-5.3-5.1l3.3-13.8l-5.7,12.3l-2-5.3l-1.9,8.2
		C184.6,94.6,185.5,101.6,189.5,103.7z"/>
	<path fill="#544943" d="M100.7,109.2c0,0,8.4-3.1,10.8-14l-4.4-10.9l2,9l-8.4-10.6l5.4,11.9l-4.5-5.8l2.2,5.8l-4.7,10l4.7-3
		L100.7,109.2z"/>
	<path fill="#3C2415" d="M152,120.7c0,0-27.1-1.5-31.7,14.1c0,0,10.3-4.5,28.3-3.4C148.6,131.4,153.8,124.8,152,120.7z"/>
	<path fill="#3C2415" d="M195.3,95.9c0,0,20.7-28.4-2.7-39.9c0,0,4.7,25.4,0.7,33.6C193.3,89.7,191.4,93.2,195.3,95.9z"/>
	<path fill="#3C2415" d="M101.8,94.6c0,0-4.9-37.6,3.5-44.4c0,0-23.2,8.1-9.1,48.1l2.9,6.3l4.7-10H101.8z"/>
	<g>
		<path fill-rule="evenodd" clip-rule="evenodd" fill="#0066A2" d="M198.6,273.1c0-11.2,9.7-20.2,21.7-20.2c12,0,21.7,9,21.7,20.2
			c0,11.2-9.7,20.2-21.7,20.2C208.3,293.3,198.6,284.3,198.6,273.1L198.6,273.1z"/>
		<path fill-rule="evenodd" clip-rule="evenodd" fill="#FFFFFF" d="M207.3,273.1c0-6.7,5.8-12.1,13-12.1c7.2,0,13,5.4,13,12.1
			c0,6.7-5.8,12.1-13,12.1C213.1,285.3,207.3,279.8,207.3,273.1L207.3,273.1z"/>
		<path fill-rule="evenodd" clip-rule="evenodd" fill="#EC1C24" d="M213.9,262.6v21.1c-1-0.5-1.9-1.1-2.6-1.8v-17.4
			C212,263.7,212.9,263.1,213.9,262.6L213.9,262.6z"/>
		<path fill-rule="evenodd" clip-rule="evenodd" fill="#EC1C24" d="M216.8,262.1h2.6v23.2c-0.9-0.1-1.8-0.2-2.6-0.4V262.1
			L216.8,262.1z"/>
		<path fill-rule="evenodd" clip-rule="evenodd" fill="#EC1C24" d="M221.8,262.1h2.6v22.5c-0.8,0.3-1.7,0.5-2.6,0.6V262.1
			L221.8,262.1z"/>
		<path fill-rule="evenodd" clip-rule="evenodd" fill="#EC1C24" d="M229.8,264.8v16.7c-0.8,0.8-1.7,1.4-2.6,2v-20.7
			C228.1,263.4,229,264,229.8,264.8L229.8,264.8z"/>
		<path fill-rule="evenodd" clip-rule="evenodd" fill="#EC1C24" d="M232.6,277.3v-8.4c0.5,1.3,0.8,2.7,0.8,4.2
			C233.4,274.6,233.1,276,232.6,277.3L232.6,277.3z"/>
		<path fill-rule="evenodd" clip-rule="evenodd" fill="#EC1C24" d="M208.6,267.8v10.6c-0.8-1.6-1.3-3.4-1.3-5.3
			C207.3,271.2,207.8,269.4,208.6,267.8L208.6,267.8z"/>
		<path fill="none" stroke="#FFFFFF" stroke-width="0.25" stroke-miterlimit="2.6131" d="M200.3,273.1c0-10.3,8.9-18.6,20-18.6
			c11,0,20,8.3,20,18.6c0,10.3-8.9,18.6-20,18.6C209.3,291.7,200.3,283.4,200.3,273.1L200.3,273.1z"/>
		<path fill="none" stroke="#FFFFFF" stroke-width="0.25" stroke-miterlimit="2.6131" d="M206.1,273.1c0-7.3,6.4-13.2,14.2-13.2
			c7.8,0,14.2,5.9,14.2,13.2c0,7.3-6.4,13.2-14.2,13.2C212.5,286.4,206.1,280.4,206.1,273.1L206.1,273.1z"/>
		<path fill-rule="evenodd" clip-rule="evenodd" fill="#F8C121" d="M230.1,252.4c0,0,2.8,0.1,2.1,2.7c-0.4,1.3-1.6,1.7-1.6,1.7
			s0.2,2.1-1.8,2.1c0,0,0.9-0.9,0.6-2c0,0-1.3,0-2.1-0.8c-0.8-0.9-1-1.2-1-1.2s-0.5,0.2-1,0.9c0,0-0.1-1.8-0.1-1.8s-0.7,0.1-1,0.7
			c0,0-0.8-1.6,0.6-2.4c0,0-0.8,0-1.1-1.5c0,0,0.7,0.4,1.9,0.1c1.2-0.3,3.1-1.4,5.2-1.3c2.1,0.1,4.4,1.6,4.4,3.9
			c0.1,2.3-0.8,3.5-2,5.6c-1.2,2.1-2.2,3.6-2.3,4.3c-0.1,0.7,0.2,1.7-0.2,2.9c0,0-0.5-0.4-0.4-1.4c0,0-0.3,0.6-0.2,1.3
			c0.1,1.1-0.2,1.4-0.2,1.4s-0.3,0.2-0.5-0.9c0-0.1-0.1,0.5,0,1.4c0.2,0.9-0.6,1.8-0.6,1.8s-0.8-1.1-0.9-2.6
			c-0.1-1.8,0.6-3.2,2.4-6.2c1.8-3,3-4.7,3.2-6c0.2-1.3-0.2-3.7-2.8-3.9c-2.6-0.2-3,1.4-3.1,1.9c-0.1,0.5-0.1,1.5,1.1,1.5
			c1.2,0,1.4-0.8,1.4-1.3C230,252.5,230.1,252.4,230.1,252.4L230.1,252.4z"/>
		<path fill="#0066A2" d="M230.1,252.4c0,0,2.8,0.1,2.1,2.7c-0.4,1.3-1.6,1.7-1.6,1.7s0.2,2.1-1.8,2.1c0,0,0.9-0.9,0.6-2
			c0,0-1.3,0-2.1-0.8c-0.8-0.9-1-1.2-1-1.2s-0.5,0.2-1,0.9l-0.1-1.8c0,0-0.7,0.1-1,0.7c0,0-0.8-1.6,0.6-2.4c0,0-0.8,0-1.1-1.5
			c0,0,0.7,0.4,1.9,0.1c1.2-0.3,3.1-1.4,5.2-1.3c2.1,0.1,4.4,1.6,4.4,3.9c0.1,2.3-0.8,3.5-2,5.6c-1.2,2.1-2.2,3.6-2.3,4.3
			c-0.1,0.7,0.2,1.7-0.2,2.9c0,0-0.5-0.4-0.4-1.4c0,0-0.3,0.6-0.2,1.3c0.1,1.1-0.2,1.4-0.2,1.4s-0.3,0.2-0.5-0.9
			c0-0.1-0.1,0.5,0,1.4c0.2,0.9-0.6,1.8-0.6,1.8s-0.8-1.1-0.9-2.6c-0.1-1.8,0.6-3.2,2.4-6.2c1.8-3,3-4.7,3.2-6
			c0.2-1.3-0.2-3.7-2.8-3.9c-2.6-0.2-3,1.4-3.1,1.9c-0.1,0.5-0.1,1.5,1.1,1.5c1.2,0,1.4-0.8,1.4-1.3
			C230,252.5,230.1,252.4,230.1,252.4L230.1,252.4z"/>
		<path fill-rule="evenodd" clip-rule="evenodd" fill="#F8C121" d="M210.6,252.4c0,0-2.8,0.1-2.1,2.7c0.4,1.3,1.6,1.7,1.6,1.7
			s-0.2,2.1,1.8,2.1c0,0-0.9-0.9-0.6-2c0,0,1.3,0,2.1-0.8c0.8-0.9,1-1.2,1-1.2s0.5,0.2,1,0.9c0,0,0.1-1.8,0.1-1.8s0.7,0.1,1,0.7
			c0,0,0.8-1.6-0.6-2.4c0,0,0.8,0,1.1-1.5c0,0-0.7,0.4-1.9,0.1c-1.2-0.3-3.1-1.4-5.2-1.3c-2.1,0.1-4.4,1.6-4.4,3.9
			c-0.1,2.3,0.8,3.5,2,5.6c1.2,2.1,2.2,3.6,2.3,4.3c0.1,0.7-0.2,1.7,0.2,2.9c0,0,0.5-0.4,0.4-1.4c0,0,0.3,0.6,0.2,1.3
			c-0.1,1.1,0.2,1.4,0.2,1.4s0.3,0.2,0.5-0.9c0-0.1,0.1,0.5,0,1.4c-0.2,0.9,0.6,1.8,0.6,1.8s0.8-1.1,0.9-2.6
			c0.1-1.8-0.6-3.2-2.4-6.2c-1.8-3-3-4.7-3.2-6c-0.2-1.3,0.2-3.7,2.8-3.9c2.6-0.2,3,1.4,3.1,1.9c0.1,0.5,0.1,1.5-1.1,1.5
			c-1.2,0-1.4-0.8-1.4-1.3C210.6,252.5,210.6,252.4,210.6,252.4L210.6,252.4z"/>
		<path fill="#0066A2" d="M210.6,252.4c0,0-2.8,0.1-2.1,2.7c0.4,1.3,1.6,1.7,1.6,1.7s-0.2,2.1,1.8,2.1c0,0-0.9-0.9-0.6-2
			c0,0,1.3,0,2.1-0.8c0.8-0.9,1-1.2,1-1.2s0.5,0.2,1,0.9l0.1-1.8c0,0,0.7,0.1,1,0.7c0,0,0.8-1.6-0.6-2.4c0,0,0.8,0,1.1-1.5
			c0,0-0.7,0.4-1.9,0.1c-1.2-0.3-3.1-1.4-5.2-1.3c-2.1,0.1-4.4,1.6-4.4,3.9c-0.1,2.3,0.8,3.5,2,5.6c1.2,2.1,2.2,3.6,2.3,4.3
			c0.1,0.7-0.2,1.7,0.2,2.9c0,0,0.5-0.4,0.4-1.4c0,0,0.3,0.6,0.2,1.3c-0.1,1.1,0.2,1.4,0.2,1.4s0.3,0.2,0.5-0.9c0-0.1,0.1,0.5,0,1.4
			c-0.2,0.9,0.6,1.8,0.6,1.8s0.8-1.1,0.9-2.6c0.1-1.8-0.6-3.2-2.4-6.2c-1.8-3-3-4.7-3.2-6c-0.2-1.3,0.2-3.7,2.8-3.9
			c2.6-0.2,3,1.4,3.1,1.9c0.1,0.5,0.1,1.5-1.1,1.5c-1.2,0-1.4-0.8-1.4-1.3C210.6,252.5,210.6,252.4,210.6,252.4L210.6,252.4z"/>
		
			<path fill-rule="evenodd" clip-rule="evenodd" fill="#F6C321" stroke="#2E3191" stroke-width="0.25" stroke-miterlimit="2.6131" d="
			M220.3,257.3h7.7c0,0-0.5,0.8-0.5,1.9c0,1.1,0,7.3,0,7.3v5.3c0,0,0.1,1.1-0.6,1.6c-0.7,0.5-3.3,1.6-4.4,2.4
			c-1.1,0.8-2.2,1.1-2.3,1.9c-0.1-0.8-1.2-1.1-2.3-1.9c-1.1-0.8-3.7-1.9-4.4-2.4c-0.7-0.5-0.6-1.6-0.6-1.6v-5.3c0,0,0-6.1,0-7.3
			c0-1.1-0.5-1.9-0.5-1.9H220.3L220.3,257.3z"/>
		<path fill-rule="evenodd" clip-rule="evenodd" fill="#0066A2" d="M220.3,259.4h4.9v11.8c0,0,0.1,1-0.5,1.4
			c-0.6,0.3-4.5,2.1-4.5,2.1s-3.8-1.7-4.5-2.1c-0.6-0.3-0.5-1.4-0.5-1.4v-11.8H220.3L220.3,259.4z"/>
		<polygon fill-rule="evenodd" clip-rule="evenodd" fill="#EC1C24" points="225.8,259.5 226.3,258.8 225.8,258 226.3,258 
			226.6,258.5 226.8,258 227.3,258 226.8,258.7 227.4,259.5 226.8,259.5 226.6,259.1 226.3,259.5 225.8,259.5 		"/>
		<polygon fill-rule="evenodd" clip-rule="evenodd" fill="#EC1C24" points="225.8,266.6 226.3,265.9 225.8,265.1 226.3,265.1 
			226.6,265.6 226.8,265.1 227.3,265.1 226.8,265.9 227.4,266.6 226.8,266.6 226.6,266.2 226.3,266.6 225.8,266.6 		"/>
		<polygon fill-rule="evenodd" clip-rule="evenodd" fill="#EC1C24" points="225.5,272.7 226.1,271.9 225.6,271.2 226.1,271.2 
			226.3,271.6 226.6,271.2 227.1,271.2 226.6,271.9 227.1,272.7 226.6,272.7 226.3,272.2 226.1,272.7 225.5,272.7 		"/>
		<polygon fill-rule="evenodd" clip-rule="evenodd" fill="#EC1C24" points="214.9,259.5 214.3,258.8 214.8,258 214.3,258 
			214.1,258.5 213.8,258 213.3,258 213.8,258.7 213.3,259.5 213.8,259.5 214.1,259.1 214.3,259.5 214.9,259.5 		"/>
		<polygon fill-rule="evenodd" clip-rule="evenodd" fill="#EC1C24" points="214.9,266.6 214.3,265.9 214.8,265.1 214.3,265.1 
			214.1,265.6 213.8,265.1 213.3,265.1 213.8,265.9 213.3,266.6 213.8,266.6 214.1,266.2 214.3,266.6 214.9,266.6 		"/>
		<polygon fill-rule="evenodd" clip-rule="evenodd" fill="#EC1C24" points="221.1,276.3 220.6,275.6 221.1,274.9 220.6,274.9 
			220.3,275.3 220.1,274.9 219.6,274.9 220.1,275.6 219.5,276.3 220.1,276.3 220.3,275.9 220.6,276.3 221.1,276.3 		"/>
		<polygon fill-rule="evenodd" clip-rule="evenodd" fill="#EC1C24" points="215.1,272.6 214.6,271.9 215.1,271.1 214.6,271.1 
			214.3,271.6 214,271.1 213.5,271.1 214.1,271.9 213.5,272.6 214,272.6 214.3,272.2 214.6,272.6 215.1,272.6 		"/>
		<path fill-rule="evenodd" clip-rule="evenodd" fill="#EC1C24" d="M220.3,265.5h0.4c0,0,0,3.6,0,4.1c0,0.6,0.3,2.1,0.5,2.3h-0.8
			h-0.8c0.2-0.3,0.5-1.8,0.5-2.3c0-0.6,0-4.1,0-4.1H220.3L220.3,265.5z"/>
		<path fill-rule="evenodd" clip-rule="evenodd" fill="#F6C321" d="M221,267.3c0,0,0.6,0.6,0.7,0.7c0.1,0.1,0.5-0.1,0.5-0.2
			c0.1-0.1,0-0.2-0.1-0.4c-0.1-0.2,0.1-0.2,0.2-0.1c0.2,0.1,0.2-0.1,0.2-0.2c0-0.1,0.1-0.4-0.5-0.2c0,0-0.3-0.2-0.1-0.3
			c0.2-0.1,0.6-0.2,1.1-0.4c0.2-0.1,0.7,0.4,0.7,0.4s0,0.4,0.1,0.6c0.1,0.2,0.1,0.3,0,0.5c-0.1,0.2-0.1,0.3-0.2,0.5
			c0,0.2-0.2,0.4-0.2,0.4s-0.1,0.2-0.1,0.4c0,0.2,0.4,0.4,0.5,0.4c0.1,0.1,0.4-0.1,0.4-0.5c0-0.3,0-0.8,0-1.3c0-0.5,0-0.8,0.2-1
			c0.2-0.2,0.4-0.1,0.2,0.3c-0.2,0.4-0.3,0.3-0.3,0.6c0,0.3,0.1,0.9,0.1,1.3c0.1,0.4-0.1,0.8-0.2,0.9c-0.1,0.1-0.1,0.7-0.1,0.9
			c0,0.2,0.1,0.3,0,0.5c-0.1,0.2-0.2,0.5-0.4,0.6c-0.1,0.1-0.7,0.2-0.7,0.2s-0.1-0.3,0.1-0.3c0.2,0,0.3-0.1,0.4-0.2
			c0.1-0.1,0.3-0.2,0.1-0.4c-0.1-0.2-0.5-0.3-0.7-0.4c-0.2-0.1-0.5-0.1-0.8,0.1c-0.2,0.2-0.3,0.4-0.5,0.2c-0.2-0.1-0.8-0.5-0.8-0.5
			s0-0.5,0-0.6c0-0.1,0.2-0.2,0.2-0.1c0,0.1,0,0.3,0.1,0.4c0.1,0.1,0.8,0.4,0.8,0.4s0.3-0.1,0.5-0.2c0.2-0.2,0.5-0.3,0.5-0.4
			c0-0.1-0.1-0.2-0.2-0.3c-0.2-0.2-0.5-0.7-0.5-0.7s-0.2,0.2-0.3,0.2c-0.1,0-0.9-0.6-0.9-0.6l-0.1-0.2l0.5,0.3c0,0,0.2,0.1,0.2-0.1
			c0-0.2-0.3-0.4-0.3-0.4l-0.5-0.4L221,267.3L221,267.3z"/>
		<path fill-rule="evenodd" clip-rule="evenodd" fill="#F6C321" d="M219.7,267.3c0,0-0.6,0.6-0.7,0.7c-0.1,0.1-0.5-0.1-0.5-0.2
			c-0.1-0.1,0-0.2,0.1-0.4c0.1-0.2-0.1-0.2-0.2-0.1c-0.2,0.1-0.2-0.1-0.2-0.2c0-0.1-0.1-0.4,0.5-0.2c0,0,0.3-0.2,0.1-0.3
			c-0.2-0.1-0.6-0.2-1.1-0.4c-0.2-0.1-0.7,0.4-0.7,0.4s0,0.4-0.1,0.6c-0.1,0.2-0.1,0.3,0,0.5c0.1,0.2,0.1,0.3,0.2,0.5
			c0,0.2,0.2,0.4,0.2,0.4s0.1,0.2,0.1,0.4c0,0.2-0.4,0.4-0.5,0.4c-0.1,0.1-0.4-0.1-0.4-0.5c0-0.3,0-0.8,0-1.3c0-0.5,0-0.8-0.2-1
			c-0.2-0.2-0.4-0.1-0.2,0.3c0.2,0.4,0.3,0.3,0.3,0.6c0,0.3-0.1,0.9-0.1,1.3c-0.1,0.4,0.1,0.8,0.2,0.9c0.1,0.1,0.1,0.7,0.1,0.9
			c0,0.2-0.1,0.3,0,0.5c0.1,0.2,0.2,0.5,0.4,0.6c0.1,0.1,0.7,0.2,0.7,0.2s0.1-0.3-0.1-0.3c-0.2,0-0.3-0.1-0.4-0.2
			c-0.1-0.1-0.3-0.2-0.1-0.4c0.1-0.2,0.5-0.3,0.7-0.4c0.2-0.1,0.5-0.1,0.8,0.1c0.2,0.2,0.3,0.4,0.5,0.2c0.2-0.1,0.8-0.5,0.8-0.5
			s0-0.5,0-0.6c0-0.1-0.2-0.2-0.2-0.1c0,0.1,0,0.3-0.1,0.4c-0.1,0.1-0.8,0.4-0.8,0.4s-0.3-0.1-0.5-0.2c-0.2-0.2-0.5-0.3-0.5-0.4
			c0-0.1,0.1-0.2,0.2-0.3c0.2-0.2,0.5-0.7,0.5-0.7s0.2,0.2,0.3,0.2c0.1,0,0.9-0.6,0.9-0.6l0.1-0.2l-0.5,0.3c0,0-0.2,0.1-0.2-0.1
			c0-0.2,0.3-0.4,0.3-0.4l0.5-0.4L219.7,267.3L219.7,267.3z"/>
		<path fill-rule="evenodd" clip-rule="evenodd" fill="#74B646" d="M222.8,264.3c0.2-0.1,0.3-0.1,0.4-0.3
			C223,264,222.6,264.2,222.8,264.3L222.8,264.3L222.8,264.3z M223.1,263.2v0.1h0.3c0-0.1,0-0.1,0.1-0.2
			C223.3,263.2,223.2,263.2,223.1,263.2L223.1,263.2L223.1,263.2z M223,263.7c-0.1,0-0.2,0.1-0.2,0.1c0,0.1,0.1,0.1,0.1,0.1
			c0.2,0,0.3-0.1,0.3-0.3C223.1,263.7,223,263.7,223,263.7L223,263.7L223,263.7z M223.2,262.7c-0.1,0-0.3,0.1-0.3,0.2
			c0,0.1,0.1,0.1,0.1,0.1c0.2,0,0.3-0.1,0.4-0.2v-0.2C223.4,262.7,223.3,262.7,223.2,262.7L223.2,262.7L223.2,262.7z M218.3,264
			L218.3,264c0,0.2,0,0.2,0.2,0.2c0.1,0,0.1-0.1,0.2-0.1C218.6,264.1,218.4,264,218.3,264L218.3,264L218.3,264z M217.9,263.2
			c0,0-0.1,0.1-0.1,0.1c0,0.1,0.1,0.2,0.3,0.2l0.1,0c0-0.1,0-0.2,0-0.3C218.2,263.2,218,263.2,217.9,263.2L217.9,263.2L217.9,263.2z
			 M220.3,260.8c-0.2,0.1-0.2,0.2-0.4,0.2c-0.2,0-0.2-0.2-0.4-0.2c-0.2,0-0.3,0.2-0.4,0.3c-0.5,0.3-0.8,0.3-1.2,0.7
			c-0.3,0.3-0.9,0.3-0.9,0.8c0,0.1,0.1,0.1,0.1,0.2c0,0.3-0.1,0.4-0.1,0.7c0,0.2,0.3,0.2,0.4,0.4c0.3,0.6,0.8,0.8,1.4,0.9
			c0.4,0,0.4,0.6,0.8,0.6c0,0,0.1-0.1,0.1-0.1c0.5,0,0.7,0.2,1.2,0.2c0.2,0,0.3-0.2,0.5-0.3c0.3-0.1,0.5-0.1,0.7-0.2
			c0.2-0.2,0.3-0.4,0.6-0.4c0.1,0,0.2,0.1,0.3,0.1c0.4,0,0.4-0.4,0.5-0.8c0.1-0.3,0.3-0.5,0.3-0.8l0-0.3c0-0.3-0.4-0.4-0.5-0.7
			c-0.1-0.4-0.2-0.9-0.6-0.9c-0.2,0-0.3,0.1-0.5,0.1c-0.2,0-0.3-0.2-0.5-0.2l-0.2,0.1C221.1,261,220.8,260.9,220.3,260.8
			L220.3,260.8z"/>
		<path fill-rule="evenodd" clip-rule="evenodd" fill="#EC1C24" d="M220.6,241.8c0,0,0.5,0.5,1,0.6c0.6,0.1,0.8,0.6,0.9,0.9
			c0,0.3,0.1,2.1,0.1,2.1l0,0.6c0,0-4.1-0.2-5.5,1c0,0,0.1-1.1,0.9-2.1c1.1-1.2,2.3-1.3,2.3-1.3v-2.1L220.6,241.8L220.6,241.8z"/>
		<path fill="none" stroke="#2E3191" stroke-width="0.25" stroke-miterlimit="2.6131" d="M220.6,241.8c0,0,0.5,0.5,1,0.6
			c0.6,0.1,0.8,0.6,0.9,0.9c0,0.3,0.1,2.1,0.1,2.1l0,0.6c0,0-4.1-0.2-5.5,1c0,0,0.1-1.1,0.9-2.1c1.1-1.2,2.3-1.3,2.3-1.3v-2.1
			L220.6,241.8L220.6,241.8z"/>
		
			<polygon fill-rule="evenodd" clip-rule="evenodd" fill="#D5D5D8" stroke="#2E3191" stroke-width="0.25" stroke-miterlimit="2.6131" points="
			218.6,253.8 218.3,254.8 220.3,256.2 222.4,254.8 222.1,253.7 218.6,253.8 		"/>
		<path fill-rule="evenodd" clip-rule="evenodd" fill="#FFFFFF" d="M223.2,250.7c-0.1,1-0.7,1.6-0.7,1.6l0.3,0.8
			c0,0-1.4,1.4-2.6,1.4c-1.3,0-2.5-1.4-2.5-1.4l0.4-0.8c0,0-0.7-0.1-0.8-1.4c-0.1-1.3,1.5-2.2,1.5-2.2s-0.3-1.3,0.4-2.5
			c0,0,1-0.2,2.3-0.2c0.1,0,0.7-0.8,1.5-0.8c0,0,1,0.5,1.8,2.3c0,0-0.2,1.7-1.9,2.1C222.8,249.5,223.2,250,223.2,250.7L223.2,250.7z
			"/>
		<path fill-rule="evenodd" clip-rule="evenodd" fill="#D5D5D8" d="M223.2,250.7c-0.1,1-0.7,1.6-0.7,1.6l0.3,0.8
			c0,0-1.4,1.4-2.6,1.4c-1.3,0-2.5-1.4-2.5-1.4l0.4-0.8c0,0-0.7-0.1-0.8-1.4c-0.1-1.3,1.5-2.2,1.5-2.2s-0.3-1.3,0.4-2.5
			c0,0,1-0.2,2.3-0.2c0.1,0,0.7-0.8,1.5-0.8c0,0,1,0.5,1.8,2.3c0,0-0.2,1.7-1.9,2.1C222.8,249.5,223.2,250,223.2,250.7L223.2,250.7z
			"/>
		<path fill-rule="evenodd" clip-rule="evenodd" fill="#FFFFFF" d="M223.5,251c-1.8-0.1-3.1-1.5-3.2-1.4c-1.5,1.4-3.3,1.4-3.3,1.4
			v1.4c0,0,2.6-0.2,3.3,0.6c0,0,0.3-0.8,3.1-0.6L223.5,251L223.5,251z"/>
		
			<path fill-rule="evenodd" clip-rule="evenodd" fill="#D5D5D8" stroke="#2E3191" stroke-width="0.25" stroke-miterlimit="2.6131" d="
			M223.5,251c-1.8-0.1-3.2-1.4-3.2-1.4c-1.5,1.4-3.3,1.4-3.3,1.4v1.4c0,0,2.6-0.2,3.3,0.6c0,0,0.3-0.8,3.1-0.6L223.5,251L223.5,251z
			"/>
		<path fill="none" stroke="#2E3191" stroke-width="0.25" stroke-miterlimit="2.6131" d="M218.7,248.7c0,0,1.4-1,3.2,0.1
			c0.6,0.4,0.9,0.7,0.9,0.7 M221.4,246c0,0-1,0.9-1.1,2.3 M222.2,249c0,0,0.3-0.7,1-1.2c0.7-0.5,1.4-0.7,1.6-0.4"/>
		
			<polygon fill-rule="evenodd" clip-rule="evenodd" fill="#D5D5D8" stroke="#2E3191" stroke-width="0.25" stroke-miterlimit="2.6131" points="
			218.4,254.9 216.6,256.9 220.3,258.1 224,256.9 222.3,254.9 218.4,254.9 		"/>
		<path fill-rule="evenodd" clip-rule="evenodd" fill="#FFFFFF" d="M215.4,257.3c0,0,0.6-0.6,1.3-0.4c0.7,0.1,3.7,1,3.7,1
			s3.3-1,3.6-1c0.3,0,0.9,0,1.2,0.4c0,0-0.8,0.1-2,0.6c-0.9,0.4-2.4,0.9-2.8,0.9c-0.4,0-1.6-0.3-3.3-1
			C215.8,257.3,215.4,257.3,215.4,257.3L215.4,257.3z"/>
		
			<path fill-rule="evenodd" clip-rule="evenodd" fill="#D5D5D8" stroke="#2E3191" stroke-width="0.25" stroke-miterlimit="2.6131" d="
			M215.4,257.3c0,0,0.6-0.6,1.3-0.4c0.7,0.1,3.7,1,3.7,1s3.3-1,3.6-1c0.3,0,0.9,0,1.2,0.4c0,0-0.8,0.1-2,0.6
			c-0.9,0.4-2.4,0.9-2.8,0.9c-0.4,0-1.6-0.3-3.3-1C215.8,257.3,215.4,257.3,215.4,257.3L215.4,257.3z"/>
		
			<path fill-rule="evenodd" clip-rule="evenodd" fill="#EC1C24" stroke="#2E3191" stroke-width="0.25" stroke-miterlimit="2.6131" d="
			M219.7,241.2c0-0.4,0.3-0.7,0.7-0.7c0.4,0,0.7,0.3,0.7,0.7c0,0.4-0.3,0.7-0.7,0.7C220,241.9,219.7,241.6,219.7,241.2L219.7,241.2z
			"/>
		<path fill="none" stroke="#2E3191" stroke-width="0.25" stroke-miterlimit="2.6131" d="M220.3,243.6c0.5-0.1,1.6-0.2,2.2-0.1"/>
		<path fill-rule="evenodd" clip-rule="evenodd" fill="#FFFFFF" d="M205.6,267.9l-0.6-0.3c0,0,0,0,0,0c0,0,0,0,0.1,0
			c0.1,0,0.1,0,0.2-0.1c0.1,0,0.1-0.1,0.2-0.2c0.1-0.1,0-0.3-0.1-0.4c-0.1-0.1-0.2-0.2-0.4-0.3c-0.2-0.1-0.4-0.2-0.5-0.2
			c-0.2,0-0.4,0-0.4,0.2c0,0.1-0.1,0.2,0,0.2c0,0.1,0,0.1,0,0.1c0,0,0,0.1,0,0.1c0,0,0,0,0,0l-0.5-0.2c-0.1-0.2-0.1-0.4,0-0.6
			c0.1-0.2,0.2-0.3,0.4-0.4c0.2-0.1,0.4-0.1,0.7,0c0.2,0.1,0.4,0.1,0.7,0.3c0.4,0.2,0.7,0.4,0.8,0.6c0.1,0.1,0.1,0.2,0.1,0.4
			c0,0.1,0,0.3-0.1,0.4C206,267.7,205.8,267.8,205.6,267.9L205.6,267.9z"/>
		<polygon fill-rule="evenodd" clip-rule="evenodd" fill="#FFFFFF" points="205.4,269.2 203.3,268.7 203.2,269.2 202.6,269 
			202.9,268 205.6,268.6 205.4,269.2 		"/>
		<path fill-rule="evenodd" clip-rule="evenodd" fill="#FFFFFF" d="M205,270.8l-1.8-0.3c-0.1,0-0.2,0-0.2,0c-0.1,0-0.1,0.1-0.1,0.1
			c0,0.1,0,0.2,0.1,0.2c0,0,0.1,0,0.3,0.1l1.8,0.3l-0.1,0.6l-1.9-0.3c-0.2,0-0.4-0.1-0.5-0.1c-0.1-0.1-0.2-0.2-0.3-0.4
			c0-0.1,0-0.3,0-0.4c0-0.3,0.2-0.4,0.3-0.6c0.1-0.1,0.2-0.1,0.4-0.1c0.1,0,0.2,0,0.3,0l1.9,0.3L205,270.8L205,270.8z"/>
		<path fill-rule="evenodd" clip-rule="evenodd" fill="#FFFFFF" d="M202.1,272.3l2.8,0.1l0,0.9c0,0.2-0.1,0.3-0.2,0.4
			c-0.1,0.1-0.3,0.1-0.5,0.1c-0.2,0-0.4-0.1-0.5-0.2c0,0-0.1-0.1-0.1-0.2c0,0.1-0.1,0.2-0.1,0.2c-0.1,0.1-0.3,0.2-0.5,0.2
			c-0.3,0-0.5-0.1-0.6-0.3c-0.1-0.1-0.2-0.3-0.1-0.5L202.1,272.3L202.1,272.3z M203.8,272.9C203.8,272.9,203.7,272.9,203.8,272.9
			c0,0.2,0.1,0.3,0.2,0.3c0.1,0,0.2,0,0.2-0.1c0,0,0-0.1,0-0.1c0,0,0,0,0-0.1L203.8,272.9L203.8,272.9z M202.6,272.8
			C202.6,272.9,202.6,272.9,202.6,272.8c0,0.2,0.1,0.4,0.3,0.4c0.1,0,0.2,0,0.2-0.1c0,0,0.1-0.1,0.1-0.2c0,0,0,0,0-0.1L202.6,272.8
			L202.6,272.8z"/>
		<path fill-rule="evenodd" clip-rule="evenodd" fill="#FFFFFF" d="M202.4,276.5l2.7-0.6l0.2,0.8c0.1,0.2,0,0.4-0.1,0.6
			c-0.1,0.1-0.3,0.2-0.4,0.3c-0.1,0.1-0.3,0.1-0.5,0.1c-0.5,0.1-0.9,0.1-1.2,0.1c-0.1,0-0.2-0.1-0.3-0.2c-0.1-0.1-0.1-0.2-0.2-0.3
			L202.4,276.5L202.4,276.5z M203.1,276.9C203.1,276.9,203.1,276.9,203.1,276.9c0.1,0.2,0.2,0.3,0.3,0.3c0.1,0,0.3,0,0.6-0.1
			c0.2-0.1,0.4-0.1,0.5-0.2c0.1-0.1,0.2-0.1,0.2-0.2c0,0,0-0.1,0-0.2c0,0,0,0,0-0.1L203.1,276.9L203.1,276.9z"/>
		<polygon fill-rule="evenodd" clip-rule="evenodd" fill="#FFFFFF" points="205.3,278.7 204.9,278.9 205.2,279.5 204.6,279.7 
			204.3,279.1 203.9,279.2 204.2,279.9 203.6,280.1 203.1,278.9 205.7,278 206.2,279.1 205.6,279.4 205.3,278.7 		"/>
		<path fill-rule="evenodd" clip-rule="evenodd" fill="#FFFFFF" d="M204.1,281.1l2.4-1.3l0.4,0.7c0.2,0.4,0.1,0.7-0.4,1
			c-0.3,0.2-0.6,0.2-0.9,0.2c-0.1,0-0.2-0.1-0.3-0.2c0,0-0.1-0.1-0.1-0.2l-0.7,0.4L204.1,281.1L204.1,281.1z M205.6,280.9
			C205.6,280.9,205.6,280.9,205.6,280.9c0.1,0.2,0.3,0.2,0.5,0.1c0.2-0.1,0.3-0.2,0.2-0.4c0,0,0,0,0-0.1L205.6,280.9L205.6,280.9z"
			/>
		<path fill-rule="evenodd" clip-rule="evenodd" fill="#FFFFFF" d="M208.1,282c0.2,0.3,0.3,0.5,0.1,0.8c-0.1,0.2-0.4,0.4-0.8,0.7
			c-0.3,0.2-0.6,0.4-0.8,0.4c-0.2,0-0.3,0-0.5,0c-0.1,0-0.2-0.1-0.3-0.3c-0.2-0.2-0.2-0.4-0.2-0.5c0-0.2,0.1-0.4,0.3-0.6
			c0.1-0.1,0.3-0.2,0.5-0.4c0.4-0.3,0.7-0.4,0.9-0.5C207.6,281.6,207.9,281.7,208.1,282L208.1,282L208.1,282z M207.6,282.3
			c-0.1-0.1-0.2-0.1-0.3,0c-0.1,0.1-0.3,0.1-0.4,0.3c-0.2,0.2-0.4,0.3-0.5,0.4c-0.1,0.1-0.1,0.2-0.1,0.3c0,0.1,0.1,0.1,0.2,0.1
			c0.1,0,0.3-0.1,0.6-0.3c0.2-0.1,0.4-0.3,0.4-0.4c0.1-0.1,0.1-0.1,0.1-0.2C207.6,282.4,207.6,282.4,207.6,282.3L207.6,282.3z"/>
		<path fill-rule="evenodd" clip-rule="evenodd" fill="#FFFFFF" d="M207.1,285l1.9-1.9l0.7,0.6c0.1,0,0.1,0.1,0.1,0.2
			c0,0.1,0.1,0.2,0,0.2c0,0.2-0.1,0.3-0.3,0.5c-0.2,0.2-0.3,0.3-0.5,0.3c-0.1,0-0.2,0-0.3,0l-0.5,1.1l-0.5-0.4l0.4-0.8
			c0.1-0.1,0.1-0.2,0.2-0.3l0,0c0,0,0,0-0.1,0.1c0,0-0.1,0.1-0.1,0.1l-0.6,0.6L207.1,285L207.1,285z M208.7,284.3
			C208.7,284.4,208.7,284.4,208.7,284.3c0.2,0.2,0.3,0.2,0.5,0c0.1-0.1,0.1-0.2,0.1-0.2c0,0,0-0.1-0.1-0.2c0,0,0,0-0.1,0
			L208.7,284.3L208.7,284.3z"/>
		<polygon fill-rule="evenodd" clip-rule="evenodd" fill="#FFFFFF" points="211,285.6 209.8,287.2 209.3,286.9 210.5,285.2 
			210.1,285 210.5,284.5 211.8,285.3 211.4,285.8 211,285.6 		"/>
		<polygon fill-rule="evenodd" clip-rule="evenodd" fill="#FFFFFF" points="212.8,285.9 211.3,288.1 210.8,287.8 212.2,285.6 
			212.8,285.9 		"/>
		<path fill-rule="evenodd" clip-rule="evenodd" fill="#FFFFFF" d="M213.2,286.1l0.6,0.3l-0.4,1.1c-0.1,0.3-0.2,0.5-0.3,0.8
			c0,0,0,0,0,0.1l0,0c0,0,0,0,0-0.1c0-0.1,0.1-0.2,0.2-0.4c0.1-0.2,0.2-0.3,0.2-0.4l0.7-1l0.6,0.3l-1.6,2.1l-0.7-0.3L213.2,286.1
			L213.2,286.1z"/>
		<path fill-rule="evenodd" clip-rule="evenodd" fill="#FFFFFF" d="M216.1,287.1c0.3,0.1,0.5,0.3,0.6,0.6c0,0.2,0,0.6-0.2,1
			c-0.1,0.4-0.2,0.6-0.4,0.8c-0.1,0.1-0.2,0.2-0.4,0.2c-0.1,0-0.3,0-0.4,0c-0.2-0.1-0.4-0.2-0.5-0.3c-0.1-0.2-0.1-0.4-0.1-0.7
			c0-0.2,0.1-0.3,0.1-0.5c0.1-0.4,0.3-0.7,0.4-0.9C215.5,287.1,215.8,287,216.1,287.1L216.1,287.1L216.1,287.1z M215.9,287.7
			c-0.1,0-0.2,0-0.3,0.2c-0.1,0.1-0.1,0.3-0.2,0.4c-0.1,0.2-0.1,0.4-0.1,0.6c0,0.2,0,0.3,0.1,0.3c0.1,0,0.1,0,0.2-0.1
			c0.1-0.1,0.2-0.3,0.3-0.6c0.1-0.2,0.1-0.4,0.1-0.5c0-0.1,0-0.1,0-0.2C216,287.8,216,287.7,215.9,287.7L215.9,287.7z"/>
		<path fill-rule="evenodd" clip-rule="evenodd" fill="#FFFFFF" d="M220.4,289l-0.1,1.1c-0.1,0.1-0.2,0.1-0.2,0.1
			c-0.2,0.1-0.3,0.1-0.5,0.1c-0.4,0-0.6-0.2-0.7-0.4c-0.1-0.2-0.1-0.6-0.1-1c0-0.4,0.1-0.7,0.2-0.9c0.1-0.1,0.2-0.2,0.3-0.3
			c0.1,0,0.3-0.1,0.4-0.1c0.3,0,0.5,0.1,0.6,0.3l0,0.6c0,0,0,0,0,0c0,0,0,0,0-0.1c0-0.1-0.1-0.1-0.2-0.2c-0.1-0.1-0.2-0.1-0.3-0.1
			c-0.2,0-0.3,0.1-0.4,0.3c0,0.1-0.1,0.3-0.1,0.6c0,0.3,0,0.5,0,0.6c0,0.1,0.1,0.1,0.2,0.1c0,0,0.1,0,0.1,0l0-0.8L220.4,289
			L220.4,289z"/>
		<path fill-rule="evenodd" clip-rule="evenodd" fill="#FFFFFF" d="M221.8,287.7l0.3,1.7c0,0.1,0,0.2,0.1,0.2c0,0.1,0.1,0.1,0.2,0.1
			c0.1,0,0.2-0.1,0.2-0.1c0,0,0-0.1,0-0.2l-0.3-1.7l0.6-0.1l0.3,1.8c0,0.2,0,0.4,0,0.5c0,0.2-0.1,0.3-0.3,0.4
			c-0.1,0.1-0.2,0.1-0.4,0.1c-0.3,0-0.5,0-0.7-0.1c-0.1-0.1-0.2-0.2-0.2-0.3c0-0.1,0-0.2-0.1-0.3l-0.3-1.8L221.8,287.7L221.8,287.7z
			"/>
		<path fill-rule="evenodd" clip-rule="evenodd" fill="#FFFFFF" d="M225,289.1l-0.4,0.1l0.1,0.6l-0.6,0.2l-0.3-2.6l0.9-0.3l1.2,2.4
			l-0.6,0.2L225,289.1L225,289.1z M224.8,288.6l-0.3-0.6c0-0.1-0.1-0.2-0.1-0.3l0,0c0,0.1,0.1,0.2,0.1,0.3l0.1,0.6L224.8,288.6
			L224.8,288.6z"/>
		<path fill-rule="evenodd" clip-rule="evenodd" fill="#FFFFFF" d="M226.9,289.2l-1.2-2.3l0.8-0.4c0.2-0.1,0.5-0.1,0.6,0
			c0.1,0.1,0.3,0.2,0.4,0.3c0.1,0.1,0.2,0.3,0.3,0.4c0.2,0.4,0.3,0.8,0.3,1.1c0,0.1-0.1,0.2-0.1,0.3c-0.1,0.1-0.2,0.2-0.3,0.2
			L226.9,289.2L226.9,289.2z M227.2,288.5C227.2,288.5,227.2,288.5,227.2,288.5c0.2-0.1,0.3-0.2,0.3-0.4c0-0.1-0.1-0.3-0.2-0.5
			c-0.1-0.2-0.2-0.3-0.3-0.4c-0.1-0.1-0.2-0.1-0.3-0.1c0,0-0.1,0-0.2,0c0,0,0,0-0.1,0L227.2,288.5L227.2,288.5z"/>
		<path fill-rule="evenodd" clip-rule="evenodd" fill="#FFFFFF" d="M229.6,287.2l-0.3,0.2l0.3,0.6l-0.5,0.3l-1-2.5l0.8-0.5l1.8,2
			l-0.6,0.3L229.6,287.2L229.6,287.2z M229.2,286.8l-0.4-0.5c-0.1-0.1-0.1-0.2-0.2-0.3l0,0c0.1,0.1,0.1,0.2,0.2,0.3l0.3,0.6
			L229.2,286.8L229.2,286.8z"/>
		<polygon fill-rule="evenodd" clip-rule="evenodd" fill="#FFFFFF" points="230,284.5 231.3,286.1 231.8,285.8 232.1,286.2 
			231.2,286.9 229.5,284.8 230,284.5 		"/>
		<path fill-rule="evenodd" clip-rule="evenodd" fill="#FFFFFF" d="M233.2,284.4l-0.3,0.3l0.4,0.5l-0.4,0.4l-1.8-2.1l0.7-0.7
			l2.4,1.4l-0.4,0.5L233.2,284.4L233.2,284.4z M232.7,284.1l-0.6-0.3c-0.1-0.1-0.2-0.1-0.3-0.2l0,0c0.1,0.1,0.2,0.2,0.2,0.2l0.4,0.5
			L232.7,284.1L232.7,284.1z"/>
		<path fill-rule="evenodd" clip-rule="evenodd" fill="#FFFFFF" d="M233,281.5l1.7,1.2c0.2,0.1,0.3,0.2,0.3,0.4
			c0.1,0.2,0,0.4-0.1,0.5c-0.1,0.1-0.3,0.2-0.4,0.3l-0.4-0.3c0,0,0,0,0,0c0,0,0,0,0.1,0c0.1,0,0.2-0.1,0.2-0.1
			c0.1-0.1,0.1-0.2,0-0.2c0,0-0.1-0.1-0.1-0.1L234,283l-1.4-1L233,281.5L233,281.5z"/>
		<path fill-rule="evenodd" clip-rule="evenodd" fill="#FFFFFF" d="M235.6,281.2l-0.2,0.3l0.5,0.4l-0.3,0.5l-2.1-1.7l0.5-0.8l2.6,1
			l-0.3,0.5L235.6,281.2L235.6,281.2z M235.1,281l-0.6-0.2c-0.1,0-0.2-0.1-0.3-0.1l0,0c0.1,0.1,0.2,0.1,0.3,0.2l0.5,0.4L235.1,281
			L235.1,281z"/>
		<path fill-rule="evenodd" clip-rule="evenodd" fill="#FFFFFF" d="M237,280l-2.6-0.9l0.3-0.8c0-0.1,0.1-0.1,0.1-0.2
			c0.1-0.1,0.1-0.1,0.2-0.1c0.2-0.1,0.4,0,0.6,0c0.2,0.1,0.4,0.2,0.5,0.3c0.1,0.1,0.1,0.2,0.1,0.3l1.3,0l-0.2,0.6l-0.9,0
			c-0.1,0-0.3,0-0.3,0l0,0c0,0,0.1,0,0.1,0c0.1,0,0.1,0,0.1,0l0.9,0.3L237,280L237,280z M235.7,278.9
			C235.7,278.9,235.7,278.9,235.7,278.9c0.1-0.2,0-0.3-0.2-0.4c-0.1,0-0.2,0-0.2,0c0,0-0.1,0.1-0.1,0.2c0,0,0,0,0,0.1L235.7,278.9
			L235.7,278.9z"/>
		<path fill-rule="evenodd" clip-rule="evenodd" fill="#FFFFFF" d="M237.4,276.9l-0.1,0.4l0.6,0.2l-0.2,0.6l-2.6-1l0.2-0.9l2.8,0.2
			l-0.2,0.6L237.4,276.9L237.4,276.9z M236.8,276.8l-0.7-0.1c-0.1,0-0.2,0-0.3,0l0,0c0.1,0,0.2,0.1,0.3,0.1l0.6,0.2L236.8,276.8
			L236.8,276.8z"/>
		<path fill-rule="evenodd" clip-rule="evenodd" fill="#FFFFFF" d="M237.7,275.5l0.1-0.5c0.1,0,0.1,0,0.1,0c0.2,0,0.4,0.1,0.6,0.2
			c0.1,0,0.2,0.1,0.3,0.2l-0.1,0.4c-0.3-0.1-0.6-0.2-0.9-0.3C237.9,275.5,237.8,275.5,237.7,275.5L237.7,275.5z"/>
		<path fill-rule="evenodd" clip-rule="evenodd" fill="#FFFFFF" d="M237.6,270.2l0.1,0.4l0.7,0l0.1,0.6l-2.8,0l-0.2-0.9l2.7-0.8
			l0.1,0.6L237.6,270.2L237.6,270.2z M237,270.4l-0.6,0.2c-0.1,0-0.2,0.1-0.3,0.1l0,0c0.1,0,0.3,0,0.4,0l0.7,0L237,270.4L237,270.4z
			"/>
		<path fill-rule="evenodd" clip-rule="evenodd" fill="#FFFFFF" d="M237.2,268.5c0-0.1,0-0.2,0-0.3c0,0,0.1-0.1,0.2-0.1
			c0.2-0.1,0.3,0,0.4,0.2c0.1,0.2,0,0.3-0.2,0.4C237.4,268.8,237.3,268.7,237.2,268.5L237.2,268.5z"/>
		<path fill-rule="evenodd" clip-rule="evenodd" fill="#FFFFFF" d="M234.5,266.9l0.6-0.2c0,0,0,0,0,0c0,0,0,0,0,0.1
			c0,0-0.1,0.1-0.1,0.2c0,0.1,0,0.2,0,0.2c0.1,0.1,0.2,0.2,0.3,0.2c0.1,0,0.3,0,0.5-0.1c0.2-0.1,0.4-0.2,0.5-0.2
			c0.2-0.1,0.2-0.3,0.2-0.4c0-0.1-0.1-0.1-0.2-0.2c-0.1,0-0.1-0.1-0.1-0.1c0,0-0.1,0-0.1,0c0,0,0,0,0,0l0.5-0.2
			c0.2,0.1,0.4,0.2,0.4,0.4c0.1,0.2,0.1,0.4,0,0.5c-0.1,0.2-0.2,0.3-0.5,0.5c-0.2,0.1-0.4,0.2-0.7,0.3c-0.4,0.1-0.8,0.2-1,0.2
			c-0.1,0-0.2-0.1-0.3-0.2c-0.1-0.1-0.2-0.2-0.2-0.3C234.4,267.3,234.4,267.1,234.5,266.9L234.5,266.9z"/>
		<path fill-rule="evenodd" clip-rule="evenodd" fill="#FFFFFF" d="M235.9,265.3c0-0.1-0.1-0.2,0-0.3c0,0,0.1-0.1,0.2-0.1
			c0.2-0.1,0.3,0,0.4,0.1c0.1,0.2,0,0.3-0.2,0.4C236.1,265.6,236,265.5,235.9,265.3L235.9,265.3z"/>
		<polygon fill-rule="evenodd" clip-rule="evenodd" fill="#EC1C24" points="220.4,294.3 221.1,296.5 223.6,296.5 221.6,297.8 
			222.4,300 220.4,298.6 218.4,300 219.1,297.8 217.1,296.5 219.6,296.5 220.4,294.3 		"/>
		<polygon fill-rule="evenodd" clip-rule="evenodd" fill="#0066A2" points="212,293.8 212.2,295.4 213.9,295.6 212.3,296.3 
			212.6,297.9 211.4,296.8 209.8,297.5 210.7,296.1 209.4,294.9 211.1,295.2 212,293.8 		"/>
		<polygon fill-rule="evenodd" clip-rule="evenodd" fill="#0066A2" points="228.9,293.8 228.6,295.4 226.9,295.6 228.5,296.4 
			228.2,298 229.4,296.8 231,297.5 230.2,296.1 231.4,294.9 229.7,295.2 228.9,293.8 		"/>
		<polygon fill-rule="evenodd" clip-rule="evenodd" fill="#0066A2" points="235.7,289.8 236.3,291.4 234.9,292.3 236.7,292.3 
			237.2,293.8 237.7,292.3 239.5,292.3 238,291.3 238.5,289.8 237.2,290.8 235.7,289.8 		"/>
		<polygon fill-rule="evenodd" clip-rule="evenodd" fill="#0066A2" points="205.1,289.8 204.6,291.4 205.9,292.3 204.2,292.3 
			203.6,293.8 203.1,292.3 201.4,292.3 202.8,291.3 202.3,289.8 203.7,290.8 205.1,289.8 		"/>
		<polygon fill-rule="evenodd" clip-rule="evenodd" fill="#0066A2" points="200,284.3 198.9,285.6 199.8,286.9 198.2,286.3 
			197.1,287.5 197.2,285.9 195.6,285.3 197.3,284.9 197.4,283.3 198.3,284.7 200,284.3 		"/>
		<polygon fill-rule="evenodd" clip-rule="evenodd" fill="#0066A2" points="240.8,284.3 241.9,285.6 241,286.9 242.6,286.3 
			243.7,287.5 243.6,285.9 245.2,285.3 243.5,284.9 243.4,283.3 242.5,284.7 240.8,284.3 		"/>
		<polygon fill-rule="evenodd" clip-rule="evenodd" fill="#0066A2" points="243.5,277.4 245,278.1 244.7,279.7 245.9,278.6 
			247.5,279.4 246.7,277.9 248,276.8 246.3,277 245.5,275.6 245.2,277.2 243.5,277.4 		"/>
		<polygon fill-rule="evenodd" clip-rule="evenodd" fill="#0066A2" points="243.6,270.2 245.3,270.4 245.7,271.9 246.3,270.5 
			248.1,270.6 246.8,269.5 247.4,268.1 246,268.9 244.7,267.8 245,269.4 243.6,270.2 		"/>
		<polygon fill-rule="evenodd" clip-rule="evenodd" fill="#0066A2" points="197.2,277.4 195.6,278.1 196,279.7 194.7,278.6 
			193.2,279.4 193.9,277.9 192.7,276.8 194.4,277 195.1,275.6 195.4,277.2 197.2,277.4 		"/>
		<polygon fill-rule="evenodd" clip-rule="evenodd" fill="#0066A2" points="197.3,270.2 195.5,270.4 195.1,271.9 194.5,270.5 
			192.7,270.6 194.1,269.5 193.4,268.1 194.9,268.9 196.2,267.8 195.8,269.4 197.3,270.2 		"/>
	</g>
	<g>
		<path fill-rule="evenodd" clip-rule="evenodd" fill="#0066A2" d="M548.4,248c0-11.2,9.7-20.2,21.7-20.2c12,0,21.7,9,21.7,20.2
			c0,11.2-9.7,20.2-21.7,20.2C558.2,268.2,548.4,259.1,548.4,248L548.4,248z"/>
		<path fill-rule="evenodd" clip-rule="evenodd" fill="#FFFFFF" d="M557.1,248c0-6.7,5.8-12.1,13-12.1c7.2,0,13,5.4,13,12.1
			c0,6.7-5.8,12.1-13,12.1C563,260.1,557.1,254.7,557.1,248L557.1,248z"/>
		<path fill-rule="evenodd" clip-rule="evenodd" fill="#EC1C24" d="M563.7,237.4v21.1c-1-0.5-1.9-1.1-2.6-1.8v-17.4
			C561.9,238.6,562.8,237.9,563.7,237.4L563.7,237.4z"/>
		<path fill-rule="evenodd" clip-rule="evenodd" fill="#EC1C24" d="M566.6,236.9h2.6v23.2c-0.9-0.1-1.8-0.2-2.6-0.4V236.9
			L566.6,236.9z"/>
		<path fill-rule="evenodd" clip-rule="evenodd" fill="#EC1C24" d="M571.7,236.9h2.6v22.5c-0.8,0.3-1.7,0.5-2.6,0.6V236.9
			L571.7,236.9z"/>
		<path fill-rule="evenodd" clip-rule="evenodd" fill="#EC1C24" d="M579.6,239.6v16.7c-0.8,0.8-1.7,1.4-2.6,2v-20.7
			C577.9,238.2,578.8,238.9,579.6,239.6L579.6,239.6z"/>
		<path fill-rule="evenodd" clip-rule="evenodd" fill="#EC1C24" d="M582.4,252.2v-8.4c0.5,1.3,0.8,2.7,0.8,4.2
			C583.2,249.5,582.9,250.9,582.4,252.2L582.4,252.2z"/>
		<path fill-rule="evenodd" clip-rule="evenodd" fill="#EC1C24" d="M558.4,242.7v10.6c-0.8-1.6-1.3-3.4-1.3-5.3
			C557.1,246.1,557.6,244.3,558.4,242.7L558.4,242.7z"/>
		<path fill="none" stroke="#FFFFFF" stroke-width="0.25" stroke-miterlimit="2.6131" d="M550.2,248c0-10.3,8.9-18.6,20-18.6
			c11,0,20,8.3,20,18.6c0,10.3-8.9,18.6-20,18.6C559.1,266.6,550.2,258.2,550.2,248L550.2,248z"/>
		<path fill="none" stroke="#FFFFFF" stroke-width="0.25" stroke-miterlimit="2.6131" d="M555.9,248c0-7.3,6.4-13.2,14.2-13.2
			c7.8,0,14.2,5.9,14.2,13.2c0,7.3-6.4,13.2-14.2,13.2C562.3,261.2,555.9,255.3,555.9,248L555.9,248z"/>
		<path fill-rule="evenodd" clip-rule="evenodd" fill="#F8C121" d="M579.9,227.2c0,0,2.8,0.1,2.1,2.7c-0.4,1.3-1.6,1.7-1.6,1.7
			c0,0,0.2,2.1-1.8,2.1c0,0,0.9-0.9,0.6-2c0,0-1.3,0-2.1-0.8c-0.8-0.9-1-1.2-1-1.2s-0.5,0.2-1,0.9c0,0-0.1-1.8-0.1-1.8
			s-0.7,0.1-1,0.7c0,0-0.8-1.6,0.6-2.4c0,0-0.8,0-1.1-1.5c0,0,0.7,0.4,1.9,0.1c1.2-0.3,3.1-1.4,5.2-1.3c2.1,0.1,4.4,1.6,4.4,3.9
			c0.1,2.3-0.8,3.5-2,5.6c-1.2,2.1-2.2,3.6-2.3,4.3c-0.1,0.7,0.2,1.7-0.2,2.9c0,0-0.5-0.4-0.4-1.4c0,0-0.3,0.6-0.2,1.3
			c0.1,1.1-0.2,1.4-0.2,1.4s-0.3,0.2-0.5-0.9c0-0.1-0.1,0.6,0,1.4c0.2,0.9-0.6,1.8-0.6,1.8c0,0-0.8-1.1-0.9-2.6
			c-0.1-1.8,0.6-3.2,2.4-6.2c1.8-3,3-4.7,3.2-6c0.2-1.3-0.2-3.7-2.8-3.9c-2.6-0.2-3,1.4-3.1,1.9c-0.1,0.5-0.1,1.5,1.1,1.5
			c1.2,0,1.4-0.8,1.4-1.3C579.9,227.4,579.9,227.2,579.9,227.2L579.9,227.2z"/>
		<path fill="#0066A2" d="M579.9,227.2c0,0,2.8,0.1,2.1,2.7c-0.4,1.3-1.6,1.7-1.6,1.7s0.2,2.1-1.8,2.1c0,0,0.9-0.9,0.6-2
			c0,0-1.3,0-2.1-0.8c-0.8-0.9-1-1.2-1-1.2s-0.5,0.2-1,0.9l-0.1-1.8c0,0-0.7,0.1-1,0.7c0,0-0.8-1.6,0.6-2.4c0,0-0.8,0-1.1-1.5
			c0,0,0.7,0.4,1.9,0.1c1.2-0.3,3.1-1.4,5.2-1.3c2.1,0.1,4.4,1.6,4.4,3.9c0.1,2.3-0.8,3.5-2,5.6c-1.2,2.1-2.2,3.6-2.3,4.3
			c-0.1,0.7,0.2,1.7-0.2,2.9c0,0-0.5-0.4-0.4-1.4c0,0-0.3,0.6-0.2,1.3c0.1,1.1-0.2,1.4-0.2,1.4s-0.3,0.2-0.5-0.9
			c0-0.1-0.1,0.6,0,1.4c0.2,0.9-0.6,1.8-0.6,1.8s-0.8-1.1-0.9-2.6c-0.1-1.8,0.6-3.2,2.4-6.2c1.8-3,3-4.7,3.2-6
			c0.2-1.3-0.2-3.7-2.8-3.9c-2.6-0.2-3,1.4-3.1,1.9c-0.1,0.5-0.1,1.5,1.1,1.5c1.2,0,1.4-0.8,1.4-1.3
			C579.9,227.4,579.9,227.2,579.9,227.2L579.9,227.2z"/>
		<path fill-rule="evenodd" clip-rule="evenodd" fill="#F8C121" d="M560.4,227.2c0,0-2.8,0.1-2.1,2.7c0.4,1.3,1.6,1.7,1.6,1.7
			s-0.2,2.1,1.8,2.1c0,0-0.9-0.9-0.6-2c0,0,1.3,0,2.1-0.8c0.8-0.9,1-1.2,1-1.2s0.5,0.2,1,0.9c0,0,0.1-1.8,0.1-1.8s0.7,0.1,1,0.7
			c0,0,0.8-1.6-0.6-2.4c0,0,0.8,0,1.1-1.5c0,0-0.7,0.4-1.9,0.1c-1.2-0.3-3.1-1.4-5.2-1.3c-2.1,0.1-4.4,1.6-4.4,3.9
			c-0.1,2.3,0.8,3.5,2,5.6c1.2,2.1,2.2,3.6,2.3,4.3c0.1,0.7-0.2,1.7,0.2,2.9c0,0,0.5-0.4,0.4-1.4c0,0,0.3,0.6,0.2,1.3
			c-0.1,1.1,0.2,1.4,0.2,1.4s0.3,0.2,0.5-0.9c0-0.1,0.1,0.6,0,1.4c-0.2,0.9,0.6,1.8,0.6,1.8s0.8-1.1,0.9-2.6
			c0.1-1.8-0.6-3.2-2.4-6.2c-1.8-3-3-4.7-3.2-6c-0.2-1.3,0.2-3.7,2.8-3.9c2.6-0.2,3,1.4,3.1,1.9c0.1,0.5,0.1,1.5-1.1,1.5
			c-1.2,0-1.4-0.8-1.4-1.3C560.4,227.4,560.4,227.2,560.4,227.2L560.4,227.2z"/>
		<path fill="#0066A2" d="M560.4,227.2c0,0-2.8,0.1-2.1,2.7c0.4,1.3,1.6,1.7,1.6,1.7s-0.2,2.1,1.8,2.1c0,0-0.9-0.9-0.6-2
			c0,0,1.3,0,2.1-0.8c0.8-0.9,1-1.2,1-1.2s0.5,0.2,1,0.9l0.1-1.8c0,0,0.7,0.1,1,0.7c0,0,0.8-1.6-0.6-2.4c0,0,0.8,0,1.1-1.5
			c0,0-0.7,0.4-1.9,0.1c-1.2-0.3-3.1-1.4-5.2-1.3c-2.1,0.1-4.4,1.6-4.4,3.9c-0.1,2.3,0.8,3.5,2,5.6c1.2,2.1,2.2,3.6,2.3,4.3
			c0.1,0.7-0.2,1.7,0.2,2.9c0,0,0.5-0.4,0.4-1.4c0,0,0.3,0.6,0.2,1.3c-0.1,1.1,0.2,1.4,0.2,1.4s0.3,0.2,0.5-0.9c0-0.1,0.1,0.6,0,1.4
			c-0.2,0.9,0.6,1.8,0.6,1.8s0.8-1.1,0.9-2.6c0.1-1.8-0.6-3.2-2.4-6.2c-1.8-3-3-4.7-3.2-6c-0.2-1.3,0.2-3.7,2.8-3.9
			c2.6-0.2,3,1.4,3.1,1.9c0.1,0.5,0.1,1.5-1.1,1.5c-1.2,0-1.4-0.8-1.4-1.3C560.4,227.4,560.4,227.2,560.4,227.2L560.4,227.2z"/>
		
			<path fill-rule="evenodd" clip-rule="evenodd" fill="#F6C321" stroke="#2E3191" stroke-width="0.25" stroke-miterlimit="2.6131" d="
			M570.2,232.2h7.7c0,0-0.5,0.8-0.5,1.9c0,1.1,0,7.3,0,7.3v5.3c0,0,0.1,1.1-0.6,1.6c-0.7,0.5-3.3,1.6-4.4,2.4
			c-1.1,0.8-2.2,1.1-2.3,1.9c-0.1-0.8-1.2-1.1-2.3-1.9c-1.1-0.8-3.7-1.9-4.4-2.4c-0.7-0.5-0.6-1.6-0.6-1.6v-5.3c0,0,0-6.1,0-7.3
			c0-1.1-0.5-1.9-0.5-1.9H570.2L570.2,232.2z"/>
		<path fill-rule="evenodd" clip-rule="evenodd" fill="#0066A2" d="M570.2,234.3h4.9v11.8c0,0,0.1,1-0.5,1.4
			c-0.6,0.3-4.5,2.1-4.5,2.1s-3.8-1.7-4.5-2.1c-0.6-0.3-0.5-1.4-0.5-1.4v-11.8H570.2L570.2,234.3z"/>
		<polygon fill-rule="evenodd" clip-rule="evenodd" fill="#EC1C24" points="575.6,234.3 576.2,233.6 575.6,232.9 576.2,232.9 
			576.4,233.3 576.7,232.9 577.2,232.9 576.6,233.6 577.2,234.3 576.7,234.3 576.4,233.9 576.1,234.3 575.6,234.3 		"/>
		<polygon fill-rule="evenodd" clip-rule="evenodd" fill="#EC1C24" points="575.6,241.4 576.2,240.7 575.6,240 576.2,240 
			576.4,240.4 576.7,240 577.2,240 576.6,240.7 577.2,241.4 576.7,241.4 576.4,241 576.1,241.4 575.6,241.4 		"/>
		<polygon fill-rule="evenodd" clip-rule="evenodd" fill="#EC1C24" points="575.4,247.5 575.9,246.8 575.4,246 575.9,246 
			576.2,246.5 576.4,246 576.9,246 576.4,246.8 577,247.5 576.4,247.5 576.2,247.1 575.9,247.5 575.4,247.5 		"/>
		<polygon fill-rule="evenodd" clip-rule="evenodd" fill="#EC1C24" points="564.7,234.3 564.1,233.6 564.7,232.9 564.2,232.9 
			563.9,233.3 563.6,232.9 563.1,232.9 563.7,233.6 563.1,234.3 563.6,234.3 563.9,233.9 564.2,234.3 564.7,234.3 		"/>
		<polygon fill-rule="evenodd" clip-rule="evenodd" fill="#EC1C24" points="564.7,241.4 564.1,240.7 564.7,240 564.2,240 
			563.9,240.4 563.6,240 563.1,240 563.7,240.7 563.1,241.4 563.6,241.4 563.9,241 564.2,241.4 564.7,241.4 		"/>
		<polygon fill-rule="evenodd" clip-rule="evenodd" fill="#EC1C24" points="570.9,251.2 570.4,250.4 570.9,249.7 570.4,249.7 
			570.1,250.1 569.9,249.7 569.4,249.7 569.9,250.4 569.4,251.2 569.9,251.2 570.2,250.7 570.4,251.2 570.9,251.2 		"/>
		<polygon fill-rule="evenodd" clip-rule="evenodd" fill="#EC1C24" points="564.9,247.5 564.4,246.7 564.9,246 564.4,246 
			564.1,246.4 563.9,246 563.4,246 563.9,246.7 563.4,247.5 563.9,247.5 564.1,247 564.4,247.5 564.9,247.5 		"/>
		<path fill-rule="evenodd" clip-rule="evenodd" fill="#EC1C24" d="M570.2,240.4h0.4c0,0,0,3.6,0,4.1c0,0.6,0.3,2.1,0.5,2.3h-0.8
			h-0.8c0.2-0.3,0.5-1.8,0.5-2.3c0-0.6,0-4.1,0-4.1H570.2L570.2,240.4z"/>
		<path fill-rule="evenodd" clip-rule="evenodd" fill="#F6C321" d="M570.8,242.2c0,0,0.6,0.6,0.7,0.7c0.1,0.1,0.5-0.1,0.5-0.2
			c0.1-0.1,0-0.2-0.1-0.4c-0.1-0.2,0.1-0.2,0.2-0.1c0.2,0.1,0.2-0.1,0.2-0.2c0-0.1,0.1-0.4-0.5-0.2c0,0-0.3-0.2-0.1-0.3
			c0.2-0.1,0.6-0.2,1.1-0.4c0.2-0.1,0.7,0.4,0.7,0.4s0,0.4,0.1,0.6c0.1,0.2,0.1,0.3,0,0.5c-0.1,0.2-0.1,0.3-0.2,0.5
			c0,0.2-0.2,0.4-0.2,0.4s-0.1,0.2-0.1,0.4c0,0.2,0.4,0.4,0.5,0.4c0.1,0.1,0.4-0.1,0.4-0.5c0-0.3,0-0.8,0-1.3c0-0.5,0-0.8,0.2-1
			c0.2-0.2,0.4-0.1,0.2,0.3c-0.2,0.4-0.3,0.3-0.3,0.6c0,0.3,0.1,0.9,0.1,1.3c0.1,0.4-0.1,0.8-0.2,0.9c-0.1,0.1-0.1,0.7-0.1,0.9
			s0.1,0.3,0,0.5c-0.1,0.2-0.2,0.5-0.4,0.6c-0.1,0.1-0.7,0.2-0.7,0.2s-0.1-0.3,0.1-0.3c0.2,0,0.3-0.1,0.4-0.2
			c0.1-0.1,0.3-0.2,0.1-0.4c-0.1-0.2-0.5-0.3-0.7-0.4c-0.2-0.1-0.5-0.1-0.8,0.1c-0.2,0.2-0.3,0.4-0.5,0.2c-0.2-0.1-0.8-0.5-0.8-0.5
			s0-0.5,0-0.6c0-0.1,0.2-0.2,0.2-0.1c0,0.1,0,0.3,0.1,0.4c0.1,0.1,0.8,0.4,0.8,0.4s0.3-0.1,0.5-0.2c0.2-0.2,0.5-0.3,0.5-0.4
			c0-0.1-0.1-0.2-0.2-0.3c-0.2-0.2-0.5-0.7-0.5-0.7s-0.2,0.2-0.3,0.2c-0.1,0-0.9-0.6-0.9-0.6l-0.1-0.2l0.5,0.3c0,0,0.2,0.1,0.2-0.1
			c0-0.2-0.3-0.4-0.3-0.4l-0.5-0.4L570.8,242.2L570.8,242.2z"/>
		<path fill-rule="evenodd" clip-rule="evenodd" fill="#F6C321" d="M569.5,242.2c0,0-0.6,0.6-0.7,0.7c-0.1,0.1-0.5-0.1-0.5-0.2
			c-0.1-0.1,0-0.2,0.1-0.4c0.1-0.2-0.1-0.2-0.2-0.1c-0.2,0.1-0.2-0.1-0.2-0.2c0-0.1-0.1-0.4,0.5-0.2c0,0,0.3-0.2,0.1-0.3
			c-0.2-0.1-0.6-0.2-1.1-0.4c-0.2-0.1-0.7,0.4-0.7,0.4s0,0.4-0.1,0.6c-0.1,0.2-0.1,0.3,0,0.5c0.1,0.2,0.1,0.3,0.2,0.5
			c0,0.2,0.2,0.4,0.2,0.4s0.1,0.2,0.1,0.4c0,0.2-0.4,0.4-0.5,0.4c-0.1,0.1-0.4-0.1-0.4-0.5c0-0.3,0-0.8,0-1.3c0-0.5,0-0.8-0.2-1
			c-0.2-0.2-0.4-0.1-0.2,0.3c0.2,0.4,0.3,0.3,0.3,0.6c0,0.3-0.1,0.9-0.1,1.3c-0.1,0.4,0.1,0.8,0.2,0.9c0.1,0.1,0.1,0.7,0.1,0.9
			s-0.1,0.3,0,0.5c0.1,0.2,0.2,0.5,0.4,0.6c0.1,0.1,0.7,0.2,0.7,0.2s0.1-0.3-0.1-0.3c-0.2,0-0.3-0.1-0.4-0.2
			c-0.1-0.1-0.3-0.2-0.1-0.4c0.1-0.2,0.5-0.3,0.7-0.4c0.2-0.1,0.5-0.1,0.8,0.1c0.2,0.2,0.3,0.4,0.5,0.2c0.2-0.1,0.8-0.5,0.8-0.5
			s0-0.5,0-0.6c0-0.1-0.2-0.2-0.2-0.1c0,0.1,0,0.3-0.1,0.4c-0.1,0.1-0.8,0.4-0.8,0.4s-0.3-0.1-0.5-0.2c-0.2-0.2-0.5-0.3-0.5-0.4
			c0-0.1,0.1-0.2,0.2-0.3c0.2-0.2,0.5-0.7,0.5-0.7s0.2,0.2,0.3,0.2c0.1,0,0.9-0.6,0.9-0.6l0.1-0.2l-0.5,0.3c0,0-0.2,0.1-0.2-0.1
			c0-0.2,0.3-0.4,0.3-0.4l0.5-0.4L569.5,242.2L569.5,242.2z"/>
		<path fill-rule="evenodd" clip-rule="evenodd" fill="#74B646" d="M572.6,239.1c0.2-0.1,0.3-0.1,0.4-0.3
			C572.9,238.8,572.5,239.1,572.6,239.1L572.6,239.1L572.6,239.1z M572.9,238v0.1h0.3c0-0.1,0-0.1,0.1-0.2
			C573.2,238,573,238,572.9,238L572.9,238L572.9,238z M572.8,238.5c-0.1,0-0.2,0.1-0.2,0.1c0,0.1,0.1,0.1,0.1,0.1
			c0.2,0,0.3-0.1,0.3-0.3C573,238.5,572.9,238.5,572.8,238.5L572.8,238.5L572.8,238.5z M573.1,237.6c-0.1,0-0.3,0.1-0.3,0.2
			c0,0.1,0.1,0.1,0.1,0.1c0.2,0,0.3-0.1,0.4-0.2v-0.2C573.2,237.6,573.1,237.6,573.1,237.6L573.1,237.6L573.1,237.6z M568.1,238.8
			L568.1,238.8c0,0.2,0,0.2,0.2,0.2c0.1,0,0.1-0.1,0.2-0.1C568.4,238.9,568.2,238.8,568.1,238.8L568.1,238.8L568.1,238.8z
			 M567.8,238c0,0-0.1,0.1-0.1,0.1c0,0.1,0.1,0.2,0.3,0.2l0.1,0c0-0.1,0-0.2,0-0.3C568,238,567.9,238,567.8,238L567.8,238L567.8,238
			z M570.1,235.7c-0.2,0.1-0.2,0.2-0.4,0.2c-0.2,0-0.2-0.2-0.4-0.2c-0.2,0-0.3,0.2-0.4,0.3c-0.5,0.3-0.8,0.3-1.2,0.7
			c-0.3,0.3-0.9,0.3-0.9,0.8c0,0.1,0.1,0.1,0.1,0.2c0,0.3-0.1,0.4-0.1,0.7c0,0.2,0.3,0.2,0.4,0.4c0.3,0.6,0.8,0.8,1.4,0.9
			c0.4,0,0.4,0.6,0.8,0.6c0,0,0.1-0.1,0.1-0.1c0.5,0,0.7,0.2,1.2,0.2c0.2,0,0.3-0.2,0.5-0.3c0.3-0.1,0.5-0.1,0.7-0.2
			c0.2-0.2,0.3-0.4,0.6-0.4c0.1,0,0.2,0.1,0.3,0.1c0.4,0,0.4-0.4,0.5-0.8c0.1-0.3,0.3-0.5,0.3-0.8l0-0.3c0-0.3-0.4-0.4-0.5-0.7
			c-0.1-0.4-0.2-0.9-0.6-0.9c-0.2,0-0.3,0.1-0.5,0.1c-0.2,0-0.3-0.2-0.5-0.2l-0.2,0.1C570.9,235.9,570.6,235.7,570.1,235.7
			L570.1,235.7z"/>
		<path fill-rule="evenodd" clip-rule="evenodd" fill="#EC1C24" d="M570.5,216.7c0,0,0.5,0.5,1,0.6c0.6,0.1,0.8,0.6,0.9,0.9
			c0,0.3,0.1,2.1,0.1,2.1l0,0.6c0,0-4.1-0.2-5.5,1c0,0,0.1-1.1,0.9-2.1c1.1-1.2,2.3-1.3,2.3-1.3v-2.1L570.5,216.7L570.5,216.7z"/>
		<path fill="none" stroke="#2E3191" stroke-width="0.25" stroke-miterlimit="2.6131" d="M570.5,216.7c0,0,0.5,0.5,1,0.6
			c0.6,0.1,0.8,0.6,0.9,0.9c0,0.3,0.1,2.1,0.1,2.1l0,0.6c0,0-4.1-0.2-5.5,1c0,0,0.1-1.1,0.9-2.1c1.1-1.2,2.3-1.3,2.3-1.3v-2.1
			L570.5,216.7L570.5,216.7z"/>
		
			<polygon fill-rule="evenodd" clip-rule="evenodd" fill="#D5D5D8" stroke="#2E3191" stroke-width="0.25" stroke-miterlimit="2.6131" points="
			568.4,228.7 568.1,229.7 570.2,231 572.2,229.7 571.9,228.6 568.4,228.7 		"/>
		<path fill-rule="evenodd" clip-rule="evenodd" fill="#FFFFFF" d="M573,225.5c-0.1,1-0.7,1.6-0.7,1.6l0.3,0.8c0,0-1.4,1.4-2.6,1.4
			c-1.3,0-2.5-1.4-2.5-1.4l0.4-0.8c0,0-0.7-0.1-0.8-1.4c-0.1-1.3,1.5-2.2,1.5-2.2s-0.3-1.3,0.4-2.5c0,0,1-0.2,2.3-0.2
			c0.1,0,0.7-0.8,1.5-0.8c0,0,1,0.5,1.8,2.3c0,0-0.2,1.7-1.9,2.1C572.6,224.4,573,224.9,573,225.5L573,225.5z"/>
		<path fill-rule="evenodd" clip-rule="evenodd" fill="#D5D5D8" d="M573,225.5c-0.1,1-0.7,1.6-0.7,1.6l0.3,0.8c0,0-1.4,1.4-2.6,1.4
			c-1.3,0-2.5-1.4-2.5-1.4l0.4-0.8c0,0-0.7-0.1-0.8-1.4c-0.1-1.3,1.5-2.2,1.5-2.2s-0.3-1.3,0.4-2.5c0,0,1-0.2,2.3-0.2
			c0.1,0,0.7-0.8,1.5-0.8c0,0,1,0.5,1.8,2.3c0,0-0.2,1.7-1.9,2.1C572.6,224.4,573,224.9,573,225.5L573,225.5z"/>
		<path fill-rule="evenodd" clip-rule="evenodd" fill="#FFFFFF" d="M573.3,225.9c-1.8-0.1-3.1-1.5-3.2-1.4c-1.5,1.4-3.3,1.4-3.3,1.4
			v1.4c0,0,2.6-0.2,3.3,0.6c0,0,0.3-0.8,3.1-0.6L573.3,225.9L573.3,225.9z"/>
		
			<path fill-rule="evenodd" clip-rule="evenodd" fill="#D5D5D8" stroke="#2E3191" stroke-width="0.25" stroke-miterlimit="2.6131" d="
			M573.3,225.9c-1.8-0.1-3.2-1.4-3.2-1.4c-1.5,1.4-3.3,1.4-3.3,1.4v1.4c0,0,2.6-0.2,3.3,0.6c0,0,0.3-0.8,3.1-0.6L573.3,225.9
			L573.3,225.9z"/>
		<path fill="none" stroke="#2E3191" stroke-width="0.25" stroke-miterlimit="2.6131" d="M568.6,223.5c0,0,1.4-1,3.2,0.1
			c0.6,0.4,0.9,0.7,0.9,0.7 M571.2,220.8c0,0-1,0.9-1.1,2.3 M572,223.9c0,0,0.3-0.7,1-1.2c0.7-0.5,1.4-0.7,1.6-0.4"/>
		
			<polygon fill-rule="evenodd" clip-rule="evenodd" fill="#D5D5D8" stroke="#2E3191" stroke-width="0.25" stroke-miterlimit="2.6131" points="
			568.2,229.7 566.4,231.8 570.2,232.9 573.8,231.8 572.1,229.7 568.2,229.7 		"/>
		<path fill-rule="evenodd" clip-rule="evenodd" fill="#FFFFFF" d="M565.2,232.2c0,0,0.6-0.6,1.3-0.4c0.7,0.1,3.7,1,3.7,1
			s3.3-1,3.6-1c0.3,0,0.9,0,1.2,0.4c0,0-0.8,0.1-2,0.6c-0.9,0.4-2.4,0.9-2.8,0.9c-0.4,0-1.6-0.3-3.3-1
			C565.6,232.2,565.2,232.2,565.2,232.2L565.2,232.2z"/>
		
			<path fill-rule="evenodd" clip-rule="evenodd" fill="#D5D5D8" stroke="#2E3191" stroke-width="0.25" stroke-miterlimit="2.6131" d="
			M565.2,232.2c0,0,0.6-0.6,1.3-0.4c0.7,0.1,3.7,1,3.7,1s3.3-1,3.6-1c0.3,0,0.9,0,1.2,0.4c0,0-0.8,0.1-2,0.6
			c-0.9,0.4-2.4,0.9-2.8,0.9c-0.4,0-1.6-0.3-3.3-1C565.6,232.2,565.2,232.2,565.2,232.2L565.2,232.2z"/>
		
			<path fill-rule="evenodd" clip-rule="evenodd" fill="#EC1C24" stroke="#2E3191" stroke-width="0.25" stroke-miterlimit="2.6131" d="
			M569.5,216.1c0-0.4,0.3-0.7,0.7-0.7c0.4,0,0.7,0.3,0.7,0.7c0,0.4-0.3,0.7-0.7,0.7C569.8,216.7,569.5,216.4,569.5,216.1
			L569.5,216.1z"/>
		<path fill="none" stroke="#2E3191" stroke-width="0.25" stroke-miterlimit="2.6131" d="M570.2,218.4c0.5-0.1,1.6-0.2,2.2-0.1"/>
		<path fill-rule="evenodd" clip-rule="evenodd" fill="#FFFFFF" d="M555.4,242.7l-0.6-0.3c0,0,0,0,0,0c0,0,0,0,0.1,0
			c0.1,0,0.1,0,0.2-0.1c0.1,0,0.1-0.1,0.2-0.2c0.1-0.1,0-0.3-0.1-0.4c-0.1-0.1-0.2-0.2-0.4-0.3c-0.2-0.1-0.4-0.2-0.5-0.2
			c-0.2,0-0.4,0-0.4,0.2c0,0.1-0.1,0.2,0,0.2c0,0.1,0,0.1,0,0.1c0,0,0,0.1,0,0.1c0,0,0,0,0,0l-0.5-0.2c-0.1-0.2-0.1-0.4,0-0.6
			c0.1-0.2,0.2-0.3,0.4-0.4c0.2-0.1,0.4-0.1,0.7,0c0.2,0.1,0.4,0.1,0.7,0.3c0.4,0.2,0.7,0.4,0.8,0.6c0.1,0.1,0.1,0.2,0.1,0.4
			c0,0.1,0,0.3-0.1,0.4C555.8,242.5,555.6,242.7,555.4,242.7L555.4,242.7z"/>
		<polygon fill-rule="evenodd" clip-rule="evenodd" fill="#FFFFFF" points="555.3,244 553.2,243.5 553,244 552.4,243.9 552.7,242.8 
			555.4,243.5 555.3,244 		"/>
		<path fill-rule="evenodd" clip-rule="evenodd" fill="#FFFFFF" d="M554.9,245.6l-1.8-0.3c-0.1,0-0.2,0-0.2,0
			c-0.1,0-0.1,0.1-0.1,0.1c0,0.1,0,0.2,0.1,0.2c0,0,0.1,0,0.3,0.1l1.8,0.3l-0.1,0.6l-1.9-0.3c-0.2,0-0.4-0.1-0.5-0.1
			c-0.1-0.1-0.2-0.2-0.3-0.4c0-0.1,0-0.3,0-0.4c0-0.3,0.2-0.4,0.3-0.6c0.1-0.1,0.2-0.1,0.4-0.1c0.1,0,0.2,0,0.3,0l1.9,0.3
			L554.9,245.6L554.9,245.6z"/>
		<path fill-rule="evenodd" clip-rule="evenodd" fill="#FFFFFF" d="M551.9,247.1l2.8,0.1l0,0.9c0,0.2-0.1,0.3-0.2,0.4
			c-0.1,0.1-0.3,0.1-0.5,0.1c-0.2,0-0.4-0.1-0.5-0.2c0,0-0.1-0.1-0.1-0.2c0,0.1-0.1,0.2-0.1,0.2c-0.1,0.1-0.3,0.2-0.5,0.2
			c-0.3,0-0.5-0.1-0.6-0.3c-0.1-0.1-0.2-0.3-0.1-0.5L551.9,247.1L551.9,247.1z M553.6,247.7C553.6,247.8,553.6,247.8,553.6,247.7
			c0,0.2,0.1,0.3,0.2,0.3c0.1,0,0.2,0,0.2-0.1c0,0,0-0.1,0-0.1c0,0,0,0,0-0.1L553.6,247.7L553.6,247.7z M552.5,247.7
			C552.5,247.7,552.5,247.7,552.5,247.7c0,0.2,0.1,0.4,0.3,0.4c0.1,0,0.2,0,0.2-0.1c0,0,0.1-0.1,0.1-0.2c0,0,0,0,0-0.1L552.5,247.7
			L552.5,247.7z"/>
		<path fill-rule="evenodd" clip-rule="evenodd" fill="#FFFFFF" d="M552.2,251.3l2.7-0.6l0.2,0.8c0.1,0.2,0,0.4-0.1,0.6
			c-0.1,0.1-0.3,0.2-0.4,0.3c-0.1,0.1-0.3,0.1-0.5,0.1c-0.5,0.1-0.9,0.1-1.2,0.1c-0.1,0-0.2-0.1-0.3-0.2c-0.1-0.1-0.1-0.2-0.2-0.3
			L552.2,251.3L552.2,251.3z M552.9,251.7C552.9,251.7,552.9,251.7,552.9,251.7c0.1,0.2,0.2,0.3,0.3,0.3c0.1,0,0.3,0,0.6-0.1
			c0.2-0.1,0.4-0.1,0.5-0.2c0.1-0.1,0.2-0.1,0.2-0.2c0,0,0-0.1,0-0.2c0,0,0,0,0-0.1L552.9,251.7L552.9,251.7z"/>
		<polygon fill-rule="evenodd" clip-rule="evenodd" fill="#FFFFFF" points="555.2,253.5 554.7,253.7 555,254.3 554.5,254.6 
			554.2,253.9 553.7,254.1 554,254.7 553.5,254.9 553,253.8 555.5,252.8 556,254 555.4,254.2 555.2,253.5 		"/>
		<path fill-rule="evenodd" clip-rule="evenodd" fill="#FFFFFF" d="M553.9,255.9l2.4-1.3l0.4,0.7c0.2,0.4,0.1,0.7-0.4,1
			c-0.3,0.2-0.6,0.2-0.9,0.2c-0.1,0-0.2-0.1-0.3-0.2c0,0-0.1-0.1-0.1-0.2l-0.7,0.4L553.9,255.9L553.9,255.9z M555.5,255.7
			C555.5,255.7,555.5,255.7,555.5,255.7c0.1,0.2,0.3,0.2,0.5,0.1c0.2-0.1,0.3-0.2,0.2-0.4c0,0,0,0,0-0.1L555.5,255.7L555.5,255.7z"
			/>
		<path fill-rule="evenodd" clip-rule="evenodd" fill="#FFFFFF" d="M557.9,256.8c0.2,0.3,0.3,0.5,0.1,0.8c-0.1,0.2-0.4,0.4-0.8,0.7
			c-0.3,0.2-0.6,0.4-0.8,0.4c-0.2,0-0.3,0-0.5,0c-0.1,0-0.2-0.1-0.3-0.3c-0.2-0.2-0.2-0.4-0.2-0.5c0-0.2,0.1-0.4,0.3-0.6
			c0.1-0.1,0.3-0.2,0.5-0.4c0.4-0.3,0.7-0.4,0.9-0.5C557.5,256.4,557.7,256.6,557.9,256.8L557.9,256.8L557.9,256.8z M557.4,257.2
			c-0.1-0.1-0.2-0.1-0.3,0c-0.1,0.1-0.3,0.1-0.4,0.3c-0.2,0.2-0.4,0.3-0.5,0.4c-0.1,0.1-0.1,0.2-0.1,0.3c0,0.1,0.1,0.1,0.2,0.1
			c0.1,0,0.3-0.1,0.6-0.3c0.2-0.1,0.4-0.3,0.4-0.4c0.1-0.1,0.1-0.1,0.1-0.2C557.5,257.3,557.4,257.2,557.4,257.2L557.4,257.2z"/>
		<path fill-rule="evenodd" clip-rule="evenodd" fill="#FFFFFF" d="M556.9,259.9l1.9-1.9l0.7,0.6c0.1,0,0.1,0.1,0.1,0.2
			c0,0.1,0.1,0.2,0,0.2c0,0.2-0.1,0.3-0.3,0.5c-0.2,0.2-0.3,0.3-0.5,0.3c-0.1,0-0.2,0-0.3,0l-0.5,1.1l-0.5-0.4l0.4-0.8
			c0.1-0.1,0.1-0.2,0.2-0.3l0,0c0,0,0,0-0.1,0.1c0,0-0.1,0.1-0.1,0.1l-0.6,0.6L556.9,259.9L556.9,259.9z M558.5,259.2
			C558.5,259.2,558.5,259.2,558.5,259.2c0.2,0.2,0.3,0.2,0.5,0c0.1-0.1,0.1-0.1,0.1-0.2c0,0,0-0.1-0.1-0.2c0,0,0,0-0.1,0
			L558.5,259.2L558.5,259.2z"/>
		<polygon fill-rule="evenodd" clip-rule="evenodd" fill="#FFFFFF" points="560.9,260.4 559.6,262 559.1,261.7 560.4,260.1 
			560,259.8 560.3,259.3 561.6,260.1 561.2,260.6 560.9,260.4 		"/>
		<polygon fill-rule="evenodd" clip-rule="evenodd" fill="#FFFFFF" points="562.6,260.7 561.2,262.9 560.6,262.6 562.1,260.4 
			562.6,260.7 		"/>
		<path fill-rule="evenodd" clip-rule="evenodd" fill="#FFFFFF" d="M563.1,260.9l0.6,0.3l-0.4,1.1c-0.1,0.3-0.2,0.5-0.3,0.8
			c0,0,0,0,0,0.1l0,0c0,0,0,0,0-0.1c0-0.1,0.1-0.2,0.2-0.4c0.1-0.2,0.2-0.3,0.2-0.4l0.7-1l0.6,0.3l-1.6,2.1l-0.7-0.3L563.1,260.9
			L563.1,260.9z"/>
		<path fill-rule="evenodd" clip-rule="evenodd" fill="#FFFFFF" d="M565.9,262c0.3,0.1,0.5,0.3,0.6,0.6c0,0.2,0,0.6-0.2,1
			c-0.1,0.4-0.2,0.6-0.4,0.8c-0.1,0.1-0.2,0.2-0.4,0.2c-0.1,0-0.3,0-0.4,0c-0.2-0.1-0.4-0.2-0.5-0.3c-0.1-0.2-0.1-0.4-0.1-0.7
			c0-0.2,0.1-0.3,0.1-0.5c0.1-0.4,0.3-0.7,0.4-0.9C565.3,261.9,565.6,261.9,565.9,262L565.9,262L565.9,262z M565.7,262.5
			c-0.1,0-0.2,0-0.3,0.2c-0.1,0.1-0.1,0.3-0.2,0.4c-0.1,0.2-0.1,0.4-0.1,0.6c0,0.2,0,0.3,0.1,0.3c0.1,0,0.1,0,0.2-0.1
			c0.1-0.1,0.2-0.3,0.3-0.6c0.1-0.2,0.1-0.4,0.1-0.5c0-0.1,0-0.1,0-0.2C565.8,262.6,565.8,262.6,565.7,262.5L565.7,262.5z"/>
		<path fill-rule="evenodd" clip-rule="evenodd" fill="#FFFFFF" d="M570.2,263.9l-0.1,1.1c-0.1,0.1-0.2,0.1-0.2,0.1
			c-0.2,0.1-0.3,0.1-0.5,0.1c-0.4,0-0.6-0.2-0.7-0.4c-0.1-0.2-0.1-0.6-0.1-1c0-0.4,0.1-0.7,0.2-0.9c0.1-0.1,0.2-0.2,0.3-0.3
			c0.1,0,0.3-0.1,0.4-0.1c0.3,0,0.5,0.1,0.6,0.3l0,0.6c0,0,0,0,0,0c0,0,0,0,0-0.1c0-0.1-0.1-0.1-0.2-0.2c-0.1-0.1-0.2-0.1-0.3-0.1
			c-0.2,0-0.3,0.1-0.4,0.3c0,0.1-0.1,0.3-0.1,0.6c0,0.3,0,0.5,0,0.6c0,0.1,0.1,0.1,0.2,0.1c0,0,0.1,0,0.1,0l0-0.8L570.2,263.9
			L570.2,263.9z"/>
		<path fill-rule="evenodd" clip-rule="evenodd" fill="#FFFFFF" d="M571.7,262.5l0.3,1.7c0,0.1,0,0.2,0.1,0.2c0,0.1,0.1,0.1,0.2,0.1
			c0.1,0,0.2-0.1,0.2-0.1c0,0,0-0.1,0-0.2l-0.3-1.7l0.6-0.1l0.3,1.8c0,0.2,0,0.4,0,0.5c0,0.2-0.1,0.3-0.3,0.4
			c-0.1,0.1-0.2,0.1-0.4,0.1c-0.3,0-0.5,0-0.7-0.1c-0.1-0.1-0.2-0.2-0.2-0.3c0-0.1,0-0.2-0.1-0.3l-0.3-1.8L571.7,262.5L571.7,262.5z
			"/>
		<path fill-rule="evenodd" clip-rule="evenodd" fill="#FFFFFF" d="M574.8,263.9l-0.4,0.1l0.1,0.6l-0.6,0.2l-0.3-2.6l0.9-0.3
			l1.2,2.4l-0.6,0.2L574.8,263.9L574.8,263.9z M574.6,263.4l-0.3-0.6c0-0.1-0.1-0.2-0.1-0.3l0,0c0,0.1,0.1,0.2,0.1,0.3l0.1,0.6
			L574.6,263.4L574.6,263.4z"/>
		<path fill-rule="evenodd" clip-rule="evenodd" fill="#FFFFFF" d="M576.7,264l-1.2-2.3l0.8-0.4c0.2-0.1,0.5-0.1,0.6,0
			c0.1,0.1,0.3,0.2,0.4,0.3c0.1,0.1,0.2,0.3,0.3,0.4c0.2,0.4,0.3,0.8,0.3,1.1c0,0.1-0.1,0.2-0.1,0.3c-0.1,0.1-0.2,0.2-0.3,0.2
			L576.7,264L576.7,264z M577,263.3C577,263.3,577.1,263.3,577,263.3c0.2-0.1,0.3-0.2,0.3-0.4c0-0.1-0.1-0.3-0.2-0.5
			c-0.1-0.2-0.2-0.3-0.3-0.4c-0.1-0.1-0.2-0.1-0.3-0.1c0,0-0.1,0-0.2,0c0,0,0,0-0.1,0L577,263.3L577,263.3z"/>
		<path fill-rule="evenodd" clip-rule="evenodd" fill="#FFFFFF" d="M579.4,262l-0.3,0.2l0.3,0.6l-0.5,0.3l-1-2.5l0.8-0.5l1.8,2
			l-0.6,0.3L579.4,262L579.4,262z M579.1,261.6l-0.4-0.5c-0.1-0.1-0.1-0.2-0.2-0.3l0,0c0.1,0.1,0.1,0.2,0.2,0.3l0.3,0.6L579.1,261.6
			L579.1,261.6z"/>
		<polygon fill-rule="evenodd" clip-rule="evenodd" fill="#FFFFFF" points="579.9,259.3 581.2,260.9 581.6,260.6 582,261.1 
			581,261.7 579.4,259.7 579.9,259.3 		"/>
		<path fill-rule="evenodd" clip-rule="evenodd" fill="#FFFFFF" d="M583,259.2l-0.3,0.3l0.4,0.5l-0.4,0.4l-1.8-2.1l0.7-0.7l2.4,1.4
			l-0.4,0.5L583,259.2L583,259.2z M582.5,258.9l-0.6-0.3c-0.1-0.1-0.2-0.1-0.3-0.2l0,0c0.1,0.1,0.2,0.2,0.2,0.2l0.4,0.5L582.5,258.9
			L582.5,258.9z"/>
		<path fill-rule="evenodd" clip-rule="evenodd" fill="#FFFFFF" d="M582.8,256.3l1.7,1.2c0.2,0.1,0.3,0.2,0.3,0.4
			c0.1,0.2,0,0.4-0.1,0.5c-0.1,0.1-0.3,0.2-0.4,0.3l-0.4-0.3c0,0,0,0,0,0c0,0,0,0,0.1,0c0.1,0,0.2-0.1,0.2-0.1
			c0.1-0.1,0.1-0.2,0-0.2c0,0-0.1-0.1-0.1-0.1l-0.1-0.1l-1.4-1L582.8,256.3L582.8,256.3z"/>
		<path fill-rule="evenodd" clip-rule="evenodd" fill="#FFFFFF" d="M585.5,256.1l-0.2,0.3l0.5,0.4l-0.3,0.5l-2.1-1.7l0.5-0.8l2.6,1
			l-0.3,0.5L585.5,256.1L585.5,256.1z M584.9,255.8l-0.6-0.2c-0.1,0-0.2-0.1-0.3-0.1l0,0c0.1,0.1,0.2,0.1,0.3,0.2l0.5,0.4
			L584.9,255.8L584.9,255.8z"/>
		<path fill-rule="evenodd" clip-rule="evenodd" fill="#FFFFFF" d="M586.9,254.8l-2.6-0.9l0.3-0.8c0-0.1,0.1-0.1,0.1-0.2
			c0.1-0.1,0.1-0.1,0.2-0.1c0.2-0.1,0.4,0,0.6,0c0.2,0.1,0.4,0.2,0.5,0.3c0.1,0.1,0.1,0.2,0.1,0.3l1.3,0l-0.2,0.6l-0.9,0
			c-0.1,0-0.3,0-0.3,0l0,0c0,0,0.1,0,0.1,0c0.1,0,0.1,0,0.1,0l0.9,0.3L586.9,254.8L586.9,254.8z M585.5,253.8
			C585.6,253.7,585.6,253.7,585.5,253.8c0.1-0.2,0-0.3-0.2-0.4c-0.1,0-0.2,0-0.2,0c0,0-0.1,0.1-0.1,0.2c0,0,0,0,0,0.1L585.5,253.8
			L585.5,253.8z"/>
		<path fill-rule="evenodd" clip-rule="evenodd" fill="#FFFFFF" d="M587.2,251.7l-0.1,0.4l0.6,0.2l-0.2,0.6l-2.6-1l0.2-0.9l2.8,0.2
			l-0.2,0.6L587.2,251.7L587.2,251.7z M586.6,251.6l-0.7-0.1c-0.1,0-0.2,0-0.3,0l0,0c0.1,0,0.2,0.1,0.3,0.1l0.6,0.2L586.6,251.6
			L586.6,251.6z"/>
		<path fill-rule="evenodd" clip-rule="evenodd" fill="#FFFFFF" d="M587.6,250.3l0.1-0.5c0.1,0,0.1,0,0.1,0c0.2,0,0.4,0.1,0.6,0.2
			c0.1,0,0.2,0.1,0.3,0.2l-0.1,0.4c-0.3-0.1-0.6-0.2-0.9-0.3C587.7,250.3,587.6,250.3,587.6,250.3L587.6,250.3z"/>
		<path fill-rule="evenodd" clip-rule="evenodd" fill="#FFFFFF" d="M587.4,245.1l0.1,0.4l0.7,0l0.1,0.6l-2.8,0l-0.2-0.9l2.7-0.8
			l0.1,0.6L587.4,245.1L587.4,245.1z M586.8,245.2l-0.6,0.2c-0.1,0-0.2,0.1-0.3,0.1l0,0c0.1,0,0.3,0,0.4,0l0.7,0L586.8,245.2
			L586.8,245.2z"/>
		<path fill-rule="evenodd" clip-rule="evenodd" fill="#FFFFFF" d="M587.1,243.3c0-0.1,0-0.2,0-0.3c0,0,0.1-0.1,0.2-0.1
			c0.2-0.1,0.3,0,0.4,0.2c0.1,0.2,0,0.3-0.2,0.4C587.3,243.6,587.1,243.5,587.1,243.3L587.1,243.3z"/>
		<path fill-rule="evenodd" clip-rule="evenodd" fill="#FFFFFF" d="M584.4,241.8l0.6-0.2c0,0,0,0,0,0c0,0,0,0,0,0.1
			c0,0-0.1,0.1-0.1,0.2c0,0.1,0,0.2,0,0.2c0.1,0.1,0.2,0.2,0.3,0.2c0.1,0,0.3,0,0.5-0.1c0.2-0.1,0.4-0.2,0.5-0.2
			c0.2-0.1,0.2-0.3,0.2-0.4c0-0.1-0.1-0.1-0.2-0.2c-0.1,0-0.1-0.1-0.1-0.1c0,0-0.1,0-0.1,0c0,0,0,0,0,0l0.5-0.2
			c0.2,0.1,0.4,0.2,0.4,0.4c0.1,0.2,0.1,0.4,0,0.5c-0.1,0.2-0.2,0.3-0.5,0.5c-0.2,0.1-0.4,0.2-0.7,0.3c-0.4,0.1-0.8,0.2-1,0.2
			c-0.1,0-0.2-0.1-0.3-0.2c-0.1-0.1-0.2-0.2-0.2-0.3C584.3,242.1,584.3,242,584.4,241.8L584.4,241.8z"/>
		<path fill-rule="evenodd" clip-rule="evenodd" fill="#FFFFFF" d="M585.7,240.2c0-0.1-0.1-0.2,0-0.3c0,0,0.1-0.1,0.2-0.1
			c0.2-0.1,0.3,0,0.4,0.1c0.1,0.2,0,0.3-0.2,0.4C585.9,240.4,585.8,240.4,585.7,240.2L585.7,240.2z"/>
		<polygon fill-rule="evenodd" clip-rule="evenodd" fill="#EC1C24" points="570.2,269.1 571,271.3 573.4,271.3 571.4,272.6 
			572.2,274.8 570.2,273.5 568.2,274.8 569,272.6 567,271.3 569.4,271.3 570.2,269.1 		"/>
		<polygon fill-rule="evenodd" clip-rule="evenodd" fill="#0066A2" points="561.8,268.6 562,270.2 563.7,270.5 562.2,271.2 
			562.4,272.8 561.2,271.6 559.7,272.3 560.5,270.9 559.3,269.8 561,270 561.8,268.6 		"/>
		<polygon fill-rule="evenodd" clip-rule="evenodd" fill="#0066A2" points="578.7,268.6 578.5,270.2 576.7,270.5 578.3,271.2 
			578,272.8 579.3,271.6 580.8,272.3 580,270.9 581.2,269.8 579.5,270 578.7,268.6 		"/>
		<polygon fill-rule="evenodd" clip-rule="evenodd" fill="#0066A2" points="585.6,264.7 586.1,266.2 584.8,267.2 586.5,267.1 
			587.1,268.7 587.6,267.1 589.3,267.1 587.9,266.2 588.4,264.6 587,265.6 585.6,264.7 		"/>
		<polygon fill-rule="evenodd" clip-rule="evenodd" fill="#0066A2" points="555,264.7 554.4,266.2 555.8,267.2 554,267.1 
			553.5,268.7 553,267.1 551.2,267.1 552.7,266.2 552.2,264.6 553.5,265.6 555,264.7 		"/>
		<polygon fill-rule="evenodd" clip-rule="evenodd" fill="#0066A2" points="549.8,259.2 548.7,260.4 549.6,261.8 548,261.1 
			546.9,262.4 547,260.8 545.4,260.2 547.1,259.8 547.3,258.2 548.2,259.5 549.8,259.2 		"/>
		<polygon fill-rule="evenodd" clip-rule="evenodd" fill="#0066A2" points="590.6,259.2 591.7,260.4 590.8,261.8 592.4,261.1 
			593.5,262.4 593.4,260.8 595,260.2 593.3,259.8 593.2,258.2 592.3,259.5 590.6,259.2 		"/>
		<polygon fill-rule="evenodd" clip-rule="evenodd" fill="#0066A2" points="593.3,252.2 594.8,253 594.5,254.6 595.8,253.5 
			597.3,254.2 596.6,252.8 597.8,251.7 596.1,251.9 595.4,250.4 595,252 593.3,252.2 		"/>
		<polygon fill-rule="evenodd" clip-rule="evenodd" fill="#0066A2" points="593.4,245.1 595.1,245.2 595.5,246.8 596.2,245.3 
			597.9,245.4 596.6,244.4 597.3,242.9 595.8,243.7 594.5,242.7 594.9,244.2 593.4,245.1 		"/>
		<polygon fill-rule="evenodd" clip-rule="evenodd" fill="#0066A2" points="547,252.2 545.5,253 545.8,254.6 544.5,253.5 543,254.2 
			543.8,252.8 542.5,251.7 544.2,251.9 545,250.4 545.3,252 547,252.2 		"/>
		<polygon fill-rule="evenodd" clip-rule="evenodd" fill="#0066A2" points="547.1,245.1 545.4,245.2 545,246.8 544.3,245.3 
			542.6,245.4 543.9,244.4 543.2,242.9 544.7,243.7 546,242.7 545.6,244.2 547.1,245.1 		"/>
	</g>
</g>
</svg>
