<?xml version="1.0" encoding="utf-8"?>
<!-- Generator: Adobe Illustrator 18.1.0, SVG Export Plug-In . SVG Version: 6.00 Build 0)  -->
<!DOCTYPE svg PUBLIC "-//W3C//DTD SVG 1.1//EN" "http://www.w3.org/Graphics/SVG/1.1/DTD/svg11.dtd">
<svg version="1.1" id="Layer_1" xmlns="http://www.w3.org/2000/svg" xmlns:xlink="http://www.w3.org/1999/xlink" x="0px" y="0px"
	 viewBox="0 0 520 389" enable-background="new 0 0 520 389" xml:space="preserve">
<g>
	<g>
		<rect x="165.9" y="81.6" fill="#ECC7A5" width="226" height="302"/>
		<path fill="#9E5C26" d="M388.9,84.6v296h-220v-296H388.9 M394.9,78.6h-232v308h232V78.6L394.9,78.6z"/>
	</g>
	<rect x="162.9" y="386.6" fill="#382216" width="232" height="2"/>
	<path fill="#327678" d="M229.6,223v98.3h97V223l8.7,15.3l31.3-17.7l-26.3-58.3c0,0-23-12-43.7-18L280,167.5l-20-23.2
		c0,0-27.7,8.3-43.7,19l-25,57l31,19.3L229.6,223z"/>
	<polyline fill="#3B8282" points="222.3,239.3 225.3,232.4 193.8,214.1 191.3,219.9 222.3,239.3 	"/>
	<polyline fill="#3B8282" points="332.2,232.6 335.3,238.1 366.6,220.5 364.3,215.2 332.2,232.6 	"/>
	<rect x="229.6" y="314.8" fill="#3B8282" width="97" height="6.5"/>
	<polygon fill="#3B8282" points="281.1,165.9 293.3,172.2 305.5,147.2 296.6,144.3 	"/>
	<polygon fill="#3B8282" points="278.2,165.5 263.4,172.2 251.2,147.2 260.1,144.3 	"/>
	<polygon fill="#2A6868" points="281.1,165.9 293.3,172.2 305.5,147.2 294.4,178 	"/>
	<polygon fill="#2A6868" points="278.2,165.5 263.4,172.2 251.2,147.2 263.4,178 	"/>
	<polygon fill="#3B8282" points="278.2,165.5 278.2,188.7 282,188.7 282,164.6 280,167.5 	"/>
	<g>
		<g>
			<rect x="303.8" y="190.1" fill="#1A592A" width="12.9" height="20.8"/>
			<rect x="304.4" y="191" fill="#EEEB6A" width="11.6" height="5.5"/>
			<polygon fill="#FFFFFF" points="304.4,210.3 316,210.3 316,197.1 312.7,197.1 			"/>
			<circle fill="#EEEB6A" cx="307.1" cy="200" r="2.7"/>
		</g>
		<polygon fill="#EEEB6A" points="310.7,212.6 311.5,212.8 310.9,213.4 311,214.3 310.2,213.8 309.4,214.3 309.6,213.4 308.9,212.7 
			309.8,212.6 310.3,211.8 		"/>
		<polygon fill="#EEEB6A" points="313.3,212.4 314.2,212.5 313.5,213.1 313.6,214 312.8,213.6 312,214 312.2,213.1 311.5,212.5 
			312.5,212.3 312.9,211.5 		"/>
		<polygon fill="#EEEB6A" points="315.8,212.1 316.7,212.2 316,212.8 316.2,213.7 315.4,213.3 314.5,213.7 314.7,212.8 314.1,212.2 
			315,212.1 315.4,211.3 		"/>
		<polygon fill="#EEEB6A" points="307.2,212.2 306.3,212.4 307,213 306.9,213.9 307.7,213.4 308.5,213.9 308.3,213 308.9,212.3 
			308,212.2 307.6,211.4 		"/>
		<polygon fill="#EEEB6A" points="304.7,211.9 303.8,212.1 304.5,212.7 304.3,213.6 305.1,213.2 305.9,213.6 305.8,212.7 306.4,212 
			305.5,211.9 305.1,211.1 		"/>
		<polygon fill="#EEEB6A" points="311.9,187.7 312.8,187.9 312.1,188.5 312.3,189.4 311.5,189 310.6,189.4 310.8,188.5 310.2,187.8 
			311.1,187.7 311.5,186.9 		"/>
		<polygon fill="#EEEB6A" points="308,187.7 308.9,187.9 308.3,188.5 308.4,189.4 307.6,189 306.8,189.4 307,188.5 306.3,187.8 
			307.2,187.7 307.7,186.9 		"/>
	</g>
	<path opacity="0.13" fill="#231F20" d="M280,167.5l-20-23.2c0,0-27.7,8.3-43.7,19l-25,57l31,19.3l7.3-16.7v98.3h48.8"/>
	<g opacity="0.24">
		<linearGradient id="SVGID_1_" gradientUnits="userSpaceOnUse" x1="162.8877" y1="227.6413" x2="394.8877" y2="227.6413">
			<stop  offset="0" style="stop-color:#FFFFFF"/>
			<stop  offset="1" style="stop-color:#FFFFFF;stop-opacity:0"/>
		</linearGradient>
		<polygon fill="url(#SVGID_1_)" points="162.9,376.6 162.9,78.6 394.9,78.6 		"/>
	</g>
	<g>
		
			<linearGradient id="SVGID_2_" gradientUnits="userSpaceOnUse" x1="-14849.0293" y1="6043.2954" x2="-14849.0293" y2="6151.7266" gradientTransform="matrix(-0.8009 0.256 -0.3045 -0.9525 -9971.293 9969.5947)">
			<stop  offset="0" style="stop-color:#FFFFFF"/>
			<stop  offset="1" style="stop-color:#FFFFFF;stop-opacity:0"/>
		</linearGradient>
		<path fill="url(#SVGID_2_)" d="M11.3,305.7c-16.2-50.8-14.9-96.6,3.1-102.3c17.9-5.7,45.6,30.8,61.8,81.6s14.9,96.6-3.1,102.3
			C55.2,393,27.6,356.5,11.3,305.7z"/>
		
			<linearGradient id="SVGID_3_" gradientUnits="userSpaceOnUse" x1="-10856.707" y1="10618.9512" x2="-10856.707" y2="10727.3828" gradientTransform="matrix(-0.7473 -0.3853 0.4582 -0.8888 -12931.6348 5659.5161)">
			<stop  offset="0" style="stop-color:#FFFFFF"/>
			<stop  offset="1" style="stop-color:#FFFFFF;stop-opacity:0"/>
		</linearGradient>
		<path fill="url(#SVGID_3_)" d="M73.7,279.7c24.4-47.4,57.8-78.8,74.5-70.2s10.5,54-13.9,101.4s-57.8,78.8-74.5,70.2
			S49.3,327.1,73.7,279.7z"/>
	</g>
	<g>
		<rect x="35.7" y="380.5" fill="#9E5C26" width="107.4" height="6.9"/>
		<rect x="35.6" y="386.6" fill="#382216" width="107.5" height="2"/>
		<polygon fill="#7F4921" points="53.1,387.4 35.7,387.4 35.7,380.5 73.1,380.5 		"/>
	</g>
	<g>
		<circle fill="#D3D3D3" cx="89.3" cy="274.1" r="22.9"/>
		<path opacity="8.000000e-02" fill="#00101F" d="M89.3,251.2c12.7,0,22.9,10.3,22.9,22.9S102,297,89.3,297"/>
		<g>
			<path d="M109.1,352.4H89.3H69.6c0,0-6.4,19.3-5.4,22.7c0.9,3.4,25.2,3.9,25.2,3.9s24.3-0.5,25.2-3.9S109.1,352.4,109.1,352.4z"/>
			<ellipse fill="#1E1E1E" cx="89.3" cy="352.4" rx="19.8" ry="2.5"/>
		</g>
		<path fill="#C6C6C6" d="M99,333.1l3.5-41.2c0-16-13.2-13.8-13.2-13.8s-13.2-2.2-13.2,13.8l3.5,41.2l-2.8,11.8v6.3
			c0,0,4.8,1.2,12.4,1.2c7.4,0,12.6-1.2,12.6-1.2v-6.3L99,333.1z"/>
		<path fill="#BABABA" d="M76.9,344.9c0,0,9.3,0.3,12.4,0.3c3.1,0,12.6-0.3,12.6-0.3v6.3c0,0-4.9,1.2-12.2,1.2
			c-8.3,0-12.8-1.2-12.8-1.2V344.9z"/>
		<path opacity="6.000000e-02" fill="#00101F" d="M89.3,352.4c7.4,0,12.6-1.2,12.6-1.2v-6.3L99,333.1l3.5-41.2
			c0-16-13.2-13.8-13.2-13.8"/>
	</g>
	
		<linearGradient id="SVGID_4_" gradientUnits="userSpaceOnUse" x1="892.8612" y1="1541.3209" x2="892.8612" y2="1746.073" gradientTransform="matrix(0.9683 -0.2499 0.2499 0.9683 -1179.8436 -1306.7714)">
		<stop  offset="0" style="stop-color:#FFFFFF"/>
		<stop  offset="1" style="stop-color:#FFFFFF;stop-opacity:0"/>
	</linearGradient>
	<path fill="url(#SVGID_4_)" d="M201.6,167.1c25.1,97.5,12.4,185-28.5,195.6S78.6,302.8,53.5,205.3S41.1,20.3,82,9.7
		S176.5,69.6,201.6,167.1z"/>
	
		<linearGradient id="SVGID_5_" gradientUnits="userSpaceOnUse" x1="-1001.0368" y1="-1702.3346" x2="-1001.0368" y2="-1497.5824" gradientTransform="matrix(0.959 0.2834 -0.2834 0.959 972.9218 1885.9211)">
		<stop  offset="0" style="stop-color:#FFFFFF"/>
		<stop  offset="1" style="stop-color:#FFFFFF;stop-opacity:0"/>
	</linearGradient>
	<path fill="url(#SVGID_5_)" d="M503.2,212.9c-28.5,96.5-84.5,165.1-125,153.1s-50.2-99.9-21.7-196.4S441,4.5,481.5,16.4
		S531.8,116.4,503.2,212.9z"/>
	
		<linearGradient id="SVGID_6_" gradientUnits="userSpaceOnUse" x1="-1236.5875" y1="-1872.3612" x2="-1236.5875" y2="-1667.6091" gradientTransform="matrix(0.9495 0.3139 -0.3139 0.9495 1029.9365 2121.2751)">
		<stop  offset="0" style="stop-color:#FFFFFF"/>
		<stop  offset="1" style="stop-color:#FFFFFF;stop-opacity:0"/>
	</linearGradient>
	<path fill="url(#SVGID_6_)" d="M443.7,198.7c-31.6,95.6-89.7,162.3-129.8,149c-40.1-13.3-47-101.5-15.4-197s89.7-162.3,129.8-149
		S475.3,103.2,443.7,198.7z"/>
	
		<linearGradient id="SVGID_7_" gradientUnits="userSpaceOnUse" x1="1299.8413" y1="3217.0581" x2="1299.8413" y2="3421.8103" gradientTransform="matrix(0.8933 -0.4494 0.4494 0.8933 -2507.2478 -2329.3232)">
		<stop  offset="0" style="stop-color:#FFFFFF"/>
		<stop  offset="1" style="stop-color:#FFFFFF;stop-opacity:0"/>
	</linearGradient>
	<path fill="url(#SVGID_7_)" d="M271.9,132.3c45.2,89.9,51.3,178.2,13.6,197.2c-37.7,19-105-38.5-150.2-128.4S83.9,22.9,121.6,3.9
		S226.7,42.4,271.9,132.3z"/>
</g>
</svg>
