<?xml version="1.0" encoding="utf-8"?>
<!-- Generator: Adobe Illustrator 18.1.0, SVG Export Plug-In . SVG Version: 6.00 Build 0)  -->
<!DOCTYPE svg PUBLIC "-//W3C//DTD SVG 1.1//EN" "http://www.w3.org/Graphics/SVG/1.1/DTD/svg11.dtd">
<svg version="1.1" id="Layer_1" xmlns="http://www.w3.org/2000/svg" xmlns:xlink="http://www.w3.org/1999/xlink" x="0px" y="0px"
	 viewBox="0 0 49 10" enable-background="new 0 0 49 10" xml:space="preserve">
<g>
	<polygon fill-rule="evenodd" clip-rule="evenodd" fill="#002A5E" points="14.1,0.5 14.1,2.5 15.6,2.5 15.6,9.4 17.9,9.4 17.9,2.5 
		19.4,2.5 19.4,0.5 14.1,0.5 	"/>
	<polygon fill-rule="evenodd" clip-rule="evenodd" fill="#002A5E" points="19.9,0.5 25,0.5 25,2.5 22.3,2.5 22.3,3.9 24.5,3.9 
		24.5,5.9 22.3,5.9 22.3,7.3 25,7.3 25,9.4 19.9,9.4 19.9,0.5 	"/>
	<polygon fill-rule="evenodd" clip-rule="evenodd" fill="#002A5E" points="43.3,0.5 48.4,0.5 48.4,2.5 45.7,2.5 45.7,3.9 47.9,3.9 
		47.9,5.9 45.7,5.9 45.7,7.3 48.4,7.3 48.4,9.4 43.3,9.4 43.3,0.5 	"/>
	<polygon fill-rule="evenodd" clip-rule="evenodd" fill="#002A5E" points="34.8,9.4 34.8,0.5 32.5,0.5 32.5,9.4 34.8,9.4 	"/>
	<polygon fill-rule="evenodd" clip-rule="evenodd" fill="#002A5E" points="35.5,0.5 35.5,9.4 37.8,9.4 37.8,5.3 39.9,9.4 42.5,9.4 
		42.5,0.5 40.1,0.5 40.1,5 37.9,0.5 35.5,0.5 	"/>
	<polygon fill-rule="evenodd" clip-rule="evenodd" fill="#002A5E" points="7.5,9.4 7.5,0.5 5.2,0.5 5.2,9.4 7.5,9.4 	"/>
	<polygon fill-rule="evenodd" clip-rule="evenodd" fill="#002A5E" points="0,0 2.4,0 2.4,7.3 4.7,7.3 4.7,9.4 0,9.4 0,0 	"/>
	<path fill-rule="evenodd" clip-rule="evenodd" fill="#002A5E" d="M27.8,2.5l1,0c0.6,0,1,0.5,1,1c0,0.6-0.4,1-1,1h-1V2.5L27.8,2.5z
		 M27.8,5.1l2.1,4.3h2.6l-1.8-3.7c0.8-0.5,1.4-1.4,1.4-2.4c0-1.5-1.3-2.8-2.8-2.8h-3.9v8.9h2.4V5.1L27.8,5.1z"/>
	<path fill-rule="evenodd" clip-rule="evenodd" fill="#002A5E" d="M8.8,5c0.5,0.5,1.9,1,2.5,1.1C11.9,6.3,12,6.8,12,7
		c0,0.2-0.2,0.7-0.8,0.7c-0.7,0-0.9-0.5-0.9-1.2H7.9c0,1.4,0.7,3,3.2,3c2.4,0,3.5-1.6,3.4-2.7c0-1.1-0.5-2-1.8-2.5
		c-1.3-0.5-1.5-0.6-1.9-0.7c-0.4-0.2-0.5-0.6-0.5-0.9c0-0.2,0.4-0.6,0.8-0.6c0.4,0,0.8,0.3,0.8,1h2.3c0-1.1-0.7-2.8-3.2-2.8
		c-2.4,0-3.2,1.8-3.2,2.5C7.9,3.4,8,4.3,8.8,5L8.8,5z"/>
</g>
</svg>
