<?xml version="1.0" encoding="utf-8"?>
<!-- Generator: Adobe Illustrator 18.1.0, SVG Export Plug-In . SVG Version: 6.00 Build 0)  -->
<!DOCTYPE svg PUBLIC "-//W3C//DTD SVG 1.1//EN" "http://www.w3.org/Graphics/SVG/1.1/DTD/svg11.dtd">
<svg version="1.1" id="Layer_1" xmlns="http://www.w3.org/2000/svg" xmlns:xlink="http://www.w3.org/1999/xlink" x="0px" y="0px"
	 viewBox="0 0 2104 470" enable-background="new 0 0 2104 470" xml:space="preserve">
<g>
	<defs>
		<rect id="SVGID_1_" x="817" width="470" height="473.3"/>
	</defs>
	<clipPath id="SVGID_2_">
		<use xlink:href="#SVGID_1_"  overflow="visible"/>
	</clipPath>
	
		<linearGradient id="SVGID_3_" gradientUnits="userSpaceOnUse" x1="360.3" y1="-257.6" x2="360.3" y2="481.9" gradientTransform="matrix(0.6528 0 0 -0.6528 817 306.8056)">
		<stop  offset="0" style="stop-color:#FFFFFF"/>
		<stop  offset="0.6878" style="stop-color:#7CD7FF"/>
	</linearGradient>
	<rect x="811.4" y="-7.8" clip-path="url(#SVGID_2_)" fill="url(#SVGID_3_)" width="481.6" height="482.7"/>
	<path clip-path="url(#SVGID_2_)" fill="#EFB789" d="M986.2,147.3l-0.4,0.1c-8.7-22.6-34-34-56.5-25.4c-22.5,8.6-33.6,34-24.9,56.6
		l-0.9,0.3L950.4,301l82.7-31.8L986.2,147.3z"/>
	
		<path clip-path="url(#SVGID_2_)" fill="none" stroke="#FFFFFF" stroke-width="14" stroke-linecap="round" stroke-miterlimit="10" d="
		M868.6,259.3"/>
	<path clip-path="url(#SVGID_2_)" fill="#EFB789" d="M1009.8,273.8c15.7,12.3,34,22.1,53,28.3c33.6,11.1,70.7,6.9,94.8-20.9
		c20.6-23.7,29.5-55.4,34.5-85.7c1-6.2-1.6-12.5-8.2-14.4c-5.5-1.5-13.3,1.9-14.4,8.2c-4.2,25.9-10.6,50.3-25.5,71.7
		c-1.4,2.1,0.1,0-1,1.4c-0.7,0.8-1.3,1.6-2,2.3c-1.5,1.7-3.1,3.4-4.7,5c-1.6,1.5-3.2,2.9-4.9,4.3c1.6-1.2,0.3-0.3-0.5,0.3
		c-1,0.7-1.9,1.3-2.9,2c-1.6,1-3.1,1.9-4.8,2.8c-0.8,0.5-1.8,0.8-2.6,1.3c-0.4,0.2-0.8,0.3-1.1,0.5c-1.4,0.7,2-0.8,0.5-0.2
		c-3.4,1.2-6.9,2.4-10.4,3.1c-0.9,0.2-1.8,0.3-2.7,0.5c-2.7,0.6,1.6-0.1-0.4,0.1c-1.8,0.1-3.7,0.3-5.5,0.4
		c-3.5,0.1-7.1,0.1-10.5-0.3c-0.9-0.1-1.8-0.2-2.7-0.3c-2.2-0.2,2.2,0.4,0,0c-1.8-0.3-3.6-0.6-5.4-1c-3.5-0.7-7-1.6-10.4-2.6
		c-3.2-1-6.4-2.1-9.5-3.3c-1.1-0.4-5.4-2.2-2.3-0.8c-1.5-0.7-3-1.3-4.5-2c-5.3-2.4-10.4-5.2-15.5-8.1c-4-2.4-8-4.9-11.9-7.6
		c-1.5-1-7.1-5.4-2.3-1.6c-5-3.9-11.7-4.8-16.5,0C1005.7,261.3,1004.8,269.9,1009.8,273.8L1009.8,273.8z"/>
	<path clip-path="url(#SVGID_2_)" fill="#E8E8E4" d="M1077.4,266.5c0,0,10.9,12.1,23.3,8.9c0,0,14.8,15.5,4.2,40.8
		c0,0-22.9,5.8-32.6-6.2L1077.4,266.5z"/>
	<path opacity="0.1" clip-path="url(#SVGID_2_)" enable-background="new    " d="M1091.8,275.3c-7.2-2.1-14.4-8.8-14.4-8.8l-5,43.5
		c4.8,5.9,12.9,7.5,19.5,7.6V275.3L1091.8,275.3z"/>
	<polyline clip-path="url(#SVGID_2_)" fill="#FFFFFF" points="996.8,231.9 994.5,207.9 1010.5,229.8 	"/>
	<polyline clip-path="url(#SVGID_2_)" fill="#FFFFFF" points="979.9,233.5 981.4,212.7 992.9,232.7 	"/>
	<path clip-path="url(#SVGID_2_)" fill="#FFFFFF" d="M967.1,232.9c-0.2-0.6,2.3-14.2,2.3-14.2l8.7,16"/>
	<polyline clip-path="url(#SVGID_2_)" fill="#FFFFFF" points="955.7,232.1 957.5,223.7 963,232.9 	"/>
	<polyline clip-path="url(#SVGID_2_)" fill="#FFFFFF" points="992.5,184.1 999.8,205.4 1000.6,186 	"/>
	<polyline clip-path="url(#SVGID_2_)" fill="#FFFFFF" points="977.4,186.6 988.2,205.8 990.1,184.4 	"/>
	<polyline clip-path="url(#SVGID_2_)" fill="#FFFFFF" points="964.3,192.1 973.7,210.4 974.6,187.9 	"/>
	<polyline clip-path="url(#SVGID_2_)" fill="#FFFFFF" points="956.6,203.3 964.5,214 962.8,195.1 	"/>
	<polyline clip-path="url(#SVGID_2_)" fill="#FFFFFF" points="953.2,214.7 960.3,218.2 955.7,206.9 	"/>
	<path clip-path="url(#SVGID_2_)" fill="#161515" d="M913.2,204.2c0,0-19.8-67.1,21.5-77.2c0,0,31.3-8.6,48.4,14.6
		c0,0-14.6-26.4-36.4-26.8l-13.6-0.8l-18.6,0.9l-8.1,10.1l-3.5,6.1l-9.1,10.6c0,0-9.6,21.5,3,45.4c1.3,2.5,7,8.6,7,8.6"/>
	<path clip-path="url(#SVGID_2_)" fill="#161515" d="M909.8,199.6l3,4.6c0,0-12.9-75.1,24.9-73.6c0,0,5.2-7.7,24.2-3.5
		c0,0-33.9-13.4-45.5-2.7c0,0-20.4,35.4-15.8,50.1"/>
	<path clip-path="url(#SVGID_2_)" fill="#E8E8E4" d="M1073.9,245.4c0,0-24.5,0-54.2,0c-0.6,0-1.2,0-1.8,0l-28,23.4l-55.7-23.4
		c-1.6,0-3.1,0-4.6,0c-9.7,0-38.9,0-38.9,0c-6.3,0-11.4,5.9-11.4,14.2L926,508.2c0,8.2,5.1,14.7,11.4,14.7h104.8
		c6.3,0,11-6.5,11-14.7l31.8-248.4C1085,251.6,1080.2,245.4,1073.9,245.4z"/>
	<polygon clip-path="url(#SVGID_2_)" fill="#FFFFFF" points="935.3,245.4 927.8,245.8 990.4,274.9 989.5,268.7 	"/>
	<polygon clip-path="url(#SVGID_2_)" fill="#FFFFFF" points="1024.8,245.4 1017.8,245.2 989.5,269.1 990.1,274.6 	"/>
	<path clip-path="url(#SVGID_2_)" fill="#F2D300" d="M1065.6,269.1v20.4c0,0,0.4,15.7-17.6,23.3l0,0c-18-7.6-17.6-23.3-17.6-23.3
		v-20.4H1065.6z"/>
	<path clip-path="url(#SVGID_2_)" fill="#FFFFFF" d="M1062.8,271.5v18.3c0,0,0.3,14-14.8,20.8l0,0c-15.1-6.9-14.8-20.8-14.8-20.8
		v-18.3H1062.8z"/>
	<path clip-path="url(#SVGID_2_)" fill="#1BD5FF" d="M1061.9,272.3v17.4l0,0l0,0c0,0.1,0.1,3.3-1.6,7.5c-1,2.4-2.4,4.6-4.2,6.6
		c-2.2,2.4-4.9,4.3-8.1,5.7c-3.2-1.5-5.9-3.4-8-5.7c-1.8-1.9-3.2-4.1-4.2-6.5c-1.8-4.1-1.7-7.5-1.7-7.6l0,0l0,0v-17.4H1061.9
		 M1062.8,271.5h-29.6v18.3c0,0-0.3,14,14.8,20.8l0,0c15.1-6.9,14.8-20.8,14.8-20.8V271.5L1062.8,271.5z"/>
	<path clip-path="url(#SVGID_2_)" fill="#F2D300" d="M1035.5,275h2l0.7-1.9l0.7,1.9h2l-1.6,1.2l0.7,1.9l-1.6-1.2l-1.6,1.2l0.7-1.9
		L1035.5,275z"/>
	<path clip-path="url(#SVGID_2_)" fill="#F2D300" d="M1042.1,275h2l0.7-1.9l0.7,1.9h2l-1.6,1.2l0.7,1.9l-1.6-1.2l-1.6,1.2l0.7-1.9
		L1042.1,275z"/>
	<path clip-path="url(#SVGID_2_)" fill="#F2D300" d="M1048.6,275h2l0.7-1.9l0.7,1.9h2l-1.6,1.2l0.7,1.9l-1.6-1.2l-1.6,1.2l0.7-1.9
		L1048.6,275z"/>
	<path clip-path="url(#SVGID_2_)" fill="#F2D300" d="M1055.2,275h2l0.7-1.9l0.7,1.9h2l-1.6,1.2l0.7,1.9l-1.6-1.2l-1.6,1.2l0.7-1.9
		L1055.2,275z"/>
	<path clip-path="url(#SVGID_2_)" fill="#F2D300" d="M1057.9,276.8L1057.9,276.8l1.3,0.9l-0.5-1.4c0-0.1,0-0.1,0.1-0.2l1.2-0.9h-1.5
		c-0.1,0-0.1-0.1-0.1-0.1l-0.5-1.4l-0.5,1.4c0,0.1-0.1,0.1-0.1,0.1h-1.5l1.2,0.9c0.1,0.1,0.1,0.1,0.1,0.2l-0.5,1.4L1057.9,276.8
		C1057.8,276.8,1057.8,276.8,1057.9,276.8z"/>
	<g clip-path="url(#SVGID_2_)">
		<polygon fill="#F2D300" points="1048,303.7 1043.9,305.4 1043.9,279 1048,280.7 1052.1,279 1052.1,305.4 		"/>
		<path fill="#38D5FF" d="M1043.5,306v-27.5l4.4,1.9l4.4-1.9V306l-4.4-1.9L1043.5,306z M1048,303.3l3.8,1.6v-25.4l-3.8,1.6l-3.8-1.6
			v25.4L1048,303.3z"/>
	</g>
	<g clip-path="url(#SVGID_2_)">
		<path fill="#F2D300" d="M1041.9,287.7c0-0.1,0.1-0.1,0.1-0.1c-0.5,0-1.1,0.3-1.5,0.7v-0.7c0.1,0,0.2-0.1,0.3-0.1
			c0.2-0.1,0.3-0.1,0.5-0.3l0,0c0.2-0.1,0.5-0.5,0.7-0.8c0-0.1,0.1-0.1,0.1-0.1c-0.5,0-1.1,0.3-1.5,0.7v-0.6
			c0.1-0.3,0.2-0.6,0.2-0.9c0-0.5-0.1-0.9-0.3-1.2c-0.1-0.1-0.1-0.2-0.2-0.3c-0.1,0.1-0.1,0.1-0.2,0.3c-0.2,0.3-0.3,0.8-0.3,1.2
			c0,0.3,0.1,0.7,0.2,0.9v0.6c-0.4-0.5-0.9-0.7-1.5-0.7c0,0.1,0.1,0.1,0.1,0.1c0.2,0.4,0.5,0.7,0.7,0.8l0,0c0.1,0.1,0.3,0.2,0.5,0.3
			c0.1,0,0.2,0.1,0.3,0.1v0.7c-0.4-0.5-0.9-0.7-1.5-0.7c0,0.1,0.1,0.1,0.1,0.1c0.2,0.4,0.5,0.7,0.7,0.8l0,0c0.1,0.1,0.3,0.2,0.5,0.3
			c0.1,0,0.2,0.1,0.3,0.1v0.7c-0.4-0.5-0.9-0.7-1.5-0.7c0,0.1,0.1,0.1,0.1,0.1c0.2,0.4,0.5,0.7,0.7,0.8l0,0c0.1,0.1,0.3,0.2,0.5,0.3
			c0.1,0,0.2,0.1,0.3,0.1v0.7c-0.4-0.5-0.9-0.7-1.5-0.7c0,0.1,0.1,0.1,0.1,0.1c0.2,0.4,0.5,0.7,0.7,0.8l0,0c0.1,0.1,0.3,0.2,0.5,0.3
			c0.1,0,0.2,0.1,0.3,0.1v0.7c-0.4-0.5-0.9-0.7-1.5-0.7c0,0.1,0.1,0.1,0.1,0.1c0.2,0.4,0.5,0.7,0.7,0.8l0,0c0.1,0.1,0.3,0.2,0.5,0.3
			c0.1,0,0.2,0.1,0.3,0.1v6.9h0.6v-6.9c0.1,0,0.2-0.1,0.3-0.1c0.2-0.1,0.3-0.1,0.5-0.3l0,0c0.2-0.1,0.5-0.5,0.7-0.8
			c0-0.1,0.1-0.1,0.1-0.1c-0.5,0-1.1,0.3-1.5,0.7v-0.7c0.1,0,0.2-0.1,0.3-0.1c0.2-0.1,0.3-0.1,0.5-0.3l0,0c0.2-0.1,0.5-0.5,0.7-0.8
			c0-0.1,0.1-0.1,0.1-0.1c-0.5,0-1.1,0.3-1.5,0.7v-0.7c0.1,0,0.2-0.1,0.3-0.1c0.2-0.1,0.3-0.1,0.5-0.3l0,0c0.2-0.1,0.5-0.5,0.7-0.8
			c0-0.1,0.1-0.1,0.1-0.1c-0.5,0-1.1,0.3-1.5,0.7v-0.7c0.1,0,0.2-0.1,0.3-0.1c0.2-0.1,0.3-0.1,0.5-0.3l0,0
			C1041.4,288.4,1041.7,288.1,1041.9,287.7z"/>
		<path fill="#F2D300" d="M1057.5,287.7c0-0.1,0.1-0.1,0.1-0.1c-0.5,0-1.1,0.3-1.5,0.7v-0.7c0.1,0,0.2-0.1,0.3-0.1
			c0.2-0.1,0.3-0.1,0.5-0.3l0,0c0.2-0.1,0.5-0.5,0.7-0.8c0-0.1,0.1-0.1,0.1-0.1c-0.5,0-1.1,0.3-1.5,0.7v-0.6
			c0.1-0.3,0.2-0.6,0.2-0.9c0-0.5-0.1-0.9-0.3-1.2c-0.1-0.1-0.1-0.2-0.2-0.3c-0.1,0.1-0.1,0.1-0.2,0.3c-0.2,0.3-0.3,0.8-0.3,1.2
			c0,0.3,0.1,0.7,0.2,0.9v0.6c-0.4-0.5-0.9-0.7-1.5-0.7c0,0.1,0.1,0.1,0.1,0.1c0.2,0.4,0.5,0.7,0.7,0.8l0,0c0.1,0.1,0.3,0.2,0.5,0.3
			c0.1,0,0.2,0.1,0.3,0.1v0.7c-0.4-0.5-0.9-0.7-1.5-0.7c0,0.1,0.1,0.1,0.1,0.1c0.2,0.4,0.5,0.7,0.7,0.8l0,0c0.1,0.1,0.3,0.2,0.5,0.3
			c0.1,0,0.2,0.1,0.3,0.1v0.7c-0.4-0.5-0.9-0.7-1.5-0.7c0,0.1,0.1,0.1,0.1,0.1c0.2,0.4,0.5,0.7,0.7,0.8l0,0c0.1,0.1,0.3,0.2,0.5,0.3
			c0.1,0,0.2,0.1,0.3,0.1v0.7c-0.4-0.5-0.9-0.7-1.5-0.7c0,0.1,0.1,0.1,0.1,0.1c0.2,0.4,0.5,0.7,0.7,0.8l0,0c0.1,0.1,0.3,0.2,0.5,0.3
			c0.1,0,0.2,0.1,0.3,0.1v0.7c-0.4-0.5-0.9-0.7-1.5-0.7c0,0.1,0.1,0.1,0.1,0.1c0.2,0.4,0.5,0.7,0.7,0.8l0,0c0.1,0.1,0.3,0.2,0.5,0.3
			c0.1,0,0.2,0.1,0.3,0.1v6.9h0.6v-6.9c0.1,0,0.2-0.1,0.3-0.1c0.2-0.1,0.3-0.1,0.5-0.3l0,0c0.2-0.1,0.5-0.5,0.7-0.8
			c0-0.1,0.1-0.1,0.1-0.1c-0.5,0-1.1,0.3-1.5,0.7v-0.7c0.1,0,0.2-0.1,0.3-0.1c0.2-0.1,0.3-0.1,0.5-0.3l0,0c0.2-0.1,0.5-0.5,0.7-0.8
			c0-0.1,0.1-0.1,0.1-0.1c-0.5,0-1.1,0.3-1.5,0.7v-0.7c0.1,0,0.2-0.1,0.3-0.1c0.2-0.1,0.3-0.1,0.5-0.3l0,0c0.2-0.1,0.5-0.5,0.7-0.8
			c0-0.1,0.1-0.1,0.1-0.1c-0.5,0-1.1,0.3-1.5,0.7v-0.7c0.1,0,0.2-0.1,0.3-0.1c0.2-0.1,0.3-0.1,0.5-0.3l0,0
			C1057,288.4,1057.3,288.1,1057.5,287.7z"/>
	</g>
	<g clip-path="url(#SVGID_2_)">
		<polygon fill="#FFFFFF" points="1038.1,293.7 1057.9,293.7 1057.9,298.1 1038.1,298.1 		"/>
		<g>
			<polygon fill="#38D5FF" points="1038,294.3 1057.9,294.3 1057.9,294.7 1038,294.7 			"/>
			<polygon fill="#38D5FF" points="1038,295.2 1057.9,295.2 1057.9,295.7 1038,295.7 			"/>
			<polygon fill="#38D5FF" points="1038,296.2 1057.9,296.2 1057.9,296.6 1038,296.6 			"/>
			<polygon fill="#38D5FF" points="1038,297.1 1057.9,297.1 1057.9,297.5 1038,297.5 			"/>
		</g>
		<path fill="#1A171B" d="M1057.9,293.7v4.4h-19.8v-4.4H1057.9 M1058.1,293.4h-0.3h-19.8h-0.3v0.3v4.4v0.3h0.3h19.8h0.3v-0.3v-4.4
			L1058.1,293.4L1058.1,293.4z"/>
	</g>
	<g clip-path="url(#SVGID_2_)">
		<circle fill="#FFFFFF" cx="1048" cy="298.6" r="3.5"/>
		<path fill="#1A171B" d="M1048,295.1c2,0,3.5,1.6,3.5,3.5s-1.6,3.5-3.5,3.5s-3.5-1.6-3.5-3.5C1044.4,296.8,1046.1,295.1,1048,295.1
			L1048,295.1z M1048.7,302c-0.3,0.1-0.5,0.1-0.8,0.1s-0.5-0.1-0.8-0.1l-0.8-1.1l0.7-0.9h0.7l0,0h1.1l0.7,0.9L1048.7,302L1048.7,302
			z M1051.3,299c0,0.3-0.1,0.5-0.1,0.7c-0.1,0.3-0.2,0.5-0.3,0.7l-1.2,0.3l-0.7-0.8l0.4-1.7l1.1-0.3L1051.3,299L1051.3,299z
			 M1049.3,295.6c0.3,0.1,0.5,0.2,0.7,0.4c0.2,0.1,0.4,0.3,0.6,0.5v1.2l-1.1,0.3l-1.4-0.9V296L1049.3,295.6L1049.3,295.6z
			 M1045.5,296.5c0.1-0.2,0.3-0.4,0.6-0.5c0.2-0.1,0.5-0.3,0.7-0.4l1.2,0.5v1.1l-1.3,1l-1.1-0.3V296.5L1045.5,296.5z M1045.1,300.4
			c-0.1-0.2-0.3-0.5-0.3-0.7s-0.1-0.5-0.1-0.7l0.8-1l1.1,0.4l0.4,1.6l-0.7,0.8L1045.1,300.4L1045.1,300.4z"/>
	</g>
	<g clip-path="url(#SVGID_2_)">
		<path fill="#E1001A" d="M1049.3,287.2c0,0.1,0,0.2,0,0.4c0,0.1,0,0.3-0.1,0.3c0,0.1-0.1,0.1-0.1,0.1c-0.1,0.1-0.1,0.1-0.3,0.1
			c-0.1,0-0.5,0-0.8,0c-0.5,0-0.8,0-1-0.1c-0.1-0.1-0.2-0.1-0.3-0.2c0-0.1-0.1-0.2-0.1-0.7v-1.6h-1.4v1.6c0,0.4,0,0.7,0,0.8
			s0,0.3,0.1,0.4c0.1,0.4,0.3,0.6,0.8,0.7c0.2,0.1,0.4,0.1,0.7,0.1s0.7,0,1.1,0c0.7,0,1.1,0,1.4-0.1c0.3,0,0.5-0.1,0.7-0.1
			c0.3-0.1,0.5-0.4,0.5-0.7c0-0.2,0.1-0.5,0.1-1v-1.6h-1.4v1.6H1049.3z"/>
		<path fill="#1A171B" d="M1048,289.2c-0.5,0-0.8,0-1.1,0s-0.5-0.1-0.7-0.1c-0.5-0.1-0.8-0.4-0.9-0.8c0-0.1-0.1-0.3-0.1-0.4
			s0-0.4,0-0.8v-1.6c0-0.1,0.1-0.1,0.1-0.1h1.4c0.1,0,0.1,0.1,0.1,0.1v1.6c0,0.5,0,0.6,0.1,0.7c0,0,0,0.1,0.1,0.1
			c0.1,0,0.3,0.1,1,0.1c0.4,0,0.7,0,0.8,0c0.1,0,0.2-0.1,0.3-0.1c0,0,0-0.1,0.1-0.1c0,0,0-0.1,0.1-0.3c0-0.1,0-0.3,0-0.3v-1.6
			c0-0.1,0.1-0.1,0.1-0.1h1.4c0.1,0,0.1,0.1,0.1,0.1v1.6c0,0.5-0.1,0.9-0.1,1.1c-0.1,0.3-0.3,0.6-0.6,0.8c-0.2,0.1-0.4,0.1-0.7,0.2
			C1049.1,289.2,1048.6,289.2,1048,289.2z M1045.5,285.7v1.5c0,0.4,0,0.7,0,0.7c0,0.1,0,0.2,0.1,0.3c0.1,0.3,0.3,0.5,0.7,0.6
			c0.2,0.1,0.4,0.1,0.7,0.1s0.7,0,1.1,0c0.7,0,1.1,0,1.4-0.1c0.3,0,0.5-0.1,0.7-0.1c0.3-0.1,0.4-0.3,0.5-0.6c0-0.1,0.1-0.5,0.1-1
			v-1.5h-1.2v1.5c0,0.1,0,0.2,0,0.4c0,0.1,0,0.3-0.1,0.3c0,0.1-0.1,0.1-0.1,0.2c-0.1,0.1-0.2,0.1-0.4,0.1c-0.1,0-0.5,0-0.8,0
			c-0.5,0-0.8,0-1-0.1s-0.3-0.1-0.3-0.3c0-0.1-0.1-0.3-0.1-0.7v-1.5L1045.5,285.7L1045.5,285.7z"/>
	</g>
	<g clip-path="url(#SVGID_2_)">
		<polygon fill="#E1001A" points="1045.4,293 1046.7,293 1046.7,291.9 1050.5,291.9 1050.5,290.8 1046.7,290.8 1046.7,290.5 
			1050.6,290.5 1050.6,289.5 1045.4,289.5 		"/>
		<path fill="#1A171B" d="M1046.7,293.1h-1.4c-0.1,0-0.1-0.1-0.1-0.1v-3.5c0-0.1,0.1-0.1,0.1-0.1h5.2c0.1,0,0.1,0.1,0.1,0.1v1
			c0,0.1-0.1,0.1-0.1,0.1h-3.7v0.1h3.7c0.1,0,0.1,0.1,0.1,0.1v1c0,0.1-0.1,0.1-0.1,0.1h-3.7v1C1046.8,293,1046.8,293.1,1046.7,293.1
			z M1045.5,292.8h1.1v-1c0-0.1,0.1-0.1,0.1-0.1h3.7v-0.8h-3.7c-0.1,0-0.1-0.1-0.1-0.1v-0.3c0-0.1,0.1-0.1,0.1-0.1h3.7v-0.8h-5
			V292.8z"/>
	</g>
	<g clip-path="url(#SVGID_2_)">
		<path fill="#E1001A" d="M1046.9,284.6h2.1l0.3,0.6h1.3l-1.8-3.5h-1.7l-1.8,3.5h1.4L1046.9,284.6z M1048,282.6l0.6,1.1h-1.2
			L1048,282.6L1048,282.6z"/>
		<path fill="#1A171B" d="M1050.7,285.3L1050.7,285.3h-1.3c-0.1,0-0.1,0-0.1-0.1l-0.3-0.5h-2l-0.3,0.5c0,0.1-0.1,0.1-0.1,0.1h-1.4
			c-0.1,0-0.1,0-0.1-0.1c0-0.1,0-0.1,0-0.1l1.8-3.5c0-0.1,0.1-0.1,0.1-0.1h1.7c0.1,0,0.1,0,0.1,0.1l1.8,3.5v0.1
			C1050.8,285.3,1050.8,285.3,1050.7,285.3z M1049.4,285.1h1l-1.7-3.3h-1.5l-1.7,3.3h1l0.3-0.5c0-0.1,0.1-0.1,0.1-0.1h2.1
			c0.1,0,0.1,0,0.1,0.1L1049.4,285.1z M1048.6,283.8h-1.2c-0.1,0-0.1,0-0.1-0.1c0-0.1,0-0.1,0-0.1l0.6-1.1c0-0.1,0.1-0.1,0.1-0.1
			h0.1c0.1,0,0.1,0,0.1,0.1l0.6,1.1c0,0.1,0,0.1,0,0.1C1048.7,283.8,1048.7,283.8,1048.6,283.8z M1047.6,283.6h0.8l-0.4-0.8
			L1047.6,283.6z"/>
	</g>
	<path clip-path="url(#SVGID_2_)" fill="#1F76A0" d="M916.5,289.8c0,0,6.2,52.1,14.8,79.3c8.2,26,27.2,106.9,26,147.7l5.4,0.4
		c0,0,5-28-17.5-117.4c-12.5-49.3-16.7-59.5-21-115L916.5,289.8z"/>
	<path opacity="0.1" clip-path="url(#SVGID_2_)" enable-background="new    " d="M898,256.6c-5.8-2-26.1,14-7.7,28.5
		c0,0,28.8,18.7,56.7,20.1l5.7-33.2C952.7,272,911.9,261.2,898,256.6z"/>
	<path opacity="0.1" clip-path="url(#SVGID_2_)" enable-background="new    " d="M1017.5,298.5l10.5,213.4l-25.7,266.4l35-37.9
		l37.3-288.1C1074.7,452.4,1065.3,288.6,1017.5,298.5z"/>
	<path clip-path="url(#SVGID_2_)" fill="#EFB789" d="M1340.5,389.3c-3.9,2.5-8,4.6-12.1,6.7c-2,1-4,1.9-5.9,2.8
		c-0.7,0.3-4,1.7-2.1,0.9c1.9-0.8-2,0.8-2.9,1.1c-5.3,2-10.6,3.8-16.1,5.2c-2.8,0.7-5.7,1.2-8.6,1.8c-3.5,0.6,1.6-0.1-1.8,0.3
		c-1.5,0.1-3.1,0.3-4.6,0.4c-3.1,0.2-6.1,0.2-9.2-0.1c-1.3-0.1-5.2-0.8-1.8-0.1c-1.5-0.3-3-0.5-4.5-0.8c-1.5-0.3-3-0.8-4.4-1.2
		c-0.7-0.2-1.4-0.5-2-0.7c-2.3-0.7-0.1,0-0.2-0.1c-2.8-1.4-5.4-2.9-8-4.6c-1.2-0.8-1.4-1.2-0.1,0c-0.6-0.5-1.2-1-1.8-1.5
		c-1.4-1.2-2.7-2.5-4-3.9c-0.6-0.6-1.1-1.2-1.6-1.9c-1.4-1.6,1,1.5-0.3-0.3c-1.1-1.6-2.2-3.2-3.3-4.8c-1.2-1.9-2.2-3.9-3.2-5.9
		c-0.5-1-1-2.2-1.5-3.3c0.8,2-0.5-1.4-0.8-2.2c-1.9-5.2-3.4-10.6-4.5-16.1c-2.9-14-3.6-28.3-3.4-43.1c0.1-15-23.2-15-23.3,0
		c-0.4,40.1,6,93.2,49.1,109.9c25.4,9.8,54.4,1.5,78-9.3c5.7-2.6,11.5-5.5,16.8-8.9C1364.8,401.3,1353.1,381.2,1340.5,389.3
		L1340.5,389.3z"/>
	<path clip-path="url(#SVGID_2_)" fill="#EFB789" d="M1176.7,163.5L1176.7,163.5c1.9-24.4-15.1-44.6-38.5-47.3
		c-23.6-2.7-44.8,14-48.1,37.5l-0.2-0.1l-15.6,129.6l88,10.2L1176.7,163.5z"/>
	
		<rect x="1091.4" y="272.4" transform="matrix(-0.9925 -0.1225 0.1225 -0.9925 2204.532 722.0806)" clip-path="url(#SVGID_2_)" fill="#F2F2F2" width="66.2" height="41.7"/>
	<path clip-path="url(#SVGID_2_)" fill="#3A96EA" d="M1216.8,264.8c0,0-24.3-3-53.7-6.7l-1.2-0.1c-0.3-0.1-0.7,0.1-0.9,0.4
		l-33.3,40.3l-49.5-51.1c-1.6-0.2-3.1-0.4-4.6-0.6c-9.7-1.2-38.6-4.8-38.6-4.8c-6.2-0.8-11.9,4.5-13,12.7l15.9,252.5
		c-1,8.2,3.3,15.2,9.5,16l103.9,12.9c6.2,0.8,11.8-5.2,12.7-13.3l62-242.7C1226.9,272.1,1223,265.5,1216.8,264.8z"/>
	<path clip-path="url(#SVGID_2_)" fill="#3A96EA" d="M1217.9,264.9c0,0,29.3,5.5,23.6,64.4c0,0-24.3,19.7-42.7,3.3
		C1180.5,316.3,1217.9,264.9,1217.9,264.9z"/>
	<path clip-path="url(#SVGID_2_)" fill="#E17B93" d="M1211,338.4l0.7-4.4c0,0,16.6,1.4,30-11.4c0,0,0.6,4.2-0.2,6.7
		C1241.5,329.3,1225,342.3,1211,338.4z"/>
	<path clip-path="url(#SVGID_2_)" fill="#2A5EDF" d="M1171.5,314.1c0-0.1,0-0.3,0.1-0.3c0.1-0.5,0.1-0.9,0.2-1.3
		c0.1-0.9,0.3-1.8,0.4-2.7c0-0.1,0-0.1,0-0.1c0-0.2,0.1-0.3,0.1-0.5c0.6-4.8,1.2-9.7,1.8-14.5c0.6-4.6,1.2-9.2,1.8-13.8
		c0.1-0.6,0.1-1.2,0.3-1.8c10.1,1.2,20.2,2.5,30.2,3.7c-1.4,11.7-2.9,23.4-4.3,35.1c-0.1,0-0.1,0-0.1,0.1
		c-5.4,2.5-10.8,5.1-16.2,7.6c-0.1,0-0.1,0.1-0.1,0.1l0,0c0-0.1-0.1-0.1-0.1-0.1c-4.6-3.7-9.1-7.5-13.7-11.2
		C1171.7,314.1,1171.6,314.1,1171.5,314.1z M1193.9,308.4c0,0.1,0,0.1,0,0.2c-0.3,2.3-0.5,4.6-0.8,6.9c0,0.1,0,0.2,0.1,0.3
		c1,0.7,2.1,1.4,3.1,2.2c0.1,0.1,0.1,0.1,0.3,0c1-0.4,1.9-0.8,2.9-1.2c0.2-0.1,0.3-0.1,0.5-0.2c0.1,0,0.1-0.1,0.1-0.1v-0.1
		c1-8,2-16.1,3-24.2c0-0.3,0.1-0.2-0.2-0.3c-2.2-0.3-4.4-0.5-6.7-0.8h-0.1c-0.1,0-0.1,0-0.1,0.1c0,0.1,0,0.1,0,0.1
		c-0.2,1.4-0.3,2.7-0.5,4.1c0,0.2-0.1,0.3-0.1,0.5c-0.2-0.2-0.4-0.4-0.6-0.6c-0.1-0.1-0.1-0.2-0.1-0.3c0.1-1.3,0.3-2.5,0.5-3.9
		c0-0.2,0.1-0.2-0.1-0.2l0,0c-3.4-0.4-6.8-0.8-10.2-1.2c-0.1,0-0.1,0-0.1,0c-0.1,0-0.1,0-0.1,0.1s0,0.1,0,0.1
		c-0.1,0.7-0.2,1.5-0.3,2.2c-0.1,0.6-0.1,1.2-0.2,1.7c0,0.1,0,0.1-0.1,0.2c-0.3,0.2-0.6,0.4-0.8,0.6c0-0.1,0-0.1,0-0.2
		c0.2-1.5,0.4-3.1,0.6-4.6c0-0.3,0.1-0.2-0.2-0.3c-2.2-0.3-4.4-0.5-6.6-0.8c-0.3,0-0.2-0.1-0.3,0.2c-0.5,3.9-1,7.8-1.4,11.8
		c-0.1,0.9-0.2,1.9-0.3,2.8c-0.4,3.2-0.8,6.4-1.2,9.6c0,0.1,0,0.2,0.1,0.3c0.6,0.4,1.1,0.8,1.7,1.2c0.5,0.3,1,0.7,1.4,1
		c0.1,0.1,0.2,0.1,0.3,0h0.1c0.8-0.3,1.6-0.7,2.3-1c0.3-0.1,0.6-0.3,0.9-0.4c0.1-0.1,0.2-0.1,0.1-0.2c0-0.1,0-0.1,0-0.1
		c0.3-2.3,0.6-4.6,0.8-6.9c0-0.1,0-0.1,0-0.2c0.2,0.2,0.4,0.5,0.6,0.7c0.1,0.1,0.1,0.1,0.1,0.3c-0.5,3.7-0.9,7.5-1.4,11.2
		c0,0.1,0,0.2,0.1,0.3c1.5,1.3,3.1,2.5,4.6,3.9c0.1,0.1,0.1,0.1,0.3,0.1c1.8-0.8,3.7-1.8,5.5-2.6c0.1-0.1,0.2-0.1,0.2-0.3
		c0.5-3.7,0.9-7.4,1.4-11c0-0.1,0-0.1,0-0.1s0-0.1,0.1-0.1C1193.4,308.8,1193.7,308.6,1193.9,308.4z M1200.8,289.5
		c0-0.1,0-0.1,0-0.2c-0.2-0.9-0.4-1.8-0.7-2.7c-0.1-0.4-0.2-0.8-0.3-1.2c0-0.1,0-0.1-0.2-0.1c-0.1,0-0.3-0.1-0.5-0.1
		c-0.1,0-0.1,0-0.2,0.1c-0.6,1.2-1.2,2.4-1.8,3.7c0,0.1-0.1,0.1-0.1,0.1c0.3,0,0.5,0.1,0.8,0.1c0.1,0,0.1,0,0.1-0.1
		c0.1-0.2,0.2-0.4,0.3-0.6c0.1-0.1,0.1-0.1,0.2-0.1c0.4,0.1,0.7,0.1,1.1,0.1c0.1,0,0.1,0.1,0.1,0.1c0.1,0.2,0.1,0.4,0.1,0.7
		c0,0.1,0.1,0.1,0.1,0.1c0.1,0,0.3,0,0.4,0.1C1200.5,289.5,1200.6,289.5,1200.8,289.5z M1189.3,288.1c0-0.1,0-0.1,0-0.2
		c-0.1-0.6-0.3-1.2-0.4-1.8c-0.2-0.7-0.3-1.4-0.5-2.2c0-0.1,0-0.1-0.2-0.1c-0.1,0-0.3-0.1-0.5-0.1c-0.1,0-0.1,0-0.2,0.1
		c-0.6,1.2-1.2,2.4-1.8,3.7c0,0.1-0.1,0.1,0,0.1c0.3,0,0.5,0.1,0.8,0.1c0.1,0,0.1-0.1,0.1-0.1c0.1-0.2,0.2-0.4,0.3-0.6
		c0.1-0.1,0.1-0.1,0.2-0.1c0.3,0.1,0.7,0.1,1,0.1c0.1,0,0.1,0,0.2,0.1c0.1,0.2,0.1,0.4,0.1,0.6c0,0.1,0,0.1,0.1,0.1
		C1188.8,288.1,1189,288.1,1189.3,288.1z M1184.1,285.8c0.1-0.5,0.1-1,0.2-1.5c0-0.1,0-0.1,0-0.1s0.1-0.1,0.1-0.1c0.1,0,0.1,0,0.1,0
		c0.3,0,0.5,0.1,0.8,0.1c0.1,0,0.1,0,0.1-0.1c0-0.2,0.1-0.4,0.1-0.6c0-0.1,0-0.1-0.1-0.1c-0.1,0-0.1,0-0.1,0
		c-0.8-0.1-1.7-0.2-2.5-0.3h-0.1c-0.1,0-0.1,0-0.1,0.1c0,0.2-0.1,0.4-0.1,0.6c0,0.1,0,0.1,0.1,0.1c0.1,0,0.1,0,0.1,0
		c0.3,0,0.5,0.1,0.7,0.1c0.1,0,0.1,0.1,0.1,0.1c0,0.1,0,0.1,0,0.1c-0.1,1-0.3,1.9-0.3,2.9c0,0.1,0,0.1,0,0.1c0,0.1,0,0.1,0.1,0.1
		c0.2,0,0.4,0.1,0.7,0.1c0.1,0,0.1,0,0.1-0.1s0-0.1,0-0.1C1183.9,286.8,1184,286.2,1184.1,285.8z M1191,286.2
		c-0.1,0.7-0.1,1.2-0.3,1.9c0,0.1,0,0.1,0.1,0.2c0.5,0.1,1,0.1,1.6,0.2c0.3,0.1,0.5,0.1,0.8,0.1c0.1,0,0.1,0,0.1-0.1
		c0-0.1,0.1-0.3,0.1-0.5s0-0.1-0.1-0.2c-0.5-0.1-1-0.1-1.5-0.2c-0.2,0-0.2,0-0.1-0.2c0.1-1,0.3-2,0.4-2.9c0-0.1,0-0.1,0-0.1
		c0-0.1,0-0.1-0.1-0.1c-0.2,0-0.4-0.1-0.6-0.1c-0.1,0-0.1,0-0.1,0.1c0,0.1,0,0.1,0,0.1C1191.2,285,1191,285.6,1191,286.2z
		 M1196.1,286.8c0.1-0.7,0.1-1.2,0.3-1.9c0-0.1,0-0.1-0.1-0.1c-0.2,0-0.5-0.1-0.7-0.1c-0.2,0-0.2-0.1-0.2,0.2
		c-0.1,1.2-0.3,2.5-0.5,3.7c0,0.1,0,0.1,0,0.1c0,0.1,0,0.1,0.1,0.1c0.3,0,0.5,0.1,0.8,0.1c0.1,0,0.1,0,0.1-0.1s0-0.1,0-0.1
		C1195.9,288.1,1196,287.5,1196.1,286.8z M1179.8,284.9c-0.1,0.7-0.1,1.3-0.3,1.9c0,0.1,0,0.1,0.1,0.1c0.3,0,0.5,0.1,0.7,0.1
		c0.1,0,0.1,0,0.1-0.1c0-0.1,0-0.1,0-0.1c0.1-1.1,0.3-2.2,0.4-3.3c0-0.1,0.1-0.3,0.1-0.5c0-0.1,0-0.1-0.1-0.1
		c-0.2,0-0.5-0.1-0.7-0.1c-0.1,0-0.1,0-0.2,0.1v0.1C1179.9,283.6,1179.9,284.2,1179.8,284.9z"/>
	<path clip-path="url(#SVGID_2_)" fill="#FEFEFE" d="M1183.3,294.6c0.3-0.2,0.5-0.4,0.8-0.6c0.1-0.1,0.1-0.1,0.1-0.2
		c0.1-0.6,0.1-1.2,0.2-1.7c0.1-0.7,0.2-1.5,0.3-2.2c0-0.1,0-0.1,0-0.1s0-0.1,0.1-0.1c0.1,0,0.1,0,0.1,0c3.4,0.4,6.8,0.8,10.2,1.2
		l0,0c0.2,0,0.2,0,0.1,0.2c-0.1,1.3-0.3,2.5-0.5,3.9c0,0.1,0,0.2,0.1,0.3c0.2,0.2,0.4,0.4,0.6,0.6c0,0.1,0.1,0.1,0.1,0.1
		c1.8,2.4,2.3,5,1.5,7.8c-0.5,1.6-1.4,3-2.6,4.1c-0.2,0.1-0.3,0.3-0.5,0.5c-0.3,0.2-0.5,0.4-0.8,0.5c-0.1,0-0.1,0.1-0.1,0.1
		c0,0.1,0,0.1,0,0.1c-0.5,3.7-0.9,7.4-1.4,11c0,0.1-0.1,0.2-0.2,0.3c-1.8,0.8-3.7,1.7-5.5,2.6c-0.1,0.1-0.2,0.1-0.3-0.1
		c-1.5-1.3-3.1-2.5-4.6-3.9c-0.1-0.1-0.1-0.1-0.1-0.3c0.5-3.7,0.9-7.5,1.4-11.2c0-0.1,0-0.2-0.1-0.3c-0.2-0.2-0.4-0.5-0.6-0.7
		c0,0,0-0.1-0.1-0.1c-1.7-2.4-2.2-4.9-1.4-7.7c0.5-1.6,1.3-2.9,2.5-4C1182.9,294.9,1183.1,294.7,1183.3,294.6z M1188.6,318.6
		C1188.6,318.6,1188.6,318.5,1188.6,318.6C1188.6,318.4,1188.6,318.5,1188.6,318.6c-0.5-0.2-0.9-0.3-1.4-0.4v-0.1
		c-0.1-0.4-0.3-0.8-0.5-1.2c0,0,0-0.1-0.1-0.1c-0.1-0.1-0.1,0-0.1,0.1c-0.3,0.4-0.5,0.8-0.8,1.2c-0.3-0.1-0.7-0.1-1-0.1
		c-0.1,0-0.3-0.1-0.4,0c0,0-0.1-0.1-0.1,0.1c0,0.1,0.1,0.1,0.1,0.1c0.3,0.3,0.5,0.7,0.8,1c0,0.2-0.1,0.3-0.1,0.5
		c-0.1,0.3-0.2,0.6-0.3,0.8c0,0.1-0.1,0.1,0,0.1c0,0,0.1,0,0.1-0.1l0,0c0.1,0,0.1,0,0.2,0c0.4-0.1,0.8-0.3,1.2-0.4
		c0.3,0.2,0.5,0.3,0.8,0.5c0.1,0.1,0.3,0.2,0.4,0.3c0.1,0,0.1-0.1,0.1-0.1c0-0.5,0-0.9,0-1.4c0,0,0,0,0.1,0c0.3-0.3,0.7-0.5,1-0.8
		C1188.6,318.6,1188.6,318.6,1188.6,318.6L1188.6,318.6z M1187.5,310.5L1187.5,310.5c-0.3,0.5-0.6,0.8-0.8,1.3c-0.4,0-0.8,0-1.2-0.1
		c-0.1,0-0.3-0.1-0.3,0c0,0,0,0,0,0.1c0.3,0.4,0.6,0.7,0.8,1.1c-0.1,0.5-0.3,0.9-0.4,1.4v0.1c0.5-0.1,0.9-0.3,1.4-0.5
		c0.3,0.3,0.7,0.5,1,0.7c0.1,0,0.1,0.1,0.1,0.1l0,0c0,0,0,0,0.1,0c0-0.5,0-1,0-1.4c0.3-0.3,0.5-0.5,0.8-0.7c0.1-0.1,0.2-0.1,0.3-0.3
		l0,0l0,0c0-0.1-0.1-0.1-0.1-0.1c-0.5-0.1-0.8-0.3-1.3-0.3c0,0,0,0,0-0.1c-0.1-0.4-0.3-0.8-0.5-1.2
		C1187.5,310.7,1187.5,310.6,1187.5,310.5C1187.5,310.6,1187.5,310.6,1187.5,310.5z M1188.2,293.7c0.3,0.1,0.6,0.1,0.8,0.3
		c0.9,0.4,1.7,0.9,2.5,1.4c0.7,0.5,1.2,1.2,1.6,2.1c0.6,1.6,0.6,3.1,0.1,4.7c-0.3,1-0.8,1.8-1.5,2.5c-0.3,0.4-0.7,0.7-1.1,1
		c-0.1,0.1-0.3,0.2-0.4,0.3c-0.1,0.1-0.1,0.1-0.2,0.2c-0.1,0.2-0.1,0.3,0.1,0.4c0.1,0.1,0.3,0.1,0.4,0.1c0.7,0.1,1.3,0,2-0.3
		c1.3-0.5,2.3-1.3,3.1-2.5c0.4-0.7,0.7-1.3,0.8-2c0.1-0.7,0.1-1.4-0.1-2.1c-0.5-2.2-1.7-3.8-3.5-5c-0.8-0.5-1.6-0.8-2.5-1
		C1189.6,293.7,1188.9,293.6,1188.2,293.7c-0.1-0.1-0.1-0.1-0.2,0C1188,293.7,1188.1,293.8,1188.2,293.7z M1182,305.8L1182,305.8
		L1182,305.8C1182,305.8,1182,305.8,1182,305.8c-0.3-0.5-0.3-1-0.3-1.4c-0.1-0.7,0-1.4,0.1-2c0.1-0.4,0.1-0.8,0.2-1.1
		c0.2-0.7,0.6-1.3,1-1.8c1-1.1,2.3-1.8,3.8-2.1c0.8-0.1,1.6-0.1,2.3-0.1c0.7,0.1,1.4,0.3,2,0.6c0.1,0.1,0.3,0.1,0.4,0.2
		c0.1,0.1,0.3,0.1,0.4,0.1c0.1,0,0.3-0.1,0.3-0.3c0-0.1,0-0.1,0-0.2c0-0.1-0.1-0.3-0.1-0.4c-0.3-0.7-0.8-1.3-1.4-1.8
		c-1.1-0.8-2.3-1.2-3.7-1.2c-1.3,0-2.5,0.4-3.5,1.2c-1.4,1.2-2.3,2.7-2.7,4.6c-0.1,0.8-0.2,1.5-0.1,2.3c0.1,1,0.4,2,0.8,2.9
		C1181.7,305.4,1181.8,305.6,1182,305.8z M1195.5,305.2c0.1-0.1,0.1-0.1,0.1-0.2C1195.5,305,1195.5,305.1,1195.5,305.2
		c-0.1,0-0.1,0.1-0.1,0.1c-0.3,0.3-0.6,0.5-0.8,0.7c-0.7,0.5-1.5,0.8-2.3,1.2c-0.9,0.4-1.9,0.5-2.9,0.2c-1.2-0.3-2.4-0.9-3.3-1.9
		c-0.3-0.3-0.5-0.7-0.8-1c-0.1-0.2-0.3-0.5-0.4-0.7c-0.1-0.2-0.1-0.3-0.2-0.5c-0.2-0.5-0.5-1.1-0.6-1.7c-0.1-0.2-0.1-0.3-0.1-0.5
		s0-0.5-0.1-0.7c0-0.1-0.1-0.2-0.1-0.3c-0.1-0.1-0.2-0.1-0.3-0.1c-0.1,0-0.1,0.1-0.2,0.1s-0.2,0.2-0.3,0.3c-0.6,0.7-0.8,1.5-1,2.4
		c-0.1,1,0.1,1.9,0.4,2.8c0.7,1.6,1.8,2.8,3.5,3.3c0.8,0.3,1.6,0.4,2.5,0.4c0.9,0,1.8-0.1,2.7-0.5
		C1193.1,308.1,1194.6,306.9,1195.5,305.2z M1190.1,301.9c0-0.1,0.1-0.3,0.1-0.4c0-0.1,0-0.1-0.1-0.2c-0.3,0-0.5-0.1-0.7-0.1
		c-0.1,0-0.1,0-0.2,0.1c0,0.1-0.1,0.2,0,0.3c0.1,0.1,0.2,0.1,0.3,0.1c0.3,0.1,0.3,0,0.2,0.3c0,0.1,0,0.1-0.1,0.1
		c-0.2,0.1-0.4,0.2-0.6,0.1c-0.3-0.1-0.4-0.3-0.5-0.5c-0.1-0.3,0-0.7,0.1-1c0.1-0.1,0.1-0.2,0.2-0.3c0.3-0.3,0.8-0.2,0.9,0.3
		c0,0,0,0,0,0.1c0,0.1,0.1,0.1,0.1,0.1c0.1,0,0.3,0,0.3-0.1c0.1,0,0.1-0.1,0.1-0.1c-0.1-0.3-0.1-0.5-0.4-0.7
		c-0.5-0.3-1.2-0.2-1.6,0.3s-0.4,1-0.2,1.6c0.1,0.3,0.3,0.5,0.5,0.6c0.5,0.2,0.9,0.1,1.4-0.1c0.1-0.1,0.1-0.1,0.1-0.1
		C1190,302.2,1190.1,302,1190.1,301.9z M1190.5,301.5c0,0.1,0,0.1,0,0.2c0,0.3,0.1,0.7,0.3,0.9c0.3,0.3,0.6,0.5,1,0.4
		s0.6-0.3,0.7-0.7c0-0.1,0-0.1-0.1-0.1c-0.1-0.1-0.2-0.1-0.3-0.1c-0.1,0-0.1,0-0.1,0.1c-0.1,0.1-0.1,0.2-0.1,0.3
		c-0.1,0.2-0.4,0.3-0.6,0.1c-0.1-0.1-0.3-0.3-0.3-0.4c-0.1-0.3,0-0.7,0.1-1c0.1-0.1,0.1-0.2,0.2-0.3c0.3-0.2,0.7-0.1,0.8,0.2
		c0,0.1,0,0.1,0.1,0.2c0.1,0,0.1,0,0.2,0c0.1,0,0.1,0,0.1,0c0.1,0,0.1,0,0.1-0.1c-0.1-0.5-0.5-0.8-1-0.8c-0.4,0-0.7,0.3-0.8,0.6
		C1190.6,301,1190.5,301.3,1190.5,301.5z M1185.1,300.9c0,0.1,0,0.2,0,0.3c-0.1,0.3-0.1,0.7-0.1,1c0,0.1,0,0.1,0.1,0.1
		c0.1,0,0.1,0,0.3,0c0.1,0,0.1,0,0.1-0.1c0.1-0.3,0.1-0.6,0.1-0.8c0-0.1,0-0.1,0.2-0.1c0.3,0,0.5,0.1,0.7,0.1c0.1,0,0.1,0,0.1-0.1
		c0-0.1,0-0.2,0-0.3c0-0.1,0-0.1-0.1-0.1c-0.1,0-0.1,0-0.1,0c-0.2,0-0.5-0.1-0.7-0.1c-0.1,0-0.1,0-0.1-0.1c0-0.1,0.1-0.3,0.1-0.5
		c0-0.1,0-0.1,0.1-0.1s0.1,0,0.1,0c0.3,0.1,0.5,0.1,0.8,0.1c0.1,0,0.1,0,0.1-0.1c0-0.1,0-0.1,0-0.2c0-0.1,0-0.1-0.1-0.1
		c-0.5-0.1-0.9-0.1-1.3-0.2c-0.1,0-0.1,0-0.1,0.1C1185.2,300,1185.2,300.4,1185.1,300.9z M1187.6,301.1c0.1-0.3,0.1-0.7,0.1-1
		c0-0.1,0.1-0.3,0-0.3s-0.3-0.1-0.4-0.1c-0.1,0-0.1,0-0.1,0.1s0,0.1,0,0.1c-0.1,0.8-0.2,1.6-0.3,2.4v0.1c0,0.1,0,0.1,0.1,0.1
		c0.1,0,0.2,0,0.3,0c0.1,0,0.1,0,0.1-0.1C1187.5,302,1187.5,301.6,1187.6,301.1z"/>
	<path clip-path="url(#SVGID_2_)" fill="#079E42" d="M1183.3,294.6c-0.1,0.1-0.3,0.3-0.5,0.4c-1.2,1.1-2.1,2.4-2.5,4
		c-0.8,2.8-0.3,5.4,1.4,7.7l0.1,0.1c0,0.1,0,0.1,0,0.2c-0.3,2.3-0.6,4.6-0.8,6.9c0,0.1,0,0.1,0,0.1c0,0.1-0.1,0.2-0.1,0.2
		c-0.3,0.1-0.6,0.3-0.9,0.4c-0.8,0.3-1.6,0.7-2.3,1h-0.1c-0.1,0.1-0.2,0.1-0.3,0c-0.5-0.3-1-0.7-1.4-1c-0.6-0.4-1.1-0.8-1.7-1.2
		c-0.1-0.1-0.1-0.1-0.1-0.3c0.4-3.2,0.8-6.4,1.2-9.6c0.1-0.9,0.3-1.9,0.3-2.8c0.5-3.9,1-7.8,1.4-11.8c0-0.3,0-0.3,0.3-0.2
		c2.2,0.3,4.4,0.5,6.6,0.8c0.3,0,0.2,0,0.2,0.3c-0.2,1.5-0.4,3.1-0.6,4.6C1183.3,294.5,1183.3,294.5,1183.3,294.6z M1178.6,313.5
		C1178.6,313.5,1178.6,313.6,1178.6,313.5C1178.6,313.6,1178.6,313.6,1178.6,313.5c0.1-0.1,0.1-0.2,0.1-0.3c0-0.4,0-0.8,0-1.2
		c0.3-0.3,0.7-0.6,1-0.8l0.1-0.1c0,0-0.1,0-0.1-0.1c-0.5-0.1-0.8-0.3-1.3-0.3c-0.1-0.5-0.3-0.8-0.5-1.3c0-0.1-0.1-0.1-0.1-0.1
		c0,0,0,0-0.1,0l-0.1,0.1c-0.3,0.4-0.5,0.8-0.7,1.2c-0.4,0-0.8,0-1.2-0.1c-0.1,0-0.3,0-0.3,0c0,0.1,0,0.1,0.1,0.1
		c0.3,0.3,0.6,0.7,0.8,1c-0.1,0.4-0.2,0.8-0.3,1.2c0,0.1-0.1,0.2-0.1,0.3h0.1l0,0c0.1,0,0.1,0,0.1,0c0.4-0.1,0.8-0.3,1.2-0.5
		c0.3,0.3,0.7,0.5,1,0.7C1178.5,313.5,1178.6,313.5,1178.6,313.5L1178.6,313.5z"/>
	<path clip-path="url(#SVGID_2_)" fill="#FF2D00" d="M1193.9,308.4c0.2-0.1,0.3-0.3,0.5-0.5c1.2-1.1,2.2-2.5,2.6-4.1
		c0.8-2.9,0.3-5.5-1.5-7.8c0-0.1-0.1-0.1-0.1-0.1c0-0.2,0.1-0.3,0.1-0.5c0.2-1.4,0.3-2.7,0.5-4.1c0-0.1,0-0.1,0-0.1s0.1-0.1,0.1-0.1
		h0.1c2.2,0.3,4.4,0.5,6.7,0.8c0.2,0,0.2,0,0.2,0.3c-1,8-2,16.1-3,24.2v0.1c0,0.1-0.1,0.1-0.1,0.1c-0.2,0.1-0.3,0.1-0.5,0.2
		c-1,0.4-1.9,0.8-2.9,1.2c-0.1,0.1-0.2,0.1-0.3,0c-1-0.7-2.1-1.5-3.1-2.2c-0.1-0.1-0.1-0.1-0.1-0.3c0.3-2.3,0.6-4.6,0.8-6.9
		C1193.9,308.6,1193.9,308.5,1193.9,308.4z M1194.8,313L1194.8,313L1194.8,313c0.3,0.4,0.5,0.8,0.8,1.1c0,0.1-0.1,0.1-0.1,0.2
		c-0.1,0.4-0.2,0.8-0.3,1.2l0,0h0.1l0,0c0.1,0,0.1,0,0.2-0.1c0.4-0.1,0.8-0.3,1.2-0.4c0.4,0.3,0.8,0.5,1.2,0.8c0.1,0,0.1,0,0.1-0.1
		c0-0.2,0-0.5,0-0.7c0-0.3,0-0.5,0-0.8c0.1-0.1,0.3-0.3,0.5-0.3c0.2-0.2,0.5-0.4,0.7-0.6c0-0.1-0.1-0.1-0.1-0.1
		c-0.2-0.1-0.3-0.1-0.5-0.1c-0.3-0.1-0.5-0.1-0.8-0.2c-0.2-0.5-0.3-0.9-0.5-1.4c0-0.1-0.1-0.1-0.1,0c-0.2,0.3-0.3,0.6-0.5,0.8
		c-0.1,0.1-0.2,0.3-0.3,0.5C1195.7,313,1195.2,313,1194.8,313C1194.8,313,1194.7,313,1194.8,313C1194.7,313,1194.7,313,1194.8,313z"
		/>
	<path clip-path="url(#SVGID_2_)" fill="#D8CF9B" d="M1200.8,289.5c-0.1,0-0.3,0-0.4-0.1c-0.1,0-0.3-0.1-0.4-0.1
		c-0.1,0-0.1-0.1-0.1-0.1c-0.1-0.2-0.1-0.4-0.1-0.7c0-0.1-0.1-0.1-0.1-0.1c-0.4-0.1-0.7-0.1-1.1-0.1c-0.1,0-0.1,0-0.2,0.1
		c-0.1,0.2-0.2,0.4-0.3,0.6c0,0.1-0.1,0.1-0.1,0.1c-0.3-0.1-0.5-0.1-0.8-0.1c0-0.1,0-0.1,0.1-0.1c0.6-1.2,1.2-2.4,1.8-3.7
		c0.1-0.1,0.1-0.1,0.2-0.1c0.1,0,0.3,0.1,0.5,0.1c0.1,0,0.1,0,0.2,0.1c0.1,0.4,0.2,0.8,0.3,1.2c0.2,0.9,0.4,1.8,0.7,2.7
		C1200.8,289.4,1200.8,289.4,1200.8,289.5z M1198.7,287.8c0.3,0.1,0.5,0.1,0.8,0.1c0.1,0,0.1,0,0.1-0.1c-0.1-0.3-0.1-0.7-0.2-1
		c0-0.1,0-0.1-0.1-0.1C1199.1,287,1198.9,287.4,1198.7,287.8z"/>
	<path clip-path="url(#SVGID_2_)" fill="#D8CF9B" d="M1189.3,288.1c-0.3-0.1-0.5-0.1-0.8-0.1c-0.1,0-0.1-0.1-0.1-0.1
		c-0.1-0.2-0.1-0.4-0.1-0.6c0-0.1,0-0.1-0.2-0.1c-0.3-0.1-0.7-0.1-1-0.1c-0.1,0-0.1,0-0.2,0.1c-0.1,0.2-0.2,0.4-0.3,0.6
		c0,0.1-0.1,0.1-0.1,0.1c-0.3-0.1-0.5-0.1-0.8-0.1c0-0.1,0-0.1,0-0.1c0.6-1.2,1.2-2.4,1.8-3.7c0.1-0.1,0.1-0.1,0.2-0.1
		s0.3,0.1,0.5,0.1c0.1,0,0.1,0,0.2,0.1c0.2,0.7,0.3,1.4,0.5,2.2c0.1,0.6,0.3,1.2,0.4,1.8C1189.3,288,1189.3,288,1189.3,288.1z
		 M1187.3,286.4c0.3,0.1,0.6,0.1,0.8,0.1c-0.1-0.5-0.1-0.8-0.3-1.3l0,0C1187.6,285.6,1187.5,286,1187.3,286.4z"/>
	<path clip-path="url(#SVGID_2_)" fill="#D8CF9B" d="M1184.1,285.8c-0.1,0.5-0.1,1-0.2,1.4c0,0.1,0,0.1,0,0.1s0,0.1-0.1,0.1
		c-0.2,0-0.4-0.1-0.7-0.1c-0.1,0-0.1-0.1-0.1-0.1s0-0.1,0-0.1c0.1-1,0.3-1.9,0.3-2.9c0-0.1,0-0.1,0-0.1c0-0.1,0-0.1-0.1-0.1
		c-0.3,0-0.5-0.1-0.7-0.1c-0.1,0-0.1,0-0.1,0s-0.1-0.1-0.1-0.1c0-0.2,0.1-0.4,0.1-0.6c0-0.1,0.1-0.1,0.1-0.1h0.1
		c0.8,0.1,1.7,0.2,2.5,0.3c0.1,0,0.1,0,0.1,0s0.1,0.1,0.1,0.1c0,0.2-0.1,0.4-0.1,0.6c0,0.1-0.1,0.1-0.1,0.1
		c-0.3-0.1-0.5-0.1-0.8-0.1c-0.1,0-0.1,0-0.1,0s-0.1,0-0.1,0.1s0,0.1,0,0.1C1184.2,284.8,1184.1,285.3,1184.1,285.8z"/>
	<path clip-path="url(#SVGID_2_)" fill="#D8CF9B" d="M1191,286.2c0.1-0.6,0.1-1.2,0.2-1.8c0-0.1,0-0.1,0-0.1s0.1-0.1,0.1-0.1
		c0.2,0,0.4,0.1,0.6,0.1c0.1,0,0.1,0.1,0.1,0.1s0,0.1,0,0.1c-0.1,1-0.3,2-0.4,2.9c0,0.2,0,0.2,0.1,0.2c0.5,0.1,1,0.1,1.5,0.2
		c0.1,0,0.1,0,0.1,0.2c0,0.1-0.1,0.3-0.1,0.5c0,0.1,0,0.1-0.1,0.1c-0.3,0-0.5-0.1-0.8-0.1c-0.5-0.1-1-0.1-1.6-0.2
		c-0.1,0-0.1,0-0.1-0.2C1190.8,287.5,1190.9,286.9,1191,286.2z"/>
	<path clip-path="url(#SVGID_2_)" fill="#D8CF9B" d="M1196.1,286.8c-0.1,0.7-0.1,1.2-0.3,1.9c0,0.1,0,0.1,0,0.1
		c0,0.1-0.1,0.1-0.1,0.1c-0.3-0.1-0.5-0.1-0.8-0.1c-0.1,0-0.1-0.1-0.1-0.1c0-0.1,0-0.1,0-0.1c0.1-1.2,0.3-2.5,0.5-3.7
		c0-0.2,0-0.2,0.2-0.2c0.2,0,0.5,0.1,0.7,0.1c0.1,0,0.1,0,0.1,0.1C1196.2,285.6,1196.1,286.2,1196.1,286.8z"/>
	<path clip-path="url(#SVGID_2_)" fill="#D8CF9B" d="M1179.8,284.9c0.1-0.6,0.1-1.2,0.2-1.8V283c0-0.1,0-0.1,0.2-0.1
		s0.5,0.1,0.7,0.1c0.1,0,0.1,0,0.1,0.1c0,0.1-0.1,0.3-0.1,0.5c-0.1,1.1-0.3,2.2-0.4,3.3c0,0.1,0,0.1,0,0.1c0,0.1,0,0.1-0.1,0.1
		c-0.3,0-0.5-0.1-0.7-0.1c-0.1,0-0.1,0-0.1-0.1C1179.7,286.1,1179.7,285.5,1179.8,284.9z"/>
	<path clip-path="url(#SVGID_2_)" fill="#2C41A1" d="M1195.5,305.2c-0.9,1.8-2.4,2.9-4.2,3.7c-0.8,0.3-1.8,0.5-2.7,0.5
		c-0.8,0-1.7-0.1-2.5-0.4c-1.7-0.5-2.9-1.7-3.5-3.3c-0.3-0.9-0.5-1.8-0.4-2.8c0.1-0.9,0.4-1.7,1-2.4c0.1-0.1,0.1-0.2,0.3-0.3
		c0.1-0.1,0.1-0.1,0.2-0.1c0.1-0.1,0.2,0,0.3,0.1c0.1,0.1,0.1,0.2,0.1,0.3c0.1,0.2,0.1,0.5,0.1,0.7s0,0.3,0.1,0.5
		c0.1,0.6,0.4,1.1,0.6,1.7c0.1,0.2,0.1,0.3,0.2,0.5c0.1,0.3,0.3,0.5,0.4,0.7c0.3,0.3,0.5,0.7,0.8,1c0.9,1,2,1.6,3.3,1.9
		c1,0.3,2,0.2,2.9-0.2c0.8-0.3,1.6-0.7,2.3-1.2c0.3-0.2,0.7-0.5,0.8-0.7C1195.4,305.2,1195.5,305.2,1195.5,305.2
		C1195.5,305.2,1195.5,305.2,1195.5,305.2z"/>
	<path clip-path="url(#SVGID_2_)" fill="#079E42" d="M1182,305.8c-0.1-0.2-0.3-0.4-0.4-0.6c-0.5-0.9-0.8-1.9-0.8-2.9
		c-0.1-0.8-0.1-1.6,0.1-2.3c0.4-1.8,1.2-3.4,2.7-4.6c1-0.8,2.2-1.2,3.5-1.2c1.4,0,2.6,0.4,3.7,1.2c0.6,0.5,1.1,1,1.4,1.8
		c0.1,0.1,0.1,0.3,0.1,0.4c0,0.1,0,0.1,0,0.2c0,0.1-0.1,0.3-0.3,0.3c-0.1,0-0.3,0-0.4-0.1c-0.1-0.1-0.3-0.1-0.4-0.2
		c-0.7-0.3-1.3-0.5-2-0.6c-0.8-0.1-1.6-0.1-2.3,0.1c-1.5,0.3-2.8,1-3.8,2.1c-0.5,0.5-0.8,1.2-1,1.8c-0.1,0.4-0.2,0.7-0.2,1.1
		c-0.1,0.7-0.1,1.4-0.1,2c0,0.5,0.1,1,0.3,1.4C1182,305.8,1182,305.8,1182,305.8L1182,305.8L1182,305.8z"/>
	<path clip-path="url(#SVGID_2_)" fill="#FF2D00" d="M1188.2,293.7c0.7-0.1,1.4,0,2.2,0.2c0.8,0.2,1.7,0.5,2.5,1
		c1.8,1.2,3,2.8,3.5,5c0.1,0.7,0.2,1.4,0.1,2.1c-0.1,0.7-0.4,1.4-0.8,2c-0.8,1.2-1.8,2-3.1,2.5c-0.7,0.2-1.3,0.3-2,0.3
		c-0.1,0-0.3,0-0.4-0.1c-0.2-0.1-0.2-0.2-0.1-0.4c0.1-0.1,0.1-0.1,0.2-0.2c0.1-0.1,0.3-0.3,0.4-0.3c0.5-0.3,0.8-0.6,1.1-1
		c0.7-0.8,1.2-1.6,1.5-2.5c0.5-1.6,0.6-3.1-0.1-4.7c-0.3-0.8-0.8-1.5-1.6-2.1c-0.8-0.6-1.6-1-2.5-1.4
		C1188.8,293.9,1188.5,293.8,1188.2,293.7L1188.2,293.7z"/>
	<path clip-path="url(#SVGID_2_)" fill="#D8CF9B" d="M1187.5,310.6c0.1,0,0.1,0.1,0.1,0.1c0.1,0.4,0.3,0.8,0.5,1.2c0,0,0,0,0,0.1
		c-0.2,0.2-0.5,0.4-0.7,0.7c0.1,0.1,0.1,0,0.2,0c0.5-0.1,1-0.1,1.5-0.2c0.1,0,0.3-0.1,0.3,0c-0.1,0.1-0.1,0.1-0.3,0.3
		c-0.3,0.3-0.5,0.5-0.8,0.7c-0.3-0.2-0.7-0.4-1-0.6c0,0,0,0-0.1,0c0,0.1,0,0.1,0.1,0.1c0.3,0.5,0.5,1,0.7,1.5
		c0.1,0.1,0.1,0.2,0.1,0.3c-0.1,0-0.1-0.1-0.1-0.1c-0.3-0.3-0.7-0.5-1-0.7c0.1-0.4,0.1-0.8,0.2-1.2c-0.1,0-0.1,0-0.1,0.1
		c-0.5,0.5-0.9,1-1.4,1.6c0,0-0.1,0.1-0.1,0.1c-0.1,0,0-0.1,0-0.1c0.1-0.5,0.3-0.9,0.4-1.4c0.4-0.1,0.8-0.2,1.2-0.3
		c0-0.1-0.1-0.1-0.1-0.1c-0.5-0.2-0.9-0.3-1.3-0.5c-0.2-0.1-0.4-0.2-0.6-0.3c0.1-0.1,0.3,0,0.3,0c0.4,0,0.8,0.1,1.2,0.1
		c0.1,0.3,0.5,0.7,0.6,0.7l0,0c0.1-0.4,0.1-0.8,0.1-1.2C1187.4,311.1,1187.4,310.9,1187.5,310.6z"/>
	<path clip-path="url(#SVGID_2_)" fill="#D8CF9B" d="M1186.7,316.7L1186.7,316.7c0.2,0.5,0.4,0.8,0.5,1.3v0.1
		c-0.1,0.1-0.2,0.2-0.3,0.3c-0.1,0.1-0.3,0.2-0.3,0.3l0,0l0,0c0.1,0,0.1,0,0.2,0c0.6-0.1,1.1-0.1,1.7-0.2c0.1,0,0.1,0,0.2,0
		c0,0,0,0.1-0.1,0.1c-0.3,0.3-0.7,0.5-1,0.8c0,0,0,0-0.1,0c-0.3-0.2-0.7-0.4-1-0.6c0,0.1,0,0.1,0.1,0.2c0.3,0.6,0.6,1.2,0.8,1.7
		c0,0.1,0.1,0.1,0.1,0.2c-0.1-0.1-0.3-0.2-0.4-0.3c-0.3-0.2-0.5-0.3-0.8-0.5c0.1-0.4,0.1-0.8,0.2-1.2c-0.1,0-0.1,0-0.1,0.1
		c-0.5,0.5-0.9,1-1.4,1.5c0,0-0.1,0.1-0.1,0.1l0,0c0,0,0,0-0.1,0.1c-0.1-0.1,0-0.1,0-0.1c0.1-0.3,0.2-0.6,0.3-0.8
		c0.1-0.1,0.1-0.3,0.1-0.5c0.1,0,0.1,0,0.1,0c0.3-0.1,0.7-0.2,1-0.3c0,0,0.1,0,0.1-0.1c-0.1,0-0.1-0.1-0.1-0.1
		c-0.6-0.2-1.1-0.5-1.7-0.7c-0.1,0-0.1-0.1-0.1-0.1c0.1-0.1,0.3,0,0.4,0c0.3,0,0.7,0,1,0.1c0.1,0.1,0.2,0.3,0.3,0.4
		c0.1,0.1,0.2,0.3,0.3,0.3c0.1,0,0.1-0.1,0.1-0.1c0.1-0.4,0.1-0.8,0.1-1.2C1186.6,317.2,1186.7,317,1186.7,316.7z"/>
	<path clip-path="url(#SVGID_2_)" fill="#D9902A" d="M1190.1,301.9c0,0.1-0.1,0.3-0.1,0.5c0,0.1,0,0.1-0.1,0.1
		c-0.5,0.3-0.9,0.3-1.4,0.1c-0.3-0.1-0.5-0.3-0.5-0.6c-0.2-0.6-0.1-1.1,0.2-1.6c0.3-0.5,1-0.7,1.6-0.3c0.3,0.1,0.3,0.4,0.4,0.7
		c0,0.1,0,0.1-0.1,0.1c-0.1,0-0.3,0-0.3,0.1c-0.1,0-0.1,0-0.1-0.1c0,0,0,0,0-0.1c-0.1-0.5-0.7-0.5-0.9-0.3c-0.1,0.1-0.1,0.1-0.2,0.3
		c-0.1,0.3-0.2,0.7-0.1,1c0.1,0.3,0.2,0.5,0.5,0.5c0.2,0.1,0.4,0,0.6-0.1c0.1,0,0.1-0.1,0.1-0.1c0-0.3,0.1-0.3-0.2-0.3
		c-0.1,0-0.2,0-0.3-0.1s0-0.2,0-0.3c0-0.1,0-0.1,0.2-0.1c0.3,0,0.5,0.1,0.7,0.1c0.1,0,0.1,0,0.1,0.2
		C1190.1,301.6,1190.1,301.8,1190.1,301.9z"/>
	<path clip-path="url(#SVGID_2_)" fill="#D9902A" d="M1190.5,301.5c0-0.3,0.1-0.5,0.2-0.7c0.2-0.3,0.5-0.5,0.8-0.6
		c0.5-0.1,0.9,0.3,1,0.8c0,0.1,0,0.1-0.1,0.1c-0.1,0-0.1,0-0.1,0c-0.1,0-0.1,0.1-0.2,0c-0.1,0-0.1-0.1-0.1-0.2
		c-0.1-0.3-0.5-0.4-0.8-0.2c-0.1,0.1-0.1,0.1-0.2,0.3c-0.1,0.3-0.2,0.7-0.1,1c0,0.2,0.1,0.3,0.3,0.4c0.2,0.1,0.5,0.1,0.6-0.1
		c0.1-0.1,0.1-0.2,0.1-0.3s0.1-0.1,0.1-0.1c0.1,0.1,0.2,0.1,0.3,0.1c0.1,0,0.1,0.1,0.1,0.1c-0.1,0.3-0.3,0.7-0.7,0.7s-0.7-0.1-1-0.4
		c-0.2-0.3-0.3-0.6-0.3-0.9C1190.5,301.6,1190.5,301.6,1190.5,301.5z"/>
	<path clip-path="url(#SVGID_2_)" fill="#D9902A" d="M1185.1,300.9c0.1-0.4,0.1-0.8,0.1-1.2c0-0.1,0-0.1,0.1-0.1
		c0.5,0.1,0.9,0.1,1.3,0.2c0.1,0,0.1,0,0.1,0.1c0,0.1,0,0.1,0,0.2s-0.1,0.1-0.1,0.1c-0.3-0.1-0.5-0.1-0.8-0.1c-0.1,0-0.1,0-0.1,0
		s-0.1,0-0.1,0.1c0,0.1-0.1,0.3-0.1,0.5c0,0.1,0,0.1,0.1,0.1c0.2,0,0.5,0.1,0.7,0.1c0.1,0,0.1,0,0.1,0s0.1,0.1,0.1,0.1
		c0,0.1,0,0.2,0,0.3s-0.1,0.1-0.1,0.1c-0.3-0.1-0.5-0.1-0.7-0.1c-0.1,0-0.1,0-0.2,0.1c-0.1,0.3-0.1,0.6-0.1,0.8c0,0.1,0,0.1-0.1,0.1
		c-0.1,0-0.1,0-0.3,0c-0.1,0-0.1,0-0.1-0.1c0.1-0.3,0.1-0.7,0.1-1C1185.1,301,1185.1,300.9,1185.1,300.9z"/>
	<path clip-path="url(#SVGID_2_)" fill="#D9902A" d="M1187.6,301.1c-0.1,0.4-0.1,0.8-0.1,1.2c0,0.1,0,0.1-0.1,0.1
		c-0.1,0-0.2,0-0.3,0s-0.1-0.1-0.1-0.1v-0.1c0.1-0.8,0.2-1.6,0.3-2.4c0-0.1,0-0.1,0-0.1c0-0.1,0-0.1,0.1-0.1c0.1,0,0.3,0,0.4,0.1
		c0.1,0.1,0,0.2,0,0.3C1187.6,300.5,1187.6,300.8,1187.6,301.1z"/>
	<path clip-path="url(#SVGID_2_)" fill="#D9902A" d="M1184.4,318c0.1,0.1,0.1,0.1,0.1,0.1c0.6,0.2,1.1,0.5,1.7,0.7
		c0.1,0,0.1,0.1,0.1,0.1c0,0.1,0,0.1-0.1,0.1c-0.3,0.1-0.7,0.2-1,0.3c-0.1,0-0.1,0-0.1,0c-0.3-0.3-0.5-0.7-0.8-1
		C1184.4,318.1,1184.4,318,1184.4,318C1184.3,318,1184.4,318,1184.4,318z"/>
	<path clip-path="url(#SVGID_2_)" fill="#D9902A" d="M1185.6,314.4c0-0.1,0.1-0.1,0.1-0.1c0.5-0.5,0.9-1,1.4-1.6l0.1-0.1
		c0,0.4-0.1,0.8-0.2,1.2C1186.5,314.1,1186.1,314.3,1185.6,314.4z"/>
	<path clip-path="url(#SVGID_2_)" fill="#D9902A" d="M1184.9,320.6c0-0.1,0.1-0.1,0.1-0.1c0.5-0.5,0.9-1,1.4-1.5l0.1-0.1
		c0,0.4-0.1,0.8-0.2,1.2c-0.4,0.1-0.8,0.3-1.2,0.4C1185,320.6,1185,320.6,1184.9,320.6z"/>
	<path clip-path="url(#SVGID_2_)" fill="#D9902A" d="M1185.1,311.8c0.2,0.1,0.4,0.1,0.6,0.3c0.5,0.2,0.9,0.3,1.3,0.5
		c0.1,0,0.1,0,0.1,0.1c-0.4,0.1-0.8,0.2-1.2,0.3C1185.7,312.6,1185.4,312.2,1185.1,311.8L1185.1,311.8z"/>
	<path clip-path="url(#SVGID_2_)" fill="#D9902A" d="M1187.5,320.9c0-0.1,0-0.1-0.1-0.2c-0.3-0.6-0.6-1.2-0.8-1.7
		c0-0.1-0.1-0.1-0.1-0.2c0.3,0.2,0.7,0.4,1,0.6c0,0.5,0,0.9,0,1.4C1187.5,320.8,1187.5,320.9,1187.5,320.9z"/>
	<path clip-path="url(#SVGID_2_)" fill="#D9902A" d="M1188.2,314.7c0-0.1-0.1-0.2-0.1-0.3c-0.3-0.5-0.5-1-0.7-1.5
		c0-0.1-0.1-0.1-0.1-0.1h0.1c0.3,0.2,0.7,0.4,1,0.6C1188.3,313.8,1188.3,314.2,1188.2,314.7C1188.3,314.8,1188.2,314.8,1188.2,314.7
		C1188.2,314.8,1188.2,314.7,1188.2,314.7z"/>
	<path clip-path="url(#SVGID_2_)" fill="#D9902A" d="M1186.7,316.7c-0.1,0.3-0.1,0.5-0.1,0.7c0,0.4-0.1,0.8-0.1,1.2
		c0,0,0,0.1-0.1,0.1c-0.1-0.1-0.2-0.2-0.3-0.3c-0.1-0.1-0.2-0.3-0.3-0.4C1186.1,317.6,1186.4,317.2,1186.7,316.7
		C1186.6,316.7,1186.7,316.7,1186.7,316.7z"/>
	<path clip-path="url(#SVGID_2_)" fill="#D9902A" d="M1187.5,310.6c-0.1,0.3-0.1,0.5-0.1,0.7c0,0.4-0.1,0.8-0.1,1.2l0,0
		c-0.1-0.1-0.5-0.5-0.6-0.7C1186.9,311.4,1187.1,311,1187.5,310.6C1187.5,310.5,1187.5,310.5,1187.5,310.6L1187.5,310.6z"/>
	<path clip-path="url(#SVGID_2_)" fill="#D9902A" d="M1189.3,312.4c-0.1,0-0.3,0-0.3,0c-0.5,0.1-1,0.1-1.5,0.2c-0.1,0-0.1,0-0.2,0
		c0.2-0.3,0.5-0.4,0.7-0.7c0.5,0.1,0.8,0.3,1.3,0.3C1189.3,312.3,1189.3,312.3,1189.3,312.4C1189.4,312.4,1189.3,312.4,1189.3,312.4
		L1189.3,312.4z"/>
	<path clip-path="url(#SVGID_2_)" fill="#D9902A" d="M1188.6,318.6c-0.1,0-0.1,0-0.2,0c-0.6,0.1-1.1,0.1-1.7,0.2c-0.1,0-0.1,0-0.2,0
		l0,0c0.1-0.1,0.3-0.2,0.3-0.3c0.1-0.1,0.2-0.2,0.3-0.3c0.5,0.1,0.9,0.3,1.4,0.3C1188.6,318.5,1188.6,318.5,1188.6,318.6
		L1188.6,318.6z"/>
	<path clip-path="url(#SVGID_2_)" fill="#D8CF9B" d="M1195.5,305.2C1195.5,305.2,1195.5,305.2,1195.5,305.2c0-0.1,0-0.1,0.1-0.2
		C1195.6,305,1195.5,305.1,1195.5,305.2z"/>
	<path clip-path="url(#SVGID_2_)" fill="#D9902A" d="M1188.2,293.7L1188.2,293.7c-0.1,0.1-0.1,0.1-0.2,0
		C1188,293.7,1188.1,293.6,1188.2,293.7z"/>
	<path clip-path="url(#SVGID_2_)" fill="#D8CF9B" d="M1188.6,318.6C1188.6,318.5,1188.6,318.5,1188.6,318.6
		C1188.6,318.5,1188.6,318.4,1188.6,318.6C1188.6,318.5,1188.6,318.6,1188.6,318.6z"/>
	<path clip-path="url(#SVGID_2_)" fill="#D9902A" d="M1184.9,320.6L1184.9,320.6L1184.9,320.6z"/>
	<path clip-path="url(#SVGID_2_)" fill="#D8CF9B" d="M1188.2,314.8C1188.2,314.8,1188.3,314.8,1188.2,314.8
		C1188.3,314.8,1188.2,314.8,1188.2,314.8z"/>
	<path clip-path="url(#SVGID_2_)" fill="#D8CF9B" d="M1187.5,310.5L1187.5,310.5L1187.5,310.5z"/>
	<path clip-path="url(#SVGID_2_)" fill="#D8CF9B" d="M1182,305.8C1182,305.8,1182,305.8,1182,305.8
		C1182,305.8,1182,305.8,1182,305.8C1182,305.8,1182,305.8,1182,305.8C1182,305.8,1182,305.8,1182,305.8z"/>
	<path clip-path="url(#SVGID_2_)" fill="#D8CF9B" d="M1177.8,309.4C1177.9,309.4,1177.9,309.4,1177.8,309.4c0.1,0,0.1,0.1,0.1,0.1
		c0.1,0.5,0.3,0.8,0.5,1.3c-0.3,0.2-0.5,0.4-0.7,0.7c0.1,0,0.2,0,0.3,0c0.6-0.1,1.2-0.2,1.8-0.3c0,0.1-0.1,0.1-0.1,0.1
		c-0.3,0.3-0.7,0.6-1,0.8c-0.3-0.2-0.7-0.4-1-0.6c0,0.1,0,0.1,0.1,0.1c0.3,0.6,0.5,1.1,0.8,1.7c0,0.1,0.1,0.1,0.1,0.2
		c-0.1,0-0.1-0.1-0.1-0.1c-0.3-0.3-0.7-0.5-1-0.7c0.1-0.4,0.1-0.8,0.2-1.2c-0.1,0-0.1,0.1-0.1,0.1c-0.5,0.5-0.9,1-1.3,1.5
		c0,0.1-0.1,0.1-0.1,0.1l0,0c0,0,0,0-0.1,0c0-0.1,0-0.2,0.1-0.3c0.1-0.4,0.2-0.8,0.3-1.2c0.2-0.1,0.4-0.1,0.6-0.1
		c0.2-0.1,0.4-0.1,0.6-0.1c-0.1-0.1-0.1-0.1-0.2-0.1c-0.3-0.1-0.7-0.3-1-0.4c-0.3-0.1-0.6-0.3-0.9-0.3c0.1-0.1,0.3,0,0.3,0
		c0.4,0,0.8,0,1.2,0.1c0.1,0.1,0.2,0.3,0.3,0.4c0.1,0.1,0.2,0.3,0.3,0.4c0.1,0,0.1-0.1,0.1-0.1c0.1-0.5,0.1-1.1,0.1-1.6
		C1177.8,309.6,1177.8,309.5,1177.8,309.4z"/>
	<path clip-path="url(#SVGID_2_)" fill="#D9902A" d="M1176,313.2c0-0.1,0.1-0.1,0.1-0.1c0.5-0.5,0.9-1,1.3-1.5
		c0.1-0.1,0.1-0.1,0.1-0.1c-0.1,0.4-0.1,0.8-0.2,1.2C1176.9,312.9,1176.5,313.1,1176,313.2C1176.1,313.2,1176.1,313.3,1176,313.2z"
		/>
	<path clip-path="url(#SVGID_2_)" fill="#D9902A" d="M1175.5,310.7c0.3,0.1,0.6,0.3,0.9,0.3c0.3,0.1,0.7,0.3,1,0.4
		c0.1,0,0.1,0.1,0.2,0.1c-0.2,0.1-0.4,0.1-0.6,0.1c-0.2,0.1-0.4,0.1-0.6,0.1C1176.2,311.4,1175.8,311,1175.5,310.7
		C1175.5,310.7,1175.5,310.7,1175.5,310.7z"/>
	<path clip-path="url(#SVGID_2_)" fill="#D9902A" d="M1178.6,313.5c0-0.1-0.1-0.1-0.1-0.2c-0.3-0.6-0.5-1.1-0.8-1.7
		c0-0.1-0.1-0.1-0.1-0.1c0.3,0.2,0.7,0.4,1,0.6c0,0.4,0,0.8,0,1.2C1178.7,313.4,1178.7,313.5,1178.6,313.5L1178.6,313.5
		L1178.6,313.5z"/>
	<path clip-path="url(#SVGID_2_)" fill="#D9902A" d="M1177.8,309.4c0,0.1,0,0.3,0,0.3c-0.1,0.5-0.1,1.1-0.1,1.6c0,0,0,0.1-0.1,0.1
		c-0.1-0.1-0.2-0.3-0.3-0.4c-0.1-0.1-0.2-0.3-0.3-0.4C1177.3,310.2,1177.6,309.8,1177.8,309.4
		C1177.8,309.4,1177.8,309.4,1177.8,309.4z"/>
	<path clip-path="url(#SVGID_2_)" fill="#D9902A" d="M1179.8,311.2c-0.6,0.1-1.2,0.2-1.8,0.3c-0.1,0-0.1,0-0.3,0
		c0.3-0.3,0.5-0.5,0.7-0.7C1178.9,310.9,1179.3,311,1179.8,311.2C1179.7,311.1,1179.7,311.1,1179.8,311.2z"/>
	<path clip-path="url(#SVGID_2_)" fill="#D8CF9B" d="M1178.6,313.5L1178.6,313.5C1178.6,313.6,1178.6,313.6,1178.6,313.5
		C1178.6,313.6,1178.6,313.5,1178.6,313.5z"/>
	<path clip-path="url(#SVGID_2_)" fill="#D9902A" d="M1176,313.3C1176,313.3,1176,313.2,1176,313.3L1176,313.3z"/>
	<path clip-path="url(#SVGID_2_)" fill="#D8CF9B" d="M1197.1,311.8c0.2,0.5,0.3,0.9,0.5,1.4c-0.2,0.2-0.5,0.4-0.7,0.7
		c0.1,0,0.1,0,0.2,0c0.5-0.1,1.1-0.1,1.6-0.2c0.1,0,0.1,0,0.3,0c-0.2,0.2-0.5,0.4-0.7,0.6c-0.1,0.1-0.3,0.3-0.5,0.3
		c-0.1,0-0.1-0.1-0.2-0.1c-0.3-0.1-0.5-0.3-0.7-0.4c-0.1,0-0.1-0.1-0.1-0.1c0,0.1,0,0.1,0.1,0.1c0.3,0.5,0.5,1,0.8,1.6
		c0.1,0.1,0.1,0.2,0.1,0.3c-0.4-0.3-0.8-0.5-1.2-0.8c0.1-0.4,0.1-0.8,0.2-1.2c-0.1,0-0.1,0.1-0.1,0.1c-0.4,0.4-0.7,0.8-1.1,1.2
		c-0.1,0.1-0.3,0.2-0.3,0.4l0,0c0,0,0,0-0.1,0c0.1-0.4,0.2-0.8,0.3-1.2c0-0.1,0.1-0.1,0.1-0.2c0.4-0.1,0.8-0.2,1.2-0.3
		c-0.1-0.1-0.1-0.1-0.2-0.1c-0.5-0.2-0.9-0.4-1.4-0.5c-0.1-0.1-0.3-0.1-0.5-0.2l0,0l0,0c0.5,0,1,0,1.5,0.1c0.1,0.2,0.5,0.7,0.6,0.7
		c0-0.1,0-0.1,0-0.2c0.1-0.6,0.1-1.1,0.2-1.7C1197,311.9,1197,311.8,1197.1,311.8z"/>
	<path clip-path="url(#SVGID_2_)" fill="#D9902A" d="M1195.3,315.6c0.1-0.1,0.2-0.3,0.3-0.4c0.4-0.4,0.7-0.8,1.1-1.2
		c0.1-0.1,0.1-0.1,0.1-0.1c-0.1,0.4-0.1,0.8-0.2,1.2c-0.4,0.1-0.8,0.3-1.2,0.4C1195.3,315.6,1195.3,315.6,1195.3,315.6z"/>
	<path clip-path="url(#SVGID_2_)" fill="#D9902A" d="M1194.8,313c0.2,0.1,0.3,0.1,0.5,0.2c0.5,0.2,0.9,0.3,1.4,0.5
		c0.1,0,0.1,0,0.2,0.1c-0.4,0.1-0.8,0.2-1.2,0.3c-0.3-0.3-0.6-0.7-0.8-1C1194.8,313.1,1194.7,313.1,1194.8,313z"/>
	<path clip-path="url(#SVGID_2_)" fill="#D9902A" d="M1197.8,315.9c0-0.1-0.1-0.2-0.1-0.3c-0.3-0.5-0.5-1-0.8-1.6
		c0-0.1-0.1-0.1-0.1-0.1c0.1,0,0.1,0,0.1,0.1c0.3,0.1,0.5,0.3,0.7,0.4c0.1,0.1,0.1,0.1,0.2,0.1c0,0.3,0,0.5,0,0.8
		C1197.9,315.5,1197.9,315.7,1197.8,315.9C1197.9,315.9,1197.9,315.9,1197.8,315.9z"/>
	<path clip-path="url(#SVGID_2_)" fill="#D9902A" d="M1197.1,311.8c-0.1,0.1-0.1,0.1-0.1,0.2c-0.1,0.6-0.1,1.1-0.2,1.7
		c0,0.1,0,0.1,0,0.2c-0.1-0.1-0.5-0.5-0.6-0.7c0.1-0.2,0.2-0.3,0.3-0.5C1196.7,312.4,1196.9,312.1,1197.1,311.8
		C1197,311.7,1197,311.7,1197.1,311.8z"/>
	<path clip-path="url(#SVGID_2_)" fill="#D9902A" d="M1199,313.5c-0.1,0-0.1,0-0.3,0c-0.5,0.1-1.1,0.1-1.6,0.2c-0.1,0-0.1,0-0.2,0
		c0.2-0.3,0.5-0.5,0.7-0.7c0.3,0.1,0.5,0.1,0.8,0.2c0.2,0.1,0.3,0.1,0.5,0.1C1198.9,313.5,1199,313.5,1199,313.5z"/>
	<path clip-path="url(#SVGID_2_)" fill="#D9902A" d="M1195.2,315.6L1195.2,315.6L1195.2,315.6L1195.2,315.6z"/>
	<path clip-path="url(#SVGID_2_)" fill="#D9902A" d="M1194.8,313L1194.8,313C1194.7,313,1194.7,313,1194.8,313
		C1194.7,313,1194.8,313,1194.8,313z"/>
	<path clip-path="url(#SVGID_2_)" fill="#2C41A1" d="M1198.7,287.8c0.2-0.4,0.4-0.8,0.6-1.2c0.1,0,0.1,0.1,0.1,0.1
		c0.1,0.3,0.1,0.7,0.2,1c0,0.1,0,0.1-0.1,0.1C1199.2,287.9,1199,287.8,1198.7,287.8z"/>
	<path clip-path="url(#SVGID_2_)" fill="#2C41A1" d="M1187.3,286.4c0.2-0.4,0.4-0.8,0.6-1.2l0,0c0.1,0.5,0.1,0.8,0.3,1.3
		C1187.8,286.4,1187.5,286.4,1187.3,286.4z"/>
	<path clip-path="url(#SVGID_2_)" fill="#D9902A" d="M1186.5,318.8L1186.5,318.8L1186.5,318.8L1186.5,318.8z"/>
	<path clip-path="url(#SVGID_2_)" fill="#36221C" d="M1141,191.7c0.8-6.9-6.9-13.4-17.9-7.2c-11,6.3-22,2.3-19.2-6.5
		c0,0-9.2,14.7,11,20.8C1131.6,203.7,1140.3,197.5,1141,191.7z"/>
	<path clip-path="url(#SVGID_2_)" fill="#36221C" d="M1138.6,191.4c0.8-6.9,9.9-11.4,19.1-2.6c9.2,8.7,20.8,7.6,20.2-1.6
		c0,0,5.3,16.5-15.7,17.4C1144.8,205.4,1137.9,197.1,1138.6,191.4z"/>
	<path clip-path="url(#SVGID_2_)" fill="#36221C" d="M1089.3,156.5l-4.5,38.8c0,0,5.4,3.6,6.7-4.4s3.7-34.2,9.5-34.3
		c5.9-0.1,30.2-31.7,7.2-32.6C1084.3,123,1089.3,156.5,1089.3,156.5z"/>
	<path clip-path="url(#SVGID_2_)" fill="#36221C" d="M1109.8,142.6c0,0,25,9.4,47.3,5c14.7-2.9,32.6-3.3,36.1-21.4
		c0,0-12.9,9-21.7-0.6c-14.9-16.4-60.6-25.4-65.3,1.3L1109.8,142.6z"/>
	<path clip-path="url(#SVGID_2_)" fill="#36221C" d="M1166.7,143.2c0,0,1.7,17,9.7,23.8c0,0,9.7-17-6.1-26.9L1166.7,143.2z"/>
	<path clip-path="url(#SVGID_2_)" fill="#DF5142" d="M1084,206c0,0,10.4,0.3,11.8,5.9c0.7,2.9-3,6-3,6s5,1.8,4.6,6.1
		c-0.3,3.7-5.4,3.3-5.4,3.3s5.4,2.3,3.1,7.5c-1.3,3-7.2,2.2-8.2,2c0,0,3.5,2.6,2.9,6.8c-0.8,6-10.7,2-10.7,2L1084,206z"/>
	<path opacity="0.1" clip-path="url(#SVGID_2_)" enable-background="new    " d="M1031.1,397l1.2,13.2c0,0,29.2,15.1,61.4,7.4
		s103-35,87.5-53.3C1165.6,346,1122.8,416.5,1031.1,397z"/>
	<path clip-path="url(#SVGID_2_)" fill="#EFB789" d="M1165.5,354.3c-5.5,3.5-11.4,6.7-17.2,9.7c-6,3.1-12.1,6.1-18.3,8.9
		c-0.8,0.4-1.7,0.8-2.6,1.1c-0.5,0.2-0.8,0.4-1.3,0.6c-1.4,0.6,2.2-0.9,0.8-0.3c-2,0.8-3.9,1.6-5.8,2.3c-3.8,1.5-7.6,2.9-11.4,4.1
		c-7.8,2.6-15.8,4.8-23.9,6.2c-1,0.2-2,0.3-3,0.5c-2.9,0.5,0.9-0.1-0.7,0.1c-2,0.2-4,0.5-5.9,0.6c-3.9,0.3-7.8,0.3-11.6,0
		c-0.9-0.1-1.9-0.2-2.8-0.3c-2.9-0.2,1.1,0.3-0.4-0.1c-1.8-0.5-3.7-0.7-5.4-1.1c-1.8-0.5-3.5-1-5.2-1.6c-0.9-0.3-3.5-1.7-0.3-0.1
		c-0.8-0.4-1.6-0.8-2.4-1.2c-1.6-0.8-3.1-1.8-4.6-2.7c-0.8-0.5-3.1-2.4-0.4-0.2c-0.8-0.7-1.6-1.3-2.3-2c-1.3-1.2-2.5-2.5-3.7-3.9
		c-0.5-0.6-2.4-3.3-0.5-0.5c-0.7-0.9-1.3-1.8-2-2.8c-1.3-2-2.4-4.2-3.5-6.3c-0.3-0.5-0.5-1-0.7-1.5c-0.7-1.4,1,2.7,0,0
		c-0.5-1.2-0.9-2.5-1.4-3.8c-0.9-2.7-1.6-5.5-2.2-8.4c-0.3-1.5-0.6-3.1-0.8-4.6c-0.1-0.7-0.2-1.4-0.3-2.1c0.3,1.8,0,0.1-0.1-0.7
		c-1.8-16.3-0.8-32.7,1.4-48.8c0.8-6.2-1.5-12.5-8.2-14.4c-5.5-1.5-13.4,1.9-14.4,8.2c-6.1,43.1-6.7,108.7,47.5,120.4
		c34.6,7.5,71.6-7.2,102.1-22.3c8-4,15.9-8.2,23.4-13C1189.9,366.4,1178.2,346.2,1165.5,354.3L1165.5,354.3z"/>
	<path clip-path="url(#SVGID_2_)" fill="#3A96EA" d="M1034.9,242.3c0,0-29.8-1.7-38.6,56.7c0,0,18.9,25.1,40.6,13.6
		C1058.7,301.3,1034.9,242.3,1034.9,242.3z"/>
	<path clip-path="url(#SVGID_2_)" fill="#0BCECC" d="M996.3,299c0,0,12,18.5,29.4,16.8l-0.2-6.5c0,0-13.8,2-27.7-17.7L996.3,299z"/>
	<path clip-path="url(#SVGID_2_)" d="M904.2,284.1c21.1,8.5,43.6,14.3,65.9,18.7c44.1,8.7,91.7,11.8,135.2-1.7
		c26.2-8.2,50.3-22.6,68.5-43.3c4.2-4.7,4.6-11.8,0-16.5c-4.2-4.2-12.3-4.8-16.5,0c-29.8,33.8-73.1,45.4-116.6,45.6
		c-37.2,0.2-72.1-6.5-108.2-17.6c-7.4-2.3-14.9-4.7-22.1-7.6c-5.9-2.3-12.8,2.5-14.4,8.2C894.3,276.4,898.4,281.7,904.2,284.1
		L904.2,284.1z"/>
	<path clip-path="url(#SVGID_2_)" fill="#EFB789" d="M899.6,280.6c21.1,8.5,43.6,14.3,65.9,18.7c44.1,8.7,91.7,11.8,135.2-1.7
		c26.2-8.2,50.3-22.6,68.5-43.3c4.2-4.7,4.6-11.8,0-16.5c-4.2-4.2-12.3-4.8-16.5,0c-29.8,33.8-73.1,45.4-116.6,45.6
		c-37.2,0.2-72.1-6.5-108.2-17.6c-7.4-2.3-14.9-4.7-22.1-7.6c-5.9-2.4-12.8,2.5-14.4,8.2C889.6,272.9,893.7,278.2,899.6,280.6
		L899.6,280.6z"/>
	<path clip-path="url(#SVGID_2_)" fill="#E8E8E4" d="M898.6,251c-6.1-2-27.1,13.7-7.6,28.6c0,0,30.4,19.3,59.5,21l5.5-33.2
		C956,267.3,913.2,255.8,898.6,251z"/>
	<path clip-path="url(#SVGID_2_)" fill="#FFFFFF" d="M956,267.3c-0.6,0.3-5.8,34.7-5.8,34.7s-5.2-0.6-6.1-2.4l6.7-34.4L956,267.3z"
		/>
	<path opacity="0.1" clip-path="url(#SVGID_2_)" enable-background="new    " d="M1172,202.6l-4.4,33.8c0,0,2.3,0.8,2.6,2.6
		l4.4-36.8c0,0,8.9-4.4,3.3-15.2L1172,202.6z"/>
	<polygon opacity="0.1" clip-path="url(#SVGID_2_)" enable-background="new    " points="1174.3,182.2 1172.9,195.3 1176.1,193.9 
		1177.5,181 	"/>
	<path opacity="0.1" clip-path="url(#SVGID_2_)" enable-background="new    " d="M1211,338.4l11-52.5l10.5,49.3
		C1232.4,335.2,1221.7,342,1211,338.4z"/>
	<path clip-path="url(#SVGID_2_)" fill="#31383B" d="M885.1,45.5c-0.1-0.1-0.1-0.3-0.1-0.4c-0.1-0.1-0.1-0.3-0.1-0.5
		c0-0.2-0.1-0.5-0.1-0.7s0-0.7,0-1.1v-3.5c0-1-0.2-1.8-0.5-2.2c-0.3-0.4-0.9-0.7-1.7-0.7h-1.2v8.9h-3.5V23.6h5.2
		c1.8,0,3.1,0.4,3.9,1.2c0.8,0.8,1.2,2.1,1.2,3.8v1.7c0,2.3-0.8,3.7-2.3,4.4c0.8,0.3,1.5,0.9,1.8,1.8c0.3,0.8,0.5,1.8,0.5,2.9v3.4
		c0,0.5,0,1,0.1,1.4c0.1,0.4,0.1,0.8,0.3,1.2H885.1z M881.3,26.7v6.7h1.4c0.7,0,1.2-0.2,1.5-0.5c0.4-0.3,0.5-0.9,0.5-1.8v-2.2
		c0-0.8-0.1-1.4-0.4-1.7s-0.7-0.5-1.3-0.5C883,26.7,881.3,26.7,881.3,26.7z"/>
	<path clip-path="url(#SVGID_2_)" fill="#31383B" d="M893.9,32.8h4.7V36h-4.7v6.4h5.9v3.1h-9.4V23.6h9.4v3.1h-5.9V32.8z"/>
	<path clip-path="url(#SVGID_2_)" fill="#31383B" d="M912,37.3v2.9c0,1.8-0.5,3.1-1.3,4.1c-0.8,1-2.2,1.4-3.9,1.4
		c-1.7,0-3-0.5-3.9-1.4c-0.8-1-1.3-2.3-1.3-4.1V28.9c0-1.8,0.5-3.1,1.3-4.1c0.8-1,2.2-1.4,3.9-1.4c1.7,0,3,0.5,3.9,1.4
		c0.8,1,1.3,2.3,1.3,4.1V31h-3.3v-2.3c0-0.8-0.1-1.4-0.5-1.7c-0.3-0.3-0.8-0.5-1.3-0.5s-1,0.1-1.3,0.5c-0.3,0.3-0.5,0.9-0.5,1.7
		v11.8c0,0.8,0.1,1.4,0.5,1.6c0.3,0.3,0.8,0.5,1.3,0.5s1-0.1,1.3-0.5c0.3-0.3,0.5-0.8,0.5-1.6v-3.1H912z"/>
	<path clip-path="url(#SVGID_2_)" fill="#31383B" d="M913.8,28.9c0-1.8,0.5-3.1,1.4-4.1c0.9-1,2.2-1.4,3.9-1.4c1.7,0,3,0.5,3.9,1.4
		c0.9,1,1.4,2.3,1.4,4.1v11.4c0,1.8-0.5,3.1-1.4,4.1s-2.2,1.4-3.9,1.4c-1.7,0-3-0.5-3.9-1.4s-1.4-2.3-1.4-4.1V28.9z M917.3,40.5
		c0,0.8,0.1,1.4,0.5,1.7c0.3,0.3,0.8,0.5,1.3,0.5s1-0.1,1.3-0.5c0.3-0.3,0.5-0.9,0.5-1.7V28.6c0-0.8-0.1-1.4-0.5-1.7
		c-0.3-0.3-0.8-0.5-1.3-0.5s-1,0.1-1.3,0.5c-0.3,0.3-0.5,0.9-0.5,1.7V40.5z"/>
	<path clip-path="url(#SVGID_2_)" fill="#31383B" d="M933.8,39.2l2.4-15.6h4.8v21.9h-3.3V29.8l-2.4,15.7H932L929.5,30v15.5h-3V23.6
		h4.8L933.8,39.2z"/>
	<path clip-path="url(#SVGID_2_)" fill="#31383B" d="M946.9,32.8h4.7V36h-4.7v6.4h5.9v3.1h-9.4V23.6h9.4v3.1h-5.9V32.8z"/>
	<path clip-path="url(#SVGID_2_)" fill="#31383B" d="M958.1,29.6v15.9h-3.1V23.6h4.3l3.5,13.1V23.6h3.1v21.9h-3.5L958.1,29.6z"/>
	<path clip-path="url(#SVGID_2_)" fill="#31383B" d="M968.4,23.6h5.5c1.8,0,3,0.5,3.9,1.4c0.8,0.9,1.2,2.3,1.2,4v11.1
		c0,1.8-0.4,3.1-1.2,4c-0.8,0.9-2.2,1.4-3.9,1.4h-5.5V23.6z M971.8,26.7v15.7h2c0.5,0,1-0.1,1.3-0.5c0.3-0.3,0.5-0.8,0.5-1.6V28.9
		c0-0.8-0.1-1.4-0.5-1.6c-0.3-0.3-0.7-0.5-1.3-0.5L971.8,26.7L971.8,26.7z"/>
	<path clip-path="url(#SVGID_2_)" fill="#31383B" d="M992.3,45.5h-3.5l-0.6-4H984l-0.6,4h-3.2l3.5-21.9h5L992.3,45.5z M984.4,38.6
		h3.3l-1.6-11.1L984.4,38.6z"/>
	<path clip-path="url(#SVGID_2_)" fill="#31383B" d="M1001.1,39.2l2.3-15.6h4.8v21.9h-3.3V29.8l-2.3,15.7h-3.3L996.8,30v15.5h-3
		V23.6h4.8L1001.1,39.2z"/>
	<path clip-path="url(#SVGID_2_)" fill="#31383B" d="M1010.5,28.9c0-1.8,0.5-3.1,1.4-4.1c0.9-1,2.2-1.4,3.9-1.4s3,0.5,3.9,1.4
		c0.9,1,1.4,2.3,1.4,4.1v11.4c0,1.8-0.5,3.1-1.4,4.1s-2.2,1.4-3.9,1.4s-3-0.5-3.9-1.4s-1.4-2.3-1.4-4.1V28.9z M1014,40.5
		c0,0.8,0.1,1.4,0.5,1.7c0.3,0.3,0.8,0.5,1.3,0.5s1-0.1,1.3-0.5c0.3-0.3,0.5-0.9,0.5-1.7V28.6c0-0.8-0.1-1.4-0.5-1.7
		c-0.3-0.3-0.8-0.5-1.3-0.5s-1,0.1-1.3,0.5c-0.3,0.3-0.5,0.9-0.5,1.7V40.5z"/>
	<path clip-path="url(#SVGID_2_)" fill="#31383B" d="M1022.8,28.9c0-1.8,0.4-3.1,1.2-4.1c0.8-1,2.1-1.4,3.8-1.4
		c1.7,0,2.9,0.5,3.8,1.4c0.8,1,1.2,2.3,1.2,4.1v0.7h-3.3v-0.9c0-0.8-0.1-1.4-0.5-1.7c-0.3-0.3-0.7-0.5-1.2-0.5s-1,0.1-1.2,0.5
		c-0.3,0.3-0.5,0.9-0.5,1.7s0.2,1.4,0.5,2c0.3,0.6,0.8,1.1,1.2,1.6c0.5,0.5,1,1,1.6,1.6c0.6,0.5,1.1,1,1.6,1.7
		c0.5,0.6,0.9,1.3,1.2,2.1c0.3,0.8,0.5,1.7,0.5,2.7c0,1.8-0.5,3.1-1.3,4.1s-2.2,1.4-3.9,1.4c-1.7,0-3-0.5-3.9-1.4s-1.3-2.3-1.3-4.1
		V39h3.3v1.5c0,0.8,0.1,1.4,0.5,1.6c0.3,0.3,0.8,0.5,1.3,0.5s1-0.1,1.3-0.5s0.5-0.8,0.5-1.6c0-0.8-0.2-1.4-0.5-2
		c-0.3-0.6-0.8-1.1-1.2-1.6c-0.5-0.5-1-1-1.6-1.6c-0.6-0.5-1.1-1-1.6-1.7c-0.5-0.6-0.9-1.3-1.2-2.1
		C1023,30.8,1022.8,29.9,1022.8,28.9z"/>
	<path clip-path="url(#SVGID_2_)" fill="#31383B" d="M1043.1,23.6v16.9c0,0.8,0.1,1.4,0.5,1.6c0.3,0.3,0.8,0.5,1.3,0.5
		s1-0.1,1.3-0.5s0.5-0.8,0.5-1.6V23.6h3.3v16.7c0,1.8-0.5,3.1-1.3,4.1s-2.2,1.4-3.9,1.4c-1.7,0-3-0.5-3.9-1.4s-1.3-2.3-1.3-4.1V23.6
		H1043.1z"/>
	<path clip-path="url(#SVGID_2_)" fill="#31383B" d="M1055.3,29.6v15.9h-3.1V23.6h4.3l3.5,13.1V23.6h3.1v21.9h-3.5L1055.3,29.6z"/>
	<path clip-path="url(#SVGID_2_)" fill="#31383B" d="M1075.7,23.6c1.8,0,3.1,0.4,3.9,1.2c0.8,0.8,1.2,2.1,1.2,3.8v0.8
		c0,1.1-0.2,2.1-0.5,2.8c-0.3,0.7-0.9,1.3-1.7,1.6c0.9,0.3,1.6,0.9,2,1.8c0.4,0.8,0.6,1.8,0.6,2.9v1.8c0,1.7-0.5,3-1.3,3.9
		c-0.8,0.9-2.2,1.3-3.9,1.3h-5.4V23.6H1075.7z M1073.9,26.7v5.8h1.4c0.7,0,1.2-0.2,1.5-0.5c0.4-0.3,0.5-0.9,0.5-1.8v-1.2
		c0-0.8-0.1-1.4-0.4-1.7s-0.7-0.5-1.3-0.5C1075.6,26.7,1073.9,26.7,1073.9,26.7z M1073.9,35.6v6.7h2c0.6,0,1-0.1,1.3-0.5
		s0.5-0.8,0.5-1.7v-1.9c0-1-0.2-1.7-0.5-2.1s-0.9-0.6-1.7-0.6C1075.4,35.6,1073.9,35.6,1073.9,35.6z"/>
	<path clip-path="url(#SVGID_2_)" fill="#31383B" d="M1086.5,23.6v16.9c0,0.8,0.1,1.4,0.5,1.6c0.3,0.3,0.8,0.5,1.3,0.5
		s1-0.1,1.3-0.5c0.3-0.3,0.5-0.8,0.5-1.6V23.6h3.3v16.7c0,1.8-0.5,3.1-1.3,4.1c-0.8,1-2.2,1.4-3.9,1.4c-1.7,0-3-0.5-3.9-1.4
		s-1.3-2.3-1.3-4.1V23.6H1086.5z"/>
	<path clip-path="url(#SVGID_2_)" fill="#31383B" d="M1099.1,32.8h4.7V36h-4.7v6.4h5.9v3.1h-9.4V23.6h9.4v3.1h-5.9V32.8z"/>
	<path clip-path="url(#SVGID_2_)" fill="#31383B" d="M1110.3,29.6v15.9h-3.1V23.6h4.3l3.5,13.1V23.6h3.1v21.9h-3.5L1110.3,29.6z"/>
	<path clip-path="url(#SVGID_2_)" fill="#31383B" d="M1128.9,32.8h4.7V36h-4.7v6.4h5.9v3.1h-9.4V23.6h9.4v3.1h-5.9V32.8z"/>
	<path clip-path="url(#SVGID_2_)" fill="#31383B" d="M1140.1,29.6v15.9h-3.1V23.6h4.3l3.5,13.1V23.6h3.1v21.9h-3.5L1140.1,29.6z"/>
	<path clip-path="url(#SVGID_2_)" fill="#31383B" d="M1149.5,42.4c0.2,0,0.4,0,0.6,0s0.4,0,0.6,0c0.5,0,1-0.1,1.4-0.4
		c0.4-0.3,0.6-0.8,0.6-1.7V23.6h3.5V40c0,1.1-0.1,2-0.4,2.7c-0.3,0.7-0.7,1.2-1.1,1.7s-1,0.7-1.6,0.8c-0.6,0.2-1.2,0.3-1.9,0.3
		c-0.3,0-0.6,0-0.8,0s-0.5,0-0.8-0.1V42.4L1149.5,42.4z"/>
	<path clip-path="url(#SVGID_2_)" fill="#31383B" d="M1161.7,23.6v16.9c0,0.8,0.1,1.4,0.5,1.6c0.3,0.3,0.8,0.5,1.3,0.5
		s1-0.1,1.3-0.5s0.5-0.8,0.5-1.6V23.6h3.3v16.7c0,1.8-0.5,3.1-1.3,4.1s-2.2,1.4-3.9,1.4s-3-0.5-3.9-1.4s-1.3-2.3-1.3-4.1V23.6
		H1161.7z"/>
	<path clip-path="url(#SVGID_2_)" fill="#31383B" d="M1182,45.5h-3.5l-0.6-4h-4.2l-0.6,4h-3.1l3.5-21.9h5L1182,45.5z M1174.1,38.6
		h3.3l-1.6-11.1L1174.1,38.6z"/>
	<path clip-path="url(#SVGID_2_)" fill="#31383B" d="M1188.8,33.3h4.8v7c0,1.8-0.5,3.1-1.3,4.1s-2.2,1.4-3.9,1.4
		c-1.7,0-3-0.5-3.9-1.4c-0.8-1-1.3-2.3-1.3-4.1V28.9c0-1.8,0.5-3.1,1.3-4.1c0.8-1,2.2-1.4,3.9-1.4s3,0.5,3.9,1.4
		c0.8,1,1.3,2.3,1.3,4.1V31h-3.3v-2.3c0-0.8-0.1-1.4-0.5-1.7s-0.8-0.5-1.3-0.5s-1,0.1-1.3,0.5c-0.3,0.3-0.5,0.9-0.5,1.7v11.8
		c0,0.8,0.1,1.4,0.5,1.6c0.3,0.3,0.8,0.5,1.3,0.5s1-0.1,1.3-0.5s0.5-0.8,0.5-1.6v-4h-1.6V33.3z"/>
	<path clip-path="url(#SVGID_2_)" fill="#31383B" d="M1199.1,23.6v16.9c0,0.8,0.1,1.4,0.5,1.6c0.3,0.3,0.8,0.5,1.3,0.5
		s1-0.1,1.3-0.5s0.5-0.8,0.5-1.6V23.6h3.3v16.7c0,1.8-0.5,3.1-1.3,4.1s-2.2,1.4-3.9,1.4s-3-0.5-3.9-1.4c-0.8-1-1.3-2.3-1.3-4.1V23.6
		H1199.1z"/>
	<path clip-path="url(#SVGID_2_)" fill="#31383B" d="M1211.7,32.8h4.7V36h-4.7v6.4h5.9v3.1h-9.4V23.6h9.4v3.1h-5.9V32.8z"/>
	<path clip-path="url(#SVGID_2_)" fill="#31383B" d="M848.2,61.2h3.5V80h5.7v3.1h-9.1V61.2z"/>
	<path clip-path="url(#SVGID_2_)" fill="#31383B" d="M862.1,61.2v16.9c0,0.8,0.1,1.4,0.5,1.6c0.3,0.3,0.8,0.5,1.3,0.5s1-0.1,1.3-0.5
		c0.3-0.3,0.5-0.8,0.5-1.6V61.2h3.3v16.7c0,1.8-0.5,3.1-1.3,4.1c-0.8,1-2.2,1.4-3.9,1.4s-3-0.5-3.9-1.4c-0.8-1-1.3-2.3-1.3-4.1V61.2
		H862.1z"/>
	<path clip-path="url(#SVGID_2_)" fill="#31383B" d="M874.8,70.4h4.7v3.1h-4.7V80h5.9v3.1h-9.4V61.2h9.4v3.1h-5.9V70.4z"/>
	<path clip-path="url(#SVGID_2_)" fill="#31383B" d="M888,70.9h4.8v7c0,1.8-0.5,3.1-1.3,4.1c-0.8,1-2.2,1.4-3.9,1.4
		c-1.7,0-3-0.5-3.9-1.4c-0.8-1-1.3-2.3-1.3-4.1V66.5c0-1.8,0.5-3.1,1.3-4.1c0.8-1,2.2-1.4,3.9-1.4c1.7,0,3,0.5,3.9,1.4
		c0.8,1,1.3,2.3,1.3,4.1v2.2h-3.3v-2.3c0-0.8-0.1-1.4-0.5-1.7c-0.3-0.3-0.8-0.5-1.3-0.5s-1,0.1-1.3,0.5c-0.3,0.3-0.5,0.9-0.5,1.7
		v11.8c0,0.8,0.1,1.4,0.5,1.6c0.3,0.3,0.8,0.5,1.3,0.5s1-0.1,1.3-0.5c0.3-0.3,0.5-0.8,0.5-1.6v-4H888V70.9z"/>
	<path clip-path="url(#SVGID_2_)" fill="#31383B" d="M894.8,66.5c0-1.8,0.5-3.1,1.4-4.1s2.2-1.4,3.9-1.4c1.7,0,3,0.5,3.9,1.4
		s1.4,2.3,1.4,4.1v11.4c0,1.8-0.5,3.1-1.4,4.1c-0.9,1-2.2,1.4-3.9,1.4c-1.7,0-3-0.5-3.9-1.4c-0.9-1-1.4-2.3-1.4-4.1
		C894.8,77.9,894.8,66.5,894.8,66.5z M898.2,78.1c0,0.8,0.1,1.4,0.5,1.7c0.3,0.3,0.8,0.5,1.3,0.5s1-0.1,1.3-0.5
		c0.3-0.3,0.5-0.9,0.5-1.7V66.3c0-0.8-0.1-1.4-0.5-1.7c-0.3-0.3-0.8-0.5-1.3-0.5s-1,0.1-1.3,0.5c-0.3,0.3-0.5,0.9-0.5,1.7
		C898.2,66.3,898.2,78.1,898.2,78.1z"/>
	<path clip-path="url(#SVGID_2_)" fill="#31383B" d="M912.3,61.2h5.5c1.8,0,3,0.5,3.9,1.4c0.8,0.9,1.2,2.3,1.2,4v11.1
		c0,1.8-0.4,3.1-1.2,4c-0.8,0.9-2.2,1.4-3.9,1.4h-5.5V61.2z M915.8,64.3V80h2c0.5,0,1-0.1,1.3-0.5c0.3-0.3,0.5-0.8,0.5-1.6V66.5
		c0-0.8-0.1-1.4-0.5-1.6c-0.3-0.3-0.7-0.5-1.3-0.5L915.8,64.3L915.8,64.3z"/>
	<path clip-path="url(#SVGID_2_)" fill="#31383B" d="M928.6,70.4h4.7v3.1h-4.7V80h5.9v3.1h-9.4V61.2h9.4v3.1h-5.9V70.4z"/>
	<path clip-path="url(#SVGID_2_)" fill="#31383B" d="M941.5,61.2h5.5c1.8,0,3,0.5,3.9,1.4c0.8,0.9,1.2,2.3,1.2,4v11.1
		c0,1.8-0.4,3.1-1.2,4c-0.8,0.9-2.2,1.4-3.9,1.4h-5.5V61.2z M944.9,64.3V80h2c0.5,0,1-0.1,1.3-0.5c0.3-0.3,0.5-0.8,0.5-1.6V66.5
		c0-0.8-0.1-1.4-0.5-1.6c-0.3-0.3-0.7-0.5-1.3-0.5L944.9,64.3L944.9,64.3z"/>
	<path clip-path="url(#SVGID_2_)" fill="#31383B" d="M965.4,83.1h-3.5l-0.6-4h-4.2l-0.6,4h-3.1l3.5-21.9h5L965.4,83.1z M957.5,76.2
		h3.3l-1.6-11.1L957.5,76.2z"/>
	<path clip-path="url(#SVGID_2_)" fill="#31383B" d="M974.2,83.1c-0.1-0.1-0.1-0.3-0.1-0.4c-0.1-0.1-0.1-0.3-0.1-0.5
		c0-0.2-0.1-0.5-0.1-0.7c0-0.3,0-0.7,0-1.1V77c0-1-0.2-1.8-0.5-2.2c-0.3-0.4-0.9-0.7-1.7-0.7h-1.2v8.9H967V61.2h5.2
		c1.8,0,3.1,0.4,3.9,1.2c0.8,0.8,1.2,2.1,1.2,3.8v1.7c0,2.3-0.8,3.7-2.3,4.4c0.8,0.3,1.5,0.9,1.8,1.8c0.3,0.8,0.5,1.8,0.5,2.9v3.4
		c0,0.5,0,1,0.1,1.4c0.1,0.4,0.1,0.8,0.3,1.2C977.7,83.1,974.2,83.1,974.2,83.1z M970.5,64.3V71h1.4c0.7,0,1.2-0.2,1.5-0.5
		c0.4-0.3,0.5-0.9,0.5-1.8v-2.1c0-0.8-0.1-1.4-0.4-1.7c-0.3-0.3-0.7-0.5-1.3-0.5L970.5,64.3L970.5,64.3z"/>
	<path clip-path="url(#SVGID_2_)" fill="#31383B" d="M979.6,61.2h3.5V80h5.7v3.1h-9.1V61.2z"/>
	<path clip-path="url(#SVGID_2_)" fill="#31383B" d="M993.7,70.4h4.7v3.1h-4.7V80h5.9v3.1h-9.4V61.2h9.4v3.1h-5.9V70.4z"/>
	<path clip-path="url(#SVGID_2_)" fill="#31383B" d="M1009.9,61.2v16.9c0,0.8,0.1,1.4,0.5,1.6c0.3,0.3,0.8,0.5,1.3,0.5
		s1-0.1,1.3-0.5c0.3-0.3,0.5-0.8,0.5-1.6V61.2h3.3v16.7c0,1.8-0.5,3.1-1.3,4.1c-0.8,1-2.2,1.4-3.9,1.4c-1.7,0-3-0.5-3.9-1.4
		c-0.8-1-1.3-2.3-1.3-4.1V61.2H1009.9z"/>
	<path clip-path="url(#SVGID_2_)" fill="#31383B" d="M1022.2,67.2v15.9h-3.1V61.2h4.3l3.5,13.1V61.2h3.1v21.9h-3.5L1022.2,67.2z"/>
	<path clip-path="url(#SVGID_2_)" fill="#31383B" d="M1042.5,61.2c1.8,0,3.1,0.4,3.9,1.2c0.8,0.8,1.2,2.1,1.2,3.8V67
		c0,1.1-0.2,2.1-0.5,2.8c-0.3,0.7-0.9,1.3-1.7,1.6c0.9,0.3,1.6,0.9,2,1.8c0.4,0.8,0.6,1.8,0.6,2.9v1.8c0,1.7-0.5,3-1.3,3.9
		c-0.8,0.9-2.2,1.3-3.9,1.3h-5.4V61.2H1042.5z M1040.8,64.3v5.8h1.4c0.7,0,1.2-0.2,1.5-0.5c0.4-0.3,0.5-0.9,0.5-1.8v-1.2
		c0-0.8-0.1-1.4-0.4-1.7c-0.3-0.3-0.7-0.5-1.3-0.5L1040.8,64.3L1040.8,64.3z M1040.8,73.2V80h2c0.6,0,1-0.1,1.3-0.5
		c0.3-0.3,0.5-0.8,0.5-1.7v-1.9c0-1-0.2-1.7-0.5-2.1c-0.3-0.4-0.9-0.6-1.7-0.6C1042.3,73.2,1040.8,73.2,1040.8,73.2z"/>
	<path clip-path="url(#SVGID_2_)" fill="#31383B" d="M1049.8,66.5c0-1.8,0.5-3.1,1.4-4.1c0.9-1,2.2-1.4,3.9-1.4c1.7,0,3,0.5,3.9,1.4
		c0.9,1,1.4,2.3,1.4,4.1v11.4c0,1.8-0.5,3.1-1.4,4.1c-0.9,1-2.2,1.4-3.9,1.4c-1.7,0-3-0.5-3.9-1.4c-0.9-1-1.4-2.3-1.4-4.1V66.5z
		 M1053.2,78.1c0,0.8,0.1,1.4,0.5,1.7c0.3,0.3,0.8,0.5,1.3,0.5s1-0.1,1.3-0.5c0.3-0.3,0.5-0.9,0.5-1.7V66.3c0-0.8-0.1-1.4-0.5-1.7
		c-0.3-0.3-0.8-0.5-1.3-0.5s-1,0.1-1.3,0.5c-0.3,0.3-0.5,0.9-0.5,1.7V78.1z"/>
	<path clip-path="url(#SVGID_2_)" fill="#31383B" d="M1072.4,74.9v2.9c0,1.8-0.5,3.1-1.3,4.1c-0.8,1-2.2,1.4-3.9,1.4
		c-1.7,0-3-0.5-3.9-1.4c-0.8-1-1.3-2.3-1.3-4.1V66.5c0-1.8,0.5-3.1,1.3-4.1c0.8-1,2.2-1.4,3.9-1.4c1.7,0,3,0.5,3.9,1.4
		c0.8,1,1.3,2.3,1.3,4.1v2.2h-3.3v-2.3c0-0.8-0.1-1.4-0.5-1.7c-0.3-0.3-0.8-0.5-1.3-0.5s-1,0.1-1.3,0.5c-0.3,0.3-0.5,0.9-0.5,1.7
		v11.8c0,0.8,0.1,1.4,0.5,1.6c0.3,0.3,0.8,0.5,1.3,0.5s1-0.1,1.3-0.5c0.3-0.3,0.5-0.8,0.5-1.6v-3.1H1072.4z"/>
	<path clip-path="url(#SVGID_2_)" fill="#31383B" d="M1085.7,83.1h-3.5l-0.6-4h-4.2l-0.6,4h-3.1l3.5-21.9h5L1085.7,83.1z
		 M1077.8,76.2h3.3l-1.6-11.1L1077.8,76.2z"/>
	<path clip-path="url(#SVGID_2_)" fill="#31383B" d="M1087.3,61.2h5.5c1.8,0,3,0.5,3.9,1.4s1.2,2.3,1.2,4v11.1c0,1.8-0.4,3.1-1.2,4
		s-2.2,1.4-3.9,1.4h-5.5V61.2z M1090.8,64.3V80h2c0.5,0,1-0.1,1.3-0.5c0.3-0.3,0.5-0.8,0.5-1.6V66.5c0-0.8-0.1-1.4-0.5-1.6
		c-0.3-0.3-0.7-0.5-1.3-0.5L1090.8,64.3L1090.8,64.3z"/>
	<path clip-path="url(#SVGID_2_)" fill="#31383B" d="M1099.8,66.5c0-1.8,0.5-3.1,1.4-4.1c0.9-1,2.2-1.4,3.9-1.4c1.7,0,3,0.5,3.9,1.4
		c0.9,1,1.4,2.3,1.4,4.1v11.4c0,1.8-0.5,3.1-1.4,4.1c-0.9,1-2.2,1.4-3.9,1.4c-1.7,0-3-0.5-3.9-1.4c-0.9-1-1.4-2.3-1.4-4.1V66.5z
		 M1103.2,78.1c0,0.8,0.1,1.4,0.5,1.7c0.3,0.3,0.8,0.5,1.3,0.5s1-0.1,1.3-0.5c0.3-0.3,0.5-0.9,0.5-1.7V66.3c0-0.8-0.1-1.4-0.5-1.7
		c-0.3-0.3-0.8-0.5-1.3-0.5s-1,0.1-1.3,0.5c-0.3,0.3-0.5,0.9-0.5,1.7V78.1z"/>
	<path clip-path="url(#SVGID_2_)" fill="#31383B" d="M1128.5,83.1h-3.5l-0.6-4h-4.2l-0.6,4h-3.1l3.5-21.9h5L1128.5,83.1z
		 M1120.6,76.2h3.3l-1.6-11.1L1120.6,76.2z"/>
	<path clip-path="url(#SVGID_2_)" fill="#31383B" d="M1138.2,61.2v16.9c0,0.8,0.1,1.4,0.5,1.6c0.3,0.3,0.8,0.5,1.3,0.5
		s1-0.1,1.3-0.5c0.3-0.3,0.5-0.8,0.5-1.6V61.2h3.3v16.7c0,1.8-0.5,3.1-1.3,4.1c-0.8,1-2.2,1.4-3.9,1.4c-1.7,0-3-0.5-3.9-1.4
		c-0.8-1-1.3-2.3-1.3-4.1V61.2H1138.2z"/>
	<path clip-path="url(#SVGID_2_)" fill="#31383B" d="M1150.5,67.2v15.9h-3.1V61.2h4.3l3.5,13.1V61.2h3.1v21.9h-3.5L1150.5,67.2z"/>
	<path clip-path="url(#SVGID_2_)" fill="#31383B" d="M1165.6,61.2h3.5v21.9h-3.5V61.2z"/>
	<path clip-path="url(#SVGID_2_)" fill="#31383B" d="M1170.6,61.2h10.6v3.1h-3.6v18.8h-3.5V64.3h-3.6V61.2z"/>
	<path clip-path="url(#SVGID_2_)" fill="#31383B" d="M1192.7,83.1h-3.5l-0.6-4h-4.2l-0.6,4h-3.1l3.5-21.9h5L1192.7,83.1z
		 M1184.8,76.2h3.3l-1.6-11.1L1184.8,76.2z"/>
	<path clip-path="url(#SVGID_2_)" fill="#31383B" d="M1194.3,61.2h3.5V80h5.7v3.1h-9.1V61.2z"/>
	<path clip-path="url(#SVGID_2_)" fill="#31383B" d="M1204.9,61.2h3.5v21.9h-3.5V61.2z"/>
	<path clip-path="url(#SVGID_2_)" fill="#31383B" d="M1222,83.1h-3.5l-0.6-4h-4.2l-0.6,4h-3.2l3.5-21.9h5L1222,83.1z M1214.2,76.2
		h3.3l-1.6-11.1L1214.2,76.2z"/>
	<path clip-path="url(#SVGID_2_)" fill="#31383B" d="M1226.7,67.2v15.9h-3.1V61.2h4.3l3.5,13.1V61.2h3.1v21.9h-3.5L1226.7,67.2z"/>
	<path clip-path="url(#SVGID_2_)" fill="#31383B" d="M1236.7,66.5c0-1.8,0.5-3.1,1.4-4.1c0.9-1,2.2-1.4,3.9-1.4c1.7,0,3,0.5,3.9,1.4
		c0.9,1,1.4,2.3,1.4,4.1v11.4c0,1.8-0.5,3.1-1.4,4.1c-0.9,1-2.2,1.4-3.9,1.4c-1.7,0-3-0.5-3.9-1.4c-0.9-1-1.4-2.3-1.4-4.1V66.5z
		 M1240.2,78.1c0,0.8,0.1,1.4,0.5,1.7c0.3,0.3,0.8,0.5,1.3,0.5s1-0.1,1.3-0.5c0.3-0.3,0.5-0.9,0.5-1.7V66.3c0-0.8-0.1-1.4-0.5-1.7
		c-0.3-0.3-0.8-0.5-1.3-0.5s-1,0.1-1.3,0.5c-0.3,0.3-0.5,0.9-0.5,1.7V78.1z"/>
	<polygon clip-path="url(#SVGID_2_)" fill="#FFFFFF" points="947.6,469.7 894.4,435.9 874.8,495.8 855.6,435.7 802.1,469 
		826.1,410.7 763.7,401.8 819.6,372.6 777.5,325.6 839.1,339.1 837,276.1 875.6,326.1 914.5,276.5 911.8,339.5 973.5,326.5 
		931,373.1 986.6,402.8 924.1,411.2 	"/>
	<rect x="866.9" y="322.2" clip-path="url(#SVGID_2_)" fill="#0DACC0" width="20.6" height="12.5"/>
	<path clip-path="url(#SVGID_2_)" fill="#0DACC0" d="M909,359v-17c0-0.8-0.1-1.6-0.5-2.3c-1.2-3.7-6.9-5.7-7.8-6.2
		c-0.1-0.1-0.3-0.1-0.5-0.2c-9.6-2.8-33.8-1.3-44.1-0.7c-6.1,0.4-7.7,3.4-9.7,5.6l-0.5,0.5c-0.5,0.5-0.7,1.1-0.5,1.7
		c-0.1,0.5-0.3,1-0.3,1.6v17c0,2.2,2,4.2,3.9,4.8v59.4c-2,0.6-3.9,2.5-3.9,4.8v22.9c0,2.7,2.4,4.8,5,4.8h54c2.7,0,4.8-2.2,4.8-4.8
		V428c0-2.2-1.3-4.2-3.3-4.8v-59.4C907.7,363.1,909,361.2,909,359z"/>
	<path clip-path="url(#SVGID_2_)" fill="#31383B" d="M889.7,324.3h-25.1V299c0,0,6.6-1.6,12.7-1.6c5.5,0,12.3,1.6,12.3,1.6V324.3z"
		/>
	<path clip-path="url(#SVGID_2_)" fill="#F2F2F2" d="M893.6,422.7h-33c-4.3,0-7.8-3.5-7.8-7.8v-42.3c0-4.3,3.5-7.8,7.8-7.8h33
		c4.3,0,7.8,3.5,7.8,7.8v42.3C901.4,419.2,897.9,422.7,893.6,422.7z"/>
	<rect x="858" y="402.6" clip-path="url(#SVGID_2_)" fill="#11AEE4" width="38.1" height="12.7"/>
	<rect x="864" y="367.4" clip-path="url(#SVGID_2_)" fill="#EC6256" width="25.1" height="5.7"/>
	<rect x="857.8" y="376.9" clip-path="url(#SVGID_2_)" fill="#534842" width="38.4" height="8.2"/>
	<path opacity="0.1" clip-path="url(#SVGID_2_)" enable-background="new    " d="M860.7,341.7c0.3-7.1,8.5-7.1,8.5-7.1l1.1-36.8
		c-3.3,0.5-5.7,1.1-5.7,1.1v25.5h2v7.5c-3.9,0.2-7.8,0.4-10.6,0.6c-6.1,0.4-7.6,3.4-9.7,5.6l-0.5,0.5c-0.5,0.5-0.7,1.1-0.5,1.7
		c-0.1,0.5-0.3,1-0.3,1.6V359c0,2.2,2,4.2,3.9,4.8v59.4c-2,0.6-3.9,2.5-3.9,4.8v22.9c0,2.7,2.3,4.8,5,4.8h11.6
		C861.5,431.2,860.5,347.8,860.7,341.7z"/>
	<path opacity="0.1" clip-path="url(#SVGID_2_)" fill="#FFFFFF" enable-background="new    " d="M898.3,343.7
		c-0.2,7,0.1,85.5,0.3,112h5.7c2.7,0,4.8-2.2,4.8-4.8v-22.9c0-2.2-1.3-4.2-3.3-4.8v-59.4c2-0.6,3.3-2.5,3.3-4.8v-17
		c0-0.8-0.1-1.6-0.5-2.3c-1.2-3.7-6.9-5.7-7.8-6.2c-0.1-0.1-0.3-0.1-0.4-0.2c-3.1-0.9-7.6-1.4-12.8-1.6v-7.2h2V299
		c0,0-2.8-0.7-6.3-1.2l0.5,37.6C883.7,335.5,898.5,335.1,898.3,343.7z"/>
	
		<linearGradient id="SVGID_4_" gradientUnits="userSpaceOnUse" x1="565.45" y1="-113.5" x2="565.45" y2="-187.5" gradientTransform="matrix(0.6528 0 0 -0.6528 817 306.8056)">
		<stop  offset="0" style="stop-color:#FFFFFF"/>
		<stop  offset="0.6878" style="stop-color:#7CD7FF"/>
	</linearGradient>
	<path clip-path="url(#SVGID_2_)" fill="url(#SVGID_4_)" stroke="#FFFFFF" stroke-width="6" stroke-miterlimit="10" d="
		M1246.2,429.2h-141.4c-3.1,0-5.7-2.6-5.7-5.7l16.7-33.5c3-5.3,4.5-9.1,7.6-9.1h144c3.1,0,5.7,2.6,5.7,5.7l-15.5,30.9
		C1253.9,425.5,1249.4,429.2,1246.2,429.2z"/>
	<polygon clip-path="url(#SVGID_2_)" fill="#FFFFFF" points="1007.6,201.6 1006.2,200.8 1005.8,202.3 1005.3,200.9 1004,201.7 
		1004.6,200.3 1003,200.1 1004.4,199.3 1003.3,198.2 1004.8,198.5 1004.7,196.9 1005.7,198.1 1006.6,196.9 1006.6,198.4 
		1008.1,198.1 1007.1,199.2 1008.5,199.9 1007,200.2 	"/>
	<polygon clip-path="url(#SVGID_2_)" fill="#FFFFFF" points="1021.5,202.7 1019.5,201.5 1018.8,203.7 1018.1,201.6 1016.1,202.9 
		1016.9,200.7 1014.6,200.4 1016.6,199.2 1015,197.5 1017.3,198 1017.1,195.6 1018.6,197.5 1020,195.6 1020,197.9 1022.3,197.3 
		1020.7,199.1 1022.9,200.1 1020.5,200.5 	"/>
	<polygon clip-path="url(#SVGID_2_)" fill="#FBFFF6" points="1013,218.6 1010.4,217 1009.6,219.9 1008.5,217 1006,218.7 1007,215.9 
		1004,215.5 1006.6,214 1004.5,211.8 1007.5,212.4 1007.4,209.3 1009.3,211.7 1011.1,209.2 1011.1,212.3 1014,211.6 1012,213.9 
		1014.8,215.2 1011.8,215.7 	"/>
</g>
<g id="cabeza">
</g>
<g id="maleta" display="none">
	<path display="inline" fill="#A06C20" stroke="#603A08" stroke-width="5" stroke-miterlimit="10" d="M1155.7,297.5l-0.9,33.6
		c-0.3,9.9-8.5,17.8-18.4,17.8l-78.4-0.9c-10.1-0.1-18.2-8.5-18-18.6l0.7-32.7c0.2-9.9,8.3-17.9,18.2-17.9h78.7
		C1147.8,278.7,1156,287.2,1155.7,297.5z"/>
	<path display="inline" fill="#A06C20" stroke="#603A08" stroke-width="4" stroke-miterlimit="10" d="M1068.3,278.1v-13.2
		c0-1,0.8-1.8,1.8-1.9l47.8-1.2c1,0,1.9,0.8,1.9,1.9V277c0,1,0.8,1.8,1.8,1.9h0.1c1.1,0.1,2-0.8,2-1.8l0.1-16c0-1-0.8-1.9-1.9-1.9
		H1067h-1.4c-1,0-1.9,0.8-1.9,1.9v17"/>
</g>
<g id="Capa_5">
</g>
<g id="tronco">
</g>
<g id="Capa_6">
</g>
</svg>
