<?xml version="1.0" encoding="utf-8"?>
<!-- Generator: Adobe Illustrator 18.1.0, SVG Export Plug-In . SVG Version: 6.00 Build 0)  -->
<!DOCTYPE svg PUBLIC "-//W3C//DTD SVG 1.1//EN" "http://www.w3.org/Graphics/SVG/1.1/DTD/svg11.dtd">
<svg version="1.1" xmlns="http://www.w3.org/2000/svg" xmlns:xlink="http://www.w3.org/1999/xlink" x="0px" y="0px"
	 viewBox="0 0 640 644" enable-background="new 0 0 640 644" xml:space="preserve">
<g id="cabeza">
</g>
<g id="maleta" display="none">
	<path display="inline" fill="#A06C20" stroke="#603A08" stroke-width="5" stroke-miterlimit="10" d="M518.8,455.7l-1.4,51.4
		c-0.4,15.2-13,27.3-28.2,27.2l-120.1-1.4c-15.5-0.2-27.9-13-27.6-28.5l1-50.1c0.3-15.2,12.7-27.4,27.9-27.4l120.5,0
		C506.7,427,519.3,440,518.8,455.7z"/>
	<path display="inline" fill="#A06C20" stroke="#603A08" stroke-width="4" stroke-miterlimit="10" d="M385,426v-20.2
		c0-1.6,1.2-2.8,2.8-2.9l73.2-1.8c1.6,0,2.9,1.3,2.9,2.9v20.4c0,1.5,1.2,2.8,2.7,2.9l0.1,0c1.7,0.1,3.1-1.2,3.1-2.8l0.2-24.5
		c0-1.6-1.3-2.9-2.9-2.9H383h-2.1c-1.6,0-2.9,1.3-2.9,2.9V426"/>
</g>
<g id="Capa_5">
</g>
<g id="tronco">
</g>
<g id="Capa_6">
</g>
<g id="piernas">
	<rect fill="#FFFFFF" stroke="#000000" stroke-miterlimit="10" width="640" height="644.4"/>
	<g>
		<defs>
			<rect id="SVGID_1_" width="640" height="644.4"/>
		</defs>
		<clipPath id="SVGID_2_">
			<use xlink:href="#SVGID_1_"  overflow="visible"/>
		</clipPath>
		<g clip-path="url(#SVGID_2_)">
			<linearGradient id="SVGID_3_" gradientUnits="userSpaceOnUse" x1="320.311" y1="646.7307" x2="320.311" y2="-10.5698">
				<stop  offset="0" style="stop-color:#FFFFFF"/>
				<stop  offset="0.6878" style="stop-color:#7CD7FF"/>
			</linearGradient>
			<rect x="-7.6" y="-10.6" fill="url(#SVGID_3_)" width="655.8" height="657.3"/>
			<path fill="none" stroke="#FFFFFF" stroke-width="12.4444" stroke-linecap="round" stroke-miterlimit="10" d="M70.3,353.1"/>
			<g>
				<path fill="#EFB789" d="M262.5,372.8c21.4,16.8,46.3,30,72.1,38.6c45.7,15.1,96.3,9.4,129.2-28.5c28-32.2,40.2-75.4,46.9-116.7
					c1.4-8.5-2.2-17.1-11.1-19.5c-7.6-2.1-18.1,2.6-19.5,11.1c-5.8,35.3-14.5,68.5-34.6,97.6c-2,2.8,0.2,0-1.4,1.9
					c-0.9,1.1-1.8,2.1-2.7,3.2c-2,2.3-4.2,4.6-6.4,6.8c-2.1,2.1-4.4,4-6.6,5.9c2.1-1.7,0.5-0.3-0.7,0.5c-1.3,0.9-2.6,1.8-3.9,2.7
					c-2.1,1.4-4.3,2.6-6.5,3.8c-1.2,0.6-2.4,1.2-3.6,1.8c-0.5,0.2-1,0.5-1.5,0.7c-2,0.9,2.7-1.1,0.7-0.3c-4.6,1.7-9.3,3.2-14.1,4.2
					c-1.2,0.3-2.5,0.4-3.7,0.7c-3.7,0.8,2.2-0.1-0.6,0.1c-2.5,0.2-5,0.5-7.5,0.6c-4.8,0.2-9.6,0.1-14.3-0.4
					c-1.2-0.1-2.5-0.3-3.7-0.4c-3-0.3,3,0.6,0,0c-2.4-0.5-4.9-0.8-7.3-1.3c-4.8-1-9.5-2.2-14.1-3.6c-4.4-1.3-8.7-2.8-13-4.5
					c-1.5-0.6-7.4-3.1-3.1-1.2c-2.1-0.9-4.1-1.8-6.1-2.7c-7.2-3.3-14.2-7-21.1-11c-5.5-3.2-10.9-6.6-16.2-10.3
					c-2.1-1.4-9.7-7.3-3.1-2.1c-6.7-5.3-15.9-6.6-22.5,0C257,355.8,255.7,367.4,262.5,372.8L262.5,372.8z"/>
			</g>
			<path fill="#E8E8E4" d="M354.6,362.8c0,0,14.8,16.4,31.8,12.2c0,0,20.1,21.2,5.8,55.6c0,0-31.2,7.9-44.5-8.5L354.6,362.8z"/>
			<path opacity="0.1" d="M374,374.8c-10-2.8-19.5-12-19.5-12l-6.9,59.3c6.4,8,17.4,10.2,26.4,10.4V374.8z"/>
			<polyline fill="#FFFFFF" points="244.8,315.9 241.7,283.1 263.4,313 			"/>
			<polyline fill="#FFFFFF" points="221.8,318 223.9,289.7 239.6,316.9 			"/>
			<path fill="#FFFFFF" d="M204.5,317.2c-0.3-0.8,3.1-19.4,3.1-19.4l11.8,21.7"/>
			<polyline fill="#FFFFFF" points="188.8,316.1 191.4,304.6 198.7,317.2 			"/>
			<polyline fill="#FFFFFF" points="239.1,250.6 249,279.7 250.1,253.3 			"/>
			<polyline fill="#FFFFFF" points="218.4,254 233,280.2 235.7,251.2 			"/>
			<polyline fill="#FFFFFF" points="200.6,261.6 213.4,286.5 214.7,255.9 			"/>
			<polyline fill="#FFFFFF" points="190.1,276.8 200.8,291.5 198.5,265.6 			"/>
			<polyline fill="#FFFFFF" points="185.5,292.4 195.1,297.2 188.8,281.8 			"/>
			<defs>
				<filter id="Adobe_OpacityMaskFilter" filterUnits="userSpaceOnUse" x="117.8" y="200.6" width="176.4" height="209.3">
					<feFlood  style="flood-color:white;flood-opacity:1" result="back"/>
					<feBlend  in="SourceGraphic" in2="back" mode="normal"/>
				</filter>
			</defs>
			<mask maskUnits="userSpaceOnUse" x="117.8" y="200.6" width="176.4" height="209.3" id="SVGID_4_">
				<g filter="url(#Adobe_OpacityMaskFilter)">
					<path d="M250.1,253.9c0,0-57.1-9.6-63.9,43.3l-2.1,15.8c0,0,59.8,8.2,85.2-7.6s15.8-8.2,15.8-8.2L250.1,253.9z"/>
				</g>
			</mask>
			
				<rect x="145.7" y="216.3" transform="matrix(-0.9334 0.3588 -0.3588 -0.9334 507.7875 516.2451)" mask="url(#SVGID_4_)" fill="#EFB789" width="120.7" height="177.8"/>
			<defs>
				<filter id="Adobe_OpacityMaskFilter_1_" filterUnits="userSpaceOnUse" x="115" y="162.3" width="118.9" height="119.7">
					<feFlood  style="flood-color:white;flood-opacity:1" result="back"/>
					<feBlend  in="SourceGraphic" in2="back" mode="normal"/>
				</filter>
			</defs>
			<mask maskUnits="userSpaceOnUse" x="115" y="162.3" width="118.9" height="119.7" id="SVGID_5_">
				<g filter="url(#Adobe_OpacityMaskFilter_1_)">
					<path d="M237.1,242.9c0,0-73.6-3.4-69.4,34.4l31.6,15.1l55-13.1L237.1,242.9z"/>
				</g>
			</mask>
			
				<ellipse transform="matrix(0.9334 -0.3588 0.3588 0.9334 -68.1124 77.4144)" mask="url(#SVGID_5_)" fill="#EFB789" cx="174.5" cy="222.2" rx="59.4" ry="59.9"/>
			<path fill="#161515" d="M131,278.1c0,0-27.1-91.4,29.3-105.1c0,0,42.6-11.7,66,19.9c0,0-19.9-35.9-49.5-36.5l-18.6-1.2l-25.4,1.2
				l-11,13.7l-4.8,8.2l-12.4,14.4c0,0-13,29.3,4.1,61.9c1.8,3.3,9.6,11.7,9.6,11.7"/>
			<path fill="#161515" d="M126.4,271.7l4.1,6.2c0,0-17.6-102.3,34-100.3c0,0,7.1-10.5,32.9-4.8c0,0-46.1-18.2-61.9-3.8
				c0,0-27.7,48.3-21.5,68.2"/>
			<g>
				<path fill="#E8E8E4" d="M349.9,334c0,0-33.4,0-73.7,0c-0.8,0-1.7,0-2.5,0l-38.1,31.9L159.6,334c-2.2,0-4.3,0-6.3,0
					c-13.3,0-53,0-53,0c-8.5,0-15.4,8.2-15.4,19.4l63.6,338.6c0,11.2,6.9,20.1,15.4,20.1h142.7c8.5,0,15-8.9,15-20l43.3-338.4
					C364.9,342.4,358.4,334,349.9,334z"/>
			</g>
			<polygon fill="#FFFFFF" points="161.1,334.2 150.8,334.6 236.1,374.3 234.9,366 			"/>
			<polygon fill="#FFFFFF" points="283,334.2 273.4,333.8 234.9,366.4 235.7,373.9 			"/>
			<polygon fill="#E8E8E4" points="222,1100 161,1100 163.3,703.4 222,704.2 			"/>
			<rect x="253" y="704" fill="#E8E8E4" width="59" height="396"/>
			<polyline fill="#E8E8E4" points="148.7,695.7 165.1,759.7 312.2,762.9 320.7,697.8 			"/>
			<rect x="253" y="862" fill="#EFB789" width="59" height="78"/>
			<rect x="162" y="862" fill="#EFB789" width="60" height="78"/>
			<polyline fill="#E8E8E4" points="253,940 312,940 312,1100 253,1100 			"/>
			<polyline fill="#E8E8E4" points="162,940 222,940 222,1100 162,1100 			"/>
			<path fill="#1F76A0" d="M227,858.5c0,2.2-1.6,3.5-3.6,3.5h-63.1c-2,0-3.6-1.3-3.6-3.5l0,0c0-2.2,1.6-3.5,3.6-3.5h63.1
				C225.4,855,227,856.3,227,858.5L227,858.5z"/>
			<path fill="#1F76A0" d="M316.5,858.5c0,2.2-1.6,3.5-3.6,3.5h-62.1c-2,0-3.6-1.3-3.6-3.5l0,0c0-2.2,1.6-3.5,3.6-3.5h62.1
				C314.9,855,316.5,856.3,316.5,858.5L316.5,858.5z"/>
			<g>
				<g>
					<path fill-rule="evenodd" clip-rule="evenodd" fill="#F2D300" d="M338.5,366.4v27.9c0,0,0.5,21.3-23.9,31.8h0
						c-24.5-10.4-23.9-31.8-23.9-31.8v-27.9H338.5z"/>
					<path fill-rule="evenodd" clip-rule="evenodd" fill="#FFFFFF" d="M334.7,369.7v24.9c0,0,0.5,19-20.2,28.3h0
						c-20.6-9.3-20.2-28.3-20.2-28.3v-24.9H334.7z"/>
					<path fill="#1BD5FF" d="M333.5,370.8v23.7v0l0,0c0,0,0.1,4.6-2.3,10.2c-1.4,3.3-3.3,6.3-5.7,9c-2.9,3.2-6.6,5.8-11,7.9
						c-4.3-2-8-4.6-10.9-7.8c-2.4-2.6-4.4-5.6-5.7-8.9c-2.4-5.6-2.3-10.3-2.3-10.3l0,0v0v-23.7H333.5 M334.7,369.7h-40.3v24.9
						c0,0-0.5,19,20.2,28.3h0c20.6-9.3,20.2-28.3,20.2-28.3V369.7L334.7,369.7z"/>
				</g>
				<g>
					<g>
						<path fill="#F2D300" d="M297.5,374.5h2.7l0.8-2.6l0.8,2.6h2.7l-2.2,1.6l0.8,2.6l-2.2-1.6l-2.2,1.6l0.8-2.6L297.5,374.5z"/>
					</g>
					<g>
						<path fill="#F2D300" d="M306.4,374.5h2.7l0.8-2.6l0.8,2.6h2.7l-2.2,1.6l0.8,2.6l-2.2-1.6l-2.2,1.6l0.8-2.6L306.4,374.5z"/>
					</g>
					<g>
						<path fill="#F2D300" d="M315.4,374.5h2.7l0.8-2.6l0.8,2.6h2.7l-2.2,1.6l0.8,2.6l-2.2-1.6l-2.2,1.6l0.8-2.6L315.4,374.5z"/>
					</g>
					<g>
						<path fill="#F2D300" d="M324.4,374.5h2.7l0.8-2.6l0.8,2.6h2.7l-2.2,1.6l0.8,2.6l-2.2-1.6l-2.2,1.6l0.8-2.6L324.4,374.5z"/>
						<path fill="#F2D300" d="M328,376.9c0,0,0.1,0,0.1,0l1.7,1.2l-0.6-2c0-0.1,0-0.2,0.1-0.2l1.7-1.2h-2.1c-0.1,0-0.2-0.1-0.2-0.1
							l-0.6-2l-0.6,2c0,0.1-0.1,0.1-0.2,0.1H325l1.7,1.2c0.1,0.1,0.1,0.2,0.1,0.2l-0.6,2l1.7-1.2C327.9,376.9,327.9,376.9,328,376.9
							z"/>
					</g>
				</g>
				<g>
					<g>
						<g>
							<polygon fill-rule="evenodd" clip-rule="evenodd" fill="#F2D300" points="314.5,413.6 308.9,415.9 308.9,379.9 314.5,382.2 
								320.1,379.9 320.1,415.9 							"/>
							<path fill="#38D5FF" d="M308.5,416.6v-37.5l6.1,2.5l6.1-2.5v37.5l-6.1-2.5L308.5,416.6z M314.5,413.1l5.1,2.1v-34.6l-5.1,2.1
								l-5.1-2.1v34.6L314.5,413.1z"/>
						</g>
						<g>
							<path fill-rule="evenodd" clip-rule="evenodd" fill="#F2D300" d="M306.2,391.7c0-0.1,0.1-0.1,0.1-0.2c-0.7,0-1.5,0.4-2,1v-1
								c0.1,0,0.2-0.1,0.4-0.1c0.2-0.1,0.5-0.2,0.7-0.3l0,0c0.3-0.2,0.6-0.6,0.9-1.2c0-0.1,0.1-0.1,0.1-0.2c-0.7,0-1.5,0.4-2,1v-0.8
								c0.2-0.4,0.3-0.8,0.3-1.3c0-0.6-0.2-1.2-0.4-1.7c-0.1-0.1-0.2-0.2-0.2-0.3c-0.1,0.1-0.2,0.2-0.2,0.3c-0.3,0.4-0.4,1-0.4,1.7
								c0,0.5,0.1,0.9,0.3,1.3v0.8c-0.5-0.6-1.3-0.9-2-1c0,0.1,0.1,0.1,0.1,0.2c0.3,0.5,0.6,1,0.9,1.2l0,0c0.2,0.1,0.4,0.3,0.7,0.3
								c0.1,0,0.2,0.1,0.4,0.1v1c-0.5-0.6-1.3-0.9-2-1c0,0.1,0.1,0.1,0.1,0.2c0.3,0.5,0.6,1,0.9,1.2l0,0c0.2,0.1,0.4,0.3,0.7,0.3
								c0.1,0,0.2,0.1,0.4,0.1v1c-0.5-0.6-1.3-0.9-2-1c0,0.1,0.1,0.1,0.1,0.2c0.3,0.5,0.6,1,0.9,1.2l0,0c0.2,0.1,0.4,0.3,0.7,0.3
								c0.1,0,0.2,0.1,0.4,0.1v1c-0.5-0.6-1.3-0.9-2-1c0,0.1,0.1,0.1,0.1,0.2c0.3,0.5,0.6,1,0.9,1.2l0,0c0.2,0.1,0.4,0.3,0.7,0.3
								c0.1,0,0.2,0.1,0.4,0.1v1c-0.5-0.6-1.3-0.9-2-1c0,0.1,0.1,0.1,0.1,0.2c0.3,0.5,0.6,1,0.9,1.2l0,0c0.2,0.1,0.4,0.3,0.7,0.3
								c0.1,0,0.2,0.1,0.4,0.1v9.4h0.8v-9.4c0.1,0,0.2-0.1,0.4-0.1c0.2-0.1,0.5-0.2,0.7-0.3l0,0c0.3-0.2,0.6-0.6,0.9-1.2
								c0-0.1,0.1-0.1,0.1-0.2c-0.7,0-1.5,0.4-2,1v-1c0.1,0,0.2-0.1,0.4-0.1c0.2-0.1,0.5-0.2,0.7-0.3l0,0c0.3-0.2,0.6-0.6,0.9-1.2
								c0-0.1,0.1-0.1,0.1-0.2c-0.7,0-1.5,0.4-2,1v-1c0.1,0,0.2-0.1,0.4-0.1c0.2-0.1,0.5-0.2,0.7-0.3l0,0c0.3-0.2,0.6-0.6,0.9-1.2
								c0-0.1,0.1-0.1,0.1-0.2c-0.7,0-1.5,0.4-2,1v-1c0.1,0,0.2-0.1,0.4-0.1c0.2-0.1,0.5-0.2,0.7-0.3l0,0
								C305.6,392.7,305.9,392.3,306.2,391.7z"/>
							<path fill-rule="evenodd" clip-rule="evenodd" fill="#F2D300" d="M327.5,391.7c0-0.1,0.1-0.1,0.1-0.2c-0.7,0-1.5,0.4-2,1v-1
								c0.1,0,0.2-0.1,0.4-0.1c0.2-0.1,0.5-0.2,0.7-0.3l0,0c0.3-0.2,0.6-0.6,0.9-1.2c0-0.1,0.1-0.1,0.1-0.2c-0.7,0-1.5,0.4-2,1v-0.8
								c0.2-0.4,0.3-0.8,0.3-1.3c0-0.6-0.2-1.2-0.4-1.7c-0.1-0.1-0.2-0.2-0.2-0.3c-0.1,0.1-0.2,0.2-0.2,0.3c-0.3,0.4-0.4,1-0.4,1.7
								c0,0.5,0.1,0.9,0.3,1.3v0.8c-0.5-0.6-1.3-0.9-2-1c0,0.1,0.1,0.1,0.1,0.2c0.3,0.5,0.6,1,0.9,1.2l0,0c0.2,0.1,0.4,0.3,0.7,0.3
								c0.1,0,0.2,0.1,0.4,0.1v1c-0.5-0.6-1.3-0.9-2-1c0,0.1,0.1,0.1,0.1,0.2c0.3,0.5,0.6,1,0.9,1.2l0,0c0.2,0.1,0.4,0.3,0.7,0.3
								c0.1,0,0.2,0.1,0.4,0.1v1c-0.5-0.6-1.3-0.9-2-1c0,0.1,0.1,0.1,0.1,0.2c0.3,0.5,0.6,1,0.9,1.2l0,0c0.2,0.1,0.4,0.3,0.7,0.3
								c0.1,0,0.2,0.1,0.4,0.1v1c-0.5-0.6-1.3-0.9-2-1c0,0.1,0.1,0.1,0.1,0.2c0.3,0.5,0.6,1,0.9,1.2l0,0c0.2,0.1,0.4,0.3,0.7,0.3
								c0.1,0,0.2,0.1,0.4,0.1v1c-0.5-0.6-1.3-0.9-2-1c0,0.1,0.1,0.1,0.1,0.2c0.3,0.5,0.6,1,0.9,1.2l0,0c0.2,0.1,0.4,0.3,0.7,0.3
								c0.1,0,0.2,0.1,0.4,0.1v9.4h0.8v-9.4c0.1,0,0.2-0.1,0.4-0.1c0.2-0.1,0.5-0.2,0.7-0.3l0,0c0.3-0.2,0.6-0.6,0.9-1.2
								c0-0.1,0.1-0.1,0.1-0.2c-0.7,0-1.5,0.4-2,1v-1c0.1,0,0.2-0.1,0.4-0.1c0.2-0.1,0.5-0.2,0.7-0.3l0,0c0.3-0.2,0.6-0.6,0.9-1.2
								c0-0.1,0.1-0.1,0.1-0.2c-0.7,0-1.5,0.4-2,1v-1c0.1,0,0.2-0.1,0.4-0.1c0.2-0.1,0.5-0.2,0.7-0.3l0,0c0.3-0.2,0.6-0.6,0.9-1.2
								c0-0.1,0.1-0.1,0.1-0.2c-0.7,0-1.5,0.4-2,1v-1c0.1,0,0.2-0.1,0.4-0.1c0.2-0.1,0.5-0.2,0.7-0.3l0,0
								C326.8,392.7,327.2,392.3,327.5,391.7z"/>
						</g>
					</g>
					<g>
						<g>
							<polygon fill-rule="evenodd" clip-rule="evenodd" fill="#FFFFFF" points="301.1,399.9 328,399.9 328,406 301.1,406 
								301.1,399.9 							"/>
							<g>
								<polygon fill-rule="evenodd" clip-rule="evenodd" fill="#38D5FF" points="300.9,400.7 328.1,400.7 328.1,401.3 300.9,401.3 
									300.9,400.7 								"/>
								<polygon fill-rule="evenodd" clip-rule="evenodd" fill="#38D5FF" points="300.9,402 328.1,402 328.1,402.6 300.9,402.6 
									300.9,402 								"/>
								<polygon fill-rule="evenodd" clip-rule="evenodd" fill="#38D5FF" points="300.9,403.2 328.1,403.2 328.1,403.9 300.9,403.9 
									300.9,403.2 								"/>
								<polygon fill-rule="evenodd" clip-rule="evenodd" fill="#38D5FF" points="300.9,404.5 328.1,404.5 328.1,405.2 300.9,405.2 
									300.9,404.5 								"/>
							</g>
							<path fill="#1A171B" d="M328,399.9v6h-26.9v-6H328 M328.4,399.5H328h-26.9h-0.4v0.4v6v0.4h0.4H328h0.4V406v-6V399.5
								L328.4,399.5z"/>
						</g>
						<g>
							<circle fill-rule="evenodd" clip-rule="evenodd" fill="#FFFFFF" cx="314.5" cy="406.7" r="4.8"/>
							<path fill-rule="evenodd" clip-rule="evenodd" fill="#1A171B" d="M314.5,401.9c2.6,0,4.8,2.2,4.8,4.8c0,2.6-2.2,4.8-4.8,4.8
								c-2.7,0-4.8-2.2-4.8-4.8C309.7,404.1,311.9,401.9,314.5,401.9L314.5,401.9z M315.6,411.2c-0.3,0.1-0.7,0.1-1,0.1
								c-0.4,0-0.7,0-1-0.1l-1.1-1.5l0.9-1.2h0.9l0,0h1.5l0.9,1.2L315.6,411.2L315.6,411.2z M319.1,407.1c0,0.3-0.1,0.7-0.2,1
								c-0.1,0.3-0.3,0.7-0.4,0.9l-1.7,0.5l-0.9-1.2l0.6-2.3l1.5-0.5L319.1,407.1L319.1,407.1z M316.3,402.5
								c0.3,0.1,0.6,0.3,0.9,0.5c0.3,0.2,0.5,0.4,0.8,0.7l0,1.7l-1.5,0.5l-1.9-1.2v-1.5L316.3,402.5L316.3,402.5z M311.1,403.7
								c0.2-0.3,0.5-0.5,0.8-0.7c0.3-0.2,0.6-0.4,0.9-0.5l1.6,0.6l0,1.5l-1.8,1.4l-1.5-0.5L311.1,403.7L311.1,403.7z M310.6,409.1
								c-0.2-0.3-0.3-0.6-0.4-0.9c-0.1-0.3-0.2-0.7-0.2-1l1.1-1.3l1.5,0.5l0.6,2.1l-0.9,1.2L310.6,409.1L310.6,409.1z"/>
						</g>
					</g>
					<g>
						<g>
							<path fill="#E1001A" d="M316.3,391c0,0.1,0,0.3,0,0.5c0,0.2,0,0.3-0.1,0.4c0,0.1-0.1,0.1-0.1,0.2c-0.1,0.1-0.2,0.1-0.4,0.1
								c-0.2,0-0.6,0-1.2,0c-0.7,0-1.1,0-1.4-0.1c-0.2,0-0.3-0.1-0.3-0.3c0-0.1,0-0.3-0.1-0.9v-2.2h-1.8v2.2c0,0.5,0,0.9,0,1
								c0,0.2,0,0.3,0.1,0.5c0.1,0.5,0.5,0.8,1.1,1c0.3,0.1,0.6,0.1,0.9,0.1c0.4,0,0.9,0,1.5,0c0.9,0,1.5,0,1.9-0.1
								c0.4,0,0.7-0.1,0.9-0.2c0.4-0.2,0.6-0.5,0.7-0.9c0-0.2,0.1-0.7,0.1-1.4v-2.2h-1.8V391z"/>
							<path fill="#1A171B" d="M314.6,393.8c-0.6,0-1.2,0-1.5,0c-0.4,0-0.7-0.1-0.9-0.1c-0.7-0.1-1.1-0.5-1.2-1.1
								c0-0.2-0.1-0.4-0.1-0.5c0-0.2,0-0.5,0-1v-2.2c0-0.1,0.1-0.2,0.2-0.2h1.8c0.1,0,0.2,0.1,0.2,0.2v2.2c0,0.6,0,0.8,0.1,0.8
								c0,0,0,0.1,0.2,0.2c0.1,0,0.5,0.1,1.3,0.1c0.5,0,0.9,0,1.1,0c0.2,0,0.3-0.1,0.3-0.1c0,0,0,0,0-0.1c0,0,0-0.1,0-0.4
								c0-0.2,0-0.4,0-0.5v-2.2c0-0.1,0.1-0.2,0.2-0.2h1.8c0.1,0,0.2,0.1,0.2,0.2v2.2c0,0.7,0,1.2-0.1,1.5c-0.1,0.5-0.3,0.8-0.8,1
								c-0.2,0.1-0.6,0.2-1,0.2C316,393.8,315.4,393.8,314.6,393.8z M311.1,389v2c0,0.5,0,0.9,0,1c0,0.1,0,0.3,0.1,0.5
								c0.1,0.5,0.4,0.7,1,0.8c0.3,0.1,0.6,0.1,0.9,0.1c0.3,0,0.8,0,1.5,0c0.9,0,1.5,0,1.8-0.1c0.4,0,0.7-0.1,0.9-0.2
								c0.4-0.2,0.6-0.4,0.6-0.8c0-0.2,0.1-0.7,0.1-1.4v-2h-1.5v2c0,0.1,0,0.3,0,0.5c0,0.2,0,0.4-0.1,0.4c0,0.1-0.1,0.2-0.1,0.2
								c-0.1,0.1-0.3,0.2-0.5,0.2c-0.2,0-0.6,0-1.2,0c-0.7,0-1.2,0-1.4-0.1c-0.2-0.1-0.4-0.2-0.4-0.4c0-0.1-0.1-0.4-0.1-0.9v-2
								H311.1z"/>
						</g>
						<g>
							<polygon fill="#E1001A" points="311,399 312.8,399 312.8,397.4 318,397.4 318,396 312.8,396 312.8,395.6 318.1,395.6 
								318.1,394.2 311,394.2 							"/>
							<path fill="#1A171B" d="M312.8,399.1H311c-0.1,0-0.2-0.1-0.2-0.2v-4.8c0-0.1,0.1-0.2,0.2-0.2h7.1c0.1,0,0.2,0.1,0.2,0.2v1.4
								c0,0.1-0.1,0.2-0.2,0.2H313v0.1h5c0.1,0,0.2,0.1,0.2,0.2v1.4c0,0.1-0.1,0.2-0.2,0.2h-5v1.4C313,399,312.9,399.1,312.8,399.1z
								 M311.1,398.8h1.5v-1.4c0-0.1,0.1-0.2,0.2-0.2h5v-1h-5c-0.1,0-0.2-0.1-0.2-0.2v-0.4c0-0.1,0.1-0.2,0.2-0.2h5.1v-1.1h-6.8
								V398.8z"/>
						</g>
						<g>
							<path fill="#E1001A" d="M313.1,387.6h2.9l0.4,0.8h1.8l-2.5-4.8h-2.3l-2.5,4.8h1.8L313.1,387.6z M314.6,384.8l0.8,1.5h-1.7
								l0.8-1.5H314.6z"/>
							<path fill="#1A171B" d="M318.2,388.5C318.2,388.5,318.2,388.5,318.2,388.5h-1.8c-0.1,0-0.1,0-0.1-0.1l-0.3-0.7h-2.7l-0.3,0.7
								c0,0.1-0.1,0.1-0.1,0.1h-1.8c-0.1,0-0.1,0-0.1-0.1c0,0,0-0.1,0-0.2l2.5-4.8c0-0.1,0.1-0.1,0.1-0.1h2.3c0.1,0,0.1,0,0.1,0.1
								l2.5,4.7c0,0,0,0.1,0,0.1C318.3,388.4,318.3,388.5,318.2,388.5z M316.5,388.2h1.5l-2.3-4.4h-2.1l-2.4,4.4h1.5l0.3-0.7
								c0-0.1,0.1-0.1,0.1-0.1h2.9c0.1,0,0.1,0,0.1,0.1L316.5,388.2z M315.4,386.5h-1.7c-0.1,0-0.1,0-0.1-0.1c0,0,0-0.1,0-0.2
								l0.8-1.5c0-0.1,0.1-0.1,0.1-0.1h0.1c0.1,0,0.1,0,0.1,0.1l0.8,1.5c0,0,0,0.1,0,0.2C315.5,386.5,315.4,386.5,315.4,386.5z
								 M314,386.2h1.2l-0.6-1.1L314,386.2z"/>
						</g>
					</g>
				</g>
			</g>
			<path fill="#1F76A0" d="M135.5,394.6c0,0,8.5,70.9,20.1,108c11.1,35.3,37,145.5,35.5,201.1l7.4,0.5c0,0,6.9-38.1-23.8-159.8
				c-17-67.2-22.8-81-28.6-156.7L135.5,394.6z"/>
			<path opacity="0.1" d="M110.3,349.4c-7.9-2.7-35.6,19.1-10.5,38.9c0,0,39.2,25.5,77.2,27.3l7.8-45.2
				C184.8,370.4,129.2,355.7,110.3,349.4z"/>
			<rect x="166.1" y="939.6" fill="#1F76A0" width="5" height="159.9"/>
			<rect x="260.3" y="939" fill="#1F76A0" width="5.1" height="160.4"/>
			<path opacity="0.1" d="M273.1,406.5L287.3,697l-34.9,362.8l47.6-51.6L350.8,616C350.8,616,338.1,393,273.1,406.5z"/>
			<g>
				<g>
					<path fill="#EFB789" d="M712.8,530.1c-5.3,3.4-10.8,6.3-16.4,9.1c-2.7,1.3-5.4,2.6-8.1,3.8c-0.9,0.4-5.4,2.3-2.8,1.2
						c2.5-1.1-2.8,1.1-3.9,1.5c-7.2,2.8-14.5,5.2-22,7c-3.9,1-7.8,1.7-11.7,2.4c-4.7,0.8,2.3-0.1-2.5,0.4c-2.1,0.2-4.2,0.4-6.3,0.5
						c-4.2,0.2-8.4,0.2-12.6-0.1c-1.8-0.1-7.1-1.1-2.5-0.2c-2.1-0.4-4.1-0.7-6.2-1.2c-2-0.5-4.1-1-6.1-1.7c-0.9-0.3-1.8-0.7-2.8-1
						c-3.1-1-0.1,0-0.3-0.1c-3.8-1.9-7.3-3.9-10.9-6.2c-1.6-1-2-1.6-0.1,0c-0.8-0.7-1.6-1.3-2.4-2c-1.9-1.7-3.7-3.5-5.4-5.4
						c-0.8-0.8-1.5-1.7-2.2-2.6c-2-2.2,1.4,2-0.4-0.5c-1.5-2.2-3-4.3-4.4-6.6c-1.6-2.6-3-5.3-4.4-8.1c-0.7-1.5-1.4-2.9-2-4.4
						c1.2,2.7-0.7-2-1.1-2.9c-2.6-7.1-4.6-14.4-6.1-21.8c-4-19-4.8-38.6-4.7-58.7c0.2-20.4-31.6-20.5-31.8,0
						c-0.5,54.7,8.2,126.9,66.8,149.6c34.5,13.4,74.1,2.1,106.2-12.7c7.8-3.6,15.6-7.5,22.8-12.2C745.9,546.5,730,519,712.8,530.1
						L712.8,530.1z"/>
				</g>
				<path fill="#EFB789" d="M489.8,222.6L489.8,222.6c2.6-33.3-20.6-60.7-52.5-64.4c-32.1-3.7-61,19-65.5,51l-0.3-0.1l-21.2,176.5
					l119.9,13.9L489.8,222.6z"/>
				
					<rect x="373.6" y="370.9" transform="matrix(0.9925 0.1225 -0.1225 0.9925 52.0642 -48.2739)" fill="#F2F2F2" width="90.1" height="56.8"/>
				<g>
					<path fill="#3A96EA" d="M544.4,360.5c0,0-33.2-4.1-73.2-9l-1.7-0.2c-0.5-0.1-1,0.1-1.3,0.5l-45.3,54.9l-67.4-69.5
						c-2.1-0.3-4.2-0.5-6.2-0.8c-13.2-1.6-52.6-6.5-52.6-6.5c-8.5-1-16.3,6.2-17.7,17.2L300.7,691c-1.4,11.1,4.4,20.7,12.9,21.8
						l141.6,17.5c8.5,1,16-7,17.3-18.1l84.4-330.5C558.2,370.6,552.8,361.5,544.4,360.5z"/>
				</g>
				
					<rect x="274.2" y="702.7" transform="matrix(0.9925 0.1225 -0.1225 0.9925 112.627 -31.284)" fill="#FBFDFC" width="73" height="395.3"/>
				
					<rect x="381.4" y="715.9" transform="matrix(0.9925 0.1225 -0.1225 0.9925 115.0538 -44.3092)" fill="#FBFDFC" width="73" height="395.3"/>
				<polyline fill="#FBFDFC" points="297.2,702 291.4,760 467.8,785.2 478.8,717.7 				"/>
				
					<rect x="381.5" y="874.7" transform="matrix(0.9925 0.1225 -0.1225 0.9925 114.958 -44.3271)" fill="#EFB789" width="73" height="76.2"/>
				
					<rect x="274.3" y="861.5" transform="matrix(0.9925 0.1225 -0.1225 0.9925 112.5313 -31.3019)" fill="#EFB789" width="73" height="76.2"/>
				<polyline fill="#3A96EA" points="377.1,946.2 449.6,955.1 429.9,1114.2 357.4,1105.3 				"/>
				<polyline fill="#3A96EA" points="269.9,932.9 342.4,941.9 322.8,1101 250.3,1092.1 				"/>
				<path fill="#3A96EA" d="M358.2,863c-0.3,2.2-2.4,3.7-4.8,3.4l-75.1-9.3c-2.4-0.3-4.1-2.3-3.8-4.5l0,0c0.3-2.2,2.4-3.7,4.8-3.4
					l75.1,9.3C356.8,858.9,358.5,860.8,358.2,863L358.2,863z"/>
				<path fill="#3A96EA" d="M464.7,876.2c-0.3,2.2-2.4,3.7-4.7,3.4l-73.8-9.1c-2.4-0.3-4-2.2-3.8-4.5l0,0c0.3-2.2,2.4-3.7,4.7-3.4
					l73.8,9.1C463.3,872,465,874,464.7,876.2L464.7,876.2z"/>
				<path fill="#3A96EA" d="M545.9,360.7c0,0,39.9,7.6,32.1,87.7c0,0-33.2,26.8-58.2,4.6C494.9,430.7,545.9,360.7,545.9,360.7z"/>
				<path fill="#E17B93" d="M536.4,460.8l1-6c0,0,22.7,2,40.8-15.5c0,0,0.8,5.7-0.2,9C578,448.4,555.5,466.1,536.4,460.8z"/>
				<g>
					<path fill="#2A5EDF" d="M482.8,427.6c0-0.2,0-0.3,0.1-0.5c0.1-0.6,0.2-1.2,0.3-1.8c0.2-1.2,0.3-2.5,0.5-3.7c0-0.1,0-0.1,0-0.2
						c0-0.2,0.1-0.4,0.1-0.7c0.8-6.6,1.7-13.2,2.5-19.7c0.8-6.3,1.6-12.6,2.4-18.9c0.1-0.8,0.2-1.6,0.3-2.4
						c13.7,1.7,27.4,3.4,41.1,5.1c-2,15.9-3.9,31.9-5.9,47.8c-0.1,0-0.1,0-0.2,0.1c-7.3,3.5-14.7,6.9-22,10.4c-0.1,0-0.1,0-0.2,0.1
						c0,0,0,0,0,0c0-0.1-0.1-0.1-0.1-0.1c-6.2-5.1-12.4-10.2-18.7-15.3C482.9,427.7,482.8,427.6,482.8,427.6z M513.2,420
						c0,0.1,0,0.2,0,0.2c-0.4,3.1-0.8,6.3-1.1,9.4c0,0.2,0,0.3,0.2,0.4c1.4,1,2.8,2,4.3,3c0.1,0.1,0.2,0.1,0.4,0
						c1.3-0.6,2.6-1.1,3.9-1.7c0.2-0.1,0.5-0.2,0.7-0.3c0.1,0,0.1-0.1,0.1-0.2c0,0,0-0.1,0-0.1c1.4-11,2.7-21.9,4.1-32.9
						c0-0.3,0.1-0.3-0.2-0.3c-3-0.4-6-0.7-9-1.1c0,0-0.1,0-0.1,0c-0.1,0-0.2,0-0.2,0.1c0,0.1,0,0.1,0,0.2c-0.2,1.9-0.5,3.7-0.7,5.6
						c0,0.2-0.1,0.4-0.1,0.7c-0.3-0.3-0.5-0.6-0.8-0.8c-0.1-0.1-0.2-0.2-0.1-0.4c0.2-1.7,0.4-3.5,0.6-5.2c0-0.2,0.1-0.2-0.2-0.3
						c0,0,0,0,0,0c-4.6-0.6-9.3-1.1-13.9-1.7c-0.1,0-0.1,0-0.2,0c-0.1,0-0.1,0-0.1,0.1c0,0.1,0,0.1,0,0.2c-0.1,1-0.3,2-0.4,3
						c-0.1,0.8-0.2,1.6-0.3,2.3c0,0.1,0,0.2-0.1,0.2c-0.4,0.2-0.8,0.5-1.1,0.8c0-0.1,0-0.2,0-0.2c0.3-2.1,0.5-4.1,0.8-6.2
						c0-0.3,0.1-0.3-0.3-0.3c-3-0.4-6-0.7-9-1.1c-0.3,0-0.3-0.1-0.3,0.3c-0.6,5.3-1.3,10.7-1.9,16c-0.1,1.3-0.3,2.6-0.5,3.8
						c-0.5,4.3-1.1,8.7-1.6,13c0,0.2,0,0.3,0.2,0.4c0.8,0.5,1.5,1.1,2.3,1.6c0.7,0.5,1.3,0.9,2,1.4c0.1,0.1,0.2,0.1,0.4,0
						c0,0,0.1,0,0.1,0c1.1-0.5,2.1-0.9,3.2-1.4c0.4-0.2,0.8-0.3,1.2-0.5c0.1-0.1,0.2-0.1,0.2-0.3c0-0.1,0-0.1,0-0.2
						c0.4-3.1,0.8-6.2,1.2-9.3c0-0.1,0-0.2,0-0.3c0.3,0.3,0.5,0.6,0.8,0.9c0.1,0.1,0.1,0.2,0.1,0.4c-0.6,5.1-1.3,10.2-1.9,15.3
						c0,0.2,0,0.2,0.1,0.4c2.1,1.7,4.1,3.5,6.2,5.2c0.1,0.1,0.2,0.1,0.4,0.1c2.5-1.2,5-2.4,7.5-3.5c0.2-0.1,0.2-0.2,0.3-0.4
						c0.6-5,1.2-10,1.9-15c0-0.1,0-0.1,0-0.2c0-0.1,0-0.1,0.1-0.2C512.5,420.5,512.9,420.3,513.2,420z M522.6,394.2
						c0-0.1,0-0.2,0-0.2c-0.3-1.2-0.6-2.5-0.9-3.7c-0.1-0.6-0.3-1.1-0.4-1.7c0-0.2,0-0.2-0.2-0.2c-0.2,0-0.4,0-0.6-0.1
						c-0.2,0-0.2,0-0.3,0.2c-0.8,1.6-1.6,3.3-2.5,4.9c0,0.1-0.1,0.1-0.1,0.2c0.3,0,0.7,0.1,1,0.1c0.1,0,0.1,0,0.2-0.1
						c0.1-0.3,0.3-0.5,0.4-0.8c0.1-0.1,0.1-0.1,0.2-0.1c0.5,0.1,1,0.1,1.5,0.2c0.1,0,0.2,0.1,0.2,0.2c0,0.3,0.1,0.6,0.2,0.9
						c0,0.1,0.1,0.1,0.2,0.2c0.2,0,0.3,0,0.5,0.1C522.2,394.2,522.4,394.2,522.6,394.2z M506.9,392.3c0-0.1,0-0.2,0-0.2
						c-0.2-0.8-0.4-1.7-0.6-2.5c-0.2-1-0.4-1.9-0.7-2.9c0-0.2,0-0.2-0.2-0.2c-0.2,0-0.4,0-0.6-0.1c-0.2,0-0.2,0-0.3,0.2
						c-0.8,1.7-1.7,3.3-2.5,5c0,0-0.1,0.1,0,0.2c0.3,0,0.7,0.1,1,0.1c0.1,0,0.1,0,0.2-0.1c0.1-0.3,0.3-0.5,0.4-0.8
						c0.1-0.2,0.1-0.2,0.3-0.1c0.5,0.1,0.9,0.1,1.4,0.2c0.2,0,0.2,0,0.2,0.2c0.1,0.3,0.1,0.6,0.2,0.8c0,0.1,0,0.1,0.1,0.1
						C506.2,392.2,506.6,392.3,506.9,392.3z M499.8,389.1c0.1-0.7,0.2-1.3,0.2-2c0-0.1,0-0.1,0-0.2c0-0.1,0-0.1,0.1-0.1
						c0.1,0,0.1,0,0.2,0c0.3,0,0.7,0.1,1,0.1c0.1,0,0.2,0,0.2-0.1c0-0.3,0.1-0.5,0.1-0.8c0-0.1,0-0.1-0.1-0.1c-0.1,0-0.1,0-0.2,0
						c-1.1-0.1-2.3-0.3-3.4-0.4c0,0-0.1,0-0.1,0c-0.1,0-0.1,0-0.1,0.1c0,0.3-0.1,0.5-0.1,0.8c0,0.1,0,0.1,0.1,0.1c0.1,0,0.1,0,0.2,0
						c0.3,0,0.7,0.1,1,0.1c0.1,0,0.1,0.1,0.1,0.2c0,0.1,0,0.1,0,0.2c-0.2,1.3-0.3,2.6-0.5,3.9c0,0.1,0,0.1,0,0.2
						c0,0.1,0,0.1,0.1,0.1c0.3,0,0.6,0.1,0.9,0.1c0.1,0,0.1,0,0.1-0.1c0-0.1,0-0.1,0-0.2C499.6,390.5,499.7,389.8,499.8,389.1z
						 M509.3,389.8c-0.1,0.9-0.2,1.7-0.3,2.6c0,0.2,0,0.2,0.2,0.2c0.7,0.1,1.4,0.2,2.1,0.3c0.4,0,0.7,0.1,1.1,0.1
						c0.2,0,0.2,0,0.2-0.1c0-0.2,0.1-0.4,0.1-0.6c0-0.2,0-0.2-0.2-0.2c-0.7-0.1-1.3-0.2-2-0.2c-0.3,0-0.3,0-0.2-0.3
						c0.2-1.3,0.3-2.7,0.5-4c0-0.1,0-0.1,0-0.2c0-0.1,0-0.1-0.1-0.1c-0.3,0-0.5-0.1-0.8-0.1c-0.1,0-0.1,0-0.1,0.1c0,0.1,0,0.1,0,0.2
						C509.5,388.1,509.4,388.9,509.3,389.8z M516.2,390.6c0.1-0.9,0.2-1.7,0.3-2.6c0-0.2,0-0.2-0.2-0.2c-0.3,0-0.6-0.1-0.9-0.1
						c-0.3,0-0.3-0.1-0.3,0.2c-0.2,1.7-0.4,3.4-0.6,5.1c0,0.1,0,0.1,0,0.2c0,0.1,0,0.1,0.1,0.1c0.4,0,0.7,0.1,1.1,0.1
						c0.1,0,0.1,0,0.1-0.1c0-0.1,0-0.1,0-0.2C516,392.3,516.1,391.5,516.2,390.6z M494,387.9c-0.1,0.9-0.2,1.7-0.3,2.6
						c0,0.2,0,0.2,0.2,0.2c0.3,0,0.6,0.1,1,0.1c0.2,0,0.2,0,0.2-0.1c0-0.1,0-0.1,0-0.2c0.2-1.5,0.4-3,0.6-4.5c0-0.2,0-0.4,0.1-0.6
						c0-0.2,0-0.2-0.2-0.2c-0.3,0-0.6-0.1-0.9-0.1c-0.2,0-0.2,0-0.2,0.2c0,0,0,0.1,0,0.1C494.3,386.2,494.1,387,494,387.9z"/>
					<path fill="#FEFEFE" d="M498.7,401.1c0.4-0.3,0.7-0.5,1.1-0.8c0.1-0.1,0.1-0.2,0.1-0.2c0.1-0.8,0.2-1.6,0.3-2.3
						c0.1-1,0.3-2,0.4-3c0-0.1,0-0.1,0-0.2c0-0.1,0-0.1,0.1-0.1c0.1,0,0.1,0,0.2,0c4.6,0.6,9.3,1.1,13.9,1.7c0,0,0,0,0,0
						c0.3,0,0.2,0,0.2,0.3c-0.2,1.7-0.4,3.5-0.6,5.2c0,0.2,0,0.3,0.1,0.4c0.3,0.3,0.5,0.6,0.8,0.8c0,0.1,0.1,0.1,0.1,0.2
						c2.4,3.2,3.1,6.8,2.1,10.7c-0.6,2.2-1.8,4.1-3.5,5.6c-0.2,0.2-0.5,0.4-0.7,0.6c-0.4,0.2-0.7,0.5-1.1,0.7
						c-0.1,0-0.1,0.1-0.1,0.2c0,0.1,0,0.1,0,0.2c-0.6,5-1.2,10-1.9,15c0,0.2-0.1,0.3-0.3,0.4c-2.5,1.2-5,2.3-7.5,3.5
						c-0.2,0.1-0.3,0.1-0.4-0.1c-2.1-1.7-4.1-3.5-6.2-5.2c-0.1-0.1-0.2-0.2-0.1-0.4c0.6-5.1,1.3-10.2,1.9-15.3c0-0.2,0-0.3-0.1-0.4
						c-0.3-0.3-0.5-0.6-0.8-0.9c0,0,0-0.1-0.1-0.1c-2.3-3.2-3-6.7-1.9-10.5c0.6-2.2,1.8-4,3.5-5.5
						C498.3,401.5,498.5,401.3,498.7,401.1z M506,433.7C506,433.7,506.1,433.7,506,433.7C506.1,433.6,506,433.7,506,433.7
						c-0.7-0.3-1.3-0.4-1.9-0.6c0,0,0-0.1,0-0.1c-0.2-0.6-0.4-1.1-0.6-1.7c0,0,0-0.1-0.1-0.1c-0.1-0.1-0.1,0-0.1,0.1
						c-0.3,0.6-0.7,1.1-1,1.7c-0.5,0-0.9,0-1.4-0.1c-0.2,0-0.4-0.1-0.6,0c0,0-0.1,0-0.1,0.1c0,0.1,0.1,0.1,0.1,0.1
						c0.4,0.4,0.7,0.9,1.1,1.3c0,0.2-0.1,0.5-0.1,0.7c-0.1,0.4-0.2,0.8-0.3,1.2c0,0-0.1,0.1,0,0.2c0,0,0.1,0,0.1-0.1l0,0
						c0.1,0,0.2,0,0.2,0c0.5-0.2,1.1-0.4,1.6-0.6c0.4,0.2,0.7,0.5,1.1,0.7c0.2,0.1,0.4,0.3,0.5,0.3c0.1,0,0.1-0.1,0.1-0.1
						c0-0.6,0-1.3,0-1.9c0,0,0,0,0.1,0C505.1,434.6,505.5,434.2,506,433.7C506,433.8,506,433.8,506,433.7L506,433.7z M504.4,422.9
						C504.4,422.8,504.4,422.9,504.4,422.9c-0.4,0.6-0.8,1.2-1.1,1.8c-0.5,0-1.1,0-1.6,0c-0.2,0-0.3,0-0.5,0c0,0,0,0,0,0.1
						c0.4,0.5,0.8,1,1.2,1.5c-0.2,0.6-0.4,1.3-0.5,1.9c0,0,0,0.1,0,0.1c0.6-0.2,1.3-0.4,1.9-0.6c0.5,0.3,1,0.6,1.5,0.9
						c0.1,0,0.1,0.1,0.2,0.1c0,0,0,0,0,0c0,0,0,0,0,0c0-0.7,0-1.3,0-2c0.4-0.3,0.7-0.6,1.1-0.9c0.1-0.1,0.2-0.2,0.3-0.3c0,0,0,0,0,0
						c0,0,0,0,0,0c0,0-0.1,0-0.1-0.1c-0.6-0.2-1.2-0.3-1.8-0.5c0,0,0,0,0-0.1c-0.2-0.5-0.4-1.1-0.6-1.6
						C504.5,423,504.5,423,504.4,422.9C504.4,422.9,504.4,422.9,504.4,422.9z M505.4,400c0.4,0.1,0.8,0.2,1.1,0.3
						c1.2,0.5,2.3,1.2,3.4,2c1,0.7,1.7,1.7,2.1,2.8c0.8,2.1,0.8,4.3,0.1,6.4c-0.4,1.3-1.2,2.4-2.1,3.4c-0.4,0.5-0.9,1-1.5,1.3
						c-0.2,0.1-0.4,0.3-0.6,0.4c-0.1,0.1-0.2,0.2-0.3,0.3c-0.1,0.2-0.1,0.4,0.2,0.5c0.2,0.1,0.4,0.1,0.6,0.1c0.9,0.1,1.8,0,2.7-0.3
						c1.8-0.6,3.2-1.8,4.3-3.4c0.6-0.8,1-1.8,1.1-2.8c0.2-1,0.1-1.9-0.1-2.9c-0.7-2.9-2.3-5.1-4.8-6.8c-1-0.7-2.2-1.1-3.3-1.4
						C507.4,399.9,506.4,399.8,505.4,400c-0.1-0.1-0.2-0.1-0.3,0C505.3,399.9,505.3,400,505.4,400z M497,416.4
						C497,416.4,497,416.4,497,416.4C497,416.4,497,416.4,497,416.4c0-0.1,0-0.1,0-0.1c-0.2-0.6-0.3-1.3-0.4-1.9
						c-0.1-0.9,0-1.9,0.1-2.8c0.1-0.5,0.1-1,0.3-1.5c0.3-0.9,0.8-1.8,1.5-2.5c1.4-1.5,3.2-2.4,5.2-2.8c1.1-0.2,2.2-0.2,3.2-0.1
						c1,0.1,1.9,0.4,2.7,0.8c0.2,0.1,0.4,0.2,0.6,0.2c0.2,0.1,0.3,0.1,0.5,0.1c0.2,0,0.3-0.1,0.3-0.3c0-0.1,0-0.2,0-0.2
						c0-0.2-0.1-0.4-0.2-0.5c-0.4-1-1.1-1.8-1.9-2.4c-1.5-1.2-3.2-1.7-5.1-1.7c-1.8,0-3.4,0.5-4.7,1.7c-2,1.6-3.1,3.8-3.6,6.2
						c-0.2,1-0.2,2.1-0.1,3.1c0.1,1.4,0.5,2.7,1.2,4C496.6,415.9,496.8,416.2,497,416.4z M515.5,415.6c0.1-0.1,0.1-0.1,0.1-0.3
						C515.5,415.4,515.4,415.5,515.5,415.6c-0.1,0-0.1,0.1-0.2,0.1c-0.3,0.4-0.8,0.7-1.2,1c-1,0.6-2,1.1-3.1,1.6
						c-1.3,0.5-2.6,0.6-3.9,0.3c-1.7-0.4-3.2-1.3-4.4-2.6c-0.4-0.4-0.7-0.9-1.1-1.3c-0.2-0.3-0.4-0.6-0.5-1
						c-0.1-0.2-0.2-0.5-0.3-0.7c-0.3-0.8-0.6-1.5-0.8-2.3c-0.1-0.2-0.1-0.5-0.1-0.7c0-0.3,0-0.6-0.1-0.9c0-0.1-0.1-0.3-0.1-0.4
						c-0.1-0.1-0.2-0.2-0.4-0.1c-0.1,0-0.2,0.1-0.3,0.2c-0.1,0.1-0.2,0.2-0.3,0.4c-0.8,1-1.2,2.1-1.3,3.3c-0.1,1.3,0.1,2.6,0.6,3.8
						c0.9,2.2,2.4,3.8,4.8,4.5c1.1,0.4,2.2,0.5,3.4,0.5c1.3,0,2.5-0.2,3.7-0.7C512.2,419.6,514.2,417.9,515.5,415.6z M508,411.1
						c0-0.2,0-0.4,0.1-0.5c0-0.2,0-0.2-0.2-0.2c-0.3,0-0.6-0.1-1-0.1c-0.2,0-0.2,0-0.2,0.2c0,0.1-0.1,0.3,0,0.4
						c0.1,0.1,0.2,0.1,0.4,0.1c0.4,0.1,0.3,0,0.3,0.4c0,0.1,0,0.1-0.1,0.2c-0.3,0.1-0.5,0.2-0.8,0.2c-0.4-0.1-0.6-0.3-0.6-0.7
						c-0.1-0.5,0-0.9,0.1-1.3c0.1-0.1,0.1-0.2,0.2-0.3c0.3-0.3,1.1-0.3,1.3,0.4c0,0,0,0,0,0.1c0,0.1,0,0.1,0.1,0.1
						c0.2,0,0.3,0,0.5,0c0.1,0,0.1,0,0.1-0.1c-0.1-0.4-0.2-0.7-0.5-0.9c-0.7-0.5-1.7-0.3-2.1,0.5c-0.4,0.7-0.5,1.4-0.2,2.2
						c0.1,0.4,0.4,0.7,0.7,0.8c0.6,0.3,1.3,0.2,1.9-0.2c0.1-0.1,0.1-0.1,0.1-0.2C507.9,411.5,508,411.3,508,411.1z M508.6,410.6
						c0,0.1,0,0.2,0,0.3c0,0.5,0,0.9,0.3,1.3c0.3,0.5,0.8,0.6,1.3,0.5c0.5-0.1,0.8-0.5,1-0.9c0-0.1,0-0.1-0.1-0.1
						c-0.1-0.1-0.3-0.1-0.4-0.2c-0.1,0-0.1,0-0.1,0.1c0,0.1-0.1,0.3-0.2,0.4c-0.2,0.3-0.5,0.3-0.8,0.2c-0.2-0.1-0.3-0.3-0.4-0.6
						c-0.1-0.5,0-0.9,0.2-1.4c0.1-0.1,0.1-0.3,0.3-0.4c0.4-0.3,0.9-0.1,1,0.3c0,0.1,0,0.2,0.1,0.3c0.1,0,0.2,0,0.3,0
						c0.1,0,0.1,0,0.2,0c0.2,0,0.2,0,0.1-0.2c-0.1-0.7-0.7-1.1-1.4-1.1c-0.5,0-0.9,0.3-1.1,0.8C508.7,409.9,508.6,410.2,508.6,410.6
						z M501.3,409.7c0,0.1,0,0.2,0,0.3c-0.1,0.4-0.1,0.9-0.2,1.3c0,0.2,0,0.2,0.1,0.2c0.1,0,0.2,0,0.3,0c0.2,0,0.2,0,0.2-0.2
						c0.1-0.4,0.1-0.8,0.1-1.2c0-0.2,0-0.2,0.2-0.2c0.3,0,0.7,0.1,1,0.1c0.1,0,0.2,0,0.2-0.1c0-0.1,0-0.2,0-0.4c0-0.1,0-0.1-0.1-0.1
						c-0.1,0-0.1,0-0.2,0c-0.3,0-0.6-0.1-0.9-0.1c-0.1,0-0.1,0-0.1-0.1c0-0.2,0.1-0.4,0.1-0.6c0-0.1,0-0.1,0.1-0.1
						c0.1,0,0.1,0,0.2,0c0.4,0,0.8,0.1,1.1,0.1c0.1,0,0.2,0,0.2-0.1c0-0.1,0-0.2,0-0.3c0-0.2,0-0.2-0.2-0.2
						c-0.6-0.1-1.2-0.2-1.8-0.2c-0.2,0-0.2,0-0.2,0.2C501.4,408.5,501.3,409.1,501.3,409.7z M504.6,410.1c0.1-0.5,0.1-0.9,0.2-1.4
						c0-0.1,0.1-0.3,0-0.4c-0.1-0.1-0.3-0.1-0.5-0.1c-0.1,0-0.1,0-0.1,0.1c0,0.1,0,0.1,0,0.2c-0.1,1.1-0.3,2.1-0.4,3.2
						c0,0,0,0.1,0,0.1c0,0.1,0,0.1,0.1,0.1c0.1,0,0.2,0,0.3,0c0.2,0,0.2,0,0.2-0.2C504.5,411.2,504.5,410.6,504.6,410.1z"/>
					<path fill="#079E42" d="M498.7,401.1c-0.2,0.2-0.4,0.3-0.6,0.5c-1.7,1.5-2.9,3.3-3.5,5.5c-1.1,3.8-0.4,7.3,1.9,10.5
						c0,0,0,0.1,0.1,0.1c0,0.1,0,0.2,0,0.3c-0.4,3.1-0.8,6.2-1.2,9.3c0,0.1,0,0.1,0,0.2c0,0.2-0.1,0.2-0.2,0.3
						c-0.4,0.2-0.8,0.3-1.2,0.5c-1.1,0.5-2.1,0.9-3.2,1.4c0,0-0.1,0-0.1,0c-0.1,0.1-0.2,0.1-0.4,0c-0.7-0.5-1.3-0.9-2-1.4
						c-0.8-0.5-1.5-1.1-2.3-1.6c-0.2-0.1-0.2-0.2-0.2-0.4c0.5-4.3,1.1-8.7,1.6-13c0.2-1.3,0.3-2.6,0.5-3.8c0.6-5.3,1.3-10.7,1.9-16
						c0-0.3,0-0.3,0.3-0.3c3,0.4,6,0.7,9,1.1c0.3,0,0.3,0,0.3,0.3c-0.3,2.1-0.5,4.1-0.8,6.2C498.7,401,498.7,401.1,498.7,401.1z
						 M492.4,427C492.4,427,492.4,427,492.4,427C492.5,427,492.5,427,492.4,427c0.1-0.1,0.1-0.2,0.1-0.4c0-0.5,0-1.1,0-1.6
						c0.5-0.4,0.9-0.8,1.4-1.1c0,0,0.1-0.1,0.1-0.1c0,0-0.1,0-0.1-0.1c-0.6-0.2-1.2-0.3-1.8-0.5c-0.2-0.6-0.4-1.2-0.7-1.8
						c0-0.1,0-0.1-0.1-0.2c0,0,0,0,0,0c0,0-0.1,0.1-0.1,0.1c-0.3,0.6-0.7,1.1-1,1.7c-0.5,0-1.1,0-1.6-0.1c-0.2,0-0.3,0-0.5,0
						c0,0,0,0.1,0.1,0.1c0.4,0.5,0.8,1,1.2,1.5c-0.1,0.5-0.3,1.1-0.4,1.6c0,0.1-0.1,0.2-0.1,0.4c0,0,0,0,0.1,0l0,0c0,0,0.1,0,0.1,0
						c0.6-0.2,1.1-0.4,1.7-0.6c0.5,0.3,1,0.6,1.5,0.9C492.3,426.9,492.4,427,492.4,427L492.4,427z"/>
					<path fill="#FF2D00" d="M513.2,420c0.2-0.2,0.5-0.4,0.7-0.6c1.7-1.5,2.9-3.4,3.5-5.6c1.1-3.9,0.4-7.4-2.1-10.7
						c0-0.1-0.1-0.1-0.1-0.2c0-0.2,0.1-0.4,0.1-0.7c0.2-1.9,0.5-3.7,0.7-5.6c0-0.1,0-0.1,0-0.2c0-0.1,0.1-0.1,0.2-0.1
						c0,0,0.1,0,0.1,0c3,0.4,6,0.7,9,1.1c0.3,0,0.3,0,0.2,0.3c-1.4,11-2.7,21.9-4.1,32.9c0,0,0,0.1,0,0.1c0,0.1,0,0.1-0.1,0.2
						c-0.2,0.1-0.5,0.2-0.7,0.3c-1.3,0.6-2.6,1.1-3.9,1.7c-0.1,0.1-0.2,0-0.4,0c-1.4-1-2.8-2-4.3-3c-0.1-0.1-0.2-0.2-0.2-0.4
						c0.4-3.1,0.8-6.3,1.1-9.4C513.2,420.2,513.2,420.1,513.2,420z M514.4,426.2L514.4,426.2c0,0,0,0.1,0,0.1c0.4,0.5,0.8,1,1.2,1.5
						c0,0.1,0,0.2-0.1,0.3c-0.2,0.6-0.3,1.1-0.5,1.7c0,0,0,0,0,0c0,0,0,0,0.1,0l0,0c0.1,0,0.2,0,0.3-0.1c0.5-0.2,1.1-0.4,1.6-0.6
						c0.6,0.4,1.1,0.7,1.7,1.1c0.1,0,0.1,0,0.1-0.1c0-0.3,0-0.6,0-0.9c0-0.4,0-0.7,0-1.1c0.2-0.2,0.4-0.3,0.6-0.5
						c0.3-0.3,0.6-0.5,0.9-0.8c0-0.1-0.1-0.1-0.1-0.1c-0.2-0.1-0.4-0.1-0.7-0.2c-0.4-0.1-0.8-0.2-1.1-0.3c-0.2-0.6-0.5-1.3-0.7-1.9
						c0-0.1-0.1-0.1-0.1,0c-0.2,0.4-0.5,0.8-0.7,1.1c-0.1,0.2-0.3,0.4-0.3,0.6C515.7,426.2,515.1,426.2,514.4,426.2
						C514.4,426.2,514.3,426.2,514.4,426.2C514.3,426.2,514.3,426.2,514.4,426.2z"/>
					<path fill="#D8CF9B" d="M522.6,394.2c-0.2,0-0.4,0-0.6-0.1c-0.2,0-0.3,0-0.5-0.1c-0.1,0-0.2-0.1-0.2-0.2c0-0.3-0.1-0.6-0.2-0.9
						c0-0.1-0.1-0.2-0.2-0.2c-0.5-0.1-1-0.1-1.5-0.2c-0.1,0-0.2,0-0.2,0.1c-0.1,0.3-0.3,0.5-0.4,0.8c0,0.1-0.1,0.1-0.2,0.1
						c-0.3,0-0.7-0.1-1-0.1c0-0.1,0-0.1,0.1-0.2c0.8-1.6,1.6-3.3,2.5-4.9c0.1-0.2,0.1-0.2,0.3-0.2c0.2,0,0.4,0,0.6,0.1
						c0.2,0,0.2,0,0.2,0.2c0.1,0.6,0.3,1.1,0.4,1.7c0.3,1.2,0.6,2.5,0.9,3.7C522.5,394.1,522.6,394.1,522.6,394.2z M519.8,391.9
						c0.4,0,0.7,0.1,1,0.1c0.2,0,0.2,0,0.1-0.2c-0.1-0.5-0.2-1-0.3-1.4c0,0,0-0.1-0.1-0.1C520.3,390.8,520.1,391.3,519.8,391.9z"/>
					<path fill="#D8CF9B" d="M506.9,392.3c-0.4,0-0.7-0.1-1.1-0.1c-0.1,0-0.1-0.1-0.1-0.1c0-0.3-0.1-0.6-0.2-0.8
						c0-0.2,0-0.2-0.2-0.2c-0.5-0.1-0.9-0.1-1.4-0.2c-0.2,0-0.2,0-0.3,0.1c-0.1,0.3-0.3,0.5-0.4,0.8c0,0.1-0.1,0.1-0.2,0.1
						c-0.3,0-0.7-0.1-1-0.1c0-0.1,0-0.1,0-0.2c0.8-1.7,1.7-3.3,2.5-5c0.1-0.2,0.1-0.2,0.3-0.2c0.2,0,0.4,0,0.6,0.1
						c0.2,0,0.2,0,0.2,0.2c0.2,1,0.4,1.9,0.7,2.9c0.2,0.8,0.4,1.7,0.6,2.5C506.9,392.1,507,392.2,506.9,392.3z M504.2,390
						c0.4,0.1,0.8,0.1,1.2,0.1c-0.1-0.6-0.2-1.2-0.3-1.8c0,0,0,0,0,0C504.7,388.9,504.5,389.4,504.2,390z"/>
					<path fill="#D8CF9B" d="M499.8,389.1c-0.1,0.7-0.2,1.3-0.2,2c0,0.1,0,0.1,0,0.2c0,0.1,0,0.1-0.1,0.1c-0.3,0-0.6-0.1-0.9-0.1
						c-0.1,0-0.1-0.1-0.1-0.1c0-0.1,0-0.1,0-0.2c0.2-1.3,0.3-2.6,0.5-3.9c0-0.1,0-0.1,0-0.2c0-0.1,0-0.1-0.1-0.2
						c-0.3,0-0.7-0.1-1-0.1c-0.1,0-0.1,0-0.2,0c-0.1,0-0.1-0.1-0.1-0.1c0-0.3,0.1-0.5,0.1-0.8c0-0.1,0.1-0.1,0.1-0.1
						c0,0,0.1,0,0.1,0c1.1,0.1,2.3,0.3,3.4,0.4c0.1,0,0.1,0,0.2,0c0.1,0,0.1,0.1,0.1,0.1c0,0.3-0.1,0.5-0.1,0.8
						c0,0.1-0.1,0.1-0.2,0.1c-0.3,0-0.7-0.1-1-0.1c-0.1,0-0.1,0-0.2,0c-0.1,0-0.1,0-0.1,0.1c0,0.1,0,0.1,0,0.2
						C500,387.8,499.9,388.5,499.8,389.1z"/>
					<path fill="#D8CF9B" d="M509.3,389.8c0.1-0.8,0.2-1.7,0.3-2.5c0-0.1,0-0.1,0-0.2c0-0.1,0.1-0.1,0.1-0.1c0.3,0,0.5,0.1,0.8,0.1
						c0.1,0,0.1,0,0.1,0.1c0,0.1,0,0.1,0,0.2c-0.2,1.3-0.3,2.7-0.5,4c0,0.3,0,0.3,0.2,0.3c0.7,0.1,1.3,0.2,2,0.2
						c0.2,0,0.2,0,0.2,0.2c0,0.2-0.1,0.4-0.1,0.6c0,0.2,0,0.2-0.2,0.1c-0.4,0-0.7-0.1-1.1-0.1c-0.7-0.1-1.4-0.2-2.1-0.3
						c-0.2,0-0.2,0-0.2-0.2C509,391.5,509.2,390.6,509.3,389.8z"/>
					<path fill="#D8CF9B" d="M516.2,390.6c-0.1,0.8-0.2,1.7-0.3,2.5c0,0.1,0,0.1,0,0.2c0,0.1,0,0.1-0.1,0.1c-0.4,0-0.7-0.1-1.1-0.1
						c-0.1,0-0.1-0.1-0.1-0.1c0-0.1,0-0.1,0-0.2c0.2-1.7,0.4-3.4,0.6-5.1c0-0.3,0-0.3,0.3-0.2c0.3,0,0.6,0.1,0.9,0.1
						c0.2,0,0.2,0,0.2,0.2C516.4,388.9,516.3,389.7,516.2,390.6z"/>
					<path fill="#D8CF9B" d="M494,387.9c0.1-0.8,0.2-1.7,0.3-2.5c0,0,0-0.1,0-0.1c0-0.2,0-0.2,0.2-0.2c0.3,0,0.6,0.1,0.9,0.1
						c0.2,0,0.2,0,0.2,0.2c0,0.2,0,0.4-0.1,0.6c-0.2,1.5-0.4,3-0.6,4.5c0,0.1,0,0.1,0,0.2c0,0.2,0,0.2-0.2,0.1c-0.3,0-0.7-0.1-1-0.1
						c-0.2,0-0.2,0-0.2-0.2C493.8,389.6,493.9,388.7,494,387.9z"/>
					<path fill="#2C41A1" d="M515.5,415.6c-1.3,2.4-3.3,4-5.8,5c-1.2,0.5-2.4,0.7-3.7,0.7c-1.2,0-2.3-0.1-3.4-0.5
						c-2.3-0.8-3.9-2.3-4.8-4.5c-0.5-1.2-0.7-2.5-0.6-3.8c0.1-1.2,0.5-2.3,1.3-3.3c0.1-0.1,0.2-0.3,0.3-0.4c0.1-0.1,0.2-0.1,0.3-0.2
						c0.2-0.1,0.3,0,0.4,0.1c0.1,0.1,0.1,0.2,0.1,0.4c0.1,0.3,0.1,0.6,0.1,0.9c0,0.2,0,0.5,0.1,0.7c0.2,0.8,0.5,1.5,0.8,2.3
						c0.1,0.2,0.2,0.5,0.3,0.7c0.1,0.3,0.3,0.7,0.5,1c0.3,0.5,0.7,0.9,1.1,1.3c1.2,1.3,2.7,2.1,4.4,2.6c1.3,0.3,2.6,0.2,3.9-0.3
						c1.1-0.4,2.1-0.9,3.1-1.6c0.4-0.3,0.8-0.6,1.2-1C515.3,415.6,515.4,415.6,515.5,415.6C515.4,415.5,515.4,415.6,515.5,415.6z"/>
					<path fill="#079E42" d="M497,416.4c-0.2-0.2-0.4-0.5-0.5-0.8c-0.7-1.2-1-2.6-1.2-4c-0.1-1-0.1-2.1,0.1-3.1
						c0.5-2.5,1.7-4.6,3.6-6.2c1.4-1.1,3-1.7,4.7-1.7c1.9,0,3.6,0.6,5.1,1.7c0.8,0.6,1.5,1.4,1.9,2.4c0.1,0.2,0.1,0.4,0.2,0.5
						c0,0.1,0,0.2,0,0.2c0,0.2-0.1,0.3-0.3,0.3c-0.2,0-0.3,0-0.5-0.1c-0.2-0.1-0.4-0.1-0.6-0.2c-0.9-0.4-1.8-0.7-2.7-0.8
						c-1.1-0.1-2.2-0.1-3.2,0.1c-2,0.4-3.8,1.3-5.2,2.8c-0.7,0.7-1.2,1.6-1.5,2.5c-0.2,0.5-0.2,1-0.3,1.5c-0.1,0.9-0.1,1.9-0.1,2.8
						c0,0.6,0.1,1.3,0.4,1.9C497,416.3,497,416.4,497,416.4C497,416.4,497,416.4,497,416.4C497,416.4,497,416.4,497,416.4z"/>
					<path fill="#FF2D00" d="M505.4,399.9c1-0.1,2,0,3,0.3c1.2,0.3,2.3,0.7,3.3,1.4c2.5,1.6,4.1,3.9,4.8,6.8
						c0.2,0.9,0.2,1.9,0.1,2.9c-0.2,1-0.6,1.9-1.1,2.8c-1.1,1.6-2.5,2.7-4.3,3.4c-0.9,0.3-1.8,0.4-2.7,0.3c-0.2,0-0.4,0-0.6-0.1
						c-0.2-0.1-0.3-0.3-0.2-0.5c0.1-0.1,0.2-0.2,0.3-0.3c0.2-0.2,0.4-0.3,0.6-0.4c0.6-0.4,1.1-0.8,1.5-1.3c0.9-1,1.6-2.1,2.1-3.4
						c0.7-2.1,0.8-4.3-0.1-6.4c-0.4-1.1-1.2-2.1-2.1-2.8c-1.1-0.8-2.2-1.5-3.4-2C506.2,400.1,505.8,400,505.4,399.9
						C505.4,399.9,505.4,399.9,505.4,399.9z"/>
					<path fill="#D8CF9B" d="M504.4,422.9c0.1,0,0.1,0.1,0.1,0.2c0.2,0.5,0.4,1.1,0.6,1.6c0,0,0,0,0,0.1c-0.3,0.3-0.6,0.6-0.9,0.9
						c0.1,0.1,0.2,0,0.2,0c0.7-0.1,1.4-0.2,2.1-0.3c0.2,0,0.3-0.1,0.5,0c-0.1,0.1-0.2,0.2-0.3,0.3c-0.4,0.3-0.7,0.6-1.1,0.9
						c-0.4-0.3-0.9-0.5-1.3-0.8c0,0,0,0-0.1,0c0,0.1,0,0.1,0.1,0.2c0.3,0.7,0.7,1.4,1,2.1c0.1,0.1,0.2,0.3,0.2,0.4
						c-0.1,0-0.1-0.1-0.2-0.1c-0.5-0.3-1-0.6-1.5-0.9c0.1-0.6,0.2-1.1,0.3-1.7c-0.1,0-0.1,0-0.1,0.1c-0.6,0.7-1.3,1.4-1.9,2.1
						c0,0-0.1,0.1-0.1,0.1c-0.1,0,0-0.1,0-0.1c0.2-0.6,0.4-1.3,0.5-1.9c0.5-0.2,1.1-0.3,1.6-0.4c0-0.1-0.1-0.1-0.2-0.1
						c-0.6-0.2-1.2-0.5-1.8-0.7c-0.3-0.1-0.5-0.2-0.8-0.3c0.2-0.1,0.3,0,0.5,0c0.5,0,1.1,0,1.6,0c0.2,0.3,0.7,0.9,0.8,1c0,0,0,0,0,0
						c0.1-0.5,0.1-1.1,0.2-1.6C504.3,423.6,504.4,423.3,504.4,422.9z"/>
					<path fill="#D8CF9B" d="M503.4,431.3c0,0,0.1,0.1,0.1,0.1c0.2,0.6,0.4,1.1,0.6,1.7c0,0,0,0.1,0,0.1c-0.1,0.2-0.3,0.3-0.4,0.4
						c-0.2,0.2-0.3,0.3-0.5,0.5c0,0,0,0,0,0c0,0,0,0,0,0c0.1,0,0.2,0,0.3,0c0.8-0.1,1.5-0.2,2.3-0.3c0.1,0,0.2,0,0.2,0
						c0,0,0,0.1-0.1,0.1c-0.4,0.4-0.9,0.7-1.3,1.1c0,0,0,0-0.1,0c-0.5-0.3-0.9-0.5-1.4-0.8c0,0.1,0,0.2,0.1,0.2
						c0.4,0.8,0.8,1.6,1.1,2.3c0,0.1,0.1,0.1,0.1,0.2c-0.2-0.1-0.4-0.2-0.5-0.3c-0.4-0.2-0.7-0.5-1.1-0.7c0.1-0.6,0.2-1.1,0.3-1.7
						c-0.1,0-0.1,0-0.1,0.1c-0.6,0.7-1.2,1.4-1.9,2.1c0,0-0.1,0.1-0.1,0.1l0,0c0,0,0,0-0.1,0.1c-0.1,0,0-0.1,0-0.2
						c0.1-0.4,0.2-0.8,0.3-1.2c0.1-0.2,0.1-0.4,0.1-0.7c0.1,0,0.1,0,0.2,0c0.5-0.1,0.9-0.2,1.4-0.4c0,0,0.1,0,0.1-0.1
						c-0.1,0-0.1-0.1-0.2-0.1c-0.8-0.3-1.5-0.6-2.3-0.9c-0.1,0-0.2,0-0.2-0.1c0.2-0.1,0.4,0,0.6,0c0.5,0,0.9,0,1.4,0.1
						c0.1,0.2,0.3,0.3,0.4,0.5c0.1,0.2,0.2,0.3,0.4,0.5c0,0,0.1-0.1,0.1-0.1c0.1-0.5,0.1-1.1,0.2-1.6
						C503.3,432,503.3,431.6,503.4,431.3z"/>
					<path fill="#D9902A" d="M508,411.1c0,0.2-0.1,0.4-0.1,0.6c0,0.1,0,0.2-0.1,0.2c-0.6,0.4-1.2,0.5-1.9,0.2
						c-0.4-0.2-0.6-0.4-0.7-0.8c-0.3-0.8-0.2-1.5,0.2-2.2c0.5-0.7,1.4-0.9,2.1-0.5c0.3,0.2,0.5,0.5,0.5,0.9c0,0.1,0,0.1-0.1,0.1
						c-0.2,0-0.3,0-0.5,0c0,0-0.1,0-0.1-0.1c0,0,0,0,0-0.1c-0.2-0.6-0.9-0.7-1.3-0.4c-0.1,0.1-0.2,0.2-0.2,0.3
						c-0.2,0.4-0.2,0.9-0.1,1.3c0.1,0.3,0.3,0.6,0.6,0.7c0.3,0.1,0.6,0,0.8-0.2c0.1,0,0.1-0.1,0.1-0.2c0-0.4,0.1-0.3-0.3-0.4
						c-0.1,0-0.3,0-0.4-0.1c-0.1-0.1,0-0.3,0-0.4c0-0.2,0-0.2,0.2-0.2c0.3,0,0.7,0.1,1,0.1c0.2,0,0.2,0,0.2,0.2
						C508,410.8,508,410.9,508,411.1z"/>
					<path fill="#D9902A" d="M508.6,410.6c0-0.4,0.1-0.7,0.3-1c0.3-0.4,0.6-0.7,1.1-0.8c0.7-0.1,1.3,0.4,1.4,1.1
						c0,0.2,0,0.2-0.1,0.2c-0.1,0-0.1,0-0.2,0c-0.1,0-0.2,0.1-0.3,0c-0.1,0-0.1-0.2-0.1-0.3c-0.2-0.4-0.7-0.6-1-0.3
						c-0.1,0.1-0.2,0.2-0.3,0.4c-0.2,0.4-0.2,0.9-0.2,1.4c0,0.2,0.1,0.4,0.4,0.6c0.3,0.2,0.6,0.1,0.8-0.2c0.1-0.1,0.2-0.2,0.2-0.4
						c0-0.1,0.1-0.1,0.1-0.1c0.1,0.1,0.3,0.1,0.4,0.2c0.1,0,0.1,0.1,0.1,0.1c-0.2,0.5-0.5,0.9-1,0.9c-0.5,0.1-1-0.1-1.3-0.5
						c-0.3-0.4-0.3-0.8-0.3-1.3C508.5,410.7,508.5,410.7,508.6,410.6z"/>
					<path fill="#D9902A" d="M501.3,409.7c0.1-0.6,0.1-1.1,0.2-1.7c0-0.2,0-0.2,0.2-0.2c0.6,0.1,1.2,0.1,1.8,0.2
						c0.2,0,0.2,0,0.2,0.2c0,0.1,0,0.2,0,0.3c0,0.1-0.1,0.1-0.2,0.1c-0.4-0.1-0.8-0.1-1.1-0.1c-0.1,0-0.1,0-0.2,0
						c-0.1,0-0.1,0-0.1,0.1c0,0.2-0.1,0.4-0.1,0.6c0,0.1,0,0.1,0.1,0.1c0.3,0,0.6,0.1,0.9,0.1c0.1,0,0.1,0,0.2,0
						c0.1,0,0.1,0.1,0.1,0.1c0,0.1,0,0.2,0,0.4c0,0.1-0.1,0.1-0.2,0.1c-0.3,0-0.6-0.1-1-0.1c-0.2,0-0.2,0-0.2,0.2
						c-0.1,0.4-0.1,0.8-0.1,1.2c0,0.2,0,0.2-0.2,0.2c-0.1,0-0.2,0-0.3,0c-0.1,0-0.2,0-0.1-0.2c0.1-0.4,0.1-0.9,0.2-1.3
						C501.2,409.9,501.2,409.8,501.3,409.7z"/>
					<path fill="#D9902A" d="M504.6,410.1c-0.1,0.6-0.1,1.1-0.2,1.7c0,0.2,0,0.2-0.2,0.2c-0.1,0-0.2,0-0.3,0c-0.1,0-0.1-0.1-0.1-0.1
						c0,0,0-0.1,0-0.1c0.1-1.1,0.3-2.1,0.4-3.2c0-0.1,0-0.1,0-0.2c0-0.1,0-0.1,0.1-0.1c0.2,0,0.4,0,0.5,0.1c0.1,0.1,0,0.3,0,0.4
						C504.7,409.1,504.7,409.6,504.6,410.1z"/>
					<path fill="#D9902A" d="M500.3,433c0.1,0.1,0.1,0.1,0.2,0.1c0.8,0.3,1.5,0.6,2.3,0.9c0.1,0,0.1,0.1,0.2,0.1
						c0,0.1,0,0.1-0.1,0.1c-0.5,0.1-0.9,0.2-1.4,0.4c0,0-0.1,0-0.2,0c-0.4-0.4-0.7-0.9-1.1-1.3C500.3,433.1,500.3,433.1,500.3,433
						C500.2,433,500.3,433,500.3,433z"/>
					<path fill="#D9902A" d="M502,428.2c0-0.1,0.1-0.1,0.1-0.1c0.6-0.7,1.3-1.4,1.9-2.1c0,0,0-0.1,0.1-0.1c0,0.6-0.2,1.1-0.3,1.7
						C503.2,427.7,502.6,428,502,428.2z"/>
					<path fill="#D9902A" d="M501,436.5c0-0.1,0-0.1,0.1-0.1c0.6-0.7,1.2-1.4,1.9-2.1c0,0,0-0.1,0.1-0.1c0,0.6-0.2,1.1-0.3,1.7
						c-0.5,0.2-1.1,0.4-1.6,0.6C501.1,436.5,501.1,436.6,501,436.5z"/>
					<path fill="#D9902A" d="M501.3,424.6c0.3,0.1,0.6,0.2,0.8,0.3c0.6,0.2,1.2,0.5,1.8,0.7c0.1,0,0.1,0,0.2,0.1
						c-0.5,0.2-1.1,0.3-1.6,0.4C502.1,425.7,501.7,425.2,501.3,424.6C501.3,424.7,501.3,424.6,501.3,424.6z"/>
					<path fill="#D9902A" d="M504.5,437c0-0.1,0-0.2-0.1-0.2c-0.4-0.8-0.8-1.6-1.1-2.3c0-0.1-0.1-0.1-0.1-0.2
						c0.5,0.3,0.9,0.5,1.4,0.8c0,0.6,0,1.3,0,1.9C504.5,436.9,504.6,437,504.5,437z"/>
					<path fill="#D9902A" d="M505.5,428.6c0-0.2-0.1-0.3-0.2-0.4c-0.3-0.7-0.7-1.4-1-2.1c0-0.1-0.1-0.1-0.1-0.2c0,0,0.1,0,0.1,0
						c0.4,0.3,0.9,0.5,1.3,0.8C505.6,427.3,505.6,427.9,505.5,428.6C505.6,428.6,505.5,428.6,505.5,428.6
						C505.5,428.6,505.5,428.6,505.5,428.6z"/>
					<path fill="#D9902A" d="M503.4,431.3c-0.1,0.3-0.1,0.7-0.1,1c0,0.6-0.1,1.1-0.2,1.6c0,0,0,0.1-0.1,0.1
						c-0.2-0.1-0.3-0.3-0.4-0.5c-0.1-0.2-0.3-0.3-0.4-0.5c0.3-0.6,0.7-1.1,1-1.7C503.3,431.3,503.3,431.2,503.4,431.3z"/>
					<path fill="#D9902A" d="M504.4,422.9c-0.1,0.3-0.1,0.7-0.1,1c0,0.6-0.1,1.1-0.2,1.6c0,0,0,0,0,0c-0.1-0.1-0.6-0.6-0.8-1
						C503.7,424.1,504,423.5,504.4,422.9C504.4,422.9,504.4,422.9,504.4,422.9C504.4,422.9,504.4,422.9,504.4,422.9z"/>
					<path fill="#D9902A" d="M507,425.3c-0.2,0-0.3,0-0.5,0c-0.7,0.1-1.4,0.2-2.1,0.3c-0.1,0-0.1,0-0.2,0c0.3-0.3,0.6-0.6,0.9-0.9
						c0.6,0.2,1.2,0.3,1.8,0.5C507,425.3,507,425.3,507,425.3C507.1,425.3,507.1,425.3,507,425.3C507.1,425.3,507,425.3,507,425.3z"
						/>
					<path fill="#D9902A" d="M506,433.7c-0.1,0-0.2,0-0.2,0c-0.8,0.1-1.5,0.2-2.3,0.3c-0.1,0-0.2,0-0.3,0l0,0
						c0.1-0.2,0.3-0.3,0.5-0.5c0.1-0.1,0.3-0.3,0.4-0.4C504.7,433.3,505.4,433.5,506,433.7C506,433.7,506,433.7,506,433.7L506,433.7
						z"/>
					<path fill="#D8CF9B" d="M515.5,415.6C515.4,415.6,515.4,415.5,515.5,415.6c0-0.1,0-0.2,0.1-0.3
						C515.5,415.4,515.5,415.5,515.5,415.6z"/>
					<path fill="#D9902A" d="M505.4,399.9C505.4,399.9,505.4,399.9,505.4,399.9c-0.1,0.1-0.1,0.1-0.2,0
						C505.2,399.9,505.3,399.9,505.4,399.9z"/>
					<path fill="#D8CF9B" d="M506,433.7C506,433.7,506,433.7,506,433.7C506,433.7,506.1,433.6,506,433.7
						C506.1,433.7,506,433.7,506,433.7z"/>
					<path fill="#D9902A" d="M500.9,436.6C501,436.5,501,436.5,500.9,436.6C501,436.6,501,436.6,500.9,436.6z"/>
					<path fill="#D8CF9B" d="M505.5,428.6C505.5,428.6,505.6,428.6,505.5,428.6C505.6,428.6,505.6,428.6,505.5,428.6z"/>
					<path fill="#D8CF9B" d="M504.4,422.9C504.4,422.9,504.4,422.9,504.4,422.9C504.4,422.9,504.4,422.8,504.4,422.9z"/>
					<path fill="#D8CF9B" d="M497,416.4C497,416.4,497,416.4,497,416.4C497,416.4,497,416.4,497,416.4
						C497,416.4,497,416.4,497,416.4C497,416.4,497,416.4,497,416.4z"/>
					<path fill="#D8CF9B" d="M491.3,421.3C491.3,421.2,491.4,421.2,491.3,421.3c0.1,0,0.1,0.1,0.1,0.2c0.2,0.6,0.4,1.2,0.7,1.8
						c-0.3,0.3-0.6,0.6-1,0.9c0.1,0,0.2,0,0.3,0c0.8-0.1,1.7-0.2,2.5-0.3c0,0.1-0.1,0.1-0.1,0.1c-0.5,0.4-0.9,0.8-1.4,1.1
						c-0.5-0.3-0.9-0.5-1.4-0.8c0,0.1,0,0.2,0.1,0.2c0.4,0.8,0.8,1.5,1.1,2.3c0,0.1,0.1,0.2,0.1,0.3c-0.1,0-0.1-0.1-0.2-0.1
						c-0.5-0.3-1-0.6-1.5-0.9c0.1-0.6,0.2-1.1,0.3-1.7c-0.1,0-0.1,0.1-0.2,0.1c-0.6,0.7-1.2,1.3-1.8,2c0,0-0.1,0.1-0.1,0.2l0,0
						c0,0,0,0-0.1,0c0-0.1,0-0.3,0.1-0.4c0.1-0.5,0.3-1.1,0.4-1.6c0.3-0.1,0.5-0.1,0.8-0.2c0.3-0.1,0.5-0.1,0.8-0.2
						c-0.1-0.1-0.2-0.1-0.3-0.1c-0.4-0.2-0.9-0.3-1.3-0.5c-0.4-0.2-0.8-0.3-1.3-0.5c0.2-0.1,0.3,0,0.5,0c0.5,0,1.1,0,1.6,0.1
						c0.1,0.2,0.3,0.3,0.4,0.5c0.1,0.2,0.2,0.3,0.4,0.5c0.1,0,0.1-0.1,0.1-0.1c0-0.7,0.2-1.5,0.2-2.2
						C491.3,421.6,491.3,421.4,491.3,421.3z"/>
					<path fill="#D9902A" d="M488.9,426.5c0-0.1,0.1-0.1,0.1-0.2c0.6-0.7,1.2-1.3,1.8-2c0-0.1,0.1-0.1,0.2-0.1
						c-0.1,0.6-0.2,1.1-0.3,1.7c-0.6,0.2-1.1,0.4-1.7,0.6C489,426.5,489,426.5,488.9,426.5z"/>
					<path fill="#D9902A" d="M488.2,423c0.4,0.2,0.8,0.3,1.3,0.5c0.4,0.2,0.9,0.3,1.3,0.5c0.1,0,0.2,0,0.3,0.1
						c-0.3,0.1-0.5,0.1-0.8,0.2c-0.3,0.1-0.5,0.1-0.8,0.2c-0.4-0.5-0.8-1-1.2-1.5C488.2,423.1,488.2,423,488.2,423z"/>
					<path fill="#D9902A" d="M492.4,427c0-0.1-0.1-0.2-0.1-0.3c-0.4-0.8-0.8-1.5-1.1-2.3c0-0.1-0.1-0.1-0.1-0.2
						c0.5,0.3,0.9,0.5,1.4,0.8c0,0.5,0,1.1,0,1.6C492.5,426.7,492.5,426.9,492.4,427C492.5,427,492.5,427,492.4,427L492.4,427z"/>
					<path fill="#D9902A" d="M491.3,421.3c0,0.2,0,0.3,0,0.5c-0.1,0.7-0.2,1.5-0.2,2.2c0,0,0,0.1-0.1,0.1c-0.1-0.1-0.3-0.3-0.4-0.5
						c-0.1-0.2-0.3-0.3-0.4-0.5c0.3-0.6,0.7-1.1,1-1.7C491.3,421.3,491.3,421.3,491.3,421.3z"/>
					<path fill="#D9902A" d="M494,423.7c-0.8,0.1-1.7,0.2-2.5,0.3c-0.1,0-0.2,0-0.3,0c0.3-0.3,0.6-0.6,1-0.9
						c0.6,0.2,1.2,0.3,1.8,0.5C493.9,423.7,494,423.7,494,423.7z"/>
					<path fill="#D8CF9B" d="M492.4,427C492.5,427,492.5,427,492.4,427C492.5,427,492.5,427,492.4,427
						C492.4,427,492.4,427,492.4,427z"/>
					<path fill="#D9902A" d="M488.9,426.6C488.9,426.5,488.9,426.5,488.9,426.6C488.9,426.6,488.9,426.6,488.9,426.6z"/>
					<path fill="#D8CF9B" d="M517.6,424.5c0.2,0.6,0.5,1.3,0.7,1.9c-0.3,0.3-0.6,0.6-0.9,0.9c0.1,0,0.2,0,0.3,0
						c0.7-0.1,1.5-0.2,2.2-0.3c0.1,0,0.2,0,0.3,0c-0.3,0.3-0.6,0.5-0.9,0.8c-0.2,0.2-0.4,0.3-0.6,0.5c-0.1,0-0.2-0.1-0.3-0.1
						c-0.3-0.2-0.6-0.4-0.9-0.6c-0.1,0-0.1-0.1-0.2-0.1c0,0.1,0,0.2,0.1,0.2c0.4,0.7,0.7,1.4,1.1,2.2c0.1,0.1,0.1,0.2,0.2,0.4
						c-0.6-0.4-1.1-0.7-1.7-1.1c0.1-0.6,0.2-1.1,0.3-1.7c-0.1,0-0.1,0.1-0.2,0.1c-0.5,0.6-1,1.1-1.5,1.7c-0.1,0.2-0.3,0.3-0.4,0.5
						c0,0,0,0,0,0c0,0,0,0-0.1,0c0.2-0.6,0.3-1.1,0.5-1.7c0-0.1,0-0.2,0.1-0.3c0.5-0.1,1-0.3,1.6-0.4c-0.1-0.1-0.2-0.1-0.2-0.2
						c-0.6-0.2-1.3-0.5-1.9-0.7c-0.2-0.1-0.4-0.2-0.6-0.2l0,0c0,0,0,0,0,0c0.7,0,1.4,0,2.1,0.1c0.1,0.3,0.7,0.9,0.8,1
						c0-0.1,0-0.2,0-0.2c0.1-0.8,0.2-1.5,0.2-2.3C517.5,424.7,517.5,424.6,517.6,424.5z"/>
					<path fill="#D9902A" d="M515.1,429.8c0.1-0.2,0.3-0.3,0.4-0.5c0.5-0.6,1-1.1,1.5-1.7c0-0.1,0.1-0.1,0.2-0.1
						c-0.1,0.6-0.2,1.1-0.3,1.7c-0.5,0.2-1.1,0.4-1.6,0.6C515.2,429.7,515.2,429.8,515.1,429.8z"/>
					<path fill="#D9902A" d="M514.4,426.2c0.2,0.1,0.4,0.2,0.6,0.2c0.6,0.2,1.3,0.5,1.9,0.7c0.1,0,0.2,0,0.2,0.2
						c-0.5,0.2-1.1,0.3-1.6,0.4c-0.4-0.5-0.8-1-1.2-1.5C514.4,426.3,514.4,426.3,514.4,426.2z"/>
					<path fill="#D9902A" d="M518.6,430.2c0-0.1-0.1-0.3-0.2-0.4c-0.4-0.7-0.7-1.4-1.1-2.2c0-0.1-0.1-0.1-0.1-0.2
						c0.1,0,0.1,0,0.2,0.1c0.3,0.2,0.6,0.4,0.9,0.6c0.1,0.1,0.2,0.1,0.3,0.1c0,0.4,0,0.7,0,1.1C518.7,429.6,518.7,429.9,518.6,430.2
						C518.7,430.2,518.6,430.2,518.6,430.2z"/>
					<path fill="#D9902A" d="M517.6,424.5c-0.1,0.1-0.1,0.2-0.1,0.2c-0.1,0.8-0.2,1.5-0.2,2.3c0,0.1,0,0.2,0,0.2
						c-0.1-0.1-0.7-0.7-0.8-1c0.1-0.2,0.2-0.4,0.3-0.6c0.2-0.4,0.5-0.8,0.7-1.1C517.5,424.4,517.5,424.4,517.6,424.5z"/>
					<path fill="#D9902A" d="M520.2,426.9c-0.1,0-0.2,0-0.3,0c-0.7,0.1-1.5,0.2-2.2,0.3c-0.1,0-0.2,0-0.3,0c0.3-0.3,0.6-0.6,0.9-0.9
						c0.4,0.1,0.8,0.2,1.1,0.3c0.2,0.1,0.4,0.1,0.7,0.2C520.1,426.9,520.2,426.9,520.2,426.9z"/>
					<path fill="#D9902A" d="M515,429.8C515,429.8,515.1,429.8,515,429.8C515.1,429.8,515,429.8,515,429.8
						C515,429.8,515,429.8,515,429.8z"/>
					<path fill="#D9902A" d="M514.4,426.2C514.4,426.2,514.4,426.2,514.4,426.2C514.3,426.2,514.3,426.2,514.4,426.2
						C514.3,426.2,514.4,426.2,514.4,426.2z"/>
					<path fill="#2C41A1" d="M519.8,391.9c0.3-0.6,0.6-1.1,0.8-1.6c0.1,0,0.1,0.1,0.1,0.1c0.1,0.5,0.2,1,0.3,1.4
						c0,0.2,0,0.2-0.1,0.2C520.5,392,520.2,391.9,519.8,391.9z"/>
					<path fill="#2C41A1" d="M504.2,390c0.3-0.6,0.6-1.1,0.8-1.6c0,0,0,0,0,0c0.1,0.6,0.2,1.2,0.3,1.8
						C505,390.1,504.6,390,504.2,390z"/>
					<path fill="#D9902A" d="M503.2,434.1C503.2,434.1,503.2,434.1,503.2,434.1C503.2,434.1,503.2,434.1,503.2,434.1L503.2,434.1z"
						/>
				</g>
				<path fill="#36221C" d="M441.3,261c1.2-9.5-9.3-18.3-24.4-9.8s-30,3.1-26.1-8.8c0,0-12.5,20,14.9,28.2
					C428.4,277.4,440.3,268.9,441.3,261z"/>
				<path fill="#36221C" d="M438,260.6c1.2-9.5,13.5-15.5,26-3.6c12.5,11.9,28.3,10.3,27.5-2.2c0,0,7.2,22.5-21.3,23.8
					C446.4,279.6,437,268.5,438,260.6z"/>
				<path fill="#36221C" d="M370.8,213.1l-6.1,52.8c0,0,7.4,4.9,9.1-6.1c1.8-11,4.9-46.6,13-46.8c8-0.2,41.1-43.2,9.9-44.4
					C364,167.5,370.8,213.1,370.8,213.1z"/>
				<path fill="#36221C" d="M398.7,194.1c0,0,34.1,12.8,64.4,6.7c20-4,44.5-4.4,49.2-29.1c0,0-17.6,12.2-29.5-0.8
					c-20.3-22.3-82.5-34.6-89,1.8L398.7,194.1z"/>
				<path fill="#36221C" d="M476.2,194.9c0,0,2.3,23.1,13.2,32.4c0,0,13.3-23.2-8.3-36.6L476.2,194.9z"/>
				<path fill="#DF5142" d="M363.6,280.4c0,0,14.2,0.4,16,8c0.9,3.9-4.1,8.2-4.1,8.2s6.8,2.4,6.3,8.2c-0.5,5-7.3,4.5-7.3,4.5
					s7.3,3.1,4.2,10.2c-1.8,4.1-9.8,3-11.1,2.8c0,0,4.8,3.6,4,9.2c-1.1,8.2-14.6,2.7-14.6,2.7L363.6,280.4z"/>
				<path opacity="0.1" d="M291.6,540.6l1.6,18c0,0,39.7,20.6,83.6,10.1S517,521,495.9,496.2S416.5,567.1,291.6,540.6z"/>
				<g>
					<path fill="#EFB789" d="M474.6,482.5c-7.6,4.8-15.5,9.1-23.4,13.3c-8.2,4.3-16.4,8.3-24.9,12.1c-1.2,0.5-2.4,1-3.5,1.5
						c-0.6,0.3-1.2,0.5-1.8,0.8c-1.9,0.8,3-1.2,1.1-0.4c-2.6,1.1-5.3,2.2-7.9,3.2c-5.1,2-10.3,3.9-15.6,5.6
						c-10.6,3.5-21.5,6.5-32.6,8.4c-1.4,0.2-2.7,0.4-4.1,0.7c-4,0.7,1.3-0.1-0.9,0.1c-2.7,0.2-5.4,0.6-8.1,0.8
						c-5.3,0.3-10.6,0.4-15.9,0c-1.3-0.1-2.6-0.2-3.9-0.3c-4-0.3,1.5,0.4-0.5-0.1c-2.4-0.6-4.9-0.9-7.4-1.5
						c-2.4-0.6-4.7-1.4-7.1-2.2c-1.3-0.4-4.7-2.3-0.5-0.1c-1.1-0.6-2.2-1-3.3-1.6c-2.2-1.1-4.3-2.4-6.3-3.8c-1-0.7-4.1-3.3-0.5-0.3
						c-1.1-0.9-2.2-1.8-3.2-2.8c-1.8-1.6-3.4-3.4-5.1-5.2c-0.7-0.8-3.2-4.4-0.6-0.7c-0.9-1.3-1.8-2.5-2.6-3.8
						c-1.8-2.8-3.3-5.7-4.7-8.6c-0.3-0.7-0.6-1.4-0.9-2.1c-0.9-2,1.3,3.6,0,0c-0.6-1.7-1.3-3.4-1.8-5.2c-1.2-3.7-2.2-7.5-3-11.4
						c-0.4-2.1-0.8-4.1-1.2-6.2c-0.2-1-0.3-1.9-0.5-2.9c0.4,2.4,0,0.2-0.1-1c-2.4-22.1-1.2-44.5,1.9-66.5
						c1.2-8.5-2.1-17.1-11.1-19.5c-7.4-2-18.3,2.5-19.5,11.1c-8.3,58.8-9.1,148,64.6,164c47.1,10.3,97.5-9.7,139-30.4
						c10.9-5.4,21.7-11.1,31.9-17.7C507.8,498.9,491.9,471.5,474.6,482.5L474.6,482.5z"/>
				</g>
				<path fill="#3A96EA" d="M296.7,329.9c0,0-40.5-2.3-52.5,77.2c0,0,25.7,34.1,55.3,18.6S296.7,329.9,296.7,329.9z"/>
				<path fill="#0BCECC" d="M244.2,407.2c0,0,16.4,25.2,40.1,22.8l-0.2-8.8c0,0-18.7,2.8-37.8-24.1L244.2,407.2z"/>
			</g>
			<g opacity="0.1">
				<path d="M118.8,386.8c28.7,11.6,59.4,19.5,89.7,25.5c60.1,11.9,124.8,16,184.1-2.3c35.7-11.1,68.5-30.8,93.3-59
					c5.7-6.4,6.3-16.1,0-22.5c-5.8-5.8-16.8-6.5-22.5,0c-40.5,46.1-99.5,61.8-158.7,62.1c-50.6,0.2-98.2-8.8-147.4-24
					c-10.1-3.1-20.3-6.4-30.1-10.4c-8-3.2-17.4,3.5-19.5,11.1C105.2,376.4,110.8,383.6,118.8,386.8L118.8,386.8z"/>
			</g>
			<g>
				<path fill="#EFB789" d="M112.4,382.1c28.7,11.6,59.4,19.5,89.7,25.5c60.1,11.9,124.8,16,184.1-2.3c35.7-11.1,68.5-30.8,93.3-59
					c5.7-6.4,6.3-16.1,0-22.5c-5.8-5.8-16.8-6.5-22.5,0c-40.5,46.1-99.5,61.8-158.7,62.1c-50.6,0.2-98.2-8.8-147.4-24
					c-10.1-3.1-20.3-6.4-30.1-10.4c-8-3.2-17.4,3.5-19.5,11.1C98.9,371.6,104.5,378.9,112.4,382.1L112.4,382.1z"/>
			</g>
			<path fill="#E8E8E4" d="M111.1,341.8c-8.3-2.8-36.9,18.7-10.4,38.9c0,0,41.4,26.2,81.1,28.6l7.5-45.2
				C189.3,364,130.9,348.4,111.1,341.8z"/>
			<path fill="#FFFFFF" d="M189.3,364c-0.8,0.4-7.9,47.2-7.9,47.2s-7.1-0.8-8.3-3.2l9.1-46.8L189.3,364z"/>
			<path opacity="0.1" d="M483.4,275.9l-6,46c0,0,3.2,1.2,3.6,3.6l6-50c0,0,12.2-6.1,4.5-20.7L483.4,275.9z"/>
			<polygon opacity="0.1" points="486.6,248.1 484.6,266 489,264 491,246.5 			"/>
			<path opacity="0.1" d="M536.4,460.8l15-71.6l14.3,67.2C565.7,456.5,551.1,465.7,536.4,460.8z"/>
			<g>
				<path fill="#31383B" d="M92.7,62c-0.1-0.2-0.1-0.4-0.2-0.6c-0.1-0.2-0.1-0.4-0.1-0.6c0-0.3-0.1-0.6-0.1-1c0-0.4,0-0.9,0-1.5
					v-4.7c0-1.4-0.2-2.4-0.7-2.9c-0.5-0.6-1.3-0.9-2.3-0.9h-1.6V62h-4.7V32.1H90c2.4,0,4.2,0.6,5.3,1.7c1.1,1.1,1.6,2.9,1.6,5.2v2.3
					c0,3.1-1,5.1-3.1,6.1c1.2,0.5,2,1.3,2.5,2.4c0.4,1.1,0.7,2.4,0.7,4v4.6c0,0.7,0,1.4,0.1,1.9c0.1,0.6,0.2,1.1,0.4,1.7H92.7z
					 M87.6,36.4v9.2h1.8c0.9,0,1.6-0.2,2.1-0.7c0.5-0.5,0.7-1.3,0.7-2.5v-2.9c0-1.1-0.2-1.9-0.6-2.3c-0.4-0.5-1-0.7-1.8-0.7H87.6z"
					/>
				<path fill="#31383B" d="M104.7,44.7h6.4v4.3h-6.4v8.7h8.1V62H100V32.1h12.8v4.3h-8.1V44.7z"/>
				<path fill="#31383B" d="M129.3,50.8v4c0,2.4-0.6,4.3-1.8,5.6c-1.2,1.3-2.9,1.9-5.2,1.9c-2.3,0-4-0.6-5.2-1.9
					c-1.2-1.3-1.8-3.2-1.8-5.6V39.3c0-2.4,0.6-4.3,1.8-5.6c1.2-1.3,2.9-1.9,5.2-1.9c2.3,0,4,0.6,5.2,1.9c1.2,1.3,1.8,3.2,1.8,5.6
					v2.9h-4.4V39c0-1.1-0.2-1.8-0.7-2.3c-0.4-0.4-1-0.7-1.8-0.7c-0.7,0-1.3,0.2-1.8,0.7c-0.4,0.4-0.7,1.2-0.7,2.3v16.1
					c0,1.1,0.2,1.8,0.7,2.3c0.4,0.4,1,0.6,1.8,0.6c0.7,0,1.3-0.2,1.8-0.6c0.4-0.4,0.7-1.2,0.7-2.3v-4.3H129.3z"/>
				<path fill="#31383B" d="M131.8,39.3c0-2.4,0.6-4.3,1.8-5.6c1.2-1.3,3-1.9,5.3-1.9c2.3,0,4.1,0.6,5.3,1.9
					c1.2,1.3,1.8,3.2,1.8,5.6v15.5c0,2.4-0.6,4.3-1.8,5.6c-1.2,1.3-3,1.9-5.3,1.9c-2.3,0-4.1-0.6-5.3-1.9c-1.2-1.3-1.8-3.2-1.8-5.6
					V39.3z M136.5,55.1c0,1.1,0.2,1.8,0.7,2.3c0.4,0.4,1,0.7,1.8,0.7c0.7,0,1.3-0.2,1.8-0.7c0.4-0.4,0.7-1.2,0.7-2.3V39
					c0-1.1-0.2-1.8-0.7-2.3c-0.4-0.4-1-0.7-1.8-0.7c-0.7,0-1.3,0.2-1.8,0.7c-0.4,0.4-0.7,1.2-0.7,2.3V55.1z"/>
				<path fill="#31383B" d="M159,53.3l3.2-21.2h6.5V62h-4.4V40.5L161.1,62h-4.4l-3.5-21.1V62h-4.1V32.1h6.5L159,53.3z"/>
				<path fill="#31383B" d="M176.9,44.7h6.4v4.3h-6.4v8.7h8.1V62h-12.8V32.1H185v4.3h-8.1V44.7z"/>
				<path fill="#31383B" d="M192.1,40.3V62h-4.2V32.1h5.9l4.8,17.9V32.1h4.2V62h-4.8L192.1,40.3z"/>
				<path fill="#31383B" d="M206.1,32.1h7.4c2.4,0,4.1,0.6,5.3,1.9c1.2,1.3,1.7,3.1,1.7,5.5v15.1c0,2.4-0.6,4.3-1.7,5.5
					c-1.2,1.3-2.9,1.9-5.3,1.9h-7.4V32.1z M210.8,36.4v21.3h2.6c0.7,0,1.3-0.2,1.7-0.6c0.4-0.4,0.6-1.2,0.6-2.3V39.3
					c0-1.1-0.2-1.8-0.6-2.3c-0.4-0.4-1-0.6-1.7-0.6H210.8z"/>
				<path fill="#31383B" d="M238.7,62h-4.7l-0.8-5.4h-5.8l-0.8,5.4h-4.3l4.8-29.9h6.9L238.7,62z M227.9,52.5h4.5l-2.3-15.1
					L227.9,52.5z"/>
				<path fill="#31383B" d="M250.8,53.3l3.2-21.2h6.5V62h-4.4V40.5L252.8,62h-4.4l-3.5-21.1V62h-4.1V32.1h6.5L250.8,53.3z"/>
				<path fill="#31383B" d="M263.5,39.3c0-2.4,0.6-4.3,1.8-5.6c1.2-1.3,3-1.9,5.3-1.9c2.3,0,4.1,0.6,5.3,1.9
					c1.2,1.3,1.8,3.2,1.8,5.6v15.5c0,2.4-0.6,4.3-1.8,5.6c-1.2,1.3-3,1.9-5.3,1.9c-2.3,0-4.1-0.6-5.3-1.9c-1.2-1.3-1.8-3.2-1.8-5.6
					V39.3z M268.2,55.1c0,1.1,0.2,1.8,0.7,2.3c0.4,0.4,1,0.7,1.8,0.7c0.7,0,1.3-0.2,1.8-0.7c0.4-0.4,0.7-1.2,0.7-2.3V39
					c0-1.1-0.2-1.8-0.7-2.3c-0.4-0.4-1-0.7-1.8-0.7c-0.7,0-1.3,0.2-1.8,0.7c-0.4,0.4-0.7,1.2-0.7,2.3V55.1z"/>
				<path fill="#31383B" d="M280.2,39.3c0-2.4,0.6-4.3,1.7-5.6c1.2-1.3,2.9-1.9,5.2-1.9c2.3,0,4,0.6,5.2,1.9
					c1.2,1.3,1.7,3.2,1.7,5.6v0.9h-4.4V39c0-1.1-0.2-1.8-0.6-2.3c-0.4-0.4-1-0.7-1.7-0.7c-0.7,0-1.3,0.2-1.7,0.7
					c-0.4,0.4-0.6,1.2-0.6,2.3c0,1,0.2,1.9,0.7,2.7c0.5,0.8,1,1.5,1.7,2.2c0.7,0.7,1.4,1.4,2.2,2.1c0.8,0.7,1.5,1.5,2.2,2.3
					c0.7,0.8,1.3,1.8,1.7,2.8c0.5,1.1,0.7,2.3,0.7,3.7c0,2.4-0.6,4.3-1.8,5.6c-1.2,1.3-2.9,1.9-5.2,1.9c-2.3,0-4-0.6-5.2-1.9
					c-1.2-1.3-1.8-3.2-1.8-5.6V53h4.4v2.1c0,1.1,0.2,1.8,0.7,2.3c0.4,0.4,1,0.6,1.8,0.6c0.7,0,1.3-0.2,1.8-0.6
					c0.4-0.4,0.7-1.2,0.7-2.3c0-1-0.2-1.9-0.7-2.7c-0.5-0.8-1-1.5-1.7-2.2c-0.7-0.7-1.4-1.4-2.2-2.1c-0.8-0.7-1.5-1.5-2.2-2.3
					c-0.7-0.8-1.3-1.8-1.7-2.8C280.4,41.9,280.2,40.7,280.2,39.3z"/>
				<path fill="#31383B" d="M307.9,32.1v23c0,1.1,0.2,1.8,0.7,2.3c0.4,0.4,1,0.6,1.8,0.6c0.7,0,1.3-0.2,1.8-0.6
					c0.4-0.4,0.7-1.2,0.7-2.3v-23h4.4v22.7c0,2.4-0.6,4.3-1.8,5.6c-1.2,1.3-2.9,1.9-5.2,1.9c-2.3,0-4-0.6-5.2-1.9
					c-1.2-1.3-1.8-3.2-1.8-5.6V32.1H307.9z"/>
				<path fill="#31383B" d="M324.5,40.3V62h-4.2V32.1h5.9L331,50V32.1h4.2V62h-4.8L324.5,40.3z"/>
				<path fill="#31383B" d="M352.3,32.1c2.4,0,4.2,0.6,5.3,1.7c1.1,1.1,1.6,2.9,1.6,5.2V40c0,1.5-0.2,2.8-0.7,3.8
					c-0.5,1-1.3,1.7-2.3,2.2c1.3,0.5,2.2,1.3,2.7,2.4c0.5,1.1,0.8,2.4,0.8,4v2.4c0,2.3-0.6,4.1-1.8,5.3c-1.2,1.2-3,1.8-5.3,1.8h-7.4
					V32.1H352.3z M349.9,36.4v7.9h1.8c0.9,0,1.6-0.2,2.1-0.7c0.5-0.5,0.7-1.3,0.7-2.5v-1.7c0-1.1-0.2-1.9-0.6-2.3
					c-0.4-0.5-1-0.7-1.8-0.7H349.9z M349.9,48.5v9.2h2.7c0.8,0,1.4-0.2,1.8-0.6c0.4-0.4,0.6-1.2,0.6-2.3v-2.6c0-1.4-0.2-2.3-0.7-2.9
					c-0.5-0.5-1.2-0.8-2.3-0.8H349.9z"/>
				<path fill="#31383B" d="M367,32.1v23c0,1.1,0.2,1.8,0.7,2.3c0.4,0.4,1,0.6,1.8,0.6c0.7,0,1.3-0.2,1.8-0.6
					c0.4-0.4,0.7-1.2,0.7-2.3v-23h4.4v22.7c0,2.4-0.6,4.3-1.8,5.6c-1.2,1.3-2.9,1.9-5.2,1.9c-2.3,0-4-0.6-5.2-1.9
					c-1.2-1.3-1.8-3.2-1.8-5.6V32.1H367z"/>
				<path fill="#31383B" d="M384.2,44.7h6.4v4.3h-6.4v8.7h8.1V62h-12.8V32.1h12.8v4.3h-8.1V44.7z"/>
				<path fill="#31383B" d="M399.4,40.3V62h-4.2V32.1h5.9l4.8,17.9V32.1h4.2V62h-4.8L399.4,40.3z"/>
				<path fill="#31383B" d="M424.7,44.7h6.4v4.3h-6.4v8.7h8.1V62H420V32.1h12.8v4.3h-8.1V44.7z"/>
				<path fill="#31383B" d="M439.9,40.3V62h-4.2V32.1h5.9l4.8,17.9V32.1h4.2V62h-4.8L439.9,40.3z"/>
				<path fill="#31383B" d="M452.7,57.7c0.3,0,0.5,0,0.8,0s0.6,0,0.8,0c0.7,0,1.4-0.2,1.9-0.6c0.5-0.4,0.8-1.1,0.8-2.3V32.1h4.7
					v22.4c0,1.5-0.2,2.7-0.6,3.7c-0.4,1-0.9,1.7-1.5,2.3c-0.6,0.6-1.3,0.9-2.2,1.2c-0.8,0.2-1.7,0.3-2.5,0.3c-0.4,0-0.8,0-1.2,0
					c-0.3,0-0.7,0-1.1-0.1V57.7z"/>
				<path fill="#31383B" d="M469.4,32.1v23c0,1.1,0.2,1.8,0.7,2.3c0.4,0.4,1,0.6,1.8,0.6c0.7,0,1.3-0.2,1.8-0.6
					c0.4-0.4,0.7-1.2,0.7-2.3v-23h4.4v22.7c0,2.4-0.6,4.3-1.8,5.6c-1.2,1.3-2.9,1.9-5.2,1.9c-2.3,0-4-0.6-5.2-1.9
					c-1.2-1.3-1.8-3.2-1.8-5.6V32.1H469.4z"/>
				<path fill="#31383B" d="M497,62h-4.7l-0.8-5.4h-5.8l-0.8,5.4h-4.3l4.8-29.9h6.9L497,62z M486.3,52.5h4.5l-2.3-15.1L486.3,52.5z"
					/>
				<path fill="#31383B" d="M506.2,45.3h6.6v9.5c0,2.4-0.6,4.3-1.8,5.6c-1.2,1.3-2.9,1.9-5.2,1.9c-2.3,0-4-0.6-5.2-1.9
					c-1.2-1.3-1.8-3.2-1.8-5.6V39.3c0-2.4,0.6-4.3,1.8-5.6c1.2-1.3,2.9-1.9,5.2-1.9c2.3,0,4,0.6,5.2,1.9c1.2,1.3,1.8,3.2,1.8,5.6
					v2.9h-4.4V39c0-1.1-0.2-1.8-0.7-2.3c-0.4-0.4-1-0.7-1.8-0.7c-0.7,0-1.3,0.2-1.8,0.7c-0.4,0.4-0.7,1.2-0.7,2.3v16.1
					c0,1.1,0.2,1.8,0.7,2.3c0.4,0.4,1,0.6,1.8,0.6c0.7,0,1.3-0.2,1.8-0.6c0.4-0.4,0.7-1.2,0.7-2.3v-5.5h-2.1V45.3z"/>
				<path fill="#31383B" d="M520.3,32.1v23c0,1.1,0.2,1.8,0.7,2.3c0.4,0.4,1,0.6,1.8,0.6c0.7,0,1.3-0.2,1.8-0.6
					c0.4-0.4,0.7-1.2,0.7-2.3v-23h4.4v22.7c0,2.4-0.6,4.3-1.8,5.6c-1.2,1.3-2.9,1.9-5.2,1.9s-4-0.6-5.2-1.9
					c-1.2-1.3-1.8-3.2-1.8-5.6V32.1H520.3z"/>
				<path fill="#31383B" d="M537.5,44.7h6.4v4.3h-6.4v8.7h8.1V62h-12.8V32.1h12.8v4.3h-8.1V44.7z"/>
				<path fill="#31383B" d="M42.5,83.3h4.7v25.6h7.7v4.3H42.5V83.3z"/>
				<path fill="#31383B" d="M61.5,83.3v23c0,1.1,0.2,1.8,0.7,2.3c0.4,0.4,1,0.6,1.8,0.6c0.7,0,1.3-0.2,1.8-0.6
					c0.4-0.4,0.7-1.2,0.7-2.3v-23h4.4V106c0,2.4-0.6,4.3-1.8,5.6c-1.2,1.3-2.9,1.9-5.2,1.9c-2.3,0-4-0.6-5.2-1.9
					c-1.2-1.3-1.8-3.2-1.8-5.6V83.3H61.5z"/>
				<path fill="#31383B" d="M78.7,95.9h6.4v4.3h-6.4v8.7h8.1v4.3H74V83.3h12.8v4.3h-8.1V95.9z"/>
				<path fill="#31383B" d="M96.7,96.5h6.6v9.5c0,2.4-0.6,4.3-1.8,5.6c-1.2,1.3-2.9,1.9-5.2,1.9c-2.3,0-4-0.6-5.2-1.9
					c-1.2-1.3-1.8-3.2-1.8-5.6V90.5c0-2.4,0.6-4.3,1.8-5.6c1.2-1.3,2.9-1.9,5.2-1.9c2.3,0,4,0.6,5.2,1.9c1.2,1.3,1.8,3.2,1.8,5.6
					v2.9h-4.4v-3.2c0-1.1-0.2-1.8-0.7-2.3c-0.4-0.4-1-0.7-1.8-0.7c-0.7,0-1.3,0.2-1.8,0.7c-0.4,0.4-0.7,1.2-0.7,2.3v16.1
					c0,1.1,0.2,1.8,0.7,2.3c0.4,0.4,1,0.6,1.8,0.6c0.7,0,1.3-0.2,1.8-0.6c0.4-0.4,0.7-1.2,0.7-2.3v-5.5h-2.1V96.5z"/>
				<path fill="#31383B" d="M105.9,90.5c0-2.4,0.6-4.3,1.8-5.6c1.2-1.3,3-1.9,5.3-1.9c2.3,0,4.1,0.6,5.3,1.9
					c1.2,1.3,1.8,3.2,1.8,5.6V106c0,2.4-0.6,4.3-1.8,5.6c-1.2,1.3-3,1.9-5.3,1.9c-2.3,0-4.1-0.6-5.3-1.9c-1.2-1.3-1.8-3.2-1.8-5.6
					V90.5z M110.6,106.3c0,1.1,0.2,1.8,0.7,2.3c0.4,0.4,1,0.7,1.8,0.7c0.7,0,1.3-0.2,1.8-0.7c0.4-0.4,0.7-1.2,0.7-2.3V90.2
					c0-1.1-0.2-1.8-0.7-2.3c-0.4-0.4-1-0.7-1.8-0.7c-0.7,0-1.3,0.2-1.8,0.7c-0.4,0.4-0.7,1.2-0.7,2.3V106.3z"/>
				<path fill="#31383B" d="M129.8,83.3h7.4c2.4,0,4.1,0.6,5.3,1.9c1.2,1.3,1.7,3.1,1.7,5.5v15.1c0,2.4-0.6,4.3-1.7,5.5
					c-1.2,1.3-2.9,1.9-5.3,1.9h-7.4V83.3z M134.5,87.6v21.3h2.6c0.7,0,1.3-0.2,1.7-0.6s0.6-1.2,0.6-2.3V90.5c0-1.1-0.2-1.8-0.6-2.3
					c-0.4-0.4-1-0.6-1.7-0.6H134.5z"/>
				<path fill="#31383B" d="M151.9,95.9h6.4v4.3h-6.4v8.7h8.1v4.3h-12.8V83.3H160v4.3h-8.1V95.9z"/>
				<path fill="#31383B" d="M169.5,83.3h7.4c2.4,0,4.1,0.6,5.3,1.9c1.2,1.3,1.7,3.1,1.7,5.5v15.1c0,2.4-0.6,4.3-1.7,5.5
					c-1.2,1.3-2.9,1.9-5.3,1.9h-7.4V83.3z M174.2,87.6v21.3h2.6c0.7,0,1.3-0.2,1.7-0.6s0.6-1.2,0.6-2.3V90.5c0-1.1-0.2-1.8-0.6-2.3
					c-0.4-0.4-1-0.6-1.7-0.6H174.2z"/>
				<path fill="#31383B" d="M202.1,113.2h-4.7l-0.8-5.4h-5.8l-0.8,5.4h-4.3l4.8-29.9h6.9L202.1,113.2z M191.4,103.7h4.5l-2.3-15.1
					L191.4,103.7z"/>
				<path fill="#31383B" d="M214.1,113.2c-0.1-0.2-0.1-0.4-0.2-0.6c-0.1-0.2-0.1-0.4-0.1-0.6c0-0.3-0.1-0.6-0.1-1c0-0.4,0-0.9,0-1.5
					v-4.7c0-1.4-0.2-2.4-0.7-2.9c-0.5-0.6-1.3-0.9-2.3-0.9H209v12.2h-4.7V83.3h7.1c2.4,0,4.2,0.6,5.3,1.7c1.1,1.1,1.6,2.9,1.6,5.2
					v2.3c0,3.1-1,5.1-3.1,6.1c1.2,0.5,2,1.3,2.5,2.4c0.4,1.1,0.7,2.4,0.7,4v4.6c0,0.7,0,1.4,0.1,1.9c0.1,0.6,0.2,1.1,0.4,1.7H214.1z
					 M209,87.6v9.2h1.8c0.9,0,1.6-0.2,2.1-0.7c0.5-0.5,0.7-1.3,0.7-2.5v-2.9c0-1.1-0.2-1.9-0.6-2.3c-0.4-0.5-1-0.7-1.8-0.7H209z"/>
				<path fill="#31383B" d="M221.4,83.3h4.7v25.6h7.7v4.3h-12.4V83.3z"/>
				<path fill="#31383B" d="M240.6,95.9h6.4v4.3h-6.4v8.7h8.1v4.3h-12.8V83.3h12.8v4.3h-8.1V95.9z"/>
				<path fill="#31383B" d="M262.7,83.3v23c0,1.1,0.2,1.8,0.7,2.3c0.4,0.4,1,0.6,1.8,0.6c0.7,0,1.3-0.2,1.8-0.6
					c0.4-0.4,0.7-1.2,0.7-2.3v-23h4.4V106c0,2.4-0.6,4.3-1.8,5.6c-1.2,1.3-2.9,1.9-5.2,1.9c-2.3,0-4-0.6-5.2-1.9
					c-1.2-1.3-1.8-3.2-1.8-5.6V83.3H262.7z"/>
				<path fill="#31383B" d="M279.4,91.5v21.6h-4.2V83.3h5.9l4.8,17.9V83.3h4.2v29.9h-4.8L279.4,91.5z"/>
				<path fill="#31383B" d="M307.1,83.3c2.4,0,4.2,0.6,5.3,1.7c1.1,1.1,1.6,2.9,1.6,5.2v1.1c0,1.5-0.2,2.8-0.7,3.8
					c-0.5,1-1.3,1.7-2.3,2.2c1.3,0.5,2.2,1.3,2.7,2.4c0.5,1.1,0.8,2.4,0.8,4v2.4c0,2.3-0.6,4.1-1.8,5.3c-1.2,1.2-3,1.8-5.3,1.8H300
					V83.3H307.1z M304.7,87.6v7.9h1.8c0.9,0,1.6-0.2,2.1-0.7c0.5-0.5,0.7-1.3,0.7-2.5v-1.7c0-1.1-0.2-1.9-0.6-2.3
					c-0.4-0.5-1-0.7-1.8-0.7H304.7z M304.7,99.7v9.2h2.7c0.8,0,1.4-0.2,1.8-0.6s0.6-1.2,0.6-2.3v-2.6c0-1.4-0.2-2.3-0.7-2.9
					c-0.5-0.5-1.2-0.8-2.3-0.8H304.7z"/>
				<path fill="#31383B" d="M317,90.5c0-2.4,0.6-4.3,1.8-5.6c1.2-1.3,3-1.9,5.3-1.9c2.3,0,4.1,0.6,5.3,1.9c1.2,1.3,1.8,3.2,1.8,5.6
					V106c0,2.4-0.6,4.3-1.8,5.6c-1.2,1.3-3,1.9-5.3,1.9c-2.3,0-4.1-0.6-5.3-1.9c-1.2-1.3-1.8-3.2-1.8-5.6V90.5z M321.6,106.3
					c0,1.1,0.2,1.8,0.7,2.3c0.4,0.4,1,0.7,1.8,0.7s1.3-0.2,1.8-0.7c0.4-0.4,0.7-1.2,0.7-2.3V90.2c0-1.1-0.2-1.8-0.7-2.3
					c-0.4-0.4-1-0.7-1.8-0.7s-1.3,0.2-1.8,0.7c-0.4,0.4-0.7,1.2-0.7,2.3V106.3z"/>
				<path fill="#31383B" d="M347.8,102v4c0,2.4-0.6,4.3-1.8,5.6c-1.2,1.3-2.9,1.9-5.2,1.9c-2.3,0-4-0.6-5.2-1.9
					c-1.2-1.3-1.8-3.2-1.8-5.6V90.5c0-2.4,0.6-4.3,1.8-5.6c1.2-1.3,2.9-1.9,5.2-1.9c2.3,0,4,0.6,5.2,1.9c1.2,1.3,1.8,3.2,1.8,5.6
					v2.9h-4.4v-3.2c0-1.1-0.2-1.8-0.7-2.3c-0.4-0.4-1-0.7-1.8-0.7c-0.7,0-1.3,0.2-1.8,0.7c-0.4,0.4-0.7,1.2-0.7,2.3v16.1
					c0,1.1,0.2,1.8,0.7,2.3c0.4,0.4,1,0.6,1.8,0.6c0.7,0,1.3-0.2,1.8-0.6c0.4-0.4,0.7-1.2,0.7-2.3V102H347.8z"/>
				<path fill="#31383B" d="M365.9,113.2h-4.7l-0.8-5.4h-5.8l-0.8,5.4h-4.3l4.8-29.9h6.9L365.9,113.2z M355.2,103.7h4.5l-2.3-15.1
					L355.2,103.7z"/>
				<path fill="#31383B" d="M368.1,83.3h7.4c2.4,0,4.1,0.6,5.3,1.9c1.2,1.3,1.7,3.1,1.7,5.5v15.1c0,2.4-0.6,4.3-1.7,5.5
					c-1.2,1.3-2.9,1.9-5.3,1.9h-7.4V83.3z M372.8,87.6v21.3h2.6c0.7,0,1.3-0.2,1.7-0.6c0.4-0.4,0.6-1.2,0.6-2.3V90.5
					c0-1.1-0.2-1.8-0.6-2.3c-0.4-0.4-1-0.6-1.7-0.6H372.8z"/>
				<path fill="#31383B" d="M385.1,90.5c0-2.4,0.6-4.3,1.8-5.6c1.2-1.3,3-1.9,5.3-1.9c2.3,0,4.1,0.6,5.3,1.9
					c1.2,1.3,1.8,3.2,1.8,5.6V106c0,2.4-0.6,4.3-1.8,5.6c-1.2,1.3-3,1.9-5.3,1.9c-2.3,0-4.1-0.6-5.3-1.9c-1.2-1.3-1.8-3.2-1.8-5.6
					V90.5z M389.8,106.3c0,1.1,0.2,1.8,0.7,2.3c0.4,0.4,1,0.7,1.8,0.7c0.7,0,1.3-0.2,1.8-0.7c0.4-0.4,0.7-1.2,0.7-2.3V90.2
					c0-1.1-0.2-1.8-0.7-2.3c-0.4-0.4-1-0.7-1.8-0.7c-0.7,0-1.3,0.2-1.8,0.7c-0.4,0.4-0.7,1.2-0.7,2.3V106.3z"/>
				<path fill="#31383B" d="M424.2,113.2h-4.7l-0.8-5.4h-5.8l-0.8,5.4h-4.3l4.8-29.9h6.9L424.2,113.2z M413.5,103.7h4.5l-2.3-15.1
					L413.5,103.7z"/>
				<path fill="#31383B" d="M437.4,83.3v23c0,1.1,0.2,1.8,0.7,2.3c0.4,0.4,1,0.6,1.8,0.6c0.7,0,1.3-0.2,1.8-0.6
					c0.4-0.4,0.7-1.2,0.7-2.3v-23h4.4V106c0,2.4-0.6,4.3-1.8,5.6c-1.2,1.3-2.9,1.9-5.2,1.9c-2.3,0-4-0.6-5.2-1.9
					c-1.2-1.3-1.8-3.2-1.8-5.6V83.3H437.4z"/>
				<path fill="#31383B" d="M454.1,91.5v21.6h-4.2V83.3h5.9l4.8,17.9V83.3h4.2v29.9H460L454.1,91.5z"/>
				<path fill="#31383B" d="M474.8,83.3h4.7v29.9h-4.7V83.3z"/>
				<path fill="#31383B" d="M481.5,83.3H496v4.3h-4.9v25.6h-4.7V87.6h-4.9V83.3z"/>
				<path fill="#31383B" d="M511.6,113.2h-4.7l-0.8-5.4h-5.8l-0.8,5.4h-4.3l4.8-29.9h6.9L511.6,113.2z M500.9,103.7h4.5l-2.3-15.1
					L500.9,103.7z"/>
				<path fill="#31383B" d="M513.8,83.3h4.7v25.6h7.7v4.3h-12.4V83.3z"/>
				<path fill="#31383B" d="M528.3,83.3h4.7v29.9h-4.7V83.3z"/>
				<path fill="#31383B" d="M551.6,113.2h-4.7l-0.8-5.4h-5.8l-0.8,5.4h-4.3l4.8-29.9h6.9L551.6,113.2z M540.9,103.7h4.5l-2.3-15.1
					L540.9,103.7z"/>
				<path fill="#31383B" d="M557.9,91.5v21.6h-4.2V83.3h5.9l4.8,17.9V83.3h4.2v29.9h-4.8L557.9,91.5z"/>
				<path fill="#31383B" d="M571.6,90.5c0-2.4,0.6-4.3,1.8-5.6c1.2-1.3,3-1.9,5.3-1.9s4.1,0.6,5.3,1.9c1.2,1.3,1.8,3.2,1.8,5.6V106
					c0,2.4-0.6,4.3-1.8,5.6c-1.2,1.3-3,1.9-5.3,1.9s-4.1-0.6-5.3-1.9c-1.2-1.3-1.8-3.2-1.8-5.6V90.5z M576.3,106.3
					c0,1.1,0.2,1.8,0.7,2.3c0.4,0.4,1,0.7,1.8,0.7s1.3-0.2,1.8-0.7c0.4-0.4,0.7-1.2,0.7-2.3V90.2c0-1.1-0.2-1.8-0.7-2.3
					c-0.4-0.4-1-0.7-1.8-0.7s-1.3,0.2-1.8,0.7c-0.4,0.4-0.7,1.2-0.7,2.3V106.3z"/>
			</g>
			<polygon fill="#FFFFFF" points="177.8,639.5 105.4,593.6 78.6,675.1 52.7,593.3 -20.2,638.6 12.4,559.3 -72.5,547.1 3.5,507.3 
				-53.7,443.4 30.1,461.8 27.3,376 79.7,444 132.7,376.5 129.1,462.3 213.1,444.6 155.3,508 230.9,548.5 145.9,559.9 			"/>
			<g>
				<rect x="67.9" y="438.8" fill="#0DACC0" width="28" height="17.1"/>
				<path fill="#0DACC0" d="M125,488.9v-23.2c0-1.1-0.1-2.2-0.5-3.1c-1.7-5-9.3-7.7-10.6-8.5c-0.2-0.1-0.3-0.2-0.6-0.3
					c-13.1-3.8-46-1.8-60-1c-8.4,0.5-10.5,4.7-13.3,7.7l-0.6,0.7c-0.6,0.6-1,1.5-0.9,2.3c-0.2,0.7-0.5,1.4-0.5,2.1v23.2
					c0,3.1,3,5.7,6,6.5v80.9c-3,0.8-6,3.4-6,6.5v31.2c0,3.7,3.4,6.2,7.1,6.2h73.6c3.7,0,6.3-2.5,6.3-6.2v-31.2c0-3.1-1-5.7-4-6.5
					v-80.9C124,494.5,125,491.9,125,488.9z"/>
				<path fill="#31383B" d="M99,441.6H64.8v-34.4c0,0,9-2.2,17.4-2.2c7.6,0,16.8,2.2,16.8,2.2V441.6z"/>
				<path fill="#F2F2F2" d="M104.3,575.7h-45c-5.9,0-10.7-4.8-10.7-10.7v-57.6c0-5.9,4.8-10.7,10.7-10.7h45
					c5.9,0,10.7,4.8,10.7,10.7V565C114.9,570.9,110.1,575.7,104.3,575.7z"/>
				<rect x="55.9" y="548.2" fill="#11AEE4" width="51.8" height="17.4"/>
				<rect x="64" y="500.3" fill="#EC6256" width="34.2" height="7.8"/>
				<rect x="55.6" y="513.2" fill="#534842" width="52.4" height="11.2"/>
				<path opacity="0.1" d="M59.5,465.1c0.4-9.7,11.6-9.6,11.6-9.6l1.6-50c-4.5,0.7-7.7,1.5-7.7,1.5V442h3v10
					c-6,0.3-10.9,0.6-14.6,0.8c-8.4,0.5-10.5,4.7-13.3,7.7l-0.7,0.7c-0.6,0.6-1,1.5-0.9,2.3c-0.2,0.7-0.5,1.4-0.5,2.1v23.2
					c0,3.1,3,5.7,6,6.5v80.9c-3,0.8-6,3.4-6,6.5v31.2c0,3.7,3.4,6.2,7.1,6.2h15.8C60.5,587,59.2,473.4,59.5,465.1z"/>
				<path opacity="0.1" fill="#FFFFFF" d="M110.6,467.7c-0.3,9.6,0.2,116.3,0.3,152.3h7.8c3.7,0,6.3-2.5,6.3-6.2v-31.2
					c0-3.1-1-5.7-4-6.5v-80.9c3-0.8,4-3.4,4-6.5v-23.2c0-1.1-0.1-2.2-0.5-3.1c-1.7-5-9.3-7.7-10.6-8.5c-0.2-0.1-0.3-0.2-0.5-0.3
					c-4.2-1.2-10.2-1.8-17.4-2.1V442h3v-34.9c0,0-3.9-0.9-8.7-1.6l0.6,51.1C90.9,456.7,111,456.2,110.6,467.7z"/>
			</g>
			<linearGradient id="SVGID_6_" gradientUnits="userSpaceOnUse" x1="502.6354" y1="518.6806" x2="502.6354" y2="584.4596">
				<stop  offset="0" style="stop-color:#FFFFFF"/>
				<stop  offset="0.6878" style="stop-color:#7CD7FF"/>
			</linearGradient>
			<path fill="url(#SVGID_6_)" stroke="#FFFFFF" stroke-width="5.3333" stroke-miterlimit="10" d="M584.5,584.5H391.9
				c-4.3,0-7.8-3.5-7.8-7.8l22.8-45.6c4.1-7.2,6.1-12.4,10.4-12.4h196c4.3,0,7.8,3.5,7.8,7.8l-21.1,42.1
				C594.9,579.5,588.8,584.5,584.5,584.5z"/>
			<polygon fill="#FFFFFF" points="259.5,274.5 257.7,273.4 257.1,275.5 256.4,273.5 254.7,274.6 255.4,272.7 253.3,272.5 
				255.2,271.4 253.7,269.9 255.8,270.3 255.6,268.2 257,269.8 258.2,268.1 258.2,270.2 260.2,269.7 258.9,271.3 260.8,272.2 
				258.7,272.6 			"/>
			<polygon fill="#FFFFFF" points="278.5,276 275.7,274.4 274.8,277.5 273.7,274.4 271.1,276.2 272.2,273.2 269,272.9 271.8,271.3 
				269.6,269 272.7,269.6 272.5,266.4 274.6,268.9 276.4,266.3 276.4,269.5 279.5,268.7 277.4,271.1 280.3,272.5 277.2,273.1 			"/>
			<polygon fill="#FBFFF6" points="266.9,297.6 263.3,295.5 262.2,299.5 260.8,295.5 257.3,297.9 258.8,294 254.6,293.5 
				258.3,291.5 255.4,288.5 259.5,289.2 259.2,285.1 261.8,288.3 264.3,284.9 264.3,289.1 268.3,288.1 265.6,291.2 269.3,293.1 
				265.2,293.8 			"/>
		</g>
	</g>
</g>
</svg>
