<?xml version="1.0" encoding="utf-8"?>
<!-- Generator: Adobe Illustrator 17.1.0, SVG Export Plug-In . SVG Version: 6.00 Build 0)  -->
<!DOCTYPE svg PUBLIC "-//W3C//DTD SVG 1.1//EN" "http://www.w3.org/Graphics/SVG/1.1/DTD/svg11.dtd">
<svg version="1.1" xmlns="http://www.w3.org/2000/svg" xmlns:xlink="http://www.w3.org/1999/xlink" x="0px" y="0px"
	 viewBox="0 0 720 720" enable-background="new 0 0 720 720" xml:space="preserve">
<g id="cabeza">
</g>
<g id="maleta" display="none">
	<path display="inline" fill="#A06C20" stroke="#603A08" stroke-width="5" stroke-miterlimit="10" d="M518.8,455.7l-1.4,51.4
		c-0.4,15.2-13,27.3-28.2,27.2l-120.1-1.4c-15.5-0.2-27.9-13-27.6-28.5l1-50.1c0.3-15.2,12.7-27.4,27.9-27.4l120.5,0
		C506.7,427,519.3,440,518.8,455.7z"/>
	<path display="inline" fill="#A06C20" stroke="#603A08" stroke-width="4" stroke-miterlimit="10" d="M385,426v-20.2
		c0-1.6,1.2-2.8,2.8-2.9l73.2-1.8c1.6,0,2.9,1.3,2.9,2.9v20.4c0,1.5,1.2,2.8,2.7,2.9l0.1,0c1.7,0.1,3.1-1.2,3.1-2.8l0.2-24.5
		c0-1.6-1.3-2.9-2.9-2.9H383h-2.1c-1.6,0-2.9,1.3-2.9,2.9V426"/>
</g>
<g id="Capa_5">
</g>
<g id="tronco">
</g>
<g id="Capa_6">
</g>
<g id="piernas">
	<g>
		<defs>
			<rect id="SVGID_1_" width="720" height="725"/>
		</defs>
		<clipPath id="SVGID_2_">
			<use xlink:href="#SVGID_1_"  overflow="visible"/>
		</clipPath>
		<g clip-path="url(#SVGID_2_)">
			<linearGradient id="SVGID_3_" gradientUnits="userSpaceOnUse" x1="360.3499" y1="727.572" x2="360.3499" y2="-11.891">
				<stop  offset="0" style="stop-color:#FFFFFF"/>
				<stop  offset="0.6878" style="stop-color:#7CD7FF"/>
			</linearGradient>
			<rect x="-8.6" y="-11.9" fill="url(#SVGID_3_)" width="737.8" height="739.5"/>
			<path fill="none" stroke="#FFFFFF" stroke-width="14" stroke-linecap="round" stroke-miterlimit="10" d="M79.1,397.2"/>
			<g>
				<path fill="#EFB789" d="M295.3,419.4c24.1,18.9,52.1,33.8,81.2,43.4c51.4,17,108.3,10.6,145.3-32
					c31.5-36.3,45.2-84.8,52.8-131.3c1.6-9.5-2.5-19.2-12.5-22c-8.5-2.3-20.4,2.9-22,12.5c-6.5,39.7-16.3,77.1-39,109.8
					c-2.2,3.2,0.2,0-1.6,2.2c-1,1.2-2,2.4-3,3.6c-2.3,2.6-4.7,5.2-7.2,7.6c-2.4,2.3-4.9,4.5-7.5,6.6c2.4-1.9,0.5-0.4-0.8,0.5
					c-1.5,1-2.9,2-4.4,3c-2.4,1.5-4.8,2.9-7.3,4.3c-1.3,0.7-2.7,1.3-4,2c-0.6,0.3-1.2,0.5-1.7,0.8c-2.2,1,3.1-1.2,0.8-0.3
					c-5.2,1.9-10.5,3.6-15.9,4.8c-1.4,0.3-2.8,0.5-4.2,0.8c-4.2,0.9,2.5-0.1-0.6,0.1c-2.8,0.2-5.6,0.5-8.4,0.6
					c-5.4,0.2-10.8,0.1-16.1-0.4c-1.4-0.1-2.8-0.3-4.1-0.4c-3.4-0.3,3.4,0.6,0,0c-2.7-0.5-5.5-0.9-8.2-1.5c-5.4-1.1-10.7-2.5-15.9-4
					c-4.9-1.5-9.8-3.2-14.6-5c-1.7-0.6-8.3-3.4-3.5-1.3c-2.3-1-4.6-2-6.9-3.1c-8.1-3.7-16-7.9-23.7-12.4
					c-6.2-3.6-12.3-7.5-18.2-11.6c-2.3-1.6-10.9-8.2-3.5-2.4c-7.6-6-17.9-7.4-25.3,0C289.1,400.3,287.7,413.4,295.3,419.4
					L295.3,419.4z"/>
			</g>
			<path fill="#E8E8E4" d="M398.9,408.2c0,0,16.7,18.5,35.7,13.7c0,0,22.6,23.8,6.5,62.5c0,0-35.1,8.9-50-9.5L398.9,408.2z"/>
			<path opacity="0.1" d="M421,421.7c-11-3.2-22.1-13.5-22.1-13.5l-7.7,66.7c7.3,9,19.8,11.5,29.8,11.7V421.7z"/>
			<polyline fill="#FFFFFF" points="275.4,355.3 271.9,318.5 296.4,352.1 			"/>
			<polyline fill="#FFFFFF" points="249.5,357.7 251.9,325.9 269.5,356.5 			"/>
			<path fill="#FFFFFF" d="M230,356.8c-0.3-0.9,3.5-21.8,3.5-21.8l13.3,24.5"/>
			<polyline fill="#FFFFFF" points="212.4,355.6 215.3,342.7 223.6,356.8 			"/>
			<polyline fill="#FFFFFF" points="268.9,282 280.1,314.7 281.3,284.9 			"/>
			<polyline fill="#FFFFFF" points="245.7,285.8 262.2,315.3 265.1,282.5 			"/>
			<polyline fill="#FFFFFF" points="225.6,294.3 240.1,322.3 241.5,287.9 			"/>
			<polyline fill="#FFFFFF" points="213.8,311.4 225.9,327.9 223.3,298.8 			"/>
			<polyline fill="#FFFFFF" points="208.7,328.9 219.5,334.3 212.4,317 			"/>
			<defs>
				<filter id="Adobe_OpacityMaskFilter" filterUnits="userSpaceOnUse" x="132.5" y="225.7" width="198.5" height="235.4">
					<feFlood  style="flood-color:white;flood-opacity:1" result="back"/>
					<feBlend  in="SourceGraphic" in2="back" mode="normal"/>
				</filter>
			</defs>
			<mask maskUnits="userSpaceOnUse" x="132.5" y="225.7" width="198.5" height="235.4" id="SVGID_4_">
				<g filter="url(#Adobe_OpacityMaskFilter)">
					<path d="M281.4,285.6c0,0-64.2-10.8-71.9,48.7l-2.3,17.8c0,0,67.3,9.3,95.9-8.5c28.6-17.8,17.8-9.3,17.8-9.3L281.4,285.6z"/>
				</g>
			</mask>
			
				<rect x="163.9" y="243.4" transform="matrix(-0.9334 0.3588 -0.3588 -0.9334 571.2609 580.7757)" mask="url(#SVGID_4_)" fill="#EFB789" width="135.7" height="200"/>
			<defs>
				<filter id="Adobe_OpacityMaskFilter_1_" filterUnits="userSpaceOnUse" x="129.4" y="182.6" width="133.8" height="134.7">
					<feFlood  style="flood-color:white;flood-opacity:1" result="back"/>
					<feBlend  in="SourceGraphic" in2="back" mode="normal"/>
				</filter>
			</defs>
			<mask maskUnits="userSpaceOnUse" x="129.4" y="182.6" width="133.8" height="134.7" id="SVGID_5_">
				<g filter="url(#Adobe_OpacityMaskFilter_1_)">
					<path d="M266.7,273.2c0,0-82.8-3.9-78.1,38.7l35.6,17l61.9-14.7L266.7,273.2z"/>
				</g>
			</mask>
			
				<ellipse transform="matrix(0.9334 -0.3588 0.3588 0.9334 -76.6265 87.0912)" mask="url(#SVGID_5_)" fill="#EFB789" cx="196.3" cy="250" rx="66.8" ry="67.4"/>
			<path fill="#161515" d="M147.3,312.8c0,0-30.4-102.8,33-118.3c0,0,48-13.1,74.2,22.4c0,0-22.4-40.4-55.7-41l-20.9-1.3l-28.5,1.4
				L137,191.5l-5.4,9.3L117.7,217c0,0-14.7,33,4.6,69.6c2,3.8,10.8,13.1,10.8,13.1"/>
			<path fill="#161515" d="M142.2,305.7l4.6,7c0,0-19.8-115.1,38.2-112.8c0,0,8-11.8,37.1-5.4c0,0-51.9-20.5-69.7-4.2
				c0,0-31.2,54.3-24.2,76.8"/>
			<g>
				<path fill="#E8E8E4" d="M393.6,376c0,0-37.6,0-83,0c-0.9,0-1.9,0-2.8,0l-42.9,35.9L179.5,376c-2.4,0-4.8,0-7.1,0
					c-14.9,0-59.6,0-59.6,0c-9.6,0-17.4,9.1-17.4,21.7l71.6,380.8c0,12.6,7.8,22.5,17.4,22.5h160.5c9.6,0,16.9-10,16.9-22.5
					l48.7-380.6C410.5,385.4,403.2,376,393.6,376z"/>
			</g>
			<polygon fill="#FFFFFF" points="181.3,376 169.7,376.5 265.7,421.1 264.3,411.7 			"/>
			<polygon fill="#FFFFFF" points="318.3,376 307.6,375.6 264.3,412.2 265.2,420.7 			"/>
			<g>
				<g>
					<path fill-rule="evenodd" clip-rule="evenodd" fill="#F2D300" d="M380.8,412.3v31.3c0,0,0.6,24-26.9,35.7h0
						c-27.5-11.7-26.9-35.7-26.9-35.7v-31.3H380.8z"/>
					<path fill-rule="evenodd" clip-rule="evenodd" fill="#FFFFFF" d="M376.5,415.9v28c0,0,0.5,21.4-22.7,31.9h0
						c-23.2-10.5-22.7-31.9-22.7-31.9v-28H376.5z"/>
					<path fill="#1BD5FF" d="M375.2,417.2v26.6v0l0,0c0,0.1,0.1,5.1-2.5,11.5c-1.5,3.7-3.7,7.1-6.5,10.1c-3.3,3.6-7.5,6.6-12.4,8.8
						c-4.9-2.3-9-5.2-12.3-8.8c-2.7-2.9-4.9-6.3-6.5-10c-2.7-6.3-2.6-11.5-2.6-11.6l0,0v0v-26.6H375.2 M376.5,415.9h-45.4v28
						c0,0-0.5,21.4,22.7,31.9h0c23.2-10.5,22.7-31.9,22.7-31.9V415.9L376.5,415.9z"/>
				</g>
				<g>
					<g>
						<path fill="#F2D300" d="M334.7,421.3h3.1l1-2.9l1,2.9h3.1l-2.5,1.8l1,2.9l-2.5-1.8l-2.5,1.8l1-2.9L334.7,421.3z"/>
					</g>
					<g>
						<path fill="#F2D300" d="M344.8,421.3h3.1l1-2.9l1,2.9h3.1l-2.5,1.8l1,2.9l-2.5-1.8l-2.5,1.8l1-2.9L344.8,421.3z"/>
					</g>
					<g>
						<path fill="#F2D300" d="M354.8,421.3h3.1l1-2.9l1,2.9h3.1l-2.5,1.8l1,2.9l-2.5-1.8l-2.5,1.8l1-2.9L354.8,421.3z"/>
					</g>
					<g>
						<path fill="#F2D300" d="M364.9,421.3h3.1l1-2.9l1,2.9h3.1l-2.5,1.8l1,2.9l-2.5-1.8l-2.5,1.8l1-2.9L364.9,421.3z"/>
						<path fill="#F2D300" d="M369,424c0,0,0.1,0,0.1,0l1.9,1.4l-0.7-2.2c0-0.1,0-0.2,0.1-0.3l1.9-1.4h-2.3c-0.1,0-0.2-0.1-0.2-0.2
							l-0.7-2.2l-0.7,2.2c0,0.1-0.1,0.2-0.2,0.2h-2.3l1.9,1.4c0.1,0.1,0.1,0.2,0.1,0.3l-0.7,2.2l1.9-1.4
							C368.9,424,368.9,424,369,424z"/>
					</g>
				</g>
				<g>
					<g>
						<g>
							<polygon fill-rule="evenodd" clip-rule="evenodd" fill="#F2D300" points="353.8,465.3 347.6,467.9 347.6,427.4 353.8,430 
								360.1,427.4 360.1,467.9 							"/>
							<path fill="#38D5FF" d="M347,468.7v-42.2l6.8,2.9l6.8-2.9v42.2l-6.8-2.9L347,468.7z M353.8,464.7l5.8,2.4v-38.9l-5.8,2.4
								l-5.8-2.4v38.9L353.8,464.7z"/>
						</g>
						<g>
							<path fill-rule="evenodd" clip-rule="evenodd" fill="#F2D300" d="M344.5,440.7c0-0.1,0.1-0.1,0.1-0.2c-0.8,0-1.7,0.4-2.3,1.1
								v-1.1c0.1,0,0.3-0.1,0.4-0.1c0.3-0.1,0.5-0.2,0.7-0.4l0,0c0.3-0.2,0.7-0.7,1-1.3c0-0.1,0.1-0.1,0.1-0.2
								c-0.8,0-1.7,0.4-2.3,1.1v-0.9c0.2-0.4,0.3-0.9,0.3-1.4c0-0.7-0.2-1.4-0.5-1.9c-0.1-0.1-0.2-0.3-0.3-0.4
								c-0.1,0.1-0.2,0.2-0.3,0.4c-0.3,0.5-0.5,1.2-0.5,1.9c0,0.5,0.1,1,0.3,1.4v0.9c-0.6-0.7-1.4-1.1-2.3-1.1
								c0,0.1,0.1,0.1,0.1,0.2c0.3,0.6,0.7,1.1,1,1.3l0,0c0.2,0.2,0.5,0.3,0.7,0.4c0.1,0,0.3,0.1,0.4,0.1v1.1
								c-0.6-0.7-1.4-1.1-2.3-1.1c0,0.1,0.1,0.1,0.1,0.2c0.3,0.6,0.7,1.1,1,1.3l0,0c0.2,0.2,0.5,0.3,0.7,0.4c0.1,0,0.3,0.1,0.4,0.1
								v1.1c-0.6-0.7-1.4-1.1-2.3-1.1c0,0.1,0.1,0.1,0.1,0.2c0.3,0.6,0.7,1.1,1,1.3l0,0c0.2,0.2,0.5,0.3,0.7,0.4
								c0.1,0,0.3,0.1,0.4,0.1v1.1c-0.6-0.7-1.4-1.1-2.3-1.1c0,0.1,0.1,0.1,0.1,0.2c0.3,0.6,0.7,1.1,1,1.3l0,0
								c0.2,0.2,0.5,0.3,0.7,0.4c0.1,0,0.3,0.1,0.4,0.1v1.1c-0.6-0.7-1.4-1.1-2.3-1.1c0,0.1,0.1,0.1,0.1,0.2c0.3,0.6,0.7,1.1,1,1.3
								l0,0c0.2,0.2,0.5,0.3,0.7,0.4c0.1,0,0.3,0.1,0.4,0.1v10.6h0.9v-10.6c0.1,0,0.3-0.1,0.4-0.1c0.3-0.1,0.5-0.2,0.7-0.4l0,0
								c0.3-0.2,0.7-0.7,1-1.3c0-0.1,0.1-0.1,0.1-0.2c-0.8,0-1.7,0.4-2.3,1.1v-1.1c0.1,0,0.3-0.1,0.4-0.1c0.3-0.1,0.5-0.2,0.7-0.4
								l0,0c0.3-0.2,0.7-0.7,1-1.3c0-0.1,0.1-0.1,0.1-0.2c-0.8,0-1.7,0.4-2.3,1.1v-1.1c0.1,0,0.3-0.1,0.4-0.1
								c0.3-0.1,0.5-0.2,0.7-0.4l0,0c0.3-0.2,0.7-0.7,1-1.3c0-0.1,0.1-0.1,0.1-0.2c-0.8,0-1.7,0.4-2.3,1.1v-1.1
								c0.1,0,0.3-0.1,0.4-0.1c0.3-0.1,0.5-0.2,0.7-0.4l0,0C343.8,441.8,344.2,441.3,344.5,440.7z"/>
							<path fill-rule="evenodd" clip-rule="evenodd" fill="#F2D300" d="M368.4,440.7c0-0.1,0.1-0.1,0.1-0.2c-0.8,0-1.7,0.4-2.3,1.1
								v-1.1c0.1,0,0.3-0.1,0.4-0.1c0.3-0.1,0.5-0.2,0.7-0.4l0,0c0.3-0.2,0.7-0.7,1-1.3c0-0.1,0.1-0.1,0.1-0.2
								c-0.8,0-1.7,0.4-2.3,1.1v-0.9c0.2-0.4,0.3-0.9,0.3-1.4c0-0.7-0.2-1.4-0.5-1.9c-0.1-0.1-0.2-0.3-0.3-0.4
								c-0.1,0.1-0.2,0.2-0.3,0.4c-0.3,0.5-0.5,1.2-0.5,1.9c0,0.5,0.1,1,0.3,1.4v0.9c-0.6-0.7-1.4-1.1-2.3-1.1
								c0,0.1,0.1,0.1,0.1,0.2c0.3,0.6,0.7,1.1,1,1.3l0,0c0.2,0.2,0.5,0.3,0.7,0.4c0.1,0,0.3,0.1,0.4,0.1v1.1
								c-0.6-0.7-1.4-1.1-2.3-1.1c0,0.1,0.1,0.1,0.1,0.2c0.3,0.6,0.7,1.1,1,1.3l0,0c0.2,0.2,0.5,0.3,0.7,0.4c0.1,0,0.3,0.1,0.4,0.1
								v1.1c-0.6-0.7-1.4-1.1-2.3-1.1c0,0.1,0.1,0.1,0.1,0.2c0.3,0.6,0.7,1.1,1,1.3l0,0c0.2,0.2,0.5,0.3,0.7,0.4
								c0.1,0,0.3,0.1,0.4,0.1v1.1c-0.6-0.7-1.4-1.1-2.3-1.1c0,0.1,0.1,0.1,0.1,0.2c0.3,0.6,0.7,1.1,1,1.3l0,0
								c0.2,0.2,0.5,0.3,0.7,0.4c0.1,0,0.3,0.1,0.4,0.1v1.1c-0.6-0.7-1.4-1.1-2.3-1.1c0,0.1,0.1,0.1,0.1,0.2c0.3,0.6,0.7,1.1,1,1.3
								l0,0c0.2,0.2,0.5,0.3,0.7,0.4c0.1,0,0.3,0.1,0.4,0.1v10.6h0.9v-10.6c0.1,0,0.3-0.1,0.4-0.1c0.3-0.1,0.5-0.2,0.7-0.4l0,0
								c0.3-0.2,0.7-0.7,1-1.3c0-0.1,0.1-0.1,0.1-0.2c-0.8,0-1.7,0.4-2.3,1.1v-1.1c0.1,0,0.3-0.1,0.4-0.1c0.3-0.1,0.5-0.2,0.7-0.4
								l0,0c0.3-0.2,0.7-0.7,1-1.3c0-0.1,0.1-0.1,0.1-0.2c-0.8,0-1.7,0.4-2.3,1.1v-1.1c0.1,0,0.3-0.1,0.4-0.1
								c0.3-0.1,0.5-0.2,0.7-0.4l0,0c0.3-0.2,0.7-0.7,1-1.3c0-0.1,0.1-0.1,0.1-0.2c-0.8,0-1.7,0.4-2.3,1.1v-1.1
								c0.1,0,0.3-0.1,0.4-0.1c0.3-0.1,0.5-0.2,0.7-0.4l0,0C367.7,441.8,368.1,441.3,368.4,440.7z"/>
						</g>
					</g>
					<g>
						<g>
							<polygon fill-rule="evenodd" clip-rule="evenodd" fill="#FFFFFF" points="338.7,449.9 369,449.9 369,456.7 338.7,456.7 
								338.7,449.9 							"/>
							<g>
								<polygon fill-rule="evenodd" clip-rule="evenodd" fill="#38D5FF" points="338.5,450.8 369.1,450.8 369.1,451.5 338.5,451.5 
									338.5,450.8 								"/>
								<polygon fill-rule="evenodd" clip-rule="evenodd" fill="#38D5FF" points="338.5,452.2 369.1,452.2 369.1,453 338.5,453 
									338.5,452.2 								"/>
								<polygon fill-rule="evenodd" clip-rule="evenodd" fill="#38D5FF" points="338.5,453.7 369.1,453.7 369.1,454.4 338.5,454.4 
									338.5,453.7 								"/>
								<polygon fill-rule="evenodd" clip-rule="evenodd" fill="#38D5FF" points="338.5,455.1 369.1,455.1 369.1,455.8 338.5,455.8 
									338.5,455.1 								"/>
							</g>
							<path fill="#1A171B" d="M369,449.9v6.8h-30.3v-6.8H369 M369.4,449.4H369h-30.3h-0.5v0.5v6.8v0.5h0.5H369h0.5v-0.5v-6.8V449.4
								L369.4,449.4z"/>
						</g>
						<g>
							<circle fill-rule="evenodd" clip-rule="evenodd" fill="#FFFFFF" cx="353.8" cy="457.5" r="5.4"/>
							<path fill-rule="evenodd" clip-rule="evenodd" fill="#1A171B" d="M353.8,452.1c3,0,5.4,2.4,5.4,5.4c0,3-2.4,5.4-5.4,5.4
								c-3,0-5.4-2.4-5.4-5.4C348.4,454.6,350.9,452.1,353.8,452.1L353.8,452.1z M355,462.6c-0.4,0.1-0.8,0.1-1.2,0.1
								c-0.4,0-0.8-0.1-1.2-0.1l-1.2-1.7l1-1.4h1l0,0h1.7l1,1.4L355,462.6L355,462.6z M359,458c0,0.4-0.1,0.8-0.2,1.1
								c-0.1,0.4-0.3,0.7-0.5,1.1l-1.9,0.5l-1-1.3l0.6-2.6l1.7-0.5L359,458L359,458z M355.8,452.8c0.4,0.1,0.7,0.3,1,0.6
								c0.3,0.2,0.6,0.5,0.9,0.8l0,1.9l-1.7,0.5l-2.2-1.4v-1.7L355.8,452.8L355.8,452.8z M350,454.2c0.2-0.3,0.5-0.6,0.9-0.8
								c0.3-0.2,0.7-0.4,1-0.6l1.8,0.7l0,1.7l-2,1.6l-1.7-0.5L350,454.2L350,454.2z M349.4,460.2c-0.2-0.3-0.4-0.7-0.5-1.1
								c-0.1-0.4-0.2-0.7-0.2-1.1l1.2-1.5l1.7,0.6l0.6,2.4l-1,1.3L349.4,460.2L349.4,460.2z"/>
						</g>
					</g>
					<g>
						<g>
							<path fill="#E1001A" d="M355.8,439.9c0,0.1,0,0.3,0,0.6c0,0.2,0,0.4-0.1,0.4c0,0.1-0.1,0.1-0.1,0.2c-0.1,0.1-0.2,0.1-0.5,0.2
								c-0.2,0-0.7,0-1.3,0c-0.8,0-1.3,0-1.5-0.1c-0.2-0.1-0.3-0.2-0.4-0.3c0-0.1-0.1-0.3-0.1-1v-2.5h-2.1v2.5c0,0.6,0,1,0,1.2
								c0,0.2,0,0.4,0.1,0.6c0.1,0.6,0.5,0.9,1.2,1.1c0.3,0.1,0.6,0.1,1,0.1c0.4,0,1,0,1.7,0c1,0,1.7,0,2.1-0.1c0.4,0,0.8-0.1,1-0.2
								c0.4-0.2,0.7-0.6,0.8-1c0-0.3,0.1-0.8,0.1-1.6v-2.5h-2.1V439.9z"/>
							<path fill="#1A171B" d="M353.9,443.1c-0.7,0-1.3,0-1.7,0c-0.4,0-0.8-0.1-1.1-0.1c-0.8-0.2-1.2-0.6-1.4-1.2
								c0-0.2-0.1-0.4-0.1-0.6c0-0.2,0-0.6,0-1.2v-2.5c0-0.1,0.1-0.2,0.2-0.2h2.1c0.1,0,0.2,0.1,0.2,0.2v2.5c0,0.7,0,0.9,0.1,1
								c0,0,0,0.1,0.2,0.2c0.2,0,0.5,0.1,1.5,0.1c0.6,0,1,0,1.3,0c0.2,0,0.3-0.1,0.4-0.1c0,0,0-0.1,0.1-0.1c0,0,0-0.1,0.1-0.4
								c0-0.2,0-0.4,0-0.5v-2.5c0-0.1,0.1-0.2,0.2-0.2h2.1c0.1,0,0.2,0.1,0.2,0.2v2.5c0,0.8-0.1,1.4-0.1,1.7
								c-0.1,0.5-0.4,0.9-0.9,1.2c-0.3,0.1-0.6,0.2-1.1,0.3C355.6,443,354.8,443.1,353.9,443.1z M350,437.6v2.3c0,0.6,0,1,0,1.1
								c0,0.2,0,0.3,0.1,0.5c0.1,0.5,0.5,0.8,1.1,0.9c0.3,0.1,0.6,0.1,1,0.1c0.4,0,1,0,1.7,0c1,0,1.7,0,2.1-0.1c0.4,0,0.7-0.1,1-0.2
								c0.4-0.2,0.6-0.5,0.7-0.9c0-0.2,0.1-0.8,0.1-1.6v-2.3H356v2.3c0,0.1,0,0.3,0,0.6c0,0.2,0,0.4-0.1,0.5c0,0.1-0.1,0.2-0.2,0.3
								c-0.1,0.1-0.3,0.2-0.6,0.2c-0.2,0-0.7,0-1.3,0c-0.8,0-1.3,0-1.6-0.1c-0.3-0.1-0.4-0.2-0.5-0.4c0-0.1-0.1-0.5-0.1-1v-2.3H350z
								"/>
						</g>
						<g>
							<polygon fill="#E1001A" points="349.9,448.8 351.9,448.8 351.9,447.1 357.7,447.1 357.7,445.5 351.9,445.5 351.9,445 
								357.8,445 357.8,443.5 349.9,443.5 							"/>
							<path fill="#1A171B" d="M351.9,449h-2.1c-0.1,0-0.2-0.1-0.2-0.2v-5.4c0-0.1,0.1-0.2,0.2-0.2h8c0.1,0,0.2,0.1,0.2,0.2v1.6
								c0,0.1-0.1,0.2-0.2,0.2h-5.7v0.1h5.6c0.1,0,0.2,0.1,0.2,0.2v1.5c0,0.1-0.1,0.2-0.2,0.2h-5.6v1.6
								C352.1,448.9,352,449,351.9,449z M350,448.6h1.7v-1.6c0-0.1,0.1-0.2,0.2-0.2h5.6v-1.2h-5.6c-0.1,0-0.2-0.1-0.2-0.2V445
								c0-0.1,0.1-0.2,0.2-0.2h5.7v-1.2H350V448.6z"/>
						</g>
						<g>
							<path fill="#E1001A" d="M352.2,436h3.2l0.4,0.9h2l-2.8-5.4h-2.6l-2.8,5.4h2.1L352.2,436z M353.9,432.9l0.9,1.7h-1.9l0.9-1.7
								H353.9z"/>
							<path fill="#1A171B" d="M358,437.1C358,437.1,358,437.1,358,437.1h-2c-0.1,0-0.1,0-0.2-0.1l-0.4-0.8h-3L352,437
								c0,0.1-0.1,0.1-0.2,0.1h-2.1c-0.1,0-0.1,0-0.2-0.1c0-0.1,0-0.1,0-0.2l2.8-5.4c0-0.1,0.1-0.1,0.2-0.1h2.6c0.1,0,0.1,0,0.2,0.1
								l2.8,5.3c0,0,0,0.1,0,0.1C358.1,437,358.1,437.1,358,437.1z M356,436.7h1.6l-2.6-5h-2.3l-2.6,5h1.6l0.4-0.8
								c0-0.1,0.1-0.1,0.2-0.1h3.2c0.1,0,0.1,0,0.2,0.1L356,436.7z M354.8,434.8h-1.9c-0.1,0-0.1,0-0.2-0.1c0-0.1,0-0.1,0-0.2
								l0.9-1.7c0-0.1,0.1-0.1,0.2-0.1h0.2c0.1,0,0.1,0,0.2,0.1l0.9,1.7c0,0.1,0,0.1,0,0.2C354.9,434.8,354.9,434.8,354.8,434.8z
								 M353.2,434.5h1.3l-0.6-1.3L353.2,434.5z"/>
						</g>
					</g>
				</g>
			</g>
			<path fill="#1F76A0" d="M152.4,443.9c0,0,9.5,79.8,22.6,121.5c12.5,39.8,41.7,163.7,39.9,226.2l8.3,0.6c0,0,7.7-42.9-26.8-179.8
				c-19.1-75.6-25.6-91.1-32.2-176.2L152.4,443.9z"/>
			<path opacity="0.1" d="M124.1,393.1c-8.9-3-40,21.5-11.8,43.7c0,0,44.1,28.7,86.8,30.8l8.8-50.8
				C207.9,416.7,145.4,400.2,124.1,393.1z"/>
			<path opacity="0.1" d="M307.2,457.3l16.1,326.9L284,1192.3l53.6-58L394.7,693C394.7,693,380.4,442.1,307.2,457.3z"/>
			<g>
				<g>
					<path fill="#EFB789" d="M801.9,596.4c-5.9,3.8-12.2,7.1-18.5,10.2c-3,1.5-6.1,2.9-9.1,4.3c-1,0.5-6.1,2.6-3.2,1.4
						c2.9-1.2-3.1,1.3-4.4,1.7c-8.1,3.1-16.3,5.8-24.7,7.9c-4.3,1.1-8.7,1.9-13.1,2.7c-5.3,0.9,2.5-0.1-2.8,0.4
						c-2.3,0.2-4.7,0.5-7,0.6c-4.7,0.3-9.4,0.3-14.1-0.1c-2-0.1-8-1.2-2.8-0.2c-2.3-0.5-4.6-0.8-6.9-1.3c-2.3-0.5-4.6-1.2-6.8-1.9
						c-1-0.3-2.1-0.7-3.1-1.1c-3.5-1.1-0.1,0-0.3-0.1c-4.3-2.1-8.2-4.4-12.2-7c-1.8-1.2-2.2-1.8-0.1,0c-0.9-0.8-1.8-1.5-2.7-2.3
						c-2.1-1.9-4.2-3.9-6.1-6c-0.9-0.9-1.7-1.9-2.5-2.9c-2.2-2.5,1.5,2.3-0.4-0.5c-1.7-2.4-3.4-4.9-5-7.4c-1.8-2.9-3.4-6-4.9-9.1
						c-0.8-1.6-1.6-3.3-2.3-5c1.3,3-0.8-2.2-1.2-3.3c-2.9-8-5.2-16.2-6.9-24.6c-4.5-21.4-5.5-43.4-5.2-66.1c0.2-23-35.5-23-35.7,0
						c-0.6,61.5,9.2,142.8,75.2,168.3c38.9,15,83.3,2.3,119.5-14.2c8.8-4,17.6-8.4,25.7-13.7C839.2,614.8,821.3,583.9,801.9,596.4
						L801.9,596.4z"/>
				</g>
				<path fill="#EFB789" d="M551,250.4L551,250.4c2.9-37.4-23.2-68.3-59-72.4c-36.1-4.1-68.7,21.4-73.7,57.4l-0.3-0.1l-23.9,198.5
					l134.8,15.7L551,250.4z"/>
				
					<rect x="420.3" y="417.3" transform="matrix(0.9925 0.1225 -0.1225 0.9925 58.5722 -54.3081)" fill="#F2F2F2" width="101.4" height="63.9"/>
				<g>
					<path fill="#3A96EA" d="M612.4,405.6c0,0-37.3-4.6-82.3-10.2l-1.9-0.2c-0.5-0.1-1.1,0.1-1.4,0.6l-51,61.8L400,379.3
						c-2.4-0.3-4.8-0.6-7-0.9c-14.8-1.8-59.2-7.3-59.2-7.3c-9.5-1.2-18.3,6.9-19.9,19.4l24.4,386.8c-1.5,12.5,5,23.3,14.5,24.5
						L512,821.5c9.5,1.2,18-7.9,19.5-20.3l95-371.8C628,416.9,621.9,406.7,612.4,405.6z"/>
				</g>
				<path fill="#3A96EA" d="M614.2,405.8c0,0,44.9,8.5,36.2,98.6c0,0-37.3,30.2-65.4,5.1C556.8,484.5,614.2,405.8,614.2,405.8z"/>
				<path fill="#E17B93" d="M603.5,518.4l1.1-6.8c0,0,25.5,2.2,45.9-17.4c0,0,0.9,6.4-0.3,10.2C650.3,504.4,625,524.4,603.5,518.4z"
					/>
				<g>
					<path fill="#2A5EDF" d="M543.1,481.1c0-0.2,0-0.4,0.1-0.5c0.1-0.7,0.2-1.4,0.3-2c0.2-1.4,0.4-2.8,0.6-4.2c0-0.1,0-0.1,0-0.2
						c0-0.3,0.1-0.5,0.1-0.8c0.9-7.4,1.9-14.8,2.8-22.2c0.9-7.1,1.8-14.1,2.7-21.2c0.1-0.9,0.2-1.8,0.4-2.7
						c15.4,1.9,30.9,3.8,46.3,5.7c-2.2,17.9-4.4,35.9-6.6,53.8c-0.1,0-0.1,0-0.2,0.1c-8.3,3.9-16.5,7.8-24.8,11.7
						c-0.1,0-0.2,0.1-0.2,0.1c0,0,0,0,0,0c0-0.1-0.1-0.1-0.2-0.2c-7-5.7-14-11.5-21-17.2C543.3,481.1,543.2,481.1,543.1,481.1z
						 M577.4,472.5c0,0.1,0,0.2,0,0.3c-0.4,3.5-0.8,7-1.3,10.6c0,0.2,0,0.3,0.2,0.4c1.6,1.1,3.2,2.2,4.8,3.4c0.1,0.1,0.2,0.1,0.4,0
						c1.5-0.6,2.9-1.2,4.4-1.9c0.3-0.1,0.5-0.2,0.8-0.3c0.1,0,0.1-0.1,0.1-0.2c0,0,0-0.1,0-0.1c1.5-12.3,3-24.7,4.6-37
						c0-0.4,0.1-0.3-0.3-0.4c-3.4-0.4-6.8-0.8-10.2-1.3c0,0-0.1,0-0.1,0c-0.1,0-0.2,0-0.2,0.1c0,0.1,0,0.1,0,0.2
						c-0.3,2.1-0.5,4.2-0.8,6.3c0,0.3-0.1,0.5-0.1,0.8c-0.3-0.3-0.6-0.6-0.9-0.9c-0.1-0.1-0.2-0.3-0.2-0.4c0.2-2,0.5-3.9,0.7-5.9
						c0-0.3,0.1-0.3-0.2-0.3c0,0,0,0,0,0c-5.2-0.6-10.4-1.3-15.6-1.9c-0.1,0-0.1,0-0.2,0c-0.1,0-0.1,0-0.1,0.1c0,0.1,0,0.1,0,0.2
						c-0.1,1.1-0.3,2.3-0.4,3.4c-0.1,0.9-0.2,1.8-0.3,2.6c0,0.1,0,0.2-0.1,0.3c-0.4,0.3-0.9,0.6-1.3,0.9c0-0.1,0-0.2,0-0.3
						c0.3-2.3,0.6-4.7,0.9-7c0-0.4,0.1-0.3-0.3-0.4c-3.4-0.4-6.7-0.8-10.1-1.2c-0.4,0-0.3-0.1-0.4,0.3c-0.7,6-1.5,12-2.2,18
						c-0.2,1.4-0.3,2.9-0.5,4.3c-0.6,4.9-1.2,9.8-1.8,14.7c0,0.2,0,0.3,0.2,0.4c0.9,0.6,1.7,1.2,2.6,1.8c0.7,0.5,1.5,1,2.2,1.6
						c0.1,0.1,0.3,0.1,0.4,0c0,0,0.1,0,0.1,0c1.2-0.5,2.4-1,3.6-1.5c0.5-0.2,0.9-0.4,1.4-0.6c0.2-0.1,0.3-0.2,0.2-0.3
						c0-0.1,0-0.1,0-0.2c0.4-3.5,0.9-7,1.3-10.5c0-0.1,0-0.2,0-0.3c0.3,0.3,0.6,0.7,0.9,1c0.1,0.1,0.2,0.2,0.1,0.4
						c-0.7,5.7-1.4,11.5-2.2,17.2c0,0.2,0,0.3,0.2,0.4c2.3,2,4.7,3.9,7,5.9c0.1,0.1,0.2,0.1,0.4,0.1c2.8-1.3,5.6-2.7,8.4-4
						c0.2-0.1,0.3-0.2,0.3-0.4c0.7-5.6,1.4-11.3,2.1-16.9c0-0.1,0-0.1,0-0.2c0-0.1,0-0.1,0.1-0.2C576.6,473.1,577,472.8,577.4,472.5
						z M587.9,443.5c0-0.1,0-0.2,0-0.3c-0.3-1.4-0.6-2.8-1-4.2c-0.1-0.6-0.3-1.2-0.4-1.9c0-0.2,0-0.2-0.3-0.2
						c-0.2,0-0.4-0.1-0.7-0.1c-0.2,0-0.2,0-0.3,0.2c-0.9,1.9-1.9,3.7-2.8,5.6c0,0.1-0.1,0.1-0.1,0.2c0.4,0,0.8,0.1,1.2,0.1
						c0.1,0,0.1,0,0.2-0.1c0.2-0.3,0.3-0.6,0.5-0.9c0.1-0.1,0.1-0.2,0.3-0.1c0.6,0.1,1.1,0.1,1.7,0.2c0.1,0,0.2,0.1,0.2,0.2
						c0.1,0.3,0.1,0.6,0.2,1c0,0.1,0.1,0.2,0.2,0.2c0.2,0,0.4,0,0.6,0.1C587.5,443.5,587.7,443.5,587.9,443.5z M570.3,441.4
						c0-0.1,0-0.2,0-0.3c-0.2-0.9-0.4-1.9-0.6-2.8c-0.3-1.1-0.5-2.2-0.8-3.3c0-0.2,0-0.2-0.3-0.2c-0.2,0-0.4-0.1-0.7-0.1
						c-0.2,0-0.2,0-0.3,0.2c-0.9,1.9-1.9,3.7-2.8,5.6c0,0.1-0.1,0.1,0,0.2c0.4,0,0.8,0.1,1.2,0.1c0.1,0,0.1-0.1,0.2-0.1
						c0.2-0.3,0.3-0.6,0.5-0.9c0.1-0.2,0.1-0.2,0.3-0.2c0.5,0.1,1.1,0.1,1.6,0.2c0.2,0,0.2,0,0.3,0.2c0.1,0.3,0.1,0.6,0.2,0.9
						c0,0.1,0,0.2,0.1,0.2C569.5,441.3,569.9,441.3,570.3,441.4z M562.3,437.8c0.1-0.8,0.2-1.5,0.3-2.3c0-0.1,0-0.1,0-0.2
						c0-0.1,0.1-0.1,0.1-0.1c0.1,0,0.1,0,0.2,0c0.4,0,0.8,0.1,1.2,0.1c0.1,0,0.2,0,0.2-0.1c0-0.3,0.1-0.6,0.1-0.9
						c0-0.1,0-0.1-0.1-0.1c-0.1,0-0.1,0-0.2,0c-1.3-0.2-2.6-0.3-3.9-0.5c0,0-0.1,0-0.1,0c-0.1,0-0.2,0-0.2,0.1
						c0,0.3-0.1,0.6-0.1,0.9c0,0.1,0,0.1,0.1,0.2c0.1,0,0.1,0,0.2,0c0.4,0,0.8,0.1,1.1,0.1c0.1,0,0.2,0.1,0.1,0.2c0,0.1,0,0.1,0,0.2
						c-0.2,1.5-0.4,2.9-0.5,4.4c0,0.1,0,0.1,0,0.2c0,0.1,0,0.1,0.1,0.2c0.3,0,0.6,0.1,1,0.1c0.1,0,0.1,0,0.1-0.1c0-0.1,0-0.1,0-0.2
						C562.1,439.3,562.2,438.5,562.3,437.8z M572.9,438.5c-0.1,1-0.2,1.9-0.4,2.9c0,0.2,0,0.2,0.2,0.3c0.8,0.1,1.6,0.2,2.4,0.3
						c0.4,0.1,0.8,0.1,1.2,0.1c0.2,0,0.2,0,0.2-0.2c0-0.2,0.1-0.5,0.1-0.7c0-0.2,0-0.2-0.2-0.3c-0.8-0.1-1.5-0.2-2.3-0.3
						c-0.3,0-0.3,0-0.2-0.3c0.2-1.5,0.4-3,0.6-4.5c0-0.1,0-0.1,0-0.2c0-0.1,0-0.1-0.1-0.2c-0.3,0-0.6-0.1-0.9-0.1
						c-0.1,0-0.1,0-0.2,0.1c0,0.1,0,0.1,0,0.2C573.2,436.6,573,437.5,572.9,438.5z M580.7,439.4c0.1-1,0.2-1.9,0.4-2.9
						c0-0.2,0-0.2-0.2-0.2c-0.3,0-0.7-0.1-1-0.1c-0.3,0-0.3-0.1-0.3,0.3c-0.2,1.9-0.5,3.8-0.7,5.7c0,0.1,0,0.1,0,0.2
						c0,0.1,0,0.1,0.1,0.1c0.4,0,0.8,0.1,1.2,0.2c0.1,0,0.1,0,0.1-0.1c0-0.1,0-0.1,0-0.2C580.5,441.3,580.6,440.4,580.7,439.4z
						 M555.8,436.4c-0.1,1-0.2,2-0.4,2.9c0,0.2,0,0.2,0.2,0.2c0.4,0,0.7,0.1,1.1,0.1c0.2,0,0.2,0,0.2-0.2c0-0.1,0-0.1,0-0.2
						c0.2-1.7,0.4-3.4,0.6-5.1c0-0.2,0.1-0.4,0.1-0.7c0-0.2,0-0.2-0.2-0.2c-0.3,0-0.7-0.1-1-0.1c-0.2,0-0.2,0-0.3,0.2
						c0,0,0,0.1,0,0.1C556,434.5,555.9,435.4,555.8,436.4z"/>
					<path fill="#FEFEFE" d="M561.1,451.3c0.4-0.3,0.8-0.6,1.3-0.9c0.1-0.1,0.1-0.2,0.1-0.3c0.1-0.9,0.2-1.8,0.3-2.6
						c0.1-1.1,0.3-2.3,0.4-3.4c0-0.1,0-0.1,0-0.2c0-0.1,0-0.1,0.1-0.1c0.1,0,0.1,0,0.2,0c5.2,0.6,10.4,1.3,15.6,1.9c0,0,0,0,0,0
						c0.3,0,0.3,0,0.2,0.3c-0.2,2-0.5,3.9-0.7,5.9c0,0.2,0,0.3,0.2,0.4c0.3,0.3,0.6,0.6,0.9,0.9c0,0.1,0.1,0.1,0.1,0.2
						c2.7,3.6,3.5,7.6,2.3,12c-0.7,2.5-2.1,4.6-4,6.3c-0.3,0.2-0.5,0.4-0.8,0.7c-0.4,0.3-0.8,0.6-1.3,0.8c-0.1,0-0.1,0.1-0.1,0.2
						c0,0.1,0,0.1,0,0.2c-0.7,5.6-1.4,11.3-2.1,16.9c0,0.2-0.1,0.3-0.3,0.4c-2.8,1.3-5.6,2.6-8.4,4c-0.2,0.1-0.3,0.1-0.4-0.1
						c-2.3-2-4.7-3.9-7-5.9c-0.1-0.1-0.2-0.2-0.2-0.4c0.7-5.7,1.4-11.5,2.2-17.2c0-0.2,0-0.3-0.1-0.4c-0.3-0.3-0.6-0.7-0.9-1
						c0,0,0-0.1-0.1-0.1c-2.6-3.6-3.4-7.5-2.2-11.8c0.7-2.4,2-4.5,3.9-6.2C560.6,451.7,560.8,451.5,561.1,451.3z M569.3,488
						C569.3,488,569.3,487.9,569.3,488C569.3,487.8,569.3,487.9,569.3,488c-0.7-0.3-1.4-0.5-2.1-0.6c0,0,0-0.1,0-0.1
						c-0.2-0.6-0.5-1.2-0.7-1.9c0,0,0-0.1-0.1-0.1c-0.1-0.1-0.1,0-0.1,0.1c-0.4,0.6-0.8,1.3-1.2,1.9c-0.5-0.1-1.1-0.1-1.6-0.1
						c-0.2,0-0.4-0.1-0.6,0c0,0-0.1-0.1-0.1,0.1c0,0.1,0.1,0.1,0.1,0.2c0.4,0.5,0.8,1,1.2,1.5c0,0.3-0.1,0.5-0.2,0.8
						c-0.1,0.4-0.3,0.9-0.4,1.3c0,0.1-0.1,0.1,0,0.2c0,0,0.1,0,0.1-0.1l0,0c0.1,0,0.2,0,0.3,0c0.6-0.2,1.2-0.4,1.8-0.6
						c0.4,0.3,0.8,0.5,1.2,0.8c0.2,0.1,0.4,0.3,0.6,0.4c0.1,0,0.1-0.1,0.1-0.1c0-0.7,0-1.4,0-2.1c0,0,0,0,0.1,0
						c0.5-0.4,1-0.8,1.5-1.2C569.2,488,569.2,488,569.3,488L569.3,488z M567.5,475.7C567.5,475.7,567.5,475.7,567.5,475.7
						c-0.5,0.7-0.9,1.3-1.3,2c-0.6,0-1.2,0-1.8-0.1c-0.2,0-0.4-0.1-0.5,0c0,0,0,0,0,0.1c0.4,0.6,0.9,1.1,1.3,1.7
						c-0.2,0.7-0.4,1.4-0.6,2.1c0,0,0,0.1,0,0.1c0.7-0.2,1.4-0.5,2.1-0.7c0.5,0.4,1.1,0.7,1.6,1.1c0.1,0,0.1,0.1,0.2,0.1
						c0,0,0,0,0,0c0,0,0,0,0.1,0c0-0.7,0-1.5,0-2.2c0.4-0.4,0.8-0.7,1.3-1.1c0.1-0.1,0.3-0.2,0.4-0.4c0,0,0,0,0,0c0,0,0,0,0,0
						c0-0.1-0.1-0.1-0.2-0.1c-0.7-0.2-1.3-0.4-2-0.5c0,0,0,0,0-0.1c-0.2-0.6-0.5-1.2-0.7-1.8C567.6,475.9,567.6,475.8,567.5,475.7
						C567.5,475.8,567.5,475.8,567.5,475.7z M568.6,449.9c0.4,0.1,0.9,0.2,1.3,0.4c1.4,0.6,2.6,1.4,3.8,2.2c1.1,0.8,1.9,1.9,2.4,3.2
						c0.9,2.4,0.9,4.8,0.1,7.2c-0.5,1.5-1.3,2.7-2.3,3.9c-0.5,0.6-1,1.1-1.7,1.5c-0.2,0.1-0.4,0.3-0.6,0.5c-0.1,0.1-0.2,0.2-0.3,0.3
						c-0.2,0.3-0.1,0.4,0.2,0.6c0.2,0.1,0.4,0.1,0.6,0.1c1,0.1,2,0,3-0.4c2-0.7,3.6-2,4.8-3.8c0.6-1,1.1-2,1.3-3.1
						c0.2-1.1,0.2-2.2-0.1-3.2c-0.8-3.3-2.6-5.8-5.4-7.6c-1.2-0.8-2.4-1.3-3.8-1.6C570.8,449.9,569.7,449.8,568.6,449.9
						c-0.1-0.1-0.2-0.1-0.3,0C568.4,449.9,568.5,450,568.6,449.9z M559.1,468.5C559.1,468.5,559.1,468.5,559.1,468.5
						C559.1,468.5,559.1,468.5,559.1,468.5c0-0.1,0-0.1-0.1-0.1c-0.3-0.7-0.4-1.4-0.4-2.1c-0.1-1,0-2.1,0.1-3.1
						c0.1-0.6,0.1-1.2,0.3-1.7c0.3-1.1,0.9-2,1.6-2.8c1.6-1.7,3.6-2.7,5.8-3.2c1.2-0.2,2.4-0.2,3.6-0.1c1.1,0.1,2.1,0.4,3.1,0.9
						c0.2,0.1,0.4,0.2,0.6,0.3c0.2,0.1,0.4,0.1,0.6,0.1c0.2,0,0.4-0.1,0.4-0.4c0-0.1,0-0.2,0-0.3c0-0.2-0.1-0.4-0.2-0.6
						c-0.5-1.1-1.2-2-2.1-2.7c-1.7-1.3-3.6-1.9-5.7-1.9c-2,0-3.8,0.6-5.3,1.9c-2.2,1.8-3.5,4.2-4.1,7c-0.2,1.2-0.3,2.3-0.1,3.5
						c0.2,1.6,0.6,3.1,1.3,4.5C558.7,467.9,558.9,468.2,559.1,468.5z M579.9,467.5c0.1-0.1,0.1-0.2,0.1-0.3
						C579.9,467.3,579.9,467.4,579.9,467.5c-0.1,0-0.1,0.1-0.2,0.1c-0.4,0.4-0.9,0.8-1.3,1.1c-1.1,0.7-2.3,1.3-3.5,1.8
						c-1.4,0.6-2.9,0.7-4.4,0.3c-1.9-0.5-3.6-1.4-5-2.9c-0.4-0.5-0.8-1-1.2-1.5c-0.2-0.3-0.5-0.7-0.6-1.1c-0.1-0.3-0.2-0.5-0.3-0.8
						c-0.3-0.8-0.7-1.7-0.9-2.6c-0.1-0.3-0.1-0.5-0.1-0.8c0-0.3,0-0.7-0.1-1c0-0.2-0.1-0.3-0.2-0.4c-0.1-0.2-0.3-0.2-0.4-0.1
						c-0.1,0-0.2,0.1-0.3,0.2c-0.1,0.1-0.3,0.3-0.4,0.4c-0.9,1.1-1.3,2.3-1.5,3.7c-0.1,1.5,0.1,2.9,0.6,4.3c1,2.5,2.8,4.3,5.4,5.1
						c1.2,0.4,2.5,0.6,3.8,0.6c1.4,0,2.8-0.2,4.2-0.8C576.2,472,578.4,470.2,579.9,467.5z M571.5,462.5c0-0.2,0.1-0.4,0.1-0.6
						c0-0.2,0-0.2-0.2-0.3c-0.4,0-0.7-0.1-1.1-0.1c-0.2,0-0.2,0-0.3,0.2c0,0.2-0.1,0.3,0,0.4c0.1,0.1,0.3,0.1,0.4,0.1
						c0.4,0.1,0.4,0,0.3,0.4c0,0.1,0,0.2-0.1,0.2c-0.3,0.2-0.6,0.3-0.9,0.2c-0.4-0.1-0.6-0.4-0.7-0.8c-0.1-0.5,0-1,0.2-1.5
						c0.1-0.1,0.2-0.3,0.3-0.4c0.4-0.4,1.3-0.3,1.4,0.4c0,0,0,0,0,0.1c0,0.1,0.1,0.1,0.1,0.1c0.2,0,0.4,0,0.5-0.1
						c0.1,0,0.1-0.1,0.1-0.1c-0.1-0.4-0.2-0.8-0.6-1c-0.8-0.5-1.9-0.3-2.4,0.5c-0.5,0.8-0.6,1.6-0.3,2.5c0.1,0.4,0.4,0.7,0.8,0.9
						c0.7,0.3,1.4,0.2,2.1-0.2c0.1-0.1,0.1-0.1,0.1-0.2C571.4,462.9,571.5,462.7,571.5,462.5z M572.1,461.9c0,0.1,0,0.2,0,0.3
						c0,0.5,0.1,1,0.4,1.4c0.4,0.5,0.9,0.7,1.5,0.6c0.6-0.1,0.9-0.5,1.1-1.1c0-0.1,0-0.1-0.1-0.2c-0.2-0.1-0.3-0.2-0.5-0.2
						c-0.1,0-0.1,0-0.2,0.1c-0.1,0.1-0.1,0.3-0.2,0.4c-0.2,0.3-0.6,0.4-0.9,0.2c-0.2-0.1-0.4-0.4-0.4-0.6c-0.1-0.5,0-1.1,0.2-1.6
						c0.1-0.2,0.2-0.3,0.3-0.4c0.4-0.3,1-0.2,1.2,0.3c0,0.1,0,0.2,0.1,0.3c0.1,0,0.2,0,0.3,0c0.1,0,0.1,0,0.2,0c0.2,0,0.2,0,0.2-0.2
						c-0.1-0.8-0.8-1.2-1.6-1.2c-0.6,0-1,0.4-1.3,0.9C572.3,461.1,572.2,461.5,572.1,461.9z M563.9,460.9c0,0.1,0,0.3,0,0.4
						c-0.1,0.5-0.1,1-0.2,1.5c0,0.2,0,0.2,0.2,0.2c0.1,0,0.2,0,0.4,0c0.2,0,0.2,0,0.2-0.2c0.1-0.4,0.1-0.9,0.2-1.3
						c0-0.2,0-0.2,0.3-0.2c0.4,0,0.7,0.1,1.1,0.1c0.1,0,0.2,0,0.2-0.1c0-0.1,0-0.3,0-0.4c0-0.1,0-0.1-0.1-0.1c-0.1,0-0.1,0-0.2,0
						c-0.3,0-0.7-0.1-1-0.1c-0.1,0-0.2,0-0.1-0.2c0-0.2,0.1-0.5,0.1-0.7c0-0.1,0-0.1,0.1-0.1c0.1,0,0.1,0,0.2,0
						c0.4,0.1,0.8,0.1,1.3,0.2c0.1,0,0.2,0,0.2-0.1c0-0.1,0-0.2,0-0.3c0-0.2,0-0.2-0.2-0.2c-0.7-0.1-1.4-0.2-2-0.3
						c-0.2,0-0.2,0-0.2,0.2C564.1,459.6,564,460.2,563.9,460.9z M567.7,461.3c0.1-0.5,0.1-1,0.2-1.6c0-0.2,0.1-0.4,0-0.5
						c-0.1-0.1-0.4-0.1-0.6-0.1c-0.1,0-0.1,0-0.1,0.1c0,0.1,0,0.1,0,0.2c-0.1,1.2-0.3,2.4-0.4,3.6c0,0,0,0.1,0,0.1
						c0,0.1,0,0.2,0.1,0.2c0.1,0,0.3,0,0.4,0c0.2,0,0.2,0,0.2-0.2C567.5,462.6,567.6,462,567.7,461.3z"/>
					<path fill="#079E42" d="M561.1,451.3c-0.2,0.2-0.4,0.4-0.7,0.6c-1.9,1.7-3.2,3.7-3.9,6.2c-1.2,4.3-0.5,8.2,2.2,11.8
						c0,0,0.1,0.1,0.1,0.1c0,0.1,0,0.2,0,0.3c-0.4,3.5-0.9,7-1.3,10.5c0,0.1,0,0.1,0,0.2c0,0.2-0.1,0.3-0.2,0.3
						c-0.5,0.2-0.9,0.4-1.4,0.6c-1.2,0.5-2.4,1-3.6,1.5c0,0-0.1,0-0.1,0c-0.1,0.1-0.3,0.1-0.4,0c-0.7-0.5-1.5-1-2.2-1.6
						c-0.9-0.6-1.7-1.2-2.6-1.8c-0.2-0.1-0.2-0.2-0.2-0.4c0.6-4.9,1.2-9.8,1.8-14.7c0.2-1.4,0.4-2.9,0.5-4.3c0.7-6,1.5-12,2.2-18
						c0-0.4,0-0.4,0.4-0.3c3.4,0.4,6.7,0.8,10.1,1.2c0.4,0,0.3,0,0.3,0.4c-0.3,2.3-0.6,4.7-0.9,7
						C561.1,451.1,561.1,451.2,561.1,451.3z M554,480.3C554,480.3,554,480.4,554,480.3C554,480.4,554,480.4,554,480.3
						c0.1-0.1,0.1-0.3,0.1-0.4c0-0.6,0-1.2,0-1.8c0.5-0.4,1-0.9,1.5-1.3c0,0,0.1-0.1,0.1-0.1c0,0-0.1,0-0.1-0.1
						c-0.7-0.2-1.3-0.4-2-0.5c-0.2-0.7-0.5-1.3-0.7-2c0-0.1-0.1-0.1-0.1-0.2c0,0,0,0-0.1,0c0,0-0.1,0.1-0.1,0.1
						c-0.4,0.6-0.8,1.2-1.1,1.9c-0.6,0-1.2,0-1.8-0.1c-0.2,0-0.4,0-0.5,0c0,0.1,0,0.1,0.1,0.1c0.4,0.5,0.9,1.1,1.3,1.6
						c-0.2,0.6-0.3,1.2-0.5,1.8c0,0.1-0.1,0.3-0.1,0.4c0,0,0.1,0,0.1,0l0,0c0.1,0,0.1,0,0.1,0c0.6-0.2,1.3-0.5,1.9-0.7
						c0.5,0.4,1.1,0.7,1.6,1.1C553.8,480.3,553.9,480.3,554,480.3L554,480.3z"/>
					<path fill="#FF2D00" d="M577.4,472.5c0.3-0.2,0.5-0.4,0.8-0.7c1.9-1.7,3.3-3.8,4-6.3c1.2-4.4,0.4-8.4-2.3-12
						c0-0.1-0.1-0.1-0.1-0.2c0-0.3,0.1-0.5,0.1-0.8c0.3-2.1,0.5-4.2,0.8-6.3c0-0.1,0-0.1,0-0.2c0-0.1,0.1-0.2,0.2-0.1
						c0,0,0.1,0,0.1,0c3.4,0.4,6.8,0.8,10.2,1.3c0.3,0,0.3,0,0.3,0.4c-1.5,12.3-3,24.7-4.6,37c0,0,0,0.1,0,0.1
						c0,0.1-0.1,0.2-0.1,0.2c-0.3,0.1-0.5,0.2-0.8,0.3c-1.5,0.6-2.9,1.2-4.4,1.9c-0.2,0.1-0.3,0.1-0.4,0c-1.6-1.1-3.2-2.3-4.8-3.4
						c-0.2-0.1-0.2-0.2-0.2-0.4c0.4-3.5,0.9-7,1.3-10.6C577.4,472.7,577.4,472.6,577.4,472.5z M578.7,479.5L578.7,479.5
						c0,0,0,0.1,0,0.1c0.4,0.5,0.8,1.1,1.3,1.6c0,0.1-0.1,0.2-0.1,0.3c-0.2,0.6-0.3,1.3-0.5,1.9c0,0,0,0,0,0c0,0,0.1,0,0.1,0l0,0
						c0.1,0,0.2,0,0.3-0.1c0.6-0.2,1.2-0.4,1.8-0.6c0.6,0.4,1.2,0.8,1.9,1.2c0.1,0,0.1,0,0.1-0.1c0-0.3,0-0.7,0-1c0-0.4,0-0.8,0-1.2
						c0.2-0.2,0.4-0.4,0.7-0.5c0.3-0.3,0.7-0.6,1-0.9c0-0.1-0.1-0.1-0.1-0.1c-0.3-0.1-0.5-0.1-0.8-0.2c-0.4-0.1-0.8-0.2-1.3-0.3
						c-0.3-0.7-0.5-1.4-0.8-2.1c0-0.1-0.1-0.1-0.1,0c-0.3,0.4-0.5,0.9-0.8,1.3c-0.1,0.2-0.3,0.4-0.4,0.7
						C580.2,479.5,579.4,479.5,578.7,479.5C578.7,479.5,578.6,479.5,578.7,479.5C578.6,479.5,578.6,479.5,578.7,479.5z"/>
					<path fill="#D8CF9B" d="M587.9,443.5c-0.2,0-0.4,0-0.6-0.1c-0.2,0-0.4-0.1-0.6-0.1c-0.1,0-0.2-0.1-0.2-0.2
						c-0.1-0.3-0.1-0.6-0.2-1c0-0.1-0.1-0.2-0.2-0.2c-0.6-0.1-1.1-0.1-1.7-0.2c-0.1,0-0.2,0-0.3,0.1c-0.1,0.3-0.3,0.6-0.5,0.9
						c0,0.1-0.1,0.1-0.2,0.1c-0.4-0.1-0.8-0.1-1.2-0.1c0-0.1,0-0.2,0.1-0.2c0.9-1.9,1.9-3.7,2.8-5.6c0.1-0.2,0.1-0.2,0.3-0.2
						c0.2,0,0.4,0.1,0.7,0.1c0.2,0,0.2,0,0.3,0.2c0.1,0.6,0.3,1.2,0.4,1.9c0.3,1.4,0.6,2.8,1,4.2
						C587.9,443.3,587.9,443.4,587.9,443.5z M584.8,440.9c0.4,0.1,0.8,0.1,1.2,0.1c0.2,0,0.2,0,0.2-0.2c-0.1-0.5-0.2-1.1-0.3-1.6
						c0-0.1,0-0.1-0.1-0.1C585.4,439.7,585.1,440.3,584.8,440.9z"/>
					<path fill="#D8CF9B" d="M570.3,441.4c-0.4-0.1-0.8-0.1-1.2-0.2c-0.1,0-0.1-0.1-0.1-0.2c-0.1-0.3-0.1-0.6-0.2-0.9
						c0-0.2,0-0.2-0.3-0.2c-0.5-0.1-1.1-0.1-1.6-0.2c-0.2,0-0.2,0-0.3,0.2c-0.2,0.3-0.3,0.6-0.5,0.9c0,0.1-0.1,0.1-0.2,0.1
						c-0.4-0.1-0.8-0.1-1.2-0.1c0-0.1,0-0.1,0-0.2c0.9-1.9,1.9-3.7,2.8-5.6c0.1-0.2,0.1-0.2,0.3-0.2c0.2,0,0.4,0.1,0.7,0.1
						c0.2,0,0.2,0,0.3,0.2c0.3,1.1,0.5,2.2,0.8,3.3c0.2,0.9,0.4,1.9,0.6,2.8C570.3,441.2,570.3,441.2,570.3,441.4z M567.2,438.7
						c0.5,0.1,0.9,0.1,1.3,0.2c-0.1-0.7-0.2-1.3-0.4-2c0,0,0,0,0,0C567.8,437.5,567.5,438.1,567.2,438.7z"/>
					<path fill="#D8CF9B" d="M562.3,437.8c-0.1,0.7-0.2,1.5-0.3,2.2c0,0.1,0,0.1,0,0.2c0,0.1,0,0.1-0.1,0.1c-0.3,0-0.6-0.1-1-0.1
						c-0.1,0-0.1-0.1-0.1-0.2c0-0.1,0-0.1,0-0.2c0.2-1.5,0.4-2.9,0.5-4.4c0-0.1,0-0.1,0-0.2c0-0.1,0-0.2-0.1-0.2
						c-0.4,0-0.8-0.1-1.1-0.1c-0.1,0-0.1,0-0.2,0c-0.1,0-0.1-0.1-0.1-0.2c0-0.3,0.1-0.6,0.1-0.9c0-0.1,0.1-0.1,0.2-0.1
						c0,0,0.1,0,0.1,0c1.3,0.2,2.6,0.3,3.9,0.5c0.1,0,0.1,0,0.2,0c0.1,0,0.1,0.1,0.1,0.1c0,0.3-0.1,0.6-0.1,0.9
						c0,0.1-0.1,0.1-0.2,0.1c-0.4-0.1-0.8-0.1-1.2-0.1c-0.1,0-0.1,0-0.2,0c-0.1,0-0.1,0-0.1,0.1c0,0.1,0,0.1,0,0.2
						C562.5,436.3,562.4,437,562.3,437.8z"/>
					<path fill="#D8CF9B" d="M572.9,438.5c0.1-0.9,0.2-1.9,0.3-2.8c0-0.1,0-0.1,0-0.2c0-0.1,0.1-0.1,0.2-0.1c0.3,0,0.6,0.1,0.9,0.1
						c0.1,0,0.1,0.1,0.1,0.2c0,0.1,0,0.1,0,0.2c-0.2,1.5-0.4,3-0.6,4.5c0,0.3,0,0.3,0.2,0.3c0.8,0.1,1.5,0.2,2.3,0.3
						c0.2,0,0.2,0,0.2,0.3c0,0.2-0.1,0.5-0.1,0.7c0,0.2,0,0.2-0.2,0.2c-0.4,0-0.8-0.1-1.2-0.1c-0.8-0.1-1.6-0.2-2.4-0.3
						c-0.2,0-0.2,0-0.2-0.3C572.7,440.4,572.8,439.5,572.9,438.5z"/>
					<path fill="#D8CF9B" d="M580.7,439.4c-0.1,1-0.2,1.9-0.4,2.9c0,0.1,0,0.1,0,0.2c0,0.1-0.1,0.1-0.1,0.1
						c-0.4-0.1-0.8-0.1-1.2-0.2c-0.1,0-0.1-0.1-0.1-0.1c0-0.1,0-0.1,0-0.2c0.2-1.9,0.5-3.8,0.7-5.7c0-0.3,0-0.3,0.3-0.3
						c0.3,0,0.7,0.1,1,0.1c0.2,0,0.2,0,0.2,0.2C580.9,437.5,580.8,438.5,580.7,439.4z"/>
					<path fill="#D8CF9B" d="M555.8,436.4c0.1-0.9,0.2-1.9,0.3-2.8c0,0,0-0.1,0-0.1c0-0.2,0-0.2,0.3-0.2c0.3,0,0.7,0.1,1,0.1
						c0.2,0,0.2,0,0.2,0.2c0,0.2-0.1,0.4-0.1,0.7c-0.2,1.7-0.4,3.4-0.6,5.1c0,0.1,0,0.1,0,0.2c0,0.2,0,0.2-0.2,0.2
						c-0.4,0-0.7-0.1-1.1-0.1c-0.2,0-0.2,0-0.2-0.2C555.6,438.3,555.7,437.3,555.8,436.4z"/>
					<path fill="#2C41A1" d="M579.9,467.5c-1.4,2.7-3.7,4.5-6.5,5.6c-1.3,0.5-2.7,0.7-4.2,0.8c-1.3,0-2.6-0.2-3.8-0.6
						c-2.6-0.8-4.4-2.6-5.4-5.1c-0.5-1.4-0.8-2.8-0.6-4.3c0.1-1.4,0.6-2.6,1.5-3.7c0.1-0.1,0.2-0.3,0.4-0.4c0.1-0.1,0.2-0.1,0.3-0.2
						c0.2-0.1,0.3,0,0.4,0.1c0.1,0.1,0.1,0.3,0.2,0.4c0.1,0.3,0.1,0.7,0.1,1c0,0.3,0,0.5,0.1,0.8c0.2,0.9,0.6,1.7,0.9,2.6
						c0.1,0.3,0.2,0.5,0.3,0.8c0.2,0.4,0.4,0.7,0.6,1.1c0.4,0.5,0.8,1,1.2,1.5c1.4,1.5,3,2.4,5,2.9c1.5,0.4,3,0.3,4.4-0.3
						c1.2-0.5,2.4-1.1,3.5-1.8c0.5-0.3,1-0.7,1.3-1.1C579.7,467.6,579.8,467.5,579.9,467.5C579.8,467.5,579.9,467.5,579.9,467.5z"/>
					<path fill="#079E42" d="M559.1,468.5c-0.2-0.3-0.4-0.6-0.6-0.9c-0.8-1.4-1.2-2.9-1.3-4.5c-0.1-1.2-0.1-2.4,0.1-3.5
						c0.6-2.8,1.9-5.2,4.1-7c1.5-1.3,3.3-1.9,5.3-1.9c2.1,0,4,0.6,5.7,1.9c0.9,0.7,1.7,1.6,2.1,2.7c0.1,0.2,0.2,0.4,0.2,0.6
						c0,0.1,0,0.2,0,0.3c0,0.2-0.1,0.4-0.4,0.4c-0.2,0-0.4,0-0.6-0.1c-0.2-0.1-0.4-0.2-0.6-0.3c-1-0.5-2-0.8-3.1-0.9
						c-1.2-0.1-2.4-0.2-3.6,0.1c-2.3,0.4-4.3,1.5-5.8,3.2c-0.8,0.8-1.3,1.8-1.6,2.8c-0.2,0.6-0.3,1.1-0.3,1.7
						c-0.1,1-0.2,2.1-0.1,3.1c0,0.7,0.1,1.5,0.4,2.1C559.1,468.4,559.1,468.4,559.1,468.5C559.1,468.5,559.1,468.5,559.1,468.5
						C559.1,468.5,559.1,468.5,559.1,468.5z"/>
					<path fill="#FF2D00" d="M568.6,449.9c1.1-0.1,2.2,0,3.3,0.3c1.3,0.3,2.6,0.8,3.8,1.6c2.8,1.8,4.6,4.3,5.4,7.6
						c0.2,1.1,0.3,2.1,0.1,3.2c-0.2,1.1-0.6,2.2-1.3,3.1c-1.2,1.8-2.8,3.1-4.8,3.8c-1,0.3-2,0.5-3,0.4c-0.2,0-0.4,0-0.6-0.1
						c-0.3-0.1-0.3-0.3-0.2-0.6c0.1-0.1,0.2-0.2,0.3-0.3c0.2-0.2,0.4-0.4,0.6-0.5c0.7-0.4,1.2-0.9,1.7-1.5c1-1.2,1.8-2.4,2.3-3.9
						c0.8-2.4,0.9-4.8-0.1-7.2c-0.5-1.3-1.3-2.3-2.4-3.2c-1.2-0.9-2.4-1.6-3.8-2.2C569.5,450.2,569.1,450,568.6,449.9
						C568.6,449.9,568.6,449.9,568.6,449.9z"/>
					<path fill="#D8CF9B" d="M567.5,475.8c0.1,0,0.1,0.1,0.1,0.2c0.2,0.6,0.5,1.2,0.7,1.8c0,0,0,0,0,0.1c-0.3,0.3-0.7,0.6-1,1
						c0.1,0.1,0.2,0,0.3,0c0.8-0.1,1.6-0.2,2.3-0.3c0.2,0,0.4-0.1,0.5,0c-0.1,0.2-0.2,0.2-0.4,0.4c-0.4,0.4-0.8,0.7-1.3,1.1
						c-0.5-0.3-1-0.6-1.5-0.9c0,0,0,0-0.1,0c0,0.1,0,0.2,0.1,0.2c0.4,0.8,0.8,1.6,1.1,2.3c0.1,0.2,0.2,0.3,0.2,0.5
						c-0.1,0-0.1-0.1-0.2-0.1c-0.5-0.4-1.1-0.7-1.6-1.1c0.1-0.6,0.2-1.3,0.3-1.9c-0.1,0-0.1,0-0.1,0.1c-0.7,0.8-1.4,1.6-2.2,2.4
						c0,0-0.1,0.1-0.1,0.2c-0.1,0,0-0.1,0-0.1c0.2-0.7,0.4-1.4,0.6-2.1c0.6-0.2,1.2-0.3,1.8-0.5c0-0.1-0.1-0.1-0.2-0.1
						c-0.7-0.3-1.4-0.5-2-0.8c-0.3-0.1-0.6-0.3-0.9-0.4c0.2-0.1,0.4,0,0.5,0c0.6,0,1.2,0.1,1.8,0.1c0.2,0.4,0.8,1,0.9,1.1
						c0,0,0,0,0,0c0.1-0.6,0.2-1.2,0.2-1.9C567.4,476.6,567.4,476.2,567.5,475.8z"/>
					<path fill="#D8CF9B" d="M566.3,485.2c0,0,0.1,0.1,0.1,0.1c0.2,0.6,0.5,1.2,0.7,1.9c0,0,0,0.1,0,0.1c-0.1,0.2-0.3,0.3-0.5,0.5
						c-0.2,0.2-0.4,0.3-0.5,0.5c0,0,0,0,0,0c0,0,0,0,0,0c0.1,0,0.2,0,0.3,0c0.9-0.1,1.7-0.2,2.6-0.3c0.1,0,0.2,0,0.3,0
						c0,0,0,0.1-0.1,0.1c-0.5,0.4-1,0.8-1.5,1.2c0,0,0,0-0.1,0c-0.5-0.3-1-0.6-1.6-0.9c0,0.1,0,0.2,0.1,0.3c0.4,0.9,0.9,1.8,1.3,2.6
						c0,0.1,0.1,0.2,0.1,0.3c-0.2-0.1-0.4-0.3-0.6-0.4c-0.4-0.3-0.8-0.5-1.2-0.8c0.1-0.6,0.2-1.3,0.3-1.9c-0.1,0-0.1,0-0.1,0.1
						c-0.7,0.8-1.4,1.5-2.1,2.3c0,0-0.1,0.1-0.1,0.2l0,0c0,0,0,0-0.1,0.1c-0.1-0.1,0-0.1,0-0.2c0.1-0.4,0.3-0.9,0.4-1.3
						c0.1-0.2,0.2-0.5,0.2-0.8c0.1,0,0.1,0,0.2,0c0.5-0.1,1-0.3,1.6-0.4c0,0,0.1,0,0.1-0.1c-0.1,0-0.1-0.1-0.2-0.1
						c-0.9-0.3-1.7-0.7-2.6-1c-0.1,0-0.2-0.1-0.2-0.1c0.2-0.1,0.4,0,0.6,0c0.5,0,1.1,0,1.6,0.1c0.1,0.2,0.3,0.4,0.4,0.6
						c0.1,0.2,0.3,0.4,0.4,0.5c0.1,0,0.1-0.1,0.1-0.1c0.1-0.6,0.2-1.2,0.2-1.9C566.2,486,566.3,485.6,566.3,485.2z"/>
					<path fill="#D9902A" d="M571.5,462.5c0,0.2-0.1,0.4-0.1,0.7c0,0.1,0,0.2-0.1,0.2c-0.7,0.4-1.4,0.5-2.1,0.2
						c-0.4-0.2-0.7-0.5-0.8-0.9c-0.3-0.9-0.2-1.7,0.3-2.5c0.5-0.8,1.6-1.1,2.4-0.5c0.4,0.2,0.5,0.6,0.6,1c0,0.1,0,0.1-0.1,0.1
						c-0.2,0-0.4,0-0.5,0.1c-0.1,0-0.1,0-0.1-0.1c0,0,0,0,0-0.1c-0.2-0.7-1.1-0.8-1.4-0.4c-0.1,0.1-0.2,0.2-0.3,0.4
						c-0.2,0.5-0.3,1-0.2,1.5c0.1,0.4,0.3,0.7,0.7,0.8c0.3,0.1,0.6,0,0.9-0.2c0.1,0,0.1-0.1,0.1-0.2c0-0.4,0.1-0.4-0.3-0.4
						c-0.1,0-0.3,0-0.4-0.1c-0.1-0.1,0-0.3,0-0.4c0-0.2,0-0.2,0.3-0.2c0.4,0,0.7,0.1,1.1,0.1c0.2,0,0.2,0,0.2,0.3
						C571.5,462.1,571.5,462.3,571.5,462.5z"/>
					<path fill="#D9902A" d="M572.1,461.9c0-0.4,0.1-0.8,0.3-1.1c0.3-0.5,0.7-0.8,1.3-0.9c0.8-0.1,1.4,0.4,1.6,1.2
						c0,0.2,0,0.2-0.2,0.2c-0.1,0-0.1,0-0.2,0c-0.1,0-0.2,0.1-0.3,0c-0.1,0-0.1-0.2-0.1-0.3c-0.2-0.5-0.8-0.6-1.2-0.3
						c-0.1,0.1-0.2,0.2-0.3,0.4c-0.2,0.5-0.3,1-0.2,1.6c0,0.3,0.2,0.5,0.4,0.6c0.3,0.2,0.7,0.1,0.9-0.2c0.1-0.1,0.2-0.3,0.2-0.4
						c0-0.1,0.1-0.1,0.2-0.1c0.2,0.1,0.3,0.2,0.5,0.2c0.1,0,0.1,0.1,0.1,0.2c-0.2,0.5-0.5,1-1.1,1.1c-0.6,0.1-1.1-0.1-1.5-0.6
						c-0.3-0.4-0.4-0.9-0.4-1.4C572.1,462.1,572.1,462,572.1,461.9z"/>
					<path fill="#D9902A" d="M563.9,460.9c0.1-0.6,0.2-1.3,0.2-1.9c0-0.2,0-0.2,0.2-0.2c0.7,0.1,1.4,0.2,2,0.3c0.2,0,0.2,0,0.2,0.2
						c0,0.1,0,0.2,0,0.3c0,0.1-0.1,0.2-0.2,0.1c-0.4-0.1-0.8-0.1-1.3-0.2c-0.1,0-0.1,0-0.2,0c-0.1,0-0.1,0-0.1,0.1
						c0,0.2-0.1,0.5-0.1,0.7c0,0.1,0,0.1,0.1,0.2c0.3,0,0.7,0.1,1,0.1c0.1,0,0.1,0,0.2,0c0.1,0,0.1,0.1,0.1,0.1c0,0.1,0,0.3,0,0.4
						c0,0.1-0.1,0.2-0.2,0.1c-0.4-0.1-0.7-0.1-1.1-0.1c-0.2,0-0.2,0-0.3,0.2c-0.1,0.4-0.1,0.9-0.2,1.3c0,0.2,0,0.2-0.2,0.2
						c-0.1,0-0.2,0-0.4,0c-0.2,0-0.2,0-0.2-0.2c0.1-0.5,0.1-1,0.2-1.5C563.9,461.1,563.9,461,563.9,460.9z"/>
					<path fill="#D9902A" d="M567.7,461.3c-0.1,0.6-0.2,1.3-0.2,1.9c0,0.2,0,0.2-0.2,0.2c-0.1,0-0.3,0-0.4,0c-0.1,0-0.1-0.1-0.1-0.2
						c0,0,0-0.1,0-0.1c0.1-1.2,0.3-2.4,0.4-3.6c0-0.1,0-0.1,0-0.2c0-0.1,0-0.1,0.1-0.1c0.2,0,0.4,0,0.6,0.1c0.1,0.1,0,0.3,0,0.5
						C567.8,460.3,567.7,460.8,567.7,461.3z"/>
					<path fill="#D9902A" d="M562.9,487.1c0.1,0.1,0.2,0.1,0.2,0.1c0.9,0.3,1.7,0.7,2.6,1c0.1,0,0.1,0.1,0.2,0.1
						c0,0.1,0,0.1-0.1,0.1c-0.5,0.1-1,0.3-1.6,0.4c-0.1,0-0.1,0-0.2,0c-0.4-0.5-0.8-1-1.2-1.5C562.9,487.3,562.8,487.2,562.9,487.1
						C562.7,487.1,562.8,487.1,562.9,487.1z"/>
					<path fill="#D9902A" d="M564.7,481.7c0-0.1,0.1-0.1,0.1-0.2c0.7-0.8,1.4-1.6,2.2-2.4c0,0,0.1-0.1,0.1-0.1
						c0,0.6-0.2,1.3-0.3,1.9C566.1,481.2,565.4,481.5,564.7,481.7z"/>
					<path fill="#D9902A" d="M563.6,491.1c0-0.1,0.1-0.1,0.1-0.2c0.7-0.8,1.4-1.6,2.1-2.3c0,0,0.1-0.1,0.1-0.1
						c0,0.6-0.2,1.3-0.3,1.9c-0.6,0.2-1.2,0.4-1.8,0.6C563.8,491.1,563.7,491.1,563.6,491.1z"/>
					<path fill="#D9902A" d="M563.9,477.7c0.3,0.1,0.6,0.2,0.9,0.4c0.7,0.3,1.4,0.5,2,0.8c0.1,0,0.1,0,0.2,0.1
						c-0.6,0.2-1.2,0.3-1.8,0.5C564.8,478.9,564.4,478.3,563.9,477.7C563.9,477.7,563.9,477.7,563.9,477.7z"/>
					<path fill="#D9902A" d="M567.5,491.6c0-0.1,0-0.2-0.1-0.3c-0.4-0.9-0.9-1.8-1.3-2.6c0-0.1-0.1-0.1-0.1-0.3
						c0.5,0.3,1,0.6,1.6,0.9c0,0.7,0,1.4,0,2.1C567.6,491.5,567.6,491.6,567.5,491.6z"/>
					<path fill="#D9902A" d="M568.7,482.1c0-0.2-0.1-0.3-0.2-0.5c-0.4-0.8-0.8-1.6-1.1-2.3c0-0.1-0.1-0.1-0.1-0.2c0,0,0.1,0,0.1,0
						c0.5,0.3,1,0.6,1.5,0.9C568.8,480.7,568.8,481.4,568.7,482.1C568.8,482.2,568.7,482.2,568.7,482.1
						C568.7,482.2,568.7,482.1,568.7,482.1z"/>
					<path fill="#D9902A" d="M566.3,485.2c-0.1,0.4-0.1,0.7-0.1,1.1c0,0.6-0.1,1.2-0.2,1.9c0,0,0,0.1-0.1,0.1
						c-0.2-0.1-0.3-0.3-0.4-0.5c-0.2-0.2-0.3-0.4-0.4-0.6c0.4-0.6,0.8-1.3,1.2-1.9C566.2,485.2,566.3,485.1,566.3,485.2z"/>
					<path fill="#D9902A" d="M567.5,475.8c-0.1,0.4-0.1,0.8-0.1,1.1c0,0.6-0.1,1.2-0.2,1.9c0,0,0,0,0,0c-0.1-0.1-0.7-0.7-0.9-1.1
						C566.6,477.1,567,476.4,567.5,475.8C567.5,475.7,567.5,475.7,567.5,475.8C567.5,475.8,567.5,475.8,567.5,475.8z"/>
					<path fill="#D9902A" d="M570.4,478.5c-0.2,0-0.4,0-0.5,0c-0.8,0.1-1.6,0.2-2.3,0.3c-0.1,0-0.2,0-0.3,0c0.3-0.4,0.7-0.6,1-1
						c0.7,0.2,1.3,0.4,2,0.5C570.4,478.4,570.4,478.4,570.4,478.5C570.5,478.5,570.4,478.5,570.4,478.5
						C570.4,478.5,570.4,478.5,570.4,478.5z"/>
					<path fill="#D9902A" d="M569.3,488c-0.1,0-0.2,0-0.3,0c-0.9,0.1-1.7,0.2-2.6,0.3c-0.1,0-0.2,0-0.3,0l0,0
						c0.1-0.2,0.4-0.3,0.5-0.5c0.2-0.2,0.3-0.3,0.5-0.5c0.7,0.2,1.4,0.4,2.1,0.5C569.2,487.9,569.2,487.9,569.3,488L569.3,488z"/>
					<path fill="#D8CF9B" d="M579.9,467.5C579.9,467.5,579.8,467.5,579.9,467.5c0-0.1,0-0.2,0.1-0.3
						C580,467.3,579.9,467.4,579.9,467.5z"/>
					<path fill="#D9902A" d="M568.6,449.9C568.6,449.9,568.6,449.9,568.6,449.9c-0.1,0.1-0.2,0.1-0.3,0
						C568.4,449.9,568.5,449.8,568.6,449.9z"/>
					<path fill="#D8CF9B" d="M569.3,488C569.2,487.9,569.2,487.9,569.3,488C569.3,487.9,569.3,487.8,569.3,488
						C569.3,487.9,569.3,488,569.3,488z"/>
					<path fill="#D9902A" d="M563.6,491.1C563.6,491.1,563.6,491.1,563.6,491.1C563.6,491.1,563.6,491.1,563.6,491.1z"/>
					<path fill="#D8CF9B" d="M568.7,482.2C568.7,482.2,568.8,482.2,568.7,482.2C568.8,482.2,568.7,482.2,568.7,482.2z"/>
					<path fill="#D8CF9B" d="M567.5,475.7C567.5,475.7,567.5,475.7,567.5,475.7C567.5,475.7,567.5,475.7,567.5,475.7z"/>
					<path fill="#D8CF9B" d="M559.1,468.4C559.1,468.5,559.1,468.5,559.1,468.4C559.1,468.5,559.1,468.5,559.1,468.4
						C559.1,468.5,559.1,468.5,559.1,468.4C559.1,468.5,559.1,468.5,559.1,468.4z"/>
					<path fill="#D8CF9B" d="M552.7,473.9C552.8,473.9,552.8,473.9,552.7,473.9c0.1,0,0.1,0.1,0.1,0.2c0.2,0.7,0.5,1.3,0.7,2
						c-0.4,0.3-0.7,0.6-1.1,1c0.2,0,0.3,0,0.4,0c0.9-0.1,1.9-0.3,2.8-0.4c0,0.1-0.1,0.1-0.1,0.1c-0.5,0.4-1,0.9-1.5,1.3
						c-0.5-0.3-1-0.6-1.6-0.9c0,0.1,0,0.2,0.1,0.2c0.4,0.9,0.8,1.7,1.3,2.6c0,0.1,0.1,0.2,0.1,0.3c-0.1,0-0.2-0.1-0.2-0.1
						c-0.5-0.4-1.1-0.7-1.6-1.1c0.1-0.6,0.2-1.2,0.3-1.9c-0.1,0-0.2,0.1-0.2,0.1c-0.7,0.8-1.4,1.5-2,2.3c0,0.1-0.1,0.1-0.1,0.2l0,0
						c0,0,0,0-0.1,0c0-0.2,0-0.3,0.1-0.4c0.2-0.6,0.3-1.2,0.5-1.8c0.3-0.1,0.6-0.2,0.9-0.2c0.3-0.1,0.6-0.1,0.9-0.2
						c-0.1-0.1-0.2-0.1-0.3-0.2c-0.5-0.2-1-0.4-1.5-0.6c-0.5-0.2-0.9-0.4-1.4-0.5c0.2-0.1,0.4,0,0.5,0c0.6,0,1.2,0,1.8,0.1
						c0.1,0.2,0.3,0.4,0.4,0.6c0.1,0.2,0.3,0.4,0.4,0.6c0.1,0,0.1-0.1,0.1-0.1c0.1-0.8,0.2-1.7,0.2-2.5
						C552.7,474.3,552.7,474.1,552.7,473.9z"/>
					<path fill="#D9902A" d="M550,479.8c0-0.1,0.1-0.1,0.1-0.2c0.7-0.8,1.4-1.5,2-2.3c0.1-0.1,0.1-0.1,0.2-0.1
						c-0.1,0.6-0.2,1.3-0.3,1.9c-0.6,0.2-1.3,0.5-1.9,0.7C550.1,479.8,550.1,479.9,550,479.8z"/>
					<path fill="#D9902A" d="M549.2,475.9c0.5,0.2,0.9,0.4,1.4,0.5c0.5,0.2,1,0.4,1.5,0.6c0.1,0,0.2,0.1,0.3,0.2
						c-0.3,0.1-0.6,0.2-0.9,0.2c-0.3,0.1-0.6,0.2-0.9,0.2c-0.4-0.5-0.9-1.1-1.3-1.6C549.2,476,549.2,475.9,549.2,475.9z"/>
					<path fill="#D9902A" d="M554,480.3c0-0.1-0.1-0.2-0.1-0.3c-0.4-0.9-0.8-1.7-1.3-2.6c0-0.1-0.1-0.1-0.1-0.2
						c0.5,0.3,1.1,0.6,1.6,0.9c0,0.6,0,1.2,0,1.8C554.1,480.1,554.1,480.2,554,480.3C554,480.3,554,480.3,554,480.3L554,480.3z"/>
					<path fill="#D9902A" d="M552.7,473.9c0,0.2,0,0.4,0,0.5c-0.1,0.8-0.2,1.7-0.2,2.5c0,0,0,0.1-0.1,0.1c-0.2-0.2-0.3-0.4-0.4-0.6
						c-0.2-0.2-0.3-0.4-0.4-0.6c0.4-0.6,0.8-1.2,1.1-1.9C552.7,474,552.7,474,552.7,473.9z"/>
					<path fill="#D9902A" d="M555.8,476.7c-0.9,0.1-1.9,0.3-2.8,0.4c-0.1,0-0.2,0-0.4,0c0.4-0.4,0.7-0.7,1.1-1
						c0.7,0.2,1.3,0.4,2,0.5C555.7,476.6,555.7,476.6,555.8,476.7z"/>
					<path fill="#D8CF9B" d="M554,480.3C554,480.3,554,480.3,554,480.3C554,480.4,554,480.4,554,480.3
						C554,480.4,554,480.3,554,480.3z"/>
					<path fill="#D9902A" d="M550,479.9C550,479.9,550,479.8,550,479.9C550,479.9,550,479.9,550,479.9z"/>
					<path fill="#D8CF9B" d="M582.3,477.6c0.3,0.7,0.5,1.4,0.8,2.1c-0.3,0.3-0.7,0.6-1.1,1c0.1,0,0.2,0,0.3,0
						c0.8-0.1,1.7-0.2,2.5-0.3c0.1,0,0.2,0,0.4,0c-0.3,0.3-0.7,0.6-1,0.9c-0.2,0.2-0.4,0.4-0.7,0.5c-0.1,0-0.2-0.1-0.3-0.2
						c-0.4-0.2-0.7-0.4-1.1-0.6c-0.1,0-0.1-0.1-0.2-0.1c0,0.1,0,0.2,0.1,0.2c0.4,0.8,0.8,1.6,1.2,2.4c0.1,0.1,0.2,0.3,0.2,0.4
						c-0.6-0.4-1.2-0.8-1.9-1.2c0.1-0.6,0.2-1.3,0.3-1.9c-0.1,0-0.2,0.1-0.2,0.2c-0.6,0.6-1.1,1.3-1.7,1.9c-0.2,0.2-0.4,0.3-0.5,0.6
						c0,0,0,0,0,0c0,0,0,0-0.1,0c0.2-0.6,0.3-1.3,0.5-1.9c0-0.1,0.1-0.2,0.1-0.3c0.6-0.2,1.2-0.3,1.8-0.5c-0.1-0.1-0.2-0.1-0.3-0.2
						c-0.7-0.3-1.4-0.6-2.1-0.8c-0.2-0.1-0.5-0.2-0.7-0.3l0,0c0,0,0,0,0,0c0.8,0,1.5,0,2.3,0.1c0.2,0.3,0.7,1,0.9,1.1
						c0-0.1,0-0.2,0-0.3c0.1-0.9,0.2-1.7,0.3-2.6C582.2,477.8,582.2,477.6,582.3,477.6z"/>
					<path fill="#D9902A" d="M579.5,483.5c0.1-0.2,0.3-0.4,0.5-0.6c0.6-0.6,1.1-1.3,1.7-1.9c0.1-0.1,0.1-0.1,0.2-0.2
						c-0.1,0.6-0.2,1.3-0.3,1.9c-0.6,0.2-1.2,0.4-1.8,0.6C579.6,483.4,579.6,483.5,579.5,483.5z"/>
					<path fill="#D9902A" d="M578.7,479.5c0.3,0.1,0.5,0.2,0.7,0.3c0.7,0.3,1.4,0.5,2.1,0.8c0.1,0,0.2,0,0.3,0.2
						c-0.6,0.2-1.2,0.3-1.8,0.5c-0.5-0.5-0.9-1.1-1.3-1.6C578.7,479.6,578.6,479.6,578.7,479.5z"/>
					<path fill="#D9902A" d="M583.4,484c0-0.2-0.1-0.3-0.2-0.4c-0.4-0.8-0.8-1.6-1.2-2.4c0-0.1-0.1-0.1-0.1-0.2c0.1,0,0.1,0,0.2,0.1
						c0.4,0.2,0.7,0.4,1.1,0.6c0.1,0.1,0.2,0.1,0.3,0.2c0,0.4,0,0.8,0,1.2C583.5,483.3,583.5,483.6,583.4,484
						C583.5,484,583.5,484,583.4,484z"/>
					<path fill="#D9902A" d="M582.3,477.6c-0.1,0.1-0.1,0.2-0.1,0.3c-0.1,0.9-0.2,1.7-0.3,2.6c0,0.1,0,0.2,0,0.3
						c-0.1-0.1-0.7-0.8-0.9-1.1c0.1-0.3,0.3-0.5,0.4-0.7c0.3-0.4,0.5-0.9,0.8-1.3C582.2,477.5,582.2,477.5,582.3,477.6z"/>
					<path fill="#D9902A" d="M585.2,480.3c-0.1,0-0.2,0-0.4,0c-0.8,0.1-1.7,0.2-2.5,0.3c-0.1,0-0.2,0-0.3,0c0.3-0.4,0.7-0.7,1.1-1
						c0.4,0.1,0.8,0.2,1.3,0.3c0.3,0.1,0.5,0.1,0.8,0.2C585.1,480.3,585.2,480.3,585.2,480.3z"/>
					<path fill="#D9902A" d="M579.4,483.5C579.4,483.5,579.4,483.5,579.4,483.5C579.4,483.5,579.4,483.5,579.4,483.5
						C579.4,483.5,579.4,483.5,579.4,483.5z"/>
					<path fill="#D9902A" d="M578.7,479.5C578.7,479.5,578.7,479.5,578.7,479.5C578.6,479.5,578.6,479.5,578.7,479.5
						C578.6,479.5,578.7,479.5,578.7,479.5z"/>
					<path fill="#2C41A1" d="M584.8,440.9c0.3-0.6,0.6-1.2,0.9-1.8c0.1,0,0.1,0.1,0.1,0.1c0.1,0.5,0.2,1.1,0.3,1.6
						c0,0.2,0,0.2-0.2,0.2C585.5,441,585.2,440.9,584.8,440.9z"/>
					<path fill="#2C41A1" d="M567.2,438.7c0.3-0.6,0.6-1.2,0.9-1.8c0,0,0,0,0,0c0.1,0.7,0.2,1.3,0.4,2
						C568.1,438.8,567.6,438.8,567.2,438.7z"/>
					<path fill="#D9902A" d="M566.1,488.3C566.1,488.3,566.1,488.3,566.1,488.3C566.1,488.3,566.1,488.3,566.1,488.3L566.1,488.3z"
						/>
				</g>
				<path fill="#36221C" d="M496.4,293.6c1.3-10.6-10.5-20.6-27.4-11c-16.9,9.6-33.7,3.5-29.4-9.9c0,0-14.1,22.5,16.8,31.8
					C482,312.1,495.3,302.5,496.4,293.6z"/>
				<path fill="#36221C" d="M492.7,293.2c1.3-10.6,15.2-17.5,29.3-4c14.1,13.4,31.9,11.6,30.9-2.5c0,0,8.1,25.3-24,26.7
					C502.2,314.6,491.6,302,492.7,293.2z"/>
				<path fill="#36221C" d="M417.1,239.7l-6.9,59.4c0,0,8.3,5.5,10.3-6.8s5.6-52.4,14.6-52.6c9-0.2,46.2-48.6,11.1-49.9
					C409.5,188.4,417.1,239.7,417.1,239.7z"/>
				<path fill="#36221C" d="M448.6,218.4c0,0,38.3,14.4,72.4,7.6c22.5-4.5,50-5,55.3-32.8c0,0-19.8,13.8-33.2-0.9
					c-22.8-25.1-92.8-38.9-100.1,2L448.6,218.4z"/>
				<path fill="#36221C" d="M535.7,219.3c0,0,2.6,26,14.8,36.5c0,0,14.9-26.1-9.3-41.2L535.7,219.3z"/>
				<path fill="#DF5142" d="M409,315.5c0,0,16,0.5,18,9c1,4.4-4.6,9.2-4.6,9.2s7.7,2.7,7.1,9.3c-0.5,5.7-8.3,5-8.3,5
					s8.3,3.5,4.8,11.5c-2,4.6-11.1,3.4-12.5,3.1c0,0,5.4,4,4.5,10.4c-1.2,9.2-16.4,3-16.4,3L409,315.5z"/>
				<path opacity="0.1" d="M328,608.2l1.8,20.2c0,0,44.7,23.2,94.1,11.3c49.4-11.9,157.8-53.6,134-81.6S468.5,638,328,608.2z"/>
				<g>
					<path fill="#EFB789" d="M533.9,542.8c-8.5,5.4-17.4,10.3-26.3,14.9c-9.2,4.8-18.5,9.4-28,13.6c-1.3,0.6-2.6,1.2-4,1.7
						c-0.7,0.3-1.3,0.6-2,0.9c-2.1,0.9,3.4-1.4,1.2-0.5c-3,1.2-5.9,2.4-8.9,3.6c-5.8,2.3-11.6,4.4-17.5,6.3c-12,4-24.2,7.3-36.6,9.5
						c-1.5,0.3-3.1,0.5-4.6,0.8c-4.5,0.8,1.4-0.1-1,0.2c-3,0.3-6.1,0.7-9.1,0.9c-5.9,0.4-11.9,0.4-17.8,0c-1.4-0.1-2.9-0.3-4.3-0.4
						c-4.5-0.3,1.7,0.5-0.6-0.1c-2.7-0.7-5.6-1-8.3-1.7c-2.7-0.7-5.3-1.6-8-2.5c-1.4-0.5-5.3-2.6-0.5-0.1c-1.2-0.6-2.5-1.2-3.7-1.8
						c-2.5-1.3-4.8-2.8-7.1-4.2c-1.2-0.7-4.7-3.7-0.6-0.3c-1.2-1-2.5-2-3.6-3.1c-2-1.8-3.8-3.8-5.7-5.9c-0.8-0.9-3.6-5-0.7-0.8
						c-1-1.4-2-2.8-3-4.3c-2-3.1-3.7-6.4-5.3-9.7c-0.4-0.8-0.7-1.6-1.1-2.3c-1-2.2,1.5,4.1,0,0c-0.7-1.9-1.4-3.9-2.1-5.8
						c-1.4-4.2-2.5-8.5-3.4-12.8c-0.5-2.3-0.9-4.7-1.3-7c-0.2-1.1-0.3-2.2-0.5-3.2c0.4,2.7,0,0.2-0.1-1.1
						c-2.7-24.9-1.3-50.1,2.2-74.8c1.3-9.5-2.3-19.2-12.5-22c-8.4-2.3-20.6,2.9-22,12.5c-9.4,66.1-10.2,166.5,72.7,184.5
						c53,11.5,109.7-11,156.4-34.2c12.2-6.1,24.4-12.5,35.9-19.9C571.3,561.3,553.4,530.4,533.9,542.8L533.9,542.8z"/>
				</g>
				<path fill="#3A96EA" d="M333.8,371.2c0,0-45.6-2.6-59.1,86.9c0,0,28.9,38.4,62.2,20.9S333.8,371.2,333.8,371.2z"/>
				<path fill="#0BCECC" d="M274.7,458.1c0,0,18.4,28.4,45.1,25.7l-0.3-9.9c0,0-21.1,3.1-42.5-27.1L274.7,458.1z"/>
			</g>
			<g opacity="0.1">
				<path d="M133.6,435.2c32.3,13,66.8,21.9,100.9,28.7c67.6,13.4,140.4,18.1,207.1-2.6c40.2-12.5,77.1-34.6,105-66.4
					c6.4-7.2,7.1-18.1,0-25.3c-6.5-6.5-18.9-7.3-25.3,0c-45.6,51.8-112,69.5-178.6,69.8c-57,0.3-110.5-9.9-165.8-27
					c-11.4-3.5-22.8-7.2-33.9-11.7c-9-3.6-19.6,3.9-22,12.5C118.4,423.4,124.7,431.6,133.6,435.2L133.6,435.2z"/>
			</g>
			<g>
				<path fill="#EFB789" d="M126.5,429.8c32.3,13,66.8,21.9,100.9,28.7c67.6,13.4,140.4,18.1,207.1-2.6
					c40.2-12.5,77.1-34.6,105-66.4c6.4-7.2,7.1-18.1,0-25.3c-6.5-6.5-18.9-7.3-25.3,0c-45.6,51.8-112,69.5-178.6,69.8
					c-57,0.3-110.5-9.9-165.8-27c-11.4-3.5-22.8-7.2-33.9-11.7c-9-3.6-19.6,3.9-22,12.5C111.2,418.1,117.5,426.2,126.5,429.8
					L126.5,429.8z"/>
			</g>
			<path fill="#E8E8E4" d="M125,384.5c-9.4-3.1-41.5,21-11.7,43.8c0,0,46.6,29.5,91.2,32.2l8.5-50.9
				C213,409.5,147.3,391.9,125,384.5z"/>
			<path fill="#FFFFFF" d="M213,409.5c-0.9,0.4-8.9,53.1-8.9,53.1s-8-0.9-9.4-3.6l10.3-52.7L213,409.5z"/>
			<path opacity="0.1" d="M543.8,310.4l-6.7,51.8c0,0,3.6,1.3,4,4l6.7-56.3c0,0,13.7-6.8,5.1-23.3L543.8,310.4z"/>
			<polygon opacity="0.1" points="547.4,279.1 545.2,299.2 550.1,297 552.3,277.3 			"/>
			<path opacity="0.1" d="M603.5,518.4l16.9-80.5l16.1,75.6C636.4,513.5,620,523.9,603.5,518.4z"/>
			<g>
				<path fill="#31383B" d="M104.3,69.7c-0.1-0.2-0.1-0.4-0.2-0.6c-0.1-0.2-0.1-0.4-0.2-0.7c0-0.3-0.1-0.7-0.1-1.1c0-0.4,0-1,0-1.7
					v-5.3c0-1.6-0.3-2.7-0.8-3.3c-0.5-0.6-1.4-1-2.6-1h-1.8v13.7h-5.3V36.1h8c2.8,0,4.7,0.6,6,1.9c1.2,1.3,1.8,3.2,1.8,5.8v2.6
					c0,3.5-1.2,5.7-3.5,6.8c1.3,0.5,2.3,1.4,2.8,2.7c0.5,1.2,0.7,2.7,0.7,4.5v5.2c0,0.8,0,1.6,0.1,2.2c0.1,0.6,0.2,1.3,0.5,1.9
					H104.3z M98.5,40.9v10.3h2.1c1,0,1.8-0.3,2.3-0.8c0.6-0.5,0.8-1.4,0.8-2.8v-3.3c0-1.2-0.2-2.1-0.6-2.6c-0.4-0.5-1.1-0.8-2-0.8
					H98.5z"/>
				<path fill="#31383B" d="M117.8,50.3h7.2v4.8h-7.2v9.8h9.1v4.8h-14.4V36.1h14.4v4.8h-9.1V50.3z"/>
				<path fill="#31383B" d="M145.5,57.2v4.5c0,2.7-0.7,4.8-2,6.3c-1.3,1.5-3.3,2.2-5.9,2.2c-2.6,0-4.6-0.7-5.9-2.2
					c-1.3-1.5-2-3.5-2-6.3V44.2c0-2.7,0.7-4.8,2-6.3c1.3-1.5,3.3-2.2,5.9-2.2c2.6,0,4.6,0.7,5.9,2.2c1.3,1.5,2,3.5,2,6.3v3.3h-5
					v-3.6c0-1.2-0.2-2.1-0.7-2.6c-0.5-0.5-1.2-0.7-2-0.7c-0.8,0-1.5,0.2-2,0.7c-0.5,0.5-0.7,1.4-0.7,2.6V62c0,1.2,0.2,2.1,0.7,2.5
					c0.5,0.5,1.2,0.7,2,0.7c0.8,0,1.5-0.2,2-0.7c0.5-0.5,0.7-1.3,0.7-2.5v-4.8H145.5z"/>
				<path fill="#31383B" d="M148.3,44.2c0-2.7,0.7-4.8,2.1-6.3c1.4-1.5,3.4-2.2,6-2.2c2.6,0,4.6,0.7,6,2.2c1.4,1.5,2.1,3.5,2.1,6.3
					v17.5c0,2.7-0.7,4.8-2.1,6.3c-1.4,1.5-3.4,2.2-6,2.2c-2.6,0-4.6-0.7-6-2.2c-1.4-1.5-2.1-3.5-2.1-6.3V44.2z M153.6,62
					c0,1.2,0.2,2.1,0.7,2.6c0.5,0.5,1.2,0.7,2,0.7c0.8,0,1.5-0.2,2-0.7c0.5-0.5,0.7-1.4,0.7-2.6V43.8c0-1.2-0.2-2.1-0.7-2.6
					c-0.5-0.5-1.2-0.7-2-0.7c-0.8,0-1.5,0.2-2,0.7c-0.5,0.5-0.7,1.4-0.7,2.6V62z"/>
				<path fill="#31383B" d="M178.9,60l3.6-23.9h7.3v33.6h-5V45.6l-3.6,24.1h-5l-3.9-23.8v23.8h-4.6V36.1h7.3L178.9,60z"/>
				<path fill="#31383B" d="M199,50.3h7.2v4.8H199v9.8h9.1v4.8h-14.4V36.1h14.4v4.8H199V50.3z"/>
				<path fill="#31383B" d="M216.1,45.4v24.3h-4.8V36.1h6.6l5.4,20.1V36.1h4.7v33.6h-5.4L216.1,45.4z"/>
				<path fill="#31383B" d="M231.9,36.1h8.4c2.7,0,4.6,0.7,5.9,2.1c1.3,1.4,1.9,3.5,1.9,6.2v17c0,2.7-0.6,4.8-1.9,6.2
					c-1.3,1.4-3.3,2.1-5.9,2.1h-8.4V36.1z M237.1,40.9v24h3c0.8,0,1.5-0.2,2-0.7s0.7-1.3,0.7-2.5V44.2c0-1.2-0.2-2.1-0.7-2.5
					s-1.1-0.7-2-0.7H237.1z"/>
				<path fill="#31383B" d="M268.5,69.7h-5.3l-0.9-6.1h-6.5l-0.9,6.1H250l5.4-33.6h7.7L268.5,69.7z M256.4,59.1h5.1l-2.5-17
					L256.4,59.1z"/>
				<path fill="#31383B" d="M282.1,60l3.6-23.9h7.3v33.6h-5V45.6l-3.6,24.1h-5l-3.9-23.8v23.8h-4.6V36.1h7.3L282.1,60z"/>
				<path fill="#31383B" d="M296.5,44.2c0-2.7,0.7-4.8,2.1-6.3c1.4-1.5,3.4-2.2,6-2.2c2.6,0,4.6,0.7,6,2.2c1.4,1.5,2.1,3.5,2.1,6.3
					v17.5c0,2.7-0.7,4.8-2.1,6.3c-1.4,1.5-3.4,2.2-6,2.2c-2.6,0-4.6-0.7-6-2.2c-1.4-1.5-2.1-3.5-2.1-6.3V44.2z M301.8,62
					c0,1.2,0.2,2.1,0.7,2.6c0.5,0.5,1.2,0.7,2,0.7c0.8,0,1.5-0.2,2-0.7c0.5-0.5,0.7-1.4,0.7-2.6V43.8c0-1.2-0.2-2.1-0.7-2.6
					c-0.5-0.5-1.2-0.7-2-0.7c-0.8,0-1.5,0.2-2,0.7c-0.5,0.5-0.7,1.4-0.7,2.6V62z"/>
				<path fill="#31383B" d="M315.2,44.2c0-2.7,0.6-4.8,1.9-6.3c1.3-1.5,3.2-2.2,5.8-2.2c2.6,0,4.5,0.7,5.8,2.2
					c1.3,1.5,1.9,3.5,1.9,6.3v1.1h-5v-1.4c0-1.2-0.2-2.1-0.7-2.6c-0.5-0.5-1.1-0.7-1.9-0.7c-0.8,0-1.5,0.2-1.9,0.7
					c-0.5,0.5-0.7,1.4-0.7,2.6c0,1.2,0.3,2.2,0.8,3c0.5,0.9,1.2,1.7,1.9,2.5c0.8,0.8,1.6,1.6,2.5,2.4c0.9,0.8,1.7,1.6,2.5,2.6
					c0.8,0.9,1.4,2,1.9,3.2c0.5,1.2,0.8,2.6,0.8,4.2c0,2.7-0.7,4.8-2,6.3c-1.3,1.5-3.3,2.2-5.9,2.2c-2.6,0-4.6-0.7-5.9-2.2
					c-1.3-1.5-2-3.5-2-6.3v-2.1h5V62c0,1.2,0.2,2.1,0.7,2.5c0.5,0.5,1.2,0.7,2,0.7c0.8,0,1.5-0.2,2-0.7c0.5-0.5,0.7-1.3,0.7-2.5
					c0-1.2-0.3-2.2-0.8-3c-0.5-0.9-1.2-1.7-1.9-2.5c-0.8-0.8-1.6-1.6-2.5-2.4c-0.9-0.8-1.7-1.6-2.5-2.6c-0.8-0.9-1.4-2-1.9-3.2
					C315.5,47.2,315.2,45.8,315.2,44.2z"/>
				<path fill="#31383B" d="M346.3,36.1V62c0,1.2,0.2,2.1,0.7,2.5c0.5,0.5,1.2,0.7,2,0.7c0.8,0,1.5-0.2,2-0.7
					c0.5-0.5,0.7-1.3,0.7-2.5V36.1h5v25.6c0,2.7-0.7,4.8-2,6.3c-1.3,1.5-3.3,2.2-5.9,2.2s-4.6-0.7-5.9-2.2c-1.3-1.5-2-3.5-2-6.3
					V36.1H346.3z"/>
				<path fill="#31383B" d="M365.1,45.4v24.3h-4.8V36.1h6.6l5.4,20.1V36.1h4.7v33.6h-5.4L365.1,45.4z"/>
				<path fill="#31383B" d="M396.3,36.1c2.8,0,4.7,0.6,6,1.9c1.2,1.3,1.8,3.2,1.8,5.8V45c0,1.7-0.3,3.2-0.8,4.3
					c-0.5,1.1-1.4,2-2.6,2.5c1.4,0.5,2.5,1.4,3,2.7c0.6,1.2,0.9,2.7,0.9,4.5v2.7c0,2.6-0.7,4.6-2,5.9c-1.3,1.4-3.3,2-6,2h-8.3V36.1
					H396.3z M393.6,40.9v8.9h2.1c1,0,1.8-0.3,2.3-0.8c0.6-0.5,0.8-1.4,0.8-2.8v-1.9c0-1.2-0.2-2.1-0.6-2.6c-0.4-0.5-1.1-0.8-2-0.8
					H393.6z M393.6,54.6v10.3h3c0.9,0,1.6-0.2,2-0.7s0.7-1.3,0.7-2.6v-2.9c0-1.6-0.3-2.6-0.8-3.2c-0.5-0.6-1.4-0.9-2.6-0.9H393.6z"
					/>
				<path fill="#31383B" d="M412.9,36.1V62c0,1.2,0.2,2.1,0.7,2.5c0.5,0.5,1.2,0.7,2,0.7c0.8,0,1.5-0.2,2-0.7
					c0.5-0.5,0.7-1.3,0.7-2.5V36.1h5v25.6c0,2.7-0.7,4.8-2,6.3c-1.3,1.5-3.3,2.2-5.9,2.2s-4.6-0.7-5.9-2.2c-1.3-1.5-2-3.5-2-6.3
					V36.1H412.9z"/>
				<path fill="#31383B" d="M432.2,50.3h7.2v4.8h-7.2v9.8h9.1v4.8h-14.4V36.1h14.4v4.8h-9.1V50.3z"/>
				<path fill="#31383B" d="M449.3,45.4v24.3h-4.8V36.1h6.6l5.4,20.1V36.1h4.7v33.6h-5.4L449.3,45.4z"/>
				<path fill="#31383B" d="M477.8,50.3h7.2v4.8h-7.2v9.8h9.1v4.8h-14.4V36.1h14.4v4.8h-9.1V50.3z"/>
				<path fill="#31383B" d="M494.9,45.4v24.3h-4.8V36.1h6.6l5.4,20.1V36.1h4.7v33.6h-5.4L494.9,45.4z"/>
				<path fill="#31383B" d="M509.3,64.9c0.3,0,0.6,0,0.9,0s0.6,0,0.9,0c0.8,0,1.5-0.2,2.1-0.6c0.6-0.4,0.9-1.3,0.9-2.6V36.1h5.3
					v25.2c0,1.7-0.2,3.1-0.6,4.2c-0.4,1.1-1,1.9-1.7,2.6s-1.5,1.1-2.4,1.3c-0.9,0.3-1.9,0.4-2.9,0.4c-0.5,0-0.9,0-1.3,0
					c-0.4,0-0.8,0-1.2-0.1V64.9z"/>
				<path fill="#31383B" d="M528,36.1V62c0,1.2,0.2,2.1,0.7,2.5c0.5,0.5,1.2,0.7,2,0.7c0.8,0,1.5-0.2,2-0.7c0.5-0.5,0.7-1.3,0.7-2.5
					V36.1h5v25.6c0,2.7-0.7,4.8-2,6.3c-1.3,1.5-3.3,2.2-5.9,2.2s-4.6-0.7-5.9-2.2c-1.3-1.5-2-3.5-2-6.3V36.1H528z"/>
				<path fill="#31383B" d="M559.2,69.7h-5.3l-0.9-6.1h-6.5l-0.9,6.1h-4.8l5.4-33.6h7.7L559.2,69.7z M547.1,59.1h5.1l-2.5-17
					L547.1,59.1z"/>
				<path fill="#31383B" d="M569.5,51h7.4v10.7c0,2.7-0.7,4.8-2,6.3c-1.3,1.5-3.3,2.2-5.9,2.2c-2.6,0-4.6-0.7-5.9-2.2
					c-1.3-1.5-2-3.5-2-6.3V44.2c0-2.7,0.7-4.8,2-6.3c1.3-1.5,3.3-2.2,5.9-2.2c2.6,0,4.6,0.7,5.9,2.2c1.3,1.5,2,3.5,2,6.3v3.3h-5
					v-3.6c0-1.2-0.2-2.1-0.7-2.6c-0.5-0.5-1.2-0.7-2-0.7s-1.5,0.2-2,0.7c-0.5,0.5-0.7,1.4-0.7,2.6V62c0,1.2,0.2,2.1,0.7,2.5
					s1.2,0.7,2,0.7s1.5-0.2,2-0.7c0.5-0.5,0.7-1.3,0.7-2.5v-6.2h-2.4V51z"/>
				<path fill="#31383B" d="M585.3,36.1V62c0,1.2,0.2,2.1,0.7,2.5c0.5,0.5,1.2,0.7,2,0.7c0.8,0,1.5-0.2,2-0.7
					c0.5-0.5,0.7-1.3,0.7-2.5V36.1h5v25.6c0,2.7-0.7,4.8-2,6.3c-1.3,1.5-3.3,2.2-5.9,2.2s-4.6-0.7-5.9-2.2c-1.3-1.5-2-3.5-2-6.3
					V36.1H585.3z"/>
				<path fill="#31383B" d="M604.7,50.3h7.2v4.8h-7.2v9.8h9.1v4.8h-14.4V36.1h14.4v4.8h-9.1V50.3z"/>
				<path fill="#31383B" d="M47.8,93.7h5.3v28.8h8.7v4.8h-14V93.7z"/>
				<path fill="#31383B" d="M69.1,93.7v25.9c0,1.2,0.2,2.1,0.7,2.5c0.5,0.5,1.2,0.7,2,0.7c0.8,0,1.5-0.2,2-0.7
					c0.5-0.5,0.7-1.3,0.7-2.5V93.7h5v25.6c0,2.7-0.7,4.8-2,6.3c-1.3,1.5-3.3,2.2-5.9,2.2c-2.6,0-4.6-0.7-5.9-2.2
					c-1.3-1.5-2-3.5-2-6.3V93.7H69.1z"/>
				<path fill="#31383B" d="M88.5,107.9h7.2v4.8h-7.2v9.8h9.1v4.8H83.2V93.7h14.4v4.8h-9.1V107.9z"/>
				<path fill="#31383B" d="M108.8,108.6h7.4v10.7c0,2.7-0.7,4.8-2,6.3c-1.3,1.5-3.3,2.2-5.9,2.2c-2.6,0-4.6-0.7-5.9-2.2
					c-1.3-1.5-2-3.5-2-6.3v-17.5c0-2.7,0.7-4.8,2-6.3c1.3-1.5,3.3-2.2,5.9-2.2c2.6,0,4.6,0.7,5.9,2.2c1.3,1.5,2,3.5,2,6.3v3.3h-5
					v-3.6c0-1.2-0.2-2.1-0.7-2.6c-0.5-0.5-1.2-0.7-2-0.7c-0.8,0-1.5,0.2-2,0.7c-0.5,0.5-0.7,1.4-0.7,2.6v18.1c0,1.2,0.2,2.1,0.7,2.5
					c0.5,0.5,1.2,0.7,2,0.7c0.8,0,1.5-0.2,2-0.7c0.5-0.5,0.7-1.3,0.7-2.5v-6.2h-2.4V108.6z"/>
				<path fill="#31383B" d="M119.2,101.8c0-2.7,0.7-4.8,2.1-6.3c1.4-1.5,3.4-2.2,6-2.2c2.6,0,4.6,0.7,6,2.2c1.4,1.5,2.1,3.5,2.1,6.3
					v17.5c0,2.7-0.7,4.8-2.1,6.3c-1.4,1.5-3.4,2.2-6,2.2c-2.6,0-4.6-0.7-6-2.2c-1.4-1.5-2.1-3.5-2.1-6.3V101.8z M124.4,119.6
					c0,1.2,0.2,2.1,0.7,2.6c0.5,0.5,1.2,0.7,2,0.7c0.8,0,1.5-0.2,2-0.7c0.5-0.5,0.7-1.4,0.7-2.6v-18.1c0-1.2-0.2-2.1-0.7-2.6
					c-0.5-0.5-1.2-0.7-2-0.7c-0.8,0-1.5,0.2-2,0.7c-0.5,0.5-0.7,1.4-0.7,2.6V119.6z"/>
				<path fill="#31383B" d="M146,93.7h8.4c2.7,0,4.6,0.7,5.9,2.1c1.3,1.4,1.9,3.5,1.9,6.2v17c0,2.7-0.6,4.8-1.9,6.2
					c-1.3,1.4-3.3,2.1-5.9,2.1H146V93.7z M151.3,98.5v24h3c0.8,0,1.5-0.2,2-0.7s0.7-1.3,0.7-2.5v-17.5c0-1.2-0.2-2.1-0.7-2.5
					s-1.1-0.7-2-0.7H151.3z"/>
				<path fill="#31383B" d="M170.9,107.9h7.2v4.8h-7.2v9.8h9.1v4.8h-14.4V93.7H180v4.8h-9.1V107.9z"/>
				<path fill="#31383B" d="M190.7,93.7h8.4c2.7,0,4.6,0.7,5.9,2.1c1.3,1.4,1.9,3.5,1.9,6.2v17c0,2.7-0.6,4.8-1.9,6.2
					c-1.3,1.4-3.3,2.1-5.9,2.1h-8.4V93.7z M196,98.5v24h3c0.8,0,1.5-0.2,2-0.7s0.7-1.3,0.7-2.5v-17.5c0-1.2-0.2-2.1-0.7-2.5
					s-1.1-0.7-2-0.7H196z"/>
				<path fill="#31383B" d="M227.4,127.3H222l-0.9-6.1h-6.5l-0.9,6.1h-4.8l5.4-33.6h7.7L227.4,127.3z M215.3,116.7h5.1l-2.5-17
					L215.3,116.7z"/>
				<path fill="#31383B" d="M240.8,127.3c-0.1-0.2-0.1-0.4-0.2-0.6c-0.1-0.2-0.1-0.4-0.2-0.7c0-0.3-0.1-0.7-0.1-1.1c0-0.4,0-1,0-1.7
					v-5.3c0-1.6-0.3-2.7-0.8-3.3c-0.5-0.6-1.4-1-2.6-1h-1.8v13.7h-5.3V93.7h8c2.8,0,4.7,0.6,6,1.9c1.2,1.3,1.8,3.2,1.8,5.8v2.6
					c0,3.5-1.2,5.7-3.5,6.8c1.3,0.5,2.3,1.4,2.8,2.7c0.5,1.2,0.7,2.7,0.7,4.5v5.2c0,0.8,0,1.6,0.1,2.2c0.1,0.6,0.2,1.3,0.5,1.9
					H240.8z M235.1,98.5v10.3h2.1c1,0,1.8-0.3,2.3-0.8c0.6-0.5,0.8-1.4,0.8-2.8V102c0-1.2-0.2-2.1-0.6-2.6c-0.4-0.5-1.1-0.8-2-0.8
					H235.1z"/>
				<path fill="#31383B" d="M249.1,93.7h5.3v28.8h8.7v4.8h-14V93.7z"/>
				<path fill="#31383B" d="M270.7,107.9h7.2v4.8h-7.2v9.8h9.1v4.8h-14.4V93.7h14.4v4.8h-9.1V107.9z"/>
				<path fill="#31383B" d="M295.5,93.7v25.9c0,1.2,0.2,2.1,0.7,2.5c0.5,0.5,1.2,0.7,2,0.7c0.8,0,1.5-0.2,2-0.7
					c0.5-0.5,0.7-1.3,0.7-2.5V93.7h5v25.6c0,2.7-0.7,4.8-2,6.3c-1.3,1.5-3.3,2.2-5.9,2.2c-2.6,0-4.6-0.7-5.9-2.2
					c-1.3-1.5-2-3.5-2-6.3V93.7H295.5z"/>
				<path fill="#31383B" d="M314.3,103v24.3h-4.8V93.7h6.6l5.4,20.1V93.7h4.7v33.6h-5.4L314.3,103z"/>
				<path fill="#31383B" d="M345.5,93.7c2.8,0,4.7,0.6,6,1.9c1.2,1.3,1.8,3.2,1.8,5.8v1.2c0,1.7-0.3,3.2-0.8,4.3
					c-0.5,1.1-1.4,2-2.6,2.5c1.4,0.5,2.5,1.4,3,2.7c0.6,1.2,0.9,2.7,0.9,4.5v2.7c0,2.6-0.7,4.6-2,5.9c-1.3,1.4-3.3,2-6,2h-8.3V93.7
					H345.5z M342.8,98.5v8.9h2.1c1,0,1.8-0.3,2.3-0.8c0.6-0.5,0.8-1.4,0.8-2.8V102c0-1.2-0.2-2.1-0.6-2.6c-0.4-0.5-1.1-0.8-2-0.8
					H342.8z M342.8,112.2v10.3h3c0.9,0,1.6-0.2,2-0.7s0.7-1.3,0.7-2.6v-2.9c0-1.6-0.3-2.6-0.8-3.2c-0.5-0.6-1.4-0.9-2.6-0.9H342.8z"
					/>
				<path fill="#31383B" d="M356.6,101.8c0-2.7,0.7-4.8,2.1-6.3c1.4-1.5,3.4-2.2,6-2.2s4.6,0.7,6,2.2c1.4,1.5,2.1,3.5,2.1,6.3v17.5
					c0,2.7-0.7,4.8-2.1,6.3c-1.4,1.5-3.4,2.2-6,2.2s-4.6-0.7-6-2.2c-1.4-1.5-2.1-3.5-2.1-6.3V101.8z M361.8,119.6
					c0,1.2,0.2,2.1,0.7,2.6c0.5,0.5,1.2,0.7,2,0.7s1.5-0.2,2-0.7c0.5-0.5,0.7-1.4,0.7-2.6v-18.1c0-1.2-0.2-2.1-0.7-2.6
					c-0.5-0.5-1.2-0.7-2-0.7s-1.5,0.2-2,0.7c-0.5,0.5-0.7,1.4-0.7,2.6V119.6z"/>
				<path fill="#31383B" d="M391.3,114.8v4.5c0,2.7-0.7,4.8-2,6.3c-1.3,1.5-3.3,2.2-5.9,2.2c-2.6,0-4.6-0.7-5.9-2.2
					c-1.3-1.5-2-3.5-2-6.3v-17.5c0-2.7,0.7-4.8,2-6.3c1.3-1.5,3.3-2.2,5.9-2.2c2.6,0,4.6,0.7,5.9,2.2c1.3,1.5,2,3.5,2,6.3v3.3h-5
					v-3.6c0-1.2-0.2-2.1-0.7-2.6c-0.5-0.5-1.2-0.7-2-0.7s-1.5,0.2-2,0.7c-0.5,0.5-0.7,1.4-0.7,2.6v18.1c0,1.2,0.2,2.1,0.7,2.5
					s1.2,0.7,2,0.7s1.5-0.2,2-0.7c0.5-0.5,0.7-1.3,0.7-2.5v-4.8H391.3z"/>
				<path fill="#31383B" d="M411.6,127.3h-5.3l-0.9-6.1h-6.5l-0.9,6.1h-4.8l5.4-33.6h7.7L411.6,127.3z M399.6,116.7h5.1l-2.5-17
					L399.6,116.7z"/>
				<path fill="#31383B" d="M414.1,93.7h8.4c2.7,0,4.6,0.7,5.9,2.1c1.3,1.4,1.9,3.5,1.9,6.2v17c0,2.7-0.6,4.8-1.9,6.2
					c-1.3,1.4-3.3,2.1-5.9,2.1h-8.4V93.7z M419.4,98.5v24h3c0.8,0,1.5-0.2,2-0.7c0.5-0.5,0.7-1.3,0.7-2.5v-17.5
					c0-1.2-0.2-2.1-0.7-2.5c-0.5-0.5-1.1-0.7-2-0.7H419.4z"/>
				<path fill="#31383B" d="M433.2,101.8c0-2.7,0.7-4.8,2.1-6.3c1.4-1.5,3.4-2.2,6-2.2s4.6,0.7,6,2.2c1.4,1.5,2.1,3.5,2.1,6.3v17.5
					c0,2.7-0.7,4.8-2.1,6.3c-1.4,1.5-3.4,2.2-6,2.2s-4.6-0.7-6-2.2c-1.4-1.5-2.1-3.5-2.1-6.3V101.8z M438.5,119.6
					c0,1.2,0.2,2.1,0.7,2.6c0.5,0.5,1.2,0.7,2,0.7s1.5-0.2,2-0.7c0.5-0.5,0.7-1.4,0.7-2.6v-18.1c0-1.2-0.2-2.1-0.7-2.6
					c-0.5-0.5-1.2-0.7-2-0.7s-1.5,0.2-2,0.7c-0.5,0.5-0.7,1.4-0.7,2.6V119.6z"/>
				<path fill="#31383B" d="M477.2,127.3h-5.3l-0.9-6.1h-6.5l-0.9,6.1h-4.8l5.4-33.6h7.7L477.2,127.3z M465.1,116.7h5.1l-2.5-17
					L465.1,116.7z"/>
				<path fill="#31383B" d="M492.1,93.7v25.9c0,1.2,0.2,2.1,0.7,2.5c0.5,0.5,1.2,0.7,2,0.7c0.8,0,1.5-0.2,2-0.7
					c0.5-0.5,0.7-1.3,0.7-2.5V93.7h5v25.6c0,2.7-0.7,4.8-2,6.3c-1.3,1.5-3.3,2.2-5.9,2.2s-4.6-0.7-5.9-2.2c-1.3-1.5-2-3.5-2-6.3
					V93.7H492.1z"/>
				<path fill="#31383B" d="M510.9,103v24.3h-4.8V93.7h6.6l5.4,20.1V93.7h4.7v33.6h-5.4L510.9,103z"/>
				<path fill="#31383B" d="M534.1,93.7h5.3v33.6h-5.3V93.7z"/>
				<path fill="#31383B" d="M541.7,93.7H558v4.8h-5.5v28.8h-5.3V98.5h-5.5V93.7z"/>
				<path fill="#31383B" d="M575.6,127.3h-5.3l-0.9-6.1h-6.5l-0.9,6.1h-4.8l5.4-33.6h7.7L575.6,127.3z M563.5,116.7h5.1l-2.5-17
					L563.5,116.7z"/>
				<path fill="#31383B" d="M578,93.7h5.3v28.8h8.7v4.8h-14V93.7z"/>
				<path fill="#31383B" d="M594.3,93.7h5.3v33.6h-5.3V93.7z"/>
				<path fill="#31383B" d="M620.5,127.3h-5.3l-0.9-6.1h-6.5l-0.9,6.1H602l5.4-33.6h7.7L620.5,127.3z M608.5,116.7h5.1l-2.5-17
					L608.5,116.7z"/>
				<path fill="#31383B" d="M627.7,103v24.3h-4.8V93.7h6.6l5.4,20.1V93.7h4.7v33.6h-5.4L627.7,103z"/>
				<path fill="#31383B" d="M643,101.8c0-2.7,0.7-4.8,2.1-6.3c1.4-1.5,3.4-2.2,6-2.2s4.6,0.7,6,2.2c1.4,1.5,2.1,3.5,2.1,6.3v17.5
					c0,2.7-0.7,4.8-2.1,6.3c-1.4,1.5-3.4,2.2-6,2.2s-4.6-0.7-6-2.2c-1.4-1.5-2.1-3.5-2.1-6.3V101.8z M648.3,119.6
					c0,1.2,0.2,2.1,0.7,2.6c0.5,0.5,1.2,0.7,2,0.7s1.5-0.2,2-0.7c0.5-0.5,0.7-1.4,0.7-2.6v-18.1c0-1.2-0.2-2.1-0.7-2.6
					c-0.5-0.5-1.2-0.7-2-0.7s-1.5,0.2-2,0.7c-0.5,0.5-0.7,1.4-0.7,2.6V119.6z"/>
			</g>
			<polygon fill="#FFFFFF" points="200.1,719.5 118.5,667.8 88.5,759.5 59.2,667.5 -22.8,718.5 14,629.2 -81.6,615.5 4,570.8 
				-60.5,498.8 33.9,519.5 30.7,423 89.7,499.5 149.3,423.6 145.3,520.1 239.8,500.2 174.7,571.5 259.8,617.1 164.1,629.9 			"/>
			<g>
				<rect x="76.4" y="493.6" fill="#0DACC0" width="31.5" height="19.2"/>
				<path fill="#0DACC0" d="M141,550v-26.1c0-1.3-0.2-2.5-0.8-3.5c-1.9-5.7-10.5-8.7-12-9.5c-0.2-0.1-0.4-0.2-0.7-0.3
					c-14.7-4.3-51.8-2-67.5-1.1c-9.4,0.6-11.8,5.2-14.9,8.6l-0.7,0.8c-0.7,0.7-1,1.7-0.8,2.6c-0.2,0.7-0.5,1.5-0.5,2.4V550
					c0,3.4,3,6.4,6,7.3v91c-3,0.9-6,3.8-6,7.3v35.1c0,4.2,3.6,7.4,7.7,7.4h82.8c4.2,0,7.4-3.3,7.4-7.4v-35.1c0-3.4-2-6.4-5-7.3v-91
					C139,556.3,141,553.4,141,550z"/>
				<path fill="#31383B" d="M111.3,496.8H72.9V458c0,0,10.1-2.5,19.5-2.5c8.5,0,18.9,2.5,18.9,2.5V496.8z"/>
				<path fill="#F2F2F2" d="M117.3,647.6H66.7c-6.6,0-12-5.4-12-12v-64.8c0-6.6,5.4-12,12-12h50.6c6.6,0,12,5.4,12,12v64.8
					C129.3,642.2,123.9,647.6,117.3,647.6z"/>
				<rect x="62.8" y="616.7" fill="#11AEE4" width="58.3" height="19.5"/>
				<rect x="72" y="562.9" fill="#EC6256" width="38.4" height="8.8"/>
				<rect x="62.5" y="577.4" fill="#534842" width="58.9" height="12.6"/>
				<path opacity="0.1" d="M66.9,523.5c0.4-10.9,13-10.9,13-10.9l1.7-56.3c-5.1,0.7-8.7,1.7-8.7,1.7v39h3v11.5
					c-6,0.3-12,0.6-16.2,0.9c-9.4,0.6-11.7,5.2-14.9,8.6l-0.7,0.8c-0.7,0.7-1,1.7-0.8,2.6c-0.2,0.7-0.5,1.5-0.5,2.4V550
					c0,3.4,3,6.4,6,7.3v91c-3,0.9-6,3.8-6,7.3v35.1c0,4.2,3.6,7.4,7.7,7.4h17.7C68.1,660.5,66.6,532.8,66.9,523.5z"/>
				<path opacity="0.1" fill="#FFFFFF" d="M124.5,526.5c-0.3,10.8,0.2,131,0.4,171.5h8.8c4.2,0,7.4-3.3,7.4-7.4v-35.1
					c0-3.4-2-6.4-5-7.3v-91c3-0.9,5-3.8,5-7.3v-26.1c0-1.3-0.2-2.5-0.8-3.5c-1.9-5.7-10.5-8.7-12-9.5c-0.2-0.1-0.4-0.2-0.6-0.3
					c-4.7-1.4-11.6-2.1-19.6-2.4V497h3v-39c0,0-4.3-1-9.6-1.8l0.8,57.6C102.2,513.9,124.9,513.4,124.5,526.5z"/>
			</g>
			<linearGradient id="SVGID_6_" gradientUnits="userSpaceOnUse" x1="565.4648" y1="583.5157" x2="565.4648" y2="657.517">
				<stop  offset="0" style="stop-color:#FFFFFF"/>
				<stop  offset="0.6878" style="stop-color:#7CD7FF"/>
			</linearGradient>
			<path fill="url(#SVGID_6_)" stroke="#FFFFFF" stroke-width="6" stroke-miterlimit="10" d="M657.5,657.5H440.9
				c-4.8,0-8.8-4-8.8-8.8l25.6-51.3c4.6-8.1,6.9-13.9,11.7-13.9H690c4.8,0,8.8,4,8.8,8.8l-23.7,47.4
				C669.3,651.9,662.4,657.5,657.5,657.5z"/>
			<polygon fill="#FFFFFF" points="292,308.8 289.9,307.6 289.3,309.9 288.5,307.7 286.5,309 287.4,306.8 285,306.5 287.1,305.3 
				285.4,303.6 287.7,304.1 287.6,301.7 289.1,303.5 290.5,301.6 290.5,304 292.8,303.4 291.2,305.2 293.4,306.3 291,306.7 			"/>
			<polygon fill="#FFFFFF" points="313.3,310.5 310.2,308.7 309.2,312.1 308,308.8 305,310.8 306.2,307.4 302.7,307 305.8,305.2 
				303.3,302.6 306.8,303.3 306.6,299.7 308.9,302.5 311,299.6 311,303.2 314.5,302.3 312.1,305 315.4,306.6 311.8,307.2 			"/>
			<polygon fill="#FBFFF6" points="300.3,334.8 296.3,332.4 295,336.9 293.4,332.5 289.5,335.1 291.1,330.7 286.5,330.2 
				290.5,327.9 287.3,324.5 291.9,325.4 291.6,320.7 294.6,324.3 297.3,320.5 297.3,325.2 301.8,324.1 298.8,327.6 303,329.7 
				298.4,330.5 			"/>
		</g>
	</g>
</g>
</svg>
