<?xml version="1.0" encoding="utf-8"?>
<!-- Generator: Adobe Illustrator 18.1.0, SVG Export Plug-In . SVG Version: 6.00 Build 0)  -->
<!DOCTYPE svg PUBLIC "-//W3C//DTD SVG 1.1//EN" "http://www.w3.org/Graphics/SVG/1.1/DTD/svg11.dtd">
<svg version="1.1" id="Layer_1" xmlns="http://www.w3.org/2000/svg" xmlns:xlink="http://www.w3.org/1999/xlink" x="0px" y="0px"
	 viewBox="0 0 520 389" enable-background="new 0 0 520 389" xml:space="preserve">
<g>
	<g>
		<rect x="165.9" y="81.6" fill="#ECC7A5" width="226" height="302"/>
		<path fill="#9E5C26" d="M388.9,84.6v296h-220v-296H388.9 M394.9,78.6h-232v308h232V78.6L394.9,78.6z"/>
	</g>
	<rect x="162.9" y="386.6" fill="#382216" width="232" height="2"/>
	<g>
		<path fill="#92B6E5" d="M229.4,222.9v98.3h97v-98.3l8.7,15.3l31.3-17.7l-26.3-58.3c0,0-23-12-43.7-18c0,0-3.7,10.3-18.3,10.3
			s-18.3-10.3-18.3-10.3s-27.7,8.3-43.7,19l-25,57l31,19.3L229.4,222.9z"/>
		<polyline fill="#231F20" points="222.1,239.5 226,230.6 194.6,212.2 191.1,220.2 222.1,239.5 		"/>
		<polyline fill="#231F20" points="331.1,231.2 335.1,238.4 366.6,220.6 363.3,213.5 331.1,231.2 		"/>
		<path fill="#7AC6E5" d="M259.8,144.2c0,0,4,10.3,19,10.3c0,0,13,0,17.7-10.3l7.6,2.4c0,0-6.3,14.4-25.3,14.4s-25.9-14.6-25.9-14.6
			S258.2,144.4,259.8,144.2z"/>
		<path fill="#231F20" d="M282.2,154.2l6.2,5.4c0,0,10.8-2.6,15.7-13l-8.7-3.1C295.4,143.5,293.1,151.1,282.2,154.2z"/>
		<path fill="#231F20" d="M274.6,154.2l-6.2,5.4c0,0-10.9-2.7-15.8-13.1l8.7-3.2C261.3,143.4,263.7,151.1,274.6,154.2z"/>
		<polygon fill="#9BC1EA" points="268.4,159.6 279.7,168.1 288.4,159.6 282.9,154 273.4,154 		"/>
		<g>
			<path fill="#7C9DC1" d="M294.7,184.9l2.9-3.6h15.5l2.8,4.2c0,0-2.6,3.8-1,9.8c1.6,6,4.5,13.6-9.6,13.8
				c-14.1,0.1-12.3-10.4-10.3-13.9C295,195.2,296.7,191.5,294.7,184.9z"/>
			<path fill="#FFFFFF" d="M311.9,204.2c0,0.7-0.6,1.3-1.3,1.3h-11.4c-0.7,0-1.3-0.6-1.3-1.3l0,0c0-0.7,0.6-1.3,1.3-1.3h11.4
				C311.3,202.9,311.9,203.5,311.9,204.2L311.9,204.2z"/>
			<polygon fill="#E4BD64" points="309.3,192.2 311.2,189.2 314.9,201.5 308.9,198.8 			"/>
			<polygon fill="#E4BD64" points="300.5,192.2 298.6,189.2 294.9,201.5 300.9,198.8 			"/>
			<path fill="#E4BD64" d="M307.9,194.4c0,1.6-1.3,2.8-2.8,2.8l0,0c-1.6,0-2.8-1.3-2.8-2.8v-2.8c0-1.6,1.3-2.8,2.8-2.8l0,0
				c1.6,0,2.8,1.3,2.8,2.8V194.4z"/>
			<path fill="#3C82A7" d="M300.5,192.2h8.8c0,0,1.1,10.4-4.2,10.7C299.7,203.3,300.5,192.2,300.5,192.2z"/>
			<polygon fill="#E4BD64" points="300.2,184.6 301.7,184.8 300.6,185.8 300.8,187.2 299.5,186.5 298.2,187.1 298.5,185.7 
				297.5,184.6 299,184.5 299.7,183.2 			"/>
			<polygon fill="#E4BD64" points="306.1,184.6 307.5,184.8 306.4,185.8 306.6,187.2 305.3,186.5 304,187.1 304.4,185.7 
				303.4,184.6 304.8,184.5 305.5,183.2 			"/>
			<polygon fill="#E4BD64" points="311.6,184.6 313,184.8 311.9,185.8 312.1,187.2 310.8,186.5 309.5,187.1 309.8,185.7 
				308.9,184.6 310.3,184.5 311,183.2 			"/>
		</g>
		<path opacity="8.000000e-02" fill="#231F20" d="M278.1,154c-14.7,0-18.3-9.8-18.3-9.8s-27.7,8.3-43.7,19l-25,57l31,19.3l7.3-16.7
			v98.3h49.3"/>
	</g>
	<g opacity="0.24">
		<linearGradient id="SVGID_1_" gradientUnits="userSpaceOnUse" x1="162.8877" y1="227.6413" x2="394.8877" y2="227.6413">
			<stop  offset="0" style="stop-color:#FFFFFF"/>
			<stop  offset="1" style="stop-color:#FFFFFF;stop-opacity:0"/>
		</linearGradient>
		<polygon fill="url(#SVGID_1_)" points="162.9,376.6 162.9,78.6 394.9,78.6 		"/>
	</g>
	<g>
		<path fill="#D69E00" d="M67.7,278.8c0.1,0.1,5,0.6,5,0.6v1c0,0,2.3,1.1,1.8,3.1l-2.7,2.4c0,0-2.1-1.1-2.1-2.3v-2.3h-2.4v-0.2
			c0,0-2.2,1.6-2.1,2.4s1.3,1,1.3,1s0.7,1.7-1.6,1.2c-2.3-0.5-2.2-2.4-2.2-2.4s-2.7-1.3-4.5-1.3c-1.8,0-0.9,1.5-0.9,1.5
			s2.3,0.9,2.1,1.4c-0.2,0.5-3.6,0-3.6,0s-0.8-0.2-0.8-3.1c0,0-1.9,0.4-2.4,1.3s0.9,0.7,0.9,0.7s0.5,1.4-1,1.2s-2.7-0.9-2.2-3
			c0,0,0.6-0.7,1.7-0.8c1.1-0.1,1.6-3.6,1.6-3.6s-3.4-3.1,0.5-4.2c0,0,4.9,1,6-0.2c1.2-1.2-3.7-1.9-5.3-1.1s-2.9-1.5-2.9-1.5H60
			c0,0,2.7,2.3,0.3,3.5c-2.4,1.1-5.2,0.2-5.2,0.2s-2-0.2-1.8,1.5c0.2,1.7,7.8,0.9,7.8,0.9s0.7-2.4,2.7-3.4l-0.1-0.8l-1.1-1.8h0.8
			l0.5,0.9h0.5l0.4-0.9h0.9l0.6,0.9h0.4l1-0.9h0.7l-0.1,0.8l-1.7,2.1c0,0,1.3,0.3,1.7,0.9l0.8,0.2c0,0,0.4,1.6-0.8,1.6
			c0,0-0.7,0.2-0.3,0.7h0.6l-0.1,0.7C68.5,277.7,67.5,278.4,67.7,278.8z"/>
		<g>
			<g>
				<path fill="#D69E00" d="M96.6,254.6l-6.5-5.4l-6.5,5.4l-8.1-2.9c0,0,5,13.6,5,13.8l0.8-3.8l8.8,3.8l8.8-3.8l0.5,3.8
					c0-0.1,5.4-13.8,5.4-13.8L96.6,254.6z"/>
				<circle fill="#CE9402" cx="74.9" cy="250.8" r="1.9"/>
				<circle fill="#CE9402" cx="90.1" cy="248.1" r="1.9"/>
				<circle fill="#CE9402" cx="104.9" cy="250.8" r="1.9"/>
			</g>
			<rect x="80.5" y="265.4" fill="#CE9402" width="18.8" height="2.2"/>
		</g>
		<g>
			<path fill="#D3D3D3" d="M71.4,292c0.3,0,0.3-0.1,0.1-0.2C71.4,291.9,71.4,292,71.4,292z"/>
			<path fill="#D3D3D3" d="M134.5,267.2H88.8H43.1c0,0-2.5,68.7,35.7,97.4l3.2-2.9c0,0-25.2-14.9-33.6-72.9h16c0,0,6,2.2,7,2.9
				c0.5-1.2,3.3-6.9,3.3-6.9H48.1c0,0-0.5-4.7-0.5-14.2h36.3c0,0,2.6,11.5-10.3,12.9l16.3,3.4l16.3-3.4
				c-12.9-1.4-10.4-12.9-10.4-12.9H130c-0.1,9.5-0.5,14.2-0.5,14.2h-26.7c0,0,2.9,5.6,3.3,6.9c1.1-0.7,7-2.9,7-2.9h16
				c-8.4,58-33.6,72.9-33.6,72.9l3.2,2.9C137,335.9,134.5,267.2,134.5,267.2z"/>
			<path fill="#D3D3D3" d="M106.2,292c0,0,0-0.1-0.1-0.2C105.9,291.9,105.9,292,106.2,292z"/>
		</g>
		<path fill="#D69E00" d="M109.9,278.8c-0.1,0.1-5,0.6-5,0.6v1c0,0-2.3,1.1-1.8,3.1l2.7,2.4c0,0,2.1-1.1,2.1-2.3v-2.3h2.4v-0.2
			c0,0,2.2,1.6,2.1,2.4s-1.3,1-1.3,1s-0.7,1.7,1.6,1.2c2.3-0.5,2.2-2.4,2.2-2.4s2.7-1.3,4.5-1.3c1.8,0,0.9,1.5,0.9,1.5
			s-2.3,0.9-2.1,1.4c0.2,0.5,3.6,0,3.6,0s0.8-0.2,0.8-3.1c0,0,1.9,0.4,2.4,1.3s-0.9,0.7-0.9,0.7s-0.5,1.4,1,1.2
			c1.6-0.2,2.7-0.9,2.2-3c0,0-0.6-0.7-1.7-0.8s-1.6-3.6-1.6-3.6s3.4-3.1-0.5-4.2c0,0-4.9,1-6-0.2c-1.2-1.2,3.7-1.9,5.3-1.1
			c1.6,0.8,2.9-1.5,2.9-1.5h-8.2c0,0-2.7,2.3-0.3,3.5s5.2,0.2,5.2,0.2s2-0.2,1.8,1.5c-0.2,1.7-7.8,0.9-7.8,0.9s-0.7-2.4-2.7-3.4
			l0.1-0.8l1.1-1.8h-0.8l-0.5,0.9h-0.5l-0.4-0.9h-0.9l-0.6,0.9h-0.4l-1-0.9h-0.7l0.1,0.8l1.7,2.1c0,0-1.3,0.3-1.7,0.9l-0.8,0.2
			c0,0-0.4,1.6,0.8,1.6c0,0,0.7,0.2,0.3,0.7h-0.6l0.1,0.7C109,277.7,110.1,278.4,109.9,278.8z"/>
		<path fill="#D3D3D3" d="M110.4,371.5l-6.1-6.3l-4.8-4.7c-0.3-1.5-4.3-4.6-4.3-4.6h-5.3h0h-5.3c0,0-3.9,3.1-4.3,4.6l-4.8,4.7
			l-6.1,6.3c0,0-0.6,10.9,20.5,10.9c0,0,0,0,0,0c0,0,0,0,0,0C111,382.4,110.4,371.5,110.4,371.5z"/>
		<path opacity="5.000000e-02" fill="#00101F" d="M110.4,371.5l-6.1-6.3l-4.8-4.7c-0.3-1.5-4.3-4.6-4.3-4.6h-5.3h0v8.3
			c0,0,0,18.2,0,18.2l0,0l0,0C111,382.4,110.4,371.5,110.4,371.5z"/>
		<path fill="#DCDCDC" d="M109.9,290.2c-0.1-1.9-2.1-2.9-2.1-2.9c0.6-1.4-1.6-3.7-1.6-3.7H89.9H73.6c0,0-2.2,2.3-1.6,3.7
			c0,0-2,1.1-2.1,2.9c0,0-2.8,0.6-2.6,4c0.2,3.4,3.3,52.5,18.2,66.3c0,0,2.9,0.8,4.5,0.6c1.6,0.2,4.5-0.6,4.5-0.6
			c14.9-13.8,18-62.9,18.2-66.3C112.7,290.8,109.9,290.2,109.9,290.2z"/>
		<path opacity="8.000000e-02" fill="#00101F" d="M109.9,290.2c-0.1-1.9-2.1-2.9-2.1-2.9c0.6-1.4-1.6-3.7-1.6-3.7H89.9v77.5
			c0,0,1.4,0,2.2-0.1c0.6-0.1,2.3-0.5,2.3-0.5c14.9-13.8,18-62.9,18.2-66.3C112.7,290.8,109.9,290.2,109.9,290.2z"/>
		<path fill="#00101F" d="M89.9,283.6"/>
		<path opacity="7.000000e-02" fill="#00101F" d="M89.9,267.2v16.4h16.3c0,0-12-0.5-10.4-12.9v-3.5H89.9z"/>
	</g>
	<g>
		
			<linearGradient id="SVGID_2_" gradientUnits="userSpaceOnUse" x1="-14849.0293" y1="6043.2954" x2="-14849.0293" y2="6151.7266" gradientTransform="matrix(-0.8009 0.256 -0.3045 -0.9525 -9971.293 9969.5947)">
			<stop  offset="0" style="stop-color:#FFFFFF"/>
			<stop  offset="1" style="stop-color:#FFFFFF;stop-opacity:0"/>
		</linearGradient>
		<path fill="url(#SVGID_2_)" d="M11.3,305.7c-16.2-50.8-14.9-96.6,3.1-102.3c17.9-5.7,45.6,30.8,61.8,81.6s14.9,96.6-3.1,102.3
			C55.2,393,27.6,356.5,11.3,305.7z"/>
		
			<linearGradient id="SVGID_3_" gradientUnits="userSpaceOnUse" x1="-10856.707" y1="10618.9512" x2="-10856.707" y2="10727.3828" gradientTransform="matrix(-0.7473 -0.3853 0.4582 -0.8888 -12931.6348 5659.5161)">
			<stop  offset="0" style="stop-color:#FFFFFF"/>
			<stop  offset="1" style="stop-color:#FFFFFF;stop-opacity:0"/>
		</linearGradient>
		<path fill="url(#SVGID_3_)" d="M73.7,279.7c24.4-47.4,57.8-78.8,74.5-70.2s10.5,54-13.9,101.4s-57.8,78.8-74.5,70.2
			S49.3,327.1,73.7,279.7z"/>
	</g>
	<g>
		<rect x="35.7" y="380.5" fill="#9E5C26" width="107.4" height="6.9"/>
		<rect x="35.6" y="386.6" fill="#382216" width="107.5" height="2"/>
		<polygon fill="#7F4921" points="53.1,387.4 35.7,387.4 35.7,380.5 73.1,380.5 		"/>
	</g>
	
		<linearGradient id="SVGID_4_" gradientUnits="userSpaceOnUse" x1="892.8612" y1="1541.3209" x2="892.8612" y2="1746.073" gradientTransform="matrix(0.9683 -0.2499 0.2499 0.9683 -1179.8436 -1306.7714)">
		<stop  offset="0" style="stop-color:#FFFFFF"/>
		<stop  offset="1" style="stop-color:#FFFFFF;stop-opacity:0"/>
	</linearGradient>
	<path fill="url(#SVGID_4_)" d="M201.6,167.1c25.1,97.5,12.4,185-28.5,195.6S78.6,302.8,53.5,205.3S41.1,20.3,82,9.7
		S176.5,69.6,201.6,167.1z"/>
	
		<linearGradient id="SVGID_5_" gradientUnits="userSpaceOnUse" x1="-1001.0368" y1="-1702.3346" x2="-1001.0368" y2="-1497.5824" gradientTransform="matrix(0.959 0.2834 -0.2834 0.959 972.9218 1885.9211)">
		<stop  offset="0" style="stop-color:#FFFFFF"/>
		<stop  offset="1" style="stop-color:#FFFFFF;stop-opacity:0"/>
	</linearGradient>
	<path fill="url(#SVGID_5_)" d="M503.2,212.9c-28.5,96.5-84.5,165.1-125,153.1s-50.2-99.9-21.7-196.4S441,4.5,481.5,16.4
		S531.8,116.4,503.2,212.9z"/>
	
		<linearGradient id="SVGID_6_" gradientUnits="userSpaceOnUse" x1="-1236.5875" y1="-1872.3612" x2="-1236.5875" y2="-1667.6091" gradientTransform="matrix(0.9495 0.3139 -0.3139 0.9495 1029.9365 2121.2751)">
		<stop  offset="0" style="stop-color:#FFFFFF"/>
		<stop  offset="1" style="stop-color:#FFFFFF;stop-opacity:0"/>
	</linearGradient>
	<path fill="url(#SVGID_6_)" d="M443.7,198.7c-31.6,95.6-89.7,162.3-129.8,149c-40.1-13.3-47-101.5-15.4-197s89.7-162.3,129.8-149
		S475.3,103.2,443.7,198.7z"/>
	
		<linearGradient id="SVGID_7_" gradientUnits="userSpaceOnUse" x1="1299.8413" y1="3217.0581" x2="1299.8413" y2="3421.8103" gradientTransform="matrix(0.8933 -0.4494 0.4494 0.8933 -2507.2478 -2329.3232)">
		<stop  offset="0" style="stop-color:#FFFFFF"/>
		<stop  offset="1" style="stop-color:#FFFFFF;stop-opacity:0"/>
	</linearGradient>
	<path fill="url(#SVGID_7_)" d="M271.9,132.3c45.2,89.9,51.3,178.2,13.6,197.2c-37.7,19-105-38.5-150.2-128.4S83.9,22.9,121.6,3.9
		S226.7,42.4,271.9,132.3z"/>
</g>
</svg>
