<?xml version="1.0" encoding="utf-8"?>
<!-- Generator: Adobe Illustrator 18.1.0, SVG Export Plug-In . SVG Version: 6.00 Build 0)  -->
<!DOCTYPE svg PUBLIC "-//W3C//DTD SVG 1.1//EN" "http://www.w3.org/Graphics/SVG/1.1/DTD/svg11.dtd">
<svg version="1.1" id="Layer_1" xmlns="http://www.w3.org/2000/svg" xmlns:xlink="http://www.w3.org/1999/xlink" x="0px" y="0px"
	 viewBox="0 0 49 43" enable-background="new 0 0 49 43" xml:space="preserve">
<g>
	<path fill="#002A5E" d="M24.2,14.5c0.4-1.4,0.8-2.7,1.3-4c0.9-2.4,2-4.8,3.6-6.9c0.7-0.9,1.5-1.8,2.4-2.4c2.2-1.6,4.6-1.5,6.7,0.2
		c1.4,1.2,2.4,2.6,3.3,4.2c1.5,2.7,2.6,5.6,3.4,8.6c0.8,3,1.5,6,2,9c0.4,2.5,0.7,5,0.9,7.5c0.2,2,0.3,4.1,0.4,6.1
		c0.1,1.7,0.1,3.4,0.1,5.1c0,0.3-0.1,0.4-0.4,0.4c-1.8,0-3.6,0-5.3,0c-0.3,0-0.3-0.1-0.3-0.4c0-1.9,0-3.8-0.1-5.8
		c-0.1-3.2-0.3-6.4-0.5-9.6c-0.3-3.3-0.7-6.7-1.2-10c-0.5-3.2-1.2-6.4-2.3-9.5c-0.4-1.1-0.9-2.1-1.6-3.1c-0.1-0.2-0.3-0.3-0.4-0.4
		c-0.9-0.9-1.9-0.9-2.8,0c-0.8,0.7-1.3,1.7-1.7,2.6c-0.9,2.1-1.5,4.3-2,6.5c-0.6,2.7-1,5.4-1.4,8.2c-0.4,3.5-0.7,7.1-0.9,10.7
		c-0.1,2.4-0.2,4.9-0.2,7.3c0,0.2,0,0.3-0.3,0.3c-1.8,0-3.6,0-5.5,0c-0.2,0-0.3-0.1-0.3-0.3c0-1.5,0-3.1-0.1-4.6
		c-0.1-2.5-0.2-5-0.4-7.5c-0.2-2-0.3-3.9-0.6-5.9c-0.5-4.3-1.2-8.6-2.6-12.7c-0.5-1.4-1-2.7-1.8-3.8c-0.3-0.4-0.5-0.7-0.9-0.9
		c-0.8-0.6-1.6-0.6-2.4,0.1c-0.7,0.7-1.2,1.5-1.6,2.4c-1,2.2-1.6,4.5-2.1,6.9c-0.6,2.7-1,5.4-1.4,8.1c-0.5,3.7-0.8,7.4-1,11.1
		c-0.1,1.9-0.2,3.8-0.2,5.8c0,1.4,0,2.8,0,4.2c0,0.2-0.1,0.3-0.3,0.3c-1.8,0-3.6,0-5.5,0c-0.2,0-0.3,0-0.3-0.3
		c0-2.8,0.1-5.5,0.3-8.3c0.3-3.8,0.7-7.6,1.3-11.4c0.8-4.5,1.8-8.9,3.5-13.1C6,7,7,4.9,8.5,3.1c0.6-0.7,1.2-1.4,1.9-1.9
		c2-1.5,4.2-1.5,6.3-0.1C18.1,2,19.1,3.2,20,4.5c1.6,2.4,2.6,5,3.5,7.7C23.7,13,23.9,13.7,24.2,14.5z"/>
</g>
</svg>
