<?xml version="1.0" encoding="utf-8"?>
<!-- Generator: Adobe Illustrator 18.1.0, SVG Export Plug-In . SVG Version: 6.00 Build 0)  -->
<!DOCTYPE svg PUBLIC "-//W3C//DTD SVG 1.1//EN" "http://www.w3.org/Graphics/SVG/1.1/DTD/svg11.dtd">
<svg version="1.1" id="Layer_1" xmlns="http://www.w3.org/2000/svg" xmlns:xlink="http://www.w3.org/1999/xlink" x="0px" y="0px"
	 viewBox="0 0 536 680" enable-background="new 0 0 536 680" xml:space="preserve">
<g>
	<ellipse fill="#A55F19" cx="280.3" cy="639.4" rx="214.1" ry="40.9"/>
	<polygon fill="#A55F19" points="66.2,604.4 66.2,639.4 278.4,663.2 494.4,639.4 494.4,604.4 	"/>
	<ellipse fill="#C17C21" cx="280.3" cy="604.4" rx="214.1" ry="40.9"/>
	<ellipse fill="#A55F19" cx="283" cy="589.4" rx="176.2" ry="37.4"/>
	<polygon fill="#A55F19" points="106.8,557.4 106.8,589.4 281.5,611.2 459.2,589.4 459.2,557.4 	"/>
	<ellipse fill="#C17C21" cx="283" cy="557.4" rx="176.2" ry="37.4"/>
	<path fill="#F7941E" d="M238.5,88.4l-3.4,5.8l-33.6,7.7l-57.1,46.1l-8.2,3.8l24,32.6l27.1-10.1l27.1,20.2c0,0,11.5,55.7,12.5,89.8
		c1,34.1,11.5,48.5,11.5,48.5s65.3,6.7,115.7-29.3l-7.7-67.2l-18.1-35.5l5.2-37l35.5,10.6c0,0,24-15.8,25-39.4l-65.7-44.2
		L238.5,88.4z"/>
	<path fill="#FCAA32" d="M394,138.8h13l65.3,13l33.6-22.1l3.8,5.3l-14.4,12l37-1.4c0,0,0,30.7-35.5,31.7l-23.5-5.3l-54.2,1
		l-39.2-7.9C379.8,164.9,386.3,159.9,394,138.8z"/>
	<path fill="#FCAA32" d="M136.2,151.7l-10.1,1.7L86.3,170c0,0-19.2,0.5-27.8,0s-29.3-11.5-29.3-11.5s-2.4,6.7,7.2,11.7h-35
		c0,0,4.3,30,24.5,30.5l33.6-5.8l52.3-4.8L157,180C157,180,145.8,162.3,136.2,151.7z"/>
	<path fill="#DD821F" d="M238.5,332.7c0,0,15.8,65.3,26.6,74.9l30.5-20.6l54.2,5.3c0,0-1.5-47,1.9-87.1
		C351.8,305.1,292.3,333.2,238.5,332.7z"/>
	<path fill="#FCAA32" d="M236.1,68.7l1.9,20.6c0,0,4.6,18.1,28.1,22.6c0,0,17.5-1.1,18.5-22.3l-6.7-27.9L236.1,68.7z"/>
	<path fill="#FCB251" d="M238.8,68.2c0,0,6.9,12.9,18.9,17.5h16.6c0,0,14.9-9.6,8.9-38.4c-6-28.8-14.4-31-27.8-30.2
		c-13.4,0.7-29.3,9-25.9,34.3c0,0-4.6-1.4-2.6,7.5C228.7,67.7,230.5,76.2,238.8,68.2z"/>
	<path fill="#DD821F" d="M229.2,50.1l8.3,4.2l-3.1-12.7l3.1-2.2V26.2c0,0,9.7-7.1,19.9-7.4s21.9,9.6,22.5,16.3l1.5-18.1L274,7.3
		l-1,8.6l-7.9-13.7v8.6l-6.2-10.1l1.4,9.4l-5-7.9l-3.2,6.7l-2.4-7c0,0-20.1,16.1-23.5,32.6C226.3,34.6,225.2,43.4,229.2,50.1z"/>
	<path fill="#F7941E" d="M257.7,85.7c0,0,7.9,2.9,16.6,0l4.4-4.5l-4.3-3.3l-3.4,3.8l-1.4-4.9l-1.3,5.1L257.7,85.7z"/>
	<path fill="#F7941E" d="M274.1,89.3v10.6l-11.4-10.6C262.8,89.3,270,91.2,274.1,89.3z"/>
	<path fill="#DD821F" d="M265.1,49.7c0.2,0.5-4.8,3.8-4.8,3.8h3.2l4.6,2.2l2.7-3h1.8l1.4,0.8v-3.8l-5.7-8.3l4.4-5.2l5.8-0.9
		l-4.5-2.3l-4.6,0.9l-3.1,5.4l5.8,10.6l-1.6,0.7l-2.4,2.7l-3-0.7V49.7z"/>
	<path fill="#DD821F" d="M270.4,44.3l1.6-2h5.9v-2.5h-4.5c0,0-1.3-1.1-1.6,0C271.4,40.9,270.4,44.3,270.4,44.3z"/>
	<path fill="#DD821F" d="M257.7,34.2c0,0-8.4-0.5-8.9,0s-7.9,8.3-8.1,8.8c-0.2,0.5,8.5-5.9,8.5-5.9s5.5-0.2,6.2-0.2
		c0.7,0,4,0.5,4,0.5L257.7,34.2z"/>
	<path fill="#DD821F" d="M257.7,40.7l-7.7,1.1c0,0-0.5,1.6-1.3,2.5c-0.7,0.9,1.8,0.4,3.1,0c1.3-0.4,4.9-1.2,4.9-1.2L257.7,40.7z"/>
	<path fill="#DD821F" d="M272.7,58.9l4,2l-2.5,4.3c0,0-9,6.1-18.8,0c0,0,4-6.3,10.6-6.3c0,0-5.1,2.4-4.6,5.6c0,0,11.4,0,12.7-2.1
		L272.7,58.9z"/>
	<path fill="#FFC783" d="M270.4,32.1h4.7l4.2,2.5c0,0-4.1-10.5-11.1-13C268.2,21.6,272.2,27.1,270.4,32.1z"/>
	<path fill="#FFC783" d="M257.7,52.5l-14.3,9.7C243.4,62.2,243.2,50.9,257.7,52.5z"/>
	<path fill="#FFC783" d="M275.9,52.3l8.6,6C284.5,58.4,285.3,48,275.9,52.3z"/>
	<path fill="#FFC783" d="M270.4,50.2L266,38.5l6.1,11.4C272.2,49.9,271.8,50.8,270.4,50.2z"/>
	<path fill="#FFC783" d="M257.7,61.7c0,0,9.9-7.3,18.2-1.9C275.9,59.8,266.5,49.9,257.7,61.7z"/>
	<path fill="#FFC783" d="M259.4,83.5L266,80l1.4-4.9c0,0-13.3-4.1-17.4-12.4C250,62.7,245.5,76.4,259.4,83.5z"/>
	<polygon fill="#FFC783" points="233.6,65.3 236.1,59.9 231.5,52.3 227.6,55.6 230.6,58.4 231.8,66.5 	"/>
	<polygon fill="#FFC783" points="241,75.4 245,98.2 253.8,104.5 249.3,86.3 	"/>
	<polygon fill="#DD821F" points="284.2,535.2 282.4,529.8 287.5,519.7 291.4,432.6 320.2,425.4 329.9,429.3 329.9,461 309.4,525.5 
		310.5,541.7 306.2,546.7 297.5,530.9 	"/>
	<polygon fill="#FCB251" points="291.4,432.6 283.5,395.2 295.6,387 335.7,390.9 329.9,429.3 320.2,426.5 	"/>
	<polygon fill="#FCAA32" points="265.1,407.6 272.3,419.3 289.9,425.4 283.5,395.2 	"/>
	<path fill="#FCAA32" d="M293.9,573l9-3.2l3.2-11.5v-11.5l-8.6-15.8l-16.9,5.4c0,0-13.7,4-7.2,13.3
		C279.9,558.9,282.1,568.6,293.9,573z"/>
	<polygon fill="#CE7720" points="274.1,329.5 270.2,293.5 268.4,227.7 266.8,178.7 260.3,121.5 268.4,124.4 274.1,119.7 
		281.3,187.4 281.3,227.7 284.6,263 284.6,307.3 290.2,326.2 	"/>
	<path fill="#CE7720" d="M302.5,323l-4.6-29.4l4.6-23.7l-2.3-43.9l-2.3-78.8c0,0-1.6-31-2.8-32c-1.2-1.1-4.9-12.2-4.9-12.2
		l-2.7-12.8l11.5-0.6l3.6,17.1l8.3,28.4v34.6V227l6.1,35.6l-6.5,18.4l7.6,37.2"/>
	<path fill="#CE7720" d="M332.4,313.1l-1.7-29.2l-5.8-26.6l3.5-15.5l-3.5-33.1v-37.8l-2.2-17.4l2.5-23.8c0,0-1.1-12.1-2.5-15
		c-1.4-2.9-6.1-24.7-6.1-24.7l11.7,0.8l47.8,32.1c0,0,12.2,33.7-16.8,48.5l-25.9-7.7l-5.2,37l13.5,26.4l-7.2,27.9l7.2,25.6l3.9,27.2
		C345.7,307.8,334.1,312.5,332.4,313.1z"/>
	<path fill="#CE7720" d="M260.3,331.5l-4.9-29.3c0,0-5.4-43.9-4.9-45s1.6-36.4,1.6-37.4c0-1.1-4.8-57.6-4.8-57.6l-2.1-29.9
		l-1.9-20.4l-10.4-17.3l-9.6,2.2l8.4,27.9l2,49.3l4.7,70.2l4.9,60.8l5.9,27.3L260.3,331.5z"/>
	<path fill="#CE7720" d="M223.4,240.7l-1.8-52.6l-7.2-40.3v-15.1l-7.3-32.1l-5.5,1.3L157,137.7c0,0,0.5,23.6,21,40l9.4-3.5
		l27.1,20.2L223.4,240.7z"/>
	<path fill="#A55F19" d="M292.5,389.1c0,0-8.4-6.7-9-6.7s-3.5-40.6-3.5-40.6l-9.6-8.6h-14.2l14.9,10.5l-2.9,17.4l-1.4,25.8l7.5,14.4
		L292.5,389.1z"/>
	<polygon fill="#A55F19" points="214.5,194.5 207,164.9 208.5,149.8 192.4,129.7 205.1,153.4 201.3,165.2 179,139.5 196.7,170.6 
		168.6,153.4 187.4,174.3 	"/>
	<polygon fill="#A55F19" points="328.4,199.3 328.4,153.4 339.5,115.7 332.8,151.7 365.9,135.7 338.1,152.5 367.9,155.1 
		345.5,162.1 360.9,170.6 333.5,163.7 	"/>
	<polygon fill="#FFC783" points="392.1,147.2 412.5,145.3 479.5,156.1 408.4,139.1 394,138.8 	"/>
	<polygon fill="#F7941E" points="388.3,166.6 417.6,167.8 488.4,167.2 473.2,171.9 419,172.9 	"/>
	<polygon fill="#FFC783" points="137.1,152.7 125.1,153.9 86.3,170 57.3,169.9 86.2,176.2 126.3,159.8 144.6,162.1 	"/>
	<polygon fill="#F7941E" points="59.4,195 111.2,190.2 157,180 150.8,170.6 112.3,185.8 48.4,192.1 	"/>
	<path fill="#FCAA32" d="M324.2,323l5.8,12.6c0,0-7.9,15.1-7.9,15.8c0,0.7,4,35.6,4,35.6l17.5,2l-8.8-36.9l10.3-24.3l-0.9-14.7
		L324.2,323z"/>
	<path fill="#A86018" d="M237.5,54.3l-3.1-12.7l3.1-2.2v-14l-5,13.1l-5,4.2l-1.4-2.9c0,0,0,6.7,3.1,10.2L237.5,54.3z"/>
	<polygon fill="#FFC783" points="298,395.2 309.6,423.5 298,423.5 290.2,401.4 	"/>
	<path fill="#CE7720" d="M304,435.5l19.9-2.9v31L304,527.1c0,0,9.8-61.4,10-63.1C314.1,462.3,304,435.5,304,435.5z"/>
	<circle fill="#DD821F" cx="221.6" cy="527.1" r="38.6"/>
	<ellipse fill="#FCAA32" cx="223.8" cy="501.8" rx="12.5" ry="8.4"/>
</g>
</svg>
