<?xml version="1.0" encoding="utf-8"?>
<!-- Generator: Adobe Illustrator 18.1.0, SVG Export Plug-In . SVG Version: 6.00 Build 0)  -->
<!DOCTYPE svg PUBLIC "-//W3C//DTD SVG 1.1//EN" "http://www.w3.org/Graphics/SVG/1.1/DTD/svg11.dtd">
<svg version="1.1" id="Layer_1" xmlns="http://www.w3.org/2000/svg" xmlns:xlink="http://www.w3.org/1999/xlink" x="0px" y="0px"
	 viewBox="0 0 845.5 103.8" enable-background="new 0 0 845.5 103.8" xml:space="preserve">
<rect x="275" y="7.8" fill="#303030" width="2.1" height="78.5"/>
<rect x="283.5" y="7.8" fill="#303030" width="2.1" height="78.5"/>
<rect x="279.2" y="7.8" fill="#303030" width="2.1" height="78.5"/>
<rect x="277.2" y="8.6" fill="#577375" width="2.1" height="77.1"/>
<rect x="281.3" y="8.6" fill="#577375" width="2.1" height="77.1"/>
<g opacity="0.51">
	<rect x="275" y="44.9" width="2.1" height="41.5"/>
	<rect x="283.5" y="44.9" width="2.1" height="41.5"/>
	<rect x="279.2" y="44.9" width="2.1" height="41.5"/>
	<rect x="277.2" y="45.3" width="2.1" height="40.7"/>
	<rect x="281.3" y="45.3" width="2.1" height="40.7"/>
</g>
<g>
	<polygon fill="#424242" points="0,92 0,102 49,102 49.2,102 51.1,100 71.6,100 73.5,102 73.6,102 74,102 74,102 104.2,102 205,102 
		205.2,102 207.1,100 227.6,100 229.5,102 229.6,102 230,102 230,102 275,102 275,92 	"/>
	<polygon fill="#FFFFFF" points="229.6,102 230,102 230,102 	"/>
	<polygon fill="#FFFFFF" points="73.6,102 74,102 74,102 	"/>
	<path d="M191,89.1c-34-0.2-72-0.5-106-0.7V88h106V89.1z"/>
	<path fill="#577375" d="M210.1,24H200c-0.8,0-1.8,0.1-2.5,0.5c-0.8,0.7-1.5,1.5-1.5,2.7v24.5l18-17.2v-7.3
		C214,25.1,212.2,24,210.1,24z"/>
	<path fill="#D6D6D6" d="M275.2,92.3H0.3V5c0-2.6,2.1-4.7,4.7-4.7h265.5c2.6,0,4.7,2.1,4.7,4.7V92.3z"/>
	<rect x="0.3" y="7.4" fill="#EC6E00" width="274.9" height="58.9"/>
	<rect x="0.3" y="66.3" fill="#E3E3E3" width="274.9" height="11.3"/>
	<rect x="0.3" y="7.5" fill="#D66300" width="274.9" height="1.7"/>
	<path fill="#D9D9D9" d="M83.2,91.8H31.8V25.2c0-2.5,2-4.4,4.4-4.4h42.6c2.5,0,4.4,2,4.4,4.4V91.8z"/>
	<path fill="#658587" d="M83.9,92.1H31.7v-67c0-2.6,2.2-4.8,4.8-4.8h42.6c2.6,0,4.8,2.2,4.8,4.8V92.1z M32.4,91.4h50.7V25.1
		c0-2.2-1.8-4.1-4.1-4.1H36.5c-2.2,0-4.1,1.8-4.1,4.1V91.4z"/>
	<g>
		<path fill="#D9D9D9" d="M164,57.6H111c-0.9,0-1.7-0.8-1.7-1.7V25.1c0-2,1.6-3.6,3.6-3.6h50.8c2,0,3.6,1.6,3.6,3.6v29.1
			C167.3,56.1,165.8,57.6,164,57.6z"/>
		<path fill="#D9D9D9" d="M164,57.9H111c-1.1,0-2.1-0.9-2.1-2.1V25.1c0-2.2,1.8-3.9,3.9-3.9h50.8c2.2,0,3.9,1.8,3.9,3.9v29.1
			C167.6,56.3,166,57.9,164,57.9z M112.9,21.9c-1.8,0-3.2,1.4-3.2,3.2v30.7c0,0.8,0.6,1.4,1.4,1.4H164c1.6,0,2.9-1.3,2.9-2.9V25.1
			c0-1.8-1.4-3.2-3.2-3.2H112.9z"/>
	</g>
	<path fill="#4C6466" d="M163.6,56.2h-52c-0.5,0-0.8-0.4-0.8-0.8V25.5c0-1.4,1.1-2.5,2.5-2.5h50c1.4,0,2.5,1.1,2.5,2.5v28.5
		C165.8,55.2,164.8,56.2,163.6,56.2z"/>
	<path fill="#658587" d="M163.6,56.5h-52c-0.6,0-1.2-0.5-1.2-1.2V25.5c0-1.6,1.3-2.8,2.8-2.8h50c1.6,0,2.8,1.3,2.8,2.8v28.5
		C166.2,55.4,165,56.5,163.6,56.5z M113.3,23.3c-1.2,0-2.1,1-2.1,2.1v29.9c0,0.3,0.2,0.5,0.5,0.5h52c1,0,1.9-0.8,1.9-1.9V25.5
		c0-1.2-1-2.1-2.1-2.1H113.3z"/>
	<g>
		<path fill="#4C6466" d="M50,56.8H39.9c-2.1,0-3.8-1.7-3.8-3.8V27.2c0-2.1,1.7-3.8,3.8-3.8H50c2.1,0,3.8,1.7,3.8,3.8V53
			C53.8,55.1,52.1,56.8,50,56.8z"/>
		<path fill="#424242" d="M50,57.1H39.9c-2.3,0-4.1-1.8-4.1-4.1V27.2c0-2.3,1.8-4.1,4.1-4.1H50c2.3,0,4.1,1.8,4.1,4.1V53
			C54.2,55.3,52.3,57.1,50,57.1z M39.9,23.8c-1.9,0-3.4,1.5-3.4,3.4V53c0,1.9,1.5,3.4,3.4,3.4H50c1.9,0,3.4-1.5,3.4-3.4V27.2
			c0-1.9-1.5-3.4-3.4-3.4H39.9z"/>
	</g>
	<path fill="#577375" d="M50,24H39.9c-0.8,0-1.8,0.1-2.5,0.5C36.6,25.2,36,26,36,27.2v24.5l18-17.2v-7.3C54,25.1,52.1,24,50,24z"/>
	<rect x="57.5" y="20.7" fill="#658587" width="0.5" height="71.3"/>
	<rect x="58.1" y="21" opacity="0.46" fill="#FFFFFF" width="0.7" height="70.4"/>
	<rect x="31.2" y="92" fill="#545454" width="53.6" height="2.1"/>
	<rect x="31.2" y="94.2" fill="#6E6E6E" width="53.6" height="0.4"/>
	<rect x="111.1" y="38.9" fill="#658587" width="54.9" height="0.8"/>
	<rect x="110.1" y="37.7" fill="#D9D9D9" width="56.4" height="1.3"/>
	<path fill="#658587" d="M50,57.1H39.9c-2.3,0-4.1-1.8-4.1-4.1V27.2c0-2.3,1.8-4.1,4.1-4.1H50c2.3,0,4.1,1.8,4.1,4.1V53
		C54.2,55.3,52.3,57.1,50,57.1z M39.9,23.8c-1.9,0-3.4,1.5-3.4,3.4V53c0,1.9,1.5,3.4,3.4,3.4H50c1.9,0,3.4-1.5,3.4-3.4V27.2
		c0-1.9-1.5-3.4-3.4-3.4H39.9z"/>
	<g>
		<path fill="#4C6466" d="M75.7,56.8H65.6c-2.1,0-3.8-1.7-3.8-3.8V27.2c0-2.1,1.7-3.8,3.8-3.8h10.1c2.1,0,3.8,1.7,3.8,3.8V53
			C79.4,55.1,77.8,56.8,75.7,56.8z"/>
		<path fill="#424242" d="M75.7,57.1H65.6c-2.3,0-4.1-1.8-4.1-4.1V27.2c0-2.3,1.8-4.1,4.1-4.1h10.1c2.3,0,4.1,1.8,4.1,4.1V53
			C79.8,55.3,77.9,57.1,75.7,57.1z M65.6,23.8c-1.9,0-3.4,1.5-3.4,3.4V53c0,1.9,1.5,3.4,3.4,3.4h10.1c1.9,0,3.4-1.5,3.4-3.4V27.2
			c0-1.9-1.5-3.4-3.4-3.4H65.6z"/>
	</g>
	<path fill="#D9D9D9" d="M243.3,91.8h-51.5V25.2c0-2.5,2-4.4,4.4-4.4h42.6c2.5,0,4.4,2,4.4,4.4V91.8z"/>
	<path fill="#658587" d="M243.9,92.1h-52.2v-67c0-2.6,2.2-4.8,4.8-4.8h42.6c2.6,0,4.8,2.2,4.8,4.8V92.1z M192.5,91.4h50.7V25.1
		c0-2.2-1.8-4.1-4.1-4.1h-42.6c-2.2,0-4.1,1.8-4.1,4.1V91.4z"/>
	<g>
		<path fill="#4C6466" d="M210.1,56.8H200c-2.1,0-3.8-1.7-3.8-3.8V27.2c0-2.1,1.7-3.8,3.8-3.8h10.1c2.1,0,3.8,1.7,3.8,3.8V53
			C213.9,55.1,212.2,56.8,210.1,56.8z"/>
		<path fill="#424242" d="M210.1,57.1H200c-2.3,0-4.1-1.8-4.1-4.1V27.2c0-2.3,1.8-4.1,4.1-4.1h10.1c2.3,0,4.1,1.8,4.1,4.1V53
			C214.2,55.3,212.4,57.1,210.1,57.1z M200,23.8c-1.9,0-3.4,1.5-3.4,3.4V53c0,1.9,1.5,3.4,3.4,3.4h10.1c1.9,0,3.4-1.5,3.4-3.4V27.2
			c0-1.9-1.5-3.4-3.4-3.4H200z"/>
	</g>
	<rect x="217.6" y="20.7" fill="#658587" width="0.5" height="71.3"/>
	<rect x="218.2" y="21" opacity="0.46" fill="#FFFFFF" width="0.7" height="70.4"/>
	<rect x="191.2" y="92" fill="#545454" width="53.6" height="2.1"/>
	<rect x="191.2" y="94.2" fill="#6E6E6E" width="53.6" height="0.4"/>
	<path fill="#658587" d="M210.1,57.1H200c-2.3,0-4.1-1.8-4.1-4.1V27.2c0-2.3,1.8-4.1,4.1-4.1h10.1c2.3,0,4.1,1.8,4.1,4.1V53
		C214.2,55.3,212.4,57.1,210.1,57.1z M200,23.8c-1.9,0-3.4,1.5-3.4,3.4V53c0,1.9,1.5,3.4,3.4,3.4h10.1c1.9,0,3.4-1.5,3.4-3.4V27.2
		c0-1.9-1.5-3.4-3.4-3.4H200z"/>
	<g>
		<path fill="#4C6466" d="M235.8,56.8h-10.1c-2.1,0-3.8-1.7-3.8-3.8V27.2c0-2.1,1.7-3.8,3.8-3.8h10.1c2.1,0,3.8,1.7,3.8,3.8V53
			C239.5,55.1,237.8,56.8,235.8,56.8z"/>
		<path fill="#424242" d="M235.8,57.1h-10.1c-2.3,0-4.1-1.8-4.1-4.1V27.2c0-2.3,1.8-4.1,4.1-4.1h10.1c2.3,0,4.1,1.8,4.1,4.1V53
			C239.9,55.3,238,57.1,235.8,57.1z M225.6,23.8c-1.9,0-3.4,1.5-3.4,3.4V53c0,1.9,1.5,3.4,3.4,3.4h10.1c1.9,0,3.4-1.5,3.4-3.4V27.2
			c0-1.9-1.5-3.4-3.4-3.4H225.6z"/>
	</g>
	<path fill="#577375" d="M235.8,24h-10.1c-0.8,0-1.6,0.1-2.4,0.5c-0.8,0.7-1.3,1.5-1.3,2.7v24.5l17-17.2v-7.3
		C239,25.1,237.8,24,235.8,24z"/>
	<path fill="#658587" d="M235.8,57.1h-10.1c-2.3,0-4.1-1.8-4.1-4.1V27.2c0-2.3,1.8-4.1,4.1-4.1h10.1c2.3,0,4.1,1.8,4.1,4.1V53
		C239.9,55.3,238,57.1,235.8,57.1z M225.6,23.8c-1.9,0-3.4,1.5-3.4,3.4V53c0,1.9,1.5,3.4,3.4,3.4h10.1c1.9,0,3.4-1.5,3.4-3.4V27.2
		c0-1.9-1.5-3.4-3.4-3.4H225.6z"/>
	<path fill="#577375" d="M75.7,24H65.6c-0.8,0-1.6,0.1-2.3,0.5C62.4,25.2,62,26,62,27.2v24.5l17-17.2v-7.3C79,25.1,77.8,24,75.7,24z
		"/>
	<path fill="#658587" d="M75.7,57.1H65.6c-2.3,0-4.1-1.8-4.1-4.1V27.2c0-2.3,1.8-4.1,4.1-4.1h10.1c2.3,0,4.1,1.8,4.1,4.1V53
		C79.8,55.3,77.9,57.1,75.7,57.1z M65.6,23.8c-1.9,0-3.4,1.5-3.4,3.4V53c0,1.9,1.5,3.4,3.4,3.4h10.1c1.9,0,3.4-1.5,3.4-3.4V27.2
		c0-1.9-1.5-3.4-3.4-3.4H65.6z"/>
	<path fill="#577375" d="M210.1,24H200c-0.8,0-1.8,0.1-2.5,0.5c-0.8,0.7-1.5,1.5-1.5,2.7v24.5l18-17.2v-7.3
		C214,25.1,212.2,24,210.1,24z"/>
</g>
<g>
	<path fill="#424242" d="M285,92.3v9.7h49h0.2l2-2h20.4l2,2h0l0.4,0v0h30.2H490h0.2l2-2h20.4l2,2h0l0.4,0v0h45V91.7
		C560,91.7,286,91.7,285,92.3z"/>
	<polygon fill="#FFFFFF" points="514.6,102 515,102 515,102 	"/>
	<polygon fill="#FFFFFF" points="358.6,102 359,102 359,102 	"/>
	<path d="M476,89.1c-34-0.2-72-0.5-106-0.7V88h106V89.1z"/>
	<path fill="#577375" d="M495.1,24H485c-0.8,0-1.8,0.1-2.5,0.5c-0.8,0.7-1.5,1.5-1.5,2.7v24.5l18-17.2v-7.3
		C499,25.1,497.2,24,495.1,24z"/>
	<path fill="#D6D6D6" d="M560.2,92.3H285.3V5c0-2.6,2.1-4.7,4.7-4.7h265.5c2.6,0,4.7,2.1,4.7,4.7V92.3z"/>
	<rect x="285.3" y="7.4" fill="#EC6E00" width="274.9" height="58.9"/>
	<rect x="285.3" y="66.3" fill="#E3E3E3" width="274.9" height="11.3"/>
	<rect x="285.3" y="7.5" fill="#D66300" width="274.9" height="1.7"/>
	<path fill="#D9D9D9" d="M368.2,91.8h-51.5V25.2c0-2.5,2-4.4,4.4-4.4h42.6c2.5,0,4.4,2,4.4,4.4V91.8z"/>
	<path fill="#658587" d="M368.9,92.1h-52.2v-67c0-2.6,2.2-4.8,4.8-4.8h42.6c2.6,0,4.8,2.2,4.8,4.8V92.1z M317.4,91.4h50.7V25.1
		c0-2.2-1.8-4.1-4.1-4.1h-42.6c-2.2,0-4.1,1.8-4.1,4.1V91.4z"/>
	<g>
		<path fill="#D9D9D9" d="M449,57.6H396c-0.9,0-1.7-0.8-1.7-1.7V25.1c0-2,1.6-3.6,3.6-3.6h50.8c2,0,3.6,1.6,3.6,3.6v29.1
			C452.3,56.1,450.8,57.6,449,57.6z"/>
		<path fill="#D9D9D9" d="M449,57.9H396c-1.1,0-2.1-0.9-2.1-2.1V25.1c0-2.2,1.8-3.9,3.9-3.9h50.8c2.2,0,3.9,1.8,3.9,3.9v29.1
			C452.6,56.3,451,57.9,449,57.9z M397.9,21.9c-1.8,0-3.2,1.4-3.2,3.2v30.7c0,0.8,0.6,1.4,1.4,1.4H449c1.6,0,2.9-1.3,2.9-2.9V25.1
			c0-1.8-1.4-3.2-3.2-3.2H397.9z"/>
	</g>
	<path fill="#4C6466" d="M448.6,56.2h-52c-0.5,0-0.8-0.4-0.8-0.8V25.5c0-1.4,1.1-2.5,2.5-2.5h50c1.4,0,2.5,1.1,2.5,2.5v28.5
		C450.8,55.2,449.8,56.2,448.6,56.2z"/>
	<path fill="#658587" d="M448.6,56.5h-52c-0.6,0-1.2-0.5-1.2-1.2V25.5c0-1.6,1.3-2.8,2.8-2.8h50c1.6,0,2.8,1.3,2.8,2.8v28.5
		C451.2,55.4,450,56.5,448.6,56.5z M398.3,23.3c-1.2,0-2.1,1-2.1,2.1v29.9c0,0.3,0.2,0.5,0.5,0.5h52c1,0,1.9-0.8,1.9-1.9V25.5
		c0-1.2-1-2.1-2.1-2.1H398.3z"/>
	<g>
		<path fill="#4C6466" d="M335,56.8h-10.1c-2.1,0-3.8-1.7-3.8-3.8V27.2c0-2.1,1.7-3.8,3.8-3.8H335c2.1,0,3.8,1.7,3.8,3.8V53
			C338.8,55.1,337.1,56.8,335,56.8z"/>
		<path fill="#424242" d="M335,57.1h-10.1c-2.3,0-4.1-1.8-4.1-4.1V27.2c0-2.3,1.8-4.1,4.1-4.1H335c2.3,0,4.1,1.8,4.1,4.1V53
			C339.2,55.3,337.3,57.1,335,57.1z M324.9,23.8c-1.9,0-3.4,1.5-3.4,3.4V53c0,1.9,1.5,3.4,3.4,3.4H335c1.9,0,3.4-1.5,3.4-3.4V27.2
			c0-1.9-1.5-3.4-3.4-3.4H324.9z"/>
	</g>
	<path fill="#577375" d="M335,24h-10.1c-0.8,0-1.8,0.1-2.5,0.5c-0.8,0.7-1.4,1.5-1.4,2.7v24.5l18-17.2v-7.3
		C339,25.1,337.1,24,335,24z"/>
	<rect x="342.5" y="20.7" fill="#658587" width="0.5" height="71.3"/>
	<rect x="343.1" y="21" opacity="0.46" fill="#FFFFFF" width="0.7" height="70.4"/>
	<rect x="316.2" y="92" fill="#545454" width="53.6" height="2.1"/>
	<rect x="316.2" y="94.2" fill="#6E6E6E" width="53.6" height="0.4"/>
	<rect x="396.1" y="38.9" fill="#658587" width="54.9" height="0.8"/>
	<rect x="395.1" y="37.7" fill="#D9D9D9" width="56.4" height="1.3"/>
	<path fill="#658587" d="M335,57.1h-10.1c-2.3,0-4.1-1.8-4.1-4.1V27.2c0-2.3,1.8-4.1,4.1-4.1H335c2.3,0,4.1,1.8,4.1,4.1V53
		C339.2,55.3,337.3,57.1,335,57.1z M324.9,23.8c-1.9,0-3.4,1.5-3.4,3.4V53c0,1.9,1.5,3.4,3.4,3.4H335c1.9,0,3.4-1.5,3.4-3.4V27.2
		c0-1.9-1.5-3.4-3.4-3.4H324.9z"/>
	<g>
		<path fill="#4C6466" d="M360.7,56.8h-10.1c-2.1,0-3.8-1.7-3.8-3.8V27.2c0-2.1,1.7-3.8,3.8-3.8h10.1c2.1,0,3.8,1.7,3.8,3.8V53
			C364.4,55.1,362.8,56.8,360.7,56.8z"/>
		<path fill="#424242" d="M360.7,57.1h-10.1c-2.3,0-4.1-1.8-4.1-4.1V27.2c0-2.3,1.8-4.1,4.1-4.1h10.1c2.3,0,4.1,1.8,4.1,4.1V53
			C364.8,55.3,362.9,57.1,360.7,57.1z M350.6,23.8c-1.9,0-3.4,1.5-3.4,3.4V53c0,1.9,1.5,3.4,3.4,3.4h10.1c1.9,0,3.4-1.5,3.4-3.4
			V27.2c0-1.9-1.5-3.4-3.4-3.4H350.6z"/>
	</g>
	<path fill="#D9D9D9" d="M528.3,91.8h-51.5V25.2c0-2.5,2-4.4,4.4-4.4h42.6c2.5,0,4.4,2,4.4,4.4V91.8z"/>
	<path fill="#658587" d="M528.9,92.1h-52.2v-67c0-2.6,2.2-4.8,4.8-4.8h42.6c2.6,0,4.8,2.2,4.8,4.8V92.1z M477.5,91.4h50.7V25.1
		c0-2.2-1.8-4.1-4.1-4.1h-42.6c-2.2,0-4.1,1.8-4.1,4.1V91.4z"/>
	<g>
		<path fill="#4C6466" d="M495.1,56.8H485c-2.1,0-3.8-1.7-3.8-3.8V27.2c0-2.1,1.7-3.8,3.8-3.8h10.1c2.1,0,3.8,1.7,3.8,3.8V53
			C498.9,55.1,497.2,56.8,495.1,56.8z"/>
		<path fill="#424242" d="M495.1,57.1H485c-2.3,0-4.1-1.8-4.1-4.1V27.2c0-2.3,1.8-4.1,4.1-4.1h10.1c2.3,0,4.1,1.8,4.1,4.1V53
			C499.2,55.3,497.4,57.1,495.1,57.1z M485,23.8c-1.9,0-3.4,1.5-3.4,3.4V53c0,1.9,1.5,3.4,3.4,3.4h10.1c1.9,0,3.4-1.5,3.4-3.4V27.2
			c0-1.9-1.5-3.4-3.4-3.4H485z"/>
	</g>
	<rect x="502.6" y="20.7" fill="#658587" width="0.5" height="71.3"/>
	<rect x="503.2" y="21" opacity="0.46" fill="#FFFFFF" width="0.7" height="70.4"/>
	<rect x="476.2" y="92" fill="#545454" width="53.6" height="2.1"/>
	<rect x="476.2" y="94.2" fill="#6E6E6E" width="53.6" height="0.4"/>
	<path fill="#658587" d="M495.1,57.1H485c-2.3,0-4.1-1.8-4.1-4.1V27.2c0-2.3,1.8-4.1,4.1-4.1h10.1c2.3,0,4.1,1.8,4.1,4.1V53
		C499.2,55.3,497.4,57.1,495.1,57.1z M485,23.8c-1.9,0-3.4,1.5-3.4,3.4V53c0,1.9,1.5,3.4,3.4,3.4h10.1c1.9,0,3.4-1.5,3.4-3.4V27.2
		c0-1.9-1.5-3.4-3.4-3.4H485z"/>
	<g>
		<path fill="#4C6466" d="M520.8,56.8h-10.1c-2.1,0-3.8-1.7-3.8-3.8V27.2c0-2.1,1.7-3.8,3.8-3.8h10.1c2.1,0,3.8,1.7,3.8,3.8V53
			C524.5,55.1,522.8,56.8,520.8,56.8z"/>
		<path fill="#424242" d="M520.8,57.1h-10.1c-2.3,0-4.1-1.8-4.1-4.1V27.2c0-2.3,1.8-4.1,4.1-4.1h10.1c2.3,0,4.1,1.8,4.1,4.1V53
			C524.9,55.3,523,57.1,520.8,57.1z M510.6,23.8c-1.9,0-3.4,1.5-3.4,3.4V53c0,1.9,1.5,3.4,3.4,3.4h10.1c1.9,0,3.4-1.5,3.4-3.4V27.2
			c0-1.9-1.5-3.4-3.4-3.4H510.6z"/>
	</g>
	<path fill="#577375" d="M520.8,24h-10.1c-0.8,0-1.6,0.1-2.4,0.5c-0.8,0.7-1.3,1.5-1.3,2.7v24.5l17-17.2v-7.3
		C524,25.1,522.8,24,520.8,24z"/>
	<path fill="#658587" d="M520.8,57.1h-10.1c-2.3,0-4.1-1.8-4.1-4.1V27.2c0-2.3,1.8-4.1,4.1-4.1h10.1c2.3,0,4.1,1.8,4.1,4.1V53
		C524.9,55.3,523,57.1,520.8,57.1z M510.6,23.8c-1.9,0-3.4,1.5-3.4,3.4V53c0,1.9,1.5,3.4,3.4,3.4h10.1c1.9,0,3.4-1.5,3.4-3.4V27.2
		c0-1.9-1.5-3.4-3.4-3.4H510.6z"/>
	<path fill="#577375" d="M360.7,24h-10.1c-0.8,0-1.6,0.1-2.3,0.5c-0.8,0.7-1.2,1.5-1.2,2.7v24.5l17-17.2v-7.3
		C364,25.1,362.8,24,360.7,24z"/>
	<path fill="#658587" d="M360.7,57.1h-10.1c-2.3,0-4.1-1.8-4.1-4.1V27.2c0-2.3,1.8-4.1,4.1-4.1h10.1c2.3,0,4.1,1.8,4.1,4.1V53
		C364.8,55.3,362.9,57.1,360.7,57.1z M350.6,23.8c-1.9,0-3.4,1.5-3.4,3.4V53c0,1.9,1.5,3.4,3.4,3.4h10.1c1.9,0,3.4-1.5,3.4-3.4V27.2
		c0-1.9-1.5-3.4-3.4-3.4H350.6z"/>
	<path fill="#577375" d="M495.1,24H485c-0.8,0-1.8,0.1-2.5,0.5c-0.8,0.7-1.5,1.5-1.5,2.7v24.5l18-17.2v-7.3
		C499,25.1,497.2,24,495.1,24z"/>
</g>
<rect x="560" y="7.8" fill="#303030" width="2.1" height="78.5"/>
<rect x="568.5" y="7.8" fill="#303030" width="2.1" height="78.5"/>
<rect x="564.2" y="7.8" fill="#303030" width="2.1" height="78.5"/>
<rect x="562.2" y="8.6" fill="#577375" width="2.1" height="77.1"/>
<rect x="566.3" y="8.6" fill="#577375" width="2.1" height="77.1"/>
<g opacity="0.51">
	<rect x="560" y="44.9" width="2.1" height="41.5"/>
	<rect x="568.5" y="44.9" width="2.1" height="41.5"/>
	<rect x="564.2" y="44.9" width="2.1" height="41.5"/>
	<rect x="562.2" y="45.3" width="2.1" height="40.7"/>
	<rect x="566.3" y="45.3" width="2.1" height="40.7"/>
</g>
<g>
	<path fill="#424242" d="M570,92.3v9.7h49h0.2l2-2h20.4l2,2h0l0.4,0v0h30.2H775h0.2l2-2h20.4l2,2h0l0.4,0v0h45V91.7
		C845,91.7,571,91.7,570,92.3z"/>
	<polygon fill="#FFFFFF" points="799.6,102 800,102 800,102 	"/>
	<polygon fill="#FFFFFF" points="643.6,102 644,102 644,102 	"/>
	<path d="M761,89.1c-34-0.2-72-0.5-106-0.7V88h106V89.1z"/>
	<path fill="#577375" d="M780.1,24H770c-0.8,0-1.8,0.1-2.5,0.5c-0.8,0.7-1.5,1.5-1.5,2.7v24.5l18-17.2v-7.3
		C784,25.1,782.2,24,780.1,24z"/>
	<path fill="#D6D6D6" d="M845.2,92.3H570.3V5c0-2.6,2.1-4.7,4.7-4.7h265.5c2.6,0,4.7,2.1,4.7,4.7V92.3z"/>
	<rect x="570.3" y="7.4" fill="#EC6E00" width="274.9" height="58.9"/>
	<rect x="570.3" y="66.3" fill="#E3E3E3" width="274.9" height="11.3"/>
	<rect x="570.3" y="7.5" fill="#D66300" width="274.9" height="1.7"/>
	<path fill="#D9D9D9" d="M653.2,91.8h-51.5V25.2c0-2.5,2-4.4,4.4-4.4h42.6c2.5,0,4.4,2,4.4,4.4V91.8z"/>
	<path fill="#658587" d="M653.9,92.1h-52.2v-67c0-2.6,2.2-4.8,4.8-4.8h42.6c2.6,0,4.8,2.2,4.8,4.8V92.1z M602.4,91.4h50.7V25.1
		c0-2.2-1.8-4.1-4.1-4.1h-42.6c-2.2,0-4.1,1.8-4.1,4.1V91.4z"/>
	<g>
		<path fill="#D9D9D9" d="M734,57.6H681c-0.9,0-1.7-0.8-1.7-1.7V25.1c0-2,1.6-3.6,3.6-3.6h50.8c2,0,3.6,1.6,3.6,3.6v29.1
			C737.3,56.1,735.8,57.6,734,57.6z"/>
		<path fill="#D9D9D9" d="M734,57.9H681c-1.1,0-2.1-0.9-2.1-2.1V25.1c0-2.2,1.8-3.9,3.9-3.9h50.8c2.2,0,3.9,1.8,3.9,3.9v29.1
			C737.6,56.3,736,57.9,734,57.9z M682.9,21.9c-1.8,0-3.2,1.4-3.2,3.2v30.7c0,0.8,0.6,1.4,1.4,1.4H734c1.6,0,2.9-1.3,2.9-2.9V25.1
			c0-1.8-1.4-3.2-3.2-3.2H682.9z"/>
	</g>
	<path fill="#4C6466" d="M733.6,56.2h-52c-0.5,0-0.8-0.4-0.8-0.8V25.5c0-1.4,1.1-2.5,2.5-2.5h50c1.4,0,2.5,1.1,2.5,2.5v28.5
		C735.8,55.2,734.8,56.2,733.6,56.2z"/>
	<path fill="#658587" d="M733.6,56.5h-52c-0.6,0-1.2-0.5-1.2-1.2V25.5c0-1.6,1.3-2.8,2.8-2.8h50c1.6,0,2.8,1.3,2.8,2.8v28.5
		C736.2,55.4,735,56.5,733.6,56.5z M683.3,23.3c-1.2,0-2.1,1-2.1,2.1v29.9c0,0.3,0.2,0.5,0.5,0.5h52c1,0,1.9-0.8,1.9-1.9V25.5
		c0-1.2-1-2.1-2.1-2.1H683.3z"/>
	<g>
		<path fill="#4C6466" d="M620,56.8h-10.1c-2.1,0-3.8-1.7-3.8-3.8V27.2c0-2.1,1.7-3.8,3.8-3.8H620c2.1,0,3.8,1.7,3.8,3.8V53
			C623.8,55.1,622.1,56.8,620,56.8z"/>
		<path fill="#424242" d="M620,57.1h-10.1c-2.3,0-4.1-1.8-4.1-4.1V27.2c0-2.3,1.8-4.1,4.1-4.1H620c2.3,0,4.1,1.8,4.1,4.1V53
			C624.2,55.3,622.3,57.1,620,57.1z M609.9,23.8c-1.9,0-3.4,1.5-3.4,3.4V53c0,1.9,1.5,3.4,3.4,3.4H620c1.9,0,3.4-1.5,3.4-3.4V27.2
			c0-1.9-1.5-3.4-3.4-3.4H609.9z"/>
	</g>
	<path fill="#577375" d="M620,24h-10.1c-0.8,0-1.8,0.1-2.5,0.5c-0.8,0.7-1.4,1.5-1.4,2.7v24.5l18-17.2v-7.3
		C624,25.1,622.1,24,620,24z"/>
	<rect x="627.5" y="20.7" fill="#658587" width="0.5" height="71.3"/>
	<rect x="628.1" y="21" opacity="0.46" fill="#FFFFFF" width="0.7" height="70.4"/>
	<rect x="601.2" y="92" fill="#545454" width="53.6" height="2.1"/>
	<rect x="601.2" y="94.2" fill="#6E6E6E" width="53.6" height="0.4"/>
	<rect x="681.1" y="38.9" fill="#658587" width="54.9" height="0.8"/>
	<rect x="680.1" y="37.7" fill="#D9D9D9" width="56.4" height="1.3"/>
	<path fill="#658587" d="M620,57.1h-10.1c-2.3,0-4.1-1.8-4.1-4.1V27.2c0-2.3,1.8-4.1,4.1-4.1H620c2.3,0,4.1,1.8,4.1,4.1V53
		C624.2,55.3,622.3,57.1,620,57.1z M609.9,23.8c-1.9,0-3.4,1.5-3.4,3.4V53c0,1.9,1.5,3.4,3.4,3.4H620c1.9,0,3.4-1.5,3.4-3.4V27.2
		c0-1.9-1.5-3.4-3.4-3.4H609.9z"/>
	<g>
		<path fill="#4C6466" d="M645.7,56.8h-10.1c-2.1,0-3.8-1.7-3.8-3.8V27.2c0-2.1,1.7-3.8,3.8-3.8h10.1c2.1,0,3.8,1.7,3.8,3.8V53
			C649.4,55.1,647.8,56.8,645.7,56.8z"/>
		<path fill="#424242" d="M645.7,57.1h-10.1c-2.3,0-4.1-1.8-4.1-4.1V27.2c0-2.3,1.8-4.1,4.1-4.1h10.1c2.3,0,4.1,1.8,4.1,4.1V53
			C649.8,55.3,647.9,57.1,645.7,57.1z M635.6,23.8c-1.9,0-3.4,1.5-3.4,3.4V53c0,1.9,1.5,3.4,3.4,3.4h10.1c1.9,0,3.4-1.5,3.4-3.4
			V27.2c0-1.9-1.5-3.4-3.4-3.4H635.6z"/>
	</g>
	<path fill="#D9D9D9" d="M813.3,91.8h-51.5V25.2c0-2.5,2-4.4,4.4-4.4h42.6c2.5,0,4.4,2,4.4,4.4V91.8z"/>
	<path fill="#658587" d="M813.9,92.1h-52.2v-67c0-2.6,2.2-4.8,4.8-4.8h42.6c2.6,0,4.8,2.2,4.8,4.8V92.1z M762.5,91.4h50.7V25.1
		c0-2.2-1.8-4.1-4.1-4.1h-42.6c-2.2,0-4.1,1.8-4.1,4.1V91.4z"/>
	<g>
		<path fill="#4C6466" d="M780.1,56.8H770c-2.1,0-3.8-1.7-3.8-3.8V27.2c0-2.1,1.7-3.8,3.8-3.8h10.1c2.1,0,3.8,1.7,3.8,3.8V53
			C783.9,55.1,782.2,56.8,780.1,56.8z"/>
		<path fill="#424242" d="M780.1,57.1H770c-2.3,0-4.1-1.8-4.1-4.1V27.2c0-2.3,1.8-4.1,4.1-4.1h10.1c2.3,0,4.1,1.8,4.1,4.1V53
			C784.2,55.3,782.4,57.1,780.1,57.1z M770,23.8c-1.9,0-3.4,1.5-3.4,3.4V53c0,1.9,1.5,3.4,3.4,3.4h10.1c1.9,0,3.4-1.5,3.4-3.4V27.2
			c0-1.9-1.5-3.4-3.4-3.4H770z"/>
	</g>
	<rect x="787.6" y="20.7" fill="#658587" width="0.5" height="71.3"/>
	<rect x="788.2" y="21" opacity="0.46" fill="#FFFFFF" width="0.7" height="70.4"/>
	<rect x="761.2" y="92" fill="#545454" width="53.6" height="2.1"/>
	<rect x="761.2" y="94.2" fill="#6E6E6E" width="53.6" height="0.4"/>
	<path fill="#658587" d="M780.1,57.1H770c-2.3,0-4.1-1.8-4.1-4.1V27.2c0-2.3,1.8-4.1,4.1-4.1h10.1c2.3,0,4.1,1.8,4.1,4.1V53
		C784.2,55.3,782.4,57.1,780.1,57.1z M770,23.8c-1.9,0-3.4,1.5-3.4,3.4V53c0,1.9,1.5,3.4,3.4,3.4h10.1c1.9,0,3.4-1.5,3.4-3.4V27.2
		c0-1.9-1.5-3.4-3.4-3.4H770z"/>
	<g>
		<path fill="#4C6466" d="M805.8,56.8h-10.1c-2.1,0-3.8-1.7-3.8-3.8V27.2c0-2.1,1.7-3.8,3.8-3.8h10.1c2.1,0,3.8,1.7,3.8,3.8V53
			C809.5,55.1,807.8,56.8,805.8,56.8z"/>
		<path fill="#424242" d="M805.8,57.1h-10.1c-2.3,0-4.1-1.8-4.1-4.1V27.2c0-2.3,1.8-4.1,4.1-4.1h10.1c2.3,0,4.1,1.8,4.1,4.1V53
			C809.9,55.3,808,57.1,805.8,57.1z M795.6,23.8c-1.9,0-3.4,1.5-3.4,3.4V53c0,1.9,1.5,3.4,3.4,3.4h10.1c1.9,0,3.4-1.5,3.4-3.4V27.2
			c0-1.9-1.5-3.4-3.4-3.4H795.6z"/>
	</g>
	<path fill="#577375" d="M805.8,24h-10.1c-0.8,0-1.6,0.1-2.4,0.5c-0.8,0.7-1.3,1.5-1.3,2.7v24.5l17-17.2v-7.3
		C809,25.1,807.8,24,805.8,24z"/>
	<path fill="#658587" d="M805.8,57.1h-10.1c-2.3,0-4.1-1.8-4.1-4.1V27.2c0-2.3,1.8-4.1,4.1-4.1h10.1c2.3,0,4.1,1.8,4.1,4.1V53
		C809.9,55.3,808,57.1,805.8,57.1z M795.6,23.8c-1.9,0-3.4,1.5-3.4,3.4V53c0,1.9,1.5,3.4,3.4,3.4h10.1c1.9,0,3.4-1.5,3.4-3.4V27.2
		c0-1.9-1.5-3.4-3.4-3.4H795.6z"/>
	<path fill="#577375" d="M645.7,24h-10.1c-0.8,0-1.6,0.1-2.3,0.5c-0.8,0.7-1.2,1.5-1.2,2.7v24.5l17-17.2v-7.3
		C649,25.1,647.8,24,645.7,24z"/>
	<path fill="#658587" d="M645.7,57.1h-10.1c-2.3,0-4.1-1.8-4.1-4.1V27.2c0-2.3,1.8-4.1,4.1-4.1h10.1c2.3,0,4.1,1.8,4.1,4.1V53
		C649.8,55.3,647.9,57.1,645.7,57.1z M635.6,23.8c-1.9,0-3.4,1.5-3.4,3.4V53c0,1.9,1.5,3.4,3.4,3.4h10.1c1.9,0,3.4-1.5,3.4-3.4V27.2
		c0-1.9-1.5-3.4-3.4-3.4H635.6z"/>
	<path fill="#577375" d="M780.1,24H770c-0.8,0-1.8,0.1-2.5,0.5c-0.8,0.7-1.5,1.5-1.5,2.7v24.5l18-17.2v-7.3
		C784,25.1,782.2,24,780.1,24z"/>
</g>
</svg>
