<?xml version="1.0" encoding="utf-8"?>
<!-- Generator: Adobe Illustrator 17.1.0, SVG Export Plug-In . SVG Version: 6.00 Build 0)  -->
<!DOCTYPE svg PUBLIC "-//W3C//DTD SVG 1.1//EN" "http://www.w3.org/Graphics/SVG/1.1/DTD/svg11.dtd">
<svg version="1.1" id="Layer_1" xmlns="http://www.w3.org/2000/svg" xmlns:xlink="http://www.w3.org/1999/xlink" x="0px" y="0px"
	 viewBox="0 0 172 184" enable-background="new 0 0 172 184" xml:space="preserve">
<path fill="none" stroke="#FCC792" stroke-width="5" stroke-linecap="round" stroke-miterlimit="10" d="M122.2,65.8
	c0,0,2.4,24.4-19.2,36.9"/>
<path fill="#006838" d="M119.7,65.6c0,0,0.1,9.6-2.4,16.5l4.8,1.4c0,0,6.1-15.5,1-21C123.2,62.6,119.1,61.1,119.7,65.6z"/>
<path fill="none" stroke="#FCC792" stroke-width="5" stroke-linecap="round" stroke-miterlimit="10" d="M85.4,59.3
	c0,0-10.7,22,5.3,41.2"/>
<path fill="#006838" d="M87.8,59.9c0,0-3.4,9-3.5,16.3l-5-0.3c0,0-0.3-16.6,6.3-20C85.5,55.9,90,55.9,87.8,59.9z"/>
<rect x="96.6" y="39.5" transform="matrix(-0.9845 -0.1753 0.1753 -0.9845 197.9634 119.2648)" fill="#FCC792" width="15.2" height="22.7"/>
<ellipse transform="matrix(0.9845 0.1753 -0.1753 0.9845 8.5977 -18.0053)" fill="#FCC792" cx="106.2" cy="39.7" rx="7.6" ry="7.7"/>
<g>
	<path fill="#006838" d="M120.2,59.7c0,0-4.2-0.7-9.3-1.7c-0.1,0-0.2,0-0.3-0.1l-5.6,3.6l-8.8-6.2c-0.3,0-0.5-0.1-0.8-0.1
		c-1.7-0.3-6.7-1.2-6.7-1.2c-1.1-0.2-2.2,1.2-2.5,2.8L85.9,101c0.4,2,0.3,8.3,1.3,8.5l18,3.2c1.1,0.2,2.1-1,2.4-2.5l14-47
		C121.8,61.6,121.3,59.9,120.2,59.7z"/>
</g>
<rect x="87" y="101" fill="#262262" width="9" height="51"/>
<rect x="101" y="101" fill="#262262" width="8" height="51"/>
<polygon fill="#FFFFFF" points="96.3,55.4 104.9,61.6 110.6,58 111.9,58.2 104.8,62.6 94.8,55.2 "/>
<polygon fill="#262262" points="109,115.9 87,115.9 85.9,101 110.1,101 "/>
<path d="M108.2,35.1c0.1,1.4,0.2,2.9,0.4,4.3c0.3,0.1,0.5-0.3,0.6-0.6c0.3-0.9,0.5-1.8,0.7-2.7c0.4,1.3,1.3,2.3,1.9,3.6
	c0.5,1.2,0.5,2.5,0.6,3.8c0.7-1.1,0.9-2.5,0.7-3.8c0.5,1.4,0.6,3,0.2,4.5c0.4-1.1,0.7-2.2,1-3.3c0.1-0.7,0.2-1.4,0.1-2
	c-0.1-0.9-0.6-1.7-1-2.5c0.8,0.3,1.5,1.1,1.7,2c0-2.3-1.1-4.6-3-5.8c-0.4-0.3-1-0.6-1-1.1c0.9,0.4,1.8,1,2.5,1.7
	c0-0.8-0.5-1.6-1.2-2.2c-0.6-0.5-1.4-0.9-2.3-1.1c-1-0.2-2.1-0.2-2.8,0.5c-0.4-1.8-2-3.2-3.9-3.3c1,1.1,1.6,2.4,1.9,3.8
	c-1-0.5-2.1-0.7-3.3-0.7c-0.4,0-0.8,0.1-1,0.4c0.8-0.3,1.7,0,2.2,0.6c-1,0.1-2.1-0.4-3.1,0c-0.9,0.3-1.5,1.1-2,1.9
	c0.6-0.6,1.5-0.8,2.2-0.4c0.1,0.1,0.3,0.2,0.2,0.3c0,0.1-0.1,0.2-0.2,0.2c-0.7,0.4-1.4,0.8-1.8,1.5c0.4-0.4,1-0.6,1.5-0.6
	c0.1,0.3-0.1,0.6-0.4,0.8s-0.6,0.2-0.9,0.3c-0.7,0.1-1.6,0.2-2-0.5c0.2,0.9,0.3,1.8,0.3,2.8c0,1.5-0.1,3.2,0.8,4.5
	c0-1.3,0.9-2.4,1.6-3.6c0.3-0.6,0.6-1.3,0.9-1.9c-0.1,1.2-0.6,2.4-1.5,3.3c1.3-0.5,2.5-1.1,3.6-1.9c1-0.6,1.9-1.4,2.2-2.5
	c0.2,1.2-0.1,2.5-0.8,3.5c0.5-0.1,1.1-0.4,1.6-0.6C107.1,37.9,108.3,36.6,108.2,35.1z"/>
<polygon fill="#FFFFFF" points="120,69.1 112,71.4 118.2,66 103.6,70.1 114.3,67.9 108.8,73 119.1,71.4 "/>
<polygon fill="#BE1E2D" points="118.7,72.3 107.4,73.7 111.3,69.5 104.9,70.9 109.8,70.3 105.2,74.9 118.3,73.4 "/>
<polygon fill="#FFFFFF" points="86.2,64.4 93.1,68.4 89.1,61.9 101.6,69 92.1,64.5 95.6,70.6 86.2,66.8 "/>
<polygon fill="#BE1E2D" points="86.3,67.7 96.7,71.5 94.5,66.7 100.1,69.4 95.5,67.8 98.4,73.2 86.3,68.8 "/>
<ellipse fill="#FFFFFF" cx="102.2" cy="69.3" rx="3.6" ry="3.3"/>
<rect x="32" y="40.5" fill="#FCC792" width="15.2" height="22.7"/>
<ellipse fill="#FCC792" cx="39.6" cy="40.5" rx="7.6" ry="7.7"/>
<path fill="none" stroke="#FCC792" stroke-width="5" stroke-linecap="round" stroke-miterlimit="10" d="M53.8,60.7
	c0,0,17.7,14.6,11.2,36.7"/>
<path fill="none" stroke="#FCC792" stroke-width="5" stroke-linecap="round" stroke-miterlimit="10" d="M65.6,95.3
	c-0.2,0.7-0.3,1.4-0.5,2.1"/>
<g>
	<path fill="#3BC9F4" d="M56.9,57.7c0,0-4.3,0-9.4,0c-0.1,0-0.2,0-0.3,0l-4.9,4.5l-9.7-4.5c-0.3,0-0.5,0-0.8,0c-1.7,0-6.8,0-6.8,0
		c-1.1,0-2,1.6-2,3.2l8.1,48.5c0,1.6,0.9,3.1,2,3.1h18.3c1.1,0,1.9-1.3,1.9-2.9l5.5-48.7C58.8,59.3,58,57.7,56.9,57.7z"/>
</g>
<rect x="30" y="102" fill="#231F20" width="9" height="51"/>
<rect x="46" y="102" fill="#231F20" width="8" height="51"/>
<path fill="none" stroke="#FCC792" stroke-width="5" stroke-linecap="round" stroke-miterlimit="10" d="M25.5,61
	c0,0-18.7,15.9-11.7,39.8"/>
<path fill="#3BC9F4" d="M27.5,62.6c0,0-6.7,6.8-9.8,13.6l-4.5-2.3c0,0,6.4-15.4,13.8-15.8C27.1,58,31.1,59.8,27.5,62.6z"/>
<path fill="#3BC9F4" d="M53.8,64.3c0,0,6.3,7.2,8.9,14.1l4.6-2.1c0,0-5.4-15.7-12.8-16.6C54.5,59.8,50.3,61.2,53.8,64.3z"/>
<path d="M36.4,33.5c0,0,6.3,4.7,6.9,0.3C43.3,33.8,40.1,31.6,36.4,33.5z"/>
<path d="M36.4,33.5c0,0-4.7,1.7-4.5,6.8v1.5c0,0,1.1-7.4,5.5-7.9"/>
<path d="M43.1,33.9c0,0,3.8,3.2,4.1,7.9c0,0,0.7-6.8-4.5-8.3L43.1,33.9z"/>
<polygon fill="#231F20" points="53.7,115.9 30.9,115.9 29.7,101 54.8,101 "/>
<rect x="24.2" y="57.7" fill="#231F20" width="7.8" height="3"/>
<rect x="48.1" y="57.7" fill="#231F20" width="7.8" height="3"/>
<polygon fill="#231F20" points="42.4,61.9 40.7,63.8 41.9,65.6 43.4,65.6 44.2,63.8 "/>
<polygon fill="#231F20" points="41.9,65.6 38.3,81.7 43,89.4 46.3,81.9 43.4,65.6 "/>
<circle fill="#F9ED32" cx="25.3" cy="59.3" r="1.1"/>
<circle fill="#F9ED32" cx="54.8" cy="59.3" r="1.1"/>
<path fill="#F9ED32" d="M48.8,65.2c0.4,0,6.3,0,6.3,0s0.1,5.8-2.9,5.8S48.8,65.2,48.8,65.2z"/>
<path fill="#3BC9F4" d="M32,40.3c0,0,5.4-6.8,14.7-2.7c0,0,5.1-8.1-4.4-8C32.8,29.8,27.6,34,32,40.3z"/>
<path fill="#231F20" d="M31.9,40.5c0,0,24.9,2.1,14.8-2.9C46.7,37.6,38.2,33.3,31.9,40.5z"/>
<path fill="#F9ED32" d="M39,31.9c0.2,0,3.5,0,3.5,0s0.1,3.2-1.6,3.2C39.2,35.1,39,31.9,39,31.9z"/>
<g>
	<path fill="none" stroke="#FCC792" stroke-width="5" stroke-linecap="round" stroke-miterlimit="10" d="M124.4,59.3
		c0,0-10.7,22,5.3,41.2"/>
	<path fill="#BE1E2D" d="M126.8,59.9c0,0-3.4,9-3.5,16.3l-5-0.3c0,0-0.3-16.6,6.3-20C124.5,55.9,129,55.9,126.8,59.9z"/>
	<g>
		<path fill="none" stroke="#FCC792" stroke-width="5" stroke-linecap="round" stroke-miterlimit="10" d="M161.2,65.8
			c0,0,2.4,24.4-19.2,36.9"/>
		<path fill="#BE1E2D" d="M158.7,65.6c0,0,0.1,9.6-2.4,16.5l4.8,1.4c0,0,6.1-15.5,1-21C162.2,62.6,158.1,61.1,158.7,65.6z"/>
		
			<rect x="135.6" y="39.5" transform="matrix(-0.9845 -0.1753 0.1753 -0.9845 275.3597 126.1002)" fill="#FCC792" width="15.2" height="22.7"/>
		
			<ellipse transform="matrix(0.9845 0.1753 -0.1753 0.9845 9.2014 -24.8408)" fill="#FCC792" cx="145.2" cy="39.7" rx="7.6" ry="7.7"/>
		<g>
			<path fill="#BE1E2D" d="M159.2,59.7c0,0-4.2-0.7-9.3-1.7c-0.1,0-0.2,0-0.3-0.1l-5.6,3.6l-8.8-6.2c-0.3,0-0.5-0.1-0.8-0.1
				c-1.7-0.3-6.7-1.2-6.7-1.2c-1.1-0.2-2.2,1.2-2.5,2.8l-0.4,44.1c0.4,2,0.3,8.3,1.3,8.5l18,3.2c1.1,0.2,2.1-1,2.4-2.5l14-47
				C160.8,61.6,160.3,59.9,159.2,59.7z"/>
		</g>
		<rect x="126" y="101" fill="#231F20" width="9" height="51"/>
		<rect x="140" y="101" fill="#231F20" width="8" height="51"/>
		<polygon fill="#231F20" points="135.3,55.4 143.9,61.6 149.6,58 150.9,58.2 143.8,62.6 133.8,55.2 		"/>
		<polygon fill="#231F20" points="148,115.9 126,115.9 124.9,101 149.1,101 		"/>
		<path fill="#471002" d="M150.2,35.4c0.8,1.1,2.4,1.5,3.5,0.9c0.8-0.4,1.4-1.3,1.7-2.2c0.3-0.9,0.3-1.9,0.3-2.8
			c-0.7,1.5-2.4,2.1-3.9,2.6c1.4-0.9,2.4-2.5,2.5-4.2c0.1-1.1-0.2-2.3-0.5-3.4c-0.4,1.8-1.6,3.3-3.3,4c-0.5,0.2-1.1,0.4-1.4,0.9
			c0.5-1.3,1-2.5,1.5-3.8c-1,0.6-1.8,1.3-2.5,2.1c-0.6,0.7-1.2,1.5-2.1,1.7c0.1-1.4,0.7-2.8,1.8-3.7c-1.2-0.1-2.3,0.3-3.3,1
			c-1,0.7-1.7,1.6-2.5,2.5c0-0.7,0.1-1.4,0.2-2.1c-1.1,0.4-1.8,1.4-2.5,2.3c-0.2,0.3-0.4,0.6-0.7,0.9c-0.2,0.3-0.5,0.7-0.7,1
			c-0.4,0.8-0.6,1.7-0.8,2.7c-0.3,1.6-0.4,3.3-0.4,5c2.3-1.3,4.2-3.6,5-6.1c0.5,0.7,0.4,1.8-0.1,2.4c1.3-0.6,2.4-1.8,2.7-3.2
			c0.5,0.6,0.6,1.4,0.2,2.1c0.4-0.1,0.8-0.4,1-0.8c-0.2,0.2,0.2,0.5,0.5,0.5C147.8,36,149.1,35.8,150.2,35.4z"/>
		<polygon points="125.2,67.1 128.6,73.8 135.4,68.6 138.7,74.9 145.7,70 148,76.9 154.2,72 156.1,78.3 155.6,79.9 153.8,74.1 
			147.4,79.2 145.1,71.8 138.4,77.1 135,70.4 127.9,75.8 125.2,70.7 		"/>
	</g>
</g>
</svg>
