<?xml version="1.0" encoding="utf-8"?>
<!-- Generator: Adobe Illustrator 18.1.0, SVG Export Plug-In . SVG Version: 6.00 Build 0)  -->
<!DOCTYPE svg PUBLIC "-//W3C//DTD SVG 1.1//EN" "http://www.w3.org/Graphics/SVG/1.1/DTD/svg11.dtd">
<svg version="1.1" id="Layer_1" xmlns="http://www.w3.org/2000/svg" xmlns:xlink="http://www.w3.org/1999/xlink" x="0px" y="0px"
	 viewBox="0 0 203 273" enable-background="new 0 0 203 273" xml:space="preserve">
<g>
	<rect fill="#925F36" width="200.8" height="272.2"/>
	<rect x="9.9" y="12.6" fill="#BDDCF5" width="180.3" height="249.8"/>
	<g>
		<path fill-rule="evenodd" clip-rule="evenodd" fill="#EC1C2E" d="M82.8,36.1c-4.8,0-8-3.4-8-7.5c0-4.1,3.2-7.5,8-7.5h45.1
			c4.8,0,8,3.4,8,7.5c0,4.1-3.2,7.5-8,7.5H82.8L82.8,36.1z"/>
		<path fill-rule="evenodd" clip-rule="evenodd" fill="#FFFFFF" d="M82.8,22.9c-3.8,0-6.1,2.5-6.1,5.7c0,3.1,2.3,5.7,6.1,5.7h45.1
			c3.8,0,6.1-2.5,6.1-5.7c0-3.1-2.3-5.7-6.1-5.7H82.8L82.8,22.9z"/>
		<polygon fill-rule="evenodd" clip-rule="evenodd" fill="#EC1C2E" points="80.9,25 83.1,25 86.1,30 86.1,25 88.3,25 88.3,32.1 
			86.1,32.1 83.1,27.2 83.1,32.1 80.9,32.1 80.9,25 		"/>
		<polygon fill-rule="evenodd" clip-rule="evenodd" fill="#EC1C2E" points="100.2,25.7 102.3,25.7 102.3,26.7 103.5,26.7 
			103.5,27.4 102.3,27.4 102.4,32.1 100.2,32.1 100.2,27.4 99.1,27.4 99.1,26.7 100.2,26.7 100.2,25.7 		"/>
		<polygon fill-rule="evenodd" clip-rule="evenodd" fill="#EC1C2E" points="89.5,27.4 91.7,27.4 91.7,32.1 89.5,32.1 89.5,27.4 		
			"/>
		<polygon fill-rule="evenodd" clip-rule="evenodd" fill="#EC1C2E" points="89.5,25 91.7,25 91.7,26.5 89.5,26.5 89.5,25 		"/>
		<path fill-rule="evenodd" clip-rule="evenodd" fill="#EC1C2E" d="M127.7,29.7c0,0,0,0.7,0,1c0,0.8-0.4,1.1-0.9,1.1
			c-0.4,0-0.9-0.3-0.9-1.1c0-0.3,0-1,0-1s0-0.7,0-1c0-0.7,0.4-1.1,0.9-1.1c0.4,0,0.9,0.3,0.9,1.1C127.7,29,127.7,29.5,127.7,29.7
			L127.7,29.7L127.7,29.7L127.7,29.7z M126.8,27.1c-1.7,0-3.1,1.2-3.1,2.6c0,1.5,1.4,2.6,3.1,2.6c1.7,0,3.1-1.2,3.1-2.6
			C130,28.3,128.6,27.1,126.8,27.1L126.8,27.1z"/>
		<path fill-rule="evenodd" clip-rule="evenodd" fill="#EC1C2E" d="M120.9,25h2.1v7.1h-2.1c0,0,0-0.2,0-0.3
			c-0.8,0.5-1.7,0.5-2.5,0.2c-0.2-0.1-1.5-0.7-1.5-2.3c0-1.2,1.2-2.6,2.7-2.5c0.5,0,0.9,0.2,1.2,0.4C120.9,26.5,120.9,25,120.9,25
			L120.9,25L120.9,25z M121,29.7c0,0,0-0.6,0-0.8c0-0.7-0.5-0.9-0.8-0.9c-0.3,0-0.8,0.2-0.8,0.9c0,0.2,0,0.8,0,0.8s0,0.6,0,0.8
			c0,0.7,0.5,0.9,0.8,0.9c0.3,0,0.8-0.2,0.8-0.9C121,30.3,121,29.7,121,29.7L121,29.7z"/>
		<path fill-rule="evenodd" clip-rule="evenodd" fill="#EC1C2E" d="M96.7,27.2c0.8,0,2.4,0.5,2.4,2.4c0,0.3,0,2.6,0,2.6h-2.1
			c0,0,0-2.8,0-3.1c0-0.4-0.4-0.9-1-0.9c-0.6,0-1,0.5-1,0.9c0,0.2,0,3.1,0,3.1h-2.1l0-4.7l2.1,0c0,0,0,0.4,0,0.5
			C95.4,27.5,95.9,27.2,96.7,27.2L96.7,27.2z"/>
		<path fill-rule="evenodd" clip-rule="evenodd" fill="#EC1C2E" d="M114,27.2c0.8,0,2.4,0.5,2.4,2.4c0,0.3,0,2.6,0,2.6h-2.1
			c0,0,0-2.8,0-3.1c0-0.4-0.4-0.9-1-0.9s-1,0.5-1,0.9c0,0.2,0,3.1,0,3.1h-2.1l0-4.7l2.1,0c0,0,0,0.4,0,0.5
			C112.7,27.5,113.3,27.2,114,27.2L114,27.2z"/>
		<path fill-rule="evenodd" clip-rule="evenodd" fill="#EC1C2E" d="M105.5,29c0-0.4,0-0.7,0.1-0.9c0.2-0.3,0.5-0.4,0.8-0.4h0
			c0.3,0,0.6,0.1,0.7,0.4c0.1,0.2,0.1,0.5,0.1,0.9H105.5L105.5,29L105.5,29z M107.3,30.5c0,0,0,0,0,0.3c0,0.9-0.6,1.1-0.9,1.1
			c-0.3,0-0.9-0.2-0.9-1.1c0-0.3,0-1,0-1s4,0,4,0c0-1.5-1.4-2.7-3.1-2.7c-1.7,0-3.1,1.2-3.1,2.6c0,1.5,1.4,2.6,3.1,2.6
			c1.4,0,2.6-0.8,3-1.9L107.3,30.5L107.3,30.5z"/>
		<path fill-rule="evenodd" clip-rule="evenodd" fill="#EC1C2E" d="M130.1,26.7h-0.2v-1.6h0.6c0.4,0,0.6,0.1,0.6,0.5
			c0,0.3-0.2,0.4-0.4,0.4l0.5,0.7h-0.3l-0.4-0.7h-0.3V26.7L130.1,26.7L130.1,26.7z M130.4,25.8c0.2,0,0.4,0,0.4-0.3
			c0-0.2-0.2-0.2-0.3-0.2h-0.3v0.5H130.4L130.4,25.8z"/>
		<path fill-rule="evenodd" clip-rule="evenodd" fill="#EC1C2E" d="M129,25.9c0-0.8,0.7-1.4,1.4-1.4c0.8,0,1.4,0.6,1.4,1.4
			c0,0.8-0.6,1.4-1.4,1.4C129.6,27.3,129,26.7,129,25.9L129,25.9L129,25.9z M130.4,27.1c0.6,0,1.1-0.5,1.1-1.2
			c0-0.7-0.5-1.2-1.1-1.2c-0.6,0-1.1,0.5-1.1,1.2C129.3,26.6,129.8,27.1,130.4,27.1L130.4,27.1z"/>
	</g>
	<path fill="#248F37" d="M22.8,160.7c-0.4-7.7-5.8-14.2-12.9-16.3v92.3h13L22.8,160.7L22.8,160.7z"/>
	<polygon fill="#D2A670" points="190.3,262.9 9.7,262.8 9.7,241.3 190.3,241.4 	"/>
	
		<rect x="13.1" y="250.1" transform="matrix(0.7886 -0.6149 0.6149 0.7886 -151.7419 61.9687)" fill="#EDC67A" width="2.4" height="3.2"/>
	
		<rect x="39.8" y="255.6" transform="matrix(0.7886 -0.6149 0.6149 0.7886 -149.2902 79.2672)" fill="#EDC67A" width="1.7" height="2.2"/>
	
		<rect x="83.8" y="251" transform="matrix(0.7886 -0.6149 0.6149 0.7886 -137.1378 105.3645)" fill="#EDC67A" width="1.7" height="2.2"/>
	
		<rect x="114" y="255.6" transform="matrix(0.7886 -0.6149 0.6149 0.7886 -133.608 124.884)" fill="#EDC67A" width="1.7" height="2.2"/>
	
		<rect x="169.3" y="251.9" transform="matrix(0.7886 -0.6149 0.6149 0.7886 -119.5921 158.1155)" fill="#EDC67A" width="1.7" height="2.2"/>
	
		<rect x="138.5" y="255.6" transform="matrix(0.7886 -0.6149 0.6149 0.7886 -128.429 139.9492)" fill="#EDC67A" width="1.7" height="2.2"/>
	
		<rect x="47.5" y="256.8" transform="matrix(0.7886 -0.6149 0.6149 0.7886 -148.5709 84.5566)" fill="#EDC67A" width="2.4" height="3.2"/>
	
		<rect x="88.1" y="256.4" transform="matrix(0.7886 -0.6149 0.6149 0.7886 -139.7767 109.4523)" fill="#EDC67A" width="2.4" height="3.2"/>
	
		<rect x="131.1" y="256.6" transform="matrix(0.7886 -0.6149 0.6149 0.7886 -130.7915 135.9315)" fill="#EDC67A" width="2.4" height="3.2"/>
	
		<rect x="172.2" y="257.1" transform="matrix(0.7886 -0.6149 0.6149 0.7886 -122.4153 161.3243)" fill="#EDC67A" width="2.4" height="3.2"/>
	
		<rect x="32.4" y="251.8" transform="matrix(0.7886 -0.6149 0.6149 0.7886 -148.7029 74.2355)" fill="#EDC67A" width="2.4" height="3.2"/>
	
		<rect x="20.2" y="256.6" transform="matrix(0.7886 -0.6149 0.6149 0.7886 -154.193 67.747)" fill="#EDC67A" width="2.4" height="3.2"/>
	
		<rect x="23.9" y="247.3" transform="matrix(0.7886 -0.6149 0.6149 0.7886 -147.7399 68.0143)" fill="#EDC67A" width="2.4" height="3.2"/>
	
		<rect x="44.2" y="246.5" transform="matrix(0.7886 -0.6149 0.6149 0.7886 -142.938 80.3819)" fill="#EDC67A" width="2.4" height="3.2"/>
	
		<rect x="56.1" y="248.5" transform="matrix(0.7886 -0.6149 0.6149 0.7886 -141.6721 88.0631)" fill="#EDC67A" width="2.4" height="3.2"/>
	
		<rect x="77" y="251.8" transform="matrix(0.7886 -0.6149 0.6149 0.7886 -139.2863 101.6266)" fill="#EDC67A" width="2.4" height="3.2"/>
	
		<rect x="64.8" y="256.6" transform="matrix(0.7886 -0.6149 0.6149 0.7886 -144.7765 95.1382)" fill="#EDC67A" width="2.4" height="3.2"/>
	
		<rect x="68.9" y="247.7" transform="matrix(0.7886 -0.6149 0.6149 0.7886 -138.4602 95.8059)" fill="#EDC67A" width="2.4" height="3.2"/>
	
		<rect x="88.8" y="246.5" transform="matrix(0.7886 -0.6149 0.6149 0.7886 -133.5215 107.7731)" fill="#EDC67A" width="2.4" height="3.2"/>
	
		<rect x="98.9" y="248.5" transform="matrix(0.7886 -0.6149 0.6149 0.7886 -132.6178 114.4008)" fill="#EDC67A" width="2.4" height="3.2"/>
	
		<rect x="120.3" y="251.8" transform="matrix(0.7886 -0.6149 0.6149 0.7886 -130.1233 128.2803)" fill="#EDC67A" width="2.4" height="3.2"/>
	
		<rect x="107.6" y="256.6" transform="matrix(0.7886 -0.6149 0.6149 0.7886 -135.7221 121.4759)" fill="#EDC67A" width="2.4" height="3.2"/>
	
		<rect x="111.9" y="247.2" transform="matrix(0.7886 -0.6149 0.6149 0.7886 -129.0535 122.1403)" fill="#EDC67A" width="2.4" height="3.2"/>
	
		<rect x="132.1" y="246.5" transform="matrix(0.7886 -0.6149 0.6149 0.7886 -124.3585 134.4268)" fill="#EDC67A" width="2.4" height="3.2"/>
	
		<rect x="139.8" y="248.5" transform="matrix(0.7886 -0.6149 0.6149 0.7886 -123.9618 139.5796)" fill="#EDC67A" width="2.4" height="3.2"/>
	
		<rect x="160.8" y="251.8" transform="matrix(0.7886 -0.6149 0.6149 0.7886 -121.576 153.1431)" fill="#EDC67A" width="2.4" height="3.2"/>
	
		<rect x="182.2" y="251.8" transform="matrix(0.7886 -0.6149 0.6149 0.7886 -117.0488 166.3119)" fill="#EDC67A" width="2.4" height="3.2"/>
	
		<rect x="148.6" y="256.6" transform="matrix(0.7886 -0.6149 0.6149 0.7886 -127.0662 146.6546)" fill="#EDC67A" width="2.4" height="3.2"/>
	
		<rect x="152" y="247" transform="matrix(0.7886 -0.6149 0.6149 0.7886 -120.4733 146.7561)" fill="#EDC67A" width="2.4" height="3.2"/>
	
		<rect x="172.6" y="246.5" transform="matrix(0.7886 -0.6149 0.6149 0.7886 -115.8112 159.2895)" fill="#EDC67A" width="2.4" height="3.2"/>
	<path opacity="0.1" fill="#1D1D1B" d="M190.3,238.2l-4.9,0h-8.7h-0.5h-8.7h-0.5h-8.7h-0.5h-8.7h-0.5h-8.7h-0.5h-8.7h-0.5h-8.7h-0.5
		h-8.7h-0.5h-8.7h-0.5h-8.7h-0.5h-8.7h-0.5h-8.7h-0.5h-8.7h-0.5h-8.7h-0.5h-8.7h-0.5h-8.7h-0.5h-8.7h-0.5h-8.7h-0.5H9.6v4.5
		c0,0,2.1,3.3,5.1,0.5c0,0,2.3,2.6,4.4-0.2c0.6,0.7,2.4,2.4,4.9,0.2c0,0,2.3,2.6,4.4-0.2c0.6,0.7,2.4,2.4,4.9,0.2
		c0,0,2.3,2.6,4.4-0.2c0.6,0.7,2.4,2.4,4.9,0.2c0,0,2.3,2.6,4.4-0.2c0.6,0.7,2.4,2.4,4.9,0.2c0,0,2.3,2.6,4.4-0.2
		c0.6,0.7,2.4,2.4,4.9,0.2c0,0,2.3,2.6,4.4-0.2c0.6,0.7,2.4,2.4,4.9,0.2c0,0,2.3,2.6,4.4-0.2c0.6,0.7,2.4,2.4,4.9,0.2
		c0,0,2.3,2.6,4.4-0.2c0.6,0.7,2.4,2.4,4.9,0.2c0,0,2.3,2.6,4.4-0.2c0.6,0.7,2.4,2.4,4.9,0.2c0,0,2.3,2.6,4.4-0.2
		c0.6,0.7,2.4,2.4,4.9,0.2c0,0,2.3,2.6,4.4-0.2c0.6,0.7,2.4,2.4,4.9,0.2c0,0,2.3,2.6,4.4-0.2c0.6,0.7,2.4,2.4,4.9,0.2
		c0,0,2.3,2.6,4.4-0.2c0.6,0.7,2.4,2.4,4.9,0.2c0,0,2.3,2.6,4.4-0.2c0.6,0.7,2.4,2.4,4.9,0.2c0,0,2.3,2.6,4.4-0.2
		c0.6,0.7,2.4,2.4,4.9,0.2c0,0,2.3,2.6,4.4-0.2c0.6,0.7,2.4,2.4,4.9,0.2c0,0,2.3,2.6,4.4-0.2c0.6,0.7,2.4,2.4,4.9,0.2
		c0,0,2.3,2.6,4.4-0.2c0.6,0.7,2.4,2.4,4.9,0.2c0,0,2.3,2.6,4.3-0.2c0.6,0.8,2.2,2.4,4.6,0.3c0,0,0-1.6,0-1.7V238.2z"/>
	<path fill="#3BA935" d="M190.3,236.9l-4.9,0h-8.7h-0.5h-8.7h-0.5h-8.7h-0.5h-8.7h-0.5h-8.7h-0.5h-8.7h-0.5h-8.7h-0.5h-8.7h-0.5
		h-8.7h-0.5h-8.7h-0.5h-8.7h-0.5h-8.7h-0.5h-8.7h-0.5h-8.7h-0.5h-8.7h-0.5h-8.7h-0.5h-8.7h-0.5h-8.7h-0.5H9.6v4.5
		c0,0,2.1,3.3,5.1,0.5c0,0,2.3,2.6,4.4-0.2c0.6,0.7,2.4,2.4,4.9,0.2c0,0,2.3,2.6,4.4-0.2c0.6,0.7,2.4,2.4,4.9,0.2
		c0,0,2.3,2.6,4.4-0.2c0.6,0.7,2.4,2.4,4.9,0.2c0,0,2.3,2.6,4.4-0.2c0.6,0.7,2.4,2.4,4.9,0.2c0,0,2.3,2.6,4.4-0.2
		c0.6,0.7,2.4,2.4,4.9,0.2c0,0,2.3,2.6,4.4-0.2c0.6,0.7,2.4,2.4,4.9,0.2c0,0,2.3,2.6,4.4-0.2c0.6,0.7,2.4,2.4,4.9,0.2
		c0,0,2.3,2.6,4.4-0.2c0.6,0.7,2.4,2.4,4.9,0.2c0,0,2.3,2.6,4.4-0.2c0.6,0.7,2.4,2.4,4.9,0.2c0,0,2.3,2.6,4.4-0.2
		c0.6,0.7,2.4,2.4,4.9,0.2c0,0,2.3,2.6,4.4-0.2c0.6,0.7,2.4,2.4,4.9,0.2c0,0,2.3,2.6,4.4-0.2c0.6,0.7,2.4,2.4,4.9,0.2
		c0,0,2.3,2.6,4.4-0.2c0.6,0.7,2.4,2.4,4.9,0.2c0,0,2.3,2.6,4.4-0.2c0.6,0.7,2.4,2.4,4.9,0.2c0,0,2.3,2.6,4.4-0.2
		c0.6,0.7,2.4,2.4,4.9,0.2c0,0,2.3,2.6,4.4-0.2c0.6,0.7,2.4,2.4,4.9,0.2c0,0,2.3,2.6,4.4-0.2c0.6,0.7,2.4,2.4,4.9,0.2
		c0,0,2.3,2.6,4.4-0.2c0.6,0.7,2.4,2.4,4.9,0.2c0,0,2.3,2.6,4.3-0.2c0.6,0.8,2.2,2.4,4.6,0.3c0,0,0-1.6,0-1.7V236.9z"/>
	<path fill="#E9F2F8" d="M153.5,74.3h-37.7c-3.4,0-6.2-2.8-6.2-6.2v0c0-3.4,2.8-6.2,6.2-6.2h37.7c3.4,0,6.2,2.8,6.2,6.2v0
		C159.7,71.5,156.9,74.3,153.5,74.3z"/>
	<path fill="#E9F2F8" d="M43,26.4H10v12.3H43c3.4,0,6.2-2.8,6.2-6.2C49.2,29.2,46.4,26.4,43,26.4z"/>
	<path fill="#E9F2F8" d="M190,25.6h-19.4c-3.4,0-6.2,2.8-6.2,6.2v0c0,3.4,2.8,6.2,6.2,6.2H190V25.6z"/>
	<g>
		<polygon fill="#BD1622" points="149.6,111.6 147.4,113.1 141.3,109.4 136.1,110.8 140,116.7 145.1,119.6 142.7,124 132.8,119.1 
			130.6,120.6 140.7,125.7 146.1,124.1 147.2,118.1 135.5,112 136.8,108.2 147.8,109.2 		"/>
		<polygon fill="#BD1622" points="92.5,127 94.7,125.4 92.2,112.6 96,112.9 105.3,127 107.5,125.4 101.9,106.2 99.7,107.7 
			101.3,116 99,114.3 89.1,106.2 87,107.7 		"/>
		<polygon fill="#BD1622" points="71.3,107.7 73.5,106.2 80.4,112.4 87.2,125.4 85,127 78.4,113.5 76.5,110.2 71.5,122.6 
			72.3,125.4 70.2,127 70.2,115.6 		"/>
		<polygon fill="#BD1622" points="122.5,86.7 127.5,82.4 133.9,86.2 129.9,93 		"/>
		<polygon fill="#BD1622" points="128.7,49.8 133.7,45.6 166.5,56.6 161.5,60.8 		"/>
		<path fill="#BD1622" d="M90.5,66l5-4.2l-3.2-3.3C92.4,58.4,85.3,60.4,90.5,66z"/>
		<path fill="#BD1622" d="M117.2,99.6c0.1-0.1,5-4.2,5-4.2l-2.6-3.9l-5.5,3.6L117.2,99.6z"/>
		<polygon fill="#BD1622" points="50.5,49.1 55.2,44.7 59.3,46.7 66.7,95.3 61.6,99.8 		"/>
		<g>
			<path fill="#BD1622" d="M61.7,49v50.6h-14l-0.1-32.3c-2.3,1.7-4.3,2.2-6.5,3.3c-2.1,1.1-3.6,1.3-6.8,2.3V61.5
				c4.7-1.5,7.2-2.6,9.8-4.7c2.6-2.1,4.9-4.5,6.4-7.6L61.7,49z"/>
			<path fill="#BD1622" d="M117.2,99.6H75.7c0.5-4.1,1.9-7.9,4.3-11.6c2.4-3.6,6.9-7.9,13.6-12.8c4-3,6.6-5.3,7.8-6.9
				c1.1-1.6,1.7-3,1.7-4.4c0-1.5-0.6-2.8-1.7-3.9c-1.1-1.1-2.5-1.6-4.2-1.6c-1.8,0-3.2,0.6-4.3,1.7c-1.1,1.1-1.9,3.1-2.3,5.9
				l-13.8-1.1c0.5-3.9,1.5-6.9,3-9.1c1.4-2.2,3.4-4.4,5.5-6.3c2.3-2,6.7-4.4,11.4-4.4c4.9,0,8.8,4.5,11.5,5.6
				c2.7,1.1,4.8,2.8,6.4,5.1c1.5,2.3,2.3,4.9,2.3,7.7c0,3-0.9,5.9-2.7,8.7c-1.8,2.8-5,5.8-9.7,9.1c-2.8,1.9-4.6,3.3-5.6,4
				c-0.9,0.8-2,1.8-3.3,3h21.6V99.6z"/>
			<path fill="#BD1622" d="M128.7,49.8h32.8v11h-22.2l-1.2,7.5c1.5-0.7,3.1-1.3,4.6-1.6c1.5-0.4,3-0.5,4.5-0.5c5,0,9,1.5,12.1,4.5
				s4.6,6.8,4.6,11.4c0,3.2-0.8,6.3-2.4,9.3c-1.6,3-3.9,5.2-6.8,6.8s-6.7,2.3-11.3,2.3c-3.3,0-6.1-0.3-8.4-0.9s-4.3-1.5-6-2.8
				c-1.6-1.2-3-2.6-4-4.2s-1.9-3.5-2.5-5.8l14-1.5c0.3,2.2,1.1,3.9,2.4,5.1c1.2,1.2,2.7,1.7,4.4,1.7c1.9,0,3.5-0.7,4.8-2.2
				c1.3-1.5,1.9-3.6,1.9-6.5c0-3-0.6-5.1-1.9-6.5c-1.3-1.4-3-2.1-5.1-2.1c-1.3,0-2.6,0.3-3.9,1c-0.9,0.5-1.9,1.3-3.1,2.6l-11.8-1.7
				L128.7,49.8z"/>
		</g>
		<g>
			<path fill="#BD1622" d="M77.8,123.8h-6.7l-0.9,3.2h-6.1l7.2-19.2h6.5L85,127h-6.2L77.8,123.8z M76.6,119.6l-2.1-6.9l-2.1,6.9
				H76.6z"/>
			<path fill="#BD1622" d="M87,107.7h5.5l7.2,10.6v-10.6h5.6V127h-5.6l-7.2-10.6V127H87V107.7z M99.8,102h2.1c0,0.2,0,0.4,0,0.6
				c0,1-0.2,1.7-0.7,2.3c-0.5,0.5-1.1,0.8-1.9,0.8c-0.6,0-1.4-0.2-2.5-0.7c-0.7-0.3-1.2-0.4-1.4-0.4c-0.3,0-0.5,0.1-0.6,0.2
				s-0.2,0.4-0.2,0.8h-2c0-0.2,0-0.4,0-0.6c0-0.9,0.3-1.7,0.8-2.2c0.5-0.6,1.1-0.8,1.8-0.8c0.3,0,0.6,0,0.9,0.1
				c0.3,0.1,0.8,0.3,1.5,0.6c0.7,0.3,1.3,0.5,1.6,0.5c0.2,0,0.4-0.1,0.6-0.2C99.7,102.8,99.8,102.5,99.8,102z M94.5,105.7l1.2-0.6
				l0.1-1.5l3.9-0.8l0.2-0.7l1.2-0.6l0.9,0.6l-2.4,3.1l-5.2-0.9L94.5,105.7z"/>
			<path fill="#BD1622" d="M108.5,117.4c0-3.1,0.9-5.6,2.6-7.3c1.7-1.7,4.2-2.6,7.3-2.6c3.2,0,5.7,0.9,7.4,2.6s2.6,4.1,2.6,7.2
				c0,2.2-0.4,4.1-1.1,5.5c-0.8,1.4-1.8,2.6-3.3,3.4c-1.4,0.8-3.2,1.2-5.3,1.2c-2.2,0-4-0.3-5.4-1s-2.6-1.8-3.5-3.3
				C109,121.5,108.5,119.6,108.5,117.4z M114.5,117.4c0,1.9,0.4,3.3,1.1,4.2c0.7,0.8,1.7,1.3,2.9,1.3c1.3,0,2.3-0.4,3-1.2
				s1-2.3,1-4.5c0-1.8-0.4-3.1-1.1-4c-0.7-0.8-1.7-1.3-3-1.3c-1.2,0-2.2,0.4-2.9,1.3C114.8,114,114.5,115.4,114.5,117.4z"/>
			<path fill="#BD1622" d="M130.6,120.6l5.6-0.4c0.1,0.9,0.4,1.6,0.7,2.1c0.6,0.8,1.5,1.2,2.6,1.2c0.8,0,1.5-0.2,2-0.6
				c0.5-0.4,0.7-0.9,0.7-1.4c0-0.5-0.2-0.9-0.7-1.3s-1.5-0.8-3-1.1c-2.6-0.6-4.5-1.4-5.6-2.3c-1.1-1-1.7-2.2-1.7-3.7
				c0-1,0.3-1.9,0.9-2.8c0.6-0.9,1.4-1.6,2.6-2.1c1.1-0.5,2.7-0.8,4.7-0.8c2.5,0,4.3,0.5,5.6,1.4c1.3,0.9,2.1,2.4,2.3,4.4l-5.6,0.3
				c-0.1-0.9-0.5-1.5-0.9-1.9c-0.5-0.4-1.1-0.6-2-0.6c-0.7,0-1.2,0.1-1.6,0.4c-0.3,0.3-0.5,0.6-0.5,1.1c0,0.3,0.1,0.6,0.4,0.8
				c0.3,0.3,0.9,0.5,2,0.7c2.6,0.6,4.5,1.1,5.6,1.7c1.1,0.6,1.9,1.3,2.5,2.1c0.5,0.8,0.8,1.8,0.8,2.8c0,1.2-0.3,2.4-1,3.4
				c-0.7,1-1.6,1.8-2.9,2.4c-1.2,0.5-2.8,0.8-4.6,0.8c-3.3,0-5.5-0.6-6.8-1.9C131.5,124.1,130.8,122.5,130.6,120.6z"/>
			<polygon fill="#BD1622" points="93.9,105.4 94.5,105.7 95.6,104.7 95.8,104 93.6,103.7 			"/>
		</g>
		<g>
			<g>
				<path fill="#E5332A" d="M66.7,44.7v50.6h-14V62.2c-2.3,1.7-4.5,3.1-6.6,4.2c-2.1,1.1-4.8,2.1-8,3.1V58.1c4.7-1.5,8.4-3.3,11-5.5
					c2.6-2.1,4.6-4.8,6.1-7.9H66.7z"/>
				<path fill="#E5332A" d="M122.2,95.3H80.7c0.5-4.1,1.9-7.9,4.3-11.6c2.4-3.6,6.9-7.9,13.6-12.8c4-3,6.6-5.3,7.8-6.9
					c1.1-1.6,1.7-3,1.7-4.4c0-1.5-0.6-2.8-1.7-3.9c-1.1-1.1-2.5-1.6-4.2-1.6c-1.8,0-3.2,0.6-4.3,1.7c-1.1,1.1-1.9,3.1-2.3,5.9
					l-13.8-1.1c0.5-3.9,1.5-6.9,3-9.1c1.4-2.2,3.5-3.9,6.1-5c2.6-1.2,6.3-1.7,10.9-1.7c4.9,0,8.6,0.6,11.4,1.7
					c2.7,1.1,4.8,2.8,6.4,5.1s2.3,4.9,2.3,7.7c0,3-0.9,5.9-2.7,8.7c-1.8,2.8-5,5.8-9.7,9.1c-2.8,1.9-4.6,3.3-5.6,4
					c-0.9,0.8-2,1.8-3.3,3h21.6V95.3z"/>
				<path fill="#E5332A" d="M133.7,45.6h32.8v11h-22.2l-1.2,7.5c1.5-0.7,3.1-1.3,4.6-1.6s3-0.5,4.5-0.5c5,0,9,1.5,12.1,4.5
					s4.6,6.8,4.6,11.4c0,3.2-0.8,6.3-2.4,9.3c-1.6,3-3.9,5.2-6.8,6.8s-6.7,2.3-11.3,2.3c-3.3,0-6.1-0.3-8.4-0.9s-4.3-1.5-6-2.8
					s-3-2.6-4-4.2s-1.9-3.5-2.5-5.8l14-1.5c0.3,2.2,1.1,3.9,2.4,5.1c1.2,1.2,2.7,1.7,4.4,1.7c1.9,0,3.5-0.7,4.8-2.2
					c1.3-1.5,1.9-3.6,1.9-6.5c0-3-0.6-5.1-1.9-6.5c-1.3-1.4-3-2.1-5.1-2.1c-1.3,0-2.6,0.3-3.9,1c-0.9,0.5-1.9,1.3-3.1,2.6l-11.8-1.7
					L133.7,45.6z"/>
			</g>
			<g>
				<path fill="#E5332A" d="M80,122.3h-6.7l-0.9,3.2h-6.1l7.2-19.2H80l7.2,19.2H81L80,122.3z M78.8,118.1l-2.1-6.9l-2.1,6.9H78.8z"
					/>
				<path fill="#E5332A" d="M89.1,106.2h5.5l7.2,10.6v-10.6h5.6v19.2h-5.6l-7.2-10.6v10.6h-5.6V106.2z M101,101.5h2.1
					c0,0.2,0,0.4,0,0.6c0,1-0.2,1.7-0.7,2.3c-0.5,0.5-1.1,0.8-1.9,0.8c-0.6,0-1.4-0.2-2.5-0.7c-0.7-0.3-1.2-0.4-1.4-0.4
					c-0.3,0-0.5,0.1-0.6,0.2s-0.2,0.4-0.2,0.8h-2c0-0.2,0-0.4,0-0.6c0-0.9,0.3-1.7,0.8-2.2c0.5-0.6,1.1-0.8,1.8-0.8
					c0.3,0,0.6,0,0.9,0.1c0.3,0.1,0.8,0.3,1.5,0.6c0.7,0.3,1.3,0.5,1.6,0.5c0.2,0,0.4-0.1,0.6-0.2
					C100.9,102.2,100.9,101.9,101,101.5z"/>
				<path fill="#E5332A" d="M110.7,115.8c0-3.1,0.9-5.6,2.6-7.3c1.7-1.7,4.2-2.6,7.3-2.6c3.2,0,5.7,0.9,7.4,2.6
					c1.7,1.7,2.6,4.1,2.6,7.2c0,2.2-0.4,4.1-1.1,5.5s-1.8,2.6-3.3,3.4c-1.4,0.8-3.2,1.2-5.3,1.2c-2.2,0-4-0.3-5.4-1
					c-1.4-0.7-2.6-1.8-3.5-3.3C111.1,120,110.7,118.1,110.7,115.8z M116.6,115.9c0,1.9,0.4,3.3,1.1,4.2c0.7,0.8,1.7,1.3,2.9,1.3
					c1.3,0,2.3-0.4,3-1.2s1-2.3,1-4.5c0-1.8-0.4-3.1-1.1-4c-0.7-0.8-1.7-1.3-3-1.3c-1.2,0-2.2,0.4-2.9,1.3
					C117,112.5,116.6,113.9,116.6,115.9z"/>
				<path fill="#E5332A" d="M132.8,119.1l5.6-0.4c0.1,0.9,0.4,1.6,0.7,2.1c0.6,0.8,1.5,1.2,2.6,1.2c0.8,0,1.5-0.2,2-0.6
					c0.5-0.4,0.7-0.9,0.7-1.4c0-0.5-0.2-0.9-0.7-1.3s-1.5-0.8-3-1.1c-2.6-0.6-4.5-1.4-5.6-2.3c-1.1-1-1.7-2.2-1.7-3.7
					c0-1,0.3-1.9,0.9-2.8s1.4-1.6,2.6-2.1c1.1-0.5,2.7-0.8,4.7-0.8c2.5,0,4.3,0.5,5.6,1.4c1.3,0.9,2.1,2.4,2.3,4.4L144,112
					c-0.1-0.9-0.5-1.5-0.9-1.9s-1.1-0.6-2-0.6c-0.7,0-1.2,0.1-1.6,0.4c-0.3,0.3-0.5,0.6-0.5,1.1c0,0.3,0.1,0.6,0.4,0.8
					c0.3,0.3,0.9,0.5,2,0.7c2.6,0.6,4.5,1.1,5.6,1.7c1.1,0.6,1.9,1.3,2.5,2.1s0.8,1.8,0.8,2.8c0,1.2-0.3,2.4-1,3.4
					c-0.7,1-1.6,1.8-2.9,2.4c-1.2,0.5-2.8,0.8-4.6,0.8c-3.3,0-5.5-0.6-6.8-1.9C133.6,122.6,132.9,121,132.8,119.1z"/>
			</g>
		</g>
		<polygon fill="#BD1622" points="34.3,61.5 38.2,58.1 38.1,63.7 		"/>
	</g>
	<g>
		<g>
			<path fill="#7E4E24" d="M101.2,187.2c0,0-0.3,0.5-0.8,0.2c-0.6-0.3-0.2-0.8,0.3-0.5c0,0-0.7-0.5-0.2-0.7c0.5-0.2,1,0.3,1,0.3
				L101.2,187.2z"/>
		</g>
		<g>
			<g>
				<path fill="#E1B278" d="M107.9,191c1.1,0,2.1-0.4,3.1-0.8c2-1,3.1-2.9,3.4-5.1c0.2-1.9-0.2-3.9-0.8-5.7c-0.3-1-2-0.6-1.6,0.4
					c0.5,1.5,0.9,3.1,0.8,4.7c0,1-0.3,1.9-0.8,2.7c-0.1,0.2-0.1,0.2-0.3,0.4c-0.1,0.2-0.3,0.3-0.5,0.5c-0.2,0.2-0.1,0.1-0.3,0.3
					c-0.2,0.1-0.3,0.2-0.5,0.3c-0.1,0.1-0.3,0.1-0.4,0.2c-0.1,0,0.1,0-0.1,0c-0.1,0-0.2,0.1-0.3,0.1c-0.3,0.1-0.5,0.2-0.8,0.2
					c-0.1,0-0.3,0-0.4,0.1c-0.3,0.1,0.2,0-0.1,0c-0.1,0-0.2,0-0.3,0C106.8,189.4,106.8,191.1,107.9,191L107.9,191z"/>
			</g>
		</g>
		<g>
			<rect x="101" y="184" fill="#E1B278" width="4" height="7"/>
		</g>
		<g>
			<path fill="#E5332A" d="M106.1,189h0.6h0.5h0.6h0c0.7,0,1.3,0.6,1.3,1.3l-1.9,11.7c0,0.1,0,0.2,0,0.3h0h-1.6h-0.1h-5.6
				c0,0,0,0,0,0h-1h0c0-0.1,0-0.2,0-0.3l-1.6-11.7c0-0.7,0.6-1.3,1.3-1.3l0,0l0.4,0c0,0,0,0,0,0l1.6,0c0,0,0,0,0,0l0.4,0v0
				c0.3,1.1,3.2,1.7,3.2,1.7c1-0.7,1.6-1.7,1.6-1.7l0,0L106.1,189"/>
		</g>
		<g>
			<path fill="#E5332A" d="M105.7,189c0,0-1.6,2.7-4.8,0l-1,1.2c0,0,4.6,2.9,4.8,2.9C104.8,193.1,105.7,189,105.7,189z"/>
		</g>
		<g>
			<path fill="#1D70B7" d="M100.3,193.5c0.1-0.1,6.6-0.2,6.6-0.2s0.8,2.4,1.4,2.7l-1,6.2h-8.3l-0.7-5.4
				C98.1,196.8,99.7,194.4,100.3,193.5z"/>
		</g>
		<g>
			<ellipse fill="#E1B278" cx="103.3" cy="183.4" rx="2.4" ry="2.5"/>
		</g>
		<g opacity="0.25">
			<path fill="#1D1D1B" d="M110.5,188.4c0,0,0.2-0.1,0.9-0.6l0.5,1.8l-1.4,0.8L110.5,188.4z"/>
		</g>
		<g>
			<path fill="#E5332A" d="M107.8,189c0.1,0,1.2-0.8,2.9-0.9l0.4,2.8c-0.6,0.6-1.5,0.9-2.3,1.2L107.8,189z"/>
		</g>
		<g>
			<g>
				<path fill="#E1B278" d="M97.1,190.8c-0.7,1.2-1.2,2.5-1.5,3.9c-0.2,0.9-0.3,2,0.1,2.9c0.5,1,1.5,1.3,2.6,1.2
					c2.2-0.2,4.4-1.4,6.3-2.5c0.9-0.5,0.1-2-0.9-1.5c-1.6,0.9-3.3,1.9-5.2,2.2c-0.1,0-0.3,0.1-0.6,0c-0.1,0-0.4,0-0.2,0
					c0.1,0-0.2,0-0.2-0.1c-0.2,0,0.2,0-0.1,0c0,0-0.1,0-0.1,0c-0.1-0.1,0.2,0.1,0,0c-0.1,0-0.1-0.1-0.2-0.2c0.2,0.2,0,0,0-0.1
					c-0.1-0.2,0,0.2,0,0c0-0.1,0-0.1-0.1-0.2c-0.1-0.2,0,0,0-0.1c0-0.1,0-0.2,0-0.3c0-0.2,0-0.4,0-0.6c0,0.2,0,0,0-0.1
					c0-0.1,0-0.2,0.1-0.3c0.1-0.4,0.2-0.8,0.3-1.2c0.1-0.2,0.1-0.4,0.2-0.6c0-0.1,0.1-0.2,0.1-0.3c0.1-0.2,0,0.1,0.1-0.1
					c0.2-0.4,0.4-0.9,0.6-1.3C99,190.7,97.6,189.9,97.1,190.8L97.1,190.8z"/>
			</g>
		</g>
		<g>
			<path fill="#E5332A" d="M99,189c-0.1,0-2.2,0-2.6,2.9l1.5,1.8c1.4,1,1.7-2.3,1.9-2L99,189z"/>
		</g>
		<g>
			<path fill="#1D70B7" d="M105.7,189c0,0,0.1,4.1,0.2,5.5c0,1,1.2,1,1.3-0.1c0.1-1.6-0.4-5.4-0.4-5.4L105.7,189z"/>
		</g>
		<g>
			<circle fill="#F8B133" cx="106.5" cy="194.4" r="0.4"/>
		</g>
		<g>
			<path fill="#1D70B7" d="M99.6,189c0,0,0.1,4,0.1,5.5c0,1,1.2,1,1.3-0.1c0.1-1.6-0.4-5.4-0.4-5.4L99.6,189z"/>
		</g>
		<g>
			<circle fill="#F8B133" cx="100.4" cy="194.4" r="0.4"/>
		</g>
		<g>
			<path fill="#7E4E24" d="M103.3,183c0,0-0.6,1.1,0.1,1c0.7-0.1,0.6-0.5,0.6-0.5s0.5,0.6,1-0.4C105,183.1,103.6,182.6,103.3,183z"
				/>
		</g>
		<g>
			<path fill="#7E4E24" d="M101.5,183.4c0,0-0.3,2.1,0.4,2.6c0.6,0.4-0.6,1.3-0.6,0.2c0,0-0.1,0.5-0.4,0.2c-0.1-0.1,0-2.6,0-2.6
				L101.5,183.4z"/>
		</g>
		<g>
			<path fill="#7E4E24" d="M104,186c-0.1,0-1.7-0.1-1.6,1c0.1,0.9,0.7,0.6,0.6,0c0,0,0.1,0.5,0.4,0.5c0.3,0,0.3-0.5,0.3-0.5
				s0.1,0.5,0.4,0.5c0.3,0,0.3-0.6,0.3-0.6s0.1,0.6,0.3,0.6s0.2-0.7,0.2-0.7s0,0.6,0.3,0.7C105.6,187.5,105.7,185.9,104,186z"/>
		</g>
		<g>
			<path fill="#D43026" d="M105.7,181.8c0,0,0.7-3-1.7-2.9c-2.2,0.1-1.7,1.5-3.3,2.2s0.1,2.6,0.1,2.6L105.7,181.8z"/>
		</g>
		<g>
			<circle fill="#FFFFFF" cx="104.5" cy="181.4" r="0.9"/>
		</g>
		<g>
			<path fill="#E5332A" d="M100.9,183.8c0,0,1.1-1.6,3.6-2.1c2.4-0.5,3.8,0,3.4,0.9c-0.4,0.9-2.2,1-2.2,1S105.5,182.2,100.9,183.8z"
				/>
		</g>
		<g>
			<circle fill="#FFFFFF" cx="112.2" cy="178.5" r="1.3"/>
		</g>
		<g>
			<circle fill="#FFFFFF" cx="104.5" cy="195.5" r="1.3"/>
		</g>
		<g>
			<path fill="#FFFFFF" d="M112.5,179.3c0,0-0.8,0.2-0.8,0.7c0.1,0.5,0.8,0.1,1.1,0c0.4-0.2,1-0.5,0.8-0.9
				C113.5,178.6,112.5,179.3,112.5,179.3z"/>
		</g>
		<g>
			<path fill="#FFFFFF" d="M103.7,195.7c0,0-0.2-0.8-0.7-0.8c-0.5,0.1-0.1,0.8,0,1.1c0.2,0.4,0.5,1,0.9,0.8S103.7,195.7,103.7,195.7
				z"/>
		</g>
		<g>
			<path fill="#1D70B7" d="M98.9,202.2c0,0,0.1,1.4,2.8,1.4h1.7v-1.4C103.4,202.2,98.9,202.3,98.9,202.2z"/>
		</g>
		<g>
			<path fill="#1D70B7" d="M107.2,202.2c0,0-0.1,1.4-2.8,1.4h-1.7v-1.4C102.7,202.2,107.2,202.3,107.2,202.2z"/>
		</g>
		<g>
			<path fill="#7E4E24" d="M100.9,183.8c0,0-0.6,1.2-0.1,2.8l0.1-0.2C100.8,186.4,101.2,184.1,100.9,183.8z"/>
		</g>
		<g>
			<path fill="#1D70B7" d="M97,217.4l-2.3-1.6c0-0.1,3.6-5.4,5.2-8.7c0.7-1.5,0.8-2.7,0.3-3.7c-0.3-0.7-0.9-1-0.9-1l1.4-2.4
				c0.1,0.1,1.2,0.7,1.9,2.1c0.7,1.3,1.2,3.4-0.2,6.2C100.7,211.8,97.1,217.2,97,217.4z"/>
		</g>
		<g>
			<path fill="#1D70B7" d="M109,213.3l-2.4-1.5c0.9-1.4,3.1-5.5,2.6-8.1c0-0.3-0.1-0.4-0.3-0.5c-0.8-0.5-2.7-0.2-3.6,0.1l-0.8-2.7
				c0.6-0.2,3.8-1.1,5.9,0.2c0.9,0.5,1.4,1.4,1.6,2.4c0.3,1.8-0.1,4.1-1.3,6.7C110,211.8,109.1,213.2,109,213.3z"/>
		</g>
		<g>
			<polygon fill="#3C3C40" points="94.6,215.9 97,217.5 97.5,216.7 95.1,215.1 			"/>
		</g>
		<g>
			<polygon fill="#3C3C40" points="106.6,211.8 109,213.4 109.5,212.5 107.1,211 			"/>
		</g>
		<g opacity="0.25">
			<path fill="#1D1D1B" d="M107.6,200.2c-0.2,0.8-0.4,2.5-0.9,2.9c0,0,1.2-0.1,1.4-0.1c0,0,0.9-1.5,0.5-2.8
				C108.5,200.2,107.6,200.1,107.6,200.2z"/>
		</g>
		<g>
			<path fill="#1D70B7" d="M99,202c0,0-0.3,0.4,0.3,0.5c0.6,0.2,6.2,0,6.2,0l0.2-0.8L99,202z"/>
		</g>
	</g>
	<g>
		<g>
			<path fill="#FFDB19" d="M65.3,191.5c0,1.7-1.4,3.1-3.1,3.1h-4.9c-1.7,0-3.1-1.4-3.1-3.1V186c0-1.7,1.4-3.1,3.1-3.1h4.9
				c1.7,0,3.1,1.4,3.1,3.1V191.5z"/>
		</g>
		<rect x="57.5" y="186.5" fill="#452E13" width="0.7" height="2.8"/>
		<rect x="61.7" y="186.5" fill="#452E13" width="0.7" height="2.8"/>
	</g>
	<g>
		<g>
			<circle fill="#248F37" cx="180.8" cy="198.7" r="9.2"/>
			<rect x="171.6" y="198.2" fill="#248F37" width="18.4" height="38.9"/>
		</g>
		<g>
			<rect x="178.2" y="197.4" fill="#452E13" width="0.7" height="2.8"/>
			<rect x="182.4" y="197.4" fill="#452E13" width="0.7" height="2.8"/>
		</g>
	</g>
	<g>
		<g>
			<path fill="#FFDB19" d="M76,191.5c0,1.7-1.4,3.1-3.1,3.1H68c-1.7,0-3.1-1.4-3.1-3.1V186c0-1.7,1.4-3.1,3.1-3.1h4.9
				c1.7,0,3.1,1.4,3.1,3.1V191.5z"/>
		</g>
		<rect x="68.2" y="186.5" fill="#452E13" width="0.7" height="2.8"/>
		<rect x="72.3" y="186.5" fill="#452E13" width="0.7" height="2.8"/>
	</g>
	<g>
		<g>
			<path fill="#FFDB19" d="M86.8,191.5c0,1.7-1.4,3.1-3.1,3.1h-4.9c-1.7,0-3.1-1.4-3.1-3.1V186c0-1.7,1.4-3.1,3.1-3.1h4.9
				c1.7,0,3.1,1.4,3.1,3.1V191.5z"/>
		</g>
		<rect x="79" y="186.5" fill="#452E13" width="0.7" height="2.8"/>
		<rect x="83.1" y="186.5" fill="#452E13" width="0.7" height="2.8"/>
	</g>
	<g>
		<g>
			<path fill="#FFDB19" d="M125.4,158.6c0,1.7-1.4,3.1-3.1,3.1h-4.9c-1.7,0-3.1-1.4-3.1-3.1V153c0-1.7,1.4-3.1,3.1-3.1h4.9
				c1.7,0,3.1,1.4,3.1,3.1V158.6z"/>
		</g>
		<rect x="117.6" y="153.6" fill="#452E13" width="0.7" height="2.8"/>
		<rect x="121.8" y="153.6" fill="#452E13" width="0.7" height="2.8"/>
	</g>
	<g>
		<g>
			<path fill="#FFDB19" d="M136.1,158.6c0,1.7-1.4,3.1-3.1,3.1h-4.9c-1.7,0-3.1-1.4-3.1-3.1V153c0-1.7,1.4-3.1,3.1-3.1h4.9
				c1.7,0,3.1,1.4,3.1,3.1V158.6z"/>
		</g>
		<rect x="128.3" y="153.6" fill="#452E13" width="0.7" height="2.8"/>
		<rect x="132.5" y="153.6" fill="#452E13" width="0.7" height="2.8"/>
	</g>
	<g>
		<g>
			<path fill="#FFDB19" d="M146.9,158.6c0,1.7-1.4,3.1-3.1,3.1h-4.9c-1.7,0-3.1-1.4-3.1-3.1V153c0-1.7,1.4-3.1,3.1-3.1h4.9
				c1.7,0,3.1,1.4,3.1,3.1V158.6z"/>
		</g>
		<rect x="139.1" y="153.6" fill="#452E13" width="0.7" height="2.8"/>
		<rect x="143.2" y="153.6" fill="#452E13" width="0.7" height="2.8"/>
	</g>
	<path fill="#E9F2F8" d="M19.9,116.9H9.8v12.3h10.1c3.4,0,6.2-2.8,6.2-6.2C26.1,119.6,23.3,116.9,19.9,116.9z"/>
	<rect x="25.3" y="209.6" fill="#F5FAFC" width="3.8" height="27.2"/>
	
		<rect x="14.9" y="210.4" transform="matrix(0.9918 -0.128 0.128 0.9918 -27.6383 5.4356)" fill="#F5FAFC" width="27.2" height="14.7"/>
	<polygon fill="#E83D8D" points="19.1,216.8 19.7,222.4 32.1,220.3 33.1,223.5 39.2,215.9 30.2,212.2 30.9,215.2 	"/>
	<polygon opacity="0.3" fill="#7F80BC" points="40.2,208.8 41.7,222.5 15.8,226 15.9,226.8 25.2,225.6 25.3,226.7 27.5,226.8 
		27.7,236.8 29.1,236.8 29.2,225.2 42.9,223.3 41,208.7 	"/>
	<polygon opacity="0.3" fill="#7F80BC" points="29.1,209.6 29.1,210.3 25.3,210.8 25.3,210.7 28.5,210 28.6,209.6 	"/>
	<g>
		<rect x="129.7" y="232.3" fill="#F5CD9F" width="5.2" height="4.1"/>
		<path fill="#E28505" d="M128,228.1c0,0-2.7-0.1-2.8,1.9c-0.1,2,1.1,2.8,3.9,3c2.8,0.1,3.7-0.1,3.7-0.1l0.1-9.1
			c0,0-4.1-0.4-3.9,3.3C129,228,128,228.1,128,228.1z"/>
		<path fill="#E28505" d="M136.7,228.1c0,0,2.7-0.1,2.8,1.9c0.1,2-1.1,2.8-3.9,3c-2.8,0.1-3.7-0.1-3.7-0.1l-0.1-9.1
			c0,0,4.1-0.4,3.9,3.3C135.7,228,136.7,228.1,136.7,228.1z"/>
		<path fill="#C78346" d="M131,236C131,235.9,131,235.9,131,236c0-1-1.4-1.8-3-1.8c-1.7,0-3,0.8-3,1.7c0,0,0,0,0,0.1H131z"/>
		<path fill="#C78346" d="M138.9,236.8C139,236.8,139,236.8,138.9,236.8c0-1-1.4-1.8-3-1.8c-1.7,0-3,0.8-3,1.7c0,0,0,0,0,0.1H138.9z
			"/>
		<rect x="130.5" y="226.9" fill="#280D0B" width="0.6" height="2.4"/>
		<rect x="133.2" y="226.9" fill="#280D0B" width="0.6" height="2.4"/>
	</g>
	<g>
		<rect x="146.4" y="232.3" fill="#F5CD9F" width="5.2" height="4.1"/>
		<path fill="#E28505" d="M144.7,228.1c0,0-2.7-0.1-2.8,1.9c-0.1,2,1.1,2.8,3.9,3c2.8,0.1,3.7-0.1,3.7-0.1l0.1-9.1
			c0,0-4.1-0.4-3.9,3.3C145.7,228,144.7,228.1,144.7,228.1z"/>
		<path fill="#E28505" d="M153.4,228.1c0,0,2.7-0.1,2.8,1.9c0.1,2-1.1,2.8-3.9,3c-2.8,0.1-3.7-0.1-3.7-0.1l-0.1-9.1
			c0,0,4.1-0.4,3.9,3.3C152.4,228,153.4,228.1,153.4,228.1z"/>
		<path fill="#C78346" d="M147.7,236C147.7,235.9,147.7,235.9,147.7,236c0-1-1.4-1.8-3-1.8s-3,0.8-3,1.7c0,0,0,0,0,0.1H147.7z"/>
		<path fill="#C78346" d="M155.7,236.8C155.7,236.8,155.7,236.8,155.7,236.8c0-1-1.4-1.8-3-1.8s-3,0.8-3,1.7c0,0,0,0,0,0.1H155.7z"
			/>
		<rect x="147.2" y="226.9" fill="#280D0B" width="0.6" height="2.4"/>
		<rect x="149.9" y="226.9" fill="#280D0B" width="0.6" height="2.4"/>
	</g>
	<polygon opacity="0.25" fill="#FFFFFF" points="190.7,12.2 9.8,263 9.8,12.7 	"/>
</g>
</svg>
