<?xml version="1.0" encoding="utf-8"?>
<!-- Generator: Adobe Illustrator 18.1.0, SVG Export Plug-In . SVG Version: 6.00 Build 0)  -->
<!DOCTYPE svg PUBLIC "-//W3C//DTD SVG 1.1//EN" "http://www.w3.org/Graphics/SVG/1.1/DTD/svg11.dtd">
<svg version="1.1" id="Layer_1" xmlns="http://www.w3.org/2000/svg" xmlns:xlink="http://www.w3.org/1999/xlink" x="0px" y="0px"
	 viewBox="0 0 202 273" enable-background="new 0 0 202 273" xml:space="preserve">
<g>
	<rect fill="#925F36" width="201.3" height="272.8"/>
	<rect x="10" y="12.7" fill="#BDDCF5" width="180.8" height="250.3"/>
	<path fill="#248F37" d="M22.8,161.1c-0.4-7.8-5.8-14.2-13-16.3v92.5h13L22.8,161.1L22.8,161.1z"/>
	<polygon fill="#D2A670" points="190.7,263.5 9.7,263.4 9.7,241.9 190.7,242 	"/>
	
		<rect x="13.1" y="250.7" transform="matrix(0.7886 -0.6149 0.6149 0.7886 -152.0862 62.1092)" fill="#EDC67A" width="2.4" height="3.2"/>
	
		<rect x="39.9" y="256.2" transform="matrix(0.7886 -0.6149 0.6149 0.7886 -149.6289 79.4471)" fill="#EDC67A" width="1.7" height="2.2"/>
	
		<rect x="84" y="251.6" transform="matrix(0.7886 -0.6149 0.6149 0.7886 -137.449 105.6035)" fill="#EDC67A" width="1.7" height="2.2"/>
	
		<rect x="114.2" y="256.2" transform="matrix(0.7886 -0.6149 0.6149 0.7886 -133.9112 125.1674)" fill="#EDC67A" width="1.7" height="2.2"/>
	
		<rect x="169.7" y="252.4" transform="matrix(0.7886 -0.6149 0.6149 0.7886 -119.8634 158.4742)" fill="#EDC67A" width="1.7" height="2.2"/>
	
		<rect x="138.8" y="256.2" transform="matrix(0.7886 -0.6149 0.6149 0.7886 -128.7203 140.2667)" fill="#EDC67A" width="1.7" height="2.2"/>
	
		<rect x="47.6" y="257.4" transform="matrix(0.7886 -0.6149 0.6149 0.7886 -148.908 84.7485)" fill="#EDC67A" width="2.4" height="3.2"/>
	
		<rect x="88.3" y="257" transform="matrix(0.7886 -0.6149 0.6149 0.7886 -140.0938 109.7006)" fill="#EDC67A" width="2.4" height="3.2"/>
	
		<rect x="131.4" y="257.2" transform="matrix(0.7886 -0.6149 0.6149 0.7886 -131.0882 136.2399)" fill="#EDC67A" width="2.4" height="3.2"/>
	
		<rect x="172.6" y="257.7" transform="matrix(0.7886 -0.6149 0.6149 0.7886 -122.693 161.6903)" fill="#EDC67A" width="2.4" height="3.2"/>
	
		<rect x="32.5" y="252.4" transform="matrix(0.7886 -0.6149 0.6149 0.7886 -149.0403 74.4039)" fill="#EDC67A" width="2.4" height="3.2"/>
	
		<rect x="20.3" y="257.1" transform="matrix(0.7886 -0.6149 0.6149 0.7886 -154.5428 67.9007)" fill="#EDC67A" width="2.4" height="3.2"/>
	
		<rect x="23.9" y="247.9" transform="matrix(0.7886 -0.6149 0.6149 0.7886 -148.075 68.1686)" fill="#EDC67A" width="2.4" height="3.2"/>
	
		<rect x="44.3" y="247.1" transform="matrix(0.7886 -0.6149 0.6149 0.7886 -143.2623 80.5643)" fill="#EDC67A" width="2.4" height="3.2"/>
	
		<rect x="56.2" y="249.1" transform="matrix(0.7886 -0.6149 0.6149 0.7886 -141.9935 88.2629)" fill="#EDC67A" width="2.4" height="3.2"/>
	
		<rect x="77.1" y="252.4" transform="matrix(0.7886 -0.6149 0.6149 0.7886 -139.6024 101.8572)" fill="#EDC67A" width="2.4" height="3.2"/>
	
		<rect x="64.9" y="257.1" transform="matrix(0.7886 -0.6149 0.6149 0.7886 -145.1049 95.354)" fill="#EDC67A" width="2.4" height="3.2"/>
	
		<rect x="69.1" y="248.3" transform="matrix(0.7886 -0.6149 0.6149 0.7886 -138.7743 96.0233)" fill="#EDC67A" width="2.4" height="3.2"/>
	
		<rect x="89" y="247.1" transform="matrix(0.7886 -0.6149 0.6149 0.7886 -133.8244 108.0176)" fill="#EDC67A" width="2.4" height="3.2"/>
	
		<rect x="99.1" y="249.1" transform="matrix(0.7886 -0.6149 0.6149 0.7886 -132.9186 114.6603)" fill="#EDC67A" width="2.4" height="3.2"/>
	
		<rect x="120.6" y="252.4" transform="matrix(0.7886 -0.6149 0.6149 0.7886 -130.4185 128.5714)" fill="#EDC67A" width="2.4" height="3.2"/>
	
		<rect x="107.9" y="257.1" transform="matrix(0.7886 -0.6149 0.6149 0.7886 -136.03 121.7514)" fill="#EDC67A" width="2.4" height="3.2"/>
	
		<rect x="112.2" y="247.7" transform="matrix(0.7886 -0.6149 0.6149 0.7886 -129.3463 122.4174)" fill="#EDC67A" width="2.4" height="3.2"/>
	
		<rect x="132.4" y="247.1" transform="matrix(0.7886 -0.6149 0.6149 0.7886 -124.6406 134.7318)" fill="#EDC67A" width="2.4" height="3.2"/>
	
		<rect x="140.2" y="249.1" transform="matrix(0.7886 -0.6149 0.6149 0.7886 -124.243 139.8962)" fill="#EDC67A" width="2.4" height="3.2"/>
	
		<rect x="161.1" y="252.4" transform="matrix(0.7886 -0.6149 0.6149 0.7886 -121.8518 153.4905)" fill="#EDC67A" width="2.4" height="3.2"/>
	
		<rect x="182.6" y="252.4" transform="matrix(0.7886 -0.6149 0.6149 0.7886 -117.3144 166.6892)" fill="#EDC67A" width="2.4" height="3.2"/>
	
		<rect x="148.9" y="257.1" transform="matrix(0.7886 -0.6149 0.6149 0.7886 -127.3544 146.9874)" fill="#EDC67A" width="2.4" height="3.2"/>
	
		<rect x="152.4" y="247.6" transform="matrix(0.7886 -0.6149 0.6149 0.7886 -120.7466 147.0891)" fill="#EDC67A" width="2.4" height="3.2"/>
	
		<rect x="173" y="247.1" transform="matrix(0.7886 -0.6149 0.6149 0.7886 -116.0739 159.6509)" fill="#EDC67A" width="2.4" height="3.2"/>
	<path opacity="0.1" fill="#1D1D1B" d="M190.7,238.8l-4.9,0h-8.8h-0.5h-8.8h-0.5h-8.8H158h-8.8h-0.5H140h-0.5h-8.8h-0.5h-8.8h-0.5
		h-8.8h-0.5h-8.8h-0.5h-8.8h-0.5h-8.8h-0.5h-8.8h-0.5h-8.8h-0.5h-8.8H56h-8.8h-0.5H38h-0.5h-8.8h-0.5h-8.8h-0.5H9.7v4.5
		c0,0,2.1,3.3,5.2,0.5c0,0,2.3,2.7,4.4-0.2c0.6,0.7,2.4,2.4,4.9,0.2c0,0,2.3,2.7,4.4-0.2c0.6,0.7,2.4,2.4,4.9,0.2
		c0,0,2.3,2.7,4.4-0.2c0.6,0.7,2.4,2.4,4.9,0.2c0,0,2.3,2.7,4.4-0.2c0.6,0.7,2.4,2.4,4.9,0.2c0,0,2.3,2.7,4.4-0.2
		c0.6,0.7,2.4,2.4,4.9,0.2c0,0,2.3,2.7,4.4-0.2c0.6,0.7,2.4,2.4,4.9,0.2c0,0,2.3,2.7,4.4-0.2c0.6,0.7,2.4,2.4,4.9,0.2
		c0,0,2.3,2.7,4.4-0.2c0.6,0.7,2.4,2.4,4.9,0.2c0,0,2.3,2.7,4.4-0.2c0.6,0.7,2.4,2.4,4.9,0.2c0,0,2.3,2.7,4.4-0.2
		c0.6,0.7,2.4,2.4,4.9,0.2c0,0,2.3,2.7,4.4-0.2c0.6,0.7,2.4,2.4,4.9,0.2c0,0,2.3,2.7,4.4-0.2c0.6,0.7,2.4,2.4,4.9,0.2
		c0,0,2.3,2.7,4.4-0.2c0.6,0.7,2.4,2.4,4.9,0.2c0,0,2.3,2.7,4.4-0.2c0.6,0.7,2.4,2.4,4.9,0.2c0,0,2.3,2.7,4.4-0.2
		c0.6,0.7,2.4,2.4,4.9,0.2c0,0,2.3,2.7,4.4-0.2c0.6,0.7,2.4,2.4,4.9,0.2c0,0,2.3,2.7,4.4-0.2c0.6,0.7,2.4,2.4,4.9,0.2
		c0,0,2.3,2.7,4.4-0.2c0.6,0.7,2.4,2.4,4.9,0.2c0,0,2.3,2.6,4.3-0.2c0.6,0.8,2.2,2.4,4.7,0.3c0,0,0-1.6,0-1.7V238.8z"/>
	<path fill="#3BA935" d="M190.7,237.4l-4.9,0h-8.8h-0.5h-8.8h-0.5h-8.8H158h-8.8h-0.5H140h-0.5h-8.8h-0.5h-8.8h-0.5h-8.8h-0.5h-8.8
		h-0.5h-8.8h-0.5h-8.8h-0.5h-8.8h-0.5h-8.8h-0.5h-8.8H56h-8.8h-0.5H38h-0.5h-8.8h-0.5h-8.8h-0.5H9.7v4.5c0,0,2.1,3.3,5.2,0.5
		c0,0,2.3,2.7,4.4-0.2c0.6,0.7,2.4,2.4,4.9,0.2c0,0,2.3,2.7,4.4-0.2c0.6,0.7,2.4,2.4,4.9,0.2c0,0,2.3,2.7,4.4-0.2
		c0.6,0.7,2.4,2.4,4.9,0.2c0,0,2.3,2.7,4.4-0.2c0.6,0.7,2.4,2.4,4.9,0.2c0,0,2.3,2.7,4.4-0.2c0.6,0.7,2.4,2.4,4.9,0.2
		c0,0,2.3,2.7,4.4-0.2c0.6,0.7,2.4,2.4,4.9,0.2c0,0,2.3,2.7,4.4-0.2c0.6,0.7,2.4,2.4,4.9,0.2c0,0,2.3,2.7,4.4-0.2
		c0.6,0.7,2.4,2.4,4.9,0.2c0,0,2.3,2.7,4.4-0.2c0.6,0.7,2.4,2.4,4.9,0.2c0,0,2.3,2.7,4.4-0.2c0.6,0.7,2.4,2.4,4.9,0.2
		c0,0,2.3,2.7,4.4-0.2c0.6,0.7,2.4,2.4,4.9,0.2c0,0,2.3,2.7,4.4-0.2c0.6,0.7,2.4,2.4,4.9,0.2c0,0,2.3,2.7,4.4-0.2
		c0.6,0.7,2.4,2.4,4.9,0.2c0,0,2.3,2.7,4.4-0.2c0.6,0.7,2.4,2.4,4.9,0.2c0,0,2.3,2.7,4.4-0.2c0.6,0.7,2.4,2.4,4.9,0.2
		c0,0,2.3,2.7,4.4-0.2c0.6,0.7,2.4,2.4,4.9,0.2c0,0,2.3,2.7,4.4-0.2c0.6,0.7,2.4,2.4,4.9,0.2c0,0,2.3,2.7,4.4-0.2
		c0.6,0.7,2.4,2.4,4.9,0.2c0,0,2.3,2.6,4.3-0.2c0.6,0.8,2.2,2.4,4.7,0.3c0,0,0-1.6,0-1.7V237.4z"/>
	<path fill="#E9F2F8" d="M153.9,74.4h-37.8c-3.4,0-6.2-2.8-6.2-6.2v0c0-3.4,2.8-6.2,6.2-6.2h37.8c3.4,0,6.2,2.8,6.2,6.2v0
		C160,71.6,157.3,74.4,153.9,74.4z"/>
	<path fill="#E9F2F8" d="M43.1,26.5H10v12.4h33.1c3.4,0,6.2-2.8,6.2-6.2S46.5,26.5,43.1,26.5z"/>
	<path fill="#E9F2F8" d="M190.5,25.6h-19.4c-3.4,0-6.2,2.8-6.2,6.2v0c0,3.4,2.8,6.2,6.2,6.2h19.4V25.6z"/>
	<g>
		<polygon fill="#BD1622" points="149.9,111.9 147.7,113.4 141.6,109.7 136.4,111 140.3,116.9 145.4,119.9 143.1,124.3 133.1,119.4 
			130.9,120.9 141,126 146.5,124.4 147.5,118.4 135.8,112.3 137.1,108.5 148.1,109.5 		"/>
		<polygon fill="#BD1622" points="92.7,127.2 94.9,125.7 92.4,112.8 96.2,113.1 105.6,127.2 107.7,125.7 102.1,106.5 100,108 
			101.6,116.3 99.3,114.6 89.3,106.5 87.1,108 		"/>
		<polygon fill="#BD1622" points="71.5,108 73.7,106.5 80.6,112.6 87.4,125.7 85.2,127.2 78.6,113.8 76.7,110.4 71.7,122.9 
			72.5,125.7 70.3,127.2 70.4,115.9 		"/>
		<polygon fill="#BD1622" points="122.8,86.9 127.8,82.6 134.2,86.3 130.2,93.2 		"/>
		<polygon fill="#BD1622" points="128.9,49.9 134,45.7 166.9,56.7 161.8,61 		"/>
		<path fill="#BD1622" d="M90.8,66.1l5-4.2l-3.2-3.3C92.6,58.6,85.5,60.5,90.8,66.1z"/>
		<path fill="#BD1622" d="M117.4,99.8c0.1-0.1,5-4.2,5-4.2l-2.6-3.9l-5.5,3.6L117.4,99.8z"/>
		<polygon fill="#BD1622" points="50.6,49.2 55.4,44.8 59.4,46.9 66.8,95.5 61.8,100 		"/>
		<g>
			<path fill="#BD1622" d="M61.8,49.1v50.7h-14l-0.1-32.3c-2.3,1.7-4.4,2.2-6.5,3.3c-2.1,1.1-3.6,1.3-6.8,2.3V61.7
				c4.7-1.5,7.2-2.6,9.8-4.7c2.6-2.1,5-4.5,6.4-7.6L61.8,49.1z"/>
			<path fill="#BD1622" d="M117.4,99.8H75.9c0.5-4.1,1.9-8,4.3-11.6c2.4-3.6,6.9-7.9,13.6-12.8c4.1-3,6.7-5.3,7.8-6.9
				c1.1-1.6,1.7-3,1.7-4.5c0-1.5-0.6-2.8-1.7-3.9c-1.1-1.1-2.5-1.6-4.2-1.6c-1.8,0-3.2,0.6-4.3,1.7c-1.1,1.1-1.9,3.1-2.3,5.9
				L76.9,65c0.5-3.9,1.5-6.9,3-9.1c1.5-2.2,3.4-4.4,5.5-6.3c2.3-2,6.8-4.4,11.4-4.4c4.9,0,8.8,4.5,11.5,5.7s4.8,2.8,6.4,5.1
				s2.3,4.9,2.3,7.7c0,3-0.9,5.9-2.7,8.7c-1.8,2.8-5,5.8-9.7,9.1c-2.8,1.9-4.7,3.3-5.6,4c-0.9,0.8-2,1.8-3.3,3h21.6V99.8z"/>
			<path fill="#BD1622" d="M128.9,49.9h32.9V61h-22.3l-1.2,7.5c1.5-0.7,3.1-1.3,4.6-1.6c1.5-0.4,3-0.5,4.5-0.5c5,0,9,1.5,12.1,4.5
				c3.1,3,4.7,6.8,4.7,11.4c0,3.2-0.8,6.3-2.4,9.3c-1.6,3-3.9,5.2-6.8,6.8c-2.9,1.6-6.7,2.3-11.3,2.3c-3.3,0-6.1-0.3-8.5-0.9
				s-4.3-1.6-6-2.8c-1.6-1.2-3-2.6-4-4.2c-1-1.6-1.9-3.5-2.6-5.9l14-1.5c0.3,2.2,1.1,4,2.4,5.1c1.2,1.2,2.7,1.8,4.5,1.8
				c1.9,0,3.5-0.7,4.8-2.2c1.3-1.5,1.9-3.6,1.9-6.5c0-3-0.6-5.1-1.9-6.5c-1.3-1.4-3-2.1-5.1-2.1c-1.3,0-2.6,0.3-3.9,1
				c-0.9,0.5-2,1.3-3.1,2.6l-11.8-1.7L128.9,49.9z"/>
		</g>
		<g>
			<path fill="#BD1622" d="M78,124.1h-6.8l-0.9,3.2h-6.1l7.2-19.3H78l7.2,19.3H79L78,124.1z M76.8,119.9l-2.1-6.9l-2.1,6.9H76.8z"/>
			<path fill="#BD1622" d="M87.1,108h5.6l7.3,10.7V108h5.6v19.3H100l-7.2-10.6v10.6h-5.6V108z M100,102.3h2.1c0,0.2,0,0.4,0,0.6
				c0,1-0.2,1.7-0.7,2.3c-0.5,0.5-1.1,0.8-1.9,0.8c-0.6,0-1.4-0.2-2.5-0.7c-0.7-0.3-1.2-0.4-1.4-0.4c-0.3,0-0.5,0.1-0.6,0.2
				c-0.1,0.2-0.2,0.4-0.2,0.8h-2c0-0.2,0-0.4,0-0.6c0-0.9,0.3-1.7,0.8-2.2c0.5-0.6,1.1-0.8,1.8-0.8c0.3,0,0.6,0,0.9,0.1
				s0.8,0.3,1.5,0.6c0.7,0.3,1.3,0.5,1.6,0.5c0.2,0,0.4-0.1,0.6-0.2C99.9,103,100,102.7,100,102.3z M94.7,105.9l1.2-0.6l0.1-1.5
				l3.9-0.8l0.2-0.7l1.2-0.6l0.9,0.6l-2.4,3.1l-5.2-0.9L94.7,105.9z"/>
			<path fill="#BD1622" d="M108.8,117.6c0-3.1,0.9-5.6,2.6-7.3c1.8-1.8,4.2-2.6,7.3-2.6c3.2,0,5.7,0.9,7.4,2.6
				c1.7,1.7,2.6,4.1,2.6,7.2c0,2.3-0.4,4.1-1.1,5.5s-1.9,2.6-3.3,3.4c-1.4,0.8-3.2,1.2-5.4,1.2c-2.2,0-4-0.3-5.4-1s-2.6-1.8-3.5-3.3
				S108.8,119.9,108.8,117.6z M114.7,117.6c0,1.9,0.4,3.3,1.1,4.2s1.7,1.3,2.9,1.3c1.3,0,2.3-0.4,3-1.2c0.7-0.8,1.1-2.3,1.1-4.5
				c0-1.8-0.4-3.1-1.1-4s-1.7-1.3-3-1.3c-1.2,0-2.2,0.4-2.9,1.3S114.7,115.7,114.7,117.6z"/>
			<path fill="#BD1622" d="M130.9,120.9l5.7-0.4c0.1,0.9,0.4,1.6,0.7,2.1c0.6,0.8,1.5,1.2,2.6,1.2c0.8,0,1.5-0.2,2-0.6
				s0.7-0.9,0.7-1.4c0-0.5-0.2-0.9-0.7-1.3s-1.5-0.8-3-1.1c-2.6-0.6-4.5-1.4-5.6-2.3c-1.1-1-1.7-2.2-1.7-3.7c0-1,0.3-1.9,0.9-2.8
				c0.6-0.9,1.4-1.6,2.6-2.1c1.2-0.5,2.7-0.8,4.7-0.8c2.5,0,4.3,0.5,5.6,1.4s2.1,2.4,2.3,4.4l-5.6,0.3c-0.1-0.9-0.5-1.5-0.9-1.9
				c-0.5-0.4-1.1-0.6-2-0.6c-0.7,0-1.2,0.1-1.6,0.4c-0.4,0.3-0.5,0.7-0.5,1.1c0,0.3,0.1,0.6,0.4,0.8c0.3,0.3,0.9,0.5,2,0.7
				c2.6,0.6,4.5,1.1,5.6,1.7c1.1,0.6,1.9,1.3,2.5,2.1c0.5,0.8,0.8,1.8,0.8,2.9c0,1.2-0.3,2.4-1,3.4c-0.7,1-1.6,1.8-2.9,2.4
				c-1.2,0.5-2.8,0.8-4.6,0.8c-3.3,0-5.5-0.6-6.8-1.9C131.8,124.4,131.1,122.8,130.9,120.9z"/>
			<polygon fill="#BD1622" points="94.1,105.6 94.7,105.9 95.9,104.9 96,104.2 93.8,104 			"/>
		</g>
		<g>
			<g>
				<path fill="#E5332A" d="M66.8,44.8v50.7h-14V62.3c-2.3,1.7-4.5,3.1-6.6,4.2s-4.8,2.1-8,3.1V58.2c4.7-1.5,8.4-3.3,11-5.5
					c2.6-2.1,4.6-4.8,6.1-7.9H66.8z"/>
				<path fill="#E5332A" d="M122.4,95.5H80.9c0.5-4.1,1.9-8,4.3-11.6c2.4-3.6,6.9-7.9,13.6-12.8c4.1-3,6.7-5.3,7.8-6.9
					c1.1-1.6,1.7-3,1.7-4.5c0-1.5-0.6-2.8-1.7-3.9c-1.1-1.1-2.5-1.6-4.2-1.6c-1.8,0-3.2,0.6-4.3,1.7c-1.1,1.1-1.9,3.1-2.3,5.9
					l-13.9-1.1c0.5-3.9,1.5-6.9,3-9.1c1.5-2.2,3.5-3.9,6.1-5c2.6-1.2,6.3-1.8,11-1.8c4.9,0,8.7,0.6,11.4,1.7s4.8,2.8,6.4,5.1
					s2.3,4.9,2.3,7.7c0,3-0.9,5.9-2.7,8.7c-1.8,2.8-5,5.8-9.7,9.1c-2.8,1.9-4.7,3.3-5.6,4c-0.9,0.8-2,1.8-3.3,3h21.6V95.5z"/>
				<path fill="#E5332A" d="M134,45.7h32.9v11.1h-22.3l-1.2,7.5c1.5-0.7,3.1-1.3,4.6-1.6c1.5-0.4,3-0.5,4.5-0.5c5,0,9,1.5,12.1,4.5
					c3.1,3,4.7,6.8,4.7,11.4c0,3.2-0.8,6.3-2.4,9.3c-1.6,3-3.9,5.2-6.8,6.8c-2.9,1.6-6.7,2.3-11.3,2.3c-3.3,0-6.1-0.3-8.5-0.9
					c-2.3-0.6-4.3-1.6-6-2.8c-1.6-1.2-3-2.6-4-4.2c-1-1.6-1.9-3.5-2.6-5.9l14-1.5c0.3,2.2,1.1,4,2.4,5.1s2.7,1.8,4.5,1.8
					c1.9,0,3.5-0.7,4.8-2.2c1.3-1.5,1.9-3.6,1.9-6.5c0-3-0.6-5.1-1.9-6.5c-1.3-1.4-3-2.1-5.1-2.1c-1.3,0-2.6,0.3-3.9,1
					c-0.9,0.5-2,1.3-3.1,2.6l-11.8-1.7L134,45.7z"/>
			</g>
			<g>
				<path fill="#E5332A" d="M80.2,122.6h-6.8l-0.9,3.2h-6.1l7.2-19.3h6.5l7.2,19.3h-6.2L80.2,122.6z M79,118.4l-2.1-6.9l-2.1,6.9H79
					z"/>
				<path fill="#E5332A" d="M89.3,106.5h5.6l7.3,10.7v-10.7h5.6v19.3h-5.6l-7.2-10.6v10.6h-5.6V106.5z M101.2,101.7h2.1
					c0,0.2,0,0.4,0,0.6c0,1-0.2,1.7-0.7,2.3c-0.5,0.5-1.1,0.8-1.9,0.8c-0.6,0-1.4-0.2-2.5-0.7c-0.7-0.3-1.2-0.4-1.4-0.4
					c-0.3,0-0.5,0.1-0.6,0.2c-0.1,0.2-0.2,0.4-0.2,0.8h-2c0-0.2,0-0.4,0-0.6c0-0.9,0.3-1.7,0.8-2.2s1.1-0.8,1.8-0.8
					c0.3,0,0.6,0,0.9,0.1c0.3,0.1,0.8,0.3,1.5,0.6c0.7,0.3,1.3,0.5,1.6,0.5c0.2,0,0.4-0.1,0.6-0.2
					C101.1,102.4,101.2,102.1,101.2,101.7z"/>
				<path fill="#E5332A" d="M110.9,116.1c0-3.1,0.9-5.6,2.6-7.3c1.8-1.8,4.2-2.6,7.3-2.6c3.2,0,5.7,0.9,7.4,2.6
					c1.7,1.7,2.6,4.1,2.6,7.2c0,2.3-0.4,4.1-1.1,5.5c-0.8,1.4-1.9,2.6-3.3,3.4c-1.4,0.8-3.2,1.2-5.4,1.2c-2.2,0-4-0.3-5.4-1
					c-1.4-0.7-2.6-1.8-3.5-3.3C111.4,120.2,110.9,118.4,110.9,116.1z M116.9,116.1c0,1.9,0.4,3.3,1.1,4.2c0.7,0.8,1.7,1.3,2.9,1.3
					c1.3,0,2.3-0.4,3-1.2c0.7-0.8,1.1-2.3,1.1-4.5c0-1.8-0.4-3.1-1.1-4c-0.7-0.8-1.7-1.3-3-1.3c-1.2,0-2.2,0.4-2.9,1.3
					C117.3,112.8,116.9,114.2,116.9,116.1z"/>
				<path fill="#E5332A" d="M133.1,119.4l5.7-0.4c0.1,0.9,0.4,1.6,0.7,2.1c0.6,0.8,1.5,1.2,2.6,1.2c0.8,0,1.5-0.2,2-0.6
					s0.7-0.9,0.7-1.4c0-0.5-0.2-0.9-0.7-1.3c-0.4-0.4-1.5-0.8-3-1.1c-2.6-0.6-4.5-1.4-5.6-2.3c-1.1-1-1.7-2.2-1.7-3.7
					c0-1,0.3-1.9,0.9-2.8c0.6-0.9,1.4-1.6,2.6-2.1c1.2-0.5,2.7-0.8,4.7-0.8c2.5,0,4.3,0.5,5.6,1.4s2.1,2.4,2.3,4.4l-5.6,0.3
					c-0.1-0.9-0.5-1.5-0.9-1.9c-0.5-0.4-1.1-0.6-2-0.6c-0.7,0-1.2,0.1-1.6,0.4c-0.4,0.3-0.5,0.7-0.5,1.1c0,0.3,0.1,0.6,0.4,0.8
					c0.3,0.3,0.9,0.5,2,0.7c2.6,0.6,4.5,1.1,5.6,1.7c1.1,0.6,1.9,1.3,2.5,2.1c0.5,0.8,0.8,1.8,0.8,2.9c0,1.2-0.3,2.4-1,3.4
					c-0.7,1-1.6,1.8-2.9,2.4c-1.2,0.5-2.8,0.8-4.6,0.8c-3.3,0-5.5-0.6-6.8-1.9C133.9,122.9,133.2,121.3,133.1,119.4z"/>
			</g>
		</g>
		<polygon fill="#BD1622" points="34.4,61.7 38.3,58.2 38.2,63.9 		"/>
	</g>
	<g>
		<g>
			<path fill="#7E4E24" d="M101.4,187.7c0,0-0.3,0.5-0.8,0.2s-0.2-0.8,0.3-0.5c0,0-0.7-0.5-0.2-0.7s1,0.3,1,0.3L101.4,187.7z"/>
		</g>
		<g>
			<g>
				<path fill="#E1B278" d="M108.1,191.4c1.1,0,2.1-0.4,3.1-0.8c2-1,3.1-2.9,3.4-5.1c0.2-1.9-0.2-3.9-0.8-5.8c-0.3-1-2-0.6-1.6,0.4
					c0.5,1.5,0.9,3.1,0.8,4.7c0,1-0.3,1.9-0.8,2.7c-0.1,0.2-0.1,0.2-0.3,0.4c-0.1,0.2-0.3,0.3-0.5,0.5c-0.2,0.2-0.1,0.1-0.3,0.3
					c-0.2,0.1-0.3,0.2-0.5,0.3c-0.1,0.1-0.3,0.1-0.4,0.2c-0.1,0,0.1,0-0.1,0c-0.1,0-0.2,0.1-0.3,0.1c-0.3,0.1-0.5,0.2-0.8,0.2
					c-0.1,0-0.3,0-0.4,0.1c-0.3,0.1,0.2,0-0.1,0c-0.1,0-0.2,0-0.3,0C107.1,189.8,107.1,191.5,108.1,191.4L108.1,191.4z"/>
			</g>
		</g>
		<g>
			<rect x="101" y="184" fill="#E1B278" width="5" height="8"/>
		</g>
		<g>
			<path fill="#E5332A" d="M106.4,189.4h0.6h0.5h0.6h0c0.7,0,1.3,0.6,1.3,1.3l-1.9,11.7c0,0.1,0,0.2,0,0.3h0h-1.6h-0.1h-5.6
				c0,0,0,0,0,0h-1h0c0-0.1,0-0.2,0-0.3l-1.6-11.7c0-0.7,0.6-1.3,1.3-1.3l0,0l0.4,0c0,0,0,0,0,0l1.6,0c0,0,0,0,0,0l0.4,0v0
				c0.3,1.1,3.2,1.7,3.2,1.7c1-0.7,1.6-1.7,1.6-1.7l0,0L106.4,189.4"/>
		</g>
		<g>
			<path fill="#E5332A" d="M106,189.4c0,0-1.7,2.7-4.8,0l-1,1.2c0,0,4.7,2.9,4.8,2.9S106,189.4,106,189.4z"/>
		</g>
		<g>
			<path fill="#1D70B7" d="M100.5,194c0.1-0.1,6.6-0.2,6.6-0.2s0.8,2.4,1.4,2.7l-1,6.2h-8.3l-0.7-5.4
				C98.4,197.3,99.9,194.9,100.5,194z"/>
		</g>
		<g>
			<ellipse fill="#E1B278" cx="103.5" cy="183.8" rx="2.4" ry="2.5"/>
		</g>
		<g opacity="0.25">
			<path fill="#1D1D1B" d="M110.8,188.9c0,0,0.2-0.1,0.9-0.6l0.5,1.8l-1.4,0.8L110.8,188.9z"/>
		</g>
		<g>
			<path fill="#E5332A" d="M108.1,189.5c0.1,0,1.2-0.8,2.9-0.9l0.4,2.8c-0.6,0.6-1.5,0.9-2.3,1.2L108.1,189.5z"/>
		</g>
		<g>
			<g>
				<path fill="#E1B278" d="M97.3,191.3c-0.7,1.2-1.2,2.5-1.5,3.9c-0.2,0.9-0.3,2,0.1,2.9c0.5,1,1.5,1.3,2.6,1.3
					c2.3-0.2,4.4-1.4,6.3-2.5c0.9-0.5,0.1-2-0.9-1.5c-1.6,0.9-3.3,1.9-5.2,2.2c-0.1,0-0.3,0.1-0.6,0c-0.1,0-0.4,0-0.2,0
					c0.1,0-0.2,0-0.2-0.1c-0.2,0,0.2,0-0.1,0c0,0-0.1,0-0.1,0c-0.1-0.1,0.2,0.1,0,0c-0.1,0-0.1-0.1-0.2-0.2c0.2,0.2,0,0,0-0.1
					c-0.1-0.2,0,0.2,0,0c0-0.1,0-0.1-0.1-0.2c-0.1-0.2,0,0,0-0.1c0-0.1,0-0.2,0-0.3c0-0.2,0-0.4,0-0.6c0,0.2,0,0,0-0.1
					c0-0.1,0-0.2,0.1-0.3c0.1-0.4,0.2-0.8,0.3-1.2c0.1-0.2,0.1-0.4,0.2-0.6c0-0.1,0.1-0.2,0.1-0.3c0.1-0.2,0,0.1,0.1-0.1
					c0.2-0.4,0.4-0.9,0.6-1.3C99.3,191.2,97.8,190.3,97.3,191.3L97.3,191.3z"/>
			</g>
		</g>
		<g>
			<path fill="#E5332A" d="M99.2,189.4c-0.1,0-2.2,0-2.6,2.9l1.5,1.8c1.4,1.1,1.8-2.3,2-2L99.2,189.4z"/>
		</g>
		<g>
			<path fill="#1D70B7" d="M105.9,189.4c0,0,0.1,4.1,0.2,5.5c0,1.1,1.2,1,1.3-0.1c0.1-1.6-0.4-5.4-0.4-5.4L105.9,189.4z"/>
		</g>
		<g>
			<circle fill="#F8B133" cx="106.8" cy="194.8" r="0.4"/>
		</g>
		<g>
			<path fill="#1D70B7" d="M99.8,189.4c0,0,0.1,4.1,0.1,5.5c0,1.1,1.2,1,1.3-0.1c0.1-1.6-0.4-5.4-0.4-5.4L99.8,189.4z"/>
		</g>
		<g>
			<circle fill="#F8B133" cx="100.6" cy="194.8" r="0.4"/>
		</g>
		<g>
			<path fill="#7E4E24" d="M103.5,183.4c0,0-0.6,1.1,0.1,1s0.6-0.5,0.6-0.5s0.5,0.6,1-0.4C105.3,183.5,103.9,183,103.5,183.4z"/>
		</g>
		<g>
			<path fill="#7E4E24" d="M101.7,183.9c0,0-0.3,2.1,0.4,2.6c0.6,0.5-0.6,1.3-0.6,0.2c0,0-0.1,0.5-0.4,0.2c-0.1-0.1,0-2.6,0-2.6
				L101.7,183.9z"/>
		</g>
		<g>
			<path fill="#7E4E24" d="M104.2,186.5c-0.1,0-1.7-0.1-1.6,1c0.1,0.9,0.7,0.6,0.6,0c0,0,0.1,0.5,0.4,0.5c0.3,0,0.3-0.5,0.3-0.5
				s0.1,0.5,0.4,0.5s0.3-0.6,0.3-0.6s0.1,0.6,0.3,0.6s0.2-0.7,0.2-0.7s0,0.6,0.3,0.7C105.8,187.9,106,186.3,104.2,186.5z"/>
		</g>
		<g>
			<path fill="#D43026" d="M106,182.3c0,0,0.7-3.1-1.7-2.9c-2.2,0.2-1.7,1.5-3.3,2.3c-1.6,0.7,0.2,2.6,0.2,2.6L106,182.3z"/>
		</g>
		<g>
			<circle fill="#FFFFFF" cx="104.8" cy="181.8" r="0.9"/>
		</g>
		<g>
			<path fill="#E5332A" d="M101.1,184.2c0,0,1.1-1.7,3.6-2.1c2.4-0.5,3.8,0,3.4,0.9c-0.4,0.9-2.3,1.1-2.3,1.1
				S105.7,182.6,101.1,184.2z"/>
		</g>
		<g>
			<circle fill="#FFFFFF" cx="112.5" cy="178.9" r="1.3"/>
		</g>
		<g>
			<circle fill="#FFFFFF" cx="104.8" cy="196" r="1.3"/>
		</g>
		<g>
			<path fill="#FFFFFF" d="M112.8,179.7c0,0-0.8,0.2-0.8,0.7c0.1,0.5,0.8,0.1,1.1,0c0.4-0.2,1-0.5,0.8-0.9
				C113.8,179,112.8,179.7,112.8,179.7z"/>
		</g>
		<g>
			<path fill="#FFFFFF" d="M104,196.1c0,0-0.2-0.8-0.7-0.8c-0.5,0.1-0.1,0.8,0,1.1c0.2,0.4,0.5,1,0.9,0.8S104,196.1,104,196.1z"/>
		</g>
		<g>
			<path fill="#1D70B7" d="M99.1,202.7c0,0,0.1,1.4,2.8,1.4h1.7v-1.4C103.6,202.7,99.1,202.8,99.1,202.7z"/>
		</g>
		<g>
			<path fill="#1D70B7" d="M107.4,202.7c0,0-0.1,1.4-2.8,1.4h-1.7v-1.4C102.9,202.7,107.4,202.8,107.4,202.7z"/>
		</g>
		<g>
			<path fill="#7E4E24" d="M101.1,184.2c0,0-0.6,1.2-0.1,2.8l0.1-0.2C101.1,186.8,101.4,184.5,101.1,184.2z"/>
		</g>
		<g>
			<path fill="#1D70B7" d="M97.2,217.9l-2.3-1.6c0-0.1,3.6-5.4,5.2-8.7c0.7-1.5,0.8-2.7,0.3-3.7c-0.4-0.7-0.9-1-0.9-1l1.4-2.4
				c0.1,0.1,1.2,0.7,1.9,2.1c0.7,1.3,1.2,3.4-0.2,6.2C100.9,212.3,97.4,217.7,97.2,217.9z"/>
		</g>
		<g>
			<path fill="#1D70B7" d="M109.3,213.8l-2.4-1.5c0.9-1.4,3.1-5.5,2.6-8.1c0-0.3-0.1-0.4-0.3-0.5c-0.8-0.5-2.7-0.2-3.6,0.1l-0.8-2.7
				c0.6-0.2,3.8-1.1,5.9,0.2c0.9,0.5,1.4,1.4,1.6,2.4c0.3,1.8-0.1,4.1-1.3,6.7C110.2,212.3,109.3,213.7,109.3,213.8z"/>
		</g>
		<g>
			<polygon fill="#3C3C40" points="94.8,216.4 97.2,218 97.7,217.2 95.3,215.6 			"/>
		</g>
		<g>
			<polygon fill="#3C3C40" points="106.8,212.2 109.2,213.8 109.8,213 107.3,211.5 			"/>
		</g>
		<g opacity="0.25">
			<path fill="#1D1D1B" d="M107.8,200.6c-0.2,0.8-0.4,2.5-0.9,2.9c0,0,1.2-0.1,1.4-0.1c0,0,0.9-1.5,0.5-2.8
				C108.8,200.7,107.8,200.6,107.8,200.6z"/>
		</g>
		<g>
			<path fill="#1D70B7" d="M99.2,202.5c0,0-0.3,0.4,0.3,0.5c0.6,0.2,6.3,0,6.3,0l0.2-0.8L99.2,202.5z"/>
		</g>
	</g>
	<g>
		<g>
			<path fill="#FFDB19" d="M65.5,192c0,1.7-1.4,3.1-3.1,3.1h-4.9c-1.7,0-3.1-1.4-3.1-3.1v-5.6c0-1.7,1.4-3.1,3.1-3.1h4.9
				c1.7,0,3.1,1.4,3.1,3.1V192z"/>
		</g>
		<rect x="57.6" y="186.9" fill="#452E13" width="0.7" height="2.8"/>
		<rect x="61.8" y="186.9" fill="#452E13" width="0.7" height="2.8"/>
	</g>
	<g>
		<g>
			<circle fill="#248F37" cx="181.2" cy="199.2" r="9.2"/>
			<rect x="172" y="198.6" fill="#248F37" width="18.4" height="39"/>
		</g>
		<g>
			<rect x="178.6" y="197.8" fill="#452E13" width="0.7" height="2.8"/>
			<rect x="182.8" y="197.8" fill="#452E13" width="0.7" height="2.8"/>
		</g>
	</g>
	<g>
		<g>
			<path fill="#FFDB19" d="M76.2,192c0,1.7-1.4,3.1-3.1,3.1h-4.9c-1.7,0-3.1-1.4-3.1-3.1v-5.6c0-1.7,1.4-3.1,3.1-3.1h4.9
				c1.7,0,3.1,1.4,3.1,3.1V192z"/>
		</g>
		<rect x="68.3" y="186.9" fill="#452E13" width="0.7" height="2.8"/>
		<rect x="72.5" y="186.9" fill="#452E13" width="0.7" height="2.8"/>
	</g>
	<g>
		<g>
			<path fill="#FFDB19" d="M87,192c0,1.7-1.4,3.1-3.1,3.1H79c-1.7,0-3.1-1.4-3.1-3.1v-5.6c0-1.7,1.4-3.1,3.1-3.1h4.9
				c1.7,0,3.1,1.4,3.1,3.1V192z"/>
		</g>
		<rect x="79.2" y="186.9" fill="#452E13" width="0.7" height="2.8"/>
		<rect x="83.3" y="186.9" fill="#452E13" width="0.7" height="2.8"/>
	</g>
	<g>
		<g>
			<path fill="#FFDB19" d="M125.7,159c0,1.7-1.4,3.1-3.1,3.1h-4.9c-1.7,0-3.1-1.4-3.1-3.1v-5.6c0-1.7,1.4-3.1,3.1-3.1h4.9
				c1.7,0,3.1,1.4,3.1,3.1V159z"/>
		</g>
		<rect x="117.9" y="153.9" fill="#452E13" width="0.7" height="2.8"/>
		<rect x="122.1" y="153.9" fill="#452E13" width="0.7" height="2.8"/>
	</g>
	<g>
		<g>
			<path fill="#FFDB19" d="M136.4,159c0,1.7-1.4,3.1-3.1,3.1h-4.9c-1.7,0-3.1-1.4-3.1-3.1v-5.6c0-1.7,1.4-3.1,3.1-3.1h4.9
				c1.7,0,3.1,1.4,3.1,3.1V159z"/>
		</g>
		<rect x="128.6" y="153.9" fill="#452E13" width="0.7" height="2.8"/>
		<rect x="132.8" y="153.9" fill="#452E13" width="0.7" height="2.8"/>
	</g>
	<g>
		<g>
			<path fill="#FFDB19" d="M147.2,159c0,1.7-1.4,3.1-3.1,3.1h-4.9c-1.7,0-3.1-1.4-3.1-3.1v-5.6c0-1.7,1.4-3.1,3.1-3.1h4.9
				c1.7,0,3.1,1.4,3.1,3.1V159z"/>
		</g>
		<rect x="139.4" y="153.9" fill="#452E13" width="0.7" height="2.8"/>
		<rect x="143.6" y="153.9" fill="#452E13" width="0.7" height="2.8"/>
	</g>
	<path fill="#E9F2F8" d="M20,117.1H9.8v12.4H20c3.4,0,6.2-2.8,6.2-6.2S23.4,117.1,20,117.1z"/>
	<rect x="25.4" y="210" fill="#F5FAFC" width="3.8" height="27.3"/>
	
		<rect x="14.9" y="210.9" transform="matrix(0.9918 -0.128 0.128 0.9918 -27.701 5.4479)" fill="#F5FAFC" width="27.3" height="14.8"/>
	<polygon fill="#E83D8D" points="19.2,217.2 19.7,222.9 32.1,220.8 33.2,224 39.3,216.4 30.3,212.6 31,215.6 	"/>
	<polygon opacity="0.3" fill="#7F80BC" points="40.3,209.3 41.8,223 15.9,226.5 15.9,227.4 25.2,226.1 25.4,227.2 27.5,227.3 
		27.8,237.3 29.1,237.3 29.3,225.7 43,223.9 41.1,209.2 	"/>
	<polygon opacity="0.3" fill="#7F80BC" points="29.1,210 29.2,210.7 25.3,211.3 25.3,211.2 28.6,210.5 28.6,210 	"/>
	<g>
		<rect x="130" y="232.8" fill="#F5CD9F" width="5.3" height="4.1"/>
		<path fill="#E28505" d="M128.3,228.6c0,0-2.7-0.1-2.8,1.9s1.1,2.8,3.9,3s3.7-0.1,3.7-0.1l0.1-9.1c0,0-4.1-0.4-3.9,3.3
			C129.2,228.5,128.3,228.6,128.3,228.6z"/>
		<path fill="#E28505" d="M137,228.6c0,0,2.7-0.1,2.8,1.9c0.1,2-1.1,2.8-3.9,3s-3.7-0.1-3.7-0.1l-0.1-9.1c0,0,4.1-0.4,3.9,3.3
			C136,228.5,137,228.6,137,228.6z"/>
		<path fill="#C78346" d="M131.3,236.5C131.3,236.5,131.3,236.5,131.3,236.5c0-1-1.4-1.8-3-1.8c-1.7,0-3,0.8-3,1.7c0,0,0,0,0,0.1
			H131.3z"/>
		<path fill="#C78346" d="M139.3,237.3C139.3,237.3,139.3,237.3,139.3,237.3c0-1-1.4-1.8-3-1.8c-1.7,0-3,0.8-3,1.7c0,0,0,0,0,0.1
			H139.3z"/>
		<rect x="130.8" y="227.5" fill="#280D0B" width="0.6" height="2.4"/>
		<rect x="133.5" y="227.5" fill="#280D0B" width="0.6" height="2.4"/>
	</g>
	<g>
		<rect x="146.8" y="232.8" fill="#F5CD9F" width="5.3" height="4.1"/>
		<path fill="#E28505" d="M145,228.6c0,0-2.7-0.1-2.8,1.9c-0.1,2,1.1,2.8,3.9,3c2.8,0.1,3.7-0.1,3.7-0.1l0.1-9.1
			c0,0-4.1-0.4-3.9,3.3C146,228.5,145,228.6,145,228.6z"/>
		<path fill="#E28505" d="M153.7,228.6c0,0,2.7-0.1,2.8,1.9c0.1,2-1.1,2.8-3.9,3s-3.7-0.1-3.7-0.1l-0.1-9.1c0,0,4.1-0.4,3.9,3.3
			C152.8,228.5,153.7,228.6,153.7,228.6z"/>
		<path fill="#C78346" d="M148.1,236.5C148.1,236.5,148.1,236.5,148.1,236.5c0-1-1.4-1.8-3-1.8c-1.7,0-3,0.8-3,1.7c0,0,0,0,0,0.1
			H148.1z"/>
		<path fill="#C78346" d="M156,237.3C156,237.3,156,237.3,156,237.3c0-1-1.4-1.8-3-1.8c-1.7,0-3,0.8-3,1.7c0,0,0,0,0,0.1H156z"/>
		<rect x="147.5" y="227.5" fill="#280D0B" width="0.6" height="2.4"/>
		<rect x="150.2" y="227.5" fill="#280D0B" width="0.6" height="2.4"/>
	</g>
	<polygon opacity="0.25" fill="#FFFFFF" points="191.2,12.2 9.8,263.6 9.8,12.7 	"/>
</g>
</svg>
