<?xml version="1.0" encoding="utf-8"?>
<!-- Generator: Adobe Illustrator 18.1.0, SVG Export Plug-In . SVG Version: 6.00 Build 0)  -->
<!DOCTYPE svg PUBLIC "-//W3C//DTD SVG 1.1//EN" "http://www.w3.org/Graphics/SVG/1.1/DTD/svg11.dtd">
<svg version="1.1" id="Layer_1" xmlns="http://www.w3.org/2000/svg" xmlns:xlink="http://www.w3.org/1999/xlink" x="0px" y="0px"
	 viewBox="0 0 2000 400" enable-background="new 0 0 2000 400" xml:space="preserve">
<g>
	<path fill="#FFFFFF" d="M4614.4,1014.1c0.2-1.3,0.4-2.6,0.4-3.9c0-18.4-14.9-33.4-33.3-33.4c-13.2,0-24.6,7.7-30,18.8
		c-3.9-2.1-8.4-3.2-13.1-3.2c-13.4,0-24.5,8.7-27.5,21.7h-0.5c-12.2,0-23.3,10.1-23.3,22.4v-0.2c0,12.2,11,21.8,23.3,21.8h103
		c12.2,0,21.8-9.6,21.8-21.9v0.1C4635,1024.4,4626,1014.8,4614.4,1014.1z"/>
	<path fill="#FFFFFF" d="M2557.4,1028.1c0.2-1.3,0.4-2.6,0.4-3.9c0-18.4-14.9-33.4-33.3-33.4c-13.2,0-24.6,7.7-30,18.8
		c-3.9-2.1-8.4-3.2-13.1-3.2c-13.4,0-24.5,8.7-27.5,21.7h-0.5c-12.2,0-23.3,10.1-23.3,22.4v-0.2c0,12.2,11,21.8,23.3,21.8h103
		c12.2,0,21.8-9.6,21.8-21.9v0.1C2578,1038.4,2569,1028.8,2557.4,1028.1z"/>
	<path fill="#FFFFFF" d="M5055.3,1047.6c0-0.4,0.2-0.9,0.2-1.3c0-6.1-4.9-11.1-11-11.1c-4.4,0-8.1,2.5-9.9,6.2
		c-1.3-0.7-2.8-1.4-4.3-1.4c-4.4,0-8.1,2.9-9.1,6.9h-0.2c-4.1,0-8,4-8,8v-0.1c0,4.1,4,7.1,8,7.1h34.1c4.1,0,6.9-3,6.9-7.1v0
		C5062,1051,5059.2,1047.9,5055.3,1047.6z"/>
	<path fill="#FFFFFF" d="M3623.3,1186.6c0.1-0.4,0.2-0.9,0.2-1.3c0-6.1-4.9-11.1-11-11.1c-4.4,0-8.1,2.5-9.9,6.2
		c-1.3-0.7-2.8-1.4-4.3-1.4c-4.4,0-8.1,2.9-9.1,6.9h-0.2c-4.1,0-8,4-8,8v-0.1c0,4.1,4,7.1,8,7.1h34.1c4.1,0,6.9-3,6.9-7.1v0
		C3630,1190,3627.2,1186.9,3623.3,1186.6z"/>
	<path fill="#FFFFFF" d="M3121.3,1138.6c0.1-0.4,0.2-0.9,0.2-1.3c0-6.1-4.9-11.1-11-11.1c-4.4,0-8.1,2.5-9.9,6.2
		c-1.3-0.7-2.8-1.4-4.3-1.4c-4.4,0-8.1,2.9-9.1,6.9h-0.2c-4.1,0-8,4-8,8v-0.1c0,4.1,4,7.1,8,7.1h34.1c4.1,0,6.9-3,6.9-7.1v0
		C3128,1142,3125.2,1138.9,3121.3,1138.6z"/>
	<path fill="#FFFFFF" d="M5411,988c0.1-0.7,0.4-1.3,0.4-2c0-9.3-7.4-16.8-16.7-16.8c-6.6,0-12.3,3.9-15.1,9.5c-2-1-4.2-2.1-6.6-2.1
		c-6.7,0-12.3,4.4-13.8,10.4h-0.3c-6.2,0-12,6.1-12,12.3v-0.1c0,6.2,5.8,10.8,12,10.8h51.8c6.2,0,10.2-4.7,10.2-10.8v0
		C5421,993.3,5416.8,988.4,5411,988z"/>
	<path fill="#FFFFFF" d="M3312,1018c0.1-0.7,0.4-1.3,0.4-2c0-9.3-7.4-16.8-16.7-16.8c-6.6,0-12.3,3.9-15.1,9.5c-2-1-4.2-2.1-6.6-2.1
		c-6.7,0-12.3,4.4-13.8,10.4h-0.3c-6.2,0-12,6.1-12,12.3v-0.1c0,6.2,5.8,10.8,12,10.8h51.8c6.2,0,10.2-4.7,10.2-10.8v0
		C3322,1023.3,3317.8,1018.4,3312,1018z"/>
	<path fill="#FFFFFF" d="M3954,1000c0.1-0.7,0.4-1.3,0.4-2c0-9.3-7.4-16.8-16.7-16.8c-6.6,0-12.3,3.9-15.1,9.5c-2-1-4.2-2.1-6.6-2.1
		c-6.7,0-12.3,4.4-13.8,10.4h-0.3c-6.2,0-12,6.1-12,12.3v-0.1c0,6.2,5.8,10.8,12,10.8h51.8c6.2,0,10.2-4.7,10.2-10.8v0
		C3964,1005.3,3959.8,1000.4,3954,1000z"/>
	<path fill="#FFFFFF" d="M5873.6,1016.7c0.1-1.2,0.4-2.3,0.4-3.5c0-16.5-13.3-29.8-29.8-29.8c-11.8,0-22,6.9-26.8,16.8
		c-3.5-1.8-7.5-3.7-11.7-3.7c-11.9,0-21.9,8.6-24.6,18.6h-0.5c-10.9,0-21.6,10.7-21.6,21.7v-0.2c0,10.9,10.7,19.5,21.6,19.5h92.1
		c10.9,0,19.3-8.6,19.3-19.6v0.1C5892,1026,5884,1017.4,5873.6,1016.7z"/>
</g>
<path fill="#FFFFFF" d="M-1703.6,1021.8c0.2-1.3,0.4-2.6,0.4-3.9c0-18.4-14.9-33.4-33.3-33.4c-13.2,0-24.6,7.7-30,18.8
	c-3.9-2.1-8.4-3.1-13.1-3.1c-13.4,0-24.5,8.8-27.5,21.8h-0.5c-12.2,0-23.3,9.9-23.3,22.1v-0.2c0,12.2,11,22.1,23.3,22.1h103
	c12.2,0,21.8-9.9,21.8-22.1v0.1C-1683,1032.2-1692,1022.5-1703.6,1021.8z"/>
<path fill="#FFFFFF" d="M-1262.7,1055.4c0.1-0.4,0.2-0.9,0.2-1.3c0-6.1-4.9-11.1-11-11.1c-4.4,0-8.1,2.5-9.9,6.2
	c-1.3-0.7-2.8-1.3-4.3-1.3c-4.4,0-8.1,3-9.1,7h-0.2c-4.1,0-8,3.7-8,7.8v-0.1c0,4.1,4,7.3,8,7.3h34.1c4.1,0,6.9-3.3,6.9-7.3v0
	C-1256,1058.8-1258.8,1055.6-1262.7,1055.4z"/>
<path fill="#FFFFFF" d="M-3196.7,1146.4c0.1-0.4,0.2-0.9,0.2-1.3c0-6.1-4.9-11.1-11-11.1c-4.4,0-8.1,2.5-9.9,6.2
	c-1.3-0.7-2.8-1.3-4.3-1.3c-4.4,0-8.1,3-9.1,7h-0.2c-4.1,0-8,3.7-8,7.8v-0.1c0,4.1,4,7.3,8,7.3h34.1c4.1,0,6.9-3.3,6.9-7.3v0
	C-3190,1149.8-3192.8,1146.6-3196.7,1146.4z"/>
<path fill="#FFFFFF" d="M-907,995.8c0.1-0.7,0.4-1.3,0.4-2c0-9.3-7.4-16.8-16.7-16.8c-6.6,0-12.3,3.9-15.1,9.5c-2-1-4.2-2-6.6-2
	c-6.7,0-12.3,4.5-13.8,10.5h-0.3c-6.2,0-12,5.9-12,12v-0.1c0,6.2,5.8,11.1,12,11.1h51.8c6.2,0,10.2-4.9,10.2-11.1v0
	C-897,1001-901.2,996.2-907,995.8z"/>
<path fill="#FFFFFF" d="M-3006,1025.8c0.1-0.7,0.4-1.3,0.4-2c0-9.3-7.4-16.8-16.7-16.8c-6.6,0-12.3,3.9-15.1,9.5c-2-1-4.2-2-6.6-2
	c-6.7,0-12.3,4.5-13.8,10.5h-0.3c-6.2,0-12,5.9-12,12v-0.1c0,6.2,5.8,11.1,12,11.1h51.8c6.2,0,10.2-4.9,10.2-11.1v0
	C-2996,1031-3000.2,1026.2-3006,1025.8z"/>
<path fill="#FFFFFF" d="M-2364,1007.8c0.1-0.7,0.4-1.3,0.4-2c0-9.3-7.4-16.8-16.7-16.8c-6.6,0-12.3,3.9-15.1,9.5c-2-1-4.2-2-6.6-2
	c-6.7,0-12.3,4.5-13.8,10.5h-0.3c-6.2,0-12,5.9-12,12v-0.1c0,6.2,5.8,11.1,12,11.1h51.8c6.2,0,10.2-4.9,10.2-11.1v0
	C-2354,1013-2358.2,1008.2-2364,1007.8z"/>
<path fill="#FFFFFF" d="M537.5,41.6c0-0.4,0.2-0.9,0.2-1.3c0-6-4.8-10.9-10.8-10.9c-4.3,0-8,2.5-9.8,6.1c-1.3-0.7-2.7-1.4-4.3-1.4
	c-4.4,0-8,2.8-9,6.8h-0.2c-4,0-7.8,3.9-7.8,7.9v-0.1c0,4,3.8,7.2,7.8,7.2h33.6c4,0,6.6-3.2,6.6-7.2v0C544,45,541.3,41.8,537.5,41.6z
	"/>
<path fill="#FFFFFF" d="M1399.5,41.6c0-0.4,0.2-0.9,0.2-1.3c0-6-4.8-10.9-10.8-10.9c-4.3,0-8,2.5-9.8,6.1c-1.3-0.7-2.7-1.4-4.3-1.4
	c-4.4,0-8,2.8-9,6.8h-0.2c-4,0-7.8,3.9-7.8,7.9v-0.1c0,4,3.8,7.2,7.8,7.2h33.6c4,0,6.6-3.2,6.6-7.2v0
	C1406,45,1403.3,41.8,1399.5,41.6z"/>
<path opacity="0.31" fill="#FFFFFF" d="M448.4,86.6c0-0.2,0-0.4,0-0.7c0-3.1-2.5-5.6-5.6-5.6c-2.2,0-4.1,1.3-5,3.1
	c-0.7-0.3-1.4-0.9-2.2-0.9c-2.2,0-4.1,1.3-4.6,3.3H431c-2,0-4,2.3-4,4.4v0c0,2,1.9,3.7,4,3.7h17.2c2,0,3.9-1.6,3.9-3.7v0
	C452,88.4,450.4,86.8,448.4,86.6z"/>
<path opacity="0.31" fill="#FFFFFF" d="M1934.4,29.6c0-0.2,0-0.4,0-0.7c0-3.1-2.5-5.6-5.6-5.6c-2.2,0-4.1,1.3-5,3.1
	c-0.7-0.3-1.4-0.9-2.2-0.9c-2.2,0-4.1,1.3-4.6,3.3h-0.1c-2,0-4,2.3-4,4.4v0c0,2,1.9,3.7,4,3.7h17.2c2,0,3.9-1.6,3.9-3.7v0
	C1938,31.4,1936.4,29.8,1934.4,29.6z"/>
<path opacity="0.31" fill="#FFFFFF" d="M1155.2,100.8c0-0.2-0.1-0.3-0.1-0.5c0-2.3-1.9-4.2-4.2-4.2c-1.7,0-3.1,1-3.8,2.4
	c-0.5-0.3-1.1-0.8-1.7-0.8c-1.7,0-3.1,1.3-3.5,2.3h-0.1c-1.5,0-3,2-3,3.6v0c0,1.5,1.4,2.4,3,2.4h12.9c1.5,0,3.1-0.9,3.1-2.5v0
	C1158,102.1,1156.7,100.9,1155.2,100.8z"/>
<path opacity="0.8" fill="#FFFFFF" d="M706.7,72.2c0-0.4-0.1-0.8-0.1-1.1c0-5.4-4.4-9.8-9.8-9.8c-3.9,0-7.2,2.2-8.8,5.5
	c-1.1-0.6-2.5-1.5-3.9-1.5c-3.9,0-7.2,2.7-8.1,5.7h-0.1c-3.6,0-6.9,4.2-6.9,7.7v-0.1c0,3.6,3.4,6.3,6.9,6.3H706c3.6,0,7-2.8,7-6.3v0
	C713,75.2,710,72.4,706.7,72.2z"/>
<path opacity="0.3" fill="#FFFFFF" d="M799.4,67.6c0-0.2,0-0.3,0-0.5c0-2.2-1.8-4-4-4c-1.6,0-3,0.9-3.6,2.3c-0.5-0.2-1-0.7-1.6-0.7
	c-1.6,0-3,1.3-3.3,2.3h-0.1c-1.5,0-2.9,1.8-2.9,3.2v0c0,1.5,1.4,2.8,2.9,2.8h12.4c1.5,0,2.8-1.3,2.8-2.8v0
	C802,68.8,800.8,67.6,799.4,67.6z"/>
<path opacity="0.3" fill="#FFFFFF" d="M1800,69.4c0-0.1,0-0.2,0-0.4c0-1.7-1.4-3.1-3.1-3.1c-1.2,0-2.3,0.7-2.8,1.8
	c-0.4-0.2-0.8-0.5-1.2-0.5c-1.2,0-2.3,0.8-2.6,1.8h0c-1.1,0-2.2,1.4-2.2,2.5v0c0,1.1,1.1,2.5,2.2,2.5h9.6c1.1,0,2.2-1.3,2.2-2.5v0
	C1802,70.4,1801.1,69.5,1800,69.4z"/>
<path fill="#FFFFFF" d="M996.3,56.3c0.1-0.5,0-0.9,0-1.4c0-6.6-5.4-12-12.1-12c-4.8,0-8.9,2.8-10.8,6.8c-1.4-0.7-3-1.8-4.7-1.8
	c-4.8,0-8.9,3.2-9.9,7.2h-0.2c-4.4,0-8.6,4.9-8.6,9.3v-0.1c0,4.4,4.1,7.8,8.6,7.8h37.1c4.4,0,8.3-3.4,8.3-7.8v0
	C1004,60,1000.5,56.5,996.3,56.3z"/>
<path fill="#FFFFFF" d="M345.8,47.9c0.1-0.5,0.3-0.9,0.3-1.4c0-6.6-5.3-12-11.9-12c-4.8,0-8.8,2.8-10.8,6.8c-1.4-0.7-3-1.6-4.7-1.6
	c-4.8,0-8.8,3.4-9.9,7.4h-0.2c-4.4,0-8.6,4.5-8.6,8.9v-0.1c0,4.4,4.2,8.2,8.6,8.2h37.1c4.4,0,7.3-3.8,7.3-8.2v0
	C353,51.6,350,48.1,345.8,47.9z"/>
<g opacity="0.32">
	<path opacity="0.6" fill="#FFFFFF" d="M873.4,50.6c0-0.2,0-0.3,0-0.5c0-2.2-1.8-4-4-4c-1.6,0-3,0.9-3.6,2.3c-0.5-0.2-1-0.7-1.6-0.7
		c-0.6,0-1.2,0.2-1.7,0.5c3.3,1,5.5,4,5.5,7.7c0,0,0,0,0,0v0c0,0,0,0,0,0c0,0.1,0,0.1,0,0.2h5.2c1.5,0,2.8-1.3,2.8-2.8
		C876,51.8,874.8,50.6,873.4,50.6z"/>
	<polygon opacity="0.6" fill="#FFFFFF" points="876,53.2 876,53.2 876,53.2 	"/>
</g>
<path fill="#FFFFFF" d="M1730.8,47.9c0.1-0.5,0.3-0.9,0.3-1.4c0-6.6-5.3-12-11.9-12c-4.8,0-8.8,2.8-10.8,6.8c-1.4-0.7-3-1.6-4.7-1.6
	c-4.8,0-8.8,3.4-9.9,7.4h-0.2c-4.4,0-8.6,4.5-8.6,8.9v-0.1c0,4.4,4.2,8.2,8.6,8.2h37.1c4.4,0,7.3-3.8,7.3-8.2v0
	C1738,51.6,1735,48.1,1730.8,47.9z"/>
<path fill="#FFFFFF" d="M61.8,44.9c0.1-0.5,0.3-0.9,0.3-1.4c0-6.6-5.3-12-11.9-12c-4.8,0-8.8,2.8-10.8,6.8c-1.4-0.7-3-1.6-4.7-1.6
	c-4.8,0-8.8,3.4-9.9,7.4h-0.2c-4.4,0-8.6,4.5-8.6,8.9v-0.1c0,4.4,4.2,8.2,8.6,8.2h37.1c4.4,0,7.3-3.8,7.3-8.2v0
	C69,48.6,66,45.1,61.8,44.9z"/>
<path opacity="0.6" fill="#FFFFFF" d="M171.5,62c0-0.3,0.2-0.6,0.2-0.9c0-4.1-3.3-7.5-7.4-7.5c-3,0-5.5,1.7-6.7,4.2
	c-0.9-0.5-1.9-1.2-2.9-1.2c-3,0-5.5,2.4-6.2,4.4h-0.1c-2.7,0-5.3,3.2-5.3,6v0c0,2.7,2.6,5.1,5.3,5.1h23.1c2.7,0,4.5-2.3,4.5-5.1v0
	C176,64.3,174.1,62.1,171.5,62z"/>
<path opacity="0.6" fill="#FFFFFF" d="M1569.5,62c0-0.3,0.2-0.6,0.2-0.9c0-4.1-3.3-7.5-7.4-7.5c-3,0-5.5,1.7-6.7,4.2
	c-0.9-0.5-1.9-1.2-2.9-1.2c-3,0-5.5,2.4-6.2,4.4h-0.1c-2.7,0-5.3,3.2-5.3,6v0c0,2.7,2.6,5.1,5.3,5.1h23.1c2.7,0,4.5-2.3,4.5-5.1v0
	C1574,64.3,1572.1,62.1,1569.5,62z"/>
<path opacity="0.6" fill="#FFFFFF" d="M1190.5,43c0-0.3,0.2-0.6,0.2-0.9c0-4.1-3.3-7.5-7.4-7.5c-3,0-5.5,1.7-6.7,4.2
	c-0.9-0.5-1.9-1.2-2.9-1.2c-3,0-5.5,2.4-6.2,4.4h-0.1c-2.7,0-5.3,3.2-5.3,6v0c0,2.7,2.6,5.1,5.3,5.1h23.1c2.7,0,4.5-2.3,4.5-5.1v0
	C1195,45.3,1193.1,43.1,1190.5,43z"/>
<path fill="#FFFFFF" d="M677.7,74c0.1-0.6,0.4-1.2,0.4-1.9c0-8.7-6.9-15.7-15.6-15.7c-6.2,0-11.5,3.6-14.1,8.8c-1.8-1-3.9-2-6.1-2
	c-6.3,0-11.5,3.7-12.9,9.7h-0.2c-5.8,0-11.2,5.7-11.2,11.5v-0.1c0,5.8,5.4,10.6,11.2,10.6h48.4c5.8,0,9.4-4.9,9.4-10.7v0
	C687,78.8,683.2,74.3,677.7,74z"/>
<path opacity="0.8" fill="#FFFFFF" d="M1309.7,72.2c0-0.4-0.1-0.8-0.1-1.1c0-5.4-4.4-9.8-9.8-9.8c-3.9,0-7.2,2.2-8.8,5.5
	c-1.1-0.6-2.5-1.5-3.9-1.5c-3.9,0-7.2,2.7-8.1,5.7h-0.1c-3.6,0-6.9,4.2-6.9,7.7v-0.1c0,3.6,3.4,6.3,6.9,6.3h30.1c3.6,0,7-2.8,7-6.3
	v0C1316,75.2,1313,72.4,1309.7,72.2z"/>
<path opacity="0.8" fill="#FFFFFF" d="M1964.7,72.2c0-0.4-0.1-0.8-0.1-1.1c0-5.4-4.4-9.8-9.8-9.8c-3.9,0-7.2,2.2-8.8,5.5
	c-1.1-0.6-2.5-1.5-3.9-1.5c-3.9,0-7.2,2.7-8.1,5.7h-0.1c-3.6,0-6.9,4.2-6.9,7.7v-0.1c0,3.6,3.4,6.3,6.9,6.3h30.1c3.6,0,7-2.8,7-6.3
	v0C1971,75.2,1968,72.4,1964.7,72.2z"/>
<path fill="#FFFFFF" d="M1935.7,74c0.1-0.6,0.4-1.2,0.4-1.9c0-8.7-6.9-15.7-15.6-15.7c-6.2,0-11.5,3.6-14.1,8.8c-1.8-1-3.9-2-6.1-2
	c-6.3,0-11.5,3.7-12.9,9.7h-0.2c-5.8,0-11.2,5.7-11.2,11.5v-0.1c0,5.8,5.4,10.6,11.2,10.6h48.4c5.8,0,9.4-4.9,9.4-10.7v0
	C1945,78.8,1941.2,74.3,1935.7,74z"/>
<path fill="#FFFFFF" d="M206.7,74c0.1-0.6,0.4-1.2,0.4-1.9c0-8.7-6.9-15.7-15.6-15.7c-6.2,0-11.5,3.6-14.1,8.8c-1.8-1-3.9-2-6.1-2
	c-6.3,0-11.5,3.7-12.9,9.7h-0.2c-5.8,0-11.2,5.7-11.2,11.5v-0.1c0,5.8,5.4,10.6,11.2,10.6h48.4c5.8,0,9.4-4.9,9.4-10.7v0
	C216,78.8,212.2,74.3,206.7,74z"/>
<path fill="#FFFFFF" d="M1163.7,43c0.1-0.6,0.4-1.2,0.4-1.9c0-8.7-6.9-15.7-15.6-15.7c-6.2,0-11.5,3.6-14.1,8.8c-1.8-1-3.9-2-6.1-2
	c-6.3,0-11.5,3.7-12.9,9.7h-0.2c-5.8,0-11.2,5.7-11.2,11.5v-0.1c0,5.8,5.4,10.6,11.2,10.6h48.4c5.8,0,9.4-4.9,9.4-10.7v0
	C1173,47.8,1169.2,43.3,1163.7,43z"/>
<path fill="#FFFFFF" d="M1621.4,1049.6c0-0.4,0.2-0.7,0.2-1.1c0-5.2-4.2-9.4-9.4-9.4c-3.7,0-6.9,2.2-8.4,5.3
	c-1.1-0.6-2.4-1.2-3.7-1.2c-3.8,0-6.9,2.9-7.8,5.9h-0.1c-3.5,0-7.2,3.4-7.2,6.9v-0.1c0,3.5,3.7,6.2,7.2,6.2h29.1
	c3.5,0,5.7-2.8,5.7-6.2v0C1627,1052.5,1624.6,1049.8,1621.4,1049.6z"/>
<path fill="#FFFFFF" d="M867.4,1033.6c0-0.4,0.2-0.7,0.2-1.1c0-5.2-4.2-9.4-9.4-9.4c-3.7,0-6.9,2.2-8.4,5.3
	c-1.1-0.6-2.4-1.2-3.7-1.2c-3.8,0-6.9,2.9-7.8,5.9h-0.1c-3.5,0-7.2,3.4-7.2,6.9v-0.1c0,3.5,3.7,6.2,7.2,6.2h29.1
	c3.5,0,5.7-2.8,5.7-6.2v0C873,1036.5,870.6,1033.8,867.4,1033.6z"/>
<path fill="#FFFFFF" d="M-444.4,1024.5c0.1-1.2,0.4-2.3,0.4-3.5c0-16.5-13.3-29.8-29.8-29.8c-11.8,0-22,6.9-26.8,16.8
	c-3.5-1.8-7.5-3.6-11.7-3.6c-11.9,0-21.9,8.7-24.6,18.7h-0.5c-10.9,0-21.6,10.5-21.6,21.4v-0.2c0,10.9,10.7,19.7,21.6,19.7h92.1
	c10.9,0,19.3-8.9,19.3-19.8v0.1C-426,1033.7-434,1025.1-444.4,1024.5z"/>
<path fill="#FFFFFF" d="M1821.6,1015.8c0.1-0.6,0.2-1.3,0.2-2c0-9.2-7.5-16.7-16.7-16.7c-6.6,0-12.3,3.8-15.1,9.4c-2-1-4.2-2-6.6-2
	c-6.7,0-12.3,4.5-13.8,10.5h-0.3c-6.1,0-12.4,5.9-12.4,12v-0.1c0,6.1,6.2,11.1,12.4,11.1h51.6c6.1,0,11-5,11-11.1v0
	C1832,1021,1827.4,1016.2,1821.6,1015.8z"/>
<path fill="#FFFFFF" d="M821.6,1024.5c0.1-1.2,0.4-2.3,0.4-3.5c0-16.5-13.3-29.8-29.8-29.8c-11.8,0-22,6.9-26.8,16.8
	c-3.5-1.8-7.5-3.6-11.7-3.6c-11.9,0-21.9,8.7-24.6,18.7h-0.5c-10.9,0-21.6,10.5-21.6,21.4v-0.2c0,10.9,10.7,19.7,21.6,19.7h92.1
	c10.9,0,19.3-8.9,19.3-19.8v0.1C840,1033.7,832,1025.1,821.6,1024.5z"/>
<path opacity="0.32" fill="#FFFFFF" d="M860.8,47.9c0.1-0.5,0.3-0.9,0.3-1.4c0-6.6-5.3-12-11.9-12c-4.8,0-8.8,2.8-10.8,6.8
	c-1.4-0.7-3-1.6-4.7-1.6c-4.8,0-8.8,3.4-9.9,7.4h-0.2c-4.4,0-8.6,4.5-8.6,8.9v-0.1c0,4.4,4.2,8.2,8.6,8.2h37.1
	c4.4,0,7.3-3.8,7.3-8.2v0C868,51.6,865,48.1,860.8,47.9z"/>
</svg>
