<?xml version="1.0" encoding="utf-8"?>
<!-- Generator: Adobe Illustrator 17.1.0, SVG Export Plug-In . SVG Version: 6.00 Build 0)  -->
<!DOCTYPE svg PUBLIC "-//W3C//DTD SVG 1.1//EN" "http://www.w3.org/Graphics/SVG/1.1/DTD/svg11.dtd">
<svg version="1.1" id="Capa_1" xmlns="http://www.w3.org/2000/svg" xmlns:xlink="http://www.w3.org/1999/xlink" x="0px" y="0px"
	 viewBox="0 0 720 750" enable-background="new 0 0 720 750" xml:space="preserve">
<rect x="-10.5" y="-11" display="none" fill="#283B69" width="741.1" height="771.9"/>
<g>
	<path fill="#67829D" d="M544.1,46.7c-6.9-2.9-14.3-5.8-22.2-8.5c-148.8-35.8-230.1-14-276-9.3c-13.9,3.9-26.9,8-38.6,12.2
		C345.2,17.4,487.1,36.7,544.1,46.7z"/>
	<path fill="#67829D" d="M598.8,82.6c-4.2-8.1-18.6-18.8-40.5-29.4c-173-34.8-322.4-14.1-366-6.6c-30.6,11.8-49.6,21.9-49.6,21.9
		S611,106,598.8,82.6z"/>
	<path fill="#607A93" d="M558.4,53.1c-4.4-2.2-9.2-4.3-14.2-6.5c-57-9.9-199-29.3-336.8-5.6c-5.2,1.9-10.2,3.7-15,5.5
		C236,39,385.4,18.3,558.4,53.1z"/>
	<path fill="#88A1AF" d="M369.1,47.6C479.4,47.6,571.1,59,597,78.8C580.8,56,483.4,42.7,364.1,42.7c-130.7,0-238,16-238,42.9
		c0,3.5,1.8,6.9,5.2,10.2l0,0c0,0,0.9,0.9,2.7,2.4c-1.9-2.5-2.9-5.1-2.9-7.7C131.1,63.6,238.4,47.6,369.1,47.6z"/>
	<path fill="#67829D" d="M265.2,145.7c30.4,3.8,65.8,6,100.2,6c65.7,0,134.6-7.6,166.1-18.9c0,0,0.1,0,0.1,0
		c27.6-9.5,45.9-22.9,56.3-32.4c5.6-3.6,9.3-7.3,10.7-11.2l0,0l0,0c0.5-1.2,0.7-2.5,0.7-3.7c0-2.4-0.8-4.6-2.4-6.8
		C571.1,59,479.4,47.6,369.1,47.6c-130.7,0-238,16-238,42.9c0,2.6,1,5.2,2.9,7.7C145.1,107.7,190,142.1,265.2,145.7L265.2,145.7z"/>
	<ellipse fill="#F3F8F4" cx="395.8" cy="72.2" rx="14.3" ry="13.2"/>
	<path fill="#F3F8F4" d="M493,71.6c-3.4-5.3-11.2-7.3-18.3-4.2c-7.8,3.3-11.9,11.3-9.1,17.9c1.5,3.6,4.9,6,8.8,6.9
		C488.7,85.8,492.3,77.2,493,71.6z"/>
	<path fill="#C2C3C9" d="M484.8,91.1c7.8-3.3,11.9-11.3,9.1-17.9c-0.2-0.6-0.6-1.1-0.9-1.6c-0.7,5.6-4.3,14.2-18.6,20.6
		C477.7,92.9,481.3,92.6,484.8,91.1z"/>
	<path fill="#F3F8F4" d="M554.5,97.6c1.8-5.1,0.7-10.7-0.4-14.2c-2.4,0.2-5,1-7.5,2.2c-7.6,3.8-11.6,11.1-9.1,16.1
		c1.2,2.4,3.7,3.9,6.8,4.4C548.6,104.3,553.1,101.5,554.5,97.6z"/>
	<path fill="#C2C3C9" d="M555.9,104c7.6-3.8,11.6-11.1,9.1-16.1c-1.7-3.4-6-5-10.9-4.5c1.1,3.5,2.2,9.1,0.4,14.2
		c-1.4,3.9-5.9,6.7-10.1,8.6C547.8,106.7,551.9,106,555.9,104z"/>
	<path fill="#F3F8F4" d="M303.6,85.5c1.9-1.7,3.2-3.9,3.7-6.5c1.4-7.1-4.2-14.2-12.6-15.9c-8.3-1.6-16.2,2.8-17.6,10
		c-0.5,2.8,0,5.5,1.3,8C282,84,289.3,86.8,303.6,85.5z"/>
	<path fill="#C2C3C9" d="M289.7,89c5.4,1.1,10.5-0.4,13.9-3.5c-14.3,1.3-21.5-1.5-25.2-4.4C280.5,84.9,284.6,88,289.7,89z"/>
	<path fill="#F3F8F4" d="M217.7,87.8c4.2,3.5,10.5,4.8,15.8,5.3c0.6-0.5,1.2-1.2,1.6-1.9c2.4-4.7-1.7-11.7-9.3-15.6
		c-4.8-2.5-9.9-3.1-13.5-2C212.1,76.9,212.6,83.6,217.7,87.8z"/>
	<path fill="#C2C3C9" d="M207.7,77c-2.4,4.7,1.7,11.7,9.3,15.6c6.4,3.3,13.1,3.3,16.5,0.4c-5.3-0.4-11.6-1.8-15.8-5.3
		c-5.1-4.2-5.6-10.8-5.4-14.3C210.2,74.1,208.6,75.3,207.7,77z"/>
	<path fill="#F3F8F4" d="M167.5,104.7c4.2,1.4,8.3,1.3,11.2,0.9c-1.3-2.2-4.4-4.8-8.3-6.8c-3.9-2-7.8-3-10.4-2.8
		C160.6,98.6,162.2,102.9,167.5,104.7z"/>
	<path fill="#C2C3C9" d="M157.1,97.4c-1.2,2.4,2.7,6.9,8.8,10c6.1,3.2,12.1,3.8,13.3,1.4c0.4-0.9,0.2-2-0.5-3.2
		c-2.9,0.4-7,0.5-11.2-0.9c-5.3-1.8-7-6-7.5-8.7C158.6,96.1,157.5,96.5,157.1,97.4z"/>
	<path fill="#F3F8F4" d="M368.1,124.6c27.8,0,50.3-8.9,50.3-19.8c0,0,0-0.1,0-0.1c-16.8-0.7-34.4-1.1-51.7-1.1
		c-16.4,0-33,0.3-48.9,0.9c0,0.1,0,0.2,0,0.3C317.8,115.8,340.3,124.6,368.1,124.6z"/>
	<path fill="#415566" d="M483.4,110.5c-0.8,19.1-50.6,34.5-111.8,34.5c-61.8,0-111.8-15.7-111.8-35c0-0.4,0-0.9,0.1-1.3
		c-28.1,3.4-47,8.5-47,16c0,15.3,79.4,27.7,153.8,27.7s153.9-11.6,153.9-26.9C520.7,119,506,114,483.4,110.5z"/>
	<path fill="#344553" d="M371.6,145c61.2,0,111-15.4,111.8-34.5c-17.8-2.8-40.6-4.7-65-5.7c0,0,0,0.1,0,0.1
		c0,10.9-22.5,19.8-50.3,19.8s-50.3-8.9-50.3-19.8c0-0.1,0-0.2,0-0.3c-21.2,0.8-41.2,2.1-57.9,4.1c-0.1,0.4-0.1,0.9-0.1,1.3
		C259.8,129.3,309.9,145,371.6,145z"/>
	<path opacity="0.2" d="M351,96c-98,0-144,8.6-164.7,32.6c22,10.1,44.7,13.8,79.6,17.2l0,0c10.3,1.3,21.1,2.4,32.3,3.3
		c21.8,2.2,45.8,3.4,69.3,3.4c28.4,0,57.4-1.7,82.6-4.6c34.5-3.3,64.4-8.5,82.2-14.9c0,0,0.1,0,0.1,0c7.3-2.5,13.9-5.3,19.9-8.2
		C503.8,99.7,449.3,96,351,96z"/>
	<path fill="#88A1AF" d="M521.9,38.1c-40.2-14-92.8-25.4-150.3-26.6c-44.8-1-88.6,7.1-125.7,17.4C291.8,24.1,358.1,7,521.9,38.1z"/>
	<path opacity="0.2" d="M198.9,44c-2.3,0.8-4.5,1.7-6.6,2.5c-30.6,11.8-49.6,21.9-49.6,21.9h0c-10.7,5-16.6,10.7-16.6,17
		c0,3.5,1.8,6.9,5.2,10.2l0,0c0,0,0.9,0.9,2.7,2.4c6.6,5.7,25.5,20.4,55.9,32c9.7,4.2,19.8,7.1,31.1,9.5c13.3,3.1,28.1,5.3,44.2,6.1
		l0,0c0,0,0,0,0,0c7.8,1,15.9,1.8,24.2,2.6c0.6,0.1,1.2,0.1,1.8,0.2c1.6,0.1,3.3,0.3,4.9,0.4c0.6,0.1,1.2,0.1,1.8,0.2
		c2.4,0.2,4.8,0.5,7.3,0.7c0.9,0.1,1.8,0.2,2.7,0.2c1.3,0.1,2.6,0.2,3.9,0.3c18,1.4,36.9,2.2,55.6,2.2c5.9,0,11.9-0.1,17.8-0.2
		C271.3,118.8,220.9,77.1,198.9,44z"/>
	<path opacity="0.1" fill="#FFFFFF" d="M572.9,112.2c6.2-4.2,11.2-8.3,15-11.8c5.6-3.6,9.3-7.3,10.7-11.2l0,0l0,0
		c0.5-1.2,0.7-2.5,0.7-3.7c0-0.8-0.1-1.6-0.3-2.4c0,0,0,0,0-0.1c-0.4-1.5-1.1-2.9-2-4.3c-1.7-2.4-4.3-4.7-7.7-6.9
		c-7.2-5.9-17.6-12.3-30.9-18.8c-4.4-2.2-9.2-4.3-14.2-6.5c-6.9-2.9-14.3-5.8-22.2-8.5c-29.7-10.4-66.2-19.3-106.5-23.7
		C436,44.3,480,81.1,572.9,112.2z"/>
	<path fill="#CABFB6" d="M402.5,16c0,0,16.7,0.1,69,10.5C471.5,26.5,430.5,13.7,402.5,16z"/>
</g>
<path opacity="0.35" fill="#E6B54A" d="M418.5,104.8L665,745.6L29.4,750l288.4-645.5C317.8,104.5,379.6,100.4,418.5,104.8z"/>
</svg>
