<?xml version="1.0" encoding="utf-8"?>
<!-- Generator: Adobe Illustrator 18.1.0, SVG Export Plug-In . SVG Version: 6.00 Build 0)  -->
<!DOCTYPE svg PUBLIC "-//W3C//DTD SVG 1.1//EN" "http://www.w3.org/Graphics/SVG/1.1/DTD/svg11.dtd">
<svg version="1.1" id="Layer_1" xmlns="http://www.w3.org/2000/svg" xmlns:xlink="http://www.w3.org/1999/xlink" x="0px" y="0px"
	 viewBox="0 0 347 422" enable-background="new 0 0 347 422" xml:space="preserve">
<g>
	<rect x="24.3" y="5.1" fill="#D3CDC9" width="102.5" height="416.5"/>
	<rect x="219.7" y="5.1" fill="#D3CDC9" width="102.5" height="416.5"/>
	<rect x="24.3" y="1.9" fill="#D3CDC9" width="297.9" height="102.5"/>
	<rect x="322.4" y="42.3" fill="#BFA79B" width="22.8" height="379.4"/>
	<rect x="126.8" y="104.2" fill="#9B8379" width="12.3" height="317.4"/>
	<rect x="210.6" y="104.2" fill="#9B8379" width="12.3" height="317.4"/>
	<rect x="1.5" y="42.3" fill="#BFA79B" width="22.8" height="379.4"/>
	<g>
		<rect x="30.6" y="8.6" fill="#4F7256" width="13.5" height="13.5"/>
		<rect x="49.9" y="8.6" fill="#4F7256" width="13.5" height="13.5"/>
		<rect x="69.2" y="8.6" fill="#4F7256" width="13.5" height="13.5"/>
		<rect x="88.5" y="8.6" fill="#4F7256" width="13.5" height="13.5"/>
		<rect x="107.8" y="8.6" fill="#4F7256" width="13.5" height="13.5"/>
		<rect x="127.2" y="8.6" fill="#4F7256" width="13.5" height="13.5"/>
		<rect x="146.5" y="8.6" fill="#4F7256" width="13.5" height="13.5"/>
		<rect x="165.8" y="8.6" fill="#4F7256" width="13.5" height="13.5"/>
		<rect x="185.1" y="8.6" fill="#4F7256" width="13.5" height="13.5"/>
		<rect x="204.4" y="8.6" fill="#4F7256" width="13.5" height="13.5"/>
		<rect x="223.7" y="8.6" fill="#4F7256" width="13.5" height="13.5"/>
		<rect x="243.1" y="8.6" fill="#4F7256" width="13.5" height="13.5"/>
		<rect x="262.4" y="8.6" fill="#4F7256" width="13.5" height="13.5"/>
		<rect x="281.7" y="8.6" fill="#4F7256" width="13.5" height="13.5"/>
		<rect x="301" y="8.6" fill="#4F7256" width="13.5" height="13.5"/>
	</g>
	<g>
		<rect x="30.6" y="27.2" fill="#4F7256" width="13.5" height="13.5"/>
		<rect x="49.9" y="27.2" fill="#4F7256" width="13.5" height="13.5"/>
		<rect x="69.2" y="27.2" fill="#4F7256" width="13.5" height="13.5"/>
		<rect x="88.5" y="27.2" fill="#4F7256" width="13.5" height="13.5"/>
		<rect x="107.8" y="27.2" fill="#4F7256" width="13.5" height="13.5"/>
		<rect x="127.2" y="27.2" fill="#4F7256" width="13.5" height="13.5"/>
		<rect x="146.5" y="27.2" fill="#4F7256" width="13.5" height="13.5"/>
		<rect x="165.8" y="27.2" fill="#4F7256" width="13.5" height="13.5"/>
		<rect x="185.1" y="27.2" fill="#4F7256" width="13.5" height="13.5"/>
		<rect x="204.4" y="27.2" fill="#4F7256" width="13.5" height="13.5"/>
		<rect x="223.7" y="27.2" fill="#4F7256" width="13.5" height="13.5"/>
		<rect x="243.1" y="27.2" fill="#4F7256" width="13.5" height="13.5"/>
		<rect x="262.4" y="27.2" fill="#4F7256" width="13.5" height="13.5"/>
		<rect x="281.7" y="27.2" fill="#4F7256" width="13.5" height="13.5"/>
		<rect x="301" y="27.2" fill="#4F7256" width="13.5" height="13.5"/>
	</g>
	<g>
		<rect x="30.6" y="45.8" fill="#4F7256" width="13.5" height="13.5"/>
		<rect x="49.9" y="45.8" fill="#4F7256" width="13.5" height="13.5"/>
		<rect x="69.2" y="45.8" fill="#4F7256" width="13.5" height="13.5"/>
		<rect x="88.5" y="45.8" fill="#4F7256" width="13.5" height="13.5"/>
		<rect x="107.8" y="45.8" fill="#4F7256" width="13.5" height="13.5"/>
		<rect x="127.2" y="45.8" fill="#4F7256" width="13.5" height="13.5"/>
		<rect x="146.5" y="45.8" fill="#4F7256" width="13.5" height="13.5"/>
		<rect x="165.8" y="45.8" fill="#4F7256" width="13.5" height="13.5"/>
		<rect x="185.1" y="45.8" fill="#4F7256" width="13.5" height="13.5"/>
		<rect x="204.4" y="45.8" fill="#4F7256" width="13.5" height="13.5"/>
		<rect x="223.7" y="45.8" fill="#4F7256" width="13.5" height="13.5"/>
		<rect x="243.1" y="45.8" fill="#4F7256" width="13.5" height="13.5"/>
		<rect x="262.4" y="45.8" fill="#4F7256" width="13.5" height="13.5"/>
		<rect x="281.7" y="45.8" fill="#4F7256" width="13.5" height="13.5"/>
		<rect x="301" y="45.8" fill="#4F7256" width="13.5" height="13.5"/>
	</g>
	<g>
		<rect x="30.6" y="64.4" fill="#4F7256" width="13.5" height="13.5"/>
		<rect x="49.9" y="64.4" fill="#4F7256" width="13.5" height="13.5"/>
		<rect x="69.2" y="64.4" fill="#4F7256" width="13.5" height="13.5"/>
		<rect x="88.5" y="64.4" fill="#4F7256" width="13.5" height="13.5"/>
		<rect x="107.8" y="64.4" fill="#4F7256" width="13.5" height="13.5"/>
		<rect x="127.2" y="64.4" fill="#4F7256" width="13.5" height="13.5"/>
		<rect x="146.5" y="64.4" fill="#4F7256" width="13.5" height="13.5"/>
		<rect x="165.8" y="64.4" fill="#4F7256" width="13.5" height="13.5"/>
		<rect x="185.1" y="64.4" fill="#4F7256" width="13.5" height="13.5"/>
		<rect x="204.4" y="64.4" fill="#4F7256" width="13.5" height="13.5"/>
		<rect x="223.7" y="64.4" fill="#4F7256" width="13.5" height="13.5"/>
		<rect x="243.1" y="64.4" fill="#4F7256" width="13.5" height="13.5"/>
		<rect x="262.4" y="64.4" fill="#4F7256" width="13.5" height="13.5"/>
		<rect x="281.7" y="64.4" fill="#4F7256" width="13.5" height="13.5"/>
		<rect x="301" y="64.4" fill="#4F7256" width="13.5" height="13.5"/>
	</g>
	<g>
		<rect x="30.6" y="83" fill="#4F7256" width="13.5" height="13.5"/>
		<rect x="49.9" y="83" fill="#4F7256" width="13.5" height="13.5"/>
		<rect x="69.2" y="83" fill="#4F7256" width="13.5" height="13.5"/>
		<rect x="88.5" y="83" fill="#4F7256" width="13.5" height="13.5"/>
		<rect x="107.8" y="83" fill="#4F7256" width="13.5" height="13.5"/>
		<rect x="127.2" y="83" fill="#4F7256" width="13.5" height="13.5"/>
		<rect x="146.5" y="83" fill="#4F7256" width="13.5" height="13.5"/>
		<rect x="165.8" y="83" fill="#4F7256" width="13.5" height="13.5"/>
		<rect x="185.1" y="83" fill="#4F7256" width="13.5" height="13.5"/>
		<rect x="204.4" y="83" fill="#4F7256" width="13.5" height="13.5"/>
		<rect x="223.7" y="83" fill="#4F7256" width="13.5" height="13.5"/>
		<rect x="243.1" y="83" fill="#4F7256" width="13.5" height="13.5"/>
		<rect x="262.4" y="83" fill="#4F7256" width="13.5" height="13.5"/>
		<rect x="281.7" y="83" fill="#4F7256" width="13.5" height="13.5"/>
		<rect x="301" y="83" fill="#4F7256" width="13.5" height="13.5"/>
	</g>
	<g>
		<rect x="30.6" y="102.2" fill="#4F7256" width="13.5" height="13.5"/>
		<rect x="49.9" y="102.2" fill="#4F7256" width="13.5" height="13.5"/>
		<rect x="69.2" y="102.2" fill="#4F7256" width="13.5" height="13.5"/>
		<rect x="88.5" y="102.2" fill="#4F7256" width="13.5" height="13.5"/>
		<rect x="107.8" y="102.2" fill="#4F7256" width="13.5" height="13.5"/>
		<rect x="225.9" y="102.2" fill="#4F7256" width="13.5" height="13.5"/>
		<rect x="244.1" y="102.2" fill="#4F7256" width="13.5" height="13.5"/>
		<rect x="262.4" y="102.2" fill="#4F7256" width="13.5" height="13.5"/>
		<rect x="281.7" y="102.2" fill="#4F7256" width="13.5" height="13.5"/>
		<rect x="301" y="102.2" fill="#4F7256" width="13.5" height="13.5"/>
	</g>
	<g>
		<rect x="30.6" y="121.1" fill="#4F7256" width="13.5" height="13.5"/>
		<rect x="49.9" y="121.1" fill="#4F7256" width="13.5" height="13.5"/>
		<rect x="69.2" y="121.1" fill="#4F7256" width="13.5" height="13.5"/>
		<rect x="88.5" y="121.1" fill="#4F7256" width="13.5" height="13.5"/>
		<rect x="107.8" y="121.1" fill="#4F7256" width="13.5" height="13.5"/>
		<rect x="225.9" y="121.1" fill="#4F7256" width="13.5" height="13.5"/>
		<rect x="244.1" y="121.1" fill="#4F7256" width="13.5" height="13.5"/>
		<rect x="262.4" y="121.1" fill="#4F7256" width="13.5" height="13.5"/>
		<rect x="281.7" y="121.1" fill="#4F7256" width="13.5" height="13.5"/>
		<rect x="301" y="121.1" fill="#4F7256" width="13.5" height="13.5"/>
	</g>
	<g>
		<rect x="30.6" y="138.6" fill="#4F7256" width="13.5" height="13.5"/>
		<rect x="49.9" y="138.6" fill="#4F7256" width="13.5" height="13.5"/>
		<rect x="69.2" y="138.6" fill="#4F7256" width="13.5" height="13.5"/>
		<rect x="88.5" y="138.6" fill="#4F7256" width="13.5" height="13.5"/>
		<rect x="107.8" y="138.6" fill="#4F7256" width="13.5" height="13.5"/>
		<rect x="225.9" y="138.6" fill="#4F7256" width="13.5" height="13.5"/>
		<rect x="244.1" y="138.6" fill="#4F7256" width="13.5" height="13.5"/>
		<rect x="262.4" y="138.6" fill="#4F7256" width="13.5" height="13.5"/>
		<rect x="281.7" y="138.6" fill="#4F7256" width="13.5" height="13.5"/>
		<rect x="301" y="138.6" fill="#4F7256" width="13.5" height="13.5"/>
	</g>
	<g>
		<rect x="30.6" y="157.5" fill="#4F7256" width="13.5" height="13.5"/>
		<rect x="49.9" y="157.5" fill="#4F7256" width="13.5" height="13.5"/>
		<rect x="69.2" y="157.5" fill="#4F7256" width="13.5" height="13.5"/>
		<rect x="88.5" y="157.5" fill="#4F7256" width="13.5" height="13.5"/>
		<rect x="107.8" y="157.5" fill="#4F7256" width="13.5" height="13.5"/>
		<rect x="225.9" y="157.5" fill="#4F7256" width="13.5" height="13.5"/>
		<rect x="244.1" y="157.5" fill="#4F7256" width="13.5" height="13.5"/>
		<rect x="262.4" y="157.5" fill="#4F7256" width="13.5" height="13.5"/>
		<rect x="281.7" y="157.5" fill="#4F7256" width="13.5" height="13.5"/>
		<rect x="301" y="157.5" fill="#4F7256" width="13.5" height="13.5"/>
	</g>
	<g>
		<rect x="30.6" y="175.6" fill="#4F7256" width="13.5" height="13.5"/>
		<rect x="49.9" y="175.6" fill="#4F7256" width="13.5" height="13.5"/>
		<rect x="69.2" y="175.6" fill="#4F7256" width="13.5" height="13.5"/>
		<rect x="88.5" y="175.6" fill="#4F7256" width="13.5" height="13.5"/>
		<rect x="107.8" y="175.6" fill="#4F7256" width="13.5" height="13.5"/>
		<rect x="225.9" y="175.6" fill="#4F7256" width="13.5" height="13.5"/>
		<rect x="244.1" y="175.6" fill="#4F7256" width="13.5" height="13.5"/>
		<rect x="262.4" y="175.6" fill="#4F7256" width="13.5" height="13.5"/>
		<rect x="281.7" y="175.6" fill="#4F7256" width="13.5" height="13.5"/>
		<rect x="301" y="175.6" fill="#4F7256" width="13.5" height="13.5"/>
	</g>
	<g>
		<rect x="30.6" y="194.5" fill="#4F7256" width="13.5" height="13.5"/>
		<rect x="49.9" y="194.5" fill="#4F7256" width="13.5" height="13.5"/>
		<rect x="69.2" y="194.5" fill="#4F7256" width="13.5" height="13.5"/>
		<rect x="88.5" y="194.5" fill="#4F7256" width="13.5" height="13.5"/>
		<rect x="107.8" y="194.5" fill="#4F7256" width="13.5" height="13.5"/>
		<rect x="225.9" y="194.5" fill="#4F7256" width="13.5" height="13.5"/>
		<rect x="244.1" y="194.5" fill="#4F7256" width="13.5" height="13.5"/>
		<rect x="262.4" y="194.5" fill="#4F7256" width="13.5" height="13.5"/>
		<rect x="281.7" y="194.5" fill="#4F7256" width="13.5" height="13.5"/>
		<rect x="301" y="194.5" fill="#4F7256" width="13.5" height="13.5"/>
	</g>
	<g>
		<rect x="30.6" y="215" fill="#4F7256" width="13.5" height="13.5"/>
		<rect x="49.9" y="215" fill="#4F7256" width="13.5" height="13.5"/>
		<rect x="69.2" y="215" fill="#4F7256" width="13.5" height="13.5"/>
		<rect x="88.5" y="215" fill="#4F7256" width="13.5" height="13.5"/>
		<rect x="107.8" y="215" fill="#4F7256" width="13.5" height="13.5"/>
		<rect x="225.9" y="215" fill="#4F7256" width="13.5" height="13.5"/>
		<rect x="244.1" y="215" fill="#4F7256" width="13.5" height="13.5"/>
		<rect x="262.4" y="215" fill="#4F7256" width="13.5" height="13.5"/>
		<rect x="281.7" y="215" fill="#4F7256" width="13.5" height="13.5"/>
		<rect x="301" y="215" fill="#4F7256" width="13.5" height="13.5"/>
	</g>
	<g>
		<rect x="30.6" y="233.8" fill="#4F7256" width="13.5" height="13.5"/>
		<rect x="49.9" y="233.8" fill="#4F7256" width="13.5" height="13.5"/>
		<rect x="69.2" y="233.8" fill="#4F7256" width="13.5" height="13.5"/>
		<rect x="88.5" y="233.8" fill="#4F7256" width="13.5" height="13.5"/>
		<rect x="107.8" y="233.8" fill="#4F7256" width="13.5" height="13.5"/>
		<rect x="225.9" y="233.8" fill="#4F7256" width="13.5" height="13.5"/>
		<rect x="244.1" y="233.8" fill="#4F7256" width="13.5" height="13.5"/>
		<rect x="262.4" y="233.8" fill="#4F7256" width="13.5" height="13.5"/>
		<rect x="281.7" y="233.8" fill="#4F7256" width="13.5" height="13.5"/>
		<rect x="301" y="233.8" fill="#4F7256" width="13.5" height="13.5"/>
	</g>
	<g>
		<rect x="30.6" y="253.4" fill="#4F7256" width="13.5" height="13.5"/>
		<rect x="49.9" y="253.4" fill="#4F7256" width="13.5" height="13.5"/>
		<rect x="69.2" y="253.4" fill="#4F7256" width="13.5" height="13.5"/>
		<rect x="88.5" y="253.4" fill="#4F7256" width="13.5" height="13.5"/>
		<rect x="107.8" y="253.4" fill="#4F7256" width="13.5" height="13.5"/>
		<rect x="225.9" y="253.4" fill="#4F7256" width="13.5" height="13.5"/>
		<rect x="244.1" y="253.4" fill="#4F7256" width="13.5" height="13.5"/>
		<rect x="262.4" y="253.4" fill="#4F7256" width="13.5" height="13.5"/>
		<rect x="281.7" y="253.4" fill="#4F7256" width="13.5" height="13.5"/>
		<rect x="301" y="253.4" fill="#4F7256" width="13.5" height="13.5"/>
	</g>
	<g>
		<rect x="30.6" y="272.2" fill="#4F7256" width="13.5" height="13.5"/>
		<rect x="49.9" y="272.2" fill="#4F7256" width="13.5" height="13.5"/>
		<rect x="69.2" y="272.2" fill="#4F7256" width="13.5" height="13.5"/>
		<rect x="88.5" y="272.2" fill="#4F7256" width="13.5" height="13.5"/>
		<rect x="107.8" y="272.2" fill="#4F7256" width="13.5" height="13.5"/>
		<rect x="225.9" y="272.2" fill="#4F7256" width="13.5" height="13.5"/>
		<rect x="244.1" y="272.2" fill="#4F7256" width="13.5" height="13.5"/>
		<rect x="262.4" y="272.2" fill="#4F7256" width="13.5" height="13.5"/>
		<rect x="281.7" y="272.2" fill="#4F7256" width="13.5" height="13.5"/>
		<rect x="301" y="272.2" fill="#4F7256" width="13.5" height="13.5"/>
	</g>
	<g>
		<rect x="30.6" y="290.4" fill="#4F7256" width="13.5" height="13.5"/>
		<rect x="49.9" y="290.4" fill="#4F7256" width="13.5" height="13.5"/>
		<rect x="69.2" y="290.4" fill="#4F7256" width="13.5" height="13.5"/>
		<rect x="88.5" y="290.4" fill="#4F7256" width="13.5" height="13.5"/>
		<rect x="107.8" y="290.4" fill="#4F7256" width="13.5" height="13.5"/>
		<rect x="225.9" y="290.4" fill="#4F7256" width="13.5" height="13.5"/>
		<rect x="244.1" y="290.4" fill="#4F7256" width="13.5" height="13.5"/>
		<rect x="262.4" y="290.4" fill="#4F7256" width="13.5" height="13.5"/>
		<rect x="281.7" y="290.4" fill="#4F7256" width="13.5" height="13.5"/>
		<rect x="301" y="290.4" fill="#4F7256" width="13.5" height="13.5"/>
	</g>
	<g>
		<rect x="30.6" y="309.2" fill="#4F7256" width="13.5" height="13.5"/>
		<rect x="49.9" y="309.2" fill="#4F7256" width="13.5" height="13.5"/>
		<rect x="69.2" y="309.2" fill="#4F7256" width="13.5" height="13.5"/>
		<rect x="88.5" y="309.2" fill="#4F7256" width="13.5" height="13.5"/>
		<rect x="107.8" y="309.2" fill="#4F7256" width="13.5" height="13.5"/>
		<rect x="225.9" y="309.2" fill="#4F7256" width="13.5" height="13.5"/>
		<rect x="244.1" y="309.2" fill="#4F7256" width="13.5" height="13.5"/>
		<rect x="262.4" y="309.2" fill="#4F7256" width="13.5" height="13.5"/>
		<rect x="281.7" y="309.2" fill="#4F7256" width="13.5" height="13.5"/>
		<rect x="301" y="309.2" fill="#4F7256" width="13.5" height="13.5"/>
	</g>
	<g>
		<rect x="30.6" y="329.4" fill="#4F7256" width="13.5" height="13.5"/>
		<rect x="49.9" y="329.4" fill="#4F7256" width="13.5" height="13.5"/>
		<rect x="69.2" y="329.4" fill="#4F7256" width="13.5" height="13.5"/>
		<rect x="88.5" y="329.4" fill="#4F7256" width="13.5" height="13.5"/>
		<rect x="107.8" y="329.4" fill="#4F7256" width="13.5" height="13.5"/>
		<rect x="225.9" y="329.4" fill="#4F7256" width="13.5" height="13.5"/>
		<rect x="244.1" y="329.4" fill="#4F7256" width="13.5" height="13.5"/>
		<rect x="262.4" y="329.4" fill="#4F7256" width="13.5" height="13.5"/>
		<rect x="281.7" y="329.4" fill="#4F7256" width="13.5" height="13.5"/>
		<rect x="301" y="329.4" fill="#4F7256" width="13.5" height="13.5"/>
	</g>
	<g>
		<rect x="30.6" y="348.3" fill="#4F7256" width="13.5" height="13.5"/>
		<rect x="49.9" y="348.3" fill="#4F7256" width="13.5" height="13.5"/>
		<rect x="69.2" y="348.3" fill="#4F7256" width="13.5" height="13.5"/>
		<rect x="88.5" y="348.3" fill="#4F7256" width="13.5" height="13.5"/>
		<rect x="107.8" y="348.3" fill="#4F7256" width="13.5" height="13.5"/>
		<rect x="225.9" y="348.3" fill="#4F7256" width="13.5" height="13.5"/>
		<rect x="244.1" y="348.3" fill="#4F7256" width="13.5" height="13.5"/>
		<rect x="262.4" y="348.3" fill="#4F7256" width="13.5" height="13.5"/>
		<rect x="281.7" y="348.3" fill="#4F7256" width="13.5" height="13.5"/>
		<rect x="301" y="348.3" fill="#4F7256" width="13.5" height="13.5"/>
	</g>
	<g>
		<rect x="30.6" y="366.7" fill="#4F7256" width="13.5" height="13.5"/>
		<rect x="49.9" y="366.7" fill="#4F7256" width="13.5" height="13.5"/>
		<rect x="69.2" y="366.7" fill="#4F7256" width="13.5" height="13.5"/>
		<rect x="88.5" y="366.7" fill="#4F7256" width="13.5" height="13.5"/>
		<rect x="107.8" y="366.7" fill="#4F7256" width="13.5" height="13.5"/>
		<rect x="225.9" y="366.7" fill="#4F7256" width="13.5" height="13.5"/>
		<rect x="244.1" y="366.7" fill="#4F7256" width="13.5" height="13.5"/>
		<rect x="262.4" y="366.7" fill="#4F7256" width="13.5" height="13.5"/>
		<rect x="281.7" y="366.7" fill="#4F7256" width="13.5" height="13.5"/>
		<rect x="301" y="366.7" fill="#4F7256" width="13.5" height="13.5"/>
	</g>
	<g>
		<rect x="30.6" y="385.6" fill="#4F7256" width="13.5" height="13.5"/>
		<rect x="49.9" y="385.6" fill="#4F7256" width="13.5" height="13.5"/>
		<rect x="69.2" y="385.6" fill="#4F7256" width="13.5" height="13.5"/>
		<rect x="88.5" y="385.6" fill="#4F7256" width="13.5" height="13.5"/>
		<rect x="107.8" y="385.6" fill="#4F7256" width="13.5" height="13.5"/>
		<rect x="225.9" y="385.6" fill="#4F7256" width="13.5" height="13.5"/>
		<rect x="244.1" y="385.6" fill="#4F7256" width="13.5" height="13.5"/>
		<rect x="262.4" y="385.6" fill="#4F7256" width="13.5" height="13.5"/>
		<rect x="281.7" y="385.6" fill="#4F7256" width="13.5" height="13.5"/>
		<rect x="301" y="385.6" fill="#4F7256" width="13.5" height="13.5"/>
	</g>
	<g>
		<rect x="30.6" y="403.7" fill="#4F7256" width="13.5" height="13.5"/>
		<rect x="49.9" y="403.7" fill="#4F7256" width="13.5" height="13.5"/>
		<rect x="69.2" y="403.7" fill="#4F7256" width="13.5" height="13.5"/>
		<rect x="88.5" y="403.7" fill="#4F7256" width="13.5" height="13.5"/>
		<rect x="107.8" y="403.7" fill="#4F7256" width="13.5" height="13.5"/>
		<rect x="225.9" y="403.7" fill="#4F7256" width="13.5" height="13.5"/>
		<rect x="244.1" y="403.7" fill="#4F7256" width="13.5" height="13.5"/>
		<rect x="262.4" y="403.7" fill="#4F7256" width="13.5" height="13.5"/>
		<rect x="281.7" y="403.7" fill="#4F7256" width="13.5" height="13.5"/>
		<rect x="301" y="403.7" fill="#4F7256" width="13.5" height="13.5"/>
	</g>
</g>
</svg>
