<?xml version="1.0" encoding="utf-8"?>
<!-- Generator: Adobe Illustrator 18.1.0, SVG Export Plug-In . SVG Version: 6.00 Build 0)  -->
<!DOCTYPE svg PUBLIC "-//W3C//DTD SVG 1.1//EN" "http://www.w3.org/Graphics/SVG/1.1/DTD/svg11.dtd">
<svg version="1.1" id="Layer_1" xmlns="http://www.w3.org/2000/svg" xmlns:xlink="http://www.w3.org/1999/xlink" x="0px" y="0px"
	 viewBox="0 0 345 468" enable-background="new 0 0 345 468" xml:space="preserve">
<rect x="24.2" y="29.3" fill="#D3CDC9" width="101.9" height="414.1"/>
<rect x="24.2" y="26.1" fill="#D3CDC9" width="296.2" height="101.9"/>
<rect x="126.1" y="127.8" fill="#9B8379" width="12.2" height="315.6"/>
<rect x="1.5" y="66.3" fill="#BFA79B" width="22.7" height="377.2"/>
<g>
	<rect x="30.4" y="32.8" fill="#4F7256" width="13.4" height="13.4"/>
	<rect x="49.6" y="32.8" fill="#4F7256" width="13.4" height="13.4"/>
	<rect x="68.8" y="32.8" fill="#4F7256" width="13.4" height="13.4"/>
	<rect x="88" y="32.8" fill="#4F7256" width="13.4" height="13.4"/>
	<rect x="107.2" y="32.8" fill="#4F7256" width="13.4" height="13.4"/>
	<rect x="126.5" y="32.8" fill="#4F7256" width="13.4" height="13.4"/>
	<rect x="145.7" y="32.8" fill="#4F7256" width="13.4" height="13.4"/>
	<rect x="164.8" y="32.8" fill="#4F7256" width="13.4" height="13.4"/>
	<rect x="184" y="32.8" fill="#4F7256" width="13.4" height="13.4"/>
	<rect x="203.2" y="32.8" fill="#4F7256" width="13.4" height="13.4"/>
	<rect x="222.4" y="32.8" fill="#4F7256" width="13.4" height="13.4"/>
	<rect x="241.7" y="32.8" fill="#4F7256" width="13.4" height="13.4"/>
	<rect x="260.9" y="32.8" fill="#4F7256" width="13.4" height="13.4"/>
	<rect x="280.1" y="32.8" fill="#4F7256" width="13.4" height="13.4"/>
	<rect x="299.3" y="32.8" fill="#4F7256" width="13.4" height="13.4"/>
</g>
<g>
	<rect x="30.4" y="51.3" fill="#4F7256" width="13.4" height="13.4"/>
	<rect x="49.6" y="51.3" fill="#4F7256" width="13.4" height="13.4"/>
	<rect x="68.8" y="51.3" fill="#4F7256" width="13.4" height="13.4"/>
	<rect x="88" y="51.3" fill="#4F7256" width="13.4" height="13.4"/>
	<rect x="107.2" y="51.3" fill="#4F7256" width="13.4" height="13.4"/>
	<rect x="126.5" y="51.3" fill="#4F7256" width="13.4" height="13.4"/>
	<rect x="145.7" y="51.3" fill="#4F7256" width="13.4" height="13.4"/>
	<rect x="164.8" y="51.3" fill="#4F7256" width="13.4" height="13.4"/>
	<rect x="184" y="51.3" fill="#4F7256" width="13.4" height="13.4"/>
	<rect x="203.2" y="51.3" fill="#4F7256" width="13.4" height="13.4"/>
	<rect x="222.4" y="51.3" fill="#4F7256" width="13.4" height="13.4"/>
	<rect x="241.7" y="51.3" fill="#4F7256" width="13.4" height="13.4"/>
	<rect x="260.9" y="51.3" fill="#4F7256" width="13.4" height="13.4"/>
	<rect x="280.1" y="51.3" fill="#4F7256" width="13.4" height="13.4"/>
	<rect x="299.3" y="51.3" fill="#4F7256" width="13.4" height="13.4"/>
</g>
<g>
	<rect x="30.4" y="69.8" fill="#4F7256" width="13.4" height="13.4"/>
	<rect x="49.6" y="69.8" fill="#4F7256" width="13.4" height="13.4"/>
	<rect x="68.8" y="69.8" fill="#4F7256" width="13.4" height="13.4"/>
	<rect x="88" y="69.8" fill="#4F7256" width="13.4" height="13.4"/>
	<rect x="107.2" y="69.8" fill="#4F7256" width="13.4" height="13.4"/>
	<rect x="126.5" y="69.8" fill="#4F7256" width="13.4" height="13.4"/>
	<rect x="145.7" y="69.8" fill="#4F7256" width="13.4" height="13.4"/>
	<rect x="164.8" y="69.8" fill="#4F7256" width="13.4" height="13.4"/>
	<rect x="184" y="69.8" fill="#4F7256" width="13.4" height="13.4"/>
	<rect x="203.2" y="69.8" fill="#4F7256" width="13.4" height="13.4"/>
	<rect x="222.4" y="69.8" fill="#4F7256" width="13.4" height="13.4"/>
	<rect x="241.7" y="69.8" fill="#4F7256" width="13.4" height="13.4"/>
	<rect x="260.9" y="69.8" fill="#4F7256" width="13.4" height="13.4"/>
	<rect x="280.1" y="69.8" fill="#4F7256" width="13.4" height="13.4"/>
	<rect x="299.3" y="69.8" fill="#4F7256" width="13.4" height="13.4"/>
</g>
<g>
	<rect x="30.4" y="88.2" fill="#4F7256" width="13.4" height="13.4"/>
	<rect x="49.6" y="88.2" fill="#4F7256" width="13.4" height="13.4"/>
	<rect x="68.8" y="88.2" fill="#4F7256" width="13.4" height="13.4"/>
	<rect x="88" y="88.2" fill="#4F7256" width="13.4" height="13.4"/>
	<rect x="107.2" y="88.2" fill="#4F7256" width="13.4" height="13.4"/>
	<rect x="126.5" y="88.2" fill="#4F7256" width="13.4" height="13.4"/>
	<rect x="145.7" y="88.2" fill="#4F7256" width="13.4" height="13.4"/>
	<rect x="164.8" y="88.2" fill="#4F7256" width="13.4" height="13.4"/>
	<rect x="184" y="88.2" fill="#4F7256" width="13.4" height="13.4"/>
	<rect x="203.2" y="88.2" fill="#4F7256" width="13.4" height="13.4"/>
	<rect x="222.4" y="88.2" fill="#4F7256" width="13.4" height="13.4"/>
	<rect x="241.7" y="88.2" fill="#4F7256" width="13.4" height="13.4"/>
	<rect x="260.9" y="88.2" fill="#4F7256" width="13.4" height="13.4"/>
	<rect x="280.1" y="88.2" fill="#4F7256" width="13.4" height="13.4"/>
	<rect x="299.3" y="88.2" fill="#4F7256" width="13.4" height="13.4"/>
</g>
<g>
	<rect x="30.4" y="106.7" fill="#4F7256" width="13.4" height="13.4"/>
	<rect x="49.6" y="106.7" fill="#4F7256" width="13.4" height="13.4"/>
	<rect x="68.8" y="106.7" fill="#4F7256" width="13.4" height="13.4"/>
	<rect x="88" y="106.7" fill="#4F7256" width="13.4" height="13.4"/>
	<rect x="107.2" y="106.7" fill="#4F7256" width="13.4" height="13.4"/>
	<rect x="126.5" y="106.7" fill="#4F7256" width="13.4" height="13.4"/>
	<rect x="145.7" y="106.7" fill="#4F7256" width="13.4" height="13.4"/>
	<rect x="164.8" y="106.7" fill="#4F7256" width="13.4" height="13.4"/>
	<rect x="184" y="106.7" fill="#4F7256" width="13.4" height="13.4"/>
	<rect x="203.2" y="106.7" fill="#4F7256" width="13.4" height="13.4"/>
	<rect x="222.4" y="106.7" fill="#4F7256" width="13.4" height="13.4"/>
	<rect x="241.7" y="106.7" fill="#4F7256" width="13.4" height="13.4"/>
	<rect x="260.9" y="106.7" fill="#4F7256" width="13.4" height="13.4"/>
	<rect x="280.1" y="106.7" fill="#4F7256" width="13.4" height="13.4"/>
	<rect x="299.3" y="106.7" fill="#4F7256" width="13.4" height="13.4"/>
</g>
<g>
	<rect x="30.4" y="125.8" fill="#4F7256" width="13.4" height="13.4"/>
	<rect x="49.6" y="125.8" fill="#4F7256" width="13.4" height="13.4"/>
	<rect x="68.8" y="125.8" fill="#4F7256" width="13.4" height="13.4"/>
	<rect x="88" y="125.8" fill="#4F7256" width="13.4" height="13.4"/>
	<rect x="107.2" y="125.8" fill="#4F7256" width="13.4" height="13.4"/>
</g>
<g>
	<rect x="30.4" y="144.6" fill="#4F7256" width="13.4" height="13.4"/>
	<rect x="49.6" y="144.6" fill="#4F7256" width="13.4" height="13.4"/>
	<rect x="68.8" y="144.6" fill="#4F7256" width="13.4" height="13.4"/>
	<rect x="88" y="144.6" fill="#4F7256" width="13.4" height="13.4"/>
	<rect x="107.2" y="144.6" fill="#4F7256" width="13.4" height="13.4"/>
</g>
<g>
	<rect x="30.4" y="162" fill="#4F7256" width="13.4" height="13.4"/>
	<rect x="49.6" y="162" fill="#4F7256" width="13.4" height="13.4"/>
	<rect x="68.8" y="162" fill="#4F7256" width="13.4" height="13.4"/>
	<rect x="88" y="162" fill="#4F7256" width="13.4" height="13.4"/>
	<rect x="107.2" y="162" fill="#4F7256" width="13.4" height="13.4"/>
</g>
<g>
	<rect x="30.4" y="180.8" fill="#4F7256" width="13.4" height="13.4"/>
	<rect x="49.6" y="180.8" fill="#4F7256" width="13.4" height="13.4"/>
	<rect x="68.8" y="180.8" fill="#4F7256" width="13.4" height="13.4"/>
	<rect x="88" y="180.8" fill="#4F7256" width="13.4" height="13.4"/>
	<rect x="107.2" y="180.8" fill="#4F7256" width="13.4" height="13.4"/>
</g>
<g>
	<rect x="30.4" y="198.8" fill="#4F7256" width="13.4" height="13.4"/>
	<rect x="49.6" y="198.8" fill="#4F7256" width="13.4" height="13.4"/>
	<rect x="68.8" y="198.8" fill="#4F7256" width="13.4" height="13.4"/>
	<rect x="88" y="198.8" fill="#4F7256" width="13.4" height="13.4"/>
	<rect x="107.2" y="198.8" fill="#4F7256" width="13.4" height="13.4"/>
</g>
<g>
	<rect x="30.4" y="217.6" fill="#4F7256" width="13.4" height="13.4"/>
	<rect x="49.6" y="217.6" fill="#4F7256" width="13.4" height="13.4"/>
	<rect x="68.8" y="217.6" fill="#4F7256" width="13.4" height="13.4"/>
	<rect x="88" y="217.6" fill="#4F7256" width="13.4" height="13.4"/>
	<rect x="107.2" y="217.6" fill="#4F7256" width="13.4" height="13.4"/>
</g>
<g>
	<rect x="30.4" y="238" fill="#4F7256" width="13.4" height="13.4"/>
	<rect x="49.6" y="238" fill="#4F7256" width="13.4" height="13.4"/>
	<rect x="68.8" y="238" fill="#4F7256" width="13.4" height="13.4"/>
	<rect x="88" y="238" fill="#4F7256" width="13.4" height="13.4"/>
	<rect x="107.2" y="238" fill="#4F7256" width="13.4" height="13.4"/>
</g>
<g>
	<rect x="30.4" y="256.7" fill="#4F7256" width="13.4" height="13.4"/>
	<rect x="49.6" y="256.7" fill="#4F7256" width="13.4" height="13.4"/>
	<rect x="68.8" y="256.7" fill="#4F7256" width="13.4" height="13.4"/>
	<rect x="88" y="256.7" fill="#4F7256" width="13.4" height="13.4"/>
	<rect x="107.2" y="256.7" fill="#4F7256" width="13.4" height="13.4"/>
</g>
<g>
	<rect x="30.4" y="276.2" fill="#4F7256" width="13.4" height="13.4"/>
	<rect x="49.6" y="276.2" fill="#4F7256" width="13.4" height="13.4"/>
	<rect x="68.8" y="276.2" fill="#4F7256" width="13.4" height="13.4"/>
	<rect x="88" y="276.2" fill="#4F7256" width="13.4" height="13.4"/>
	<rect x="107.2" y="276.2" fill="#4F7256" width="13.4" height="13.4"/>
</g>
<g>
	<rect x="30.4" y="294.8" fill="#4F7256" width="13.4" height="13.4"/>
	<rect x="49.6" y="294.8" fill="#4F7256" width="13.4" height="13.4"/>
	<rect x="68.8" y="294.8" fill="#4F7256" width="13.4" height="13.4"/>
	<rect x="88" y="294.8" fill="#4F7256" width="13.4" height="13.4"/>
	<rect x="107.2" y="294.8" fill="#4F7256" width="13.4" height="13.4"/>
</g>
<g>
	<rect x="30.4" y="312.9" fill="#4F7256" width="13.4" height="13.4"/>
	<rect x="49.6" y="312.9" fill="#4F7256" width="13.4" height="13.4"/>
	<rect x="68.8" y="312.9" fill="#4F7256" width="13.4" height="13.4"/>
	<rect x="88" y="312.9" fill="#4F7256" width="13.4" height="13.4"/>
	<rect x="107.2" y="312.9" fill="#4F7256" width="13.4" height="13.4"/>
</g>
<g>
	<rect x="30.4" y="331.6" fill="#4F7256" width="13.4" height="13.4"/>
	<rect x="49.6" y="331.6" fill="#4F7256" width="13.4" height="13.4"/>
	<rect x="68.8" y="331.6" fill="#4F7256" width="13.4" height="13.4"/>
	<rect x="88" y="331.6" fill="#4F7256" width="13.4" height="13.4"/>
	<rect x="107.2" y="331.6" fill="#4F7256" width="13.4" height="13.4"/>
</g>
<g>
	<rect x="30.4" y="351.7" fill="#4F7256" width="13.4" height="13.4"/>
	<rect x="49.6" y="351.7" fill="#4F7256" width="13.4" height="13.4"/>
	<rect x="68.8" y="351.7" fill="#4F7256" width="13.4" height="13.4"/>
	<rect x="88" y="351.7" fill="#4F7256" width="13.4" height="13.4"/>
	<rect x="107.2" y="351.7" fill="#4F7256" width="13.4" height="13.4"/>
</g>
<g>
	<rect x="30.4" y="370.5" fill="#4F7256" width="13.4" height="13.4"/>
	<rect x="49.6" y="370.5" fill="#4F7256" width="13.4" height="13.4"/>
	<rect x="68.8" y="370.5" fill="#4F7256" width="13.4" height="13.4"/>
	<rect x="88" y="370.5" fill="#4F7256" width="13.4" height="13.4"/>
	<rect x="107.2" y="370.5" fill="#4F7256" width="13.4" height="13.4"/>
</g>
<g>
	<rect x="30.4" y="388.8" fill="#4F7256" width="13.4" height="13.4"/>
	<rect x="49.6" y="388.8" fill="#4F7256" width="13.4" height="13.4"/>
	<rect x="68.8" y="388.8" fill="#4F7256" width="13.4" height="13.4"/>
	<rect x="88" y="388.8" fill="#4F7256" width="13.4" height="13.4"/>
	<rect x="107.2" y="388.8" fill="#4F7256" width="13.4" height="13.4"/>
</g>
<g>
	<rect x="30.4" y="407.6" fill="#4F7256" width="13.4" height="13.4"/>
	<rect x="49.6" y="407.6" fill="#4F7256" width="13.4" height="13.4"/>
	<rect x="68.8" y="407.6" fill="#4F7256" width="13.4" height="13.4"/>
	<rect x="88" y="407.6" fill="#4F7256" width="13.4" height="13.4"/>
	<rect x="107.2" y="407.6" fill="#4F7256" width="13.4" height="13.4"/>
</g>
<g>
	<rect x="30.4" y="425.6" fill="#4F7256" width="13.4" height="13.4"/>
	<rect x="49.6" y="425.6" fill="#4F7256" width="13.4" height="13.4"/>
	<rect x="68.8" y="425.6" fill="#4F7256" width="13.4" height="13.4"/>
	<rect x="88" y="425.6" fill="#4F7256" width="13.4" height="13.4"/>
	<rect x="107.2" y="425.6" fill="#4F7256" width="13.4" height="13.4"/>
</g>
</svg>
