<?xml version="1.0" encoding="utf-8"?>
<!-- Generator: Adobe Illustrator 18.1.0, SVG Export Plug-In . SVG Version: 6.00 Build 0)  -->
<!DOCTYPE svg PUBLIC "-//W3C//DTD SVG 1.1//EN" "http://www.w3.org/Graphics/SVG/1.1/DTD/svg11.dtd">
<svg version="1.1" id="Layer_1" xmlns="http://www.w3.org/2000/svg" xmlns:xlink="http://www.w3.org/1999/xlink" x="0px" y="0px"
	 viewBox="0 0 357 295" enable-background="new 0 0 357 295" xml:space="preserve">
<g>
	<g>
		<path fill="#E5E5E4" d="M59.2,139.5l8.4-20.3l15.4-6.4l5.6-10.8l7.8-13.1c0,0,7.9-5.6,9.6-6c1.7-0.3,8.2,0.9,8.2,0.9
			s9.9-10.5,11.4-9.6c1.4,1,10.7-3.4,10.7-3.4l7-5.7l7.4-0.3c0,0,2.5-4.5,4.2-5.5c1.7-1.1,9.6-2.7,9.6-2.7l9.3-13.4l8.8-5.7l7.5,0.9
			l9.9,9.2l3.8,5.7l8.6,0.6l6.1-3.2l9.4-0.5l5.1,2.2l10.4-1l10.3,2.7l6,5.1l6.6,1.7l5.6-1.7l8.3-4.8l9.4-1.2l6.1,1.5
			c0,0,6.9,4.3,7.8,4.5c0.9,0.2,4.9,5.2,5.3,5.9s1.9,7.2,1.9,7.2s-2.9,4.9-3.8,6.2s-3.6,4.1-2.4,5.5c1.2,1.5,4.8,5.2,4.8,5.2
			l-1.8,6.5l3.3,3.5c0,0,3.6,0.5,3.7,2.9c0,2.4,1,4.9,1,4.9l7.9,1.8l4.2,1.8l6.6,3.1l3.7,3.6c0,0-4.2,3.5-6.1,3.8
			s-60.8-8.7-60.8-8.7l-44.6-5.2h-51.3l-31.9,10.1l-32.9,17.3L83.9,146l-19.5,9.3c0,0-5.2-11.7-5.2-13.8
			C59.2,139.5,59.2,139.5,59.2,139.5z"/>
	</g>
	<g>
		<path fill="#EAEAE9" d="M61.6,150.4c0.3,0.7,16.7-18.8,23.8-14.5c7,4.3,0-1.4,0-1.4s-0.4-6.5,3.3-7.3c0,0-1.8-25.5,24.9-18.3
			s-2.3-1.9-1.2-0.9c1.2,0.9,7.1-12.1,18.6-9.6c0,0,10.6-12,18-9.7c0,0,6.7-6.8,7.2-7.1s10.7-4,10.7-4s14.2-36.5,41.1-1.4
			c0,0,0-0.4,5.2,1.4c0,0,7.9-10.5,20.1-4.1c0.6,0.3,1.2,0.7,1.9,1.1c0,0,15.3-4.2,24.8,10.9c9.5,15.1,0-1.3,0-1.3l9.5,2
			c0,0,16.2-22.5,34-0.5l6.1,3.7l-0.4,7.4l3.8,3.1l2.7,7.3l7.9,1.8l8.1,3.5l4.5,4.8c0,0-0.2,4.4,0,6.4c0.2,2-4,3.6-4,3.6l4,6.3
			l1.9,4.3l9.6,6l3,6.6l2.8,12.2l-3.9,15.4l-5.9,5.9l-8.5,3.4l-8.5,6.7l3.2,8.4l-3.3,5.1l-3.5,4.8l-4.6,15.6l-20.2,2.1l5.3,6
			l-8.4,18.3l-25.7,16.4h-18.8l-11.4,4.7l-10-1.2l-9.5-3.1l-42.2,2.3l-9.4-9.7l-12.8,1l-10.5-9.6l-8.7-0.2l-8.2-8.4l4.9,12.6
			l-26-10.7L96.5,217c0,0-14,1.2-13.9-1.3s-5.1-15.4-5.1-15.4l-8.1-8.7l-3.6-19.8l9.3-9.2l-13.9-13.4"/>
	</g>
	<g>
		<path fill="#E2E3E2" d="M110,149.3c-0.3-0.7,0.4-10.4,25.6-10.4c0,0,0.3-9.2,13.5-10.9c0,0-1.7-51.3,41.3-14.8c0,0,4-0.1,7.6,2.5
			c0.6,0.4,1.1,0.9,1.7,1.5c3.8,4.2,4.2-14.7,19.2,2c0,0,7-4.9,14.5,4.4c0,0,3.4-2,6.7,0.8c0,0,20.8-30.2,47.1,0l-8.6,7.4l7.4,6
			l3.8,8.1l-0.7,11.1l-6.8,9.5c0,0-0.5,10.1-0.6,10.6c-0.1,0.5-12,11.3-12,11.3L253,205c0,0-87.3,12.9-89.5,13.6
			s-34.7-23.7-34.7-23.7l2.3-8.3l-4.1-9c0,0-3.8-5.6-4.7-7.8c-0.9-2.2-2.2-10.5-2.2-10.5L110,149.3z"/>
	</g>
	<g>
		<path fill="#A0A0A0" d="M130.1,191.6c-0.5,1.1,25.5,31.2,50.3,14.3s7.4-12.5,10-12.5s22.5,5.3,32.1,0c0,0,26.3,19.5,44.6-5.9
			l4.6,9.1l-2.1,12.8l-9.5,11.2l-12.2,4.7l-16.2-2.7L218,210.6l-9.9,8l-13,2.1l-7.3,1.7c0,0-5.5,3.6-5.2,4.6c0.2,1-8.7,5.9-8.7,5.9
			l-17.6,3.2l-12.6-3.5l-13.5-16.9c0.9-4.7-2-25.3-2-25.3"/>
	</g>
	<g>
		<path fill="#A3A3A4" d="M96.6,227.5c2.3,0.4,8.1,21.9,39.7,2.6l21.6,10.2c0,0,9.4,7.9,16.8,3.5s-6.1,11.4,23.9,0
			c0,0,14.8,9.2,21.3-3.5c0,0,14.8,18.8,32.6,0c0,0,9.9,12.6,19.1-2.2c0,0,26.7,4.8,21.6-24.4c0,0,19.9-5,11.5-13.4
			c0,0,18.2-0.9,21.9-18.1c0,0,5.4-12.5,1.1-15.7c0,0,15-3.3,8.4-7c0,0,21.9-6.3,15.9-9.1l1.4,16.1l-3.9,11.6l-8.1,7.4l-6.9,4.9
			l-7.9,3.7c0,0,3.5,3.6,3.2,6.2c-0.3,2.6-2,5.6-2.2,5.8c-0.2,0.2-4.3,1.7-4.3,1.7l-0.5,12.9l-6.9,11.9l-17.5-2.5l5.3,6l-8.5,4.2
			l1.3,8.3l-9.8,12.6l-12.6,3.1l-10.2,8.9l-14.4-1.4l-8.8,2.5l-18.4-4.6l-17.9,4.5l-8.3-3.1l-18.5,2.4l-11.9-10.9l-14.7-0.7
			l-17.2-5.7l-9.4,6.3l-17.7,0.2l-8.2-5.7l-5.5-12.2l-0.4-10.3L96.6,227.5z"/>
	</g>
	<g>
		<path fill="#DCBAA1" d="M143.8,107.6c-0.6-0.1-14.6-2.9-29.4-8.9c-21-8.5-32.7-18.9-34.9-31l9.4-1.7c1.1,5.9,7,14.9,28.9,23.8
			c14,5.7,27.7,8.4,27.8,8.4L143.8,107.6z"/>
	</g>
	<g>
		<path fill="#DCBAA1" d="M274.8,89.6l-8-5.3c1-1.4,23.7-35.3,51.3-28l-2.4,9.3C294.7,60,275,89.3,274.8,89.6z"/>
	</g>
	<g>
		<path fill="#DCBAA1" d="M299.1,228.3c-5.9,0-12.6-5.4-20.6-16.8c-5.9-8.3-10.4-16.9-10.6-17.2l8.5-4.5c0,0.1,4.2,8,9.6,15.7
			c9.2,13.3,13.2,13.3,13.2,13.3c0,0,4.2-2.7,3.3-28.2l9.6-0.4c0.9,24.3-2.2,35.6-10.4,37.8C300.8,228.2,300,228.3,299.1,228.3z"/>
	</g>
	<g>
		<path fill="#DCBAA1" d="M204.4,294.5c-15.1-5.7-23-20.7-22.7-43.4c0.2-16.2,4.4-30.6,4.5-31.2l9.2,2.7l-4.6-1.3l4.6,1.3
			c-0.2,0.5-15,52.6,12.4,63L204.4,294.5z"/>
	</g>
	<g>
		<g>
			<g>
				<g>
					<path fill="#231F20" d="M169.6,64.4c-3.5-7.4,0.7-16.3,7-20.4c4.5-2.9,9.9-4.6,15-2.1c4.5,2.2,7.3,6.4,8.4,11.2
						c0.6,2.7,4.8,1.6,4.2-1.2c-1.3-5.8-5-11-10.4-13.8c-6.1-3.2-12.5-1.9-18.3,1.5c-9.1,5.3-14.4,16.9-9.6,27
						C167,69.1,170.8,66.9,169.6,64.4L169.6,64.4z"/>
				</g>
			</g>
		</g>
		<g>
			<g>
				<g>
					<path fill="#231F20" d="M205.2,56.9c3.3-1.9,6.7-1.7,9.7,0.4c2.3,1.6,4.5-2.2,2.2-3.8c-4.3-3-9.6-3-14.1-0.4
						C200.6,54.6,202.7,58.4,205.2,56.9L205.2,56.9z"/>
				</g>
			</g>
		</g>
		<g>
			<g>
				<g>
					<path fill="#231F20" d="M75.7,160.9c-5.8,0-11.2-8.4-12.9-13.1c-2.1-5.8-1.7-12.2,0.9-17.8c5-11.2,17.2-16.9,29-15.1
						c2.7,0.4,3.9-3.8,1.2-4.2c-15-2.3-30.1,5.3-35.2,20.1c-2.4,6.9-2,14.5,1.1,21c2.7,5.7,9,13.4,15.9,13.4
						C78.5,165.2,78.5,160.9,75.7,160.9L75.7,160.9z"/>
				</g>
			</g>
		</g>
		<g>
			<g>
				<g>
					<path fill="#231F20" d="M89.1,111.3c-0.9-2.9,0.5-5.8,3.2-7.1c2.5-1.2,0.3-4.9-2.2-3.8c-4.4,2.1-6.6,7.4-5.2,12
						C85.7,115.2,89.9,114,89.1,111.3L89.1,111.3z"/>
				</g>
			</g>
		</g>
		<g>
			<g>
				<g>
					<path fill="#231F20" d="M90.8,102.5c1.5-7.8,13.1-22.3,22.4-16.9c2.4,1.4,4.6-2.4,2.2-3.8c-11.9-6.9-26.7,8.7-28.8,19.5
						C86.1,104.1,90.2,105.3,90.8,102.5L90.8,102.5z"/>
				</g>
			</g>
		</g>
		<g>
			<g>
				<g>
					<path fill="#231F20" d="M118.8,85.2c2.9-5.1,9.1-9.4,15.1-10c2.8-0.3,2.8-4.6,0-4.3c-7.5,0.8-15.1,5.6-18.8,12.1
						C113.6,85.4,117.4,87.6,118.8,85.2L118.8,85.2z"/>
				</g>
			</g>
		</g>
		<g>
			<g>
				<g>
					<path fill="#231F20" d="M138.1,74.7c1.2-5.8,6.4-9.3,12.2-7.9c2.7,0.7,3.9-3.5,1.2-4.2c-8-1.9-15.9,2.8-17.6,11
						C133.3,76.3,137.5,77.5,138.1,74.7L138.1,74.7z"/>
				</g>
			</g>
		</g>
		<g>
			<g>
				<g>
					<path fill="#231F20" d="M152.4,66c2-5,7.1-7.8,12.3-7.3c2.8,0.2,2.8-4.1,0-4.3c-7.3-0.6-13.8,3.8-16.5,10.5
						C147.2,67.5,151.4,68.6,152.4,66L152.4,66z"/>
				</g>
			</g>
		</g>
		<g>
			<g>
				<g>
					<path fill="#231F20" d="M268.6,64.5c8.7-7,21.2-11.8,31.7-5.6c8.9,5.3,11.9,18.7,2.1,24.9c-2.4,1.5-0.2,5.2,2.2,3.8
						c11.4-7.1,10.3-22.8,0.4-30.6c-12.3-9.7-28.5-4.3-39.5,4.5C263.4,63.2,266.5,66.2,268.6,64.5L268.6,64.5z"/>
				</g>
			</g>
		</g>
		<g>
			<g>
				<g>
					<path fill="#231F20" d="M285.4,212.3c1,6.5,3.8,15.6-0.3,21.5c-4.5,6.5-13.6,5.7-20.4,4.8c-2.8-0.4-2.7,4,0,4.3
						c8.1,1,17.8,1.1,23.4-6c5.7-7.3,2.8-17.6,1.5-25.8C289.2,208.4,285,209.6,285.4,212.3L285.4,212.3z"/>
				</g>
			</g>
		</g>
		<g>
			<g>
				<g>
					<path fill="#231F20" d="M197.1,268.5c-5.3,1.7-11.1,3.6-16.7,2.5c-5.7-1.2-8.6-5.3-11.3-10.1c-1.4-2.4-5.1-0.2-3.8,2.2
						c3,5.3,6.4,10,12.5,11.8c6.8,2,13.9-0.1,20.4-2.2C201,271.8,199.8,267.6,197.1,268.5L197.1,268.5z"/>
				</g>
			</g>
		</g>
		<g>
			<g>
				
					<rect x="73" y="2.8" transform="matrix(0.9556 -0.2947 0.2947 0.9556 -7.739 23.4873)" fill="#333333" width="2.1" height="69.2"/>
			</g>
		</g>
		<g>
			<g>
				<path fill="#E4D037" d="M9.8,52.1c0,0,25.9,1.8,44.9-13.9c3.8-3.1,18.8-5.8,18.8-5.8L63.3-0.5c0,0-25,3.6-30.5,9.4
					C25.5,16.8-0.4,19.2-0.4,19.2L9.8,52.1z"/>
			</g>
		</g>
		<g>
			<g>
				<path fill="#EDF3F6" d="M47.9,20.2c0.1,0.4,0.2-0.3,0.3,0.1c0.1-0.1,0.2,1,0.3,0.9c-0.1-0.3-0.2-0.6-0.3-0.9
					C48.1,20.2,48,20.2,47.9,20.2z"/>
			</g>
		</g>
		<g>
			<g>
				<path fill="#EDF3F6" d="M49.2,19.8L49.2,19.8L49.2,19.8C49.2,19.8,49.2,19.8,49.2,19.8z"/>
			</g>
		</g>
		<g>
			<g>
				<path fill="#EDF3F6" d="M45.6,32.6c0.4-0.1,0.4-0.1,0.3-0.4c0-0.1-0.1-0.1-0.2-0.1c-0.1,0-0.2,0-0.2,0.1c-0.1,0.1-0.3,0-0.2,0.3
					C45.3,32.7,45.3,32.7,45.6,32.6z"/>
			</g>
		</g>
		<g>
			<g>
				<path fill="#EDF3F6" d="M49.2,30.6c0.1-0.1,0.3,0,0.3-0.2c0-0.2-0.1-0.3-0.3-0.2c-0.1,0-0.1,0-0.2,0.1c-0.2,0-0.2,0.1-0.2,0.3
					c0.1,0.2,0.2,0.2,0.3,0.1C49.1,30.7,49.2,30.7,49.2,30.6z"/>
			</g>
		</g>
		<g opacity="0.22">
			<g>
				<path fill="#6D6D6D" d="M3,17.8l-3.4,1c0,0,8.3,23.8,10.1,32.9c0.5,2.5,35.5-2.1,42.4-13.1"/>
			</g>
		</g>
		<g>
			<g>
				<path fill="#B62025" d="M63.3-0.5l2.9,9.3c0,0-31,5.1-31.5,10.1S2.4,27.1,2.4,27.1l-2.8-8.3c0,0,28.3-4,32-8.8
					c0,0,1.3-3.7,15.9-7.6"/>
			</g>
		</g>
		<g>
			<g>
				<path fill="#B62025" d="M10.3,52.4l-3.2-9.1c0,0,30.9-6,31.1-10.9s32.6-9.1,32.6-9.1l2.6,9.1c0,0-20.1,5.9-24.7,9.7
					c0,0-7,4.8-21.5,9.1"/>
			</g>
		</g>
		<g>
			<g>
				<g>
					<path fill="#050505" d="M32.8,21.2c-0.2-1.3,1.9-2.6,2.9-3c1-0.4,2.2-0.5,3.2-0.5c2.2,0.1,4.4,0.9,5.9,2.5
						c3.4,3.5,3.2,9.7-0.2,13.1c-3,3.1-8,4-11.9,2.2c-2.6-1.2-4.9-3.7-4.8-6.7c0.1-3.3,2.8-5.3,5.4-6.9c2.4-1.5,0.2-5.2-2.2-3.8
						c-3.4,2.1-6.7,4.8-7.4,9c-0.7,4.2,1.3,8.3,4.6,10.8c6.2,4.7,15.9,3.3,20.6-2.9c4.8-6.3,3.3-16.4-4-20.3
						c-4.9-2.6-17.3-1.7-16.3,6.3C28.8,24,33.2,24,32.8,21.2L32.8,21.2z"/>
				</g>
			</g>
		</g>
		<g>
			<g>
				<g>
					<path fill="#050505" d="M13.7,20.8c16,3.5,31.7,8.3,47,14.4c2.6,1,3.7-3.2,1.2-4.2c-15.2-6.1-30.9-10.9-47-14.4
						C12.2,16,11,20.2,13.7,20.8L13.7,20.8z"/>
				</g>
			</g>
		</g>
		<g>
			<g>
				<g>
					<path fill="#050505" d="M43.5,8.8c-0.1,1.1-2.4,3.2-3.1,4.1c-1.1,1.5-2.1,3-3.1,4.5c-1.8,3-3.3,6.1-4.7,9.2
						c-2.9,6.6-5.4,13.3-8.7,19.8c-1.3,2.5,2.5,4.7,3.8,2.2c3.6-7,6.2-14.5,9.6-21.6c1.5-3.3,3.2-6.6,5.3-9.6c1.8-2.7,5.1-5,5.3-8.5
						C48,6,43.6,6,43.5,8.8L43.5,8.8z"/>
				</g>
			</g>
		</g>
		<g>
			<g>
				<g>
					<path fill="#231F20" d="M151.2,106.6c-1.8-5.4-3.4-11.2-0.4-16.5c2.4-4.5,7-7.5,11.8-9.1c10.3-3.4,24.3,0.7,25.1,13.1
						c0.2,2.8,4.5,2.8,4.3,0c-1-14.7-16.3-21.2-29.3-17.7c-6,1.6-11.7,5.2-15.1,10.4c-4.3,6.6-3,13.9-0.6,20.9
						C147.9,110.4,152.1,109.3,151.2,106.6L151.2,106.6z"/>
				</g>
			</g>
		</g>
		<g>
			<g>
				<g>
					<path fill="#231F20" d="M190.7,97.1c2.5-1.8,5.9-1.4,8,0.8c2.5,2.5,2.5,6.3,1.6,9.5c-0.8,2.7,3.4,3.8,4.2,1.2
						c1.5-4.9,0.8-10.6-3.2-14.2c-3.5-3.1-8.9-3.7-12.8-1C186.2,95,188.4,98.7,190.7,97.1L190.7,97.1z"/>
				</g>
			</g>
		</g>
		<g>
			<g>
				<g>
					<path fill="#231F20" d="M201.8,97.7c2.3-2.3,5-5.2,8.6-5.1c4.2,0.2,6.4,3.7,6.2,7.6c-0.2,2.8,4.2,2.8,4.3,0
						c0.3-5.2-2.7-10.1-7.9-11.5c-5.8-1.6-10.5,2.1-14.3,6C196.8,96.6,199.8,99.7,201.8,97.7L201.8,97.7z"/>
				</g>
			</g>
		</g>
		<g>
			<g>
				<g>
					<path fill="#231F20" d="M220.5,100.7c2.1-0.5,4.2-1.2,6.4-1.5c1.3-0.2,2.3-0.5,3.2,0.5c0.6,0.7,0.9,1.9,1.1,2.8
						c0.8,2.7,5,1.5,4.2-1.2c-0.8-2.7-2-5.7-4.9-6.6c-3.4-1-7.9,0.9-11.1,1.7C216.6,97.2,217.8,101.4,220.5,100.7L220.5,100.7z"/>
				</g>
			</g>
		</g>
		<g>
			<g>
				<g>
					<path fill="#231F20" d="M236.3,103.9c1.3-0.6,2.6-0.8,4-0.4c2.7,0.7,3.9-3.5,1.2-4.2c-2.5-0.6-5-0.3-7.3,0.9
						C231.6,101.4,233.8,105.1,236.3,103.9L236.3,103.9z"/>
				</g>
			</g>
		</g>
		<g>
			<g>
				<g>
					<path fill="#231F20" d="M242.2,102.6c4.2-11.8,22.8-19,33.4-11.3c5.7,4.1,8.4,11.5,9.6,18.2c0.7,4,1.3,8.9,0.4,12.9
						c-1,4-4.7,5.9-8,7.6c-2.5,1.3-0.3,5.1,2.2,3.8c3.7-1.9,7.6-4.2,9.4-8.2c1.9-4.2,1.3-9.8,0.8-14.3c-1.1-8.4-4.1-17.5-11-22.9
						c-13.1-10.3-35.5-1.8-40.8,13.2C237,104.1,241.2,105.2,242.2,102.6L242.2,102.6z"/>
				</g>
			</g>
		</g>
		<g>
			<g>
				<g>
					<path fill="#231F20" d="M277,134.4c12.5,3.8,13.2,18.9,5.6,27.7c-1.8,2.1,1.2,5.2,3.1,3.1c9.8-11.2,8.3-30.1-7.5-34.9
						C275.5,129.4,274.3,133.6,277,134.4L277,134.4z"/>
				</g>
			</g>
		</g>
		<g>
			<g>
				<g>
					<path fill="#231F20" d="M270.3,157.9c6.1,1.6,9.5,9.4,9.5,15.3c0,6.5-4.4,12-10.9,13.2c-2.8,0.5-1.6,4.7,1.2,4.2
						c8.3-1.5,14-9,14.1-17.4c0-7.8-4.7-17.3-12.7-19.4C268.7,153,267.6,157.1,270.3,157.9L270.3,157.9z"/>
				</g>
			</g>
		</g>
		<g>
			<g>
				<g>
					<path fill="#231F20" d="M268.5,190.4c3.2,11.6-2.1,24.9-13.1,30.3c-5.5,2.7-12.1,3.2-18,1.6c-7-1.8-11.7-6.2-15.9-11.8
						c-1.7-2.2-5.4,0-3.8,2.2c4.7,6.2,9.8,11.1,17.3,13.4c7,2.1,14.7,1.8,21.4-1.2c13.4-5.9,20-21.9,16.2-35.7
						C271.9,186.5,267.7,187.7,268.5,190.4L268.5,190.4z"/>
				</g>
			</g>
		</g>
		<g>
			<g>
				<g>
					<path fill="#231F20" d="M215.3,210.4c-3.9,4.9-10.5,7.1-16.6,8c-7.2,1-12.4-4.4-16.8-9.2c-1.9-2.1-5,1-3.1,3.1
						c5.1,5.4,11.1,11.2,19.1,10.6c7.2-0.5,15.8-3.6,20.4-9.4C220.1,211.3,217.1,208.2,215.3,210.4L215.3,210.4z"/>
				</g>
			</g>
		</g>
		<g>
			<g>
				<g>
					<path fill="#231F20" d="M185.6,221.9c-2.7,6.9-15,9.1-21.4,10.1c-7.9,1.1-16.2,1-21.9-5.3c-4.5-4.9-7.6-12-10-18.2
						c-2.6-6.8-3.6-16.2,4.3-19.9c2.5-1.2,0.3-4.9-2.2-3.8c-7.7,3.6-9.5,12.6-7.7,20.2c1.2,5,3.6,9.8,5.8,14.4c2,4,4.3,8.1,7.5,11.2
						c7,6.9,17,6.9,26.1,5.4c8.2-1.3,20.3-4.3,23.7-13C190.8,220.4,186.6,219.3,185.6,221.9L185.6,221.9z"/>
				</g>
			</g>
		</g>
		<g>
			<g>
				<g>
					<path fill="#231F20" d="M135,184.4c-3.8,0.6-8.7-9.6-4.8-11.4c2.5-1.2,0.3-5-2.2-3.8c-4.6,2.2-4,7.5-2.2,11.5
						c2,4.5,4.9,8.8,10.4,7.9C138.9,188.1,137.7,183.9,135,184.4L135,184.4z"/>
				</g>
			</g>
		</g>
		<g>
			<g>
				<g>
					<path fill="#231F20" d="M128,171c-2-0.9-4.1-1.9-5.2-3.9c-1-1.7-0.9-4,0.9-5.1c2.4-1.4,0.2-5.2-2.2-3.8c-3,1.8-4.2,5.3-3.4,8.6
						c0.9,3.9,4.3,6.4,7.8,7.9C128.3,175.8,130.5,172.1,128,171L128,171z"/>
				</g>
			</g>
		</g>
		<g>
			<g>
				<g>
					<path fill="#231F20" d="M141.4,122.7c-5.3-5.3-11.1-9.1-18.8-6.8c-7.1,2.1-13.1,7.3-16,14.1c-2.8,6.7-1.9,13.6,1.2,20
						c2.8,5.8,6.7,13.1,14.4,11.4c2.7-0.6,1.6-4.8-1.2-4.2c-5.5,1.2-9.1-8-10.6-12.1c-1.9-5.1-1.5-10.6,1.1-15.4
						c2.5-4.5,6.8-7.8,11.6-9.4c6.4-2.2,10.9,1.2,15.2,5.5C140.3,127.8,143.4,124.7,141.4,122.7L141.4,122.7z"/>
				</g>
			</g>
		</g>
		<g>
			<g>
				<g>
					<path fill="#231F20" d="M138.9,120.6c-1-5.3,0.8-14.6,8.2-12.8c2.7,0.7,3.9-3.5,1.2-4.2c-4.3-1-8.6,0.7-11.3,4.2
						c-3.1,4-3.2,9.2-2.3,14C135.2,124.5,139.4,123.3,138.9,120.6L138.9,120.6z"/>
				</g>
			</g>
		</g>
		<g>
			<g>
				<g>
					<path fill="#231F20" d="M160.4,154.8c-3.4-8.2-7.1-18.6,1.2-25.3c7.5-6,17.4-3.8,24.8,0.9c2.4,1.5,4.6-2.3,2.2-3.8
						c-9-5.6-20.8-7.7-29.7-0.6c-9.8,7.8-6.8,19.8-2.7,29.9C157.3,158.5,161.5,157.3,160.4,154.8L160.4,154.8z"/>
				</g>
			</g>
		</g>
		<g>
			<g>
				<g>
					<path fill="#231F20" d="M188.8,130.2c0.3-3.4,2.2-6.6,5.1-8.3c2.4-1.4,6.3-2.1,7.8,0.8c1.3,2.5,5.1,0.3,3.8-2.2
						c-2.3-4.3-7.8-5.1-12.1-3.3c-5.3,2.3-8.4,7.4-8.9,12.9C184.2,133,188.5,133,188.8,130.2L188.8,130.2z"/>
				</g>
			</g>
		</g>
		<g>
			<g>
				<g>
					<path fill="#231F20" d="M224.7,134.6c0.3-2.9,5.8-2.9,7.7-2.4c2.4,0.6,6.2,3.3,4.5,6.1c-1.5,2.4,2.3,4.6,3.8,2.2
						c3.2-5.3-1.6-10.8-6.7-12.4c-5.1-1.6-13,0.3-13.6,6.5C220.1,137.4,224.4,137.4,224.7,134.6L224.7,134.6z"/>
				</g>
			</g>
		</g>
		<g>
			<g>
				<g>
					<path fill="#231F20" d="M239.8,140.8c0.4-1.7,6.9-2.7,8.4-2.7c4.2,0,6.1,3.1,6.8,6.9c1,5.3,2,12.7-3.6,15.8
						c-2.5,1.3-0.3,5.1,2.2,3.8c3.9-2.1,5.9-5.9,6.4-10.3c0.5-4.6-0.1-11.2-2.4-15.3c-2.2-3.9-6.4-5.5-10.7-5.1
						c-3.5,0.3-10.3,1.8-11.3,5.8C234.9,142.4,239.1,143.5,239.8,140.8L239.8,140.8z"/>
				</g>
			</g>
		</g>
		<g>
			<g>
				<g>
					<path fill="#231F20" d="M197.7,187.8c3.7,5.8,9.6,9.9,16.5,10.7c2.8,0.3,5.8,0.2,8.1-1.5c2.8-2,3.6-5.5,6-7.8
						c2.1-1.9-1-5-3.1-3.1c-3.7,3.5-4.2,8.8-10.5,8.1c-5.6-0.6-10.4-3.9-13.3-8.6C200,183.2,196.2,185.4,197.7,187.8L197.7,187.8z"
						/>
				</g>
			</g>
		</g>
		<g>
			<g>
				<g>
					<path fill="#231F20" d="M101.5,151.8c-7.4-5.6-13.9-29,0.2-30.5c2.8-0.3,2.8-4.6,0-4.3c-19.2,1.9-13.3,30.2-2.4,38.6
						C101.5,157.3,103.7,153.5,101.5,151.8L101.5,151.8z"/>
				</g>
			</g>
		</g>
		<g>
			<g>
				<g>
					<path fill="#231F20" d="M188.4,71.8c4.7-4.1,11.6-3.4,15.3,1.7c1.6,2.2,5.4,0.1,3.8-2.2c-5.4-7.5-15.2-8.6-22.2-2.6
						C183.2,70.5,186.3,73.6,188.4,71.8L188.4,71.8z"/>
				</g>
			</g>
		</g>
		<g>
			<g>
				<g>
					<path fill="#231F20" d="M281.5,84.9c5,1.4,8.9,5.7,9.6,10.9c0.3,2.7,4.7,2.8,4.3,0c-0.9-7.2-5.7-13.1-12.8-15.1
						C280,80,278.8,84.2,281.5,84.9L281.5,84.9z"/>
				</g>
			</g>
		</g>
		<g>
			<g>
				<g>
					<path fill="#231F20" d="M308.7,142.1c0.8,2,2,2.5,3.7,3.6c3.1,2.2,5,5.5,5.5,9.2c1,7.2-4,13.5-10.7,15.5
						c-2.7,0.8-1.5,5,1.2,4.2c7-2.1,12.8-7.8,13.9-15.2c0.5-3.5-0.1-7.1-1.6-10.4c-0.8-1.8-2-3.4-3.3-4.8c-0.9-0.9-4-2.4-4.4-3.3
						C311.9,138.4,307.7,139.5,308.7,142.1L308.7,142.1z"/>
				</g>
			</g>
		</g>
		<g>
			<g>
				<g>
					<path fill="#231F20" d="M314.3,172.9c2.1,3.5-3.8,8.9-6.3,10.7c-2.3,1.6-0.1,5.4,2.2,3.8c4.6-3.3,11.5-10.5,7.8-16.6
						C316.6,168.3,312.8,170.5,314.3,172.9L314.3,172.9z"/>
				</g>
			</g>
		</g>
		<g>
			<g>
				<g>
					<path fill="#231F20" d="M219.1,249.6c0.1-0.1,0.1-0.1,0.2-0.2c-1,0-2,0-3.1,0c0.1,0.1,0.2,0.1,0.2,0.2c0-1,0-2,0-3.1
						c-0.3,0.3-5.4-0.6-5.7-0.6c-1.6-0.3-3.1-0.8-4.6-1.6c-2.8-1.5-4.8-3.7-6.2-6.5c-1.2-2.5-5-0.3-3.8,2.2c2,4.3,5.6,7.3,10,9.1
						c3,1.2,10.7,3.5,13.3,0.6c0.8-0.8,0.9-2.3,0-3.1c-0.1-0.1-0.2-0.1-0.2-0.2c-0.9-0.8-2.2-0.9-3.1,0c-0.1,0.1-0.1,0.1-0.2,0.2
						C214.1,248.6,217.2,251.7,219.1,249.6L219.1,249.6z"/>
				</g>
			</g>
		</g>
		<g>
			<g>
				<g>
					<path fill="#231F20" d="M125.6,227.9c-9-0.8-17.2-9.8-10.7-18.3c1.7-2.2-2.1-4.4-3.8-2.2c-3.6,4.6-3.8,11.1-0.9,16.2
						c3.2,5.5,9.2,8.2,15.3,8.7C128.4,232.5,128.4,228.1,125.6,227.9L125.6,227.9z"/>
				</g>
			</g>
		</g>
		<g>
			<g>
				<g>
					<path fill="#231F20" d="M140.1,252.7c-2.4,0.7-5.1,0.2-6.9-1.8c-1.6-1.9-2.2-4.3-4-6.1c-1.9-2-5,1.1-3.1,3.1
						c2.4,2.5,2.9,5.9,6,7.8c2.7,1.7,6,2.1,9.1,1.2C144,256.1,142.8,251.9,140.1,252.7L140.1,252.7z"/>
				</g>
			</g>
		</g>
		<g>
			<g>
				<g>
					<path fill="#231F20" d="M129,238.3c-4.5,1.4-9.1,0.5-12.7-2.7c-2.1-1.8-5.2,1.2-3.1,3.1c4.7,4.1,10.9,5.6,16.9,3.8
						C132.8,241.7,131.7,237.5,129,238.3L129,238.3z"/>
				</g>
			</g>
		</g>
		<g>
			<g>
				<g>
					<path fill="#231F20" d="M216.7,54.8c3.7-3.6,9.7-4.2,13.9-0.9c2.2,1.7,5.3-1.3,3.1-3.1c-6-4.8-14.5-4.5-20,0.9
						C211.6,53.7,214.7,56.7,216.7,54.8L216.7,54.8z"/>
				</g>
			</g>
		</g>
		<g>
			<g>
				<g>
					<path fill="#231F20" d="M232.7,55.1c5.7-3.4,12.9-3.7,18.7-0.1c6.2,3.9,3.8,10.2,6.8,15.8c1.3,2.5,5.1,0.3,3.8-2.2
						c-2-3.7-0.9-8.1-2.8-11.8c-1.6-3.1-4.7-5.3-7.8-6.7c-6.7-3.1-14.5-2.5-20.8,1.3C228.1,52.8,230.3,56.5,232.7,55.1L232.7,55.1z"
						/>
				</g>
			</g>
		</g>
		<g>
			<g>
				<g>
					<path fill="#231F20" d="M257.5,61.8c3.9-1,7.7,0.1,10.5,3c2,2,5-1.1,3.1-3.1c-3.9-4-9.4-5.5-14.8-4.1
						C253.6,58.3,254.7,62.5,257.5,61.8L257.5,61.8z"/>
				</g>
			</g>
		</g>
		<g>
			<g>
				<g>
					<path fill="#231F20" d="M306.7,87c0.1-0.1,0.2-0.2,0.2-0.3c-0.4,0.3-0.9,0.7-1.3,1c-0.7-0.1-0.6,0.1,0.2,0.7
						c0.3,0.4,0.5,0.8,0.8,1.3c0.3,0.7,0.6,1.5,0.7,2.3c0.3,1.9,0.1,3.8-0.7,5.6c-1.2,2.5,2.6,4.7,3.8,2.2c1.8-3.8,2-8.1,0.2-11.9
						c-1.3-2.8-4.9-6.7-7.5-3C301.3,87,305.1,89.2,306.7,87L306.7,87z"/>
				</g>
			</g>
		</g>
		<g>
			<g>
				<g>
					<path fill="#231F20" d="M309.5,100.5c4,0.2,4.1,5.6,4.1,8.5c0,2.8,4.3,2.8,4.3,0c0-5.6-1.7-12.5-8.4-12.9
						C306.7,96,306.7,100.4,309.5,100.5L309.5,100.5z"/>
				</g>
			</g>
		</g>
		<g>
			<g>
				<g>
					<path fill="#231F20" d="M316,109.9c4.6-0.5,9,0.2,13,2.5c1.7,1,3.4,2.3,4.7,3.9c2,2.4,3.8,8.9-1.5,8.7c-2.8-0.1-2.8,4.3,0,4.3
						c8.1,0.3,9.5-9.2,5.8-14.7c-4.8-6.9-13.8-10.1-21.9-9.1C313.3,105.9,313.3,110.2,316,109.9L316,109.9z"/>
				</g>
			</g>
		</g>
		<g>
			<g>
				<g>
					<path fill="#231F20" d="M330.6,129.9c3.1,2,4.7,5.4,4.6,9c-0.1,2.8,4.3,2.8,4.3,0c0.1-5.2-2.5-9.9-6.8-12.8
						C330.5,124.6,328.3,128.4,330.6,129.9L330.6,129.9z"/>
				</g>
			</g>
		</g>
		<g>
			<g>
				<g>
					<path fill="#231F20" d="M317.1,143.8c12.2-3.4,29.5-6.3,33.7,9.7c3,11.3-0.6,28.2-13.6,31c-2.7,0.6-1.6,4.8,1.2,4.2
						c15.5-3.3,20.3-22.8,16.7-36.3c-1.8-6.8-6.4-12.1-13.1-14.4c-8.5-3-17.6-0.6-26,1.7C313.2,140.4,314.4,144.6,317.1,143.8
						L317.1,143.8z"/>
				</g>
			</g>
		</g>
		<g>
			<g>
				<g>
					<path fill="#231F20" d="M334.3,186.3c-1.7,2.5-4.2,4.2-7.1,4.9c-2.7,0.7-1.6,4.9,1.2,4.2c4-1,7.4-3.5,9.7-6.9
						C339.6,186.2,335.8,184,334.3,186.3L334.3,186.3z"/>
				</g>
			</g>
		</g>
		<g>
			<g>
				<g>
					<path fill="#231F20" d="M327.8,196c0.2-0.1,0.3-0.2,0.5-0.2c-0.7,0-1.5,0-2.2,0c1.6,0.8,1.8,4.7,1.6,6c-0.4,2.1-2,3.8-4.2,3.9
						c-2.8,0-2.8,4.4,0,4.3c4.8-0.1,8.4-4,8.7-8.8c0.2-3.3-1.7-11.3-6.5-9C323.1,193.5,325.3,197.2,327.8,196L327.8,196z"/>
				</g>
			</g>
		</g>
		<g>
			<g>
				<g>
					<path fill="#231F20" d="M320.8,211.7c3.3,12.6-9.4,23.2-21.2,17.3c-2.5-1.2-4.7,2.5-2.2,3.8c15.1,7.6,31.9-5.8,27.6-22.2
						C324.3,207.8,320.1,209,320.8,211.7L320.8,211.7z"/>
				</g>
			</g>
		</g>
		<g>
			<g>
				<g>
					<path fill="#231F20" d="M301.6,234.2c0.3,0.4-0.9,1.7-1.3,2c-1.3,0.9-2.7,1.2-4.3,1.3c-2.8,0-2.8,4.4,0,4.3
						c2.9,0,6.2-1,8.1-3.3c1.9-2.1,2.5-5.1,0.5-7.4C302.8,229,299.8,232.1,301.6,234.2L301.6,234.2z"/>
				</g>
			</g>
		</g>
		<g>
			<g>
				<g>
					<path fill="#231F20" d="M293.3,240.9c1.4,5.8,2.5,12.2-3.1,16.1c-4.5,3.2-10.5,4.6-15.9,5.2c-2.8,0.3-2.8,4.6,0,4.3
						c7-0.8,15.2-2.6,20.4-7.7c5.4-5.2,4.3-12.5,2.7-19.1C296.8,237,292.6,238.1,293.3,240.9L293.3,240.9z"/>
				</g>
			</g>
		</g>
		<g>
			<g>
				<g>
					<path fill="#231F20" d="M272.5,251.9c1.8,5.9,0.2,15.2-5.8,18.1c-5.6,2.7-14.8,2.5-16.5-4.8c-0.6-2.7-4.8-1.6-4.2,1.2
						c2.2,9.6,13.2,11.1,21.1,8.1c9.1-3.4,12.2-15.1,9.5-23.8C275.9,248.1,271.7,249.2,272.5,251.9L272.5,251.9z"/>
				</g>
			</g>
		</g>
		<g>
			<g>
				<g>
					<path fill="#231F20" d="M248.6,269.9c-6.5,3.4-21.5,7.4-22.9-4c-0.3-2.7-4.7-2.8-4.3,0c0.6,5.5,4.2,9.7,9.5,11.3
						c6.7,2.1,13.9-0.5,19.9-3.6C253.2,272.3,251,268.6,248.6,269.9L248.6,269.9z"/>
				</g>
			</g>
		</g>
		<g>
			<g>
				<g>
					<path fill="#231F20" d="M221.6,267.5c-2.3,2.1-21.9,7.4-21.3,2.5c0.3-2.8-4-2.8-4.3,0c-1.4,12.1,24.3,4.6,28.8,0.6
						C226.8,268.7,223.7,265.6,221.6,267.5L221.6,267.5z"/>
				</g>
			</g>
		</g>
		<g>
			<g>
				<g>
					<path fill="#231F20" d="M166.4,260.9c-4.5,1.3-9.1,3.3-13.1-0.1c-2.9-2.4-5.4-5.5-7.7-8.5c-1.7-2.2-5.5,0-3.8,2.2
						c3.1,4,6.5,8.8,10.9,11.4c4.6,2.7,10.1,0.7,14.8-0.7C170.2,264.3,169.1,260.1,166.4,260.9L166.4,260.9z"/>
				</g>
			</g>
		</g>
		<g>
			<g>
				<g>
					<path fill="#231F20" d="M131.9,256.2c0.5,4.3-14.1,5.3-16.5,5.4c-5.4,0.2-10.4-1.1-14.2-5.1c-5.9-6.2-10.9-24.2,0.6-27.3
						c2.7-0.7,1.5-4.9-1.2-4.2c-15.4,4.3-10.6,27.2-1.7,35.4c5.8,5.4,13.3,6.2,20.9,5.2c4.8-0.6,17.3-2.1,16.4-9.4
						C135.9,253.5,131.5,253.5,131.9,256.2L131.9,256.2z"/>
				</g>
			</g>
		</g>
		<g>
			<g>
				<g>
					<path fill="#231F20" d="M102.9,226.4c-1.5-3-2.9-5.9-4.4-8.9c-1.2-2.5-5-0.3-3.8,2.2c1.5,3,2.9,5.9,4.4,8.9
						C100.3,231.1,104.1,228.9,102.9,226.4L102.9,226.4z"/>
				</g>
			</g>
		</g>
		<g>
			<g>
				<g>
					<path fill="#231F20" d="M93.9,216c-3.7,0.1-6.8-1.3-9.3-3.9c-1.7-1.7-6.8-7.9-3.9-10.2c2.2-1.8-0.9-4.8-3.1-3.1
						c-4.8,3.9-0.8,10.5,2.1,14.3c3.5,4.5,8.5,7.4,14.2,7.3C96.6,220.2,96.7,215.9,93.9,216L93.9,216z"/>
				</g>
			</g>
		</g>
		<g>
			<g>
				<g>
					<path fill="#231F20" d="M80.3,199.4c-2.1-1.9-4.8-3-6.7-5c-2.4-2.5-3.2-6.2-3.5-9.6c-0.3-3.3-0.6-7.1,0-10.3
						c0.8-4.3,4.1-6.8,7.5-9.1c2.3-1.6,0.1-5.4-2.2-3.8c-3.4,2.3-6.8,4.8-8.6,8.7c-1.8,4-1.5,9-1.2,13.3c0.2,3.6,0.8,7.4,2.5,10.6
						c2.1,4.1,5.9,5.4,9.1,8.3C79.3,204.4,82.4,201.3,80.3,199.4L80.3,199.4z"/>
				</g>
			</g>
		</g>
	</g>
</g>
</svg>
