<?xml version="1.0" encoding="utf-8"?>
<!-- Generator: Adobe Illustrator 17.1.0, SVG Export Plug-In . SVG Version: 6.00 Build 0)  -->
<!DOCTYPE svg PUBLIC "-//W3C//DTD SVG 1.1//EN" "http://www.w3.org/Graphics/SVG/1.1/DTD/svg11.dtd">
<svg version="1.1" id="Capa_1" xmlns="http://www.w3.org/2000/svg" xmlns:xlink="http://www.w3.org/1999/xlink" x="0px" y="0px"
	 viewBox="0 0 720 792" enable-background="new 0 0 720 792" xml:space="preserve">
<polygon fill="#302C44" points="463,422 463,477 463,527 463,531.3 463,569 490,569 490,531.3 490,527 490,477 490,422 "/>
<polygon fill="#302C44" points="423,422 423,477 423,527 423,531.3 423,569 450,569 450,531.3 450,527 450,477 450,422 "/>
<rect x="433" y="251" fill="#ECC69F" width="43" height="65"/>
<path fill="#6173B3" d="M505.3,311.4c0-6.6-5.4-12-12-12h-75.9c-6.6,0-12,5.4-12,12v98.2h99.9V311.4z"/>
<g>
	<g>
		<path fill="#ECC69F" d="M494.8,315.6c6.5,8.6,10.9,19.1,14.4,28.7c10.3,28.2,13.7,58.2,12.6,88c-0.3,9.7,14.7,9.6,15,0
			c1.4-40-4.7-82.9-25.1-118c-1.2-2.2-2.5-4.3-4-6.3c-2.4-3.3-6.5-4.9-10.3-2.7C494.3,307.1,492.4,312.3,494.8,315.6L494.8,315.6z"
			/>
	</g>
</g>
<g>
	<g>
		<path fill="#ECC69F" d="M400.5,308.2c-0.5,0.7-1.1,1.5-1.6,2.2c-0.3,0.4-0.6,0.8-0.9,1.2c-0.7,0.9,1.2-1.5,0,0
			c-0.9,1.1-1.8,2.2-2.7,3.3c-4.8,5.7-10,11.1-15.7,15.9c-5,4.2-12.6,9-19.1,10.6c-6,1.5-12.3,0.5-17.6-3.9
			c-12-10.1-17-27.3-20.8-41.8c-2.5-9.3-16.9-5.4-14.5,4c6.2,23.4,19.4,59.3,49.6,57.3c18.6-1.3,34.5-15.3,46.3-28.7
			c3.5-4,6.8-8.1,9.8-12.4C419,307.8,406,300.3,400.5,308.2L400.5,308.2z"/>
	</g>
</g>
<path opacity="0.25" fill="#232321" d="M404.7,305.5c-8.1,6.7-12.5,13.7-21,21.9l11.3,9.3c7.2-7.3,11.2-11.6,19.1-18.2
	C421.6,312.3,412,299.4,404.7,305.5z"/>
<ellipse fill="#ECC69F" cx="454.7" cy="251.4" rx="21.7" ry="21.9"/>
<rect x="422" y="561" fill="#26272D" width="28" height="8"/>
<rect x="462" y="561" fill="#26272D" width="28" height="8"/>
<path fill="#6E5236" d="M475.7,262.7c0,0-16-11.3-16-32.7c0,0,10.3,0.3,15.3,10.7C480,251,475.7,262.7,475.7,262.7z"/>
<path fill="#6E5236" d="M439.3,241.3c0,0-4.7,11-6.3,18.3c0,0-4.3-13,1-19.7L439.3,241.3z"/>
<ellipse transform="matrix(0.9723 0.2336 -0.2336 0.9723 116.4716 -111.218)" fill="#ECC69F" cx="527.7" cy="436.1" rx="8.9" ry="10.6"/>
<path fill="#AD7F52" d="M434.3,242.3c0,0-3.9-1.8-0.3-13.3c4.5-14.6,6.8-4.8,6.8-4.8s7.8-17,15.2,0.8c0,0,2.5-11,9,1.8
	c0,0,3-1.1,8.3,12.2l-12,3.7c0,0-16.7-4.3-23,0.7C437.5,244,434.3,242.3,434.3,242.3z"/>
<path fill="#6173B3" d="M416.5,300c0,0-14.3-2.2-25.7,18.2l29.3,24.8l0.9-42.5L416.5,300z"/>
<path fill="#6173B3" d="M495.3,300c0,0,14.3-2.2,25.7,18.2l-20.3,21l-13.2-13.8L495.3,300z"/>
<path fill="#ECC69F" d="M443.5,296c0,0,1.8,9.1,9.4,15.8c0,0,6.4-7.3,6.7-17.8C460,283.5,443.5,296,443.5,296z"/>
<path fill="#302C44" d="M417.5,428.3h75.9c6.6,0,12-5.4,12-12v-6.7h-99.9v6.7C405.5,423,410.8,428.3,417.5,428.3z"/>
<line fill="none" stroke="#303180" stroke-miterlimit="10" x1="452.9" y1="311.8" x2="452.9" y2="409.7"/>
<polygon fill="#6173B3" points="388.5,316 406.2,331.2 408,323.6 390.8,311.8 "/>
<polygon fill="#6173B3" points="523.8,318.8 505.1,334 503.2,326.4 521.3,314.5 "/>
<path fill="#6E5236" d="M438.2,271.2c0,0,13.5-14.8,27,0.2c0,0,3.4,2.8-0.8,4.8l-4.8-3c0,0-4.4,7-6.9,1.5c0,0-2.8,4.5-5.8,0
	c0,0-2.5,4.2-4.8-1.5C442.2,273.2,434.9,278.5,438.2,271.2z"/>
<rect x="423" y="428.3" opacity="0.25" fill="#232321" width="27" height="14.9"/>
<rect x="413.1" y="321.7" fill="none" stroke="#303180" stroke-miterlimit="10" width="22" height="8.7"/>
<rect x="474.1" y="321.7" fill="none" stroke="#303180" stroke-miterlimit="10" width="22" height="8.7"/>
<path fill="#302C44" d="M443.5,307c0,0,7.5,7,8.8,7s8.1-6.5,8.1-6.5l2.6,8.5l-9.5,4.5c0,0-9.5-1.9-11.4-5.6L443.5,307z"/>
<path fill="#302C44" d="M448.2,314c0,0-0.8,13.2,5.2,13.2s5.5-13,5.5-13S453.5,308.2,448.2,314z"/>
<g>
	<path fill="#302C44" d="M450.7,324.5C450.7,324.5,450.8,324.5,450.7,324.5C450.7,324.5,450.7,324.5,450.7,324.5z"/>
	<path fill="#302C44" d="M455.6,324.5C455.6,324.5,455.6,324.5,455.6,324.5C455.7,324.5,455.7,324.5,455.6,324.5z"/>
	<path fill="#302C44" d="M461.4,376c-1-13.3-5.6-50.5-5.7-51.5c-0.1,0.1-1.4,0.1-2.1,0l0,0c0,0-0.1,0-0.3,0c-0.2,0-0.3,0-0.3,0l0,0
		c-0.8,0.1-2,0.1-2.1,0c-0.1,0.9-4.8,38.1-5.7,51.5c-1,13.4,4.6,20.8,8.1,21l0,0c0,0,0,0,0.1,0c0,0,0,0,0.1,0l0,0
		C456.8,396.8,462.4,389.4,461.4,376z"/>
</g>
<path fill="none" stroke="#303180" stroke-miterlimit="10" d="M444,302.9l-3.1,17.4c0,0-10.4-9.6-8.8-20.9"/>
<path fill="none" stroke="#303180" stroke-miterlimit="10" d="M459.7,305.5l5.7,15.4c0,0,15-16.1,10.8-21.1"/>
<ellipse fill="#D9D9D9" cx="485" cy="313.5" rx="4.1" ry="5.8"/>
<rect x="412.9" y="299.6" fill="#D9D9D9" width="17.8" height="2.2"/>
<rect x="477.6" y="299.3" fill="#D9D9D9" width="18.6" height="2.4"/>
<rect x="415" y="317.7" fill="#FFFFFF" width="18.2" height="2.4"/>
<path fill="#302C44" d="M431,245.5c0,0,34.2,5.7,46.3,1.2c0,0,5.6-13.2,3.8-22c-1.2-3.1-22.4-13-31.8-13c-9.4,0-20.4,12.6-22.2,14.3
	C425.4,227.7,429.2,244.9,431,245.5z"/>
<path fill="#262235" d="M430.2,243.5c0,0-6.3,7.2-5.7,9.8c0.7,2.8,29.3,12.7,44,1l3.8-7.5C472.3,246.8,456.2,233.3,430.2,243.5z"/>
<path fill="#26272D" d="M429.8,243.5c0,0,20.2-8.7,41.8,3.8l5.7-0.7l0.7-2.3l-6,0.3c0,0-15.3-13.5-42.7-3.2L429.8,243.5z"/>
<path fill="#D9D9D9" d="M449.3,233.5h-2.9c-2.2,0-4-1.8-4-4V229c0-2.2,1.8-4,4-4h2.9c2.2,0,4,1.8,4,4v0.4
	C453.3,231.7,451.5,233.5,449.3,233.5z"/>
<path fill="#9B9B9B" d="M332.6,391.9c-1.6,0-2.9,1.3-2.9,2.9c0,1.6,1.3,2.9,2.9,2.9s2.9-1.3,2.9-2.9
	C335.5,393.2,334.2,391.9,332.6,391.9z M332.6,396.6c-1,0-1.8-0.8-1.8-1.8s0.8-1.8,1.8-1.8s1.8,0.8,1.8,1.8S333.5,396.6,332.6,396.6
	z"/>
<path fill="#9B9B9B" d="M335.6,393.3c-1.6,0-2.9,1.3-2.9,2.9c0,1.6,1.3,2.9,2.9,2.9s2.9-1.3,2.9-2.9
	C338.6,394.6,337.2,393.3,335.6,393.3z M335.6,398c-1,0-1.8-0.8-1.8-1.8s0.8-1.8,1.8-1.8s1.8,0.8,1.8,1.8S336.6,398,335.6,398z"/>
<path fill="#9B9B9B" d="M338.8,392.9c-1.6,0-2.9,1.3-2.9,2.9c0,1.6,1.3,2.9,2.9,2.9s2.9-1.3,2.9-2.9
	C341.8,394.3,340.4,392.9,338.8,392.9z M338.8,397.6c-1,0-1.8-0.8-1.8-1.8s0.8-1.8,1.8-1.8s1.8,0.8,1.8,1.8S339.8,397.6,338.8,397.6
	z"/>
<path fill="#9B9B9B" d="M341.9,391.8c-1.6,0-2.9,1.3-2.9,2.9c0,1.6,1.3,2.9,2.9,2.9s2.9-1.3,2.9-2.9
	C344.8,393.1,343.5,391.8,341.9,391.8z M341.9,396.5c-1,0-1.8-0.8-1.8-1.8s0.8-1.8,1.8-1.8s1.8,0.8,1.8,1.8S342.8,396.5,341.9,396.5
	z"/>
<path fill="#9B9B9B" d="M344.6,389.9c-1.6,0-2.9,1.3-2.9,2.9c0,1.6,1.3,2.9,2.9,2.9s2.9-1.3,2.9-2.9
	C347.5,391.3,346.2,389.9,344.6,389.9z M344.6,394.6c-1,0-1.8-0.8-1.8-1.8s0.8-1.8,1.8-1.8s1.8,0.8,1.8,1.8S345.5,394.6,344.6,394.6
	z"/>
<path fill="#9B9B9B" d="M347.2,388.2c-1.6,0-2.9,1.3-2.9,2.9c0,1.6,1.3,2.9,2.9,2.9s2.9-1.3,2.9-2.9
	C350.2,389.5,348.9,388.2,347.2,388.2z M347.2,392.9c-1,0-1.8-0.8-1.8-1.8s0.8-1.8,1.8-1.8s1.8,0.8,1.8,1.8S348.2,392.9,347.2,392.9
	z"/>
<path fill="#9B9B9B" d="M349.3,385.7c-1.6,0-2.9,1.3-2.9,2.9c0,1.6,1.3,2.9,2.9,2.9s2.9-1.3,2.9-2.9
	C352.2,387,350.9,385.7,349.3,385.7z M349.3,390.4c-1,0-1.8-0.8-1.8-1.8s0.8-1.8,1.8-1.8s1.8,0.8,1.8,1.8S350.3,390.4,349.3,390.4z"
	/>
<path fill="#9B9B9B" d="M350,382.6c-1.6,0-2.9,1.3-2.9,2.9c0,1.6,1.3,2.9,2.9,2.9s2.9-1.3,2.9-2.9
	C352.9,383.9,351.6,382.6,350,382.6z M350,387.2c-1,0-1.8-0.8-1.8-1.8s0.8-1.8,1.8-1.8s1.8,0.8,1.8,1.8S351,387.2,350,387.2z"/>
<ellipse fill="#ECCCB3" cx="335.5" cy="383.5" rx="9.5" ry="8.2"/>
<ellipse transform="matrix(0.8308 -0.5565 0.5565 0.8308 -152.7876 253.056)" fill="#ECCCB3" cx="339.8" cy="377.8" rx="9.5" ry="8.2"/>
<g>
	<g>
		<path fill="#2D2F51" d="M220.1,304.2c-7.1,9.5-12,21.5-13.4,33.2c-1.1,9.4,0.6,19.3,6,27.2c7.7,11.4,20.3,17.9,33.2,21.8
			c26.4,8,55.5,7.4,82.8,5.7c9.6-0.6,9.7-15.6,0-15c-23.6,1.5-48.1,2.1-71.3-3.2c-3.9-0.9-7.7-2-11.5-3.3c-3.5-1.2-4.7-1.7-8.1-3.6
			c-1.3-0.7-2.5-1.4-3.7-2.2c-0.6-0.4-1.2-0.8-1.8-1.2c-1.1-0.8-0.6-0.5-0.6-0.4c-1.9-1.6-3.6-3.3-5.3-5.1c-0.9-1,0.8,1.2-0.2-0.3
			c-0.3-0.4-0.6-0.8-0.8-1.2c-0.6-0.9-1.1-1.9-1.7-2.9c-0.3-0.5-0.5-1-0.7-1.5c0.5,1,0.4,1.1,0.1,0.1c-0.3-1-0.7-2-0.9-3
			c-0.2-0.9-0.4-1.9-0.6-2.8c-0.3-1.7,0.1,1.3,0,0c0-0.5-0.1-1-0.1-1.5c-0.1-1.9-0.1-3.9,0.1-5.8c0-0.4,0.1-0.8,0.1-1.3
			c0.1-1.3-0.3,1.8,0,0.1c0.2-1,0.3-1.9,0.6-2.9c0.4-1.8,0.9-3.6,1.5-5.4c0.3-0.8,0.6-1.6,0.9-2.4c0.2-0.5,1.2-3,0.7-1.8
			c-0.5,1.2,0.4-1,0.7-1.5c0.3-0.7,0.7-1.5,1.1-2.2c1.8-3.5,3.7-7,6.1-10.2c2.5-3.3,0.5-8.4-2.7-10.3
			C226.6,299.2,222.5,301,220.1,304.2L220.1,304.2z"/>
	</g>
</g>
<path fill="#ECCCB3" d="M275.4,244.3c-6.8-8.4-35.7,20.9-30.7,30.3c10.3,19.3,4.3,33.3,4.3,33.3h43
	C292.1,308,298.1,272.3,275.4,244.3z"/>
<ellipse transform="matrix(-0.7387 0.6741 -0.6741 -0.7387 618.4761 271.6555)" fill="#ECCCB3" cx="256.6" cy="255.7" rx="21.7" ry="21.9"/>
<path fill="#A6906B" d="M234.4,258.7c0,0,13.3,13.1,10.2,15.5c0,0-10.2-9.6-12.6-14.7L234.4,258.7z"/>
<path fill="#68A8DE" d="M260.3,262.7c0,0,8.6-2.8,9.9,2.4C271.6,270.2,260.3,262.7,260.3,262.7z"/>
<path fill="#68A8DE" d="M273.3,264.5c0,0,6.7-1,7.1,3C280.8,271.6,273.3,264.5,273.3,264.5z"/>
<path fill="#68A8DE" d="M248.6,269.8c0,0-8.2,3.7-5.7,8.5C245.4,282.9,248.6,269.8,248.6,269.8z"/>
<path fill="#68A8DE" d="M240.5,272.2c0,0-6.8,0.7-6.1,4.7C235.1,280.9,240.5,272.2,240.5,272.2z"/>
<path fill="#68A8DE" d="M240.2,280c0,0-5.6,3.8-3.1,7C239.6,290.2,240.2,280,240.2,280z"/>
<path fill="#B69D75" d="M284,257.7c0,0-13.6,5.6-17.5-3s-12.9-14.3-11.5-19.3c0,0-5.3-0.7-6.7,9c-1.3,9.7-6,18-12.3,18.7
	c0,0-8.3,2.7-10.3-0.7c-2-3.3,2.3-3.7,2.3-3.7s-9.7-19.3,16.3-30c0,0-3.3-2.7-1.7-4.3c1.7-1.7,4,2.3,9.7,2
	C258,226,280,225.7,284,257.7z"/>
<path fill="#68A8DE" d="M266.5,258.6c0,0,5.4-4.1,7.7-0.7C276.4,261.3,266.5,258.6,266.5,258.6z"/>
<path fill="#32355E" d="M313.9,297.9l-0.4,0l-3.4,0c0-0.1,0-0.1,0-0.2l-13.9,0c0,0.1,0,0.1,0,0.2l-3.6,0v0.2c0,0,0,0,0,0h-16.3
	h-26.6c0,0,0,0,0,0l0.2-0.2h-3.5l-0.2-0.2h-5.5h-4.8h-5.2h-0.2c-6.3,0-11.4,5.1-11.4,11.4l8.1,49.5l6.1,37.4l2.8,17
	c0,0.9,0.1,1.8,0.3,2.8l0.2,1h14.5h0.8l47,0c-1.5,1.2,3,0.1,3,0h8.6l0.2-1.2c0.2-1,0.3-1.9,0.3-2.8l4.3-31.7l9.8-71.9
	C325.2,303,320.1,297.9,313.9,297.9z"/>
<path fill="#ECECEC" d="M249.8,297.9c0,0-4.8,35.1,18.2,63.6c0,0,24.2-31.2,24.6-63.4L249.8,297.9z"/>
<rect x="286.5" y="475" fill="#3E3E3D" width="14" height="26"/>
<g>
	<g>
		<path fill="#32355E" d="M314.8,314c0.3,0.1,0.5,0.2,0.8,0.3c0.3,0.1,0.6,0.3,1,0.4c1.7,0.7-1.4-0.6-0.1-0.1c2.5,1.1,5,2.2,7.4,3.4
			c6.8,3.4,14,7.8,19.1,12.3c3,2.6,5.6,5.3,7.3,7.9c2.1,3.2,3.2,6,3.3,8.6c0,3.4-0.6,5.9-2.7,9.4c-3.1,5.1-7.8,9.1-12.5,12.6
			c-3.3,2.4-4.8,6.5-2.7,10.3c1.8,3.2,7,5.1,10.3,2.7c15.8-11.5,29.3-29.1,18.7-48.8c-7-13-21.1-21.9-34-28.2
			c-3.8-1.9-7.8-3.7-11.8-5.2C309.7,296.2,305.8,310.7,314.8,314L314.8,314z"/>
	</g>
</g>
<rect x="239.5" y="420" fill="#1E1A47" width="27" height="55"/>
<rect x="279.5" y="420" fill="#1E1A47" width="27" height="55"/>
<rect x="280" y="559" fill="#3E3E3D" width="27" height="8"/>
<path fill="#1E1A47" d="M247,429.5h52c5.4,0,10.4-7.3,11.6-13.2h-74.1C237.6,422.2,241.6,429.5,247,429.5z"/>
<path opacity="0.25" fill="#232321" d="M238.3,416.4l-2.2-4l0.5,3.9c0,0,1,4.9,2.9,7.6l-0.1,20.1l27,0.1l0.1-14.7
	c0,0-11.8,0.3-17.9-2.3C240.8,423.7,238.3,416.4,238.3,416.4z"/>
<path fill="#ECCCB3" d="M249.8,297.9l18.7,6.1l24.1-5.9C292.6,298.1,273.2,276.4,249.8,297.9z"/>
<path fill="#32355E" d="M264.7,308.3c0,0,6-1.3,8,0.3c0,0,3.3,7.7,0.3,14.7c0,0-6-1.3-8.7,0C264.3,323.3,259.7,313.7,264.7,308.3z"
	/>
<path fill="#2D2F51" d="M264.3,323.3c0,0-4,12.3-3.3,27.7l6.3,11.7l9-14.7c0,0-1-11.7-3.3-24.7C273,323.3,267.7,321.3,264.3,323.3z"
	/>
<path fill="none" stroke="#C5C5C5" stroke-miterlimit="10" d="M270.3,306.7c0,0,5,2.7,4.3,11.7c0,0,11.3,0.7,16.7-6.3"/>
<path fill="none" stroke="#C5C5C5" stroke-miterlimit="10" d="M267,307c0,0-6.3,1.3-4.3,10.3c0,0-7.3,0-13-3.7"/>
<path fill="#1E1A47" d="M268,361.5c0-0.4-1.1,4.6-1,16.2c0,0,21-17,37-56.3l-8-4.7l9.7-0.3c0,0,0.7-10.3-4-18.7l-9.1,0.5
	C292.6,298.1,293.3,322.3,268,361.5z"/>
<path fill="#1E1A47" d="M249.8,297.9l-9.1-0.2c0,0-4.4,7.6-3.7,14.2l9.7,1l-7.3,2.7c0,0,4.3,37.7,27.7,62l1-16.2
	C268,361.5,249.3,341.9,249.8,297.9z"/>
<path fill="none" stroke="#868685" stroke-miterlimit="10" d="M268,361.5c0,0-2.5,27.8,0.5,55"/>
<path fill="#B1B1B0" d="M336.3,366c0,0-4.7,18.3,15.7,16.3c0,0,4.6-2.1,2.6-8.1l-4.3,4.1c0,0-9.8-1.8-10.5-10.2l3.4-3.3
	C343.2,364.8,341.3,363,336.3,366z"/>
<path fill="#868685" d="M336.3,366c0,0-0.2,8.2,4.8,12.2s10.9,4.1,10.9,4.1l-2.9,3c0,0-6.6,0.7-12.8-7.1c-2.5-3.5-2.2-10.2-2.2-10.2
	L336.3,366z"/>
<path fill="#868685" d="M324.4,377.4c0,0,0.7-2.5,2.6-2.8c3.3-0.5,7.9,4.8,6.5,16.7c-0.3,2.2-2.6,3.7-4.7,2.8
	c-0.9-0.4-1.8-0.7-2.3-1.8l3.9-0.5c0,0,2.6-11.1-2.2-14.4H324.4z"/>
<path fill="#B1B1B0" d="M331,394.3l2.5-0.8c1.4-0.4,2.3-1.6,2.6-2.9c0.5-2.5,0.9-6.7-0.3-10.5c-1.8-6.1-5.8-6.8-8.8-5.5
	c0,0,3.6,0.4,4.8,3.7c1.3,3.6,2.4,6.4,1.2,12.8C332.5,392.2,331.7,393.9,331,394.3z"/>
<path opacity="0.1" fill="#3E3E3D" d="M334,393.8c0,0,0.4,0.2,0.3,1.2c0,0-0.3,0.4-0.4,0.5c0,0-0.4-1.1-0.7-1.1
	C333.3,394.5,333.6,394,334,393.8z"/>
<path opacity="0.1" fill="#3E3E3D" d="M335.1,393.4c0,0,0.2,0.5,0.3,1.1l0.4,0c0,0,0.2-0.7-0.1-1.2
	C335.7,393.3,335.3,393.3,335.1,393.4z"/>
<path opacity="0.1" fill="#3E3E3D" d="M336.2,394.6c0,0,0.7,0.1,0.9,0.6c0,0-0.1,0.6-0.1,0.8c0,0-0.8-0.4-1.2-0.3
	C335.8,395.8,336,394.7,336.2,394.6z"/>
<path opacity="0.1" fill="#3E3E3D" d="M336.9,393.6c0,0,0.7,0.3,1,0.8c0,0,0.3-0.2,0.5-0.2c0,0-0.2-0.5-0.7-1
	C337.7,393.2,337.2,393.4,336.9,393.6z"/>
<path opacity="0.1" fill="#3E3E3D" d="M338.9,394.1c0,0,0.8,0,1.2,0.6c0,0,0,0.1,0,0.4c0,0-1,0.5-1.2-0.4
	C338.9,394.8,339,394.3,338.9,394.1z"/>
<path opacity="0.1" fill="#3E3E3D" d="M339.5,393c0,0,0.8,0.2,1.1,0.5c0,0,0.1-0.2,0.4-0.3c0,0-0.2-0.7-1-0.8
	C340,392.5,339.7,392.7,339.5,393z"/>
<path opacity="0.1" fill="#3E3E3D" d="M341.6,393c0,0,0.7-0.1,1.2,0.3c0,0,0,0.2,0.1,0.4c0,0-0.6,0.5-1.3,0
	C341.7,393.6,341.6,393.1,341.6,393z"/>
<path opacity="0.1" fill="#3E3E3D" d="M341.8,391.8c0,0,0.7,0,1.2,0.3c0,0,0.1-0.3,0.3-0.5c0,0-0.4-0.6-1.2-0.4
	C342.2,391.1,341.9,391.5,341.8,391.8z"/>
<path opacity="0.1" fill="#3E3E3D" d="M344.3,391.1c0,0,0.6-0.2,1.2,0.2c0,0,0,0.2,0.1,0.3c0,0-0.5,0.5-1.2-0.1L344.3,391.1z"/>
<path opacity="0.1" fill="#3E3E3D" d="M344.6,389.9c0,0,0.6,0,1.2,0.3c0,0,0-0.2,0.2-0.4c0,0-0.5-0.6-1.2-0.4
	C344.8,389.5,344.7,389.7,344.6,389.9z"/>
<path opacity="0.1" fill="#3E3E3D" d="M346.5,389.5c0,0,0.7-0.3,1.2-0.1c0,0,0.1,0.2,0.2,0.3c0,0-0.8-0.2-1.2,0.3
	C346.8,390,346.6,389.9,346.5,389.5z"/>
<path opacity="0.1" fill="#3E3E3D" d="M346.4,388.3c0,0,0.5-0.2,1.2-0.1c0,0,0-0.2,0.1-0.3c0,0-0.6-0.4-1.2,0.1
	C346.5,388,346.4,388.2,346.4,388.3z"/>
<path opacity="0.1" fill="#3E3E3D" d="M347.9,387.5c0,0,0.4-0.6,1-0.6c0,0,0,0.1,0.2,0.2c0,0-0.9,0.1-0.7,0.9
	C348.5,388,348.2,387.8,347.9,387.5"/>
<path opacity="0.1" fill="#3E3E3D" d="M347.2,386.5c0,0,0.3-0.4,1-0.6c0,0,0-0.1,0-0.3c0,0-0.9-0.1-1.1,0.7L347.2,386.5z"/>
<rect x="287" y="496" fill="#3E3E3D" width="29.5" height="5.5"/>
<path fill="#3E3E3D" d="M306.5,499c0,0,7,32-10,62l10,0.5c0,0,16-32,9.5-64.5L306.5,499z"/>
<rect x="245.5" y="475" fill="#3E3E3D" width="14" height="26"/>
<rect x="239" y="559" fill="#3E3E3D" width="27" height="8"/>
<rect x="246" y="496" fill="#3E3E3D" width="29.5" height="5.5"/>
<path fill="#3E3E3D" d="M265.5,499c0,0,7,32-10,62l10,0.5c0,0,16-32,9.5-64.5L265.5,499z"/>
<ellipse transform="matrix(-0.9942 0.1075 -0.1075 -0.9942 659.7123 563.7854)" fill="#ECC69F" cx="314.7" cy="299.7" rx="8.5" ry="10.1"/>
<path fill="#3E3E3D" d="M484,405.2c-0.6,0.5-0.8,11.8,5.2,15.8s1.8,14.8,8.8,15.5s9-13.2,8.5-26.5S494.5,397.8,484,405.2z"/>
<rect x="405.2" y="409.2" fill="#3E3E3D" width="99.5" height="5.2"/>
</svg>
