<?xml version="1.0" encoding="utf-8"?>
<!-- Generator: Adobe Illustrator 18.1.0, SVG Export Plug-In . SVG Version: 6.00 Build 0)  -->
<!DOCTYPE svg PUBLIC "-//W3C//DTD SVG 1.1//EN" "http://www.w3.org/Graphics/SVG/1.1/DTD/svg11.dtd">
<svg version="1.1" id="Layer_1" xmlns="http://www.w3.org/2000/svg" xmlns:xlink="http://www.w3.org/1999/xlink" x="0px" y="0px"
	 viewBox="0 0 203 276" enable-background="new 0 0 203 276" xml:space="preserve">
<g>
	<rect fill="#2A2B5E" width="202.9" height="275.1"/>
	<rect x="9.2" y="12.8" fill="#5B5BA7" width="182.2" height="252.4"/>
	<polygon opacity="0.24" fill="#8C8CC4" points="196.6,3.7 4.4,226.8 4.4,3.7 	"/>
	<g>
		<path fill="#222126" d="M128,128.4c-0.3-0.6,0-2.1,0-2.1s6.7-2.5,14,0v2.1H128z"/>
		<path fill="#636067" d="M138.1,125.3c1.2,0.2,2.5,0.5,3.8,0.9v2.1h-3.8"/>
		<path fill="#C0C4C3" d="M119,129.3l6-0.1c0,0,2.4-0.4,2.3-1.2c-0.1-0.8,13.9,0,13.9,0s3,0.3,3.4,1.8c0.4,1.5,1.6,3.1,1.6,3.1
			s5.3,7.4,5,11.1c0,0,4.5,16.9,4.5,18.3c0,1.4,2.5,8.8,2.3,18.2c-0.2,9.5-1.9,11.3-1.9,11.3s-2.2,3.9-4.5,5.4
			c-2.2,1.5-6.4,1.3-6.4,1.3s-5.2,0-8.3-3.6s-9.2-20.8-9.2-20.8s-0.6-2.5-2.8-1.1c-2.2,1.4-4,2.5-6.1,2.4c-2.1-0.2-5.3,0.2-9.2-3.4
			H97.1l2.6-8.9l0.8-11.8c0,0,17.6,0.6,18-0.9C119.1,148,119,129.3,119,129.3z"/>
		<circle fill="#A5A5A5" cx="135.9" cy="147" r="14.2"/>
		<path fill="#8D8D8D" d="M75.2,132.9"/>
		<circle fill="#646870" cx="118.1" cy="164.1" r="10.8"/>
		<circle fill="#9A99A4" cx="117.9" cy="163.8" r="9.3"/>
		<circle fill="#3D3842" cx="117.9" cy="164" r="6.4"/>
		<circle fill="#222126" cx="117.7" cy="163.9" r="4.6"/>
		<path fill="#222126" d="M102,129.3c0.8-0.2,17.5,0,17.5,0v17.9c0,0,0.5,4.1-2.7,4.7s-14.7,0-14.7,0"/>
		<rect x="102" y="129.3" fill="#302D33" width="17" height="3.6"/>
		<circle fill="#333135" cx="103.9" cy="154.4" r="0.6"/>
		<circle fill="#333135" cx="102.8" cy="155.9" r="0.5"/>
		<path fill="#333135" d="M123.4,139L123.4,139c-1,0-1.9-0.9-1.9-1.9v-3.3c0-1,0.9-1.9,1.9-1.9h0c1,0,1.9,0.9,1.9,1.9v3.3
			C125.3,138.1,124.4,139,123.4,139z"/>
		<path fill="#505052" d="M125.2,134.9v2.2c0,1-0.9,1.9-1.9,1.9h0c-0.7,0-1.4-0.4-1.7-1"/>
		<path opacity="0.42" fill="#5E6261" d="M135.2,161.2c0.4,0,5.4,8.9-6.5,13.5c0,0-1.6-4.3-3.4-3.5c0,0,4.9-10.3,1.6-12.7
			c0,0,0,0,0,0C127.8,159,132.8,161.5,135.2,161.2z"/>
		<g>
			<path fill="#181818" d="M158,181.4c0,0-0.2,3.5-4.7,6.3c-4.5,2.9-16.4,4.8-20.2-0.2c0,0,2.6,5.2,3.7,6.2c1.1,1,3.6,3.7,4.9,3.9
				c1.3,0.3,4.3,1.6,9.2-0.2s6.7-9.2,6.7-10.5C157.6,185.5,158,181.4,158,181.4z"/>
			<path fill="#5E6261" d="M158,181.6c0,0-0.2,3.5-4.7,6.4c-4.5,2.9-16.4,4.8-20.2-0.2c0,0,2.2,5.4,3.3,6.4c1.1,1,0.5,1.9,5.1,3.8
				c1.2,0.5,4.4,1.8,9.3-0.1s6.7-9.4,6.8-10.7C157.6,185.8,158,181.6,158,181.6z"/>
		</g>
		<path fill="#585860" d="M48.5,146.3c-0.1-0.7-4.7,30.6-4.7,30.6s-1.6,13.7,2.1,16.9s6.8,6,13.1,4.6c3.6-0.8,5.6-7,8.3-12
			c2.7-5,7.8-13.2,7.8-13.2s0.6-7.8-2.8-8.2C71.3,164.9,51.1,169.9,48.5,146.3z"/>
		<path opacity="0.43" fill="#CFD1DA" d="M49.6,152.5c0,0,1.4,8.4,10.8,11.5l-11,32.1c0,0-3.6-1.7-5.1-6
			C42.9,186,49.6,152.5,49.6,152.5z"/>
		<circle fill="#606169" cx="67.6" cy="146.1" r="19.8"/>
		<circle fill="#CFD1DA" cx="67.6" cy="146.3" r="19"/>
		<circle fill="#646870" cx="86" cy="164.9" r="13.4"/>
		<circle fill="#9A99A4" cx="85.7" cy="164.5" r="11.6"/>
		<circle fill="#3D3842" cx="85.3" cy="164.1" r="8"/>
		<path fill="#B9BAC3" d="M102,129.3H78.3c0,0,12.6,10,7.4,22.8c0,0,12.3,1.2,12.3,13.2h4.2"/>
		<g>
			<path fill="#323233" d="M64.5,136.8c0.2,0,5.3,0,5.3,0s1,0,1.4,1.5v3.4l-2.4,2.4c0,0-1.5,0.8-2.5,0l-2-2.1V137L64.5,136.8z"/>
			<path fill="#605D6B" d="M64.7,136.9c0.2,0,5,0,5,0s1,0,1.3,1.4v3.2l-2.3,2.3c0,0-1.4,0.8-2.4,0l-1.9-2v-4.7L64.7,136.9z"/>
			<path fill="#323233" d="M64.6,156.1c0.2,0,5.3,0,5.3,0s1,0,1.4-1.5v-3.4l-2.4-2.4c0,0-1.5-0.8-2.5,0l-2,2.1v4.9L64.6,156.1z"/>
			<path fill="#323233" d="M57.9,143.4c0,0.2,0,5.3,0,5.3s-0.1,1,1.5,1.4l3.4,0l2.5-2.4c0,0,0.8-1.4,0-2.5l-2.1-2l-4.9,0L57.9,143.4
				z"/>
			<path fill="#323233" d="M77.4,143.5c0,0.2,0,5.3,0,5.3s0.1,1-1.5,1.4l-3.4,0l-2.5-2.4c0,0-0.8-1.4,0-2.5l2.1-2l4.9,0L77.4,143.5z
				"/>
			<path fill="#453E48" d="M69.1,137.2c-0.2,0,0.8,3.6,0.4,4.2c-0.3,0.6-1.5,1.6-1.5,1.6l0.5,1.1l2.5-2.6l0-3.4
				C71,138.1,70.5,136.9,69.1,137.2z"/>
			<path fill="#605D6B" d="M70.2,145.1l2-1.9l4.7,0l0.3,0.3c0,0.2,0,5,0,5s0,1-1.4,1.3l-3.2,0l-2.3-2.4"/>
			<path fill="#453E48" d="M70,147.3l2.6,2.5l3.4,0c0,0,1.2-0.5,0.9-1.8c0-0.2-3.6,0.7-4.2,0.4c-0.6-0.4-1.5-1.5-1.5-1.5"/>
			<path fill="#605D6B" d="M65,145.1l-2-1.9l-4.7,0l-0.3,0.3c0,0.2,0,5,0,5s0,1,1.4,1.3l3.2,0l2.3-2.4"/>
			<path fill="#453E48" d="M65.3,147.3l-2.6,2.5l-3.4,0c0,0-1.2-0.5-0.9-1.8c0-0.2,3.6,0.7,4.2,0.4c0.6-0.4,1.5-1.5,1.5-1.5"/>
			<path fill="#605D6B" d="M64.8,156c0.2,0,5,0,5,0s1,0,1.3-1.4v-3.2l-2.3-2.3c0,0-1.4-0.8-2.4,0l-1.9,2v4.7L64.8,156z"/>
			<path fill="#453E48" d="M69.2,155.7c-0.2,0,0.8-3.6,0.4-4.2c-0.3-0.6-1.5-1.6-1.5-1.6l0.5-1.1l2.5,2.6l0,3.4
				C71.1,154.8,70.5,156,69.2,155.7z"/>
		</g>
		<path fill="none" stroke="#474748" stroke-width="0.5194" stroke-miterlimit="10" d="M62.7,132.9c0.3,0,9.9,0,9.9,0v8.6h8.8
			l0.4,9.9h-8.9l-0.3,8.6H62.3l0.1-8.5l-9-0.3v-9.9l9.2-0.2L62.7,132.9z"/>
		<path opacity="0.26" fill="#8D8D8D" d="M72.9,127.3c-0.2,0,3.8,8.7,4,17.2c0.2,8.1-3.3,16.1-3.3,16.1s4.9-7.2,10.2-8.6
			C90.6,150.2,85.5,128.7,72.9,127.3z"/>
		<rect x="88.5" y="144.6" fill="#333135" width="7" height="4.3"/>
		<rect x="88.9" y="144.9" fill="#48444B" width="6.2" height="3.7"/>
		<path fill="#B9BAC3" d="M102.2,165.2"/>
		<circle fill="#181818" cx="136.4" cy="138.5" r="4"/>
		<circle fill="#181818" cx="127.5" cy="147.3" r="4"/>
		<circle fill="#181818" cx="136.4" cy="156.1" r="4"/>
		<circle fill="#181818" cx="144.8" cy="147.3" r="4"/>
		<rect x="125.4" y="145.1" fill="none" stroke="#E11E34" stroke-width="0.5194" stroke-miterlimit="10" width="4.1" height="4.3"/>
		<path opacity="0.6" fill="#2F3030" d="M130.1,144.9c0,0-6.2-3.1-6,3.8C124.1,148.8,125.1,143.7,130.1,144.9z"/>
		<line fill="none" stroke="#2EBCBB" stroke-width="0.5194" stroke-miterlimit="10" x1="134.1" y1="154" x2="138.7" y2="158.7"/>
		<path fill="none" stroke="#2EBCBB" stroke-width="0.5194" stroke-miterlimit="10" d="M139,154c0,0.3-5.1,4.4-5.1,4.4"/>
		<path opacity="0.6" fill="#2F3030" d="M138.9,153.6c0,0-6.2-3.1-6,3.8C132.8,157.4,133.8,152.4,138.9,153.6z"/>
		<circle fill="none" stroke="#9B72B1" stroke-width="0.5194" stroke-miterlimit="10" cx="144.8" cy="147.1" r="2.3"/>
		<path opacity="0.6" fill="#2F3030" d="M147.4,144.9c0,0-6.2-3.1-6,3.8C141.3,148.8,142.3,143.7,147.4,144.9z"/>
		<path fill="none" stroke="#26B1AE" stroke-width="0.5194" stroke-miterlimit="10" d="M136.3,135.4c0,0.1-2.7,4.5-2.7,4.5h5.3
			l-2.5-4.5"/>
		<path opacity="0.6" fill="#2F3030" d="M139,136.1c0,0-6.2-3.1-6,3.8C132.9,140,133.9,134.9,139,136.1z"/>
	</g>
	<path fill="#E62326" d="M94.9,57.5c4.7,1.4,9.4,2.7,14.1,4.2c3.3,1,6.4,2.2,9.3,4.1c6.1,4.2,8.4,15.9,4.4,22.1
		c-2.3,3.5-7.8,4.6-11.2,2.4c-1-0.6-0.7-1.5-0.7-2.3c0-5,0-9.9,0-14.9c0-0.7,0-1.4,0-2.1c-0.1-1.9-0.6-3.8-2.7-3.8
		c-2.3,0-2.1,2.2-2.1,3.8c0,14-0.1,28.1,0,42.1c0,2.4-0.6,2.7-2.7,1.9c-2.6-1-5.3-1.8-7.9-2.6c-1.1-0.3-1.7-0.7-1.7-2.1
		c0.1-17.6,0.1-35.2,0.1-52.8C94.2,57.5,94.5,57.5,94.9,57.5z"/>
	<path fill="#186EB6" d="M124.8,102c1.3-0.6,2.7-1.1,4-1.7c0.5-0.2,1-0.5,1-1.1c0-0.8-0.7-0.9-1.3-1.1c-2.4-0.6-4.8-0.3-7.1,0.4
		c-1.5,0.5-3,0.9-4.4,1.4c-2.8-0.9-5.7-1.7-8.5-2.6c-0.5-1.3,0.3-1.7,1.3-2c9.3-2.9,18.4-2.6,27.5,1.1c0.9,0.4,1.7,0.9,2.4,1.5
		c1.6,1.4,1.7,2.9,0.2,4.5c-1.4,1.4-3.1,2.5-5.2,2.8C131.4,104.1,128.1,103.1,124.8,102z"/>
	<path fill="#F6BF1D" d="M81.3,101c-1.1,0.5-2.2,0.9-3.3,1.4c-0.5,0.2-1,0.5-1,1.1c0,0.7,0.7,0.9,1.3,1.1c2.3,0.5,4.7,0.3,6.9-0.4
		c0.9-0.3,1.8-0.7,2.7-0.9c1.7-0.4,3.2-0.3,3.3,1.9c0.1,1.7,0.6,3.6-2.4,3.8c-6,0.3-11.8,0.1-17.5-1.8c-0.2-0.1-0.5-0.2-0.7-0.3
		c-2.2-0.9-4.8-1.6-4.9-4.4c-0.1-2.7,2.6-3.4,4.5-4.5c0.4-0.2,0.8-0.3,1.2-0.5C74.6,98.9,78.2,99.4,81.3,101z"/>
	<path fill="#17A597" d="M124.8,102c3.3,1.1,6.6,2.1,9.9,3.2c-6.2,2.6-12.5,4.7-18.9,6.8c-2.1-1.9-5.1-1.5-7.5-2.5
		c-0.2-1,0-1.8,1.2-2.2C114.7,105.5,119.7,103.7,124.8,102z"/>
	<path fill="#17A597" d="M81.3,101c-3.2-1.6-6.7-2.1-9.9-3.5c5.1-1.8,10.3-3.7,15.4-5.5c0.1,0,0.2-0.1,0.2-0.1
		c1.4-0.2,3.2-1.3,4.1,0.4c1.2,2.4-0.1,5.3-2.2,6C86.4,99.2,83.9,100.1,81.3,101z"/>
	<path fill="#17A597" d="M108.5,97.4c2.8,0.9,5.7,1.7,8.5,2.6c-2.3,1.3-4.9,1.8-7.2,2.8c-1,0.4-1.4,0.1-1.4-1
		C108.4,100.3,108.4,98.8,108.5,97.4z"/>
	<path fill="#F6BF1D" d="M108.4,109.5c2.4,1.1,5.3,0.7,7.5,2.5c-1.9,0.7-3.9,1.4-5.7,2.2c-1.7,0.7-1.9,0-1.8-1.4
		C108.4,111.7,108.4,110.6,108.4,109.5z"/>
	<path fill="#EFEFEF" d="M139.2,244c0-0.1,0-0.3,0-0.4c1.4-2.1,1.1-4.1,0-6.2c-0.9-1.7-1.4-3.5-2.1-5.2c2-0.3,2-0.3,2.6,1.5
		c0.6,1.5,1.1,3,1.8,4.7c0.6-1.7,1.2-3.2,1.7-4.7c0.4-1.4,1.1-2,2.6-1.4c-1.4,3.4-2.7,6.9-4.1,10.3c-0.2,0.5-0.5,0.9-0.4,1.5
		C140.6,244,139.9,244,139.2,244z"/>
	<path fill="#EFEFEF" d="M115.8,213.2c0,2.7-0.3,5.6-1.5,8.3c-1.6,3.7-4.3,5.6-8.4,5.7c-4,0-6.9-1.9-8.5-5.6
		c-1.4-3.4-1.7-7-1.4-10.6c0.2-2.7,0.6-5.3,1.9-7.7c1.7-3.3,4.5-4.8,8.1-4.8c3.8,0,6.4,1.9,8,5.2
		C115.5,206.6,115.8,209.7,115.8,213.2z M112.4,212.9c0-2.4-0.1-4.7-0.9-7c-1.1-3.3-3.1-4.7-6.2-4.5c-2.3,0.2-3.8,1.5-4.5,3.5
		c-1.9,5.2-1.9,10.6-0.1,15.8c0.6,1.8,2,3.1,4,3.5c3.3,0.6,5.7-0.9,6.8-4.3C112.3,217.7,112.4,215.3,112.4,212.9z"/>
	<path fill="#EFEFEF" d="M81.5,223.8c4.3,0,8.2,0.1,12.2,0c1.3,0,1.1,0.7,1.1,1.5c0,0.7,0.3,1.5-1.1,1.5c-5.1-0.1-10.3-0.1-15.4,0
		c-0.9,0-1-0.3-1.1-1.1c-0.1-1.4,0.4-2.3,1.4-3.3c3.3-3,6.6-6.1,9.5-9.5c1.4-1.7,2.7-3.6,2.9-5.9c0.3-3-1.5-5.2-4.5-5.5
		c-2.4-0.3-4.6,0.4-6.5,1.9c-0.6,0.5-0.9,0.5-1.3-0.2c-1-1.8-1.1-1.8,0.7-2.9c3.5-2.1,7.2-2.4,11-0.7c3.5,1.5,4.9,5.2,3.8,9.4
		c-0.8,2.9-2.7,5.1-4.6,7.2c-1.3,1.4-2.6,2.6-3.9,3.9C84.3,221.2,83,222.4,81.5,223.8z"/>
	<path fill="#EFEFEF" d="M68.6,240.7c-1.7,0.6-2.5-0.1-2.8-1.6c-0.2-1.2-0.8-1.6-2-1.4c-0.2,0-0.4,0-0.7,0c-2.6,0-2.6,0-3.5,2.4
		c-0.5,1.4-1.5,0.5-2.5,0.8c1.4-3.8,2.8-7.5,4.2-11.2c0.4-1.2,1.3-0.5,2-0.7c0.7-0.2,1,0.2,1.2,0.8C65.9,233.4,67.3,237,68.6,240.7z
		 M62.9,230.7c-0.6,1.6-1.1,3.1-1.7,4.6c-0.1,0.2-0.2,0.7,0,0.7c1,0.1,2.1,0.1,3.1,0.1c0.2,0,0.3-0.2,0.2-0.4c0-0.1-0.1-0.3-0.1-0.4
		C64,233.8,63.5,232.3,62.9,230.7z"/>
	<path fill="#EFEFEF" d="M128.3,239.8c-1.2,1.2-2.4,1.5-3.9,1c-1.1-0.4-1.7-1.1-1.8-2.2c-0.1-1.1,0.3-2.1,1.4-2.6
		c1-0.5,2.1-0.7,3.2-0.7c0.3,0,0.8,0.2,0.9-0.2c0.1-0.5-0.1-0.9-0.4-1.2c-0.8-0.7-1.8-0.5-2.8-0.3c-0.6,0.2-1,0.3-1.3-0.5
		c-0.2-0.8,0.4-0.8,0.9-0.9c0.8-0.2,1.6-0.3,2.5-0.2c2.1,0.2,3.1,1.3,3.1,3.4c0,1.5,0.1,2.9,0,4.4c0,0.4,0.6,1.1-0.4,1.2
		C129.1,240.9,128.2,241.1,128.3,239.8z M127.4,236.6c-1.7,0-2.8,0.6-2.8,1.6c0,0.9,0.5,1.3,1.4,1.3c1.3,0,2.1-0.9,2.2-2.1
		C128.1,236.8,128,236.5,127.4,236.6z"/>
	<path fill="#EFEFEF" d="M105.3,237.1c-0.7,0-1.4,0-2.1,0c-1-0.1-1,0.4-0.6,1.1c0.6,1.2,2.1,1.7,3.8,1.2c0.6-0.1,1-0.2,1.2,0.6
		c0.2,0.9-0.4,0.8-0.9,0.9c-4.5,0.9-7.4-2-6.1-6.1c0.6-2.1,2.7-3.3,4.8-2.9c1.9,0.4,3.2,2.4,2.9,4.5c-0.1,0.6-0.3,0.6-0.8,0.6
		C106.8,237.1,106.1,237.1,105.3,237.1z M104.4,235.5c0.4,0,0.8,0,1.2,0c1.1,0.1,1.1-0.4,0.7-1.2c-0.5-1.2-2.3-1.5-3.3-0.5
		c-0.4,0.4-0.8,0.9-0.6,1.4c0.2,0.5,0.8,0.1,1.2,0.2C103.8,235.6,104.1,235.5,104.4,235.5z"/>
	<path fill="#EFEFEF" d="M79,236.4c0-1.1,0-2.3,0-3.4c0-0.4-0.2-0.9,0.4-0.9c0.5,0,1.3-0.4,1.5,0.4c0.2,0.7,0.4,0.2,0.5,0.1
		c1.2-0.9,2.5-1,3.8-0.3c1.2,0.7,1.5,1.8,1.5,3.1c0,1.5,0,2.9,0,4.4c0,0.7-0.1,1.1-1,1.1c-0.9,0-1.1-0.4-1.1-1.2c0-1.4,0-2.9,0-4.4
		c0-1.1-0.3-1.9-1.6-2c-1.2,0-2.1,0.7-2.1,2c-0.1,1.5-0.1,3,0,4.5c0,0.8-0.2,1-1,1c-0.7,0-1.2,0-1.1-1C79.1,238.7,79,237.6,79,236.4
		z"/>
	<path fill="#EFEFEF" d="M71.9,232.8c1.1-1.1,2.5-1.3,3.9-0.7c1.4,0.6,1.7,1.9,1.7,3.3c0,1.5-0.1,2.9,0,4.4c0,0.8-0.2,1.1-1,1.1
		c-0.8,0-1.1-0.1-1.1-1c0.1-1.4,0-2.9,0-4.4c0-1.4-0.5-2.1-1.6-2.1c-1.2-0.1-2,0.7-2.1,2c-0.1,1.5-0.1,3,0,4.5c0,0.9-0.4,0.9-1.1,1
		c-0.8,0-1-0.2-0.9-1c0-2.2,0-4.5,0-6.7c0-0.3-0.3-1,0.3-1c0.6-0.1,1.3-0.5,1.7,0.4c0,0.1,0,0.3-0.1,0.4
		C71.7,232.9,71.8,232.9,71.9,232.8z"/>
	<path fill="#EFEFEF" d="M96,238.7c0.6-1.9,1.3-3.9,1.9-5.8c0.2-0.7,1.4-1.1,2-0.8c0.4,0.2,0.2,0.5,0.1,0.7c-0.9,2.5-1.9,5-2.8,7.5
		c-0.3,0.8-0.9,0.5-1.4,0.5c-0.5,0-1,0.2-1.3-0.6c-0.9-2.5-1.8-5-2.8-7.5c-0.1-0.3-0.3-0.7,0.2-0.6c0.6,0.1,1.5-0.5,1.8,0.5
		c0.6,1.8,1.2,3.6,1.8,5.4C95.6,238.2,95.6,238.6,96,238.7z"/>
	<path fill="#EFEFEF" d="M119.1,231.9c0.2,0,0.8,0.2,1.3,0.2c0.6,0.1,0.9,0.3,0.6,1c-0.2,0.6-0.4,0.8-1,0.5c-0.6-0.3-1.3-0.2-2-0.2
		c-0.5,0.1-0.8,0.3-0.9,0.8c-0.1,0.5,0.2,0.8,0.6,0.9c0.8,0.3,1.6,0.6,2.3,1c1.1,0.5,1.8,1.3,1.6,2.6c-0.2,1.2-1,1.9-2.2,2.2
		c-1.3,0.3-2.5,0-3.8-0.2c-0.8-0.2-0.5-0.6-0.4-1.1c0.1-0.6,0.4-0.6,0.9-0.5c0.7,0.3,1.5,0.5,2.3,0.4c0.5-0.1,1.1-0.2,1.2-0.8
		c0.1-0.6-0.4-0.9-0.9-1.2c-0.4-0.2-0.9-0.4-1.3-0.5c-1.8-0.7-2.5-1.7-2.3-3.1C115.6,232.6,116.9,231.8,119.1,231.9z"/>
	<path fill="#EFEFEF" d="M122.8,221.3c2.5-1.2,4-0.3,4,2.3c0,0.9,0,1.8,0,2.6c0,0.6-0.1,0.9-0.8,0.9c-0.6,0-1,0-1-0.8c0.1-1,0-2,0-3
		c0-0.6-0.3-1.1-1-1.1c-0.7,0-1.2,0.4-1.2,1.1c0,1-0.1,2,0,3c0,0.8-0.3,0.9-1,0.9c-0.6,0-0.8-0.2-0.8-0.8c0-2.3,0-4.7,0-7
		c0-0.7,0.3-0.8,0.9-0.8c0.5,0,1,0,0.9,0.8C122.8,219.9,122.8,220.5,122.8,221.3z"/>
	<path fill="#EFEFEF" d="M109.7,236.4c0-1.1,0-2.2,0-3.3c0-0.4-0.2-0.9,0.4-1c0.5,0,1.3-0.4,1.5,0.3c0.3,0.7,0.3,0.3,0.6,0.1
		c0.4-0.4,1-0.6,1.6-0.6c0.5,0,0.9,0,0.8,0.7c-0.1,0.5,0,0.9-0.8,0.9c-1.4,0.1-2.1,0.8-2.1,2.3c0,1.4-0.1,2.8,0,4.2
		c0,0.8-0.4,0.9-1,0.9c-0.7,0-1.1-0.1-1-0.9C109.7,238.7,109.7,237.6,109.7,236.4z"/>
	<path fill="#EFEFEF" d="M131.6,236.5c0-1.1,0-2.2,0-3.3c0-0.4-0.3-1,0.4-1.1c0.5,0,1.3-0.4,1.5,0.4c0.2,0.6,0.3,0.1,0.4,0
		c0.4-0.4,1-0.6,1.5-0.6c0.4,0,1-0.2,0.9,0.6c0,0.5,0.1,1-0.8,1c-1.4,0-2,0.8-2,2.2c0,1.4-0.1,2.8,0,4.2c0,0.9-0.3,1-1.1,1
		c-0.7,0-1-0.2-1-1C131.7,238.8,131.6,237.6,131.6,236.5z"/>
	<path fill="#EFEFEF" d="M118.8,227.1c-1.4,0-1.9-0.5-2-1.9c0-0.7,0-1.3,0-2c0-0.5,0.2-1-0.6-1.1c-0.1,0-0.2-0.1-0.3-0.2
		c-0.2-0.4,1-2.7,1.5-2.7c0.6,0,1.3-0.1,1.1,0.9c-0.1,0.6,0.2,0.7,0.8,0.7c0.5,0,0.5,0.3,0.5,0.7c0,0.3,0,0.7-0.5,0.6
		c-0.9-0.1-0.8,0.5-0.8,1.1c0,0.6,0,1.1,0,1.7c0,0.4,0.1,0.8,0.5,0.7c0.7,0,0.7,0.4,0.7,0.8C119.7,227.3,119.2,227,118.8,227.1z"/>
	<path fill="#EFEFEF" d="M90.3,236.6c0,1.1,0,2.1,0,3.2c0,0.7,0,1.1-0.9,1.1c-1,0-1-0.4-1-1.2c0-2.2,0-4.4,0-6.6c0-0.8,0.2-1,1-1.1
		c0.9,0,1,0.4,1,1.1C90.2,234.3,90.3,235.4,90.3,236.6z"/>
	<path fill="#EFEFEF" d="M89.4,230.7c-0.7,0.1-1-0.1-1-0.9c0-0.9,0.4-0.9,1.1-1c0.8,0,0.9,0.3,0.9,1
		C90.5,230.8,90.1,230.9,89.4,230.7z"/>
</g>
</svg>
