<?xml version="1.0" encoding="utf-8"?>
<!-- Generator: Adobe Illustrator 18.1.0, SVG Export Plug-In . SVG Version: 6.00 Build 0)  -->
<!DOCTYPE svg PUBLIC "-//W3C//DTD SVG 1.1//EN" "http://www.w3.org/Graphics/SVG/1.1/DTD/svg11.dtd">
<svg version="1.1" id="Layer_1" xmlns="http://www.w3.org/2000/svg" xmlns:xlink="http://www.w3.org/1999/xlink" x="0px" y="0px"
	 viewBox="0 0 1056 634" enable-background="new 0 0 1056 634" xml:space="preserve">
<g>
	<path fill="#9A5AA7" d="M691.3,398.8c0,0,156.9-289.7,17-543.9c0,0,84.2,264.4-20,405.3c0,0,86.6-292.7-177.9-364.3
		c0,0,96.9,51.3,92.3,208.2c0,0-259.5-179.1-331.2,138.2c0,0,40.8-82.1,145-104.1c0,0-203,133.1-97.2,395.8
		c0,0-41.9-181.1,59.7-296.9c0,0-105.8,395.8,177.5,496.5c0,0-109.2-63.1-95.6-237.2c0,0,141.6,223.5,351.5,13.6
		c0,0-131.4,91.4-221.4,1.6C591,511.6,660.7,469.7,691.3,398.8z"/>
	<path fill="#E2C8EC" d="M389.9,371C375,480.7,414.4,596.5,493.1,674.3c-13.6-39.2-24-79.4-31.3-120.3c12.7,39.8,57.7,58,97.6,70.3
		c-27-21.8-47.3-51.9-57.2-85.1c21.3,0.6,42.4,6.6,60.8,17.1c10,5.7,19.5,12.9,30.8,15.3c12.5,2.7,25.6-0.8,37.7-5
		c58.7-20.6,110.5-60.2,145.8-111.4c-28.3,24.3-62.7,42.1-99.6,47.6c-32.8,4.9-67.6,0.2-98.4,12.7c40-21.4,80.3-43.1,114.2-73.2
		c33.8-30.2,61-70.1,67.1-115c-10.5,32.3-39.8,54.6-69.3,71.5c-29.5,16.8-61.6,30.9-84.9,55.7c35.2-59.1,68.4-120.5,85.3-187.2
		s16.4-139.9-13.9-201.7c4.2,54.4-3.9,109.7-23.6,160.6c8.7-32.2,3.7-67-8.6-98c-12.3-31-31.5-58.8-51.7-85.3
		C551.4-12.9,500.3-66.7,433.6-88.1c54.7,53.8,104.2,113,147.5,176.4c-46.5-40.2-97.8-76.9-156.7-94.7S297.8-20.9,247.3,14.2
		c60.3,7.9,120,20.8,178.1,38.8c11.6,3.6,24.4,8.5,29.4,19.5c-11.9,7.6-27.3,4.6-41.4,5c-34.7,0.9-65.8,25-83.1,55.1
		c-17.3,30.1-22.7,65.6-24.5,100.3c18.7-49.7,61.5-89.6,112.3-104.9c-53.8,40.7-87.3,104.9-97.7,171.5s0.9,135.4,24.8,198.5
		c-1.5-36.6-2.1-73.8,7.1-109.2c9.2-35.4,29.4-69.4,61-87.9c-20.1,42.7-27.5,91.4-20.9,138.2"/>
	<path fill="#CFA3C4" d="M402.7,324.4c-17,108.1,7.2,222.2,66.8,314C441.5,585,429.8,523,436.6,463c8.4,62,44,119.9,95.6,155.3
		c-24.3-27.1-39.8-62-43.7-98.1c40.2,42.4,100.9,64.4,158.9,57.5c-40.8-12-80.9-26.4-120.1-43.1c23,10.3,49.6,0.2,72.7-9.9
		c19.5-8.5,38.9-16.9,58.4-25.4c-26.5,1.8-53.1,3.5-79.6,5.3c65.8-38.1,109-112.6,109.5-188.6c-12.6,31.6-28.1,66.1-59.4,79.4
		c39.8-83.2,45-182.3,14.1-269.2S545.5-34.4,462.1-73.8c54.4,46.7,94,110.3,111.8,179.8C526.4,46.3,455.3,5.9,379.7-4.4
		c-15.3-2.1-31.6-2.8-45.4,4.1C390.7,5.6,444.7,32,483.8,73c-30.8-4-62.9-2.8-91.5,9.2c-28.6,12.1-53,36.4-59.8,66.6
		c9.2-19.7,32.3-28.6,53.7-32c21.5-3.4,44.1-3.4,63.5-13.2c-70.1,25.6-119.1,100-114.8,174.5c17.1-53.3,65.6-95.1,120.8-104.2
		c-19.4,27.1-49,45.2-70.1,70.9c-31,37.7-41.3,87.7-50.6,135.6c12.1-50.1,53.2-87.2,92.2-121c-58,49.5-82.3,135.1-58.8,207.6
		C365.8,417.6,377.8,367.4,402.7,324.4z"/>
	<ellipse fill="#111119" cx="522.7" cy="310.5" rx="72.1" ry="172.3"/>
	<path fill="#ACDBE4" d="M587.3,286.6c-2.1,2.6-4.1,5.1-6.2,7.7c3.2-7.9-4-16.7-2.2-25c0.4-1.7,1.1-3.4,1.3-5.1c0.2-2-0.2-4-0.6-5.9
		c-3.1-14-6.3-27.9-9.4-41.9c-1.8-8-3.6-16-6-23.8c-3-9.8-7-19.4-11.9-28.5c-4.4-8.2-9.7-16.2-17-22.1
		c15.7,11.8,31.9,24.1,41.5,41.2c6.7,11.8,9.9,25.1,12.9,38.3c4.6,19.7,9.1,39.5,11.1,59.6c1.5,15.3,1.7,30.8,1.8,46.2
		c0.1,13.4,0.2,26.8-1.6,40.1c-2.3,17-7.7,33.4-13.1,49.6c-2.8,8.4-5.5,16.7-8.3,25.1c-0.8,2.3-2.2,5.1-4.6,4.8
		c1.1-2.4,1.1-5.3,0-7.7c-3.3,9.4-9.7,17.7-17.9,23.4c2.4-18.5,13.9-34.4,20.2-51.9c6.7-18.6,7.3-38.7,7.9-58.4
		C586,330.3,586.7,308.5,587.3,286.6z"/>
	<path fill="none" d="M447.8,269.1c-1-5.9-2.1-11.9-3.1-17.8"/>
	<path fill="#83CBF3" d="M561.9,462c-8.9,12.1-21.5,23.2-36.6,23.5c-8.8,0.1-17.3-3.6-26.2-4.1c-10.8-0.7-21.3,3.3-31.3,7.2
		c12.9-6.7,25.7-13.4,38.6-20.1c-8.8,2.8-18.6,2.9-27.4,0.1c4.3,0,6.1-5.9,4.3-9.7c-1.8-3.8-5.6-6.2-8.5-9.3
		c-4.7-5-6.9-12.1-6.1-18.8c-20.8,0-41.5,2.1-61.8,6.4c19.5-4,37.2-16.1,47.9-32.8c-20.7-1.8-41.4-2.3-62.1-1.4
		c17.9,0.6,37-5.7,47.1-20.3c2.8-4.1,4.9-9.3,3.1-13.9c-1.4-3.7-5.2-7.1-4-10.9c0.7-2.2,3-3.6,4.4-5.5c3.3-4.3,1.9-10.5-0.7-15.3
		c-2.6-4.8-6.3-9.1-7.2-14.5c-0.5-2.7-0.3-5.6,0-8.3c0.9-9.8,1.8-19.6,3.9-29.3c0.8-3.9,1.8-8.1,0-11.6c1.6-2,2.3-6.7,1.2-9
		c-0.6-1.2-1.5-2.3-1.8-3.7c-0.6-3.6,4.4-5.9,5-9.6c0.3-1.8-0.4-3.8,0.5-5.4c0.6-0.9,1.6-1.5,2.4-2.2c3-2.6,2.8-7.2,2.9-11.1
		c0.1-6.2,1.4-12.3,2.7-18.3c2-9.3,4.1-19,9.8-26.7c1-1.3,2.1-2.6,2.8-4.1c1.2-2.5,1.4-5.3,1.9-8c0.7-3.2,2-6.2,3.3-9.1
		c0.6-1.4,1.3-2.9,2.6-3.7c1-0.6,2.3-0.8,3.3-1.5c1-0.7,1.4-1.9,1.9-3c1.6-3.9,3.1-7.9,4.7-11.8c0.5,1,0.9,2,1.4,3
		c1.5-5.5,1.3-12.9-0.6-18.3c1.5,2.2,3,4.3,4.5,6.5c0.2-6-3.4-11.4-7.1-16.1c-7.2-9-15.4-17.2-24.6-24.2c20,6.3,37.1,21.4,45.7,40.4
		c1.3-3.8,0.8-8.2-1.3-11.7c2.8,1.9,5.4,4,7.9,6.3c-5.2-16.6-14.6-31.9-27-44c18.3,11.1,33.2,27.5,42.4,46.7
		c-0.2-10.3-3.9-20.4-10.3-28.5c7.5,9.8,14.7,19.9,21.4,30.2c2.3,3.5,4.6,7.3,4.6,11.4c0,3-1.2,5.8-2.4,8.5
		c-4.5,10.3-9,20.6-13.5,30.9c-2.5,5.8-5,11.6-6.2,17.7c-1.1,5.4-1,11-0.6,16.6c1.9,24.8,11.7,48.3,21.4,71.3
		c1.3,3.2,2.7,6.3,4.6,9.2c3.5,5.1,8.8,8.6,13.2,12.9c5,4.9,9.1,10.7,13,16.4c3.8,5.5,7.6,11.1,9.7,17.4c2.1,6.3,2.1,13.6-1.4,19.3
		c-9.2,14.8,2,33.2,1,50.6c-0.9,15-7.3,29.6-17.9,40.4c-4,4.1-8.8,8-10,13.6"/>
	<path fill="none" d="M400.3,378.7c0-0.9,0-1.7,0-2.6"/>
	<path fill="#2A519E" d="M537.6,273c-14.2-40.7-22.5-83.5-24.8-126.5c-6.2,10.3-8,22.8-7.4,34.8s3.7,23.8,6.7,35.4
		c-16.5-11.4-16.7-37-31.8-50.1c7.6,23.7,15.2,47.5,22.8,71.2c-9.7-10.1-18.5-21.1-26.3-32.7c3.8,26.5,13.8,52.1,29,74.1
		c-2.6,1.7-5.8-0.7-7.9-3c-8.7-9.2-17.4-18.5-26.2-27.7c6.2,23,19.3,44.1,37.2,59.9c-7.7,1.5-14.7-4.5-22-7.4
		c-9-3.5-19.7-1.9-27.3,4c15.3,5.4,30.1,12.2,44.2,20.1c-7.4-2.7-15.8-0.7-22.5,3.3c-6.7,4-12.2,9.8-17.5,15.6
		c18.4-8.9,41.6-6.9,58.2,5c-19.8,3.2-39.3,7.9-58.4,13.9c-0.5,0.2-1.1,0.3-1.5,0.7c-1.6,1.5,0.3,4.1,2.2,5.2
		c12.9,6.9,29.5-0.8,43.2,4.2c-17,5.6-32.8,14.6-46.4,26.2c17.9-2.9,35.6-7.6,52.6-13.8c-13.8,12.1-28.7,23-44.5,32.4
		c15,2.2,30.7,0,44.6-6.2c-4.7,10.7-14,19.2-25,23c5.4,3.9,13,3.7,19.1,1.1c6.1-2.6,11.2-7.3,16-11.8c-7.8,9.7-14.3,20.4-19.4,31.8
		c12.2-4.8,23.5-12.1,32.9-21.3c-2.6,14.5-11,27.8-22.8,36.5c16.1-5.2,25.7-21,38.7-31.9c4.5-3.8,9.6-7,13.6-11.4
		c5-5.3,8.2-12.1,10.6-19c9.9-27.9,7.5-61.2-11-84.3c-3.1-3.9-6.7-7.5-9.3-11.8c-4.2-7.1-5.5-15.5-8.3-23.3
		C545.3,278.5,546.6,279.9,537.6,273z"/>
	<path fill="#293A74" d="M584.6,329.6c0,0-60.1-69.1-61.9-111.3s8.5-62.3,8.5-62.3s-39.2,52.5,1.7,117.3c0,0-37.5-54.6-40.5-78.5
		c0,0,14.9,70.8,51.6,112.6c0,0-43.1-36.7-55.5-82.7c0,0,5.1,63.1,69.1,107.1l-72.1-60.1c0,0,40.5,61,74.6,72.5L472,297.2
		c0,0,46.1,47.8,93,56.3l-82.3-20.5l80.6,27.3l-76.4,4.3l54.6,3.8c0,0-49.1,11.1-57.6,14.1c0,0,52.5-4.3,63.6-4.7
		c0,0-50.8,13.2-58.4,27.3c0,0,46.9-17.9,63.6-19.6c16.6-1.7-38.8,16.2-51.6,36.3c0,0,26-18.8,55.5-23.5c0,0-49.9,28.6-53.3,40.5
		c0,0,47.1-38,80.9-37.8c0,0-49.4,22-61.3,36.1c0,0,44.5-25.8,59.8-30.4c0,0,6.4-25,8.2-38.8C592.5,354.1,584.6,329.6,584.6,329.6z"
		/>
	<path fill="#F9EFBE" d="M611.3,350.1c10.7-23.3,13.8-49.9,8.7-75c11.7,19,15,43.1,8.8,64.6c10.6-26.7,11.3-57.1,1.8-84.2
		c-1.8-5.2-4-10.3-4.9-15.6c-1.2-6.8-0.5-13.7-0.6-20.6c-0.6-25.4-13.4-48.7-25.8-70.9c12.2,20.7,16.7,45.9,12.4,69.5
		c-2.7-15-6.7-29.8-12.1-44c-5.4-14.3-12.2-28.5-23.2-39.1c-5.8-5.6-12.7-10.1-19.5-14.6c-12.7-8.3-25.5-16.6-38.2-25
		c14.7,13.6,29.2,28.3,36.7,46.8c3.3,8,5.2,16.5,8.6,24.4c5.4,12.2,14.3,22.6,19.4,35c5,12.1,6,25.4,7.9,38.3
		c3.3,22.7,9.3,44.9,12.6,67.7c3.3,22.7,3.6,46.4-4.2,68c10.9-18.1,17.3-38.9,18.3-60.1"/>
	<path fill="#F1E8F0" d="M458.1,482.9c-1.3,16.9,6.4,33.1,13.8,48.3c4.6,9.4,9.2,18.9,13.8,28.3c-4.4-18.2-7-36.8-7.8-55.5
		c6.2,4.6,12.6,9.2,19.8,11.9c13.6,5.1,29.9,2.5,41.3-6.6c-8.1,4.2-17.4,5.1-26.5,4.9c-9.1-0.2-18.6-1.6-25.9-7
		c-11.5-8.7-14-24.6-15.6-39c-6.8,2-10.5,9.3-11.7,16.2c-1.2,6.9-0.5,14.2-2.2,21"/>
	<path fill="#F5E8F2" d="M606.1,514.8c-26.1,1.1-52.6-8.6-71.7-26.5c6.8-3.2,13.7-6.5,19.9-10.7c9.4-6.3,17.3-14.8,24.3-23.7
		c19-24.3,32.2-53.2,38-83.5c-2.5,36.3-14.2,73.4-39.9,99.1c35.4-16.8,64.6-46.4,81.1-82c-11.5,32-36.8,56.7-61.4,80.2
		c-8.7,8.3-17.6,16.8-28.6,21.8c-3.3,1.5-7.4,3.6-7,7.2c0.2,1.6,1.3,3,2.4,4.1C574,512.3,590.7,517.7,606.1,514.8z"/>
	<path fill="#F5E8F2" d="M554.3,112.6c-19.9-31.5-46.7-58.5-78-78.7c25.2,13.2,47.2,31.7,68.8,50.2c14.3,12.2,29,25,37.5,41.8
		c1.8,0.3,2.8-2.1,3.1-3.9c5.3-41-13.6-81.5-38-114.9c14.7,12.9,25.8,29.3,35.8,46.1c28.8,48.4,50.1,102.7,51.4,159
		c-4.7-39.1-18.7-77.1-40.7-109.9c4.7,20.8,6.3,42.4,4.5,63.7C590.1,138,559.7,123,542.4,99"/>
	<path fill="#E2C8EC" d="M376.2,194c26.4-19.6,58.3-31.5,91.1-34c-26.1,40.5-66.7,72.1-83,117.5c18-17.3,38-32.4,59.5-45
		c-10.5,19.1-22.9,37.1-36.9,53.8c22.1-19.8,35.9-47.1,49.1-73.6c-14.9,8.4-29.1,18.3-42.1,29.4c23.6-30.1,46.1-60.9,67.5-92.6
		c-19.5-5.2-40.1,2.9-57.4,13.3c16.8-14.3,36-25.7,56.7-33.5c-4.6-3.3-11-2.3-16.4-0.7C428.6,138.9,400.8,166.2,376.2,194z"/>
	<path fill="#6464AE" d="M498.1,623.1c0,0,165.8,84.5,307.8-44.8C805.9,578.3,670.2,751.1,498.1,623.1z"/>
	<path fill="#6464AE" d="M672.9,482.8c0,0,138.2-48,149.7-231.5C822.6,251.3,782.7,409.2,672.9,482.8z"/>
	<path fill="#7862A9" d="M376.2,55c0,0-152.6,80.6-128.9,263.6C247.3,318.6,180.7,89.5,376.2,55z"/>
	<path fill="#7862A9" d="M299.2,260.2c0,0-112.6,171,20.5,350.1C319.7,610.3,221.8,449.1,299.2,260.2z"/>
	<path fill="#7862A9" d="M342.7,513.8c0,0,34.6,264.1,330.2,256.4C672.9,770.3,385,837,342.7,513.8z"/>
	<path fill="#7862A9" d="M747.7,318.5c0,0,76.1-108.8,40.3-363.4C788-44.9,849.4,217.5,747.7,318.5z"/>
	<path fill="#7862A9" d="M722.8,88.1c0,0-30.7-291.6-353.2-198.2C369.6-110.1,643.1-170,722.8,88.1z"/>
	<path fill="#7862A9" d="M481.4-2.6c0,0-196.3-106.2-296.1,72.9C185.3,70.3,263.3-141.3,481.4-2.6z"/>
	<path fill="#6BB5E6" d="M534.9,428.7c-5.3,4.2-10.6,8.5-16.6,11.5c-6.6,3.3-13.9,5-21.1,6.5c-10.5,2.2-21,4-31.6,5.5
		c17.6-3.5,34.5-11.1,48.8-22c-20.9,4.7-42.2,7.8-63.6,9.2c8-2.5,15.8-5.8,23.2-9.8c-52.8,2.5-101.5,28.2-145.8,57
		c-3.5,2.3-7.2,4.7-11.4,5.2c13.3-10.3,26.6-20.6,39.9-30.9c9.1-7,18.3-14.2,28.9-18.7c7-3,14.4-4.9,21.7-6.7
		c32.6-8.1,65.2-16.2,97.8-24.3c4.5-1.1,9-2.2,13.5-2.9c10.2-1.5,21.2-0.8,29.9-6.3c-18.7,10.8-39,18.9-60,23.8
		c15.2-0.1,30.4-3.2,44.5-8.9c8.6-3.5,17.2-8.1,26.5-7.9C551.3,415.5,543.1,422.1,534.9,428.7z"/>
	<path fill="#6BB5E6" d="M303.6,444.5c17.7-15.4,36.1-31.1,58.5-38.2c18.1-5.8,37.6-5.5,56.2-9.4c21.3-4.5,42.2-14.6,63.9-12.2
		c-6.2,9.4-17,15.6-28.3,16c29.7-0.8,59.2-6.2,87.3-16c-19.6,3.8-39.6,6-59.5,6.7c11.3-4.9,22.8-9.3,34.4-13.2
		c-42.9-5-86,5-128.1,14.9c-19.2,4.5-38.7,9.2-55.5,19.5c-26.3,16.2-42.6,44.1-57.9,70.9c22.8-33.4,59.2-55.1,96.7-70.2
		C346.1,417.5,318.8,424,303.6,444.5z"/>
	<path fill="#29478F" d="M551,312.4c0.1-0.9,0.2-1.8,0.4-2.8c-4.9,4.9-13.3,1.5-18.4-3.2c-11.8-10.8-17.8-26.3-24.9-40.7
		c-7.7-15.7-17.4-30.9-31.3-41.6c-12.6-9.8-28-15.3-43.1-20.6c-15.3-5.4-32.1-10.8-47.3-5.1c11.7-0.3,23,3.5,34.1,7.2
		c12.1,4.1,24.3,8.2,35.5,14.2c19.5,10.4,35.9,26.5,46.6,45.8c-17.4-16.5-39.7-27.9-63.3-32.3c14.9,2.7,27.4,12.7,39.1,22.3
		c10.8,9,21.8,18.1,30,29.5c5.5,7.7,9.7,16.4,16.7,22.8C532.1,314.4,543.2,317.7,551,312.4z"/>
	<path fill="#29478F" d="M535.9,330.9c-16.1-2.2-26.3-17.7-36.6-30.2c-22.3-27.1-54.9-46.1-89.8-50.4c30.1,12,57.7,30,80.9,52.6
		c-47.8-30.6-106.4-43.6-162.7-36.3c-1.9,0.2-4.4,1.7-3.4,3.3c9-5.2,20.2-4.4,30.5-3c27.3,3.7,54.2,10.7,79.8,20.7
		c7.4,2.9,14.8,6,22.6,7.6c5.2,1,10.6,1.4,15.7,2.8c8.1,2.3,15,7.3,21.8,12.2c-13.6,0.4-26.1-8.7-39.7-8.8
		c-5.6-0.1-11.1,1.4-16.7,1.9c-7.5,0.6-15.1-0.7-22.6-1.5c-16.9-1.9-34-1.5-50.7,1c8.5-2.4,17.5-1.1,26.2,0.3
		c29.3,4.5,58.6,9,87.9,13.5c6.7,1,13.5,2.1,19.9,4.6c8.3,3.2,15.6,8.7,23.8,12.2c9.7,4.1,20.7,5.2,31,3.1
		c-15.8-2.5-31.2-7.8-45.2-15.5"/>
	<path fill="#F5D7DB" d="M521,349.4c-21.5-4.4-43.2-7.8-65-10.4c-23-2.7-47.3-4.1-68.4,5.3c16.7-2.3,33.9-1.2,50.1,3.4
		c-20.2,1.9-40.3,3.8-60.5,5.8c-8.9,0.9-17.8,1.7-26.6,3.4c-11.9,2.3-23.5,6.2-34.4,11.6c23.2-7.9,48-11.2,72.5-9.6
		c5.2,0.3,10.5,0.9,15.7,0.8c6.3-0.1,12.6-1.2,18.9-2.2c13.5-2.3,27-4.5,40.5-6.8c-8.9-1.8-17.9-3.6-26.8-5.3
		c19.9-0.3,39.8-0.6,59.6,1.2C510.5,347.8,508,355.2,521,349.4z"/>
	<path fill="#7892D5" d="M488.6,202.7c9.8,2.8,19.1,6.8,27.8,12.1c7.2,4.3,14.2,9.9,17,17.8c-3.9-24.6-18-47.4-38.3-61.9
		c11.6,13.5,21.5,28.5,29.3,44.5c-17.7-25.3-39.8-50.6-69.8-58c21.7,12.6,40.5,30,54.8,50.6c-10.7-4-21.4-7.9-32.2-11.7
		c-19.3-6.9-40.5-13.4-59.9-6.8c16.5,4.5,33,9.1,49.5,13.6c14.5,4,29.2,8.1,41.7,16.3c-8.9-1.5-17.9-2.3-27-2.6
		c5.4-2.1,11.4,0.9,16.4,4c12.1,7.6,23.5,16.2,34.1,25.9C523.6,227.3,507.8,211.4,488.6,202.7z"/>
	<path fill="#F9F1F9" d="M466.2,465.4c0.1,6.7-4.6,12.7-10.1,16.6c-5.5,3.9-11.9,6.4-17.4,10.2c-12.5,8.5-20,23.9-19.1,39
		c3.3-16.1,18.8-26.3,32.9-34.6c-6.8,6.8-10.5,16.6-10,26.2c3.7-8.1,8.3-15.8,13.6-23c-2.1,13.7,8.5,26,10.7,39.6
		c0.7,4.6,0.5,9.4,1.8,13.8c2,6.9,7.4,12.1,12.6,17c12.3,11.3,25.4,22.2,40.8,28.5c3,1.2,6,2.3,8.9,3.7c5.8,2.9,10.8,7.5,14.3,12.9
		c-10.3-9.9-20.6-19.9-32.5-27.7c-4.9-3.2-10-6.1-14.2-10.1c-5-4.8-8.4-10.9-11.5-17c-6.5-12.5-12.2-25.4-17.1-38.6
		c7.3,9.4,14.7,18.8,22,28.2c-6.8-15.6-13.6-31.1-20.4-46.7c12.6,16.2,26.5,31.4,41.5,45.4c-3.8-2.3-6.6-5.9-9.4-9.4
		c-13.2-16.8-27.1-35.8-25.3-57c-9.7,10.1-12.6,26.2-7,39c-10.8-22.2-4.9-51.3,13.7-67.6c-11.4,7.3-20.7,18-26.3,30.3"/>
	<path fill="#FFFEF9" d="M520.9,123.3c-9.9-4.2-19.8-8.4-29.7-12.6c-9.1-3.9-18.3-7.8-28.1-9.5c-14.7-2.6-29.7-0.2-44.4,2.2
		c20.7-4.2,41.3,6.2,59.9,16.3c-38.5-9.7-80.1,6.1-110,32.4c10.6-2.4,20.2-7.9,30.2-12.3c27.2-12,57.9-15.7,87.2-10.6
		c-28.8,5.8-54.4,21.8-79.3,37.5c14.6-9.5,30.4-17,47-22.3c9.5-3.1,19.4-5.4,29.4-4.8c10,0.6,20.1,4.5,26.5,12.2
		c-2.7-10.2-9.7-19.2-19-24.2c-9.3-5-20.7-5.9-30.7-2.4c16.3-7,36.1-5.4,51,4.2c-9.7-8.4-23-11-35.6-13.4c9.3,2,18.6,3.9,27.9,5.9
		c6.5,1.4,13.1,2.8,19.1,5.7c8.4,4.1,15.4,11.1,19.4,19.6c-3.9-15-19-23.8-32.7-30.9"/>
	<path fill="#FFFEF9" d="M568.7,189.7c-0.6,0.4-1.3-0.6-0.8-1.1c4.8-13.3,5-28,1.7-41.8c-3.3-13.7-10-26.5-18.6-37.8
		c8.9,14.3,13.5,31.3,13,48.2c-4.9-24.8-16.7-48.2-33.7-66.9c-17-18.7-39.2-32.7-63.4-39.9c18.5,9.4,36.3,20.6,50.8,35.4
		c14.6,14.8,25.8,33.3,29.7,53.6c-8.6-22.4-29-37.8-48.4-52c-6.5-4.7-13.1-9.5-20.2-13.3c-6.3-3.4-13-6.1-19.9-7.9
		c10,5.2,20.1,10.4,29.3,16.9c19.3,13.6,34.2,32.3,48.8,50.8C514.5,106.7,483.8,86.3,450,76c9,2.5,16.9,7.9,24.6,13.3
		c9.4,6.6,19,13.2,26.7,21.7c2.2,2.4,4.3,5,6.9,7.1c3,2.3,6.5,3.9,9.8,5.7c13.2,7.4,22.6,19.9,31,32.4c8,12,15.5,24.6,19.9,38.3
		C567.6,185.7,570,198.5,568.7,189.7z"/>
	<path fill="#9A5AA7" d="M185.5,185.2c35.9-44.5,81.2-81.4,132.2-107.4c-55.3,37.9-101.4,89.2-133.2,148.2
		c19.7-24.6,37.9-50.6,60.3-72.8c52.2-51.6,124.5-78.8,197.1-89.4c-22.4-14.3-48.8-20.8-75.1-24.6c-10.7-1.6-21.5-2.7-32.2-2.1
		c-11.7,0.6-23.3,3.3-34.7,6c-35.6,8.3-71.8,16.8-103.2,35.4C246,57.4,300.6,48.3,354.2,52.4c-15.9,0.9-31.3,6-46.1,12
		C253,86.8,200.8,127.7,185.5,185.2z"/>
	<path fill="#9A5AA7" d="M581.6-81c-43.8-35.5-92.3-72.3-148.6-74c51.3,16.1,90.5,56.6,127.5,95.7c-74.2-56.4-165.5-89.8-258.6-94.6
		c23.8,4.8,47.1,11.6,69.7,20.4c14.5,5.6,28.7,12.1,42.9,18.5c17.1,7.8,34.2,15.5,51.4,23.3c41.4,18.7,83.9,38.3,114.8,71.6
		c-70.7-41.5-150.5-65-230.1-84.4c37.7,8.1,74.3,20.8,108.8,37.9c14,6.9,27.7,14.6,41.3,22.3c63,35.8,128.3,78.1,157,144.7
		c9.8-2.9,15.7-13.3,16.6-23.5S672.1,56.7,669,47c-7.9-24.9-16.1-50.2-30.7-71.8C623.3-47,602.3-64.2,581.6-81z"/>
	<path fill="#9A5AA7" d="M757.1,158.6c-14.2,42.6-34.7,83.1-45.6,126.6c-3.2,12.7-5.5,25.6-7.8,38.5c-3.2,17.8-6.4,35.6-9.6,53.4
		c72.7-75.3,132.2-163.2,175.1-258.6c-19.7,34.7-42.8,67.4-65.9,100c-26.2,37-52.6,74.3-84.8,106.2c49-64.1,74.5-142.6,97.1-220
		c9.4-32.4,18.5-64.9,24.5-98.1c4-22.5,6.7-45.2,7.8-68.1c4.7,41.8-5.3,83.9-19.1,123.6c-20.2,58.4-48.6,114-84,164.7
		c35.4-77.2,37.9-165.1,33.6-249.9C783.8,38.1,776.5,100.4,757.1,158.6z"/>
	<path fill="#9A5AA7" d="M669.4,574.2c76-33.6,137.2-94,187.3-160.3c31.7-41.9,60-87.6,73.1-138.5c-24.9,38.5-49.8,77-74.7,115.4
		c-7.7,11.8-15.4,23.7-24.7,34.3c-9.4,10.6-20.3,19.7-31.1,28.8c-43.8,36.7-87.6,73.3-131.3,110c-5.9,5-11.9,10-18.7,13.7
		c-28.6,15.7-64.2,5.7-94.6-6.3c60.7,31,134.4,35.4,198.3,11.8c35.6-13.2,67.6-34.3,98.3-56.7C792.1,560,725.4,580,657.7,584.6
		c71.3-9.4,130.8-57.4,183.6-106.2c39.8-36.9,79.2-77.1,98.5-127.8C873.7,449.1,778.6,527.8,669.4,574.2z"/>
	<path fill="#9A5AA7" d="M738.7,750.6c-73.3,3.3-144.4-23.3-212-51.6c110.3,34.1,236.2,12.9,329.2-55.4
		c-20.7,14.1-45.4,21-69.6,27.3c-47.1,12.2-94.8,23-143.3,25.6c-48.5,2.6-98.2-3.3-142.5-23.5c47.7,12.6,97.6,16.7,146.7,12
		c-14.5-1.5-29-3.1-43.4-4.9c-29.8-3.6-59.7-7.8-88.2-17.2c-28.5-9.4-55.7-24.5-75.6-46.9c-10.8-12.2-19.4-26.5-32-36.8
		c28.5,60.3,77.3,110.8,136.5,141.5S673,762,738.7,750.6z"/>
	<path fill="#E2C8EC" d="M558.9,649.8c-45.3-21-81.6-60.6-98.7-107.6c19.4,19.4,40.4,37.1,62.7,53c10.6,7.6,22.6,15.1,35.7,14.2
		c-23.4-16.2-41.8-39.4-52.1-66c7.3,11,19.2,18.1,31.1,23.7c38.7,18.4,82.8,25.4,125.3,20c-30,10.2-63.4,10.3-93.5,0.2
		c102.1,36.9,220,27.2,314.7-26c-64.3,42.1-143.5,54.8-220.3,57c-11.3,0.3-22.7,0.4-34-1c-32.8-4.3-62.2-21.8-90.6-38.9
		c61.8,56.5,151.6,80.7,233.5,63.1c-42.7,9.7-87.7,13.6-129.9,2.3c-36.7-9.8-69.5-30.5-101.5-51c35.8,43.8,92.9,69.4,149.4,66.9
		c-76,7.6-154.9-25.1-203.1-84.4C503.3,606.5,530.7,629.7,558.9,649.8z"/>
	<path fill="#E2C8EC" d="M635.8,458c57.6-35.1,103.3-89.4,128.1-152.1c-8.4,51.2-35.1,99.2-74.2,133.3
		c100.5-77.6,163.5-197.1,189-321.5c-6.6,62.8-23.9,124.9-54,180.4s-73.2,104.5-126.4,138.5c83.5-33.3,153.4-99.6,191-181.3
		c-20.9,54.3-60,100.1-105.5,136.4c-45.5,36.3-97.3,63.7-149.6,89.1c56.2,6.3,109.2-23.9,157.7-53.1c-32,20.9-64,41.8-96,62.7
		c-32.7,21.3-67.2,43.3-106.2,46.1c32.8-13.4,65.6-28.1,93.2-50.5c-28.2,8.6-57.8,12.3-87.2,11c30.2-13,55.5-36.9,70.3-66.2"/>
	<circle fill="#9A5AA7" cx="175.7" cy="129.8" r="12.2"/>
	<circle fill="#9A5AA7" cx="169.2" cy="214" r="12.1"/>
	<circle fill="#9A5AA7" cx="947.1" cy="253.9" r="7.3"/>
	<circle fill="#9A5AA7" cx="690.1" cy="-89" r="8.3"/>
	<circle fill="#9A5AA7" cx="662.1" cy="-155.1" r="10.1"/>
	<circle fill="#9A5AA7" cx="631.9" cy="-171.6" r="6.4"/>
	<circle fill="#9A5AA7" cx="805.9" cy="644.8" r="6.4"/>
	<circle fill="#9A5AA7" cx="707.4" cy="737" r="9"/>
	<circle fill="#9A5AA7" cx="788.4" cy="727.6" r="11.1"/>
	<ellipse fill="#9A5AA7" cx="785" cy="745.9" rx="3.4" ry="0"/>
	<circle fill="#9A5AA7" cx="836" cy="681.3" r="13.4"/>
	<circle fill="#9A5AA7" cx="888.7" cy="619.8" r="4.5"/>
	<circle fill="#9A5AA7" cx="939.8" cy="599.6" r="7.2"/>
	<circle fill="#9A5AA7" cx="888.8" cy="665.7" r="4.7"/>
	<circle fill="#9A5AA7" cx="939.8" cy="549.5" r="7.2"/>
	<circle fill="#9A5AA7" cx="996.1" cy="476.8" r="5.9"/>
	<ellipse fill="#9A5AA7" cx="1002.1" cy="525.2" rx="0" ry="0.6"/>
	<ellipse fill="#9A5AA7" cx="1025.4" cy="419.6" rx="1.9" ry="0"/>
	<circle fill="#9A5AA7" cx="111.7" cy="288.1" r="5.8"/>
	<circle fill="#9A5AA7" cx="132.1" cy="362.6" r="4.4"/>
	<circle fill="#9A5AA7" cx="144.3" cy="294" r="7.8"/>
	<ellipse fill="#9A5AA7" cx="129.9" cy="202" rx="2.2" ry="0"/>
	<circle fill="#9A5AA7" cx="294.5" cy="-121.2" r="7.3"/>
	<circle fill="#9A5AA7" cx="252.4" cy="-160.1" r="5"/>
	<circle fill="#9A5AA7" cx="370.2" cy="-178.6" r="7"/>
	<circle fill="#9A5AA7" cx="328.3" cy="-196.7" r="4.3"/>
	<circle fill="#9A5AA7" cx="147.8" cy="-112.9" r="15.7"/>
	<circle fill="#9A5AA7" cx="245.7" cy="558.8" r="9.3"/>
	<circle fill="#9A5AA7" cx="283" cy="618.4" r="11.5"/>
	<circle fill="#9A5AA7" cx="280.9" cy="676.6" r="6.3"/>
	<circle fill="#9A5AA7" cx="320.3" cy="549.5" r="7.2"/>
	<circle fill="#9A5AA7" cx="331.8" cy="611.1" r="4.2"/>
	<circle fill="#9A5AA7" cx="342.8" cy="688.1" r="6.7"/>
	<circle fill="#9A5AA7" cx="359.4" cy="765.2" r="3.8"/>
	<circle fill="#9A5AA7" cx="404.1" cy="800.9" r="3.8"/>
	<circle fill="#9A5AA7" cx="473.9" cy="802.9" r="1.9"/>
	<circle fill="#9A5AA7" cx="535.3" cy="816.3" r="3.8"/>
	<circle fill="#9A5AA7" cx="621" cy="820.8" r="4.5"/>
	<circle fill="#9A5AA7" cx="1008.3" cy="413.1" r="6.2"/>
	<circle fill="#9A5AA7" cx="1020" cy="324" r="5.4"/>
	<rect x="954.4" y="194.5" fill="#9A5AA7" width="0" height="0"/>
	<circle fill="#9A5AA7" cx="950.7" cy="133.5" r="3.7"/>
	<circle fill="#9A5AA7" cx="937.7" cy="83" r="5.1"/>
	<circle fill="#9A5AA7" cx="581.4" cy="-189" r="3.4"/>
	<circle fill="#9A5AA7" cx="187.1" cy="-108.1" r="5.8"/>
	<circle fill="#9A5AA7" cx="122.6" cy="-44.6" r="5.1"/>
	<circle fill="#9A5AA7" cx="20.8" cy="-39" r="5.6"/>
	<circle fill="#9A5AA7" cx="21.8" cy="43.7" r="6.7"/>
	<circle fill="#9A5AA7" cx="4.6" cy="91.7" r="3.6"/>
	<ellipse fill="#9A5AA7" cx="127.7" cy="416.2" rx="0" ry="3.1"/>
	<circle fill="#9A5AA7" cx="111.7" cy="476.7" r="5.8"/>
	<ellipse fill="#9A5AA7" cx="990.2" cy="13.4" rx="0" ry="3.1"/>
	<circle fill="#9A5AA7" cx="972.3" cy="105.1" r="5.1"/>
	<ellipse fill="#9A5AA7" cx="937.7" cy="-20.3" rx="5.1" ry="0"/>
	<circle fill="#9A5AA7" cx="937.8" cy="-67.8" r="12.9"/>
	<circle fill="#9A5AA7" cx="963.3" cy="-0.1" r="9"/>
	<circle fill="#9A5AA7" cx="988.4" cy="47" r="3.3"/>
	<circle fill="#9A5AA7" cx="1043.8" cy="250.2" r="3.7"/>
	<circle fill="#9A5AA7" cx="1051.8" cy="162.2" r="4.4"/>
	<circle fill="#FFFFFF" cx="545.3" cy="269.1" r="6.3"/>
	<circle fill="#FFFFFF" cx="52.2" cy="362.6" r="6.3"/>
	<circle fill="#FFFFFF" cx="422.5" cy="201.9" r="6.3"/>
	<circle fill="#FFFFFF" cx="541.2" cy="329.4" r="6.3"/>
	<circle fill="#FFFFFF" cx="386.4" cy="337.5" r="6.3"/>
	<circle fill="#FFFFFF" cx="301.9" cy="318.6" r="6.3"/>
	<circle fill="#FFFFFF" cx="571.8" cy="370.4" r="6.3"/>
	<circle fill="#FFFFFF" cx="562" cy="383.2" r="6.3"/>
	<circle fill="#FFFFFF" cx="428.8" cy="286.2" r="6.3"/>
	<circle fill="#FFFFFF" cx="468.8" cy="383.2" r="6.3"/>
	<circle fill="#FFFFFF" cx="390.1" cy="476.7" r="6.3"/>
	<circle fill="#FFFFFF" cx="357.5" cy="395.8" r="6.3"/>
	<circle fill="#FFFFFF" cx="222.4" cy="482.4" r="6.3"/>
	<circle fill="#FFFFFF" cx="488.2" cy="343.8" r="6.3"/>
	<circle fill="#FFFFFF" cx="58.5" cy="241.8" r="6.3"/>
	<circle fill="#FFFFFF" cx="200.9" cy="395.8" r="6.3"/>
	<circle fill="#FFFFFF" cx="187.9" cy="294.2" r="6.3"/>
	<circle fill="#FFFFFF" cx="498.1" cy="260.2" r="6.3"/>
	<circle fill="#FFFFFF" cx="301.9" cy="208.3" r="6.3"/>
	<circle fill="#FFFFFF" cx="562" cy="294.2" r="4.8"/>
	<circle fill="#FFFFFF" cx="512.3" cy="378.7" r="4.8"/>
	<circle fill="#FFFFFF" cx="308.2" cy="246.6" r="4.8"/>
	<circle fill="#FFFFFF" cx="555" cy="233" r="2.6"/>
	<circle fill="#FFFFFF" cx="476.4" cy="304.9" r="2.6"/>
	<circle fill="#FFFFFF" cx="565.5" cy="343.8" r="2.6"/>
	<circle fill="#FFFFFF" cx="685.6" cy="208.2" r="2.6"/>
	<circle fill="#FFFFFF" cx="402.9" cy="233" r="2.6"/>
	<circle fill="#FFFFFF" cx="261.7" cy="284.9" r="2.6"/>
	<circle fill="#FFFFFF" cx="566.8" cy="318.6" r="2.6"/>
	<circle fill="#FFFFFF" cx="541.2" cy="370.4" r="2.6"/>
	<circle fill="#FFFFFF" cx="438.2" cy="385.8" r="2.6"/>
	<circle fill="#FFFFFF" cx="538.6" cy="419.2" r="2.6"/>
	<circle fill="#FFFFFF" cx="402.9" cy="312.2" r="2.6"/>
	<circle fill="#FFFFFF" cx="543.8" cy="304.8" r="2.6"/>
	<circle fill="#FFFFFF" cx="579.9" cy="329.4" r="2.6"/>
	<circle fill="#FFFFFF" cx="577.3" cy="352.7" r="2.6"/>
	<circle fill="#FFFFFF" cx="541.6" cy="391" r="2.6"/>
	<circle fill="#FFFFFF" cx="298.2" cy="282.3" r="2.6"/>
	<circle fill="#F5E8F2" cx="416.8" cy="7.5" r="5.9"/>
	<circle fill="#E2C8EC" cx="460.2" cy="606.8" r="5.9"/>
	<circle fill="#E2C8EC" cx="713.3" cy="579.2" r="5.9"/>
	<circle fill="#E2C8EC" cx="713.3" cy="279.7" r="5.9"/>
	<circle fill="#E2C8EC" cx="666.3" cy="573.2" r="5.9"/>
	<circle fill="#7862A9" cx="784.2" cy="-80.9" r="7.1"/>
	<circle fill="#7862A9" cx="764.7" cy="-117.6" r="17"/>
	<circle fill="#7862A9" cx="731.1" cy="-177.3" r="8.3"/>
	<circle fill="#7862A9" cx="799.5" cy="-149.9" r="15.3"/>
	<circle fill="#7862A9" cx="831.6" cy="-58.8" r="9"/>
	<circle fill="#7862A9" cx="818.7" cy="-11.2" r="3.9"/>
	<circle fill="#7862A9" cx="838" cy="116.1" r="6.4"/>
	<circle fill="#7862A9" cx="812.6" cy="413" r="6.2"/>
	<circle fill="#7862A9" cx="625.8" cy="800" r="9.2"/>
	<circle fill="#7862A9" cx="696.5" cy="808" r="10.9"/>
	<ellipse fill="#7862A9" cx="761.4" cy="776" rx="3.3" ry="0"/>
	<circle fill="#7862A9" cx="821.9" cy="758.2" r="3.1"/>
	<circle fill="#7862A9" cx="763.5" cy="770.6" r="5.4"/>
	<circle fill="#7862A9" cx="404.5" cy="719.2" r="14.4"/>
	<circle fill="#7862A9" cx="237.2" cy="363.8" r="8.5"/>
	<circle fill="#7862A9" cx="225.4" cy="223.8" r="9.2"/>
	<circle fill="#7862A9" cx="243.5" cy="36.8" r="8.9"/>
	<circle fill="#7862A9" cx="127" cy="92.6" r="9.5"/>
	<circle fill="#7862A9" cx="242.6" cy="-47" r="8"/>
	<circle fill="#7862A9" cx="502" cy="-142.3" r="7.6"/>
	<circle fill="#7862A9" cx="713.2" cy="-39.1" r="5.8"/>
	<circle fill="#7862A9" cx="596.2" cy="-122.1" r="6.5"/>
	<circle fill="#7862A9" cx="466.8" cy="-169" r="9.6"/>
	<circle fill="#7862A9" cx="330" cy="-102.1" r="6"/>
	<circle fill="#7862A9" cx="279.3" cy="-65.9" r="7.9"/>
	<circle fill="#7862A9" cx="95.3" cy="89.2" r="6.1"/>
	<circle fill="#7862A9" cx="909.3" cy="171.3" r="4.7"/>
	<circle fill="#7862A9" cx="884.7" cy="97.9" r="8.7"/>
	<circle fill="#7862A9" cx="884.6" cy="63.5" r="8.6"/>
	<circle fill="#7862A9" cx="904.4" cy="39.1" r="11.3"/>
	<circle fill="#F9EFBE" cx="626.5" cy="363.7" r="5.4"/>
	<circle fill="#F9EFBE" cx="637.2" cy="238.3" r="5.3"/>
	<circle fill="#F9EFBE" cx="393.3" cy="85" r="7"/>
	<circle fill="#F9EFBE" cx="364" cy="185.6" r="4.7"/>
	<ellipse fill="#F9EFBE" cx="422.5" cy="476.1" rx="6.3" ry="0"/>
	<circle fill="#F9EFBE" cx="474.8" cy="561.7" r="12.2"/>
	<circle fill="#F9EFBE" cx="560.2" cy="551.1" r="5.2"/>
	<circle fill="#F9EFBE" cx="697.8" cy="472.1" r="9.6"/>
	<circle fill="#F9EFBE" cx="747.1" cy="379.9" r="7.7"/>
	<circle fill="#F9EFBE" cx="731.1" cy="189.3" r="8.3"/>
	<circle fill="#F9EFBE" cx="663.1" cy="93.4" r="5.3"/>
	<circle fill="#F9EFBE" cx="572.8" cy="47.5" r="10.8"/>
	<circle fill="#F9EFBE" cx="506" cy="34.8" r="7.9"/>
	<circle fill="#F9EFBE" cx="342" cy="44.7" r="7.5"/>
	<circle fill="#F9EFBE" cx="261.4" cy="140" r="6.5"/>
	<circle fill="#F9EFBE" cx="259.5" cy="294.2" r="4.8"/>
	<circle fill="#F9EFBE" cx="274.4" cy="428.3" r="6.5"/>
	<circle fill="#F9EFBE" cx="333.7" cy="567.8" r="6.1"/>
	<circle fill="#F9EFBE" cx="390.1" cy="644.7" r="6.3"/>
	<circle fill="#F9EFBE" cx="476.6" cy="705.2" r="10.4"/>
	<circle fill="#F9EFBE" cx="634.3" cy="643.3" r="17.7"/>
	<circle fill="#F9EFBE" cx="747.1" cy="551.1" r="7.7"/>
	<circle fill="#F9EFBE" cx="809.5" cy="409.9" r="3.1"/>
	<circle fill="#F9EFBE" cx="833.9" cy="270" r="16.2"/>
	<circle fill="#F9EFBE" cx="765.4" cy="150.3" r="8.3"/>
	<circle fill="#F9EFBE" cx="720.8" cy="39.2" r="4.5"/>
	<circle fill="#F9EFBE" cx="609.6" cy="-10.5" r="6.9"/>
	<circle fill="#F9EFBE" cx="436.7" cy="-23.1" r="7.9"/>
	<circle fill="#F9EFBE" cx="276.2" cy="5.6" r="4.7"/>
</g>
</svg>
