<?xml version="1.0" encoding="utf-8"?>
<!-- Generator: Adobe Illustrator 18.1.0, SVG Export Plug-In . SVG Version: 6.00 Build 0)  -->
<!DOCTYPE svg PUBLIC "-//W3C//DTD SVG 1.1//EN" "http://www.w3.org/Graphics/SVG/1.1/DTD/svg11.dtd">
<svg version="1.1" id="Layer_1" xmlns="http://www.w3.org/2000/svg" xmlns:xlink="http://www.w3.org/1999/xlink" x="0px" y="0px"
	 viewBox="50 -180 856 1004" enable-background="new 50 -180 856 1004" xml:space="preserve">
<g>
	<path fill="#9A5AA7" d="M365.9,398.8c0,0-156.9-289.7-17-543.9c0,0-84.2,264.4,20,405.3c0,0-86.6-292.7,177.9-364.3
		c0,0-96.9,51.3-92.3,208.2c0,0,259.5-179.1,331.2,138.2c0,0-40.8-82.1-145-104.1c0,0,203,133.1,97.2,395.8
		c0,0,41.9-181.1-59.7-296.9c0,0,105.8,395.8-177.5,496.5c0,0,109.2-63.1,95.6-237.2c0,0-141.6,223.5-351.5,13.6
		c0,0,131.4,91.4,221.4,1.6C466.3,511.6,396.6,469.7,365.9,398.8z"/>
	<path fill="#E2C8EC" d="M667.3,371c14.9,109.7-24.5,225.5-103.2,303.3c13.6-39.2,24-79.4,31.3-120.3c-12.7,39.8-57.7,58-97.6,70.3
		c27-21.8,47.3-51.9,57.2-85.1c-21.3,0.6-42.4,6.6-60.8,17.1c-10,5.7-19.5,12.9-30.8,15.3c-12.5,2.7-25.6-0.8-37.7-5
		c-58.7-20.6-110.5-60.2-145.8-111.4c28.3,24.3,62.7,42.1,99.6,47.6c32.8,4.9,67.6,0.2,98.4,12.7c-40-21.4-80.3-43.1-114.2-73.2
		c-33.8-30.2-61-70.1-67.1-115c10.5,32.3,39.8,54.6,69.3,71.5c29.5,16.8,61.6,30.9,84.9,55.7c-35.2-59.1-68.4-120.5-85.3-187.2
		c-16.9-66.7-16.4-139.9,13.9-201.7c-4.2,54.4,3.9,109.7,23.6,160.6c-8.7-32.2-3.7-67,8.6-98s31.5-58.8,51.7-85.3
		c42.5-55.7,93.5-109.6,160.3-130.9c-54.7,53.8-104.2,113-147.5,176.4C522.7,48.1,574,11.4,632.8-6.4s126.6-14.5,177.1,20.6
		C749.6,22.1,690,35,631.8,53c-11.6,3.6-24.4,8.5-29.4,19.5c11.9,7.6,27.3,4.6,41.4,5c34.7,0.9,65.8,25,83.1,55.1
		c17.3,30.1,22.7,65.6,24.5,100.3c-18.7-49.7-61.5-89.6-112.3-104.9c53.8,40.7,87.3,104.9,97.7,171.5
		c10.4,66.6-0.9,135.4-24.8,198.5c1.5-36.6,2.1-73.8-7.1-109.2c-9.2-35.4-29.4-69.4-61-87.9c20.1,42.7,27.5,91.4,20.9,138.2"/>
	<path fill="#CFA3C4" d="M654.5,324.4c17,108.1-7.2,222.2-66.8,314C615.8,585,627.4,523,620.6,463c-8.4,62-44,119.9-95.6,155.3
		c24.3-27.1,39.8-62,43.7-98.1c-40.2,42.4-100.9,64.4-158.9,57.5c40.8-12,80.9-26.4,120.1-43.1c-23,10.3-49.6,0.2-72.7-9.9
		c-19.5-8.5-38.9-16.9-58.4-25.4c26.5,1.8,53.1,3.5,79.6,5.3C412.6,466.4,369.4,392,369,315.9c12.6,31.6,28.1,66.1,59.4,79.4
		c-39.8-83.2-45-182.3-14.1-269.2S511.7-34.4,595.1-73.8c-54.4,46.7-94,110.3-111.8,179.8C530.8,46.3,601.9,5.9,677.5-4.4
		c15.3-2.1,31.6-2.8,45.4,4.1C666.5,5.6,612.5,32,573.4,73c30.8-4,62.9-2.8,91.5,9.2s53,36.4,59.8,66.6c-9.2-19.7-32.3-28.6-53.7-32
		c-21.5-3.4-44.1-3.4-63.5-13.2c70.1,25.6,119.1,100,114.8,174.5c-17.1-53.3-65.6-95.1-120.8-104.2c19.4,27.1,49,45.2,70.1,70.9
		c31,37.7,41.3,87.7,50.6,135.6c-12.1-50.1-53.2-87.2-92.2-121c58,49.5,82.3,135.1,58.8,207.6C691.4,417.6,679.4,367.4,654.5,324.4z
		"/>
	<ellipse fill="#111119" cx="534.5" cy="310.5" rx="72.1" ry="172.3"/>
	<path fill="#ACDBE4" d="M469.9,286.6c2.1,2.6,4.1,5.1,6.2,7.7c-3.2-7.9,4-16.7,2.2-25c-0.4-1.7-1.1-3.4-1.3-5.1
		c-0.2-2,0.2-4,0.6-5.9c3.1-14,6.3-27.9,9.4-41.9c1.8-8,3.6-16,6-23.8c3-9.8,7-19.4,11.9-28.5c4.4-8.2,9.7-16.2,17-22.1
		c-15.7,11.8-31.9,24.1-41.5,41.2c-6.7,11.8-9.9,25.1-12.9,38.3c-4.6,19.7-9.1,39.5-11.1,59.6c-1.5,15.3-1.7,30.8-1.8,46.2
		c-0.1,13.4-0.2,26.8,1.6,40.1c2.3,17,7.7,33.4,13.1,49.6c2.8,8.4,5.5,16.7,8.3,25.1c0.8,2.3,2.2,5.1,4.6,4.8
		c-1.1-2.4-1.1-5.3,0-7.7c3.3,9.4,9.7,17.7,17.9,23.4c-2.4-18.5-13.9-34.4-20.2-51.9c-6.7-18.6-7.3-38.7-7.9-58.4
		C471.2,330.3,470.5,308.5,469.9,286.6z"/>
	<path fill="none" d="M609.4,269.1c1-5.9,2.1-11.9,3.1-17.8"/>
	<path fill="#83CBF3" d="M495.3,462c8.9,12.1,21.5,23.2,36.6,23.5c8.8,0.1,17.3-3.6,26.2-4.1c10.8-0.7,21.3,3.3,31.3,7.2
		c-12.9-6.7-25.7-13.4-38.6-20.1c8.8,2.8,18.6,2.9,27.4,0.1c-4.3,0-6.1-5.9-4.3-9.7s5.6-6.2,8.5-9.3c4.7-5,6.9-12.1,6.1-18.8
		c20.8,0,41.5,2.1,61.8,6.4c-19.5-4-37.2-16.1-47.9-32.8c20.7-1.8,41.4-2.3,62.1-1.4c-17.9,0.6-37-5.7-47.1-20.3
		c-2.8-4.1-4.9-9.3-3.1-13.9c1.4-3.7,5.2-7.1,4-10.9c-0.7-2.2-3-3.6-4.4-5.5c-3.3-4.3-1.9-10.5,0.7-15.3s6.3-9.1,7.2-14.5
		c0.5-2.7,0.3-5.6,0-8.3c-0.9-9.8-1.8-19.6-3.9-29.3c-0.8-3.9-1.8-8.1,0-11.6c-1.6-2-2.3-6.7-1.2-9c0.6-1.2,1.5-2.3,1.8-3.7
		c0.6-3.6-4.4-5.9-5-9.6c-0.3-1.8,0.4-3.8-0.5-5.4c-0.6-0.9-1.6-1.5-2.4-2.2c-3-2.6-2.8-7.2-2.9-11.1c-0.1-6.2-1.4-12.3-2.7-18.3
		c-2-9.3-4.1-19-9.8-26.7c-1-1.3-2.1-2.6-2.8-4.1c-1.2-2.5-1.4-5.3-1.9-8c-0.7-3.2-2-6.2-3.3-9.1c-0.6-1.4-1.3-2.9-2.6-3.7
		c-1-0.6-2.3-0.8-3.3-1.5c-1-0.7-1.4-1.9-1.9-3c-1.6-3.9-3.1-7.9-4.7-11.8c-0.5,1-0.9,2-1.4,3c-1.5-5.5-1.3-12.9,0.6-18.3
		c-1.5,2.2-3,4.3-4.5,6.5c-0.2-6,3.4-11.4,7.1-16.1c7.2-9,15.4-17.2,24.6-24.2c-20,6.3-37.1,21.4-45.7,40.4
		c-1.3-3.8-0.8-8.2,1.3-11.7c-2.8,1.9-5.4,4-7.9,6.3c5.2-16.6,14.6-31.9,27-44c-18.3,11.1-33.2,27.5-42.4,46.7
		c0.2-10.3,3.9-20.4,10.3-28.5c-7.5,9.8-14.7,19.9-21.4,30.2c-2.3,3.5-4.6,7.3-4.6,11.4c0,3,1.2,5.8,2.4,8.5
		c4.5,10.3,9,20.6,13.5,30.9c2.5,5.8,5,11.6,6.2,17.7c1.1,5.4,1,11,0.6,16.6c-1.9,24.8-11.7,48.3-21.4,71.3
		c-1.3,3.2-2.7,6.3-4.6,9.2c-3.5,5.1-8.8,8.6-13.2,12.9c-5,4.9-9.1,10.7-13,16.4c-3.8,5.5-7.6,11.1-9.7,17.4
		c-2.1,6.3-2.1,13.6,1.4,19.3c9.2,14.8-2,33.2-1,50.6c0.9,15,7.3,29.6,17.9,40.4c4,4.1,8.8,8,10,13.6"/>
	<path fill="none" d="M656.9,378.7c0-0.9,0-1.7,0-2.6"/>
	<path fill="#2A519E" d="M519.6,273c14.2-40.7,22.5-83.5,24.8-126.5c6.2,10.3,8,22.8,7.4,34.8c-0.7,12-3.7,23.8-6.7,35.4
		c16.5-11.4,16.7-37,31.8-50.1c-7.6,23.7-15.2,47.5-22.8,71.2c9.7-10.1,18.5-21.1,26.3-32.7c-3.8,26.5-13.8,52.1-29,74.1
		c2.6,1.7,5.8-0.7,7.9-3c8.7-9.2,17.4-18.5,26.2-27.7c-6.2,23-19.3,44.1-37.2,59.9c7.7,1.5,14.7-4.5,22-7.4c9-3.5,19.7-1.9,27.3,4
		c-15.3,5.4-30.1,12.2-44.2,20.1c7.4-2.7,15.8-0.7,22.5,3.3c6.7,4,12.2,9.8,17.5,15.6c-18.4-8.9-41.6-6.9-58.2,5
		c19.8,3.2,39.3,7.9,58.4,13.9c0.5,0.2,1.1,0.3,1.5,0.7c1.6,1.5-0.3,4.1-2.2,5.2c-12.9,6.9-29.5-0.8-43.2,4.2
		c17,5.6,32.8,14.6,46.4,26.2c-17.9-2.9-35.6-7.6-52.6-13.8c13.8,12.1,28.7,23,44.5,32.4c-15,2.2-30.7,0-44.6-6.2
		c4.7,10.7,14,19.2,25,23c-5.4,3.9-13,3.7-19.1,1.1c-6.1-2.6-11.2-7.3-16-11.8c7.8,9.7,14.3,20.4,19.4,31.8
		c-12.2-4.8-23.5-12.1-32.9-21.3c2.6,14.5,11,27.8,22.8,36.5c-16.1-5.2-25.7-21-38.7-31.9c-4.5-3.8-9.6-7-13.6-11.4
		c-5-5.3-8.2-12.1-10.6-19c-9.9-27.9-7.5-61.2,11-84.3c3.1-3.9,6.7-7.5,9.3-11.8c4.2-7.1,5.5-15.5,8.3-23.3
		C511.9,278.5,510.6,279.9,519.6,273z"/>
	<path fill="#293A74" d="M472.7,329.6c0,0,60.1-69.1,61.9-111.3S526,156,526,156s39.2,52.5-1.7,117.3c0,0,37.5-54.6,40.5-78.5
		c0,0-14.9,70.8-51.6,112.6c0,0,43.1-36.7,55.5-82.7c0,0-5.1,63.1-69.1,107.1l72.1-60.1c0,0-40.5,61-74.6,72.5l88.3-46.9
		c0,0-46.1,47.8-93,56.3l82.3-20.5L494,360.4l76.4,4.3l-54.6,3.8c0,0,49.1,11.1,57.6,14.1c0,0-52.5-4.3-63.6-4.7
		c0,0,50.8,13.2,58.4,27.3c0,0-46.9-17.9-63.6-19.6s38.8,16.2,51.6,36.3c0,0-26-18.8-55.5-23.5c0,0,49.9,28.6,53.3,40.5
		c0,0-47.1-38-80.9-37.8c0,0,49.4,22,61.3,36.1c0,0-44.5-25.8-59.8-30.4c0,0-6.4-25-8.2-38.8C464.8,354.1,472.7,329.6,472.7,329.6z"
		/>
	<path fill="#F9EFBE" d="M445.9,350.1c-10.7-23.3-13.8-49.9-8.7-75c-11.7,19-15,43.1-8.8,64.6c-10.6-26.7-11.3-57.1-1.8-84.2
		c1.8-5.2,4-10.3,4.9-15.6c1.2-6.8,0.5-13.7,0.6-20.6c0.6-25.4,13.4-48.7,25.8-70.9c-12.2,20.7-16.7,45.9-12.4,69.5
		c2.7-15,6.7-29.8,12.1-44c5.4-14.3,12.2-28.5,23.2-39.1c5.8-5.6,12.7-10.1,19.5-14.6c12.7-8.3,25.5-16.6,38.2-25
		c-14.7,13.6-29.2,28.3-36.7,46.8c-3.3,8-5.2,16.5-8.6,24.4c-5.4,12.2-14.3,22.6-19.4,35c-5,12.1-6,25.4-7.9,38.3
		c-3.3,22.7-9.3,44.9-12.6,67.7c-3.3,22.7-3.6,46.4,4.2,68c-10.9-18.1-17.3-38.9-18.3-60.1"/>
	<path fill="#F1E8F0" d="M599.1,482.9c1.3,16.9-6.4,33.1-13.8,48.3c-4.6,9.4-9.2,18.9-13.8,28.3c4.4-18.2,7-36.8,7.8-55.5
		c-6.2,4.6-12.6,9.2-19.8,11.9c-13.6,5.1-29.9,2.5-41.3-6.6c8.1,4.2,17.4,5.1,26.5,4.9c9.1-0.2,18.6-1.6,25.9-7
		c11.5-8.7,14-24.6,15.6-39c6.8,2,10.5,9.3,11.7,16.2s0.5,14.2,2.2,21"/>
	<path fill="#F5E8F2" d="M451.2,514.8c26.1,1.1,52.6-8.6,71.7-26.5c-6.8-3.2-13.7-6.5-19.9-10.7c-9.4-6.3-17.3-14.8-24.3-23.7
		c-19-24.3-32.2-53.2-38-83.5c2.5,36.3,14.2,73.4,39.9,99.1c-35.4-16.8-64.6-46.4-81.1-82c11.5,32,36.8,56.7,61.4,80.2
		c8.7,8.3,17.6,16.8,28.6,21.8c3.3,1.5,7.4,3.6,7,7.2c-0.2,1.6-1.3,3-2.4,4.1C483.2,512.3,466.6,517.7,451.2,514.8z"/>
	<path fill="#F5E8F2" d="M502.9,112.6c19.9-31.5,46.7-58.5,78-78.7c-25.2,13.2-47.2,31.7-68.8,50.2c-14.3,12.2-29,25-37.5,41.8
		c-1.8,0.3-2.8-2.1-3.1-3.9c-5.3-41,13.6-81.5,38-114.9c-14.7,12.9-25.8,29.3-35.8,46.1c-28.8,48.4-50.1,102.7-51.4,159
		c4.7-39.1,18.7-77.1,40.7-109.9c-4.7,20.8-6.3,42.4-4.5,63.7c8.8-28.2,39.1-43.2,56.4-67.1"/>
	<path fill="#E2C8EC" d="M681,194c-26.4-19.6-58.3-31.5-91.1-34c26.1,40.5,66.7,72.1,83,117.5c-18-17.3-38-32.4-59.5-45
		c10.5,19.1,22.9,37.1,36.9,53.8c-22.1-19.8-35.9-47.1-49.1-73.6c14.9,8.4,29.1,18.3,42.1,29.4c-23.6-30.1-46.1-60.9-67.5-92.6
		c19.5-5.2,40.1,2.9,57.4,13.3c-16.8-14.3-36-25.7-56.7-33.5c4.6-3.3,11-2.3,16.4-0.7C628.6,138.9,656.5,166.2,681,194z"/>
	<path fill="#6464AE" d="M559.1,623.1c0,0-165.8,84.5-307.8-44.8C251.3,578.3,387.1,751.1,559.1,623.1z"/>
	<path fill="#6464AE" d="M384.4,482.8c0,0-138.2-48-149.7-231.5C234.7,251.3,274.6,409.2,384.4,482.8z"/>
	<path fill="#7862A9" d="M681,55c0,0,152.6,80.6,128.9,263.6C809.9,318.6,876.6,89.5,681,55z"/>
	<path fill="#7862A9" d="M758,260.2c0,0,112.6,171-20.5,350.1C737.5,610.3,835.5,449.1,758,260.2z"/>
	<path fill="#7862A9" d="M714.5,513.8c0,0-34.6,264.1-330.2,256.4C384.4,770.3,672.3,837,714.5,513.8z"/>
	<path fill="#7862A9" d="M309.5,318.5c0,0-76.1-108.8-40.3-363.4C269.2-44.9,207.8,217.5,309.5,318.5z"/>
	<path fill="#7862A9" d="M334.5,88.1c0,0,30.7-291.6,353.2-198.2C687.7-110.1,414.2-170,334.5,88.1z"/>
	<path fill="#7862A9" d="M575.8-2.6c0,0,196.3-106.2,296.1,72.9C871.9,70.3,794-141.3,575.8-2.6z"/>
	<path fill="#6BB5E6" d="M522.3,428.7c5.3,4.2,10.6,8.5,16.6,11.5c6.6,3.3,13.9,5,21.1,6.5c10.5,2.2,21,4,31.6,5.5
		c-17.6-3.5-34.5-11.1-48.8-22c20.9,4.7,42.2,7.8,63.6,9.2c-8-2.5-15.8-5.8-23.2-9.8c52.8,2.5,101.5,28.2,145.8,57
		c3.5,2.3,7.2,4.7,11.4,5.2c-13.3-10.3-26.6-20.6-39.9-30.9c-9.1-7-18.3-14.2-28.9-18.7c-7-3-14.4-4.9-21.7-6.7
		c-32.6-8.1-65.2-16.2-97.8-24.3c-4.5-1.1-9-2.2-13.5-2.9c-10.2-1.5-21.2-0.8-29.9-6.3c18.7,10.8,39,18.9,60,23.8
		c-15.2-0.1-30.4-3.2-44.5-8.9c-8.6-3.5-17.2-8.1-26.5-7.9C505.9,415.5,514.1,422.1,522.3,428.7z"/>
	<path fill="#6BB5E6" d="M753.6,444.5c-17.7-15.4-36.1-31.1-58.5-38.2c-18.1-5.8-37.6-5.5-56.2-9.4c-21.3-4.5-42.2-14.6-63.9-12.2
		c6.2,9.4,17,15.6,28.3,16c-29.7-0.8-59.2-6.2-87.3-16c19.6,3.8,39.6,6,59.5,6.7c-11.3-4.9-22.8-9.3-34.4-13.2
		c42.9-5,86,5,128.1,14.9c19.2,4.5,38.7,9.2,55.5,19.5c26.3,16.2,42.6,44.1,57.9,70.9c-22.8-33.4-59.2-55.1-96.7-70.2
		C711.1,417.5,738.4,424,753.6,444.5z"/>
	<path fill="#29478F" d="M506.3,312.4c-0.1-0.9-0.2-1.8-0.4-2.8c4.9,4.9,13.3,1.5,18.4-3.2c11.8-10.8,17.8-26.3,24.9-40.7
		c7.7-15.7,17.4-30.9,31.3-41.6c12.6-9.8,28-15.3,43.1-20.6c15.3-5.4,32.1-10.8,47.3-5.1c-11.7-0.3-23,3.5-34.1,7.2
		c-12.1,4.1-24.3,8.2-35.5,14.2c-19.5,10.4-35.9,26.5-46.6,45.8c17.4-16.5,39.7-27.9,63.3-32.3c-14.9,2.7-27.4,12.7-39.1,22.3
		c-10.8,9-21.8,18.1-30,29.5c-5.5,7.7-9.7,16.4-16.7,22.8C525.2,314.4,514.1,317.7,506.3,312.4z"/>
	<path fill="#29478F" d="M521.4,330.9c16.1-2.2,26.3-17.7,36.6-30.2c22.3-27.1,54.9-46.1,89.8-50.4c-30.1,12-57.7,30-80.9,52.6
		c47.8-30.6,106.4-43.6,162.7-36.3c1.9,0.2,4.4,1.7,3.4,3.3c-9-5.2-20.2-4.4-30.5-3c-27.3,3.7-54.2,10.7-79.8,20.7
		c-7.4,2.9-14.8,6-22.6,7.6c-5.2,1-10.6,1.4-15.7,2.8c-8.1,2.3-15,7.3-21.8,12.2c13.6,0.4,26.1-8.7,39.7-8.8
		c5.6-0.1,11.1,1.4,16.7,1.9c7.5,0.6,15.1-0.7,22.6-1.5c16.9-1.9,34-1.5,50.7,1c-8.5-2.4-17.5-1.1-26.2,0.3
		c-29.3,4.5-58.6,9-87.9,13.5c-6.7,1-13.5,2.1-19.9,4.6c-8.3,3.2-15.6,8.7-23.8,12.2c-9.7,4.1-20.7,5.2-31,3.1
		c15.8-2.5,31.2-7.8,45.2-15.5"/>
	<path fill="#F5D7DB" d="M536.2,349.4c21.5-4.4,43.2-7.8,65-10.4c23-2.7,47.3-4.1,68.4,5.3c-16.7-2.3-33.9-1.2-50.1,3.4
		c20.2,1.9,40.3,3.8,60.5,5.8c8.9,0.9,17.8,1.7,26.6,3.4c11.9,2.3,23.5,6.2,34.4,11.6c-23.2-7.9-48-11.2-72.5-9.6
		c-5.2,0.3-10.5,0.9-15.7,0.8c-6.3-0.1-12.6-1.2-18.9-2.2c-13.5-2.3-27-4.5-40.5-6.8c8.9-1.8,17.9-3.6,26.8-5.3
		c-19.9-0.3-39.8-0.6-59.6,1.2C546.7,347.8,549.2,355.2,536.2,349.4z"/>
	<path fill="#7892D5" d="M568.6,202.7c-9.8,2.8-19.1,6.8-27.8,12.1c-7.2,4.3-14.2,9.9-17,17.8c3.9-24.6,18-47.4,38.3-61.9
		c-11.6,13.5-21.5,28.5-29.3,44.5c17.7-25.3,39.8-50.6,69.8-58c-21.7,12.6-40.5,30-54.8,50.6c10.7-4,21.4-7.9,32.2-11.7
		c19.3-6.9,40.5-13.4,59.9-6.8c-16.5,4.5-33,9.1-49.5,13.6c-14.5,4-29.2,8.1-41.7,16.3c8.9-1.5,17.9-2.3,27-2.6
		c-5.4-2.1-11.4,0.9-16.4,4c-12.1,7.6-23.5,16.2-34.1,25.9C533.7,227.3,549.5,211.4,568.6,202.7z"/>
	<path fill="#F9F1F9" d="M591.1,465.4c-0.1,6.7,4.6,12.7,10.1,16.6c5.5,3.9,11.9,6.4,17.4,10.2c12.5,8.5,20,23.9,19.1,39
		c-3.3-16.1-18.8-26.3-32.9-34.6c6.8,6.8,10.5,16.6,10,26.2c-3.7-8.1-8.3-15.8-13.6-23c2.1,13.7-8.5,26-10.7,39.6
		c-0.7,4.6-0.5,9.4-1.8,13.8c-2,6.9-7.4,12.1-12.6,17c-12.3,11.3-25.4,22.2-40.8,28.5c-3,1.2-6,2.3-8.9,3.7
		c-5.8,2.9-10.8,7.5-14.3,12.9c10.3-9.9,20.6-19.9,32.5-27.7c4.9-3.2,10-6.1,14.2-10.1c5-4.8,8.4-10.9,11.5-17
		c6.5-12.5,12.2-25.4,17.1-38.6c-7.3,9.4-14.7,18.8-22,28.2c6.8-15.6,13.6-31.1,20.4-46.7c-12.6,16.2-26.5,31.4-41.5,45.4
		c3.8-2.3,6.6-5.9,9.4-9.4c13.2-16.8,27.1-35.8,25.3-57c9.7,10.1,12.6,26.2,7,39c10.8-22.2,4.9-51.3-13.7-67.6
		c11.4,7.3,20.7,18,26.3,30.3"/>
	<path fill="#FFFEF9" d="M536.3,123.3c9.9-4.2,19.8-8.4,29.7-12.6c9.1-3.9,18.3-7.8,28.1-9.5c14.7-2.6,29.7-0.2,44.4,2.2
		c-20.7-4.2-41.3,6.2-59.9,16.3c38.5-9.7,80.1,6.1,110,32.4c-10.6-2.4-20.2-7.9-30.2-12.3c-27.2-12-57.9-15.7-87.2-10.6
		c28.8,5.8,54.4,21.8,79.3,37.5c-14.6-9.5-30.4-17-47-22.3c-9.5-3.1-19.4-5.4-29.4-4.8c-10,0.6-20.1,4.5-26.5,12.2
		c2.7-10.2,9.7-19.2,19-24.2c9.3-5,20.7-5.9,30.7-2.4c-16.3-7-36.1-5.4-51,4.2c9.7-8.4,23-11,35.6-13.4c-9.3,2-18.6,3.9-27.9,5.9
		c-6.5,1.4-13.1,2.8-19.1,5.7c-8.4,4.1-15.4,11.1-19.4,19.6c3.9-15,19-23.8,32.7-30.9"/>
	<path fill="#FFFEF9" d="M488.5,189.7c0.6,0.4,1.3-0.6,0.8-1.1c-4.8-13.3-5-28-1.7-41.8c3.3-13.7,10-26.5,18.6-37.8
		c-8.9,14.3-13.5,31.3-13,48.2c4.9-24.8,16.7-48.2,33.7-66.9c17-18.7,39.2-32.7,63.4-39.9C571.8,59.8,554,71,539.5,85.8
		c-14.6,14.8-25.8,33.3-29.7,53.6c8.6-22.4,29-37.8,48.4-52c6.5-4.7,13.1-9.5,20.2-13.3c6.3-3.4,13-6.1,19.9-7.9
		c-10,5.2-20.1,10.4-29.3,16.9c-19.3,13.6-34.2,32.3-48.8,50.8c22.6-27.2,53.3-47.6,87.1-57.9c-9,2.5-16.9,7.9-24.6,13.3
		c-9.4,6.6-19,13.2-26.7,21.7c-2.2,2.4-4.3,5-6.9,7.1c-3,2.3-6.5,3.9-9.8,5.7c-13.2,7.4-22.6,19.9-31,32.4
		c-8,12-15.5,24.6-19.9,38.3C489.6,185.7,487.2,198.5,488.5,189.7z"/>
	<path fill="#9A5AA7" d="M871.8,185.2c-35.9-44.5-81.2-81.4-132.2-107.4c55.3,37.9,101.4,89.2,133.2,148.2
		c-19.7-24.6-37.9-50.6-60.3-72.8C760.4,101.7,688,74.5,615.4,63.9c22.4-14.3,48.8-20.8,75.1-24.6c10.7-1.6,21.5-2.7,32.2-2.1
		c11.7,0.6,23.3,3.3,34.7,6c35.6,8.3,71.8,16.8,103.2,35.4C811.3,57.4,756.7,48.3,703,52.4c15.9,0.9,31.3,6,46.1,12
		C804.2,86.8,856.4,127.7,871.8,185.2z"/>
	<path fill="#9A5AA7" d="M475.7-81c43.8-35.5,92.3-72.3,148.6-74c-51.3,16.1-90.5,56.6-127.5,95.7c74.2-56.4,165.5-89.8,258.6-94.6
		c-23.8,4.8-47.1,11.6-69.7,20.4c-14.5,5.6-28.7,12.1-42.9,18.5c-17.1,7.8-34.2,15.5-51.4,23.3C550-73.1,507.5-53.5,476.6-20.2
		c70.7-41.5,150.5-65,230.1-84.4c-37.7,8.1-74.3,20.8-108.8,37.9c-14,6.9-27.7,14.6-41.3,22.3c-63,35.8-128.3,78.1-157,144.7
		c-9.8-2.9-15.7-13.3-16.6-23.5s2.2-20.2,5.3-29.9c7.9-24.9,16.1-50.2,30.7-71.8C433.9-47,454.9-64.2,475.7-81z"/>
	<path fill="#9A5AA7" d="M300.1,158.6c14.2,42.6,34.7,83.1,45.6,126.6c3.2,12.7,5.5,25.6,7.8,38.5c3.2,17.8,6.4,35.6,9.6,53.4
		C290.4,301.9,230.9,213.9,188,118.5c19.7,34.7,42.8,67.4,65.9,100c26.2,37,52.6,74.3,84.8,106.2c-49-64.1-74.5-142.6-97.1-220
		c-9.4-32.4-18.5-64.9-24.5-98.1c-4-22.5-6.7-45.2-7.8-68.1c-4.7,41.8,5.3,83.9,19.1,123.6c20.2,58.4,48.6,114,84,164.7
		C276.9,149.7,274.4,61.7,278.8-23C273.4,38.1,280.7,100.4,300.1,158.6z"/>
	<path fill="#9A5AA7" d="M387.8,574.2c-76-33.6-137.2-94-187.3-160.3c-31.7-41.9-60-87.6-73.1-138.5c24.9,38.5,49.8,77,74.7,115.4
		c7.7,11.8,15.4,23.7,24.7,34.3c9.4,10.6,20.3,19.7,31.1,28.8c43.8,36.7,87.6,73.3,131.3,110c5.9,5,11.9,10,18.7,13.7
		c28.6,15.7,64.2,5.7,94.6-6.3c-60.7,31-134.4,35.4-198.3,11.8c-35.6-13.2-67.6-34.3-98.3-56.7c59.1,33.5,125.8,53.5,193.5,58.1
		c-71.3-9.4-130.8-57.4-183.6-106.2c-39.8-36.9-79.2-77.1-98.5-127.8C183.5,449.1,278.7,527.8,387.8,574.2z"/>
	<path fill="#9A5AA7" d="M318.5,750.6c73.3,3.3,144.4-23.3,212-51.6c-110.3,34.1-236.2,12.9-329.2-55.4c20.7,14.1,45.4,21,69.6,27.3
		c47.1,12.2,94.8,23,143.3,25.6s98.2-3.3,142.5-23.5c-47.7,12.6-97.6,16.7-146.7,12c14.5-1.5,29-3.1,43.4-4.9
		c29.8-3.6,59.7-7.8,88.2-17.2s55.7-24.5,75.6-46.9c10.8-12.2,19.4-26.5,32-36.8c-28.5,60.3-77.3,110.8-136.5,141.5
		S384.3,762,318.5,750.6z"/>
	<path fill="#E2C8EC" d="M498.3,649.8c45.3-21,81.6-60.6,98.7-107.6c-19.4,19.4-40.4,37.1-62.7,53c-10.6,7.6-22.6,15.1-35.7,14.2
		c23.4-16.2,41.8-39.4,52.1-66c-7.3,11-19.2,18.1-31.1,23.7c-38.7,18.4-82.8,25.4-125.3,20c30,10.2,63.4,10.3,93.5,0.2
		c-102.1,36.9-220,27.2-314.7-26c64.3,42.1,143.5,54.8,220.3,57c11.3,0.3,22.7,0.4,34-1c32.8-4.3,62.2-21.8,90.6-38.9
		c-61.8,56.5-151.6,80.7-233.5,63.1c42.7,9.7,87.7,13.6,129.9,2.3c36.7-9.8,69.5-30.5,101.5-51c-35.8,43.8-92.9,69.4-149.4,66.9
		c76,7.6,154.9-25.1,203.1-84.4C553.9,606.5,526.5,629.7,498.3,649.8z"/>
	<path fill="#E2C8EC" d="M421.5,458c-57.6-35.1-103.3-89.4-128.1-152.1c8.4,51.2,35.1,99.2,74.2,133.3
		c-100.5-77.6-163.5-197.1-189-321.5c6.6,62.8,23.9,124.9,54,180.4S305.8,402.6,359,436.6c-83.5-33.3-153.4-99.6-191-181.3
		c20.9,54.3,60,100.1,105.5,136.4s97.3,63.7,149.6,89.1c-56.2,6.3-109.2-23.9-157.7-53.1c32,20.9,64,41.8,96,62.7
		c32.7,21.3,67.2,43.3,106.2,46.1c-32.8-13.4-65.6-28.1-93.2-50.5c28.2,8.6,57.8,12.3,87.2,11c-30.2-13-55.5-36.9-70.3-66.2"/>
	<circle fill="#9A5AA7" cx="881.5" cy="129.8" r="12.2"/>
	<circle fill="#9A5AA7" cx="888" cy="214" r="12.1"/>
	<circle fill="#9A5AA7" cx="110.2" cy="253.9" r="7.3"/>
	<circle fill="#9A5AA7" cx="367.1" cy="-89" r="8.3"/>
	<circle fill="#9A5AA7" cx="395.1" cy="-155.1" r="10.1"/>
	<circle fill="#9A5AA7" cx="425.3" cy="-171.6" r="6.4"/>
	<circle fill="#9A5AA7" cx="251.3" cy="644.8" r="6.4"/>
	<circle fill="#9A5AA7" cx="349.8" cy="737" r="9"/>
	<circle fill="#9A5AA7" cx="268.8" cy="727.6" r="11.1"/>
	<ellipse fill="#9A5AA7" cx="272.2" cy="745.9" rx="3.4" ry="0"/>
	<circle fill="#9A5AA7" cx="221.2" cy="681.3" r="13.4"/>
	<circle fill="#9A5AA7" cx="168.6" cy="619.8" r="4.5"/>
	<circle fill="#9A5AA7" cx="117.4" cy="599.6" r="7.2"/>
	<circle fill="#9A5AA7" cx="168.4" cy="665.7" r="4.7"/>
	<circle fill="#9A5AA7" cx="117.4" cy="549.5" r="7.2"/>
	<circle fill="#9A5AA7" cx="61.1" cy="476.8" r="5.9"/>
	<ellipse fill="#9A5AA7" cx="55.1" cy="525.2" rx="0" ry="0.6"/>
	<ellipse fill="#9A5AA7" cx="31.8" cy="419.6" rx="1.9" ry="0"/>
	<circle fill="#9A5AA7" cx="945.5" cy="288.1" r="5.8"/>
	<circle fill="#9A5AA7" cx="925.1" cy="362.6" r="4.4"/>
	<circle fill="#9A5AA7" cx="912.9" cy="294" r="7.8"/>
	<ellipse fill="#9A5AA7" cx="927.3" cy="202" rx="2.2" ry="0"/>
	<circle fill="#9A5AA7" cx="762.7" cy="-121.2" r="7.3"/>
	<circle fill="#9A5AA7" cx="804.9" cy="-160.1" r="5"/>
	<circle fill="#9A5AA7" cx="687" cy="-178.6" r="7"/>
	<circle fill="#9A5AA7" cx="729" cy="-196.7" r="4.3"/>
	<circle fill="#9A5AA7" cx="909.4" cy="-112.9" r="15.7"/>
	<circle fill="#9A5AA7" cx="811.5" cy="558.8" r="9.3"/>
	<circle fill="#9A5AA7" cx="774.2" cy="618.4" r="11.5"/>
	<circle fill="#9A5AA7" cx="776.3" cy="676.6" r="6.3"/>
	<circle fill="#9A5AA7" cx="736.9" cy="549.5" r="7.2"/>
	<circle fill="#9A5AA7" cx="725.4" cy="611.1" r="4.2"/>
	<circle fill="#9A5AA7" cx="714.5" cy="688.1" r="6.7"/>
	<circle fill="#9A5AA7" cx="697.9" cy="765.2" r="3.8"/>
	<circle fill="#9A5AA7" cx="653.1" cy="800.9" r="3.8"/>
	<circle fill="#9A5AA7" cx="583.4" cy="802.9" r="1.9"/>
	<circle fill="#9A5AA7" cx="522" cy="816.3" r="3.8"/>
	<circle fill="#9A5AA7" cx="436.2" cy="820.8" r="4.5"/>
	<circle fill="#9A5AA7" cx="48.9" cy="413.1" r="6.2"/>
	<circle fill="#9A5AA7" cx="37.3" cy="324" r="5.4"/>
	<rect x="102.8" y="194.5" fill="#9A5AA7" width="0" height="0"/>
	<circle fill="#9A5AA7" cx="106.5" cy="133.5" r="3.7"/>
	<circle fill="#9A5AA7" cx="119.6" cy="83" r="5.1"/>
	<circle fill="#9A5AA7" cx="475.8" cy="-189" r="3.4"/>
	<circle fill="#9A5AA7" cx="870.1" cy="-108.1" r="5.8"/>
	<circle fill="#9A5AA7" cx="934.6" cy="-44.6" r="5.1"/>
	<circle fill="#9A5AA7" cx="1036.5" cy="-39" r="5.6"/>
	<circle fill="#9A5AA7" cx="1035.5" cy="43.7" r="6.7"/>
	<circle fill="#9A5AA7" cx="1052.6" cy="91.7" r="3.6"/>
	<ellipse fill="#9A5AA7" cx="929.5" cy="416.2" rx="0" ry="3.1"/>
	<circle fill="#9A5AA7" cx="945.5" cy="476.7" r="5.8"/>
	<ellipse fill="#9A5AA7" cx="67" cy="13.4" rx="0" ry="3.1"/>
	<circle fill="#9A5AA7" cx="84.9" cy="105.1" r="5.1"/>
	<ellipse fill="#9A5AA7" cx="119.6" cy="-20.3" rx="5.1" ry="0"/>
	<circle fill="#9A5AA7" cx="119.4" cy="-67.8" r="12.9"/>
	<circle fill="#9A5AA7" cx="93.9" cy="-0.1" r="9"/>
	<circle fill="#9A5AA7" cx="68.8" cy="47" r="3.3"/>
	<circle fill="#9A5AA7" cx="13.5" cy="250.2" r="3.7"/>
	<circle fill="#9A5AA7" cx="5.4" cy="162.2" r="4.4"/>
	<circle fill="#FFFFFF" cx="512" cy="269.1" r="6.3"/>
	<circle fill="#FFFFFF" cx="1005.1" cy="362.6" r="6.3"/>
	<circle fill="#FFFFFF" cx="634.7" cy="201.9" r="6.3"/>
	<circle fill="#FFFFFF" cx="516" cy="329.4" r="6.3"/>
	<circle fill="#FFFFFF" cx="670.9" cy="337.5" r="6.3"/>
	<circle fill="#FFFFFF" cx="755.4" cy="318.6" r="6.3"/>
	<circle fill="#FFFFFF" cx="485.4" cy="370.4" r="6.3"/>
	<circle fill="#FFFFFF" cx="495.2" cy="383.2" r="6.3"/>
	<circle fill="#FFFFFF" cx="628.4" cy="286.2" r="6.3"/>
	<circle fill="#FFFFFF" cx="588.4" cy="383.2" r="6.3"/>
	<circle fill="#FFFFFF" cx="667.2" cy="476.7" r="6.3"/>
	<circle fill="#FFFFFF" cx="699.7" cy="395.8" r="6.3"/>
	<circle fill="#FFFFFF" cx="834.8" cy="482.4" r="6.3"/>
	<circle fill="#FFFFFF" cx="569.1" cy="343.8" r="6.3"/>
	<circle fill="#FFFFFF" cx="998.8" cy="241.8" r="6.3"/>
	<circle fill="#FFFFFF" cx="856.3" cy="395.8" r="6.3"/>
	<circle fill="#FFFFFF" cx="869.4" cy="294.2" r="6.3"/>
	<circle fill="#FFFFFF" cx="559.1" cy="260.2" r="6.3"/>
	<circle fill="#FFFFFF" cx="755.4" cy="208.3" r="6.3"/>
	<circle fill="#FFFFFF" cx="495.2" cy="294.2" r="4.8"/>
	<circle fill="#FFFFFF" cx="544.9" cy="378.7" r="4.8"/>
	<circle fill="#FFFFFF" cx="749.1" cy="246.6" r="4.8"/>
	<circle fill="#FFFFFF" cx="502.2" cy="233" r="2.6"/>
	<circle fill="#FFFFFF" cx="580.9" cy="304.9" r="2.6"/>
	<circle fill="#FFFFFF" cx="491.7" cy="343.8" r="2.6"/>
	<circle fill="#FFFFFF" cx="371.6" cy="208.2" r="2.6"/>
	<circle fill="#FFFFFF" cx="654.3" cy="233" r="2.6"/>
	<circle fill="#FFFFFF" cx="795.6" cy="284.9" r="2.6"/>
	<circle fill="#FFFFFF" cx="490.5" cy="318.6" r="2.6"/>
	<circle fill="#FFFFFF" cx="516" cy="370.4" r="2.6"/>
	<circle fill="#FFFFFF" cx="619" cy="385.8" r="2.6"/>
	<circle fill="#FFFFFF" cx="518.6" cy="419.2" r="2.6"/>
	<circle fill="#FFFFFF" cx="654.3" cy="312.2" r="2.6"/>
	<circle fill="#FFFFFF" cx="513.4" cy="304.8" r="2.6"/>
	<circle fill="#FFFFFF" cx="477.4" cy="329.4" r="2.6"/>
	<circle fill="#FFFFFF" cx="480" cy="352.7" r="2.6"/>
	<circle fill="#FFFFFF" cx="515.6" cy="391" r="2.6"/>
	<circle fill="#FFFFFF" cx="759.1" cy="282.3" r="2.6"/>
	<circle fill="#F5E8F2" cx="640.4" cy="7.5" r="5.9"/>
	<circle fill="#E2C8EC" cx="597" cy="606.8" r="5.9"/>
	<circle fill="#E2C8EC" cx="343.9" cy="579.2" r="5.9"/>
	<circle fill="#E2C8EC" cx="343.9" cy="279.7" r="5.9"/>
	<circle fill="#E2C8EC" cx="390.9" cy="573.2" r="5.9"/>
	<circle fill="#7862A9" cx="273" cy="-80.9" r="7.1"/>
	<circle fill="#7862A9" cx="292.5" cy="-117.6" r="17"/>
	<circle fill="#7862A9" cx="326.1" cy="-177.3" r="8.3"/>
	<circle fill="#7862A9" cx="257.8" cy="-149.9" r="15.3"/>
	<circle fill="#7862A9" cx="225.6" cy="-58.8" r="9"/>
	<circle fill="#7862A9" cx="238.6" cy="-11.2" r="3.9"/>
	<circle fill="#7862A9" cx="219.3" cy="116.1" r="6.4"/>
	<circle fill="#7862A9" cx="244.6" cy="413" r="6.2"/>
	<circle fill="#7862A9" cx="431.4" cy="800" r="9.2"/>
	<circle fill="#7862A9" cx="360.7" cy="808" r="10.9"/>
	<ellipse fill="#7862A9" cx="295.8" cy="776" rx="3.3" ry="0"/>
	<circle fill="#7862A9" cx="235.3" cy="758.2" r="3.1"/>
	<circle fill="#7862A9" cx="293.7" cy="770.6" r="5.4"/>
	<circle fill="#7862A9" cx="652.7" cy="719.2" r="14.4"/>
	<circle fill="#7862A9" cx="820" cy="363.8" r="8.5"/>
	<circle fill="#7862A9" cx="831.9" cy="223.8" r="9.2"/>
	<circle fill="#7862A9" cx="813.7" cy="36.8" r="8.9"/>
	<circle fill="#7862A9" cx="930.2" cy="92.6" r="9.5"/>
	<circle fill="#7862A9" cx="814.7" cy="-47" r="8"/>
	<circle fill="#7862A9" cx="555.2" cy="-142.3" r="7.6"/>
	<circle fill="#7862A9" cx="344.1" cy="-39.1" r="5.8"/>
	<circle fill="#7862A9" cx="461.1" cy="-122.1" r="6.5"/>
	<circle fill="#7862A9" cx="590.5" cy="-169" r="9.6"/>
	<circle fill="#7862A9" cx="727.2" cy="-102.1" r="6"/>
	<circle fill="#7862A9" cx="777.9" cy="-65.9" r="7.9"/>
	<circle fill="#7862A9" cx="961.9" cy="89.2" r="6.1"/>
	<circle fill="#7862A9" cx="147.9" cy="171.3" r="4.7"/>
	<circle fill="#7862A9" cx="172.5" cy="97.9" r="8.7"/>
	<circle fill="#7862A9" cx="172.7" cy="63.5" r="8.6"/>
	<circle fill="#7862A9" cx="152.8" cy="39.1" r="11.3"/>
	<circle fill="#F9EFBE" cx="430.8" cy="363.7" r="5.4"/>
	<circle fill="#F9EFBE" cx="420" cy="238.3" r="5.3"/>
	<circle fill="#F9EFBE" cx="663.9" cy="85" r="7"/>
	<circle fill="#F9EFBE" cx="693.2" cy="185.6" r="4.7"/>
	<ellipse fill="#F9EFBE" cx="634.7" cy="476.1" rx="6.3" ry="0"/>
	<circle fill="#F9EFBE" cx="582.5" cy="561.7" r="12.2"/>
	<circle fill="#F9EFBE" cx="497" cy="551.1" r="5.2"/>
	<circle fill="#F9EFBE" cx="359.4" cy="472.1" r="9.6"/>
	<circle fill="#F9EFBE" cx="310.1" cy="379.9" r="7.7"/>
	<circle fill="#F9EFBE" cx="326.1" cy="189.3" r="8.3"/>
	<circle fill="#F9EFBE" cx="394.1" cy="93.4" r="5.3"/>
	<circle fill="#F9EFBE" cx="484.5" cy="47.5" r="10.8"/>
	<circle fill="#F9EFBE" cx="551.3" cy="34.8" r="7.9"/>
	<circle fill="#F9EFBE" cx="715.3" cy="44.7" r="7.5"/>
	<circle fill="#F9EFBE" cx="795.8" cy="140" r="6.5"/>
	<circle fill="#F9EFBE" cx="797.7" cy="294.2" r="4.8"/>
	<circle fill="#F9EFBE" cx="782.8" cy="428.3" r="6.5"/>
	<circle fill="#F9EFBE" cx="723.6" cy="567.8" r="6.1"/>
	<circle fill="#F9EFBE" cx="667.2" cy="644.7" r="6.3"/>
	<circle fill="#F9EFBE" cx="580.6" cy="705.2" r="10.4"/>
	<circle fill="#F9EFBE" cx="422.9" cy="643.3" r="17.7"/>
	<circle fill="#F9EFBE" cx="310.1" cy="551.1" r="7.7"/>
	<circle fill="#F9EFBE" cx="247.7" cy="409.9" r="3.1"/>
	<circle fill="#F9EFBE" cx="223.3" cy="270" r="16.2"/>
	<circle fill="#F9EFBE" cx="291.8" cy="150.3" r="8.3"/>
	<circle fill="#F9EFBE" cx="336.4" cy="39.2" r="4.5"/>
	<circle fill="#F9EFBE" cx="447.6" cy="-10.5" r="6.9"/>
	<circle fill="#F9EFBE" cx="620.5" cy="-23.1" r="7.9"/>
	<circle fill="#F9EFBE" cx="781" cy="5.6" r="4.7"/>
</g>
</svg>
