<?xml version="1.0" encoding="utf-8"?>
<!-- Generator: Adobe Illustrator 18.1.0, SVG Export Plug-In . SVG Version: 6.00 Build 0)  -->
<!DOCTYPE svg PUBLIC "-//W3C//DTD SVG 1.1//EN" "http://www.w3.org/Graphics/SVG/1.1/DTD/svg11.dtd">
<svg version="1.1" id="Layer_1" xmlns="http://www.w3.org/2000/svg" xmlns:xlink="http://www.w3.org/1999/xlink" x="0px" y="0px"
	 viewBox="0 0 520 389" enable-background="new 0 0 520 389" xml:space="preserve">
<rect x="162.9" y="386.6" fill="#382216" width="232" height="2"/>
<g>
	<rect x="35.7" y="380.5" fill="#9E5C26" width="107.4" height="6.9"/>
	<rect x="35.6" y="386.6" fill="#382216" width="107.5" height="2"/>
	<polygon fill="#7F4921" points="53.1,387.4 35.7,387.4 35.7,380.5 73.1,380.5 	"/>
</g>
<g>
	<g>
		<rect x="165.9" y="82" fill="#ECC7A5" width="226" height="302"/>
		<path fill="#9E5C26" d="M388.9,85v296h-220V85H388.9 M394.9,79h-232v308h232V79L394.9,79z"/>
	</g>
	<rect x="162.9" y="387" fill="#382216" width="232" height="2"/>
	<g>
		<path fill="#212A4B" d="M229.6,223.2v98.3h97v-98.3l8.7,15.3l31.3-17.7l-26.3-58.3c0,0-23-12-43.7-18c0,0-3.7,10.3-18.3,10.3
			c-14.7,0-18.3-10.3-18.3-10.3s-27.7,8.3-43.7,19l-25,57l31,19.3L229.6,223.2z"/>
		<polyline fill="#E01226" points="222.2,239.4 225.2,232.6 193.8,214.3 191.2,220.1 222.2,239.4 		"/>
		<polyline fill="#E01226" points="332.1,232.8 335.2,238.3 366.6,220.7 364.2,215.4 332.1,232.8 		"/>
		<path fill="#EBEAF0" d="M245.8,149.3v60h62.9v-60.8c0,0-6.3-2.2-6.9-2.4c0,0-11.1,11.1-23.6,11.1s-22.6-11.4-22.6-11.4
			S246.3,149.2,245.8,149.3z"/>
		<path fill="#17203A" d="M259.9,144.5c0,0,4,10.3,19,10.3c0,0,13,0,17.7-10.3l7.6,2.4c0,0-6.3,14.4-25.3,14.4s-25.9-14.6-25.9-14.6
			S258.3,144.7,259.9,144.5z"/>
		<rect x="245.8" y="243.7" fill="#E01226" width="63.7" height="77.8"/>
		<circle fill="#1A4071" cx="307.2" cy="194.5" r="9.7"/>
		<path opacity="0.37" fill="#231F20" d="M278.2,154.8c-14.7,0-18.3-10.3-18.3-10.3s-27.7,8.3-43.7,19l-25,57l31,19.3l7.3-16.7v98.3
			h49.3"/>
	</g>
	<g opacity="0.24">
		<linearGradient id="SVGID_1_" gradientUnits="userSpaceOnUse" x1="162.8877" y1="227.9946" x2="394.8877" y2="227.9946">
			<stop  offset="0" style="stop-color:#FFFFFF"/>
			<stop  offset="1" style="stop-color:#FFFFFF;stop-opacity:0"/>
		</linearGradient>
		<polygon fill="url(#SVGID_1_)" points="162.9,377 162.9,79 394.9,79 		"/>
	</g>
	<g>
		
			<linearGradient id="SVGID_2_" gradientUnits="userSpaceOnUse" x1="-14848.9014" y1="6042.959" x2="-14848.9014" y2="6151.3901" gradientTransform="matrix(-0.8009 0.256 -0.3045 -0.9525 -9971.293 9969.5947)">
			<stop  offset="0" style="stop-color:#FFFFFF"/>
			<stop  offset="1" style="stop-color:#FFFFFF;stop-opacity:0"/>
		</linearGradient>
		<path fill="url(#SVGID_2_)" d="M11.3,306c-16.2-50.8-14.9-96.6,3.1-102.3s45.6,30.8,61.8,81.6s14.9,96.6-3.1,102.3
			C55.2,393.3,27.6,356.8,11.3,306z"/>
		
			<linearGradient id="SVGID_3_" gradientUnits="userSpaceOnUse" x1="-10856.8994" y1="10618.6377" x2="-10856.8994" y2="10727.0684" gradientTransform="matrix(-0.7473 -0.3853 0.4582 -0.8888 -12931.6348 5659.5161)">
			<stop  offset="0" style="stop-color:#FFFFFF"/>
			<stop  offset="1" style="stop-color:#FFFFFF;stop-opacity:0"/>
		</linearGradient>
		<path fill="url(#SVGID_3_)" d="M73.7,280.1c24.4-47.4,57.8-78.8,74.5-70.2s10.5,54-13.9,101.4s-57.8,78.8-74.5,70.2
			C43,372.8,49.3,327.4,73.7,280.1z"/>
	</g>
	<g>
		<rect x="35.7" y="380.9" fill="#9E5C26" width="107.4" height="6.9"/>
		<rect x="35.6" y="387" fill="#382216" width="107.5" height="2"/>
		<polygon fill="#7F4921" points="53.1,387.8 35.7,387.8 35.7,380.9 73.1,380.9 		"/>
	</g>
	<g>
		<path fill="#C1C1C1" d="M85.8,266.4c0.1-0.4-0.2-9.2-0.2-9.2s-1.9-0.8-1.9-1.8c0-1,1.3-1,1.3-1s0.1-2.8,0.8-2.9
			c0.7-0.1,1,1.5,1,1.5s0.9-1.5,2.1-1.3s2.2,1.4,1.7,3c-0.6,1.6,3.2,5.3,3.2,5.3s0.2,1.7-2.3,1.2c0,0-0.8,4.8-0.2,7.2L85,268"/>
		<path fill="#C6C6C6" d="M103.9,370.3c-9.1-3.5-8.2-21.4-8.2-21.4h-6.9h-6.9c0,0,0.9,17.9-8.2,21.4s-4.3,7-3.9,7.3
			c0.4,0.3,7.4,2.4,19,2.4s18.7-2.1,19-2.4C108.2,377.3,113.1,373.8,103.9,370.3z"/>
		<path opacity="7.000000e-02" fill="#00101F" d="M103.9,370.3c-9.1-3.5-8.2-21.4-8.2-21.4h-6.9l0,12.1l0,19c0,0,12.5,0,19-2.4
			C108.2,377.5,113.1,373.8,103.9,370.3z"/>
		<path fill="#DCDCDC" d="M88.8,266.3c0,0-8-1.3-9.7,9.3l9.7,1.1l9.7-1.1C96.8,265,88.8,266.3,88.8,266.3z"/>
		<path opacity="7.000000e-02" fill="#00101F" d="M88.8,266.3v9.3h9.7C96.8,265,88.8,266.3,88.8,266.3z"/>
		<path fill="#D3D3D3" d="M104.8,282.7c1.1-3.2-2.1-2.5-2.9-3.2c-0.8-0.6-3.4-3.9-3.4-3.9h-9.7h-9.7c0,0-2.6,3.2-3.4,3.9
			c-0.8,0.6-4,0-2.9,3.2c0,0,0.6,2.6-0.1,3.6h16.1h16.1C104.1,285.3,104.8,282.7,104.8,282.7z"/>
		<path opacity="7.000000e-02" fill="#00101F" d="M104.8,282.7c1.1-3.2-2.1-2.5-2.9-3.2c-0.8-0.6-3.4-3.9-3.4-3.9h-9.7v10.7h16.1
			C104.1,285.3,104.8,282.7,104.8,282.7z"/>
		<path fill="#C1C1C1" d="M72.7,286.3c0,0-8.1,5.2-11,0.8s-0.8-7.1-0.8-7.1s-7.1-8.2-13.8-0.3c-6.6,7.7,5.1,53,35.3,69.2
			c0,0-21.3-18.9-28.1-38.1c-7.5-21.2-6.7-31.9,1.4-29.9c0,0,0.5,9.9,4.5,12C64.1,295.1,72.7,286.3,72.7,286.3z"/>
		<path fill="#C1C1C1" d="M104.8,286.3c0,0,8.1,5.2,11,0.8c3-4.4,0.8-7.1,0.8-7.1s7.1-8.2,13.8-0.3c6.6,7.7-5.1,53-35.3,69.2
			c0,0,21.3-18.9,28.1-38.1c7.5-21.2,6.7-31.9-1.4-29.9c0,0-0.5,9.9-4.5,12C113.5,295.1,104.8,286.3,104.8,286.3z"/>
		<path fill="#CCCCCC" d="M104.8,286.3H88.8H72.7L60.1,293c0,0,0.9,57.3,28.7,57.7c27.8-0.4,28.7-57.7,28.7-57.7L104.8,286.3z"/>
		<path opacity="8.000000e-02" fill="#00101F" d="M104.8,286.3H88.8v28l0,36.4c27.8-0.4,28.7-57.7,28.7-57.7L104.8,286.3z"/>
	</g>
	
		<linearGradient id="SVGID_4_" gradientUnits="userSpaceOnUse" x1="892.7729" y1="1541.663" x2="892.7729" y2="1746.4152" gradientTransform="matrix(0.9683 -0.2499 0.2499 0.9683 -1179.8436 -1306.7714)">
		<stop  offset="0" style="stop-color:#FFFFFF"/>
		<stop  offset="1" style="stop-color:#FFFFFF;stop-opacity:0"/>
	</linearGradient>
	<path fill="url(#SVGID_4_)" d="M201.6,167.4c25.1,97.5,12.4,185-28.5,195.6S78.6,303.1,53.5,205.7S41.1,20.7,82,10.1
		S176.5,70,201.6,167.4z"/>
	
		<linearGradient id="SVGID_5_" gradientUnits="userSpaceOnUse" x1="-1000.9367" y1="-1701.9957" x2="-1000.9367" y2="-1497.2437" gradientTransform="matrix(0.959 0.2834 -0.2834 0.959 972.9218 1885.9211)">
		<stop  offset="0" style="stop-color:#FFFFFF"/>
		<stop  offset="1" style="stop-color:#FFFFFF;stop-opacity:0"/>
	</linearGradient>
	<path fill="url(#SVGID_5_)" d="M503.2,213.2c-28.5,96.5-84.5,165.1-125,153.1c-40.5-12-50.2-99.9-21.7-196.4S441,4.8,481.5,16.8
		S531.8,116.7,503.2,213.2z"/>
	
		<linearGradient id="SVGID_6_" gradientUnits="userSpaceOnUse" x1="-1236.4767" y1="-1872.0258" x2="-1236.4767" y2="-1667.2737" gradientTransform="matrix(0.9495 0.3139 -0.3139 0.9495 1029.9365 2121.2751)">
		<stop  offset="0" style="stop-color:#FFFFFF"/>
		<stop  offset="1" style="stop-color:#FFFFFF;stop-opacity:0"/>
	</linearGradient>
	<path fill="url(#SVGID_6_)" d="M443.7,199.1c-31.6,95.6-89.7,162.3-129.8,149s-47-101.5-15.4-197S388.1-11.2,428.2,2
		S475.3,103.5,443.7,199.1z"/>
	
		<linearGradient id="SVGID_7_" gradientUnits="userSpaceOnUse" x1="1299.6826" y1="3217.3738" x2="1299.6826" y2="3422.126" gradientTransform="matrix(0.8933 -0.4494 0.4494 0.8933 -2507.2478 -2329.3232)">
		<stop  offset="0" style="stop-color:#FFFFFF"/>
		<stop  offset="1" style="stop-color:#FFFFFF;stop-opacity:0"/>
	</linearGradient>
	<path fill="url(#SVGID_7_)" d="M271.9,132.7c45.2,89.9,51.3,178.2,13.6,197.2c-37.7,19-105-38.5-150.2-128.4S83.9,23.3,121.6,4.3
		S226.7,42.8,271.9,132.7z"/>
</g>
</svg>
