<?xml version="1.0" encoding="utf-8"?>
<!-- Generator: Adobe Illustrator 18.1.0, SVG Export Plug-In . SVG Version: 6.00 Build 0)  -->
<!DOCTYPE svg PUBLIC "-//W3C//DTD SVG 1.1//EN" "http://www.w3.org/Graphics/SVG/1.1/DTD/svg11.dtd">
<svg version="1.1" id="Layer_1" xmlns="http://www.w3.org/2000/svg" xmlns:xlink="http://www.w3.org/1999/xlink" x="0px" y="0px"
	 viewBox="0 0 367 335" enable-background="new 0 0 367 335" xml:space="preserve">
<g>
	<g opacity="0.3">
		
			<ellipse transform="matrix(-1 5.935785e-03 -5.935785e-03 -1 165.5933 632.705)" fill="#3F3F3F" cx="81.9" cy="316.6" rx="77.3" ry="18.8"/>
	</g>
	<g opacity="0.3">
		
			<ellipse transform="matrix(-1 5.935785e-03 -5.935785e-03 -1 581.0318 631.472)" fill="#3F3F3F" cx="289.6" cy="316.6" rx="77.3" ry="18.8"/>
	</g>
	<g>
		<g>
			<g>
				<path fill="#5C539E" d="M120.2,66.4h-16.9l-9.6,6.7l-9.9,6.9l-9.9-6.9l-9.6-6.7H44.3c-5.7,0-10.4,4.7-10.4,10.4l12.9,94.6
					c0,0.8,0.1,1.6,0.3,2.5h67.7c0.2-0.9,0.2-1.7,0.2-2.5l15.5-94.6C130.6,71,125.9,66.4,120.2,66.4z"/>
			</g>
			<g>
				<g>
					<circle fill="#EC9B00" cx="46.9" cy="93.3" r="6.4"/>
				</g>
				<g>
					<circle fill="#07488E" cx="46.9" cy="93.3" r="6.2"/>
				</g>
				<g>
					<circle fill="#EC9B00" cx="46.9" cy="93.3" r="4.5"/>
				</g>
				<g>
					<circle fill="#F6F4F4" cx="46.9" cy="93.3" r="4.3"/>
				</g>
				<g>
					<circle fill="#F6F4F4" cx="41.8" cy="92" r="0.6"/>
				</g>
				<g>
					<path fill="#F6F4F4" d="M41.7,94.1c0.1,0,0.2,0,0.2,0c0,0,0.3,0,0.3,0.1c0,0,0,0.1,0,0.1s0,0,0.1,0c0.1,0,0.2,0.1,0.2,0.3
						c0,0,0,0.1,0,0.2c0,0.1-0.1,0.1-0.1,0.1c0,0,0,0,0,0.1s-0.1,0.2-0.2,0.2c0,0-0.2,0.1-0.2,0.1c-0.1,0-0.2-0.1-0.2-0.1
						c0,0,0,0.1-0.1,0.1c-0.1,0-0.2-0.1-0.2-0.2c0,0-0.2-0.1-0.2-0.2c0-0.1,0.1-0.1,0.1-0.1s-0.1,0-0.1-0.2c0-0.1,0.1-0.2,0.1-0.2
						s0.1-0.2,0.2-0.2c0,0,0.1,0,0.1,0C41.5,94.2,41.5,94.1,41.7,94.1z"/>
				</g>
				<g>
					<path fill="#E52837" d="M41.8,94.5c0-0.1,0.1-0.1,0.1-0.1c0,0,0,0.1,0,0.2c0,0,0,0,0.1,0c0.1-0.1,0.2-0.2,0.2-0.3
						c0-0.1-0.2-0.1-0.2-0.1s-0.2,0-0.2,0c-0.1,0-0.1,0-0.1,0.1C41.6,94.3,41.7,94.4,41.8,94.5C41.7,94.5,41.7,94.5,41.8,94.5z"/>
				</g>
				<g>
					<path fill="#E52837" d="M42.3,94.6c0,0,0-0.2,0-0.2c0-0.1-0.1-0.1-0.1-0.1c0,0-0.2,0.1-0.2,0.2c0,0,0,0,0,0.1
						c0.1,0,0.2,0,0.2,0c0,0-0.1,0-0.1,0.1c0,0,0,0,0,0c0.1,0,0.2,0.1,0.3,0.1C42.4,94.8,42.3,94.7,42.3,94.6z"/>
				</g>
				<g>
					<path fill="#E52837" d="M42.2,95c0,0-0.2-0.1-0.3-0.1c0,0,0,0,0,0c0,0.1,0,0.2,0,0.2c0,0-0.1,0-0.1-0.1c0,0,0,0,0,0
						c0,0.1,0,0.3,0,0.3c0.1,0.1,0.2,0,0.2-0.1c0,0,0.1-0.1,0.2-0.1C42.3,95.1,42.3,95,42.2,95z"/>
				</g>
				<g>
					<path fill="#E52837" d="M41.5,95c0,0,0-0.1,0.1-0.2c0,0,0,0,0-0.1c-0.1,0-0.3,0.1-0.3,0.1c-0.1,0.1,0.1,0.2,0.1,0.2
						c0,0,0.1,0.1,0.1,0.1c0.1,0.1,0.1,0,0.1,0c0,0,0.1-0.2,0.1-0.3c0,0,0,0,0,0C41.6,95,41.5,95,41.5,95z"/>
				</g>
				<g>
					<path fill="#E52837" d="M41.6,94.7C41.6,94.7,41.6,94.7,41.6,94.7c-0.1-0.1-0.1-0.1-0.1-0.1s0.1,0,0.2,0c0,0,0,0,0.1-0.1
						c0-0.1-0.1-0.2-0.2-0.2c-0.1,0-0.1,0.1-0.1,0.2c0,0-0.1,0.1-0.1,0.2c0,0.1,0,0.1,0.1,0.1C41.3,94.8,41.5,94.7,41.6,94.7
						C41.6,94.7,41.6,94.7,41.6,94.7z"/>
				</g>
				<g>
					<circle fill="#E52837" cx="41.8" cy="94.7" r="0.1"/>
				</g>
				<g>
					<path fill="#F6F4F4" d="M52.2,94.1c-0.1,0-0.2,0-0.2,0s-0.3,0-0.3,0.1c0,0,0,0.1,0,0.1s0,0-0.1,0c-0.1,0-0.2,0.1-0.2,0.3
						c0,0,0,0.1,0,0.2c0,0.1,0.1,0.1,0.1,0.1c0,0,0,0,0,0.1s0.1,0.2,0.2,0.2c0,0,0.2,0.1,0.2,0.1c0.1,0,0.2-0.1,0.2-0.1
						c0,0,0,0.1,0.1,0.1c0.1,0,0.2-0.1,0.2-0.2c0,0,0.2-0.1,0.2-0.2c0-0.1-0.1-0.1-0.1-0.1s0.1,0,0.1-0.2c0-0.1-0.1-0.2-0.1-0.2
						s-0.1-0.2-0.2-0.2c0,0-0.1,0-0.1,0C52.4,94.2,52.4,94.1,52.2,94.1z"/>
				</g>
				<g>
					<path fill="#E52837" d="M52.1,94.5c0-0.1-0.1-0.1-0.1-0.1s0,0.1,0,0.2c0,0,0,0-0.1,0c-0.1-0.1-0.2-0.2-0.2-0.3
						c0-0.1,0.2-0.1,0.2-0.1c0,0,0.2,0,0.2,0c0.1,0,0.1,0,0.1,0.1C52.3,94.3,52.2,94.4,52.1,94.5C52.2,94.5,52.2,94.5,52.1,94.5z"/>
				</g>
				<g>
					<path fill="#E52837" d="M51.6,94.6c0,0,0-0.2,0-0.2c0-0.1,0.1-0.1,0.1-0.1c0,0,0.2,0.1,0.2,0.2c0,0,0,0,0,0.1
						c-0.1,0-0.2,0-0.2,0c0,0,0.1,0,0.1,0.1c0,0,0,0,0,0c-0.1,0-0.2,0.1-0.3,0.1C51.5,94.8,51.5,94.7,51.6,94.6z"/>
				</g>
				<g>
					<path fill="#E52837" d="M51.6,95c0,0,0.2-0.1,0.3-0.1c0,0,0,0,0,0c0,0.1,0,0.2,0,0.2c0,0,0.1,0,0.1-0.1c0,0,0,0,0,0
						c0,0.1,0,0.3,0,0.3c-0.1,0.1-0.2,0-0.2-0.1c0,0-0.1-0.1-0.2-0.1C51.6,95.1,51.6,95,51.6,95z"/>
				</g>
				<g>
					<path fill="#E52837" d="M52.4,95c0,0,0-0.1-0.1-0.2c0,0,0,0,0-0.1c0.1,0,0.3,0.1,0.3,0.1c0.1,0.1-0.1,0.2-0.1,0.2
						c0,0-0.1,0.1-0.1,0.1c-0.1,0.1-0.1,0-0.1,0c0,0-0.1-0.2-0.1-0.3c0,0,0,0,0,0C52.3,95,52.4,95,52.4,95z"/>
				</g>
				<g>
					<path fill="#E52837" d="M52.3,94.7C52.3,94.7,52.3,94.7,52.3,94.7c0.1-0.1,0.1-0.1,0.1-0.1s-0.1,0-0.2,0c0,0,0,0-0.1-0.1
						c0-0.1,0.1-0.2,0.2-0.2c0.1,0,0.1,0.1,0.1,0.2c0,0,0.1,0.1,0.1,0.2c0,0.1,0,0.1-0.1,0.1C52.6,94.8,52.4,94.7,52.3,94.7
						C52.3,94.7,52.3,94.7,52.3,94.7z"/>
				</g>
				<g>
					<circle fill="#E52837" cx="52.1" cy="94.7" r="0.1"/>
				</g>
				<g>
					<g>
						<path fill="#E52837" d="M42.1,91.9C42.1,91.9,42.1,91.9,42.1,91.9l-0.3,0.5c0,0,0.1,0,0.1,0.1C42,92.3,42.1,92.1,42.1,91.9z"
							/>
					</g>
					<g>
						<path fill="#E52837" d="M42.2,91.8c0,0-0.1-0.1-0.2-0.1c-0.1,0-0.1,0-0.1,0c0.1,0.1,0.1,0.1,0.2,0.1
							C42.2,91.8,42.2,91.8,42.2,91.8C42.3,91.8,42.3,91.8,42.2,91.8z"/>
					</g>
					<g>
						<path fill="#E52837" d="M41.9,92.1c-0.2-0.1-0.5-0.3-0.6-0.3c0,0,0,0.1-0.1,0.1c0.1,0.1,0.5,0.3,0.6,0.3L41.9,92.1z"/>
					</g>
					<g>
						<path fill="#E52837" d="M41.5,92.4C41.5,92.3,41.5,92.3,41.5,92.4C41.5,92.4,41.5,92.4,41.5,92.4c0,0.1,0,0.1,0.1,0.1
							C41.6,92.5,41.5,92.4,41.5,92.4z"/>
					</g>
					<g>
						<path fill="#E52837" d="M41.9,92.2c-0.1,0-0.5-0.2-0.6-0.3c0,0,0,0,0,0.1c0,0,0,0.1,0,0.1c0.1,0.1,0.3,0.2,0.5,0.3L41.9,92.2z
							"/>
					</g>
					<g>
						<path fill="#E52837" d="M41.9,92l0.1-0.2c-0.1-0.1-0.4-0.3-0.5-0.3c-0.1,0-0.1,0.1-0.1,0.1C41.5,91.7,41.8,92,41.9,92z"/>
					</g>
					<g>
						<path fill="#E52837" d="M41.9,92.5C41.8,92.5,41.8,92.5,41.9,92.5c-0.1-0.1-0.2-0.1-0.3-0.1c0,0,0.1,0.1,0.1,0.1
							C41.7,92.5,41.8,92.5,41.9,92.5C41.8,92.5,41.8,92.5,41.9,92.5C41.9,92.5,41.9,92.5,41.9,92.5z"/>
					</g>
					<g>
						<path fill="#E52837" d="M41.4,92.3c0,0-0.1,0-0.1-0.1C41.3,92.3,41.4,92.3,41.4,92.3C41.4,92.4,41.4,92.3,41.4,92.3z"/>
					</g>
					<g>
						<path fill="#E52837" d="M42,91.5c-0.1,0-0.2,0-0.2,0.1c0,0,0.1,0,0.1,0.1c0,0,0.1,0,0.2,0c0.1,0,0.1,0,0.2,0
							c0,0-0.1-0.1-0.1-0.1C42,91.6,42,91.5,42,91.5z"/>
					</g>
					<g>
						<path fill="#E52837" d="M42.2,91.9c0,0.3-0.1,0.4-0.2,0.6c0.2-0.1,0.4-0.3,0.4-0.5c0,0,0-0.1,0-0.1
							C42.3,91.9,42.2,91.9,42.2,91.9z"/>
					</g>
					<g>
						<path fill="#E52837" d="M41.7,91.6c0.1-0.1,0.1-0.1,0.3-0.1c-0.1,0-0.1,0-0.2,0c-0.1,0-0.2,0-0.2,0.1
							C41.6,91.5,41.6,91.6,41.7,91.6z"/>
					</g>
				</g>
				<g>
					<circle fill="#F6F4F4" cx="52" cy="92" r="0.6"/>
				</g>
				<g>
					<g>
						<path fill="#E52837" d="M51.7,91.9C51.7,91.9,51.7,91.9,51.7,91.9l0.3,0.5c0,0-0.1,0-0.1,0.1C51.8,92.3,51.7,92.1,51.7,91.9z"
							/>
					</g>
					<g>
						<path fill="#E52837" d="M51.6,91.8c0,0,0.1-0.1,0.2-0.1c0.1,0,0.1,0,0.1,0c-0.1,0.1-0.1,0.1-0.2,0.1
							C51.7,91.8,51.6,91.8,51.6,91.8C51.5,91.8,51.6,91.8,51.6,91.8z"/>
					</g>
					<g>
						<path fill="#E52837" d="M51.9,92.1c0.2-0.1,0.5-0.3,0.6-0.3c0,0,0,0.1,0.1,0.1c-0.1,0.1-0.5,0.3-0.6,0.3L51.9,92.1z"/>
					</g>
					<g>
						<path fill="#E52837" d="M52.3,92.4C52.3,92.3,52.3,92.3,52.3,92.4C52.4,92.4,52.3,92.4,52.3,92.4c0,0.1,0,0.1-0.1,0.1
							C52.2,92.5,52.3,92.4,52.3,92.4z"/>
					</g>
					<g>
						<path fill="#E52837" d="M52,92.2c0.1,0,0.5-0.2,0.6-0.3c0,0,0,0,0,0.1c0,0,0,0.1,0,0.1c-0.1,0.1-0.3,0.2-0.5,0.3L52,92.2z"/>
					</g>
					<g>
						<path fill="#E52837" d="M51.9,92l-0.1-0.2c0.1-0.1,0.4-0.3,0.5-0.3c0.1,0,0.1,0.1,0.1,0.1C52.3,91.7,52,92,51.9,92z"/>
					</g>
					<g>
						<path fill="#E52837" d="M51.9,92.5C52,92.5,52,92.5,51.9,92.5c0.1-0.1,0.2-0.1,0.3-0.1c0,0-0.1,0.1-0.1,0.1
							C52.1,92.5,52.1,92.5,51.9,92.5C52,92.5,52,92.5,51.9,92.5C51.9,92.5,51.9,92.5,51.9,92.5z"/>
					</g>
					<g>
						<path fill="#E52837" d="M52.4,92.3c0,0,0.1,0,0.1-0.1C52.5,92.3,52.4,92.3,52.4,92.3C52.4,92.4,52.4,92.3,52.4,92.3z"/>
					</g>
					<g>
						<path fill="#E52837" d="M51.9,91.5c0.1,0,0.2,0,0.2,0.1c0,0-0.1,0-0.1,0.1c0,0-0.1,0-0.2,0c-0.1,0-0.1,0-0.2,0
							c0,0,0.1-0.1,0.1-0.1C51.8,91.6,51.8,91.5,51.9,91.5z"/>
					</g>
					<g>
						<path fill="#E52837" d="M51.6,91.9c0,0.3,0.1,0.4,0.2,0.6c-0.2-0.1-0.4-0.3-0.4-0.5c0,0,0-0.1,0-0.1
							C51.5,91.9,51.6,91.9,51.6,91.9z"/>
					</g>
					<g>
						<path fill="#E52837" d="M52.1,91.6c-0.1-0.1-0.1-0.1-0.3-0.1c0.1,0,0.1,0,0.2,0c0.1,0,0.2,0,0.2,0.1
							C52.2,91.5,52.2,91.6,52.1,91.6z"/>
					</g>
				</g>
				<g>
					<path fill="#D0D2D4" d="M50,93.3c0-0.3-0.2-0.4-0.5-0.4c-0.3,0-0.5,0.2-0.5,0.2s0.1-0.2,0.4-0.5c0.3-0.2,0.5-0.4,0.5-0.7
						c0-0.3-0.2-0.5-0.5-0.5c-0.5,0-0.6,0.4-0.6,0.4c0,0.1,0,0.1,0,0.1s0-0.2,0.2-0.2c0.1,0,0.2,0.2,0.2,0.2c0,0.1,0,0.1-0.3,0.4
						c-0.3,0.2-0.5,0.4-0.5,0.7c0,0.3,0.1,0.5,0.4,0.7c0.2,0.2,0.2,0.3,0.2,0.5c0,0.1-0.1,0.3-0.3,0.3c-0.2,0-0.5-0.1-0.6-0.4
						c-0.1-0.3-0.1-0.5-0.2-0.7c0-0.2-0.1-0.4-0.2-0.4l0-0.2c0,0,0,0,0.1,0c0.2,0,0.3-0.2,0.3-0.3c0-0.2-0.1-0.3-0.1-0.3
						s0,0.1-0.2,0.1s-0.3-0.1-0.3-0.3c0-0.2,0.1-0.3,0.2-0.3c0.2,0,0.3,0.2,0.3,0.2c0-0.1,0-0.2,0-0.4c0,0,0,0-0.1,0
						c-0.1,0-0.1,0-0.1-0.1c0-0.1,0.1-0.2,0.2-0.2c0.2,0,0.2,0.1,0.2,0.1s0.1-0.2,0.2-0.2c0,0,0-0.1,0-0.1l0.1,0l0.1-0.1
						c0-0.1-0.1-0.1-0.2-0.1c0,0-0.1-0.1-0.1-0.1c-0.1,0-0.9-0.1-0.9-0.5c-0.1,0-0.3,0.2-0.3,0.3c0,0,0,0.1,0,0.1
						c-0.1,0-0.4,0-0.5,0.2c0.1,0,0.2,0,0.2,0.2s-0.2,0.3-0.3,0.3c-0.2,0-0.2-0.1-0.2-0.1c-0.1,0-0.1,0.3,0.1,0.4
						c0,0.1-0.2,0.5-0.2,0.5c-0.3,0-0.6-0.1-0.7-0.1c-0.2-0.1-0.4-0.3-0.5-0.3v-0.1c0.2-0.1,0.5-0.3,0.5-0.6c0-0.3-0.2-0.6-0.6-0.6
						c-0.4,0-0.6,0.4-0.6,0.6c0,0.3,0.3,0.5,0.4,0.5c0,0.1-0.2,0.1-0.2,0.1c0,0,0.1,0.1,0.2,0.1v0.1c-0.1,0-0.2,0.1-0.2,0.2
						c0,0.1,0.1,0.1,0.1,0.1c0,0-0.1,0.1-0.1,0.1c0,0.1,0.1,0.1,0.1,0.1s0,0.2,0.2,0.2v1.3c0,0-0.1,0.1-0.2,0.2c0,0-0.2-0.1-0.2,0.2
						c0.1-0.1,0.1-0.1,0.1-0.1c0,0-0.1,0.1-0.1,0.2s0,0.1,0,0.1c0-0.1,0.1,0,0.1,0c0,0.2,0,0.2,0.1,0.2v0.9H45v0.3h0.1
						c-0.1,0-0.1,0.1-0.1,0.2c0,0.1,0.1,0.2,0.2,0.2s0.2-0.1,0.2-0.2c0-0.1-0.1-0.2-0.1-0.2h0.1v-0.3h-0.1v-0.8c0,0,0,0,0.1,0
						c0-0.2,0.2-0.4,0.4-0.4c0.2,0,0.3,0.1,0.3,0.1c0.5-0.2,0.8-0.5,0.8-0.5c0,0,0.2,0.4,0.2,0.4c-0.2,0.1-1,0.6-1,1
						c0,0.2,0.2,0.3,0.2,0.3c0,0.6-0.3,0.7-0.4,0.7c-0.1,0-0.2,0-0.3,0c-0.1,0-0.4,0.1-0.4,0.3c0,0.1,0,0.2,0,0.2s0,0,0,0.1
						c0,0.1,0.1,0.2,0.1,0.2c0-0.2,0.1-0.2,0.3-0.2c0,0.1,0,0.2,0.2,0.3c0-0.3,0.2-0.3,0.3-0.3c0,0.1,0,0.2,0.2,0.2
						c0-0.1,0-0.2,0.2-0.2c0.2,0,0.3-0.1,0.3-0.4c0-0.1,0.1-0.4,0.6-0.5c-0.3-0.1-0.4-0.2-0.4-0.3c0-0.2,0.4-0.4,0.5-0.4
						c0.2,0.4,0.5,0.5,0.7,0.5c0,0,0.1,0.1,0.1,0.2c0,0.2-0.1,0.3-0.1,0.3c0,0-0.6,0-0.6,0.3c0,0.1,0,0.1,0,0.1c0,0,0,0.2,0.1,0.2
						c0-0.1,0.1-0.2,0.3-0.2c0,0.1,0,0.2,0.1,0.2c0-0.1,0-0.2,0.3-0.2c0,0.1,0,0.2,0.1,0.2c0-0.1,0.1-0.2,0.2-0.2
						c0.1,0,0.1,0,0.1-0.2s0-0.4,0-0.5c0-0.2,0.2-0.6,0.4-0.8c-0.1,0-0.2,0.1-0.3,0.1c-0.5,0-0.7-0.6-0.7-0.6c0,0,0.3,0.3,0.7,0.3
						c0.4,0,0.6-0.3,0.6-0.5c0-0.5-0.4-0.7-0.4-0.9c0-0.1,0.1-0.2,0.2-0.2c0.1,0,0.3,0.1,0.3,0.3c0,0.1-0.1,0.2-0.1,0.2
						C49.9,93.7,50,93.4,50,93.3z M45.2,90.9c-0.1,0-0.1-0.1-0.1-0.1c0-0.1,0-0.1,0.1-0.1c0.1,0,0.1,0,0.1,0.1
						C45.4,90.9,45.3,90.9,45.2,90.9z M45.8,93.4c-0.1,0.1-0.3,0.2-0.4,0.2v-1.2c0.1,0,0.5,0.1,0.5,0.3c0,0.1-0.1,0.2-0.2,0.2
						c0,0.1,0.2,0.1,0.3,0.1c0.3,0,0.4-0.2,0.4-0.2c0,0,0.1,0.1,0.1,0.2C46.3,93,46,93.3,45.8,93.4z"/>
				</g>
				<g>
					<path fill="#D0D2D4" d="M48.7,91.3L48.7,91.3c-0.1,0.1,0,0.2,0.2,0.2c0.3,0,0.3-0.3,0.3-0.3c0,0-0.1,0.2-0.3,0.2
						C48.7,91.3,48.7,91.3,48.7,91.3z"/>
				</g>
				<g>
					<path fill="#07488E" d="M49.8,93.2c0-0.3-0.2-0.4-0.5-0.4c-0.3,0-0.5,0.2-0.5,0.2s0.1-0.2,0.4-0.5c0.3-0.2,0.5-0.4,0.5-0.7
						c0-0.3-0.2-0.5-0.5-0.5c-0.5,0-0.6,0.4-0.6,0.4c0,0.1,0,0.1,0,0.1s0-0.2,0.2-0.2c0.1,0,0.2,0.2,0.2,0.2c0,0.1,0,0.1-0.3,0.4
						c-0.3,0.2-0.5,0.4-0.5,0.7c0,0.3,0.1,0.5,0.4,0.7C49,93.9,49,94,49,94.1c0,0.1-0.1,0.3-0.3,0.3c-0.2,0-0.5-0.1-0.6-0.4
						C48,93.7,48,93.5,48,93.3c0-0.2-0.1-0.4-0.2-0.4l0-0.2c0,0,0,0,0.1,0c0.2,0,0.3-0.2,0.3-0.3c0-0.2-0.1-0.3-0.1-0.3
						s0,0.1-0.2,0.1s-0.3-0.1-0.3-0.3c0-0.2,0.1-0.3,0.2-0.3c0.2,0,0.3,0.2,0.3,0.2c0-0.1,0-0.2,0-0.4c0,0,0,0-0.1,0
						c-0.1,0-0.1,0-0.1-0.1c0-0.1,0.1-0.2,0.2-0.2c0.2,0,0.1,0.1,0.1,0.1s0.2-0.3,0.2-0.3c0,0,0-0.1,0-0.1l0.1,0l0.1-0.1
						c0-0.1-0.1-0.1-0.2-0.1c0,0-0.1-0.1-0.1-0.1c-0.1,0-0.9-0.1-0.9-0.5c-0.1,0-0.3,0.2-0.3,0.3c0,0,0,0.1,0,0.1
						c-0.1,0-0.4,0-0.5,0.2c0.1,0,0.2,0,0.2,0.2S46.8,91,46.6,91c-0.2,0-0.2-0.1-0.2-0.1c-0.1,0-0.1,0.3,0.1,0.4
						c0,0.1-0.2,0.5-0.2,0.5c-0.3,0-0.6-0.1-0.7-0.1c-0.2-0.1-0.4-0.3-0.5-0.3v-0.1c0.2-0.1,0.5-0.3,0.5-0.6c0-0.3-0.2-0.6-0.6-0.6
						c-0.4,0-0.6,0.4-0.6,0.6c0,0.3,0.3,0.5,0.4,0.5c0,0.1-0.2,0.1-0.2,0.1c0,0,0.1,0.1,0.2,0.1v0.1c-0.1,0-0.2,0.1-0.2,0.2
						c0,0.1,0.1,0.1,0.1,0.1c0,0-0.1,0.1-0.1,0.1c0,0.1,0.1,0.1,0.1,0.1s0,0.2,0.2,0.2v1.3c0,0-0.1,0.1-0.2,0.2c0,0-0.2,0-0.2,0.3
						c0.1-0.1,0.1-0.1,0.1-0.1c0,0-0.1,0.1-0.1,0.2c0,0.1,0,0.1,0,0.1c0-0.1,0.1-0.1,0.1-0.1c0,0.2,0,0.2,0.1,0.2v0.9h-0.1v0.3H45
						c-0.1,0-0.1,0.1-0.1,0.2c0,0.1,0.1,0.2,0.2,0.2s0.2-0.1,0.2-0.2c0-0.1-0.1-0.2-0.1-0.2h0.1v-0.3h-0.1v-0.8c0,0,0,0,0.1,0
						c0-0.2,0.2-0.4,0.4-0.4c0.2,0,0.3,0.1,0.3,0.1c0.5-0.2,0.8-0.5,0.8-0.5S47,94,47,94c-0.2,0.1-1,0.6-1,1c0,0.2,0.2,0.3,0.2,0.3
						c0,0.6-0.3,0.7-0.4,0.7s-0.2,0-0.3,0c-0.1,0-0.4,0.1-0.4,0.3c0,0.1,0,0.2,0,0.2s0,0,0,0.1c0,0.1,0.1,0.2,0.1,0.2
						c0-0.2,0.1-0.2,0.3-0.2c0,0.1,0,0.2,0.2,0.3c0-0.3,0.2-0.3,0.3-0.3c0,0.1,0,0.2,0.2,0.2c0-0.1,0-0.2,0.2-0.2
						c0.2,0,0.3-0.1,0.3-0.4c0-0.1,0.1-0.4,0.6-0.5c-0.3-0.1-0.4-0.2-0.4-0.3c0-0.2,0.4-0.4,0.5-0.4c0.2,0.4,0.5,0.5,0.7,0.5
						c0,0,0.1,0.1,0.1,0.2c0,0.2-0.1,0.3-0.1,0.3c0,0-0.6,0-0.6,0.3c0,0.1,0,0.1,0,0.1c0,0,0,0.2,0.1,0.2c0-0.1,0.1-0.2,0.3-0.2
						c0,0.1,0,0.2,0.1,0.2c0-0.1,0-0.2,0.3-0.2c0,0.1,0,0.2,0.1,0.2c0-0.1,0.1-0.2,0.2-0.2c0.1,0,0.1,0,0.1-0.2s0-0.4,0-0.5
						c0-0.2,0.2-0.6,0.4-0.8c-0.1,0-0.2,0.1-0.3,0.1c-0.5,0-0.7-0.6-0.7-0.6c0,0,0.3,0.3,0.7,0.3c0.4,0,0.6-0.3,0.6-0.5
						c0-0.5-0.4-0.7-0.4-0.9c0-0.1,0.1-0.2,0.2-0.2c0.1,0,0.3,0.1,0.3,0.3c0,0.1-0.1,0.2-0.1,0.2C49.7,93.5,49.8,93.3,49.8,93.2z
						 M45.1,90.8c-0.1,0-0.1-0.1-0.1-0.1c0-0.1,0.1-0.1,0.1-0.1c0.1,0,0.1,0.1,0.1,0.1C45.2,90.7,45.1,90.8,45.1,90.8z M45.6,93.2
						c-0.1,0.1-0.3,0.2-0.4,0.2v-1.2c0.1,0,0.5,0.1,0.5,0.3c0,0.1-0.1,0.2-0.2,0.2c0,0.1,0.2,0.1,0.3,0.1c0.3,0,0.4-0.2,0.4-0.2
						s0.1,0.1,0.1,0.2C46.2,92.8,45.8,93.1,45.6,93.2z"/>
				</g>
				<g>
					<path fill="#667EB9" d="M47,90.7c0,0.2-0.2,0.3-0.3,0.3l0,0C46.9,91,47.1,90.9,47,90.7c0.1-0.2,0-0.3-0.1-0.3s-0.2,0.1-0.2,0.1
						C46.8,90.5,47,90.6,47,90.7z"/>
				</g>
				<g>
					<path fill="#667EB9" d="M45.4,90.6c0-0.1-0.1-0.2-0.2-0.2c-0.2,0-0.2,0.1-0.2,0.2c0,0.1,0.1,0.2,0.2,0.2V91
						C45.3,90.8,45.4,90.7,45.4,90.6z M45.1,90.8c-0.1,0-0.1-0.1-0.1-0.1c0-0.1,0.1-0.1,0.1-0.1c0.1,0,0.1,0.1,0.1,0.1
						C45.2,90.7,45.1,90.8,45.1,90.8z"/>
				</g>
				<g>
					<path fill="#667EB9" d="M44.5,90.6c0,0.3,0.3,0.5,0.4,0.5c-0.1-0.1-0.3-0.3-0.3-0.5c0-0.2,0.1-0.4,0.3-0.6
						C44.6,90.1,44.5,90.4,44.5,90.6z"/>
				</g>
				<g>
					<path fill="#667EB9" d="M44.9,91.4c0,0,0.1,0,0.1,0.1v-0.1C45.1,91.3,45,91.3,44.9,91.4L44.9,91.4z"/>
				</g>
				<g>
					<path fill="#667EB9" d="M45.2,91.4v0.1c0,0,0.2,0.1,0.4,0.1C45.4,91.5,45.3,91.4,45.2,91.4z"/>
				</g>
				<g>
					<path fill="#667EB9" d="M44.8,91.5c0.1,0,0.3,0.1,0.3,0.2c0,0-0.2,0-0.2,0C44.8,91.7,44.8,91.7,44.8,91.5
						C44.8,91.5,44.8,91.5,44.8,91.5z"/>
				</g>
				<g>
					<path fill="#667EB9" d="M44.9,91.7c0,0,0.3,0.1,0.3,0.1c0,0-0.2,0.1-0.3,0.1S44.8,91.9,44.9,91.7
						C44.8,91.8,44.8,91.7,44.9,91.7z"/>
				</g>
				<g>
					<path fill="#667EB9" d="M44.9,92c0,0,0.2,0,0.2,0s-0.1,0.1-0.2,0.1C44.9,92.1,44.8,92.1,44.9,92C44.8,92,44.8,92,44.9,92z"/>
				</g>
				<g>
					<path fill="#667EB9" d="M45.7,93.4c0.1,0,1-0.5,1.1-0.6c0,0-0.3,0-0.4,0c-0.2,0.1-0.6,0.3-0.7,0.4c-0.1,0.1-0.3,0.2-0.4,0.2
						c-0.1,0-0.1,0-0.1,0c0,0,0-1,0-1.1s-0.1-0.1-0.1-0.1v1.3c0,0-0.1,0.1-0.2,0.2c0,0-0.2,0-0.2,0.3c0-0.1,0.1-0.2,0.2-0.2
						c0-0.1,0.3-0.1,0.4-0.1S45.6,93.5,45.7,93.4z"/>
				</g>
				<g>
					<path fill="#667EB9" d="M44.7,93.8c0,0-0.1,0.1-0.1,0.2c0,0,0,0.1,0,0.1c0-0.1,0.2-0.2,0.2-0.2S44.8,93.8,44.7,93.8z"/>
				</g>
				<g>
					<path fill="#667EB9" d="M45,94c0,0,0,0-0.1,0c0,0.2,0,0.2,0.1,0.2C44.9,94.1,45,94,45,94z"/>
				</g>
				<g>
					<path fill="#667EB9" d="M45.1,95.2c0,0,0-1.1,0-1.1c-0.1,0-0.1,0.1-0.1,0.1v0.9h-0.1v0.1C45,95.3,45.1,95.3,45.1,95.2z"/>
				</g>
				<g>
					<path fill="#667EB9" d="M45.1,95.6c0-0.1-0.1-0.1-0.1-0.1c0,0-0.1,0-0.1,0c0,0-0.1,0.1-0.1,0.1c0,0,0,0,0,0
						c0,0,0.1,0.1,0.1,0.1C45.1,95.7,45.1,95.7,45.1,95.6z"/>
				</g>
				<g>
					<path fill="#667EB9" d="M45.2,94.4C45.2,94.4,45.2,94.4,45.2,94.4c0.1,0,0-0.1,0-0.1c0,0,0-0.1,0-0.1s0,0-0.1,0
						C45.1,94.2,45.1,94.3,45.2,94.4z"/>
				</g>
				<g>
					<path fill="#667EB9" d="M45.1,96.5c0,0.1,0.1,0.2,0.1,0.2c0,0,0,0,0,0C45.3,96.6,45.2,96.6,45.1,96.5c0.1,0,0.2-0.1,0.2-0.1
						L45.1,96.5C45.2,96.4,45.1,96.4,45.1,96.5z"/>
				</g>
				<g>
					<path fill="#667EB9" d="M45.7,96.4h-0.2c0,0.1,0,0.2,0.2,0.3c0,0-0.1-0.1-0.1-0.2C45.7,96.5,45.7,96.4,45.7,96.4z"/>
				</g>
				<g>
					<path fill="#667EB9" d="M46.2,96.7c-0.1-0.1-0.1-0.2-0.1-0.2H46C46,96.5,46,96.6,46.2,96.7C46.2,96.7,46.2,96.7,46.2,96.7z"/>
				</g>
				<g>
					<path fill="#667EB9" d="M48.1,96.1c0,0,0.2-0.3,0.2-0.6c0-0.2-0.1-0.3-0.1-0.3c-0.4,0-0.5-0.2-0.5-0.3c0,0-0.1,0-0.2,0
						c-0.1,0-0.1,0-0.1,0c0.2,0.4,0.5,0.5,0.7,0.5c0,0,0.1,0.1,0.1,0.2c0,0.2-0.1,0.3-0.1,0.3c0,0-0.6,0-0.6,0.3c0,0.1,0,0.1,0,0.1
						C47.4,96.2,47.5,96.1,48.1,96.1z"/>
				</g>
				<g>
					<path fill="#667EB9" d="M47.4,96.6C47.4,96.5,47.5,96.5,47.4,96.6L47.4,96.6c-0.1-0.1-0.1,0.1,0,0.1
						C47.5,96.7,47.4,96.7,47.4,96.6z"/>
				</g>
				<g>
					<path fill="#667EB9" d="M47.9,96.6C47.9,96.6,48,96.5,47.9,96.6L47.9,96.6c-0.1,0-0.1,0.1,0.1,0.1v0
						C48,96.8,47.9,96.7,47.9,96.6z"/>
				</g>
				<g>
					<path fill="#667EB9" d="M48.6,93c0-0.3,0.2-0.5,0.5-0.7c0.2-0.2,0.3-0.3,0.3-0.5c0-0.2-0.2-0.3-0.3-0.3c-0.1,0-0.3,0.1-0.3,0.2
						c0-0.1,0.1-0.1,0.2-0.1c0.1,0,0.2,0.2,0.2,0.2c0,0.1,0,0.1-0.3,0.4c-0.3,0.2-0.5,0.4-0.5,0.7c0,0.3,0.1,0.5,0.4,0.7
						C49,93.9,49,94,49,94.1c0,0.1-0.1,0.3-0.3,0.3c-0.2,0-0.4-0.1-0.6-0.3c0,0.1,0.2,0.4,0.7,0.4c0.4,0,0.4-0.3,0.4-0.4
						c0-0.2-0.1-0.4-0.3-0.6S48.6,93.2,48.6,93z"/>
				</g>
				<g>
					<path fill="#667EB9" d="M49.3,93c-0.2,0-0.3,0.2-0.3,0.3l0,0c0-0.1,0.1-0.1,0.2-0.1c0.1,0,0.3,0.1,0.3,0.3
						c0,0.1-0.1,0.2-0.1,0.2c0,0,0,0,0.1,0c0.1-0.1,0.1-0.2,0.1-0.2C49.6,93.2,49.6,93,49.3,93z"/>
				</g>
				<g>
					<path fill="#667EB9" d="M48.4,96.7c0,0-0.1-0.1-0.1-0.1c0,0,0,0,0,0h-0.1C48.2,96.6,48.3,96.7,48.4,96.7z"/>
				</g>
				<g>
					<g>
						<path fill="#F6F4F4" d="M48,90.6C48,90.7,48,90.7,48,90.6h0.1H48z"/>
					</g>
					<g>
						<path fill="#F6F4F4" d="M47.9,90.6h-0.2c0,0.1,0.2,0.2,0.2,0.2l0,0C47.9,90.7,47.9,90.7,47.9,90.6z"/>
					</g>
				</g>
				<g>
					<path fill="#667EB9" d="M45.7,92.5c0,0.1-0.1,0.2-0.2,0.2c0,0,0,0,0.1,0C45.6,92.7,45.8,92.7,45.7,92.5
						c0.1-0.1-0.1-0.2-0.2-0.2C45.6,92.4,45.7,92.4,45.7,92.5z"/>
				</g>
				<g>
					<path fill="#E52837" d="M48.5,91.1L48.5,91.1c-0.1,0.1,0,0.2,0.2,0.2c0.3,0,0.3-0.3,0.3-0.3c0,0-0.1,0.2-0.3,0.2
						C48.5,91.1,48.5,91.1,48.5,91.1z"/>
				</g>
				<g>
					<path fill="#667EB9" d="M47.2,90.2C47.2,90.3,47.2,90.3,47.2,90.2c0,0.1-0.1,0.1-0.2,0.1c0.1,0,0.5,0,0.5,0s-0.1-0.1-0.1-0.1
						s0.1-0.3,0.2-0.3C47.4,89.9,47.2,90.1,47.2,90.2z"/>
				</g>
				<g>
					<path fill="#EC9B00" d="M43.7,88.7c0,0-0.1,0-0.2,0c-0.2,0-0.6,0.1-0.6,0.6c0,0.4,0.4,0.6,0.7,0.6c0.3,0,0.6-0.3,0.6-0.6
						c0-0.2-0.1-0.3-0.1-0.3l-0.2,0.1c0,0,0,0.1,0,0.2c0,0.1-0.1,0.3-0.3,0.3c-0.2,0-0.4-0.3-0.4-0.5c0-0.1,0.1-0.2,0.3-0.2
						c0.2,0,0.2,0,0.2,0L43.7,88.7z"/>
				</g>
				<g>
					<polygon fill="#EC9B00" points="43.9,88.2 44.3,88 44.5,88.5 44.7,88.4 44.5,87.9 44.8,87.8 45.4,88.9 45,89.1 44.8,88.6 
						44.6,88.7 44.8,89.2 44.5,89.3 					"/>
				</g>
				<g>
					<polygon fill="#EC9B00" points="45.4,87.6 46.2,87.4 46.2,87.7 45.8,87.8 45.8,88 46.2,87.9 46.3,88.2 45.9,88.2 45.9,88.5 
						46.4,88.4 46.4,88.7 45.6,88.8 					"/>
				</g>
				<g>
					<polygon fill="#EC9B00" points="46.7,87.4 47.1,87.4 47.1,88.4 47.5,88.4 47.5,88.7 46.7,88.7 					"/>
				</g>
				<g>
					<path fill="#EC9B00" d="M48.7,88l-0.3,0.1c0-0.1-0.1-0.2-0.2-0.2c-0.1,0-0.1,0.1-0.1,0.1c0,0.1,0.4,0.2,0.4,0.5
						c0,0.3-0.2,0.4-0.4,0.4c-0.4,0-0.5-0.4-0.5-0.4l0.3-0.1c0,0.1,0.1,0.2,0.2,0.2c0.1,0,0.1,0,0.1-0.1c0-0.2-0.4-0.2-0.4-0.5
						c0-0.1,0.1-0.4,0.4-0.4C48.6,87.6,48.7,87.9,48.7,88z"/>
				</g>
				<g>
					<polygon fill="#EC9B00" points="49.6,89.4 50.9,88.7 50.4,90.2 50.1,89.9 50.2,89.6 50,89.5 49.8,89.6 					"/>
				</g>
				<g>
					<path fill="#F6F4F4" d="M43.6,88.8l0,0.1c0,0-0.1,0-0.2,0c-0.2,0-0.3,0.2-0.3,0.3c0,0.2,0.3,0.5,0.5,0.5c0.2,0,0.3-0.2,0.3-0.3
						c0-0.1,0-0.1,0-0.1l0.1,0c0,0,0,0.1,0,0.2c0,0.3-0.3,0.5-0.6,0.5c-0.4,0-0.6-0.3-0.6-0.6c0-0.3,0.2-0.6,0.6-0.6
						C43.5,88.7,43.6,88.8,43.6,88.8z"/>
				</g>
				<g>
					<polygon fill="#F6F4F4" points="44,88.2 44.2,88.1 44.4,88.5 44.8,88.4 44.6,88 44.8,87.8 45.3,88.9 45.1,89 44.8,88.5 
						44.5,88.7 44.7,89.1 44.5,89.3 					"/>
				</g>
				<g>
					<polygon fill="#F6F4F4" points="45.4,87.7 46.1,87.5 46.1,87.7 45.7,87.7 45.8,88.1 46.2,88 46.2,88.1 45.8,88.2 45.9,88.6 
						46.3,88.5 46.3,88.6 45.7,88.8 					"/>
				</g>
				<g>
					<polygon fill="#EC9B00" points="49.3,87.9 50,88.3 49.9,88.5 49.5,88.3 49.4,88.5 49.7,88.7 49.6,88.9 49.3,88.7 49.1,89 
						49.5,89.1 49.4,89.4 48.7,89 					"/>
				</g>
				<g>
					<polygon fill="#F6F4F4" points="49.3,88 49.9,88.3 49.8,88.4 49.5,88.2 49.3,88.5 49.7,88.7 49.6,88.8 49.2,88.6 49.1,89 
						49.5,89.2 49.4,89.3 48.8,89 					"/>
				</g>
				<g>
					<polygon fill="#F6F4F4" points="46.8,87.5 47,87.5 47,88.5 47.4,88.5 47.4,88.6 46.7,88.6 					"/>
				</g>
				<g>
					<path fill="#F6F4F4" d="M49.7,89.4l0.1,0.1l0.3-0.1l0.2,0.2l-0.1,0.3l0.2,0.2l0.4-1.2L49.7,89.4z M50.3,89.5l-0.2-0.1l0.3-0.1
						L50.3,89.5z"/>
				</g>
				<g>
					<path fill="#F6F4F4" d="M48.6,87.9l-0.1,0c0-0.1-0.1-0.2-0.2-0.2c-0.1,0-0.1,0.1-0.1,0.1c0,0.2,0.4,0.2,0.4,0.5
						c0,0.2-0.2,0.4-0.4,0.4c-0.3,0-0.4-0.2-0.4-0.3l0.1-0.1c0,0.1,0.1,0.2,0.2,0.2s0.2-0.1,0.2-0.2c0-0.2-0.4-0.2-0.4-0.5
						c0-0.2,0.2-0.3,0.4-0.3C48.4,87.6,48.6,87.8,48.6,87.9z"/>
				</g>
				<g>
					<polygon fill="#EC9B00" points="43.4,97.2 43.5,97.1 43.2,96.8 42.7,97.3 42.8,97.5 43,97.3 43.2,97.4 43.3,97.3 43.1,97.1 
						43.2,97.1 					"/>
				</g>
				<g>
					<path fill="#EC9B00" d="M43.7,97.3c-0.2,0-0.4,0.2-0.4,0.4c0,0.2,0.1,0.3,0.4,0.3c0.1,0,0.4-0.1,0.4-0.4
						C44,97.5,43.9,97.3,43.7,97.3z M43.6,97.9c-0.1,0-0.1,0-0.1-0.1c0-0.1,0.1-0.3,0.2-0.3c0,0,0.1,0,0.1,0.1
						C43.8,97.7,43.7,97.9,43.6,97.9z"/>
				</g>
				<g>
					<polygon fill="#EC9B00" points="45.4,98.2 45,98 44.9,98.1 45,98.2 44.8,98.7 45,98.8 45.2,98.3 45.3,98.3 					"/>
				</g>
				<g>
					<path fill="#EC9B00" d="M46,98.6c0,0,0.1,0,0.1-0.2c0-0.2-0.2-0.2-0.2-0.2l-0.3-0.1l-0.2,0.7c0,0,0.3,0.1,0.4,0.1
						c0.1,0,0.2-0.1,0.2-0.2C46,98.7,46,98.6,46,98.6z M45.7,98.8l0-0.1c0,0,0.1,0,0.1,0.1C45.8,98.8,45.7,98.8,45.7,98.8z
						 M45.7,98.5l0-0.1C45.7,98.4,45.8,98.4,45.7,98.5C45.8,98.5,45.7,98.5,45.7,98.5z"/>
				</g>
				<g>
					<polygon fill="#EC9B00" points="46.1,99 46.5,98.2 46.7,99.1 46.5,99.1 46.5,98.9 46.3,98.9 46.3,99 					"/>
				</g>
				<g>
					<polygon fill="#EC9B00" points="46.9,98.4 47.1,98.4 47.1,98.9 47.4,98.9 47.4,99.1 46.9,99.1 					"/>
				</g>
				<g>
					<polygon fill="#EC9B00" points="47.5,98.3 47.7,98.3 47.8,98.8 48,98.8 48,99 47.6,99 					"/>
				</g>
				<g>
					<path fill="#EC9B00" d="M49.1,98.2l0.1-0.1c0,0-0.1-0.1-0.2-0.1c-0.2,0-0.3,0.2-0.3,0.4c0,0.2,0.2,0.4,0.4,0.4
						c0.2,0,0.4-0.1,0.4-0.4l-0.2,0c0,0.1,0,0.2-0.1,0.2s-0.2-0.2-0.2-0.3c0-0.1,0.1-0.1,0.1-0.1C49,98.1,49.1,98.2,49.1,98.2z"/>
				</g>
				<g>
					<polygon fill="#EC9B00" points="49.2,97.8 49.4,97.7 49.7,98.2 49.9,98.1 50,98.2 49.6,98.4 					"/>
				</g>
				<g>
					<path fill="#EC9B00" d="M49.7,97.5l0.2-0.1l0.3,0.4c0,0,0,0,0,0c0,0,0.1,0,0.1-0.1c0,0,0,0,0,0L50,97.3l0.1-0.1l0.3,0.4
						c0,0,0,0,0,0.1c0,0.2-0.2,0.3-0.3,0.3c-0.1,0-0.2-0.1-0.2-0.1L49.7,97.5z"/>
				</g>
				<g>
					<polygon fill="#F6F4F4" points="43.4,97.2 43.4,97.1 43.2,96.9 42.7,97.3 42.8,97.4 43,97.2 43.2,97.3 43.2,97.3 43.1,97.1 
						43.2,97 					"/>
				</g>
				<g>
					<path fill="#F6F4F4" d="M43.7,97.4c-0.2,0-0.3,0.2-0.3,0.3c0,0.2,0.2,0.3,0.3,0.3c0.1,0,0.3-0.2,0.3-0.3
						C44,97.5,43.8,97.4,43.7,97.4z M43.6,97.9c-0.1,0-0.1-0.1-0.1-0.1c0-0.1,0.2-0.3,0.3-0.3c0.1,0,0.1,0.1,0.1,0.1
						C43.9,97.7,43.7,97.9,43.6,97.9z"/>
				</g>
				<g>
					<path fill="#EC9B00" d="M44.3,97.8c-0.2,0-0.3,0.2-0.3,0.5c0,0.2,0.2,0.3,0.4,0.3c0.1,0,0.3-0.2,0.3-0.5
						C44.7,97.9,44.5,97.7,44.3,97.8z M44.4,98.3c-0.1,0-0.1,0-0.1-0.1c0-0.1,0.1-0.3,0.2-0.3c0,0,0.1,0,0.1,0.1
						C44.5,98.1,44.4,98.3,44.4,98.3z"/>
				</g>
				<g>
					<path fill="#F6F4F4" d="M44.3,97.8c-0.2,0-0.3,0.2-0.2,0.4c0,0.2,0.2,0.3,0.4,0.2c0.1,0,0.3-0.2,0.3-0.4
						C44.7,97.9,44.5,97.8,44.3,97.8z M44.4,98.4c-0.1,0-0.1,0-0.2-0.1c0-0.1,0.1-0.4,0.2-0.4c0.1,0,0.1,0,0.2,0.1
						C44.6,98.1,44.5,98.3,44.4,98.4z"/>
				</g>
				<g>
					<polygon fill="#F6F4F4" points="45,98.1 45.3,98.2 45.3,98.2 45.2,98.2 45,98.7 44.9,98.7 45.1,98.2 45,98.1 					"/>
				</g>
				<g>
					<path fill="#F6F4F4" d="M45.9,98.6c0,0,0.1,0,0.1-0.1c0-0.1-0.1-0.2-0.1-0.2l-0.3-0.1l-0.1,0.6c0,0,0.2,0.1,0.3,0.1
						s0.2-0.1,0.2-0.2C46,98.7,45.9,98.6,45.9,98.6z M45.7,98.8c0,0-0.1,0-0.1,0l0-0.2c0,0,0.2,0,0.2,0.1S45.7,98.8,45.7,98.8z
						 M45.8,98.6C45.7,98.6,45.7,98.5,45.8,98.6l-0.1-0.2c0,0,0.1,0,0.1,0.1S45.8,98.6,45.8,98.6z"/>
				</g>
				<g>
					<path fill="#EC9B00" d="M50.8,97c0,0,0-0.1-0.1-0.2c-0.1-0.1-0.3,0-0.3,0l-0.2,0.2l0.5,0.5c0,0,0.2-0.2,0.3-0.3
						c0.1-0.1,0.1-0.2-0.1-0.3C50.9,97,50.8,97,50.8,97z M50.8,97.3L50.8,97.3c-0.1-0.1-0.1-0.2,0-0.1
						C50.9,97.3,50.8,97.3,50.8,97.3z M50.6,97.1L50.6,97.1c-0.1-0.1,0-0.1,0-0.1C50.7,97.1,50.6,97.1,50.6,97.1z"/>
				</g>
				<g>
					<path fill="#F6F4F4" d="M50.8,97c0,0,0-0.1-0.1-0.2c-0.1-0.1-0.2,0-0.2,0l-0.2,0.2l0.4,0.4c0,0,0.2-0.2,0.2-0.2
						c0-0.1,0-0.2,0-0.2C50.9,97,50.8,97,50.8,97z M50.9,97.3C50.9,97.3,50.8,97.4,50.9,97.3l-0.2-0.1c0,0,0.1-0.1,0.2-0.1
						C50.9,97.2,50.9,97.3,50.9,97.3z M50.7,97.1C50.7,97.1,50.6,97.2,50.7,97.1l-0.2-0.1c0,0,0.1-0.1,0.2-0.1
						C50.7,97,50.7,97.1,50.7,97.1z"/>
				</g>
				<g>
					<path fill="#F6F4F4" d="M46.5,99h0.1l-0.2-0.7L46.1,99l0.1,0l0.1-0.1l0.2,0L46.5,99z M46.3,98.8l0.1-0.2l0,0.2H46.3z"/>
				</g>
				<g>
					<polygon fill="#F6F4F4" points="46.9,98.4 47.1,98.4 47.1,98.9 47.3,98.9 47.3,99 47,99 					"/>
				</g>
				<g>
					<polygon fill="#F6F4F4" points="47.5,98.4 47.7,98.3 47.8,98.9 48,98.8 48,98.9 47.6,99 					"/>
				</g>
				<g>
					<path fill="#F6F4F4" d="M49.1,98.1L49.1,98.1c0-0.1,0-0.1-0.1-0.1c-0.2,0-0.3,0.1-0.3,0.3c0,0.2,0.1,0.3,0.3,0.3
						c0.2,0,0.3-0.1,0.3-0.3l-0.1,0c0,0.1-0.1,0.2-0.2,0.2c-0.2,0-0.2-0.2-0.2-0.3c0-0.1,0.1-0.2,0.2-0.2C49,98,49.1,98.1,49.1,98.1
						z"/>
				</g>
				<g>
					<polygon fill="#F6F4F4" points="49.3,97.8 49.4,97.7 49.7,98.2 49.9,98.1 49.9,98.2 49.6,98.4 					"/>
				</g>
				<g>
					<path fill="#F6F4F4" d="M49.8,97.5l0.1-0.1l0.3,0.4c0,0,0,0,0.1,0c0.1,0,0.1-0.1,0.1-0.1c0,0,0-0.1,0-0.1l-0.3-0.3l0.1-0.1
						l0.3,0.4c0,0,0,0.1,0,0.1c0,0.1-0.2,0.2-0.3,0.2c-0.1,0-0.1-0.1-0.1-0.1L49.8,97.5z"/>
				</g>
			</g>
			<g>
				<polygon fill="#3C3C40" points="64.2,66.4 84,79.8 103.3,66.4 107.7,66.4 84,83.1 59.8,66.4 				"/>
			</g>
			<g>
				<g>
					<path fill="#FFFFFF" d="M75.9,107.9c0-1.8-0.3-2.9-0.9-3.6c-0.6-0.6-1.4-0.9-2.3-0.9c-1,0-1.7,0.3-2.3,0.9
						c-0.6,0.6-0.9,1.6-0.9,3v4.2h-5.8v-3.8c0-3.2,0.8-5.6,2.3-7.3c1.6-1.7,3.8-2.6,6.9-2.6c3,0,5.3,0.9,6.9,2.6
						c1.6,1.7,2.3,4.1,2.3,7.3c0,2.1-0.3,3.9-0.9,5.6c-0.6,1.7-1.4,3.2-2.3,4.5c-0.9,1.4-1.9,2.6-3,3.8c-1.1,1.2-2.1,2.3-3,3.3
						c-0.9,1.1-1.7,2.1-2.3,3.1c-0.6,1-0.9,2-0.9,3.1c0,0.4,0,0.7,0.1,0.8h11.7v5.6H63.6v-4.8c0-1.9,0.3-3.6,0.9-5
						c0.6-1.5,1.4-2.8,2.3-4c0.9-1.2,1.9-2.4,2.9-3.4c1-1.1,2-2.2,2.9-3.4c0.9-1.2,1.7-2.5,2.3-3.9
						C75.6,111.4,75.9,109.8,75.9,107.9z"/>
					<path fill="#C99D66" d="M82.4,138.4H62.7v-5.7c0-2,0.3-3.8,1-5.4c0.6-1.5,1.4-2.9,2.4-4.2c0.9-1.2,2-2.4,3-3.5
						c1-1,2-2.1,2.9-3.3c0.9-1.1,1.6-2.4,2.2-3.7c0.5-1.3,0.8-2.9,0.8-4.6c0-2-0.4-2.7-0.6-2.9c-0.4-0.4-0.9-0.6-1.7-0.6
						c-0.7,0-1.3,0.2-1.7,0.6c-0.4,0.4-0.6,1.2-0.6,2.4v5.1h-7.7v-4.7c0-3.4,0.9-6.1,2.6-7.9c1.7-1.9,4.3-2.8,7.5-2.8
						c3.3,0,5.8,1,7.5,2.8c1.7,1.9,2.6,4.5,2.6,7.9c0,2.2-0.3,4.1-1,5.9c-0.6,1.7-1.4,3.3-2.4,4.7c-0.9,1.4-2,2.7-3.1,3.9
						c-1.1,1.2-2,2.3-3,3.3c-0.9,1-1.6,2-2.2,2.9c-0.5,0.8-0.8,1.7-0.8,2.6h11.7V138.4z M64.6,136.6h16v-3.8H69.1l-0.1-0.7
						c0-0.3-0.1-0.6-0.1-1c0-1.2,0.3-2.5,1-3.6c0.6-1,1.4-2.1,2.4-3.2c0.9-1.1,1.9-2.2,3-3.3c1-1.1,2-2.4,2.9-3.7
						c0.9-1.3,1.6-2.8,2.2-4.3c0.6-1.6,0.8-3.3,0.8-5.3c0-2.9-0.7-5.2-2.1-6.7c-1.4-1.5-3.5-2.3-6.2-2.3c-2.7,0-4.8,0.8-6.2,2.3
						c-1.4,1.5-2.1,3.8-2.1,6.7v2.9h4v-3.3c0-1.7,0.4-2.9,1.1-3.6c0.8-0.8,1.8-1.1,3-1.1c1.2,0,2.2,0.4,3,1.2
						c0.8,0.8,1.1,2.2,1.1,4.2c0,2-0.3,3.8-1,5.3c-0.6,1.5-1.4,2.9-2.4,4.1c-0.9,1.2-2,2.4-3,3.5c-1,1-2,2.2-2.9,3.3
						c-0.9,1.1-1.6,2.4-2.2,3.8c-0.5,1.3-0.8,2.9-0.8,4.7V136.6z"/>
				</g>
				<g>
					<path fill="#FFFFFF" d="M105.8,98.2v5.4l-9.1,33.9h-6.2l9-33.7H87.3v-5.6H105.8z"/>
					<path fill="#C99D66" d="M97.4,138.4h-8.1l9-33.7h-12v-7.4h20.3l0,6.5L97.4,138.4z M91.7,136.6H96l8.9-33.1v-4.4H88.2v3.8h12.6
						L91.7,136.6z"/>
				</g>
			</g>
		</g>
		<g>
			<path fill="#CB977A" d="M141.1,73.9c0,0,0,0.5,0,0.5c0,0,0,0.5,0,0.5h0c0,0-0.1-0.5,0-0.4c0,0.1,0.1-0.1,0.1,0
				c0.2,0.4,0.5,1,1.1,1.9c1.1,1.9,2.9,4.6,5.6,7.8c1.3,1.6,2.8,3.2,4.5,4.9c1.7,1.7,3.6,3.4,5.6,5.1c1,0.9,2.1,1.6,3.2,2.5
				c1.1,0.8,2.3,1.6,3.5,2.4c1.2,0.8,2.4,1.5,3.7,2.2c1.2,0.7,2.5,1.4,3.8,2.1c1.3,0.7,2.7,1.2,4,1.9c1.3,0.6,2.7,1.1,4.1,1.7
				c1.4,0.5,2.8,1,4.1,1.4c1.4,0.4,2.8,0.8,4.1,1.2c1.4,0.3,2.8,0.7,4.1,1c1.3,0.3,2.7,0.5,4,0.8c1.3,0.3,2.6,0.4,3.8,0.6
				c1.2,0.2,2.5,0.4,3.6,0.4c2.3,0.2,4.5,0.4,6.4,0.5c1.9,0.1,3.6,0.2,5,0.1c2.8,0,4.4,0,4.4,0l1.3,7.9c0,0-1.6,0.4-4.5,1.2
				c-1.4,0.4-3.2,0.7-5.3,1.2c-2,0.5-4.4,0.8-7,1.2c-1.3,0.2-2.6,0.3-4,0.5c-1.4,0.1-2.9,0.3-4.4,0.4c-1.5,0.1-3.1,0.2-4.6,0.2
				c-1.6,0-3.2,0-4.9,0c-1.7-0.1-3.4-0.1-5.1-0.2c-1.7-0.2-3.5-0.3-5.2-0.5c-1.8-0.3-3.5-0.5-5.3-0.8c-1.8-0.4-3.6-0.6-5.4-1.1
				c-1.8-0.4-3.6-0.8-5.3-1.4c-1.8-0.5-3.5-1.1-5.2-1.6c-1.7-0.6-3.4-1.3-5.1-1.9c-1.6-0.7-3.3-1.4-4.9-2.2c-3.2-1.5-6.2-3.1-9-4.8
				c-2.8-1.7-5.4-3.4-7.7-5.1c-4.7-3.4-8.3-6.7-10.9-9.2c-1.3-1.3-2.3-2.4-3-3.2c-0.2-0.2-0.3-0.4-0.5-0.6c-0.1-0.2-0.3-0.4-0.4-0.6
				c-0.1-0.1-0.1-0.2-0.2-0.2c0,0-0.1-0.1-0.1-0.1c0,0,0-0.1,0-0.1L141.1,73.9z"/>
		</g>
		<g opacity="0.2">
			<path fill="#1D1D1B" d="M44.2,148.5l0.8,6.1c0,0,10.7,2.9,16.6-4c5.9-6.8,3.7-17.3-4.6-18c0,0,2.8-19.1-9.4-22.7L44.2,148.5z"/>
		</g>
		<g>
			<rect x="86" y="178" fill="#FFFFFF" width="26" height="134"/>
		</g>
		<g>
			<rect x="51" y="178" fill="#FFFFFF" width="25" height="134"/>
		</g>
		<g>
			<path fill="#FFFFFF" d="M105.2,186H57.8c-4.9,0-9.5-6.6-10.6-12.1h67.7C113.9,179.4,110.1,186,105.2,186z"/>
		</g>
		<g>
			
				<ellipse transform="matrix(-0.3366 -0.9416 0.9416 -0.3366 184.2952 364.4278)" fill="#3C3C40" cx="220.5" cy="117.3" rx="7.7" ry="9.2"/>
		</g>
		<g>
			<rect x="51.3" y="244.9" fill="#3C3C40" width="24.7" height="32.4"/>
		</g>
		<g>
			<rect x="86.9" y="244.9" fill="#3C3C40" width="24.7" height="32.4"/>
		</g>
		<g>
			<path fill="#CB977A" d="M46.3,92.9C46.3,92.9,46.3,92.9,46.3,92.9c-0.1,0-0.1,0.1-0.1,0.1c-0.1,0.1-0.3,0.2-0.5,0.3
				c-0.4,0.3-1.1,0.8-1.9,1.5c-1.6,1.3-4,3.3-6.7,5.7c-2.7,2.5-5.7,5.4-8.6,8.7c-1.4,1.6-2.9,3.3-4.1,5.1c-1.3,1.7-2.4,3.5-3.2,5.1
				c-0.4,0.8-0.8,1.6-1,2.2c-0.3,0.7-0.4,1.3-0.6,1.7c-0.1,0.5-0.2,0.8-0.3,1.2c0,0.3,0,0.7,0.1,1.1c0.4,0.9,1.4,2,2.8,2.8
				c1.4,0.9,3.1,1.6,4.8,2.1c0.8,0.3,1.7,0.5,2.5,0.7c0.8,0.2,1.6,0.4,2.3,0.5c0.8,0.1,1.5,0.3,2.1,0.4c0.7,0.1,1.3,0.2,1.8,0.3
				c1.1,0.2,2,0.2,2.6,0.3c0.6,0.1,0.9,0.1,0.9,0.1l0.4,8c0,0-0.3,0.1-1,0.2c-0.6,0.1-1.6,0.3-2.8,0.5c-0.6,0.1-1.3,0.2-2,0.3
				c-0.8,0.1-1.6,0.2-2.4,0.3c-0.9,0.1-1.8,0.1-2.8,0.2c-1,0-2.1,0.1-3.2,0.1c-2.3,0-4.9-0.2-7.8-0.9c-2.9-0.7-6.2-1.9-9.5-4.5
				c-1.6-1.3-3.1-3-4.3-5c-1.2-2-2-4.1-2.5-6.3c-0.5-2.1-0.7-4.2-0.7-6.2c0-2,0.2-3.8,0.4-5.6c0.5-3.5,1.4-6.8,2.4-9.8
				c1-3,2.1-5.8,3.3-8.4c2.4-5.2,4.9-9.8,7.1-13.6c2.3-3.8,4.3-6.9,5.7-9.1c0.7-1.1,1.3-1.9,1.8-2.5c0.2-0.3,0.4-0.5,0.5-0.7
				c0.1-0.1,0.1-0.2,0.2-0.2c0,0,0-0.1,0-0.1L46.3,92.9z"/>
		</g>
		<g>
			<g>
				<path fill="#AF6057" d="M28,98.2c0,0,34.4,3.7,23.7,43.2C51.7,141.4,17.7,136.3,28,98.2z"/>
			</g>
			<g>
				<ellipse transform="matrix(0.498 0.8672 -0.8672 0.498 115.76 16.5761)" fill="#FFFFFF" cx="43.6" cy="108.3" rx="0.7" ry="2"/>
			</g>
			<g>
				
					<ellipse transform="matrix(0.498 0.8672 -0.8672 0.498 118.2395 15.8562)" fill="#FFFFFF" cx="45.4" cy="110.1" rx="0.7" ry="2"/>
			</g>
			<g>
				<ellipse transform="matrix(0.498 0.8672 -0.8672 0.498 120.7178 15.5005)" fill="#FFFFFF" cx="47" cy="112" rx="0.7" ry="2"/>
			</g>
			<g>
				
					<ellipse transform="matrix(0.498 0.8672 -0.8672 0.498 123.1955 15.2905)" fill="#FFFFFF" cx="48.4" cy="114.1" rx="0.7" ry="2"/>
			</g>
			<g>
				
					<ellipse transform="matrix(0.498 0.8672 -0.8672 0.498 125.6718 15.5176)" fill="#FFFFFF" cx="49.4" cy="116.3" rx="0.7" ry="2"/>
			</g>
			<g>
				
					<ellipse transform="matrix(0.498 0.8672 -0.8672 0.498 128.1478 15.8176)" fill="#FFFFFF" cx="50.4" cy="118.6" rx="0.7" ry="2"/>
			</g>
			<g>
				
					<ellipse transform="matrix(0.498 0.8672 -0.8672 0.498 130.622 16.6276)" fill="#FFFFFF" cx="50.9" cy="121.1" rx="0.7" ry="2"/>
			</g>
			<g>
				<g>
					<path fill="#FFFFFF" d="M42.1,107.5c1.1,0.6,1.9,1.3,2.8,2.1c2.1,1.9,3.7,4.3,4.7,7c0.8,2,1.2,4.2,1.3,6.4c0,0.5,0.7,0.5,0.7,0
						c-0.2-3.7-1.2-7.3-3.3-10.4c-1.3-1.9-2.9-3.7-4.8-5c-0.3-0.2-0.7-0.5-1.1-0.7C42,106.6,41.7,107.3,42.1,107.5L42.1,107.5z"/>
				</g>
			</g>
			<g>
				<g>
					<path fill="#79433B" d="M34.8,123.1c-1.8-3.2-3.4-6.6-4.5-10.1c-1.5-4.4-2.1-8.2-2.3-10.6c-0.3-2.6-0.2-4.2-0.2-4.2l0.2,0
						c0,0-0.1,1.6,0.2,4.2c0.2,2.4,0.8,6.2,2.3,10.6c1.6,4.9,4,9.6,7,14c3.7,5.4,8.5,10.2,14.2,14.4l-0.1,0.2
						c-5.7-4.2-10.5-9-14.3-14.4C36.4,125.8,35.6,124.5,34.8,123.1z"/>
				</g>
			</g>
		</g>
		<g>
			
				<ellipse transform="matrix(1.178722e-02 0.9999 -0.9999 1.178722e-02 176.2034 94.5744)" fill="#3C3C40" cx="40.3" cy="136.4" rx="7.7" ry="9.2"/>
		</g>
		<g>
			
				<ellipse transform="matrix(-8.266279e-03 1 -1 -8.266279e-03 183.9273 90.7047)" fill="#FFFFFF" cx="47" cy="136.6" rx="12.6" ry="14.1"/>
		</g>
		<g>
			
				<ellipse transform="matrix(0.2783 0.9605 -0.9605 0.2783 275.931 -139.2221)" fill="#FFFFFF" cx="230.6" cy="114" rx="12.6" ry="14.1"/>
		</g>
		<g opacity="0.2">
			<path fill="#1D1D1B" d="M125.9,104.7c0,0,11.3,7.8,19.2,11.4c0,0,14.2-3.7,14.9-20.4c0,0-9.3-7.6-12.8-12.3c0,0-3,16.4-21,17.3
				L125.9,104.7z"/>
		</g>
		<g>
			<rect x="51.3" y="306.9" fill="#3C3C40" width="24.7" height="5.1"/>
		</g>
		<g>
			<rect x="86.9" y="306.9" fill="#3C3C40" width="24.7" height="5.1"/>
		</g>
		<g>
			<g>
				<path fill="#5C539E" d="M48.3,66.4H15.1c0,0-12.4,34.7,24.7,34.7C78.7,101.1,48.3,66.4,48.3,66.4z"/>
			</g>
			<g>
				<path fill="#5C539E" d="M112.6,66.4h33.2c0,0,11.8,34.7-24.7,34.7C84,101.1,112.6,66.4,112.6,66.4z"/>
			</g>
		</g>
		<g>
			<g>
				<rect x="64" y="21" fill="#CB977A" width="39" height="60"/>
			</g>
			<g>
				<ellipse fill="#CB977A" cx="83.2" cy="21.5" rx="19.8" ry="20"/>
			</g>
			<g>
				<g>
					<g>
						<path fill="#3C3C40" d="M95.8,2.9c-0.3-0.1-0.6-0.2-0.9-0.3c3.3,3.8,7,11,6.3,23.7l-5.6-0.1c0,0,0-0.1,0-0.2h-4.5h4.5
							c0-2.2-0.4-18.8-9.9-25.3c-0.7,0-1.4-0.1-2-0.1c-1.1,0-2.2,0.1-3.3,0.2c3.4,3.1,8.9,10.4,8,25.5l-5.6-0.1
							c0,0,0.1-18.3-9.8-23.8c-0.5,0.2-1,0.3-1.4,0.5C61.2,6.9,53.9,16,53.9,26.6c0,7.5,4.6,14.2,10.4,19l13,0.2l-0.6-19.4l26.5,0
							v19.8c6.2-4.8,10.1-11.8,10.1-19.5C113.4,16,106.2,6.9,95.8,2.9z M71.6,25.9h4.6H71.6z"/>
					</g>
					<g>
						<path fill="#5C539E" d="M82.8,26.2l5.6,0.1c0.9-15.1-4.6-22.5-8-25.5c-1.4,0.1-2.8,0.3-4.2,0.7C75.1,1.7,74.1,2,73,2.4
							C82.9,7.9,82.8,26.2,82.8,26.2z"/>
					</g>
					<g>
						<path fill="#5C539E" d="M95.6,25.9h0.1H95.6c0,0.2,0,0.2,0,0.2l5.6,0.1c0.7-12.7-3.1-20-6.3-23.7c-1.2-0.4-2.5-0.8-3.8-1.1
							c-1.7-0.4-3.5-0.6-5.4-0.8C95.2,7.1,95.6,23.7,95.6,25.9z"/>
					</g>
					<g>
						<g>
							<path fill="#FFFFFF" d="M105.5,45.9h-29V25.3h29V45.9z M78.5,43.1h24.9V28H78.5V43.1z"/>
						</g>
					</g>
				</g>
				<g>
					<g>
						<path fill="#FFFFFF" d="M98.7,54.8H82.6v-9.5h16.1V54.8z M84.5,52.9h12.2v-5.6H84.5V52.9z"/>
					</g>
				</g>
				<g>
					<rect x="87.4" y="46.4" fill="#FFFFFF" width="2.1" height="7.7"/>
				</g>
				<g>
					<rect x="92.2" y="46.4" fill="#FFFFFF" width="2.1" height="7.7"/>
				</g>
			</g>
		</g>
	</g>
	<g>
		<g>
			<rect x="262.6" y="305.7" fill="#3C3C40" width="14.5" height="6.3"/>
		</g>
		<rect x="288.9" y="306.1" fill="#3C3C40" width="14.5" height="5.9"/>
		<g>
			<g>
				<path fill="#282A40" d="M260.3,63.3c-7.2,3.1-13.7,8.7-19,14.2c-13.3,13.8-21,31.8-23.5,50.8c-2.1,15.9-0.6,32,2.8,47.7
					c1.8,8.5,14.9,4.9,13.1-3.6c-4.6-21.8-5.4-45.9,4.4-66.5c3.4-7,7.2-12.7,12-17.9c2-2.2,4.2-4.2,6.5-6.1c0.5-0.4,0.9-0.7,1.4-1.1
					c1.2-1-0.6,0.4,0.3-0.2c0.9-0.7,1.8-1.3,2.8-1.9c2-1.3,4.1-2.6,6.3-3.6c3.4-1.5,4.1-6.4,2.4-9.3
					C267.6,62.3,263.6,61.9,260.3,63.3L260.3,63.3z"/>
			</g>
			<path opacity="0.2" fill="#1D1D1B" d="M258.4,64.2l1.2,14.5c0,0-10.9,8.1-15.7,17.2l-7.5-12.4C236.4,83.5,244.3,71.7,258.4,64.2z
				"/>
			<rect x="262" y="174" fill="#CB977A" width="15" height="133"/>
			<rect x="288" y="174" fill="#CB977A" width="15" height="133"/>
			<g>
				<path fill="#282A40" d="M312.1,75c1.7,0.8,3.4,1.8,5,2.8c0.8,0.5,1.5,1,2.2,1.5c0.5,0.3,0.9,0.7,1.4,1c1.4,1-0.3-0.2,0.5,0.4
					c2.2,1.8,4.3,3.6,6.3,5.6c11.1,11.1,18.1,26.4,20.4,42.8c2.1,14.4,0.6,29.2-2.4,43.4c-1.8,8.5,11.3,12.2,13.1,3.6
					c5.3-25.1,5.7-51.6-5-75.4c-6-13.4-15.8-25-27.8-33.3c-2.2-1.5-4.5-3-6.9-4c-3.4-1.5-7.2-1-9.3,2.4
					C308,68.6,308.8,73.6,312.1,75L312.1,75z"/>
			</g>
			
				<ellipse transform="matrix(0.9351 0.3545 -0.3545 0.9351 85.9267 -112.7826)" fill="#CB977A" cx="350.8" cy="178.2" rx="7.5" ry="9.9"/>
			
				<ellipse transform="matrix(-0.9351 0.3545 -0.3545 -0.9351 504.8284 262.0375)" fill="#CB977A" cx="228.4" cy="177.3" rx="7.5" ry="9.9"/>
			<polygon opacity="0.2" fill="#1D1D1B" points="262.6,204.1 277.1,204.7 277.1,221.3 262.3,221 			"/>
			<g>
				<path fill="#694D3B" d="M295.2,0.5c0,0,21.3-0.9,17.6,30.3c-2.9,24.9,7.2,26.7,7.2,26.7s-27.1,15.8-63.3,1.8
					c0,0,9.9-5.9,10.9-19.9C267.6,39.3,239.6-1.4,295.2,0.5z"/>
				<rect x="271" y="27" fill="#CB977A" width="33" height="58"/>
				<ellipse fill="#CB977A" cx="288.3" cy="26.9" rx="16.3" ry="16.4"/>
				<path fill="#694D3B" d="M289.8,6.8c0,0-14,19,14,32.6C303.8,39.3,315.6,2.7,289.8,6.8z"/>
			</g>
			<g>
				<path fill="#282A40" d="M316,62.4c0,0-4,0-8.1,0c-0.6,0-3.3,0.6-4,0.6l-29.1,20.6l-2.9-21.3c-0.3,0-1.8,0-2,0
					c-12.5,0-8.9,0.3-8.9,0.3c-2.6,0-4.6,2.8-4.6,7L253.6,81c-3.8,2.7-6.3,7.1-6.3,12.2c0,6.1,7.4,12.1,12.7,14.5l0.9,32.6
					l-6.5,36.9c0,4.2-6.5,26.8-3.9,26.8l66,1.4c2.6,0-2.3-23.9-2.3-28.1l-5.7-34.6l9.8-73.5C318.2,64.9,318.6,62.4,316,62.4z"/>
			</g>
		</g>
	</g>
</g>
</svg>
