<?xml version="1.0" encoding="utf-8"?>
<!-- Generator: Adobe Illustrator 18.1.0, SVG Export Plug-In . SVG Version: 6.00 Build 0)  -->
<!DOCTYPE svg PUBLIC "-//W3C//DTD SVG 1.1//EN" "http://www.w3.org/Graphics/SVG/1.1/DTD/svg11.dtd">
<svg version="1.1" id="Layer_1" xmlns="http://www.w3.org/2000/svg" xmlns:xlink="http://www.w3.org/1999/xlink" x="0px" y="0px"
	 viewBox="0 0 520 389" enable-background="new 0 0 520 389" xml:space="preserve">
<g>
	<rect x="165.9" y="81.6" fill="#ECC7A5" width="226" height="302"/>
	<path fill="#9E5C26" d="M388.9,84.6v296h-220v-296H388.9 M394.9,78.6h-232v308h232V78.6L394.9,78.6z"/>
</g>
<rect x="162.9" y="386.6" fill="#382216" width="232" height="2"/>
<path fill="#327678" d="M229.6,223v98.3h97V223l8.7,15.3l31.3-17.7l-26.3-58.3c0,0-23-12-43.7-18L280,167.5l-20-23.2
	c0,0-27.7,8.3-43.7,19l-25,57l31,19.3L229.6,223z"/>
<polyline fill="#3B8282" points="222.3,239.3 225.3,232.4 193.8,214.1 191.3,219.9 222.3,239.3 "/>
<rect x="229.6" y="314.8" fill="#3B8282" width="97" height="6.5"/>
<polygon fill="#3B8282" points="281.1,165.9 293.3,172.2 305.5,147.2 296.6,144.3 "/>
<polygon fill="#3B8282" points="278.2,165.5 263.4,172.2 251.2,147.2 260.1,144.3 "/>
<polygon fill="#2A6868" points="281.1,165.9 293.3,172.2 305.5,147.2 294.4,178 "/>
<polygon fill="#2A6868" points="278.2,165.5 263.4,172.2 251.2,147.2 263.4,178 "/>
<polygon fill="#3B8282" points="278.2,165.5 278.2,188.7 282,188.7 282,164.6 280,167.5 "/>
<path opacity="0.13" fill="#231F20" d="M280,167.5l-20-23.2c0,0-27.7,8.3-43.7,19l-25,57l31,19.3l7.3-16.7v98.3h48.8"/>
<g opacity="0.24">
	<linearGradient id="SVGID_1_" gradientUnits="userSpaceOnUse" x1="162.8877" y1="227.6413" x2="394.8877" y2="227.6413">
		<stop  offset="0" style="stop-color:#FFFFFF"/>
		<stop  offset="1" style="stop-color:#FFFFFF;stop-opacity:0"/>
	</linearGradient>
	<polygon fill="url(#SVGID_1_)" points="162.9,376.6 162.9,78.6 394.9,78.6 	"/>
</g>
<path fill="#F1F2F2" d="M229.4,222.6v98.3h97v-98.3l8.7,15.3l31.3-17.7l-26.3-58.3c0,0-23-12-43.7-18c0,0-3.7,10.3-18.3,10.3
	c-14.7,0-18.3-10.3-18.3-10.3s-27.7,8.3-43.7,19l-25,57l31,19.3L229.4,222.6z"/>
<polyline fill="#E6E7E8" points="222.1,238.9 225.1,232.1 193.6,213.8 191.1,219.6 222.1,238.9 "/>
<polyline fill="#E6E7E8" points="332,232.3 335.1,237.8 366.4,220.1 364.1,214.9 332,232.3 "/>
<path fill="#E6E7E8" d="M259.8,143.9c0,0,4,10.3,19,10.3c0,0,13,0,17.7-10.3l7.6,2.4c0,0-6.3,14.4-25.3,14.4s-25.9-14.6-25.9-14.6
	S258.2,144.2,259.8,143.9z"/>
<polygon fill="#EC008C" points="278.8,154.3 278.8,181 276.3,154.2 "/>
<path fill="#231F20" d="M200.8,197.7l15.3-34.8c0,0,12.8-9.2,36.7-16.7l0.7,1.3c0,0-24.8,7.6-36.3,17.2l-14.8,33.6L200.8,197.7z"/>
<path fill="#231F20" d="M203.3,199l15-33.4c0,0,12.3-9.1,36.2-16.6l0.9,1.2c0,0-24.4,7.5-36,17.1l-14.3,32.5L203.3,199z"/>
<path fill="#231F20" d="M206.4,200.3l14.5-32.3c0,0,11.9-8.9,35.8-16.4l1.1,1.2c0,0-24.3,7.5-35.9,17.1l-13.8,31.4L206.4,200.3z"/>
<path fill="#231F20" d="M356.3,197.7l-16.2-35.8c0,0-12.1-8-36-15.6l-0.7,1.4c0,0,24,6.9,35.8,15.7l15.6,34.9L356.3,197.7z"/>
<path fill="#231F20" d="M353.4,199.2l-15-33.4c0,0-12.3-9.1-36.2-16.6l-0.9,1.2c0,0,24.4,7.5,36,17.1l14.3,32.5L353.4,199.2z"/>
<path fill="#231F20" d="M350.3,200.5l-14.5-32.3c0,0-11.9-8.9-35.8-16.4l-1.1,1.2c0,0,24.3,7.5,35.9,17.1l13.8,31.4L350.3,200.5z"/>
<g>
	<circle fill="#E2BA00" cx="308.4" cy="192.1" r="9.1"/>
	<circle fill="#FFFFFF" cx="308.4" cy="192.1" r="8"/>
	<path fill="#E2BA00" d="M303.2,183.7c0,0,4.4-2.7,10.4,0c0,0,1.4-5-4.4-5C303.4,178.7,302.3,180.9,303.2,183.7z"/>
	<path fill="#2036A9" d="M301.2,188.6l12.3,9.7c0,0,2-1.5,2.4-3.4l-12-9.4C303.9,185.5,301.3,187.3,301.2,188.6z"/>
	<path fill="#E2BA00" d="M309.3,181.7c0,0.4-0.4,0.8-0.8,0.8l0,0c-0.4,0-0.8-0.4-0.8-0.8v-4c0-0.4,0.4-0.8,0.8-0.8l0,0
		c0.4,0,0.8,0.4,0.8,0.8V181.7z"/>
</g>
<path opacity="8.000000e-02" fill="#231F20" d="M278.1,154.3c-14.7,0-18.3-10.3-18.3-10.3s-27.7,8.3-43.7,19l-25,57l31,19.3
	l7.3-16.7v98.3h49.3"/>
<polygon fill="#7F4921" points="53.1,387.4 35.7,387.4 35.7,380.5 73.1,380.5 "/>
<linearGradient id="SVGID_2_" gradientUnits="userSpaceOnUse" x1="892.8295" y1="1541.5708" x2="892.8295" y2="1746.3229" gradientTransform="matrix(0.9683 -0.2499 0.2499 0.9683 -1179.8754 -1307.0212)">
	<stop  offset="0" style="stop-color:#FFFFFF"/>
	<stop  offset="1" style="stop-color:#FFFFFF;stop-opacity:0"/>
</linearGradient>
<path fill="url(#SVGID_2_)" d="M201.6,167.1c25.1,97.5,12.4,185-28.5,195.6S78.6,302.8,53.5,205.3S41.1,20.3,82,9.7
	S176.5,69.6,201.6,167.1z"/>
<linearGradient id="SVGID_3_" gradientUnits="userSpaceOnUse" x1="-1001.0778" y1="-1702.6179" x2="-1001.0778" y2="-1497.8658" gradientTransform="matrix(0.959 0.2834 -0.2834 0.959 972.8809 1886.2046)">
	<stop  offset="0" style="stop-color:#FFFFFF"/>
	<stop  offset="1" style="stop-color:#FFFFFF;stop-opacity:0"/>
</linearGradient>
<path fill="url(#SVGID_3_)" d="M503.2,212.9c-28.5,96.5-84.5,165.1-125,153.1c-40.5-12-50.2-99.9-21.7-196.4S441,4.5,481.5,16.4
	S531.8,116.4,503.2,212.9z"/>
<linearGradient id="SVGID_4_" gradientUnits="userSpaceOnUse" x1="-1236.6381" y1="-1872.6752" x2="-1236.6381" y2="-1667.923" gradientTransform="matrix(0.9495 0.3139 -0.3139 0.9495 1029.886 2121.5891)">
	<stop  offset="0" style="stop-color:#FFFFFF"/>
	<stop  offset="1" style="stop-color:#FFFFFF;stop-opacity:0"/>
</linearGradient>
<path fill="url(#SVGID_4_)" d="M443.7,198.7c-31.6,95.6-89.7,162.3-129.8,149c-40.1-13.3-47-101.5-15.4-197s89.7-162.3,129.8-149
	S475.3,103.2,443.7,198.7z"/>
<linearGradient id="SVGID_5_" gradientUnits="userSpaceOnUse" x1="1299.7347" y1="3217.5076" x2="1299.7347" y2="3422.2598" gradientTransform="matrix(0.8933 -0.4494 0.4494 0.8933 -2507.3545 -2329.7727)">
	<stop  offset="0" style="stop-color:#FFFFFF"/>
	<stop  offset="1" style="stop-color:#FFFFFF;stop-opacity:0"/>
</linearGradient>
<path fill="url(#SVGID_5_)" d="M271.9,132.3c45.2,89.9,51.3,178.2,13.6,197.2c-37.7,19-105-38.5-150.2-128.4S83.9,22.9,121.6,3.9
	S226.7,42.4,271.9,132.3z"/>
<g>
	<g>
		<g>
			<path fill="#CCCCCC" d="M68.5,341C60,322.3,54,305.6,50.9,291.7c-3.1-13.7-3.5-24.7-1.1-32.5c1.3-4.3,3.6-7.9,6.6-10.3
				c2.7-2.2,5.9-3.3,9-3.2c4.5,0.1,8.1,2.8,9.1,6.8c1.5,5.8-1,8-5.5,12.1c-1.1,1-2.4,2.1-3.8,3.5c-1.3,1.2-1.9,2.6-1.8,4.1
				c0.2,4.2,4.9,8.9,6.7,10.3l-2.1,2.6c-0.3-0.3-7.7-6.3-8-12.8c-0.1-2.5,0.8-4.8,2.8-6.7c1.5-1.4,2.8-2.6,3.9-3.6
				c4.5-4,5.5-4.9,4.5-8.8c-0.7-2.6-3-4.3-6-4.3c-6.1-0.1-10.6,5.5-12.3,11.2c-4.5,14.9,2.1,43.2,18.5,79.5L68.5,341z"/>
		</g>
	</g>
	<g>
		<g>
			<path fill="#CCCCCC" d="M111.3,341c8.5-18.8,14.4-35.4,17.6-49.4c3.1-13.7,3.5-24.7,1.1-32.5c-1.3-4.3-3.6-7.9-6.6-10.3
				c-2.7-2.2-5.9-3.3-9-3.2c-4.5,0.1-8.1,2.8-9.1,6.8c-1.5,5.8,1,8,5.5,12.1c1.1,1,2.4,2.1,3.8,3.5c1.3,1.2,1.9,2.6,1.8,4.1
				c-0.2,4.2-4.9,8.9-6.7,10.3l2.1,2.6c0.3-0.3,7.7-6.3,8-12.8c0.1-2.5-0.8-4.8-2.8-6.7c-1.5-1.4-2.8-2.6-3.9-3.6
				c-4.5-4-5.5-4.9-4.5-8.8c0.7-2.6,3-4.3,6-4.3c6.1-0.1,10.6,5.5,12.3,11.2c4.5,14.9-2.1,43.2-18.5,79.5L111.3,341z"/>
		</g>
	</g>
	<path fill="#DCDCDC" d="M103.4,372.8c-4.4-0.3-5.5-9.6-2.6-10.4c2.9-0.8,2.2-5.5,2.2-5.5c14.8-15.8,18.1-65.8,18.1-65.8
		c-4,0-11.5-11.1-8.8-12.6c2.6-1.4,0.9-4.7,0.9-4.7H89.9H66.6c0,0-1.8,3.3,0.9,4.7c2.6,1.4-4.7,12.6-8.8,12.6c0,0,3.3,50,18.1,65.8
		c0,0-0.7,4.7,2.2,5.5s1.8,10-2.6,10.4c-4.4,0.3-11.4,6.2-11.8,8.7h25.4h25.4C114.8,378.9,107.9,373.1,103.4,372.8z"/>
	<path fill="#DCDCDC" d="M113.1,273.8H89.9H66.6c0,0-1.7,3.6,0.9,4.7h22.4h22.4C114.8,277.4,113.1,273.8,113.1,273.8z"/>
	<path fill="#D3D3D3" d="M111.8,280.3c0,0-0.3-1.3,0.5-1.8H89.9H67.5c0.8,0.5,0.5,1.8,0.5,1.8c-3,8.9-9.3,10.8-9.3,10.8h31.2h31.2
		C121.1,291.1,114.8,289.2,111.8,280.3z"/>
	<path fill="#DCDCDC" d="M103.4,372.8c-4.4-0.3-5.5-9.6-2.6-10.4c2.9-0.8,2.2-5.5,2.2-5.5c14.8-15.8,18.1-65.8,18.1-65.8
		c-4,0-11.5-11.1-8.8-12.6c2.6-1.4,0.9-4.7,0.9-4.7H89.9H66.6c0,0-1.8,3.3,0.9,4.7c2.6,1.4-4.7,12.6-8.8,12.6c0,0,3.3,50,18.1,65.8
		c0,0-0.7,4.7,2.2,5.5s1.8,10-2.6,10.4c-4.4,0.3-11.4,6.2-11.8,8.7h25.4h25.4C114.8,378.9,107.9,373.1,103.4,372.8z"/>
	<path opacity="6.000000e-02" fill="#00101F" d="M121.1,291.1c0,0-3.3,50-18.1,65.8c0,0,0.7,4.7-2.2,5.5c-2.9,0.8-1.8,10,2.6,10.4
		c4.4,0.3,11.4,6.2,11.8,8.7H89.9v-90.4H121.1z"/>
	<path opacity="6.000000e-02" fill="#00101F" d="M89.9,278.5h22.4c2.6-1.1,0.9-4.7,0.9-4.7H89.9V278.5"/>
	<path fill="#D3D3D3" d="M111.8,280.3c0,0-0.3-1.3,0.5-1.8H89.9H67.5c0.8,0.5,0.5,1.8,0.5,1.8c-3,8.9-9.3,10.8-9.3,10.8h31.2h31.2
		C121.1,291.1,114.8,289.2,111.8,280.3z"/>
	<path opacity="6.000000e-02" fill="#00101F" d="M89.9,291.1h31.2c0,0-6.3-1.9-9.3-10.8c0,0-0.3-1.3,0.5-1.8H89.9V291.1z"/>
</g>
<linearGradient id="SVGID_6_" gradientUnits="userSpaceOnUse" x1="-14851.1621" y1="6042.9907" x2="-14851.1621" y2="6151.4219" gradientTransform="matrix(-0.8009 0.256 -0.3045 -0.9525 -9973.0947 9969.8506)">
	<stop  offset="0" style="stop-color:#FFFFFF"/>
	<stop  offset="1" style="stop-color:#FFFFFF;stop-opacity:0"/>
</linearGradient>
<path fill="url(#SVGID_6_)" d="M11.3,305.7c-16.2-50.8-14.9-96.6,3.1-102.3c17.9-5.7,45.6,30.8,61.8,81.6s14.9,96.6-3.1,102.3
	C55.2,393,27.6,356.5,11.3,305.7z"/>
<linearGradient id="SVGID_7_" gradientUnits="userSpaceOnUse" x1="-10858.7637" y1="10619.4102" x2="-10858.7637" y2="10727.8408" gradientTransform="matrix(-0.7473 -0.3853 0.4582 -0.8888 -12933.3828 5659.1309)">
	<stop  offset="0" style="stop-color:#FFFFFF"/>
	<stop  offset="1" style="stop-color:#FFFFFF;stop-opacity:0"/>
</linearGradient>
<path fill="url(#SVGID_7_)" d="M73.7,279.7c24.4-47.4,57.8-78.8,74.5-70.2s10.5,54-13.9,101.4s-57.8,78.8-74.5,70.2
	S49.3,327.1,73.7,279.7z"/>
<rect x="35.7" y="380.5" fill="#9E5C26" width="107.4" height="6.9"/>
<rect x="35.6" y="386.6" fill="#382216" width="107.5" height="2"/>
</svg>
