<?xml version="1.0" encoding="utf-8"?>
<!-- Generator: Adobe Illustrator 18.1.0, SVG Export Plug-In . SVG Version: 6.00 Build 0)  -->
<!DOCTYPE svg PUBLIC "-//W3C//DTD SVG 1.1//EN" "http://www.w3.org/Graphics/SVG/1.1/DTD/svg11.dtd">
<svg version="1.1" id="Layer_1" xmlns="http://www.w3.org/2000/svg" xmlns:xlink="http://www.w3.org/1999/xlink" x="0px" y="0px"
	 viewBox="0 0 47.9 48.5" enable-background="new 0 0 47.9 48.5" xml:space="preserve">
<g>
	<circle fill="#FFFFFF" cx="24.5" cy="23.1" r="20.4"/>
	<g>
		<g>
			<path fill="#002A5E" d="M24,7c9.3,0,16.8,7.6,16.8,16.8c0,9.3-7.6,16.8-16.8,16.8S7.2,33.2,7.2,23.9C7.2,14.6,14.7,7,24,7
				 M24,0.1C10.9,0.1,0.2,10.8,0.2,23.9C0.2,37,10.9,47.6,24,47.6c13.1,0,23.7-10.6,23.7-23.7C47.8,10.8,37.1,0.1,24,0.1L24,0.1z"/>
		</g>
		<g>
			<path fill="#002A5E" d="M24.3,23.4c-1,0-1.7-0.8-1.7-1.7v-6.9c0-1,0.8-1.7,1.7-1.7c1,0,1.7,0.8,1.7,1.7v6.9
				C26.1,22.7,25.3,23.4,24.3,23.4z"/>
		</g>
		<g>
			<path fill="#002A5E" d="M33,30.4c-0.4,0-0.8-0.1-1.1-0.4l-8.6-6.9c-0.7-0.6-0.9-1.7-0.3-2.4c0.6-0.7,1.7-0.9,2.4-0.3l8.6,6.9
				c0.7,0.6,0.9,1.7,0.3,2.4C34,30.1,33.5,30.4,33,30.4z"/>
		</g>
	</g>
</g>
</svg>
