<?xml version="1.0" encoding="utf-8"?>
<!-- Generator: Adobe Illustrator 18.1.0, SVG Export Plug-In . SVG Version: 6.00 Build 0)  -->
<!DOCTYPE svg PUBLIC "-//W3C//DTD SVG 1.1//EN" "http://www.w3.org/Graphics/SVG/1.1/DTD/svg11.dtd">
<svg version="1.1" id="Layer_1" xmlns="http://www.w3.org/2000/svg" xmlns:xlink="http://www.w3.org/1999/xlink" x="0px" y="0px"
	 viewBox="0 0 90 107" enable-background="new 0 0 90 107" xml:space="preserve">
<polygon fill="#FCC792" points="46.5,5.3 33.6,8.1 37.9,27.3 50.8,24.5 "/>
<path fill="#FCC792" d="M33.7,8.1c0.8,3.6,4.3,5.9,7.9,5.1c3.6-0.8,5.8-4.3,5-7.9s-4.3-5.9-7.9-5.1C35.1,0.9,32.9,4.5,33.7,8.1z"/>
<path fill="#F15A29" d="M28.7,24.5c0,0,3.6-0.8,8-1.7c0.1,0,0.2,0,0.3-0.1l5,2.9l7.4-5.7c0.2-0.1,0.5-0.1,0.7-0.1
	c1.4-0.3,5.7-1.3,5.7-1.3c0.9-0.2,2,1,2.3,2.3l2.2,42.6c0.3,1.3-0.2,2.8-1.1,3l-15.5,3.4c-0.9,0.2-1.9-0.8-2.2-2.1L27.7,27.5
	C27.4,26.2,27.8,24.7,28.7,24.5z"/>
<polygon fill="#F15A29" points="59.3,106.1 65.6,103.2 46.7,63.2 40.8,65.9 "/>
<polygon fill="#FCC792" points="51.5,89.7 57.8,86.7 54.1,78.9 47.8,81.8 "/>
<rect x="39.4" y="60.1" transform="matrix(-0.9768 0.214 -0.214 -0.9768 111.4292 108.9116)" fill="#B74325" width="20.8" height="0.9"/>
<path fill="#FCC792" d="M52.5,25.2c-1.1-1.1-1.4-2.7-0.7-4.1c0.8-1.8,3-2.6,4.9-1.8c3.8,1.8,15.1,5.6,21.4,2.3
	c2.5-1.3,4-3.7,4.6-7.3c0.3-2,2.2-3.3,4.2-3c2,0.4,3.3,2.3,3,4.2c-1.3,7.4-5.3,10.9-8.5,12.6c-10.6,5.5-26.1-1.4-27.8-2.2
	C53.2,25.8,52.8,25.5,52.5,25.2z"/>
<path fill="#F15A29" d="M52,25.6c0,0,11.2,4.9,17.4,5.2l1-8.2c0,0-9.3-2-14.7-3.8C55.8,18.8,49.5,18.2,52,25.6z"/>
<path fill="#F1E329" d="M64.1,29.9c1.1,0.3,2.3,0.5,3.3,0.7c0.4-1.1,1.9-5.6,1.9-8.2c-0.8-0.2-2.1-0.5-3.6-0.8
	C65.6,23.2,65.1,28.4,64.1,29.9z"/>
<polygon fill="#F15A29" points="46.7,82.1 40.3,77 53.5,60.4 59.6,66.2 "/>
<rect x="38.7" y="75.7" transform="matrix(0.7831 0.6219 -0.6219 0.7831 59.2366 -9.1388)" fill="#FCC792" width="8" height="9.3"/>
<polygon fill="#FCC792" points="37.1,81.9 46.3,89.1 57.5,86.1 54.7,79.8 49.4,79.7 42.7,74.4 "/>
<polygon fill="#F15A29" points="52.2,87.5 50.7,79.4 71.6,75.7 73.1,83.8 "/>
<path fill="#FFFFFF" d="M43.5,35.3L43.5,35.3l-0.6,0.6l-0.2-0.4l0.7-0.8l0.5-0.2l1.4,4.2l-0.5,0.2L43.5,35.3z"/>
<path fill="#FFFFFF" d="M46.7,34.2L46.7,34.2l-0.6,0.6l-0.2-0.4l0.7-0.8l0.5-0.2l1.4,4.2l-0.5,0.2L46.7,34.2z"/>
<path fill="#FCC792" d="M4.6,24.2c-0.2-0.2-0.4-0.4-0.6-0.7C1.6,20.9-1,16.2,0.4,8.8c0.4-2,2.3-3.3,4.3-2.9c2,0.4,3.3,2.3,2.9,4.3
	c-0.7,3.6-0.1,6.4,1.8,8.5c4.7,5.3,16.6,5.7,20.8,5.4c2-0.1,3.8,1.4,3.9,3.4c0.2,2-1.4,3.8-3.4,3.9C28.9,31.5,12.8,32.4,4.6,24.2z"
	/>
<path fill="#F15A29" d="M34.2,30.7c0,0-11.7,3.4-19.6-0.8l1.4-7.5c0,0,11.2,1.2,16.8,1.4C32.8,23.8,37.8,32.3,34.2,30.7z"/>
</svg>
