<?xml version="1.0" encoding="utf-8"?>
<!-- Generator: Adobe Illustrator 18.1.0, SVG Export Plug-In . SVG Version: 6.00 Build 0)  -->
<!DOCTYPE svg PUBLIC "-//W3C//DTD SVG 1.1//EN" "http://www.w3.org/Graphics/SVG/1.1/DTD/svg11.dtd">
<svg version="1.1" id="Layer_1" xmlns="http://www.w3.org/2000/svg" xmlns:xlink="http://www.w3.org/1999/xlink" x="0px" y="0px"
	 viewBox="0 0 182 347" enable-background="new 0 0 182 347" xml:space="preserve">
<g>
	<path fill="#7FB8E5" d="M128.7,91.7c9.3,7.7,16.4,17.3,22.3,27.6c13.2,22.9,16.4,49.1,9.1,74.5c-2.6,8.9,11.3,12.7,13.8,3.8
		c11.4-39.3-0.7-80-28.3-109.5c-2.1-2.3-4.3-4.6-6.8-6.5C131.8,75.7,121.6,85.8,128.7,91.7L128.7,91.7z"/>
	
		<ellipse transform="matrix(0.9723 0.2336 -0.2336 0.9723 51.2784 -33.2234)" fill="#7FB8E5" cx="165.9" cy="199.9" rx="8.7" ry="10.3"/>
	<path fill="#7FB8E5" d="M43.5,80.9C20.6,97.9,4.3,125.8,0.7,154c-1.8,14-0.3,28.1,3.6,41.6c2.6,8.8,16.4,5.1,13.8-3.8
		c-7.3-25.1-3.7-50.7,10.1-72.8c4.5-7.2,9.6-13.5,15.6-19.5c1.8-1.8,3.7-3.6,5.6-5.2c1-0.8,3.6-2.8,1.1-1c3.1-2.3,4.6-6.2,2.6-9.8
		C51.5,80.4,46.6,78.6,43.5,80.9L43.5,80.9z"/>
	
		<ellipse transform="matrix(-0.9723 0.2336 -0.2336 -0.9723 70.5231 386.9203)" fill="#7FB8E5" cx="12.3" cy="197.6" rx="8.7" ry="10.3"/>
	<path fill="#E9504C" d="M115,77l-3.1,0.1h3C115,77.1,115,77,115,77z"/>
	<path fill="#5AA4D3" d="M39.5,81.6C25.3,93.4,14.8,110.2,7.7,127c-1.5,3.6,1.6,7.8,5,8.8c4.1,1.2,7.3-1.5,8.8-5
		c6.1-14.5,15.8-28.9,28.1-39.1C56.7,85.8,46.5,75.7,39.5,81.6L39.5,81.6z"/>
	<path fill="#7FB8E5" d="M130,189.6c0,0,3.4,18.8-6.2,38.3s-49.3,26.4-33.2,66.7c11.8,29.6-17.1,52.4-18.1,52.4
		c-1,0,17.9-39.4-5.5-59.2c-25-21.2,2.4-43.1,5.5-56.8c3.1-13.7-18.3-32.9-18.3-32.9L130,189.6z"/>
	<g>
		<rect x="68" y="26" fill="#7FB8E5" width="44" height="68"/>
		<ellipse fill="#7FB8E5" cx="90" cy="26.7" rx="22.2" ry="22.4"/>
		<path fill="#6896B9" d="M111.6,38.3c0,0-16.4-11.6-16.4-33.5c0,0,10.6,0.3,15.7,11C116,26.3,111.6,38.3,111.6,38.3z"/>
		<path fill="#6896B9" d="M76.8,11.7c0,0-5.9,12.6-9,23.5c0,0-1.6-17.5,3.9-24.3L76.8,11.7z"/>
	</g>
	<path fill="#6896B9" d="M100.6,8.3c0,0-28.5-21.7-28.5,5"/>
	<path fill="#6896B9" d="M77.4,8.3c0,0-15.3-4-9.6,18"/>
	<g>
		<circle fill="#E9504C" cx="80.9" cy="45.7" r="7.4"/>
		<path fill="#FDFDFC" d="M80.9,39.6c0,0-8.5,2.2-5.4,7.2c3.1,5-0.7,0-0.7,0S75.2,41.9,80.9,39.6z"/>
		<path fill="#842728" fill-opacity="0.31" d="M86.9,42.6c0.3-2.2,3.5,11.5-7.7,10.2C79.2,52.8,86.4,46.2,86.9,42.6z"/>
	</g>
	<polyline fill="#5FA0C9" points="77,85 68,85 68,64 	"/>
	<path fill="#43713A" d="M133.8,77.1h-18.9c-8.8,12.6-28.7,14.6-28.7,14.6c-13.8-3.4-19.9-13.4-20.6-14.6H48.4
		c-6.4,0-11.6,5.2-11.6,11.6l17.5,106.4c0,0.9,0.1,1.8,0.3,2.8h76.1c0.2-1,0.3-1.9,0.3-2.8l14.6-106.4
		C145.4,82.4,140.2,77.1,133.8,77.1z"/>
	<path fill="#FFFFFF" d="M86.3,91.8c0,0,19.9-2,28.7-14.6h-3c-27.7,20.7-44.2,0.2-44.2,0.2l-0.1-0.2h-2.1
		C66.4,78.4,72.4,88.4,86.3,91.8z"/>
	<path fill="#E9504C" d="M135,77.3c0,0,5.8-1.9,15.9,11.8l-9.9,19.3L135,77.3z"/>
	<path fill="#E9504C" d="M47.3,77.3c0,0-7.7-1.9-17.8,11.8l12,23.6L47.3,77.3z"/>
	<path fill="#FFFFFF" d="M93.8,137.6v59.5l36.8,0.9l12.3-93.1l8.9-16.9c0,0-6.6-11.8-16.8-12.1c-10.4-0.3-19,0.1-19,0.1"/>
	<polyline fill="#D8D6D6" points="114.9,77.1 118.4,95 111.9,99.9 118.4,102.3 93.8,137.6 	"/>
	<path fill="#FFFFFF" d="M76.8,140.4l1,57.7H54.5l-13.8-85.3L29.5,89.1c0,0,6.6-11.8,16.8-12.1c10.4-0.3,19,0.1,19,0.1"/>
	<polyline fill="#D8D6D6" points="65.2,77.1 61.7,95 68.2,99.9 61.7,102.3 76.8,137.6 	"/>
	<path fill="#D8D6D6" d="M97.6,156"/>
	<g>
		<path fill="#34562B" d="M65.7,77.1c0,0,10,14,20.6,14.6c1,0.1,0,0,0,0s-8.1,0.9-5.4,4"/>
		<path fill="#2C4F25" d="M80.7,95.9c-0.6-0.6-0.7-1.3-0.5-1.8c0.5-1.2,2.8-1.9,4.4-2.3c-10-1.8-19-14.4-19.1-14.5l0.4-0.3
			c0.1,0.1,10,13.9,20.4,14.5l0.5,0l0,0.5l-0.5,0c-1.4,0.2-5.1,0.9-5.6,2.3c-0.2,0.4,0,0.9,0.4,1.4L80.7,95.9z"/>
	</g>
	<g>
		<path fill="#34562B" d="M88.8,91.4c-2.1-0.1,8.4,3,7.9,7.7l17.4-20.8C114.1,78.3,97.4,91.8,88.8,91.4z"/>
		<path fill="#2C4F25" d="M96.4,99.8l0.1-0.8c0.3-3.1-4.5-5.5-6.8-6.7c-1.2-0.6-1.4-0.7-1.3-1c0.1-0.2,0.3-0.2,0.4-0.2l0.1,0
			c8.4,0.4,24.9-12.9,25.1-13l0.3,0.3L96.4,99.8z M89.3,91.6c0.2,0.1,0.4,0.2,0.6,0.3c2.3,1.1,6.8,3.4,7.1,6.4l15.5-18.5
			C108,83.2,96.3,91.6,89.3,91.6z"/>
	</g>
	<path fill="#2C4F25" d="M85.4,197.7c-8.6-68.4,1.9-105.8,2-106.2l0.5,0.1c-0.1,0.4-10.6,37.7-2,106L85.4,197.7z"/>
	<path fill="#2C4F25" d="M88.1,108.7c-0.4,0-0.7-0.4-0.7-0.8s0.3-0.8,0.7-0.8s0.7,0.4,0.7,0.8S88.5,108.7,88.1,108.7z M88.1,107.6
		c-0.1,0-0.2,0.1-0.2,0.3s0.1,0.3,0.2,0.3c0.1,0,0.2-0.1,0.2-0.3S88.2,107.6,88.1,107.6z"/>
	<path fill="#2C4F25" d="M85,151.8c-0.4,0-0.7-0.4-0.7-0.8s0.3-0.8,0.7-0.8s0.7,0.4,0.7,0.8S85.4,151.8,85,151.8z M85,150.7
		c-0.1,0-0.2,0.1-0.2,0.3c0,0.2,0.1,0.3,0.2,0.3s0.2-0.1,0.2-0.3C85.2,150.9,85.1,150.7,85,150.7z"/>
	<path fill="#2C4F25" d="M85,141.5c-0.4,0-0.7-0.4-0.7-0.8s0.3-0.8,0.7-0.8s0.7,0.4,0.7,0.8S85.4,141.5,85,141.5z M85,140.4
		c-0.1,0-0.2,0.1-0.2,0.3c0,0.2,0.1,0.3,0.2,0.3s0.2-0.1,0.2-0.3C85.2,140.6,85.1,140.4,85,140.4z"/>
	<path fill="#2C4F25" d="M86,131.3c-0.4,0-0.7-0.4-0.7-0.8s0.3-0.8,0.7-0.8s0.7,0.4,0.7,0.8S86.4,131.3,86,131.3z M86,130.2
		c-0.1,0-0.2,0.1-0.2,0.3c0,0.2,0.1,0.3,0.2,0.3s0.2-0.1,0.2-0.3C86.2,130.3,86.1,130.2,86,130.2z"/>
	<path fill="#2C4F25" d="M87,120c-0.4,0-0.7-0.4-0.7-0.8s0.3-0.8,0.7-0.8s0.7,0.4,0.7,0.8S87.4,120,87,120z M87,118.9
		c-0.1,0-0.2,0.1-0.2,0.3s0.1,0.3,0.2,0.3c0.1,0,0.2-0.1,0.2-0.3S87.2,118.9,87,118.9z"/>
</g>
</svg>
