<?xml version="1.0" encoding="utf-8"?>
<!-- Generator: Adobe Illustrator 18.1.0, SVG Export Plug-In . SVG Version: 6.00 Build 0)  -->
<!DOCTYPE svg PUBLIC "-//W3C//DTD SVG 1.1//EN" "http://www.w3.org/Graphics/SVG/1.1/DTD/svg11.dtd">
<svg version="1.1" id="Layer_1" xmlns="http://www.w3.org/2000/svg" xmlns:xlink="http://www.w3.org/1999/xlink" x="0px" y="0px"
	 viewBox="0 0 91.8 179" enable-background="new 0 0 91.8 179" xml:space="preserve">
<g>
	<g>
		<ellipse opacity="0.31" fill="#3F3F3F" cx="47.3" cy="172.9" rx="23.3" ry="5.4"/>
		<g>
			<rect x="49.7" y="99.4" fill="#222329" width="13.5" height="27.5"/>
			<g>
				<path fill="#FFFFFF" d="M54.7,111.7l1.9-4.6h1.2v4.6h0.5v1h-0.5v1.2h-1v-1.2h-2.1V111.7z M56.7,111.7v-2.5l-1.1,2.5H56.7z"/>
				<path fill="#FFFFFF" d="M61.9,112.2c0,0.6-0.1,1-0.4,1.3c-0.3,0.3-0.7,0.5-1.2,0.5c-0.5,0-0.9-0.1-1.2-0.4
					c-0.3-0.3-0.4-0.7-0.4-1.3v-0.2h1v0.2c0,0.2,0,0.4,0.1,0.5s0.2,0.2,0.4,0.2c0.2,0,0.3-0.1,0.4-0.2c0.1-0.1,0.2-0.3,0.2-0.7v-1.2
					c-0.2,0.4-0.5,0.6-1,0.6c-0.4,0-0.7-0.1-0.9-0.4c-0.2-0.3-0.3-0.6-0.3-1.2v-1.2c0-0.5,0.1-1,0.4-1.3c0.3-0.3,0.7-0.4,1.2-0.4
					c0.5,0,0.9,0.1,1.2,0.4c0.3,0.3,0.4,0.7,0.4,1.3V112.2z M60.3,110.5c0.2,0,0.3-0.1,0.4-0.2c0.1-0.1,0.2-0.3,0.2-0.5v-1.2
					c0-0.2-0.1-0.4-0.2-0.5c-0.1-0.1-0.2-0.1-0.4-0.1s-0.3,0-0.4,0.1c-0.1,0.1-0.1,0.3-0.1,0.5v1.2c0,0.2,0,0.4,0.1,0.5
					C60,110.5,60.1,110.5,60.3,110.5z"/>
			</g>
			<g>
				<path fill="#A87F66" d="M66.2,46.9c4.6,3.8,7.9,8.3,10.8,13.4c6.4,11.1,8,23.8,4.4,36.1c-1.3,4.6,5.9,6.6,7.2,2
					c4-13.9,2.3-28.4-4.6-41c-3.2-5.8-7.4-11.6-12.5-15.8C67.8,38.6,62.4,43.8,66.2,46.9L66.2,46.9z"/>
			</g>
			<g>
				<path fill="#A87F66" d="M20.1,41.6C15,45.9,10.8,51.7,7.6,57.4C0.7,70.1-1,84.6,3,98.4c1.3,4.6,8.6,2.7,7.2-2
					c-3.6-12.3-2-25,4.4-36.1c2.9-5,6.3-9.6,10.8-13.4C29.2,43.8,23.8,38.6,20.1,41.6L20.1,41.6z"/>
			</g>
			<path opacity="0.25" fill="#1D1D1B" d="M20.5,41.1c-4,3.4-7.5,7.7-10.4,12.2l6.1,4.5c2.6-4.3,5.7-8.1,9.6-11.4
				C29.5,43.3,24.2,38.1,20.5,41.1z"/>
			<rect x="29.6" y="99.4" fill="#222329" width="13.5" height="27.5"/>
			<rect x="29.6" y="152" fill="#222329" width="13.5" height="21"/>
			<rect x="49.7" y="152" fill="#222329" width="13.5" height="21"/>
			<rect x="29.6" y="127" fill="#A87F66" width="13.5" height="25"/>
			<rect x="49.7" y="127" fill="#A87F66" width="13.5" height="25"/>
			<rect x="29" y="169" fill="#222329" width="13" height="4"/>
			<rect x="49" y="169" fill="#222329" width="13" height="4"/>
			
				<ellipse transform="matrix(0.9723 0.2336 -0.2336 0.9723 25.4275 -16.9567)" fill="#A87F66" cx="84.3" cy="98.9" rx="4.2" ry="5"/>
			
				<ellipse transform="matrix(-0.9723 0.2336 -0.2336 -0.9723 37.249 192.8168)" fill="#A87F66" cx="7.2" cy="98.6" rx="4.2" ry="5"/>
			<path opacity="0.25" fill="#1D1D1B" d="M29.1,97.6l1.2-0.1l-2.1,0c0,0,0.5,2.5,1.5,3.8l0,10.1l13.5,0.1l0-7.4
				c0,0-5.9,0.1-8.9-1.2C30.3,101.3,29.1,97.6,29.1,97.6z"/>
			<g>
				<path fill="#222329" d="M40.9,0.8c0,0-10,2-11,18c-1,16-1.3,18.3,0.8,18.3s3-16.3,3-16.3s-2,15.8,2,16S40.9,0.8,40.9,0.8z"/>
				<path fill="#222329" d="M53.9,29.6c0,0,0,7.8,2.3,8c2.3,0.3,1.6-13,1.6-13s1.4,13,2.6,12.8c2.5-0.5-0.4-13.5-0.4-13.5
					s3.4,14.1,6.6,12.5c2-1.8-1.9-2.3-4.8-13.3c0,0,4.4,9.6,6.9,8.4c2.5-1.3-3.1-6.3-6.6-15.5S54.4-2.9,40.9,0.8
					C27,4.7,53.9,29.6,53.9,29.6z"/>
				<rect x="34" y="14" fill="#A87F66" width="22" height="33"/>
				<ellipse fill="#A87F66" cx="45.5" cy="14.1" rx="10.8" ry="10.9"/>
				<path fill="#3C3C3B" d="M34.1,14.5c0,0,5.3-10.1,22.5,2.1c0,0,1.2-13.9-11.5-13.8C33.7,3,34.1,14.5,34.1,14.5z"/>
				<path fill="#FFFFFF" d="M37.4,22.6c0,0,6.4,6.6,14.5-0.8C51.9,21.9,43.5,39.2,37.4,22.6z"/>
			</g>
			<g>
				<path fill="#222329" d="M32.9,38.4h-2.8h-2.4h-2.6h-0.1c-3.1,0-5.7,2.6-5.7,5.7l8.5,52c0,0.4,0,0.9,0.1,1.4h0.1h7.3h0.4h25
					c0,0,0-0.1,0-0.1h4.3h0.1c0.1-0.5,0.2-0.9,0.2-1.4l7.1-51.9c0-3.1-2.6-5.7-5.7-5.7l-0.2,0l-1.7,0c0,0,0-0.1,0-0.1l-6.9,0
					c0,0,0,0.1,0,0.1l-1.8,0v0.1c-1.3,4.8-14.3,7.5-14.3,7.5c-4.5-3.2-7.2-7.5-7.2-7.5l0.1-0.1L32.9,38.4"/>
				<path fill="#222329" d="M33.4,104.2h26c2.7,0,5.2-3.6,5.8-6.6H28.2C28.7,100.6,30.7,104.2,33.4,104.2z"/>
				<path fill="#222329" d="M26.4,38.4c0,0-7.2-1.1-12.8,9.1L23.7,58L26.4,38.4z"/>
				<path fill="#222329" d="M65.8,38.4c0,0,7.2-1.1,12.8,9.1L68.5,58L65.8,38.4z"/>
				<polygon fill="#005CA7" points="38.9,44.4 38.9,97.6 46.4,97.6 46.4,45.3 41.8,46.1 				"/>
				<path fill="#005CA7" d="M58.8,38.4v59.2h5.9v-59C64.7,38.5,58.8,38.2,58.8,38.4z"/>
				<path fill="#005CA7" d="M25.3,38.4l0.3,42.5L28,97.4l3.1,0.1v-59C31.1,38.5,25.3,38.2,25.3,38.4z"/>
				<polygon fill="#005CA7" points="71.1,53.6 70.9,46.5 73.8,50.9 				"/>
				<polygon fill="#005CA7" points="21.1,53.6 20.5,47.8 18.9,51.5 				"/>
				<path fill="#2D2D2B" d="M34.6,38.6c0,0,3.1,4.5,7.2,7.5c0,0,12.8-2.9,14.3-7.5l1.2-0.1c0,0-0.8,6-15.9,8.8c0,0-4.7-2.4-7.9-8.8
					L34.6,38.6z"/>
				<g>
					<path fill="#FFFFFF" d="M57.6,47.4v8.1c0,1.9,2.4,3.5,4.4,3.5c2,0,4.4-1.6,4.4-3.5v-8.1H57.6L57.6,47.4z"/>
					<polygon fill="#1D1D1B" points="57.7,47.6 57.7,48.9 66.3,48.9 66.3,47.6 57.7,47.6 					"/>
					<path fill="#FFFFFF" d="M60,48.3c0,0,0,0.1,0,0.1c0,0,0,0.1-0.1,0.1c0,0-0.1,0.1-0.1,0.1c0,0-0.1,0-0.2,0c0,0,0,0,0,0
						c0,0-0.1,0-0.1,0c0,0-0.1,0-0.1,0c0,0-0.1,0-0.1-0.1c0,0,0-0.1,0-0.1c0,0,0-0.1,0-0.1v-0.5h0.2v0.5c0,0,0,0.1,0,0.1
						c0,0,0.1,0,0.1,0c0,0,0.1,0,0.1,0c0,0,0-0.1,0-0.1v-0.5H60V48.3L60,48.3z"/>
					<polygon fill="#FFFFFF" points="60.8,48.6 60.2,48.6 60.2,47.8 60.8,47.8 60.8,48 60.4,48 60.4,48.1 60.8,48.1 60.8,48.3 
						60.4,48.3 60.4,48.4 60.8,48.4 60.8,48.6 					"/>
					<polygon fill="#FFFFFF" points="62.4,48.6 61.8,48.6 61.8,47.8 62.4,47.8 62.4,48 62,48 62,48.1 62.4,48.1 62.4,48.3 62,48.3 
						62,48.4 62.4,48.4 62.4,48.6 					"/>
					<polygon fill="#FFFFFF" points="63,48.6 62.7,48.6 62.7,48 62.5,48 62.5,47.8 63.2,47.8 63.2,48 63,48 63,48.6 					"/>
					<path fill="#FFFFFF" d="M65.6,48.4c0,0.1-0.1,0.1-0.1,0.1c-0.1,0-0.1,0-0.2,0c0,0,0,0,0,0c-0.1,0-0.2,0-0.2,0
						c-0.1,0-0.1-0.1-0.1-0.1c0-0.1-0.1-0.1-0.1-0.2c0-0.1,0-0.2,0.1-0.3c0.1-0.1,0.2-0.1,0.3-0.1c0,0,0,0,0,0c0.1,0,0.2,0,0.3,0.1
						c0.1,0.1,0.1,0.2,0.1,0.3C65.7,48.3,65.6,48.4,65.6,48.4L65.6,48.4z M65.3,48L65.3,48C65.3,48,65.3,48,65.3,48c0,0-0.1,0-0.1,0
						c0,0,0,0.1,0,0.2c0,0.1,0,0.1,0,0.2c0,0,0.1,0,0.1,0c0,0,0.1,0,0.1,0c0,0,0-0.1,0-0.2c0-0.1,0-0.1,0-0.2
						C65.3,48,65.3,48,65.3,48L65.3,48z"/>
					<path fill="#FFFFFF" d="M64.6,48.6l-0.1-0.2l0,0c0,0,0,0,0-0.1c0,0,0,0-0.1,0h0v0.3h-0.2v-0.8h0.4h0c0.1,0,0.1,0,0.2,0
						c0,0,0.1,0,0.1,0.1c0,0,0,0.1,0,0.1c0,0,0,0.1,0,0.1c0,0,0,0.1-0.1,0.1c0,0,0,0-0.1,0c0,0,0,0,0.1,0c0,0,0,0,0,0c0,0,0,0,0,0
						l0.1,0.2H64.6L64.6,48.6z M64.5,48L64.5,48C64.4,48,64.4,48,64.5,48l-0.1,0v0.2h0.1c0,0,0,0,0,0c0,0,0,0,0,0c0,0,0,0,0,0
						C64.5,48.1,64.5,48.1,64.5,48C64.5,48.1,64.5,48,64.5,48C64.5,48,64.5,48,64.5,48L64.5,48z"/>
					<path fill="#FFFFFF" d="M63.8,48.6l0-0.1h-0.3l0,0.1h-0.2l0.3-0.8h0.3l0.3,0.8H63.8L63.8,48.6z M63.6,48L63.6,48l-0.1,0.3h0.2
						L63.6,48L63.6,48z"/>
					<path fill="#FFFFFF" d="M61.4,48.6l-0.1-0.2l0,0c0,0,0,0,0-0.1c0,0,0,0-0.1,0h0v0.3H61v-0.8h0.4h0c0.1,0,0.1,0,0.2,0
						c0,0,0.1,0,0.1,0.1c0,0,0,0.1,0,0.1c0,0,0,0.1,0,0.1c0,0,0,0.1-0.1,0.1c0,0,0,0-0.1,0c0,0,0,0,0.1,0c0,0,0,0,0,0c0,0,0,0,0,0
						l0.1,0.2H61.4L61.4,48.6z M61.3,48L61.3,48C61.3,48,61.3,48,61.3,48l-0.1,0v0.2h0.1c0,0,0,0,0,0c0,0,0,0,0,0c0,0,0,0,0,0
						C61.4,48.1,61.4,48.1,61.3,48C61.4,48.1,61.4,48,61.3,48C61.4,48,61.4,48,61.3,48L61.3,48z"/>
					<path fill="#FFFFFF" d="M59.1,48.7C59.1,48.7,59.1,48.7,59.1,48.7C59,48.6,59,48.6,59,48.6c0,0-0.1,0-0.2,0c0,0,0,0,0,0
						c-0.1,0-0.2,0-0.3-0.1c-0.1-0.1-0.1-0.2-0.1-0.3c0-0.1,0-0.2,0.1-0.3c0.1-0.1,0.2-0.1,0.3-0.1c0,0,0,0,0,0c0.1,0,0.2,0,0.3,0.1
						c0.1,0.1,0.1,0.2,0.1,0.3c0,0.1,0,0.2-0.1,0.3c0,0,0,0,0.1,0c0,0,0,0,0.1,0L59.1,48.7L59.1,48.7z M58.8,48L58.8,48
						C58.8,48,58.8,48,58.8,48c-0.1,0-0.1,0-0.1,0c0,0,0,0.1,0,0.2c0,0.1,0,0.1,0,0.2c0,0,0.1,0,0.1,0c0,0,0,0,0,0c0,0,0,0,0,0
						c0,0,0,0,0,0c0,0,0,0-0.1,0l0-0.1c0,0,0,0,0,0c0,0,0,0,0,0c0,0,0,0,0.1,0c0,0,0,0,0,0c0,0,0-0.1,0-0.2c0-0.1,0-0.1,0-0.2
						C58.9,48,58.8,48,58.8,48L58.8,48z"/>
					<path fill="#1D1D1B" d="M57.7,49.1h8.6v6.4c0,0.9-0.5,1.7-1.3,2.3c-0.8,0.7-2,1.1-3,1.1c-1,0-2.1-0.4-3-1.1
						c-0.8-0.6-1.3-1.4-1.3-2.3V49.1L57.7,49.1z"/>
					<path fill="#FFFFFF" d="M57.7,49.2v6.3c0,0.9,0.5,1.7,1.3,2.3c0.8,0.7,1.9,1.1,2.9,1.1c1,0,2.1-0.4,2.9-1.1
						c0.8-0.6,1.3-1.4,1.3-2.3v-6.3H57.7L57.7,49.2z"/>
					<path fill="#EC6B0C" d="M65.1,49.2h-1l0,3c0.4,0.5,0.7,1.1,0.7,1.8c0,0.3,0,0.5-0.1,0.7c-0.1,0.2-0.2,0.5-0.3,0.7l0,0l0,0
						l0.5,0.4l0,0l0,0l-0.7,0.8l0,0l0,0l0,0l0,1.5c0.3-0.1,0.5-0.3,0.7-0.5c0.1-0.1,0.2-0.1,0.3-0.2L65.1,49.2L65.1,49.2z"/>
					<path fill="#1D1D1B" d="M61.7,56.8l0,1.9c0.1,0,0.2,0,0.3,0c0.2,0,0.4,0,0.7-0.1l0-2c-0.2,0.1-0.4,0.1-0.7,0.1
						C61.9,56.8,61.8,56.8,61.7,56.8L61.7,56.8z"/>
					<path fill="#1D1D1B" d="M62.7,51.3l0-2.1h-1l0,2c0.1,0,0.2,0,0.3,0C62.2,51.2,62.4,51.2,62.7,51.3L62.7,51.3z"/>
					<path fill="#5057A2" d="M63.9,49.2h-1l0,2.2c0.4,0.1,0.7,0.3,1,0.6V49.2L63.9,49.2z"/>
					<path fill="#5057A2" d="M62.9,56.7C62.9,56.7,62.9,56.7,62.9,56.7l0,2c0.3-0.1,0.7-0.2,1-0.3v-2l-0.1-0.2
						C63.5,56.4,63.2,56.6,62.9,56.7L62.9,56.7z"/>
					<path fill="#1D1D1B" d="M62,51.3c1.5,0,2.7,1.2,2.7,2.7c0,0.3,0,0.5-0.1,0.7c-0.1,0.2-0.2,0.5-0.3,0.7l0.5,0.5l0,0l0,0
						l-0.6,0.6l0,0l0,0l-0.4-0.4c-0.2,0.2-0.5,0.4-0.8,0.5c-0.3,0.1-0.6,0.2-0.9,0.2c-1.5,0-2.7-1.2-2.7-2.7
						C59.3,52.5,60.5,51.3,62,51.3L62,51.3z"/>
					<path fill="#FFFFFF" d="M62,51.3c-1.5,0-2.7,1.2-2.7,2.7c0,1.5,1.2,2.7,2.7,2.7c0.3,0,0.6-0.1,0.9-0.2c0.3-0.1,0.6-0.3,0.8-0.5
						l0,0l0,0l0.4,0.4l0.6-0.6l-0.5-0.4l0,0l0,0c0.1-0.2,0.2-0.4,0.3-0.7c0.1-0.2,0.1-0.5,0.1-0.7C64.6,52.5,63.4,51.3,62,51.3
						L62,51.3z"/>
					<path fill="#1D1D1B" d="M62,52.3c0.9,0,1.7,0.8,1.7,1.7c0,0.1,0,0.2,0,0.3c0,0.1-0.1,0.2-0.1,0.3l0,0l0,0l-0.1-0.1l-0.6,0.6
						l0.2,0.2l0,0l0,0c-0.1,0.1-0.3,0.2-0.5,0.3c-0.2,0.1-0.3,0.1-0.5,0.1c-0.9,0-1.7-0.8-1.7-1.7C60.3,53.1,61,52.3,62,52.3
						L62,52.3z"/>
					<path fill="#5057A2" d="M63.6,53.6c0,0-0.1,0.1-0.1,0.1c0,0,0,0.1,0,0.1l0,0.5v0l0,0l-0.2,0l0,0v0l0-0.6c0-0.1-0.1-0.2-0.2-0.3
						c0,0-0.1,0-0.1,0c0,0-0.1,0-0.1,0c-0.1,0-0.2,0.1-0.2,0.3l0,0.6v0h0l-0.2,0l0,0v0l0-0.7c0-0.2-0.1-0.2-0.2-0.3c0,0-0.1,0-0.1,0
						c0,0-0.1,0-0.1,0c-0.1,0-0.2,0.1-0.2,0.3v0.8v0h0l-0.2,0l0,0v0l0-0.9c0-0.2-0.1-0.3-0.2-0.3c-0.1,0-0.1,0-0.2,0
						c-0.1,0-0.1,0-0.2,0c-0.1,0-0.2,0.2-0.2,0.4v0.9v0l0,0l-0.1,0l0,0v0l0-0.9c0-0.1,0-0.1,0-0.2c0,0,0-0.1,0-0.1
						c-0.1,0.2-0.1,0.4-0.1,0.6c0,0.9,0.7,1.7,1.7,1.7c0.2,0,0.4,0,0.5-0.1c0.2-0.1,0.3-0.1,0.5-0.2l-0.2-0.2l0,0l0,0l0.6-0.6l0,0
						l0,0l0.1,0.1c0-0.1,0.1-0.2,0.1-0.3c0-0.1,0-0.2,0-0.3C63.6,53.9,63.6,53.7,63.6,53.6L63.6,53.6z"/>
					<path fill="#5057A2" d="M60.8,52.9l2.7,0.4c-0.3-0.5-0.8-0.9-1.5-0.9C61.5,52.3,61.1,52.5,60.8,52.9L60.8,52.9z"/>
					<path fill="#FFFFFF" d="M63.5,53.3l-2.7-0.4c-0.1,0.1-0.2,0.3-0.3,0.4c0,0,0,0.1,0,0.2c0,0.1,0,0.1,0,0.2l0,0.9l0.1,0v-0.9
						c0-0.2,0.1-0.3,0.3-0.4c0.1,0,0.1,0,0.2,0c0.1,0,0.1,0,0.2,0c0.1,0.1,0.3,0.2,0.3,0.4l0,0.9l0.2,0v-0.8c0-0.1,0.1-0.2,0.3-0.3
						c0,0,0.1,0,0.2,0c0.1,0,0.1,0,0.2,0c0.1,0,0.2,0.1,0.2,0.3v0.7l0.2,0v-0.6c0-0.2,0.1-0.3,0.2-0.3c0,0,0.1,0,0.1,0
						c0,0,0.1,0,0.1,0c0.1,0,0.2,0.1,0.2,0.3l0,0.6l0.1,0l0-0.5c0-0.1,0-0.1,0.1-0.2c0,0,0.1-0.1,0.1-0.1c0,0,0-0.1,0-0.1
						C63.5,53.4,63.5,53.3,63.5,53.3L63.5,53.3z"/>
					<path fill="#1D1D1B" d="M61.7,51.6C61.7,51.6,61.7,51.6,61.7,51.6c-0.1-0.1-0.1-0.1-0.1-0.1c0,0,0,0,0,0c0,0-0.1,0-0.1,0.1
						c0,0,0,0.1,0,0.1c0,0.1,0,0.1,0.1,0.1c0,0,0.1,0,0.1,0c0,0,0,0,0,0c0,0,0.1,0,0.1,0c0,0,0,0,0-0.1c0,0,0,0,0,0c0,0,0,0.1,0,0.1
						c0,0,0,0,0,0.1c0,0,0,0,0,0c0,0,0,0-0.1,0c0,0,0,0,0,0c0,0,0,0,0,0c0,0,0,0,0-0.1l-0.1,0c0,0,0,0.1,0.1,0.1c0,0,0,0,0.1,0
						c0,0,0,0,0.1,0c0,0,0.1,0,0.1-0.1c0,0,0-0.1,0-0.1c0,0,0-0.1,0-0.2C61.8,51.7,61.8,51.7,61.7,51.6L61.7,51.6z M61.7,51.8
						L61.7,51.8C61.7,51.8,61.6,51.9,61.7,51.8C61.6,51.9,61.6,51.9,61.7,51.8c-0.1,0-0.1,0-0.2,0c0,0,0,0,0-0.1c0,0,0-0.1,0-0.1
						c0,0,0,0,0.1,0c0,0,0,0,0,0c0,0,0,0,0.1,0C61.7,51.7,61.7,51.7,61.7,51.8C61.7,51.8,61.7,51.8,61.7,51.8L61.7,51.8z"/>
					<path fill="#1D1D1B" d="M60.8,51.8C60.8,51.8,60.8,51.9,60.8,51.8c0,0.1,0,0.2-0.1,0.2l0,0.1c0,0,0,0,0-0.1c0,0,0-0.1,0-0.1
						l0.2,0.4l0.1,0L60.8,51.8L60.8,51.8L60.8,51.8z"/>
					<path fill="#1D1D1B" d="M62.2,51.8L62.2,51.8c0.1,0,0.1,0,0.1,0c0,0,0,0,0.1,0c0,0,0.1,0,0.1,0c0,0,0,0.1,0,0.1
						c0,0,0,0.1-0.1,0.1c0,0-0.1,0-0.1,0c0,0,0,0-0.1,0c0,0,0,0,0-0.1l-0.1,0c0,0,0,0.1,0,0.1c0,0,0.1,0.1,0.1,0.1
						c0.1,0,0.1,0,0.2,0c0,0,0.1-0.1,0.1-0.1c0-0.1,0-0.1,0-0.1c0,0-0.1-0.1-0.1-0.1C62.3,51.7,62.3,51.7,62.2,51.8l0.1-0.2l0.2,0
						l0-0.1l-0.3,0L62.2,51.8L62.2,51.8z"/>
					<path fill="#1D1D1B" d="M62.9,52.3c0,0,0.1,0,0.1,0c0,0,0,0,0,0c0,0,0,0,0.1,0c0,0,0.1-0.1,0.1-0.1c0,0,0-0.1,0.1-0.1
						c0,0,0-0.1,0-0.1c0,0,0,0,0-0.1c0,0,0,0-0.1-0.1c0,0-0.1,0-0.1,0c0,0,0,0,0,0c0,0,0,0-0.1,0c0,0-0.1,0.1-0.1,0.1
						c0,0.1-0.1,0.2-0.1,0.2C62.8,52.3,62.8,52.3,62.9,52.3L62.9,52.3z M62.9,52L62.9,52c0-0.1,0.1-0.1,0.1-0.1c0,0,0,0,0,0
						c0,0,0.1,0,0.1,0c0,0,0,0,0,0.1c0,0,0,0.1-0.1,0.2c0,0.1-0.1,0.1-0.1,0.1c0,0,0,0,0,0c0,0-0.1,0-0.1,0c0,0,0,0,0-0.1
						C62.9,52.2,62.9,52.1,62.9,52L62.9,52z"/>
					<path fill="#1D1D1B" d="M64.4,54.4C64.4,54.3,64.4,54.3,64.4,54.4c0-0.1,0-0.1-0.1-0.1c0,0,0,0-0.1,0c0,0,0,0,0,0c0,0,0,0,0,0
						c0,0,0,0-0.1,0.1c0,0,0,0,0-0.1c0,0,0,0-0.1,0c0,0,0,0,0,0c0,0,0,0,0,0c0,0,0,0-0.1,0c0,0,0,0.1,0,0.1l0,0.2l0.2,0l0.2,0l0.1,0
						L64.4,54.4C64.4,54.4,64.4,54.4,64.4,54.4L64.4,54.4z M64.1,54.4L64.1,54.4l0,0.1l-0.1,0l-0.1,0l0-0.1c0,0,0-0.1,0-0.1
						c0,0,0,0,0,0c0,0,0,0,0,0c0,0,0,0,0,0c0,0,0,0,0,0C64.1,54.3,64.1,54.3,64.1,54.4C64.1,54.4,64.1,54.4,64.1,54.4L64.1,54.4z
						 M64.4,54.4L64.4,54.4l0,0.1l-0.1,0l-0.1,0l0-0.1c0,0,0-0.1,0-0.1c0,0,0,0,0,0c0,0,0,0,0,0c0,0,0,0,0,0c0,0,0,0,0,0
						C64.3,54.3,64.3,54.3,64.4,54.4C64.4,54.4,64.4,54.4,64.4,54.4C64.4,54.4,64.4,54.4,64.4,54.4L64.4,54.4z"/>
					<polygon fill="#1D1D1B" points="60.6,55.5 60.7,55.5 60.7,55.5 60.6,55.4 60.4,55.2 60.4,55.2 60.5,55.4 60.2,55.6 60.1,55.7 
						60.2,55.7 60.2,55.7 60.5,55.4 60.6,55.5 					"/>
					<path fill="#1D1D1B" d="M63.3,55.9L63.3,55.9c0,0.1,0,0.1,0,0.1c0,0,0,0.1-0.1,0.1c0,0-0.1,0-0.1,0c0,0-0.1,0-0.1,0
						c0,0-0.1-0.1-0.1-0.1c0,0,0-0.1,0-0.1c0,0,0-0.1,0-0.1c0,0,0-0.1,0.1-0.1c0,0,0.1,0,0.1,0c0,0,0.1,0,0.1,0l0.1,0
						c0,0-0.1-0.1-0.1-0.1c0,0-0.1,0-0.1,0c0,0-0.1,0.1-0.1,0.1c0,0,0,0.1,0,0.1c0,0,0,0.1,0,0.1c0,0,0.1,0.1,0.1,0.1
						c0,0,0.1,0,0.1,0c0,0,0.1,0,0.1,0c0,0,0,0,0.1-0.1c0,0,0,0,0-0.1C63.4,56,63.4,55.9,63.3,55.9L63.3,55.9L63.3,55.9z"/>
					<path fill="#1D1D1B" d="M60.3,55.1L60.3,55.1L60.3,55.1L60,55.2c-0.1,0-0.1,0-0.1,0c0,0-0.1,0-0.1-0.1c0,0,0-0.1,0-0.1
						c0,0,0,0,0-0.1c0,0,0,0,0.1-0.1l0.3-0.1l0-0.1l-0.3,0.1c-0.1,0-0.1,0.1-0.1,0.1c0,0,0,0.1,0,0.1c0,0,0,0.1,0,0.1
						c0,0,0,0.1,0.1,0.1c0,0,0.1,0,0.1,0c0,0,0.1,0,0.1,0L60.3,55.1L60.3,55.1L60.3,55.1z"/>
					<polygon fill="#1D1D1B" points="59.8,54.6 59.9,54.5 59.8,54.3 60,54.3 60,54.6 60.1,54.5 60,54.2 59.5,54.3 59.5,54.3 
						59.8,54.3 59.8,54.6 					"/>
					<path fill="#1D1D1B" d="M61,55.7l-0.1-0.1l-0.1,0l-0.2,0.3L60.5,56l0.1,0.1l0.1,0.1c0,0,0.1,0,0.1,0c0,0,0,0,0.1,0c0,0,0,0,0,0
						c0,0,0,0,0,0c0,0,0,0,0.1-0.1c0,0,0-0.1,0-0.1c0,0,0-0.1,0-0.1c0,0,0.1,0,0.1,0c0,0,0,0,0.1,0c0,0,0,0,0-0.1
						C61.1,55.8,61.1,55.8,61,55.7C61.1,55.7,61,55.7,61,55.7L61,55.7z M60.9,56.1L60.9,56.1C60.9,56.1,60.9,56.1,60.9,56.1
						C60.9,56.1,60.9,56.1,60.9,56.1C60.9,56.1,60.9,56.1,60.9,56.1c-0.1,0-0.1,0-0.1,0c0,0,0,0,0,0L60.6,56l0.1-0.2l0.1,0.1
						c0,0,0,0,0.1,0c0,0,0,0,0,0C60.9,56,60.9,56,60.9,56.1C60.9,56.1,60.9,56.1,60.9,56.1L60.9,56.1z M61,55.9L61,55.9
						C61,55.9,61,55.9,61,55.9C61,55.9,61,55.9,61,55.9c-0.1,0-0.1,0-0.1,0c0,0,0,0,0,0l-0.1-0.1l0.1-0.1l0,0l0,0
						C61,55.7,61,55.8,61,55.9C61,55.8,61,55.8,61,55.9C61,55.8,61,55.9,61,55.9L61,55.9z"/>
					<polygon fill="#1D1D1B" points="62.1,56.4 62,55.9 61.9,56 62,56.5 62.3,56.5 62.3,56.4 62.1,56.4 					"/>
					<polygon fill="#1D1D1B" points="63.7,55.7 63.3,55.4 63.3,55.4 63.3,55.5 63.3,55.5 63.7,55.8 63.9,55.6 63.8,55.5 63.7,55.7 
											"/>
					<path fill="#1D1D1B" d="M64.2,54.9c0,0-0.1-0.1-0.1-0.1l-0.1,0l-0.2-0.1l0,0.1l0.3,0.1l0,0C64.1,55,64.1,55,64.2,54.9
						c0,0.1,0,0.2,0,0.2c0,0,0,0-0.1,0.1c0,0,0,0-0.1,0c0,0,0,0,0,0c0,0-0.1,0-0.1,0L63.6,55l0,0.1l0.3,0.1c0.1,0,0.1,0,0.1,0
						c0,0,0,0,0,0c0,0,0.1,0,0.1,0c0,0,0.1-0.1,0.1-0.1C64.2,55.1,64.2,55.1,64.2,54.9C64.2,55,64.2,55,64.2,54.9L64.2,54.9z"/>
					<path fill="#1D1D1B" d="M61.7,56c0,0-0.1-0.1-0.1-0.1c0,0,0,0-0.1,0c0,0-0.1,0-0.1,0c-0.1,0-0.1,0.1-0.1,0.2c0,0,0,0.1,0,0.1
						c0,0,0,0.1,0.1,0.1c0,0,0.1,0.1,0.1,0.1c0,0,0,0,0.1,0c0,0,0,0,0.1,0c0,0,0.1,0,0.1-0.1c0,0,0.1-0.1,0.1-0.1c0-0.1,0-0.1,0-0.2
						C61.7,56,61.7,56,61.7,56L61.7,56z M61.7,56.2L61.7,56.2c0,0.1,0,0.1-0.1,0.1c0,0-0.1,0-0.1,0c0,0,0,0-0.1,0
						c-0.1,0-0.1,0-0.1-0.1c0,0,0-0.1,0-0.2c0-0.1,0.1-0.1,0.1-0.2c0,0,0.1,0,0.1,0c0,0,0,0,0.1,0c0,0,0.1,0,0.1,0c0,0,0,0.1,0,0.1
						C61.7,56.1,61.7,56.2,61.7,56.2L61.7,56.2z"/>
					<path fill="#1D1D1B" d="M62.2,55.4c-0.1,0-0.2,0-0.3,0c-0.1,0-0.2-0.1-0.2-0.2c0-0.1,0-0.2,0-0.3c0-0.1,0.1-0.2,0.2-0.2
						c0.1,0,0.2,0,0.3,0c0.1,0,0.2,0.1,0.2,0.2c0,0.1,0,0.2,0,0.3C62.4,55.3,62.3,55.4,62.2,55.4L62.2,55.4z"/>
					<path fill="#FFFFFF" d="M62.4,54.9C62.4,54.9,62.4,54.9,62.4,54.9C62.4,54.9,62.4,54.9,62.4,54.9
						C62.4,54.9,62.4,54.9,62.4,54.9L62.4,54.9L62.4,54.9z"/>
					<rect x="61.8" y="55.3" fill="#FFFFFF" width="0" height="0"/>
					<path fill="#FFFFFF" d="M62.3,54.8c0.1,0,0.1,0.1,0.1,0.1c0,0,0,0,0,0c0,0,0,0,0,0C62.4,54.9,62.4,54.8,62.3,54.8
						C62.3,54.8,62.3,54.8,62.3,54.8L62.3,54.8z"/>
					<path fill="#FFFFFF" d="M61.9,54.7c0.1,0,0.1,0,0.2,0c0,0,0,0,0,0C62.1,54.7,62,54.7,61.9,54.7C61.9,54.7,61.9,54.7,61.9,54.7
						C61.9,54.7,61.9,54.7,61.9,54.7L61.9,54.7z"/>
					<path fill="#FFFFFF" d="M62.1,55.4C62.1,55.4,62.1,55.4,62.1,55.4c0,0,0.1,0,0.1,0c0,0,0,0,0,0c0,0,0,0,0,0
						C62.1,55.4,62.1,55.4,62.1,55.4L62.1,55.4z"/>
					<path fill="#FFFFFF" d="M61.7,55.1C61.7,55.1,61.7,55.1,61.7,55.1C61.7,55.1,61.7,55.2,61.7,55.1c0,0.1,0,0.1,0.1,0.1
						c0,0,0,0,0,0C61.8,55.2,61.7,55.2,61.7,55.1L61.7,55.1z"/>
					<path fill="#FFFFFF" d="M62.3,55.3C62.3,55.3,62.2,55.3,62.3,55.3C62.2,55.4,62.2,55.4,62.3,55.3L62.3,55.3L62.3,55.3
						c0.1,0,0.1,0,0.1-0.1c0,0,0,0,0,0c0,0,0,0,0,0C62.3,55.2,62.3,55.3,62.3,55.3L62.3,55.3z"/>
					<path fill="#FFFFFF" d="M61.7,55.1C61.7,55.1,61.7,55.1,61.7,55.1C61.7,55.1,61.7,55.1,61.7,55.1c0.1-0.1,0.1-0.1,0.1-0.2
						c0,0,0,0,0-0.1c0,0,0,0,0,0.1C61.7,55,61.7,55,61.7,55.1L61.7,55.1L61.7,55.1L61.7,55.1z"/>
					<path fill="#FFFFFF" d="M62,55.4C62,55.4,62,55.4,62,55.4C62,55.4,62,55.4,62,55.4c0-0.1-0.1-0.1-0.1-0.1c0,0,0,0-0.1,0
						c0,0,0,0,0,0v0c0,0,0.1,0.1,0.1,0.1C61.9,55.4,62,55.4,62,55.4L62,55.4L62,55.4L62,55.4z"/>
					<path fill="#FFFFFF" d="M62,54.9c0,0,0.1,0,0.1,0l0-0.1c0,0-0.1-0.1-0.1-0.1c0,0-0.1,0-0.2,0C61.9,54.8,61.9,54.8,62,54.9
						C62,54.9,62,54.9,62,54.9L62,54.9z"/>
					<path fill="#FFFFFF" d="M62,54.9C62,54.9,62,54.9,62,54.9c-0.1-0.1-0.2,0-0.2,0c0,0.1,0,0.1,0,0.2c0,0,0,0,0.1,0.1
						c0,0,0.1-0.1,0.1-0.1C62,55,62,54.9,62,54.9L62,54.9z"/>
					<path fill="#FFFFFF" d="M62.2,54.8L62.2,54.8c0,0.1,0,0.2,0,0.2c0.1,0,0.1,0,0.1,0c0,0,0-0.1,0-0.1c0,0,0-0.1-0.1-0.1
						C62.3,54.8,62.3,54.8,62.2,54.8L62.2,54.8z"/>
					<path fill="#FFFFFF" d="M62.2,55C62.2,55,62.2,55.1,62.2,55c-0.1,0.2-0.1,0.2-0.1,0.2c0,0,0.1,0,0.1,0c0.1,0,0.1-0.1,0.1-0.1
						c0,0,0-0.1,0-0.1C62.3,55,62.3,55,62.2,55L62.2,55z"/>
					<path fill="#FFFFFF" d="M62,55.1c0,0-0.1,0-0.1,0.1c0,0.1,0,0.1,0,0.1c0,0,0.1,0.1,0.1,0.1c0,0,0.1,0,0.1-0.1c0,0,0-0.1,0-0.1
						C62.1,55.1,62,55.1,62,55.1L62,55.1z"/>
				</g>
				<g>
					<g>
						<path fill="#FFFFFF" d="M33.6,49.6c-0.6-0.5-1.2-0.9-1.8-1.4c1,3.5-1.9,4.4-4.9,5.1c2.4-0.3,4.8-0.4,6.7-0.4
							c1.5,0,3.1,0.2,4.4,0.5C36.7,52,35.1,50.7,33.6,49.6z M33.6,52c-0.5,0-1,0-1.6,0c0.4-0.6,0.8-1.1,0.9-1.9
							c0.2,0.2,0.5,0.4,0.7,0.6c0.5,0.4,1.1,0.9,1.6,1.4C34.7,52.1,34.2,52,33.6,52z M28.6,53.6l-1.6,0v1.8h0.4v-0.7h1.2
							c0.2,0,0.3-0.1,0.3-0.3v-0.4C28.9,53.8,28.8,53.6,28.6,53.6z M28.5,54.3c0,0.1-0.1,0.1-0.1,0.1h-1v-0.5h1
							c0.1,0,0.1,0.1,0.1,0.1V54.3z M29.6,55.4H30v-1.8h-0.4V55.4z M32.5,54.7c0.2,0,0.3-0.1,0.3-0.3v-0.4c0-0.2-0.1-0.3-0.3-0.3
							l-1.6,0v1.8h0.4v-0.7h0.4l0.7,0.7H33l-0.8-0.7H32.5z M31.3,54.4v-0.5h1c0.1,0,0.1,0.1,0.1,0.1v0.2c0,0.1-0.1,0.1-0.1,0.1H31.3
							z M37.9,53.6h-0.4l-1,1.8h0.4l0.2-0.4h1.1l0.2,0.4l0.5,0L37.9,53.6z M37.3,54.7l0.4-0.7l0,0l0.4,0.7H37.3z M34.8,54.7L34,53.6
							h-0.3v1.8H34v-1.3l0.8,1h0.1l0.7-1v1.3H36v-1.8h-0.3L34.8,54.7z"/>
						<path fill="#FFFFFF" d="M31.8,48.2c1,3.5-1.9,4.4-4.9,5.1c2-0.3,4-0.4,5.8-0.4c0.3,0,0.7,0,1,0c1.5,0,3.1,0.2,4.4,0.5
							c-1.3-1.3-2.9-2.6-4.4-3.8C33,49.1,32.4,48.6,31.8,48.2L31.8,48.2z M35.2,52.1c-0.5-0.1-1-0.1-1.6-0.1c-0.5,0-1,0-1.6,0
							c0.4-0.6,0.8-1.1,0.9-1.9c0.2,0.2,0.5,0.4,0.7,0.6C34.1,51.1,34.7,51.6,35.2,52.1L35.2,52.1z M37.9,53.6h-0.4l-1,1.8h0.4
							l0.2-0.4h1.1l0.2,0.4l0.5,0L37.9,53.6L37.9,53.6z M37.3,54.7l0.4-0.7l0,0l0.4,0.7H37.3L37.3,54.7z M36,53.6h-0.3l-0.8,1.1
							L34,53.6h-0.3v1.8H34v-1.3l0.8,1h0.1l0.7-1v1.3H36V53.6L36,53.6z M30.9,53.6v1.8h0.4v-0.7h0.4l0.7,0.7H33l-0.8-0.7h0.3
							c0.2,0,0.3-0.1,0.3-0.3v-0.4c0-0.2-0.1-0.3-0.3-0.3L30.9,53.6L30.9,53.6z M31.3,54.4v-0.5h1c0.1,0,0.1,0.1,0.1,0.1v0.2
							c0,0.1-0.1,0.1-0.1,0.1H31.3L31.3,54.4z M30,53.6h-0.4v1.8H30V53.6L30,53.6z M27,53.6v1.8h0.4v-0.7h1.2c0.2,0,0.3-0.1,0.3-0.3
							v-0.4c0-0.2-0.1-0.3-0.3-0.3L27,53.6L27,53.6z M27.4,54.4v-0.5h1c0.1,0,0.1,0.1,0.1,0.1v0.2c0,0.1-0.1,0.1-0.1,0.1H27.4
							L27.4,54.4z"/>
					</g>
					<g>
						<g>
							<path fill="#FFFFFF" d="M33.6,49.6c-0.6-0.5-1.2-0.9-1.8-1.4c1,3.5-1.9,4.4-4.9,5.1c2.4-0.3,4.8-0.4,6.7-0.4
								c1.5,0,3.1,0.2,4.4,0.5C36.7,52,35.1,50.7,33.6,49.6z M33.6,52c-0.5,0-1,0-1.6,0c0.4-0.6,0.8-1.1,0.9-1.9
								c0.2,0.2,0.5,0.4,0.7,0.6c0.5,0.4,1.1,0.9,1.6,1.4C34.7,52.1,34.2,52,33.6,52z"/>
							<path fill="#FFFFFF" d="M29.6,55.4H30v-1.8h-0.4V55.4z M28.6,53.6l-1.6,0v1.8h0.4v-0.7h1.2c0.2,0,0.3-0.1,0.3-0.3v-0.4
								C28.9,53.8,28.8,53.6,28.6,53.6z M28.5,54.3c0,0.1-0.1,0.1-0.1,0.1h-1v-0.5h1c0.1,0,0.1,0.1,0.1,0.1V54.3z M34.8,54.7
								L34,53.6h-0.3v1.8H34v-1.3l0.8,1h0.1l0.7-1v1.3H36v-1.8h-0.3L34.8,54.7z M32.5,54.7c0.2,0,0.3-0.1,0.3-0.3v-0.4
								c0-0.2-0.1-0.3-0.3-0.3l-1.6,0v1.8h0.4v-0.7h0.4l0.7,0.7H33l-0.8-0.7H32.5z M31.3,54.4v-0.5h1c0.1,0,0.1,0.1,0.1,0.1v0.2
								c0,0.1-0.1,0.1-0.1,0.1H31.3z M37.9,53.6h-0.4l-1,1.8h0.4l0.2-0.4h1.1l0.2,0.4l0.5,0L37.9,53.6z M37.3,54.7l0.4-0.7l0,0
								l0.4,0.7H37.3z"/>
						</g>
					</g>
				</g>
				<g>
					<g>
						<g>
							<polygon fill="#FFFFFF" points="35.3,67.6 37.3,62 36.9,62 35.1,67 							"/>
							<polygon fill="#FFFFFF" points="35.6,68.3 37.9,62 37.4,62 35.4,67.7 							"/>
							<polygon fill="#FFFFFF" points="35.9,69 38.4,62 38,62 35.7,68.4 							"/>
							<polygon fill="#FFFFFF" points="36.2,69.7 39,62 38.6,62 36,69.2 							"/>
						</g>
						<g>
							<path fill="#FFFFFF" d="M41,62.2c0,0.1,0,0.2,0,0.3c0,0.1-0.1,0.2-0.2,0.3c0,0-0.1,0.1-0.2,0.1c0.1,0,0.1,0.1,0.1,0.2
								c0,0.1,0,0.2,0,0.3c0,0.1-0.1,0.2-0.2,0.3c-0.1,0.1-0.1,0.1-0.2,0.1c-0.1,0-0.2,0.1-0.2,0.1c-0.1,0-0.2,0-0.3,0h-0.8l0.7-1.8
								h0.9C40.8,62,40.9,62.1,41,62.2z M39.7,63l-0.2,0.5H40c0.1,0,0.1,0,0.2,0c0.1,0,0.2-0.1,0.2-0.2c0-0.1,0-0.2,0-0.2
								c0,0-0.1,0-0.2,0H39.7z M40,62.3l-0.1,0.4h0.4c0.1,0,0.1,0,0.2,0c0.1,0,0.1-0.1,0.1-0.2c0-0.1,0-0.1,0-0.2c0,0-0.1,0-0.2,0
								H40z"/>
							<path fill="#FFFFFF" d="M42,62h0.4l0,1.8H42l0-0.4h-0.7l-0.3,0.4h-0.4L42,62z M41.6,63.1h0.5l0-0.7L41.6,63.1z"/>
							<path fill="#FFFFFF" d="M43.3,62h0.4l0.3,1.2l0.5-1.2h0.3l-0.7,1.8h-0.4l-0.3-1.3L43,63.8h-0.3L43.3,62z"/>
							<path fill="#FFFFFF" d="M45.2,62.2c0.2-0.1,0.4-0.2,0.6-0.2c0.3,0,0.5,0.1,0.5,0.3c0,0.1,0,0.2,0,0.3H46c0-0.1,0-0.2,0-0.2
								c0-0.1-0.1-0.1-0.3-0.1c-0.1,0-0.3,0.1-0.4,0.2c-0.1,0.1-0.2,0.3-0.3,0.5c-0.1,0.2-0.1,0.3,0,0.4c0,0.1,0.1,0.1,0.3,0.1
								c0.1,0,0.2,0,0.3-0.1c0.1,0,0.1-0.1,0.2-0.2h0.4c-0.1,0.2-0.2,0.4-0.4,0.5c-0.2,0.1-0.4,0.2-0.6,0.2c-0.3,0-0.4-0.1-0.5-0.2
								c-0.1-0.2-0.1-0.4,0-0.7C44.8,62.6,45,62.4,45.2,62.2z"/>
							<path fill="#FFFFFF" d="M47.7,63.7c-0.2,0.1-0.4,0.2-0.7,0.2c-0.3,0-0.4-0.1-0.5-0.2c-0.1-0.2-0.1-0.4,0-0.7
								c0.1-0.3,0.3-0.6,0.5-0.7c0.2-0.1,0.4-0.2,0.7-0.2c0.3,0,0.4,0.1,0.5,0.2c0.1,0.2,0.1,0.4,0,0.7
								C48.1,63.2,47.9,63.5,47.7,63.7z M47.5,63.4c0.1-0.1,0.2-0.3,0.3-0.5c0.1-0.2,0.1-0.4,0-0.5c0-0.1-0.1-0.2-0.3-0.2
								c-0.1,0-0.3,0.1-0.4,0.2c-0.1,0.1-0.2,0.3-0.3,0.5c-0.1,0.2-0.1,0.4,0,0.5c0.1,0.1,0.1,0.2,0.3,0.2
								C47.3,63.6,47.4,63.5,47.5,63.4z"/>
						</g>
						<path fill-rule="evenodd" clip-rule="evenodd" fill="#FFFFFF" d="M57.5,67.7l0.5-1.5l0.5,1.5H57.5z M58.7,64.8h-1.2l-1.8,4.9
							h1.2l0.3-1h1.6c0,0.1,0.3,1,0.3,1h1.3L58.7,64.8z M34.1,64.8h-1.3v4.9h2.3V67L34.1,64.8z M38.1,64.8L37.3,67v2.7h2.3v-4.9
							H38.1z M42.8,64.8v3c0,0.3,0,0.5-0.1,0.7c-0.1,0.2-0.3,0.3-0.7,0.3c-0.4,0-0.6-0.1-0.7-0.3c-0.1-0.1-0.1-0.4-0.1-0.7v-3H40v3
							c0,0.5,0.1,0.9,0.2,1.2c0.3,0.5,0.9,0.8,1.7,0.8c0.9,0,1.4-0.3,1.7-0.8c0.2-0.3,0.2-0.7,0.2-1.2v-3H42.8z M44.4,64.8v4.9H48
							v-1h-2.4v-3.9H44.4z M46.9,64.8v1h1.4v3.9h1.2v-3.9h1.4v-1H46.9z M51.3,64.8h1.1h0h1.2c0,0,0.8,2.8,1,3.4l1-3.4h1.2l-1.7,4.9
							h-1.1l-1.6-4.8v4.8h-1.2V64.8z"/>
					</g>
				</g>
			</g>
		</g>
	</g>
</g>
</svg>
