<?xml version="1.0" encoding="utf-8"?>
<!-- Generator: Adobe Illustrator 18.1.0, SVG Export Plug-In . SVG Version: 6.00 Build 0)  -->
<!DOCTYPE svg PUBLIC "-//W3C//DTD SVG 1.1//EN" "http://www.w3.org/Graphics/SVG/1.1/DTD/svg11.dtd">
<svg version="1.1" id="Layer_1" xmlns="http://www.w3.org/2000/svg" xmlns:xlink="http://www.w3.org/1999/xlink" x="0px" y="0px"
	 viewBox="0 0 345 468" enable-background="new 0 0 345 468" xml:space="preserve">
<g>
	<g>
		<path fill="#808386" d="M7315.5,3528.4v13.6c0,0,15.2,16.1,77.6,16.1s72.6-22.6,72.6-22.6v-23.9
			C7465.7,3511.6,7327,3480,7315.5,3528.4z"/>
		<path fill="none" stroke="#CBCBCB" stroke-miterlimit="10" d="M7318.9,3473.8l-27.9,15.5c0,0-6.5,11.6,37.8,25.8v17.4
			c0,0,80.4,17.1,122.4-4.2v-14.2c0,0,24.5-8.7,33.9-26.8c0,0-20.6-9.7-24.9-13.5C7456,3470,7385.3,3452.2,7318.9,3473.8z"/>
		<ellipse fill="#3C688E" cx="7390.8" cy="3495.1" rx="68.3" ry="22.3"/>
		<ellipse fill="#F2EFE5" cx="7391.5" cy="3497.8" rx="65.1" ry="22"/>
		<path fill="#9B9DA4" d="M7455,3502.7c0,0,17.1-14.3,11.8-23.5c-5.3-9.2-30-21.8-75.3-21.8c-45.3,0-81.6,16.9-84,27.6
			s18.9,17.7,18.9,17.7s-16.6-29.8,64.4-29.8C7474.1,3472.9,7455,3502.7,7455,3502.7z"/>
		<path fill="#95989B" d="M7328.8,3533c0,0-33.6-8.5-38.1-22.7v-19.7c0,0,4.5,14.5,38.1,24.5V3533z"/>
		<path fill="#95989B" d="M7451.2,3529v-14.8c0,0,24.2-9,33.9-26.8v22C7485.1,3509.3,7473.1,3524.2,7451.2,3529z"/>
		<path fill="#CBCBCB" d="M7440.4,3497.8l10.7,16.4c0,0,23.1-7.7,33.9-26.8l-19.4-11.6C7465.7,3475.8,7464.2,3493.7,7440.4,3497.8z"
			/>
		<path fill="#CBCBCB" d="M7328.8,3515.2l12.1-13.7c0,0-39.1-7.2-27.8-23.7l-22.1,11.6C7291,3489.3,7292.7,3507.1,7328.8,3515.2z"/>
		<polygon fill="#808386" points="7446.7,3530.9 7446.7,3515.2 7438.5,3504.6 7440.4,3497.8 7451.2,3514.2 7451.2,3529 		"/>
		<polygon fill="#808386" points="7328.8,3533 7328.8,3515.2 7340.9,3501.4 7340.9,3507.9 7333.4,3517.4 7333.7,3534 		"/>
		<path fill="#6C6C74" d="M7340.9,3507.9c0,0,61.7,8.8,98.4-2.2l7.4,9.5v15.8c0,0-25.9,18-113.1,3.1l-0.3-16.6L7340.9,3507.9z"/>
	</g>
	<g>
		<rect x="7392.1" y="3348.9" fill="#222329" width="28.9" height="58.8"/>
		<g>
			<path fill="#FFFFFF" d="M7402.8,3375l4.1-9.8h2.5v9.8h1.1v2.1h-1.1v2.6h-2.2v-2.6h-4.4V3375z M7407.2,3375v-5.4l-2.3,5.4H7407.2z
				"/>
			<path fill="#FFFFFF" d="M7418.3,3376.1c0,1.2-0.3,2.2-0.8,2.8c-0.6,0.6-1.4,1-2.6,1c-1.1,0-2-0.3-2.5-0.9
				c-0.6-0.6-0.9-1.5-0.9-2.7v-0.4h2.2v0.5c0,0.5,0.1,0.9,0.3,1.1c0.2,0.2,0.5,0.3,0.9,0.3c0.4,0,0.7-0.1,0.9-0.4
				c0.2-0.2,0.3-0.7,0.3-1.4v-2.6c-0.4,0.9-1.1,1.3-2.1,1.3c-0.8,0-1.5-0.3-1.9-0.8c-0.4-0.6-0.6-1.4-0.6-2.5v-2.6
				c0-1.2,0.3-2.1,0.9-2.7c0.6-0.6,1.4-0.9,2.6-0.9c1.1,0,2,0.3,2.6,0.9c0.6,0.6,0.9,1.5,0.9,2.7V3376.1z M7414.8,3372.6
				c0.4,0,0.6-0.1,0.9-0.3c0.2-0.2,0.3-0.6,0.3-1.1v-2.6c0-0.5-0.1-0.9-0.3-1.1s-0.5-0.3-0.9-0.3s-0.6,0.1-0.9,0.3
				c-0.2,0.2-0.3,0.6-0.3,1.1v2.6c0,0.5,0.1,0.9,0.3,1.1C7414.2,3372.4,7414.4,3372.6,7414.8,3372.6z"/>
		</g>
		<g>
			<path fill="#A87F66" d="M7427.3,3236.7c9.7,8.1,16.9,17.8,23.1,28.6c13.6,23.7,17,50.8,9.4,77.1c-2.9,9.9,12.6,14.2,15.5,4.3
				c8.6-29.6,4.9-60.6-9.9-87.6c-6.8-12.3-15.8-24.7-26.7-33.8C7430.8,3218.8,7419.4,3230.1,7427.3,3236.7L7427.3,3236.7z"/>
		</g>
		<g>
			<path fill="#A87F66" d="M7329,3225.4c-10.9,9-19.9,21.5-26.7,33.8c-14.9,27-18.5,57.9-9.9,87.6c2.9,9.9,18.3,5.7,15.5-4.3
				c-7.6-26.3-4.2-53.4,9.4-77.1c6.2-10.8,13.4-20.5,23.1-28.6C7348.3,3230.1,7336.9,3218.8,7329,3225.4L7329,3225.4z"/>
		</g>
		<path opacity="0.25" fill="#1D1D1B" d="M7329.7,3224.3c-8.6,7.2-16.1,16.4-22.2,26.1l12.9,9.6c5.6-9.1,12.1-17.3,20.6-24.3
			C7349,3229.1,7337.6,3217.8,7329.7,3224.3z"/>
		<rect x="7349.3" y="3348.9" fill="#222329" width="28.9" height="58.8"/>
		<rect x="7349.3" y="3461.1" fill="#222329" width="28.9" height="44.9"/>
		<rect x="7392.1" y="3461.1" fill="#222329" width="28.9" height="44.9"/>
		<rect x="7349.3" y="3407.7" fill="#A87F66" width="28.9" height="53.4"/>
		<rect x="7392.1" y="3407.7" fill="#A87F66" width="28.9" height="53.4"/>
		<rect x="7349" y="3497" fill="#222329" width="28" height="9"/>
		<rect x="7391" y="3497" fill="#222329" width="29" height="9"/>
		
			<ellipse transform="matrix(0.9723 0.2336 -0.2336 0.9723 988.5989 -1651.4835)" fill="#A87F66" cx="7466.1" cy="3347.7" rx="9" ry="10.8"/>
		
			<ellipse transform="matrix(-0.9723 0.2336 -0.2336 -0.9723 15182.7373 4895.9922)" fill="#A87F66" cx="7301.4" cy="3347.1" rx="9" ry="10.8"/>
		<path opacity="0.25" fill="#1D1D1B" d="M7348.1,3345l2.6-0.1l-4.4,0c0,0,1.1,5.3,3.1,8.1l-0.1,21.5l28.9,0.1l0.1-15.7
			c0,0-12.6,0.3-19.1-2.5C7350.8,3352.8,7348.1,3345,7348.1,3345z"/>
		<g>
			<path fill="#222329" d="M7373.4,3138.3c0,0-21.4,4.3-23.5,38.5c-2.1,34.2-2.7,39,1.6,39s6.4-34.7,6.4-34.7s-4.3,33.7,4.3,34.2
				C7370.7,3215.8,7373.4,3138.3,7373.4,3138.3z"/>
			<path fill="#222329" d="M7401.2,3199.7c0,0,0,16.6,4.8,17.1c4.8,0.5,3.5-27.8,3.5-27.8s2.9,27.8,5.6,27.3
				c5.3-1.1-0.8-28.9-0.8-28.9s7.2,30.2,14.2,26.7c4.3-3.7-4-4.8-10.2-28.3c0,0,9.4,20.6,14.7,17.9s-6.7-13.4-14.2-33.1
				s-16.6-40.4-45.4-32.3C7343.7,3146.6,7401.2,3199.7,7401.2,3199.7z"/>
			<rect x="7359" y="3166" fill="#A87F66" width="46" height="70"/>
			<ellipse fill="#A87F66" cx="7383.2" cy="3166.5" rx="23.2" ry="23.4"/>
			<path fill="#3C3C3B" d="M7358.8,3167.5c0,0,11.3-21.6,48,4.5c0,0,2.6-29.8-24.5-29.4C7358.1,3142.9,7358.8,3167.5,7358.8,3167.5z
				"/>
			<path fill="#FFFFFF" d="M7365.9,3184.8c0,0,13.6,14.2,31-1.6C7396.9,3183.2,7379,3220.3,7365.9,3184.8z"/>
		</g>
		<g>
			<path fill="#222329" d="M7356.4,3218.6h-5.9h-5.1h-5.5h-0.3c-6.7,0-12.2,5.5-12.2,12.2l18.2,111.1c0,0.9,0.1,1.9,0.3,3h0.3h15.5
				h0.8h53.4c0-0.1,0-0.1,0-0.2h9.2h0.3c0.2-1,0.3-2,0.3-2.9l15.2-110.8c0-6.7-5.5-12.1-12.1-12.1l-0.4,0l-3.6,0c0-0.1,0-0.1,0-0.2
				l-14.8,0c0,0.1,0,0.1,0,0.2l-3.9,0v0.2c-2.9,10.3-30.6,16-30.6,16c-9.6-6.8-15.3-16-15.3-16l0.2-0.2h-3.7"/>
			<path fill="#222329" d="M7357.4,3359h55.6c5.7,0,11.1-7.8,12.4-14.2h-79.2C7347.3,3351.3,7351.6,3359,7357.4,3359z"/>
			<path fill="#222329" d="M7342.4,3218.5c0,0-15.3-2.3-27.4,19.4l21.7,22.4L7342.4,3218.5z"/>
			<path fill="#222329" d="M7426.7,3218.5c0,0,15.3-2.3,27.4,19.4l-21.7,22.4L7426.7,3218.5z"/>
			<polygon fill="#005CA7" points="7369.1,3231.3 7369.1,3344.9 7385.2,3344.9 7385.2,3233.2 7375.4,3235 			"/>
			<path fill="#005CA7" d="M7411.6,3218.5v126.4h12.6v-126.1C7424.2,3218.8,7411.6,3218.2,7411.6,3218.5z"/>
			<path fill="#005CA7" d="M7340,3218.5l0.5,90.9l5.3,35.3l6.7,0.3v-126.1C7352.6,3218.8,7340,3218.2,7340,3218.5z"/>
			<polygon fill="#005CA7" points="7437.9,3250.9 7437.5,3235.8 7443.7,3245.2 			"/>
			<polygon fill="#005CA7" points="7331.2,3250.9 7329.8,3238.5 7326.4,3246.5 			"/>
			<path fill="#2D2D2B" d="M7360,3219c0,0,6.6,9.6,15.3,16c0,0,27.4-6.3,30.6-16l2.5-0.2c0,0-1.6,12.8-34,18.7c0,0-10-5.2-16.9-18.7
				L7360,3219z"/>
			<g>
				<path fill="#FFFFFF" d="M7409,3237.8v17.3c0,4,5.1,7.5,9.4,7.5c4.3,0,9.4-3.5,9.4-7.5v-17.3H7409L7409,3237.8z"/>
				<polygon fill="#1D1D1B" points="7409.3,3238.1 7409.3,3241 7427.6,3241 7427.6,3238.1 7409.3,3238.1 				"/>
				<path fill="#FFFFFF" d="M7414.3,3239.7c0,0.1,0,0.2,0,0.3s-0.1,0.2-0.1,0.2c-0.1,0.1-0.1,0.1-0.2,0.1c-0.1,0-0.2,0.1-0.4,0.1
					c0,0,0,0,0,0c-0.1,0-0.1,0-0.2,0c-0.1,0-0.2,0-0.2-0.1c-0.1,0-0.1-0.1-0.2-0.1c-0.1-0.1-0.1-0.1-0.1-0.2c0-0.1,0-0.2,0-0.3v-1
					h0.5v1c0,0.1,0,0.2,0.1,0.2c0,0.1,0.1,0.1,0.2,0.1c0.1,0,0.2,0,0.2-0.1c0-0.1,0.1-0.1,0.1-0.2v-1h0.5V3239.7L7414.3,3239.7z"/>
				<polygon fill="#FFFFFF" points="7416,3240.3 7414.6,3240.3 7414.6,3238.7 7415.9,3238.7 7415.9,3239 7415.1,3239 7415.1,3239.3 
					7415.9,3239.3 7415.9,3239.6 7415.1,3239.6 7415.1,3240 7416,3240 7416,3240.3 				"/>
				<polygon fill="#FFFFFF" points="7419.4,3240.3 7418,3240.3 7418,3238.7 7419.4,3238.7 7419.4,3239 7418.5,3239 7418.5,3239.3 
					7419.3,3239.3 7419.3,3239.6 7418.5,3239.6 7418.5,3240 7419.4,3240 7419.4,3240.3 				"/>
				<polygon fill="#FFFFFF" points="7420.5,3240.3 7420,3240.3 7420,3239.1 7419.5,3239.1 7419.5,3238.7 7421.1,3238.7 
					7421.1,3239.1 7420.5,3239.1 7420.5,3240.3 				"/>
				<path fill="#FFFFFF" d="M7426.2,3240c-0.1,0.1-0.2,0.2-0.3,0.3c-0.1,0.1-0.3,0.1-0.5,0.1c0,0,0,0,0,0c-0.2,0-0.3,0-0.4-0.1
					c-0.1-0.1-0.2-0.2-0.3-0.3c-0.1-0.1-0.1-0.3-0.1-0.5c0-0.3,0.1-0.5,0.2-0.6c0.2-0.1,0.4-0.2,0.6-0.2c0,0,0,0,0,0
					c0.3,0,0.5,0.1,0.6,0.2c0.1,0.1,0.2,0.3,0.2,0.6C7426.3,3239.7,7426.2,3239.8,7426.2,3240L7426.2,3240z M7425.4,3239
					L7425.4,3239C7425.4,3239,7425.4,3239,7425.4,3239c-0.1,0-0.2,0-0.3,0.1c-0.1,0.1-0.1,0.2-0.1,0.4c0,0.2,0,0.3,0.1,0.4
					c0.1,0.1,0.1,0.1,0.3,0.1c0.1,0,0.2,0,0.2-0.1c0.1-0.1,0.1-0.2,0.1-0.4c0-0.2,0-0.3-0.1-0.3
					C7425.6,3239.1,7425.5,3239,7425.4,3239L7425.4,3239z"/>
				<path fill="#FFFFFF" d="M7423.9,3240.3l-0.2-0.4l0-0.1c0-0.1-0.1-0.1-0.1-0.1c0,0-0.1,0-0.1,0h0v0.7h-0.5v-1.6h0.8h0
					c0.2,0,0.3,0,0.4,0c0.1,0,0.1,0.1,0.2,0.2c0.1,0.1,0.1,0.2,0.1,0.3c0,0.1,0,0.2-0.1,0.2c0,0.1-0.1,0.1-0.2,0.2
					c0,0-0.1,0-0.2,0.1c0.1,0,0.1,0,0.1,0.1c0,0,0,0,0.1,0.1c0,0,0.1,0.1,0.1,0.1l0.2,0.5H7423.9L7423.9,3240.3z M7423.7,3239
					L7423.7,3239C7423.7,3239,7423.7,3239,7423.7,3239l-0.3,0v0.3h0.2c0,0,0,0,0.1,0c0,0,0,0,0,0c0,0,0.1,0,0.1-0.1c0,0,0-0.1,0-0.1
					c0-0.1,0-0.1,0-0.1C7423.8,3239,7423.8,3239,7423.7,3239L7423.7,3239z"/>
				<path fill="#FFFFFF" d="M7422.2,3240.3l-0.1-0.3h-0.6l-0.1,0.3h-0.5l0.6-1.6h0.5l0.6,1.6H7422.2L7422.2,3240.3z M7421.9,3239.1
					L7421.9,3239.1l-0.2,0.6h0.4L7421.9,3239.1L7421.9,3239.1z"/>
				<path fill="#FFFFFF" d="M7417.3,3240.3l-0.2-0.4l0-0.1c0-0.1-0.1-0.1-0.1-0.1c0,0-0.1,0-0.1,0h0v0.7h-0.5v-1.6h0.8h0
					c0.2,0,0.3,0,0.4,0c0.1,0,0.2,0.1,0.2,0.2c0.1,0.1,0.1,0.2,0.1,0.3c0,0.1,0,0.2-0.1,0.2c0,0.1-0.1,0.1-0.2,0.2
					c0,0-0.1,0-0.2,0.1c0.1,0,0.1,0,0.1,0.1c0,0,0,0,0.1,0.1c0,0,0.1,0.1,0.1,0.1l0.2,0.5H7417.3L7417.3,3240.3z M7417,3239
					L7417,3239C7417,3239,7417,3239,7417,3239l-0.3,0v0.3h0.2c0,0,0,0,0.1,0c0,0,0,0,0.1,0c0,0,0.1,0,0.1-0.1c0,0,0-0.1,0-0.1
					c0-0.1,0-0.1-0.1-0.1C7417.1,3239,7417.1,3239,7417,3239L7417,3239z"/>
				<path fill="#FFFFFF" d="M7412.4,3240.5c-0.1,0-0.1-0.1-0.2-0.1c-0.1,0-0.1-0.1-0.1-0.1c-0.1,0-0.2,0.1-0.4,0.1c0,0,0,0,0,0
					c-0.2,0-0.4-0.1-0.6-0.2c-0.2-0.2-0.3-0.4-0.3-0.6c0-0.3,0.1-0.5,0.2-0.6c0.2-0.1,0.4-0.2,0.6-0.2c0,0,0,0,0,0
					c0.3,0,0.5,0.1,0.6,0.2c0.1,0.1,0.2,0.4,0.2,0.6c0,0.2-0.1,0.4-0.2,0.6c0.1,0,0.1,0.1,0.1,0.1c0,0,0.1,0,0.1,0.1L7412.4,3240.5
					L7412.4,3240.5z M7411.6,3239L7411.6,3239C7411.6,3239,7411.6,3239,7411.6,3239c-0.1,0-0.2,0-0.3,0.1c-0.1,0.1-0.1,0.2-0.1,0.3
					c0,0.2,0,0.3,0.1,0.4c0.1,0.1,0.1,0.1,0.2,0.1c0,0,0,0,0,0c0,0,0,0,0.1,0c0,0,0,0-0.1-0.1c0,0-0.1,0-0.1-0.1l0.1-0.2
					c0,0,0,0,0.1,0c0,0,0,0,0,0c0,0,0.1,0,0.1,0.1c0,0,0,0,0.1,0c0-0.1,0.1-0.2,0.1-0.3c0-0.2,0-0.3-0.1-0.4
					C7411.8,3239.1,7411.7,3239.1,7411.6,3239L7411.6,3239z"/>
				<path fill="#1D1D1B" d="M7409.3,3241.4h18.3v13.6c0,1.9-1.1,3.6-2.8,4.9c-1.8,1.4-4.2,2.3-6.3,2.3s-4.6-0.9-6.3-2.3
					c-1.7-1.3-2.8-3.1-2.8-4.9V3241.4L7409.3,3241.4z"/>
				<path fill="#FFFFFF" d="M7409.4,3241.5v13.5c0,1.8,1.1,3.6,2.8,4.9c1.8,1.4,4.1,2.3,6.3,2.3s4.5-0.9,6.3-2.3
					c1.6-1.3,2.8-3,2.8-4.9v-13.5H7409.4L7409.4,3241.5z"/>
				<path fill="#EC6B0C" d="M7425.1,3241.5h-2.1l0,6.5c0.9,1,1.4,2.4,1.4,3.9c0,0.5-0.1,1.1-0.2,1.5c-0.1,0.5-0.3,1-0.6,1.4l0,0l0,0
					l1,0.9l0,0l0,0l-1.5,1.6l0,0l0,0l0,0l0,3.3c0.6-0.3,1.1-0.7,1.6-1c0.2-0.2,0.4-0.3,0.6-0.5L7425.1,3241.5L7425.1,3241.5z"/>
				<path fill="#1D1D1B" d="M7417.7,3257.8l0,4.1c0.2,0,0.5,0,0.7,0c0.5,0,0.9,0,1.4-0.1l0-4.2c-0.5,0.1-1,0.2-1.5,0.2
					C7418.2,3257.9,7417.9,3257.9,7417.7,3257.8L7417.7,3257.8z"/>
				<path fill="#1D1D1B" d="M7419.9,3246l0-4.5h-2.2l0,4.4c0.2,0,0.5,0,0.7,0C7418.9,3245.8,7419.4,3245.9,7419.9,3246L7419.9,3246z
					"/>
				<path fill="#5057A2" d="M7422.4,3241.5h-2.1l0,4.7c0.8,0.3,1.5,0.7,2.1,1.2V3241.5L7422.4,3241.5z"/>
				<path fill="#5057A2" d="M7420.4,3257.5C7420.4,3257.5,7420.4,3257.5,7420.4,3257.5l0,4.2c0.7-0.2,1.4-0.4,2.1-0.7v-4.2l-0.3-0.3
					C7421.6,3257,7421,3257.3,7420.4,3257.5L7420.4,3257.5z"/>
				<path fill="#1D1D1B" d="M7418.4,3246.1c3.2,0,5.8,2.6,5.8,5.8c0,0.5-0.1,1.1-0.2,1.6c-0.1,0.5-0.4,1-0.6,1.4l1,1l0,0l0,0
					l-1.3,1.3l0,0l0,0l-0.9-0.9c-0.5,0.4-1.1,0.8-1.7,1c-0.6,0.2-1.3,0.4-2,0.4c-3.2,0-5.8-2.6-5.8-5.8
					C7412.6,3248.7,7415.2,3246.1,7418.4,3246.1L7418.4,3246.1z"/>
				<path fill="#FFFFFF" d="M7418.4,3246.1c-3.1,0-5.7,2.6-5.7,5.7c0,3.1,2.6,5.7,5.7,5.7c0.7,0,1.4-0.1,2-0.3
					c0.6-0.2,1.2-0.6,1.7-1l0,0l0,0l0.9,0.9l1.2-1.2l-1-1l0,0l0,0c0.3-0.4,0.5-0.9,0.6-1.4c0.1-0.5,0.2-1,0.2-1.6
					C7424.1,3248.7,7421.5,3246.1,7418.4,3246.1L7418.4,3246.1z"/>
				<path fill="#1D1D1B" d="M7418.4,3248.2c2,0,3.6,1.6,3.6,3.6c0,0.3,0,0.5-0.1,0.7c-0.1,0.2-0.1,0.5-0.2,0.7l0,0.1l0,0l-0.2-0.2
					l-1.2,1.2l0.3,0.4l0,0l0,0c-0.3,0.2-0.7,0.4-1,0.5c-0.4,0.1-0.7,0.2-1.1,0.2c-2,0-3.6-1.6-3.6-3.6
					C7414.8,3249.9,7416.4,3248.2,7418.4,3248.2L7418.4,3248.2z"/>
				<path fill="#5057A2" d="M7421.9,3251c-0.1,0.1-0.2,0.1-0.3,0.2c-0.1,0.1-0.1,0.2-0.1,0.3l0,1.1v0l0,0l-0.4,0l0,0v0l0-1.2
					c0-0.3-0.2-0.5-0.4-0.5c-0.1,0-0.2,0-0.3,0c-0.1,0-0.2,0-0.3,0.1c-0.2,0.1-0.4,0.3-0.4,0.7l0,1.2v0h0l-0.4,0l0,0v0l0-1.5
					c0-0.3-0.2-0.5-0.4-0.6c-0.1,0-0.2,0-0.3,0c-0.1,0-0.2,0-0.3,0.1c-0.3,0.1-0.5,0.3-0.5,0.6v1.7v0h0l-0.4,0l0,0v0l0-1.9
					c0-0.3-0.2-0.6-0.5-0.7c-0.1,0-0.2-0.1-0.3-0.1c-0.1,0-0.2,0-0.4,0.1c-0.3,0.1-0.5,0.4-0.5,0.8v1.9v0l0,0l-0.3,0l0,0v0l0-1.9
					c0-0.1,0-0.2,0-0.4c0-0.1,0-0.1,0-0.2c-0.2,0.4-0.3,0.9-0.3,1.3c0,2,1.6,3.6,3.6,3.6c0.4,0,0.8-0.1,1.1-0.2
					c0.3-0.1,0.7-0.3,1-0.5l-0.3-0.4l0,0l0,0l1.3-1.3l0,0l0,0l0.2,0.2c0.1-0.2,0.2-0.4,0.2-0.6c0.1-0.2,0.1-0.5,0.1-0.7
					C7422,3251.6,7421.9,3251.3,7421.9,3251L7421.9,3251z"/>
				<path fill="#5057A2" d="M7415.8,3249.4l5.7,0.9c-0.6-1.2-1.8-2-3.2-2C7417.4,3248.3,7416.5,3248.7,7415.8,3249.4L7415.8,3249.4z
					"/>
				<path fill="#FFFFFF" d="M7421.6,3250.3l-5.8-0.9c-0.2,0.3-0.5,0.6-0.6,0.9c0,0.1,0,0.2,0,0.3c0,0.1,0,0.2,0,0.4l0,1.9l0.2,0
					v-1.9c0-0.4,0.2-0.7,0.6-0.8c0.1,0,0.2-0.1,0.4-0.1c0.1,0,0.3,0,0.4,0.1c0.3,0.1,0.5,0.4,0.5,0.8l0,1.9l0.3,0v-1.6
					c0-0.3,0.2-0.5,0.6-0.6c0.1,0,0.2-0.1,0.3-0.1c0.1,0,0.2,0,0.3,0.1c0.2,0.1,0.4,0.3,0.4,0.7v1.5l0.3,0v-1.2
					c0-0.4,0.2-0.6,0.5-0.7c0.1,0,0.2-0.1,0.3-0.1c0.1,0,0.2,0,0.3,0.1c0.3,0.1,0.4,0.3,0.4,0.6l0,1.2l0.3,0l0-1
					c0-0.1,0-0.2,0.1-0.3c0.1-0.1,0.2-0.2,0.3-0.2c0-0.1-0.1-0.2-0.1-0.3C7421.7,3250.5,7421.7,3250.4,7421.6,3250.3L7421.6,3250.3z
					"/>
				<path fill="#1D1D1B" d="M7417.9,3246.8c0-0.1-0.1-0.1-0.2-0.2c0,0-0.1,0-0.1,0c0,0-0.1,0-0.1,0c-0.1,0-0.2,0.1-0.2,0.2
					c-0.1,0.1-0.1,0.2-0.1,0.3c0,0.1,0.1,0.2,0.1,0.3c0.1,0.1,0.1,0.1,0.2,0.1c0,0,0,0,0,0c0.1,0,0.1,0,0.2-0.1c0,0,0.1-0.1,0.1-0.1
					c0,0,0,0,0,0c0,0.1,0,0.1,0,0.2s0,0.1,0,0.1c0,0,0,0.1-0.1,0.1c0,0-0.1,0-0.1,0c0,0-0.1,0-0.1,0c0,0,0,0,0,0
					c0,0-0.1-0.1-0.1-0.1l-0.1,0c0,0.1,0.1,0.2,0.1,0.2c0,0,0.1,0,0.1,0c0,0,0.1,0,0.1,0c0.1,0,0.2-0.1,0.2-0.1
					c0.1-0.1,0.1-0.1,0.1-0.2c0-0.1,0-0.2,0-0.4C7418,3247,7417.9,3246.9,7417.9,3246.8L7417.9,3246.8z M7417.8,3247.2
					L7417.8,3247.2c0,0.1-0.1,0.1-0.1,0.1c0,0,0,0,0,0c0,0-0.1,0-0.1,0c-0.1,0-0.1-0.1-0.1-0.2c0-0.1,0-0.2,0-0.2
					c0-0.1,0.1-0.1,0.2-0.1c0,0,0,0,0,0c0,0,0.1,0,0.1,0c0.1,0,0.1,0.1,0.1,0.2S7417.8,3247.1,7417.8,3247.2L7417.8,3247.2z"/>
				<path fill="#1D1D1B" d="M7415.9,3247.2c0,0.1,0,0.1,0,0.2c0,0.1-0.1,0.2-0.1,0.2l0.1,0.1c0,0,0.1-0.1,0.1-0.1
					c0-0.1,0.1-0.1,0.1-0.2l0.4,0.8l0.1-0.1L7415.9,3247.2L7415.9,3247.2L7415.9,3247.2z"/>
				<path fill="#1D1D1B" d="M7418.8,3247.2l0.1,0c0,0,0.1,0,0.1-0.1c0,0,0.1,0,0.1,0c0.1,0,0.1,0,0.2,0.1c0,0.1,0,0.1,0,0.2
					c0,0.1-0.1,0.1-0.1,0.2c-0.1,0-0.1,0.1-0.2,0c-0.1,0-0.1,0-0.1-0.1c0,0,0-0.1,0-0.2l-0.2,0c0,0.1,0,0.2,0.1,0.3
					c0.1,0.1,0.1,0.1,0.2,0.1c0.1,0,0.2,0,0.3-0.1c0.1-0.1,0.1-0.2,0.1-0.3c0-0.1,0-0.2-0.1-0.3c-0.1-0.1-0.1-0.1-0.2-0.2
					c-0.1,0-0.2,0-0.2,0l0.1-0.3l0.5,0.1l0-0.1l-0.6-0.1L7418.8,3247.2L7418.8,3247.2z"/>
				<path fill="#1D1D1B" d="M7420.4,3248.3c0.1,0,0.1,0.1,0.2,0c0,0,0,0,0.1,0c0,0,0.1-0.1,0.1-0.1c0.1-0.1,0.1-0.2,0.2-0.3
					c0.1-0.1,0.1-0.2,0.1-0.3c0-0.1,0-0.1,0-0.2c0-0.1,0-0.1-0.1-0.2c0,0-0.1-0.1-0.1-0.1c-0.1,0-0.1-0.1-0.2,0c0,0,0,0-0.1,0
					c0,0-0.1,0-0.1,0.1c-0.1,0.1-0.1,0.2-0.2,0.3c-0.1,0.2-0.2,0.4-0.1,0.5C7420.2,3248.1,7420.3,3248.2,7420.4,3248.3
					L7420.4,3248.3z M7420.4,3247.6L7420.4,3247.6c0.1-0.1,0.1-0.2,0.2-0.3c0,0,0,0,0.1,0c0.1,0,0.1,0,0.2,0c0.1,0,0.1,0.1,0.1,0.2
					c0,0.1,0,0.2-0.1,0.4c-0.1,0.1-0.1,0.2-0.2,0.3c0,0,0,0,0,0c-0.1,0-0.1,0-0.2,0c-0.1,0-0.1-0.1-0.1-0.2
					C7420.3,3247.9,7420.3,3247.8,7420.4,3247.6L7420.4,3247.6z"/>
				<path fill="#1D1D1B" d="M7423.6,3252.6c0-0.1,0-0.1,0-0.1c0,0-0.1-0.1-0.1-0.1s-0.1-0.1-0.1-0.1c0,0-0.1,0-0.1,0
					c0,0-0.1,0-0.1,0c-0.1,0-0.1,0.1-0.1,0.1c0-0.1,0-0.1-0.1-0.1c0,0-0.1-0.1-0.1-0.1c0,0,0,0-0.1,0c0,0-0.1,0-0.1,0
					c-0.1,0-0.1,0.1-0.1,0.1c0,0-0.1,0.1-0.1,0.2l-0.1,0.4l0.4,0.1l0.5,0.1l0.3,0l0.1-0.4
					C7423.6,3252.7,7423.6,3252.7,7423.6,3252.6L7423.6,3252.6z M7423,3252.7L7423,3252.7l0,0.2l-0.1,0l-0.2,0l0-0.2
					c0-0.1,0-0.1,0-0.2c0,0,0-0.1,0.1-0.1c0,0,0,0,0,0c0,0,0,0,0.1,0c0,0,0.1,0,0.1,0c0,0,0,0.1,0,0.1
					C7423,3252.6,7423,3252.6,7423,3252.7L7423,3252.7z M7423.5,3252.8L7423.5,3252.8l0,0.3l-0.2,0l-0.2,0l0-0.3
					c0-0.1,0-0.1,0.1-0.2c0,0,0-0.1,0.1-0.1c0,0,0,0,0.1,0c0,0,0,0,0.1,0c0,0,0.1,0,0.1,0c0,0,0,0,0.1,0.1c0,0,0,0.1,0,0.1
					C7423.5,3252.7,7423.5,3252.7,7423.5,3252.8L7423.5,3252.8z"/>
				<polygon fill="#1D1D1B" points="7415.5,3255 7415.6,3255.1 7415.7,3255 7415.5,3254.8 7415.1,3254.4 7415,3254.5 7415.2,3254.7 
					7414.7,3255.3 7414.5,3255.4 7414.6,3255.6 7414.7,3255.5 7415.3,3254.9 7415.5,3255 				"/>
				<path fill="#1D1D1B" d="M7421.2,3255.9L7421.2,3255.9c-0.1,0.1,0,0.2-0.1,0.3c0,0.1-0.1,0.1-0.2,0.2c-0.1,0-0.1,0.1-0.2,0.1
					c-0.1,0-0.1,0-0.2-0.1c-0.1,0-0.1-0.1-0.2-0.2c0-0.1-0.1-0.1-0.1-0.2c0-0.1,0-0.1,0-0.2c0-0.1,0.1-0.1,0.2-0.2
					c0.1,0,0.1-0.1,0.2,0c0.1,0,0.1,0,0.2,0.1l0.1-0.1c-0.1-0.1-0.2-0.1-0.3-0.1c-0.1,0-0.2,0-0.3,0.1c-0.1,0.1-0.2,0.1-0.2,0.2
					c0,0.1-0.1,0.2-0.1,0.3c0,0.1,0,0.2,0.1,0.3c0.1,0.1,0.1,0.2,0.2,0.2c0.1,0.1,0.2,0.1,0.3,0.1c0.1,0,0.2,0,0.3-0.1
					c0.1,0,0.1-0.1,0.1-0.1c0,0,0.1-0.1,0.1-0.1C7421.3,3256.1,7421.3,3256,7421.2,3255.9L7421.2,3255.9L7421.2,3255.9z"/>
				<path fill="#1D1D1B" d="M7414.9,3254.1l-0.1-0.1l-0.1,0.1l-0.5,0.2c-0.1,0.1-0.2,0.1-0.3,0.1c-0.1,0-0.1-0.1-0.2-0.2
					c0-0.1,0-0.1,0-0.2c0-0.1,0-0.1,0.1-0.1c0,0,0.1-0.1,0.2-0.1l0.6-0.3l-0.1-0.1l-0.6,0.3c-0.1,0.1-0.2,0.1-0.2,0.2
					c-0.1,0.1-0.1,0.1-0.1,0.2c0,0.1,0,0.2,0.1,0.3c0,0.1,0.1,0.2,0.2,0.2c0.1,0,0.1,0.1,0.2,0.1c0.1,0,0.2,0,0.3-0.1l0.4-0.2
					L7414.9,3254.1L7414.9,3254.1z"/>
				<polygon fill="#1D1D1B" points="7413.8,3253 7413.9,3253 7413.8,3252.5 7414.2,3252.4 7414.3,3253 7414.4,3253 7414.3,3252.2 
					7413.1,3252.4 7413.1,3252.6 7413.7,3252.5 7413.8,3253 				"/>
				<path fill="#1D1D1B" d="M7416.3,3255.4l-0.2-0.1l-0.2-0.1l-0.4,0.7l-0.2,0.3l0.2,0.1l0.2,0.1c0.1,0,0.1,0.1,0.2,0.1
					c0,0,0.1,0,0.1,0c0,0,0.1,0,0.1,0c0,0,0,0,0,0c0,0,0.1-0.1,0.1-0.1c0-0.1,0.1-0.1,0-0.2c0-0.1,0-0.1-0.1-0.2c0.1,0,0.1,0,0.2,0
					c0,0,0.1-0.1,0.1-0.1c0,0,0-0.1,0-0.2c0-0.1,0-0.1-0.1-0.2C7416.5,3255.5,7416.4,3255.5,7416.3,3255.4L7416.3,3255.4z
					 M7416.1,3256.3L7416.1,3256.3C7416.1,3256.3,7416.1,3256.3,7416.1,3256.3C7416.1,3256.3,7416.1,3256.4,7416.1,3256.3
					c-0.1,0.1-0.1,0.1-0.2,0.1c0,0-0.1,0-0.1,0c0,0,0,0-0.1-0.1l-0.2-0.2l0.2-0.3l0.2,0.1c0.1,0,0.1,0.1,0.1,0.1c0,0,0,0,0,0
					c0,0,0,0.1,0,0.1C7416.2,3256.2,7416.2,3256.3,7416.1,3256.3L7416.1,3256.3z M7416.4,3255.8L7416.4,3255.8
					C7416.3,3255.9,7416.3,3255.9,7416.4,3255.8c-0.1,0.1-0.1,0.1-0.2,0.1c0,0,0,0-0.1,0c0,0,0,0-0.1,0l-0.2-0.1l0.2-0.3l0.1,0.1
					l0.1,0.1c0.1,0,0.1,0.1,0.1,0.1s0,0.1,0,0.1C7416.4,3255.8,7416.4,3255.8,7416.4,3255.8L7416.4,3255.8z"/>
				<polygon fill="#1D1D1B" points="7418.6,3257 7418.5,3256 7418.3,3256 7418.4,3257.2 7419.2,3257.1 7419.1,3257 7418.6,3257 				
					"/>
				<polygon fill="#1D1D1B" points="7422,3255.6 7421.2,3254.9 7421.2,3254.9 7421.1,3255 7421.2,3255.1 7422,3255.8 7422.5,3255.2 
					7422.4,3255.1 7422,3255.6 				"/>
				<path fill="#1D1D1B" d="M7423.1,3253.8c0-0.1-0.1-0.1-0.2-0.2l-0.1-0.1l-0.5-0.2l-0.1,0.1l0.6,0.3l0,0c0.1,0.1,0.2,0.1,0.2,0.2
					c0,0.1,0,0.2,0,0.3c0,0.1-0.1,0.1-0.1,0.1c0,0-0.1,0-0.1,0c0,0,0,0,0,0c-0.1,0-0.1,0-0.2-0.1l-0.6-0.3l-0.1,0.1l0.6,0.3
					c0.1,0.1,0.2,0.1,0.3,0.1c0,0,0,0,0,0c0.1,0,0.1,0,0.2-0.1c0.1,0,0.1-0.1,0.2-0.2c0.1-0.1,0.1-0.2,0.1-0.3
					C7423.2,3254,7423.2,3253.9,7423.1,3253.8L7423.1,3253.8z"/>
				<path fill="#1D1D1B" d="M7417.8,3256c-0.1-0.1-0.2-0.1-0.3-0.1c-0.1,0-0.1,0-0.2,0c-0.1,0-0.2,0-0.3,0.1
					c-0.1,0.1-0.2,0.2-0.3,0.4c0,0.1,0,0.2,0,0.3c0,0.1,0.1,0.2,0.1,0.3c0.1,0.1,0.2,0.1,0.3,0.2c0,0,0.1,0,0.1,0c0.1,0,0.1,0,0.2,0
					c0.1,0,0.2-0.1,0.2-0.2c0.1-0.1,0.1-0.2,0.1-0.3c0-0.1,0-0.2,0-0.3C7417.9,3256.2,7417.9,3256.1,7417.8,3256L7417.8,3256z
					 M7417.8,3256.6L7417.8,3256.6c0,0.1-0.1,0.2-0.2,0.3c-0.1,0-0.1,0.1-0.2,0.1c0,0-0.1,0-0.1,0c-0.1,0-0.2-0.1-0.2-0.2
					c-0.1-0.1-0.1-0.2,0-0.3c0-0.2,0.1-0.3,0.2-0.3c0.1,0,0.1-0.1,0.2-0.1c0,0,0.1,0,0.1,0c0.1,0,0.1,0.1,0.2,0.1
					c0,0.1,0.1,0.1,0.1,0.2C7417.8,3256.4,7417.8,3256.5,7417.8,3256.6L7417.8,3256.6z"/>
				<path fill="#1D1D1B" d="M7418.9,3254.8c-0.2,0.1-0.4,0.1-0.6,0c-0.2-0.1-0.3-0.2-0.4-0.4c-0.1-0.2-0.1-0.4,0-0.6
					c0.1-0.2,0.2-0.3,0.4-0.4c0.2-0.1,0.4-0.1,0.6,0c0.2,0.1,0.3,0.2,0.4,0.4c0.1,0.2,0.1,0.4,0,0.6
					C7419.2,3254.6,7419.1,3254.7,7418.9,3254.8L7418.9,3254.8z"/>
				<path fill="#FFFFFF" d="M7419.3,3253.8C7419.3,3253.8,7419.3,3253.8,7419.3,3253.8C7419.3,3253.8,7419.3,3253.8,7419.3,3253.8
					C7419.3,3253.8,7419.3,3253.8,7419.3,3253.8C7419.3,3253.8,7419.3,3253.8,7419.3,3253.8L7419.3,3253.8z"/>
				<rect x="7418" y="3254.5" fill="#FFFFFF" width="0" height="0"/>
				<path fill="#FFFFFF" d="M7419.1,3253.6c0.1,0.1,0.2,0.2,0.2,0.3c0,0,0,0,0.1,0c0,0,0-0.1,0-0.1
					C7419.3,3253.7,7419.2,3253.6,7419.1,3253.6C7419.1,3253.5,7419.1,3253.5,7419.1,3253.6L7419.1,3253.6z"/>
				<path fill="#FFFFFF" d="M7418.3,3253.4c0.2-0.1,0.3-0.1,0.4,0c0,0,0,0,0.1,0C7418.6,3253.3,7418.5,3253.3,7418.3,3253.4
					C7418.3,3253.4,7418.3,3253.4,7418.3,3253.4C7418.3,3253.4,7418.3,3253.4,7418.3,3253.4L7418.3,3253.4z"/>
				<path fill="#FFFFFF" d="M7418.6,3254.8C7418.6,3254.8,7418.6,3254.8,7418.6,3254.8c0,0,0.2,0,0.3,0c0,0,0,0,0.1,0c0,0,0,0,0,0
					C7418.8,3254.8,7418.7,3254.8,7418.6,3254.8L7418.6,3254.8z"/>
				<path fill="#FFFFFF" d="M7417.9,3254.3C7417.9,3254.2,7417.9,3254.2,7417.9,3254.3C7417.9,3254.3,7417.9,3254.3,7417.9,3254.3
					c0,0.2,0.1,0.2,0.1,0.3c0,0,0,0,0,0C7417.9,3254.4,7417.9,3254.3,7417.9,3254.3L7417.9,3254.3z"/>
				<path fill="#FFFFFF" d="M7419,3254.6c0,0,0,0.1-0.1,0.2c0,0,0,0,0.1,0l0,0l0,0c0.1-0.1,0.2-0.2,0.3-0.3c0,0,0-0.1,0-0.1
					c0,0-0.1,0-0.1,0C7419.2,3254.5,7419.1,3254.5,7419,3254.6L7419,3254.6z"/>
				<path fill="#FFFFFF" d="M7417.8,3254.2C7417.8,3254.2,7417.9,3254.2,7417.8,3254.2c0.1,0,0.1,0,0.1-0.1c0-0.1,0-0.2,0-0.3
					c0,0,0-0.1,0-0.1c0,0-0.1,0.1-0.1,0.1C7417.8,3253.9,7417.8,3254,7417.8,3254.2L7417.8,3254.2L7417.8,3254.2L7417.8,3254.2z"/>
				<path fill="#FFFFFF" d="M7418.5,3254.8C7418.5,3254.8,7418.6,3254.8,7418.5,3254.8c0.1,0,0-0.1,0-0.1c-0.1,0-0.2-0.1-0.3-0.1
					c0,0-0.1,0-0.2,0c0,0,0,0,0,0.1v0c0.1,0.1,0.1,0.1,0.2,0.1C7418.3,3254.8,7418.4,3254.8,7418.5,3254.8L7418.5,3254.8
					L7418.5,3254.8L7418.5,3254.8z"/>
				<path fill="#FFFFFF" d="M7418.5,3253.8c0,0,0.2-0.1,0.3,0l0.1-0.2c-0.1-0.1-0.1-0.1-0.2-0.1c0,0-0.2,0-0.4,0
					c0,0-0.1,0.1-0.1,0.2C7418.4,3253.7,7418.4,3253.7,7418.5,3253.8L7418.5,3253.8z"/>
				<path fill="#FFFFFF" d="M7418.5,3253.8c0,0-0.1-0.1-0.2-0.2c-0.1,0-0.2,0.1-0.2,0.1c-0.1,0.2-0.1,0.3,0,0.3c0,0,0.1,0.1,0.2,0.1
					c0.1-0.1,0.2-0.1,0.2-0.2C7418.4,3253.9,7418.4,3253.8,7418.5,3253.8L7418.5,3253.8z"/>
				<path fill="#FFFFFF" d="M7418.9,3253.5l-0.1,0.2c0.1,0.1,0.1,0.2,0.1,0.2c0.1,0,0.2,0,0.3,0.1c0,0,0.1-0.1,0.1-0.2
					c0,0-0.1-0.2-0.2-0.3C7419.1,3253.6,7419,3253.5,7418.9,3253.5L7418.9,3253.5z"/>
				<path fill="#FFFFFF" d="M7418.9,3254c0,0-0.1,0.1-0.2,0.2c0,0.1,0,0.2,0.1,0.3c0.1,0,0.2,0,0.2,0.1c0.1-0.1,0.2-0.2,0.2-0.2
					c0,0,0-0.1,0-0.3C7419.2,3254,7419.1,3254,7418.9,3254L7418.9,3254z"/>
				<path fill="#FFFFFF" d="M7418.4,3254.1c0,0-0.2,0.1-0.2,0.2c0,0.1,0,0.2,0,0.3c0,0,0.2,0.1,0.3,0.1c0,0,0.1-0.1,0.2-0.2
					c0,0,0-0.2,0-0.3C7418.6,3254.2,7418.5,3254.1,7418.4,3254.1L7418.4,3254.1z"/>
			</g>
			<g>
				<g>
					<path fill="#FFFFFF" d="M7357.8,3242.4c-1.3-1-2.6-2-3.9-3c2.2,7.4-4.1,9.4-10.5,10.9c5.2-0.7,10.3-1,14.4-0.8
						c3.2,0.1,6.6,0.5,9.3,1C7364.3,3247.6,7360.9,3244.9,7357.8,3242.4z M7357.8,3247.6c-1.1,0-2.2,0-3.4,0c0.9-1.2,1.8-2.4,1.8-4
						c0.5,0.4,1,0.8,1.5,1.2c1.1,0.9,2.2,2,3.4,3C7360.1,3247.7,7359,3247.6,7357.8,3247.6z M7347.2,3251l-3.4,0v3.8h0.8v-1.5h2.6
						c0.4,0,0.7-0.3,0.7-0.7v-0.9C7347.8,3251.3,7347.5,3251,7347.2,3251z M7347,3252.4c0,0.2-0.1,0.3-0.3,0.3h-2.1v-1h2.1
						c0.2,0,0.3,0.1,0.3,0.3V3252.4z M7349.2,3254.8h0.9v-3.8h-0.9V3254.8z M7355.4,3253.3c0.4,0,0.7-0.3,0.7-0.7v-0.9
						c0-0.4-0.3-0.7-0.7-0.7l-3.4,0v3.8h0.8v-1.5h0.8l1.6,1.5h1.2l-1.8-1.5H7355.4z M7352.8,3252.7v-1h2.1c0.2,0,0.3,0.1,0.3,0.3
						v0.5c0,0.2-0.1,0.3-0.3,0.3H7352.8z M7366.9,3251h-0.8l-2.2,3.8h0.9l0.4-0.8h2.4l0.4,0.8l1,0L7366.9,3251z M7365.7,3253.3
						l0.8-1.5l0,0l0.8,1.5H7365.7z M7360.4,3253.3l-1.8-2.3h-0.7v3.8h0.7v-2.7l1.7,2.2h0.2l1.6-2.2v2.7h0.8v-3.8h-0.7L7360.4,3253.3
						z"/>
					<path fill="#FFFFFF" d="M7353.9,3239.4c2.2,7.4-4.1,9.4-10.5,10.9c4.4-0.6,8.6-0.9,12.3-0.9c0.7,0,1.4,0,2.1,0
						c3.2,0.1,6.6,0.5,9.3,1c-2.8-2.9-6.2-5.6-9.3-8.1C7356.5,3241.4,7355.2,3240.4,7353.9,3239.4L7353.9,3239.4z M7361.2,3247.8
						c-1.1-0.1-2.2-0.2-3.4-0.2c-1.1,0-2.2,0-3.4,0c0.9-1.2,1.8-2.4,1.8-4c0.5,0.4,1,0.8,1.5,1.2
						C7358.9,3245.7,7360.1,3246.8,7361.2,3247.8L7361.2,3247.8z M7366.9,3251h-0.8l-2.2,3.8h0.9l0.4-0.8h2.4l0.4,0.8l1,0
						L7366.9,3251L7366.9,3251z M7365.7,3253.3l0.8-1.5l0,0l0.8,1.5H7365.7L7365.7,3253.3z M7362.8,3251h-0.7l-1.8,2.3l-1.8-2.3
						h-0.7v3.8h0.7v-2.7l1.7,2.2h0.2l1.6-2.2v2.7h0.8V3251L7362.8,3251z M7352,3251v3.8h0.8v-1.5h0.8l1.6,1.5h1.2l-1.8-1.5h0.7
						c0.4,0,0.7-0.3,0.7-0.7v-0.9c0-0.4-0.3-0.7-0.7-0.7L7352,3251L7352,3251z M7352.8,3252.7v-1h2.1c0.2,0,0.3,0.1,0.3,0.3v0.5
						c0,0.2-0.1,0.3-0.3,0.3H7352.8L7352.8,3252.7z M7350.1,3251h-0.9v3.8h0.9V3251L7350.1,3251z M7343.7,3251v3.8h0.8v-1.5h2.6
						c0.4,0,0.7-0.3,0.7-0.7v-0.9c0-0.4-0.3-0.7-0.7-0.7L7343.7,3251L7343.7,3251z M7344.6,3252.7v-1h2.1c0.2,0,0.3,0.1,0.3,0.3v0.5
						c0,0.2-0.1,0.3-0.3,0.3H7344.6L7344.6,3252.7z"/>
				</g>
				<g>
					<g>
						<path fill="#FFFFFF" d="M7357.8,3242.4c-1.3-1-2.6-2-3.9-3c2.2,7.4-4.1,9.4-10.5,10.9c5.2-0.7,10.3-1,14.4-0.8
							c3.2,0.1,6.6,0.5,9.3,1C7364.3,3247.6,7360.9,3244.9,7357.8,3242.4z M7357.8,3247.6c-1.1,0-2.2,0-3.4,0c0.9-1.2,1.8-2.4,1.8-4
							c0.5,0.4,1,0.8,1.5,1.2c1.1,0.9,2.2,2,3.4,3C7360.1,3247.7,7359,3247.6,7357.8,3247.6z"/>
						<path fill="#FFFFFF" d="M7349.2,3254.8h0.9v-3.8h-0.9V3254.8z M7347.2,3251l-3.4,0v3.8h0.8v-1.5h2.6c0.4,0,0.7-0.3,0.7-0.7
							v-0.9C7347.8,3251.3,7347.5,3251,7347.2,3251z M7347,3252.4c0,0.2-0.1,0.3-0.3,0.3h-2.1v-1h2.1c0.2,0,0.3,0.1,0.3,0.3V3252.4z
							 M7360.4,3253.3l-1.8-2.3h-0.7v3.8h0.7v-2.7l1.7,2.2h0.2l1.6-2.2v2.7h0.8v-3.8h-0.7L7360.4,3253.3z M7355.4,3253.3
							c0.4,0,0.7-0.3,0.7-0.7v-0.9c0-0.4-0.3-0.7-0.7-0.7l-3.4,0v3.8h0.8v-1.5h0.8l1.6,1.5h1.2l-1.8-1.5H7355.4z M7352.8,3252.7v-1
							h2.1c0.2,0,0.3,0.1,0.3,0.3v0.5c0,0.2-0.1,0.3-0.3,0.3H7352.8z M7366.9,3251h-0.8l-2.2,3.8h0.9l0.4-0.8h2.4l0.4,0.8l1,0
							L7366.9,3251z M7365.7,3253.3l0.8-1.5l0,0l0.8,1.5H7365.7z"/>
					</g>
				</g>
			</g>
			<g>
				<g>
					<g>
						<polygon fill="#FFFFFF" points="7361.4,3280.8 7365.8,3269 7364.8,3269 7360.9,3279.6 						"/>
						<polygon fill="#FFFFFF" points="7362.1,3282.3 7366.9,3269 7366,3269 7361.6,3281.1 						"/>
						<polygon fill="#FFFFFF" points="7362.7,3283.8 7368.1,3269 7367.2,3269 7362.2,3282.7 						"/>
						<polygon fill="#FFFFFF" points="7363.4,3285.4 7369.3,3269 7368.4,3269 7362.9,3284.2 						"/>
					</g>
					<g>
						<path fill="#FFFFFF" d="M7373.6,3269.4c0.1,0.2,0,0.4,0,0.6c-0.1,0.2-0.2,0.4-0.4,0.6c-0.1,0.1-0.2,0.2-0.4,0.2
							c0.2,0.1,0.3,0.2,0.3,0.3c0,0.2,0,0.3-0.1,0.6c-0.1,0.2-0.2,0.4-0.4,0.6c-0.1,0.1-0.2,0.2-0.4,0.3c-0.2,0.1-0.3,0.2-0.5,0.2
							c-0.2,0-0.4,0.1-0.6,0.1h-1.7l1.4-3.8h1.8C7373.2,3269,7373.5,3269.1,7373.6,3269.4z M7370.9,3271.1l-0.4,1h0.9
							c0.2,0,0.3,0,0.4-0.1c0.2-0.1,0.3-0.2,0.4-0.5c0.1-0.2,0-0.3-0.1-0.4c-0.1,0-0.2-0.1-0.4-0.1H7370.9z M7371.4,3269.7l-0.3,0.8
							h0.9c0.2,0,0.3,0,0.4-0.1c0.1-0.1,0.2-0.2,0.3-0.3c0.1-0.2,0-0.3-0.1-0.4c-0.1,0-0.2-0.1-0.4-0.1H7371.4z"/>
						<path fill="#FFFFFF" d="M7375.8,3269h0.9l0,3.8h-0.9l0-0.8h-1.4l-0.5,0.8h-0.8L7375.8,3269z M7374.9,3271.4h1l0.1-1.5
							L7374.9,3271.4z"/>
						<path fill="#FFFFFF" d="M7378.5,3269h0.8l0.6,2.7l1-2.7h0.7l-1.4,3.8h-0.8l-0.6-2.7l-1,2.7h-0.7L7378.5,3269z"/>
						<path fill="#FFFFFF" d="M7382.6,3269.4c0.4-0.3,0.9-0.5,1.3-0.5c0.6,0,1,0.2,1.2,0.6c0.1,0.2,0.1,0.5,0,0.7h-0.8
							c0-0.2,0-0.3,0-0.4c-0.1-0.2-0.3-0.2-0.5-0.2c-0.3,0-0.6,0.1-0.8,0.4c-0.2,0.2-0.5,0.6-0.6,1c-0.2,0.4-0.2,0.7-0.1,1
							c0.1,0.2,0.3,0.3,0.5,0.3c0.3,0,0.5-0.1,0.7-0.3c0.1-0.1,0.2-0.2,0.4-0.4h0.8c-0.2,0.4-0.5,0.8-0.9,1
							c-0.4,0.3-0.8,0.4-1.2,0.4c-0.5,0-0.9-0.2-1.1-0.5c-0.2-0.4-0.2-0.8,0.1-1.5C7381.7,3270.3,7382.1,3269.7,7382.6,3269.4z"/>
						<path fill="#FFFFFF" d="M7387.9,3272.5c-0.4,0.3-0.9,0.4-1.4,0.4c-0.5,0-0.9-0.1-1.1-0.4c-0.3-0.4-0.3-0.9,0-1.6
							c0.3-0.7,0.6-1.2,1.2-1.6c0.4-0.3,0.9-0.4,1.4-0.4c0.5,0,0.9,0.1,1.1,0.4c0.3,0.3,0.3,0.9,0,1.6
							C7388.8,3271.6,7388.4,3272.1,7387.9,3272.5z M7387.6,3271.9c0.3-0.2,0.5-0.6,0.6-1c0.2-0.4,0.2-0.8,0.1-1
							c-0.1-0.2-0.3-0.4-0.6-0.4c-0.3,0-0.6,0.1-0.9,0.4c-0.3,0.2-0.5,0.6-0.6,1c-0.2,0.4-0.2,0.8-0.1,1c0.1,0.2,0.3,0.3,0.6,0.3
							C7387,3272.2,7387.3,3272.1,7387.6,3271.9z"/>
					</g>
					<path fill-rule="evenodd" clip-rule="evenodd" fill="#FFFFFF" d="M7408.9,3281.2l1-3.2l1,3.2H7408.9z M7411.3,3274.9h-2.7
						l-3.7,10.5h2.6l0.7-2.1h3.4c0.1,0.2,0.7,2.1,0.7,2.1h2.7L7411.3,3274.9z M7359,3274.9h-2.9v10.5h4.8v-5.8L7359,3274.9z
						 M7367.5,3274.9l-1.7,4.7v5.8h4.8v-10.5H7367.5z M7377.5,3274.9v6.4c0,0.7-0.1,1.1-0.2,1.4c-0.2,0.5-0.7,0.7-1.5,0.7
						c-0.8,0-1.3-0.2-1.5-0.7c-0.2-0.3-0.2-0.8-0.2-1.4v-6.4h-2.5v6.4c0,1.1,0.2,2,0.5,2.6c0.7,1.2,1.9,1.7,3.7,1.7
						c1.8,0,3.1-0.6,3.7-1.7c0.4-0.6,0.5-1.5,0.5-2.6v-6.4H7377.5z M7381,3274.9v10.5h7.5v-2.2h-5v-8.3H7381z M7386.2,3274.9v2.2h3
						v8.3h2.5v-8.3h3v-2.2H7386.2z M7395.6,3274.9h2.4h0.1h2.6c0,0,1.7,6.1,2.1,7.2l2.1-7.2h2.6l-3.6,10.5h-2.3l-3.4-10.2v10.2h-2.5
						V3274.9z"/>
				</g>
			</g>
		</g>
	</g>
	<linearGradient id="SVGID_1_" gradientUnits="userSpaceOnUse" x1="7376.376" y1="3511.1865" x2="7376.376" y2="3090.6221">
		<stop  offset="0" style="stop-color:#2484C6"/>
		<stop  offset="0.7539" style="stop-color:#2484C6;stop-opacity:0"/>
	</linearGradient>
	<path opacity="0.7" fill="url(#SVGID_1_)" d="M7340.9,3508.8l-136.7-390.7c0,0,201.9-57.3,344.3-6.4l-109.2,395.4
		C7439.3,3507.1,7416,3515,7340.9,3508.8z"/>
</g>
<g>
	<g>
		<path fill="#808386" d="M111.3,437.8v13.6c0,0,15.2,16.1,77.6,16.1s72.6-22.6,72.6-22.6V421C261.5,421,122.8,389.3,111.3,437.8z"
			/>
		<path fill="none" stroke="#CBCBCB" stroke-miterlimit="10" d="M114.7,383.2l-27.9,15.5c0,0-6.5,11.6,37.8,25.8V442
			c0,0,80.4,17.1,122.4-4.2v-14.2c0,0,24.5-8.7,33.9-26.8c0,0-20.6-9.7-24.9-13.5C251.8,379.3,181,361.6,114.7,383.2z"/>
		<ellipse fill="#3C688E" cx="186.6" cy="404.5" rx="68.3" ry="22.3"/>
		<ellipse fill="#F2EFE5" cx="187.3" cy="407.2" rx="65.1" ry="22"/>
		<path fill="#9B9DA4" d="M250.8,412.1c0,0,17.1-14.3,11.8-23.5c-5.3-9.2-30-21.8-75.3-21.8s-81.6,16.9-84,27.6
			c-2.4,10.7,18.9,17.7,18.9,17.7s-16.6-29.8,64.4-29.8C269.9,382.2,250.8,412.1,250.8,412.1z"/>
		<path fill="#95989B" d="M124.6,442.4c0,0-33.6-8.5-38.1-22.7V400c0,0,4.5,14.5,38.1,24.5V442.4z"/>
		<path fill="#95989B" d="M246.9,438.4v-14.8c0,0,24.2-9,33.9-26.8v22C280.8,418.7,268.9,433.6,246.9,438.4z"/>
		<path fill="#CBCBCB" d="M236.2,407.2l10.7,16.4c0,0,23.1-7.7,33.9-26.8l-19.4-11.6C261.5,385.1,259.9,403.1,236.2,407.2z"/>
		<path fill="#CBCBCB" d="M124.6,424.5l12.1-13.7c0,0-39.1-7.2-27.8-23.7l-22.1,11.6C86.8,398.7,88.5,416.5,124.6,424.5z"/>
		<polygon fill="#808386" points="242.5,440.3 242.5,424.5 234.3,414 236.2,407.2 246.9,423.6 246.9,438.4 		"/>
		<polygon fill="#808386" points="124.6,442.4 124.6,424.5 136.7,410.8 136.7,417.3 129.2,426.8 129.4,443.4 		"/>
		<path fill="#6C6C74" d="M136.7,417.3c0,0,61.7,8.8,98.4-2.2l7.4,9.5v15.8c0,0-25.9,18-113.1,3.1l-0.3-16.6L136.7,417.3z"/>
	</g>
	<g>
		<rect x="187.9" y="258.2" fill="#222329" width="28.9" height="58.8"/>
		<g>
			<path fill="#FFFFFF" d="M198.6,284.4l4.1-9.8h2.5v9.8h1.1v2.1h-1.1v2.6H203v-2.6h-4.4V284.4z M203,284.4v-5.4l-2.3,5.4H203z"/>
			<path fill="#FFFFFF" d="M214,285.5c0,1.2-0.3,2.2-0.8,2.8s-1.4,1-2.6,1c-1.1,0-2-0.3-2.5-0.9c-0.6-0.6-0.9-1.5-0.9-2.7v-0.4h2.2
				v0.5c0,0.5,0.1,0.9,0.3,1.1c0.2,0.2,0.5,0.3,0.9,0.3c0.4,0,0.7-0.1,0.9-0.4c0.2-0.2,0.3-0.7,0.3-1.4v-2.6
				c-0.4,0.9-1.1,1.3-2.1,1.3c-0.8,0-1.5-0.3-1.9-0.8c-0.4-0.6-0.6-1.4-0.6-2.5V278c0-1.2,0.3-2.1,0.9-2.7c0.6-0.6,1.4-0.9,2.6-0.9
				c1.1,0,2,0.3,2.6,0.9c0.6,0.6,0.9,1.5,0.9,2.7V285.5z M210.6,281.9c0.4,0,0.6-0.1,0.9-0.3s0.3-0.6,0.3-1.1v-2.6
				c0-0.5-0.1-0.9-0.3-1.1s-0.5-0.3-0.9-0.3s-0.6,0.1-0.9,0.3s-0.3,0.6-0.3,1.1v2.6c0,0.5,0.1,0.9,0.3,1.1S210.2,281.9,210.6,281.9z
				"/>
		</g>
		<g>
			<path fill="#A87F66" d="M223.1,146.1c9.7,8.1,16.9,17.8,23.1,28.6c13.6,23.7,17,50.8,9.4,77.1c-2.9,9.9,12.6,14.2,15.5,4.3
				c8.6-29.6,4.9-60.6-9.9-87.6c-6.8-12.3-15.8-24.7-26.7-33.8C226.5,128.2,215.1,139.5,223.1,146.1L223.1,146.1z"/>
		</g>
		<g>
			<path fill="#A87F66" d="M124.8,134.8c-10.9,9-19.9,21.5-26.7,33.8c-14.9,27-18.5,57.9-9.9,87.6c2.9,9.9,18.3,5.7,15.5-4.3
				c-7.6-26.3-4.2-53.4,9.4-77.1c6.2-10.8,13.4-20.5,23.1-28.6C144.1,139.5,132.7,128.2,124.8,134.8L124.8,134.8z"/>
		</g>
		<path opacity="0.25" fill="#1D1D1B" d="M125.5,133.7c-8.6,7.2-16.1,16.4-22.2,26.1l12.9,9.6c5.6-9.1,12.1-17.3,20.6-24.3
			C144.8,138.4,133.4,127.1,125.5,133.7z"/>
		<rect x="145.1" y="258.2" fill="#222329" width="28.9" height="58.8"/>
		<rect x="145.1" y="370.5" fill="#222329" width="28.9" height="44.9"/>
		<rect x="187.9" y="370.5" fill="#222329" width="28.9" height="44.9"/>
		<rect x="145.1" y="317" fill="#A87F66" width="28.9" height="53.4"/>
		<rect x="187.9" y="317" fill="#A87F66" width="28.9" height="53.4"/>
		<rect x="145" y="406" fill="#222329" width="28" height="9"/>
		<rect x="187" y="406" fill="#222329" width="29" height="9"/>
		
			<ellipse transform="matrix(0.9723 0.2336 -0.2336 0.9723 67.2892 -54.0582)" fill="#A87F66" cx="261.9" cy="257" rx="9" ry="10.8"/>
		
			<ellipse transform="matrix(-0.9723 0.2336 -0.2336 -0.9723 251.6227 483.1967)" fill="#A87F66" cx="97.2" cy="256.5" rx="9" ry="10.8"/>
		<path opacity="0.25" fill="#1D1D1B" d="M143.9,254.4l2.6-0.1l-4.4,0c0,0,1.1,5.3,3.1,8.1l-0.1,21.5l28.9,0.1l0.1-15.7
			c0,0-12.6,0.3-19.1-2.5C146.5,262.2,143.9,254.4,143.9,254.4z"/>
		<g>
			<path fill="#222329" d="M169.2,47.7c0,0-21.4,4.3-23.5,38.5c-2.1,34.2-2.7,39,1.6,39s6.4-34.7,6.4-34.7s-4.3,33.7,4.3,34.2
				C166.5,125.2,169.2,47.7,169.2,47.7z"/>
			<path fill="#222329" d="M197,109.1c0,0,0,16.6,4.8,17.1s3.5-27.8,3.5-27.8s2.9,27.8,5.6,27.3c5.3-1.1-0.8-28.9-0.8-28.9
				s7.2,30.2,14.2,26.7c4.3-3.7-4-4.8-10.2-28.3c0,0,9.4,20.6,14.7,17.9c5.3-2.7-6.7-13.4-14.2-33.1S198,39.6,169.2,47.7
				C139.5,55.9,197,109.1,197,109.1z"/>
			<rect x="155" y="75" fill="#A87F66" width="46" height="70"/>
			<ellipse fill="#A87F66" cx="179" cy="75.9" rx="23.2" ry="23.4"/>
			<path fill="#3C3C3B" d="M154.6,76.9c0,0,11.3-21.6,48,4.5c0,0,2.6-29.8-24.5-29.4C153.8,52.3,154.6,76.9,154.6,76.9z"/>
			<path fill="#FFFFFF" d="M161.7,94.2c0,0,13.6,14.2,31-1.6C192.7,92.6,174.8,129.7,161.7,94.2z"/>
		</g>
		<g>
			<path fill="#222329" d="M152.1,128h-5.9h-5.1h-5.5h-0.3c-6.7,0-12.2,5.5-12.2,12.2l18.2,111.1c0,0.9,0.1,1.9,0.3,3h0.3h15.5h0.8
				h53.4c0-0.1,0-0.1,0-0.2h9.2h0.3c0.2-1,0.3-2,0.3-2.9l15.2-110.8c0-6.7-5.5-12.1-12.1-12.1l-0.4,0l-3.6,0c0-0.1,0-0.1,0-0.2
				l-14.8,0c0,0.1,0,0.1,0,0.2l-3.9,0v0.2c-2.9,10.3-30.6,16-30.6,16c-9.6-6.8-15.3-16-15.3-16l0.2-0.2h-3.7"/>
			<path fill="#222329" d="M153.1,268.4h55.6c5.7,0,11.1-7.8,12.4-14.2H142C143,260.6,147.4,268.4,153.1,268.4z"/>
			<path fill="#222329" d="M138.2,127.8c0,0-15.3-2.3-27.4,19.4l21.7,22.4L138.2,127.8z"/>
			<path fill="#222329" d="M222.4,127.8c0,0,15.3-2.3,27.4,19.4l-21.7,22.4L222.4,127.8z"/>
			<polygon fill="#005CA7" points="164.9,140.7 164.9,254.2 180.9,254.2 180.9,142.5 171.1,144.4 			"/>
			<path fill="#005CA7" d="M207.4,127.8v126.4h12.6V128.2C219.9,128.2,207.4,127.6,207.4,127.8z"/>
			<path fill="#005CA7" d="M135.8,127.8l0.5,90.9l5.3,35.3l6.7,0.3V128.2C148.3,128.2,135.8,127.6,135.8,127.8z"/>
			<polygon fill="#005CA7" points="233.7,160.3 233.3,145.2 239.4,154.6 			"/>
			<polygon fill="#005CA7" points="126.9,160.3 125.6,147.9 122.1,155.9 			"/>
			<path fill="#2D2D2B" d="M155.8,128.3c0,0,6.6,9.6,15.3,16c0,0,27.4-6.3,30.6-16l2.5-0.2c0,0-1.6,12.8-34,18.7
				c0,0-10-5.2-16.9-18.7L155.8,128.3z"/>
			<g>
				<path fill="#FFFFFF" d="M204.8,147.2v17.3c0,4,5.1,7.5,9.4,7.5c4.3,0,9.4-3.5,9.4-7.5v-17.3H204.8L204.8,147.2z"/>
				<polygon fill="#1D1D1B" points="205.1,147.5 205.1,150.4 223.3,150.4 223.3,147.5 205.1,147.5 				"/>
				<path fill="#FFFFFF" d="M210,149c0,0.1,0,0.2,0,0.3c0,0.1-0.1,0.2-0.1,0.2c-0.1,0.1-0.1,0.1-0.2,0.1c-0.1,0-0.2,0.1-0.4,0.1
					c0,0,0,0,0,0c-0.1,0-0.1,0-0.2,0c-0.1,0-0.2,0-0.2-0.1c-0.1,0-0.1-0.1-0.2-0.1c-0.1-0.1-0.1-0.1-0.1-0.2c0-0.1,0-0.2,0-0.3v-1
					h0.5v1c0,0.1,0,0.2,0.1,0.2c0,0.1,0.1,0.1,0.2,0.1c0.1,0,0.2,0,0.2-0.1c0-0.1,0.1-0.1,0.1-0.2v-1h0.5V149L210,149z"/>
				<polygon fill="#FFFFFF" points="211.7,149.7 210.4,149.7 210.4,148.1 211.7,148.1 211.7,148.4 210.9,148.4 210.9,148.7 
					211.7,148.7 211.7,149 210.9,149 210.9,149.3 211.7,149.3 211.7,149.7 				"/>
				<polygon fill="#FFFFFF" points="215.1,149.7 213.8,149.7 213.8,148.1 215.1,148.1 215.1,148.4 214.3,148.4 214.3,148.7 
					215.1,148.7 215.1,149 214.3,149 214.3,149.3 215.1,149.3 215.1,149.7 				"/>
				<polygon fill="#FFFFFF" points="216.3,149.7 215.8,149.7 215.8,148.5 215.3,148.5 215.3,148.1 216.8,148.1 216.8,148.5 
					216.3,148.5 216.3,149.7 				"/>
				<path fill="#FFFFFF" d="M221.9,149.3c-0.1,0.1-0.2,0.2-0.3,0.3c-0.1,0.1-0.3,0.1-0.5,0.1c0,0,0,0,0,0c-0.2,0-0.3,0-0.4-0.1
					c-0.1-0.1-0.2-0.2-0.3-0.3c-0.1-0.1-0.1-0.3-0.1-0.5c0-0.3,0.1-0.5,0.2-0.6c0.2-0.1,0.4-0.2,0.6-0.2c0,0,0,0,0,0
					c0.3,0,0.5,0.1,0.6,0.2c0.1,0.1,0.2,0.3,0.2,0.6C222,149.1,222,149.2,221.9,149.3L221.9,149.3z M221.2,148.4L221.2,148.4
					C221.2,148.4,221.2,148.4,221.2,148.4c-0.1,0-0.2,0-0.3,0.1c-0.1,0.1-0.1,0.2-0.1,0.4c0,0.2,0,0.3,0.1,0.4
					c0.1,0.1,0.1,0.1,0.3,0.1c0.1,0,0.2,0,0.2-0.1c0.1-0.1,0.1-0.2,0.1-0.4c0-0.2,0-0.3-0.1-0.3
					C221.4,148.5,221.3,148.4,221.2,148.4L221.2,148.4z"/>
				<path fill="#FFFFFF" d="M219.7,149.7l-0.2-0.4l0-0.1c0-0.1-0.1-0.1-0.1-0.1c0,0-0.1,0-0.1,0h0v0.7h-0.5v-1.6h0.8h0
					c0.2,0,0.3,0,0.4,0c0.1,0,0.1,0.1,0.2,0.2c0.1,0.1,0.1,0.2,0.1,0.3c0,0.1,0,0.2-0.1,0.2c0,0.1-0.1,0.1-0.2,0.2
					c0,0-0.1,0-0.2,0.1c0.1,0,0.1,0,0.1,0.1c0,0,0,0,0.1,0.1c0,0,0.1,0.1,0.1,0.1l0.2,0.5H219.7L219.7,149.7z M219.5,148.4
					L219.5,148.4C219.5,148.4,219.4,148.4,219.5,148.4l-0.3,0v0.3h0.2c0,0,0,0,0.1,0c0,0,0,0,0,0c0,0,0.1,0,0.1-0.1c0,0,0-0.1,0-0.1
					c0-0.1,0-0.1,0-0.1C219.6,148.4,219.5,148.4,219.5,148.4L219.5,148.4z"/>
				<path fill="#FFFFFF" d="M218,149.7l-0.1-0.3h-0.6l-0.1,0.3h-0.5l0.6-1.6h0.5l0.6,1.6H218L218,149.7z M217.6,148.5L217.6,148.5
					l-0.2,0.6h0.4L217.6,148.5L217.6,148.5z"/>
				<path fill="#FFFFFF" d="M213,149.7l-0.2-0.4l0-0.1c0-0.1-0.1-0.1-0.1-0.1c0,0-0.1,0-0.1,0h0v0.7H212v-1.6h0.8h0
					c0.2,0,0.3,0,0.4,0c0.1,0,0.2,0.1,0.2,0.2c0.1,0.1,0.1,0.2,0.1,0.3c0,0.1,0,0.2-0.1,0.2c0,0.1-0.1,0.1-0.2,0.2
					c0,0-0.1,0-0.2,0.1c0.1,0,0.1,0,0.1,0.1c0,0,0,0,0.1,0.1c0,0,0.1,0.1,0.1,0.1l0.2,0.5H213L213,149.7z M212.8,148.4L212.8,148.4
					C212.8,148.4,212.8,148.4,212.8,148.4l-0.3,0v0.3h0.2c0,0,0,0,0.1,0c0,0,0,0,0.1,0c0,0,0.1,0,0.1-0.1c0,0,0-0.1,0-0.1
					c0-0.1,0-0.1-0.1-0.1C212.9,148.4,212.9,148.4,212.8,148.4L212.8,148.4z"/>
				<path fill="#FFFFFF" d="M208.1,149.9c-0.1,0-0.1-0.1-0.2-0.1c-0.1,0-0.1-0.1-0.1-0.1c-0.1,0-0.2,0.1-0.4,0.1c0,0,0,0,0,0
					c-0.2,0-0.4-0.1-0.6-0.2c-0.2-0.2-0.3-0.4-0.3-0.6c0-0.3,0.1-0.5,0.2-0.6c0.2-0.1,0.4-0.2,0.6-0.2c0,0,0,0,0,0
					c0.3,0,0.5,0.1,0.6,0.2c0.1,0.1,0.2,0.4,0.2,0.6c0,0.2-0.1,0.4-0.2,0.6c0.1,0,0.1,0.1,0.1,0.1c0,0,0.1,0,0.1,0.1L208.1,149.9
					L208.1,149.9z M207.4,148.4L207.4,148.4C207.4,148.4,207.4,148.4,207.4,148.4c-0.1,0-0.2,0-0.3,0.1c-0.1,0.1-0.1,0.2-0.1,0.3
					c0,0.2,0,0.3,0.1,0.4c0.1,0.1,0.1,0.1,0.3,0.1c0,0,0,0,0,0c0,0,0,0,0.1,0c0,0,0,0-0.1-0.1c0,0-0.1,0-0.1-0.1l0.1-0.2
					c0,0,0,0,0.1,0c0,0,0,0,0,0c0,0,0.1,0,0.1,0.1c0,0,0,0,0.1,0c0-0.1,0.1-0.2,0.1-0.3c0-0.2,0-0.3-0.1-0.4
					C207.6,148.5,207.5,148.4,207.4,148.4L207.4,148.4z"/>
				<path fill="#1D1D1B" d="M205,150.8h18.3v13.6c0,1.9-1.1,3.6-2.8,4.9c-1.8,1.4-4.2,2.3-6.3,2.3c-2.2,0-4.6-0.9-6.3-2.3
					c-1.7-1.3-2.8-3.1-2.8-4.9V150.8L205,150.8z"/>
				<path fill="#FFFFFF" d="M205.2,150.9v13.5c0,1.8,1.1,3.6,2.8,4.9c1.8,1.4,4.1,2.3,6.3,2.3c2.2,0,4.5-0.9,6.3-2.3
					c1.6-1.3,2.8-3,2.8-4.9v-13.5H205.2L205.2,150.9z"/>
				<path fill="#EC6B0C" d="M220.9,150.9h-2.1l0,6.5c0.9,1,1.4,2.4,1.4,3.9c0,0.5-0.1,1.1-0.2,1.5c-0.1,0.5-0.3,1-0.6,1.4l0,0l0,0
					l1,0.9l0,0l0,0l-1.5,1.6l0,0l0,0l0,0l0,3.3c0.6-0.3,1.1-0.7,1.6-1c0.2-0.2,0.4-0.3,0.6-0.5L220.9,150.9L220.9,150.9z"/>
				<path fill="#1D1D1B" d="M213.5,167.2l0,4.1c0.2,0,0.5,0,0.7,0c0.5,0,0.9,0,1.4-0.1l0-4.2c-0.5,0.1-1,0.2-1.5,0.2
					C213.9,167.2,213.7,167.2,213.5,167.2L213.5,167.2z"/>
				<path fill="#1D1D1B" d="M215.6,155.4l0-4.5h-2.2l0,4.4c0.2,0,0.5,0,0.7,0C214.7,155.2,215.2,155.3,215.6,155.4L215.6,155.4z"/>
				<path fill="#5057A2" d="M218.2,150.9h-2.1l0,4.7c0.8,0.3,1.5,0.7,2.1,1.2V150.9L218.2,150.9z"/>
				<path fill="#5057A2" d="M216.2,166.9C216.2,166.9,216.2,166.9,216.2,166.9l0,4.2c0.7-0.2,1.4-0.4,2.1-0.7v-4.2l-0.3-0.3
					C217.4,166.4,216.8,166.7,216.2,166.9L216.2,166.9z"/>
				<path fill="#1D1D1B" d="M214.2,155.4c3.2,0,5.8,2.6,5.8,5.8c0,0.5-0.1,1.1-0.2,1.6c-0.1,0.5-0.4,1-0.6,1.4l1,1l0,0l0,0l-1.3,1.3
					l0,0l0,0l-0.9-0.9c-0.5,0.4-1.1,0.8-1.7,1c-0.6,0.2-1.3,0.4-2,0.4c-3.2,0-5.8-2.6-5.8-5.8C208.4,158,211,155.4,214.2,155.4
					L214.2,155.4z"/>
				<path fill="#FFFFFF" d="M214.2,155.5c-3.1,0-5.7,2.6-5.7,5.7c0,3.1,2.6,5.7,5.7,5.7c0.7,0,1.4-0.1,2-0.3c0.6-0.2,1.2-0.6,1.7-1
					l0,0l0,0l0.9,0.9l1.2-1.2l-1-1l0,0l0,0c0.3-0.4,0.5-0.9,0.6-1.4c0.1-0.5,0.2-1,0.2-1.6C219.9,158.1,217.3,155.5,214.2,155.5
					L214.2,155.5z"/>
				<path fill="#1D1D1B" d="M214.2,157.6c2,0,3.6,1.6,3.6,3.6c0,0.3,0,0.5-0.1,0.7c-0.1,0.2-0.1,0.5-0.2,0.7l0,0.1l0,0l-0.2-0.2
					l-1.2,1.2l0.3,0.4l0,0l0,0c-0.3,0.2-0.7,0.4-1,0.5c-0.4,0.1-0.7,0.2-1.1,0.2c-2,0-3.6-1.6-3.6-3.6
					C210.5,159.2,212.2,157.6,214.2,157.6L214.2,157.6z"/>
				<path fill="#5057A2" d="M217.6,160.4c-0.1,0.1-0.2,0.1-0.3,0.2c-0.1,0.1-0.1,0.2-0.1,0.3l0,1.1v0l0,0l-0.4,0l0,0v0l0-1.2
					c0-0.3-0.2-0.5-0.4-0.5c-0.1,0-0.2,0-0.3,0c-0.1,0-0.2,0-0.3,0.1c-0.2,0.1-0.4,0.3-0.4,0.7l0,1.2v0h0l-0.4,0l0,0v0l0-1.5
					c0-0.3-0.2-0.5-0.4-0.6c-0.1,0-0.2,0-0.3,0c-0.1,0-0.2,0-0.3,0.1c-0.3,0.1-0.5,0.3-0.5,0.6v1.7v0h0l-0.4,0l0,0v0l0-1.9
					c0-0.3-0.2-0.6-0.5-0.7c-0.1,0-0.2-0.1-0.3-0.1c-0.1,0-0.2,0-0.4,0.1c-0.3,0.1-0.5,0.4-0.5,0.8v1.9v0l0,0l-0.3,0l0,0v0l0-1.9
					c0-0.1,0-0.2,0-0.4c0-0.1,0-0.1,0-0.2c-0.2,0.4-0.3,0.9-0.3,1.3c0,2,1.6,3.6,3.6,3.6c0.4,0,0.8-0.1,1.1-0.2
					c0.3-0.1,0.7-0.3,1-0.5l-0.3-0.4l0,0l0,0l1.3-1.3l0,0l0,0l0.2,0.2c0.1-0.2,0.2-0.4,0.2-0.6c0.1-0.2,0.1-0.5,0.1-0.7
					C217.7,160.9,217.7,160.7,217.6,160.4L217.6,160.4z"/>
				<path fill="#5057A2" d="M211.6,158.8l5.7,0.9c-0.6-1.2-1.8-2-3.2-2C213.2,157.7,212.3,158.1,211.6,158.8L211.6,158.8z"/>
				<path fill="#FFFFFF" d="M217.4,159.7l-5.8-0.9c-0.3,0.3-0.5,0.6-0.6,0.9c0,0.1,0,0.2,0,0.3c0,0.1,0,0.3,0,0.4l0,1.9l0.2,0v-1.9
					c0-0.4,0.2-0.7,0.6-0.8c0.1,0,0.2-0.1,0.4-0.1c0.1,0,0.3,0,0.4,0.1c0.3,0.1,0.5,0.4,0.5,0.8l0,1.9l0.3,0v-1.6
					c0-0.3,0.3-0.5,0.6-0.6c0.1,0,0.2-0.1,0.3-0.1c0.1,0,0.2,0,0.3,0.1c0.2,0.1,0.4,0.3,0.4,0.7v1.5l0.3,0v-1.2
					c0-0.4,0.2-0.6,0.5-0.7c0.1,0,0.2-0.1,0.3-0.1s0.2,0,0.3,0.1c0.3,0.1,0.4,0.3,0.4,0.6l0,1.2l0.3,0l0-1c0-0.1,0-0.2,0.1-0.3
					c0.1-0.1,0.2-0.2,0.3-0.2c0-0.1-0.1-0.2-0.1-0.3C217.5,159.9,217.4,159.8,217.4,159.7L217.4,159.7z"/>
				<path fill="#1D1D1B" d="M213.6,156.2c0-0.1-0.1-0.1-0.2-0.2c0,0-0.1,0-0.1,0c0,0-0.1,0-0.1,0c-0.1,0-0.2,0.1-0.2,0.2
					c-0.1,0.1-0.1,0.2-0.1,0.3c0,0.1,0.1,0.2,0.1,0.3c0.1,0.1,0.1,0.1,0.2,0.1c0,0,0,0,0,0c0.1,0,0.1,0,0.2-0.1c0,0,0.1-0.1,0.1-0.1
					c0,0,0,0,0,0c0,0.1,0,0.1,0,0.2c0,0.1,0,0.1,0,0.1c0,0,0,0.1-0.1,0.1c0,0-0.1,0-0.1,0c0,0-0.1,0-0.1,0c0,0,0,0,0,0
					c0,0-0.1-0.1-0.1-0.1l-0.1,0c0,0.1,0.1,0.2,0.1,0.2c0,0,0.1,0,0.1,0c0,0,0.1,0,0.1,0c0.1,0,0.2-0.1,0.2-0.1
					c0.1-0.1,0.1-0.1,0.1-0.2c0-0.1,0-0.2,0-0.4C213.7,156.4,213.7,156.3,213.6,156.2L213.6,156.2z M213.5,156.6L213.5,156.6
					c0,0.1-0.1,0.1-0.1,0.1c0,0,0,0,0,0c0,0-0.1,0-0.1,0c-0.1,0-0.1-0.1-0.1-0.2c0-0.1,0-0.2,0-0.2c0-0.1,0.1-0.1,0.2-0.1
					c0,0,0,0,0,0c0,0,0.1,0,0.1,0c0.1,0,0.1,0.1,0.1,0.2C213.6,156.4,213.6,156.5,213.5,156.6L213.5,156.6z"/>
				<path fill="#1D1D1B" d="M211.7,156.6c0,0.1,0,0.1,0,0.2c0,0.1-0.1,0.2-0.1,0.2l0.1,0.1c0,0,0.1-0.1,0.1-0.1
					c0-0.1,0.1-0.1,0.1-0.2l0.4,0.8l0.1-0.1L211.7,156.6L211.7,156.6L211.7,156.6z"/>
				<path fill="#1D1D1B" d="M214.6,156.6l0.1,0c0,0,0.1,0,0.1-0.1c0,0,0.1,0,0.1,0c0.1,0,0.1,0,0.2,0.1c0,0.1,0,0.1,0,0.2
					c0,0.1-0.1,0.1-0.1,0.2c-0.1,0-0.1,0.1-0.2,0c-0.1,0-0.1,0-0.1-0.1c0,0,0-0.1,0-0.2l-0.2,0c0,0.1,0,0.2,0.1,0.3
					c0.1,0.1,0.1,0.1,0.2,0.1c0.1,0,0.2,0,0.3-0.1c0.1-0.1,0.1-0.2,0.1-0.3c0-0.1,0-0.2-0.1-0.3c-0.1-0.1-0.1-0.1-0.2-0.2
					c-0.1,0-0.2,0-0.2,0l0.1-0.3l0.5,0.1l0-0.1l-0.6-0.1L214.6,156.6L214.6,156.6z"/>
				<path fill="#1D1D1B" d="M216.1,157.6c0.1,0,0.1,0.1,0.2,0c0,0,0,0,0.1,0c0,0,0.1-0.1,0.1-0.1c0.1-0.1,0.1-0.2,0.2-0.3
					c0.1-0.1,0.1-0.2,0.1-0.3c0-0.1,0-0.1,0-0.2c0-0.1,0-0.1-0.1-0.2c0,0-0.1-0.1-0.1-0.1c-0.1,0-0.1-0.1-0.2,0c0,0,0,0-0.1,0
					c0,0-0.1,0-0.1,0.1c-0.1,0.1-0.1,0.2-0.2,0.3c-0.1,0.2-0.2,0.4-0.1,0.5C216,157.5,216,157.6,216.1,157.6L216.1,157.6z
					 M216.2,157L216.2,157c0.1-0.1,0.1-0.2,0.2-0.3c0,0,0,0,0.1,0c0.1,0,0.1,0,0.2,0c0.1,0,0.1,0.1,0.1,0.2c0,0.1,0,0.2-0.1,0.4
					c-0.1,0.1-0.1,0.2-0.2,0.3c0,0,0,0,0,0c-0.1,0-0.1,0-0.2,0c-0.1,0-0.1-0.1-0.1-0.2C216.1,157.3,216.1,157.2,216.2,157L216.2,157
					z"/>
				<path fill="#1D1D1B" d="M219.4,162c0-0.1,0-0.1,0-0.1c0,0-0.1-0.1-0.1-0.1c0,0-0.1-0.1-0.1-0.1c0,0-0.1,0-0.1,0c0,0-0.1,0-0.1,0
					c-0.1,0-0.1,0.1-0.1,0.1c0-0.1,0-0.1-0.1-0.1c0,0-0.1-0.1-0.1-0.1c0,0,0,0-0.1,0c0,0-0.1,0-0.1,0c-0.1,0-0.1,0.1-0.1,0.1
					c0,0-0.1,0.1-0.1,0.2l-0.1,0.4l0.4,0.1l0.5,0.1l0.3,0l0.1-0.4C219.4,162.1,219.4,162,219.4,162L219.4,162z M218.7,162.1
					L218.7,162.1l0,0.3l-0.1,0l-0.2,0l0-0.2c0-0.1,0-0.1,0-0.2c0,0,0-0.1,0.1-0.1c0,0,0,0,0,0c0,0,0,0,0.1,0c0,0,0.1,0,0.1,0
					c0,0,0,0.1,0,0.1C218.7,162,218.7,162,218.7,162.1L218.7,162.1z M219.3,162.1L219.3,162.1l0,0.3l-0.2,0l-0.2,0l0-0.3
					c0-0.1,0-0.1,0.1-0.2c0,0,0-0.1,0.1-0.1c0,0,0,0,0.1,0c0,0,0,0,0.1,0c0,0,0.1,0,0.1,0c0,0,0,0,0.1,0.1c0,0,0,0.1,0,0.1
					C219.3,162.1,219.3,162.1,219.3,162.1L219.3,162.1z"/>
				<polygon fill="#1D1D1B" points="211.3,164.4 211.4,164.5 211.5,164.4 211.3,164.2 210.9,163.7 210.7,163.8 211,164.1 
					210.5,164.6 210.3,164.8 210.4,164.9 210.5,164.8 211.1,164.2 211.3,164.4 				"/>
				<path fill="#1D1D1B" d="M217,165.3L217,165.3c-0.1,0.1,0,0.2-0.1,0.3c0,0.1-0.1,0.1-0.2,0.2c-0.1,0-0.1,0.1-0.2,0.1
					c-0.1,0-0.1,0-0.2-0.1c-0.1,0-0.1-0.1-0.2-0.2c0-0.1-0.1-0.1-0.1-0.2c0-0.1,0-0.1,0-0.2c0-0.1,0.1-0.1,0.2-0.2
					c0.1,0,0.1-0.1,0.2,0c0.1,0,0.1,0,0.2,0.1l0.1-0.1c-0.1-0.1-0.2-0.1-0.3-0.1c-0.1,0-0.2,0-0.3,0.1c-0.1,0.1-0.2,0.1-0.2,0.2
					c0,0.1-0.1,0.2-0.1,0.3c0,0.1,0,0.2,0.1,0.3c0.1,0.1,0.1,0.2,0.2,0.2c0.1,0.1,0.2,0.1,0.3,0.1c0.1,0,0.2,0,0.3-0.1
					c0.1,0,0.1-0.1,0.1-0.1c0,0,0.1-0.1,0.1-0.1C217.1,165.5,217.1,165.4,217,165.3L217,165.3L217,165.3z"/>
				<path fill="#1D1D1B" d="M210.7,163.5l-0.1-0.1l-0.1,0.1l-0.5,0.2c-0.1,0.1-0.2,0.1-0.3,0.1c-0.1,0-0.1-0.1-0.2-0.2
					c0-0.1,0-0.1,0-0.2c0-0.1,0-0.1,0.1-0.1c0,0,0.1-0.1,0.2-0.1l0.6-0.3l-0.1-0.1l-0.6,0.3c-0.1,0.1-0.2,0.1-0.2,0.2
					c-0.1,0.1-0.1,0.1-0.1,0.2c0,0.1,0,0.2,0.1,0.3c0,0.1,0.1,0.2,0.2,0.2c0.1,0,0.1,0.1,0.2,0.1c0.1,0,0.2,0,0.3-0.1l0.4-0.2
					L210.7,163.5L210.7,163.5z"/>
				<polygon fill="#1D1D1B" points="209.5,162.4 209.7,162.4 209.6,161.8 209.9,161.8 210,162.4 210.2,162.4 210,161.6 208.9,161.8 
					208.9,161.9 209.4,161.9 209.5,162.4 				"/>
				<path fill="#1D1D1B" d="M212.1,164.8l-0.2-0.1l-0.2-0.1l-0.4,0.7l-0.2,0.3l0.2,0.1l0.2,0.1c0.1,0,0.1,0.1,0.2,0.1
					c0,0,0.1,0,0.1,0c0,0,0.1,0,0.1,0c0,0,0,0,0,0c0,0,0.1-0.1,0.1-0.1c0-0.1,0.1-0.1,0-0.2c0-0.1,0-0.1-0.1-0.2c0.1,0,0.1,0,0.2,0
					c0,0,0.1-0.1,0.1-0.1c0,0,0-0.1,0-0.2c0-0.1,0-0.1-0.1-0.2C212.2,164.9,212.2,164.9,212.1,164.8L212.1,164.8z M211.9,165.7
					L211.9,165.7C211.9,165.7,211.9,165.7,211.9,165.7C211.9,165.7,211.9,165.7,211.9,165.7c-0.1,0.1-0.1,0.1-0.2,0.1
					c0,0-0.1,0-0.1,0c0,0,0,0-0.1-0.1l-0.2-0.2l0.2-0.3l0.2,0.1c0.1,0,0.1,0.1,0.1,0.1c0,0,0,0,0,0c0,0,0,0.1,0,0.1
					C211.9,165.6,211.9,165.6,211.9,165.7L211.9,165.7z M212.1,165.2L212.1,165.2C212.1,165.2,212.1,165.3,212.1,165.2
					c-0.1,0.1-0.1,0.1-0.2,0.1c0,0,0,0-0.1,0c0,0,0,0-0.1,0l-0.2-0.1l0.2-0.3l0.1,0.1l0.1,0.1c0.1,0,0.1,0.1,0.1,0.1
					c0,0,0,0.1,0,0.1C212.2,165.1,212.2,165.2,212.1,165.2L212.1,165.2z"/>
				<polygon fill="#1D1D1B" points="214.3,166.4 214.3,165.4 214.1,165.4 214.2,166.5 214.9,166.5 214.9,166.3 214.3,166.4 				"/>
				<polygon fill="#1D1D1B" points="217.8,164.9 217,164.2 217,164.2 216.9,164.3 217,164.4 217.8,165.1 218.3,164.6 218.2,164.5 
					217.8,164.9 				"/>
				<path fill="#1D1D1B" d="M218.9,163.2c0-0.1-0.1-0.1-0.2-0.2l-0.1-0.1l-0.5-0.2l-0.1,0.1l0.6,0.3l0,0c0.1,0.1,0.2,0.1,0.2,0.2
					c0,0.1,0,0.2,0,0.3c0,0.1-0.1,0.1-0.1,0.1c0,0-0.1,0-0.1,0c0,0,0,0,0,0c-0.1,0-0.1,0-0.2-0.1l-0.6-0.3l-0.1,0.1l0.6,0.3
					c0.1,0.1,0.2,0.1,0.3,0.1c0,0,0,0,0,0c0.1,0,0.1,0,0.2-0.1c0.1,0,0.1-0.1,0.2-0.2c0.1-0.1,0.1-0.2,0.1-0.3
					C219,163.3,218.9,163.3,218.9,163.2L218.9,163.2z"/>
				<path fill="#1D1D1B" d="M213.6,165.4c-0.1-0.1-0.2-0.1-0.3-0.1c-0.1,0-0.1,0-0.2,0c-0.1,0-0.2,0-0.3,0.1
					c-0.1,0.1-0.2,0.2-0.3,0.4c0,0.1,0,0.2,0,0.3c0,0.1,0.1,0.2,0.1,0.3c0.1,0.1,0.2,0.1,0.3,0.2c0,0,0.1,0,0.1,0c0.1,0,0.1,0,0.2,0
					c0.1,0,0.2-0.1,0.3-0.2c0.1-0.1,0.1-0.2,0.1-0.3c0-0.1,0-0.2,0-0.3C213.7,165.5,213.6,165.5,213.6,165.4L213.6,165.4z
					 M213.5,165.9L213.5,165.9c0,0.1-0.1,0.3-0.2,0.3c-0.1,0-0.1,0.1-0.2,0.1c0,0-0.1,0-0.1,0c-0.1,0-0.2-0.1-0.3-0.2
					c-0.1-0.1-0.1-0.2,0-0.3c0-0.2,0.1-0.3,0.2-0.3c0.1,0,0.1-0.1,0.2-0.1c0,0,0.1,0,0.1,0c0.1,0,0.1,0.1,0.2,0.1
					c0,0.1,0.1,0.1,0.1,0.2C213.6,165.8,213.6,165.8,213.5,165.9L213.5,165.9z"/>
				<path fill="#1D1D1B" d="M214.7,164.2c-0.2,0.1-0.4,0.1-0.6,0c-0.2-0.1-0.3-0.2-0.4-0.4c-0.1-0.2-0.1-0.4,0-0.6
					c0.1-0.2,0.2-0.3,0.4-0.4c0.2-0.1,0.4-0.1,0.6,0c0.2,0.1,0.3,0.2,0.4,0.4c0.1,0.2,0.1,0.4,0,0.6
					C215,164,214.9,164.1,214.7,164.2L214.7,164.2z"/>
				<path fill="#FFFFFF" d="M215.1,163.2C215.1,163.2,215.1,163.2,215.1,163.2C215.1,163.2,215.1,163.2,215.1,163.2
					C215.1,163.2,215.1,163.2,215.1,163.2C215.1,163.2,215.1,163.2,215.1,163.2L215.1,163.2z"/>
				<rect x="213.8" y="163.9" fill="#FFFFFF" width="0" height="0"/>
				<path fill="#FFFFFF" d="M214.9,162.9c0.1,0.1,0.2,0.2,0.2,0.3c0,0,0,0,0.1,0c0,0,0-0.1,0-0.1C215.1,163.1,215,163,214.9,162.9
					C214.9,162.9,214.9,162.9,214.9,162.9L214.9,162.9z"/>
				<path fill="#FFFFFF" d="M214.1,162.8c0.2-0.1,0.3-0.1,0.4,0c0,0,0,0,0.1,0C214.4,162.7,214.2,162.7,214.1,162.8
					C214.1,162.7,214.1,162.7,214.1,162.8C214,162.8,214.1,162.8,214.1,162.8L214.1,162.8z"/>
				<path fill="#FFFFFF" d="M214.4,164.2C214.4,164.2,214.4,164.2,214.4,164.2c0,0,0.2,0,0.3,0c0,0,0,0,0.1,0c0,0,0,0,0,0
					C214.5,164.2,214.4,164.2,214.4,164.2L214.4,164.2z"/>
				<path fill="#FFFFFF" d="M213.7,163.6C213.6,163.6,213.6,163.6,213.7,163.6C213.6,163.6,213.6,163.7,213.7,163.6
					c0,0.2,0.1,0.2,0.1,0.3c0,0,0,0,0,0C213.7,163.8,213.7,163.7,213.7,163.6L213.7,163.6z"/>
				<path fill="#FFFFFF" d="M214.8,164c0,0,0,0.1-0.1,0.2c0,0,0,0,0.1,0l0,0l0,0c0.1-0.1,0.2-0.2,0.3-0.3c0,0,0-0.1,0-0.1
					c0,0-0.1,0-0.1,0C214.9,163.8,214.9,163.9,214.8,164L214.8,164z"/>
				<path fill="#FFFFFF" d="M213.6,163.5C213.6,163.5,213.6,163.6,213.6,163.5c0.1,0,0.1,0,0.1-0.1c0-0.1,0-0.2,0-0.3
					c0,0,0-0.1,0-0.1c0,0-0.1,0.1-0.1,0.1C213.6,163.2,213.6,163.4,213.6,163.5L213.6,163.5L213.6,163.5L213.6,163.5z"/>
				<path fill="#FFFFFF" d="M214.3,164.2C214.3,164.2,214.3,164.2,214.3,164.2c0.1,0,0-0.1,0-0.1c-0.1,0-0.2-0.1-0.3-0.1
					c0,0-0.1,0-0.2,0c0,0,0,0,0,0.1v0c0.1,0.1,0.1,0.1,0.2,0.1C214.1,164.2,214.2,164.2,214.3,164.2L214.3,164.2L214.3,164.2
					L214.3,164.2z"/>
				<path fill="#FFFFFF" d="M214.2,163.1c0,0,0.2-0.1,0.3,0l0.1-0.2c-0.1-0.1-0.1-0.1-0.2-0.1c0,0-0.2,0-0.4,0c0,0-0.1,0.1-0.1,0.2
					C214.1,163,214.2,163.1,214.2,163.1L214.2,163.1z"/>
				<path fill="#FFFFFF" d="M214.2,163.2c0,0-0.1-0.1-0.2-0.2c-0.1,0-0.2,0.1-0.2,0.1c-0.1,0.2-0.1,0.3,0,0.3c0,0,0.1,0.1,0.2,0.1
					c0.1-0.1,0.2-0.1,0.2-0.2C214.2,163.3,214.2,163.2,214.2,163.2L214.2,163.2z"/>
				<path fill="#FFFFFF" d="M214.7,162.9l-0.1,0.2c0.1,0.1,0.1,0.2,0.1,0.2c0.1,0,0.2,0,0.3,0.1c0,0,0.1-0.1,0.1-0.2
					c0,0-0.1-0.2-0.2-0.3C214.9,162.9,214.8,162.9,214.7,162.9L214.7,162.9z"/>
				<path fill="#FFFFFF" d="M214.7,163.4c0,0-0.1,0.1-0.2,0.2c0,0.1,0,0.2,0.1,0.3c0.1,0,0.2,0,0.2,0.1c0.1-0.1,0.2-0.2,0.2-0.2
					c0,0,0-0.1,0-0.3C214.9,163.4,214.8,163.4,214.7,163.4L214.7,163.4z"/>
				<path fill="#FFFFFF" d="M214.2,163.5c0,0-0.2,0.1-0.2,0.2c0,0.1,0,0.2,0,0.3c0,0,0.2,0.1,0.3,0.1c0,0,0.1-0.1,0.2-0.2
					c0,0,0-0.2,0-0.3C214.4,163.6,214.3,163.5,214.2,163.5L214.2,163.5z"/>
			</g>
			<g>
				<g>
					<path fill="#FFFFFF" d="M153.6,151.8c-1.3-1-2.6-2-3.9-3c2.2,7.4-4.1,9.4-10.5,10.9c5.2-0.7,10.3-1,14.4-0.8
						c3.2,0.1,6.6,0.5,9.3,1C160.1,157,156.7,154.2,153.6,151.8z M153.6,157c-1.1,0-2.2,0-3.4,0c0.9-1.2,1.8-2.4,1.8-4
						c0.5,0.4,1,0.8,1.5,1.2c1.1,0.9,2.2,2,3.4,3C155.9,157.1,154.7,157,153.6,157z M142.9,160.4l-3.4,0v3.8h0.8v-1.5h2.6
						c0.4,0,0.7-0.3,0.7-0.7v-0.9C143.6,160.7,143.3,160.4,142.9,160.4z M142.7,161.8c0,0.2-0.1,0.3-0.3,0.3h-2.1v-1h2.1
						c0.2,0,0.3,0.1,0.3,0.3V161.8z M145,164.2h0.9v-3.8H145V164.2z M151.2,162.7c0.4,0,0.7-0.3,0.7-0.7v-0.9c0-0.4-0.3-0.7-0.7-0.7
						l-3.4,0v3.8h0.8v-1.5h0.8l1.6,1.5h1.2l-1.8-1.5H151.2z M148.6,162v-1h2.1c0.2,0,0.3,0.1,0.3,0.3v0.5c0,0.2-0.1,0.3-0.3,0.3
						H148.6z M162.7,160.4h-0.8l-2.2,3.8h0.9l0.4-0.8h2.4l0.4,0.8l1,0L162.7,160.4z M161.4,162.7l0.8-1.5l0,0l0.8,1.5H161.4z
						 M156.1,162.7l-1.8-2.3h-0.7v3.8h0.7v-2.7l1.7,2.2h0.2l1.6-2.2v2.7h0.8v-3.8h-0.7L156.1,162.7z"/>
					<path fill="#FFFFFF" d="M149.7,148.8c2.2,7.4-4.1,9.4-10.5,10.9c4.4-0.6,8.6-0.9,12.3-0.9c0.7,0,1.4,0,2.1,0
						c3.2,0.1,6.6,0.5,9.3,1c-2.8-2.9-6.2-5.6-9.3-8.1C152.3,150.7,151,149.8,149.7,148.8L149.7,148.8z M157,157.2
						c-1.1-0.1-2.2-0.2-3.4-0.2c-1.1,0-2.2,0-3.4,0c0.9-1.2,1.8-2.4,1.8-4c0.5,0.4,1,0.8,1.5,1.2C154.7,155.1,155.8,156.1,157,157.2
						L157,157.2z M162.7,160.4h-0.8l-2.2,3.8h0.9l0.4-0.8h2.4l0.4,0.8l1,0L162.7,160.4L162.7,160.4z M161.4,162.7l0.8-1.5l0,0
						l0.8,1.5H161.4L161.4,162.7z M158.6,160.4h-0.7l-1.8,2.3l-1.8-2.3h-0.7v3.8h0.7v-2.7l1.7,2.2h0.2l1.6-2.2v2.7h0.8V160.4
						L158.6,160.4z M147.8,160.4v3.8h0.8v-1.5h0.8l1.6,1.5h1.2l-1.8-1.5h0.7c0.4,0,0.7-0.3,0.7-0.7v-0.9c0-0.4-0.3-0.7-0.7-0.7
						L147.8,160.4L147.8,160.4z M148.6,162v-1h2.1c0.2,0,0.3,0.1,0.3,0.3v0.5c0,0.2-0.1,0.3-0.3,0.3H148.6L148.6,162z M145.8,160.4
						H145v3.8h0.9V160.4L145.8,160.4z M139.5,160.4v3.8h0.8v-1.5h2.6c0.4,0,0.7-0.3,0.7-0.7v-0.9c0-0.4-0.3-0.7-0.7-0.7L139.5,160.4
						L139.5,160.4z M140.3,162v-1h2.1c0.2,0,0.3,0.1,0.3,0.3v0.5c0,0.2-0.1,0.3-0.3,0.3H140.3L140.3,162z"/>
				</g>
				<g>
					<g>
						<path fill="#FFFFFF" d="M153.6,151.8c-1.3-1-2.6-2-3.9-3c2.2,7.4-4.1,9.4-10.5,10.9c5.2-0.7,10.3-1,14.4-0.8
							c3.2,0.1,6.6,0.5,9.3,1C160.1,157,156.7,154.2,153.6,151.8z M153.6,157c-1.1,0-2.2,0-3.4,0c0.9-1.2,1.8-2.4,1.8-4
							c0.5,0.4,1,0.8,1.5,1.2c1.1,0.9,2.2,2,3.4,3C155.9,157.1,154.7,157,153.6,157z"/>
						<path fill="#FFFFFF" d="M145,164.2h0.9v-3.8H145V164.2z M142.9,160.4l-3.4,0v3.8h0.8v-1.5h2.6c0.4,0,0.7-0.3,0.7-0.7v-0.9
							C143.6,160.7,143.3,160.4,142.9,160.4z M142.7,161.8c0,0.2-0.1,0.3-0.3,0.3h-2.1v-1h2.1c0.2,0,0.3,0.1,0.3,0.3V161.8z
							 M156.1,162.7l-1.8-2.3h-0.7v3.8h0.7v-2.7l1.7,2.2h0.2l1.6-2.2v2.7h0.8v-3.8h-0.7L156.1,162.7z M151.2,162.7
							c0.4,0,0.7-0.3,0.7-0.7v-0.9c0-0.4-0.3-0.7-0.7-0.7l-3.4,0v3.8h0.8v-1.5h0.8l1.6,1.5h1.2l-1.8-1.5H151.2z M148.6,162v-1h2.1
							c0.2,0,0.3,0.1,0.3,0.3v0.5c0,0.2-0.1,0.3-0.3,0.3H148.6z M162.7,160.4h-0.8l-2.2,3.8h0.9l0.4-0.8h2.4l0.4,0.8l1,0
							L162.7,160.4z M161.4,162.7l0.8-1.5l0,0l0.8,1.5H161.4z"/>
					</g>
				</g>
			</g>
			<g>
				<g>
					<g>
						<polygon fill="#FFFFFF" points="157.2,190.2 161.5,178.4 160.6,178.4 156.7,189 						"/>
						<polygon fill="#FFFFFF" points="157.9,191.7 162.7,178.4 161.8,178.4 157.4,190.5 						"/>
						<polygon fill="#FFFFFF" points="158.5,193.2 163.9,178.4 163,178.4 158,192 						"/>
						<polygon fill="#FFFFFF" points="159.1,194.8 165.1,178.4 164.2,178.4 158.6,193.6 						"/>
					</g>
					<g>
						<path fill="#FFFFFF" d="M169.4,178.8c0.1,0.2,0,0.4,0,0.6c-0.1,0.2-0.2,0.4-0.4,0.6c-0.1,0.1-0.2,0.2-0.4,0.2
							c0.2,0.1,0.3,0.2,0.3,0.3c0,0.2,0,0.3-0.1,0.6c-0.1,0.2-0.2,0.4-0.4,0.6c-0.1,0.1-0.2,0.2-0.4,0.3c-0.2,0.1-0.3,0.2-0.5,0.2
							c-0.2,0-0.4,0.1-0.6,0.1h-1.7l1.4-3.8h1.8C169,178.4,169.3,178.5,169.4,178.8z M166.7,180.5l-0.4,1h0.9c0.2,0,0.3,0,0.4-0.1
							c0.2-0.1,0.3-0.2,0.4-0.5c0.1-0.2,0-0.3-0.1-0.4c-0.1,0-0.2-0.1-0.4-0.1H166.7z M167.2,179l-0.3,0.8h0.9c0.2,0,0.3,0,0.4-0.1
							c0.1-0.1,0.2-0.2,0.3-0.3c0.1-0.2,0-0.3-0.1-0.4c-0.1,0-0.2-0.1-0.4-0.1H167.2z"/>
						<path fill="#FFFFFF" d="M171.6,178.4h0.9l0,3.8h-0.9l0-0.8h-1.4l-0.5,0.8h-0.8L171.6,178.4z M170.7,180.7h1l0.1-1.5
							L170.7,180.7z"/>
						<path fill="#FFFFFF" d="M174.3,178.4h0.8l0.6,2.7l1-2.7h0.7l-1.4,3.8h-0.8l-0.6-2.7l-1,2.7h-0.7L174.3,178.4z"/>
						<path fill="#FFFFFF" d="M178.4,178.8c0.4-0.3,0.9-0.5,1.3-0.5c0.6,0,1,0.2,1.2,0.6c0.1,0.2,0.1,0.5,0,0.7h-0.8
							c0-0.2,0-0.3,0-0.4c-0.1-0.2-0.3-0.2-0.5-0.2c-0.3,0-0.6,0.1-0.8,0.4c-0.2,0.2-0.5,0.6-0.6,1c-0.2,0.4-0.2,0.7-0.1,1
							c0.1,0.2,0.3,0.3,0.5,0.3c0.3,0,0.5-0.1,0.7-0.3c0.1-0.1,0.2-0.2,0.4-0.4h0.8c-0.2,0.4-0.5,0.8-0.9,1
							c-0.4,0.3-0.8,0.4-1.2,0.4c-0.5,0-0.9-0.2-1.1-0.5c-0.2-0.4-0.2-0.8,0.1-1.5C177.5,179.6,177.9,179.1,178.4,178.8z"/>
						<path fill="#FFFFFF" d="M183.6,181.8c-0.4,0.3-0.9,0.4-1.4,0.4c-0.5,0-0.9-0.1-1.1-0.4c-0.3-0.4-0.3-0.9,0-1.6
							c0.3-0.7,0.6-1.2,1.2-1.6c0.4-0.3,0.9-0.4,1.4-0.4c0.5,0,0.9,0.1,1.1,0.4c0.3,0.3,0.3,0.9,0,1.6
							C184.5,181,184.2,181.5,183.6,181.8z M183.4,181.3c0.3-0.2,0.5-0.6,0.6-1c0.2-0.4,0.2-0.8,0.1-1c-0.1-0.2-0.3-0.4-0.6-0.4
							c-0.3,0-0.6,0.1-0.9,0.4c-0.3,0.2-0.5,0.6-0.6,1c-0.2,0.4-0.2,0.8-0.1,1c0.1,0.2,0.3,0.3,0.6,0.3
							C182.8,181.6,183.1,181.5,183.4,181.3z"/>
					</g>
					<path fill-rule="evenodd" clip-rule="evenodd" fill="#FFFFFF" d="M204.7,190.5l1-3.2l1,3.2H204.7z M207.1,184.3h-2.7l-3.7,10.5
						h2.6l0.7-2.1h3.4c0.1,0.2,0.7,2.1,0.7,2.1h2.7L207.1,184.3z M154.7,184.3h-2.9v10.5h4.8V189L154.7,184.3z M163.2,184.3
						l-1.7,4.7v5.8h4.8v-10.5H163.2z M173.3,184.3v6.4c0,0.7-0.1,1.1-0.2,1.4c-0.2,0.5-0.7,0.7-1.5,0.7c-0.8,0-1.3-0.2-1.5-0.7
						c-0.2-0.3-0.2-0.8-0.2-1.4v-6.4h-2.5v6.4c0,1.1,0.2,2,0.5,2.6c0.7,1.2,1.9,1.7,3.7,1.7c1.8,0,3.1-0.6,3.7-1.7
						c0.4-0.6,0.5-1.5,0.5-2.6v-6.4H173.3z M176.7,184.3v10.5h7.5v-2.2h-5v-8.3H176.7z M182,184.3v2.2h3v8.3h2.5v-8.3h3v-2.2H182z
						 M191.3,184.3h2.4h0.1h2.6c0,0,1.7,6.1,2.1,7.2l2.1-7.2h2.6l-3.6,10.5h-2.3l-3.4-10.2v10.2h-2.5V184.3z"/>
				</g>
			</g>
		</g>
	</g>
	<linearGradient id="SVGID_2_" gradientUnits="userSpaceOnUse" x1="172.1455" y1="420.5644" x2="172.1455" y2="-1.409717e-09">
		<stop  offset="0" style="stop-color:#2484C6"/>
		<stop  offset="0.7539" style="stop-color:#2484C6;stop-opacity:0"/>
	</linearGradient>
	<path opacity="0.7" fill="url(#SVGID_2_)" d="M136.7,418.2L0,27.4c0,0,201.9-57.3,344.3-6.4L235.1,416.5
		C235.1,416.5,211.7,424.4,136.7,418.2z"/>
</g>
</svg>
