<?xml version="1.0" encoding="utf-8"?>
<!-- Generator: Adobe Illustrator 18.1.0, SVG Export Plug-In . SVG Version: 6.00 Build 0)  -->
<!DOCTYPE svg PUBLIC "-//W3C//DTD SVG 1.1//EN" "http://www.w3.org/Graphics/SVG/1.1/DTD/svg11.dtd">
<svg version="1.1" id="Layer_1" xmlns="http://www.w3.org/2000/svg" xmlns:xlink="http://www.w3.org/1999/xlink" x="0px" y="0px"
	 viewBox="0 0 516 128" enable-background="new 0 0 516 128" xml:space="preserve">
<g>
	
		<rect x="13.8" y="35" transform="matrix(0.9345 0.3559 -0.3559 0.9345 16.3359 -4.865)" fill="#27AAE1" width="15.2" height="13.9"/>
	
		<rect x="21.2" y="41.5" transform="matrix(0.9345 0.3559 -0.3559 0.9345 19.14 -7.0639)" fill="#EC008C" width="15.2" height="13.9"/>
	
		<rect x="25.2" y="30.3" transform="matrix(0.9198 -0.3924 0.3924 0.9198 -11.9972 15.8531)" fill="#2BB673" width="15.2" height="13.9"/>
	
		<rect x="34.3" y="37" transform="matrix(0.9198 -0.3924 0.3924 0.9198 -13.8897 19.9791)" fill="#F15A29" width="15.2" height="13.9"/>
	
		<rect x="32.6" y="24.6" transform="matrix(0.9976 -6.932447e-02 6.932447e-02 0.9976 -2.0547 2.8197)" fill="#FBB040" width="13.9" height="12.8"/>
	
		<rect x="42.4" y="30.2" transform="matrix(0.9976 -6.932447e-02 6.932447e-02 0.9976 -2.4189 3.5079)" fill="#27AAE1" width="13.9" height="12.8"/>
	<path fill="#890606" d="M23.8,53.6l6.3,14.5l9.9,7.6l23.8,1.6c0,0,11.6-10.5,9.7-20S61,35.3,56,35.1C51,35,37.6,54.4,23.8,53.6z"/>
	<path fill="#D9AF38" d="M129.8,125c0,1.1-0.9,2-2,2h-116c-1.1,0-2-0.9-2-2l0,0c0-1.1,0.9-2,2-2h116
		C128.9,123,129.8,123.9,129.8,125L129.8,125z"/>
	<rect x="44" y="111.8" fill="#D9AF38" width="4.3" height="13.2"/>
	<rect x="75.4" y="111.8" fill="#D9AF38" width="4.3" height="13.2"/>
	<rect x="103.1" y="111.8" fill="#D9AF38" width="4.3" height="13.2"/>
	<ellipse fill="#E90200" cx="80.9" cy="69.2" rx="22.1" ry="23.1"/>
	<path fill="#2B300E" d="M75.4,81.8c0,0,15.2,2.9,26.4-20.3c0,0-4.3,26.2-22.8,24.3L75.4,81.8z"/>
	<path fill="#890606" d="M93.7,64.1H71.8L71,73.7l6.6-5.5l17.8-0.7C95.4,67.4,93.7,66.6,93.7,64.1z"/>
	<path fill="#890606" d="M93.7,55.1L83.2,54l-6.4-7.5c0,0,11.5-3.1,20.3,7.3L93.7,55.1z"/>
	<path fill="#3C2415" d="M110.6,60.3c0,2.9-2.6,5.3-5.8,5.3l0,0c-3.2,0-5.8-2.4-5.8-5.3v-0.8c0-2.9,2.6-5.3,5.8-5.3l0,0
		c3.2,0,5.8,2.4,5.8,5.3V60.3z"/>
	<path fill="#D6EDFE" d="M101.8,64.1c0,2.2-1.8,4.1-4.1,4.1l0,0c-2.2,0-4.1-1.8-4.1-4.1v-8.4c0-2.2,1.8-4.1,4.1-4.1l0,0
		c2.2,0,4.1,1.8,4.1,4.1V64.1z"/>
	<path fill="#890606" d="M98.4,89.2h6.8c0,0,10.3-9.2,1.2-16.9C106.4,72.3,104.5,84.1,98.4,89.2z"/>
	<path fill="#E90200" d="M25.4,67.7l12.9,44.1h75.8c0,0,10.6-1.1,8-10.5c-2.6-9.3-4.1-24.3,2.8-24.1c6.9,0.2,1.5,8,4.3,9.2
		c2.8,1.1,11.8-12-5.2-13.1s-14.2,9.9-14,18.3c0.2,8.4-4.1,18.1-14.6,17L67.8,81.3l-27.1-1.5L25.4,67.7z"/>
	<path fill="#D9AF38" d="M25.4,67.7c0,0-1.9-15.9-23.5-12.5c0,0-5.2-3.9,6.4-5.8c0,0,8.6-3.5,16.3,3.4l6.9,14.9l10.3,6.5l28.2,1.5
		l26.3,28.6c0,0,9.5-1.3,9.1-11.6s2.5-22,16.5-22.2c14-0.2,12,11.5,12,11.5s1.5-8.8-11.6-8.7c-13.1,0.1-11.2,9.1-12.2,17.4
		c-1,8.4-0.5,19.2-14.5,17.9L67.8,81.3l-27.1-1.5L25.4,67.7z"/>
	<polygon fill="#890606" points="95.4,108.6 67.8,81.3 40.7,79.8 25.4,67.7 38.2,111.8 51.1,91.7 	"/>
	<path fill="#603913" d="M89.2,93.7l-0.6,2.4l7.5,8.2c0,0,8.3-0.8,8.7-7.6l-4.2-0.4l2.4-1.7l2.1-5.4l-6.8-0.6
		C98.4,88.6,95.4,94.1,89.2,93.7z"/>
	<path fill="#FFFFFF" d="M88.6,38.7c0,0,7.6,8.1,5.1,12.9c0,0-1.2,6.9-18.3-4.8c0,0-4.7,6.4-11.6-0.7c0,0,8,0.9,5.3-5.2
		c0,0,3.8-8.3,14-10.4C83.2,30.6,77.3,40.5,88.6,38.7z"/>
	<path fill="#D6EDFE" d="M83.1,90.2c0,0,19.2,1.8,19.8-23.3c0,0,4.2-0.1,3.3,6.8c-0.8,6.9-8.2,21.9-20.1,19.9L83.1,90.2z"/>
	<path fill="#FFC1AB" d="M86.1,35.1l-2.9-4.6c0,0-6.3,1.5-6.3,6.3s6,4.1,7.9,2C86.7,36.7,86.1,35.1,86.1,35.1z"/>
	<path fill="#F7AD8D" d="M88.8,36.7c0.4,1.2-0.2,2.6-1.4,3l-1,0.4c-1.2,0.4-2.6-0.2-3-1.4l0,0c-0.4-1.2,0.2-2.6,1.4-3l1-0.4
		C87,34.8,88.3,35.5,88.8,36.7L88.8,36.7z"/>
	<path fill="#231F20" d="M85.6,43.4l3.8-2.3C89.4,41.1,90.1,45.5,85.6,43.4z"/>
	<ellipse transform="matrix(0.9941 -0.1082 0.1082 0.9941 -3.9994 8.1948)" fill="#FFC1AB" cx="73.5" cy="40.9" rx="1.9" ry="2.5"/>
	<path fill="#D6EDFE" d="M69.2,40.9c0,0,3.4-7.7,14.2-10.1c0,0,2.4-2.7-0.5-4.1S73.2,28.8,70,33C66.9,37.1,66.7,40.7,69.2,40.9z"/>
	<path fill="#E90200" d="M79.6,26.6c0,0-12.8-4.2-19.4,4.9c0,0,5.4-0.5,7.3,6.1C67.6,37.7,69.7,29.8,79.6,26.6z"/>
	<path fill="#E90200" d="M23,42.1"/>
	<circle fill="#D6EDFE" cx="58.9" cy="33" r="3.6"/>
	<g>
		<polygon fill="#F3B91B" points="227.7,44.2 220.2,34.1 222,25.8 220.9,25.6 218.4,31.6 218.9,23.3 226.6,15.4 226,14.6 217.7,21 
			219.3,7.8 216.9,8.8 215,26.5 211.4,23.4 210.9,25.7 215,29.7 216.4,35.2 225.1,44.3 		"/>
		<path fill="#B36E05" d="M145.1,126.3l-0.5-7.8c0,0,6.9-5.9,5.8-18.7l9.5-7l2.5-14c0,0,2.3-11.9,16.6-13.2l25.1,2.7
			c0,0,9.3-4.4,9.3-12.4s4.6-13,11.7-13.7c0.2,0,0.8,0.4,0.8,0.4l15,10.2l-1.9,5.5L228,57.5l-2.4,31.4l9.5,3.1l-4.4,16.8l-9.4,5.5
			l1.8-7.8c0,0,9.5-3.9,2.8-12.5c0,0-18.1,1.7-45.6-5.1c0,0-32.1,14.5-30.7,37.2C149.6,126.1,149.1,129.1,145.1,126.3z"/>
		<polygon fill="#7D4500" points="190,91 173.3,109.1 179.9,125.5 174.3,125.9 166.9,109.4 173.3,92.6 180.3,88.8 		"/>
		<path fill="#7D4500" d="M218.2,94.4c0,0-9.5,16.8-0.8,33.3l-10-7.1c0,0,5.1-18,0.5-27.1L218.2,94.4z"/>
		<path fill="#FEFF7B" d="M170.9,68c0,0-15.6-2.6-13.8-9.5c0,0-6.7,17.5,8.1,14.5C165.2,73,169.3,68.8,170.9,68z"/>
		<polygon fill="#FEFF7B" points="220.8,54 228,57.5 231.7,66.7 225.6,88.8 216.9,71.8 		"/>
		<path fill="#FEFF7B" d="M180.3,88.8l5.6-3l22.3,2.8l5.4,5.4C213.6,94,195.5,93.5,180.3,88.8z"/>
		<path fill="#E70100" d="M206.5,66.9c0,0,7.7,9.4,22.5,9.3l1.3-0.1l-2,7.1c0,0-13.4,2.6-24.6-14.9L206.5,66.9z"/>
		<polygon fill="#F3B91B" points="221,43.5 211.1,35.7 210.6,27.3 209.5,27.3 208.7,33.7 206.9,25.6 212.2,15.9 211.4,15.4 
			205.2,23.8 203.2,10.6 201.1,12.2 204.1,29.8 199.8,27.8 199.9,30.2 204.9,32.8 207.8,37.8 218.6,44.2 		"/>
		<polygon fill="#B36E05" points="216.2,46.5 213.7,44.5 214.3,34.5 219.9,39.4 221.6,44 		"/>
		<circle fill="#3C2415" cx="227.1" cy="48" r="2.1"/>
		<circle fill="#3C2415" cx="240.5" cy="52" r="1.5"/>
	</g>
	<g>
		<polygon fill="#F3B91B" points="318.6,38.4 311.2,28.3 312.9,20 311.9,19.8 309.4,25.7 309.9,17.4 317.6,9.5 316.9,8.8 
			308.7,15.2 310.3,2 307.9,3 306,20.7 302.4,17.6 301.9,19.9 306,23.9 307.4,29.4 316.1,38.4 		"/>
		<path fill="#B36E05" d="M236.1,120.5l-0.5-7.8c0,0,6.9-5.9,5.8-18.7l9.5-7l2.5-14c0,0,2.3-11.9,16.6-13.2l25.1,2.7
			c0,0,9.3-4.4,9.3-12.4c0.1-8,4.6-13,11.7-13.7c0.2,0,0.8,0.4,0.8,0.4l15,10.2l-1.9,5.5l-11.1-0.9L316.5,83l9.5,3.1l-4.4,16.8
			l-9.4,5.5l1.8-7.8c0,0,9.5-3.9,2.8-12.5c0,0-18.1,1.7-45.6-5.1c0,0-32.1,14.5-30.7,37.2C240.6,120.2,240,123.3,236.1,120.5z"/>
		<polygon fill="#7D4500" points="281,85.1 264.3,103.3 270.9,119.7 265.3,120.1 257.9,103.5 264.3,86.8 271.3,83 		"/>
		<path fill="#7D4500" d="M309.2,88.6c0,0-9.5,16.8-0.8,33.3l-10-7.1c0,0,5.1-18,0.5-27.1L309.2,88.6z"/>
		<path fill="#FEFF7B" d="M261.8,62.2c0,0-15.6-2.6-13.8-9.5c0,0-6.7,17.5,8.1,14.5C256.1,67.2,260.3,62.9,261.8,62.2z"/>
		<polygon fill="#FEFF7B" points="311.8,48.2 318.9,51.6 322.7,60.8 316.5,83 307.8,66 		"/>
		<path fill="#FEFF7B" d="M271.3,83l5.6-3l22.3,2.8l5.4,5.4C304.5,88.2,286.5,87.7,271.3,83z"/>
		<path fill="#E70100" d="M297.5,61.1c0,0,7.7,9.4,22.5,9.3l1.3-0.1l-2,7.1c0,0-13.4,2.6-24.6-14.9L297.5,61.1z"/>
		<polygon fill="#F3B91B" points="312,37.6 302.1,29.9 301.5,21.4 300.5,21.5 299.7,27.9 297.9,19.8 303.2,10.1 302.4,9.6 
			296.2,17.9 294.2,4.8 292.1,6.4 295.1,24 290.7,22 290.9,24.3 295.9,27 298.7,32 309.5,38.4 		"/>
		<polygon fill="#B36E05" points="307.2,40.7 304.7,38.6 305.3,28.7 310.9,33.6 312.6,38.2 		"/>
		<circle fill="#3C2415" cx="318.1" cy="42.2" r="2.1"/>
		<circle fill="#3C2415" cx="331.5" cy="46.2" r="1.5"/>
	</g>
	<g>
		<polygon fill="#F3B91B" points="408.7,36.9 401.3,26.8 403,18.5 402,18.2 399.5,24.2 400,15.9 407.7,8 407.1,7.3 398.8,13.6 
			400.4,0.4 398,1.4 396.1,19.2 392.5,16.1 392,18.4 396.1,22.3 397.5,27.9 406.2,36.9 		"/>
		<path fill="#B36E05" d="M326.2,119l-0.5-7.8c0,0,6.9-5.9,5.8-18.7l9.5-7l2.5-14c0,0,2.3-11.9,16.6-13.2l25.1,2.7
			c0,0,9.3-4.4,9.3-12.4c0.1-8,4.6-13,11.7-13.7c0.2,0,0.8,0.4,0.8,0.4l15,10.2l-1.9,5.5L409,50.1l-2.4,31.4l9.5,3.1l-4.4,16.8
			l-9.4,5.5l1.8-7.8c0,0,9.5-3.9,2.8-12.5c0,0-18.1,1.7-45.6-5.1c0,0-32.1,14.5-30.7,37.2C330.7,118.7,330.1,121.7,326.2,119z"/>
		<polygon fill="#7D4500" points="371.1,83.6 354.4,101.7 361,118.2 355.4,118.5 348,102 354.4,85.3 361.4,81.5 		"/>
		<path fill="#7D4500" d="M399.3,87c0,0-9.5,16.8-0.8,33.3l-10-7.1c0,0,5.1-18,0.5-27.1L399.3,87z"/>
		<path fill="#FEFF7B" d="M351.9,60.7c0,0-15.6-2.6-13.8-9.5c0,0-6.7,17.5,8.1,14.5C346.2,65.7,350.4,61.4,351.9,60.7z"/>
		<polygon fill="#FEFF7B" points="401.9,46.7 409,50.1 412.8,59.3 406.6,81.4 397.9,64.4 		"/>
		<path fill="#FEFF7B" d="M361.4,81.5l5.6-3l22.3,2.8l5.4,5.4C394.7,86.6,376.6,86.2,361.4,81.5z"/>
		<path fill="#E70100" d="M387.6,59.6c0,0,7.7,9.4,22.5,9.3l1.3-0.1l-2,7.1c0,0-13.4,2.6-24.6-14.9L387.6,59.6z"/>
		<polygon fill="#F3B91B" points="402.1,36.1 392.2,28.4 391.7,19.9 390.6,20 389.8,26.4 388,18.2 393.3,8.6 392.5,8.1 386.3,16.4 
			384.3,3.2 382.2,4.8 385.2,22.4 380.8,20.4 381,22.8 386,25.5 388.8,30.5 399.6,36.8 		"/>
		<polygon fill="#B36E05" points="397.3,39.2 394.8,37.1 395.4,27.2 401,32 402.7,36.6 		"/>
		<circle fill="#3C2415" cx="408.2" cy="40.7" r="2.1"/>
		<circle fill="#3C2415" cx="421.6" cy="44.7" r="1.5"/>
	</g>
	<g>
		<polygon fill="#F3B91B" points="501.6,37 494.2,26.9 495.9,18.5 494.9,18.3 492.4,24.3 492.9,16 500.6,8.1 500,7.4 491.7,13.7 
			493.3,0.5 490.9,1.5 489,19.3 485.4,16.1 484.9,18.5 489,22.4 490.4,28 499.1,37 		"/>
		<path fill="#B36E05" d="M419.1,119.1l-0.5-7.8c0,0,6.9-5.9,5.8-18.7l9.5-7l2.5-14c0,0,2.3-11.9,16.6-13.2l25.1,2.7
			c0,0,9.3-4.4,9.3-12.4c0.1-8,4.6-13,11.7-13.7c0.2,0,0.8,0.4,0.8,0.4l15,10.2l-1.9,5.5l-11.1-0.9l-2.4,31.4l9.5,3.1l-4.4,16.8
			l-9.4,5.5l1.8-7.8c0,0,9.5-3.9,2.8-12.5c0,0-18.1,1.7-45.6-5.1c0,0-32.1,14.5-30.7,37.2C423.6,118.8,423,121.8,419.1,119.1z"/>
		<polygon fill="#7D4500" points="464,83.7 447.3,101.8 453.9,118.3 448.3,118.6 440.9,102.1 447.3,85.4 454.3,81.6 		"/>
		<path fill="#7D4500" d="M492.2,87.1c0,0-9.5,16.8-0.8,33.3l-10-7.1c0,0,5.1-18,0.5-27.1L492.2,87.1z"/>
		<path fill="#FEFF7B" d="M444.8,60.7c0,0-15.6-2.6-13.8-9.5c0,0-6.7,17.5,8.1,14.5C439.1,65.8,443.3,61.5,444.8,60.7z"/>
		<polygon fill="#FEFF7B" points="494.8,46.8 501.9,50.2 505.7,59.4 499.5,81.5 490.8,64.5 		"/>
		<path fill="#FEFF7B" d="M454.3,81.6l5.6-3l22.3,2.8l5.4,5.4C487.5,86.7,469.5,86.3,454.3,81.6z"/>
		<path fill="#E70100" d="M480.5,59.6c0,0,7.7,9.4,22.5,9.3l1.3-0.1l-2,7.1c0,0-13.4,2.6-24.6-14.9L480.5,59.6z"/>
		<polygon fill="#F3B91B" points="495,36.2 485.1,28.5 484.5,20 483.5,20.1 482.7,26.5 480.9,18.3 486.2,8.7 485.4,8.1 479.2,16.5 
			477.2,3.3 475.1,4.9 478.1,22.5 473.7,20.5 473.9,22.9 478.9,25.6 481.7,30.5 492.5,36.9 		"/>
		<polygon fill="#B36E05" points="490.2,39.3 487.7,37.2 488.3,27.2 493.9,32.1 495.6,36.7 		"/>
		<circle fill="#3C2415" cx="501.1" cy="40.8" r="2.1"/>
		<circle fill="#3C2415" cx="514.5" cy="44.8" r="1.5"/>
	</g>
	<path fill="none" stroke="#231F20" stroke-width="0.6388" stroke-miterlimit="10" d="M110.6,60.3c0,0,248.4,39.9,403.3-11.8"/>
</g>
</svg>
