<?xml version="1.0" encoding="utf-8"?>
<!-- Generator: Adobe Illustrator 18.1.0, SVG Export Plug-In . SVG Version: 6.00 Build 0)  -->
<!DOCTYPE svg PUBLIC "-//W3C//DTD SVG 1.1//EN" "http://www.w3.org/Graphics/SVG/1.1/DTD/svg11.dtd">
<svg version="1.1" id="Layer_1" xmlns="http://www.w3.org/2000/svg" xmlns:xlink="http://www.w3.org/1999/xlink" x="0px" y="0px"
	 viewBox="0 0 49 13" enable-background="new 0 0 49 13" xml:space="preserve">
<g>
	<path fill-rule="evenodd" clip-rule="evenodd" fill="#002A5E" d="M47.9,0H6.5C4.9,0,3.9,0.5,3.5,1.6l0,0l0,0L0.1,12.4L0,12.8h0.4
		h41.4c1.6,0,2.6-0.5,3.1-1.6l0,0l0,0l3.3-10.8L48.3,0H47.9L47.9,0z M44.3,11c-0.4,0.8-1.2,1.2-2.6,1.2h-41L4,1.8
		C4.3,1,5.2,0.6,6.5,0.6h41L44.3,11L44.3,11z"/>
	<polygon fill-rule="evenodd" clip-rule="evenodd" fill="#002A5E" points="7.8,11.3 10.9,1.4 13.4,1.4 13,6.5 14.6,1.4 16.1,1.4 
		13,11.3 10.5,11.3 10.9,6.1 9.3,11.3 7.8,11.3 	"/>
	<path fill-rule="evenodd" clip-rule="evenodd" fill="#002A5E" d="M5.5,7.4H3.4l-1.2,3.7c1.3,0.4,3.7,0.6,4.9-0.2
		c0.5-0.4,0.8-1.4,1-2c0.2-0.6,0.5-1.9,0-2.4L7,5.3c-0.5-0.5-0.5-1-0.3-1.7C6.9,2.8,7,2.9,7.4,2.9c0.3,0,0.2,0.4,0.2,0.6L7,5.1h2.1
		l1.1-3.5c-1-0.2-3.2-0.5-4.4,0C5.1,1.9,5.1,2.2,4.9,2.7L4.4,4.4C4.2,4.9,4.2,5.8,4.7,6.2L6,7.4c0.2,0.2,0.2,0.8,0,1.6
		c-0.3,0.8-0.4,1-0.8,1c-0.3,0-0.4-0.3-0.3-0.7L5.5,7.4L5.5,7.4z"/>
	<path fill-rule="evenodd" clip-rule="evenodd" fill="#002A5E" d="M41.1,7.4H39l-1.2,3.7c1.3,0.4,3.7,0.6,4.9-0.2
		c0.5-0.4,0.8-1.4,1-2c0.2-0.6,0.5-1.9,0-2.4l-1.2-1.1c-0.5-0.5-0.5-1-0.3-1.7c0.2-0.7,0.4-0.7,0.7-0.7c0.3,0,0.2,0.4,0.2,0.6
		l-0.5,1.6h2.1l1.1-3.5c-1-0.2-3.2-0.5-4.4,0c-0.7,0.4-0.7,0.6-0.9,1.1L40,4.4c-0.2,0.5-0.2,1.4,0.3,1.8l1.3,1.2
		c0.2,0.2,0.2,0.8,0,1.6c-0.3,0.8-0.4,1-0.8,1c-0.3,0-0.4-0.3-0.3-0.7L41.1,7.4L41.1,7.4z"/>
	<polygon fill-rule="evenodd" clip-rule="evenodd" fill="#002A5E" points="16.7,1.4 19.1,1.4 16,11.3 13.6,11.3 16.7,1.4 	"/>
	<path fill-rule="evenodd" clip-rule="evenodd" fill="#002A5E" d="M20.9,6.8h2.3l-1,3.2c-0.3,1-1.4,1.5-3.1,1.4
		c-1.6,0-2.4-0.3-2-1.6l2.2-7.2c0.3-1,1.9-1.4,2.9-1.4c1.1,0,2,0.1,2.5,0.4l-1.2,3.8h-2.2L22,3.3c0.1-0.5-0.5-0.7-0.6-0.2l-2,6.3
		C19.3,9.8,19.8,10,20,9.6L20.9,6.8L20.9,6.8z"/>
	<path fill-rule="evenodd" clip-rule="evenodd" fill="#002A5E" d="M25.9,7c0.3,0,0.5,0.1,0.4,0.5l-0.9,2.9c-0.1,0.4-0.1,0.8,0,0.9
		c0.1,0,2.2,0,2.2,0c-0.1-0.3-0.1-0.5,0.1-0.9c0,0,0.7-2.3,0.8-2.8c0.1-0.5,0.4-1.9-1.2-1.7l3.7-4.4l-3.1,9.8h4.1l0.5-1.6h-1.8
		L31.4,7h1.4l0.5-1.6h-1.4l0.8-2.5h1.8L35,1.4h-5.7l-2.7,3.4l1.1-3.4h-2.3l-3.1,9.9h2.3L25.9,7L25.9,7z"/>
	<path fill-rule="evenodd" clip-rule="evenodd" fill="#002A5E" d="M39,1.4h-3.6l-3.1,9.9h2.2L35.8,7c0.3,0,0.6,0.1,0.5,0.5l-0.9,2.9
		c-0.1,0.4-0.1,0.8,0,0.9c0.1,0,2.3,0,2.3,0c-0.1-0.3-0.1-0.5,0.1-0.9c0,0,0.7-2.3,0.8-2.8c0.1-0.4,0.1-1.1-0.4-1.4
		c0.7,0,1.1-0.8,1.3-1.5c0,0,0.5-1.5,0.5-1.7C40,2,39.8,1.4,39,1.4L39,1.4z M37.6,3.3l-0.5,1.5c-0.1,0.3-0.3,0.6-0.8,0.6l0.8-2.7
		C37.5,2.7,37.7,2.9,37.6,3.3L37.6,3.3z"/>
</g>
</svg>
