<?xml version="1.0" encoding="utf-8"?>
<!-- Generator: Adobe Illustrator 16.0.0, SVG Export Plug-In . SVG Version: 6.00 Build 0)  -->
<!DOCTYPE svg PUBLIC "-//W3C//DTD SVG 1.1//EN" "http://www.w3.org/Graphics/SVG/1.1/DTD/svg11.dtd">
<svg version="1.1" id="Layer_1" xmlns="http://www.w3.org/2000/svg" xmlns:xlink="http://www.w3.org/1999/xlink" x="0px" y="0px"
	 width="1202.05px" height="252px" viewBox="0 0 1202.05 252" enable-background="new 0 0 1202.05 252" xml:space="preserve">
<rect x="111.927" width="409.165" height="67.399"/>
<rect x="131.678" y="67.275" fill="#8D8F93" width="931.298" height="138.666"/>
<rect x="151.392" y="92.349" fill="#B0B8EA" width="97.796" height="113.591"/>
<rect x="266.42" y="92.349" fill="#B0B8EA" width="97.796" height="113.591"/>
<rect x="380.653" y="92.349" fill="#B0B8EA" width="97.796" height="113.591"/>
<polygon fill="#C8D1FC" points="271.526,205.94 340.6,92.35 356.088,92.35 289.108,205.94 "/>
<polygon fill="#C8D1FC" points="387.27,205.94 456.343,92.35 471.832,92.35 404.852,205.94 "/>
<polygon fill="#C8D1FC" points="155.787,205.94 224.86,92.35 240.349,92.35 173.369,205.94 "/>
<rect x="1051.458" y="92.608" fill="#ACADAF" width="4.589" height="113.075"/>
<rect x="495.722" y="92.349" fill="#B0B8EA" width="97.797" height="113.591"/>
<polygon fill="#C8D1FC" points="502.34,205.94 571.413,92.35 586.902,92.35 519.922,205.94 "/>
<rect x="609.844" y="92.349" fill="#B0B8EA" width="97.796" height="113.591"/>
<polygon fill="#C8D1FC" points="616.461,205.94 685.534,92.35 701.023,92.35 634.043,205.94 "/>
<path fill="#808285" d="M53.801,205.54v-61.935c0-6.541,5.992-11.843,13.383-11.843h1.609c7.392,0,13.384,5.302,13.384,11.843
	v61.935H53.801z"/>
<path fill="#A7A9AC" d="M80.23,145.823c0,6.57-5.326,11.896-11.896,11.896c-6.57,0-11.896-5.326-11.896-11.896
	s5.326-11.896,11.896-11.896C74.905,133.928,80.23,139.253,80.23,145.823"/>
<path fill="#BCBEC0" d="M71.874,145.823c0,1.955-1.585,3.54-3.54,3.54c-1.954,0-3.539-1.585-3.539-3.54s1.585-3.54,3.539-3.54
	C70.289,142.283,71.874,143.868,71.874,145.823"/>
<g opacity="0.35">
	<g>
		<defs>
			<rect id="SVGID_1_" x="53.813" y="170.561" width="28.352" height="34.979"/>
		</defs>
		<clipPath id="SVGID_2_">
			<use xlink:href="#SVGID_1_"  overflow="visible"/>
		</clipPath>
		<polygon clip-path="url(#SVGID_2_)" fill="#231F20" points="53.813,205.54 53.813,170.56 82.164,205.54 		"/>
	</g>
</g>
<g opacity="0.35">
	<g>
		<defs>
			<rect id="SVGID_3_" x="59.546" y="152.635" width="11.823" height="15.836"/>
		</defs>
		<clipPath id="SVGID_4_">
			<use xlink:href="#SVGID_3_"  overflow="visible"/>
		</clipPath>
		<path clip-path="url(#SVGID_4_)" fill="#231F20" d="M65.332,152.635l-5.786,13.884c0,0,1.566,3.334,5.594,1.288l6.229-13.64
			L65.332,152.635z"/>
	</g>
</g>
<g opacity="0.35">
	<g>
		<defs>
			<rect id="SVGID_5_" x="53.739" y="145.315" width="9.283" height="15.835"/>
		</defs>
		<clipPath id="SVGID_6_">
			<use xlink:href="#SVGID_5_"  overflow="visible"/>
		</clipPath>
		<path clip-path="url(#SVGID_6_)" fill="#231F20" d="M53.801,161.109c0.791,0.121,1.78-0.007,2.992-0.623l6.229-13.639
			l-6.037-1.533l-3.246,7.788"/>
	</g>
</g>
<g opacity="0.35">
	<g>
		<defs>
			<rect id="SVGID_7_" x="67.22" y="144.11" width="11.823" height="15.836"/>
		</defs>
		<clipPath id="SVGID_8_">
			<use xlink:href="#SVGID_7_"  overflow="visible"/>
		</clipPath>
		<path clip-path="url(#SVGID_8_)" fill="#231F20" d="M73.005,144.11l-5.786,13.884c0,0,1.566,3.334,5.594,1.288l6.229-13.639
			L73.005,144.11z"/>
	</g>
</g>
<g opacity="0.35">
	<g>
		<defs>
			<rect id="SVGID_9_" x="59.546" y="136.798" width="11.823" height="15.837"/>
		</defs>
		<clipPath id="SVGID_10_">
			<use xlink:href="#SVGID_9_"  overflow="visible"/>
		</clipPath>
		<path clip-path="url(#SVGID_10_)" fill="#231F20" d="M65.332,136.798l-5.786,13.885c0,0,1.566,3.334,5.594,1.288l6.229-13.64
			L65.332,136.798z"/>
	</g>
</g>
<path fill="#D1D3D4" d="M71.37,138.088c0,1.72-1.394,3.114-3.115,3.114c-1.72,0-3.114-1.395-3.114-3.114
	c0-1.721,1.394-3.115,3.114-3.115C69.976,134.973,71.37,136.367,71.37,138.088"/>
<path fill="#D1D3D4" d="M71.37,153.701c0,1.721-1.394,3.115-3.115,3.115c-1.72,0-3.114-1.395-3.114-3.115
	c0-1.72,1.394-3.114,3.114-3.114C69.976,150.587,71.37,151.981,71.37,153.701"/>
<path fill="#D1D3D4" d="M79.042,145.314c0,1.72-1.394,3.115-3.115,3.115c-1.72,0-3.114-1.396-3.114-3.115s1.394-3.115,3.114-3.115
	C77.649,142.199,79.042,143.595,79.042,145.314"/>
<path fill="#D1D3D4" d="M63.34,145.314c0,1.72-1.394,3.115-3.115,3.115c-1.72,0-3.114-1.396-3.114-3.115s1.394-3.115,3.114-3.115
	C61.946,142.199,63.34,143.595,63.34,145.314"/>
<rect x="164.223" y="177.627" fill="#ACAEB5" width="106.741" height="10.423"/>
<path fill="#97989E" d="M201.502,177.978c0,1.418-0.898,2.568-2.005,2.568h-26.37c-1.108,0-2.006-1.15-2.006-2.568
	s0.898-2.567,2.006-2.567h26.37C200.604,175.41,201.502,176.56,201.502,177.978"/>
<path fill="#97989E" d="M234.519,177.627c0,1.418-0.898,2.568-2.005,2.568h-26.37c-1.108,0-2.006-1.15-2.006-2.568
	s0.898-2.567,2.006-2.567h26.37C233.621,175.06,234.519,176.209,234.519,177.627"/>
<path fill="#97989E" d="M267.536,177.627c0,1.418-0.898,2.568-2.005,2.568h-26.37c-1.108,0-2.006-1.15-2.006-2.568
	s0.898-2.567,2.006-2.567h26.37C266.638,175.06,267.536,176.209,267.536,177.627"/>
<rect x="164.223" y="177.627" fill="#97989E" width="6.672" height="27.913"/>
<rect x="268.748" y="177.627" fill="#97989E" width="6.672" height="27.913"/>
<g opacity="0.35">
	<g>
		<defs>
			<rect id="SVGID_11_" x="170.895" y="188.144" width="98.087" height="17.333"/>
		</defs>
		<clipPath id="SVGID_12_">
			<use xlink:href="#SVGID_11_"  overflow="visible"/>
		</clipPath>
		<polygon clip-path="url(#SVGID_12_)" fill="#231F20" points="170.895,188.144 268.982,188.144 170.895,205.478 		"/>
	</g>
</g>
<rect x="376.18" y="177.627" fill="#ACAEB5" width="106.741" height="10.423"/>
<path fill="#97989E" d="M413.459,177.978c0,1.418-0.898,2.568-2.005,2.568h-26.37c-1.108,0-2.006-1.15-2.006-2.568
	s0.898-2.567,2.006-2.567h26.37C412.562,175.41,413.459,176.56,413.459,177.978"/>
<path fill="#97989E" d="M446.477,177.627c0,1.418-0.898,2.568-2.005,2.568h-26.37c-1.108,0-2.006-1.15-2.006-2.568
	s0.898-2.567,2.006-2.567h26.37C445.579,175.06,446.477,176.209,446.477,177.627"/>
<path fill="#97989E" d="M479.494,177.627c0,1.418-0.898,2.568-2.005,2.568h-26.37c-1.108,0-2.006-1.15-2.006-2.568
	s0.898-2.567,2.006-2.567h26.37C478.596,175.06,479.494,176.209,479.494,177.627"/>
<rect x="376.18" y="177.627" fill="#97989E" width="6.672" height="27.913"/>
<rect x="480.706" y="177.627" fill="#97989E" width="6.672" height="27.913"/>
<g opacity="0.35">
	<g>
		<defs>
			<rect id="SVGID_13_" x="382.852" y="188.144" width="98.087" height="17.333"/>
		</defs>
		<clipPath id="SVGID_14_">
			<use xlink:href="#SVGID_13_"  overflow="visible"/>
		</clipPath>
		<polygon clip-path="url(#SVGID_14_)" fill="#231F20" points="382.853,188.144 480.939,188.144 382.853,205.478 		"/>
	</g>
</g>
<rect x="578.308" y="178.028" fill="#ACAEB5" width="106.741" height="10.423"/>
<path fill="#97989E" d="M615.587,178.378c0,1.419-0.897,2.568-2.005,2.568h-26.37c-1.108,0-2.006-1.149-2.006-2.568
	c0-1.418,0.898-2.567,2.006-2.567h26.37C614.689,175.811,615.587,176.96,615.587,178.378"/>
<path fill="#97989E" d="M648.604,178.027c0,1.419-0.898,2.568-2.005,2.568h-26.37c-1.108,0-2.007-1.149-2.007-2.568
	c0-1.418,0.898-2.567,2.007-2.567h26.37C647.706,175.46,648.604,176.609,648.604,178.027"/>
<path fill="#97989E" d="M681.621,178.027c0,1.419-0.897,2.568-2.005,2.568h-26.37c-1.107,0-2.006-1.149-2.006-2.568
	c0-1.418,0.898-2.567,2.006-2.567h26.37C680.724,175.46,681.621,176.609,681.621,178.027"/>
<rect x="578.308" y="178.027" fill="#97989E" width="6.672" height="27.913"/>
<rect x="682.834" y="178.027" fill="#97989E" width="6.672" height="27.913"/>
<g opacity="0.35">
	<g>
		<defs>
			<rect id="SVGID_15_" x="584.98" y="188.544" width="98.087" height="17.334"/>
		</defs>
		<clipPath id="SVGID_16_">
			<use xlink:href="#SVGID_15_"  overflow="visible"/>
		</clipPath>
		<polygon clip-path="url(#SVGID_16_)" fill="#231F20" points="584.98,188.544 683.067,188.544 584.98,205.878 		"/>
	</g>
</g>
<rect y="205.54" fill="#808285" width="1201.066" height="47.052"/>
<polyline fill="#6D6E71" points="193.929,205.94 185.241,213.582 178.978,236.818 186.454,214.996 203.022,205.478 193.728,205.478 
	"/>
<polygon fill="#6D6E71" points="731.805,205.54 749.687,214.34 745.746,226.767 730.896,237.678 746.959,227.827 750.596,214.643 
	769.993,221.608 784.238,249.801 771.205,221.008 751.506,213.733 739.685,205.54 "/>
<rect x="723.532" y="91.743" fill="#B0B8EA" width="97.797" height="113.591"/>
<polygon fill="#C8D1FC" points="730.149,205.334 799.223,91.743 814.711,91.743 747.731,205.334 "/>
<rect x="835.858" y="91.743" fill="#B0B8EA" width="97.797" height="113.591"/>
<polygon fill="#C8D1FC" points="842.476,205.334 911.549,91.743 927.037,91.743 860.058,205.334 "/>
<rect x="946.994" y="92.349" fill="#B0B8EA" width="97.796" height="113.591"/>
<polygon fill="#C8D1FC" points="953.611,205.94 1022.685,92.35 1038.173,92.35 971.193,205.94 "/>
<rect x="757.919" y="176.658" fill="#ACAEB5" width="106.741" height="10.423"/>
<path fill="#97989E" d="M795.198,177.009c0,1.418-0.897,2.568-2.005,2.568h-26.37c-1.108,0-2.006-1.15-2.006-2.568
	s0.897-2.568,2.006-2.568h26.37C794.301,174.44,795.198,175.591,795.198,177.009"/>
<path fill="#97989E" d="M828.216,176.658c0,1.418-0.898,2.568-2.005,2.568h-26.37c-1.108,0-2.007-1.15-2.007-2.568
	s0.898-2.567,2.007-2.567h26.37C827.317,174.091,828.216,175.24,828.216,176.658"/>
<path fill="#97989E" d="M861.232,176.658c0,1.418-0.897,2.568-2.005,2.568h-26.37c-1.107,0-2.006-1.15-2.006-2.568
	s0.898-2.567,2.006-2.567h26.37C860.335,174.091,861.232,175.24,861.232,176.658"/>
<rect x="757.919" y="176.658" fill="#97989E" width="6.672" height="27.913"/>
<rect x="862.445" y="176.658" fill="#97989E" width="6.672" height="27.913"/>
<g opacity="0.35">
	<g>
		<defs>
			<rect id="SVGID_17_" x="764.591" y="187.175" width="98.087" height="17.333"/>
		</defs>
		<clipPath id="SVGID_18_">
			<use xlink:href="#SVGID_17_"  overflow="visible"/>
		</clipPath>
		<polygon clip-path="url(#SVGID_18_)" fill="#231F20" points="764.592,187.175 862.679,187.175 764.592,204.509 		"/>
	</g>
</g>
<rect x="930.954" y="177.447" fill="#ACAEB5" width="106.741" height="10.423"/>
<path fill="#97989E" d="M968.233,177.798c0,1.418-0.897,2.567-2.005,2.567h-26.37c-1.108,0-2.006-1.149-2.006-2.567
	s0.897-2.568,2.006-2.568h26.37C967.336,175.229,968.233,176.38,968.233,177.798"/>
<path fill="#97989E" d="M1001.251,177.447c0,1.418-0.898,2.568-2.005,2.568h-26.37c-1.108,0-2.007-1.15-2.007-2.568
	s0.898-2.568,2.007-2.568h26.37C1000.353,174.879,1001.251,176.029,1001.251,177.447"/>
<path fill="#97989E" d="M1034.268,177.447c0,1.418-0.898,2.568-2.005,2.568h-26.37c-1.107,0-2.005-1.15-2.005-2.568
	s0.897-2.568,2.005-2.568h26.37C1033.369,174.879,1034.268,176.029,1034.268,177.447"/>
<rect x="930.955" y="177.447" fill="#97989E" width="6.672" height="27.913"/>
<rect x="1035.48" y="177.447" fill="#97989E" width="6.672" height="27.913"/>
<g opacity="0.35">
	<g>
		<defs>
			<rect id="SVGID_19_" x="937.627" y="187.963" width="98.083" height="17.334"/>
		</defs>
		<clipPath id="SVGID_20_">
			<use xlink:href="#SVGID_19_"  overflow="visible"/>
		</clipPath>
		<polygon clip-path="url(#SVGID_20_)" fill="#231F20" points="937.627,187.963 1035.714,187.963 937.627,205.297 		"/>
	</g>
</g>
<rect x="181.182" y="-2.311" fill="#9E9E9E" width="0.152" height="69.587"/>
<path fill="#0072BC" d="M169.242,32.544c0,12.547-10.172,22.719-22.719,22.719s-22.719-10.172-22.719-22.719
	s10.172-22.719,22.719-22.719S169.242,19.997,169.242,32.544"/>
<path fill="#FFFFFF" d="M145.556,29.766c0.074,0.023,0.316,0.034,0.316,0.034c0.372,0,0.701-0.271,0.701-0.682
	c0-0.147-0.064-0.284-0.137-0.4c-0.59-1.363,0.575-3.053,1.437-4.292c0.191-0.274,0.359-0.524,0.496-0.743
	c0.987-1.578,1.262-3.141,0.824-4.645c-0.832-2.858-3.982-4.389-4.115-4.453c-0.259-0.123-0.567-0.088-0.79,0.093
	c-0.223,0.18-0.323,0.471-0.255,0.75c0.569,2.367-0.851,3.862-1.992,5.066c-0.21,0.222-0.407,0.422-0.577,0.618
	c-1.263,1.461-1.702,2.892-1.307,4.282C140.993,28.335,145.37,29.708,145.556,29.766 M142.59,22.101
	c0.157-0.181,0.338-0.372,0.531-0.576c1.014-1.07,2.452-2.587,2.53-4.826c0.799,0.604,1.761,1.546,2.113,2.763
	c0.311,1.076,0.088,2.231-0.663,3.432c-0.126,0.202-0.285,0.431-0.46,0.682c-0.784,1.127-1.874,2.693-1.88,4.332
	c-1.246-0.593-2.808-1.604-3.173-2.892C141.339,24.139,141.677,23.158,142.59,22.101"/>
<path fill="#FFFFFF" d="M149.07,25.106c-0.106,0.112-0.205,0.221-0.291,0.32c-0.668,0.773-0.899,1.555-0.685,2.307
	c0.434,1.525,2.553,2.245,2.794,2.32c0.055,0.018,0.111,0.057,0.167,0.057h0.007c0.308,0,0.558-0.281,0.558-0.589
	c0-0.111-0.032-0.246-0.089-0.333c-0.219-0.574,0.316-1.342,0.71-1.907c0.096-0.138,0.183-0.264,0.252-0.375
	c0.517-0.827,0.662-1.651,0.43-2.448c-0.435-1.493-2.064-2.285-2.134-2.318c-0.193-0.092-0.424-0.065-0.591,0.071
	c-0.167,0.135-0.242,0.356-0.191,0.565C150.264,23.845,149.629,24.517,149.07,25.106 M151.143,23.729
	c0.296,0.268,0.585,0.621,0.708,1.042c0.142,0.485,0.042,0.99-0.304,1.544c-0.061,0.097-0.138,0.208-0.223,0.329
	c-0.337,0.484-0.826,1.187-0.938,1.952c-0.52-0.28-1.078-0.692-1.218-1.182c-0.106-0.374,0.043-0.787,0.456-1.265
	c0.075-0.087,0.163-0.179,0.256-0.278C150.32,25.407,150.976,24.713,151.143,23.729"/>
<path fill="#FFFFFF" d="M151.826,30.855h-3.349c-0.411,0-0.744,0.333-0.744,0.744s0.333,0.744,0.744,0.744h2.606v1.116h-8.93v-1.116
	h3.72c0.411,0,0.744-0.333,0.744-0.744s-0.333-0.744-0.744-0.744h-4.465c-0.411,0-0.743,0.333-0.743,0.744v2.604
	c0,0.411,0.332,0.745,0.743,0.745h0.31c0.052,1.365,0.96,2.557,2.306,3.238c-0.005,0.037-0.011,0.073-0.011,0.11v10.381
	c0,0.204-0.004,0.675,0.373,1.119c0.438,0.517,1.189,0.779,2.232,0.779c2.06,0,2.605-1.217,2.605-1.86V38.296
	c0-0.037-0.007-0.073-0.012-0.11c1.346-0.681,2.253-1.873,2.305-3.238h0.31c0.411,0,0.745-0.334,0.745-0.745v-2.604
	C152.571,31.188,152.237,30.855,151.826,30.855 M147.734,48.684c0,0.145-0.296,0.403-1.117,0.403c-0.824,0-1.104-0.212-1.119-0.297
	c0.002-0.025,0.004-0.05,0.004-0.075v-9.674h2.232V48.684z M146.617,37.304c-1.828,0-3.32-1.046-3.41-2.356h6.82
	C149.937,36.258,148.444,37.304,146.617,37.304"/>
<rect fill="none" width="1202.05" height="252"/>
<text transform="matrix(1 0 0 1 193.2739 44.0576)" fill="#FFFFFF" font-family="'Roboto-Medium'" font-size="39.4011">Sochi</text>
<g>
	
		<rect x="690.809" y="98.062" transform="matrix(0.9891 -0.1474 0.1474 0.9891 -7.0911 108.4738)" fill="#EA0100" width="74.679" height="8.014"/>
	
		<rect x="692.019" y="105.655" transform="matrix(0.9891 -0.1474 0.1474 0.9891 -8.2754 108.7335)" fill="#EE7F00" width="74.681" height="9.071"/>
	
		<rect x="693.31" y="114.737" transform="matrix(0.9891 -0.1474 0.1474 0.9891 -9.5364 109.0053)" fill="#FEFF00" width="74.68" height="8.209"/>
	
		<rect x="694.516" y="122.829" transform="matrix(0.9891 -0.1475 0.1475 0.9891 -10.717 109.3017)" fill="#67EB00" width="74.68" height="8.21"/>
	
		<rect x="695.714" y="130.866" transform="matrix(0.9891 -0.1474 0.1474 0.9891 -11.8884 109.5538)" fill="#2653B5" width="74.681" height="8.209"/>
	
		<rect x="696.886" y="138.735" transform="matrix(0.9891 -0.1474 0.1474 0.9891 -13.0363 109.8223)" fill="#4A00D5" width="74.682" height="8.21"/>
	
		<rect x="692.525" y="95.23" transform="matrix(-0.8176 -0.5758 0.5758 -0.8176 1201.0681 594.6619)" fill="#F9E8A2" width="4.411" height="23.693"/>
	
		<rect x="764.853" y="124.782" transform="matrix(-0.8176 -0.5758 0.5758 -0.8176 1315.5547 689.9837)" fill="#F9E8A2" width="4.413" height="23.695"/>
</g>
<circle fill="none" stroke="#326EBE" stroke-width="4" stroke-miterlimit="10" cx="218.615" cy="233.341" r="10.341"/>
<circle fill="none" stroke="#BE1E2D" stroke-width="4" stroke-miterlimit="10" cx="262.489" cy="220.792" r="10.341"/>
<circle fill="none" stroke="#231F20" stroke-width="4" stroke-miterlimit="10" cx="240.614" cy="227.049" r="10.341"/>
<circle fill="none" stroke="#006838" stroke-width="4" stroke-miterlimit="10" cx="254.35" cy="233.31" r="10.341"/>
<circle fill="none" stroke="#FBB040" stroke-width="4" stroke-miterlimit="10" cx="232.021" cy="240.263" r="10.341"/>
<g>
	<path fill="#1C75BC" d="M998.225,133.295l2.013,0.19l0.792-8.355l4.746,0.45l-1.604,16.938l-4.704-0.445
		c0.091-0.952,0.128-1.916,0.287-2.858c0.144-0.86-0.057-1.26-1.001-1.246c-0.73,0.009-1.468-0.104-2.194-0.216
		c-2.038-0.312-3.323-1.739-3.188-3.785c0.209-3.141,0.572-6.274,0.876-9.48l4.77,0.452L998.225,133.295z M997.225,134.064
		l0.799-8.432c-0.833-0.079-1.539-0.112-2.232-0.221c-0.617-0.097-0.831,0.117-0.882,0.731c-0.193,2.35-0.442,4.694-0.651,7.044
		c-0.216,2.444,0.735,3.583,3.16,3.816c1.104,0.108,2.206,0.209,3.401,0.322l-0.376,3.967l2.97,0.281l1.449-15.293
		c-0.741-0.07-1.443-0.098-2.131-0.211c-0.672-0.112-0.939,0.069-0.985,0.794c-0.114,1.765-0.315,3.521-0.481,5.282
		c-0.071,0.752-0.143,1.503-0.216,2.281L997.225,134.064z"/>
	<g>
		<path fill="#FFFFFF" d="M1027.024,113.237l2.939,0.278l-0.793,8.374l3.8,0.36l0.795-8.381l2.995,0.284
			c0.004,0.249,0.028,0.476,0.009,0.698c-0.224,2.408-0.44,4.817-0.686,7.224c-0.236,2.319-1.341,3.213-3.664,2.997
			c-1.234-0.114-2.471-0.208-3.699-0.368c-1.617-0.21-2.581-1.159-2.488-2.772C1026.395,119.053,1026.744,116.189,1027.024,113.237"
			/>
		<path fill="#FFFFFF" d="M1022.935,115.631c-0.897-0.085-1.635-0.113-2.355-0.234c-0.656-0.112-0.888,0.101-0.939,0.758
			c-0.178,2.2-0.402,4.397-0.615,6.594c-0.031,0.318-0.096,0.632-0.15,0.992l-2.833-0.269c-0.043-0.08-0.101-0.131-0.096-0.178
			c0.28-2.897,0.503-5.803,0.876-8.689c0.164-1.271,1.24-2.072,2.504-2.069c1.087,0.003,2.175,0.104,3.257,0.23
			c0.209,0.025,0.542,0.369,0.543,0.566C1023.128,114.059,1023.015,114.784,1022.935,115.631"/>
		
			<rect x="1009.224" y="120.279" transform="matrix(-0.9955 -0.0943 0.0943 -0.9955 2005.4545 337.946)" fill="#FFFFFF" width="2.968" height="2.661"/>
		<g>
			<path fill="#FFFFFF" d="M973.797,129.007c0.086-0.91,0.144-1.822,0.265-2.727c0.219-1.646,1.17-2.603,2.815-2.58
				c1.616,0.022,3.242,0.173,4.834,0.443c1.703,0.288,2.488,1.292,2.414,3.056c-0.078,1.88-0.25,3.766-0.528,5.627
				c-0.279,1.845-1.458,2.687-3.311,2.548c-1.322-0.1-2.641-0.226-3.959-0.376c-1.979-0.229-2.919-1.367-2.786-3.354
				c0.06-0.882,0.163-1.761,0.246-2.639C973.79,129.007,973.793,129.007,973.797,129.007 M976.631,132.062l3.881,0.367l0.516-5.441
				l-3.881-0.367L976.631,132.062z"/>
			
				<rect x="977.756" y="127.635" transform="matrix(0.9955 0.0947 -0.0947 0.9955 16.6622 -92.0938)" fill="#FFFFFF" width="2.145" height="3.816"/>
		</g>
		<g>
			<g>
				<path fill="#FFFFFF" d="M974.8,114.029c-0.083,0.879-0.141,1.761-0.255,2.638c-0.24,1.809-1.321,2.722-3.129,2.608
					c-1.38-0.087-2.759-0.228-4.133-0.383c-1.889-0.214-2.82-1.083-2.772-2.978c0.052-2.049,0.294-4.107,0.624-6.133
					c0.236-1.456,1.246-2.201,2.697-2.135c1.674,0.077,3.348,0.237,5.004,0.477c1.42,0.204,2.273,1.295,2.227,2.739
					c-0.034,1.056-0.187,2.109-0.286,3.165C974.783,114.028,974.791,114.029,974.8,114.029 M971.973,110.852l-3.936-0.373
					c-0.168,1.772-0.339,3.489-0.479,5.209c-0.011,0.14,0.179,0.414,0.299,0.43c1.185,0.143,2.375,0.243,3.582,0.357
					L971.973,110.852z"/>
				<path fill="#1C75BC" d="M971.973,110.852l-0.533,5.624c-1.207-0.114-2.397-0.214-3.582-0.357c-0.12-0.015-0.31-0.291-0.299-0.43
					c0.14-1.72,0.311-3.437,0.479-5.209L971.973,110.852z M968.517,115.214l2.175,0.206l0.354-3.747l-2.175-0.206L968.517,115.214z"
					/>
			</g>
			<g>
				<path fill="#FFFFFF" d="M965.514,131.125l4.356,0.413l-0.253,2.669c-1.937-0.183-3.88-0.218-5.758-0.595
					c-1.336-0.27-1.574-2.152-0.518-3.459c0.574-0.706,1.278-1.303,1.934-1.937c0.84-0.811,1.69-1.609,2.671-2.543
					c-1.322-0.125-2.452-0.253-3.587-0.329c-0.578-0.038-0.821-0.202-0.77-0.852c0.165-2.106,0.142-2.11,2.255-1.909
					c0.967,0.092,1.941,0.148,2.903,0.289c1.92,0.28,2.486,1.381,1.659,3.34c-0.184,0.437-0.581,0.806-0.938,1.149
					C968.225,128.573,966.953,129.76,965.514,131.125"/>
				<path fill="#FFFFFF" d="M991.276,124.994l-0.17,1.797c-0.267,2.814-0.577,5.628-0.778,8.447
					c-0.066,0.929-0.391,1.163-1.251,0.988c-0.598-0.122-1.221-0.129-1.919-0.194c0.01-0.385-0.005-0.701,0.024-1.012
					c0.289-3.108,0.614-6.214,0.862-9.324c0.066-0.834,0.37-1.06,1.152-0.912C989.828,124.904,990.479,124.918,991.276,124.994"/>
				<path fill="#1C75BC" d="M977.146,126.622l3.882,0.367l-0.516,5.44l-3.881-0.367L977.146,126.622z M980.076,127.744l-2.136-0.202
					l-0.359,3.799l2.136,0.203L980.076,127.744z"/>
				<g>
					<g>
						<path fill="#FFFFFF" d="M998.42,121.803l-3.012-0.286l0.791-8.352l-3.72-0.353c-0.054,0.372-0.114,0.712-0.147,1.056
							c-0.207,2.142-0.424,4.283-0.6,6.428c-0.053,0.643-0.207,0.926-0.952,0.852c-2.264-0.229-2.267-0.195-2.051-2.472
							c0.372-3.933,0.743-7.864,1.118-11.797c0.036-0.377,0.102-0.749,0.163-1.184l3.015,0.286l-0.371,3.917
							c0.956,0.091,1.818,0.181,2.687,0.252c2.844,0.235,4.246,0.94,3.771,4.529C998.803,117.012,998.65,119.365,998.42,121.803"/>
						<path fill="#FFFFFF" d="M961.456,109.762l-4.365-0.414c0.175,0.319,0.261,0.518,0.382,0.69
							c0.892,1.248,1.794,2.49,2.685,3.739c0.204,0.288,0.409,0.58,0.567,0.895c0.98,1.952-0.053,3.553-2.202,3.392
							c-1.555-0.115-3.107-0.286-4.729-0.439l0.262-2.77l4.365,0.414c-1.187-1.656-2.236-3.141-3.307-4.607
							c-0.544-0.747-0.828-1.543-0.69-2.481c0.145-0.999,0.675-1.64,1.66-1.612c1.706,0.047,3.41,0.22,5.112,0.379
							c0.175,0.017,0.462,0.315,0.457,0.475C961.636,108.18,961.534,108.935,961.456,109.762"/>
						<path fill="#FFFFFF" d="M981.784,111.701l-0.54,5.693l3.771,0.357l-0.273,2.889c-1.723-0.265-3.455-0.386-5.098-0.833
							c-1.177-0.318-1.562-1.486-1.486-2.648c0.125-1.913,0.303-3.824,0.54-5.725c0.209-1.66,1.306-2.572,2.979-2.493
							c1.373,0.063,2.739,0.245,4.152,0.379l-0.26,2.74L981.784,111.701z"/>
						
							<rect x="968.689" y="111.563" transform="matrix(-0.9955 -0.0943 0.0943 -0.9955 1924.5383 317.8583)" fill="#FFFFFF" width="2.185" height="3.765"/>
					</g>
					<g>
						<path fill="#FFFFFF" d="M1035.434,139.691l-0.567,5.989c-28.066-2.657-56.132-5.315-84.223-7.977l3.456-36.483l35.05,3.32
							c-0.015,0.352-0.015,0.706-0.048,1.056c-0.476,5.051-0.955,10.1-1.434,15.15l-0.091,0.955l4.857,0.46l0.789-8.336l2.002,0.189
							l-0.789,8.336l4.7,0.445c0.061-0.126,0.123-0.203,0.131-0.284c0.285-2.936,0.668-5.865,0.817-8.808
							c0.138-2.724-1.174-4.06-3.897-4.348c-0.382-0.04-0.763-0.073-1.146-0.11c-0.452-0.042-0.907-0.086-1.348-0.127l0.39-4.112
							l44.238,4.19l-2.872,30.315c-0.273-0.992-0.547-1.982-0.818-2.975c0.043,2.556-0.76,3.619-3.282,4.102
							c-2.297,0.442-4.445,0.03-6.402-1.257c-0.993-0.653-1.945-1.378-2.918-2.069c1.135,1.816,2.784,3.049,4.64,3.96
							c1.168,0.574,2.444,1.054,3.723,1.256C1032.982,142.943,1034.08,142.235,1035.434,139.691 M998.225,133.295l0.792-8.357
							l-4.77-0.452c-0.304,3.206-0.666,6.34-0.875,9.48c-0.137,2.046,1.149,3.47,3.186,3.785c0.728,0.113,1.465,0.225,2.198,0.214
							c0.941-0.012,1.143,0.39,0.996,1.248c-0.158,0.942-0.195,1.906-0.286,2.858l4.706,0.445l1.604-16.938l-4.747-0.45
							l-0.791,8.355L998.225,133.295z M1026.17,112.247c-0.302,3.188-0.656,6.293-0.87,9.409c-0.141,2.081,0.924,3.426,2.999,3.835
							c1.495,0.297,3.034,0.475,4.558,0.507c2.285,0.049,3.69-1.004,3.937-2.985c0.39-3.129,0.633-6.277,0.934-9.417
							c0.007-0.077-0.052-0.161-0.086-0.264l-4.66-0.441l-0.791,8.358l-1.997-0.189l0.791-8.356L1026.17,112.247z M962.596,106.319
							c-2.248-0.213-4.433-0.511-6.625-0.595c-1.378-0.052-2.195,0.866-2.396,2.24c-0.179,1.197,0.093,2.266,0.826,3.24
							c0.68,0.9,1.321,1.832,2.116,2.943l-3.249-0.308l-0.423,4.462c2.286,0.216,4.5,0.522,6.722,0.602
							c1.272,0.045,2.074-0.902,2.271-2.174c0.18-1.162-0.046-2.216-0.746-3.174c-0.694-0.951-1.365-1.922-2.18-3.077l3.302,0.313
							c0.13-1.367,0.252-2.653,0.37-3.939C962.602,106.654,962.594,106.455,962.596,106.319 M965.955,126.337
							c-0.446,0.432-0.696,0.668-0.943,0.907c-0.778,0.761-1.635,1.461-2.32,2.298c-1.613,1.967-0.957,4.654,1.3,5.063
							c2.101,0.377,4.259,0.439,6.402,0.643l0.434-4.577l-3.21-0.304c0.605-0.58,1.079-1.02,1.536-1.473
							c0.587-0.577,1.236-1.111,1.73-1.763c1.438-1.899,0.908-4.44-1.164-4.874c-2.161-0.453-4.415-0.475-6.635-0.685l-0.422,4.451
							L965.955,126.337z M986.744,108.602c-1.869-0.177-3.729-0.48-5.592-0.494c-1.786-0.016-3.039,1.21-3.268,3.001
							c-0.263,2.075-0.457,4.166-0.586,6.254c-0.098,1.603,0.795,3.056,2.286,3.396c1.932,0.439,3.93,0.598,5.902,0.877l0.449-4.741
							l-3.742-0.354l0.361-3.818l3.765,0.356L986.744,108.602z M963.862,112.898c-0.089,0.938-0.206,1.875-0.263,2.814
							c-0.126,2.052,0.891,3.532,2.903,3.904c1.698,0.314,3.44,0.497,5.166,0.515c2.115,0.022,3.286-0.891,3.665-2.963
							c0.375-2.046,0.584-4.147,0.604-6.227c0.021-2.193-0.969-3.334-3.131-3.728c-1.669-0.304-3.394-0.432-5.092-0.426
							c-2.095,0.009-3.347,1.288-3.591,3.385C964.019,111.078,963.948,111.99,963.862,112.898 M984.8,130.129
							c-0.024-0.004-0.049-0.007-0.075-0.01c0.095-1.001,0.231-1.995,0.275-2.996c0.091-2.013-1.069-3.517-3.051-3.816
							c-1.659-0.25-3.341-0.405-5.019-0.475c-1.954-0.084-3.358,1.038-3.648,2.996c-0.309,2.095-0.505,4.215-0.597,6.33
							c-0.083,1.96,1.118,3.332,3.052,3.606c1.636,0.229,3.283,0.383,4.932,0.469c1.79,0.089,3.101-0.808,3.576-2.534
							C984.563,132.545,984.626,131.322,984.8,130.129 M1019.759,124.775l0.8-8.445l3.087,0.292l0.438-4.622
							c-1.26-0.119-2.458-0.237-3.657-0.346c-2.842-0.252-4.419,1.045-4.697,3.885c-0.257,2.611-0.498,5.224-0.74,7.834
							c-0.028,0.309-0.023,0.621-0.035,0.946L1019.759,124.775z M1001.335,123.012l4.613,0.437l1.233-13.016l-4.613-0.437
							L1001.335,123.012z M992.16,124.289l-4.726-0.448l-1.222,12.9l4.726,0.447L992.16,124.289z M1017.918,139.043
							c0.014-0.075,0.028-0.148,0.044-0.223c-2.066-0.889-2.638-2.172-1.876-4.308c0.524-1.475,1.333-2.835,2.652-3.649
							c1.406-0.871,2.991-1.451,4.505-2.146c0.363-0.167,0.748-0.286,1.357-0.514c-2.937-0.213-7.429,1.672-9.388,3.861
							c-0.464,0.518-0.864,1.133-1.131,1.771c-0.79,1.882-0.224,3.67,1.427,4.455
							C1016.261,138.647,1017.111,138.798,1017.918,139.043 M1022.176,130.598c-1.707,2.211-2.551,4.527-2.904,7.044
							c-0.205,1.473-0.279,2.952,0.383,4.337c0.595,1.25,1.467,2.213,2.968,2.339c1.221,0.102,2.774-0.697,3.526-1.8
							c-1.658,0.929-2.932,0.822-3.949-0.461c-1.571-1.979-2.136-4.266-1.567-6.725
							C1020.987,133.799,1021.602,132.328,1022.176,130.598 M1008.163,123.641l4.653,0.441l0.429-4.529l-4.653-0.44
							L1008.163,123.641z"/>
						<path fill="#009444" d="M1035.434,139.69c-1.354,2.545-2.452,3.253-5.041,2.84c-1.279-0.202-2.558-0.683-3.727-1.257
							c-1.853-0.911-3.5-2.143-4.634-3.96c0.969,0.693,1.919,1.418,2.915,2.071c1.956,1.286,4.104,1.699,6.403,1.258
							c2.521-0.483,3.324-1.547,3.281-4.104c0.272,0.991,0.546,1.983,0.819,2.975L1035.434,139.69z"/>
						<path fill="#BE1E2D" d="M1017.918,139.043c-0.806-0.245-1.655-0.396-2.409-0.753c-1.647-0.785-2.216-2.573-1.428-4.454
							c0.268-0.638,0.669-1.255,1.132-1.771c1.959-2.191,6.45-4.074,9.388-3.862c-0.609,0.228-0.994,0.347-1.357,0.514
							c-1.513,0.694-3.099,1.275-4.505,2.146c-1.319,0.816-2.128,2.175-2.653,3.65c-0.761,2.136-0.189,3.419,1.876,4.307
							C1017.946,138.895,1017.932,138.969,1017.918,139.043"/>
						<path fill="#2B3990" d="M1022.176,130.6c-0.574,1.729-1.188,3.202-1.544,4.731c-0.568,2.458-0.004,4.746,1.567,6.726
							c1.018,1.283,2.291,1.39,3.949,0.462c-0.752,1.101-2.306,1.901-3.526,1.799c-1.501-0.127-2.373-1.088-2.968-2.339
							c-0.662-1.385-0.588-2.862-0.383-4.337C1019.624,135.125,1020.469,132.81,1022.176,130.6"/>
						<g>
							<path fill="#1C75BC" d="M994.084,105.009l-0.39,4.112c0.44,0.042,0.896,0.085,1.351,0.128
								c0.38,0.036,0.761,0.068,1.144,0.108c2.723,0.289,4.034,1.625,3.896,4.349c-0.147,2.941-0.531,5.872-0.816,8.807
								c-0.008,0.082-0.07,0.157-0.13,0.282l-4.701-0.445l0.789-8.333l-2.001-0.189l-0.789,8.333l-4.859-0.46l0.091-0.953
								c0.479-5.05,0.959-10.1,1.435-15.151c0.032-0.351,0.032-0.703,0.047-1.056L994.084,105.009z M998.42,121.803
								c0.23-2.438,0.383-4.791,0.691-7.123c0.476-3.589-0.927-4.293-3.771-4.529c-0.868-0.071-1.73-0.162-2.687-0.252l0.371-3.917
								l-3.015-0.286c-0.062,0.435-0.127,0.807-0.163,1.184c-0.375,3.933-0.746,7.864-1.118,11.797
								c-0.216,2.277-0.213,2.243,2.051,2.472c0.745,0.075,0.899-0.209,0.952-0.852c0.176-2.146,0.393-4.286,0.6-6.428
								c0.033-0.344,0.094-0.684,0.147-1.056l3.72,0.353l-0.791,8.352L998.42,121.803z"/>
							<path fill="#1C75BC" d="M1026.17,112.248l4.813,0.456l-0.792,8.356l1.996,0.189l0.793-8.36l4.66,0.441
								c0.036,0.105,0.094,0.188,0.086,0.265c-0.301,3.14-0.543,6.287-0.934,9.416c-0.249,1.983-1.651,3.035-3.935,2.985
								c-1.525-0.031-3.064-0.208-4.562-0.505c-2.073-0.411-3.137-1.755-2.995-3.836
								C1025.512,118.54,1025.868,115.435,1026.17,112.248 M1027.024,113.237c-0.28,2.952-0.63,5.816-0.792,8.693
								c-0.093,1.614,0.871,2.562,2.488,2.772c1.229,0.16,2.465,0.254,3.699,0.368c2.323,0.216,3.428-0.678,3.664-2.997
								c0.245-2.406,0.462-4.815,0.686-7.224c0.02-0.223-0.005-0.45-0.009-0.698l-2.995-0.284l-0.795,8.381l-3.8-0.36l0.793-8.374
								L1027.024,113.237z"/>
							<path fill="#1C75BC" d="M962.596,106.318c-0.002,0.137,0.006,0.336-0.013,0.534c-0.117,1.285-0.24,2.572-0.37,3.939
								l-3.302-0.313c0.814,1.154,1.484,2.125,2.18,3.077c0.7,0.958,0.926,2.012,0.746,3.174c-0.196,1.271-0.998,2.219-2.271,2.174
								c-2.222-0.081-4.436-0.385-6.722-0.602l0.423-4.462l3.249,0.308c-0.795-1.111-1.437-2.041-2.116-2.943
								c-0.733-0.972-1.005-2.044-0.826-3.241c0.201-1.372,1.019-2.292,2.396-2.239
								C958.163,105.807,960.348,106.105,962.596,106.318 M961.456,109.762c0.078-0.827,0.18-1.582,0.196-2.339
								c0.005-0.16-0.282-0.458-0.457-0.475c-1.702-0.159-3.406-0.332-5.112-0.379c-0.985-0.028-1.516,0.613-1.66,1.612
								c-0.138,0.938,0.146,1.734,0.69,2.481c1.07,1.466,2.12,2.951,3.307,4.607l-4.365-0.414l-0.262,2.77
								c1.622,0.154,3.175,0.324,4.729,0.439c2.149,0.161,3.183-1.44,2.202-3.392c-0.158-0.315-0.363-0.607-0.567-0.895
								c-0.891-1.249-1.793-2.491-2.685-3.739c-0.121-0.172-0.207-0.371-0.382-0.69L961.456,109.762z"/>
							<path fill="#1C75BC" d="M965.956,126.338l-3.29-0.312l0.422-4.453c2.218,0.21,4.471,0.231,6.634,0.685
								c2.07,0.436,2.601,2.975,1.162,4.874c-0.495,0.65-1.144,1.183-1.729,1.763c-0.458,0.453-0.929,0.894-1.537,1.473l3.21,0.304
								l-0.434,4.577c-2.144-0.203-4.302-0.266-6.402-0.643c-2.257-0.41-2.913-3.097-1.3-5.063c0.688-0.837,1.542-1.537,2.32-2.298
								C965.259,127.005,965.509,126.768,965.956,126.338 M965.514,131.125c1.439-1.365,2.711-2.552,3.956-3.762
								c0.356-0.344,0.754-0.713,0.938-1.149c0.827-1.959,0.261-3.061-1.659-3.34c-0.962-0.141-1.937-0.197-2.903-0.289
								c-2.113-0.202-2.09-0.198-2.255,1.909c-0.052,0.649,0.191,0.813,0.77,0.852c1.135,0.076,2.265,0.204,3.587,0.329
								c-0.98,0.934-1.831,1.732-2.671,2.543c-0.655,0.634-1.359,1.23-1.934,1.937c-1.057,1.307-0.818,3.189,0.518,3.459
								c1.878,0.377,3.821,0.412,5.758,0.595l0.253-2.669L965.514,131.125z"/>
							<path fill="#1C75BC" d="M986.745,108.601l-0.425,4.479l-3.765-0.356l-0.361,3.818l3.741,0.354l-0.449,4.742
								c-1.972-0.279-3.97-0.438-5.901-0.877c-1.491-0.34-2.384-1.794-2.286-3.397c0.129-2.088,0.323-4.176,0.586-6.254
								c0.229-1.791,1.481-3.015,3.268-3C983.016,108.124,984.874,108.424,986.745,108.601 M981.784,111.701l3.785,0.359l0.26-2.74
								c-1.413-0.134-2.779-0.316-4.152-0.379c-1.674-0.08-2.771,0.833-2.979,2.493c-0.237,1.901-0.415,3.812-0.54,5.725
								c-0.075,1.163,0.31,2.33,1.486,2.648c1.643,0.447,3.375,0.569,5.098,0.833l0.273-2.889l-3.771-0.357L981.784,111.701z"/>
							<path fill="#1C75BC" d="M963.862,112.898c0.086-0.909,0.156-1.82,0.263-2.727c0.244-2.096,1.495-3.374,3.591-3.383
								c1.698-0.009,3.422,0.12,5.091,0.424c2.161,0.394,3.153,1.536,3.132,3.727c-0.021,2.08-0.229,4.184-0.604,6.23
								c-0.379,2.072-1.55,2.981-3.667,2.961c-1.724-0.017-3.466-0.199-5.164-0.514c-2.013-0.371-3.029-1.852-2.903-3.904
								C963.656,114.773,963.771,113.837,963.862,112.898 M974.8,114.029c-0.009,0-0.017-0.001-0.025-0.002
								c0.1-1.056,0.254-2.109,0.287-3.165c0.048-1.444-0.806-2.536-2.226-2.739c-1.656-0.24-3.33-0.4-5.004-0.477
								c-1.451-0.066-2.461,0.679-2.697,2.135c-0.33,2.026-0.573,4.084-0.624,6.133c-0.048,1.895,0.882,2.764,2.772,2.978
								c1.374,0.155,2.753,0.296,4.132,0.383c1.809,0.113,2.889-0.802,3.13-2.608C974.659,115.791,974.717,114.908,974.8,114.029"/>
							<path fill="#1C75BC" d="M984.8,130.129c-0.174,1.193-0.236,2.417-0.554,3.572c-0.477,1.725-1.787,2.621-3.577,2.531
								c-1.647-0.086-3.298-0.24-4.932-0.471c-1.934-0.271-3.136-1.644-3.05-3.603c0.09-2.115,0.288-4.236,0.596-6.332
								c0.287-1.957,1.695-3.078,3.646-2.997c1.679,0.071,3.359,0.227,5.019,0.477c1.984,0.3,3.142,1.801,3.054,3.814
								c-0.046,1.002-0.182,1.999-0.276,2.998C984.749,130.122,984.775,130.127,984.8,130.129 M973.797,129.006
								c-0.003,0-0.006,0-0.009-0.001c-0.083,0.88-0.188,1.759-0.245,2.64c-0.135,1.986,0.806,3.124,2.784,3.354
								c1.316,0.151,2.639,0.276,3.959,0.376c1.85,0.14,3.032-0.703,3.309-2.548c0.282-1.86,0.452-3.747,0.53-5.627
								c0.074-1.764-0.711-2.768-2.413-3.056c-1.593-0.27-3.219-0.421-4.834-0.444c-1.646-0.023-2.599,0.937-2.817,2.581
								C973.941,127.185,973.883,128.097,973.797,129.006"/>
							<path fill="#1C75BC" d="M1019.759,124.775l-4.805-0.455c0.01-0.326,0.007-0.636,0.035-0.945
								c0.242-2.612,0.483-5.225,0.742-7.835c0.276-2.84,1.854-4.138,4.695-3.885c1.199,0.108,2.397,0.227,3.657,0.347l-0.438,4.623
								l-3.087-0.292L1019.759,124.775z M1022.935,115.631c0.08-0.847,0.193-1.573,0.19-2.299c-0.001-0.197-0.334-0.541-0.543-0.566
								c-1.082-0.126-2.17-0.227-3.257-0.23c-1.264-0.002-2.34,0.798-2.504,2.069c-0.373,2.886-0.596,5.792-0.876,8.689
								c-0.005,0.046,0.053,0.098,0.096,0.178l2.833,0.269c0.055-0.36,0.119-0.674,0.15-0.992c0.213-2.197,0.438-4.395,0.615-6.594
								c0.052-0.658,0.283-0.87,0.939-0.758C1021.3,115.519,1022.037,115.546,1022.935,115.631"/>
							<path fill="#1C75BC" d="M1002.568,109.997l4.613,0.437l-1.233,13.016l-4.613-0.437L1002.568,109.997z M1002.266,122.161
								l2.938,0.278l1.062-11.202l-2.938-0.278L1002.266,122.161z"/>
							<path fill="#1C75BC" d="M990.939,137.19l-4.727-0.447l1.223-12.901l4.726,0.448L990.939,137.19z M991.276,124.994
								c-0.798-0.076-1.448-0.089-2.079-0.209c-0.782-0.148-1.086,0.077-1.152,0.912c-0.248,3.11-0.573,6.216-0.862,9.324
								c-0.029,0.311-0.015,0.627-0.024,1.012c0.698,0.065,1.321,0.072,1.919,0.194c0.86,0.175,1.185-0.06,1.251-0.988
								c0.201-2.819,0.512-5.633,0.778-8.447L991.276,124.994z"/>
							<path fill="#1C75BC" d="M1008.592,119.112l4.653,0.44l-0.429,4.529l-4.653-0.441L1008.592,119.112z M1009.105,122.794
								l2.955,0.28l0.251-2.649l-2.955-0.28L1009.105,122.794z"/>
							<path fill="#FFFFFF" d="M997.225,134.064l3.824,0.362c0.073-0.778,0.145-1.529,0.216-2.281
								c0.166-1.761,0.367-3.518,0.481-5.282c0.046-0.725,0.313-0.906,0.985-0.794c0.688,0.113,1.39,0.141,2.131,0.211
								l-1.449,15.293l-2.97-0.281l0.376-3.967c-1.195-0.113-2.298-0.214-3.401-0.322c-2.425-0.233-3.376-1.372-3.16-3.816
								c0.209-2.35,0.458-4.694,0.651-7.044c0.051-0.614,0.265-0.828,0.882-0.731c0.693,0.109,1.399,0.142,2.232,0.221
								L997.225,134.064z"/>
						</g>
						
							<rect x="1002.789" y="111.074" transform="matrix(-0.9955 -0.0943 0.0943 -0.9955 1993.0508 327.575)" fill="#FFFFFF" width="2.952" height="11.252"/>
						
							<rect x="1027.198" y="109.066" transform="matrix(0.7761 0.6306 -0.6306 0.7761 301.3661 -627.9349)" fill="#F9E8A2" width="15.427" height="2.671"/>
						
							<rect x="1023.991" y="142.92" transform="matrix(0.903 -0.4297 0.4297 0.903 38.1041 457.2747)" fill="#F9E8A2" width="15.428" height="2.668"/>
						
							<rect x="947.686" y="135.348" transform="matrix(-0.7761 -0.6307 0.6307 -0.7761 1610.6409 845.2965)" fill="#F9E8A2" width="15.429" height="2.671"/>
						
							<rect x="950.894" y="101.497" transform="matrix(-0.9029 0.4299 -0.4299 -0.9029 1868.3318 -216.3893)" fill="#F9E8A2" width="15.427" height="2.67"/>
					</g>
				</g>
			</g>
		</g>
	</g>
</g>
<rect fill="none" width="1202.05" height="252"/>
<g opacity="0.35">
	<g>
		<defs>
			<rect id="SVGID_21_" x="131.678" y="83.684" width="925.302" height="77.639"/>
		</defs>
		<clipPath id="SVGID_22_">
			<use xlink:href="#SVGID_21_"  overflow="visible"/>
		</clipPath>
		<polygon clip-path="url(#SVGID_22_)" fill="#231F20" points="131.678,83.684 1056.981,83.684 131.678,161.323 		"/>
	</g>
</g>
<polygon fill="#FFF8B8" points="306.576,88.408 176.667,88.408 174.242,83.684 309.001,83.684 "/>
<polygon fill="#FFF8B8" points="493.571,88.408 363.662,88.408 361.237,83.684 495.996,83.684 "/>
<polygon fill="#FFF8B8" points="680.566,88.408 550.658,88.408 548.232,83.684 682.991,83.684 "/>
<polygon fill="#FFF8B8" points="867.562,88.408 737.652,88.408 735.228,83.684 869.986,83.684 "/>
<polygon fill="#FFF8B8" points="1054.557,88.408 924.648,88.408 922.223,83.684 1056.982,83.684 "/>
<g>
	<path fill="#D9F0F9" d="M732.209,57.86c-6.523,0.419-12.857,3.323-17.433,7.994c-0.755,0.77-1.488,1.991-0.812,2.831
		c0.376,0.468,1.035,0.573,1.632,0.644c1.663,0.198,3.327,0.396,4.989,0.593c0.976,0.116,2.044,0.279,2.692,1.016
		c0.455,0.516,0.615,1.222,0.738,1.899c0.435,2.399,0.6,4.847,0.49,7.282c-0.071,1.582-0.235,3.269,0.536,4.651
		c1.43,2.557,5.312,2.555,7.774,0.966c2.461-1.589,4.017-4.218,5.995-6.379c1.979-2.161,4.908-3.977,7.713-3.132
		c3.543,1.066,5.564,5.972,9.245,5.602c3.973-0.399,5.118-6.611,9.05-7.306c1.296-0.229,2.606,0.226,3.84,0.687
		c2.7,1.01,5.82,2.061,8.332,0.647c1.099-0.617,1.916-1.639,2.973-2.326c1.746-1.136,3.938-1.248,6.01-1.464
		c2.072-0.216,4.3-0.66,5.686-2.215c1.388-1.556,1.223-4.539-0.735-5.249c-1.119-0.406-2.344,0.042-3.526,0.173
		c-2.928,0.326-5.661-1.301-8.38-2.433c-8.928-3.72-19.024-2.298-28.688-1.911c-2.34,0.093-4.853,0.075-6.788-1.244
		c-1.029-0.702-1.811-1.722-2.835-2.431c-2.093-1.447-4.944-1.381-7.318-0.466c-2.374,0.915-4.379,2.567-6.337,4.191"/>
	<path fill="#A7BFC6" d="M749.663,68.346c-1.481,0.118-2.66,1.567-4.146,1.502c-1.64-0.071-2.887-1.973-4.51-1.73
		c-0.815,0.123-1.437,0.765-2.115,1.234c-0.68,0.47-1.672,0.757-2.28,0.199c-0.555-0.509-0.472-1.441-0.948-2.025
		c-0.667-0.817-1.97-0.535-2.963-0.892c-0.739-0.266-1.283-0.885-1.919-1.345c-2.755-1.991-6.615-0.729-9.617,0.865
		c1.856-0.971,4.26,0.14,5.404,1.895c1.143,1.755,1.334,3.947,1.428,6.039c0.094,2.093,0.142,4.264,1.064,6.145
		c0.144,0.295,0.335,0.602,0.645,0.71c0.367,0.128,0.761-0.067,1.099-0.261c3.096-1.779,5.955-3.971,8.479-6.499
		c0.611-0.612,1.225-1.259,2.019-1.6c2.177-0.931,4.513,0.752,6.337,2.26c1.823,1.509,4.38,3.003,6.389,1.751
		c1.549-0.966,2.008-3.221,3.668-3.98c0.973-0.444,2.098-0.247,3.166-0.204c2.05,0.082,4.12-0.454,5.872-1.522
		c0.244-0.149,0.489-0.314,0.648-0.551c0.492-0.726-0.041-1.752-0.782-2.219c-1.802-1.134-4.155-0.195-5.995,0.873
		c-1.841,1.068-3.925,2.304-5.957,1.673C752.868,70.113,751.521,68.198,749.663,68.346"/>
	<path fill="#D9F0F9" d="M528.24-0.19c0.232,11.843-0.762,23.709-2.961,35.348c-0.658,3.479-1.643,7.279-4.573,9.267
		c-1.812-1.196-2.705-3.36-3.332-5.439c-2.216-7.342-2.479-15.435-6.522-21.952c-0.789-1.272-1.998-2.594-3.485-2.427
		c-3.057,0.345-3.188,6.17-6.263,6.108c-0.781-0.015-1.492-0.474-2.038-1.033c-1.4-1.435-1.918-3.483-2.814-5.276
		s-2.576-3.537-4.567-3.301c-1.302,0.155-2.345,1.118-3.264,2.054c-1.551,1.578-3.107,3.267-5.155,4.105
		c-2.048,0.838-4.764,0.533-5.98-1.316c-1.172-1.781-0.864-4.67-2.81-5.542c-1.008-0.452-2.186-0.086-3.189,0.379
		c-2.295,1.063-4.344,2.624-6.69,3.571c-2.346,0.946-5.225,1.174-7.246-0.348c-1.784-1.344-2.91-3.971-5.144-4.01
		c-0.791-0.014-1.537,0.332-2.301,0.539c-2.846,0.769-6.13-0.624-7.554-3.205c-0.746-1.351-1.048-2.996-2.17-4.056
		c-0.652-0.616-1.507-0.957-2.317-1.343c-2.539-1.21-4.806-2.985-6.59-5.16c10.288-2.205,20.678-4.422,31.2-4.327
		c2.339,0.021,4.687,0.156,7.012-0.097c3.275-0.357,6.454-1.479,9.748-1.569c2.979-0.081,5.967,0.687,8.922,0.292
		c3.04-0.405,5.867-2.023,8.934-2.089c2.284-0.05,4.493,0.769,6.764,1.023c3.197,0.357,6.449-0.411,9.638,0.02
		c4.226,0.571,7.866,3.162,11.313,5.674c1.002,0.731,2.038,1.499,2.621,2.594c0.417,0.785,0.57,1.682,0.66,2.567
		c0.232,2.282,0.084,4.603-0.434,6.838"/>
	<path fill="#A7BFC6" d="M522.59,8.375c1.385,7.354,1.594,14.928,0.617,22.347c-0.14,1.062-0.744,2.446-1.786,2.2
		c-0.651-0.154-0.954-0.886-1.159-1.523c-1.446-4.51-2.891-9.019-4.337-13.529c-0.754-2.349-1.515-4.718-2.736-6.863
		c-0.712-1.252-1.744-2.521-3.176-2.685c-3.076-0.354-4.383,4.245-7.336,5.176c-0.871-2.889-2.61-5.51-4.933-7.436
		c-0.216-0.179-0.456-0.39-0.462-0.671c-0.004-0.147,0.061-0.287,0.135-0.414c0.967-1.657,3.927-1.394,4.586,0.408
		c0.125,0.342,0.18,0.716,0.379,1.022c0.573,0.879,1.912,0.691,2.87,0.264c1.432-0.639,2.718-1.574,4.157-2.196
		s3.149-0.903,4.548-0.194c2.148,1.088,2.801,4.056,4.941,5.158c1.012-0.35,1.137-1.686,1.381-2.729
		c0.244-1.042,1.463-2.155,2.223-1.4c0.23,0.228,0.314,0.563,0.383,0.88c0.523,2.416,0.749,4.896,0.67,7.366"/>
	<path fill="#A7BFC6" d="M454.198,4.1c-1.323-0.626-2.895-0.339-4.311-0.709c-1.416-0.371-2.706-2.125-1.733-3.218
		c3.13-0.466,6.4,0.057,9.228,1.475c0.949,0.476,1.882,1.06,2.935,1.189c1.884,0.231,3.724-1.039,5.6-0.754
		c2.22,0.337,4.032,2.779,6.205,2.212c1.126-0.293,1.897-1.335,2.956-1.818c1.328-0.605,2.874-0.248,4.287,0.118l9.46,2.454
		c-0.675,2.521-1.823,4.914-3.367,7.018c-0.315,0.429-0.666,0.862-1.153,1.074c-1.488,0.648-2.923-1.088-3.362-2.651
		c-0.438-1.563-0.719-3.464-2.183-4.166c-2.713-1.302-5.514,3.136-8.376,2.207c-0.683-0.222-1.267-0.742-1.981-0.82
		c-0.863-0.095-1.637,0.47-2.422,0.842c-3.233,1.532-7.132-0.243-9.694-2.741C455.639,5.181,455.017,4.486,454.198,4.1"/>
	<path fill="#D9F0F9" d="M1060.016,58.341c-3.031,0.502-6.062,1.004-9.095,1.506c-4.428,0.734-9.205,1.65-12.232,4.964
		c-0.608,0.665-1.146,1.465-1.197,2.365c-0.052,0.9,0.542,1.883,1.438,1.988c0.697,0.081,1.401-0.36,2.081-0.186
		c0.881,0.227,1.192,1.303,1.301,2.207c0.488,4.084,0.024,8.416,1.789,12.132c0.392,0.826,1.17,1.72,2.043,1.451
		c0.425-0.13,0.72-0.508,0.975-0.872c1.466-2.09,2.586-4.422,3.303-6.872c0.455-1.557,0.899-3.361,2.346-4.095
		c2.185,3.508,1.127,8.194,2.754,11.993c0.168,0.39,0.434,0.819,0.857,0.851c0.398,0.03,0.713-0.306,1.048-0.523
		c1.032-0.67,2.491-0.188,3.304,0.736c0.812,0.924,1.136,2.167,1.435,3.36c1.054,4.202,2.108,8.404,3.161,12.607
		c0.165,0.655,0.546,1.471,1.217,1.386c0.652-0.083,0.835-0.931,0.855-1.589c0.099-3.117,0.196-6.234,0.295-9.351
		c0.09-2.859,0.18-5.719,0.27-8.579c0.216-6.857,0.401-13.916-1.978-20.351c-0.872-2.361-2.455-4.872-4.953-5.18
		c-2.253-0.277-4.829,1.311-6.638-0.061"/>
	<path fill="#A7BFC6" d="M1049.781,69.827c-0.314,0.336-0.703,0.665-1.163,0.666c-0.827,0.002-1.255-1.001-1.303-1.827
		c-0.049-0.826,0.017-1.773-0.58-2.345c-0.714-0.525-1.808-0.038-2.219,0.747c-0.412,0.786-0.333,1.728-0.22,2.608
		c0.383,2.973,1.044,5.911,1.972,8.761c1.463-2.675,2.926-5.349,4.39-8.024c0.202-0.37,0.426-0.761,0.805-0.948
		c0.801-0.396,1.692,0.341,2.202,1.075c1.597,2.302,2.204,5.135,2.607,7.906c0.087,0.595,0.291,1.327,0.883,1.427
		c1.104,0.187,1.304-1.983,2.422-2.038c0.675-0.034,1.064,0.737,1.277,1.379c0.888,2.681,1.777,5.363,2.665,8.045
		c0.34,1.026,1.113,2.292,2.142,1.96c0.341-4.962-0.287-9.989-1.838-14.715c-0.808,0.034-1.151,1.1-1.89,1.432
		c-0.714,0.32-1.568-0.175-1.973-0.845c-0.403-0.67-0.5-1.474-0.709-2.229c-0.498-1.806-1.65-3.35-2.779-4.846
		c-0.396-0.524-0.815-1.069-1.41-1.347c-1.004-0.469-2.225-0.034-3.073,0.679C1051.142,68.061,1050.539,69.018,1049.781,69.827"/>
	<path fill="#FFFFFF" d="M1056.375,60.908c-0.87-0.395-1.858,0.141-2.66,0.66c-1.413,0.913-2.825,1.826-4.238,2.738
		c-0.091,0.46,0.426,0.793,0.872,0.935c1.047,0.333,2.174,0.412,3.256,0.226c0.642-0.11,1.266-0.31,1.911-0.389
		c2.659-0.327,5.277,1.584,6.252,4.08c0.443,1.131,0.683,2.478,1.695,3.15c0.167,0.111,0.366,0.2,0.564,0.166
		c0.402-0.071,0.545-0.569,0.584-0.976c0.306-3.19-0.599-6.481-2.49-9.066c-0.2-0.273-0.415-0.543-0.697-0.731
		c-0.517-0.343-1.178-0.362-1.798-0.336C1057.354,61.458,1058.438,59.951,1056.375,60.908"/>
	<path fill="#D9F0F9" d="M478.325,197.027c5.23,0.337,10.307,2.664,13.974,6.407c0.605,0.618,1.193,1.597,0.651,2.271
		c-0.302,0.375-0.831,0.459-1.309,0.516l-3.999,0.477c-0.782,0.093-1.638,0.223-2.158,0.813c-0.365,0.413-0.493,0.979-0.592,1.522
		c-0.348,1.923-0.48,3.885-0.392,5.837c0.057,1.268,0.188,2.621-0.431,3.728c-1.146,2.05-4.258,2.048-6.231,0.774
		s-3.22-3.38-4.806-5.112c-1.586-1.733-3.934-3.188-6.183-2.512c-2.839,0.855-4.459,4.787-7.41,4.491
		c-3.185-0.319-4.102-5.3-7.254-5.856c-1.039-0.184-2.089,0.181-3.078,0.551c-2.164,0.81-4.665,1.651-6.679,0.52
		c-0.88-0.496-1.535-1.314-2.382-1.865c-1.399-0.911-3.156-1.001-4.817-1.174c-1.661-0.173-3.447-0.529-4.558-1.775
		c-1.112-1.247-0.98-3.638,0.59-4.208c0.897-0.325,1.878,0.034,2.826,0.139c2.347,0.262,4.538-1.042,6.717-1.95
		c7.157-2.981,15.25-1.842,22.996-1.531c1.876,0.075,3.89,0.06,5.441-0.997c0.826-0.563,1.451-1.38,2.273-1.948
		c1.677-1.161,3.963-1.107,5.866-0.374s3.51,2.058,5.08,3.359"/>
	<path fill="#A7BFC6" d="M464.334,205.434c1.188,0.094,2.133,1.256,3.323,1.203c1.314-0.057,2.314-1.58,3.614-1.387
		c0.655,0.099,1.152,0.613,1.696,0.99c0.545,0.376,1.34,0.606,1.828,0.159c0.445-0.408,0.378-1.155,0.76-1.623
		c0.535-0.655,1.58-0.429,2.375-0.715c0.592-0.213,1.028-0.71,1.538-1.078c2.208-1.597,5.302-0.585,7.709,0.692
		c-1.488-0.777-3.415,0.112-4.331,1.52c-0.917,1.407-1.07,3.164-1.145,4.841c-0.076,1.677-0.114,3.417-0.853,4.925
		c-0.116,0.237-0.269,0.483-0.517,0.569c-0.294,0.103-0.61-0.053-0.88-0.208c-2.482-1.427-4.774-3.184-6.797-5.21
		c-0.489-0.491-0.981-1.01-1.618-1.282c-1.745-0.747-3.616,0.603-5.079,1.812c-1.462,1.209-3.511,2.406-5.121,1.402
		c-1.242-0.773-1.609-2.582-2.94-3.189c-0.78-0.356-1.682-0.198-2.538-0.164c-1.643,0.066-3.303-0.364-4.707-1.221
		c-0.195-0.118-0.391-0.251-0.52-0.44c-0.395-0.582,0.033-1.405,0.628-1.779c1.443-0.909,3.33-0.156,4.805,0.7
		s3.146,1.846,4.775,1.341C461.766,206.85,462.847,205.315,464.334,205.434"/>
	<path fill="#D9F0F9" d="M1196.887,199.154c-3.977,0.218-7.954,0.436-11.931,0.652c-5.81,0.317-12.088,0.784-16.261,3.807
		c-0.839,0.607-1.596,1.354-1.728,2.247c-0.132,0.894,0.571,1.93,1.728,2.117c0.9,0.147,1.847-0.228,2.719,0.01
		c1.13,0.309,1.456,1.411,1.532,2.322c0.343,4.119-0.57,8.397,1.456,12.268c0.449,0.861,1.397,1.825,2.553,1.64
		c0.561-0.091,0.971-0.44,1.329-0.779c2.056-1.948,3.68-4.168,4.787-6.545c0.704-1.511,1.41-3.269,3.345-3.866
		c2.588,3.704,0.876,8.279,2.72,12.221c0.189,0.404,0.505,0.857,1.054,0.929c0.515,0.067,0.948-0.238,1.4-0.424
		c1.389-0.571,3.252,0.046,4.241,1.043c0.989,0.998,1.322,2.268,1.625,3.485c1.068,4.29,2.137,8.58,3.205,12.87
		c0.167,0.669,0.604,1.519,1.481,1.496c0.855-0.021,1.153-0.85,1.228-1.504c0.351-3.1,0.702-6.2,1.054-9.3
		c0.322-2.844,0.645-5.688,0.966-8.531c0.773-6.82,1.521-13.843-1.11-20.485c-0.965-2.436-2.844-5.088-6.069-5.628
		c-2.909-0.487-6.373,0.855-8.625-0.683"/>
	<path fill="#A7BFC6" d="M1182.758,209.654c-0.434,0.305-0.962,0.598-1.561,0.556c-1.076-0.076-1.56-1.116-1.563-1.944
		c-0.003-0.829,0.151-1.767-0.584-2.394c-0.893-0.591-2.349-0.207-2.94,0.538c-0.591,0.745-0.557,1.692-0.473,2.58
		c0.285,3.002,0.934,5.993,1.936,8.924c2.095-2.532,4.189-5.063,6.283-7.594c0.289-0.351,0.609-0.72,1.114-0.87
		c1.069-0.32,2.177,0.499,2.786,1.278c1.91,2.444,2.498,5.327,2.824,8.13c0.069,0.601,0.281,1.351,1.044,1.506
		c1.423,0.29,1.838-1.857,3.296-1.808c0.88,0.03,1.33,0.835,1.561,1.495c0.963,2.758,1.926,5.517,2.889,8.274
		c0.368,1.055,1.282,2.39,2.644,2.155c0.799-4.918,0.344-9.991-1.334-14.85c-1.053-0.042-1.576,0.989-2.56,1.251
		c-0.95,0.253-2.026-0.319-2.504-1.026c-0.478-0.706-0.545-1.518-0.761-2.289c-0.519-1.849-1.907-3.496-3.267-5.095
		c-0.478-0.56-0.984-1.142-1.737-1.475c-1.272-0.562-2.889-0.242-4.044,0.39C1184.652,208.019,1183.801,208.918,1182.758,209.654"/>
	<path fill="#FFFFFF" d="M1191.97,201.374c-1.103-0.476-2.426-0.033-3.506,0.409c-1.902,0.779-3.804,1.557-5.706,2.336
		c-0.15,0.449,0.497,0.83,1.067,1.013c1.337,0.432,2.796,0.614,4.217,0.53c0.841-0.049,1.667-0.189,2.512-0.209
		c3.481-0.078,6.748,2.073,7.837,4.654c0.494,1.17,0.708,2.536,1.977,3.3c0.21,0.127,0.462,0.234,0.722,0.218
		c0.529-0.031,0.749-0.516,0.829-0.918c0.627-3.152-0.312-6.52-2.587-9.275c-0.24-0.291-0.501-0.58-0.854-0.793
		c-0.646-0.392-1.506-0.473-2.313-0.506C1193.204,202.016,1194.721,200.613,1191.97,201.374"/>
	<path fill="#D9F0F9" d="M781.334,14.238c0,4.195-3.401,7.595-7.596,7.595c-4.195,0-7.595-3.4-7.595-7.595
		c0-4.195,3.399-7.595,7.595-7.595C777.933,6.643,781.334,10.043,781.334,14.238"/>
	<path fill="#D9F0F9" d="M228.249,142.688c0,4.194-3.4,7.595-7.595,7.595c-4.195,0-7.595-3.4-7.595-7.595
		c0-4.195,3.4-7.596,7.595-7.596C224.849,135.093,228.249,138.493,228.249,142.688"/>
	<path fill="#D9F0F9" d="M618.765,86.413c0,4.195-3.4,7.595-7.596,7.595c-4.194,0-7.595-3.4-7.595-7.595
		c0-4.195,3.4-7.595,7.595-7.595C615.364,78.818,618.765,82.218,618.765,86.413"/>
	<path fill="#D9F0F9" d="M901.363,147.131c0,4.194-3.4,7.595-7.596,7.595s-7.595-3.4-7.595-7.595c0-4.195,3.399-7.596,7.595-7.596
		S901.363,142.936,901.363,147.131"/>
	<path fill="#D9F0F9" d="M1017.767,30.167c0,4.195-3.4,7.595-7.595,7.595c-4.195,0-7.596-3.4-7.596-7.595
		c0-4.195,3.4-7.595,7.596-7.595C1014.366,22.572,1017.767,25.972,1017.767,30.167"/>
	<path fill="#D9F0F9" d="M35.919,37.762c0,4.195-3.4,7.595-7.595,7.595c-4.195,0-7.595-3.4-7.595-7.595s3.4-7.595,7.595-7.595
		C32.52,30.167,35.919,33.567,35.919,37.762"/>
	<path fill="#D9F0F9" d="M132.725,144.583c0,4.195-3.4,7.595-7.595,7.595c-4.195,0-7.595-3.399-7.595-7.595
		c0-4.194,3.4-7.595,7.595-7.595C129.325,136.988,132.725,140.389,132.725,144.583"/>
	<path fill="#D9F0F9" d="M1158.794,152.694c0,4.195-3.401,7.596-7.595,7.596c-4.195,0-7.596-3.4-7.596-7.596
		c0-4.194,3.4-7.595,7.596-7.595C1155.393,145.1,1158.794,148.5,1158.794,152.694"/>
	<path fill="#D9F0F9" d="M1158.794,3.864c0,4.195-3.4,7.595-7.595,7.595c-4.195,0-7.596-3.4-7.596-7.595
		c0-4.195,3.4-7.595,7.596-7.595C1155.394-3.731,1158.794-0.332,1158.794,3.864"/>
	<path fill="#D9F0F9" d="M380.731,177.376c0,4.194-3.4,7.595-7.595,7.595s-7.595-3.4-7.595-7.595c0-4.195,3.4-7.596,7.595-7.596
		S380.731,173.181,380.731,177.376"/>
	<path fill="#D9F0F9" d="M1017.767,174.457c0,4.194-3.4,7.595-7.595,7.595c-4.195,0-7.596-3.4-7.596-7.595
		c0-4.195,3.4-7.596,7.596-7.596C1014.366,166.861,1017.767,170.262,1017.767,174.457"/>
	<path fill="#D9F0F9" d="M788.929,161.973c0,4.194-3.4,7.595-7.595,7.595c-4.195,0-7.596-3.4-7.596-7.595
		c0-4.195,3.4-7.596,7.596-7.596C785.528,154.377,788.929,157.777,788.929,161.973"/>
	<path fill="#D9F0F9" d="M432.612,86.413c0,4.195-3.4,7.595-7.595,7.595s-7.595-3.4-7.595-7.595c0-4.195,3.4-7.595,7.595-7.595
		S432.612,82.218,432.612,86.413"/>
</g>
<g>
	<path fill="#9D0FC3" d="M1083.418,62.354c0,0,2.646-4.723,4.224-7.787c0,0,21.548,2.447,33.466,5.867
		c11.919,3.421,39.54,9.891,56.147,5.616c0,0,1.483,6.723,1.574,8.562c0.091,1.839-15.079,2.587-23.442,1.157
		c-8.365-1.43-24.243-5.715-37.571-7.361C1104.486,66.762,1083.418,62.354,1083.418,62.354z"/>
	<path fill="#372AD5" d="M1087.642,54.567c0,0,1.462-3.058,3.079-7.631c0,0,11.768,0.34,17.076,0.539
		c5.308,0.199,12.481,3.168,24.202,4.903c11.72,1.734,10.355,6.754,25.455,6.931c15.099,0.176,19.679-0.395,19.679-0.395
		s0.227,6.515,0.386,7.814c0,0-10.31,1.501-19.775,0.511c-9.465-0.99-16.381-1.538-26.893-4.279
		C1120.339,60.219,1108.036,57.008,1087.642,54.567z"/>
	<path fill="#3A7B4C" d="M1090.721,46.937c0,0,1.25-5.016,1.156-9.273c0,0,3.171-1.078,9.652-0.476
		c6.48,0.602,10.667,3.735,20.123,3.96c9.458,0.224,13.58,4.398,24.432,7.204c10.852,2.805,27.508,1.85,30.617,1.821
		c0,0-0.17,5.892,0.432,8.743c0,0-6.706,1.037-21.158,0.359c-14.453-0.676-12.871-4.825-23.202-6.772c0,0-9.654-1.748-13.644-2.742
		s-9.101-2.699-17.728-2.313C1092.775,47.833,1090.721,46.937,1090.721,46.937z"/>
	<path fill="#D0D900" d="M1091.877,37.664c0,0-0.117-7.021-0.505-10.228c0,0,3.976-1.118,8.272-0.408
		c4.299,0.709,11.272,1.978,18.109,2.792c6.836,0.814,6.87,1.504,12.792,4.783c5.922,3.279,12.672,4.673,25.047,5.676
		c12.376,1.002,21.54-0.026,21.54-0.026s-0.412,8.667-0.432,9.919c0,0-10.56,0.485-16.679,0.011
		c-6.118-0.474-11.061-0.209-19.773-3.651c-8.713-3.441-12.087-4.957-21.119-5.52c-9.03-0.562-12.252-2.822-17.601-3.825
		C1096.181,36.184,1091.877,37.664,1091.877,37.664z"/>
	<path fill="#CE8C00" d="M1091.372,27.436c0,0-0.996-6.171-2.138-10.608c0,0,10.229-0.505,13.388,0.492
		c3.159,0.996,7.994,5.596,23.224,8.415c15.229,2.82,19.061,5.741,29.994,5.547c10.935-0.194,22.064-1.089,22.064-1.089
		l-0.771,10.061c0,0-5.111,1.408-20.613,0.097c-15.502-1.31-17.978-2.438-23.435-4.481c-5.458-2.043-7.161-5.422-16.324-5.74
		c-9.162-0.318-14.777-2.623-18.848-3.295C1097.913,26.833,1094.79,26.691,1091.372,27.436z"/>
	<path fill="#C42722" d="M1084.262,4.748c0,0,4.396,9.653,4.973,12.08c0,0,6.393-0.316,11.447,0.126
		c5.055,0.442,7.258,5.402,25.164,8.78c0,0,17.1,4.435,21.438,4.944c4.338,0.509,23.564,1.245,30.621-0.486l-0.148-2.988
		c0,0-11.446,1.487-13.192,1.112c-1.746-0.375-41.695-9.231-47.864-12.844C1110.531,11.861,1084.262,4.748,1084.262,4.748z"/>
	<g opacity="0.6">
		<path opacity="0.35" fill="#231F20" d="M1095.036,16.577c0,0,47.82,32.186,25.396,44.659c0,0,12.618-2.62,11.37-12.388
			C1130.552,39.079,1105.309,19.308,1095.036,16.577z"/>
		<path opacity="0.35" fill="#231F20" d="M1092.933,23.733c0,0,32.153,32.204-0.668,36.281
			C1092.265,60.014,1119.584,56.456,1092.933,23.733z"/>
		<path opacity="0.35" fill="#231F20" d="M1100.858,16.289c0,0,37.79,21.904,42.544,34.2s-13.896,17.209-20.82,16.938
			c0,0,29.575,4.838,28.495-7.703C1149.997,47.181,1149.408,35.255,1100.858,16.289z"/>
		<path opacity="0.35" fill="#231F20" d="M1096.509,12.19c0,0,65.678,20.566,68.104,35.499c2.427,14.932-4.107,25.699-20.401,25.428
			c0,0,28.818,1.957,29.694-14.521C1174.783,42.118,1158.873,27.851,1096.509,12.19z"/>
	</g>
</g>
<rect x="1079.333" y="3.863" fill="#6D6D6D" width="4.667" height="202.077"/>
<rect x="1080.354" y="3.863" fill="#A5A5A5" width="2.625" height="202.077"/>
<circle fill="#A5A5A5" cx="1081.666" cy="3.863" r="4.631"/>
</svg>
