<?xml version="1.0" encoding="utf-8"?>
<!-- Generator: Adobe Illustrator 18.1.0, SVG Export Plug-In . SVG Version: 6.00 Build 0)  -->
<!DOCTYPE svg PUBLIC "-//W3C//DTD SVG 1.1//EN" "http://www.w3.org/Graphics/SVG/1.1/DTD/svg11.dtd">
<svg version="1.1" id="Layer_1" xmlns="http://www.w3.org/2000/svg" xmlns:xlink="http://www.w3.org/1999/xlink" x="0px" y="0px"
	 viewBox="0 0 238 599" enable-background="new 0 0 238 599" xml:space="preserve">
<g>
	<rect x="41.9" y="411.1" fill="#808285" width="153.2" height="57.7"/>
	<rect x="77.8" y="74.6" fill="#808285" width="79.5" height="40.4"/>
	<polygon fill="#808285" points="147.1,74.6 90.4,74.6 102.1,52.3 136.5,52.3 	"/>
	<rect x="116.8" y="0.5" fill="#2B2B2B" width="4.9" height="52.1"/>
	<rect x="123.8" y="9.6" fill="#2B2B2B" width="1.3" height="43"/>
	<polygon fill="#BFC0C1" points="139.4,58.3 99.1,58.3 102.1,52.3 136.5,52.3 	"/>
	<rect x="63.3" y="102.7" fill="#231F20" width="109.1" height="6.1"/>
	<rect x="63.3" y="107.7" fill="#778A91" width="109.1" height="18.6"/>
	<rect x="63.3" y="122.2" fill="#295460" width="109.1" height="5.8"/>
	<rect x="86.7" y="107.7" fill="#A0B1B5" width="14.4" height="14.5"/>
	<rect x="149.7" y="107.7" fill="#A0B1B5" width="14.4" height="14.5"/>
	<rect x="63.3" y="128" fill="#778A91" width="109.1" height="18.6"/>
	<rect x="63.3" y="142.5" fill="#295460" width="109.1" height="5.8"/>
	<rect x="128.4" y="128" fill="#A0B1B5" width="14.4" height="14.5"/>
	<rect x="63.3" y="148.3" fill="#778A91" width="109.1" height="18.6"/>
	<rect x="63.3" y="162.8" fill="#295460" width="109.1" height="5.8"/>
	<rect x="73.6" y="148.3" fill="#A0B1B5" width="14.4" height="14.5"/>
	<rect x="63.3" y="168.3" fill="#778A91" width="109.1" height="18.6"/>
	<rect x="63.3" y="182.8" fill="#295460" width="109.1" height="5.8"/>
	<rect x="128.4" y="168.3" fill="#A0B1B5" width="14.4" height="14.5"/>
	<rect x="93.9" y="168.3" fill="#A0B1B5" width="14.4" height="14.5"/>
	<rect x="63.3" y="188.6" fill="#778A91" width="109.1" height="18.6"/>
	<rect x="63.3" y="203.1" fill="#295460" width="109.1" height="5.8"/>
	<rect x="144.9" y="188.6" fill="#A0B1B5" width="14.4" height="14.5"/>
	<rect x="105.5" y="188.6" fill="#A0B1B5" width="14.4" height="14.5"/>
	<rect x="63.3" y="208.9" fill="#778A91" width="109.1" height="18.6"/>
	<rect x="63.3" y="223.4" fill="#295460" width="109.1" height="5.8"/>
	<rect x="86.7" y="208.9" fill="#A0B1B5" width="39.9" height="14.5"/>
	<rect x="149.7" y="208.9" fill="#A0B1B5" width="14.4" height="14.5"/>
	<rect x="63.3" y="229.2" fill="#778A91" width="109.1" height="18.6"/>
	<rect x="63.3" y="243.7" fill="#295460" width="109.1" height="5.8"/>
	<rect x="128.4" y="229.2" fill="#A0B1B5" width="14.4" height="14.5"/>
	<rect x="63.3" y="249.5" fill="#778A91" width="109.1" height="18.6"/>
	<rect x="63.3" y="264" fill="#295460" width="109.1" height="5.8"/>
	<rect x="73.6" y="249.5" fill="#A0B1B5" width="14.4" height="14.5"/>
	<rect x="63.3" y="269.4" fill="#778A91" width="109.1" height="18.6"/>
	<rect x="63.3" y="283.9" fill="#295460" width="109.1" height="5.8"/>
	<rect x="128.4" y="269.4" fill="#A0B1B5" width="14.4" height="14.5"/>
	<rect x="67.5" y="269.4" fill="#A0B1B5" width="40.8" height="14.5"/>
	<rect x="63.3" y="289.7" fill="#778A91" width="109.1" height="18.6"/>
	<rect x="63.3" y="304.2" fill="#295460" width="109.1" height="5.8"/>
	<rect x="142" y="289.7" fill="#A0B1B5" width="14.4" height="14.5"/>
	<rect x="74.5" y="289.7" fill="#A0B1B5" width="14.4" height="14.5"/>
	<rect x="63.3" y="310" fill="#778A91" width="109.1" height="18.6"/>
	<rect x="63.3" y="324.5" fill="#295460" width="109.1" height="5.8"/>
	<rect x="86.7" y="310" fill="#A0B1B5" width="14.4" height="14.5"/>
	<rect x="149.7" y="310" fill="#A0B1B5" width="14.4" height="14.5"/>
	<rect x="63.3" y="330.3" fill="#778A91" width="109.1" height="18.6"/>
	<rect x="63.3" y="344.8" fill="#295460" width="109.1" height="5.8"/>
	<rect x="86.7" y="330.3" fill="#A0B1B5" width="56.1" height="14.5"/>
	<rect x="63.3" y="350.6" fill="#778A91" width="109.1" height="18.6"/>
	<rect x="63.3" y="365.1" fill="#295460" width="109.1" height="5.8"/>
	<rect x="73.6" y="350.6" fill="#A0B1B5" width="14.4" height="14.5"/>
	<rect x="63.3" y="370.5" fill="#778A91" width="109.1" height="18.6"/>
	<rect x="63.3" y="385" fill="#295460" width="109.1" height="5.8"/>
	<rect x="128.4" y="370.5" fill="#A0B1B5" width="14.4" height="14.5"/>
	<rect x="93.9" y="370.5" fill="#A0B1B5" width="14.4" height="14.5"/>
	<rect x="63.3" y="390.8" fill="#778A91" width="109.1" height="18.6"/>
	<rect x="63.3" y="405.3" fill="#295460" width="109.1" height="5.8"/>
	<rect x="148.8" y="390.8" fill="#A0B1B5" width="14.4" height="14.5"/>
	<rect x="75.5" y="390.8" fill="#A0B1B5" width="60.9" height="14.5"/>
	<rect x="42.7" y="411.1" fill="#778A91" width="152.5" height="19.2"/>
	<rect x="42.7" y="426.1" fill="#295460" width="152.5" height="6"/>
	<rect x="66.1" y="411.1" fill="#A0B1B5" width="14.4" height="15"/>
	<rect x="129.1" y="411.1" fill="#A0B1B5" width="14.4" height="15"/>
	<rect x="42.7" y="432" fill="#778A91" width="152.5" height="19.2"/>
	<rect x="42.7" y="447" fill="#295460" width="152.5" height="6"/>
	<rect x="107.8" y="432" fill="#A0B1B5" width="14.4" height="15"/>
	<rect x="42.7" y="453" fill="#778A91" width="152.5" height="19.2"/>
	<rect x="41.9" y="467.9" fill="#295460" width="153.2" height="6"/>
	<rect x="53" y="453" fill="#A0B1B5" width="14.4" height="15"/>
	<rect x="1.2" y="473.5" fill="#778A91" width="237.6" height="19.2"/>
	<rect x="1.2" y="488.5" fill="#295460" width="237.6" height="6"/>
	<rect x="1.2" y="494.5" fill="#778A91" width="237.6" height="19.2"/>
	<rect x="1.2" y="509.4" fill="#295460" width="237.6" height="6"/>
	<rect x="165.2" y="453" fill="#A0B1B5" width="14.4" height="15"/>
	<rect x="1.2" y="515.4" fill="#778A91" width="237.6" height="19.2"/>
	<rect x="1.2" y="530.3" fill="#295460" width="237.6" height="6"/>
	<rect x="1.2" y="536.3" fill="#778A91" width="237.6" height="19.2"/>
	<rect x="1.2" y="551.3" fill="#295460" width="237.6" height="6"/>
	<rect x="1.2" y="557.3" fill="#778A91" width="237.6" height="19.2"/>
	<rect x="1.2" y="572.2" fill="#295460" width="237.6" height="6"/>
	<rect x="1.2" y="578.2" fill="#778A91" width="237.6" height="19.2"/>
	<rect x="1.2" y="593.1" fill="#295460" width="237.6" height="6"/>
	<rect x="88.6" y="473.5" fill="#A0B1B5" width="14.4" height="15"/>
	<rect x="151.6" y="473.5" fill="#A0B1B5" width="14.4" height="15"/>
	<rect x="130.3" y="494.5" fill="#A0B1B5" width="84.3" height="15"/>
	<rect x="75.5" y="515.4" fill="#A0B1B5" width="14.4" height="15"/>
	<rect x="187.6" y="515.4" fill="#A0B1B5" width="14.4" height="15"/>
	<rect x="27" y="536.3" fill="#A0B1B5" width="14.4" height="15"/>
	<rect x="90" y="536.3" fill="#A0B1B5" width="14.4" height="15"/>
	<rect x="68.7" y="557.3" fill="#A0B1B5" width="14.4" height="15"/>
	<rect x="13.9" y="578.2" fill="#A0B1B5" width="14.4" height="15"/>
	<rect x="126.1" y="578.2" fill="#A0B1B5" width="14.4" height="15"/>
	<rect x="63.3" y="118.7" fill="#C1C5C6" width="109.1" height="3.5"/>
	<rect x="63.3" y="139.7" fill="#C1C5C6" width="109.1" height="3.5"/>
	<rect x="63.3" y="159.2" fill="#C1C5C6" width="109.1" height="3.5"/>
	<rect x="63.3" y="180.2" fill="#C1C5C6" width="109.1" height="3.5"/>
	<rect x="63.3" y="199.7" fill="#C1C5C6" width="109.1" height="3.5"/>
	<rect x="63.3" y="220.7" fill="#C1C5C6" width="109.1" height="3.5"/>
	<rect x="63.3" y="240.2" fill="#C1C5C6" width="109.1" height="3.5"/>
	<rect x="63.3" y="261.2" fill="#C1C5C6" width="109.1" height="3.5"/>
	<rect x="63.3" y="280.8" fill="#C1C5C6" width="109.1" height="3.5"/>
	<rect x="63.3" y="301.7" fill="#C1C5C6" width="109.1" height="3.5"/>
	<rect x="63.3" y="321.3" fill="#C1C5C6" width="109.1" height="3.5"/>
	<rect x="63.3" y="342.3" fill="#C1C5C6" width="109.1" height="3.5"/>
	<rect x="63.3" y="362.1" fill="#C1C5C6" width="109.1" height="3.5"/>
	<rect x="63.3" y="383.1" fill="#C1C5C6" width="109.1" height="3.5"/>
	<rect x="63.3" y="402.7" fill="#C1C5C6" width="109.1" height="3.5"/>
	<rect x="41.9" y="423.6" fill="#C1C5C6" width="153.2" height="3.5"/>
	<rect x="41.9" y="443.5" fill="#C1C5C6" width="153.2" height="3.5"/>
	<rect x="41.9" y="464.4" fill="#C1C5C6" width="153.2" height="3.5"/>
	<rect x="1.2" y="486.1" fill="#C1C5C6" width="237.6" height="3.5"/>
	<rect x="1.2" y="505.9" fill="#C1C5C6" width="237.6" height="3.5"/>
	<rect x="1.2" y="526.8" fill="#C1C5C6" width="237.6" height="3.5"/>
	<rect x="1.2" y="548.9" fill="#C1C5C6" width="237.6" height="3.5"/>
	<rect x="1.2" y="568.7" fill="#C1C5C6" width="237.6" height="3.5"/>
	<rect x="1.2" y="589.6" fill="#C1C5C6" width="237.6" height="3.5"/>
	<rect x="77.8" y="78.1" fill="#295460" width="79.1" height="5.8"/>
	<rect x="77.8" y="74.6" fill="#C1C5C6" width="79.1" height="3.5"/>
</g>
</svg>
