<?xml version="1.0" encoding="utf-8"?>
<!-- Generator: Adobe Illustrator 18.1.0, SVG Export Plug-In . SVG Version: 6.00 Build 0)  -->
<!DOCTYPE svg PUBLIC "-//W3C//DTD SVG 1.1//EN" "http://www.w3.org/Graphics/SVG/1.1/DTD/svg11.dtd">
<svg version="1.1" id="Layer_1" xmlns="http://www.w3.org/2000/svg" xmlns:xlink="http://www.w3.org/1999/xlink" x="0px" y="0px"
	 viewBox="0 0 213.6 592.3" enable-background="new 0 0 213.6 592.3" xml:space="preserve">
<g>
	<rect x="80.5" fill="#547A6F" width="91.8" height="567.6"/>
	<path fill="#7DAA9B" d="M80.5,0h91.8v67.8C172.4,67.8,133.7,90.9,80.5,0z"/>
	<path fill="#384C46" d="M88.3,567.6c0,0,18.2-78.1,84.1-78.1v78.1H88.3z"/>
	<polygon fill="#AFC6BE" points="159.9,490.5 150.7,492.6 150.7,69.2 159.9,70.4 	"/>
	<polygon fill="#466057" points="122.1,509.1 104.7,529.6 104.7,35.2 122.1,53.2 	"/>
	<polygon fill="#DFEDE6" points="167.3,489.6 163,490 163,70.3 167.3,69.2 	"/>
	<g>
		<rect x="80.5" y="135.1" fill="#1B2622" width="91.8" height="2.6"/>
		<rect x="80.5" y="261" fill="#1B2622" width="91.8" height="2.6"/>
		<rect x="80.5" y="199.8" fill="#1B2622" width="91.8" height="2.6"/>
		<rect x="80.5" y="326" fill="#1B2622" width="91.8" height="2.6"/>
		<rect x="80.5" y="451.9" fill="#1B2622" width="91.8" height="2.6"/>
		<rect x="80.5" y="390.7" fill="#1B2622" width="91.8" height="2.6"/>
	</g>
	<rect x="50.4" y="51.9" fill="#A8A09E" width="30.1" height="459.6"/>
	<rect x="72.7" y="6.4" fill="#1B2622" width="7.9" height="45.5"/>
	<rect x="15.1" y="509.7" fill="#938987" width="65.4" height="32.2"/>
	<rect x="0" y="540.2" fill="#7C6F6D" width="80.5" height="52.2"/>
	<rect x="76.5" y="566.3" fill="#7C6F6D" width="137.4" height="26.1"/>
	<g>
		<rect x="52.1" y="56.3" fill="#75605E" width="7.5" height="7.5"/>
		<rect x="61.8" y="56.3" fill="#75605E" width="7.5" height="7.5"/>
		<rect x="70.8" y="56.3" fill="#75605E" width="7.5" height="7.5"/>
	</g>
	<g>
		<rect x="52.1" y="68" fill="#75605E" width="7.5" height="7.5"/>
		<rect x="61.8" y="68" fill="#75605E" width="7.5" height="7.5"/>
		<rect x="70.8" y="68" fill="#75605E" width="7.5" height="7.5"/>
	</g>
	<g>
		<rect x="52.1" y="79.7" fill="#75605E" width="7.5" height="7.5"/>
		<rect x="61.8" y="79.7" fill="#75605E" width="7.5" height="7.5"/>
		<rect x="70.8" y="79.7" fill="#75605E" width="7.5" height="7.5"/>
	</g>
	<g>
		<rect x="52.1" y="91.3" fill="#75605E" width="7.5" height="7.5"/>
		<rect x="61.8" y="91.3" fill="#75605E" width="7.5" height="7.5"/>
		<rect x="70.8" y="91.3" fill="#75605E" width="7.5" height="7.5"/>
	</g>
	<g>
		<rect x="52.1" y="103" fill="#75605E" width="7.5" height="7.5"/>
		<rect x="61.8" y="103" fill="#75605E" width="7.5" height="7.5"/>
		<rect x="70.8" y="103" fill="#75605E" width="7.5" height="7.5"/>
	</g>
	<g>
		<rect x="52.1" y="114.7" fill="#75605E" width="7.5" height="7.5"/>
		<rect x="61.8" y="114.7" fill="#75605E" width="7.5" height="7.5"/>
		<rect x="70.8" y="114.7" fill="#75605E" width="7.5" height="7.5"/>
	</g>
	<g>
		<rect x="52.1" y="126.4" fill="#75605E" width="7.5" height="7.5"/>
		<rect x="61.8" y="126.4" fill="#75605E" width="7.5" height="7.5"/>
		<rect x="70.8" y="126.4" fill="#75605E" width="7.5" height="7.5"/>
	</g>
	<g>
		<rect x="52.1" y="138.1" fill="#75605E" width="7.5" height="7.5"/>
		<rect x="61.8" y="138.1" fill="#75605E" width="7.5" height="7.5"/>
		<rect x="70.8" y="138.1" fill="#75605E" width="7.5" height="7.5"/>
	</g>
	<g>
		<rect x="52.1" y="149.8" fill="#75605E" width="7.5" height="7.5"/>
		<rect x="61.8" y="149.8" fill="#75605E" width="7.5" height="7.5"/>
		<rect x="70.8" y="149.8" fill="#75605E" width="7.5" height="7.5"/>
	</g>
	<g>
		<rect x="52.1" y="161.5" fill="#75605E" width="7.5" height="7.5"/>
		<rect x="61.8" y="161.5" fill="#75605E" width="7.5" height="7.5"/>
		<rect x="70.8" y="161.5" fill="#75605E" width="7.5" height="7.5"/>
	</g>
	<g>
		<rect x="52.1" y="173.2" fill="#75605E" width="7.5" height="7.5"/>
		<rect x="61.8" y="173.2" fill="#75605E" width="7.5" height="7.5"/>
		<rect x="70.8" y="173.2" fill="#75605E" width="7.5" height="7.5"/>
	</g>
	<g>
		<rect x="52.1" y="184.8" fill="#75605E" width="7.5" height="7.5"/>
		<rect x="61.8" y="184.8" fill="#75605E" width="7.5" height="7.5"/>
		<rect x="70.8" y="184.8" fill="#75605E" width="7.5" height="7.5"/>
	</g>
	<g>
		<rect x="52.1" y="196.5" fill="#75605E" width="7.5" height="7.5"/>
		<rect x="61.8" y="196.5" fill="#75605E" width="7.5" height="7.5"/>
		<rect x="70.8" y="196.5" fill="#75605E" width="7.5" height="7.5"/>
	</g>
	<g>
		<rect x="52.1" y="208.2" fill="#75605E" width="7.5" height="7.5"/>
		<rect x="61.8" y="208.2" fill="#75605E" width="7.5" height="7.5"/>
		<rect x="70.8" y="208.2" fill="#75605E" width="7.5" height="7.5"/>
	</g>
	<g>
		<rect x="52.1" y="219.9" fill="#75605E" width="7.5" height="7.5"/>
		<rect x="61.8" y="219.9" fill="#75605E" width="7.5" height="7.5"/>
		<rect x="70.8" y="219.9" fill="#75605E" width="7.5" height="7.5"/>
	</g>
	<g>
		<rect x="52.1" y="231.6" fill="#75605E" width="7.5" height="7.5"/>
		<rect x="61.8" y="231.6" fill="#75605E" width="7.5" height="7.5"/>
		<rect x="70.8" y="231.6" fill="#75605E" width="7.5" height="7.5"/>
	</g>
	<g>
		<rect x="52.1" y="243.3" fill="#75605E" width="7.5" height="7.5"/>
		<rect x="61.8" y="243.3" fill="#75605E" width="7.5" height="7.5"/>
		<rect x="70.8" y="243.3" fill="#75605E" width="7.5" height="7.5"/>
	</g>
	<g>
		<rect x="52.1" y="255" fill="#75605E" width="7.5" height="7.5"/>
		<rect x="61.8" y="255" fill="#75605E" width="7.5" height="7.5"/>
		<rect x="70.8" y="255" fill="#75605E" width="7.5" height="7.5"/>
	</g>
	<g>
		<rect x="52.1" y="266.7" fill="#75605E" width="7.5" height="7.5"/>
		<rect x="61.8" y="266.7" fill="#75605E" width="7.5" height="7.5"/>
		<rect x="70.8" y="266.7" fill="#75605E" width="7.5" height="7.5"/>
	</g>
	<g>
		<rect x="52.1" y="278.3" fill="#75605E" width="7.5" height="7.5"/>
		<rect x="61.8" y="278.3" fill="#75605E" width="7.5" height="7.5"/>
		<rect x="70.8" y="278.3" fill="#75605E" width="7.5" height="7.5"/>
	</g>
	<g>
		<rect x="52.1" y="290" fill="#75605E" width="7.5" height="7.5"/>
		<rect x="61.8" y="290" fill="#75605E" width="7.5" height="7.5"/>
		<rect x="70.8" y="290" fill="#75605E" width="7.5" height="7.5"/>
	</g>
	<g>
		<rect x="52.1" y="301.7" fill="#75605E" width="7.5" height="7.5"/>
		<rect x="61.8" y="301.7" fill="#75605E" width="7.5" height="7.5"/>
		<rect x="70.8" y="301.7" fill="#75605E" width="7.5" height="7.5"/>
	</g>
	<g>
		<rect x="52.1" y="313.4" fill="#75605E" width="7.5" height="7.5"/>
		<rect x="61.8" y="313.4" fill="#75605E" width="7.5" height="7.5"/>
		<rect x="70.8" y="313.4" fill="#75605E" width="7.5" height="7.5"/>
	</g>
	<g>
		<rect x="52.1" y="325.1" fill="#75605E" width="7.5" height="7.5"/>
		<rect x="61.8" y="325.1" fill="#75605E" width="7.5" height="7.5"/>
		<rect x="70.8" y="325.1" fill="#75605E" width="7.5" height="7.5"/>
	</g>
	<g>
		<rect x="52.1" y="336.8" fill="#75605E" width="7.5" height="7.5"/>
		<rect x="61.8" y="336.8" fill="#75605E" width="7.5" height="7.5"/>
		<rect x="70.8" y="336.8" fill="#75605E" width="7.5" height="7.5"/>
	</g>
	<g>
		<rect x="52.1" y="348.5" fill="#75605E" width="7.5" height="7.5"/>
		<rect x="61.8" y="348.5" fill="#75605E" width="7.5" height="7.5"/>
		<rect x="70.8" y="348.5" fill="#75605E" width="7.5" height="7.5"/>
	</g>
	<g>
		<rect x="52.1" y="360.2" fill="#75605E" width="7.5" height="7.5"/>
		<rect x="61.8" y="360.2" fill="#75605E" width="7.5" height="7.5"/>
		<rect x="70.8" y="360.2" fill="#75605E" width="7.5" height="7.5"/>
	</g>
	<g>
		<rect x="52.1" y="371.8" fill="#75605E" width="7.5" height="7.5"/>
		<rect x="61.8" y="371.8" fill="#75605E" width="7.5" height="7.5"/>
		<rect x="70.8" y="371.8" fill="#75605E" width="7.5" height="7.5"/>
	</g>
	<g>
		<rect x="52.1" y="383.5" fill="#75605E" width="7.5" height="7.5"/>
		<rect x="61.8" y="383.5" fill="#75605E" width="7.5" height="7.5"/>
		<rect x="70.8" y="383.5" fill="#75605E" width="7.5" height="7.5"/>
	</g>
	<g>
		<rect x="52.1" y="395.2" fill="#75605E" width="7.5" height="7.5"/>
		<rect x="61.8" y="395.2" fill="#75605E" width="7.5" height="7.5"/>
		<rect x="70.8" y="395.2" fill="#75605E" width="7.5" height="7.5"/>
	</g>
	<g>
		<rect x="52.1" y="406.9" fill="#75605E" width="7.5" height="7.5"/>
		<rect x="61.8" y="406.9" fill="#75605E" width="7.5" height="7.5"/>
		<rect x="70.8" y="406.9" fill="#75605E" width="7.5" height="7.5"/>
	</g>
	<g>
		<rect x="52.1" y="418.6" fill="#75605E" width="7.5" height="7.5"/>
		<rect x="61.8" y="418.6" fill="#75605E" width="7.5" height="7.5"/>
		<rect x="70.8" y="418.6" fill="#75605E" width="7.5" height="7.5"/>
	</g>
	<g>
		<rect x="52.1" y="430.3" fill="#75605E" width="7.5" height="7.5"/>
		<rect x="61.8" y="430.3" fill="#75605E" width="7.5" height="7.5"/>
		<rect x="70.8" y="430.3" fill="#75605E" width="7.5" height="7.5"/>
	</g>
	<g>
		<rect x="52.1" y="442" fill="#75605E" width="7.5" height="7.5"/>
		<rect x="61.8" y="442" fill="#75605E" width="7.5" height="7.5"/>
		<rect x="70.8" y="442" fill="#75605E" width="7.5" height="7.5"/>
	</g>
	<g>
		<rect x="52.1" y="453.7" fill="#75605E" width="7.5" height="7.5"/>
		<rect x="61.8" y="453.7" fill="#75605E" width="7.5" height="7.5"/>
		<rect x="70.8" y="453.7" fill="#75605E" width="7.5" height="7.5"/>
	</g>
	<g>
		<rect x="52.1" y="465.3" fill="#75605E" width="7.5" height="7.5"/>
		<rect x="61.8" y="465.3" fill="#75605E" width="7.5" height="7.5"/>
		<rect x="70.8" y="465.3" fill="#75605E" width="7.5" height="7.5"/>
	</g>
	<g>
		<rect x="52.1" y="477" fill="#75605E" width="7.5" height="7.5"/>
		<rect x="61.8" y="477" fill="#75605E" width="7.5" height="7.5"/>
		<rect x="70.8" y="477" fill="#75605E" width="7.5" height="7.5"/>
	</g>
	<g>
		<rect x="52.1" y="488.7" fill="#75605E" width="7.5" height="7.5"/>
		<rect x="61.8" y="488.7" fill="#75605E" width="7.5" height="7.5"/>
		<rect x="70.8" y="488.7" fill="#75605E" width="7.5" height="7.5"/>
	</g>
	<g>
		<rect x="52.1" y="500.4" fill="#75605E" width="7.5" height="7.5"/>
		<rect x="61.8" y="500.4" fill="#75605E" width="7.5" height="7.5"/>
		<rect x="70.8" y="500.4" fill="#75605E" width="7.5" height="7.5"/>
	</g>
</g>
</svg>
