<?xml version="1.0" encoding="utf-8"?>
<!-- Generator: Adobe Illustrator 18.1.0, SVG Export Plug-In . SVG Version: 6.00 Build 0)  -->
<!DOCTYPE svg PUBLIC "-//W3C//DTD SVG 1.1//EN" "http://www.w3.org/Graphics/SVG/1.1/DTD/svg11.dtd">
<svg version="1.1" id="Layer_1" xmlns="http://www.w3.org/2000/svg" xmlns:xlink="http://www.w3.org/1999/xlink" x="0px" y="0px"
	 viewBox="0 0 54 12" enable-background="new 0 0 54 12" xml:space="preserve">
<g>
	<g>
		<polyline fill="#00285E" points="16,0 20,1.8 14.6,4 16,0 		"/>
		<path fill="#00285E" d="M17,4.3c-0.6,1.5-0.9,2.6-1.5,4.2c-0.2,0.4-0.4,1.3-0.8,1.4c-0.1,0-0.2,0-0.4,0c-0.2,0-0.5,0-0.7,0
			c-0.4,0-0.7,0-1.1,0l1.6-4.7L17,4.3"/>
		<path fill-rule="evenodd" clip-rule="evenodd" fill="#00285E" d="M11.4,0.3c-0.3,0.6-0.6,1.3-1.4,1.4c-0.9,0.1-2.2,0-3.2,0
			c-1,2.7-2,5.6-3,8.4c-0.1,0.4-0.3,0.9-0.5,1.1c-0.5,0.4-1.7,0.1-2.5,0.2c1.1-3.2,2.3-6.5,3.5-9.7c-1.4,0-2.8,0-4.1,0
			c0.3-0.8,0.7-1.3,1.7-1.4c0.8,0,1.6,0,2.4,0C6.6,0.3,9.1,0.3,11.4,0.3z"/>
		<path fill-rule="evenodd" clip-rule="evenodd" fill="#00285E" d="M28.2,1.1c-0.9,2.5-1.8,5.2-2.8,7.8c-0.1,0.4-0.4,0.8-0.6,0.9
			c-0.5,0.2-1.5,0-2.1,0.1c0.1-0.2,0.2-0.5,0.3-0.7c-0.9,0.8-2.6,1.3-4.1,0.9c-0.7-0.2-1.3-0.5-1.5-1.1c-0.3-0.6-0.3-1.5,0-2.3
			c0.4-1.3,1.4-2.2,2.6-2.8c1.1-0.5,3.2-0.9,4.3-0.1c0.2,0.2,0.4,0.4,0.5,0.7c0.3-0.7,0.6-1.6,0.9-2.4c0.1-0.2,0.2-0.6,0.4-0.7
			C26.3,1,27.3,1.2,28.2,1.1z M20.2,5.7c-0.4,0.4-0.8,1.2-0.9,2c-0.1,1.8,2.5,1.5,3.4,0.8c0.5-0.4,1-1.3,1-2.1
			c0.1-1.2-0.6-1.7-1.7-1.6C21.3,4.7,20.6,5.2,20.2,5.7z"/>
		<path fill-rule="evenodd" clip-rule="evenodd" fill="#00285E" d="M52.4,2.1c-0.2,0.6-0.4,1.2-0.6,1.7c0.8,0,1.5,0,2.3,0
			c-0.1,0.2-0.2,0.5-0.3,0.6c-0.5,0.4-1.4,0.2-2.2,0.3c-0.3,0.8-0.8,2-1.1,2.9c-0.2,0.6-0.5,1.7,0.1,2c0.3,0.2,0.9,0.1,1.3,0
			c0.1,0,0,0.1-0.1,0.1c-0.4,0.4-0.9,0.6-1.6,0.7c-1.3,0.2-2.6-0.1-2.5-1.5c0-0.4,0.2-0.8,0.3-1.1c0.4-1,0.8-2.2,1.1-3.2
			c-0.6,0-1.2,0-1.7,0c0.2-0.8,1-1,2-0.9c0.2-0.5,0.3-0.9,0.5-1.3C50.3,1.9,51.3,2.1,52.4,2.1z"/>
		<path fill-rule="evenodd" clip-rule="evenodd" fill="#00285E" d="M42.8,9.9c0.3-1,0.7-2.1,1.1-3.1c0.2-0.5,0.6-1.5,0-1.8
			c-0.3-0.2-0.7-0.2-1.1-0.2c-1.9,0.1-2.4,1.7-2.9,3.2c-0.1,0.3-0.2,0.6-0.3,0.9c-0.1,0.4-0.2,0.8-0.5,0.9c-0.5,0.3-1.7,0-2.4,0.1
			c0.5-1.5,1.1-3.1,1.7-4.7c0.2-0.5,0.3-1.1,0.7-1.4c0.5-0.4,1.6-0.2,2.4-0.2c-0.1,0.3-0.2,0.7-0.4,1c0,0,0,0,0,0
			c0.5-0.5,1.2-0.9,2.1-1.2c0.9-0.2,2-0.3,2.8,0.1c0.5,0.3,1,0.8,1,1.6c0,0.4-0.2,0.9-0.3,1.3c-0.3,0.8-0.6,1.5-0.9,2.4
			c-0.2,0.5-0.3,1-0.9,1.1C44.2,9.9,43.4,9.8,42.8,9.9z"/>
		<path fill-rule="evenodd" clip-rule="evenodd" fill="#00285E" d="M36.4,6.9c-2.1,0-4.3,0-6.4,0c-0.2,0.4-0.2,0.9,0,1.3
			c0.8,1.7,4.2,0.9,5.6,0.3c-0.3,0.6-0.9,1-1.5,1.3c-0.7,0.3-1.5,0.5-2.3,0.5c-1.8,0.1-3.5-0.4-4.2-1.5c-0.4-0.7-0.3-1.6-0.1-2.3
			c0.8-2,2.8-3.1,5.4-3.3c1.7-0.1,3.2,0.3,3.8,1.3C37,5.2,37,6.4,36.4,6.9z M33,4.2c-1.3,0.1-2.2,0.9-2.6,1.8c1.4,0,2.8,0,4.2,0
			C34.8,4.7,34.2,4.1,33,4.2z"/>
		<path fill-rule="evenodd" clip-rule="evenodd" fill="#00285E" d="M14.2,3.4C14,3.7,13.9,3.8,13.7,4c-0.1,0.2-0.3,0.5-0.5,0.6
			c-0.3,0.1-0.6,0-0.9,0c-0.3,0-0.6,0-0.9,0.1c-0.6,0.1-1.1,0.5-1.4,0.8C9.7,5.9,9.4,6.3,9.2,6.8c-0.2,0.5-0.4,1-0.6,1.6
			C8.5,8.9,8.3,9.7,7.9,9.8c-0.3,0.1-0.8,0-1.1,0c-0.4,0-0.8,0-1.2,0c0.5-1.3,1-2.9,1.5-4.4c0.2-0.5,0.3-1,0.5-1.4
			c0.4-0.7,1.6-0.5,2.7-0.5c-0.1,0.4-0.3,0.7-0.4,1.1c0,0,0,0,0,0c0.6-0.8,1.6-1.2,2.9-1.4C13.3,3.3,13.7,3.3,14.2,3.4z"/>
	</g>
</g>
</svg>
