<?xml version="1.0" encoding="utf-8"?>
<!-- Generator: Adobe Illustrator 18.1.0, SVG Export Plug-In . SVG Version: 6.00 Build 0)  -->
<!DOCTYPE svg PUBLIC "-//W3C//DTD SVG 1.1//EN" "http://www.w3.org/Graphics/SVG/1.1/DTD/svg11.dtd">
<svg version="1.1" id="Layer_1" xmlns="http://www.w3.org/2000/svg" xmlns:xlink="http://www.w3.org/1999/xlink" x="0px" y="0px"
	 viewBox="0 0 226.5 529.5" enable-background="new 0 0 226.5 529.5" xml:space="preserve">
<g>
	<path fill="#C5C5C7" d="M137,208.7c-20.1,7.1-47.5,9.6-71.8-0.8c-2.7-1.2-34.7,321.6-34.7,321.6h119.8L137,208.7z"/>
	<path fill="#545554" d="M134.6,209.5c-19.9,6.4-46,8.4-69.4-1.6c-0.6-0.3-2.8,16.6-5.8,42.8l78.5,35.6L134.6,209.5z"/>
	<path fill="#848486" d="M193.2,529.5l-35.1-331.7c-5.2,4-12.5,7.9-21.1,10.9l13.3,320.8H193.2z"/>
	<path fill="#545554" d="M158.1,197.8c-4.6,3.6-11,7.1-18.6,10l-0.8,0.8l1.4,50.7l22.7-16.4L158.1,197.8z"/>
	<path fill="#C5C5C7" d="M158.9,2.1l0.2,0.2c-10.2-0.2-22.2,1.5-34.3,4.4l-0.1-0.1c-22.2,5.3-46.1,16.3-68.2,36.1
		c-0.2,0.2-0.4,0.4-0.7,0.6c-2,1.8-4,3.6-5.9,5.6c0,0-0.1,0.1-0.1,0.1c0,0-0.1,0-0.1,0.1c-0.2,0.2-0.3,0.3-0.5,0.5
		c-1.6,1.6-3.1,3.2-4.6,4.8c-0.8,0.9-1.6,1.7-2.3,2.6c-0.8,0.9-1.5,1.8-2.3,2.7c-56.1,66.2-36.3,147.2-28.5,155.1
		c7.8,7.8,90.8,30,157.4-25.7c0.9-0.7,1.8-1.5,2.7-2.3c0.9-0.8,1.7-1.5,2.6-2.3c1.6-1.5,3.2-3,4.8-4.6c0.2-0.2,0.4-0.3,0.5-0.5
		c0,0,0.1-0.1,0.1-0.1c0,0,0.1-0.1,0.1-0.1c2-2,3.8-3.9,5.6-5.9c0.2-0.2,0.4-0.4,0.6-0.6c19.9-22.1,30.7-46.3,35.7-68.7l-0.1-0.1
		c2.7-12.2,4.3-24.4,3.9-34.8l0.2,0.2c0.2-29.8-7.5-52.3-11.5-56.3C210.1,8.7,188.1,1.4,158.9,2.1z"/>
	<path fill="#C5C5C7" d="M30.5,92.2"/>
	<path fill="#929395" d="M214.1,12.7c-4-4-26-11.3-55.2-10.6l0.2,0.2c-7.8-0.2-16.7,0.7-25.8,2.4c40.4,34.1,88.6,112.8,3.8,203.8
		h1.8c10.2-4,20.4-11.5,30.2-19.7c0.9-0.7,1.8-1.4,2.7-2.2c0.9-0.8,1.7-1.5,2.6-2.3c1.6-1.5,3.2-3,4.8-4.6c0.2-0.2,0.4-0.3,0.5-0.5
		c0,0,0.1-0.1,0.1-0.1c0,0,0.1-0.1,0.1-0.1c2-2,3.8-3.9,5.6-5.9c0.2-0.2,0.4-0.4,0.6-0.6c19.9-22.1,30.7-46.3,35.7-68.7l-0.1-0.1
		c2.7-12.2,4.3-24.4,3.9-34.8l0.2,0.2C225.9,39.3,218.1,16.7,214.1,12.7z"/>
	<path fill="#FFFFFF" d="M209,9.8c-0.7-0.3-1.4-0.6-2.3-0.9c-1.6-0.2-3.2-0.4-4.8-0.6l0.2,0.2c-11-1.7-24.2-1.6-37.6-0.2l-0.1-0.2
		c-24.7,2.5-52.1,11-78.8,29.3c-0.3,0.2-0.5,0.4-0.8,0.5c-2.4,1.7-4.8,3.4-7.2,5.2c-0.1,0-0.1,0.1-0.1,0.1c0,0-0.1,0-0.1,0.1
		c-0.2,0.2-0.4,0.3-0.6,0.5c-1.9,1.5-3.8,3-5.6,4.6c-1,0.8-1.9,1.6-2.9,2.5c-1,0.8-1.9,1.7-2.9,2.6C-0.1,112.9,4.2,195.6,11,214.1
		c0.2,0.2,0.3,0.4,0.5,0.6c0.5,0.5,1.2,1,2.1,1.5C7.7,190.4,8.2,113,70.8,56.2c1-0.9,1.9-1.8,2.9-2.6c1-0.8,2-1.7,3-2.5
		c1.9-1.6,3.8-3.1,5.8-4.7c0.2-0.2,0.4-0.3,0.6-0.5c0,0,0.1,0,0.1-0.1c0.1,0,0.1-0.1,0.1-0.1c2.5-1.9,4.9-3.6,7.4-5.3
		c0.3-0.2,0.5-0.4,0.8-0.6C119,21,147.1,12.3,172.5,9.7l0.1,0.2C185.5,8.5,198.2,8.3,209,9.8z"/>
	<path fill="#848486" d="M212.5,11.5c-0.4-0.2-0.8-0.5-1.3-0.8c-2.5-0.4-5-0.7-7.6-1l0.2,0.2c-11-1.7-24.2-1.6-37.6-0.2l-0.1-0.2
		c-24.7,2.5-52.1,11-78.8,29.3c-0.3,0.2-0.5,0.4-0.8,0.5c-2.4,1.7-4.8,3.4-7.2,5.2c-0.1,0-0.1,0.1-0.1,0.1c0,0-0.1,0-0.1,0.1
		c-0.2,0.2-0.4,0.3-0.6,0.5c-1.9,1.5-3.8,3-5.6,4.6c-1,0.8-1.9,1.6-2.9,2.5c-1,0.8-1.9,1.7-2.9,2.6C1.5,114.3,5.6,196.7,12.4,215.4
		c0.6,0.4,1.5,0.9,2.5,1.4c-5.7-26.5-4.6-103,57.4-159.1c1-0.9,1.9-1.8,2.9-2.6c1-0.8,2-1.7,3-2.5c1.9-1.6,3.8-3.1,5.8-4.7
		c0.2-0.2,0.4-0.3,0.6-0.5c0,0,0.1,0,0.1-0.1c0.1,0,0.1-0.1,0.1-0.1c2.5-1.9,4.9-3.6,7.4-5.3c0.3-0.2,0.5-0.4,0.8-0.6
		c27.5-18.8,55.6-27.5,80.9-30.1l0.1,0.2C187.8,9.9,201.3,9.8,212.5,11.5z"/>
	<path fill="#C5C5C7" d="M217,17.6c-1.1-2.3-2.1-4-2.9-4.8c-0.2-0.2-0.4-0.4-0.6-0.6c6.4,23.3,7.7,103.6-56.7,162
		c-1,0.9-1.9,1.8-2.9,2.6c-1,0.8-2,1.7-3,2.5c-1.9,1.6-3.8,3.1-5.8,4.7c-0.2,0.2-0.4,0.3-0.6,0.5c0,0-0.1,0-0.1,0.1
		c-0.1,0-0.1,0.1-0.1,0.1c-2.5,1.9-4.9,3.6-7.4,5.3c-0.3,0.2-0.5,0.4-0.8,0.6c-27.5,18.8-55.6,27.5-80.9,30.1l-0.1-0.2
		c-9,0.9-17.9,1.3-26.1,1c2.1,0.5,4.2,1,6.6,1.4c8.6,0.5,18,0.1,27.5-0.9l0.1,0.2c24.7-2.5,52.1-11,78.8-29.3
		c0.3-0.2,0.5-0.4,0.8-0.5c2.4-1.7,4.8-3.4,7.2-5.2c0.1,0,0.1-0.1,0.1-0.1c0,0,0.1,0,0.1-0.1c0.2-0.2,0.4-0.3,0.6-0.5
		c1.9-1.5,3.8-3,5.6-4.6c1-0.8,1.9-1.6,2.9-2.5c1-0.8,1.9-1.7,2.9-2.6C226.4,118.7,223.6,38.2,217,17.6z"/>
	<path fill="#848486" d="M214.2,12.8C214.2,12.8,214.1,12.8,214.2,12.8c-0.5-0.5-1.2-1-2.1-1.5c6.2,24.1,7,103.5-56.8,161.4
		c-1,0.9-1.9,1.8-2.9,2.6c-1,0.8-2,1.7-3,2.5c-1.9,1.6-3.8,3.1-5.8,4.7c-0.2,0.2-0.4,0.3-0.6,0.5c0,0-0.1,0-0.1,0.1
		c-0.1,0-0.1,0.1-0.1,0.1c-2.5,1.9-4.9,3.6-7.4,5.3c-0.3,0.2-0.5,0.4-0.8,0.6c-27.5,18.8-55.6,27.5-80.9,30.1l-0.1-0.2
		c-10.9,1.1-21.5,1.4-31.1,0.7c1,0.3,2,0.6,3.1,0.9c10.6,1.4,23.2,1.3,36-0.1l0.1,0.2c24.7-2.5,52.1-11,78.8-29.3
		c0.3-0.2,0.5-0.4,0.8-0.5c2.4-1.7,4.8-3.4,7.2-5.2c0.1,0,0.1-0.1,0.1-0.1c0,0,0.1,0,0.1-0.1c0.2-0.2,0.4-0.3,0.6-0.5
		c1.9-1.5,3.8-3,5.6-4.6c1-0.8,1.9-1.6,2.9-2.5c1-0.8,1.9-1.7,2.9-2.6C229.1,113.4,221.4,26.1,214.2,12.8z"/>
</g>
</svg>
