<?xml version="1.0" encoding="utf-8"?>
<!-- Generator: Adobe Illustrator 18.1.0, SVG Export Plug-In . SVG Version: 6.00 Build 0)  -->
<!DOCTYPE svg PUBLIC "-//W3C//DTD SVG 1.1//EN" "http://www.w3.org/Graphics/SVG/1.1/DTD/svg11.dtd">
<svg version="1.1" id="Layer_1" xmlns="http://www.w3.org/2000/svg" xmlns:xlink="http://www.w3.org/1999/xlink" x="0px" y="0px"
	 viewBox="0 0 525 497" enable-background="new 0 0 525 497" xml:space="preserve">
<g>
	<g>
		<g>
			<circle fill="#FFFFFF" cx="396.8" cy="241.8" r="0.9"/>
			<path fill="#FFFFFF" d="M409.2,291.8h0.8c0.6,0,1-0.5,1-1v-22.3c0-0.6-0.5-1-1-1h-0.7v-79.8c0-10.8-8.8-19.6-19.6-19.6H369v-0.3
				c0-0.6-0.5-1-1-1h-12.3c-0.6,0-1,0.5-1,1v0.3h-15.6v-0.3c0-0.6-0.5-1-1-1h-8.7c-0.6,0-1,0.5-1,1v0.3H313v-0.3c0-0.6-0.5-1-1-1
				h-8.5c-0.6,0-1,0.5-1,1v0.3H121.3c-10.8,0-19.6,8.8-19.6,19.6v102.7c0,10.8,8.8,19.6,19.6,19.6h268.4
				C399.9,309.8,408.4,301.9,409.2,291.8z M399.7,241.8c0,1.6-1.3,2.8-2.8,2.8c-1.6,0-2.8-1.3-2.8-2.8c0-1.6,1.3-2.8,2.8-2.8
				C398.4,239,399.7,240.3,399.7,241.8z M385.6,227.9c1.3,0,2.4,1.1,2.4,2.4v23c0,1.3-1.1,2.4-2.4,2.4h-1c-1.3,0-2.4-1.1-2.4-2.4
				v-23c0-1.3,1.1-2.4,2.4-2.4H385.6z M107.7,239c0-7.7,6.3-14,14-14c7.7,0,14,6.3,14,14c0,7.7-6.3,14-14,14
				C113.9,253,107.7,246.7,107.7,239z M143.6,302.1V175.7h225.1v126.4C368.6,302.1,143.6,302.1,143.6,302.1z"/>
		</g>
		<path fill="#FFFFFF" d="M126.7,241.9v-6.1c0-1.3-1.1-2.4-2.4-2.4h-6.2c-1.3,0-2.4,1.1-2.4,2.4v6.1c0,1.3,1.1,2.4,2.4,2.4h6.2
			C125.7,244.3,126.7,243.3,126.7,241.9z M118.7,243.4c-1.1,0-1.9-0.9-1.9-1.9v-4.9c0-1.1,0.9-1.9,1.9-1.9h5c1.1,0,1.9,0.9,1.9,1.9
			v4.9c0,1.1-0.9,1.9-1.9,1.9H118.7z"/>
	</g>
	<path fill="none" d="M247.4,113h23c1.3,0,2.6-1.7,2.6-3.1v-1c0-1.3-1.3-1.9-2.6-1.9h-23c-1.3,0-2.4,0.6-2.4,1.9v1
		C245,111.3,246.1,113,247.4,113z"/>
	<path fill="none" d="M259,100.5c1.6,0,2.8-1.3,2.8-2.8c0-1.6-1.3-2.8-2.8-2.8c-1.6,0-2.8,1.3-2.8,2.8
		C256.1,99.3,257.4,100.5,259,100.5z M259,96.8c0.5,0,0.9,0.4,0.9,0.9c0,0.5-0.4,0.9-0.9,0.9s-0.9-0.4-0.9-0.9
		C258,97.2,258.4,96.8,259,96.8z"/>
	<path fill="none" d="M193,126v50h126c0-17,0-50,0-50H193z"/>
	<path fill="none" d="M193,351h126c0,0,0-32,0-48H193V351z"/>
	<path fill="none" d="M258.6,369h-4.9c-1.1,0-1.7,0.7-1.7,1.8v5c0,1.1,0.6,2.2,1.7,2.2h4.9c1.1,0,2.4-1.1,2.4-2.2v-5
		C261,369.7,259.7,369,258.6,369z"/>
	<path fill="none" d="M256.1,358.9c-7.7,0-14,6.3-14,14c0,7.7,6.3,14,14,14c7.7,0,14-6.3,14-14C270.1,365.2,263.9,358.9,256.1,358.9
		z M262,376.4c0,1.3-1.6,2.6-2.9,2.6H253c-1.3,0-2-1.3-2-2.6v-6.2c0-1.3,0.6-2.2,2-2.2h6.1c1.3,0,2.9,0.9,2.9,2.2V376.4z"/>
	<circle fill="none" stroke="#FFFFFF" stroke-width="3" stroke-miterlimit="10" cx="259" cy="97.7" r="0.9"/>
	<path fill="none" stroke="#FFFFFF" stroke-width="3" stroke-miterlimit="10" d="M319.5,351.5h-127v-44h-7v65.8
		c0,10.8,8.4,20.2,19.2,20.2h102.7c10.8,0,20.2-9.4,20.2-20.2v-65.8h-8C319.5,324.5,319.5,351.5,319.5,351.5z M256.1,386.9
		c-7.7,0-14-6.3-14-14c0-7.7,6.3-14,14-14c7.7,0,14,6.3,14,14C270.1,380.6,263.9,386.9,256.1,386.9z"/>
	<path fill="none" stroke="#FFFFFF" stroke-width="3" stroke-miterlimit="10" d="M192.5,126.5h127c0,0,0,29,0,46h8v-67.6
		c0-10.3-8-18.7-18-19.5v-0.8c0-0.6-1-0.1-1.6-0.1h-22.3c-0.6,0-1.1-0.5-1.1,0.1v0.9h-79.8c-10.8,0-19.2,8.6-19.2,19.4v20.6h-0.7
		c-0.6,0-1.3,0.5-1.3,1v12.3c0,0.6,0.7,1.7,1.3,1.7h0.7v15h-0.7c-0.6,0-1.3,0.4-1.3,1v8.7c0,0.6,0.7,1.4,1.3,1.4h0.7v6h7V126.5z
		 M259,94.9c1.6,0,2.8,1.3,2.8,2.8c0,1.6-1.3,2.8-2.8,2.8c-1.6,0-2.8-1.3-2.8-2.8C256.1,96.1,257.4,94.9,259,94.9z M245.5,108.9
		c0-1.3,0.6-2.4,1.9-2.4h23c1.3,0,2.1,1.1,2.1,2.4v1c0,1.3-0.8,2.6-2.1,2.6h-23c-1.3,0-1.9-1.2-1.9-2.6V108.9z"/>
	<path fill="none" stroke="#FFFFFF" stroke-width="3" stroke-miterlimit="10" d="M259.1,368.5H253c-1.3,0-2.5,0.4-2.5,1.7v6.2
		c0,1.3,1.1,3.1,2.5,3.1h6.1c1.3,0,2.4-1.8,2.4-3.1v-6.2C261.5,368.9,260.4,368.5,259.1,368.5z M260.5,375.8c0,1.1-0.8,2.7-1.9,2.7
		h-4.9c-1.1,0-2.2-1.6-2.2-2.7v-5c0-1.1,1.1-1.3,2.2-1.3h4.9c1.1,0,1.9,0.2,1.9,1.3V375.8z"/>
	<g>
		<path fill="#FFFFFF" d="M499.5,234.2c-3.5-58.9-28.8-114-71-155.3c-42.3-41.3-98.2-65.2-157.2-67.2l0.2-6
			c60.6,2.1,117.8,26.5,161.2,68.9c43.3,42.3,69.2,98.8,72.8,159.2L499.5,234.2z"/>
		<g>
			<path fill="#FFFFFF" d="M525.1,212.2l-4.7-3.7l-18.3,23.2l-19.6-18c-1.2-1.1-3.1-1-4.2,0.2h0c-1.1,1.2-1,3.1,0.2,4.2l22,20.1
				c1.3,1.2,3.3,1,4.4-0.4L525.1,212.2z"/>
		</g>
		<g>
			<circle fill="#FFFFFF" cx="271.7" cy="8.8" r="8.8"/>
		</g>
	</g>
	<g>
		<path fill="#FFFFFF" d="M250.6,491.2c-0.1,0-0.1,0-0.2,0C121.2,484.6,19.9,378,19.9,248.5c0-0.8,0-1.7,0-2.5c0-1.7,1.4-3,3-3
			c1.7,0,3,1.4,3,3c0,0.8,0,1.6,0,2.5c0,126.3,98.7,230.3,224.8,236.7c1.7,0.1,2.9,1.5,2.8,3.1C253.5,489.9,252.1,491.2,250.6,491.2
			z"/>
		<g>
			<path fill="#FFFFFF" d="M1,268.1L1,268.1c1.2,1.1,3.1,1,4.2-0.2L21,250.7c1.2-1.3,3.2-1.3,4.4,0l16,17c1.1,1.2,3,1.3,4.2,0.1h0
				c1.2-1.1,1.3-3,0.1-4.2l-20.5-21.7c-1.2-1.3-3.2-1.3-4.4,0l-20.1,22C-0.3,265.1-0.2,267,1,268.1z"/>
		</g>
		<g>
			<circle fill="#FFFFFF" cx="250.1" cy="488.1" r="8.8"/>
		</g>
	</g>
</g>
</svg>
