<?xml version="1.0" encoding="utf-8"?>
<!-- Generator: Adobe Illustrator 18.1.0, SVG Export Plug-In . SVG Version: 6.00 Build 0)  -->
<!DOCTYPE svg PUBLIC "-//W3C//DTD SVG 1.1//EN" "http://www.w3.org/Graphics/SVG/1.1/DTD/svg11.dtd">
<svg version="1.1" id="Layer_1" xmlns="http://www.w3.org/2000/svg" xmlns:xlink="http://www.w3.org/1999/xlink" x="0px" y="0px"
	 viewBox="0 0 78.1 49.7" enable-background="new 0 0 78.1 49.7" xml:space="preserve">
<g id="Layer_2_1_">
	<path d="M74.5,0H3.5C1.6,0,0,1.6,0,3.5v37.2c0,2,1.6,3.5,3.5,3.5h70.9c2,0,3.5-1.6,3.5-3.5V3.5C78,1.6,76.4,0,74.5,0z M74.5,32.3
		c0,3.2,0,3.2-3.5,3.2H7.1c-3.5,0-3.5,0-3.5-3.2V6.7c0-3.2,0-3.2,3.5-3.2h63.8c3.5,0,3.5,0,3.5,3.2V32.3z"/>
</g>
<g id="Layer_3_1_">
	<rect x="21.3" y="47.9" width="35.5" height="1.8"/>
</g>
</svg>
