<?xml version="1.0" encoding="utf-8"?>
<!-- Generator: Adobe Illustrator 18.1.0, SVG Export Plug-In . SVG Version: 6.00 Build 0)  -->
<!DOCTYPE svg PUBLIC "-//W3C//DTD SVG 1.1//EN" "http://www.w3.org/Graphics/SVG/1.1/DTD/svg11.dtd">
<svg version="1.1" id="Layer_1" xmlns="http://www.w3.org/2000/svg" xmlns:xlink="http://www.w3.org/1999/xlink" x="0px" y="0px"
	 viewBox="0 0 55.7 55.9" enable-background="new 0 0 55.7 55.9" xml:space="preserve">
<g>
	<path fill="#0068A5" d="M31,31V0.6c-1-0.1-2-0.1-2.9-0.1C12.9,0.5,0.5,12.7,0.5,27.9c0,1.1,0,2.1,0.1,3.1H31z"/>
	<rect x="4.7" y="42.6" fill="none" width="46.6" height="0"/>
	<rect x="30.6" y="7.6" fill="none" width="15.8" height="0"/>
	<rect x="7.6" y="46.5" fill="none" width="40.7" height="0"/>
	<rect x="30.6" y="23.2" fill="none" width="24.4" height="0"/>
	<rect x="2.6" y="38.8" fill="none" width="50.7" height="0"/>
	<rect x="1.3" y="34.9" fill="none" width="53.3" height="0"/>
	<rect x="30.6" y="3.7" fill="none" width="10.2" height="0"/>
	<rect x="30.6" y="19.3" fill="none" width="23.4" height="0"/>
	<rect x="30.6" y="15.4" fill="none" width="21.8" height="0"/>
	<rect x="30.6" y="11.5" fill="none" width="19.3" height="0"/>
	<rect x="12" y="50.4" fill="none" width="31.9" height="0"/>
	<rect x="30.6" y="31" fill="none" width="24.7" height="0"/>
	<rect x="43.1" y="14.6" fill="none" width="0" height="24.9"/>
	<rect x="19.9" y="54.3" fill="none" width="16.3" height="0"/>
	<path fill="#EC1C24" d="M28,55.6c2.8,0,5.6-0.4,8.1-1.2H19.9C22.4,55.1,25.2,55.6,28,55.6z"/>
	<path fill="#EC1C24" d="M12,50.4h31.9c1.6-1.1,3.1-2.4,4.4-3.9H7.6C9,48,10.4,49.3,12,50.4z"/>
	<path fill="#EC1C24" d="M4.7,42.6h46.6c0.8-1.2,1.5-2.5,2-3.9H2.6C3.2,40.1,3.9,41.4,4.7,42.6z"/>
	<path fill="#EC1C24" d="M30.6,31h-30c0.1,1.1,0.3,2.1,0.5,3.2c0.1,0.2,0.1,0.5,0.2,0.7h53.3c0.1-0.2,0.1-0.5,0.2-0.7
		c0.2-1,0.4-2.1,0.5-3.2L30.6,31L30.6,31z"/>
	<path fill="#EC1C24" d="M30.6,27.1h24.9c0-1.3-0.2-2.6-0.4-3.9H30.6V27.1z"/>
	<path fill="#EC1C24" d="M30.6,19.3h23.4c-0.5-1.3-1-2.6-1.6-3.9H30.6V19.3z"/>
	<path fill="#EC1C24" d="M30.6,11.5H50c-1.1-1.4-2.3-2.7-3.6-3.9H30.6V11.5z"/>
	<path fill="#EC1C24" d="M40.8,3.7C37.7,2.1,34.3,1,30.6,0.7v3.1H40.8z"/>
	<rect x="14.7" y="7.3" fill="#0068A5" width="0" height="8.3"/>
	<rect x="14.7" y="19.8" fill="#0068A5" width="0" height="6.8"/>
	<rect x="10" y="23.4" fill="#0068A5" width="0" height="7.3"/>
	<rect x="23.4" y="7.3" fill="#0068A5" width="0" height="8.3"/>
	<rect x="29.3" y="10.2" fill="#0068A5" width="0" height="2.6"/>
	<rect x="27.8" y="22.6" fill="#0068A5" width="0" height="1.1"/>
	<rect x="10.3" y="22.6" fill="#0068A5" width="0" height="1.1"/>
	<rect x="19" y="23.1" fill="#0068A5" width="0" height="8"/>
	<rect x="29.7" y="22.2" fill="#0068A5" width="0" height="1.9"/>
	<rect x="23.4" y="19.8" fill="#0068A5" width="0" height="6.8"/>
	<rect x="24.4" y="27.1" fill="#0068A5" width="6.2" height="0"/>
	<rect x="19" y="22.6" fill="#0068A5" width="0" height="1.1"/>
	<rect x="15.2" y="3.7" fill="#0068A5" width="11.3" height="0"/>
	<rect x="6" y="11.5" fill="#0068A5" width="4.1" height="0"/>
	<rect x="9.6" y="7.6" fill="#0068A5" width="3.2" height="0"/>
	<rect x="27.6" y="4.6" fill="#0068A5" width="0" height="6"/>
	<rect x="29.9" y="2.9" fill="#0068A5" width="0" height="1.5"/>
	<rect x="0.6" y="31" fill="#0068A5" width="30" height="0"/>
	<rect x="18.7" y="4.8" fill="#0068A5" width="0" height="5.7"/>
	<rect x="0.5" y="27.1" fill="#0068A5" width="4.5" height="0"/>
	<rect x="3.6" y="15.4" fill="#0068A5" width="27" height="0"/>
	<rect x="0.9" y="23.2" fill="#0068A5" width="8.5" height="0"/>
	<rect x="1.9" y="19.3" fill="#0068A5" width="28.7" height="0"/>
	<rect x="0.6" y="31" fill="#0068A5" width="30" height="0"/>
	<polygon fill="#0068A5" points="9.8,23.2 10.9,23.2 10.3,22.8 	"/>
	<polygon fill="#0068A5" points="18.5,23.2 19.6,23.2 19.1,22.8 	"/>
	<polygon fill="#0068A5" points="18.1,23.2 18.4,22.4 11,22.4 11.3,23.2 	"/>
	<polygon fill="#0068A5" points="26.8,23.2 27.1,22.4 19.7,22.4 20,23.2 	"/>
	<polygon fill="#0068A5" points="27.2,23.2 28.3,23.2 27.8,22.8 	"/>
	<polygon fill="#0068A5" points="30.6,23.2 30.6,22.4 28.5,22.4 28.7,23.2 	"/>
	<path fill="#FFFFFF" d="M19.9,54.3h16.3c2.8-0.9,5.5-2.2,7.8-3.9H12C14.4,52.1,17,53.5,19.9,54.3z"/>
	<path fill="#FFFFFF" d="M7.6,46.5h40.7c1.1-1.2,2.1-2.5,3-3.9H4.7C5.5,44,6.5,45.3,7.6,46.5z"/>
	<path fill="#FFFFFF" d="M2.6,38.8h50.7c0.5-1.3,1-2.6,1.3-3.9H1.3C1.7,36.2,2.1,37.5,2.6,38.8z"/>
	<path fill="#FFFFFF" d="M30.6,31h24.7c0.1-1,0.2-1.9,0.2-2.9c0-0.3,0-0.6,0-1H30.6V31z"/>
	<path fill="#FFFFFF" d="M54.9,22.4c0-0.2-0.1-0.3-0.1-0.5c-0.2-0.9-0.5-1.7-0.7-2.6H30.6v3.1v0.8h24.4C55,22.9,55,22.6,54.9,22.4z"
		/>
	<path fill="#FFFFFF" d="M30.6,15.4h21.8c-0.7-1.4-1.5-2.7-2.5-3.9H30.6V15.4z"/>
	<path fill="#FFFFFF" d="M30.6,7.6h15.8c-1.7-1.5-3.5-2.8-5.6-3.9H30.6V7.6z"/>
	<rect x="9.6" y="23" fill="#FFFFFF" width="0" height="0.4"/>
	<rect x="11.1" y="23" fill="#FFFFFF" width="0" height="0.4"/>
	<polygon fill="#FFFFFF" points="11.4,23.6 11.3,23.2 10.9,23.2 	"/>
	<polygon fill="#FFFFFF" points="9.2,23.6 9.8,23.2 9.3,23.2 	"/>
	<polygon fill="#FFFFFF" points="11,22.3 12.1,21.5 10.7,21.5 10.3,20.3 9.9,21.5 8.6,21.5 9.7,22.3 9.6,22.4 11,22.4 	"/>
	<polygon fill="#FFFFFF" points="10.3,22.8 10.9,23.2 11.3,23.2 11,22.4 9.6,22.4 9.3,23.2 9.8,23.2 	"/>
	<rect x="19.8" y="23" fill="#FFFFFF" width="0" height="0.4"/>
	<rect x="18.3" y="23" fill="#FFFFFF" width="0" height="0.4"/>
	<polygon fill="#FFFFFF" points="17.9,23.6 18.5,23.2 18.1,23.2 	"/>
	<polygon fill="#FFFFFF" points="20.1,23.6 20,23.2 19.6,23.2 	"/>
	<polygon fill="#FFFFFF" points="19.7,22.3 20.8,21.5 19.5,21.5 19,20.3 18.6,21.5 17.3,21.5 18.4,22.3 18.4,22.4 19.7,22.4 	"/>
	<polygon fill="#FFFFFF" points="18.5,23.2 19.1,22.8 19.6,23.2 20,23.2 19.7,22.4 18.4,22.4 18.1,23.2 	"/>
	<rect x="28.5" y="23" fill="#FFFFFF" width="0" height="0.4"/>
	<rect x="27" y="23" fill="#FFFFFF" width="0" height="0.4"/>
	<polygon fill="#FFFFFF" points="28.9,23.6 28.7,23.2 28.3,23.2 	"/>
	<polygon fill="#FFFFFF" points="26.7,23.6 27.2,23.2 26.8,23.2 	"/>
	<polygon fill="#FFFFFF" points="27.2,23.2 27.8,22.8 28.3,23.2 28.7,23.2 28.5,22.4 27.1,22.4 26.8,23.2 	"/>
	<polygon fill="#FFFFFF" points="28.4,22.3 29.5,21.5 28.2,21.5 27.8,20.3 27.4,21.5 26,21.5 27.1,22.3 27.1,22.4 28.5,22.4 	"/>
	<polygon fill="#FFFFFF" points="25.5,16.8 24.1,16.8 23.7,15.6 23.3,16.8 22,16.8 23.1,17.6 22.6,18.9 23.7,18.1 24.8,18.9 
		24.4,17.6 	"/>
	<polygon fill="#FFFFFF" points="6.1,16.8 5.6,15.6 5.2,16.8 3.9,16.8 5,17.6 4.5,18.9 5.6,18.1 6.7,18.9 6.3,17.6 7.4,16.8 	"/>
	<polygon fill="#FFFFFF" points="14.8,16.8 14.4,15.6 14,16.8 12.6,16.8 13.7,17.6 13.3,18.9 14.4,18.1 15.5,18.9 15,17.6 
		16.1,16.8 	"/>
	<rect x="10.3" y="11.3" fill="#FFFFFF" width="0" height="0.4"/>
	<polygon fill="#FFFFFF" points="9.9,12.1 8.6,12.1 9.7,12.9 9.2,14.2 10.3,13.4 11.4,14.2 11,12.9 12.1,12.1 10.7,12.1 10.5,11.5 
		10.1,11.5 	"/>
	<polygon fill="#FFFFFF" points="10.3,10.9 10.1,11.5 10.5,11.5 	"/>
	<rect x="19.1" y="11.3" fill="#FFFFFF" width="0" height="0.4"/>
	<polygon fill="#FFFFFF" points="18.6,12.1 17.3,12.1 18.4,12.9 17.9,14.2 19.1,13.4 20.1,14.2 19.7,12.9 20.8,12.1 19.5,12.1 
		19.2,11.5 18.9,11.5 	"/>
	<polygon fill="#FFFFFF" points="19,10.9 18.9,11.5 19.2,11.5 	"/>
	<rect x="27.8" y="11.3" fill="#FFFFFF" width="0" height="0.4"/>
	<polygon fill="#FFFFFF" points="27.4,12.1 26,12.1 27.1,12.9 26.7,14.2 27.8,13.4 28.9,14.2 28.4,12.9 29.5,12.1 28.2,12.1 
		28,11.5 27.6,11.5 	"/>
	<polygon fill="#FFFFFF" points="27.8,10.9 27.6,11.5 28,11.5 	"/>
	<rect x="23.7" y="26.4" fill="#FFFFFF" width="0" height="1.4"/>
	<polygon fill="#FFFFFF" points="22.6,28.3 23.7,27.5 24.8,28.3 24.4,27.1 23,27.1 	"/>
	<polygon fill="#FFFFFF" points="24.4,27 25.5,26.2 24.1,26.2 23.7,25 23.3,26.2 22,26.2 23.1,27 23,27.1 24.4,27.1 	"/>
	<rect x="5.6" y="26.4" fill="#FFFFFF" width="0" height="1.4"/>
	<polygon fill="#FFFFFF" points="4.5,28.3 5.6,27.5 6.7,28.3 6.3,27.1 4.9,27.1 	"/>
	<polygon fill="#FFFFFF" points="6.3,27 7.4,26.2 6.1,26.2 5.6,25 5.2,26.2 3.9,26.2 5,27 4.9,27.1 6.3,27.1 	"/>
	<rect x="14.4" y="26.4" fill="#FFFFFF" width="0" height="1.4"/>
	<polygon fill="#FFFFFF" points="13.3,28.3 14.4,27.5 15.5,28.3 15.1,27.1 13.7,27.1 	"/>
	<polygon fill="#FFFFFF" points="15,27 16.1,26.2 14.8,26.2 14.4,25 14,26.2 12.6,26.2 13.7,27 13.7,27.1 15.1,27.1 	"/>
	<rect x="27.8" y="2.4" fill="#FFFFFF" width="0" height="2.6"/>
	<polygon fill="#FFFFFF" points="27.1,4.2 26.7,5.5 27.8,4.7 28.9,5.5 28.4,4.2 29.1,3.7 26.4,3.7 	"/>
	<polygon fill="#FFFFFF" points="29.5,3.4 28.2,3.4 27.8,2.2 27.4,3.4 26,3.4 26.4,3.7 29.1,3.7 	"/>
	<rect x="14.4" y="6.1" fill="#FFFFFF" width="0" height="3.1"/>
	<polygon fill="#FFFFFF" points="13.7,8.2 13.3,9.5 14.4,8.7 15.5,9.5 15,8.2 15.9,7.6 12.8,7.6 	"/>
	<polygon fill="#FFFFFF" points="16.1,7.5 14.8,7.5 14.4,6.2 14,7.5 12.6,7.5 12.8,7.6 15.9,7.6 	"/>
	<rect x="23.1" y="6.1" fill="#FFFFFF" width="0" height="3.1"/>
	<polygon fill="#FFFFFF" points="22.4,8.2 22,9.5 23.1,8.7 24.2,9.5 23.8,8.2 24.6,7.6 21.6,7.6 	"/>
	<polygon fill="#FFFFFF" points="24.8,7.5 23.5,7.5 23.1,6.2 22.7,7.5 21.3,7.5 21.6,7.6 24.6,7.6 	"/>
</g>
</svg>
