<?xml version="1.0" encoding="utf-8"?>
<!-- Generator: Adobe Illustrator 18.1.0, SVG Export Plug-In . SVG Version: 6.00 Build 0)  -->
<!DOCTYPE svg PUBLIC "-//W3C//DTD SVG 1.1//EN" "http://www.w3.org/Graphics/SVG/1.1/DTD/svg11.dtd">
<svg version="1.1" id="Layer_1" xmlns="http://www.w3.org/2000/svg" xmlns:xlink="http://www.w3.org/1999/xlink" x="0px" y="0px"
	 viewBox="0 0 431.3 635.3" enable-background="new 0 0 431.3 635.3" xml:space="preserve">
<g>
	<g>
		<rect x="13.7" y="0.3" fill="#898989" width="404" height="635"/>
		<polygon opacity="0.23" points="13.7,518.5 13.7,499.3 417.7,499.3 		"/>
		<rect x="0.7" y="50.3" fill="#989A9C" width="430" height="14"/>
		<rect x="0.7" y="63.3" fill="#666769" width="430" height="3"/>
		<rect x="0.7" y="483.3" fill="#989A9C" width="430" height="15"/>
		<rect x="0.7" y="497.3" fill="#666769" width="430" height="2"/>
		<polygon opacity="0.23" points="13.7,85.1 13.7,66.3 417.7,66.3 		"/>
		<rect x="10.7" y="110.3" width="2" height="64"/>
		<rect x="10.7" y="197.3" width="2" height="64"/>
		<rect x="10.7" y="283.3" width="2" height="64"/>
		<rect x="10.7" y="370.3" width="2" height="64"/>
		<rect x="417.7" y="110.3" width="3" height="64"/>
		<rect x="417.7" y="197.3" width="3" height="64"/>
		<rect x="417.7" y="283.3" width="3" height="64"/>
		<rect x="417.7" y="370.3" width="3" height="64"/>
	</g>
	<g>
		<g>
			<g>
				<g>
					<g>
						<g>
							<g>
								<g>
									<g>
										<rect x="12.7" y="66.3" fill="#212121" width="405" height="417"/>
									</g>
								</g>
							</g>
						</g>
					</g>
				</g>
			</g>
		</g>
	</g>
	<g>
		<g>
			<g>
				<g>
					<g>
						<g>
							<g>
								<g>
									<g>
										<g>
											<rect x="12.7" y="455.9" fill="#E20707" width="405" height="27.4"/>
										</g>
									</g>
								</g>
							</g>
						</g>
					</g>
				</g>
			</g>
		</g>
	</g>
	<g>
		<g>
			<g>
				<g>
					<g>
						<g>
							<g>
								<g>
									<g>
										<g>
											<g>
												<g>
													<g>
														<path fill="#E20707" d="M219.3,202.4L84.2,124.8c-0.7-0.4-0.9-1.2-0.5-1.9l0.2-0.3c0.4-0.7,1.2-0.9,1.9-0.5
															l135.2,77.6c0.7,0.4,0.9,1.2,0.5,1.9l-0.2,0.3C220.8,202.5,220,202.8,219.3,202.4z"/>
													</g>
												</g>
											</g>
										</g>
									</g>
								</g>
							</g>
						</g>
					</g>
				</g>
			</g>
			<g>
				<g>
					<g>
						<g>
							<g>
								<g>
									<g>
										<g>
											<g>
												<g>
													<g>
														<path fill="#E20707" d="M207.8,206.3L66.8,139.7c-0.7-0.3-1-1.1-0.7-1.8l0.1-0.3c0.3-0.7,1.1-1,1.8-0.7l140.9,66.6
															c0.7,0.3,1,1.1,0.7,1.8l-0.1,0.3C209.3,206.3,208.4,206.6,207.8,206.3z"/>
													</g>
												</g>
											</g>
										</g>
									</g>
								</g>
							</g>
						</g>
					</g>
				</g>
			</g>
			<g>
				<g>
					<g>
						<g>
							<g>
								<g>
									<g>
										<g>
											<g>
												<g>
													<g>
														<path fill="#E20707" d="M224.2,203.6L74.8,159.1c-0.7-0.2-1.1-1-0.9-1.7l0.1-0.3c0.2-0.7,1-1.1,1.7-0.9l149.4,44.5
															c0.7,0.2,1.1,1,0.9,1.7l-0.1,0.3C225.7,203.4,224.9,203.8,224.2,203.6z"/>
													</g>
												</g>
											</g>
										</g>
									</g>
								</g>
							</g>
						</g>
					</g>
				</g>
			</g>
			<g>
				<g>
					<g>
						<g>
							<g>
								<g>
									<g>
										<g>
											<g>
												<g>
													<g>
														<path fill="#E20707" d="M206,214.2L54.3,178.4c-0.7-0.2-1.2-0.9-1-1.6l0.1-0.3c0.2-0.7,0.9-1.2,1.6-1l151.7,35.8
															c0.7,0.2,1.2,0.9,1,1.6l-0.1,0.3C207.5,213.9,206.8,214.4,206,214.2z"/>
													</g>
												</g>
											</g>
										</g>
									</g>
								</g>
							</g>
						</g>
					</g>
				</g>
			</g>
			<g>
				<g>
					<g>
						<g>
							<g>
								<g>
									<g>
										<g>
											<g>
												<g>
													<g>
														<path fill="#E20707" d="M208.2,218.4L52.9,205.1c-0.8-0.1-1.3-0.7-1.2-1.5l0-0.3c0.1-0.8,0.7-1.3,1.5-1.2l155.3,13.3
															c0.8,0.1,1.3,0.7,1.2,1.5l0,0.3C209.6,217.9,208.9,218.5,208.2,218.4z"/>
													</g>
												</g>
											</g>
										</g>
									</g>
								</g>
							</g>
						</g>
					</g>
				</g>
			</g>
			<g>
				<g>
					<g>
						<g>
							<g>
								<g>
									<g>
										<g>
											<g>
												<g>
													<g>
														<path fill="#E20707" d="M217.2,220.9l-155.9,1c-0.8,0-1.4-0.6-1.4-1.4l0-0.3c0-0.8,0.6-1.4,1.4-1.4l155.9-1
															c0.8,0,1.4,0.6,1.4,1.4l0,0.3C218.6,220.2,218,220.9,217.2,220.9z"/>
													</g>
												</g>
											</g>
										</g>
									</g>
								</g>
							</g>
						</g>
					</g>
				</g>
			</g>
			<g>
				<g>
					<g>
						<g>
							<g>
								<g>
									<g>
										<g>
											<g>
												<g>
													<g>
														<path fill="#E20707" d="M220.7,227.7L65.3,239.5c-0.8,0.1-1.4-0.5-1.5-1.3l0-0.3c-0.1-0.8,0.5-1.4,1.3-1.5l155.4-11.8
															c0.8-0.1,1.4,0.5,1.5,1.3l0,0.3C222,227,221.4,227.7,220.7,227.7z"/>
													</g>
												</g>
											</g>
										</g>
									</g>
								</g>
							</g>
						</g>
					</g>
				</g>
			</g>
			<g>
				<g>
					<g>
						<g>
							<g>
								<g>
									<g>
										<g>
											<g>
												<g>
													<g>
														<path fill="#E20707" d="M174.3,236.9l-82.9,11c-0.7,0.1-1.4-0.4-1.5-1.2l0-0.3c-0.1-0.7,0.4-1.4,1.2-1.5l82.9-11
															c0.7-0.1,1.4,0.4,1.5,1.2l0,0.3C175.6,236.1,175.1,236.8,174.3,236.9z"/>
													</g>
												</g>
											</g>
										</g>
									</g>
								</g>
							</g>
						</g>
					</g>
				</g>
			</g>
			<g>
				<g>
					<g>
						<g>
							<g>
								<g>
									<g>
										<g>
											<g>
												<g>
													<g>
														<path fill="#E20707" d="M325.3,172.9l-79,25.5c-1.2,0.4-2.5-0.3-2.9-1.5l-0.2-0.5c-0.4-1.2,0.3-2.5,1.5-2.9l79-25.5
															c1.2-0.4,2.5,0.3,2.9,1.5l0.2,0.5C327.1,171.2,326.4,172.5,325.3,172.9z"/>
													</g>
												</g>
											</g>
										</g>
									</g>
								</g>
							</g>
						</g>
					</g>
				</g>
			</g>
			<g>
				<g>
					<g>
						<g>
							<g>
								<g>
									<g>
										<g>
											<g>
												<g>
													<g>
														<path fill="#E20707" d="M304.5,150.7l-80.7,26.1c-0.7,0.2-1.5-0.2-1.7-0.9l-0.1-0.3c-0.2-0.7,0.2-1.5,0.9-1.7
															l80.7-26.1c0.7-0.2,1.5,0.2,1.7,0.9l0.1,0.3C305.6,149.7,305.2,150.5,304.5,150.7z"/>
													</g>
												</g>
											</g>
										</g>
									</g>
								</g>
							</g>
						</g>
					</g>
				</g>
			</g>
			<g>
				<g>
					<g>
						<g>
							<g>
								<g>
									<g>
										<g>
											<g>
												<g>
													<g>
														<path fill="#E20707" d="M295.4,138.8l-76,37.5c-0.7,0.3-1.5,0.1-1.8-0.6l-0.2-0.3c-0.3-0.7-0.1-1.5,0.6-1.8l76-37.5
															c0.7-0.3,1.5-0.1,1.8,0.6l0.2,0.3C296.3,137.6,296.1,138.4,295.4,138.8z"/>
													</g>
												</g>
											</g>
										</g>
									</g>
								</g>
							</g>
						</g>
					</g>
				</g>
			</g>
			<g>
				<g>
					<g>
						<g>
							<g>
								<g>
									<g>
										<g>
											<g>
												<g>
													<g>
														<path fill="#E20707" d="M290.5,103l-81.6,67.4c-0.6,0.5-1.4,0.4-1.9-0.2l-0.2-0.3c-0.5-0.6-0.4-1.4,0.2-1.9l81.6-67.4
															c0.6-0.5,1.4-0.4,1.9,0.2l0.2,0.3C291.1,101.7,291,102.5,290.5,103z"/>
													</g>
												</g>
											</g>
										</g>
									</g>
								</g>
							</g>
						</g>
					</g>
				</g>
			</g>
		</g>
		<g>
			<g>
				<g>
					<g>
						<g>
							<g>
								<g>
									<g>
										<g>
											<g>
												<g>
													<rect x="180" y="115.3" fill="#E0AC7E" width="44" height="67"/>
												</g>
											</g>
										</g>
									</g>
								</g>
							</g>
						</g>
					</g>
				</g>
			</g>
		</g>
		<g>
			<g>
				<g>
					<g>
						<g>
							<g>
								<g>
									<g>
										<g>
											<g>
												<g>
													<ellipse fill="#E0AC7E" cx="200.4" cy="115.5" rx="22" ry="22.2"/>
												</g>
											</g>
										</g>
									</g>
								</g>
							</g>
						</g>
					</g>
				</g>
			</g>
		</g>
		<g>
			<g>
				<g>
					<g>
						<g>
							<g>
								<g>
									<g>
										<g>
											<g>
												<g>
													<path d="M200.4,93.3c0,0-7.5,8.1-7.9,7.9s-14.7,9.2-14.1,14.3C179,120.5,172.9,95.9,200.4,93.3z"/>
												</g>
											</g>
										</g>
									</g>
								</g>
							</g>
						</g>
					</g>
				</g>
			</g>
		</g>
		<g>
			<g>
				<g>
					<g>
						<g>
							<g>
								<g>
									<g>
										<g>
											<g>
												<g>
													<path fill="#E0AC7E" d="M209.4,98.5c0,0,6,1.5,6.6,1.8s2.3,3.9,1.9,5.7c-0.4,1.8-0.6,3.2-3.5,4.7s-5.4,0.7-6.6,0
														c-0.9-0.6-4,0.3-3.9-3.1c0.1-3.4,0.7-4.9,1.9-7C207.2,98.6,209.4,98.5,209.4,98.5z"/>
												</g>
											</g>
										</g>
									</g>
								</g>
							</g>
						</g>
					</g>
				</g>
			</g>
		</g>
		<g>
			<g>
				<g>
					<g>
						<g>
							<g>
								<g>
									<g>
										<g>
											<g>
												<g>
													<path fill="#837E7C" d="M210.1,110.2c0,0-2.7-1.2-2.5-1.5c0.2-0.3-1.8-2.8-1.6-3.3s0-3.6,1.4-3.8
														c1.4-0.1,4.9-2.3,6.8,0.5c1.9,2.8,1.2,4.1,1,4.7s-1.7,2.6-2,3C213,110.2,210.1,110.2,210.1,110.2z"/>
												</g>
											</g>
										</g>
									</g>
								</g>
							</g>
						</g>
					</g>
				</g>
			</g>
			<g>
				<g>
					<g>
						<g>
							<g>
								<g>
									<g>
										<g>
											<g>
												<g>
													<path fill="#D3000B" d="M210.1,109.3L210.1,109.3c-0.1,0-2.4-0.6-2.5-1c0,0,0,0.2,0,0.2c0.1-0.1-0.3-0.6-0.7-1.3
														c-0.5-0.8-1-1.6-0.9-1.9c0.1-0.1,0.1-0.5,0.1-0.9c0.1-1.1,0.2-2.7,1.2-2.8c0.3,0,0.7-0.2,1.2-0.3
														c0.8-0.3,1.8-0.6,2.8-0.6c1.2,0,2.1,0.5,2.8,1.5c1.7,2.6,1.3,3.9,1.1,4.5c0,0.1,0,0.1-0.1,0.1
														c-0.2,0.5-1.1,1.7-1.6,2.5c-0.2,0.2-0.3,0-0.4,0.1C213,109.8,210.2,109.3,210.1,109.3z M211.4,100.7
														c-1,0-2,0.3-2.8,0.6c-0.5,0.2-0.9,0.3-1.2,0.3c-1,0.1-1.1,1.8-1.2,2.8c0,0.4-0.1,0.8-0.1,0.9c-0.1,0.2,0.4,1.1,0.9,1.9
														c0.4,0.7,0.8,1.2,0.7,1.4c0,0,0,0,0,0.1c0.1,0.4,2.4,1.4,2.5,1.5c0.1,0,2.9,0,3.1-0.4c0.1-0.1,0.2-0.3,0.4-0.5
														c0.5-0.7,1.4-2,1.6-2.5c0,0,0-0.1,0.1-0.1c0.2-0.7,0.7-1.9-1.1-4.5C213.5,101.2,212.6,100.7,211.4,100.7z"/>
												</g>
											</g>
										</g>
									</g>
								</g>
							</g>
						</g>
					</g>
				</g>
			</g>
		</g>
		<g>
			<g>
				<g>
					<g>
						<g>
							<g>
								<g>
									<g>
										<g>
											<g>
												<g>
													<path fill="#565350" d="M214.2,108.4c-0.4,0.6-0.9,1.2-1,1.4c-0.2,0.4-3.2,0.4-3.2,0.4s-2.7-1.2-2.5-1.5
														c0.1-0.2-0.4-0.9-0.8-1.6"/>
												</g>
											</g>
										</g>
									</g>
								</g>
							</g>
						</g>
					</g>
				</g>
			</g>
		</g>
		<g>
			<g>
				<g>
					<g>
						<g>
							<g>
								<g>
									<g>
										<g>
											<g>
												<g>
													<path fill="#494949" d="M213.4,106.3c-0.6,0-1.3-0.1-1.7-0.5c-1.2-1.1-4-3.2-4.5-3.3l-0.1-0.8c1.1-0.2,5.1,3.4,5.2,3.5
														c0.5,0.5,2.2,0.3,3.1,0l0.2,0.8C215.4,106,214.4,106.3,213.4,106.3z"/>
												</g>
											</g>
										</g>
									</g>
								</g>
							</g>
						</g>
					</g>
				</g>
			</g>
		</g>
		<g>
			<g>
				<g>
					<g>
						<g>
							<g>
								<g>
									<g>
										<g>
											<g>
												<g>
													<path fill="#D3000B" d="M211.1,110.6l-2.1-0.3l-1.9-1.5l-1.3-2.5l0.1-3.4c0.1-0.4,0.5-1.3,0.9-1.6
														c0.2-0.2,1.6-0.5,2.7-0.8c0.1,0,1.6-0.3,2.3-0.3c0.1,0,0.2,0,0.2,0c0.4,0.1,1.7,0.8,2.1,1.1l0.1,0.1l1,1.2l0.9,2.4
														l-0.7,2.5l-0.9,1.4l-0.5,1l-1.3,0.5L211.1,110.6z M209.3,109.5l1.8,0.3l1.4-0.1l0.8-0.3l0.4-0.8l0.9-1.4l0.6-2
														l-0.8-2.1l-0.9-0.9c-0.7-0.4-1.6-0.9-1.8-0.9c0,0-0.1,0-0.1,0c-0.5,0-1.7,0.2-2.1,0.3c-1,0.3-2.2,0.6-2.4,0.7
														c-0.1,0.1-0.3,0.6-0.5,1.1l-0.1,3l1.2,2.2L209.3,109.5z"/>
												</g>
											</g>
										</g>
									</g>
								</g>
							</g>
						</g>
					</g>
				</g>
			</g>
		</g>
		<g>
			<g>
				<g>
					<g>
						<g>
							<g>
								<g>
									<g>
										<g>
											<g>
												<g>
													<polyline fill="#E0AC7E" points="213.9,110.9 211.7,110.2 210.1,110.8 209.7,111.6 													"/>
												</g>
											</g>
										</g>
									</g>
								</g>
							</g>
						</g>
					</g>
				</g>
			</g>
		</g>
		<g>
			<g>
				<g>
					<g>
						<g>
							<g>
								<g>
									<g>
										<g>
											<g>
												<g>
													<path d="M207.8,101.2c0,0,10.7,5.2,14.7,14.3c0,0,1.4-16.6-18.2-22.2"/>
												</g>
											</g>
										</g>
									</g>
								</g>
							</g>
						</g>
					</g>
				</g>
			</g>
		</g>
		<g>
			<g>
				<g>
					<g>
						<g>
							<g>
								<g>
									<g>
										<g>
											<g>
												<g>
													<path d="M211.9,102.9c0-12.2-33.5-26.2-31.5,1.8"/>
												</g>
											</g>
										</g>
									</g>
								</g>
							</g>
						</g>
					</g>
				</g>
			</g>
		</g>
		<g opacity="0.35">
			<g>
				<g>
					<g>
						<g>
							<g>
								<g>
									<g>
										<g>
											<g>
												<g>
													<polygon fill="#4B4C4B" points="178.3,138.4 189.3,147.1 196.1,148.9 204.2,146.3 216.4,146.3 222.5,148.9 
														222.4,161.3 216.6,166.3 207.4,166.3 188.1,163.3 178.4,154.6 													"/>
												</g>
											</g>
										</g>
									</g>
								</g>
							</g>
						</g>
					</g>
				</g>
			</g>
		</g>
		<g>
			<g>
				<g>
					<g>
						<g>
							<g>
								<g>
									<g>
										<g>
											<g>
												<g>
													<polygon fill="#E0AC7E" points="219,152.8 215.4,151.3 205.4,151.3 199.4,154.2 200.4,159.3 204.2,161.3 216.4,161.3 
														219,157.7 													"/>
												</g>
											</g>
										</g>
									</g>
								</g>
							</g>
						</g>
					</g>
				</g>
			</g>
		</g>
		<g>
			<g>
				<g>
					<g>
						<g>
							<g>
								<g>
									<g>
										<g>
											<g>
												<g>
													<g>
														<path fill="#E0AC7E" d="M184.1,133.7c0,0,0.6-11.7,0.9-13.1s6.5-5.7,9.9-5.7c3.5,0,6.2-0.1,10.1,4.7s3.4,9.9,2.5,12.3
															c-0.8,2,2.1,7.4-4.3,8.5c-6.4,1.1-9.4,0.6-13.8-0.9S184.1,133.7,184.1,133.7z"/>
													</g>
												</g>
											</g>
										</g>
									</g>
								</g>
							</g>
						</g>
					</g>
				</g>
			</g>
			<g>
				<g>
					<g>
						<g>
							<g>
								<g>
									<g>
										<g>
											<g>
												<g>
													<g>
														<path fill="#837E7C" d="M205.7,128c0,0-1.3,5.5-1.9,5.2c-0.6-0.2-4.6,4.5-5.5,4.2s-6.8,1.4-7.6-1.1
															c-0.8-2.5-6.2-8.4-1.6-12.9s7.1-3.8,8.4-3.6s5.5,2.2,6.3,2.5C204.6,122.6,205.7,128,205.7,128z"/>
													</g>
												</g>
											</g>
										</g>
									</g>
								</g>
							</g>
						</g>
					</g>
				</g>
				<g>
					<g>
						<g>
							<g>
								<g>
									<g>
										<g>
											<g>
												<g>
													<g>
														<path fill="#D3000B" d="M193.8,137.7c-1.8,0-2.8-0.5-3.1-1.4c-0.2-0.6-0.6-1.3-1.1-2.2c-0.8-1.5-1.8-3.3-2.2-5.2
															c-0.4-2.2,0.1-4,1.7-5.6c2.5-2.5,4.8-3.8,6.9-3.8c0.5,0,0.9,0.1,1.2,0.1c0.1,0,0.2,0,0.3,0c1,0.1,3.6,1.3,5.2,2.1
															c0.5,0.2,0.9,0.4,1.1,0.5c0.8,0.3,1.9,5.5,1.9,5.7c0,0.2-1.2,5.2-1.9,5.2c0,0,0,0,0,0c0,0,0,0,0,0
															c-0.3,0-1.3,0.9-2.3,1.8c-1.2,1.1-2.5,2.4-3.1,2.4c0,0-0.1,0-0.1,0c-0.1,0-0.2,0-0.4,0c-0.3,0-0.8,0.1-1.4,0.1
															C195.7,137.6,194.8,137.7,193.8,137.7z M196,119.6c-2.1,0-4.3,1.2-6.9,3.8c-1.6,1.6-2.1,3.4-1.7,5.6
															c0.4,1.9,1.4,3.7,2.2,5.1c0.5,0.9,0.9,1.6,1.1,2.2c0.3,0.9,1.3,1.4,3.1,1.4c0.9,0,1.9-0.1,2.7-0.2
															c0.6-0.1,1.1-0.1,1.4-0.1c0.2,0,0.3,0,0.4,0c0,0,0.1,0,0.1,0c0.6,0,1.9-1.3,3.1-2.4c1-0.9,1.9-1.8,2.3-1.8
															c0,0,0,0,0.1,0c0,0,0,0,0,0c0.6,0,1.8-5.2,1.8-5.2c0-0.1-1.1-5.4-1.9-5.7c-0.2-0.1-0.6-0.3-1.1-0.5
															c-1.6-0.7-4.3-1.9-5.2-2.1c-0.1,0-0.2,0-0.3,0C196.9,119.6,196.5,119.6,196,119.6z"/>
													</g>
												</g>
											</g>
										</g>
									</g>
								</g>
							</g>
						</g>
					</g>
				</g>
			</g>
			<g>
				<g>
					<g>
						<g>
							<g>
								<g>
									<g>
										<g>
											<g>
												<g>
													<g>
														<path fill="#565350" d="M200.8,120.9c1.3,0.6,2.6,1.2,3,1.3c0.8,0.3,1.9,5.7,1.9,5.7s-1.3,5.5-1.9,5.2
															c-0.3-0.1-1.5,1-2.6,2.1"/>
													</g>
												</g>
											</g>
										</g>
									</g>
								</g>
							</g>
						</g>
					</g>
				</g>
			</g>
			<g>
				<g>
					<g>
						<g>
							<g>
								<g>
									<g>
										<g>
											<g>
												<g>
													<g>
														<path d="M203.8,126.7c0,0-0.3,4-4.6,4.9c-4.3,0.9-6.5-0.5-6.5-2.4c0-1.9-0.3-4.7,3.8-5S203.8,126.7,203.8,126.7z"/>
													</g>
												</g>
											</g>
										</g>
									</g>
								</g>
							</g>
						</g>
					</g>
				</g>
			</g>
			<g>
				<g>
					<g>
						<g>
							<g>
								<g>
									<g>
										<g>
											<g>
												<g>
													<g>
														<ellipse fill="#9F0408" cx="198.4" cy="127.9" rx="1.7" ry="1.3"/>
													</g>
												</g>
											</g>
										</g>
									</g>
								</g>
							</g>
						</g>
					</g>
				</g>
			</g>
			<g>
				<g>
					<g>
						<g>
							<g>
								<g>
									<g>
										<g>
											<g>
												<g>
													<g>
														<path fill="#D3000B" d="M193.9,138.1L193.9,138.1c-0.6-0.1-2.6-0.4-3.2-1c-0.4-0.4-1.9-3.6-2.4-4.6
															c-0.2-0.6-1.4-3.6-1.4-4.4c0-0.8,1.1-3.8,1.2-4.1l0.1-0.1l1.7-2.3l4.1-2.5l4.7,0.4l3,1.2l2,0.5l1.3,2l0.8,2.8l0.2,3.9
															l-1.9,3.8l-4.1,3.3L193.9,138.1z M188.8,124.3c-0.4,1.2-1.1,3.3-1.1,3.8c0,0.5,0.8,2.8,1.4,4.1c0.9,1.9,2,4.1,2.2,4.3
															c0.2,0.2,1.5,0.6,2.6,0.7l5.7-1l3.9-3.1l1.6-3.4l-0.2-3.6l-0.8-2.6L203,122l-1.8-0.4l-3-1.2l-4.2-0.4l-3.8,2.3
															L188.8,124.3z"/>
													</g>
												</g>
											</g>
										</g>
									</g>
								</g>
							</g>
						</g>
					</g>
				</g>
			</g>
			<g>
				<g>
					<g>
						<g>
							<g>
								<g>
									<g>
										<g>
											<g>
												<g>
													<g>
														<polyline fill="#E0AC7E" points="205.5,120.6 205.1,124.9 206.7,127.7 208.4,128.1 														"/>
													</g>
												</g>
											</g>
										</g>
									</g>
								</g>
							</g>
						</g>
					</g>
				</g>
			</g>
		</g>
		<g>
			<g>
				<g>
					<g>
						<g>
							<g>
								<g>
									<g>
										<g>
											<g>
												<g>
													<path d="M204.7,104.2c0,0-10.4,4.7-11.6,8.2c-1.2,3.5,0.8-8.1,3.3-8.2c0,0-5.3,1.2-5.9,4.4c0,0-1.9-7.7,1.6-9.1
														c0,0-7.2,5.8-5.9,12.3c1.3,6.5-10.7-15.3-3.4-14.6"/>
												</g>
											</g>
										</g>
									</g>
								</g>
							</g>
						</g>
					</g>
				</g>
			</g>
		</g>
		<g>
			<g>
				<g>
					<g>
						<g>
							<g>
								<g>
									<g>
										<g>
											<g>
												<g>
													<path fill="#006838" d="M274,286.1c-0.5,0-1.1-0.1-1.6-0.2c-3-0.9-4.7-4.1-3.8-7.1c17.7-59.6-30-99.8-30.5-100.2
														c-2.4-2-2.8-5.6-0.8-8c2-2.4,5.6-2.8,8-0.8c0.6,0.5,13.8,11.5,24.6,30.8c14.5,25.7,17.8,53.9,9.5,81.5
														C278.7,284.5,276.5,286.1,274,286.1z"/>
												</g>
											</g>
										</g>
									</g>
								</g>
							</g>
						</g>
					</g>
				</g>
			</g>
		</g>
		<g>
			<g>
				<g>
					<g>
						<g>
							<g>
								<g>
									<g>
										<g>
											<g>
												<g>
													<path fill="#E0AC7E" d="M274.3,286.1c-0.5,0-1.1-0.1-1.6-0.2c-3-0.9-4.8-4-3.9-7c0.5-1.9,1-3.8,1.5-5.7
														c0.7-3.1,3.8-5,6.8-4.2c3.1,0.7,5,3.8,4.2,6.8c-0.5,2.1-1,4.2-1.6,6.3C279,284.5,276.7,286.1,274.3,286.1z"/>
												</g>
											</g>
										</g>
									</g>
								</g>
							</g>
						</g>
					</g>
				</g>
			</g>
		</g>
		<g>
			<g>
				<g>
					<g>
						<g>
							<g>
								<g>
									<g>
										<g>
											<g>
												<g>
													
														<rect x="269.3" y="266.6" transform="matrix(-0.9778 -0.2095 0.2095 -0.9778 491.4854 590.7128)" width="15.5" height="5.5"/>
												</g>
											</g>
										</g>
									</g>
								</g>
							</g>
						</g>
					</g>
				</g>
			</g>
		</g>
		<g>
			<g>
				<g>
					<g>
						<g>
							<g>
								<g>
									<g>
										<g>
											<g>
												<g>
													<rect x="175" y="293.3" fill="#FFFFFF" width="27" height="148"/>
												</g>
											</g>
										</g>
									</g>
								</g>
							</g>
						</g>
					</g>
				</g>
			</g>
		</g>
		<g>
			<g>
				<g>
					<g>
						<g>
							<g>
								<g>
									<g>
										<g>
											<g>
												<g>
													<rect x="215" y="293.3" fill="#FFFFFF" width="28" height="148"/>
												</g>
											</g>
										</g>
									</g>
								</g>
							</g>
						</g>
					</g>
				</g>
			</g>
		</g>
		<g>
			<g>
				<g>
					<g>
						<g>
							<g>
								<g>
									<g>
										<g>
											<g>
												<g>
													<rect x="215" y="353.3" fill="#E0AC7E" width="28" height="28"/>
												</g>
											</g>
										</g>
									</g>
								</g>
							</g>
						</g>
					</g>
				</g>
			</g>
		</g>
		<g>
			<g>
				<g>
					<g>
						<g>
							<g>
								<g>
									<g>
										<g>
											<g>
												<g>
													<rect x="175" y="353.3" fill="#E0AC7E" width="27" height="28"/>
												</g>
											</g>
										</g>
									</g>
								</g>
							</g>
						</g>
					</g>
				</g>
			</g>
		</g>
		<g>
			<g>
				<g>
					<g>
						<g>
							<g>
								<g>
									<g>
										<g>
											<g>
												<g>
													<rect x="175" y="384.3" width="26" height="2"/>
												</g>
											</g>
										</g>
									</g>
								</g>
							</g>
						</g>
					</g>
				</g>
			</g>
		</g>
		<g>
			<g>
				<g>
					<g>
						<g>
							<g>
								<g>
									<g>
										<g>
											<g>
												<g>
													<rect x="175" y="387.3" fill="#CE0522" width="26" height="2"/>
												</g>
											</g>
										</g>
									</g>
								</g>
							</g>
						</g>
					</g>
				</g>
			</g>
		</g>
		<g>
			<g>
				<g>
					<g>
						<g>
							<g>
								<g>
									<g>
										<g>
											<g>
												<g>
													<rect x="215" y="383.3" width="28" height="2"/>
												</g>
											</g>
										</g>
									</g>
								</g>
							</g>
						</g>
					</g>
				</g>
			</g>
		</g>
		<g>
			<g>
				<g>
					<g>
						<g>
							<g>
								<g>
									<g>
										<g>
											<g>
												<g>
													<rect x="215" y="386.3" fill="#E00505" width="28" height="3"/>
												</g>
											</g>
										</g>
									</g>
								</g>
							</g>
						</g>
					</g>
				</g>
			</g>
		</g>
		<g>
			<g>
				<g>
					<g>
						<g>
							<g>
								<g>
									<g>
										<g>
											<g>
												<g>
													<path fill="#FFFFFF" d="M203.7,351.3c0,0.8-0.7,2-1.6,2h-28c-0.9,0-1.6-1.2-1.6-2l0,0c0-0.8,0.7-2,1.6-2h28
														C203,349.3,203.7,350.5,203.7,351.3L203.7,351.3z"/>
												</g>
											</g>
										</g>
									</g>
								</g>
							</g>
						</g>
					</g>
				</g>
			</g>
		</g>
		<g>
			<g>
				<g>
					<g>
						<g>
							<g>
								<g>
									<g>
										<g>
											<g>
												<g>
													<path fill="#FFFFFF" d="M243.4,351.3c0,0.8-0.7,2-1.6,2h-27.6c-0.9,0-1.6-1.2-1.6-2l0,0c0-0.8,0.7-2,1.6-2h27.6
														C242.7,349.3,243.4,350.5,243.4,351.3L243.4,351.3z"/>
												</g>
											</g>
										</g>
									</g>
								</g>
							</g>
						</g>
					</g>
				</g>
			</g>
		</g>
		<g>
			<g>
				<g>
					<g>
						<g>
							<g>
								<g>
									<g>
										<g>
											<g>
												<g>
													<path fill="#FFFFFF" d="M244,296.9c0,0.8-0.6,1.4-1.4,1.4h-68.1c-0.8,0-1.4-0.6-1.4-1.4v-0.1c0-0.8,0.6-1.4,1.4-1.4
														h68.1c0.8,0,1.4,0.6,1.4,1.4V296.9z"/>
												</g>
											</g>
										</g>
									</g>
								</g>
							</g>
						</g>
					</g>
				</g>
			</g>
		</g>
		<g>
			<g>
				<g>
					<g>
						<g>
							<g>
								<g>
									<g>
										<g>
											<g>
												<g>
													<path d="M236.7,307.1v1.4l-6.6,13.9h-2.1l6.6-13.5v0h-7.4v-1.7H236.7z"/>
												</g>
											</g>
										</g>
									</g>
								</g>
							</g>
						</g>
					</g>
				</g>
			</g>
		</g>
		<g>
			<g>
				<g>
					<g>
						<g>
							<g>
								<g>
									<g>
										<g>
											<g>
												<g>
													<rect x="174.4" y="424.1" fill="#6C6D6D" width="27" height="16.3"/>
												</g>
											</g>
										</g>
									</g>
								</g>
							</g>
						</g>
					</g>
				</g>
			</g>
		</g>
		<g>
			<g>
				<g>
					<g>
						<g>
							<g>
								<g>
									<g>
										<g>
											<g>
												<g>
													<rect x="214.4" y="424.1" fill="#727272" width="27" height="16.3"/>
												</g>
											</g>
										</g>
									</g>
								</g>
							</g>
						</g>
					</g>
				</g>
			</g>
		</g>
		<g>
			<g>
				<g>
					<g>
						<g>
							<g>
								<g>
									<g>
										<g>
											<g>
												<g>
													<g>
														<path fill="#006838" d="M250.5,166.3c0,0-12.4,0-27.3,0c-0.3,0-0.6,0-0.9,0l-14.1,13.4L180,166.3c-0.8,0-1.6,0-2.3,0
															c-4.9,0-19.6,0-19.6,0c-3.2,0-5.7,2.9-5.7,7.6l23.6,141.4c0,4.7,2.6,7.9,5.7,7.9h52.9c3.2,0,5.6-3.5,5.6-8.2l16-141.2
															C256.1,169.3,253.7,166.3,250.5,166.3z"/>
													</g>
												</g>
											</g>
										</g>
									</g>
								</g>
							</g>
						</g>
					</g>
				</g>
			</g>
		</g>
		<g>
			<g>
				<g>
					<g>
						<g>
							<g>
								<g>
									<g>
										<g>
											<g>
												<g>
													<polygon fill="#0F8C09" points="180.4,166.3 177.4,166.3 209.7,181.9 208.1,179.2 													"/>
												</g>
											</g>
										</g>
									</g>
								</g>
							</g>
						</g>
					</g>
				</g>
			</g>
			<g>
				<g>
					<g>
						<g>
							<g>
								<g>
									<g>
										<g>
											<g>
												<g>
													<path fill="#F9F9F9" d="M210.6,182.5l-34.9-17.3l4.9,0l27.8,13.1L210.6,182.5z M179.2,166.3l29.6,14.5l-0.9-1.6
														l-27.5-12.9H179.2z"/>
												</g>
											</g>
										</g>
									</g>
								</g>
							</g>
						</g>
					</g>
				</g>
			</g>
		</g>
		<g>
			<g>
				<g>
					<g>
						<g>
							<g>
								<g>
									<g>
										<g>
											<g>
												<g>
													<polygon fill="#17660E" points="225.9,166.3 222.2,166.3 207.3,180.2 209.7,182.4 													"/>
												</g>
											</g>
										</g>
									</g>
								</g>
							</g>
						</g>
					</g>
				</g>
			</g>
			<g>
				<g>
					<g>
						<g>
							<g>
								<g>
									<g>
										<g>
											<g>
												<g>
													<path fill="#F7F7F7" d="M209.7,182.5l-3.1-2.5l15.4-14.7h4.8L209.7,182.5z M207.9,180l1.8,1.6l15.3-15.2h-2.5
														L207.9,180z"/>
												</g>
											</g>
										</g>
									</g>
								</g>
							</g>
						</g>
					</g>
				</g>
			</g>
		</g>
		<g>
			<g>
				<g>
					<g>
						<g>
							<g>
								<g>
									<g>
										<g>
											<g>
												<g>
													<polygon fill="#FFFFFF" points="157.4,204.4 182,213.7 162.9,192.3 207.6,208.4 174.7,199.8 191.8,219.8 160.1,213.5 
																											"/>
												</g>
											</g>
										</g>
									</g>
								</g>
							</g>
						</g>
					</g>
				</g>
			</g>
		</g>
		<g>
			<g>
				<g>
					<g>
						<g>
							<g>
								<g>
									<g>
										<g>
											<g>
												<g>
													<polygon fill="#BE1E2D" points="161.2,217.1 196,222.6 184.1,206.1 203.6,211.6 188.5,209.1 202.8,227.3 162.4,221.3 
																											"/>
												</g>
											</g>
										</g>
									</g>
								</g>
							</g>
						</g>
					</g>
				</g>
			</g>
		</g>
		<g>
			<g>
				<g>
					<g>
						<g>
							<g>
								<g>
									<g>
										<g>
											<g>
												<g>
													<polygon fill="#FFFFFF" points="252.4,206.1 233.6,213.7 252.6,192.3 207.9,208.4 240.9,199.8 223.8,219.8 
														251.4,214.3 													"/>
												</g>
											</g>
										</g>
									</g>
								</g>
							</g>
						</g>
					</g>
				</g>
			</g>
		</g>
		<g>
			<g>
				<g>
					<g>
						<g>
							<g>
								<g>
									<g>
										<g>
											<g>
												<g>
													<polygon fill="#BE1E2D" points="251.1,217.6 219.6,222.6 231.5,206.1 211.9,211.6 227.1,209.1 212.8,227.3 
														250.6,221.7 													"/>
												</g>
											</g>
										</g>
									</g>
								</g>
							</g>
						</g>
					</g>
				</g>
			</g>
		</g>
		<g>
			<g>
				<g>
					<g>
						<g>
							<g>
								<g>
									<g>
										<g>
											<g>
												<g>
													<path fill="#006838" d="M146.6,251.3c-2.1,0-4-0.7-5.6-2.2c-7.9-7-5.8-32.7,6-76.4c0.8-3,3.9-4.8,7-4
														c3,0.8,4.8,3.9,4,7c-10.1,37.3-10.9,55.3-10,62.2c4.7-6.4,12.7-25.2,15.3-55.2c0.3-3.1,3-5.4,6.2-5.2
														c3.1,0.3,5.4,3,5.2,6.2c-3,33.8-13.5,62.6-24.6,67C148.8,251,147.7,251.3,146.6,251.3z"/>
												</g>
											</g>
										</g>
									</g>
								</g>
							</g>
						</g>
					</g>
				</g>
			</g>
		</g>
		<g>
			<g>
				<g>
					<g>
						<g>
							<g>
								<g>
									<g>
										<g>
											<g>
												<g>
													<g>
														<path d="M147.6,145.4c0,0,0.8-1.3,4.4-0.2l-0.6,22.1h-4.5L147.6,145.4z"/>
													</g>
												</g>
											</g>
										</g>
									</g>
								</g>
							</g>
						</g>
					</g>
				</g>
			</g>
			<g>
				<g>
					<g>
						<g>
							<g>
								<g>
									<g>
										<g>
											<g>
												<g>
													<g>
														<path fill="#ACA2B8" d="M155,167.9v-21.6l0,0l0.2-1h2.2l0.7,1h1.2h3.6v15.7v0.6v7.7c0,0-1.1,1.5,2.3,1.9
															c0,0,1.6,0.5,1.3,3s-0.2,4.1-0.2,4.1l11.7,5.8l-2.4,7.2h-17.2h-1.1l-0.4-1.4c0,0-1.5,0.6-1.6,1.4s-0.9-0.2-0.9-0.2
															l0.3-2.6l-1.1,0.7l-1.7,0v-1.6l2.5-1.6L155,167.9z"/>
													</g>
												</g>
											</g>
										</g>
									</g>
								</g>
							</g>
						</g>
					</g>
				</g>
			</g>
			<g>
				<g>
					<g>
						<g>
							<g>
								<g>
									<g>
										<g>
											<g>
												<g>
													<g>
														<path fill="#50455E" d="M158,146.3h2v16h-1.4l-0.6-1.1c0,0-0.5-1.6,0-2.5C158.5,157.7,158,146.3,158,146.3z"/>
													</g>
												</g>
											</g>
										</g>
									</g>
								</g>
							</g>
						</g>
					</g>
				</g>
			</g>
			<g>
				<g>
					<g>
						<g>
							<g>
								<g>
									<g>
										<g>
											<g>
												<g>
													<g>
														<polygon fill="#A0A2B5" points="159.4,146.3 162,146.3 162,162.3 159.1,162.3 														"/>
													</g>
												</g>
											</g>
										</g>
									</g>
								</g>
							</g>
						</g>
					</g>
				</g>
			</g>
			<g>
				<g>
					<g>
						<g>
							<g>
								<g>
									<g>
										<g>
											<g>
												<g>
													<g>
														<polygon fill="#402243" points="158,162.3 160,162.3 160,169.8 161,170.7 161,183.3 157.4,183.3 														"/>
													</g>
												</g>
											</g>
										</g>
									</g>
								</g>
							</g>
						</g>
					</g>
				</g>
			</g>
			<g>
				<g>
					<g>
						<g>
							<g>
								<g>
									<g>
										<g>
											<g>
												<g>
													<g>
														<path fill="#40507F" d="M145.3,169c0,0,6.6-0.4,7.1,0c0.5,0.4,0,4.8,0,4.8l0.7,2.9v9.7h-1.1l-0.2,2h-1.2l-0.3,2.3
															c0,0-1.2,3.1-6.2-0.1v-4.9l1.1-0.6l1.4-2.4L145.3,169z"/>
													</g>
												</g>
											</g>
										</g>
									</g>
								</g>
							</g>
						</g>
					</g>
				</g>
			</g>
		</g>
		<g>
			<g>
				<g>
					<g>
						<g>
							<g>
								<g>
									<g>
										<g>
											<g>
												<g>
													<path fill="#E0AC7E" d="M168.1,194.9c-0.3,0-0.5,0-0.8-0.1c-3.1-0.4-5.3-3.3-4.8-6.4c0.3-1.9,0.5-3.9,0.7-5.9
														c0.3-3.1,3-5.4,6.2-5.2c3.1,0.3,5.4,3,5.2,6.2c-0.2,2.2-0.4,4.3-0.7,6.5C173.4,192.9,170.9,194.9,168.1,194.9z"/>
												</g>
											</g>
										</g>
									</g>
								</g>
							</g>
						</g>
					</g>
				</g>
			</g>
		</g>
		<g>
			<g>
				<g>
					<g>
						<g>
							<g>
								<g>
									<g>
										<g>
											<g>
												<g>
													
														<rect x="159.7" y="191.6" transform="matrix(-0.9877 -0.1566 0.1566 -0.9877 302.3374 412.544)" width="15.5" height="5.5"/>
												</g>
											</g>
										</g>
									</g>
								</g>
							</g>
						</g>
					</g>
				</g>
			</g>
		</g>
	</g>
	<g>
		<g>
			<path fill="#FFFFFF" d="M82.9,257l23.7,44.5l24.2-44.7h17.2l-25.5,48.2c-2,3.8-4.1,6.7-6.2,8.5c-2.6,2.3-5.8,3.4-9.4,3.4
				c-3.9,0-7.4-1.4-10.4-4.1c-2.3-2.2-4.6-5.4-6.9-9.8l-24.1-46H82.9z"/>
			<path fill="#FFFFFF" d="M167.9,256.6h43.6v15.5h-49.6v6.9h49.6v15.5l-49.2,0.2v6.3h49.2v15.9h-43.8c-3.5,0-6.5-0.5-9.1-1.6
				s-4.9-2.8-7-5.4c-1.7-2-3-3.9-3.8-5.8c-0.8-1.9-1.2-4-1.2-6.5v-21.7c0-3,0.5-5.6,1.4-7.8c0.9-2.2,2.5-4.3,4.7-6.3
				c2.2-2,4.4-3.3,6.6-4C161.6,257,164.5,256.6,167.9,256.6z"/>
			<path fill="#FFFFFF" d="M222.1,311.1c-2-1.9-3.5-3.8-4.4-5.9c-0.9-2-1.4-4.4-1.4-7.2v-41.5h15.6v44.3h48v15.6h-45.1
				c-2.1,0-4.3-0.4-6.5-1.3S224,312.9,222.1,311.1z"/>
			<path fill="#FFFFFF" d="M299.3,316.5l-17.1,0.2l23.2-45.1c3.2-6.1,6.2-10.2,8.9-12.2c2.4-1.7,5.2-2.6,8.3-2.6
				c3,0,5.7,0.9,8.1,2.8c2.4,1.9,5.3,6,8.6,12.4l23.2,44.7l-16.5-0.2l-9-15.6h-29.6L299.3,316.5z M315.3,285.6h14.2l-7-12.6
				L315.3,285.6z"/>
			<g>
				<path fill="#FFFFFF" d="M88.6,321.9v34.3H79v-34.3H88.6z"/>
				<path fill="#FFFFFF" d="M133.2,334.6c3.1,0,5.8,1,8.1,3.1c2.3,2.1,3.5,4.6,3.5,7.7c0,3-1.1,5.5-3.4,7.5c-2.3,2-5,3-8.1,3
					L94.7,356v-8.7H136v-4.1h-31.8c-3.1,0-5.9-1-8.2-3c-2.3-2-3.5-4.6-3.5-7.6c0-3.1,1.3-5.7,4-7.7c2.5-1.9,5.4-2.9,8.8-2.9
					l37.2-0.2v8.6l-40.6,0v4.1H133.2z"/>
				<path fill="#FFFFFF" d="M195.2,321.9c3.1,0,5.5,0.4,7.1,1.2c2.1,1,3.7,3,4.7,5.9c0.4,1.2,0.6,2.3,0.6,3.3c0,1.5-0.3,3.1-1,4.6
					c-0.2,0.5-0.5,1.1-1,1.8c0.6,0.9,1,1.6,1.2,2.1c0.9,1.6,1.3,3,1.4,4.1c0,3-1.1,5.6-3.4,7.8c-2.3,2.2-5,3.3-8.1,3.3h-37.8v-34
					H195.2z M198.4,334.4v-3.8h-30.4v3.8H198.4z M198.8,347.1v-3.9h-30.7v3.9H198.8z"/>
				<path fill="#FFFFFF" d="M220.9,355.9l-9.7,0.1l13.2-25.7c1.8-3.5,3.5-5.8,5.1-7c1.4-1,2.9-1.5,4.8-1.5c1.7,0,3.3,0.5,4.6,1.6
					c1.4,1.1,3,3.4,4.9,7l13.2,25.5l-9.4-0.1l-5.1-8.9h-16.9L220.9,355.9z M230.1,338.3h8.1l-4-7.2L230.1,338.3z"/>
				<path fill="#FFFFFF" d="M305.4,321.9v8.5h-39.6v17h39.6v8.5h-37.3c-1.7,0-3.2-0.2-4.5-0.7c-1.2-0.5-2.4-1.3-3.6-2.4
					c-1.1-1.1-1.9-2.2-2.4-3.1c-0.6-1.1-0.8-2.4-0.8-3.8v-11.4c0-2.4,0.2-4.3,0.7-5.7c0.6-1.8,1.7-3.3,3.3-4.5c1.3-1,2.6-1.7,4.2-2
					c1-0.2,2.6-0.3,4.8-0.3H305.4z"/>
				<path fill="#FFFFFF" d="M319.4,321.9v34h-9.5v-34H319.4z M340.4,321.9H358l-29.3,17l29.5,17h-17.8l-15.4-8.8
					c-1.9-1-3.3-2.2-4.3-3.3c-1.2-1.4-1.8-3-1.8-4.8c0-1.4,0.4-2.8,1.2-4c1-1.4,2.8-2.9,5.4-4.3L340.4,321.9z"/>
			</g>
		</g>
		<g>
			<linearGradient id="SVGID_1_" gradientUnits="userSpaceOnUse" x1="82.2664" y1="240.9058" x2="135.9521" y2="294.5916">
				<stop  offset="4.253029e-02" style="stop-color:#869CCB"/>
				<stop  offset="1" style="stop-color:#000002"/>
			</linearGradient>
			<path fill="url(#SVGID_1_)" stroke="#FFFFFF" stroke-miterlimit="10" d="M85.2,255.3l23.7,44.5l24.2-44.7h17.2l-25.5,48.2
				c-2,3.8-4.1,6.7-6.2,8.5c-2.6,2.3-5.8,3.4-9.4,3.4c-3.9,0-7.4-1.4-10.4-4.1c-2.3-2.2-4.6-5.4-6.9-9.8l-24.1-46H85.2z"/>
			<linearGradient id="SVGID_2_" gradientUnits="userSpaceOnUse" x1="158.6796" y1="256.3948" x2="215.584" y2="313.2993">
				<stop  offset="4.253029e-02" style="stop-color:#869CCB"/>
				<stop  offset="1" style="stop-color:#000002"/>
			</linearGradient>
			<path fill="url(#SVGID_2_)" stroke="#FFFFFF" stroke-miterlimit="10" d="M170.2,254.9h43.6v15.5h-49.6v6.9h49.6v15.5l-49.2,0.2
				v6.3h49.2v15.9H170c-3.5,0-6.5-0.5-9.1-1.6c-2.6-1.1-4.9-2.8-7-5.4c-1.7-2-3-3.9-3.8-5.8c-0.8-1.9-1.2-4-1.2-6.5v-21.7
				c0-3,0.5-5.6,1.4-7.8c0.9-2.2,2.5-4.3,4.7-6.3c2.2-2,4.4-3.3,6.6-4C164,255.3,166.8,254.9,170.2,254.9z"/>
			<linearGradient id="SVGID_3_" gradientUnits="userSpaceOnUse" x1="211.263" y1="262.2896" x2="272.9952" y2="324.0217">
				<stop  offset="4.253029e-02" style="stop-color:#869CCB"/>
				<stop  offset="1" style="stop-color:#000002"/>
			</linearGradient>
			<path fill="url(#SVGID_3_)" stroke="#FFFFFF" stroke-miterlimit="10" d="M224.4,309.5c-2-1.9-3.5-3.8-4.4-5.9
				c-0.9-2-1.4-4.4-1.4-7.2v-41.5h15.6v44.3h48v15.6h-45.1c-2.1,0-4.3-0.4-6.5-1.3C228.4,312.6,226.3,311.3,224.4,309.5z"/>
			<linearGradient id="SVGID_4_" gradientUnits="userSpaceOnUse" x1="298.2589" y1="275.922" x2="351.1737" y2="328.8368">
				<stop  offset="4.253029e-02" style="stop-color:#869CCB"/>
				<stop  offset="1" style="stop-color:#000002"/>
			</linearGradient>
			<path fill="url(#SVGID_4_)" stroke="#FFFFFF" stroke-miterlimit="10" d="M301.6,314.8l-17.1,0.2l23.2-45.1
				c3.2-6.1,6.2-10.2,8.9-12.2c2.4-1.7,5.2-2.6,8.3-2.6c3,0,5.7,0.9,8.1,2.8c2.4,1.9,5.3,6,8.6,12.4l23.2,44.7l-16.5-0.2l-9-15.6
				h-29.6L301.6,314.8z M317.6,283.9h14.2l-7-12.6L317.6,283.9z"/>
			<g>
				<linearGradient id="SVGID_5_" gradientUnits="userSpaceOnUse" x1="75.1862" y1="326.4152" x2="97.0945" y2="348.3235">
					<stop  offset="4.253029e-02" style="stop-color:#869CCB"/>
					<stop  offset="1" style="stop-color:#000002"/>
				</linearGradient>
				<path fill="url(#SVGID_5_)" stroke="#FFFFFF" stroke-miterlimit="10" d="M90.9,320.2v34.3h-9.5v-34.3H90.9z"/>
				<linearGradient id="SVGID_6_" gradientUnits="userSpaceOnUse" x1="102.8294" y1="319.1901" x2="139.3239" y2="355.6845">
					<stop  offset="4.253029e-02" style="stop-color:#869CCB"/>
					<stop  offset="1" style="stop-color:#000002"/>
				</linearGradient>
				<path fill="url(#SVGID_6_)" stroke="#FFFFFF" stroke-miterlimit="10" d="M135.6,333c3.1,0,5.8,1,8.1,3.1
					c2.3,2.1,3.5,4.6,3.5,7.7c0,3-1.1,5.5-3.4,7.5c-2.3,2-5,3-8.1,3L97,354.4v-8.7h41.3v-4.1h-31.8c-3.1,0-5.9-1-8.2-3
					c-2.3-2-3.5-4.6-3.5-7.6c0-3.1,1.3-5.7,4-7.7c2.5-1.9,5.4-2.9,8.8-2.9l37.2-0.2v8.6l-40.6,0v4.1H135.6z"/>
				<linearGradient id="SVGID_7_" gradientUnits="userSpaceOnUse" x1="163.4246" y1="318.0481" x2="201.7546" y2="356.3781">
					<stop  offset="4.253029e-02" style="stop-color:#869CCB"/>
					<stop  offset="1" style="stop-color:#000002"/>
				</linearGradient>
				<path fill="url(#SVGID_7_)" stroke="#FFFFFF" stroke-miterlimit="10" d="M197.5,320.2c3.1,0,5.5,0.4,7.1,1.2
					c2.1,1,3.7,3,4.7,5.9c0.4,1.2,0.6,2.3,0.6,3.3c0,1.5-0.3,3.1-1,4.6c-0.2,0.5-0.5,1.1-1,1.8c0.6,0.9,1,1.6,1.2,2.1
					c0.9,1.6,1.3,3,1.4,4.1c0,3-1.1,5.6-3.4,7.8c-2.3,2.2-5,3.3-8.1,3.3h-37.8v-34H197.5z M200.7,332.7v-3.8h-30.4v3.8H200.7z
					 M201.1,345.4v-3.9h-30.7v3.9H201.1z"/>
				<linearGradient id="SVGID_8_" gradientUnits="userSpaceOnUse" x1="221.372" y1="332.0571" x2="251.5343" y2="362.2194">
					<stop  offset="4.253029e-02" style="stop-color:#869CCB"/>
					<stop  offset="1" style="stop-color:#000002"/>
				</linearGradient>
				<path fill="url(#SVGID_8_)" stroke="#FFFFFF" stroke-miterlimit="10" d="M223.3,354.2l-9.7,0.1l13.2-25.7c1.8-3.5,3.5-5.8,5.1-7
					c1.4-1,2.9-1.5,4.8-1.5c1.7,0,3.3,0.5,4.6,1.6c1.4,1.1,3,3.4,4.9,7l13.2,25.5l-9.4-0.1l-5.1-8.9H228L223.3,354.2z M232.4,336.6
					h8.1l-4-7.2L232.4,336.6z"/>
				<linearGradient id="SVGID_9_" gradientUnits="userSpaceOnUse" x1="267.6349" y1="318.1625" x2="305.7352" y2="356.2628">
					<stop  offset="4.253029e-02" style="stop-color:#869CCB"/>
					<stop  offset="1" style="stop-color:#000002"/>
				</linearGradient>
				<path fill="url(#SVGID_9_)" stroke="#FFFFFF" stroke-miterlimit="10" d="M307.8,320.2v8.5h-39.6v17h39.6v8.5h-37.3
					c-1.7,0-3.2-0.2-4.5-0.7c-1.2-0.5-2.4-1.3-3.6-2.4c-1.1-1.1-1.9-2.2-2.4-3.1c-0.6-1.1-0.8-2.4-0.8-3.8v-11.4
					c0-2.4,0.2-4.3,0.7-5.7c0.6-1.8,1.7-3.3,3.3-4.5c1.3-1,2.6-1.7,4.2-2c1-0.2,2.6-0.3,4.8-0.3H307.8z"/>
				<linearGradient id="SVGID_10_" gradientUnits="userSpaceOnUse" x1="315.7376" y1="316.6949" x2="356.9254" y2="357.8827">
					<stop  offset="4.253029e-02" style="stop-color:#869CCB"/>
					<stop  offset="1" style="stop-color:#000002"/>
				</linearGradient>
				<path fill="url(#SVGID_10_)" stroke="#FFFFFF" stroke-miterlimit="10" d="M321.7,320.2v34h-9.5v-34H321.7z M342.7,320.2h17.6
					l-29.3,17l29.5,17h-17.8l-15.4-8.8c-1.9-1-3.3-2.2-4.3-3.3c-1.2-1.4-1.8-3-1.8-4.8c0-1.4,0.4-2.8,1.2-4c1-1.4,2.8-2.9,5.4-4.3
					L342.7,320.2z"/>
			</g>
		</g>
	</g>
	<g>
		<path fill="#FFFFFF" d="M125.7,476.1c-1.1,0-1.8-0.2-2.2-0.5c-0.4-0.3-0.6-0.9-0.6-1.8v-1l2.5-0.5v1.7h6.5c0.5,0,0.8-0.1,0.9-0.2
			c0.2-0.1,0.2-0.4,0.2-0.9V472c0-0.4-0.1-0.7-0.2-0.9c-0.2-0.1-0.5-0.2-0.9-0.2h-4V469h3.6c0.5,0,0.8-0.1,0.9-0.2
			c0.2-0.1,0.2-0.4,0.2-0.9v-0.6c0-0.4-0.1-0.7-0.2-0.9c-0.2-0.1-0.5-0.2-0.9-0.2h-5.9v1.5l-2.4-0.4v-0.7c0-0.9,0.2-1.5,0.6-1.8
			s1.1-0.5,2.2-0.5h6.5c1.1,0,1.8,0.2,2.2,0.5s0.6,0.9,0.6,1.8v1.1c0,0.7-0.2,1.2-0.5,1.6s-0.9,0.6-1.8,0.7c1,0.1,1.7,0.3,2.1,0.7
			c0.4,0.4,0.7,1,0.7,1.7v1.3c0,1-0.2,1.7-0.6,2c-0.4,0.4-1.2,0.5-2.3,0.5H125.7z"/>
		<path fill="#FFFFFF" d="M140.5,467c0-1.1,0.2-1.8,0.6-2.2c0.4-0.4,1.1-0.6,2.2-0.6h8.1c1.1,0,1.8,0.2,2.2,0.6
			c0.4,0.4,0.6,1.1,0.6,2.2v6.3c0,1.1-0.2,1.8-0.6,2.2c-0.4,0.4-1.1,0.6-2.2,0.6h-8.1c-1.1,0-1.8-0.2-2.2-0.6
			c-0.4-0.4-0.6-1.1-0.6-2.2V467z M143,474h8.6v-7.8H143V474z"/>
		<path fill="#FFFFFF" d="M167.4,476.1v-9.8h6.6c1.9,0,3.4,0.4,4.4,1.3c1,0.8,1.5,2,1.5,3.6c0,1.6-0.5,2.9-1.6,3.7s-2.7,1.2-4.9,1.2
			H167.4z M169.8,474.3h3.1c1.7,0,2.9-0.2,3.5-0.7s1-1.3,1-2.5c0-1-0.3-1.8-0.8-2.3c-0.6-0.5-1.4-0.7-2.6-0.7h-4.2V474.3z"/>
		<path fill="#FFFFFF" d="M183.5,476.1v-9.8H194v1.7h-8.1v2.1h4.7v1.7h-4.7v2.4h8.2v1.8H183.5z"/>
		<path fill="#FFFFFF" d="M206.4,468.6c0-0.9,0.2-1.5,0.5-1.8c0.3-0.3,1-0.5,2-0.5h7.6c1,0,1.7,0.2,2,0.5c0.3,0.3,0.5,0.9,0.5,1.8
			v5.2c0,0.9-0.2,1.5-0.5,1.8c-0.4,0.3-1,0.5-2,0.5h-7.6c-1,0-1.7-0.2-2-0.5c-0.3-0.3-0.5-0.9-0.5-1.8V468.6z M208.8,474.3h7.9v-6.1
			h-7.9V474.3z"/>
		<path fill="#FFFFFF" d="M231.8,468.1h-6.4v6.1h6.4v-2.1l2.4,0.5v1.2c0,0.9-0.2,1.5-0.5,1.8c-0.4,0.3-1,0.5-2,0.5h-6.1
			c-1,0-1.7-0.2-2-0.5c-0.4-0.3-0.5-0.9-0.5-1.8v-5.2c0-0.9,0.2-1.5,0.5-1.8c0.4-0.3,1-0.5,2-0.5h6.1c1,0,1.7,0.2,2,0.5
			c0.4,0.3,0.5,0.9,0.5,1.8v1l-2.4,0.4V468.1z"/>
		<path fill="#FFFFFF" d="M244,468.1v8.1h-2.4v-8.1h-4.7v-1.8h11.9v1.8H244z"/>
		<path fill="#FFFFFF" d="M254.2,466.3v8h6.8v-8h2.4v7.5c0,0.9-0.2,1.5-0.5,1.8c-0.4,0.3-1,0.5-2,0.5h-6.5c-1,0-1.7-0.2-2-0.5
			c-0.4-0.3-0.5-0.9-0.5-1.8v-7.5H254.2z"/>
		<path fill="#FFFFFF" d="M267.8,476.1v-9.8h8.8c0.8,0,1.4,0.1,1.8,0.4c0.4,0.3,0.5,0.8,0.5,1.5v1.2c0,0.4-0.1,0.8-0.4,1.1
			s-0.7,0.5-1.2,0.6c0.6,0.1,1,0.3,1.3,0.6s0.5,0.7,0.5,1.2v1.3c0,0.6-0.3,1.1-0.8,1.4c-0.5,0.3-1.3,0.5-2.3,0.5H267.8z
			 M275.5,467.9h-5.4v2.3h5.4c0.4,0,0.7-0.1,0.8-0.2c0.2-0.1,0.2-0.3,0.2-0.5v-0.9c0-0.3-0.1-0.4-0.2-0.5
			C276.2,468,275.9,467.9,275.5,467.9z M275.5,471.9h-5.4v2.5h5.4c0.5,0,0.8-0.1,0.9-0.2c0.2-0.1,0.2-0.4,0.2-0.7v-0.7
			c0-0.3-0.1-0.6-0.2-0.7C276.3,471.9,276,471.9,275.5,471.9z"/>
		<path fill="#FFFFFF" d="M283.1,476.1v-9.8h8.8c0.8,0,1.4,0.1,1.8,0.4c0.4,0.3,0.5,0.8,0.5,1.5v2.3c0,0.7-0.2,1.1-0.5,1.4
			c-0.4,0.3-0.9,0.4-1.8,0.4h-1.3l4.7,3.7h-3.4l-4.1-3.7h-2.3v3.7H283.1z M290.9,468h-5.5v2.7h5.5c0.4,0,0.7-0.1,0.9-0.2
			c0.2-0.1,0.2-0.3,0.2-0.6v-1.1c0-0.3-0.1-0.5-0.2-0.6C291.6,468.1,291.3,468,290.9,468z"/>
		<path fill="#FFFFFF" d="M298.1,476.1v-9.8h10.5v1.7h-8.1v2.1h4.7v1.7h-4.7v2.4h8.2v1.8H298.1z"/>
	</g>
</g>
</svg>
