<?xml version="1.0" encoding="utf-8"?>
<!-- Generator: Adobe Illustrator 18.1.0, SVG Export Plug-In . SVG Version: 6.00 Build 0)  -->
<!DOCTYPE svg PUBLIC "-//W3C//DTD SVG 1.1//EN" "http://www.w3.org/Graphics/SVG/1.1/DTD/svg11.dtd">
<svg version="1.1" id="Layer_1" xmlns="http://www.w3.org/2000/svg" xmlns:xlink="http://www.w3.org/1999/xlink" x="0px" y="0px"
	 viewBox="0 0 734 166.1" enable-background="new 0 0 734 166.1" xml:space="preserve">
<g>
	<g>
		
			<rect x="462.7" y="30.5" transform="matrix(0.3387 0.9409 -0.9409 0.3387 367.0999 -395.0755)" fill="#EA7C34" width="3.8" height="66.3"/>
	</g>
	<g>
		
			<rect x="431.8" y="103.8" transform="matrix(0.8914 0.4532 -0.4532 0.8914 98.471 -199.5529)" fill="#EA7C34" width="67.7" height="3.8"/>
	</g>
	<g>
		<polygon fill="#332D2C" points="734.7,128.5 491.4,128.5 491.4,44.9 734.7,44.9 695.6,86.7 		"/>
	</g>
	<g>
		<polygon fill="#EA7C34" points="713.9,119.7 499.6,119.7 499.6,54.4 713.9,54.4 679.5,87.1 		"/>
	</g>
	<g>
		<polygon fill="#1F140F" points="401.9,132.2 351.1,144.7 324.7,123.9 401.2,104.9 		"/>
	</g>
	<g>
		<polygon fill="#332D2C" points="405.2,34.7 356.3,16 327.5,33.5 401.2,61.7 		"/>
	</g>
	<g>
		<path fill="#EA7C34" d="M221,1.6C141.9-5.1,62.3,12.2,24.1,39.5c6.7,12.1,14.5,33.9,7.6,62.7c59.9,19.4,189.2,42.9,396-9.9V65
			C397,49.6,309.4,9.1,221,1.6z"/>
	</g>
	<g>
		<path fill="#D3702E" d="M31.7,102.2c-0.8,3.4-1.8,6.9-3,10.5c41.9,26.3,125.6,42.2,215,33.8c97-9.1,159.7-36.9,184-49.6v-4.5
			C220.9,145.1,91.6,121.6,31.7,102.2z"/>
	</g>
	<g>
		<path fill="#1F140F" d="M179.8,161.8c0.6-0.2,1.2-0.5,1.8-0.8c-11.5-2.2-32.1-1.5-38.7-1.7c-4.6-0.2-8.4,0.5-10.9,1.1
			C138.8,162.6,171.9,164.2,179.8,161.8z"/>
	</g>
	<g>
		<path fill="#2E779C" d="M135.6,144.5c-3.5,0.1-6.3,0.3-8.2,0.4c0.1,2.2,0.3,4.8,0.7,7.2c2.2-0.5,4.8-0.8,7.5-1.1V144.5z"/>
	</g>
	<g>
		<path fill="#2E779C" d="M160.2,150.7c3.1,0.1,5.9,0.3,8.4,0.5l0.8-6.1c-2.9-0.2-5.8-0.4-8.7-0.5L160.2,150.7z"/>
	</g>
	<g>
		<path fill="#2E779C" d="M137.7,150.8c2.9-0.2,6-0.3,9.1-0.3l0.3-6.2c-3.4,0-6.6,0-9.4,0.1V150.8z"/>
	</g>
	<g>
		<path fill="#2E779C" d="M170.5,151.3c4.1,0.3,6.7,0.5,6.7,0.5c3.1-1.7,6.3-5.3,6.3-5.3c-4.1-0.5-8.1-1-12.2-1.3L170.5,151.3z"/>
	</g>
	<g>
		<path fill="#2E779C" d="M148.8,150.5c3.2,0,6.3,0.1,9.3,0.2l0.5-6.1c-3.3-0.1-6.5-0.2-9.5-0.2L148.8,150.5z"/>
	</g>
	<g>
		<g>
			<path fill="#221C1D" d="M567.4,114.6c-1.6,0-3.2,0-4.8,0c-0.5,0-0.7-0.2-0.6-0.7c0-0.8,0-1.6,0-2.4c0-1.2,0.5-1.8,1.7-2
				c1.1-0.2,2.1-0.2,3.2-0.3c0.8-0.1,1.6-0.1,2.4-0.2c0.6,0,0.8-0.3,0.8-0.9c0-0.6-0.3-0.9-0.8-0.9c-1.2,0-2.4-0.1-3.6,0
				c-0.6,0-1,0.4-0.9,1c0,0.4-0.2,0.6-0.6,0.5c-0.2,0-0.4,0-0.6,0c-0.5-0.1-1.3,0.4-1.5-0.3c-0.4-1,0.1-2.4,0.9-2.8
				c0.3-0.2,0.7-0.3,1-0.4c2.3-0.2,4.5-0.2,6.8,0c1.4,0.1,2,0.8,2.1,2.2c0.2,2.9-0.5,3.7-3.4,3.8c-1.1,0-2.3,0.1-3.4,0.2
				c-0.3,0-0.6,0.1-0.9,0.1c-0.4,0.1-0.6,0.4-0.5,0.8c0,0.4,0.4,0.2,0.6,0.2c2.3,0,4.6,0.1,7,0c0.6,0,0.7,0.2,0.7,0.7
				c0,1.3,0,1.3-1.3,1.3C570.2,114.7,568.8,114.6,567.4,114.6z"/>
		</g>
		<g>
			<path fill="#221C1D" d="M580.6,114.3c-1-0.1-2.1,0.1-3.3-0.1c-1.4-0.2-2.1-1-2.2-2.4c-0.1-1.5-0.1-3,0-4.5
				c0.1-1.5,0.9-2.3,2.4-2.5c2.2-0.2,4.5-0.2,6.7,0c1.4,0.2,2.2,1,2.3,2.5c0.1,1.4,0.1,2.9,0,4.3c-0.1,1.8-1.1,2.6-3.1,2.6
				C582.6,114.4,581.7,114.3,580.6,114.3z M580.8,112L580.8,112c0.6,0,1.2,0,1.7,0c0.9-0.1,1.2-0.4,1.3-1.3c0-0.7,0-1.5,0-2.2
				c0-0.9-0.4-1.3-1.2-1.3c-1.1-0.1-2.3-0.1-3.4,0c-0.9,0-1.3,0.4-1.3,1.3c0,0.7,0,1.4,0,2.1c0,0.9,0.4,1.3,1.4,1.4
				C579.8,112,580.3,112,580.8,112z"/>
		</g>
		<g>
			<path fill="#221C1D" d="M612.8,106.9c0,0.7,0,1.4,0,2.1c0,0.5,0.1,0.7,0.6,0.6c0.7-0.1,0.9,0.2,0.8,0.8c0,0.2,0,0.4,0,0.6
				c0.1,0.5-0.1,0.7-0.6,0.6c-0.6-0.1-0.8,0.2-0.8,0.8c0,1.1,0,1.1-1.1,1.1c-0.1,0-0.3,0-0.4,0c-1.2,0-1.3,0-1.2-1.2
				c0-0.5-0.1-0.7-0.7-0.7c-2,0-4,0-5.9,0c-0.5,0-0.7-0.1-0.7-0.7c0.1-0.9-0.2-2,0.2-2.7c0.4-0.7,1.4-1,2.2-1.5
				c0.8-0.5,1.6-0.9,2.4-1.4c1.4-1.2,3-1.3,4.7-1.2c0.4,0,0.6,0.2,0.6,0.6C612.7,105.5,612.8,106.2,612.8,106.9z M610,106.5
				c-1.7,1-3.2,2-4.8,2.9c1.5,0.1,2.9,0.1,4.3,0.2c0.3,0,0.5-0.1,0.5-0.4C610,108.3,610,107.5,610,106.5z"/>
		</g>
		<g>
			<path fill="#221C1D" d="M594.7,106.8c-0.9,0.6-1.7,1-2.4,1.5c-0.4,0.2-0.5,0.2-0.8-0.1c-1-1.5-1-1.4,0.4-2.4c0,0,0,0,0.1,0
				c1.4-1.4,3.2-1.3,4.9-1.3c0.5,0,0.5,0.3,0.4,0.6c0,2,0,4,0,6c0,0.6,0.1,0.8,0.7,0.7c0.3,0,0.5,0,0.8,0c0.8-0.1,1.1,0.1,1,1
				c-0.1,1,0,1-1.1,1c-2.3,0-4.5,0-6.8,0c-0.6,0-0.8-0.1-0.8-0.7c0-1.3,0-1.3,1.4-1.3c0.7,0,1.5,0.3,1.9-0.1
				c0.4-0.4,0.1-1.2,0.1-1.9C594.8,108.9,594.7,108,594.7,106.8z"/>
		</g>
	</g>
	<g>
		<g>
			<path fill="#221C1D" d="M583.9,90.3c-0.6,1.8-1.2,3.6-1.7,5.4c-0.1,0.3-0.2,0.4-0.5,0.4c-0.4,0-0.9,0-1.3,0
				c-0.2,0-0.2-0.1-0.3-0.3c-0.5-1.7-1-3.3-1.5-5c0-0.1,0-0.3-0.2-0.4c0,0.1,0,0.3,0,0.4c0,3,0,6,0,8.9c0,0.3-0.1,0.4-0.4,0.4
				c-0.6,0-1.2,0-1.8,0.1c-0.2,0-0.3,0-0.3-0.3c0-1.1,0-2.2,0-3.2c0-4.8,0-9.7,0-14.5c0-0.4,0.1-0.5,0.5-0.5c0.5,0,1.1,0,1.6-0.1
				c0.2,0,0.3,0.1,0.4,0.3c0.9,2.8,1.7,5.6,2.6,8.4c0,0.1,0.1,0.2,0.1,0.4c0.2-0.6,0.3-1.1,0.5-1.5c0.8-2.5,1.6-4.9,2.3-7.4
				c0.1-0.2,0.2-0.3,0.4-0.3c0.6,0,1.1,0,1.7,0c0.3,0,0.4,0.1,0.4,0.4c0,4.2,0,8.4,0,12.6c0,1.7,0,3.5,0,5.2c0,0.3-0.1,0.4-0.3,0.3
				c-0.6,0-1.1,0-1.7,0c-0.3,0-0.4-0.1-0.4-0.4c0-3,0-6,0-9C583.9,90.6,583.9,90.4,583.9,90.3C583.9,90.3,583.9,90.3,583.9,90.3z"/>
		</g>
		<g>
			<path fill="#221C1D" d="M615.3,92c0-0.2,0-0.3,0-0.5c0-2.7,0-5.4,0-8.1c0-0.4,0.1-0.4,0.4-0.3c0.6,0.1,1.1,0.1,1.7,0.2
				c0.2,0,0.3,0.1,0.3,0.3c0,6,0,11.9,0,17.9c0,0.2-0.1,0.3-0.3,0.3c-0.7-0.1-1.5-0.2-2.2-0.3c-0.2,0-0.3-0.1-0.3-0.3
				c-0.7-3.1-1.5-6.3-2.2-9.4c0,0,0,0-0.1-0.1c0,0.2,0,0.3,0,0.5c0,2.9,0,5.8,0,8.8c0,0.3,0,0.4-0.3,0.3c-0.6-0.1-1.2-0.1-1.8-0.2
				c-0.2,0-0.3-0.1-0.3-0.3c0-1.2,0-2.3,0-3.5c0-4.8,0-9.6,0-14.3c0-0.3,0.1-0.4,0.4-0.4c0.7,0.1,1.5,0.2,2.2,0.2
				c0.2,0,0.3,0.1,0.4,0.3c0.7,2.8,1.4,5.7,2,8.5C615.2,91.7,615.2,91.9,615.3,92z"/>
		</g>
		<g>
			<path fill="#221C1D" d="M608,91.6c0,2.5,0,5,0,7.6c0,1-0.7,1.6-1.7,1.5c-1.2-0.1-2.3-0.2-3.5-0.2c-0.9-0.1-1.6-0.8-1.6-1.7
				c0-5.1,0-10.2,0-15.3c0-0.9,0.7-1.6,1.6-1.5c1.2,0.1,2.4,0.2,3.6,0.3c1,0.1,1.6,0.8,1.6,1.8C608,86.5,608,89.1,608,91.6z
				 M603.7,91.2c0,2.2,0,4.4,0,6.5c0,0.3,0.1,0.4,0.4,0.4c0.4,0,0.9,0,1.3,0.1c0.3,0,0.4,0,0.4-0.3c0-2.4,0-4.7,0-7.1
				c0-2,0-3.9,0-5.9c0-0.3-0.1-0.4-0.4-0.4c-0.4,0-0.8,0-1.3-0.1c-0.3,0-0.4,0-0.4,0.3C603.7,86.9,603.7,89.1,603.7,91.2z"/>
		</g>
		<g>
			<path fill="#221C1D" d="M564.8,91.9c0,2.9,0,5.9,0,8.8c0,0.3-0.1,0.4-0.4,0.5c-0.5,0-1.1,0.1-1.6,0.2c-0.3,0-0.4-0.1-0.4-0.4
				c0-2.3,0-4.5,0-6.8c0-0.3-0.1-0.4-0.4-0.4c-0.4,0.1-0.8,0.1-1.3,0.1c-0.3,0-0.3,0.1-0.3,0.4c0,2.3,0,4.6,0,6.9
				c0,0.3-0.1,0.4-0.4,0.4c-0.6,0-1.1,0.1-1.7,0.2c-0.3,0-0.3,0-0.3-0.3c0-3.8,0-7.7,0-11.5c0-2.1,0-4.2,0-6.3
				c0-0.3,0.1-0.3,0.3-0.4c0.6,0,1.2-0.1,1.7-0.2c0.3,0,0.3,0,0.3,0.3c0,2.6,0,5.2,0,7.8c0,0.3,0.1,0.4,0.4,0.3
				c0.4-0.1,0.8-0.1,1.3-0.1c0.3,0,0.4-0.1,0.4-0.4c0-2.6,0-5.2,0-7.8c0-0.3,0.1-0.4,0.4-0.4c0.6,0,1.1-0.1,1.7-0.2
				c0.3,0,0.3,0.1,0.3,0.3c0,1.2,0,2.4,0,3.7C564.8,88.3,564.8,90.1,564.8,91.9z"/>
		</g>
		<g>
			<path fill="#221C1D" d="M572.4,100.5c-0.3,0.1-0.4,0-0.4-0.4c-0.1-1-0.2-2-0.3-2.9c0-0.2-0.1-0.3-0.3-0.2
				c-0.7,0.1-1.4,0.1-2.1,0.2c-0.2,0-0.3,0.1-0.3,0.3c-0.1,1-0.2,2-0.3,3c0,0.2-0.1,0.3-0.4,0.3c-0.6,0-1.2,0.1-1.7,0.1
				c-0.2,0-0.3,0-0.3-0.3c0.2-1.5,0.3-2.9,0.5-4.4c0.2-1.8,0.4-3.5,0.6-5.3c0.2-2,0.4-4,0.6-5.9c0.1-0.8,0.2-1.6,0.2-2.4
				c0-0.2,0-0.3,0.3-0.3c1.2-0.1,2.4-0.2,3.6-0.3c0.3,0,0.4,0,0.4,0.3c0.3,2.8,0.6,5.6,0.9,8.3c0.2,2.2,0.5,4.4,0.7,6.7
				c0.1,0.8,0.2,1.6,0.3,2.5c0.1,0.5,0.1,0.5-0.4,0.6C573.4,100.4,572.9,100.5,572.4,100.5z M570.3,85.1
				C570.3,85,570.3,85,570.3,85.1c-0.1,0.1-0.1,0.3-0.1,0.4c-0.1,0.8-0.2,1.6-0.2,2.5c-0.2,2.2-0.5,4.4-0.7,6.6
				c0,0.2,0.1,0.3,0.3,0.2c0.5,0,1-0.1,1.6-0.1c0.2,0,0.3-0.1,0.2-0.3c-0.1-1.2-0.3-2.4-0.4-3.7C570.7,88.8,570.5,86.9,570.3,85.1z"
				/>
		</g>
		<g>
			<path fill="#221C1D" d="M626.5,97.7c0,1.2,0,2.5,0,3.7c0,0.9-0.6,1.5-1.5,1.4c-1-0.1-1.9-0.3-2.9-0.4c-0.2,0-0.5-0.1-0.7-0.1
				c-0.9-0.1-1.6-0.9-1.6-1.8c0-1.2,0-2.4,0-3.6c0-0.2,0-0.3,0.3-0.3c0.6,0.1,1.2,0.2,1.8,0.3c0.2,0,0.3,0.1,0.3,0.3
				c0,0.9,0,1.7,0,2.6c0,0.3,0.1,0.4,0.3,0.4c0.5,0.1,0.9,0.1,1.4,0.2c0.2,0,0.3,0,0.3-0.2c0-1,0-2.1,0-3.1c0-0.7,0-1.5,0-2.2
				c0-0.2-0.1-0.3-0.3-0.4c-0.8-0.1-1.6-0.2-2.5-0.3c-0.9-0.1-1.6-0.9-1.6-1.8c0-2.3,0-4.6,0-7c0-0.9,0.6-1.5,1.5-1.4
				c1.2,0.2,2.4,0.3,3.6,0.5c1,0.2,1.6,0.9,1.6,1.9c0,1.2,0,2.4,0,3.5c0,0.2,0,0.3-0.3,0.2c-0.6-0.1-1.1-0.2-1.7-0.3
				c-0.3,0-0.4-0.2-0.4-0.4c0-0.8,0-1.6,0-2.4c0-0.2,0-0.3-0.3-0.3c-0.5-0.1-1-0.1-1.5-0.2c-0.2,0-0.2,0-0.2,0.2c0,1.7,0,3.3,0,5
				c0,0.2,0.1,0.2,0.2,0.2c0.8,0.1,1.6,0.2,2.3,0.3c1.1,0.1,1.8,0.9,1.8,2C626.5,95.3,626.5,96.5,626.5,97.7z"/>
		</g>
		<g>
			<path fill="#221C1D" d="M553.9,89.5c0-1,0-2.1,0-3.2c-0.6,0.1-1.2,0.2-1.8,0.3c-0.2,0-0.2,0.1-0.2,0.2c0,0.1,0,0.1,0,0.2
				c0,4.3,0,8.6,0,12.9c0,0.3,0,0.4,0.4,0.3c0.4-0.1,0.8-0.1,1.3-0.2c0.2,0,0.4-0.1,0.4-0.4c0-0.9,0-1.7,0-2.6c0-0.2,0-0.3,0.3-0.3
				c0.6-0.1,1.2-0.2,1.8-0.3c0.2,0,0.3,0,0.3,0.2c0,1.3,0,2.6,0,3.9c0,0.8-0.7,1.5-1.5,1.7c-1.1,0.2-2.3,0.3-3.4,0.5
				c-1.2,0.2-1.8-0.4-1.8-1.6c0-4.9,0-9.9,0-14.8c0-1.1,0.8-2,1.8-2.1c1.1-0.1,2.2-0.3,3.3-0.5c0.9-0.1,1.6,0.4,1.6,1.3
				c0,1.2,0,2.5,0,3.7c0,0.2-0.1,0.3-0.3,0.3C555.3,89.3,554.6,89.4,553.9,89.5z"/>
		</g>
		<g>
			<path fill="#221C1D" d="M588.1,91.2c0-3,0-5.9,0-8.9c0-0.3,0.1-0.4,0.4-0.4c1.6,0,3.2,0.1,4.8,0.1c0.8,0,1.6,0.7,1.6,1.5
				c0,2.4,0,4.7,0,7.1c0,0.8-0.7,1.4-1.6,1.4c-0.8,0-1.6,0-2.4-0.1c-0.3,0-0.4,0.1-0.4,0.4c0,2.5,0,5.1,0,7.6c0,0.3-0.1,0.4-0.4,0.4
				c-0.5,0-1.1,0-1.6,0c-0.3,0-0.4-0.1-0.4-0.4C588.1,97.2,588.1,94.2,588.1,91.2z M592.5,87.1c0-0.8,0-1.6,0-2.4
				c0-0.2,0-0.3-0.2-0.3c-0.5,0-1,0-1.6,0c-0.2,0-0.2,0.1-0.2,0.2c0,1.6,0,3.2,0,4.8c0,0.2,0.1,0.3,0.3,0.3c0.4,0,0.9,0,1.3,0
				c0.4,0,0.5-0.1,0.4-0.5C592.5,88.6,592.5,87.8,592.5,87.1z"/>
		</g>
		<g>
			<path fill="#221C1D" d="M599.2,91c0,2.9,0,5.9,0,8.8c0,0.3-0.1,0.4-0.4,0.4c-0.6-0.1-1.1-0.1-1.7-0.1c-0.2,0-0.3-0.1-0.3-0.3
				c0-3.2,0-6.4,0-9.6c0-2.7,0-5.5,0-8.2c0-0.3,0-0.4,0.4-0.4c0.6,0.1,1.1,0.1,1.7,0.1c0.3,0,0.3,0.1,0.3,0.4c0,2.5,0,5,0,7.5
				C599.2,90.1,599.2,90.6,599.2,91z"/>
		</g>
	</g>
	<g>
		<g>
			<path fill="#221C1D" d="M554.9,73.2c-0.2,1.3-0.3,2.5-0.5,3.8c-0.1,1-0.3,2-0.4,3c0,0.1-0.1,0.2-0.2,0.2
				c-0.9,0.2-1.8,0.4-2.7,0.6c-0.1,0-0.2,0-0.2-0.1c-0.1-1.6-0.3-3.1-0.4-4.7c-0.1-1.6-0.3-3.3-0.4-4.9c-0.1-1.4-0.3-2.9-0.4-4.3
				c0-0.2,0-0.5-0.1-0.7c0-0.2,0-0.2,0.2-0.3c0.5-0.1,1.1-0.2,1.6-0.4c0.2,0,0.2,0,0.2,0.2c0.2,2.1,0.3,4.1,0.5,6.2
				c0.1,1.3,0.2,2.6,0.3,3.9c0.1-0.5,0.2-0.9,0.2-1.3c0.2-1.7,0.5-3.4,0.7-5c0.2-1.4,0.4-2.8,0.6-4.3c0-0.2,0.1-0.2,0.3-0.3
				c0.5-0.1,1.1-0.2,1.6-0.3c0.2,0,0.2,0,0.2,0.2c0.3,3.2,0.7,6.3,1,9.5c0,0.2,0,0.3,0.1,0.5c0.1-0.3,0.1-0.5,0.1-0.8
				c0.2-1.6,0.4-3.2,0.6-4.7c0.2-1.7,0.4-3.3,0.6-5c0-0.2,0.1-0.2,0.2-0.2c0.6-0.1,1.2-0.2,1.8-0.3c-0.1,0.8-0.2,1.5-0.3,2.3
				c-0.2,1.7-0.4,3.4-0.6,5.1c-0.2,1.7-0.4,3.4-0.6,5c-0.1,1-0.2,1.9-0.4,2.9c0,0.2-0.1,0.3-0.3,0.3c-0.9,0.1-1.7,0.3-2.6,0.5
				c-0.2,0-0.2,0-0.2-0.1c-0.2-1.9-0.4-3.7-0.6-5.5C555,73.8,555,73.5,554.9,73.2C554.9,73.2,554.9,73.2,554.9,73.2z"/>
		</g>
		<g>
			<path fill="#221C1D" d="M581,69.4c0-2.4,0.1-4.9,0.1-7.3c0-0.4,0-0.4,0.4-0.4c1.2,0,2.5,0,3.7,0c1,0,1.5,0.5,1.5,1.5
				c-0.1,4.1-0.2,8.2-0.2,12.3c0,0.9-0.5,1.5-1.5,1.5c-1.3,0-2.7,0-4,0.1c-0.2,0-0.2-0.1-0.2-0.3C580.9,74.3,581,71.9,581,69.4z
				 M583,69.3c0,1.8-0.1,3.6-0.1,5.4c0,0.2,0,0.3,0.3,0.3c0.4,0,0.8,0,1.2,0c0.2,0,0.2-0.1,0.2-0.2c0.1-3.6,0.1-7.3,0.2-10.9
				c0-0.2-0.1-0.2-0.2-0.2c-0.4,0-0.8,0-1.2,0c-0.2,0-0.3,0.1-0.3,0.3C583.1,65.8,583.1,67.5,583,69.3z"/>
		</g>
		<g>
			<path fill="#221C1D" d="M573.2,69.9c0.5,0.2,0.8,0.5,0.8,1c0,0.1,0,0.2,0,0.3c0,2-0.1,4-0.1,5.9c0,0.2-0.1,0.3-0.3,0.3
				c-0.5,0-1,0-1.4,0.1c-0.2,0-0.3,0-0.3-0.2c0-1.9,0.1-3.8,0.1-5.7c0-0.5,0-0.5-0.5-0.5c-0.3,0-0.6,0.1-0.9,0.1
				c-0.2,0-0.2,0.1-0.2,0.3c0,2-0.1,4-0.1,5.9c0,0.2-0.1,0.3-0.3,0.3c-0.5,0-1,0.1-1.4,0.1c-0.2,0-0.3,0-0.3-0.3
				c0.1-2.2,0.1-4.5,0.1-6.7c0.1-2.7,0.1-5.4,0.1-8.1c0-0.2,0.1-0.3,0.3-0.3c1.2-0.1,2.5-0.2,3.7-0.3c0.8-0.1,1.4,0.4,1.4,1.2
				c0,1.8-0.1,3.6-0.1,5.4C573.9,69.2,573.7,69.6,573.2,69.9z M571.9,66.7c0-0.7,0-1.5,0-2.2c0-0.1,0.1-0.2-0.1-0.2
				c-0.4,0-0.8,0.1-1.1,0.1c-0.1,0-0.2,0.1-0.2,0.2c0,1.5-0.1,3-0.1,4.6c0,0.1,0,0.2,0.1,0.1c0.3,0,0.7-0.1,1-0.1
				c0.2,0,0.2-0.1,0.2-0.2C571.9,68.1,571.9,67.4,571.9,66.7z"/>
		</g>
		<g>
			<path fill="#221C1D" d="M608.8,71.3c0.6,0.4,0.8,0.9,0.8,1.6c0,1.9-0.1,3.9-0.1,5.8c0,0.2,0,0.3-0.3,0.3c-0.5-0.1-1-0.2-1.5-0.2
				c-0.2,0-0.3-0.1-0.2-0.3c0-2,0.1-4,0.1-5.9c0-0.2,0-0.3-0.3-0.3c-0.4,0-0.8-0.1-1.2-0.2c-0.2,0-0.2,0-0.2,0.2c0,2-0.1,4-0.1,5.9
				c0,0.3-0.1,0.3-0.3,0.3c-0.5-0.1-1-0.1-1.4-0.2c-0.2,0-0.2-0.1-0.2-0.3c0.1-5,0.2-9.9,0.3-14.9c0-0.2,0-0.2,0.2-0.2
				c1.3,0.2,2.6,0.3,3.8,0.5c0.7,0.1,1.3,0.8,1.3,1.5c0,1.8-0.1,3.6-0.1,5.3C609.5,70.7,609.3,71.1,608.8,71.3z M607.5,67.8
				c0-0.7,0-1.4,0-2.2c0-0.2,0-0.3-0.3-0.3c-0.3,0-0.6-0.1-1-0.1c-0.2,0-0.2,0-0.2,0.2c0,1.5-0.1,3-0.1,4.5c0,0.2,0,0.2,0.2,0.2
				c0.3,0,0.7,0.1,1,0.1c0.2,0,0.2,0,0.2-0.2C607.5,69.2,607.5,68.5,607.5,67.8z"/>
		</g>
		<g>
			<path fill="#221C1D" d="M561.4,71.2c0-2.1,0.1-4.2,0.1-6.2c0-0.9,0.6-1.5,1.4-1.6c1-0.2,2-0.3,3-0.4c0.7-0.1,1.2,0.4,1.2,1.1
				c0,0.1,0,0.2,0,0.3c-0.1,4.1-0.2,8.2-0.2,12.3c0,1-0.5,1.6-1.5,1.7c-1,0.1-1.9,0.3-2.9,0.4c-0.7,0.1-1.3-0.4-1.2-1.1
				C561.3,75.4,561.4,73.3,561.4,71.2z M563.4,70.9c0,1.8-0.1,3.6-0.1,5.4c0,0.2,0,0.3,0.2,0.2c0.4-0.1,0.8-0.1,1.2-0.2
				c0.2,0,0.2-0.1,0.2-0.3c0.1-3.6,0.1-7.3,0.2-10.9c0-0.2,0-0.3-0.2-0.2c-0.4,0.1-0.8,0.1-1.2,0.2c-0.2,0-0.3,0.1-0.3,0.3
				C563.4,67.3,563.4,69.1,563.4,70.9z"/>
		</g>
		<g>
			<path fill="#221C1D" d="M594.2,72.8c0-0.7,0-1.5,0-2.2c0-0.2,0-0.3-0.2-0.3c-0.7,0-1.3-0.1-2-0.1c-0.8,0-1.4-0.6-1.4-1.4
				c0-1.9,0.1-3.8,0.1-5.7c0-0.9,0.6-1.4,1.5-1.3c0.9,0.1,1.8,0.1,2.7,0.1c0.8,0,1.3,0.4,1.4,1c0,0.1,0,0.3,0,0.4c0,1,0,2,0,2.9
				c0,0.2-0.1,0.2-0.3,0.2c-0.5,0-1-0.1-1.5-0.1c-0.2,0-0.2-0.1-0.2-0.2c0-0.7,0-1.4,0-2.1c0-0.2,0-0.2-0.2-0.2
				c-0.4,0-0.8,0-1.2-0.1c-0.2,0-0.2,0-0.2,0.2c0,1.4,0,2.7-0.1,4.1c0,0.2,0,0.2,0.2,0.2c0.6,0,1.3,0.1,1.9,0.1c1,0,1.5,0.6,1.5,1.6
				c0,2-0.1,4-0.1,6c0,0.9-0.6,1.4-1.4,1.3c-1-0.1-1.9-0.1-2.9-0.2c-0.8,0-1.3-0.6-1.3-1.4c0-1,0-2,0.1-2.9c0-0.3,0-0.3,0.3-0.3
				c0.5,0.1,1,0.1,1.4,0.1c0.2,0,0.2,0.1,0.2,0.3c0,0.7,0,1.4-0.1,2.2c0,0.2,0,0.3,0.2,0.3c0.4,0,0.8,0,1.2,0.1c0.2,0,0.2,0,0.2-0.2
				C594.1,74.3,594.2,73.6,594.2,72.8z"/>
		</g>
		<g>
			<path fill="#221C1D" d="M626.3,71.8c-0.6-0.2-1.2-0.3-1.8-0.5c-0.2,0-0.2-0.1-0.2-0.3c0-0.7,0-1.4,0-2.1c0-0.2,0-0.3-0.2-0.3
				c-0.4-0.1-0.8-0.2-1.2-0.3c-0.1,0-0.2,0-0.2,0.2c0,1.4,0,2.7-0.1,4.1c0,0.2,0.1,0.2,0.2,0.2c0.7,0.2,1.3,0.3,2,0.5
				c0.9,0.2,1.4,0.9,1.4,1.8c0,2-0.1,4-0.1,6.1c0,0.8-0.6,1.2-1.4,1c-1-0.2-1.9-0.5-2.9-0.7c-0.7-0.2-1.3-0.9-1.3-1.7
				c0-1,0-2,0.1-3.1c0-0.2,0-0.2,0.2-0.2c0.5,0.1,1,0.3,1.5,0.4c0.2,0,0.2,0.1,0.2,0.3c0,0.7,0,1.5-0.1,2.2c0,0.2,0,0.3,0.2,0.3
				c0.5,0.1,0.9,0.2,1.4,0.4c0-0.1,0-0.2,0-0.2c0-1.5,0.1-3,0.1-4.4c0-0.2-0.1-0.3-0.2-0.3c-0.7-0.2-1.3-0.3-2-0.5
				c-0.8-0.2-1.4-0.9-1.3-1.7c0-1.9,0.1-3.7,0.1-5.6c0-0.9,0.5-1.3,1.4-1.1c0.9,0.2,1.8,0.5,2.7,0.7c0.9,0.2,1.4,0.9,1.4,1.9
				C626.4,69.7,626.4,70.7,626.3,71.8C626.3,71.7,626.3,71.8,626.3,71.8z"/>
		</g>
		<g>
			<path fill="#221C1D" d="M597.7,69.9c0-2.5,0.1-4.9,0.1-7.4c0-0.2,0-0.3,0.2-0.3c1.5,0.1,3,0.3,4.5,0.4c0.2,0,0.2,0.1,0.2,0.3
				c0,0.5,0,1,0,1.5c0,0.2-0.1,0.2-0.2,0.2c-0.8-0.1-1.6-0.2-2.4-0.3c-0.4,0-0.4,0-0.4,0.3c0,1.2,0,2.4-0.1,3.6c0,0.2,0,0.4,0.3,0.4
				c0.5,0,1.1,0.1,1.6,0.2c0.1,0,0.2,0.1,0.2,0.2c0,0.5,0,1.1,0,1.6c0,0.2-0.1,0.2-0.2,0.2c-0.6-0.1-1.1-0.1-1.7-0.2
				c-0.2,0-0.2,0-0.2,0.2c0,1.6-0.1,3.2-0.1,4.8c0,0.2,0,0.2,0.2,0.2c0.9,0.1,1.8,0.2,2.7,0.3c0.2,0,0.2,0.1,0.2,0.2
				c0,0.5,0,1,0,1.6c0,0.2,0,0.2-0.2,0.2c-1.5-0.2-3.1-0.3-4.6-0.5c-0.2,0-0.3-0.1-0.3-0.3C597.6,74.8,597.6,72.3,597.7,69.9z"/>
		</g>
		<g>
			<path fill="#221C1D" d="M614.4,72.2c0-2.5,0.1-4.9,0.1-7.4c0-0.3,0.1-0.3,0.3-0.2c1.5,0.3,2.9,0.6,4.4,0.9c0.2,0,0.2,0.1,0.2,0.3
				c0,0.5,0,1.1,0,1.6c0,0.2,0,0.2-0.2,0.2c-0.8-0.2-1.7-0.4-2.5-0.6c-0.2,0-0.2,0-0.2,0.2c0,1.2,0,2.5-0.1,3.7c0,0.2,0,0.3,0.2,0.3
				c0.5,0.1,1.1,0.2,1.6,0.3c0.1,0,0.2,0.1,0.2,0.2c0,0.5,0,1.1,0,1.6c0,0.2-0.1,0.2-0.2,0.1c-0.6-0.1-1.1-0.2-1.7-0.4
				c-0.2,0-0.2,0-0.2,0.2c0,1.6-0.1,3.2-0.1,4.8c0,0.1,0,0.2,0.2,0.2c0.9,0.2,1.7,0.4,2.6,0.6c0.2,0,0.3,0.1,0.3,0.4
				c0,0.5,0,1,0,1.4c0,0.2,0,0.2-0.2,0.2c-1.5-0.4-3.1-0.7-4.7-1c-0.2,0-0.2-0.1-0.2-0.3c0-0.7,0-1.4,0-2.2
				C614.4,75.7,614.4,73.9,614.4,72.2z"/>
		</g>
		<g>
			<path fill="#221C1D" d="M575.5,69.6c0-2.5,0.1-4.9,0.1-7.4c0-0.2,0.1-0.3,0.3-0.3c0.5,0,0.9,0,1.4-0.1c0.3,0,0.3,0,0.3,0.3
				c-0.1,4.2-0.2,8.5-0.2,12.7c0,0.3,0,0.3,0.3,0.3c0.6,0,1.2,0,1.8-0.1c0.2,0,0.2,0,0.2,0.2c0,0.5,0,1,0,1.6c0,0.1,0,0.2-0.2,0.2
				c-1.3,0.1-2.6,0.1-3.9,0.2c-0.3,0-0.3-0.1-0.3-0.3C575.4,74.5,575.4,72.1,575.5,69.6z"/>
		</g>
		<g>
			<path fill="#221C1D" d="M611.1,71.6c0-2.5,0.1-4.9,0.1-7.4c0-0.2,0-0.3,0.3-0.2c0.5,0.1,1,0.2,1.4,0.3c0.2,0,0.2,0.1,0.2,0.3
				c0,0.7,0,1.4,0,2.1c-0.1,4.2-0.2,8.4-0.2,12.6c0,0.3,0,0.3-0.3,0.3c-0.5-0.1-0.9-0.2-1.4-0.2c-0.2,0-0.3-0.1-0.3-0.3
				C611,76.5,611,74,611.1,71.6z"/>
		</g>
	</g>
	<g>
		<g>
			<path fill="#E9743E" d="M515.7,83.1c0.2-0.5,0.5-1,0.5-1.5c0-0.2,0.1-0.3,0.4-0.3c3.7,0.2,7.3,0,11-0.3c0.4,0,0.5,0.1,0.5,0.5
				c0.1,0.9,0.3,1.8,0.7,2.6c0.2,0.4,0.1,0.5-0.3,0.5c-0.2,0-0.5,0-0.7,0c-0.6,0.1-1.1,0-1.3-0.7c-0.2-0.5-0.8-0.8-1.4-0.8
				c-1.8,0-3.6,0.1-5.3,0.1c-0.4,0-0.5,0.1-0.5,0.5c0,1.5,0,1.5,1.5,1.5c1.2,0,2.4-0.1,3.6-0.1c0.3,0,0.4,0.1,0.5,0.3
				c0.5,0.7,1,1.4,1.8,1.8c0.3,0.1,0.3,0.3,0.3,0.6c-0.2,1.8-0.1,3.7,0.1,5.5c0,0.2,0,0.4-0.2,0.5c-0.7,0.5-1.4,1.1-1.8,1.9
				c-0.1,0.2-0.2,0.3-0.5,0.2c-1.5-0.2-3.1-0.1-4.7,0c-0.3,0-0.4,0.1-0.4,0.4c0,1.3,0.2,1.7,1.5,2c-0.2,0.6-0.4,1.1-0.6,1.7
				c-0.1,0.3-0.3,0.3-0.5,0.3c-1,0-2,0-3,0.1c-0.1,0-0.3,0-0.3,0c-0.3-0.6-0.5-1.2-0.8-1.9c-0.1-0.1,0.2-0.1,0.3-0.2
				c0.9-0.3,1.3-1.2,1.1-2.1c-0.1-0.2-0.2-0.2-0.3-0.2c-0.5,0-1,0-1.5,0.1c-0.4,0.1-0.6,0-0.9-0.4c-0.4-0.6-1-1.2-1.7-1.6
				c-0.2-0.1-0.3-0.3-0.3-0.6c0.1-1.2,0-2.4-0.2-3.6c-0.1-0.4,0-0.4,0.3-0.4c0.5,0,1.1,0,1.6,0c0.4,0,0.4,0.2,0.4,0.5
				c0,0.6,0.1,1.2,0,1.8c0,0.6,0.2,1,0.6,1.5c0.5,0.6,1,0.5,1.6,0.5c0.3,0,0.3-0.2,0.2-0.4c0-1.9-0.1-3.8-0.1-5.7
				c0-0.3-0.1-0.4-0.4-0.4c-1.4,0.3-2.3-0.4-3.4-1.3c-0.8-0.7-0.9-1.2-0.8-2.1c0.1-1.5,0.1-3.1-0.2-4.6c-0.1-0.3,0-0.5,0.3-0.7
				c0.6-0.4,1.2-0.9,1.6-1.5c0.1-0.2,0.2-0.3,0.5-0.3c2.6,0.3,5.3,0.2,7.9,0c0.5,0,1,0,1.5-0.2c0.3-0.1,0.5,0,0.6,0.2
				c0.4,0.5,0.9,0.9,1.4,1.1c0.3,0.1,0.4,0.3,0.4,0.6c0,0.1,0,0.3,0,0.4c0,0.3,0.3,0.7,0.1,0.9c-0.3,0.2-0.7,0-1,0.1
				c-0.8,0.1-1.4-0.1-1.8-0.7c-0.2-0.3-0.5-0.3-0.8-0.3c-2.4,0.1-4.7,0.1-7.1,0.2c-0.8,0-1.5,0.8-1.5,1.6c0,1,0,2,0.1,3
				c0,1,1.3,1.9,2.2,1.6c0.2,0,0.2-0.1,0.2-0.3c0.1-0.8-0.2-1.5-1-1.8C515.8,83.2,515.7,83.2,515.7,83.1z M523.2,91.7
				c-0.8-0.3-1.5-0.3-2.3-0.3c-1.7,0-1.7,0-1.6,1.6c0,0.1,0,0.2,0,0.3c0,0.4,0.1,0.5,0.5,0.5c1,0,1.9-0.1,2.9-0.1
				c0.8,0,1.3-0.2,1.7-0.8c0.2-0.3,0.2-0.5,0.2-0.8c0-1-0.1-2.1-0.1-3.1c0-0.4-0.2-0.7-0.4-1c-0.5-0.6-1-0.9-1.8-0.8
				c-0.5,0.1-0.9,0-1.4,0c-1.8,0-1.7,0-1.7,1.8c0,0.5,0.2,0.6,0.6,0.6c1.1,0,2.2,0,3.3-0.4C523,90,523.1,90.8,523.2,91.7z"/>
		</g>
		<g>
			<path fill="#221C1D" d="M523.2,91.7c-0.2-0.9-0.2-1.7-0.1-2.5c-1.1,0.4-2.2,0.4-3.3,0.4c-0.4,0-0.6-0.1-0.6-0.6
				c0-1.7-0.1-1.7,1.7-1.8c0.5,0,1,0,1.4,0c0.8-0.1,1.4,0.2,1.8,0.8c0.2,0.3,0.4,0.6,0.4,1c0,1,0,2.1,0.1,3.1c0,0.3-0.1,0.5-0.2,0.8
				c-0.4,0.6-0.9,0.9-1.7,0.8c-1,0-1.9,0-2.9,0.1c-0.4,0-0.5-0.1-0.5-0.5c0-0.1,0-0.2,0-0.3c0-1.6,0-1.7,1.6-1.6
				C521.7,91.4,522.4,91.4,523.2,91.7z"/>
		</g>
		<g>
			<path fill="#221C1D" d="M519.5,72c-9.4,0.2-16.8,8-16.6,17.3c0.2,9.3,8,16.8,17.3,16.6c9.4-0.3,16.8-7.8,16.5-17.3
				C536.6,79,528.7,71.9,519.5,72z M528.4,84.6c-0.2,0-0.5,0-0.7,0c-0.6,0.1-1.1,0-1.3-0.7c-0.2-0.5-0.8-0.8-1.4-0.8
				c-1.8,0-3.6,0.1-5.3,0.1c-0.4,0-0.5,0.1-0.5,0.5c0,1.5,0,1.5,1.5,1.5c1.2,0,2.4-0.1,3.6-0.1c0.3,0,0.4,0.1,0.5,0.3
				c0.5,0.7,1,1.4,1.8,1.8c0.3,0.1,0.3,0.3,0.3,0.6c-0.2,1.8-0.1,3.7,0.1,5.5c0,0.2,0,0.4-0.2,0.5c-0.7,0.5-1.4,1.1-1.8,1.9
				c-0.1,0.2-0.2,0.3-0.5,0.2c-1.5-0.2-3.1-0.1-4.7,0c-0.3,0-0.4,0.1-0.4,0.4c0,1.3,0.2,1.7,1.5,2c-0.2,0.6-0.4,1.1-0.6,1.7
				c-0.1,0.3-0.3,0.3-0.5,0.3c-1,0-2,0-3,0.1c-0.1,0-0.3,0-0.3,0c-0.3-0.6-0.5-1.2-0.8-1.9c-0.1-0.1,0.2-0.1,0.3-0.2
				c0.9-0.3,1.3-1.2,1.1-2.1c-0.1-0.2-0.2-0.2-0.3-0.2c-0.5,0-1,0-1.5,0.1c-0.4,0.1-0.6,0-0.9-0.4c-0.4-0.6-1-1.2-1.7-1.6
				c-0.2-0.1-0.3-0.3-0.3-0.6c0.1-1.2,0-2.4-0.2-3.6c-0.1-0.4,0-0.4,0.3-0.4c0.5,0,1.1,0,1.6,0c0.4,0,0.4,0.2,0.4,0.5
				c0,0.6,0.1,1.2,0,1.8c0,0.6,0.2,1,0.6,1.5c0.5,0.6,1,0.5,1.6,0.5c0.3,0,0.3-0.2,0.2-0.4c0-1.9-0.1-3.8-0.1-5.7
				c0-0.3-0.1-0.4-0.4-0.4c-1.4,0.3-2.3-0.4-3.4-1.3c-0.8-0.7-0.9-1.2-0.8-2.1c0.1-1.5,0.1-3.1-0.2-4.6c-0.1-0.3,0-0.5,0.3-0.7
				c0.6-0.4,1.2-0.9,1.6-1.5c0.1-0.2,0.2-0.3,0.5-0.3c2.6,0.3,5.3,0.2,7.9,0c0.5,0,1,0,1.5-0.2c0.3-0.1,0.5,0,0.6,0.2
				c0.4,0.5,0.9,0.9,1.4,1.1c0.3,0.1,0.4,0.3,0.4,0.6c0,0.1,0,0.3,0,0.4c0,0.3,0.3,0.7,0.1,0.9c-0.3,0.2-0.7,0-1,0.1
				c-0.8,0.1-1.4-0.1-1.8-0.7c-0.2-0.3-0.5-0.3-0.8-0.3c-2.4,0.1-4.7,0.1-7.1,0.2c-0.8,0-1.5,0.8-1.5,1.6c0,1,0,2,0.1,3
				c0,1,1.3,1.9,2.2,1.6c0.2,0,0.2-0.1,0.2-0.3c0.1-0.8-0.2-1.5-1-1.8c-0.1,0-0.1-0.1-0.2-0.1c0.2-0.5,0.5-1,0.5-1.5
				c0-0.2,0.1-0.3,0.4-0.3c3.7,0.2,7.3,0,11-0.3c0.4,0,0.5,0.1,0.5,0.5c0.1,0.9,0.3,1.8,0.7,2.6C528.9,84.5,528.8,84.6,528.4,84.6z"
				/>
		</g>
	</g>
	<g>
		<g>
			<path fill="#E9743E" d="M651.6,83.8c0.2-0.5,0.5-1,0.5-1.5c0-0.2,0.1-0.3,0.4-0.3c3.7,0.2,7.3,0,11-0.3c0.4,0,0.5,0.1,0.5,0.5
				c0.1,0.9,0.3,1.8,0.7,2.6c0.2,0.4,0.1,0.5-0.3,0.5c-0.2,0-0.5,0-0.7,0c-0.6,0.1-1.1,0-1.3-0.7c-0.2-0.5-0.8-0.8-1.4-0.8
				c-1.8,0-3.6,0.1-5.3,0.1c-0.4,0-0.5,0.1-0.5,0.5c0,1.5,0,1.5,1.5,1.5c1.2,0,2.4-0.1,3.6-0.1c0.3,0,0.4,0.1,0.5,0.3
				c0.5,0.7,1,1.4,1.8,1.8c0.3,0.1,0.3,0.3,0.3,0.6c-0.2,1.8-0.1,3.7,0.1,5.5c0,0.2,0,0.4-0.2,0.5c-0.7,0.5-1.4,1.1-1.8,1.9
				c-0.1,0.2-0.2,0.3-0.5,0.2c-1.5-0.2-3.1-0.1-4.7,0c-0.3,0-0.4,0.1-0.4,0.4c0,1.3,0.2,1.7,1.5,2c-0.2,0.6-0.4,1.1-0.6,1.7
				c-0.1,0.3-0.3,0.3-0.5,0.3c-1,0-2,0-3,0.1c-0.1,0-0.3,0-0.3,0c-0.3-0.6-0.5-1.2-0.8-1.9c-0.1-0.1,0.2-0.1,0.3-0.2
				c0.9-0.3,1.3-1.2,1.1-2.1c-0.1-0.2-0.2-0.2-0.3-0.2c-0.5,0-1,0-1.5,0.1c-0.4,0.1-0.6,0-0.9-0.4c-0.4-0.6-1-1.2-1.7-1.6
				c-0.2-0.1-0.3-0.3-0.3-0.6c0.1-1.2,0-2.4-0.2-3.6c-0.1-0.4,0-0.4,0.3-0.4c0.5,0,1.1,0,1.6,0c0.4,0,0.4,0.2,0.4,0.5
				c0,0.6,0.1,1.2,0,1.8c0,0.6,0.2,1,0.6,1.5c0.5,0.6,1,0.5,1.6,0.5c0.3,0,0.3-0.2,0.2-0.4c0-1.9-0.1-3.8-0.1-5.7
				c0-0.3-0.1-0.4-0.4-0.4c-1.4,0.3-2.3-0.4-3.4-1.3c-0.8-0.7-0.9-1.2-0.8-2.1c0.1-1.5,0.1-3.1-0.2-4.6c-0.1-0.3,0-0.5,0.3-0.7
				c0.6-0.4,1.2-0.9,1.6-1.5c0.1-0.2,0.2-0.3,0.5-0.3c2.6,0.3,5.3,0.2,7.9,0c0.5,0,1,0,1.5-0.2c0.3-0.1,0.5,0,0.6,0.2
				c0.4,0.5,0.9,0.9,1.4,1.1c0.3,0.1,0.4,0.3,0.4,0.6c0,0.1,0,0.3,0,0.4c0,0.3,0.3,0.7,0.1,0.9c-0.3,0.2-0.7,0-1,0.1
				c-0.8,0.1-1.4-0.1-1.8-0.7c-0.2-0.3-0.5-0.3-0.8-0.3c-2.4,0.1-4.7,0.1-7.1,0.2c-0.8,0-1.5,0.8-1.5,1.6c0,1,0,2,0.1,3
				c0,1,1.3,1.9,2.2,1.6c0.2,0,0.2-0.1,0.2-0.3c0.1-0.8-0.2-1.5-1-1.8C651.7,83.9,651.6,83.8,651.6,83.8z M659.1,92.3
				c-0.8-0.3-1.5-0.3-2.3-0.3c-1.7,0-1.7,0-1.6,1.6c0,0.1,0,0.2,0,0.3c0,0.4,0.1,0.5,0.5,0.5c1,0,1.9-0.1,2.9-0.1
				c0.8,0,1.3-0.2,1.7-0.8c0.2-0.3,0.2-0.5,0.2-0.8c0-1-0.1-2.1-0.1-3.1c0-0.4-0.2-0.7-0.4-1c-0.5-0.6-1-0.9-1.8-0.8
				c-0.5,0.1-0.9,0-1.4,0c-1.8,0-1.7,0-1.7,1.8c0,0.5,0.2,0.6,0.6,0.6c1.1,0,2.2,0,3.3-0.4C659,90.7,659,91.5,659.1,92.3z"/>
		</g>
		<g>
			<path fill="#221C1D" d="M659.1,92.3c-0.2-0.9-0.2-1.7-0.1-2.5c-1.1,0.4-2.2,0.4-3.3,0.4c-0.4,0-0.6-0.1-0.6-0.6
				c0-1.7-0.1-1.7,1.7-1.8c0.5,0,1,0,1.4,0c0.8-0.1,1.4,0.2,1.8,0.8c0.2,0.3,0.4,0.6,0.4,1c0,1,0,2.1,0.1,3.1c0,0.3-0.1,0.5-0.2,0.8
				c-0.4,0.6-0.9,0.9-1.7,0.8c-1,0-1.9,0-2.9,0.1c-0.4,0-0.5-0.1-0.5-0.5c0-0.1,0-0.2,0-0.3c0-1.6,0-1.7,1.6-1.6
				C657.6,92,658.3,92.1,659.1,92.3z"/>
		</g>
		<g>
			<path fill="#221C1D" d="M655.4,72.7c-9.4,0.2-16.8,8-16.6,17.3c0.2,9.3,8,16.8,17.3,16.6c9.4-0.3,16.8-7.8,16.5-17.3
				C672.5,79.7,664.6,72.5,655.4,72.7z M664.3,85.3c-0.2,0-0.5,0-0.7,0c-0.6,0.1-1.1,0-1.3-0.7c-0.2-0.5-0.8-0.8-1.4-0.8
				c-1.8,0-3.6,0.1-5.3,0.1c-0.4,0-0.5,0.1-0.5,0.5c0,1.5,0,1.5,1.5,1.5c1.2,0,2.4-0.1,3.6-0.1c0.3,0,0.4,0.1,0.5,0.3
				c0.5,0.7,1,1.4,1.8,1.8c0.3,0.1,0.3,0.3,0.3,0.6c-0.2,1.8-0.1,3.7,0.1,5.5c0,0.2,0,0.4-0.2,0.5c-0.7,0.5-1.4,1.1-1.8,1.9
				c-0.1,0.2-0.2,0.3-0.5,0.2c-1.5-0.2-3.1-0.1-4.7,0c-0.3,0-0.4,0.1-0.4,0.4c0,1.3,0.2,1.7,1.5,2c-0.2,0.6-0.4,1.1-0.6,1.7
				c-0.1,0.3-0.3,0.3-0.5,0.3c-1,0-2,0-3,0.1c-0.1,0-0.3,0-0.3,0c-0.3-0.6-0.5-1.2-0.8-1.9c-0.1-0.1,0.2-0.1,0.3-0.2
				c0.9-0.3,1.3-1.2,1.1-2.1c-0.1-0.2-0.2-0.2-0.3-0.2c-0.5,0-1,0-1.5,0.1c-0.4,0.1-0.6,0-0.9-0.4c-0.4-0.6-1-1.2-1.7-1.6
				c-0.2-0.1-0.3-0.3-0.3-0.6c0.1-1.2,0-2.4-0.2-3.6c-0.1-0.4,0-0.4,0.3-0.4c0.5,0,1.1,0,1.6,0c0.4,0,0.4,0.2,0.4,0.5
				c0,0.6,0.1,1.2,0,1.8c0,0.6,0.2,1,0.6,1.5c0.5,0.6,1,0.5,1.6,0.5c0.3,0,0.3-0.2,0.2-0.4c0-1.9-0.1-3.8-0.1-5.7
				c0-0.3-0.1-0.4-0.4-0.4c-1.4,0.3-2.3-0.4-3.4-1.3c-0.8-0.7-0.9-1.2-0.8-2.1c0.1-1.5,0.1-3.1-0.2-4.6c-0.1-0.3,0-0.5,0.3-0.7
				c0.6-0.4,1.2-0.9,1.6-1.5c0.1-0.2,0.2-0.3,0.5-0.3c2.6,0.3,5.3,0.2,7.9,0c0.5,0,1,0,1.5-0.2c0.3-0.1,0.5,0,0.6,0.2
				c0.4,0.5,0.9,0.9,1.4,1.1c0.3,0.1,0.4,0.3,0.4,0.6c0,0.1,0,0.3,0,0.4c0,0.3,0.3,0.7,0.1,0.9c-0.3,0.2-0.7,0-1,0.1
				c-0.8,0.1-1.4-0.1-1.8-0.7c-0.2-0.3-0.5-0.3-0.8-0.3c-2.4,0.1-4.7,0.1-7.1,0.2c-0.8,0-1.5,0.8-1.5,1.6c0,1,0,2,0.1,3
				c0,1,1.3,1.9,2.2,1.6c0.2,0,0.2-0.1,0.2-0.3c0.1-0.8-0.2-1.5-1-1.8c-0.1,0-0.1-0.1-0.2-0.1c0.2-0.5,0.5-1,0.5-1.5
				c0-0.2,0.1-0.3,0.4-0.3c3.7,0.2,7.3,0,11-0.3c0.4,0,0.5,0.1,0.5,0.5c0.1,0.9,0.3,1.8,0.7,2.6C664.9,85.2,664.7,85.3,664.3,85.3z"
				/>
		</g>
	</g>
	<g>
		<path fill="#D3702E" d="M433.3,75.2c-66.8-28.3-130.7-46.3-189.7-53.5c-47.2-5.8-91.5-4.8-131.6,3C43.7,38,10.7,66.9,10.4,67.1
			l-0.5-0.6c0.3-0.3,33.4-29.2,101.9-42.6c40.2-7.8,84.6-8.9,131.9-3.1c59.1,7.3,123,25.3,189.9,53.6L433.3,75.2z"/>
	</g>
	<g>
		<path fill="#D3702E" d="M433.4,85.1c-122.1-20-229.6-21.3-298.4-18.9C60.4,68.9,14.2,76.4,13.8,76.5l-0.1-0.8
			c0.5-0.1,46.7-7.6,121.3-10.2c68.8-2.5,176.4-1.2,298.6,18.9L433.4,85.1z"/>
	</g>
	<g>
		<path fill="#D3702E" d="M185.9,115.8c-29.6,0-56.9-1.6-81.4-4.9c-63-8.4-86.9-24.8-87.1-24.9l0.4-0.6c0.2,0.2,24,16.5,86.9,24.8
			c36.9,4.9,79.9,6.1,127.7,3.6c59.8-3.1,127.4-12.1,200.9-26.6l0.1,0.8c-73.6,14.5-141.3,23.5-201.1,26.6
			C216.3,115.4,200.8,115.8,185.9,115.8z"/>
	</g>
	<g>
		<path fill="#EA7C34" d="M188.8,143.7c-22.8,0-44.7-1.6-65.5-4.9c-35.3-5.6-61.1-15-76.5-21.8c-16.7-7.5-25.1-13.7-25.2-13.8
			l0.5-0.6c0.1,0.1,8.5,6.3,25.1,13.7c15.3,6.9,41,16.2,76.3,21.8c39.6,6.3,83,6.6,128.9,0.9c57.4-7.1,118.9-23.5,182.9-48.9
			l0.3,0.7c-64.1,25.4-125.7,41.9-183.2,49C230.6,142.4,209.4,143.7,188.8,143.7z"/>
	</g>
	<g>
		<path fill="#332D2C" d="M0.7,75c0,6.3,2.1,12.4,6.1,18.2c6.3,2.7,14.6,5.9,24.9,9.3c6.8-28.9-1-50.6-7.6-62.7
			C9.3,50.3,0.7,62.3,0.7,75z"/>
	</g>
	<g>
		<path fill="#1F140F" d="M6.8,92.9c4.8,7,12.2,13.7,21.9,19.8c1.2-3.6,2.2-7.1,3-10.5C21.4,98.8,13,95.6,6.8,92.9z"/>
	</g>
	<g>
		<g>
			<g>
				<path fill="#D3702E" d="M179.3,121c-1.5-0.7-3.1-0.5-4.6-0.8c-16.2-2.7-28.8-11-38-24.6c-0.7-1-1.3-1.4-2.4-1
					c-0.6,0.2-1.3,0.3-1.9,0.5c-0.3,0.1-0.7,0.1-0.8-0.3c-0.1-0.7-0.4-0.8-1.1-0.6c-0.6,0.2-0.6-0.3-0.7-0.7
					c-0.6-2.2-1.9-3.8-3.7-4.9c-0.7-0.4-0.9-0.8-0.3-1.5c1.3-1.8,1.5-3.8,0.9-6c-1.9-7-3.7-14-5.5-21c-0.5-2.1-1.8-3.6-3.6-4.6
					c-0.8-0.4-0.8-0.8-0.4-1.5c0.9-1.7,1.3-3.5,1.1-5.4c-0.1-0.8,0.1-1.1,0.9-1.3c3.1-0.6,6.2-1.4,9.3-2.1c0.6-0.1,1.2-0.4,1.4,0.6
					c0,0.2,0.2,0.4,0.5,0.4c0.5-0.1,0.6-0.5,0.8-0.9c0.8-2.1,1.7-4.2,2.8-6.3c9.2-16.6,23.2-26.5,42-29.4c1.4-0.2,2.8-0.1,4.1-0.6
					c0.2,0,0.4,0,0.6,0c1,0.4,2,0.2,3.1,0.2c14.6,0.1,27.2,5.2,37.9,15c5.9,5.4,10.4,11.8,13.4,19.2c0.4,1,1,1.4,2,1.6
					c5.7,1.2,11.3,2.4,17,3.6c0.6,0.1,1.2,0.1,1.1,1.1c0,0.2,0,0.5,0.3,0.5c1.4,0.1,1.1,1.1,1.1,1.9c0.1,2.2,0.6,4.3,1.5,6.3
					c0.5,1.1,1.1,2.2,1.4,3.5c0.2,0.6,0.1,0.8-0.5,1c-2.1,0.6-4.1,1.3-6.1,2c-0.7,0.2-0.8,0-1.2-0.5c-1.2-1.9-2.1-4.1-3.8-5.7
					c-0.3-0.3-0.5-0.8-1-0.7c-0.4,0.1-0.4,0.7-0.5,1.1c-1.9,7.9-3.8,15.7-5.7,23.6c-0.5,2-0.1,4,1.1,5.8c0.4,0.6,0.3,0.8-0.2,1.1
					c-1.8,1.3-3.2,2.9-3.7,5.1c-0.2,0.7-0.5,0.8-1.1,0.6c-1.3-0.3-2.7-0.6-4-1c-1.1-0.3-1.7-0.1-2.3,0.9
					c-8,12.3-19.2,20.3-33.4,24.1c-3,0.8-6.1,1.2-9.3,1.5c-0.3,0-0.7-0.2-0.8,0.3c-0.4,0-0.8,0-1.1,0c-1.9-0.3-3.8-0.3-5.6,0
					C179.9,121,179.6,121,179.3,121z M221,103.4c1.3-0.8,2.2-2,3.2-3.2c1.8-2.1,3.5-4.2,4.8-6.6c-0.7-0.5-1.9-0.1-2-1.1
					c-0.1-0.6,0-0.9-0.7-1c-0.4-0.1-0.4-0.5-0.3-0.8c0.7-2.3-0.2-4.4-1.1-6.5c-0.3-0.6-0.3-0.9,0.3-1.2c2.1-1.2,3.3-3.1,3.8-5.5
					c0.5-2.3,0.8-4.6,1.5-6.9c0.5-1.5,0.4-3.2,0.9-4.7c1.1-3.2,1.5-6.4,2.5-9.8c-2.6,1.1-5.1,1.6-6.7,3.7c-0.3,0.3-0.5,0.2-0.7-0.1
					c-1.7-2.4-4.7-3.7-5.8-6.7c-0.4-1-1.3-0.9-1.9,0.1c-1.2,1.7-1,3.8-1.1,5.7c-0.5,6.6-0.9,13.3-1.4,19.9c-0.1,1.4,0.2,2.6,1.2,3.6
					c0.4,0.5,0.4,0.8,0,1.3c-1.4,1.9-2.5,3.9-3.3,6.2c-0.2,0.6-0.4,0.8-1.1,0.6c-1-0.3-3.3,1.1-3.7,2c0,0.1-0.1,0.3,0,0.4
					c1,0.8,0.7,2.1,0.9,3.1c0.3,1,0.6,1.9-0.6,2.8c-0.4,0.3-0.5,0.8-1.1,0.4c-0.6-0.4-0.8-0.8-0.4-1.5c0.6-1.4-0.3-4.5-1.4-5.5
					c1.1-0.4,1.8-1.2,2.7-2.2c-1.4-0.2-2.7-0.4-4-0.5c-1.2-0.1-1.7,1.1-1.4,2.1c0.5,1.4,0.7,2.9,0.9,4.4c0.1,0.7-1,0.2-1.1,0.8
					c-0.2,0.8-0.5,0.6-1,0.3c-0.4-0.3-0.6-0.6-0.4-1.2c0.6-1.4-0.3-4.5-1.6-5.5c0.8-0.3,1.3-1,2-1.5c0.7-0.5,0.7-1.1,0.4-1.8
					c-2-5.7-4-11.4-6-17.1c-0.1-0.4-0.2-0.9-0.8-1.3c-0.2,2.3-0.2,4.4-0.5,6.5c-0.3,2.3,0.4,4.3,2,5.9c0.6,0.6,0.3,0.8,0,1.2
					c-1,1.3-2.2,2.7-2.6,4.3c-0.4,1.6-1.1,2.3-2.7,2c-0.1,0-0.1,0.1-0.2,0.2c0.5,0.9,0.7,1.8,1,2.8c0.3,1,0.8,1.9-0.1,2.9
					c-0.3,0.3-0.5,0.5-0.8,0.4c-0.4-0.2-1.2-0.4-1-1c0.5-1.3-0.3-2.2-0.4-3.3c-0.2-1.6-1.2-2.1-2.7-2.1c-0.5,0-0.9,0-1.5,0
					c0.4,1,0.7,1.9,1,2.9c0.3,0.8,0.8,1.6-0.1,2.5c-0.3,0.3-0.4,0.6-0.8,0.5c-0.5-0.1-1.2-0.3-1.1-0.9c0.6-2.3-1.3-4-1.5-6.1
					c0-0.2-0.2-0.3-0.4-0.3c-0.7,0-0.6-0.5-0.7-1c-0.3-1.5-0.5-3-1.4-4.4c-1.1,1.7-1.7,3.5-1.9,5.5c0,0.5-0.1,1,0.5,1.2
					c1.3,0.4,1.3,1.7,1.8,2.7c0.3,0.8,1.6,1.8-0.1,2.7c-0.1,0.1-0.2,0.6-0.8,0.4c-0.5-0.2-0.9-0.4-0.7-1c0.1-0.3,0.2-0.6,0.1-0.9
					c-0.9-3.4-1.5-3.9-5-3.8c-0.3,0-0.5,0-1.1,0.1c1.3,0.7,1.6,1.8,2,2.8c0.4,0.8,1.7,1.7,0,2.6c0.3,0.5,0.2,0.8-0.5,0.7
					c-0.5-0.1-1.2-0.2-1-0.9c0.3-1.1-0.4-1.9-0.8-2.7c-0.8-1.7-2.9-2.6-4.7-2.1c-0.6,0.2-0.8,0.6-0.4,0.8c1.2,0.5,1.4,1.8,2,2.8
					c0.4,0.7,1.4,1.4,0,2.2c-0.2,0.1,0,0.9-0.8,0.7c-0.7-0.2-0.7-0.5-0.7-1.1c0-1.6-1.9-4.1-3.3-4.4c0.9-0.8,1.3-1.7,0.7-2.9
					c-0.9-1.9-1.8-3.7-3.1-5.3c-0.5-0.6-0.6-1,0.1-1.4c0.6-0.4,0.9-0.9,1.2-1.5c0.5-1.1,0-2.1-0.4-3c-0.3-0.7-1.1-0.1-1.7-0.1
					c-1.6,0.1-3.3,0.4-4.9,0.6c-0.4,0-0.7,0.1-0.9,0.5c-0.6,1.7,0,4.1,1.5,5.1c1,0.7,0.9,1.2,0.5,2.1c-0.5,1.2-1.5,2.8-0.9,3.8
					c0.7,1.3,0,1.8-0.2,2.7c-0.2,0.5-0.4,1.1-0.6,1.6c-0.1,0.3-0.2,0.6,0.3,0.8c1.5,0.8,2.1,2.3,2.8,3.7c0.2,0.4,0.3,1.5-0.4,1.7
					c-0.8,0.2-1.6,0.2-1.6-1.2c0.1-1.3-2.5-3.6-3.8-3.9c0.7-0.7,0.9-1.7,1.2-2.6c-2.9-0.1-4.1,1.1-4.2,3.9c0,0.2,0,0.5,0.1,0.5
					c1.5,0.2,1.5,1.9,2.6,2.6c0.5,0.4,1.9,1,0.5,2.2c-0.2,0.1-0.1,0.8-0.8,0.7c-0.5-0.1-0.9-0.2-1-0.9c-0.2-1.6-2.5-3.8-4.1-4
					c0.9-1.2,1-2.8,1.7-4.2c-1.3-0.1-2.5,0.2-3.6,0.4c-1.2,0.2-1.4,1-0.5,1.8c0.4,0.3,0.3,0.6,0.2,0.9c-0.3,0.9-0.5,1.8-0.7,2.7
					c-0.1,0.3-0.3,0.7,0.1,0.9c1.4,0.6,2,2,3.2,2.9c0.3,0.2,0.6,0.5,0.4,0.8c-0.5,0.6,0.1,1.1,0.2,1.9c-0.8-0.3-2.1,0.1-2.2-0.7
					c-0.1-1.5-1.3-2.1-2-3c-0.7-0.9-1.4-1.9-2.8-0.9c1.4-1.9,1.4-3.8,1.6-5.8c0.1-0.7,0.1-1.2,0.9-1.4c0.2-0.1,0.7,0.1,0.5-0.4
					c-0.1-0.3-0.1-1-0.4-0.9c-1.4,0.3-1.1-0.8-1.3-1.5c-0.4-1.1-0.8-2.3-1.5-3.4c-1.1,1.9-1.4,3.7-1,5.6c0.1,0.5,0.5,1.2-0.4,1.3
					c-1.4,0.3-2.6,1.1-4,1.3c3.3,5.2,7.3,9.7,12.1,13.4c11.9,9.2,25.3,12.9,40.2,11.1c10.4-1.3,19.5-5.4,27.6-12
					C219,105.6,220.3,104.7,221,103.4L221,103.4z M191.4,39.7c-0.5-1-0.8-1.9-1.3-2.7c-0.4-0.8-0.7-1.3-0.1-2.3
					c0.4-0.7,0.7-0.5,1-0.4c0.5,0.1,0.9,0.2,0.9,1c-0.1,3,2.6,5.3,5.5,4.6c0.5-0.1,0.7-0.6,0.4-0.7c-1.4-0.5-1.5-2-2.2-2.9
					c-0.5-0.7-0.9-1.3-0.2-2.3c0.2-0.3,0.2-0.6,0.7-0.5c0.5,0.1,1.3,0.1,1.2,0.7c-0.3,1.5,0.9,2.3,1.3,3.4c0.3,1,0.9,1.5,2.2,1.3
					c-1.3,1.3-1.6,2.5-1,4c1.8,4.7,3.3,9.4,5,14.2c0.2,0.4,0.2,1,0.9,1.2c0.1-1.5,0.2-2.9,0.4-4.3c0.3-2.3-0.3-4.3-2-5.8
					c-0.4-0.4-0.5-0.7-0.2-1.2c0.9-1.5,1.4-3.1,2.1-4.7c0.3-0.8,0.3-2,1.7-1.6c0.1,0,0.3-0.1,0.3-0.2c0.2-1.3,1-2.4,1.3-3.7
					c0.1-0.2,0.4-0.5,0-0.7c-1.7-0.6-2.1-2.4-3.2-3.6c-0.7-0.7,0.7-1.2,0.3-1.9c0.7,0,1.3,0,1.5,1c0.6,1.9,1.8,3.4,3.8,4.2
					c-0.4,1.2-0.9,2.5-1.4,3.7c-0.3,0.9-0.1,1.5,1,1.6c1.8,0.1,3.6,0.3,5.5,0.5c1.4,0.1,2.1,1.4,2.3,2.3c0.5,2.2,1.1,4.3,2,6.4
					c0.3,0.8,0.5,0.8,1.1,0.3c2.5-1.9,4.8-4,6.3-6.8c0.3-0.6,0.7-0.7,1.4-0.6c1,0.3,2,0.4,3.1,0.7c-0.1-0.3-0.1-0.4-0.2-0.6
					c-9.7-20.2-25.8-31-48.1-32.3c-5.5-0.3-11,0.7-16.3,2.1c-4.2,1.1-8.1,3-11.9,5c-2.6,1.4-4.9,3.3-7.2,5c-1.1,0.8-1.3,1.3-0.3,2.3
					c0.2,0.2,0.4,0.4,0.1,0.8c-1.1,1.5-0.5,4.7,1,5.8c-1.2,0.3-3.9,2.2-4.5,3.4c-0.4,0.6-1,0.9-1.7,0.6c-1.2-0.5,0.5-0.5,0.2-1
					c-0.8-1.5,0.7-1.6,1.4-2.2c0.5-0.4,0.9-0.8,1.4-1.1c0.2-0.2,0.5-0.3,0.2-0.8c-0.6-0.8-0.6-1.7-0.6-2.6c0-0.7,0.3-1.6-0.4-2
					c-0.8-0.4-1,0.6-1.4,1.1c-3.9,3.9-7.1,8.3-9.5,13.3c-0.8,1.6-1.3,3.3-2.1,4.8c-1.1,2.2-1.2,2.9,0.5,4.7c0.4,0.4,0.8,0.8,1.3,1.1
					c0.8,0.4,1,0.8,0.4,1.6c-1.3,1.7-1.8,3.6-1.2,5.8c1.9,7,3.7,14,5.6,21c0.3,1.2,0.9,2.3,1.9,3.2c0.6,0.5,0.9,0.6,1.4-0.1
					c1-1.3,1.7-2.7,2-4.3c1.6-8.8,2.7-17.8,3.5-26.7c0.1-0.9-0.1-1.8-0.7-2.5c-0.4-0.6-0.3-0.9,0.1-1.4c0.7-1,1.6-2,1.7-3.2
					c0.3-2.9,1.9-3.9,4.6-3.6c0.2,0,0.5,0.2,0.6-0.3c0.2-1.3,1-2.7,2-3.6c0.3-0.3,0.6-0.5,0.8-0.8c0.3-0.3,0.5-0.4,0.2-1
					c-0.9-1.4-0.5-3.1-0.9-4.6c-0.2-0.8,0.9-0.4,0.9-1c0-0.7,0.5-0.6,0.8-0.4c0.4,0.2,1.2,0.6,0.8,1.1c-0.9,1.3-0.1,2.5-0.1,3.8
					c0,1.1,0.5,1.8,1.6,2.2c-1.9,0.6-4.2,2.8-4.6,4.4c1.4-0.1,2.7-0.1,4.1-0.4c1.5-0.3,2.3-1.7,3.3-2.7c0.1-0.1,0.1-0.2-0.1-0.3
					c-1.1-1-0.7-2.5-1.1-3.8c-0.2-0.6-0.5-1.3,0.5-1.7c0.3-0.2,0.4-1.1,1.1-0.5c0.5,0.4,0.9,0.7,0.5,1.5c-0.5,1.4,0.4,2.8,0.4,4.2
					c0,0.6,1,0.5,1.3,1c-0.9,0.1-1.8,0.7-1.9,1.5c-0.1,0.4,0.6,1.3,1.1,1.5c0.6,0.2,1.4,1,2.1,0c0.4-0.6,1-1.1,1.5-1.7
					c0.3-0.3,0.3-0.5,0-1c-0.9-1.3-0.8-2.9-1.3-4.4c-0.3-0.8,0.9-0.4,0.8-1.1c-0.1-0.6,0.5-0.6,0.7-0.4c0.3,0.4,1.4,0.3,1,1.1
					c-0.7,1.4,0.2,2.5,0.3,3.8c0.1,0.9,0.5,1.6,1.4,1.6c-1.2,1.4-2.6,2.6-3.6,4.2c-0.8,1.4-0.3,1.8,0.5,2.6c0.4,0.4,0.8,0.9,1.3,1.3
					c0.2,0.2,0.5,0.4,0.2,0.8c-1.2,1.7-0.6,3.5,0,5.2c2.6,7.3,5.2,14.5,7.8,21.8c0.4,1.2,1.1,2.3,1.9,3.3c0.3,0.4,0.9,1.4,1.8,0.6
					c1.3-1.2,2.4-2.7,2.5-4.6c0.5-7.6,1-15.1,1.5-22.7c0.1-1.9-0.3-3.4-1.6-4.7c-0.5-0.5-0.5-0.9-0.1-1.4c0.9-1.4,1.6-2.9,2.1-4.4
					c0.1-0.4,0.4-0.8,0.1-1.1c-1-0.8-1.1-2.1-1.7-3.2c-0.4-0.7-0.8-1.4,0-2.2c0.3-0.3,0.5-0.5,0.9-0.4c0.4,0.1,1.1,0.3,0.9,0.8
					c-0.4,1.4,0.6,2.4,1,3.6c0.1,0.4,0.3,0.7,0.9,0.7C189.3,39.7,190.2,39.7,191.4,39.7z M206.2,69.1c-0.1-0.3-0.2-0.5-0.2-0.6
					c-3-8.6-6-17.2-9-25.8c-0.2-0.6-0.3-1.3-1.3-1.3c-1.8,0-3.6,0-5.3-0.2c-1.7-0.2-2.8,0.1-3.2,2c-0.2,0.9-0.8,1.7-1.3,2.5
					c-0.2,0.4-0.5,0.7-0.1,1.1c1.6,1.6,1.6,3.7,1.5,5.8c-0.4,6.6-0.8,13.3-1.3,19.9c-0.2,2.7-0.5,5.4-2.7,7.2
					c-0.5,0.4-0.3,0.8,0,1.2c0.8,1.3,1.4,2.6,1.7,4.1c0.1,0.6,0.4,0.7,1,0.7c2,0,4,0,6.1,0.1c0.4,0,0.9,0,1-0.5
					c0.5-1.6,1.5-2.8,2.4-4.1c0.3-0.4,0.4-0.7,0-1.2c-1.4-1.5-1.9-3.3-1.7-5.3c0.2-3.1,0.4-6.2,0.6-9.2c0.2-2.7,0.4-5.4,0.7-8.2
					c0.1,0.3,0.2,0.4,0.2,0.5c2.8,9.4,6.4,18.6,9.5,27.9c0.2,0.7,0.5,1.3,1.4,1.3c1.7,0.2,3.3,0.4,5,0.6c0.6,0.1,1,0,1.2-0.7
					c0.6-1.6,1.5-3.1,2.5-4.6c0.2-0.3,0.5-0.6,0.1-1c-1.1-1.3-1-3-0.9-4.6c0.4-6.6,0.8-13.3,1.3-19.9c0.2-2.9,0.4-5.7,3-7.7
					c0.3-0.2,0.3-0.5,0.1-0.9c-0.7-1.4-1.1-2.9-1.4-4.4c-0.1-0.7-0.4-1-1.1-1c-2.4-0.2-4.8-0.4-7.1-0.7c-0.8-0.1-1.2,0.2-1.4,0.9
					c-0.4,1.2-0.9,2.4-1.5,3.5c-0.4,0.7-0.4,1.1,0.2,1.7c1.2,1.1,1.7,2.6,1.6,4.3c-0.2,3.8-0.3,7.6-0.7,11.4
					C206.6,65.6,206.8,67.3,206.2,69.1z M154.9,76.9c0-0.5,0-0.8,0-1.2c0-2,0-2,2.1-2.2c2-0.2,4-0.4,6-0.7c2.8-0.4,2.8-0.5,3.7,2.2
					c0.2,0.5,0.3,1,0.5,1.5c0.5,1.5,0.3,2.9-0.9,4c-0.4,0.4-0.4,0.7-0.1,1.1c0.9,1.3,1.7,2.6,2.4,4c0.2,0.5,0.5,0.7,1.1,0.7
					c2.3-0.2,4.7-0.4,7-0.5c0.6,0,0.8-0.2,0.9-0.8c0.3-1.4,0.6-2.9,1.3-4.1c0.4-0.7,0.3-1.1-0.3-1.5c-1.4-1.1-2.4-2.5-3-4.2
					c-2.9-7.9-5.8-15.8-8.4-23.8c-0.3-0.9-0.8-2-0.3-2.9c0.7-1.4,0.2-2.3-0.8-3.1c-0.3-0.2-0.5-0.5-0.6-0.8
					c-0.8-2.8-2.8-3.1-5.3-2.7c-2.5,0.4-5,0.5-7.5,0.8c-0.6,0.1-0.9,0.2-1,0.9c-0.3,1.6-1,3-2,4.3c-0.2,0.3-0.6,0.6-0.2,1.1
					c0.8,1.2,0.7,2.6,0.5,3.9c-0.9,7.6-1.9,15.3-2.9,22.9c-0.3,2.6-0.8,5.2-2.7,7.2c-0.4,0.4-0.2,0.7,0.1,1.1c0.9,1.2,1.6,2.5,2,4
					c0.1,0.5,0.3,0.8,0.8,0.7c2.6-0.4,5.2-0.8,7.8-1.1c0.5-0.1,0.9-0.2,1-0.9c0.1-1.5,0.5-2.9,1.1-4.3c0.2-0.3,0.4-0.6-0.1-0.9
					C154.9,80.5,154.7,78.7,154.9,76.9z M236.4,53.1c-1.8,7.6-3.5,15.1-5.2,22.6c-0.7,3.1-1.3,6.2-4.1,8.2c-0.5,0.3-0.3,0.7-0.1,1.1
					c0.7,1.4,1,2.9,0.9,4.5c-0.1,0.5,0,0.9,0.7,1c2.1,0.4,4.2,0.9,6.3,1.4c0.5,0.1,0.8,0.1,1-0.4c0.6-1.5,1.5-2.8,2.8-3.7
					c0.3-0.2,0.7-0.5,0.4-1c-1.6-2.8-0.9-5.7-0.2-8.6c1.8-7.4,3.5-14.8,5.2-22.2c0.2-1,0.5-1.4,1.6-0.8c2.5,1.3,4.6,3,5.7,5.6
					c0.4,0.9,0.8,1,1.6,0.6c1.1-0.5,2.2-0.8,3.3-1.1c0.7-0.2,0.7-0.5,0.4-1c-1.6-2.6-2.6-5.5-3-8.5c-0.1-0.6-0.3-0.8-0.8-0.9
					c-7.4-1.6-14.8-3.1-22.2-4.7c-0.5-0.1-0.9,0-1.2,0.4c-1.8,2.5-4,4.7-6.5,6.6c-0.5,0.3-0.5,0.6-0.1,1c1,0.9,2,1.8,3,2.8
					c0.4,0.4,0.7,0.3,1.1,0C229.5,53.3,232.7,52.6,236.4,53.1z M127.9,46.8c-2.5,0.6-5,1.1-7.5,1.7c-0.5,0.1-0.5,0.4-0.6,0.8
					c-0.1,1.6-0.3,3.1-0.9,4.5c-0.3,0.6-0.1,1,0.4,1.3c1.9,1.1,2.8,2.9,3.3,4.8c1.8,6.9,3.6,13.9,5.4,20.9c0.6,2.1,0.5,4.1-0.4,6
					c-0.4,0.8-0.2,1.1,0.5,1.6c1.1,0.8,2,1.9,2.5,3.1c0.4,0.9,0.9,1,1.7,0.8c1.9-0.6,3.9-1.1,5.8-1.5c0.7-0.2,1.1-0.4,1-1.2
					c-0.2-1.5,0.2-2.9,0.8-4.2c0.4-0.7,0.2-1.2-0.5-1.6c-1.7-1.1-2.6-2.8-3.1-4.7c-1.8-6.9-3.6-13.8-5.4-20.7
					c-0.6-2.2-0.5-4.2,0.8-6.2c0.2-0.4,0.5-0.6,0-1c-1.2-1.1-2.2-2.3-2.9-3.8C128.7,46.9,128.4,46.7,127.9,46.8z"/>
			</g>
		</g>
		<g>
			<g>
				<path fill="#D3702E" d="M290.4,68.7c-1.4,1-2.2,2.4-2.8,3.9c-0.8,2-1.5,3.9-2.2,5.9c-0.2,0.7-0.4,1-1.3,0.6
					c-2.8-1.2-5.7-2.3-8.6-3.4c-0.5-0.2-0.8-0.4-0.5-1c0.1-0.2,0.1-0.5-0.1-0.6c-1.3-0.4-0.6-1.2-0.4-1.8c0.7-2,1.4-4,2.2-5.9
					c0.3-0.7,0.2-1.2-0.2-1.7c-0.5-0.7-1,0-1.5,0c-1.4,0.3-2.1,1.1-2.6,2.4c-0.5,1.5-1.1,3-1.8,4.4c-0.5,1-0.3,1.5,0.6,2.2
					c3.5,2.8,7,5.7,10.6,8.4c0.9,0.6,0.2,1.6,1,2c1.3,0.9,0,1.4-0.3,2c-1.9,4.3-3.7,8.7-5.1,13.2c-0.2,0.7-0.3,1.5-0.2,2.2
					c0.1,1-0.4,1.3-1.2,1.4c-2.7,0.3-5.3,0.9-7.1,3.1c-0.4,0.4-0.6,0.2-1,0.1c-4.7-1.8-9.3-3.7-14-5.5c-0.2-0.1-0.6-0.3-0.6-0.3
					c0.1-1.2-1-1.9-1-3.2c0-2.5-1.4-4.5-3.2-6.2c-0.7-0.7-0.7-1,0-1.7c2.1-2.1,2.9-4.9,3.9-7.6c0.4-1.1,0.8-1.3,1.9-0.8
					c2.7,1.2,5.5,2.2,8.2,3.2c0.6,0.2,1.3,0.3,0.8,1.3c-0.1,0.1,0,0.3,0,0.4c1.5,0.7,0.5,1.6,0.2,2.4c-0.5,1.5-1.1,2.9-1.7,4.3
					c-0.3,0.7-0.2,1.3,0.2,1.8c0.5,0.7,1,0,1.5-0.1c1.4-0.3,2.2-1.2,2.6-2.6c0.4-1.4,1-2.7,1.5-4.1c0.3-0.8,0.2-1.2-0.5-1.7
					c-3.7-2.9-7.4-5.9-11.2-8.8c-1-0.7-0.5-2.2-1.7-2.6c0.1-0.2,0.2-0.4,0.3-0.6c2.5-4,4.2-8.3,5.8-12.7c0.4-1.1,0.4-2.3,0.3-3.5
					c-0.1-0.7,0.1-1,1-1.1c2.7-0.2,5.2-1,6.9-3.2c0.3-0.4,0.7-0.4,1.1-0.2c4.7,1.7,9.3,3.4,14,5.1c0.5,0.2,0.7,0.5,0.9,1
					c0.7,2.3,1.9,4.4,3.4,6.2c0.7,0.9,0.5,2.3,1.7,2.8C290.4,68.3,290.4,68.5,290.4,68.7z M270.7,85.4c-0.1,0.3-0.2,0.6-0.3,0.9
					c-0.5,1.4-1.1,2.9-1.6,4.3c-1.5,4.1-1.5,4.1-5.6,5.6c-0.6,0.2-0.9,0.2-1.3-0.5c-2-3.7-2.1-3.7-0.5-7.7c0.2-0.6,0.4-1.2,0.6-1.7
					c0.4-0.8,0.1-1.1-0.7-1.4c-1.9-0.7-3.9-1.4-5.7-2.3c-1-0.4-1.3-0.1-1.6,0.8c-0.8,2.1-1.6,4.2-3.1,5.9c-0.5,0.6-0.3,0.9,0.1,1.4
					c1.6,1.7,2.7,3.7,2.8,6.1c0.1,0.7,0.5,1,1,1.2c3.9,1.5,7.8,3.1,11.7,4.6c0.4,0.1,0.7,0.4,1.1,0c1.8-1.8,4.1-2.4,6.5-2.7
					c0.5-0.1,0.7-0.3,0.7-0.8c0.8-5.3,3.2-10,5.2-14.9c0.4-0.9,0.3-1.3-0.4-1.8c-3.9-3.1-7.7-6.2-11.6-9.3c-0.6-0.5-0.7-0.9-0.4-1.7
					c1.1-2.7,2.2-5.3,3.3-8c0.2-0.6,0.5-0.9,1.1-1.1c3.9-1.4,3.9-1.4,6.1,2c0.5,0.7,0.5,1.3,0.2,2.1c-0.7,1.8-1.3,3.6-2,5.4
					c-0.4,0.9-0.1,1.2,0.7,1.5c1.7,0.6,3.4,1.3,5.1,2.1c1,0.5,1.5,0.4,1.9-0.8c1-2.6,1.5-5.5,3.5-7.6c0.4-0.4,0.1-0.7-0.1-1.1
					c-1.3-1.8-2.5-3.7-3.3-5.9c-0.2-0.6-0.7-0.8-1.2-1c-3.9-1.4-7.8-2.8-11.7-4.3c-0.6-0.2-1-0.1-1.5,0.3c-1.2,1-2.6,2-4.1,2.1
					c-2.1,0.2-2.6,1.1-3,3.1c-0.9,4.5-3.1,8.7-5.2,12.8c-0.4,0.8-0.3,1,0.3,1.5c4.1,3.2,8.1,6.4,12.1,9.6
					C270.2,84.6,270.7,84.9,270.7,85.4z"/>
			</g>
		</g>
		<g>
			<g>
				<path fill="#D3702E" d="M109.7,58.4c-0.1,2.7,1.4,4.8,2.2,7.1c0.4,1,0.8,2,1.2,3c0.4,0.8,0.1,1-0.6,1.3c-2.8,1-5.6,2-8.5,3.1
					c-0.5,0.2-0.9,0.4-1.1-0.3c-0.1-0.4-0.3-0.6-0.7-0.4c-0.9,0.5-0.9-0.3-1.1-0.7c-0.9-2.2-1.8-4.3-2.7-6.5
					c-0.1-0.3-0.2-0.6-0.4-0.9c-0.4-0.6-1.1-0.7-1.7-0.7c-0.6,0-0.4,0.7-0.5,1c-0.7,1.9-0.5,3.7,0.3,5.7c3,7.3,5.9,14.7,8.8,22
					c0.1,0.3,0.2,0.6,0.4,0.9c0.6,1,1.7,0.8,2.4-0.1c2-2.3,0.8-4.5-0.1-6.7c-0.1-0.2-0.2-0.3-0.3-0.4c-1.1,0.9-1.9-0.6-2.9-0.4
					c-0.6,0.1-0.6-0.3-0.7-0.6c-1-2.5-2-5-3-7.4c-0.3-0.7,0-1,0.6-1.2c3.8-1.3,7.6-2.7,11.3-4.1c0.5-0.2,0.9-0.3,1.1,0.3
					c0.1,0.3,0.2,0.6,0.7,0.4c0.8-0.4,0.9,0.2,1.1,0.8c1.5,3.8,3.1,7.6,4.6,11.5c0.6,1.6,1.4,3.1,2.6,4.3c0.6,0.6,0.6,1,0,1.6
					c-1.8,2-3.3,4.2-3.2,7.1c0,0.6-0.4,0.7-0.7,0.8c-4.9,1.9-9.8,3.8-14.7,5.6c-0.2,0.1-0.5,0.3-0.6,0.1c-0.8-1-2.2-0.9-3.1-1.9
					c-1.7-1.7-4-2-6.3-1.9c-0.6,0-1.2,0.1-1.1-0.8c0.2-2.8-0.8-5.2-1.8-7.7c-2.9-7.2-5.9-14.4-8.8-21.6c-0.6-1.4-1.3-2.6-2.3-3.6
					c-0.4-0.5-0.6-0.7,0-1.2c2.1-1.8,3.3-4,3.2-6.9c0-0.6,0.2-0.8,0.7-1c5-1.7,10-3.5,15-5.2c0.5-0.2,0.9,0,1.3,0.2
					c1.8,1.1,3.8,2,5.9,2.4c1.2,0.2,2.1,1,3.2,1.3C110.2,57.1,109.5,58,109.7,58.4z M110.5,90.4c0,0.7-0.3,1.1-0.6,1.5
					c-0.6,1.2-1,2.9-2,3.4c-1.1,0.6-2.6-0.7-3.9-1c-1-0.2-1.5-0.8-1.9-1.8c-3.2-8.2-6.4-16.3-9.8-24.5c-0.6-1.4-0.7-2.5,0-3.8
					c0.6-1.1,0.5-2.9,1.6-3.4c1.1-0.5,2.5,0.6,3.7,0.8c0.9,0.2,1.4,0.7,1.7,1.6c0.7,2,1.6,3.9,2.3,5.8c0.4,1.1,0.8,1.4,1.9,0.9
					c0.8-0.4,1.7-0.7,2.6-1c1.1-0.4,2.7-0.6,3.1-1.4c0.5-0.9-0.7-2.2-1-3.3c-0.6-2-1.9-3.9-1.7-6.1c0.1-1.1-0.4-1.4-1.3-1.6
					c-1.8-0.4-3.6-1-5.3-1.9c-0.6-0.4-1.2-0.3-1.8-0.1c-3.6,1.3-7.3,2.7-11,3.8c-1.5,0.5-2.7,1-2.7,2.9c0,0.5-0.4,1.1-0.5,1.6
					c-0.5,1.4-2.3,2.5-2.1,3.7c0.2,1.3,1.5,2.6,2,4.1c3.1,7.6,6.2,15.2,9.2,22.7c0.6,1.6,1.4,3.2,1.2,5c-0.1,0.7,0.2,0.9,0.9,0.9
					c2.4,0,4.5,0.9,6.3,2.4c0.5,0.4,0.8,0.5,1.4,0.3c4.2-1.6,8.4-3.2,12.5-4.8c0.5-0.2,0.8-0.4,0.8-1c0.3-2.3,1.3-4.3,2.8-6
					c0.5-0.6,0.6-1,0-1.6c-0.9-1-1.5-2.2-2-3.5c-1.3-3.4-2.7-6.9-4.1-10.3c-0.2-0.6-0.4-1.1-1.3-0.8c-2.9,1.1-5.8,2.2-8.7,3.2
					c-0.6,0.2-0.7,0.5-0.5,1c0.6,1.6,1.3,3.1,1.9,4.7c0.2,0.5,0.3,0.7,0.9,0.5c2.2-0.6,2.2-0.5,3.1,1.6c0.6,1.4,1.1,2.9,1.7,4.3
					C110.3,89.7,110.4,90.1,110.5,90.4z"/>
			</g>
		</g>
		<g>
			<path fill="#FBFCFA" d="M191.4,39.7c-1.1,0-2.1,0-3.1,0c-0.5,0-0.7-0.3-0.9-0.7c-0.3-1.2-1.4-2.1-1-3.6c0.2-0.6-0.5-0.7-0.9-0.8
				c-0.4-0.1-0.6,0.1-0.9,0.4c-0.8,0.9-0.4,1.5,0,2.2c0.6,1.1,0.7,2.3,1.7,3.2c0.3,0.2,0,0.7-0.1,1.1c-0.5,1.6-1.2,3-2.1,4.4
				c-0.4,0.6-0.4,0.9,0.1,1.4c1.3,1.3,1.8,2.9,1.6,4.7c-0.5,7.6-1,15.1-1.5,22.7c-0.1,1.9-1.2,3.3-2.5,4.6c-0.9,0.8-1.5-0.2-1.8-0.6
				c-0.7-1-1.4-2.1-1.9-3.3c-2.6-7.3-5.2-14.5-7.8-21.8c-0.6-1.7-1.1-3.5,0-5.2c0.3-0.4,0-0.6-0.2-0.8c-0.4-0.4-0.9-0.9-1.3-1.3
				c-0.7-0.7-1.3-1.2-0.5-2.6c1-1.7,2.4-2.8,3.6-4.2c-0.9-0.1-1.3-0.7-1.4-1.6c-0.1-1.2-1-2.4-0.3-3.8c0.3-0.7-0.7-0.7-1-1.1
				c-0.2-0.2-0.8-0.2-0.7,0.4c0.1,0.6-1,0.3-0.8,1.1c0.5,1.4,0.4,3.1,1.3,4.4c0.3,0.5,0.4,0.6,0,1c-0.5,0.5-1.1,1.1-1.5,1.7
				c-0.7,1-1.5,0.2-2.1,0c-0.5-0.2-1.2-1.1-1.1-1.5c0.2-0.8,1-1.4,1.9-1.5c-0.3-0.5-1.3-0.4-1.3-1c0-1.4-0.9-2.9-0.4-4.2
				c0.3-0.9-0.1-1.2-0.5-1.5c-0.7-0.5-0.8,0.3-1.1,0.5c-1,0.5-0.7,1.1-0.5,1.7c0.4,1.3,0,2.7,1.1,3.8c0.1,0.1,0.2,0.3,0.1,0.3
				c-1.1,1-1.8,2.4-3.3,2.7c-1.3,0.2-2.7,0.3-4.1,0.4c0.4-1.5,2.7-3.8,4.6-4.4c-1.1-0.3-1.6-1.1-1.6-2.2c0-1.3-0.8-2.5,0.1-3.8
				c0.3-0.5-0.4-0.9-0.8-1.1c-0.4-0.2-0.8-0.3-0.8,0.4c0,0.6-1.1,0.1-0.9,1c0.3,1.5,0,3.2,0.9,4.6c0.3,0.6,0.2,0.7-0.2,1
				c-0.3,0.2-0.6,0.5-0.8,0.8c-1,0.9-1.8,2.2-2,3.6c-0.1,0.5-0.4,0.4-0.6,0.3c-2.7-0.3-4.3,0.7-4.6,3.6c-0.1,1.2-1,2.2-1.7,3.2
				c-0.4,0.5-0.5,0.9-0.1,1.4c0.5,0.7,0.7,1.6,0.7,2.5c-0.8,9-1.9,17.9-3.5,26.7c-0.3,1.6-0.9,3-2,4.3c-0.5,0.6-0.8,0.6-1.4,0.1
				c-0.9-0.9-1.6-2-1.9-3.2c-1.9-7-3.7-14-5.6-21c-0.6-2.2-0.1-4.1,1.2-5.8c0.6-0.9,0.5-1.2-0.4-1.6c-0.5-0.3-0.9-0.7-1.3-1.1
				c-1.7-1.8-1.6-2.4-0.5-4.7c0.8-1.6,1.3-3.2,2.1-4.8c2.5-4.9,5.6-9.4,9.5-13.3c0.4-0.4,0.6-1.5,1.4-1.1c0.7,0.3,0.4,1.3,0.4,2
				c0,0.9,0,1.9,0.6,2.6c0.3,0.4,0.1,0.6-0.2,0.8c-0.5,0.4-1,0.7-1.4,1.1c-0.7,0.6-2.2,0.7-1.4,2.2c0.2,0.5-1.4,0.4-0.2,1
				c0.7,0.3,1.3,0,1.7-0.6c0.7-1.1,3.3-3.1,4.5-3.4c-1.5-1.1-2.1-4.4-1-5.8c0.3-0.4,0.1-0.6-0.1-0.8c-0.9-0.9-0.7-1.4,0.3-2.3
				c2.3-1.8,4.6-3.6,7.2-5c3.8-2.1,7.7-3.9,11.9-5c5.4-1.4,10.8-2.4,16.3-2.1c22.4,1.3,38.4,12.1,48.1,32.3c0.1,0.1,0.1,0.3,0.2,0.6
				c-1.1-0.2-2.1-0.4-3.1-0.7c-0.7-0.2-1,0-1.4,0.6c-1.5,2.8-3.8,4.9-6.3,6.8c-0.6,0.4-0.8,0.5-1.1-0.3c-0.8-2.1-1.4-4.2-2-6.4
				c-0.2-0.8-0.9-2.1-2.3-2.3c-1.8-0.2-3.6-0.4-5.5-0.5c-1.1-0.1-1.4-0.6-1-1.6c0.4-1.3,0.9-2.6,1.4-3.7c-2-0.8-3.2-2.3-3.8-4.2
				c-0.3-1-0.8-1-1.5-1c0.4,0.7-1,1.2-0.3,1.9c1.1,1.2,1.5,3,3.2,3.6c0.4,0.2,0.1,0.5,0,0.7c-0.3,1.3-1.1,2.4-1.3,3.7
				c0,0.1-0.2,0.2-0.3,0.2c-1.4-0.4-1.4,0.8-1.7,1.6c-0.7,1.6-1.2,3.3-2.1,4.7c-0.3,0.5-0.3,0.8,0.2,1.2c1.7,1.6,2.3,3.5,2,5.8
				c-0.2,1.4-0.2,2.8-0.4,4.3c-0.7-0.2-0.7-0.8-0.9-1.2c-1.7-4.7-3.2-9.5-5-14.2c-0.6-1.6-0.4-2.8,1-4c-1.3,0.2-1.9-0.3-2.2-1.3
				c-0.4-1.1-1.5-2-1.3-3.4c0.1-0.5-0.7-0.6-1.2-0.7c-0.4-0.1-0.4,0.2-0.7,0.5c-0.7,0.9-0.3,1.6,0.2,2.3c0.7,1,0.8,2.4,2.2,2.9
				c0.3,0.1,0,0.6-0.4,0.7c-2.9,0.6-5.6-1.7-5.5-4.6c0-0.7-0.4-0.9-0.9-1c-0.4,0-0.6-0.3-1,0.4c-0.6,1-0.2,1.5,0.1,2.3
				C190.5,37.9,190.9,38.7,191.4,39.7z M154.8,34.3c-0.4-0.3-1.1-0.2-1.1-1.1c0-1.6-0.8-3.2,0.2-4.8c0.2-0.3,0-0.6-0.2-0.9
				c-0.3-0.3-0.8-0.7-0.9-0.4c-0.4,0.6-1.4,0.7-1.4,1.3c0,1.5,0,3.1,0.5,4.6c0.3,0.8,0.1,1-0.3,1.5c-0.9,1-3.2,1-2.5,3.2
				c0,0-0.1,0.1-0.2,0.2c-0.6,0.3-0.3,0.4,0.1,0.6c0.8,0.4,1.2,0,1.6-0.6C151.5,36.2,153.2,35.3,154.8,34.3z M223.4,30
				c-0.7-0.1-1.5,0.5-2-0.1c-0.9-1.2-2.5-2-2.7-3.8c-0.1-0.7-0.8-0.7-1.3-0.7c-0.6,0-0.4,0.5-0.6,0.8c-0.5,1.1-0.2,1.7,0.7,2.4
				c1,0.8,1.5,2.1,2.8,2.5c0.3,0.1,0.3,0.3,0.2,0.5c-0.1,0.2-0.2,0.5-0.2,0.7c0.3,1.3-2,2.7,0.1,4c0.1,0.1-0.3,0.9,0.5,0.8
				c0.6-0.1,1.3-0.3,1.2-1.1C221.8,33.9,222.8,32,223.4,30z M206.1,37.5c-1.5-0.1-3.5-2.2-3.4-4c0.1-1.3-0.8-1.3-1.5-1.2
				c-0.6,0.1-0.9,1.4-0.8,1.5c0.8,1.3,1.3,3,2.7,3.9c0.8,0.5,0.4,0.7,0.3,1.2c-0.2,1.4-2.2,2.4-0.7,4.1c0,0,0,0.1,0,0.1
				c-0.4,0.6,0,0.6,0.4,0.6c0.8,0,1.3-0.3,1.3-1.1C204.3,40.6,205.4,39.2,206.1,37.5z M177.6,40.3c-1.2-0.7-2.5-3.5-2.2-4.9
				c0.1-0.5,0.4-1-0.2-1.3c-0.3-0.2-1-0.4-1-0.3c-0.1,0.7-1.1,0.9-1,1.5c0.3,1.4,0.5,3,1.3,4.1c0.6,0.9,0.2,1.1-0.1,1.6
				c-0.6,1.1-2.6,1.5-1.6,3.4c0,0,0,0.1-0.1,0.1c-0.6,0.6-0.2,0.6,0.3,0.7c0.8,0.1,1.2-0.2,1.5-1C175.2,42.7,176.1,41.2,177.6,40.3z
				 M213.6,37.9c0.3,0.5,1.2,0.6,1,1.3c-0.2,0.7,0.1,0.6,0.5,0.6c0.8,0,1.3-0.4,1.1-1.2c-0.2-0.9,0-1.7,0.4-2.4
				c0.5-0.9,0.4-2,1.1-2.9c-0.8,0-1.4,0.4-1.9-0.3c-0.9-1.2-2.3-2.1-2.5-3.8c0-0.5-0.5-0.8-1-0.8c-0.3,0-0.7,0-0.7,0.2
				c0.1,0.8-0.8,1.7,0.3,2.4c1.1,0.8,1.4,2.5,3,2.8c0.3,0.1,0.2,0.4,0.2,0.6C214.5,35.6,214.5,37,213.6,37.9z M183.5,40.6
				c-0.3-0.3-0.9,0.1-1.2-0.5c-0.6-1.5-1.6-2.8-1.3-4.6c0.1-0.6-0.2-0.9-0.7-1c-0.3-0.1-0.9-0.4-1,0c-0.1,0.8-1.2,1.4-0.4,2.5
				c0.8,1,0.5,2.6,1.7,3.4c0.3,0.2,0,0.4-0.1,0.6c-0.8,0.9-1.2,2.1-2.3,2.7c0.2,0.5,0.5,0.9,0.6,1.3c0.1,0.3-0.8,0.7,0.1,0.8
				c0.6,0.1,1,0,1.2-0.8C180.7,43.2,182,41.8,183.5,40.6z"/>
		</g>
		<g>
			<path fill="#FBFCFA" d="M221.1,103.4c-0.8,1.3-2.1,2.2-3.2,3.1c-8,6.6-17.2,10.7-27.6,12c-14.9,1.8-28.3-1.9-40.2-11.1
				c-4.8-3.7-8.8-8.1-12.1-13.4c1.5-0.2,2.7-1,4-1.3c0.9-0.2,0.5-0.8,0.4-1.3c-0.4-2-0.1-3.8,1-5.6c0.8,1.1,1.1,2.3,1.5,3.4
				c0.2,0.6-0.2,1.8,1.3,1.5c0.4-0.1,0.3,0.6,0.4,0.9c0.1,0.5-0.3,0.3-0.5,0.4c-0.7,0.2-0.8,0.7-0.9,1.4c-0.2,1.9-0.2,3.9-1.6,5.8
				c1.4-1,2.2,0,2.8,0.9c0.7,0.9,1.9,1.5,2,3c0.1,0.8,1.3,0.4,2.2,0.7c-0.1-0.8-0.7-1.3-0.2-1.9c0.2-0.3-0.1-0.6-0.4-0.8
				c-1.2-0.8-1.8-2.3-3.2-2.9c-0.4-0.2-0.2-0.6-0.1-0.9c0.2-0.9,0.4-1.8,0.7-2.7c0.1-0.4,0.2-0.6-0.2-0.9c-0.9-0.8-0.7-1.6,0.5-1.8
				c1.1-0.2,2.3-0.5,3.6-0.4c-0.7,1.4-0.7,3-1.7,4.2c1.6,0.2,3.9,2.4,4.1,4c0.1,0.7,0.4,0.8,1,0.9c0.7,0.1,0.6-0.5,0.8-0.7
				c1.4-1.2,0.1-1.8-0.5-2.2c-1-0.7-1.1-2.4-2.6-2.6c-0.1,0-0.1-0.3-0.1-0.5c0.1-2.8,1.3-4,4.2-3.9c-0.3,0.9-0.5,1.9-1.2,2.6
				c1.3,0.2,3.9,2.6,3.8,3.9c-0.1,1.4,0.8,1.5,1.6,1.2c0.7-0.2,0.6-1.3,0.4-1.7c-0.7-1.4-1.3-2.9-2.8-3.7c-0.4-0.2-0.4-0.5-0.3-0.8
				c0.2-0.5,0.4-1,0.6-1.6c0.3-0.9,1-1.4,0.2-2.7c-0.6-1,0.4-2.6,0.9-3.8c0.4-0.9,0.5-1.4-0.5-2.1c-1.5-1-2.1-3.4-1.5-5.1
				c0.2-0.5,0.5-0.5,0.9-0.5c1.6-0.2,3.3-0.4,4.9-0.6c0.6,0,1.4-0.6,1.7,0.1c0.4,0.9,0.9,1.9,0.4,3c-0.3,0.6-0.6,1.2-1.2,1.5
				c-0.7,0.5-0.6,0.8-0.1,1.4c1.3,1.6,2.3,3.4,3.1,5.3c0.6,1.2,0.2,2.1-0.7,2.9c1.4,0.3,3.3,2.8,3.3,4.4c0,0.6,0.1,0.9,0.7,1.1
				c0.7,0.2,0.6-0.5,0.8-0.7c1.4-0.8,0.4-1.6,0-2.2c-0.6-1-0.8-2.2-2-2.8c-0.4-0.2-0.2-0.6,0.4-0.8c1.8-0.5,3.9,0.5,4.7,2.1
				c0.4,0.9,1.1,1.6,0.8,2.7c-0.2,0.7,0.6,0.8,1,0.9c0.7,0.2,0.7-0.1,0.5-0.7c1.7-0.9,0.4-1.8,0-2.6c-0.4-1-0.7-2.1-2-2.8
				c0.5,0,0.8,0,1.1-0.1c3.5-0.2,4.1,0.3,5,3.8c0.1,0.4,0,0.6-0.1,0.9c-0.2,0.6,0.2,0.8,0.7,1c0.5,0.2,0.6-0.4,0.8-0.4
				c1.7-0.9,0.5-1.9,0.1-2.7c-0.4-1-0.4-2.3-1.8-2.7c-0.6-0.2-0.5-0.7-0.5-1.2c0.2-1.9,0.8-3.7,1.9-5.5c1,1.4,1.1,2.9,1.4,4.4
				c0.1,0.4,0,1,0.7,1c0.2,0,0.4,0.1,0.4,0.3c0.2,2.1,2.1,3.8,1.5,6.1c-0.2,0.6,0.6,0.8,1.1,0.9c0.4,0.1,0.5-0.2,0.8-0.5
				c0.9-0.9,0.4-1.7,0.1-2.5c-0.3-0.9-0.6-1.8-1-2.9c0.5,0,1,0,1.5,0c1.4,0,2.4,0.5,2.7,2.1c0.2,1.1,1,2.1,0.4,3.3
				c-0.3,0.6,0.5,0.8,1,1c0.3,0.1,0.5,0,0.8-0.4c0.9-1,0.4-1.9,0.1-2.9c-0.3-0.9-0.5-1.9-1-2.8c0.1-0.1,0.2-0.2,0.2-0.2
				c1.6,0.3,2.3-0.4,2.7-2c0.4-1.6,1.6-3,2.6-4.3c0.3-0.4,0.6-0.7,0-1.2c-1.6-1.6-2.3-3.6-2-5.9c0.3-2.1,0.3-4.2,0.5-6.5
				c0.6,0.4,0.7,0.8,0.8,1.3c2,5.7,4,11.4,6,17.1c0.3,0.8,0.2,1.3-0.4,1.8c-0.7,0.5-1.2,1.2-2,1.5c1.3,1,2.2,4.1,1.6,5.5
				c-0.3,0.6-0.1,0.9,0.4,1.2c0.4,0.3,0.8,0.5,1-0.3c0.1-0.5,1.2,0,1.1-0.8c-0.2-1.5-0.4-3-0.9-4.4c-0.3-1.1,0.2-2.2,1.4-2.1
				c1.3,0.1,2.5,0.3,4,0.5c-0.9,0.9-1.7,1.8-2.7,2.2c1.1,0.9,2,4.1,1.4,5.5c-0.3,0.7-0.2,1.1,0.4,1.5c0.6,0.4,0.7-0.1,1.1-0.4
				c1.3-0.8,0.9-1.7,0.6-2.8c-0.3-1.1,0-2.3-0.9-3.1c-0.1-0.1,0-0.3,0-0.4c0.4-0.9,2.7-2.3,3.7-2c0.7,0.2,0.9-0.1,1.1-0.6
				c0.8-2.2,2-4.3,3.3-6.2c0.4-0.5,0.4-0.8,0-1.3c-0.9-1-1.3-2.3-1.2-3.6c0.5-6.6,0.9-13.3,1.4-19.9c0.1-1.9-0.1-4,1.1-5.7
				c0.7-1,1.5-1.1,1.9-0.1c1.1,3,4.1,4.3,5.8,6.7c0.3,0.4,0.5,0.5,0.7,0.1c1.7-2.1,4.2-2.6,6.7-3.7c-1,3.4-1.4,6.7-2.5,9.8
				c-0.5,1.4-0.4,3.1-0.9,4.7c-0.7,2.3-1,4.6-1.5,6.9c-0.5,2.4-1.7,4.3-3.8,5.5c-0.6,0.4-0.6,0.7-0.3,1.2c0.9,2.1,1.8,4.1,1.1,6.5
				c-0.1,0.3-0.1,0.7,0.3,0.8c0.7,0.1,0.6,0.5,0.7,1c0.1,1,1.3,0.5,2,1.1c-1.3,2.4-3.1,4.5-4.8,6.6
				C223.2,101.4,222.4,102.7,221.1,103.4c0.3-1.6-0.3-3.1-0.2-4.7c0-0.2-0.1-0.5-0.3-0.6c-1.2-0.5-0.3-0.7,0.1-1.2
				c0.8-1.1,3.1-1,2.6-3.2c-0.1-0.2,0.8-0.6,0.2-0.9c-0.5-0.3-1.2-0.3-1.5,0.2c-1,1.9-3,2.7-4.4,4.1c0.3,0.3,0.8,0.5,0.9,0.8
				c0.3,1.6,0.9,3.2,0,4.8c-0.4,0.7,0.1,1,0.5,1.4c0.4,0.4,0.7,0.3,0.9-0.2C220,103.3,220.6,103.6,221.1,103.4z M215.1,95.2
				c0.8-1.5,3.6-1.4,3.2-4c0,0,0.1-0.1,0.1-0.1c1-0.6,0.1-0.7-0.2-0.7c-0.6-0.1-1.2,0-1.5,0.7c-0.9,1.9-2.8,2.4-4.3,3.5
				c0.3,0.3,1.2,0.3,1.2,0.9c0.1,1.5,0.9,3.1,0.1,4.6c-0.1,0.2-0.2,0.3-0.3,0.5c-0.2,0.7,0.3,1,0.8,1.3c0.6,0.4,0.6-0.4,0.8-0.4
				c1.7-0.4,1-1.7,1.1-2.8c0-0.1,0.1-0.2,0.1-0.3C216,97.3,216.3,96,215.1,95.2z M166.7,96.8c-0.6-0.8,0.3-1.4,0.1-1.8
				c-0.7-1.3-1.3-2.9-2.5-3.6c-0.8-0.5-0.4-0.8-0.3-1.4c0.2-1.3,2.1-2.4,0.4-3.8c-0.2-0.2,0.7-0.9-0.4-0.8c-0.6,0.1-0.9,0.4-0.9,1
				c0,2-1.1,3.5-1.9,5.1c1.1,0,3.7,2.5,3.6,3.9C164.5,97.1,165.7,96.6,166.7,96.8z M195.3,89.5c0.5,0.2,1.3,0.3,1.4,1.1
				c0.2,1.4,1.2,2.8,0.5,4.3c-0.2,0.5,0.2,0.8,0.6,1c0.2,0.1,0.5,0.3,0.7,0c0.8-0.9,1.4-1.7,0.8-3c-0.5-1.1-0.1-2.6-1.6-3.2
				c0.2-0.4,0.7-0.5,0.8-0.7c0.4-1.2,2.9-1.2,2-3.3c-0.2-0.4,0.5-1-0.5-1.1c-0.8-0.1-1,0.5-1.3,1C198,87.3,196.6,88.4,195.3,89.5z"
				/>
		</g>
		<g>
			<path fill="#221C1D" d="M206.2,69.1c0.7-1.8,0.5-3.5,0.6-5.1c0.4-3.8,0.5-7.6,0.7-11.4c0.1-1.7-0.4-3.2-1.6-4.3
				c-0.6-0.6-0.6-1-0.2-1.7c0.6-1.1,1.1-2.3,1.5-3.5c0.3-0.8,0.7-1,1.4-0.9c2.4,0.2,4.7,0.4,7.1,0.7c0.6,0.1,0.9,0.4,1.1,1
				c0.3,1.5,0.7,3,1.4,4.4c0.2,0.4,0.2,0.6-0.1,0.9c-2.6,1.9-2.9,4.8-3,7.7c-0.4,6.6-0.9,13.3-1.3,19.9c-0.1,1.6-0.2,3.2,0.9,4.6
				c0.3,0.4,0.1,0.7-0.1,1c-1,1.4-1.8,2.9-2.5,4.6c-0.2,0.6-0.6,0.7-1.2,0.7c-1.7-0.2-3.3-0.4-5-0.6c-0.9-0.1-1.1-0.6-1.4-1.3
				c-3.1-9.3-6.6-18.5-9.5-27.9c0-0.1-0.1-0.2-0.2-0.5c-0.2,2.9-0.5,5.6-0.7,8.2c-0.2,3.1-0.4,6.2-0.6,9.2c-0.1,2,0.4,3.8,1.7,5.3
				c0.4,0.5,0.3,0.7,0,1.2c-0.9,1.3-2,2.5-2.4,4.1c-0.1,0.5-0.6,0.5-1,0.5c-2,0-4-0.1-6.1-0.1c-0.6,0-0.9-0.2-1-0.7
				c-0.2-1.5-0.9-2.8-1.7-4.1c-0.2-0.4-0.5-0.8,0-1.2c2.3-1.9,2.6-4.5,2.7-7.2c0.4-6.6,0.8-13.3,1.3-19.9c0.1-2.1,0.1-4.1-1.5-5.8
				c-0.4-0.4-0.1-0.8,0.1-1.1c0.4-0.8,1.1-1.6,1.3-2.5c0.4-1.9,1.5-2.2,3.2-2c1.8,0.2,3.6,0.2,5.3,0.2c1,0,1.1,0.7,1.3,1.3
				c3,8.6,6,17.2,9,25.8C206,68.6,206,68.8,206.2,69.1z"/>
		</g>
		<g>
			<path fill="#221C1D" d="M154.9,76.9c-0.3,1.8,0,3.6,1.9,4.7c0.5,0.3,0.3,0.6,0.1,0.9c-0.6,1.4-1,2.8-1.1,4.3
				c-0.1,0.7-0.5,0.8-1,0.9c-2.6,0.4-5.2,0.8-7.8,1.1c-0.6,0.1-0.7-0.2-0.8-0.7c-0.4-1.5-1.1-2.8-2-4c-0.3-0.4-0.5-0.6-0.1-1.1
				c2-2,2.4-4.6,2.7-7.2c1-7.6,1.9-15.3,2.9-22.9c0.2-1.3,0.3-2.7-0.5-3.9c-0.3-0.5,0-0.8,0.2-1.1c1-1.3,1.6-2.7,2-4.3
				c0.1-0.7,0.4-0.8,1-0.9c2.5-0.2,5.1-0.3,7.5-0.8c2.6-0.5,4.5-0.2,5.3,2.7c0.1,0.3,0.4,0.6,0.6,0.8c1,0.8,1.5,1.7,0.8,3.1
				c-0.4,0.9,0,1.9,0.3,2.9c2.7,8,5.5,15.9,8.4,23.8c0.6,1.7,1.6,3.1,3,4.2c0.6,0.5,0.7,0.8,0.3,1.5c-0.7,1.3-1,2.7-1.3,4.1
				c-0.1,0.6-0.3,0.8-0.9,0.8c-2.3,0.1-4.7,0.3-7,0.5c-0.6,0-0.9-0.2-1.1-0.7c-0.6-1.4-1.5-2.7-2.4-4c-0.3-0.5-0.4-0.7,0.1-1.1
				c1.1-1.1,1.4-2.5,0.9-4c-0.2-0.5-0.3-1-0.5-1.5c-0.8-2.7-0.8-2.7-3.7-2.2c-2,0.3-4,0.6-6,0.7c-2.1,0.2-2.1,0.1-2.1,2.2
				C154.9,76.1,154.9,76.4,154.9,76.9z M158.3,51.2c-0.6,1.3-0.4,2.6-0.6,3.8c-0.6,3.8-1.1,7.7-1.7,11.5c-0.1,0.5-0.1,0.8,0.5,0.8
				c2.2-0.2,4.4-0.5,6.5-0.8c0.5-0.1,0.7-0.3,0.5-0.8C161.8,60.8,160.1,56.1,158.3,51.2z"/>
		</g>
		<g>
			<path fill="#221C1D" d="M236.4,53.1c-3.7-0.6-6.8,0.2-9.6,2.6c-0.4,0.3-0.6,0.4-1.1,0c-1-1-2-1.9-3-2.8c-0.4-0.4-0.4-0.6,0.1-1
				c2.5-1.9,4.7-4.1,6.5-6.6c0.3-0.4,0.7-0.5,1.2-0.4c7.4,1.6,14.8,3.2,22.2,4.7c0.6,0.1,0.8,0.3,0.8,0.9c0.4,3.1,1.4,5.9,3,8.5
				c0.3,0.5,0.3,0.8-0.4,1c-1.1,0.3-2.2,0.7-3.3,1.1c-0.8,0.3-1.2,0.2-1.6-0.6c-1.2-2.6-3.2-4.3-5.7-5.6c-1.1-0.6-1.3-0.2-1.6,0.8
				c-1.7,7.4-3.4,14.8-5.2,22.2c-0.7,2.9-1.4,5.7,0.2,8.6c0.3,0.5-0.1,0.8-0.4,1c-1.3,1-2.3,2.2-2.8,3.7c-0.2,0.6-0.5,0.6-1,0.4
				c-2.1-0.5-4.2-1-6.3-1.4c-0.7-0.1-0.7-0.5-0.7-1c0.2-1.6-0.2-3.1-0.9-4.5c-0.2-0.4-0.4-0.8,0.1-1.1c2.8-2,3.4-5.1,4.1-8.2
				C232.9,68.2,234.6,60.7,236.4,53.1z"/>
		</g>
		<g>
			<path fill="#221C1D" d="M127.9,46.8c0.5-0.1,0.8,0.1,1,0.6c0.7,1.4,1.7,2.7,2.9,3.8c0.5,0.4,0.3,0.7,0,1c-1.3,1.9-1.3,4-0.8,6.2
				c1.8,6.9,3.6,13.8,5.4,20.7c0.5,1.9,1.4,3.6,3.1,4.7c0.7,0.4,0.8,0.9,0.5,1.6c-0.7,1.3-1,2.7-0.8,4.2c0.1,0.8-0.2,1-1,1.2
				c-2,0.4-3.9,0.9-5.8,1.5c-0.9,0.2-1.4,0.1-1.7-0.8c-0.5-1.3-1.4-2.4-2.5-3.1c-0.7-0.5-0.8-0.8-0.5-1.6c1-1.9,1-3.9,0.4-6
				c-1.9-6.9-3.6-13.9-5.4-20.9c-0.5-2-1.4-3.8-3.3-4.8c-0.5-0.3-0.7-0.6-0.4-1.3c0.6-1.4,0.9-3,0.9-4.5c0-0.4,0.1-0.7,0.6-0.8
				C122.9,48,125.4,47.4,127.9,46.8z"/>
		</g>
		<g>
			<path fill="#221C1D" d="M270.7,85.4c0-0.6-0.5-0.8-0.8-1.1c-4-3.2-8-6.4-12.1-9.6c-0.7-0.5-0.7-0.8-0.3-1.5
				c2.1-4.1,4.3-8.3,5.2-12.8c0.4-2,0.9-2.9,3-3.1c1.5-0.2,2.9-1.1,4.1-2.1c0.5-0.4,0.8-0.6,1.5-0.3c3.9,1.5,7.8,2.9,11.7,4.3
				c0.5,0.2,1,0.4,1.2,1c0.8,2.1,2,4,3.3,5.9c0.3,0.4,0.5,0.6,0.1,1.1c-2.1,2.1-2.5,5-3.5,7.6c-0.4,1.1-0.9,1.2-1.9,0.8
				c-1.7-0.8-3.4-1.4-5.1-2.1c-0.8-0.3-1.1-0.6-0.7-1.5c0.7-1.8,1.3-3.6,2-5.4c0.3-0.7,0.3-1.3-0.2-2.1c-2.2-3.5-2.2-3.5-6.1-2
				c-0.6,0.2-0.9,0.6-1.1,1.1c-1.1,2.7-2.2,5.4-3.3,8c-0.3,0.7-0.2,1.2,0.4,1.7c3.9,3.1,7.7,6.2,11.6,9.3c0.7,0.6,0.8,0.9,0.4,1.8
				c-2,4.9-4.4,9.6-5.2,14.9c-0.1,0.5-0.2,0.7-0.7,0.8c-2.4,0.3-4.7,1-6.5,2.7c-0.4,0.4-0.8,0.2-1.1,0c-3.9-1.5-7.8-3.1-11.7-4.6
				c-0.6-0.2-1-0.5-1-1.2c-0.2-2.4-1.2-4.4-2.8-6.1c-0.5-0.5-0.6-0.8-0.1-1.4c1.5-1.7,2.4-3.8,3.1-5.9c0.3-0.9,0.7-1.2,1.6-0.8
				c1.9,0.8,3.8,1.6,5.7,2.3c0.8,0.3,1.1,0.6,0.7,1.4c-0.3,0.5-0.4,1.1-0.6,1.7c-1.5,4-1.5,4,0.5,7.7c0.4,0.6,0.7,0.7,1.3,0.5
				c4.1-1.5,4.1-1.5,5.6-5.6c0.5-1.4,1.1-2.9,1.6-4.3C270.5,86,270.6,85.7,270.7,85.4z"/>
		</g>
		<g>
			<path fill="#221C1D" d="M110.5,90.4c-0.1-0.3-0.2-0.7-0.3-1.1c-0.5-1.4-1.1-2.9-1.7-4.3c-0.8-2.2-0.8-2.2-3.1-1.6
				c-0.6,0.2-0.7,0-0.9-0.5c-0.6-1.6-1.2-3.1-1.9-4.7c-0.2-0.6-0.1-0.8,0.5-1c2.9-1.1,5.8-2.1,8.7-3.2c0.9-0.3,1,0.2,1.3,0.8
				c1.3,3.4,2.7,6.9,4.1,10.3c0.5,1.3,1.1,2.5,2,3.5c0.6,0.7,0.5,1.1,0,1.6c-1.5,1.7-2.5,3.7-2.8,6c-0.1,0.6-0.4,0.8-0.8,1
				c-4.2,1.6-8.4,3.2-12.5,4.8c-0.6,0.2-0.9,0.1-1.4-0.3c-1.8-1.5-3.9-2.4-6.3-2.4c-0.7,0-1-0.2-0.9-0.9c0.2-1.8-0.5-3.4-1.2-5
				c-3.1-7.6-6.1-15.2-9.2-22.7c-0.6-1.4-1.8-2.7-2-4.1c-0.2-1.1,1.6-2.3,2.1-3.7c0.2-0.5,0.5-1.1,0.5-1.6c0-1.9,1.2-2.4,2.7-2.9
				c3.7-1.2,7.3-2.5,11-3.8c0.7-0.2,1.2-0.3,1.8,0.1c1.6,0.9,3.4,1.5,5.3,1.9c0.9,0.2,1.4,0.5,1.3,1.6c-0.2,2.2,1.1,4.1,1.7,6.1
				c0.4,1.1,1.5,2.4,1,3.3c-0.4,0.8-2,0.9-3.1,1.4c-0.9,0.3-1.8,0.6-2.6,1c-1.1,0.5-1.5,0.2-1.9-0.9c-0.7-2-1.6-3.9-2.3-5.8
				c-0.3-0.9-0.8-1.4-1.7-1.6c-1.3-0.2-2.7-1.3-3.7-0.8c-1.1,0.5-1,2.3-1.6,3.4c-0.7,1.3-0.5,2.5,0,3.8c3.3,8.1,6.5,16.3,9.8,24.5
				c0.4,1,0.9,1.6,1.9,1.8c1.3,0.3,2.8,1.6,3.9,1c1-0.5,1.4-2.2,2-3.4C110.2,91.5,110.6,91.1,110.5,90.4z"/>
		</g>
		<g>
			<path fill="#D3702E" d="M154.8,34.3c-1.6,1-3.3,2-4.5,3.6c-0.4,0.6-0.9,1-1.6,0.6c-0.3-0.2-0.6-0.4-0.1-0.6
				c0.1,0,0.2-0.1,0.2-0.2c-0.6-2.2,1.7-2.2,2.5-3.2c0.4-0.5,0.6-0.7,0.3-1.5c-0.5-1.4-0.5-3-0.5-4.6c0-0.6,1-0.7,1.4-1.3
				c0.2-0.2,0.7,0.2,0.9,0.4c0.2,0.2,0.4,0.5,0.2,0.9c-0.9,1.6-0.2,3.2-0.2,4.8C153.7,34.1,154.4,34,154.8,34.3z"/>
		</g>
		<g>
			<path fill="#D3702E" d="M223.4,30c-0.5,2-1.6,3.9-1.2,6c0.1,0.8-0.6,1-1.2,1.1c-0.8,0.1-0.4-0.7-0.5-0.8c-2.1-1.3,0.3-2.7-0.1-4
				c-0.1-0.2,0.1-0.5,0.2-0.7c0.1-0.3,0-0.5-0.2-0.5c-1.3-0.4-1.9-1.7-2.8-2.5c-0.9-0.7-1.2-1.3-0.7-2.4c0.2-0.3,0-0.8,0.6-0.8
				c0.6,0,1.2,0,1.3,0.7c0.3,1.7,1.8,2.5,2.7,3.8C221.9,30.5,222.7,29.9,223.4,30z"/>
		</g>
		<g>
			<path fill="#D3702E" d="M206.1,37.5c-0.7,1.7-1.9,3.1-1.8,5c0,0.8-0.5,1.2-1.3,1.1c-0.4,0-0.8,0-0.4-0.6c0,0,0.1-0.1,0-0.1
				c-1.5-1.7,0.5-2.7,0.7-4.1c0.1-0.5,0.5-0.7-0.3-1.2c-1.3-0.8-1.8-2.5-2.7-3.9c0-0.1,0.2-1.4,0.8-1.5c0.7-0.1,1.5-0.1,1.5,1.2
				C202.6,35.3,204.7,37.4,206.1,37.5z"/>
		</g>
		<g>
			<path fill="#D3702E" d="M177.6,40.3c-1.5,0.9-2.4,2.3-3,3.9c-0.3,0.8-0.7,1.1-1.5,1c-0.5-0.1-0.9-0.1-0.3-0.7
				c0,0,0.1-0.1,0.1-0.1c-1-1.8,1-2.3,1.6-3.4c0.3-0.6,0.7-0.8,0.1-1.6c-0.8-1.1-1-2.7-1.3-4.1c-0.1-0.6,0.9-0.8,1-1.5
				c0-0.1,0.7,0.1,1,0.3c0.6,0.3,0.4,0.8,0.2,1.3C175.1,36.8,176.5,39.7,177.6,40.3z"/>
		</g>
		<g>
			<path fill="#D3702E" d="M213.6,37.9c1-0.9,0.9-2.3,1.4-3.4c0.1-0.2,0.2-0.5-0.2-0.6c-1.6-0.4-1.8-2.1-3-2.8
				c-1.1-0.8-0.2-1.6-0.3-2.4c0-0.3,0.5-0.2,0.7-0.2c0.5,0,1,0.3,1,0.8c0.2,1.7,1.6,2.6,2.5,3.8c0.4,0.6,1.1,0.3,1.9,0.3
				c-0.7,0.9-0.6,2-1.1,2.9c-0.4,0.7-0.6,1.5-0.4,2.4c0.2,0.8-0.3,1.2-1.1,1.2c-0.4,0-0.8,0.1-0.5-0.6
				C214.7,38.6,213.8,38.4,213.6,37.9z"/>
		</g>
		<g>
			<path fill="#D3702E" d="M183.5,40.6c-1.5,1.2-2.8,2.5-3.3,4.4c-0.2,0.7-0.6,0.9-1.2,0.8c-0.9-0.2-0.1-0.6-0.1-0.8
				c-0.1-0.4-0.3-0.8-0.6-1.3c1.1-0.6,1.6-1.8,2.3-2.7c0.1-0.2,0.4-0.4,0.1-0.6c-1.2-0.8-1-2.4-1.7-3.4c-0.8-1.1,0.3-1.7,0.4-2.5
				c0.1-0.4,0.6-0.1,1,0c0.5,0.2,0.8,0.4,0.7,1c-0.3,1.7,0.7,3.1,1.3,4.6C182.6,40.7,183.2,40.3,183.5,40.6z"/>
		</g>
		<g>
			<path fill="#D3702E" d="M215.1,95.2c1.2,0.8,0.8,2,1,3.2c0,0.1,0,0.2-0.1,0.3c-0.1,1,0.7,2.3-1.1,2.8c-0.2,0.1-0.2,0.8-0.8,0.4
				c-0.5-0.3-1-0.6-0.8-1.3c0-0.2,0.2-0.3,0.3-0.5c0.7-1.6,0-3.1-0.1-4.6c0-0.6-0.9-0.5-1.2-0.9c1.5-1.1,3.5-1.6,4.3-3.5
				c0.3-0.7,0.9-0.8,1.5-0.7c0.4,0.1,1.2,0.2,0.2,0.7c0,0-0.1,0.1-0.1,0.1C218.8,93.8,215.9,93.7,215.1,95.2z"/>
		</g>
		<g>
			<path fill="#D3702E" d="M166.7,96.8c-1.1-0.2-2.2,0.3-2-1.5c0.1-1.4-2.4-3.8-3.6-3.9c0.8-1.6,2-3.1,1.9-5.1c0-0.6,0.3-0.9,0.9-1
				c1.1-0.1,0.2,0.6,0.4,0.8c1.7,1.5-0.1,2.6-0.4,3.8c-0.1,0.5-0.5,0.8,0.3,1.4c1.2,0.8,1.8,2.3,2.5,3.6
				C167,95.4,166.1,96,166.7,96.8z"/>
		</g>
		<g>
			<path fill="#D3702E" d="M195.3,89.5c1.4-1.1,2.7-2.2,3.5-3.8c0.3-0.6,0.5-1.1,1.3-1c1,0.1,0.3,0.7,0.5,1.1c0.9,2.1-1.6,2-2,3.3
				c-0.1,0.2-0.5,0.3-0.8,0.7c1.5,0.6,1.1,2.1,1.6,3.2c0.6,1.3,0,2.2-0.8,3c-0.3,0.3-0.5,0.1-0.7,0c-0.4-0.2-0.8-0.5-0.6-1
				c0.7-1.6-0.3-2.9-0.5-4.3C196.5,89.8,195.8,89.6,195.3,89.5z"/>
		</g>
		<g>
			<path fill="#D3702E" d="M221.1,103.4c-0.4,0.2-1-0.1-1.2,0.4c-0.2,0.6-0.5,0.6-0.9,0.2c-0.4-0.4-0.9-0.7-0.5-1.4
				c0.8-1.6,0.2-3.2,0-4.8c-0.1-0.3-0.6-0.6-0.9-0.8c1.4-1.4,3.4-2.2,4.4-4.1c0.3-0.5,1.1-0.5,1.5-0.2c0.7,0.4-0.2,0.7-0.2,0.9
				c0.5,2.2-1.8,2.1-2.6,3.2c-0.3,0.4-1.2,0.7-0.1,1.2c0.2,0.1,0.3,0.4,0.3,0.6C220.8,100.3,221.4,101.8,221.1,103.4L221.1,103.4z"
				/>
		</g>
		<g>
			<g>
				<path fill="#D3702E" d="M158.3,51.2c1.8,4.9,3.5,9.7,5.3,14.4c0.2,0.6,0.1,0.8-0.5,0.8c-2.2,0.2-4.4,0.5-6.5,0.8
					c-0.6,0.1-0.6-0.3-0.5-0.8c0.6-3.8,1.1-7.7,1.7-11.5C157.9,53.7,157.8,52.5,158.3,51.2z M159.8,59.7c-0.3,1.9-0.5,3.5-0.8,5
					c-0.1,0.5,0.1,0.7,0.6,0.6c0.4-0.1,0.8-0.2,1.2-0.1c0.9,0,0.8-0.4,0.6-1C161,62.9,160.5,61.5,159.8,59.7z"/>
			</g>
		</g>
		<g>
			<path fill="#FBFCFA" d="M159.8,59.7c0.7,1.8,1.1,3.1,1.6,4.5c0.3,0.6,0.3,1.1-0.6,1c-0.4,0-0.8,0.1-1.2,0.1
				c-0.5,0.1-0.7-0.1-0.6-0.6C159.3,63.2,159.6,61.7,159.8,59.7z"/>
		</g>
	</g>
	<g>
		<polygon fill="#332D2C" points="320.8,72 394.8,72 390.2,61.7 341.2,61.7 		"/>
	</g>
	<g>
		<polygon fill="#1F140F" points="340.5,59 314,72 320.8,72 341.2,61.7 390.2,61.7 389,59 		"/>
	</g>
	<g>
		<path fill="#0D0D0D" d="M439.1,71c0,0-4.1-2.3-11.4-6v27.4c1.9-0.4,7.2-1.5,11.4-3.5V71z"/>
	</g>
	<g>
		<path d="M439.1,90.4v-1.5c-4.2,2-9.6,3.2-11.4,3.5v4.5C435.3,92.9,439.1,90.4,439.1,90.4z"/>
	</g>
	<g>
		<path fill="#332D2C" d="M127.3,139.2c0,0,0,2.5,0.2,5.7c1.9-0.1,4.7-0.3,8.2-0.4v6.5c-2.8,0.2-5.3,0.6-7.5,1.1
			c0.5,3.6,1.4,6.9,2.9,7.9c0.2,0.1,0.5,0.3,0.9,0.4c2.5-0.6,6.3-1.2,10.9-1.1c6.6,0.2,27.2-0.5,38.7,1.7c7.3-4,12.2-17.3,12.2-17.3
			S182.2,136.7,127.3,139.2z M146.8,150.5c-3.1,0-6.2,0.1-9.1,0.3v-6.4c2.8-0.1,6-0.1,9.4-0.1L146.8,150.5z M158.1,150.6
			c-3-0.1-6.1-0.2-9.3-0.2l0.3-6.1c3,0,6.2,0.1,9.5,0.2L158.1,150.6z M168.5,151.2c-2.5-0.2-5.3-0.3-8.4-0.5l0.5-6.1
			c2.8,0.1,5.7,0.3,8.7,0.5L168.5,151.2z M177.2,151.9c0,0-2.6-0.3-6.7-0.5l0.8-6.1c4,0.3,8.1,0.7,12.2,1.3
			C183.5,146.5,180.3,150.2,177.2,151.9z"/>
	</g>
</g>
</svg>
